<svg xmlns="http://www.w3.org/2000/svg" width="166" height="35" viewBox="0 0 166 35">
    <g fill="none" fill-rule="evenodd">
        <rect width="166" height="35" fill="#FF6262" rx="3"/>
        <path fill="#FFF" fill-rule="nonzero" d="M27.567 22.5h-1.526l-1.246-3.318c-.13-.355-.322-.6-.574-.735-.252-.135-.597-.203-1.036-.203h-2.184V22.5h-1.428v-9.968h4.102c1.092 0 1.93.243 2.513.728s.875 1.18.875 2.086c0 .653-.173 1.209-.518 1.666-.345.457-.835.78-1.47.966.579.103.999.513 1.26 1.232l1.232 3.29zm-4.06-5.418c.728 0 1.27-.142 1.624-.427.355-.285.532-.712.532-1.281 0-.57-.175-.992-.525-1.267-.35-.275-.894-.413-1.631-.413h-2.506v3.388h2.506zM35.225 19h-5.04c.047 1.652.798 2.478 2.254 2.478.812 0 1.554-.266 2.226-.798l.434 1.008c-.317.28-.721.502-1.211.665-.49.163-.982.245-1.477.245-1.13 0-2.016-.324-2.66-.973-.644-.649-.966-1.538-.966-2.667 0-.719.142-1.358.427-1.918a3.14 3.14 0 0 1 1.197-1.302c.513-.308 1.097-.462 1.75-.462.952 0 1.701.308 2.247.924.546.616.819 1.47.819 2.562V19zm-3.038-2.674c-.532 0-.966.159-1.302.476-.336.317-.55.77-.644 1.358h3.738c-.056-.597-.238-1.052-.546-1.365-.308-.313-.723-.469-1.246-.469zm7.126 6.272c-1.232 0-2.203-.299-2.912-.896l.42-1.022c.737.56 1.582.84 2.534.84.485 0 .854-.082 1.106-.245a.78.78 0 0 0 .378-.693c0-.252-.086-.45-.259-.595-.173-.145-.464-.268-.875-.371l-1.176-.28c-.616-.13-1.085-.362-1.407-.693-.322-.331-.483-.744-.483-1.239 0-.635.254-1.148.763-1.54.509-.392 1.183-.588 2.023-.588.504 0 .982.08 1.435.238a3.32 3.32 0 0 1 1.155.672l-.434.994c-.681-.541-1.4-.812-2.156-.812-.457 0-.812.086-1.064.259a.826.826 0 0 0-.378.721c0 .243.08.439.238.588.159.15.41.266.756.35l1.204.294c.672.15 1.169.385 1.491.707.322.322.483.74.483 1.253 0 .635-.254 1.136-.763 1.505s-1.202.553-2.079.553zM49.841 19h-5.04c.047 1.652.798 2.478 2.254 2.478.812 0 1.554-.266 2.226-.798l.434 1.008c-.317.28-.721.502-1.211.665-.49.163-.982.245-1.477.245-1.13 0-2.016-.324-2.66-.973-.644-.649-.966-1.538-.966-2.667 0-.719.142-1.358.427-1.918a3.14 3.14 0 0 1 1.197-1.302c.513-.308 1.097-.462 1.75-.462.952 0 1.701.308 2.247.924.546.616.819 1.47.819 2.562V19zm-3.038-2.674c-.532 0-.966.159-1.302.476-.336.317-.55.77-.644 1.358h3.738c-.056-.597-.238-1.052-.546-1.365-.308-.313-.723-.469-1.246-.469zm6.426.21v3.542c0 .485.105.828.315 1.029.21.2.502.301.875.301.243 0 .49-.037.742-.112v1.148a3.313 3.313 0 0 1-1.05.154c-.728 0-1.293-.205-1.694-.616-.401-.41-.602-1.008-.602-1.792v-3.654h-1.372v-1.092h1.372V13.68l1.414-.49v2.254h1.946v1.092h-1.946zm15.498-4.004h1.162V22.5h-1.302v-6.846L65.633 22.5h-.994l-2.996-6.804.014 6.804h-1.302v-9.968h1.162l3.626 8.232 3.584-8.232zm9.786 2.912l-3.29 7.63c-.364.83-.819 1.44-1.365 1.827s-1.22.646-2.023.777l-.308-1.092c.663-.15 1.164-.343 1.505-.581.34-.238.614-.595.819-1.071l.252-.588-2.968-6.902h1.498l2.212 5.46 2.254-5.46h1.414zm4.956-2.912h4.144c1.045 0 1.86.254 2.443.763s.875 1.202.875 2.079c0 .877-.296 1.57-.889 2.079-.593.509-1.402.763-2.429.763h-2.702V22.5h-1.442v-9.968zm3.976 4.536c.69 0 1.211-.145 1.561-.434.35-.29.525-.71.525-1.26 0-.541-.175-.957-.525-1.246-.35-.29-.87-.434-1.561-.434h-2.534v3.374h2.534zm11.326-1.624V22.5h-1.4v-1.204a2.16 2.16 0 0 1-.917.966c-.406.224-.88.336-1.421.336-.625 0-1.174-.15-1.645-.448a2.983 2.983 0 0 1-1.099-1.267c-.261-.546-.392-1.183-.392-1.911s.133-1.372.399-1.932c.266-.56.637-.994 1.113-1.302a2.924 2.924 0 0 1 1.624-.462c.541 0 1.013.114 1.414.343.401.229.71.553.924.973v-1.148h1.4zm-3.402 6.034c.635 0 1.127-.222 1.477-.665.35-.443.525-1.066.525-1.869 0-.812-.175-1.437-.525-1.876-.35-.439-.847-.658-1.491-.658-.635 0-1.132.226-1.491.679-.36.453-.539 1.08-.539 1.883 0 .793.18 1.41.539 1.848.36.439.861.658 1.505.658zm7.938 1.12c-1.232 0-2.203-.299-2.912-.896l.42-1.022c.737.56 1.582.84 2.534.84.485 0 .854-.082 1.106-.245a.78.78 0 0 0 .378-.693c0-.252-.086-.45-.259-.595-.173-.145-.464-.268-.875-.371l-1.176-.28c-.616-.13-1.085-.362-1.407-.693-.322-.331-.483-.744-.483-1.239 0-.635.254-1.148.763-1.54.509-.392 1.183-.588 2.023-.588.504 0 .982.08 1.435.238a3.32 3.32 0 0 1 1.155.672l-.434.994c-.681-.541-1.4-.812-2.156-.812-.457 0-.812.086-1.064.259a.826.826 0 0 0-.378.721c0 .243.08.439.238.588.159.15.41.266.756.35l1.204.294c.672.15 1.169.385 1.491.707.322.322.483.74.483 1.253 0 .635-.254 1.136-.763 1.505s-1.202.553-2.079.553zm6.972 0c-1.232 0-2.203-.299-2.912-.896l.42-1.022c.737.56 1.582.84 2.534.84.485 0 .854-.082 1.106-.245a.78.78 0 0 0 .378-.693c0-.252-.086-.45-.259-.595-.173-.145-.464-.268-.875-.371l-1.176-.28c-.616-.13-1.085-.362-1.407-.693-.322-.331-.483-.744-.483-1.239 0-.635.254-1.148.763-1.54.509-.392 1.183-.588 2.023-.588.504 0 .982.08 1.435.238a3.32 3.32 0 0 1 1.155.672l-.434.994c-.681-.541-1.4-.812-2.156-.812-.457 0-.812.086-1.064.259a.826.826 0 0 0-.378.721c0 .243.08.439.238.588.159.15.41.266.756.35l1.204.294c.672.15 1.169.385 1.491.707.322.322.483.74.483 1.253 0 .635-.254 1.136-.763 1.505s-1.202.553-2.079.553zm13.958-7.154h1.386l-2.688 7.056h-1.288l-1.89-5.11-1.876 5.11h-1.288l-2.688-7.056h1.47l1.918 5.39 1.946-5.39h1.12l1.946 5.39 1.932-5.39zm5.642 7.154c-.69 0-1.297-.15-1.82-.448a3.04 3.04 0 0 1-1.211-1.274c-.285-.55-.427-1.195-.427-1.932 0-.737.142-1.384.427-1.939a3.03 3.03 0 0 1 1.211-1.281c.523-.299 1.13-.448 1.82-.448.681 0 1.283.15 1.806.448a3.03 3.03 0 0 1 1.211 1.281c.285.555.427 1.202.427 1.939 0 .737-.142 1.381-.427 1.932a3.04 3.04 0 0 1-1.211 1.274c-.523.299-1.125.448-1.806.448zm-.014-1.12c.653 0 1.153-.215 1.498-.644.345-.43.518-1.06.518-1.89 0-.812-.175-1.437-.525-1.876-.35-.439-.842-.658-1.477-.658-.644 0-1.143.22-1.498.658-.355.439-.532 1.064-.532 1.876 0 .83.175 1.46.525 1.89.35.43.847.644 1.491.644zm8.624-6.202c.215 0 .439.033.672.098l-.028 1.288a2.36 2.36 0 0 0-.826-.14c-.644 0-1.127.194-1.449.581-.322.387-.483.875-.483 1.463V22.5h-1.4v-5.068c0-.737-.037-1.4-.112-1.988h1.316l.126 1.274c.187-.467.476-.824.868-1.071s.83-.371 1.316-.371zm8.064-3.08V22.5h-1.4v-1.204a2.16 2.16 0 0 1-.917.966c-.406.224-.88.336-1.421.336a2.924 2.924 0 0 1-1.624-.462 3.091 3.091 0 0 1-1.113-1.295c-.266-.555-.399-1.197-.399-1.925s.13-1.367.392-1.918c.261-.55.628-.975 1.099-1.274.471-.299 1.02-.448 1.645-.448.532 0 1.001.112 1.407.336.406.224.712.541.917.952v-4.368h1.414zm-3.416 9.282c.644 0 1.141-.222 1.491-.665.35-.443.525-1.066.525-1.869 0-.803-.175-1.426-.525-1.869-.35-.443-.842-.665-1.477-.665-.644 0-1.146.22-1.505.658-.36.439-.539 1.055-.539 1.848 0 .803.18 1.43.539 1.883.36.453.856.679 1.491.679z"/>
    </g>
</svg>
