<?xml version="1.0" encoding="UTF-8"?>
<svg width="60px" height="60px" viewBox="0 0 60 60" version="1.1" xmlns="http://www.w3.org/2000/svg" xmlns:xlink="http://www.w3.org/1999/xlink">
    <!-- Generator: Sketch 54.1 (76490) - https://sketchapp.com -->
    <title>Group 30</title>
    <desc>Created with Sketch.</desc>
    <g id="Admin-Manager" stroke="none" stroke-width="1" fill="none" fill-rule="evenodd">
        <g id="Admin-Manager---Dashboad" transform="translate(-871.000000, -230.000000)" fill="#2EC145">
            <g id="Group-38" transform="translate(151.000000, 210.000000)">
                <g id="Group-40" transform="translate(702.000000, 0.000000)">
                    <g id="Group-30" transform="translate(18.000000, 20.000000)">
                        <rect id="Rectangle" opacity="0.200000003" x="0" y="0" width="60" height="60" rx="3"></rect>
                        <g id="Icons-/-Check-Circle-Color" transform="translate(13.000000, 13.000000)">
                            <g id="Icons-/-Check-Circle">
                                <path d="M29.8743457,5.12558594 C26.5690332,1.8203418 22.1744141,0 17.5,0 C12.8255176,0 8.43083008,1.8203418 5.12558594,5.12558594 C1.82027344,8.43089844 0,12.8255859 0,17.5 C0,22.1744141 1.82027344,26.5690332 5.12558594,29.8743457 C8.43089844,33.1796582 12.8255176,35 17.5,35 C22.1744141,35 26.5690332,33.1796582 29.8743457,29.8743457 C33.1796582,26.5690332 35,22.1744141 35,17.5 C35,12.8255859 33.1796582,8.4309668 29.8743457,5.12558594 Z M17.5,32.9492188 C8.98125977,32.9492188 2.05078125,26.0187402 2.05078125,17.5 C2.05078125,8.98125977 8.98125977,2.05078125 17.5,2.05078125 C26.0187402,2.05078125 32.9492188,8.98125977 32.9492188,17.5 C32.9492188,26.0187402 26.0187402,32.9492188 17.5,32.9492188 Z" id="Shape" fill-rule="nonzero"></path>
                                <path d="M25.8606934,11.8848926 C25.4603125,11.4845801 24.8110352,11.4845801 24.4106543,11.8849609 L15.3558398,20.9397754 L10.5893457,16.1732812 C10.1889648,15.7729004 9.5396875,15.7729004 9.13923828,16.1732812 C8.73878906,16.5736621 8.73878906,17.2229395 9.13923828,17.6233887 L14.630752,23.1149023 C14.8309766,23.315127 15.0934082,23.4152051 15.3557715,23.4152051 C15.6181348,23.4152051 15.8806348,23.3150586 16.080791,23.1149023 L25.8606934,13.335 C26.2611426,12.9346191 26.2611426,12.2853418 25.8606934,11.8848926 Z" id="Path" fill-rule="nonzero"></path>
                            </g>
                        </g>
                    </g>
                </g>
            </g>
        </g>
    </g>
</svg>