<?xml version="1.0" encoding="UTF-8"?>
<svg width="10px" height="12px" viewBox="0 0 10 12" version="1.1" xmlns="http://www.w3.org/2000/svg" xmlns:xlink="http://www.w3.org/1999/xlink">
    <!-- Generator: Sketch 54.1 (76490) - https://sketchapp.com -->
    <title>icon-delete-grey</title>
    <desc>Created with Sketch.</desc>
    <g id="Symbols" stroke="none" stroke-width="1" fill="none" fill-rule="evenodd">
        <g id="Delete02" transform="translate(-5.000000, -4.000000)" fill="#2F3744" fill-rule="nonzero" stroke="#2F3744" stroke-width="0.2">
            <g id="icon-delete-grey" transform="translate(5.000000, 5.000000)">
                <path d="M7.07777785,10.888889 L2.66777781,10.888889 C1.76944446,10.888889 1.06166668,10.153889 1.06166668,9.28277787 L1.06166668,4.3555556 C1.06166668,4.19222227 1.17055557,4.08333338 1.3338889,4.08333338 C1.49722224,4.08333338 1.60611113,4.19222227 1.60611113,4.3555556 L1.60611113,9.28277787 C1.60611113,9.88166677 2.09611113,10.3444445 2.66777781,10.3444445 L7.07777785,10.3444445 C7.67666675,10.3444445 8.13944453,9.85444454 8.13944453,9.28277787 L8.13944453,4.3555556 C8.13944453,4.19222227 8.24833342,4.08333338 8.41166675,4.08333338 C8.57500009,4.08333338 8.68388898,4.19222227 8.68388898,4.3555556 L8.68388898,9.28277787 C8.68388898,10.153889 7.94888897,10.888889 7.07777785,10.888889 Z M8.52055564,1.3338889 C9.14666676,1.3338889 9.66388899,1.79666668 9.66388899,2.4227778 C9.66388899,3.04888892 9.17388898,3.53888892 8.54777786,3.53888892 L1.22500001,3.53888892 C0.598888895,3.53888892 0.10888889,3.07611114 0.10888889,2.45000002 C0.10888889,1.82388891 0.598888895,1.3338889 1.22500001,1.3338889 L3.29388892,1.3338889 C3.43000003,0.571666672 4.08333337,-1.04360964e-14 4.87277783,-1.04360964e-14 C5.66222228,-1.04360964e-14 6.31555562,0.571666672 6.45166673,1.3338889 L8.52055564,1.3338889 Z M4.87277783,0.54444445 C4.38277782,0.54444445 3.97444448,0.87111112 3.83833337,1.3338889 L5.88000006,1.3338889 C5.77111117,0.87111112 5.36277783,0.54444445 4.87277783,0.54444445 Z M8.52055564,2.99444447 C8.84722231,2.99444447 9.09222231,2.74944447 9.11944454,2.4227778 C9.11944454,2.09611113 8.84722231,1.85111113 8.54777786,1.85111113 L1.22500001,1.85111113 C0.898333342,1.85111113 0.65333334,2.12333335 0.65333334,2.4227778 C0.65333334,2.74944447 0.925555565,2.99444447 1.22500001,2.99444447 L8.52055564,2.99444447 Z M2.96722225,9.5550001 C2.80388892,9.5550001 2.69500003,9.44611121 2.69500003,9.28277787 L2.69500003,4.73666672 C2.69500003,4.57333338 2.80388892,4.46444449 2.96722225,4.46444449 C3.13055559,4.46444449 3.23944448,4.57333338 3.23944448,4.73666672 L3.23944448,9.28277787 C3.23944448,9.41888899 3.10333337,9.5550001 2.96722225,9.5550001 Z M6.7783334,9.5550001 C6.61500007,9.5550001 6.50611118,9.44611121 6.50611118,9.28277787 L6.50611118,4.73666672 C6.50611118,4.57333338 6.61500007,4.46444449 6.7783334,4.46444449 C6.94166674,4.46444449 7.05055563,4.57333338 7.05055563,4.73666672 L7.05055563,9.28277787 C7.05055563,9.41888899 6.91444452,9.5550001 6.7783334,9.5550001 Z M4.87277783,9.5550001 C4.70944449,9.5550001 4.6005556,9.44611121 4.6005556,9.28277787 L4.6005556,4.73666672 C4.6005556,4.57333338 4.70944449,4.46444449 4.87277783,4.46444449 C5.03611116,4.46444449 5.14500005,4.57333338 5.14500005,4.73666672 L5.14500005,9.28277787 C5.14500005,9.41888899 5.00888894,9.5550001 4.87277783,9.5550001 Z" id="Combined-Shape"></path>
            </g>
        </g>
    </g>
</svg>