<?xml version="1.0" encoding="UTF-8"?>
<svg width="12px" height="14px" viewBox="0 0 12 14" version="1.1" xmlns="http://www.w3.org/2000/svg" xmlns:xlink="http://www.w3.org/1999/xlink">
    <!-- Generator: Sketch 53.2 (72643) - https://sketchapp.com -->
    <title>Add-icon Copy 4</title>
    <desc>Created with Sketch.</desc>
    <g id="Admin-Manager" stroke="none" stroke-width="1" fill="none" fill-rule="evenodd">
        <g id="Client-Administration-6.2.1" transform="translate(-865.000000, -807.000000)" fill="#FFFFFF" fill-rule="nonzero" stroke="#FFFFFF" stroke-width="0.2">
            <g id="Add-icon-Copy-4" transform="translate(865.000000, 808.000000)">
                <g id="iconfinder_trash_bin_1370026">
                    <path d="M8.36464655,12.868687 L3.15282832,12.868687 C2.09116164,12.868687 1.25469698,12.0000506 1.25469698,10.9705557 L1.25469698,5.1474748 C1.25469698,4.9544445 1.38338385,4.82575763 1.57641416,4.82575763 C1.76944446,4.82575763 1.89813133,4.9544445 1.89813133,5.1474748 L1.89813133,10.9705557 C1.89813133,11.6783335 2.47722225,12.2252526 3.15282832,12.2252526 L8.36464655,12.2252526 C9.07242434,12.2252526 9.61934353,11.6461617 9.61934353,10.9705557 L9.61934353,5.1474748 C9.61934353,4.9544445 9.7480304,4.82575763 9.94106071,4.82575763 C10.134091,4.82575763 10.2627779,4.9544445 10.2627779,5.1474748 L10.2627779,10.9705557 C10.2627779,12.0000506 9.39414151,12.868687 8.36464655,12.868687 Z M10.0697476,1.57641416 C10.8096971,1.57641416 11.4209597,2.12333335 11.4209597,2.86328286 C11.4209597,3.60323236 10.8418688,4.18232327 10.1019193,4.18232327 L1.44772729,4.18232327 C0.707777785,4.18232327 0.12868687,3.63540408 0.12868687,2.89545457 C0.12868687,2.15550507 0.707777785,1.57641416 1.44772729,1.57641416 L3.89277782,1.57641416 C4.0536364,0.675606067 4.82575762,-1.02140518e-14 5.75873743,-1.02140518e-14 C6.69171724,-1.02140518e-14 7.46383846,0.675606067 7.62469705,1.57641416 L10.0697476,1.57641416 Z M5.75873743,0.64343435 C5.17964652,0.64343435 4.69707075,1.02949496 4.53621217,1.57641416 L6.94909098,1.57641416 C6.82040411,1.02949496 6.33782835,0.64343435 5.75873743,0.64343435 Z M10.0697476,3.53888892 C10.4558082,3.53888892 10.7453536,3.24934347 10.7775254,2.86328286 C10.7775254,2.47722225 10.4558082,2.18767679 10.1019193,2.18767679 L1.44772729,2.18767679 C1.06166668,2.18767679 0.77212122,2.50939396 0.77212122,2.86328286 C0.77212122,3.24934347 1.09383839,3.53888892 1.44772729,3.53888892 L10.0697476,3.53888892 Z M3.50671721,11.2922728 C3.3136869,11.2922728 3.18500003,11.163586 3.18500003,10.9705557 L3.18500003,5.59787884 C3.18500003,5.40484854 3.3136869,5.27616167 3.50671721,5.27616167 C3.69974751,5.27616167 3.82843438,5.40484854 3.82843438,5.59787884 L3.82843438,10.9705557 C3.82843438,11.1314143 3.6675758,11.2922728 3.50671721,11.2922728 Z M8.01075766,11.2922728 C7.81772735,11.2922728 7.68904048,11.163586 7.68904048,10.9705557 L7.68904048,5.59787884 C7.68904048,5.40484854 7.81772735,5.27616167 8.01075766,5.27616167 C8.20378796,5.27616167 8.33247483,5.40484854 8.33247483,5.59787884 L8.33247483,10.9705557 C8.33247483,11.1314143 8.17161625,11.2922728 8.01075766,11.2922728 Z M5.75873743,11.2922728 C5.56570713,11.2922728 5.43702026,11.163586 5.43702026,10.9705557 L5.43702026,5.59787884 C5.43702026,5.40484854 5.56570713,5.27616167 5.75873743,5.27616167 C5.95176774,5.27616167 6.08045461,5.40484854 6.08045461,5.59787884 L6.08045461,10.9705557 C6.08045461,11.1314143 5.91959602,11.2922728 5.75873743,11.2922728 Z" id="Combined-Shape"></path>
                </g>
            </g>
        </g>
    </g>
</svg>