<?xml version="1.0" encoding="UTF-8"?>
<svg width="83px" height="14px" viewBox="0 0 83 14" version="1.1" xmlns="http://www.w3.org/2000/svg" xmlns:xlink="http://www.w3.org/1999/xlink">
    <!-- Generator: Sketch 54.1 (76490) - https://sketchapp.com -->
    <title>+Addimage 2</title>
    <desc>Created with Sketch.</desc>
    <g id="Admin-Manager" stroke="none" stroke-width="1" fill="none" fill-rule="evenodd">
        <g id="Buttons-/-Floating-/-Primary-/-Button-Small" transform="translate(-41.000000, -12.000000)" fill="#FFFFFF" fill-rule="nonzero">
            <g id="+Addimage-2" transform="translate(41.277000, 12.196000)">
                <path d="M6.888,5.754 L6.888,6.79 L3.962,6.79 L3.962,9.73 L2.926,9.73 L2.926,6.79 L6.96331881e-13,6.79 L6.96331881e-13,5.754 L2.926,5.754 L2.926,2.828 L3.962,2.828 L3.962,5.754 L6.888,5.754 Z M20.16,10.304 L19.096,7.84 L14.056,7.84 L12.992,10.304 L11.522,10.304 L15.96,0.336 L17.178,0.336 L21.63,10.304 L20.16,10.304 Z M14.546,6.692 L18.606,6.692 L16.576,1.946 L14.546,6.692 Z M29.246,-2.62012634e-13 L29.246,10.304 L27.846,10.304 L27.846,9.1 C27.6406656,9.5200021 27.335002,9.84199888 26.929,10.066 C26.522998,10.2900011 26.049336,10.402 25.508,10.402 C24.9013303,10.402 24.3600024,10.2480015 23.884,9.94 C23.4079976,9.63199846 23.0370013,9.20033611 22.771,8.645 C22.5049987,8.08966389 22.372,7.44800364 22.372,6.72 C22.372,5.99199636 22.5026654,5.35266942 22.764,4.802 C23.0253346,4.25133058 23.3916643,3.82666816 23.863,3.528 C24.3343357,3.22933184 24.8826635,3.08 25.508,3.08 C26.0400027,3.08 26.508998,3.19199888 26.915,3.416 C27.321002,3.64000112 27.6266656,3.95733128 27.832,4.368 L27.832,-2.62012634e-13 L29.246,-2.62012634e-13 Z M25.83,9.282 C26.4740032,9.282 26.9709983,9.06033555 27.321,8.617 C27.6710018,8.17366445 27.846,7.55067068 27.846,6.748 C27.846,5.94532932 27.6710018,5.32233555 27.321,4.879 C26.9709983,4.43566445 26.4786698,4.214 25.844,4.214 C25.1999968,4.214 24.6983351,4.43333114 24.339,4.872 C23.9796649,5.31066886 23.8,5.9266627 23.8,6.72 C23.8,7.52267068 23.9796649,8.15033107 24.339,8.603 C24.6983351,9.05566893 25.1953302,9.282 25.83,9.282 Z M37.772,-2.62012634e-13 L37.772,10.304 L36.372,10.304 L36.372,9.1 C36.1666656,9.5200021 35.861002,9.84199888 35.455,10.066 C35.048998,10.2900011 34.575336,10.402 34.034,10.402 C33.4273303,10.402 32.8860024,10.2480015 32.41,9.94 C31.9339976,9.63199846 31.5630013,9.20033611 31.297,8.645 C31.0309987,8.08966389 30.898,7.44800364 30.898,6.72 C30.898,5.99199636 31.0286654,5.35266942 31.29,4.802 C31.5513346,4.25133058 31.9176643,3.82666816 32.389,3.528 C32.8603357,3.22933184 33.4086635,3.08 34.034,3.08 C34.5660027,3.08 35.034998,3.19199888 35.441,3.416 C35.847002,3.64000112 36.1526656,3.95733128 36.358,4.368 L36.358,-2.62012634e-13 L37.772,-2.62012634e-13 Z M34.356,9.282 C35.0000032,9.282 35.4969983,9.06033555 35.847,8.617 C36.1970018,8.17366445 36.372,7.55067068 36.372,6.748 C36.372,5.94532932 36.1970018,5.32233555 35.847,4.879 C35.4969983,4.43566445 35.0046698,4.214 34.37,4.214 C33.7259968,4.214 33.2243351,4.43333114 32.865,4.872 C32.5056649,5.31066886 32.326,5.9266627 32.326,6.72 C32.326,7.52267068 32.5056649,8.15033107 32.865,8.603 C33.2243351,9.05566893 33.7213302,9.282 34.356,9.282 Z M43.582,10.304 L43.582,3.248 L44.982,3.248 L44.982,10.304 L43.582,10.304 Z M43.456,0.168 L45.094,0.168 L45.094,1.652 L43.456,1.652 L43.456,0.168 Z M55.104,3.08 C56.6720078,3.08 57.456,4.02265724 57.456,5.908 L57.456,10.304 L56.042,10.304 L56.042,5.978 C56.042,5.3713303 55.9370011,4.9280014 55.727,4.648 C55.516999,4.3679986 55.178669,4.228 54.712,4.228 C54.170664,4.228 53.7436682,4.4146648 53.431,4.788 C53.1183318,5.1613352 52.962,5.66999678 52.962,6.314 L52.962,10.304 L51.548,10.304 L51.548,5.978 C51.548,5.3713303 51.4430011,4.9280014 51.233,4.648 C51.022999,4.3679986 50.684669,4.228 50.218,4.228 C49.676664,4.228 49.2473349,4.4146648 48.93,4.788 C48.6126651,5.1613352 48.454,5.66999678 48.454,6.314 L48.454,10.304 L47.054,10.304 L47.054,5.236 C47.054,4.49866298 47.016667,3.83600294 46.942,3.248 L48.258,3.248 L48.384,4.424 C48.5893344,3.99466452 48.8833314,3.6633345 49.266,3.43 C49.6486686,3.1966655 50.0966641,3.08 50.61,3.08 C51.7020055,3.08 52.4159983,3.53266214 52.752,4.438 C52.9666677,4.0179979 53.2816646,3.68666788 53.697,3.444 C54.1123354,3.20133212 54.5813307,3.08 55.104,3.08 Z M65.94,3.248 L65.94,10.304 L64.54,10.304 L64.54,9.1 C64.3346656,9.5200021 64.029002,9.84199888 63.623,10.066 C63.216998,10.2900011 62.743336,10.402 62.202,10.402 C61.5766635,10.402 61.0283357,10.2526682 60.557,9.954 C60.0856643,9.65533184 59.7193346,9.23300273 59.458,8.687 C59.1966654,8.14099727 59.066,7.50400364 59.066,6.776 C59.066,6.04799636 59.1989987,5.4040028 59.465,4.844 C59.7310013,4.2839972 60.1019976,3.85000154 60.578,3.542 C61.0540024,3.23399846 61.5953303,3.08 62.202,3.08 C62.743336,3.08 63.2146647,3.19433219 63.616,3.423 C64.0173353,3.65166781 64.3253323,3.9759979 64.54,4.396 L64.54,3.248 L65.94,3.248 Z M62.538,9.282 C63.1726698,9.282 63.6649983,9.06033555 64.015,8.617 C64.3650018,8.17366445 64.54,7.55067068 64.54,6.748 C64.54,5.93599594 64.3650018,5.31066886 64.015,4.872 C63.6649983,4.43333114 63.1680032,4.214 62.524,4.214 C61.8893302,4.214 61.3923351,4.44033107 61.033,4.893 C60.6736649,5.34566893 60.494,5.97332932 60.494,6.776 C60.494,7.5693373 60.6736649,8.18533114 61.033,8.624 C61.3923351,9.06266886 61.8939968,9.282 62.538,9.282 Z M74.522,3.248 L74.522,10.178 C74.522,11.2513387 74.2396695,12.0609973 73.675,12.607 C73.1103305,13.1530027 72.2726722,13.426 71.162,13.426 C70.0886613,13.426 69.1506707,13.192669 68.348,12.726 L68.586,11.62 C69.0246689,11.8533345 69.446998,12.0259994 69.853,12.138 C70.259002,12.2500006 70.6906644,12.306 71.148,12.306 C72.4640066,12.306 73.122,11.6340067 73.122,10.29 L73.122,8.764 C72.9073323,9.17466872 72.5946687,9.49899881 72.184,9.737 C71.7733313,9.97500119 71.297336,10.094 70.756,10.094 C70.1399969,10.094 69.5916691,9.94933478 69.111,9.66 C68.6303309,9.37066522 68.2570013,8.96000266 67.991,8.428 C67.7249987,7.89599734 67.592,7.28467012 67.592,6.594 C67.592,5.90332988 67.7249987,5.29200266 67.991,4.76 C68.2570013,4.22799734 68.6303309,3.81500147 69.111,3.521 C69.5916691,3.22699853 70.1399969,3.08 70.756,3.08 C71.297336,3.08 71.7733313,3.19433219 72.184,3.423 C72.5946687,3.65166781 72.9073323,3.9759979 73.122,4.396 L73.122,3.248 L74.522,3.248 Z M71.078,8.96 C71.7126698,8.96 72.2119982,8.7500021 72.576,8.33 C72.9400018,7.9099979 73.122,7.33133702 73.122,6.594 C73.122,5.85666298 72.9423351,5.27566879 72.583,4.851 C72.2236649,4.42633121 71.7220032,4.214 71.078,4.214 C70.4433302,4.214 69.9416685,4.42633121 69.573,4.851 C69.2043315,5.27566879 69.02,5.85666298 69.02,6.594 C69.02,7.32200364 69.2043315,7.89833121 69.573,8.323 C69.9416685,8.74766879 70.4433302,8.96 71.078,8.96 Z M82.614,6.804 L77.574,6.804 C77.6206669,8.45600826 78.3719927,9.282 79.828,9.282 C80.6400041,9.282 81.3819966,9.01600266 82.054,8.484 L82.488,9.492 C82.1706651,9.7720014 81.7670025,9.99366585 81.277,10.157 C80.7869976,10.3203341 80.2946691,10.402 79.8,10.402 C78.670661,10.402 77.7840032,10.0776699 77.14,9.429 C76.4959968,8.78033009 76.174,7.89133898 76.174,6.762 C76.174,6.04332974 76.3163319,5.4040028 76.601,4.844 C76.8856681,4.2839972 77.2846641,3.85000154 77.798,3.542 C78.3113359,3.23399846 78.8946634,3.08 79.548,3.08 C80.5000048,3.08 81.2489973,3.38799692 81.795,4.004 C82.3410027,4.62000308 82.614,5.47399454 82.614,6.566 L82.614,6.804 Z M79.576,4.13 C79.0439973,4.13 78.6100017,4.28866508 78.274,4.606 C77.9379983,4.92333492 77.7233338,5.37599706 77.63,5.964 L81.368,5.964 C81.3119997,5.36666368 81.1300015,4.91166823 80.822,4.599 C80.5139985,4.28633177 80.0986693,4.13 79.576,4.13 Z" id="+Addimage"></path>
            </g>
        </g>
    </g>
</svg>