<?xml version="1.0" encoding="UTF-8"?>
<svg width="22px" height="22px" viewBox="0 0 22 22" version="1.1" xmlns="http://www.w3.org/2000/svg" xmlns:xlink="http://www.w3.org/1999/xlink">
    <!-- Generator: Sketch 54.1 (76490) - https://sketchapp.com -->
    <title>icon-view</title>
    <desc>Created with Sketch.</desc>
    <g id="Symbols" stroke="none" stroke-width="1" fill="none" fill-rule="evenodd">
        <g id="Table-Row---02-row-3icon" transform="translate(-1017.000000, -18.000000)">
            <g id="icon-view" transform="translate(1018.000000, 19.000000)">
                <path d="M10,7 C12.9381443,7 15.7628866,9.79381443 15.8762887,9.91752577 C15.9587629,10 16,10.1030928 16,10.2164948 C16,10.3298969 15.9587629,10.4329897 15.8762887,10.5154639 C15.7628866,10.6391753 12.9278351,13.4329897 10,13.4329897 C7.07216495,13.4329897 4.24742268,10.6391753 4.12371134,10.5154639 C4.04123711,10.4329897 4,10.3298969 4,10.2164948 C4,10.1030928 4.04123711,10 4.12371134,9.91752577 C4.2371134,9.79381443 7.07216495,7 10,7 Z M10,12.5773196 C12.0515464,12.5773196 14.1649485,10.9072165 14.9587629,10.2061856 C14.1649485,9.50515464 12.0515464,7.83505155 10,7.83505155 C7.94845361,7.83505155 5.83505155,9.50515464 5.04123711,10.2061856 C5.83505155,10.9072165 7.94845361,12.5773196 10,12.5773196 Z M8.48453608,10.2061856 C8.48453608,9.37113402 9.16494845,8.68041237 10.0103093,8.68041237 C10.8556701,8.68041237 11.5360825,9.36082474 11.5360825,10.2061856 C11.5360825,11.0515464 10.8556701,11.7319588 10.0103093,11.7319588 C9.16494845,11.7319588 8.48453608,11.0412371 8.48453608,10.2061856 Z M10.6804124,10.2061856 C10.6804124,9.83505155 10.371134,9.53608247 10,9.5257732 C9.6185567,9.5257732 9.31958763,9.82474227 9.31958763,10.2061856 C9.31958763,10.5876289 9.62886598,10.8865979 10,10.8865979 C10.3814433,10.8865979 10.6804124,10.5773196 10.6804124,10.2061856 Z" id="Combined-Shape" fill="#2F3744" fill-rule="nonzero"></path>
                <circle id="Oval" stroke="#2F3744" stroke-width="1.5" stroke-linecap="round" stroke-linejoin="round" cx="10" cy="10" r="10"></circle>
            </g>
        </g>
    </g>
</svg>