<?xml version="1.0" encoding="UTF-8"?>
<svg width="53px" height="35px" viewBox="0 0 53 35" version="1.1" xmlns="http://www.w3.org/2000/svg" xmlns:xlink="http://www.w3.org/1999/xlink">
    <!-- Generator: Sketch 54.1 (76490) - https://sketchapp.com -->
    <title>Menu-Icon</title>
    <desc>Created with Sketch.</desc>
    <g id="Menu-Icon" stroke="none" stroke-width="1" fill="none" fill-rule="evenodd">
        <g id="menu-(1)" fill="#FFFFFF" fill-rule="nonzero">
            <path d="M2,4.5 L51,4.5 C52.104,4.5 53,3.604 53,2.5 C53,1.396 52.104,0.5 51,0.5 L2,0.5 C0.896,0.5 0,1.396 0,2.5 C0,3.604 0.896,4.5 2,4.5 Z" id="Path"></path>
            <path d="M2,19.5 L51,19.5 C52.104,19.5 53,18.604 53,17.5 C53,16.396 52.104,15.5 51,15.5 L2,15.5 C0.896,15.5 0,16.396 0,17.5 C0,18.604 0.896,19.5 2,19.5 Z" id="Path"></path>
            <path d="M2,34.5 L51,34.5 C52.104,34.5 53,33.604 53,32.5 C53,31.396 52.104,30.5 51,30.5 L2,30.5 C0.896,30.5 0,31.396 0,32.5 C0,33.604 0.896,34.5 2,34.5 Z" id="Path"></path>
        </g>
    </g>
</svg>