<svg fill="#202020" enable-background="new 0 0 509.316 63.573" version="1.1" viewBox="0 0 509.316 63.573" xml:space="preserve" xmlns="http://www.w3.org/2000/svg" cursorshover="true">
<path d="m1.07 60.265l-1.07-16.552h2.336l4.089 9.638c3.504 5.356 8.373 7.983 14.506 7.983 8.178-0.097 12.754-4.868 12.754-11.78 0-7.886-6.524-11.002-14.993-13.823-9.638-3.408-17.33-7.401-17.33-17.623 0-9.735 8.081-18.01 20.932-18.01 5.452 0 9.93 0.974 13.435 2.044l4.283-1.361 0.292 18.01h-2.141l-7.01-14.019c-2.336-1.463-5.256-2.531-9.248-2.531-6.718 0-11.099 4.184-11.099 9.636 0 7.108 6.328 9.542 14.117 12.367 10.611 3.601 18.4 8.079 18.4 19.274 0 10.418-9.054 19.958-22.976 19.958-7.497 0.098-13.825-1.266-19.277-3.211"></path>
<path d="m116.03 60.265c3.018-0.293 4.185-0.975 4.185-1.753v-55.203h-2.336c-9.151 0.293-14.506 7.011-17.328 13.436l-1.072 3.506h-2.629l2.532-18.887h55.102l1.267 18.79h-2.336l-1.072-3.409c-2.823-7.009-7.984-13.436-16.939-13.436h-2.532v55.493c0 0.779 0.681 1.072 4.966 1.463l3.796 0.389 0.291 1.557h-30.763l0.293-1.557 4.575-0.389z" cursorshover="true"></path>
<path d="m209.28 32.03c0-17.427 15.286-31.933 33.686-31.933 19.08 0 32.711 12.656 32.711 31.64 0 17.429-15.286 31.836-33.685 31.836-19.08 0-32.712-12.753-32.712-31.543m52.476 0c0-18.983-7.886-29.791-19.569-29.791-12.073 0-19.179 9.638-19.179 29.4 0 19.083 7.789 29.792 19.763 29.792 11.976 1e-3 18.985-9.637 18.985-29.401" cursorshover="true"></path>
<path d="m330.57 32.419c0-18.691 13.629-32.419 35.728-32.419 6.134 0 12.364 1.751 15.382 3.31l7.01-2.043 0.488 20.151h-2.435l-8.179-16.259c-2.627-1.655-6.814-2.92-12.169-2.92-14.116 0-22.1 12.56-22.1 29.304 0 18.206 9.248 29.791 21.905 29.791 8.859 0 14.116-3.894 18.401-10.903l3.602-8.471h2.629l-2.922 18.109h-4.186c-3.701 1.558-11.489 3.407-18.206 3.407-20.93 1e-3 -34.948-12.558-34.948-31.057" cursorshover="true"></path>
<path d="m447.59 60.265c3.115-0.391 4.187-0.975 4.187-1.753v-53.741c0-0.684-0.487-1.17-4.965-1.463l-2.823-0.388-0.293-1.558h29.306l-0.293 1.558-4.089 0.388c-3.115 0.293-4.283 1.072-4.283 1.753v29.209l15.187-15.576c11.878-12.172 11.487-14.605 3.895-15.385l-3.018-0.388-0.195-1.558h26.092l-0.292 1.558-2.63 0.388c-6.424 0.779-8.663 3.213-20.056 14.896l-3.894 3.799 18.79 30.375c3.895 6.815 5.257 7.496 8.958 7.982l1.849 0.293 0.293 1.557h-28.43l0.195-1.557 1.947-0.389c3.993-0.487 3.993-1.851-0.39-9.64l-11.878-19.957-6.424 6.424v21.71c0 0.779 0.682 1.072 5.062 1.463l3.214 0.389 0.291 1.557h-29.304l0.292-1.557 3.699-0.389z" cursorshover="true"></path>
</svg>