<svg width="100" height="110" viewBox="0 0 100 110" fill="none" xmlns="http://www.w3.org/2000/svg">
<path d="M20.9969 90.2858C31.5833 90.2858 40.1652 81.7032 40.1652 71.116C40.1652 60.5288 31.5833 51.9462 20.9969 51.9462C10.4106 51.9462 1.82861 60.5288 1.82861 71.116C1.82861 81.7032 10.4106 90.2858 20.9969 90.2858Z" stroke="white" stroke-width="2.5" stroke-miterlimit="10"/>
<path d="M20.9968 58.1709V3.98315" stroke="white" stroke-width="2.5" stroke-miterlimit="10"/>
<path d="M20.9968 58.4253L29.4924 72.9219L20.9968 87.42L12.4998 72.9219L20.9968 58.4253Z" stroke="white" stroke-width="2.5" stroke-miterlimit="10"/>
<path d="M20.9968 106.468L15.4897 97.0719L20.9968 87.6742L26.5039 97.0719L20.9968 106.468Z" stroke="white" stroke-width="2.5" stroke-miterlimit="10"/>
<path d="M7.5757 26.1103L2.07007 16.714L7.5757 7.31763L13.0828 16.714L7.5757 26.1103Z" stroke="white" stroke-width="2.5" stroke-miterlimit="10"/>
<path d="M20.9969 17.2897H13.0828" stroke="white" stroke-width="2.5" stroke-miterlimit="10"/>
<path d="M70.5204 24.7245C76.8542 24.7245 81.9888 19.5895 81.9888 13.2552C81.9888 6.92087 76.8542 1.78589 70.5204 1.78589C64.1866 1.78589 59.052 6.92087 59.052 13.2552C59.052 19.5895 64.1866 24.7245 70.5204 24.7245Z" stroke="white" stroke-width="2.5" stroke-miterlimit="10"/>
<path d="M59.0562 31.3977C60.6219 29.7233 61.5819 27.4717 61.5819 24.9973C61.5819 19.8212 57.3848 15.6252 52.2092 15.6252C47.0335 15.6252 42.8379 19.8212 42.8379 24.9973V26.5245C42.8379 33.6164 49.4249 39.3668 57.5491 39.3668C63.1747 39.3668 68.059 36.6109 70.5346 32.5635" stroke="white" stroke-width="2.5" stroke-miterlimit="10" stroke-linecap="round"/>
<path d="M81.9974 31.3977C80.4303 29.7233 79.4703 27.4717 79.4703 24.9973C79.4703 19.8212 83.6659 15.6252 88.8444 15.6252C94.0201 15.6252 98.2157 19.8212 98.2157 24.9973V26.5245C98.2157 33.6164 91.6287 39.3668 83.5045 39.3668C77.8789 39.3668 72.9932 36.6109 70.5161 32.5635" stroke="white" stroke-width="2.5" stroke-miterlimit="10" stroke-linecap="round"/>
<path d="M70.5205 24.7245V104.295H87.3174" stroke="white" stroke-width="2.5" stroke-miterlimit="10"/>
<path d="M70.5347 89.04H87.3187" stroke="white" stroke-width="2.5" stroke-miterlimit="10"/>
<path d="M70.5347 96.6677H87.3187" stroke="white" stroke-width="2.5" stroke-miterlimit="10"/>
<path d="M61.6292 46.7859H79.8203" stroke="white" stroke-width="2.5" stroke-miterlimit="10"/>
<path d="M61.6292 53.5121H79.8203" stroke="white" stroke-width="2.5" stroke-miterlimit="10"/>
<path d="M63.8691 19.7227L77.1647 6.42615" stroke="white" stroke-width="2.5" stroke-miterlimit="10" stroke-linecap="round"/>
</svg>
