<svg width="21" height="49" viewBox="0 0 21 49" fill="none" xmlns="http://www.w3.org/2000/svg">
<path fill-rule="evenodd" clip-rule="evenodd" d="M14.8526 0C15.2987 0 15.6603 0.361616 15.6603 0.807692V4.35161C15.6603 4.79769 15.2987 5.1593 14.8526 5.1593C14.4065 5.1593 14.0449 4.79769 14.0449 4.35161V0.807692C14.0449 0.361616 14.4065 0 14.8526 0Z" fill="#254DDD"/>
<path fill-rule="evenodd" clip-rule="evenodd" d="M6.1534 0C6.59947 0 6.96109 0.361616 6.96109 0.807692V4.35161C6.96109 4.79769 6.59947 5.1593 6.1534 5.1593C5.70732 5.1593 5.3457 4.79769 5.3457 4.35161V0.807692C5.3457 0.361616 5.70732 0 6.1534 0Z" fill="#254DDD"/>
<path fill-rule="evenodd" clip-rule="evenodd" d="M1.63422 3.20891C2.71292 2.18349 4.21886 1.70093 5.94565 1.70093H15.0643C16.7953 1.70093 18.3022 2.18312 19.379 3.20969C20.4619 4.242 21.0052 5.72473 21 7.50992V17.336C21 19.1212 20.454 20.6056 19.3708 21.6398C18.2933 22.6686 16.7867 23.1541 15.0543 23.1541H5.94565C4.21402 23.1541 2.70633 22.6586 1.62857 21.614C0.546798 20.5655 0 19.0626 0 17.2546V7.5088C0 5.72237 0.549272 4.24026 1.63422 3.20891ZM2.74718 4.37971C2.0538 5.03884 1.61538 6.05683 1.61538 7.5088V17.2546C1.61538 18.7358 2.05627 19.7789 2.75283 20.454C3.4534 21.133 4.5147 21.5387 5.94565 21.5387H15.0543C16.4945 21.5387 17.5569 21.1382 18.2552 20.4715C18.9479 19.8101 19.3846 18.7893 19.3846 17.336V7.5088L19.3846 7.50631C19.3891 6.05371 18.9546 5.03684 18.2644 4.37893C17.568 3.715 16.5058 3.31631 15.0643 3.31631H5.94565C4.50985 3.31631 3.44682 3.71464 2.74718 4.37971Z" fill="#254DDD"/>
<path fill-rule="evenodd" clip-rule="evenodd" d="M13.6245 10.0547C13.0748 9.53749 12.5337 9.31882 11.999 9.3872C11.4822 9.45328 11.0589 9.7785 10.7145 10.1424L6.95157 14.1253L6.9509 14.126C6.84641 14.2372 6.75811 14.3844 6.69339 14.5231C6.62844 14.6624 6.57335 14.823 6.55356 14.9713L6.38325 16.4628L6.38313 16.4638C6.34318 16.8234 6.45102 17.1609 6.69506 17.3923C6.93944 17.624 7.28251 17.7134 7.64026 17.6518L9.11557 17.3998L9.11786 17.3994C9.26672 17.3729 9.42529 17.3102 9.56237 17.2369C9.69772 17.1645 9.84048 17.0667 9.94651 16.9513L13.029 13.6886C13.0688 13.6612 13.1028 13.6254 13.1282 13.5836L13.7076 12.9703C14.0518 12.6066 14.3537 12.1658 14.3901 11.6451C14.4278 11.1061 14.1761 10.5764 13.6245 10.0547ZM12.696 13.0399L13.2078 12.4982C13.2733 12.4291 13.3325 12.3613 13.3854 12.2946C13.5801 12.0491 13.6888 11.8192 13.7043 11.5971C13.7228 11.3329 13.6142 10.9913 13.1531 10.5552C12.8228 10.2445 12.5511 10.1118 12.3267 10.0744C12.2396 10.0599 12.1596 10.0598 12.0862 10.0691C11.8055 10.105 11.5203 10.2912 11.214 10.6148L10.7062 11.1522C10.9243 12.1262 11.7109 12.8709 12.696 13.0399ZM10.1626 11.7277L7.45198 14.5967C7.41441 14.6368 7.3628 14.7144 7.31647 14.8137C7.27098 14.9113 7.24365 15.0015 7.23546 15.0595L7.06642 16.5397C7.04694 16.7162 7.10172 16.8304 7.16814 16.8934C7.23427 16.9562 7.34955 17.0042 7.52345 16.9743L8.99849 16.7223C9.05591 16.7119 9.14437 16.6808 9.23822 16.6306C9.33336 16.5797 9.40493 16.5249 9.44076 16.4856L9.44487 16.4811L12.1539 13.6137C11.2381 13.322 10.5025 12.6269 10.1626 11.7277Z" fill="#254DDD"/>
<path d="M11.999 9.3872L12.0307 9.63518L12.0307 9.63518L11.999 9.3872ZM13.6245 10.0547L13.7963 9.87311L13.7958 9.87267L13.6245 10.0547ZM10.7145 10.1424L10.5329 9.97049L10.5328 9.97068L10.7145 10.1424ZM6.95157 14.1253L6.76985 13.9536L6.76965 13.9538L6.95157 14.1253ZM6.9509 14.126L6.76898 13.9545L6.76869 13.9548L6.9509 14.126ZM6.69339 14.5231L6.46682 14.4175L6.46682 14.4175L6.69339 14.5231ZM6.55356 14.9713L6.30571 14.9383L6.30518 14.943L6.55356 14.9713ZM6.38325 16.4628L6.13486 16.4344L6.13482 16.4348L6.38325 16.4628ZM6.38313 16.4638L6.1347 16.4358L6.13466 16.4362L6.38313 16.4638ZM6.69506 17.3923L6.86709 17.2109L6.86709 17.2109L6.69506 17.3923ZM7.64026 17.6518L7.59817 17.4053L7.59779 17.4054L7.64026 17.6518ZM9.11557 17.3998L9.15766 17.6462L9.15925 17.6459L9.11557 17.3998ZM9.11786 17.3994L9.16153 17.6455L9.16162 17.6455L9.11786 17.3994ZM9.56237 17.2369L9.68025 17.4574L9.68025 17.4574L9.56237 17.2369ZM9.94651 16.9513L9.76477 16.7796L9.76238 16.7822L9.94651 16.9513ZM13.029 13.6886L12.8872 13.4827C12.8727 13.4927 12.8593 13.5041 12.8472 13.5169L13.029 13.6886ZM13.1282 13.5836L12.9465 13.4119C12.9344 13.4247 12.9236 13.4388 12.9145 13.4539L13.1282 13.5836ZM13.7076 12.9703L13.526 12.7985L13.5258 12.7986L13.7076 12.9703ZM14.3901 11.6451L14.1407 11.6276L14.1407 11.6276L14.3901 11.6451ZM12.696 13.0399L12.6537 13.2863C12.7362 13.3005 12.8203 13.2724 12.8777 13.2116L12.696 13.0399ZM13.2078 12.4982L13.0263 12.3263L13.0261 12.3265L13.2078 12.4982ZM13.3854 12.2946L13.5812 12.45L13.5812 12.45L13.3854 12.2946ZM13.7043 11.5971L13.4549 11.5797L13.4549 11.5797L13.7043 11.5971ZM13.1531 10.5552L13.3249 10.3736L13.3244 10.3731L13.1531 10.5552ZM12.3267 10.0744L12.3678 9.8278L12.3678 9.8278L12.3267 10.0744ZM12.0862 10.0691L12.0545 9.82116L12.0545 9.82116L12.0862 10.0691ZM11.214 10.6148L11.0325 10.4429L11.0323 10.4431L11.214 10.6148ZM10.7062 11.1522L10.5245 10.9805C10.4675 11.0409 10.4441 11.1257 10.4623 11.2068L10.7062 11.1522ZM10.1626 11.7277L10.3964 11.6393C10.3659 11.5587 10.2961 11.4995 10.2117 11.4825C10.1272 11.4656 10.04 11.4934 9.98083 11.556L10.1626 11.7277ZM7.45198 14.5967L7.27026 14.425L7.26957 14.4257L7.45198 14.5967ZM7.31647 14.8137L7.54304 14.9194L7.54304 14.9194L7.31647 14.8137ZM7.23546 15.0595L6.98783 15.0246L6.98707 15.0312L7.23546 15.0595ZM7.06642 16.5397L6.81804 16.5114L6.81793 16.5123L7.06642 16.5397ZM7.16814 16.8934L7.34017 16.712L7.34017 16.712L7.16814 16.8934ZM7.52345 16.9743L7.48136 16.7278L7.48098 16.7279L7.52345 16.9743ZM8.99849 16.7223L9.04059 16.9688L9.04296 16.9683L8.99849 16.7223ZM9.23822 16.6306L9.35609 16.8511L9.35609 16.8511L9.23822 16.6306ZM9.44076 16.4856L9.25603 16.3171L9.25602 16.3171L9.44076 16.4856ZM9.44487 16.4811L9.26311 16.3094L9.26013 16.3126L9.44487 16.4811ZM12.1539 13.6137L12.3356 13.7854C12.3947 13.7229 12.4174 13.6345 12.3959 13.5512C12.3745 13.468 12.3117 13.4016 12.2298 13.3755L12.1539 13.6137ZM12.0307 9.63518C12.4663 9.57948 12.9363 9.75052 13.4532 10.2368L13.7958 9.87267C13.2132 9.32447 12.6012 9.05816 11.9673 9.13922L12.0307 9.63518ZM10.896 10.3142C11.2267 9.96495 11.5998 9.69028 12.0307 9.63518L11.9673 9.13922C11.3647 9.21628 10.8912 9.59206 10.5329 9.97049L10.896 10.3142ZM7.1333 14.297L10.8962 10.314L10.5328 9.97068L6.76985 13.9536L7.1333 14.297ZM7.13282 14.2975L7.13349 14.2968L6.76965 13.9538L6.76898 13.9545L7.13282 14.2975ZM6.91997 14.6288C6.97802 14.5043 7.05294 14.3825 7.13311 14.2972L6.76869 13.9548C6.63988 14.0919 6.53819 14.2644 6.46682 14.4175L6.91997 14.6288ZM6.80137 15.0044C6.81676 14.8889 6.86181 14.7535 6.91997 14.6288L6.46682 14.4175C6.39508 14.5713 6.32993 14.757 6.30576 14.9383L6.80137 15.0044ZM6.63163 16.4911L6.80195 14.9997L6.30518 14.943L6.13486 16.4344L6.63163 16.4911ZM6.63156 16.4918L6.63168 16.4907L6.13482 16.4348L6.1347 16.4358L6.63156 16.4918ZM6.86709 17.2109C6.68781 17.0409 6.599 16.7848 6.6316 16.4914L6.13466 16.4362C6.08735 16.8619 6.21422 17.2808 6.52303 17.5737L6.86709 17.2109ZM7.59779 17.4054C7.30658 17.4556 7.04646 17.381 6.86709 17.2109L6.52303 17.5737C6.83243 17.8671 7.25843 17.9713 7.68274 17.8981L7.59779 17.4054ZM9.07348 17.1534L7.59817 17.4053L7.68236 17.8982L9.15766 17.6462L9.07348 17.1534ZM9.07419 17.1532L9.0719 17.1536L9.15925 17.6459L9.16153 17.6455L9.07419 17.1532ZM9.4445 17.0164C9.32295 17.0814 9.1897 17.1327 9.0741 17.1532L9.16162 17.6455C9.34374 17.6131 9.52763 17.539 9.68025 17.4574L9.4445 17.0164ZM9.76238 16.7822C9.68172 16.87 9.5649 16.952 9.4445 17.0164L9.68025 17.4574C9.83053 17.377 9.99925 17.2635 10.1306 17.1204L9.76238 16.7822ZM12.8472 13.5169L9.76479 16.7796L10.1282 17.123L13.2107 13.8603L12.8472 13.5169ZM12.9145 13.4539C12.9076 13.4652 12.8983 13.4751 12.8872 13.4827L13.1707 13.8945C13.2394 13.8473 13.298 13.7856 13.3419 13.7133L12.9145 13.4539ZM13.5258 12.7986L12.9465 13.4119L13.3099 13.7552L13.8893 13.142L13.5258 12.7986ZM14.1407 11.6276C14.1104 12.0617 13.8565 12.4493 13.526 12.7985L13.8891 13.1422C14.2471 12.7639 14.5971 12.27 14.6395 11.6625L14.1407 11.6276ZM13.4527 10.2364C13.9718 10.7273 14.1714 11.1889 14.1407 11.6276L14.6395 11.6625C14.6842 11.0233 14.3803 10.4254 13.7963 9.87311L13.4527 10.2364ZM12.8777 13.2116L13.3895 12.6699L13.0261 12.3265L12.5143 12.8682L12.8777 13.2116ZM13.3894 12.6701C13.4591 12.5964 13.5232 12.5231 13.5812 12.45L13.1895 12.1392C13.1418 12.1994 13.0874 12.2617 13.0263 12.3263L13.3894 12.6701ZM13.5812 12.45C13.7926 12.1835 13.9333 11.9063 13.9537 11.6146L13.4549 11.5797C13.4443 11.732 13.3677 11.9146 13.1895 12.1392L13.5812 12.45ZM13.9537 11.6146C13.9791 11.2509 13.8191 10.8411 13.3249 10.3736L12.9813 10.7368C13.4092 11.1415 13.4664 11.4149 13.4549 11.5797L13.9537 11.6146ZM13.3244 10.3731C12.9717 10.0413 12.6566 9.87591 12.3678 9.8278L12.2856 10.321C12.4455 10.3476 12.674 10.4478 12.9818 10.7373L13.3244 10.3731ZM12.3678 9.8278C12.2559 9.80917 12.1514 9.80877 12.0545 9.82116L12.1179 10.3171C12.1679 10.3107 12.2233 10.3106 12.2856 10.321L12.3678 9.8278ZM12.0545 9.82116C11.688 9.86803 11.3526 10.1047 11.0325 10.4429L11.3955 10.7866C11.688 10.4777 11.923 10.342 12.1179 10.3171L12.0545 9.82116ZM11.0323 10.4431L10.5245 10.9805L10.888 11.3239L11.3957 10.7864L11.0323 10.4431ZM10.4623 11.2068C10.7026 12.2803 11.5693 13.1002 12.6537 13.2863L12.7383 12.7935C11.8525 12.6415 11.146 11.9721 10.9502 11.0976L10.4623 11.2068ZM9.98083 11.556L7.27026 14.425L7.63371 14.7684L10.3443 11.8994L9.98083 11.556ZM7.26957 14.4257C7.20788 14.4916 7.14293 14.5943 7.0899 14.7081L7.54304 14.9194C7.56184 14.8791 7.58118 14.8444 7.59854 14.817C7.61668 14.7885 7.62963 14.7728 7.6344 14.7677L7.26957 14.4257ZM7.0899 14.7081C7.03757 14.8203 7.00058 14.9349 6.98791 15.0246L7.483 15.0945C7.48672 15.0682 7.50438 15.0023 7.54304 14.9194L7.0899 14.7081ZM6.98707 15.0312L6.81804 16.5114L7.31481 16.5681L7.48384 15.0879L6.98707 15.0312ZM6.81793 16.5123C6.79105 16.7557 6.86552 16.951 6.99611 17.0748L7.34017 16.712C7.33713 16.7092 7.32893 16.7001 7.32216 16.6798C7.3154 16.6596 7.30866 16.6238 7.31491 16.5672L6.81793 16.5123ZM6.99611 17.0748C7.12652 17.1985 7.32434 17.2623 7.56593 17.2206L7.48098 16.7279C7.42554 16.7375 7.39066 16.7328 7.37144 16.7275C7.3523 16.7223 7.34336 16.7151 7.34017 16.712L6.99611 17.0748ZM7.56555 17.2207L9.04058 16.9687L8.9564 16.4759L7.48136 16.7278L7.56555 17.2207ZM9.04296 16.9683C9.1332 16.952 9.24672 16.9095 9.35609 16.8511L9.12035 16.4101C9.04203 16.452 8.97862 16.4719 8.95402 16.4763L9.04296 16.9683ZM9.35609 16.8511C9.46618 16.7922 9.56405 16.7214 9.6255 16.654L9.25602 16.3171C9.25294 16.3205 9.2401 16.333 9.21443 16.3518C9.19001 16.3696 9.15822 16.3899 9.12035 16.4101L9.35609 16.8511ZM9.62549 16.654L9.6296 16.6495L9.26013 16.3126L9.25603 16.3171L9.62549 16.654ZM9.62659 16.6528L12.3356 13.7854L11.9722 13.442L9.26314 16.3094L9.62659 16.6528ZM12.2298 13.3755C11.3864 13.1069 10.7092 12.4668 10.3964 11.6393L9.9287 11.8161C10.2958 12.7871 11.0898 13.5371 12.078 13.8519L12.2298 13.3755Z" fill="#254DDD"/>
<path fill-rule="evenodd" clip-rule="evenodd" d="M14.8526 25C15.2987 25 15.6603 25.3616 15.6603 25.8077V29.3516C15.6603 29.7977 15.2987 30.1593 14.8526 30.1593C14.4065 30.1593 14.0449 29.7977 14.0449 29.3516V25.8077C14.0449 25.3616 14.4065 25 14.8526 25Z" fill="white"/>
<path fill-rule="evenodd" clip-rule="evenodd" d="M6.1534 25C6.59947 25 6.96109 25.3616 6.96109 25.8077V29.3516C6.96109 29.7977 6.59947 30.1593 6.1534 30.1593C5.70732 30.1593 5.3457 29.7977 5.3457 29.3516V25.8077C5.3457 25.3616 5.70732 25 6.1534 25Z" fill="white"/>
<path fill-rule="evenodd" clip-rule="evenodd" d="M1.63422 28.2089C2.71292 27.1835 4.21886 26.7009 5.94565 26.7009H15.0643C16.7953 26.7009 18.3022 27.1831 19.379 28.2097C20.4619 29.242 21.0052 30.7247 21 32.5099V42.336C21 44.1212 20.454 45.6056 19.3708 46.6398C18.2933 47.6686 16.7867 48.1541 15.0543 48.1541H5.94565C4.21402 48.1541 2.70633 47.6586 1.62857 46.614C0.546798 45.5655 0 44.0626 0 42.2546V32.5088C0 30.7224 0.549272 29.2403 1.63422 28.2089ZM2.74718 29.3797C2.0538 30.0388 1.61538 31.0568 1.61538 32.5088V42.2546C1.61538 43.7358 2.05627 44.7789 2.75283 45.454C3.4534 46.133 4.5147 46.5387 5.94565 46.5387H15.0543C16.4945 46.5387 17.5569 46.1382 18.2552 45.4715C18.9479 44.8101 19.3846 43.7893 19.3846 42.336V32.5088L19.3846 32.5063C19.3891 31.0537 18.9546 30.0368 18.2644 29.3789C17.568 28.715 16.5058 28.3163 15.0643 28.3163H5.94565C4.50985 28.3163 3.44682 28.7146 2.74718 29.3797Z" fill="white"/>
<path fill-rule="evenodd" clip-rule="evenodd" d="M13.6245 35.0547C13.0748 34.5375 12.5337 34.3188 11.999 34.3872C11.4822 34.4533 11.0589 34.7785 10.7145 35.1424L6.95157 39.1253L6.9509 39.126C6.84641 39.2372 6.75811 39.3844 6.69339 39.5231C6.62844 39.6624 6.57335 39.823 6.55356 39.9713L6.38325 41.4628L6.38313 41.4638C6.34318 41.8234 6.45102 42.1609 6.69506 42.3923C6.93944 42.624 7.28251 42.7134 7.64026 42.6518L9.11557 42.3998L9.11786 42.3994C9.26672 42.3729 9.42529 42.3102 9.56237 42.2369C9.69772 42.1645 9.84048 42.0667 9.94651 41.9513L13.029 38.6886C13.0688 38.6612 13.1028 38.6254 13.1282 38.5836L13.7076 37.9703C14.0518 37.6066 14.3537 37.1658 14.3901 36.6451C14.4278 36.1061 14.1761 35.5764 13.6245 35.0547ZM12.696 38.0399L13.2078 37.4982C13.2733 37.4291 13.3325 37.3613 13.3854 37.2946C13.5801 37.0491 13.6888 36.8192 13.7043 36.5971C13.7228 36.3329 13.6142 35.9913 13.1531 35.5552C12.8228 35.2445 12.5511 35.1118 12.3267 35.0744C12.2396 35.0599 12.1596 35.0598 12.0862 35.0691C11.8055 35.105 11.5203 35.2912 11.214 35.6148L10.7062 36.1522C10.9243 37.1262 11.7109 37.8709 12.696 38.0399ZM10.1626 36.7277L7.45198 39.5967C7.41441 39.6368 7.3628 39.7144 7.31647 39.8137C7.27098 39.9113 7.24365 40.0015 7.23546 40.0595L7.06642 41.5397C7.04694 41.7162 7.10172 41.8304 7.16814 41.8934C7.23427 41.9562 7.34955 42.0042 7.52345 41.9743L8.99849 41.7223C9.05591 41.7119 9.14437 41.6808 9.23822 41.6306C9.33336 41.5797 9.40493 41.5249 9.44076 41.4856L9.44487 41.4811L12.1539 38.6137C11.2381 38.322 10.5025 37.6269 10.1626 36.7277Z" fill="white"/>
<path d="M11.999 34.3872L12.0307 34.6352L12.0307 34.6352L11.999 34.3872ZM13.6245 35.0547L13.7963 34.8731L13.7958 34.8727L13.6245 35.0547ZM10.7145 35.1424L10.5329 34.9705L10.5328 34.9707L10.7145 35.1424ZM6.95157 39.1253L6.76985 38.9536L6.76965 38.9538L6.95157 39.1253ZM6.9509 39.126L6.76898 38.9545L6.76869 38.9548L6.9509 39.126ZM6.69339 39.5231L6.46682 39.4175L6.46682 39.4175L6.69339 39.5231ZM6.55356 39.9713L6.30571 39.9383L6.30518 39.943L6.55356 39.9713ZM6.38325 41.4628L6.13486 41.4344L6.13482 41.4348L6.38325 41.4628ZM6.38313 41.4638L6.1347 41.4358L6.13466 41.4362L6.38313 41.4638ZM6.69506 42.3923L6.86709 42.2109L6.86709 42.2109L6.69506 42.3923ZM7.64026 42.6518L7.59817 42.4053L7.59779 42.4054L7.64026 42.6518ZM9.11557 42.3998L9.15766 42.6462L9.15925 42.6459L9.11557 42.3998ZM9.11786 42.3994L9.16153 42.6455L9.16162 42.6455L9.11786 42.3994ZM9.56237 42.2369L9.68025 42.4574L9.68025 42.4574L9.56237 42.2369ZM9.94651 41.9513L9.76477 41.7796L9.76238 41.7822L9.94651 41.9513ZM13.029 38.6886L12.8872 38.4827C12.8727 38.4927 12.8593 38.5041 12.8472 38.5169L13.029 38.6886ZM13.1282 38.5836L12.9465 38.4119C12.9344 38.4247 12.9236 38.4388 12.9145 38.4539L13.1282 38.5836ZM13.7076 37.9703L13.526 37.7985L13.5258 37.7986L13.7076 37.9703ZM14.3901 36.6451L14.1407 36.6276L14.1407 36.6276L14.3901 36.6451ZM12.696 38.0399L12.6537 38.2863C12.7362 38.3005 12.8203 38.2724 12.8777 38.2116L12.696 38.0399ZM13.2078 37.4982L13.0263 37.3263L13.0261 37.3265L13.2078 37.4982ZM13.3854 37.2946L13.5812 37.45L13.5812 37.45L13.3854 37.2946ZM13.7043 36.5971L13.4549 36.5797L13.4549 36.5797L13.7043 36.5971ZM13.1531 35.5552L13.3249 35.3736L13.3244 35.3731L13.1531 35.5552ZM12.3267 35.0744L12.3678 34.8278L12.3678 34.8278L12.3267 35.0744ZM12.0862 35.0691L12.0545 34.8212L12.0545 34.8212L12.0862 35.0691ZM11.214 35.6148L11.0325 35.4429L11.0323 35.4431L11.214 35.6148ZM10.7062 36.1522L10.5245 35.9805C10.4675 36.0409 10.4441 36.1257 10.4623 36.2068L10.7062 36.1522ZM10.1626 36.7277L10.3964 36.6393C10.3659 36.5587 10.2961 36.4995 10.2117 36.4825C10.1272 36.4656 10.04 36.4934 9.98083 36.556L10.1626 36.7277ZM7.45198 39.5967L7.27026 39.425L7.26957 39.4257L7.45198 39.5967ZM7.31647 39.8137L7.54304 39.9194L7.54304 39.9194L7.31647 39.8137ZM7.23546 40.0595L6.98783 40.0246L6.98707 40.0312L7.23546 40.0595ZM7.06642 41.5397L6.81804 41.5114L6.81793 41.5123L7.06642 41.5397ZM7.16814 41.8934L7.34017 41.712L7.34017 41.712L7.16814 41.8934ZM7.52345 41.9743L7.48136 41.7278L7.48098 41.7279L7.52345 41.9743ZM8.99849 41.7223L9.04059 41.9688L9.04296 41.9683L8.99849 41.7223ZM9.23822 41.6306L9.35609 41.8511L9.35609 41.8511L9.23822 41.6306ZM9.44076 41.4856L9.25603 41.3171L9.25602 41.3171L9.44076 41.4856ZM9.44487 41.4811L9.26311 41.3094L9.26013 41.3126L9.44487 41.4811ZM12.1539 38.6137L12.3356 38.7854C12.3947 38.7229 12.4174 38.6345 12.3959 38.5512C12.3745 38.468 12.3117 38.4016 12.2298 38.3755L12.1539 38.6137ZM12.0307 34.6352C12.4663 34.5795 12.9363 34.7505 13.4532 35.2368L13.7958 34.8727C13.2132 34.3245 12.6012 34.0582 11.9673 34.1392L12.0307 34.6352ZM10.896 35.3142C11.2267 34.9649 11.5998 34.6903 12.0307 34.6352L11.9673 34.1392C11.3647 34.2163 10.8912 34.5921 10.5329 34.9705L10.896 35.3142ZM7.1333 39.297L10.8962 35.314L10.5328 34.9707L6.76985 38.9536L7.1333 39.297ZM7.13282 39.2975L7.13349 39.2968L6.76965 38.9538L6.76898 38.9545L7.13282 39.2975ZM6.91997 39.6288C6.97802 39.5043 7.05294 39.3825 7.13311 39.2972L6.76869 38.9548C6.63988 39.0919 6.53819 39.2644 6.46682 39.4175L6.91997 39.6288ZM6.80137 40.0044C6.81676 39.8889 6.86181 39.7535 6.91997 39.6288L6.46682 39.4175C6.39508 39.5713 6.32993 39.757 6.30576 39.9383L6.80137 40.0044ZM6.63163 41.4911L6.80195 39.9997L6.30518 39.943L6.13486 41.4344L6.63163 41.4911ZM6.63156 41.4918L6.63168 41.4907L6.13482 41.4348L6.1347 41.4358L6.63156 41.4918ZM6.86709 42.2109C6.68781 42.0409 6.599 41.7848 6.6316 41.4914L6.13466 41.4362C6.08735 41.8619 6.21422 42.2808 6.52303 42.5737L6.86709 42.2109ZM7.59779 42.4054C7.30658 42.4556 7.04646 42.381 6.86709 42.2109L6.52303 42.5737C6.83243 42.8671 7.25843 42.9713 7.68274 42.8981L7.59779 42.4054ZM9.07348 42.1534L7.59817 42.4053L7.68236 42.8982L9.15766 42.6462L9.07348 42.1534ZM9.07419 42.1532L9.0719 42.1536L9.15925 42.6459L9.16153 42.6455L9.07419 42.1532ZM9.4445 42.0164C9.32295 42.0814 9.1897 42.1327 9.0741 42.1532L9.16162 42.6455C9.34374 42.6131 9.52763 42.539 9.68025 42.4574L9.4445 42.0164ZM9.76238 41.7822C9.68172 41.87 9.5649 41.952 9.4445 42.0164L9.68025 42.4574C9.83053 42.377 9.99925 42.2635 10.1306 42.1204L9.76238 41.7822ZM12.8472 38.5169L9.76479 41.7796L10.1282 42.123L13.2107 38.8603L12.8472 38.5169ZM12.9145 38.4539C12.9076 38.4652 12.8983 38.4751 12.8872 38.4827L13.1707 38.8945C13.2394 38.8473 13.298 38.7856 13.3419 38.7133L12.9145 38.4539ZM13.5258 37.7986L12.9465 38.4119L13.3099 38.7552L13.8893 38.142L13.5258 37.7986ZM14.1407 36.6276C14.1104 37.0617 13.8565 37.4493 13.526 37.7985L13.8891 38.1422C14.2471 37.7639 14.5971 37.27 14.6395 36.6625L14.1407 36.6276ZM13.4527 35.2364C13.9718 35.7273 14.1714 36.1889 14.1407 36.6276L14.6395 36.6625C14.6842 36.0233 14.3803 35.4254 13.7963 34.8731L13.4527 35.2364ZM12.8777 38.2116L13.3895 37.6699L13.0261 37.3265L12.5143 37.8682L12.8777 38.2116ZM13.3894 37.6701C13.4591 37.5964 13.5232 37.5231 13.5812 37.45L13.1895 37.1392C13.1418 37.1994 13.0874 37.2617 13.0263 37.3263L13.3894 37.6701ZM13.5812 37.45C13.7926 37.1835 13.9333 36.9063 13.9537 36.6146L13.4549 36.5797C13.4443 36.732 13.3677 36.9146 13.1895 37.1392L13.5812 37.45ZM13.9537 36.6146C13.9791 36.2509 13.8191 35.8411 13.3249 35.3736L12.9813 35.7368C13.4092 36.1415 13.4664 36.4149 13.4549 36.5797L13.9537 36.6146ZM13.3244 35.3731C12.9717 35.0413 12.6566 34.8759 12.3678 34.8278L12.2856 35.321C12.4455 35.3476 12.674 35.4478 12.9818 35.7373L13.3244 35.3731ZM12.3678 34.8278C12.2559 34.8092 12.1514 34.8088 12.0545 34.8212L12.1179 35.3171C12.1679 35.3107 12.2233 35.3106 12.2856 35.321L12.3678 34.8278ZM12.0545 34.8212C11.688 34.868 11.3526 35.1047 11.0325 35.4429L11.3955 35.7866C11.688 35.4777 11.923 35.342 12.1179 35.3171L12.0545 34.8212ZM11.0323 35.4431L10.5245 35.9805L10.888 36.3239L11.3957 35.7864L11.0323 35.4431ZM10.4623 36.2068C10.7026 37.2803 11.5693 38.1002 12.6537 38.2863L12.7383 37.7935C11.8525 37.6415 11.146 36.9721 10.9502 36.0976L10.4623 36.2068ZM9.98083 36.556L7.27026 39.425L7.63371 39.7684L10.3443 36.8994L9.98083 36.556ZM7.26957 39.4257C7.20788 39.4916 7.14293 39.5943 7.0899 39.7081L7.54304 39.9194C7.56184 39.8791 7.58118 39.8444 7.59854 39.817C7.61668 39.7885 7.62963 39.7728 7.6344 39.7677L7.26957 39.4257ZM7.0899 39.7081C7.03757 39.8203 7.00058 39.9349 6.98791 40.0246L7.483 40.0945C7.48672 40.0682 7.50438 40.0023 7.54304 39.9194L7.0899 39.7081ZM6.98707 40.0312L6.81804 41.5114L7.31481 41.5681L7.48384 40.0879L6.98707 40.0312ZM6.81793 41.5123C6.79105 41.7557 6.86552 41.951 6.99611 42.0748L7.34017 41.712C7.33713 41.7092 7.32893 41.7001 7.32216 41.6798C7.3154 41.6596 7.30866 41.6238 7.31491 41.5672L6.81793 41.5123ZM6.99611 42.0748C7.12652 42.1985 7.32434 42.2623 7.56593 42.2206L7.48098 41.7279C7.42554 41.7375 7.39066 41.7328 7.37144 41.7275C7.3523 41.7223 7.34336 41.7151 7.34017 41.712L6.99611 42.0748ZM7.56555 42.2207L9.04058 41.9687L8.9564 41.4759L7.48136 41.7278L7.56555 42.2207ZM9.04296 41.9683C9.1332 41.952 9.24672 41.9095 9.35609 41.8511L9.12035 41.4101C9.04203 41.452 8.97862 41.4719 8.95402 41.4763L9.04296 41.9683ZM9.35609 41.8511C9.46618 41.7922 9.56405 41.7214 9.6255 41.654L9.25602 41.3171C9.25294 41.3205 9.2401 41.333 9.21443 41.3518C9.19001 41.3696 9.15822 41.3899 9.12035 41.4101L9.35609 41.8511ZM9.62549 41.654L9.6296 41.6495L9.26013 41.3126L9.25603 41.3171L9.62549 41.654ZM9.62659 41.6528L12.3356 38.7854L11.9722 38.442L9.26314 41.3094L9.62659 41.6528ZM12.2298 38.3755C11.3864 38.1069 10.7092 37.4668 10.3964 36.6393L9.9287 36.8161C10.2958 37.7871 11.0898 38.5371 12.078 38.8519L12.2298 38.3755Z" fill="white"/>
</svg>
