<?xml version="1.0" encoding="UTF-8"?>
<svg width="56px" height="56px" viewBox="0 0 56 56" version="1.1" xmlns="http://www.w3.org/2000/svg" xmlns:xlink="http://www.w3.org/1999/xlink">
    <!-- Generator: Sketch 58 (84663) - https://sketch.com -->
    <title>Group 26 Copy</title>
    <desc>Created with Sketch.</desc>
    <g id="Page-1" stroke="none" stroke-width="1" fill="none" fill-rule="evenodd">
        <g id="Group-26-Copy" transform="translate(28.000000, 28.000000) scale(-1, 1) translate(-28.000000, -28.000000) " fill="#FFFFFF">
            <path d="M28,0 C43.463973,0 56,12.536027 56,28 C56,43.463973 43.463973,56 28,56 C12.536027,56 0,43.463973 0,28 C0,12.536027 12.536027,0 28,0 Z M32.363961,18.3431458 C31.5829124,17.5620972 30.3165825,17.5620972 29.5355339,18.3431458 L29.5355339,18.3431458 L21.0502525,26.8284271 C20.5939557,27.2847239 20.4042323,27.9066482 20.4809527,28.5003261 C20.4044461,29.0940521 20.5942127,29.715533 21.0502525,30.1715729 L21.0502525,30.1715729 L29.5355339,38.6568542 C30.3165825,39.4379028 31.5829124,39.4379028 32.363961,38.6568542 C33.1450096,37.8758057 33.1450096,36.6094757 32.363961,35.8284271 L32.363961,35.8284271 L25.0353848,28.4993593 L32.363961,21.1715729 C33.1450096,20.3905243 33.1450096,19.1241943 32.363961,18.3431458 Z" id="Combined-Shape"></path>
        </g>
    </g>
</svg>