<?xml version="1.0" encoding="UTF-8"?>
<svg width="380px" height="436px" viewBox="0 0 380 436" version="1.1" xmlns="http://www.w3.org/2000/svg" xmlns:xlink="http://www.w3.org/1999/xlink">
    <!-- Generator: Sketch 58 (84663) - https://sketch.com -->
    <title>Mask</title>
    <desc>Created with Sketch.</desc>
    <g id="Welcome" stroke="none" stroke-width="1" fill="none" fill-rule="evenodd" opacity="0.2">
        <g id="Group-8" transform="translate(-98.000000, -74.000000)" fill="#53284F">
            <path d="M511.366078,287.749969 L511.366078,287.749969 C509.105093,293.908979 508.534587,300.613062 509.660604,307.111692 C513.721347,330.547342 510.818849,353.044389 499.875473,372.710447 C489.551057,391.260373 473.141758,405.371116 452.505911,414.911084 C443.759669,418.955144 435.915921,424.89354 429.443488,432.336707 C392.10468,475.277984 352.264114,497.172557 320.568874,486.911116 C303.39986,481.354542 290.540889,466.985929 282.166215,446.175437 C272.66281,422.559612 255.710012,403.237849 234.01029,391.900076 C233.769128,391.773981 233.528409,391.647885 233.28769,391.521319 C123.845834,334.012129 65.7573313,232.343511 103.547116,164.443595 C130.564794,115.897032 199.274593,97.7536671 276.245511,112.37461 C315.764683,119.881036 356.142854,105.726457 383.469757,74.4667955 C420.657216,31.9272045 460.270665,10.2902687 491.820044,20.5032676 C549.902345,39.3057959 558.653682,158.958899 511.366078,287.749969" id="Mask" style="mix-blend-mode: multiply;" transform="translate(316.913399, 253.707073) rotate(146.000000) translate(-316.913399, -253.707073) "></path>
        </g>
    </g>
</svg>