<svg xmlns="http://www.w3.org/2000/svg" width="43" height="43" viewBox="0 0 43 43">
    <g fill="none" fill-rule="evenodd">
        <circle cx="21.5" cy="21.5" r="21.5" fill="#53284F"/>
        <path fill="#FFF" d="M33 19.264v4.473a2.553 2.553 0 0 1-2.554 2.554H26.3v4.155A2.561 2.561 0 0 1 23.737 33h-4.473a2.554 2.554 0 0 1-2.555-2.554v-4.155h-4.145A2.562 2.562 0 0 1 10 23.737v-4.473a2.563 2.563 0 0 1 2.564-2.555h4.145v-4.144A2.563 2.563 0 0 1 19.264 10h4.473a2.57 2.57 0 0 1 2.564 2.565v4.144h4.145A2.554 2.554 0 0 1 33 19.264"/>
    </g>
</svg>
