<?xml version="1.0" encoding="UTF-8"?>
<svg width="76px" height="105px" viewBox="0 0 76 105" version="1.1" xmlns="http://www.w3.org/2000/svg" xmlns:xlink="http://www.w3.org/1999/xlink">
    <!-- Generator: Sketch 59 (86127) - https://sketch.com -->
    <title>feature-icon-burgundy</title>
    <desc>Created with Sketch.</desc>
    <g id="Page-1" stroke="none" stroke-width="1" fill="none" fill-rule="evenodd">
        <g id="Artboard" fill="#53284F">
            <path d="M37.6596,-9.99999997e-05 C41.3296,-9.99999997e-05 44.4406,2.3509 45.5206,5.6999 L45.5206,5.6999 L49.8896,5.6999 C53.4006,5.6999 56.3606,8.1009 57.2096,11.3509 C57.5496,11.1899 57.9196,11.1009 58.3206,11.1009 L58.3206,11.1009 L67.0096,11.1009 C71.5996,11.1009 75.3296,14.8299 75.3296,19.4199 L75.3296,19.4199 L75.3296,96.5399 C75.3296,101.1299 71.5996,104.8599 67.0096,104.8599 L67.0096,104.8599 L8.3106,104.8599 C3.7306,104.8599 -0.0004,101.1299 -0.0004,96.5399 L-0.0004,96.5399 L-0.0004,19.4199 C-0.0004,14.8299 3.7306,11.1009 8.3106,11.1009 L8.3106,11.1009 L17.2706,11.1009 C17.5706,11.1009 17.8696,11.1499 18.1396,11.2499 C19.0206,8.0499 21.9596,5.6999 25.4406,5.6999 L25.4406,5.6999 L29.7996,5.6999 C30.8796,2.3509 33.9996,-9.99999997e-05 37.6596,-9.99999997e-05 Z M57.4596,16.1009 L57.4596,20.8399 L17.8696,20.8399 L17.8696,16.1799 C17.6696,16.2199 17.4696,16.2499 17.2706,16.2499 L17.2706,16.2499 L8.3106,16.2499 C6.5706,16.2499 5.1506,17.6699 5.1506,19.4199 L5.1506,19.4199 L5.1506,96.5399 C5.1506,98.2899 6.5706,99.7099 8.3106,99.7099 L8.3106,99.7099 L67.0096,99.7099 C68.7596,99.7099 70.1796,98.2899 70.1796,96.5399 L70.1796,96.5399 L70.1796,19.4199 C70.1796,17.6699 68.7596,16.2499 67.0096,16.2499 L67.0096,16.2499 L58.3206,16.2499 C58.0206,16.2499 57.7306,16.1999 57.4596,16.1009 L57.4596,16.1009 Z M61.0305,89.5705 C62.4505,89.5705 63.5995,90.7195 63.5995,92.1395 C63.5995,93.5605 62.4505,94.7195 61.0305,94.7195 L13.2995,94.7195 C11.8795,94.7195 10.7195,93.5605 10.7195,92.1395 C10.7195,90.7195 11.8795,89.5705 13.2995,89.5705 L61.0305,89.5705 Z M61.0305,80.5302 C62.4505,80.5302 63.5995,81.6902 63.5995,83.1102 C63.5995,84.5202 62.4505,85.6792 61.0305,85.6792 L13.2995,85.6792 C11.8795,85.6792 10.7195,84.5202 10.7195,83.1102 C10.7195,81.6902 11.8795,80.5302 13.2995,80.5302 L61.0305,80.5302 Z M61.0305,71.4902 C62.4505,71.4902 63.5995,72.6502 63.5995,74.0702 C63.5995,75.4902 62.4505,76.6392 61.0305,76.6392 L13.2995,76.6392 C11.8795,76.6392 10.7195,75.4902 10.7195,74.0702 C10.7195,72.6502 11.8795,71.4902 13.2995,71.4902 L61.0305,71.4902 Z M61.0305,62.4602 C62.4505,62.4602 63.5995,63.6102 63.5995,65.0302 C63.5995,66.4502 62.4505,67.6002 61.0305,67.6002 L13.2995,67.6002 C11.8795,67.6002 10.7195,66.4502 10.7195,65.0302 C10.7195,63.6102 11.8795,62.4602 13.2995,62.4602 L61.0305,62.4602 Z M61.0305,53.4201 C62.4505,53.4201 63.5995,54.5701 63.5995,55.9901 C63.5995,57.4101 62.4505,58.5601 61.0395,58.5701 L13.2995,58.5701 C11.8795,58.5701 10.7195,57.4101 10.7195,55.9901 C10.7195,54.5701 11.8795,53.4201 13.2995,53.4201 L61.0305,53.4201 Z M39.9104,25.0803 C41.3304,25.0803 42.4904,26.2403 42.4904,27.6603 L42.4904,31.8303 L46.6604,31.8303 C48.0804,31.8303 49.2304,32.9803 49.2304,34.4003 L49.2304,38.9003 C49.2304,40.3203 48.0804,41.4693 46.6604,41.4693 L42.4904,41.4693 L42.4904,45.6503 C42.4904,47.0703 41.3304,48.2193 39.9104,48.2193 L35.4104,48.2193 C33.9904,48.2193 32.8394,47.0703 32.8394,45.6503 L32.8394,41.4693 L28.6694,41.4693 C27.2504,41.4693 26.0894,40.3203 26.0894,38.9003 L26.0894,34.4003 C26.0894,32.9803 27.2504,31.8303 28.6694,31.8303 L32.8394,31.8303 L32.8394,27.6603 C32.8394,26.2403 33.9904,25.0803 35.4104,25.0803 L39.9104,25.0803 Z M29.7996,10.8509 L25.4406,10.8509 C24.0996,10.8509 23.0096,11.9299 23.0096,13.2699 L23.0096,13.2699 L23.0096,15.6899 L33.9996,15.6899 C32.0206,14.7199 30.4996,12.9899 29.7996,10.8509 L29.7996,10.8509 Z M49.8896,10.8509 L45.5206,10.8509 C44.8296,12.9899 43.2996,14.7199 41.3296,15.6899 L41.3296,15.6899 L52.3106,15.6899 L52.3106,13.2699 C52.3106,11.9299 51.2196,10.8509 49.8896,10.8509 L49.8896,10.8509 Z M37.6596,5.1499 C36.0896,5.1499 34.7706,6.3399 34.5896,7.9199 L34.5896,7.9199 L34.5606,8.1299 C34.5496,8.1699 34.5496,8.2199 34.5396,8.2699 C34.5496,8.3199 34.5496,8.3699 34.5606,8.4199 L34.5606,8.4199 L34.5896,8.6009 C34.7706,10.1999 36.0896,11.3899 37.6596,11.3899 C39.2406,11.3899 40.5606,10.1999 40.7406,8.6199 L40.7406,8.6199 L40.7596,8.4199 C40.7706,8.3699 40.7806,8.3109 40.7806,8.2599 C40.7806,8.2199 40.7706,8.1599 40.7596,8.1009 L40.7596,8.1009 L40.7406,7.9599 C40.5606,6.3399 39.2406,5.1499 37.6596,5.1499 Z" id="feature-icon-burgundy"></path>
        </g>
    </g>
</svg>