<svg xmlns="http://www.w3.org/2000/svg" xmlns:xlink="http://www.w3.org/1999/xlink" width="33" height="32" viewBox="0 0 33 32">
    <defs>
        <path id="a" d="M.805 0h32v32h-32z"/>
    </defs>
    <g fill="none" fill-rule="evenodd">
        <mask id="b" fill="#fff">
            <use xlink:href="#a"/>
        </mask>
        <path fill="#FFF" d="M23.167 12.738c.007.141.01.281.01.424 0 4.338-3.302 9.34-9.34 9.34a9.284 9.284 0 0 1-5.032-1.475c.258.03.518.045.783.045a6.576 6.576 0 0 0 4.076-1.404 3.289 3.289 0 0 1-3.065-2.28 3.312 3.312 0 0 0 1.481-.056 3.288 3.288 0 0 1-2.633-3.219v-.04c.444.245.949.392 1.488.41a3.28 3.28 0 0 1-1.46-2.733c0-.602.162-1.166.444-1.65a9.315 9.315 0 0 0 6.766 3.43A3.28 3.28 0 0 1 19.883 9.5c.943 0 1.797.397 2.395 1.034a6.556 6.556 0 0 0 2.085-.797 3.289 3.289 0 0 1-1.443 1.816 6.543 6.543 0 0 0 1.885-.515 6.665 6.665 0 0 1-1.638 1.7M16.805 0c-8.836 0-16 7.164-16 16 0 8.838 7.164 16 16 16s16-7.162 16-16c0-8.836-7.164-16-16-16" mask="url(#b)"/>
    </g>
</svg>
