<svg xmlns="http://www.w3.org/2000/svg" xmlns:xlink="http://www.w3.org/1999/xlink" width="33" height="32" viewBox="0 0 33 32">
    <defs>
        <path id="a" d="M.61 0h31.999v32h-32z"/>
    </defs>
    <g fill="none" fill-rule="evenodd">
        <mask id="b" fill="#fff">
            <use xlink:href="#a"/>
        </mask>
        <path fill="#FFF" d="M24.61 23.646h-3.43v-5.52c0-1.386-.497-2.334-1.739-2.334-.946 0-1.512.641-1.76 1.257-.09.22-.113.526-.113.835v5.762H14.14s.044-9.35 0-10.316h3.43v1.461c.456-.706 1.27-1.704 3.091-1.704 2.256 0 3.95 1.473 3.95 4.643v5.916zM10.525 11.92h-.022c-1.15 0-1.895-.793-1.895-1.783 0-1.01.768-1.782 1.94-1.782 1.173 0 1.896.772 1.917 1.783 0 .99-.744 1.782-1.94 1.782zM8.811 23.646h3.431V13.33h-3.43v10.316zM.61 16c0 8.837 7.163 16 16 16 8.836 0 16-7.163 16-16 0-8.835-7.164-16-16-16-8.837 0-16 7.165-16 16z" mask="url(#b)"/>
    </g>
</svg>
