<?xml version="1.0" encoding="UTF-8"?>
<svg width="195px" height="183px" viewBox="0 0 195 183" version="1.1" xmlns="http://www.w3.org/2000/svg" xmlns:xlink="http://www.w3.org/1999/xlink">
    <!-- Generator: Sketch 58 (84663) - https://sketch.com -->
    <title>Group</title>
    <desc>Created with Sketch.</desc>
    <g id="Page-1" stroke="none" stroke-width="1" fill="none" fill-rule="evenodd">
        <g id="Group">
            <rect id="Rectangle" fill="#FF9393" opacity="0" x="14" y="4" width="174" height="174"></rect>
            <path d="M142.213544,120.335445 L142.213544,120.335445 C140.753917,121.853993 139.750704,123.757496 139.298468,125.825636 C137.667463,133.283312 133.995279,139.540246 128.181086,143.894581 C122.696078,148.001585 115.873303,149.9905 108.305054,150.069423 C105.097038,150.102924 101.93541,150.815342 99.0128761,152.154313 C82.1528967,159.878486 67.1123042,161.057198 58.5588891,153.822406 C53.9249565,149.904032 51.7126967,143.95615 51.6837607,136.700987 C51.6507975,128.467965 48.7810646,120.514418 43.4566957,114.288118 C43.3974814,114.219004 43.3384162,114.149739 43.279351,114.080474 C16.4658431,82.5821261 11.0039537,44.8592894 31.0800029,29.8262306 C45.433888,19.0777898 68.9549591,22.836809 90.9965665,37.3650938 C102.313218,44.8242796 116.566424,46.0022364 128.885096,40.3984155 C145.648572,32.7729335 160.587292,31.6402479 169.101629,38.8412369 C184.776277,52.0981553 172.738016,88.585239 142.213544,120.335445" id="Mask-Copy" fill="#EFECEF" style="mix-blend-mode: multiply;" transform="translate(97.475900, 91.148563) rotate(21.000000) translate(-97.475900, -91.148563) "></path>
        </g>
    </g>
</svg>