<?xml version="1.0" encoding="UTF-8"?>
<svg width="1440px" height="163px" viewBox="0 0 1440 163" version="1.1" xmlns="http://www.w3.org/2000/svg" xmlns:xlink="http://www.w3.org/1999/xlink">
    <!-- Generator: Sketch 59 (86127) - https://sketch.com -->
    <title>Path 2</title>
    <desc>Created with Sketch.</desc>
    <g id="Page-1" stroke="none" stroke-width="1" fill="none" fill-rule="evenodd">
        <g id="Locations---Desktop" transform="translate(0.000000, -658.000000)" fill="#FFFFFF">
            <path d="M-0.326407242,822 L1440.29627,821.645302 L1440.29627,658.740478 C1404.53659,674.627514 1377.3926,686.128681 1358.86429,693.24398 C1349.55437,696.819208 1317.29481,709.65454 1275.70016,720.050087 C1256.33447,724.890061 1235.59836,729.532964 1213.02979,731.865277 C1193.4551,733.888192 1172.60293,736.016257 1152.85597,735.485955 C1124.86104,734.734154 1099.6307,729.355499 1076.18898,728.78502 C1052.74725,728.214541 1037.27109,729.693802 1027.39824,730.94625 C992.416844,735.383911 962.137778,749.119068 929.885676,754.382695 C854.881168,766.623627 768.288947,753.184598 748.191865,749.76641 C728.094784,746.348222 653.859058,725.616465 642.694867,721.928781 C620.310152,714.534807 589.929687,702.038529 572.569427,696.7013 C555.209166,691.36407 540.678935,688.008776 527.467743,686.503415 C503.325584,683.752515 484.359571,684.749798 466.757331,686.503415 C430.157315,690.14968 406.837841,697.965406 383.609175,708.383277 C360.380508,718.801148 279.664389,748.606116 256.481072,754.382695 C233.297756,760.159275 179.237482,770.82546 142.82194,772.204524 C126.673449,772.81607 105.449342,772.303114 82.2967229,768.442956 C75.1146265,767.24551 63.7630066,764.620389 48.2418633,760.567592 C36.7736974,756.810186 28.3238509,753.668928 22.8923236,751.143819 C17.4607964,748.61871 9.72121941,744.388495 -0.326407242,738.453173 L-0.326407242,822 Z" id="Path-2"></path>
        </g>
    </g>
</svg>