<?xml version="1.0" encoding="UTF-8"?>
<svg width="572px" height="448px" viewBox="0 0 572 448" version="1.1" xmlns="http://www.w3.org/2000/svg" xmlns:xlink="http://www.w3.org/1999/xlink">
    <!-- Generator: Sketch 58 (84663) - https://sketch.com -->
    <title>mask1-burgundy</title>
    <desc>Created with Sketch.</desc>
    <g id="Page-1" stroke="none" stroke-width="1" fill="none" fill-rule="evenodd">
        <g id="img1-burgundy">
            <g id="mask1-burgundy" transform="translate(-1.000000, -138.502446)">
                <path d="M513.356477,355.749969 L513.356477,355.749969 C511.095492,361.908979 510.524986,368.613062 511.651003,375.111692 C515.711746,398.547342 512.809248,421.044389 501.865872,440.710447 C491.541456,459.260373 475.132157,473.371116 454.49631,482.911084 C445.750067,486.955144 437.90632,492.89354 431.433887,500.336707 C394.095079,543.277984 354.254512,565.172557 322.559272,554.911116 C305.390259,549.354542 292.531288,534.985929 284.156614,514.175437 C274.653209,490.559612 257.70041,471.237849 236.000689,459.900076 C235.759526,459.773981 235.518808,459.647885 235.278089,459.521319 C125.836232,402.012129 67.7477302,300.343511 105.537515,232.443595 C132.555193,183.897032 201.264992,165.753667 278.23591,180.37461 C317.755082,187.881036 358.133253,173.726457 385.460156,142.466796 C422.647615,99.9272045 462.261064,78.2902687 493.810443,88.5032676 C551.892744,107.305796 560.644081,226.958899 513.356477,355.749969" id="Mask" fill="#53284F" opacity="0.2" style="mix-blend-mode: multiply;" transform="translate(318.903797, 321.707073) rotate(146.000000) translate(-318.903797, -321.707073) "></path>
                <g transform="translate(1.000000, 137.849465)">
                    <path d="M572,0.652981256 L572,448.652981 L0,448.652981 L0,0.652981256 L572,0.652981256 Z M297.010655,44.9019521 C221.025486,0.226242147 135.420359,-13.0344044 85.5872223,17.0287007 C22.3373219,55.1759999 40.6604531,148.664114 126.489607,225.825136 C156.554972,252.827808 190.852578,274.255417 225.491686,289.048152 C231.493165,291.620932 232.96752,298.518165 228.481466,302.879605 C169.904949,359.791053 148.294578,417.855259 180.783083,438.856989 C209.631697,457.498797 272.691229,441.227456 335.055822,402.196093 C340.34074,398.878394 347.72377,400.783478 350.152805,406.039821 C361.953514,431.638365 380.862895,448.203598 402.304385,448.109586 C438.191523,447.974763 467.349453,401.202266 467.430634,343.678778 C467.468362,325.849936 459.936701,298.325764 456.791545,287.669255 C455.959744,284.849601 456.447487,281.890773 458.181866,279.406728 C469.454361,263.246095 511.49069,199.431342 508.971552,151.059282 C504.722988,68.8303662 448.77107,3.92088764 383.966932,6.06701336 C355.451039,7.01640376 329.963254,20.7667303 310.784079,42.9094149 C307.498232,46.6874212 301.484537,47.53345 297.010655,44.9019521 Z" id="Combined-Shape" fill="#FFFFFF"></path>
                    <path d="M60.1611655,138.270292 C72.8160182,167.306388 95.153692,197.653925 126.489607,225.825136 C156.554972,252.827808 190.852578,274.255417 225.491686,289.048152 C231.493165,291.620932 232.96752,298.518165 228.481466,302.879605 C191.083382,339.214629 168.753304,376.019535 165.949889,403.349115 C78.2291771,391.97233 13.6213437,347.739198 2.97204107,281.652032 C-4.77486683,233.579689 17.4367096,182.683245 59.9529034,138.490019 Z M451.020522,29.4274962 C515.897564,48.0311135 561.377,87.6690514 570.159281,142.169901 C580.416091,205.821346 538.149535,274.425608 465.769703,325.863902 C463.369283,310.944355 458.999508,295.15034 456.791545,287.669255 C455.959744,284.849601 456.447487,281.890773 458.181866,279.406728 C469.454361,263.246095 511.49069,199.431342 508.971552,151.059282 C506.337442,100.077354 483.828563,55.7530182 451.65754,29.9397949 Z M340.966683,18.0924676 C329.781972,24.298943 319.614382,32.7146803 310.784079,42.9094149 C307.498232,46.6874212 301.484537,47.53345 297.010655,44.9019521 C286.762266,38.8763803 276.33888,33.4222761 265.851867,28.5688569 C291.100346,22.8502495 315.863297,19.4332423 339.685869,18.153692 Z" id="3" fill-opacity="0.234320367" fill="#53284F" opacity="0.5" style="mix-blend-mode: multiply;"></path>
                </g>
            </g>
        </g>
    </g>
</svg>