<?xml version="1.0" encoding="UTF-8"?>
<svg width="540px" height="530px" viewBox="0 0 540 530" version="1.1" xmlns="http://www.w3.org/2000/svg" xmlns:xlink="http://www.w3.org/1999/xlink">
    <!-- Generator: Sketch 58 (84663) - https://sketch.com -->
    <title>mask2-gold</title>
    <desc>Created with Sketch.</desc>
    <g id="Page-1" stroke="none" stroke-width="1" fill="none" fill-rule="evenodd">
        <g id="img2-gold">
            <g id="mask2-gold" transform="translate(0.000000, -3.000000)">
                <path d="M451.549053,341.48981 C442.770236,351.6552 439.049666,365.184295 441.301049,378.424122 C447.41967,414.405936 440.904829,444.011888 419.869353,461.594347 C392.329542,484.608852 345.228009,482.555789 291.74857,460.651784 C278.084547,455.055408 263.531668,451.826675 248.767871,451.551278 C225.731887,451.121153 204.965037,445.014622 188.213814,432.623083 C173.01961,421.380532 162.535024,406.001507 156.575945,387.770851 C151.704365,372.867431 143.463014,359.302445 132.521548,348.068609 C132.457261,348.002395 132.392486,347.936669 132.328199,347.869969 C27.4038912,240.035555 -13.972677,116.113361 39.9078679,71.0873099 C73.6870684,42.8608248 136.879958,52.3398806 205.183408,89.9067046 C243.433943,110.944749 289.782546,111.619501 328.378374,91.2198298 C389.189195,59.0791128 450.490635,53.6128431 489.7278,82.6452277 C552.066993,128.765394 535.107311,244.504029 451.843709,341.148026 C451.745815,341.261467 451.647434,341.375882 451.549053,341.48981 Z" id="3" fill="#E39F5E" opacity="0.2" style="mix-blend-mode: multiply;" transform="translate(271.794931, 266.340668) rotate(87.000000) translate(-271.794931, -266.340668) "></path>
                <path d="M540,3 L540,533 L0,533 L0,3 L540,3 Z M238.329766,112.900395 C234.405054,116.364967 228.285541,116.684415 224.303422,113.577772 C201.042692,95.3547143 173.149204,86.6499424 144.721199,91.1951281 C80.1189898,101.535649 37.1966633,176.530374 48.8217753,258.719545 C55.6406891,307.072047 109.565638,362.136616 123.842888,375.960713 C126.039111,378.085286 127.091952,380.919469 126.810978,383.869726 C125.747611,395.020116 123.587281,423.706082 127.05763,441.341874 C138.214305,498.250297 176.101585,538.92721 211.674015,532.158176 C232.930068,528.127201 248.470278,508.097605 255.229913,480.496101 C256.623771,474.82734 263.569888,471.522073 269.443467,473.78871 C338.731616,500.418263 404.325618,504.391312 429.310861,480.395093 C457.447034,453.363455 424.861424,400.060824 355.882546,355.008924 C350.599273,351.555771 350.731555,344.44684 356.18067,340.74656 C387.642585,319.445571 417.488683,291.644534 442.069225,259.140552 C512.22611,166.275436 512.373977,70.237328 442.379154,44.6529036 C387.230359,24.4878781 304.991226,54.0754331 238.329766,112.900395 Z" id="2" fill="#FFFFFF"></path>
                <path d="M487.183551,173.881133 C555.135164,274.371406 559.313789,394.851529 488.746932,469.5871 C429.405573,532.434029 332.47518,546.758389 238.534334,515.591067 C246.097939,506.581456 251.79655,494.515495 255.229913,480.496101 C256.623771,474.82734 263.569888,471.522073 269.443467,473.78871 C338.731616,500.418263 404.325618,504.391312 429.310861,480.395093 C457.447034,453.363455 424.861424,400.060824 355.882546,355.008924 C350.599273,351.555771 350.731555,344.44684 356.18067,340.74656 C387.642585,319.445571 417.488683,291.644534 442.069225,259.140552 C463.817859,230.352366 478.838627,201.259255 487.127546,174.054633 Z M51.2489948,78.4123933 C119.520833,6.11537055 237.535724,-1.96819167 343.514446,49.5523799 C308.083738,61.8620494 271.301287,83.8048956 238.329766,112.900395 C234.405054,116.364967 228.285541,116.684415 224.303422,113.577772 C201.042692,95.3547143 173.149204,86.6499424 144.721199,91.1951281 C80.1189898,101.535649 37.1966633,176.530374 48.8217753,258.719545 C55.6406891,307.072047 109.565638,362.136616 123.842888,375.960713 C126.039111,378.085286 127.091952,380.919469 126.810978,383.869726 C125.747611,395.020116 123.587281,423.706082 127.05763,441.341874 C128.145927,446.893103 129.488575,452.289883 131.058615,457.503242 C124.546906,452.415479 118.147082,447.065934 111.876353,441.459314 C-8.93067295,333.438261 -36.0751776,170.896736 51.2489948,78.4123933 Z" id="1" fill-opacity="0.377922858" fill="#E39F5E" opacity="0.502139137"></path>
            </g>
        </g>
    </g>
</svg>