<?xml version="1.0" encoding="UTF-8"?>
<svg width="572px" height="448px" viewBox="0 0 572 448" version="1.1" xmlns="http://www.w3.org/2000/svg" xmlns:xlink="http://www.w3.org/1999/xlink">
    <!-- Generator: Sketch 58 (84663) - https://sketch.com -->
    <title>mask1-purple</title>
    <desc>Created with Sketch.</desc>
    <g id="Page-1" stroke="none" stroke-width="1" fill="none" fill-rule="evenodd">
        <g id="img1-purple">
            <g id="Mask" transform="translate(0.000000, -138.652981)">
                <g id="2">
                    <path d="M541.411579,375.394772 C545.472321,398.830422 542.569824,421.327469 531.626448,440.993527 C521.302032,459.543453 504.892732,473.654196 484.256886,483.194164 C475.510643,487.238224 467.666896,493.17662 461.194463,500.619787 C423.855654,543.561064 384.015088,565.455637 352.319848,555.194196 C335.150835,549.637622 322.291864,535.269009 313.91719,514.458517 C304.413784,490.842692 287.460986,471.520929 265.761264,460.183157 C265.520102,460.057061 265.279383,459.930965 265.038665,459.804399 C155.596808,402.295209 97.5083059,300.626591 135.298091,232.726675 C162.315769,184.180112 231.025568,166.036747 307.996486,180.657691 C347.515658,188.164116 387.893829,174.009537 415.220731,142.749876 C452.40819,100.210285 492.021639,78.5733489 523.571019,88.7863478 C581.653319,107.588876 590.404657,227.241979 543.117053,356.033049 C540.856068,362.192059 540.285561,368.896142 541.411579,375.394772 Z" id="3" fill="#8480ED" opacity="0.2" style="mix-blend-mode: multiply;" transform="translate(348.664373, 321.990154) rotate(146.000000) translate(-348.664373, -321.990154) "></path>
                    <path d="M572,138.652981 L572,586.652981 L0,586.652981 L0,138.652981 L572,138.652981 Z M297.010655,182.901952 C221.025486,138.226242 135.420359,124.965596 85.5872223,155.028701 C22.3373219,193.176 40.6604531,286.664114 126.489607,363.825136 C156.554972,390.827808 190.852578,412.255417 225.491686,427.048152 C231.493165,429.620932 232.96752,436.518165 228.481466,440.879605 C169.904949,497.791053 148.294578,555.855259 180.783083,576.856989 C209.631697,595.498797 272.691229,579.227456 335.055822,540.196093 C340.34074,536.878394 347.72377,538.783478 350.152805,544.039821 C361.953514,569.638365 380.862895,586.203598 402.304385,586.109586 C438.191523,585.974763 467.349453,539.202266 467.430634,481.678778 C467.468362,463.849936 459.936701,436.325764 456.791545,425.669255 C455.959744,422.849601 456.447487,419.890773 458.181866,417.406728 C469.454361,401.246095 511.49069,337.431342 508.971552,289.059282 C504.722988,206.830366 448.77107,141.920888 383.966932,144.067013 C355.451039,145.016404 329.963254,158.76673 310.784079,180.909415 C307.498232,184.687421 301.484537,185.53345 297.010655,182.901952 Z" fill="#FFFFFF"></path>
                </g>
                <path d="M60.1611655,276.270292 C72.8160182,305.306388 95.153692,335.653925 126.489607,363.825136 C156.554972,390.827808 190.852578,412.255417 225.491686,427.048152 C231.493165,429.620932 232.96752,436.518165 228.481466,440.879605 C191.083382,477.214629 168.753304,514.019535 165.949889,541.349115 C78.2291771,529.97233 13.6213437,485.739198 2.97204107,419.652032 C-4.77486683,371.579689 17.4367096,320.683245 59.9529034,276.490019 Z M451.020522,167.427496 C515.897564,186.031113 561.377,225.669051 570.159281,280.169901 C580.416091,343.821346 538.149535,412.425608 465.769703,463.863902 C463.369283,448.944355 458.999508,433.15034 456.791545,425.669255 C455.959744,422.849601 456.447487,419.890773 458.181866,417.406728 C469.454361,401.246095 511.49069,337.431342 508.971552,289.059282 C506.337442,238.077354 483.828563,193.753018 451.65754,167.939795 Z M340.966683,156.092468 C329.781972,162.298943 319.614382,170.71468 310.784079,180.909415 C307.498232,184.687421 301.484537,185.53345 297.010655,182.901952 C286.762266,176.87638 276.33888,171.422276 265.851867,166.568857 C291.100346,160.850249 315.863297,157.433242 339.685869,156.153692 Z" id="1" fill-opacity="0.210254589" fill="#8480ED" opacity="0.5" style="mix-blend-mode: multiply;"></path>
            </g>
        </g>
    </g>
</svg>