<?xml version="1.0" encoding="UTF-8"?>
<svg width="23px" height="23px" viewBox="0 0 23 23" version="1.1" xmlns="http://www.w3.org/2000/svg" xmlns:xlink="http://www.w3.org/1999/xlink">
    <!-- Generator: Sketch 58 (84663) - https://sketch.com -->
    <title>Fill 14</title>
    <desc>Created with Sketch.</desc>
    <g id="Welcome" stroke="none" stroke-width="1" fill="none" fill-rule="evenodd">
        <g id="When-to-Seek-Help---Desktop" transform="translate(-238.000000, -1023.000000)" fill="#FFFFFF">
            <path d="M261,1032.26401 L261,1036.73698 C261,1038.14845 259.857007,1039.29055 258.445659,1039.29055 L254.301067,1039.29055 L254.301067,1043.44643 C254.301067,1044.8579 253.148135,1046 251.736788,1046 L247.264206,1046 C245.852859,1046 244.708872,1044.8579 244.708872,1043.44643 L244.708872,1039.29055 L240.56428,1039.29055 C239.153926,1039.29055 238,1038.14845 238,1036.73698 L238,1032.26401 C238,1030.85254 239.153926,1029.70945 240.56428,1029.70945 L244.708872,1029.70945 L244.708872,1025.5645 C244.708872,1024.15303 245.852859,1023 247.264206,1023 L251.736788,1023 C253.148135,1023 254.301067,1024.15303 254.301067,1025.5645 L254.301067,1029.70945 L258.445659,1029.70945 C259.857007,1029.70945 261,1030.85254 261,1032.26401" id="Fill-14"></path>
        </g>
    </g>
</svg>