<?xml version="1.0" encoding="UTF-8"?>
<svg width="1440px" height="1211px" viewBox="0 0 1440 1211" version="1.1" xmlns="http://www.w3.org/2000/svg" xmlns:xlink="http://www.w3.org/1999/xlink">
    <!-- Generator: Sketch 58 (84663) - https://sketch.com -->
    <title>Web Elements - Desktop Copy</title>
    <desc>Created with Sketch.</desc>
    <g id="Web-Elements---Desktop-Copy" stroke="none" stroke-width="1" fill="none" fill-rule="evenodd" opacity="0.37">
        <path d="M1143.63774,1194.88622 C1095.45474,1190.48022 1049.62074,1183.86022 1007.73274,1175.60622 C949.770737,1164.18522 889.916737,1167.55522 833.589737,1185.36522 C760.897737,1208.34922 670.895737,1211.07122 578.467737,1188.17622 C558.060737,1183.12522 538.341737,1177.02222 519.426737,1169.99422 C483.276737,1156.56422 444.072737,1153.82122 406.438737,1162.24222 C368.356737,1170.76322 327.164737,1178.02922 284.007737,1183.57622 C166.934953,1198.62196 60.6607508,1197.7622 -10.3828264,1184.20096 C-10.187684,1173.10767 -3.22500308,774.215949 10.5052162,-12.4741981 L1450.2873,12.6572917 C1437.07669,769.492833 1430.24688,1160.77208 1429.79789,1186.49504 C1359.39979,1201.21964 1256.7884,1205.23394 1143.63774,1194.88622 Z" id="Fill-1" fill="#9996E9" style="mix-blend-mode: multiply;" transform="translate(719.952238, 595.781778) rotate(-1.000000) translate(-719.952238, -595.781778) "></path>
    </g>
</svg>