<?xml version="1.0" encoding="UTF-8"?>
<svg width="574px" height="439px" viewBox="0 0 574 439" version="1.1" xmlns="http://www.w3.org/2000/svg" xmlns:xlink="http://www.w3.org/1999/xlink">
    <!-- Generator: Sketch 58 (84663) - https://sketch.com -->
    <title>quote-bg</title>
    <desc>Created with Sketch.</desc>
    <g id="quote-bg" stroke="none" stroke-width="1" fill="none" fill-rule="evenodd">
        <path d="M328.896879,403.131706 C492.380106,374.830527 606.151138,267.211211 583.012106,162.756499 C559.873602,58.3017879 408.586337,-3.43274633 245.103637,24.8678641 C81.6204099,53.1690431 -32.1511492,160.788928 -9.01211762,265.243071 C14.1269139,369.698351 165.414178,431.433454 328.896879,403.131706" id="Fill-3" fill="#FFFFFF" opacity="0.8" transform="translate(287.000000, 214.000000) rotate(-15.000000) translate(-287.000000, -214.000000) "></path>
        <path d="M427.923284,369.352549 C416.174846,424.03563 378.047765,462.443421 342.762921,455.100174 C321.681353,450.725053 306.462145,431.035033 300.062172,404.242853 C298.741856,398.741346 291.875424,395.389853 286.013064,397.441061 C216.830893,421.577342 151.581998,423.924968 127.021754,400.191815 C99.3623259,373.458918 132.362312,322.743877 201.453564,280.822552 C206.746685,277.605436 206.695296,270.744361 201.31916,267.045072 C170.291741,245.766255 140.936458,218.25872 116.882204,186.316781 C48.209975,95.0834582 49.166611,2.36804811 119.040564,-20.7406523 C174.090614,-38.9525373 255.49954,-8.52430323 321.088397,49.7750707 C324.950518,53.2056081 331.026342,53.6561625 335.022867,50.7473198 C358.353715,33.6855343 386.179171,25.911494 414.388072,30.9466376 C478.490585,42.3923014 520.290041,115.765488 507.790525,194.845698 C500.461587,241.363468 446.225864,293.291844 431.872372,306.310496 C429.658669,308.31823 428.579489,311.025509 428.82853,313.882973 C429.757495,324.668614 431.575894,352.413282 427.923284,369.352549" id="Fill-1" fill-opacity="0.8" fill="#FFFFFF" opacity="0.762462798" transform="translate(288.000000, 215.000000) rotate(-13.000000) translate(-288.000000, -215.000000) "></path>
    </g>
</svg>