<?xml version="1.0" encoding="UTF-8"?>
<svg width="188px" height="188px" viewBox="0 0 188 188" version="1.1" xmlns="http://www.w3.org/2000/svg" xmlns:xlink="http://www.w3.org/1999/xlink">
    <!-- Generator: Sketch 59 (86127) - https://sketch.com -->
    <title>team-add</title>
    <desc>Created with Sketch.</desc>
    <g id="team-add" stroke="none" stroke-width="1" fill="none" fill-rule="evenodd">
        <rect id="Rectangle" fill="#9996E9" x="0" y="0" width="188" height="188"></rect>
        <path d="M94.25,50 C97.0114237,50 99.25,52.2385763 99.25,55 L99.25,55 L99.25,89 L133.25,89 C135.938755,89 138.131818,91.1223067 138.24538,93.7831104 L138.25,94 C138.25,96.7614237 136.011424,99 133.25,99 L133.25,99 L99.25,99 L99.25,133 C99.25,135.688755 97.1276933,137.881818 94.4668896,137.99538 L94.25,138 C91.4885763,138 89.25,135.761424 89.25,133 L89.25,133 L89.25,99 L55.25,99 C52.5612453,99 50.3681819,96.8776933 50.2546195,94.2168896 L50.25,94 C50.25,91.2385763 52.4885763,89 55.25,89 L55.25,89 L89.25,89 L89.25,55 C89.25,52.3112453 91.3723067,50.1181819 94.0331104,50.0046195 Z" id="Combined-Shape" fill="#FFFFFF" fill-rule="nonzero"></path>
    </g>
</svg>