<svg xmlns="http://www.w3.org/2000/svg" width="43" height="43" viewBox="0 0 43 43">
    <path fill="#9996E9" fill-rule="evenodd" d="M21.5 0C33.374 0 43 9.626 43 21.5S33.374 43 21.5 43 0 33.374 0 21.5 9.626 0 21.5 0zm2.237 10h-4.473a2.563 2.563 0 0 0-2.555 2.565v4.145h-4.145A2.563 2.563 0 0 0 10 19.264v4.473a2.562 2.562 0 0 0 2.564 2.553h4.145v4.156A2.554 2.554 0 0 0 19.264 33h4.473a2.561 2.561 0 0 0 2.564-2.554V26.29h4.145A2.553 2.553 0 0 0 33 23.737v-4.473a2.554 2.554 0 0 0-2.554-2.554H26.3v-4.145A2.57 2.57 0 0 0 23.737 10z"/>
</svg>
