<svg width="340" height="366" viewBox="0 0 340 366" fill="none" xmlns="http://www.w3.org/2000/svg">
<path fill-rule="evenodd" clip-rule="evenodd" d="M276.217 262.858C276.191 299.416 257.737 329.129 235 329.199C221.415 329.249 209.428 318.713 201.94 302.44C200.399 299.098 195.72 297.884 192.373 299.99C152.877 324.769 112.931 335.082 94.6454 323.222C74.0523 309.861 87.7188 272.968 124.807 236.825C127.647 234.055 126.71 229.671 122.906 228.033C100.953 218.617 79.214 204.984 60.1535 187.809C5.7405 138.733 -5.90936 79.3104 34.1477 55.0941C65.7077 36.0096 119.951 44.4746 168.113 72.9006C170.949 74.575 174.758 74.0399 176.838 71.6403C188.98 57.5762 205.123 48.8485 223.189 48.2576C264.247 46.9219 299.725 88.1985 302.453 140.46C304.07 171.203 277.464 211.741 270.329 222.007C269.232 223.585 268.924 225.465 269.452 227.257C271.449 234.031 276.233 251.527 276.217 262.858" fill="#9996E9"/>
</svg>
