<?xml version="1.0" encoding="UTF-8"?>
<svg width="346px" height="346px" viewBox="0 0 346 346" version="1.1" xmlns="http://www.w3.org/2000/svg" xmlns:xlink="http://www.w3.org/1999/xlink">
    <!-- Generator: Sketch 58 (84663) - https://sketch.com -->
    <title>Mask</title>
    <desc>Created with Sketch.</desc>
    <g id="Page-1" stroke="none" stroke-width="1" fill="none" fill-rule="evenodd">
        <g id="Mask">
            <path d="M346,0 L346,346 L0,346 L0,0 L346,0 Z M168.71303,43.3611434 C120.551114,14.9350501 66.3079105,6.47013204 34.7478947,25.5545619 C-5.30914756,49.7709309 6.34071437,109.193875 60.75371,158.269808 C79.8141984,175.444053 101.553707,189.076996 123.506691,198.493394 C127.31021,200.131102 128.247333,204.515177 125.406975,207.285069 C88.3190592,243.428746 74.652539,280.321154 95.2456569,293.682647 C113.531596,305.542741 153.477561,295.229224 192.973307,270.450616 C196.320263,268.344406 200.99881,269.558371 202.540081,272.900019 C210.027895,289.17393 222.015661,299.709956 235.600451,299.659555 C258.337651,299.589513 276.791052,269.876669 276.817412,233.318522 C276.833544,221.987688 272.04966,204.491834 270.052317,197.717879 C269.524079,195.925528 269.831811,194.045303 270.929591,192.467361 C278.064538,182.201629 304.669965,141.663451 303.052813,110.920222 C300.325178,58.6590255 264.847047,17.3823989 223.789582,18.718089 C205.722988,19.3090298 189.580512,28.036732 177.438683,42.1008202 C175.358493,44.5004427 171.548724,45.0355022 168.71303,43.3611434 Z" id="Combined-Shape" fill="#FFFFFF"></path>
            <path d="M26.9938539,118.452664 C35.2148998,131.889491 46.5215316,145.433584 60.75371,158.269808 C79.8141984,175.444053 101.553707,189.076996 123.506691,198.493394 C127.31021,200.131102 128.247333,204.515177 125.406975,207.285069 C107.318782,224.912746 94.8016546,242.718518 89.1129168,257.88575 C44.3481509,248.493214 12.2707854,223.514934 6.5374914,187.837555 C2.89654689,165.182051 10.4023422,141.472886 26.2112564,119.524124 Z M270.394295,37.0903591 C310.045005,47.8986673 337.948578,71.763194 343.258148,104.803806 C349.63274,144.471876 321.833842,187.37128 275.125764,218.394693 C273.551804,210.064847 271.277672,201.873648 270.052317,197.717879 C269.524079,195.925528 269.831811,194.045303 270.929591,192.467361 C278.064538,182.201629 304.669965,141.663451 303.052813,110.920222 C301.470785,80.6087279 288.871489,53.9924433 270.556347,37.2423209 Z M187.021672,32.7909905 C183.608831,35.5486831 180.404415,38.6655628 177.438683,42.1008202 C175.358493,44.5004427 171.548724,45.0355022 168.71303,43.3611434 C165.534015,41.4848272 162.328504,39.6954799 159.10477,37.9952836 C167.874285,35.8837119 176.552809,34.2424808 185.08679,33.0505568 Z" id="Combined-Shape" fill="#9996E9" opacity="0.13843936" style="mix-blend-mode: multiply;"></path>
        </g>
    </g>
</svg>