<svg width="40" height="40" viewBox="0 0 40 40" fill="none" xmlns="http://www.w3.org/2000/svg">
<g clip-path="url(#clip0_301:2117)">
<path d="M17.6775 4.94975L20.5059 2.12132C20.8965 1.7308 21.5296 1.7308 21.9201 2.12132L38.8907 19.0919C39.2812 19.4824 39.2812 20.1156 38.8907 20.5061L21.9201 37.4767C21.5296 37.8672 20.8965 37.8672 20.5059 37.4767L17.6775 34.6482C17.287 34.2577 17.287 33.6245 17.6775 33.234L27.9306 22.981L4.18182 22.981C3.62953 22.981 3.18182 22.5333 3.18182 21.981L3.18182 17.617C3.18182 17.0647 3.62953 16.617 4.18182 16.617L27.9306 16.617L17.6775 6.36396C17.287 5.97344 17.287 5.34027 17.6775 4.94975Z" fill="#E901FB"/>
</g>
<defs>
<clipPath id="clip0_301:2117">
<rect width="28" height="28" fill="white" transform="translate(19.7988) rotate(45)"/>
</clipPath>
</defs>
</svg>
