<svg width="28" height="84" viewBox="0 0 28 84" fill="none" xmlns="http://www.w3.org/2000/svg">
<g clip-path="url(#clip0_581:359)">
<path d="M1.99985 12V8C1.99985 7.44771 2.44757 7 2.99985 7H26.9998C27.5521 7 27.9998 7.44772 27.9998 8V32C27.9998 32.5523 27.5521 33 26.9998 33H22.9998C22.4475 33 21.9998 32.5523 21.9998 32V17.5L5.20696 34.2929C4.81643 34.6834 4.18327 34.6834 3.79274 34.2929L0.706955 31.2071C0.316431 30.8166 0.316432 30.1834 0.706956 29.7929L17.4998 13H2.99985C2.44757 13 1.99985 12.5523 1.99985 12Z" fill="black"/>
<path d="M1.99985 54V50C1.99985 49.4477 2.44757 49 2.99985 49H26.9998C27.5521 49 27.9998 49.4477 27.9998 50V74C27.9998 74.5523 27.5521 75 26.9998 75H22.9998C22.4475 75 21.9998 74.5523 21.9998 74V59.5L5.20696 76.2929C4.81643 76.6834 4.18327 76.6834 3.79274 76.2929L0.706955 73.2071C0.316431 72.8166 0.316432 72.1834 0.706956 71.7929L17.4998 55H2.99985C2.44757 55 1.99985 54.5523 1.99985 54Z" fill="#E901FB"/>
</g>
<defs>
<clipPath id="clip0_581:359">
<rect width="28" height="84" fill="white"/>
</clipPath>
</defs>
</svg>
