<svg width="1440" height="140" viewBox="0 0 1440 140" fill="none" xmlns="http://www.w3.org/2000/svg">
<path d="M335.51 82.8C334.72 84.01 335.26 85.01 336.7 85.02L375 85.31C376.44 85.32 378.73 84.91 380.08 84.39L397.58 77.7C398.93 77.18 400.66 75.76 401.43 74.54L410.3 60.45C411.07 59.23 411.71 57.05 411.72 55.6C411.72 55.6 411.75 50.57 411.75 49.15C411.75 45.56 411.7 45.15 411.7 45.15C411.52 43.72 410.19 42.44 408.75 42.3L371.79 38.85C370.35 38.72 368.1 38.61 366.77 38.61C365.45 38.61 363.72 39.6 362.93 40.81L335.51 82.8Z" fill="#777776"/>
<path d="M409.25 49.73C409.25 49.32 409.59 48.98 410 48.98H414.26C414.67 48.98 415.01 49.32 415.01 49.73V51.82C415.01 52.23 414.67 52.57 414.26 52.57H410C409.59 52.57 409.25 52.23 409.25 51.82V49.73Z" fill="#395E57"/>
<path d="M366.71 61.83C366.71 61.33 367.12 60.91 367.63 60.91H374.46C374.96 60.91 375.38 61.32 375.38 61.83V63.58C375.38 64.08 374.97 64.5 374.46 64.5H367.63C367.13 64.5 366.71 64.09 366.71 63.58V61.83Z" fill="#395E57"/>
<path d="M366.71 38.18C366.71 37.68 367.12 37.26 367.63 37.26H374.46C374.96 37.26 375.38 37.67 375.38 38.18V39.93C375.38 40.43 374.97 40.85 374.46 40.85H367.63C367.13 40.85 366.71 40.44 366.71 39.93V38.18Z" fill="#395E57"/>
<path d="M363.14 41.17C363.14 39.77 364.29 38.62 365.69 38.62H389.6C391 38.62 393.29 38.79 394.68 39.01L409.22 41.23C410.61 41.44 411.74 42.76 411.74 44.17V57.43C411.74 58.83 410.6 60.16 409.22 60.37L394.77 62.59C393.38 62.8 391.1 62.98 389.69 62.98H365.69C364.29 62.98 363.14 61.83 363.14 60.43V41.17Z" fill="#C9DADC"/>
<path d="M394.27 41.1C394.27 40.49 394.77 40.04 395.38 40.11L406.29 41.8C406.9 41.87 407.4 42.43 407.4 43.04L407.45 58.52C407.45 59.13 406.96 59.72 406.35 59.82L395.38 61.49C394.78 61.59 394.28 61.18 394.28 60.56V41.1H394.27Z" fill="#395E57"/>
<path d="M948.78 100.87C947.99 102.08 948.53 103.08 949.97 103.09L988.27 103.38C989.71 103.39 992 102.98 993.35 102.46L1010.85 95.7701C1012.2 95.2501 1013.93 93.8301 1014.7 92.6101L1023.57 78.5201C1024.34 77.3001 1024.98 75.1201 1024.99 73.6701C1024.99 73.6701 1025.02 68.6401 1025.02 67.2201C1025.02 63.6301 1024.97 63.2201 1024.97 63.2201C1024.79 61.7901 1023.46 60.5101 1022.02 60.3701L985.06 56.9201C983.62 56.7901 981.37 56.6801 980.04 56.6801C978.72 56.6801 976.99 57.6701 976.2 58.8801L948.78 100.87Z" fill="#777776"/>
<path d="M1022.52 67.8C1022.52 67.39 1022.86 67.05 1023.27 67.05H1027.53C1027.94 67.05 1028.28 67.39 1028.28 67.8V69.89C1028.28 70.3 1027.94 70.64 1027.53 70.64H1023.27C1022.86 70.64 1022.52 70.3 1022.52 69.89V67.8Z" fill="#395E57"/>
<path d="M979.97 79.9001C979.97 79.4001 980.38 78.9801 980.89 78.9801H987.72C988.22 78.9801 988.64 79.3901 988.64 79.9001V81.6501C988.64 82.1501 988.23 82.5701 987.72 82.5701H980.89C980.38 82.5701 979.97 82.1601 979.97 81.6501V79.9001Z" fill="#395E57"/>
<path d="M979.97 56.2501C979.97 55.7501 980.38 55.3301 980.89 55.3301H987.72C988.22 55.3301 988.64 55.7401 988.64 56.2501V58.0001C988.64 58.5001 988.23 58.9201 987.72 58.9201H980.89C980.38 58.9201 979.97 58.5101 979.97 58.0001V56.2501Z" fill="#395E57"/>
<path d="M976.41 59.2401C976.41 57.8401 977.56 56.6901 978.96 56.6901H1002.87C1004.27 56.6901 1006.56 56.8601 1007.95 57.0801L1022.49 59.3001C1023.88 59.5101 1025.01 60.8301 1025.01 62.2401V75.5001C1025.01 76.9001 1023.87 78.2301 1022.49 78.4401L1008.04 80.6601C1006.65 80.8701 1004.37 81.0501 1002.96 81.0501H978.96C977.56 81.0501 976.41 79.9001 976.41 78.5001V59.2401Z" fill="#C9DADC"/>
<path d="M1007.54 59.17C1007.54 58.56 1008.04 58.11 1008.65 58.18L1019.56 59.87C1020.17 59.94 1020.67 60.5 1020.67 61.11L1020.72 76.59C1020.72 77.2 1020.23 77.79 1019.62 77.89L1008.65 79.56C1008.05 79.66 1007.55 79.25 1007.55 78.63V59.17H1007.54Z" fill="#395E57"/>
<path d="M-30.9599 96.0099C-31.7499 97.2199 -31.2099 98.2199 -29.7599 98.2299L60.1101 98.7399C61.5601 98.7499 63.4001 97.7699 64.2101 96.5699L70.1701 87.7199C70.9801 86.5199 72.2701 84.5399 73.0401 83.3099L80.0401 72.1699C80.8101 70.9499 81.4101 68.7599 81.3701 67.3199L80.9601 51.9999C80.9201 50.5499 79.9801 48.6099 78.8701 47.6899L75.0101 44.4699C73.9001 43.5399 71.8101 42.7799 70.3601 42.7699L12.6701 42.3199C11.2201 42.3099 8.86006 42.2999 7.41006 42.2999H6.44009C4.99009 42.2999 3.17009 43.2899 2.38009 44.5099L-30.9599 96.0099Z" fill="#777776"/>
<path d="M81.48 50.43C81.48 48.98 80.4701 47.18 79.2401 46.42L74.55 43.51C73.32 42.75 71.1301 42.13 69.6901 42.13H69.6501L68.7001 37.71H65.5801L66.5301 42.14L5.43005 42.21C3.98005 42.21 2.80005 43.4 2.80005 44.84L2.83008 73.73C2.83008 75.18 4.02008 76.36 5.46008 76.36L66.5001 76.29L65.5701 80.63H68.6901L69.6201 76.29H69.72C71.17 76.29 73.37 75.68 74.61 74.94L79.2401 72.18C80.48 71.44 81.5001 69.65 81.4901 68.2L81.48 50.43Z" fill="#C9DADC"/>
<path d="M60.2001 48.22C60.2001 46.77 61.3801 45.59 62.8301 45.59L69.9401 45.58C71.3901 45.58 72.5701 46.76 72.5701 48.21L72.6 69.92C72.6 71.37 71.42 72.55 69.97 72.55L62.86 72.56C61.41 72.56 60.23 71.38 60.23 69.93L60.2001 48.22Z" fill="#395E57"/>
<path d="M1298.09 98.13C1297.3 99.34 1297.84 100.34 1299.29 100.35L1389.16 100.86C1390.61 100.87 1392.45 99.89 1393.26 98.69L1399.22 89.84C1400.03 88.64 1401.32 86.66 1402.09 85.43L1409.09 74.29C1409.86 73.07 1410.46 70.88 1410.42 69.44L1410.03 54.11C1409.99 52.66 1409.05 50.72 1407.94 49.8L1404.08 46.58C1402.97 45.65 1400.88 44.89 1399.43 44.88L1341.74 44.43C1340.29 44.42 1337.93 44.41 1336.48 44.41H1335.51C1334.06 44.41 1332.24 45.4 1331.45 46.62L1298.09 98.13Z" fill="#777776"/>
<path d="M1410.53 52.5401C1410.53 51.0901 1409.52 49.2901 1408.29 48.5301L1403.6 45.6201C1402.37 44.8601 1400.18 44.2401 1398.74 44.2401H1398.7L1397.75 39.8201H1394.63L1395.58 44.2501L1334.48 44.3201C1333.03 44.3201 1331.85 45.5101 1331.85 46.9501L1331.88 75.8401C1331.88 77.2901 1333.07 78.4701 1334.51 78.4701L1395.55 78.4001L1394.62 82.7401H1397.74L1398.67 78.4001H1398.77C1400.22 78.4001 1402.42 77.7901 1403.66 77.0501L1408.29 74.2901C1409.53 73.5501 1410.55 71.7601 1410.54 70.3101L1410.53 52.5401Z" fill="#C9DADC"/>
<path d="M1389.25 50.3401C1389.25 48.8901 1390.43 47.7101 1391.88 47.7101L1398.99 47.7001C1400.44 47.7001 1401.62 48.8801 1401.62 50.3301L1401.65 72.0401C1401.65 73.4901 1400.47 74.6701 1399.02 74.6701L1391.91 74.6801C1390.46 74.6801 1389.28 73.5001 1389.28 72.0501L1389.25 50.3401Z" fill="#395E57"/>
<path d="M246.3 39.67C244.87 39.46 242.52 39.29 241.08 39.29H237.57C236.13 39.29 234.63 40.43 234.25 41.82L229.56 59C229.18 60.39 227.78 61.06 226.46 60.49L180.02 40.44C178.69 39.87 176.43 39.4 174.98 39.4H169.53C168.09 39.4 166.26 40.39 165.47 41.6L123.3 105.95C122.51 107.16 123.04 108.15 124.49 108.15H214.68C216.12 108.15 217.96 107.17 218.77 105.97L226.06 95.13C226.87 93.93 228.71 92.95 230.15 92.95H254.02C255.46 92.95 257.63 92.3 258.84 91.51L266.49 86.48C267.7 85.69 269.29 84.02 270.03 82.79L277.26 70.73C278 69.49 278.58 67.3 278.54 65.85L278.07 46.98C278.03 45.54 276.84 44.18 275.41 43.97L246.3 39.67Z" fill="#777776"/>
<path d="M169.27 74.9401C168.04 74.9401 167.03 73.9401 167.03 72.7001L167 41.5301C167 40.3001 168 39.2901 169.24 39.2901L237.08 39.2201C238.31 39.2201 239.32 40.2201 239.32 41.4601V72.6201C239.32 73.8501 238.31 74.8601 237.08 74.8601L169.27 74.9401Z" fill="#C9DADC"/>
<path d="M278.53 46.3C278.53 45.07 277.67 43.53 276.63 42.88L272.63 40.4C271.58 39.75 269.72 39.22 268.49 39.23L265.6 39.24L264.69 35.04H262.03L262.94 39.25L242.9 39.3C241.67 39.3 240.66 40.31 240.66 41.54L240.69 72.7C240.69 73.93 241.7 74.94 242.93 74.93L262.86 74.88L262.07 78.56H264.73L265.52 74.87L268.52 74.86C269.75 74.86 271.62 74.34 272.68 73.71L276.62 71.36C277.68 70.73 278.54 69.21 278.54 67.98L278.53 46.3Z" fill="#C9DADC"/>
<path d="M256.89 44.88C256.89 43.29 258.19 41.99 259.77 41.99L267.58 41.98C269.17 41.98 270.47 43.28 270.47 44.86L270.5 68.69C270.5 70.28 269.21 71.58 267.62 71.58L259.81 71.59C258.22 71.59 256.92 70.29 256.92 68.71L256.89 44.88Z" fill="#395E57"/>
<path d="M463.58 89.6801C462.79 90.8901 463.33 91.8901 464.78 91.9001L554.65 92.4101C556.1 92.4201 557.94 91.4401 558.75 90.2401L564.71 81.3901C565.52 80.1901 566.81 78.2101 567.58 76.9801L574.58 65.8401C575.35 64.6201 575.95 62.4301 575.91 60.9901L575.52 45.6601C575.48 44.2101 574.54 42.2701 573.43 41.3501L569.57 38.1301C568.46 37.2001 566.37 36.4401 564.92 36.4301L507.23 35.9801C505.78 35.9701 503.42 35.9601 501.97 35.9601H501C499.55 35.9601 497.73 36.9501 496.94 38.1701L463.58 89.6801Z" fill="#777776"/>
<path d="M576.02 44.0901C576.02 42.6401 575.01 40.8401 573.78 40.0801L569.09 37.1701C567.86 36.4101 565.67 35.7901 564.23 35.7901H564.19L563.24 31.3701H560.12L561.07 35.8001L499.97 35.8701C498.52 35.8701 497.34 37.0601 497.34 38.5001L497.37 67.3901C497.37 68.8401 498.56 70.0201 500 70.0201L561.04 69.9501L560.11 74.2901H563.23L564.16 69.9501H564.26C565.71 69.9501 567.91 69.3401 569.15 68.6001L573.78 65.8401C575.02 65.1001 576.04 63.3101 576.03 61.8601L576.02 44.0901Z" fill="#C9DADC"/>
<path d="M554.74 41.8901C554.74 40.4401 555.92 39.2601 557.37 39.2601L564.48 39.2501C565.93 39.2501 567.11 40.4301 567.11 41.8801L567.14 63.5901C567.14 65.0401 565.96 66.2201 564.51 66.2201L557.4 66.2301C555.95 66.2301 554.77 65.0501 554.77 63.6001L554.74 41.8901Z" fill="#395E57"/>
<path d="M616.04 101.93C615.25 103.14 615.79 104.14 617.24 104.15L707.11 104.66C708.56 104.67 710.4 103.69 711.21 102.49L717.17 93.6401C717.98 92.4401 719.27 90.4601 720.04 89.2301L727.04 78.0901C727.81 76.8701 728.41 74.6801 728.37 73.2401L727.98 57.9101C727.94 56.4601 727 54.5201 725.89 53.6001L722.03 50.3801C720.92 49.4501 718.83 48.6901 717.38 48.6801L659.69 48.2301C658.24 48.2201 655.88 48.2101 654.43 48.2101H653.46C652.01 48.2101 650.19 49.2001 649.4 50.4201L616.04 101.93Z" fill="#777776"/>
<path d="M728.48 56.3401C728.48 54.8901 727.47 53.0901 726.24 52.3301L721.55 49.4201C720.32 48.6601 718.13 48.0401 716.69 48.0401H716.65L715.7 43.6201H712.58L713.53 48.0501L652.43 48.1201C650.98 48.1201 649.8 49.3101 649.8 50.7501L649.83 79.6401C649.83 81.0901 651.02 82.2701 652.46 82.2701L713.5 82.2001L712.57 86.5401H715.69L716.62 82.2001H716.72C718.17 82.2001 720.37 81.5901 721.61 80.8501L726.24 78.0901C727.48 77.3501 728.5 75.5601 728.49 74.1101L728.48 56.3401Z" fill="#C9DADC"/>
<path d="M707.2 54.1401C707.2 52.6901 708.38 51.5101 709.83 51.5101L716.94 51.5001C718.39 51.5001 719.57 52.6801 719.57 54.1301L719.6 75.8401C719.6 77.2901 718.42 78.4701 716.97 78.4701L709.86 78.4801C708.41 78.4801 707.23 77.3001 707.23 75.8501L707.2 54.1401Z" fill="#395E57"/>
<path d="M1202.4 33.1901C1200.97 32.9801 1198.62 32.8101 1197.18 32.8101H1193.67C1192.23 32.8101 1190.73 33.9501 1190.35 35.3401L1185.66 52.5201C1185.28 53.9101 1183.88 54.5801 1182.56 54.0101L1136.12 33.9601C1134.79 33.3901 1132.53 32.9201 1131.08 32.9201H1125.63C1124.19 32.9201 1122.36 33.9101 1121.57 35.1201L1079.4 99.4701C1078.61 100.68 1079.14 101.67 1080.59 101.67H1170.78C1172.22 101.67 1174.06 100.69 1174.87 99.4901L1182.16 88.6501C1182.97 87.4501 1184.81 86.4701 1186.25 86.4701H1210.12C1211.56 86.4701 1213.73 85.8201 1214.94 85.0301L1222.59 80.0001C1223.8 79.2101 1225.39 77.5401 1226.13 76.3101L1233.36 64.2501C1234.1 63.0101 1234.68 60.8201 1234.64 59.3701L1234.17 40.5001C1234.13 39.0601 1232.94 37.7001 1231.51 37.4901L1202.4 33.1901Z" fill="#777776"/>
<path d="M1125.38 68.45C1124.15 68.45 1123.14 67.45 1123.14 66.21L1123.11 35.05C1123.11 33.82 1124.12 32.81 1125.35 32.81L1193.19 32.74C1194.42 32.74 1195.43 33.74 1195.43 34.98V66.14C1195.43 67.37 1194.42 68.38 1193.19 68.38L1125.38 68.45Z" fill="#C9DADC"/>
<path d="M1234.63 39.81C1234.63 38.58 1233.77 37.04 1232.73 36.39L1228.73 33.91C1227.68 33.26 1225.82 32.73 1224.59 32.74L1221.7 32.75L1220.79 28.55H1218.13L1219.04 32.76L1199 32.81C1197.77 32.81 1196.76 33.82 1196.76 35.05L1196.79 66.21C1196.79 67.44 1197.8 68.45 1199.03 68.44L1218.96 68.39L1218.17 72.07H1220.83L1221.62 68.38L1224.62 68.37C1225.85 68.37 1227.72 67.85 1228.78 67.22L1232.72 64.87C1233.78 64.24 1234.64 62.72 1234.64 61.49L1234.63 39.81Z" fill="#C9DADC"/>
<path d="M1213 38.39C1213 36.8 1214.3 35.5 1215.88 35.5L1223.69 35.49C1225.28 35.49 1226.58 36.79 1226.58 38.37L1226.61 62.2C1226.61 63.79 1225.31 65.09 1223.73 65.09L1215.92 65.1C1214.33 65.1 1213.03 63.8 1213.03 62.22L1213 38.39Z" fill="#395E57"/>
<path d="M892.42 35.2999C890.99 35.0899 888.64 34.9199 887.2 34.9199H883.69C882.25 34.9199 880.75 36.0599 880.37 37.4499L875.68 54.6299C875.3 56.0199 873.9 56.6899 872.58 56.1199L826.14 36.0699C824.81 35.4999 822.55 35.0299 821.1 35.0299H815.65C814.21 35.0299 812.38 36.0199 811.59 37.2299L769.42 101.58C768.63 102.79 769.16 103.78 770.61 103.78H860.8C862.24 103.78 864.08 102.8 864.89 101.6L872.18 90.7599C872.99 89.5599 874.83 88.5799 876.27 88.5799H900.14C901.58 88.5799 903.75 87.9299 904.96 87.1399L912.61 82.1099C913.82 81.3199 915.41 79.6499 916.15 78.4199L923.38 66.3599C924.12 65.1199 924.7 62.9299 924.66 61.4799L924.19 42.6099C924.15 41.1699 922.96 39.8099 921.53 39.5999L892.42 35.2999Z" fill="#777776"/>
<path d="M815.39 70.5599C814.16 70.5599 813.15 69.5599 813.15 68.3199L813.12 37.1599C813.12 35.9299 814.12 34.9199 815.36 34.9199L883.2 34.8499C884.43 34.8499 885.44 35.8499 885.44 37.0899V68.2499C885.44 69.4799 884.43 70.4899 883.2 70.4899L815.39 70.5599Z" fill="#C9DADC"/>
<path d="M924.65 41.9199C924.65 40.6899 923.79 39.1499 922.75 38.4999L918.75 36.0199C917.7 35.3699 915.84 34.8399 914.61 34.8499L911.72 34.8599L910.81 30.6599H908.15L909.06 34.8699L889.02 34.9199C887.79 34.9199 886.78 35.9299 886.78 37.1599L886.81 68.3199C886.81 69.5499 887.82 70.5599 889.05 70.5499L908.98 70.4999L908.19 74.1799H910.85L911.64 70.4899L914.64 70.4799C915.87 70.4799 917.74 69.9599 918.8 69.3299L922.74 66.9799C923.8 66.3499 924.66 64.8299 924.66 63.5999L924.65 41.9199Z" fill="#C9DADC"/>
<path d="M903.01 40.4999C903.01 38.9099 904.3 37.6099 905.89 37.6099L913.7 37.5999C915.29 37.5999 916.59 38.8999 916.59 40.4799L916.62 64.3099C916.62 65.8999 915.32 67.1999 913.74 67.1999L905.93 67.2099C904.34 67.2099 903.04 65.9099 903.04 64.3299L903.01 40.4999Z" fill="#395E57"/>
</svg>
