<svg width="634" height="140" viewBox="0 0 634 140" fill="none" xmlns="http://www.w3.org/2000/svg">
<path d="M397.364 88.4498C396.574 89.6598 397.114 90.6597 398.554 90.6697L436.854 90.9598C438.294 90.9698 440.584 90.5598 441.934 90.0398L459.434 83.3498C460.784 82.8298 462.514 81.4098 463.284 80.1898L472.154 66.0998C472.924 64.8798 473.564 62.6998 473.574 61.2498C473.574 61.2498 473.604 56.2198 473.604 54.7998C473.604 51.2098 473.554 50.7998 473.554 50.7998C473.374 49.3698 472.044 48.0897 470.604 47.9497L433.644 44.4998C432.204 44.3698 429.954 44.2598 428.624 44.2598C427.294 44.2598 425.574 45.2498 424.784 46.4598L397.364 88.4498Z" fill="#777776"/>
<path d="M471.113 55.3809C471.113 54.9709 471.453 54.6309 471.863 54.6309H476.123C476.533 54.6309 476.873 54.9709 476.873 55.3809V57.4709C476.873 57.8809 476.533 58.2209 476.123 58.2209H471.863C471.453 58.2209 471.113 57.8809 471.113 57.4709V55.3809Z" fill="#395E57"/>
<path d="M428.564 67.4806C428.564 66.9806 428.974 66.5605 429.484 66.5605H436.314C436.814 66.5605 437.234 66.9706 437.234 67.4806V69.2306C437.234 69.7306 436.824 70.1506 436.314 70.1506H429.484C428.984 70.1506 428.564 69.7406 428.564 69.2306V67.4806Z" fill="#395E57"/>
<path d="M428.564 43.8302C428.564 43.3302 428.974 42.9102 429.484 42.9102H436.314C436.814 42.9102 437.234 43.3202 437.234 43.8302V45.5802C437.234 46.0802 436.824 46.5002 436.314 46.5002H429.484C428.984 46.5002 428.564 46.0902 428.564 45.5802V43.8302Z" fill="#395E57"/>
<path d="M424.994 46.8195C424.994 45.4195 426.144 44.2695 427.544 44.2695H451.454C452.854 44.2695 455.144 44.4395 456.534 44.6595L471.074 46.8795C472.464 47.0895 473.594 48.4095 473.594 49.8195V63.0795C473.594 64.4795 472.454 65.8095 471.074 66.0195L456.624 68.2395C455.234 68.4495 452.954 68.6295 451.544 68.6295H427.544C426.144 68.6295 424.994 67.4795 424.994 66.0795V46.8195Z" fill="#C9DADC"/>
<path d="M456.123 46.7491C456.123 46.1391 456.623 45.6891 457.233 45.7591L468.143 47.4491C468.753 47.5191 469.253 48.0791 469.253 48.6891L469.303 64.1691C469.303 64.7791 468.813 65.3691 468.203 65.4691L457.233 67.1391C456.633 67.2391 456.133 66.8291 456.133 66.2091V46.7491H456.123Z" fill="#395E57"/>
<path d="M241.364 88.4095C240.574 89.6195 241.114 90.6195 242.564 90.6295L332.434 91.1395C333.884 91.1495 335.724 90.1695 336.534 88.9695L342.494 80.1195C343.304 78.9195 344.594 76.9395 345.364 75.7095L352.364 64.5695C353.134 63.3495 353.734 61.1595 353.694 59.7195L353.304 44.3895C353.264 42.9395 352.324 40.9995 351.214 40.0795L347.354 36.8595C346.244 35.9295 344.154 35.1695 342.704 35.1595L285.014 34.7095C283.564 34.6995 281.204 34.6895 279.754 34.6895H278.784C277.334 34.6895 275.514 35.6795 274.724 36.8995L241.364 88.4095Z" fill="#777776"/>
<path d="M353.815 42.8196C353.815 41.3696 352.805 39.5696 351.575 38.8096L346.885 35.8996C345.655 35.1396 343.465 34.5196 342.025 34.5196H341.985L341.035 30.0996H337.915L338.865 34.5296L277.765 34.5996C276.315 34.5996 275.135 35.7896 275.135 37.2296L275.165 66.1196C275.165 67.5696 276.355 68.7496 277.795 68.7496L338.835 68.6796L337.905 73.0196H341.025L341.955 68.6796H342.055C343.505 68.6796 345.695 68.0696 346.945 67.3296L351.575 64.5696C352.815 63.8296 353.835 62.0396 353.825 60.5896L353.815 42.8196Z" fill="#C9DADC"/>
<path d="M332.535 40.6205C332.535 39.1705 333.715 37.9905 335.165 37.9905L342.275 37.9805C343.725 37.9805 344.905 39.1605 344.905 40.6105L344.935 62.3205C344.935 63.7705 343.755 64.9505 342.305 64.9505L335.195 64.9605C333.745 64.9605 332.565 63.7805 332.565 62.3305L332.535 40.6205Z" fill="#395E57"/>
<path d="M521.364 96.0088C520.574 97.2188 521.114 98.2188 522.564 98.2288L612.434 98.7388C613.884 98.7488 615.724 97.7688 616.534 96.5688L622.494 87.7188C623.304 86.5188 624.594 84.5388 625.364 83.3088L632.364 72.1688C633.134 70.9488 633.734 68.7588 633.694 67.3188L633.284 51.9988C633.244 50.5488 632.304 48.6088 631.194 47.6888L627.334 44.4688C626.224 43.5388 624.134 42.7788 622.684 42.7688L564.994 42.3188C563.544 42.3088 561.184 42.2988 559.734 42.2988H558.764C557.314 42.2988 555.494 43.2888 554.704 44.5088L521.364 96.0088Z" fill="#777776"/>
<path d="M633.805 50.4309C633.805 48.9809 632.795 47.1809 631.565 46.4209L626.875 43.5109C625.645 42.7509 623.455 42.1309 622.015 42.1309H621.975L621.025 37.7109H617.905L618.855 42.1409L557.755 42.2109C556.305 42.2109 555.125 43.4009 555.125 44.8409L555.155 73.7309C555.155 75.1809 556.345 76.3609 557.785 76.3609L618.825 76.2909L617.895 80.6309H621.015L621.945 76.2909H622.045C623.495 76.2909 625.695 75.6809 626.935 74.9409L631.565 72.1809C632.805 71.4409 633.825 69.6509 633.815 68.2009L633.805 50.4309Z" fill="#C9DADC"/>
<path d="M612.523 48.2201C612.523 46.7701 613.703 45.5901 615.153 45.5901L622.263 45.5801C623.713 45.5801 624.893 46.7601 624.893 48.2101L624.923 69.9201C624.923 71.3701 623.743 72.5501 622.293 72.5501L615.183 72.5601C613.733 72.5601 612.553 71.3801 612.553 69.9301L612.523 48.2201Z" fill="#395E57"/>
<path d="M165.366 43.3195C163.936 43.1095 161.586 42.9395 160.146 42.9395H156.636C155.196 42.9395 153.696 44.0795 153.316 45.4695L148.626 62.6495C148.246 64.0395 146.846 64.7095 145.526 64.1395L99.0861 44.0995C97.7561 43.5295 95.4961 43.0595 94.0461 43.0595H88.5961C87.1561 43.0595 85.3261 44.0495 84.5361 45.2595L42.3661 109.6C41.5761 110.81 42.1061 111.8 43.5561 111.8H133.746C135.186 111.8 137.026 110.82 137.836 109.62L145.126 98.7795C145.936 97.5795 147.776 96.5995 149.216 96.5995H173.086C174.526 96.5995 176.696 95.9495 177.906 95.1595L185.556 90.1295C186.766 89.3395 188.356 87.6695 189.096 86.4395L196.326 74.3795C197.066 73.1395 197.646 70.9495 197.606 69.4995L197.136 50.6295C197.096 49.1895 195.906 47.8295 194.476 47.6195L165.366 43.3195Z" fill="#777776"/>
<path d="M88.3359 78.5791C87.1059 78.5791 86.0959 77.5791 86.0959 76.3391L86.0659 45.1791C86.0659 43.9491 87.0659 42.9391 88.3059 42.9391L156.146 42.8691C157.376 42.8691 158.386 43.8691 158.386 45.1091V76.2691C158.386 77.4991 157.376 78.5091 156.146 78.5091L88.3359 78.5791Z" fill="#C9DADC"/>
<path d="M197.597 49.9495C197.597 48.7195 196.737 47.1795 195.697 46.5295L191.697 44.0495C190.647 43.3995 188.787 42.8695 187.557 42.8795L184.667 42.8895L183.757 38.6895H181.097L182.007 42.8995L161.967 42.9495C160.737 42.9495 159.727 43.9595 159.727 45.1895L159.757 76.3495C159.757 77.5795 160.767 78.5895 161.997 78.5795L181.927 78.5295L181.137 82.2095H183.797L184.587 78.5195L187.587 78.5095C188.817 78.5095 190.687 77.9895 191.747 77.3595L195.687 75.0095C196.747 74.3795 197.607 72.8595 197.607 71.6295L197.597 49.9495Z" fill="#C9DADC"/>
<path d="M175.957 48.5191C175.957 46.9291 177.257 45.6291 178.837 45.6291L186.647 45.6191C188.237 45.6191 189.537 46.9191 189.537 48.4991L189.567 72.3291C189.567 73.9191 188.267 75.2191 186.687 75.2191L178.877 75.2291C177.287 75.2291 175.987 73.9291 175.987 72.3491L175.957 48.5191Z" fill="#395E57"/>
</svg>
