<svg width="257" height="258" viewBox="0 0 257 258" fill="none" xmlns="http://www.w3.org/2000/svg">
<g clip-path="url(#clip0_380:614)">
<path d="M79.409 56.6642L83.2604 58.066C83.3568 58.106 83.4601 58.1262 83.5644 58.1255C83.6687 58.1248 83.7718 58.1033 83.8676 58.0621C83.9616 58.0201 84.0459 57.9592 84.1152 57.8832C84.1846 57.8072 84.2375 57.7177 84.2707 57.6203L86.5514 51.3542L89.9596 52.5947C91.9664 53.4602 94.2037 53.6353 96.3208 53.0926C97.2404 52.7705 98.0697 52.2333 98.7397 51.5258C99.4096 50.8183 99.9008 49.9609 100.172 49.0251C100.571 48.1187 100.749 47.1311 100.694 46.1427C100.639 45.1542 100.351 44.1927 99.8544 43.3363C98.6314 41.5135 96.8129 40.1725 94.7101 39.5427L86.7017 36.6279C86.5143 36.5607 86.3086 36.5661 86.125 36.643C86.0287 36.6812 85.9424 36.7409 85.8725 36.8174C85.8027 36.894 85.7512 36.9854 85.7219 37.0847L78.9521 55.6845C78.8872 55.8752 78.8984 56.0837 78.9836 56.2663C79.0687 56.4489 79.2212 56.5914 79.409 56.6642ZM89.7584 42.2578L93.1207 43.4816C93.4954 43.5883 93.8449 43.7692 94.1484 44.0134C94.452 44.2577 94.7033 44.5604 94.8878 44.9036C95.0326 45.2541 95.1052 45.6302 95.101 46.0094C95.0968 46.3886 95.016 46.763 94.8635 47.1102C94.7596 47.4702 94.5796 47.8037 94.3357 48.0881C94.0919 48.3726 93.7897 48.6014 93.4498 48.7591C92.7312 49.0108 91.9443 48.9839 91.2447 48.6835L87.8212 47.4374L89.7584 42.2578Z" fill="#FFFF00"/>
<path d="M98.2686 63.5286L101.952 64.8692C102.048 64.9091 102.152 64.9294 102.256 64.9287C102.36 64.928 102.463 64.9064 102.559 64.8653C102.653 64.8233 102.737 64.7624 102.807 64.6864C102.876 64.6104 102.929 64.5209 102.962 64.4235L105.271 58.0809L108.19 59.1434L109.169 66.6305C109.173 66.8959 109.261 67.1532 109.419 67.3661C109.578 67.579 109.799 67.7369 110.052 67.8174L113.858 69.2025C114.02 69.2572 114.197 69.2473 114.352 69.1749C114.429 69.1432 114.498 69.0962 114.555 69.0367C114.612 68.9772 114.657 68.9065 114.686 68.829C114.721 68.7144 114.73 68.5932 114.711 68.4747L113.357 60.0203C114.576 59.9427 115.748 59.5236 116.74 58.811C117.762 58.0349 118.525 56.9667 118.928 55.7477C119.31 54.8545 119.477 53.8839 119.415 52.9142C119.353 51.9446 119.064 51.0031 118.571 50.1659C117.328 48.3155 115.478 46.9568 113.34 46.3236L105.561 43.4923C105.374 43.4251 105.168 43.4305 104.985 43.5074C104.891 43.5493 104.806 43.6102 104.737 43.6862C104.668 43.7622 104.615 43.8517 104.581 43.9491L97.8117 62.5489C97.7766 62.6428 97.7612 62.743 97.7664 62.8431C97.7716 62.9433 97.7974 63.0413 97.8421 63.1311C97.8794 63.2247 97.9371 63.3089 98.0108 63.3776C98.0845 63.4464 98.1726 63.4979 98.2686 63.5286ZM108.542 49.0943L111.827 50.2903C112.203 50.392 112.554 50.5692 112.859 50.8111C113.163 51.0529 113.416 51.3544 113.6 51.6971C113.744 52.0216 113.82 52.3725 113.822 52.7277C113.823 53.0828 113.752 53.4345 113.611 53.7605C113.507 54.0959 113.334 54.406 113.104 54.6708C112.873 54.9356 112.59 55.1494 112.272 55.2984C111.544 55.563 110.741 55.5318 110.036 55.2115L106.75 54.0156L108.542 49.0943Z" fill="#FFFF00"/>
<path d="M118.641 70.9436L122.477 72.3398C122.672 72.4187 122.891 72.4173 123.085 72.3359C123.178 72.2939 123.263 72.233 123.332 72.157C123.402 72.081 123.454 71.9915 123.488 71.8941L130.257 53.2944C130.295 53.1984 130.312 53.0958 130.307 52.993C130.303 52.8902 130.278 52.7894 130.233 52.6969C130.13 52.5149 129.966 52.3754 129.77 52.3035L125.934 50.9073C125.746 50.8459 125.542 50.8513 125.357 50.9224C125.263 50.9643 125.179 51.0252 125.11 51.1012C125.04 51.1772 124.987 51.2667 124.954 51.3641L118.184 69.9639C118.149 70.0578 118.134 70.158 118.139 70.2582C118.144 70.3583 118.17 70.4563 118.215 70.5461C118.255 70.6381 118.313 70.7208 118.387 70.7892C118.46 70.8576 118.547 70.9101 118.641 70.9436Z" fill="#FFFF00"/>
<path d="M130.333 73.2954C131.737 75.2612 133.704 76.7557 135.973 77.5818C138.243 78.408 140.71 78.5272 143.049 77.9236C144.117 77.4775 145.078 76.8085 145.867 75.9615C146.656 75.1144 147.255 74.1086 147.624 73.0115C148.03 71.8958 148.33 71.0705 148.519 70.5509C148.708 70.0312 149.025 69.1601 149.426 68.0597C149.852 66.9748 150.039 65.8111 149.976 64.6474C149.913 63.4837 149.6 62.3471 149.06 61.3147C147.699 59.322 145.748 57.8062 143.48 56.9809C141.213 56.1556 138.744 56.0624 136.42 56.7144C135.344 57.1607 134.374 57.8306 133.575 58.6798C132.777 59.529 132.168 60.5382 131.789 61.6404C131.589 62.1906 131.288 63.0159 130.882 64.1316C130.476 65.2473 130.193 66.0267 129.987 66.5922C129.564 67.6698 129.376 68.8252 129.436 69.9812C129.496 71.1372 129.802 72.2671 130.333 73.2954ZM137.101 63.6429C137.442 62.5711 138.178 61.6695 139.161 61.1215C139.603 60.9221 140.081 60.8151 140.566 60.8071C141.051 60.7991 141.533 60.8903 141.981 61.0751C142.446 61.2233 142.875 61.464 143.244 61.7826C143.613 62.1013 143.914 62.4914 144.128 62.9293C144.528 63.9805 144.513 65.1447 144.085 66.185C143.696 67.2549 143.412 68.0343 143.228 68.5386C143.045 69.043 142.778 69.7766 142.377 70.877C142.03 71.948 141.3 72.8533 140.327 73.4192C139.879 73.6171 139.396 73.7209 138.906 73.7243C138.417 73.7277 137.932 73.6307 137.481 73.4392C137.015 73.2987 136.582 73.0626 136.212 72.746C135.841 72.4295 135.541 72.0393 135.329 71.6003C134.948 70.5411 134.97 69.3783 135.393 68.3348C135.593 67.7846 135.877 67.0052 136.244 65.9965C136.611 64.9878 136.825 64.1138 137.034 63.6359L137.101 63.6429Z" fill="#FFFF00"/>
<path d="M149.101 82.03L152.784 83.3706C152.88 83.4105 152.984 83.4308 153.088 83.4301C153.192 83.4294 153.295 83.4079 153.391 83.3667C153.485 83.3247 153.57 83.2638 153.639 83.1878C153.708 83.1118 153.761 83.0223 153.794 82.9249L156.103 76.5823L159.022 77.6448L160.001 85.1319C160.005 85.4002 160.095 85.6601 160.256 85.8744C160.418 86.0887 160.643 86.2462 160.899 86.3244L164.705 87.7095C164.863 87.7587 165.034 87.7472 165.185 87.6771C165.335 87.607 165.454 87.4834 165.518 87.3304C165.553 87.2158 165.562 87.0946 165.543 86.9761L164.189 78.5217C165.408 78.4441 166.58 78.025 167.572 77.3124C168.594 76.5363 169.357 75.4681 169.76 74.2491C170.142 73.3559 170.309 72.3853 170.247 71.4156C170.185 70.446 169.896 69.5046 169.403 68.6673C168.162 66.815 166.311 65.4557 164.173 64.825L156.393 61.9936C156.206 61.9265 156 61.9319 155.817 62.0088C155.723 62.0507 155.638 62.1116 155.569 62.1876C155.5 62.2636 155.447 62.3531 155.414 62.4505L148.644 81.0502C148.609 81.1442 148.593 81.2444 148.599 81.3446C148.604 81.4447 148.63 81.5427 148.674 81.6325C148.712 81.7261 148.769 81.8103 148.843 81.879C148.917 81.9478 149.005 81.9993 149.101 82.03ZM159.374 67.5957L162.675 68.7973C163.049 68.9015 163.399 69.0798 163.703 69.3214C164.008 69.563 164.261 69.8631 164.448 70.204C164.588 70.5296 164.661 70.8801 164.663 71.2347C164.665 71.5892 164.595 71.9405 164.458 72.2675C164.354 72.6029 164.182 72.913 163.951 73.1778C163.721 73.4426 163.437 73.6563 163.119 73.8053C162.39 74.0632 161.59 74.0321 160.884 73.7185L157.583 72.5169L159.374 67.5957Z" fill="#FFFF00"/>
<path d="M168.969 89.2615L172.805 90.6577C172.9 90.6955 173 90.7142 173.102 90.7126C173.204 90.7109 173.304 90.6891 173.397 90.6482C173.493 90.6099 173.58 90.5503 173.65 90.4738C173.719 90.3972 173.771 90.3058 173.8 90.2064L180.57 71.6067C180.611 71.5117 180.631 71.4086 180.626 71.305C180.622 71.2015 180.594 71.1003 180.545 71.0091C180.449 70.8293 180.29 70.6912 180.098 70.6213L176.262 69.2251C176.074 69.1579 175.869 69.1634 175.685 69.2402C175.591 69.2822 175.507 69.343 175.437 69.419C175.368 69.4951 175.315 69.5846 175.282 69.682L168.512 88.2817C168.477 88.3757 168.462 88.4759 168.467 88.576C168.472 88.6762 168.498 88.7742 168.543 88.864C168.58 88.9576 168.638 89.0418 168.711 89.1105C168.785 89.1792 168.873 89.2308 168.969 89.2615Z" fill="#FFFF00"/>
<path d="M182.757 76.6777L187.846 78.5301L182.451 93.3548C182.415 93.4488 182.4 93.549 182.405 93.6491C182.41 93.7493 182.436 93.8473 182.481 93.9371C182.518 94.0307 182.576 94.1149 182.65 94.1836C182.723 94.2523 182.811 94.3039 182.907 94.3346L186.682 95.7085C186.777 95.75 186.88 95.7693 186.984 95.765C187.088 95.7607 187.189 95.7329 187.28 95.6837C187.457 95.5925 187.593 95.4384 187.662 95.2517L193.058 80.4269L198.147 82.2793C198.241 82.319 198.342 82.3387 198.444 82.337C198.546 82.3354 198.647 82.3125 198.739 82.2697C198.83 82.229 198.911 82.1695 198.977 82.095C199.043 82.0205 199.092 81.9328 199.121 81.8377L200.234 78.7811C200.274 78.6872 200.293 78.586 200.292 78.4841C200.29 78.3821 200.267 78.2816 200.224 78.1891C200.131 78.0072 199.97 77.8683 199.777 77.8013L184.387 72.1997C184.199 72.1326 183.994 72.1379 183.81 72.2148C183.714 72.253 183.628 72.3127 183.558 72.3892C183.488 72.4657 183.436 72.5572 183.407 72.6566L182.295 75.7132C182.258 75.8045 182.243 75.9027 182.249 76.0007C182.255 76.0987 182.283 76.1941 182.331 76.2801C182.368 76.3738 182.425 76.458 182.499 76.5267C182.573 76.5954 182.661 76.647 182.757 76.6777Z" fill="#FFFF00"/>
<path d="M203.898 94.2032L201.673 100.317C201.608 100.507 201.619 100.716 201.704 100.898C201.789 101.081 201.942 101.224 202.13 101.296L205.843 102.648C206.038 102.727 206.257 102.725 206.451 102.644C206.545 102.602 206.629 102.541 206.698 102.465C206.768 102.389 206.821 102.3 206.854 102.202L209.079 96.089L220.162 86.2765C220.219 86.183 220.257 86.0791 220.273 85.9709C220.325 85.8112 220.321 85.6385 220.261 85.4817C220.227 85.4033 220.178 85.3328 220.116 85.2744C220.053 85.216 219.98 85.1711 219.9 85.1426L216.323 83.8409C216.116 83.7586 215.89 83.7378 215.672 83.7812C215.453 83.8245 215.252 83.93 215.092 84.0851L208.279 89.9651L206.87 81.0924C206.837 80.8772 206.748 80.6743 206.613 80.5037C206.478 80.3331 206.301 80.2007 206.099 80.1195L202.523 78.8178C202.44 78.787 202.353 78.773 202.265 78.7768C202.178 78.7806 202.092 78.802 202.013 78.8399C201.857 78.9123 201.736 79.0416 201.673 79.2011C201.646 79.31 201.634 79.4224 201.639 79.5346L203.898 94.2032Z" fill="#FFFF00"/>
<path d="M58.0174 159.043C56.6799 156.929 54.6196 155.374 52.2202 154.666L44.7772 151.957C44.6851 151.925 44.5875 151.911 44.4901 151.918C44.3927 151.924 44.2976 151.949 44.2102 151.993C44.1154 152.028 44.0301 152.085 43.961 152.159C43.892 152.233 43.8412 152.322 43.8127 152.419L37.0429 171.019C37.0047 171.112 36.9877 171.213 36.9929 171.314C36.9982 171.414 37.0256 171.513 37.0734 171.601C37.1123 171.691 37.1688 171.772 37.2394 171.839C37.31 171.906 37.3933 171.959 37.4845 171.993L45.1262 174.775C47.355 175.773 49.8681 175.939 52.2085 175.241C53.2727 174.761 54.224 174.063 55.0005 173.192C55.7769 172.32 56.361 171.295 56.7149 170.183C56.9096 169.648 57.171 168.93 57.5048 168.013C57.8386 167.096 58.1056 166.362 58.3058 165.812C58.7471 164.729 58.9498 163.564 58.9 162.396C58.8502 161.228 58.5492 160.085 58.0174 159.043ZM51.5325 168.158C51.2093 169.221 50.4976 170.124 49.5392 170.687C49.0403 170.879 48.5075 170.969 47.9729 170.95C47.4384 170.931 46.9133 170.804 46.4294 170.576L43.3728 169.463L47.6616 157.68L50.5196 158.72C51.0602 158.834 51.5677 159.071 52.0031 159.411C52.4386 159.751 52.7905 160.186 53.0321 160.683C53.2736 161.18 53.3984 161.726 53.3969 162.279C53.3954 162.831 53.2676 163.376 53.0234 163.872C52.8287 164.407 52.5672 165.125 52.2502 165.996C51.9331 166.867 51.7634 167.619 51.5325 168.158Z" fill="#FFFF00"/>
<path d="M72.3041 179.993L62.9507 176.589L64.397 172.615L72.8945 175.708C72.9872 175.749 73.0881 175.767 73.1892 175.762C73.2903 175.757 73.3887 175.728 73.4767 175.678C73.5687 175.638 73.6514 175.579 73.7198 175.506C73.7882 175.433 73.8408 175.346 73.8743 175.251L74.7754 172.775C74.8138 172.677 74.8318 172.572 74.8285 172.467C74.8251 172.362 74.8005 172.258 74.7561 172.163C74.7169 172.07 74.6587 171.987 74.5852 171.919C74.5118 171.85 74.4247 171.798 74.3297 171.765L65.8322 168.672L67.2395 164.806L76.4095 168.143C76.5055 168.18 76.6081 168.197 76.7109 168.193C76.8137 168.189 76.9145 168.163 77.007 168.118C77.1839 168.027 77.3203 167.873 77.3893 167.686L78.3683 164.997C78.4388 164.81 78.4333 164.603 78.3532 164.42C78.3112 164.326 78.2503 164.242 78.1743 164.172C78.0983 164.103 78.0088 164.05 77.9114 164.017L64.4774 159.127C64.3835 159.092 64.2833 159.077 64.1832 159.082C64.083 159.087 63.985 159.113 63.8952 159.158C63.8003 159.193 63.715 159.25 63.646 159.324C63.577 159.398 63.5262 159.487 63.4977 159.584L56.7279 178.184C56.6897 178.277 56.6726 178.378 56.6778 178.478C56.6831 178.579 56.7106 178.677 56.7583 178.766C56.7984 178.858 56.8569 178.941 56.9303 179.009C57.0036 179.077 57.0902 179.13 57.1848 179.164L70.7716 184.109C70.8676 184.146 70.9701 184.163 71.0729 184.159C71.1757 184.154 71.2766 184.129 71.3691 184.084C71.546 183.993 71.6823 183.839 71.7513 183.652L72.7248 180.977C72.7953 180.791 72.7899 180.584 72.7097 180.401C72.6723 180.309 72.6172 180.226 72.5476 180.157C72.478 180.087 72.3952 180.031 72.3041 179.993Z" fill="#FFFF00"/>
<path d="M89.7382 186.114L81.0726 182.96L86.5296 167.967C86.5682 167.875 86.5868 167.776 86.5842 167.677C86.5816 167.578 86.5578 167.48 86.5144 167.39C86.4725 167.296 86.4116 167.212 86.3356 167.143C86.2596 167.073 86.1701 167.02 86.0727 166.987L82.2977 165.613C82.1068 165.549 81.8987 165.56 81.7155 165.644C81.623 165.683 81.5398 165.741 81.4713 165.815C81.4029 165.888 81.3506 165.975 81.318 166.07L74.5482 184.67C74.5131 184.764 74.4977 184.864 74.5029 184.964C74.5081 185.064 74.5339 185.162 74.5786 185.252C74.6654 185.434 74.8178 185.576 75.0051 185.65L88.1639 190.439C88.2599 190.476 88.3625 190.493 88.4653 190.489C88.5681 190.485 88.6689 190.459 88.7615 190.414C88.8517 190.373 88.9322 190.313 88.998 190.238C89.0639 190.164 89.1135 190.077 89.1437 189.982L90.1839 187.124C90.2628 186.929 90.2613 186.711 90.1799 186.517C90.138 186.423 90.0771 186.339 90.0011 186.269C89.9251 186.2 89.8356 186.147 89.7382 186.114Z" fill="#FFFF00"/>
<path d="M102.793 173.073L98.9565 171.677C98.8626 171.641 98.7624 171.626 98.6623 171.631C98.5621 171.636 98.4641 171.662 98.3743 171.707C98.2818 171.746 98.1986 171.804 98.1301 171.878C98.0616 171.951 98.0094 172.038 97.9768 172.133L91.207 190.733C91.142 190.924 91.1533 191.132 91.2384 191.315C91.3236 191.497 91.476 191.64 91.6639 191.713L95.5 193.109C95.5943 193.147 95.6952 193.166 95.7969 193.164C95.8985 193.162 95.9988 193.14 96.0919 193.1C96.1882 193.061 96.2746 193.002 96.3444 192.925C96.4142 192.849 96.4657 192.757 96.495 192.658L103.265 174.058C103.305 173.965 103.324 173.864 103.318 173.763C103.313 173.662 103.284 173.564 103.234 173.476C103.191 173.383 103.129 173.3 103.054 173.23C102.978 173.161 102.889 173.108 102.793 173.073Z" fill="#FFFF00"/>
<path d="M123.501 180.61L119.925 179.309C119.683 179.213 119.415 179.208 119.169 179.293C118.956 179.37 118.768 179.506 118.629 179.685L109.828 191.453L110.574 176.753C110.582 176.526 110.526 176.302 110.412 176.106C110.278 175.882 110.07 175.714 109.823 175.632L106.262 174.335C106.092 174.282 105.907 174.295 105.746 174.373C105.67 174.405 105.601 174.452 105.544 174.511C105.486 174.571 105.442 174.641 105.413 174.719L105.318 174.979L104.481 195.443C104.448 195.726 104.517 196.01 104.676 196.246C104.834 196.482 105.072 196.653 105.346 196.728L109.718 198.319C109.976 198.437 110.268 198.459 110.541 198.381C110.814 198.302 111.05 198.129 111.206 197.891L123.719 181.676L123.814 181.416C123.842 181.337 123.852 181.252 123.844 181.168C123.836 181.084 123.809 181.003 123.765 180.931C123.716 180.798 123.623 180.685 123.501 180.61Z" fill="#FFFF00"/>
<path d="M134.507 202.633L125.154 199.229L126.6 195.255L135.097 198.348C135.192 198.39 135.296 198.409 135.399 198.405C135.503 198.4 135.604 198.373 135.695 198.323C135.785 198.282 135.866 198.222 135.932 198.148C135.997 198.073 136.047 197.986 136.077 197.891L136.978 195.416C137.018 195.319 137.038 195.216 137.038 195.112C137.037 195.007 137.016 194.904 136.974 194.808C136.932 194.714 136.872 194.63 136.796 194.561C136.72 194.491 136.63 194.438 136.533 194.405L128.035 191.312L129.442 187.446L138.612 190.783C138.708 190.82 138.811 190.837 138.914 190.833C139.017 190.829 139.117 190.804 139.21 190.759C139.3 190.717 139.381 190.657 139.447 190.583C139.512 190.508 139.562 190.421 139.592 190.326L140.571 187.637C140.61 187.545 140.628 187.446 140.626 187.347C140.623 187.247 140.599 187.149 140.556 187.06C140.514 186.966 140.453 186.882 140.377 186.812C140.301 186.743 140.212 186.69 140.114 186.657L126.757 181.795C126.566 181.731 126.358 181.742 126.175 181.825C126.082 181.865 125.999 181.923 125.93 181.996C125.862 182.07 125.81 182.157 125.777 182.252L119.007 200.852C118.972 200.946 118.957 201.046 118.962 201.146C118.967 201.246 118.993 201.344 119.038 201.434C119.125 201.616 119.277 201.758 119.464 201.831L133.051 206.777C133.147 206.814 133.249 206.831 133.352 206.827C133.455 206.822 133.556 206.797 133.648 206.752C133.739 206.71 133.819 206.65 133.885 206.576C133.951 206.502 134 206.414 134.031 206.32L135.004 203.645C135.043 203.554 135.061 203.455 135.059 203.355C135.056 203.256 135.032 203.158 134.989 203.069C134.947 202.964 134.881 202.871 134.798 202.796C134.714 202.721 134.615 202.665 134.507 202.633Z" fill="#FFFF00"/>
<path d="M152.079 204.667C153.302 204.594 154.48 204.177 155.476 203.464C156.499 202.687 157.262 201.619 157.664 200.4C158.047 199.507 158.214 198.537 158.152 197.567C158.09 196.597 157.8 195.656 157.308 194.818C156.059 192.973 154.211 191.616 152.077 190.976L144.298 188.145C144.204 188.11 144.104 188.094 144.004 188.1C143.903 188.105 143.805 188.131 143.716 188.175C143.623 188.214 143.54 188.273 143.471 188.346C143.403 188.42 143.351 188.507 143.318 188.602L136.548 207.202C136.483 207.392 136.495 207.601 136.58 207.783C136.665 207.966 136.817 208.108 137.005 208.181L140.688 209.522C140.785 209.562 140.888 209.582 140.992 209.581C141.097 209.581 141.2 209.559 141.296 209.518C141.39 209.476 141.474 209.415 141.543 209.339C141.613 209.263 141.666 209.174 141.699 209.076L143.996 202.764L146.869 203.81L147.833 211.291C147.84 211.559 147.93 211.818 148.091 212.032C148.252 212.245 148.476 212.404 148.732 212.484L152.537 213.869C152.696 213.918 152.867 213.907 153.017 213.837C153.167 213.767 153.286 213.643 153.35 213.49C153.391 213.379 153.405 213.259 153.391 213.141L152.079 204.667ZM151.009 199.951C150.28 200.212 149.479 200.181 148.773 199.864L145.487 198.668L147.278 193.747L150.564 194.943C150.94 195.045 151.29 195.222 151.595 195.464C151.9 195.706 152.152 196.007 152.337 196.35C152.481 196.674 152.556 197.025 152.558 197.38C152.56 197.735 152.488 198.087 152.347 198.413C152.249 198.757 152.077 199.075 151.844 199.345C151.611 199.616 151.322 199.833 150.997 199.982L151.009 199.951Z" fill="#FFFF00"/>
<path d="M177.94 200.424L174.364 199.123C174.157 199.044 173.931 199.026 173.714 199.069C173.496 199.112 173.295 199.215 173.133 199.367L166.32 205.247L164.926 196.38C164.884 196.165 164.79 195.964 164.653 195.794C164.516 195.623 164.34 195.489 164.14 195.401L160.563 194.1C160.479 194.071 160.39 194.06 160.302 194.066C160.213 194.073 160.127 194.097 160.048 194.137C159.971 194.169 159.902 194.216 159.845 194.275C159.788 194.335 159.743 194.405 159.714 194.483C159.696 194.595 159.689 194.709 159.695 194.822L161.877 209.463L159.652 215.576C159.587 215.767 159.599 215.975 159.684 216.158C159.769 216.34 159.921 216.483 160.109 216.556L163.823 217.908C164.018 217.986 164.236 217.985 164.43 217.904C164.524 217.862 164.609 217.801 164.678 217.725C164.747 217.649 164.8 217.559 164.833 217.462L167.059 211.348L178.142 201.536C178.198 201.443 178.236 201.339 178.253 201.23C178.307 201.076 178.3 200.907 178.235 200.757C178.18 200.614 178.075 200.496 177.94 200.424Z" fill="#FFFF00"/>
<path d="M81.8583 152.317C96.8971 157.79 109.802 152.864 118.213 146.683C128.588 139.053 141.589 129.489 149.608 123.338C153.519 120.47 158.279 118.999 163.126 119.162C167.972 119.324 172.624 121.11 176.333 124.234C180.043 127.357 182.596 131.636 183.581 136.384C184.567 141.132 183.929 146.074 181.769 150.416C179.609 154.757 176.053 158.247 171.671 160.326C167.29 162.404 162.337 162.949 157.608 161.875C152.879 160.8 148.649 158.168 145.596 154.4C142.543 150.633 140.844 145.948 140.773 141.1L125.758 152.25C127.55 157.854 130.59 162.977 134.65 167.234C138.71 171.491 143.684 174.771 149.197 176.826C153.955 178.669 159.033 179.545 164.133 179.401C169.234 179.257 174.255 178.097 178.902 175.988C183.548 173.879 187.727 170.864 191.194 167.12C194.661 163.376 197.345 158.977 199.091 154.182C200.836 149.387 201.607 144.292 201.358 139.195C201.109 134.099 199.846 129.103 197.642 124.501C195.437 119.898 192.337 115.782 188.522 112.394C184.707 109.005 180.254 106.411 175.424 104.765C162.281 99.9812 149.207 102.613 138.394 110.828C128.396 118.421 119.737 124.807 111.649 130.811C104.707 135.952 97.5526 140.202 87.5879 136.575C83.894 135.232 80.6375 132.904 78.1702 129.845C75.7029 126.785 74.1187 123.109 73.5888 119.215C73.0588 115.32 73.6033 111.355 75.1634 107.747C76.7235 104.14 79.2398 101.027 82.4404 98.7454C85.6411 96.4641 89.4044 95.1008 93.3236 94.8029C97.2428 94.505 101.169 95.2838 104.678 97.0552C108.186 98.8266 111.144 101.523 113.232 104.854C115.319 108.184 116.457 112.022 116.521 115.952L131.494 104.82C129.546 98.5955 126.041 92.971 121.312 88.4788C116.583 83.9866 110.786 80.7753 104.469 79.1488C98.1529 77.5224 91.5259 77.5345 85.2154 79.184C78.9049 80.8336 73.1196 84.066 68.4071 88.5755C63.6945 93.0849 60.2105 98.7223 58.2847 104.954C56.3589 111.186 56.055 117.806 57.4018 124.188C58.7486 130.57 61.7015 136.503 65.9811 141.425C70.2607 146.347 75.7255 150.096 81.8583 152.317Z" fill="#FFFF00"/>
<path d="M255.453 71.9142L255.456 71.621L251.829 71.4087L255.462 71.6057L255.477 70.6594L255.42 70.4829C255.369 70.1116 255.269 69.7489 255.121 69.4046C254.866 68.7688 254.481 68.1937 253.989 67.7166C253.498 67.2396 252.912 66.8713 252.269 66.6358L73.6682 1.63052C72.7243 1.28239 71.6959 1.23454 70.7238 1.49349L70.072 1.61973L69.2924 2.0975L69.0658 2.29198C68.2567 2.87453 67.6454 3.69099 67.3143 4.63145L2.01977 184.027C1.58476 185.211 1.61718 186.516 2.11042 187.677C2.37567 188.299 2.76727 188.859 3.26036 189.321C3.75346 189.784 4.3373 190.139 4.97485 190.364L183.636 255.391C184.244 255.614 184.89 255.714 185.536 255.685C186.183 255.656 186.817 255.498 187.402 255.222C188.59 254.666 189.509 253.662 189.958 252.431L255.253 73.0355C255.365 72.6712 255.432 72.2947 255.453 71.9142ZM178.197 235.48L21.9404 178.608L79.0856 21.6026L235.342 78.4752L178.197 235.48Z" fill="#FFFF00"/>
</g>
<defs>
<clipPath id="clip0_380:614">
<rect width="200" height="200.797" fill="white" transform="translate(69) rotate(20)"/>
</clipPath>
</defs>
</svg>
