<svg width="638" height="783" viewBox="0 0 638 783" fill="none" xmlns="http://www.w3.org/2000/svg">
<path d="M282.621 527.336C290.644 478.395 257.473 432.216 208.532 424.193C159.591 416.17 113.411 449.34 105.388 498.282C97.365 547.223 130.536 593.402 179.477 601.425C228.419 609.449 274.598 576.278 282.621 527.336Z" fill="#E3CBB0"/>
<path d="M238.278 501.903C238.657 501.938 239.021 502.067 239.337 502.278C239.654 502.489 239.913 502.776 240.091 503.111C243.105 507.494 244.717 512.688 244.714 518.007C244.681 523.973 242.986 529.812 239.819 534.867C236.038 541.072 231.019 546.431 225.074 550.61C215.748 557.499 206.683 560.711 197.881 560.248C193.349 559.934 188.925 558.719 184.868 556.675C180.811 554.631 177.202 551.799 174.252 548.343L167.122 553.571C166.785 553.837 166.395 554.029 165.978 554.133C165.561 554.238 165.127 554.252 164.705 554.175C164.275 554.125 163.861 553.983 163.491 553.758C163.121 553.534 162.803 553.233 162.559 552.876L158.057 546.833C157.773 546.48 157.565 546.073 157.445 545.636C157.326 545.199 157.297 544.743 157.362 544.295C157.417 543.87 157.561 543.462 157.785 543.097C158.009 542.733 158.307 542.42 158.661 542.179L165.46 537.164L162.438 532.904L155.64 537.889C155.295 538.143 154.903 538.326 154.487 538.429C154.071 538.531 153.639 538.551 153.215 538.487C152.791 538.422 152.384 538.275 152.018 538.053C151.651 537.831 151.331 537.539 151.078 537.194L146.485 530.97C146.227 530.626 146.04 530.234 145.935 529.818C145.831 529.401 145.81 528.967 145.875 528.543C145.939 528.118 146.088 527.71 146.312 527.343C146.536 526.977 146.831 526.659 147.18 526.407L154.28 521.15C151.839 517.308 150.183 513.019 149.411 508.533C148.638 504.047 148.763 499.451 149.778 495.014C151.913 486.533 157.695 478.818 167.122 471.869C172.878 467.444 179.48 464.246 186.52 462.472C192.29 460.964 198.365 461.08 204.075 462.805C209.162 464.385 213.651 467.472 216.946 471.657L217.097 471.869C217.304 472.153 217.445 472.479 217.507 472.825C217.57 473.17 217.554 473.525 217.46 473.863C217.305 474.577 216.897 475.21 216.312 475.646L205.918 483.29C205.217 483.887 204.33 484.218 203.41 484.227C202.413 484.131 201.467 483.742 200.691 483.109C197.421 480.315 193.201 478.887 188.907 479.121C184.313 479.71 179.972 481.561 176.368 484.469C167.122 491.267 165.067 499.576 170.325 509.396L188.454 496.101C189.162 495.566 190.05 495.328 190.931 495.437C191.364 495.479 191.782 495.615 192.157 495.834C192.533 496.053 192.857 496.35 193.107 496.706L197.699 502.96C197.966 503.297 198.158 503.687 198.262 504.104C198.367 504.521 198.381 504.955 198.304 505.378C198.236 505.821 198.078 506.246 197.839 506.625C197.599 507.005 197.285 507.331 196.914 507.583L178.271 521.15L181.293 525.41L199.814 511.813C200.165 511.53 200.57 511.323 201.004 511.204C201.439 511.085 201.893 511.057 202.338 511.123C202.784 511.188 203.211 511.345 203.593 511.583C203.975 511.822 204.304 512.137 204.558 512.508L209.09 518.551C209.345 518.9 209.526 519.297 209.625 519.717C209.724 520.137 209.737 520.573 209.665 520.999C209.612 521.447 209.46 521.878 209.22 522.259C208.979 522.641 208.656 522.964 208.275 523.204L190.146 536.59C198.062 544.264 206.623 544.718 215.828 537.949C219.671 535.377 222.725 531.789 224.651 527.586C226.134 523.548 226.026 519.098 224.349 515.137C223.927 514.188 223.821 513.129 224.047 512.116C224.328 511.226 224.918 510.465 225.709 509.97L236.103 502.326C236.748 501.914 237.526 501.763 238.278 501.903Z" fill="#FFFF00"/>
<path d="M546.622 179.598C596.217 179.598 636.422 139.394 636.422 89.7992C636.422 40.2045 596.217 0 546.622 0C497.028 0 456.823 40.2045 456.823 89.7992C456.823 139.394 497.028 179.598 546.622 179.598Z" fill="#E3CBB0"/>
<path d="M603.395 74.6616L557.438 99.7402L568.799 106.962C569.179 107.177 569.512 107.468 569.777 107.816C570.042 108.164 570.233 108.562 570.34 108.986C570.424 109.414 570.42 109.855 570.326 110.282C570.233 110.708 570.052 111.11 569.796 111.464L565.717 117.869C565.508 118.243 565.223 118.569 564.879 118.824C564.535 119.079 564.141 119.258 563.723 119.35C563.297 119.461 562.852 119.479 562.419 119.4C561.985 119.322 561.575 119.15 561.215 118.897L545.624 108.956L542.995 113.095L558.586 123.006C558.967 123.221 559.299 123.512 559.564 123.86C559.829 124.208 560.02 124.606 560.127 125.03C560.205 125.459 560.197 125.898 560.103 126.323C560.01 126.749 559.833 127.151 559.583 127.508L555.534 134.064C555.069 134.793 554.334 135.307 553.49 135.494C552.646 135.681 551.762 135.526 551.032 135.062L535.441 125.121L530.909 132.252C530.691 132.636 530.391 132.967 530.031 133.223C529.671 133.479 529.259 133.653 528.824 133.732C527.936 133.88 527.025 133.674 526.286 133.158L515.953 126.601C515.583 126.38 515.265 126.082 515.02 125.728C514.775 125.373 514.609 124.971 514.532 124.547C514.426 124.132 514.408 123.699 514.481 123.278C514.554 122.856 514.716 122.454 514.956 122.099L519.488 114.969L503.897 105.058C503.165 104.587 502.645 103.85 502.446 103.003C502.263 102.15 502.426 101.259 502.9 100.526L507.069 93.9993C507.284 93.6186 507.579 93.289 507.934 93.0334C508.289 92.7778 508.695 92.6022 509.124 92.5188C509.544 92.4332 509.976 92.4319 510.396 92.5149C510.816 92.5979 511.216 92.7635 511.571 93.0022L527.162 102.943L529.791 98.8035L514.2 88.8627C513.828 88.6477 513.507 88.3559 513.257 88.0069C513.007 87.6578 512.834 87.2594 512.75 86.8383C512.643 86.417 512.628 85.9776 512.706 85.55C512.784 85.1224 512.954 84.7168 513.203 84.3607L517.282 77.9551C517.497 77.5653 517.795 77.2277 518.156 76.9665C518.516 76.7054 518.93 76.5271 519.367 76.4444C519.783 76.3548 520.214 76.3542 520.63 76.4427C521.047 76.5313 521.44 76.7069 521.784 76.958L533.145 84.1794L536.408 31.9375C536.438 31.4148 536.594 30.907 536.861 30.457C537.057 30.1358 537.316 29.8578 537.623 29.6397C537.929 29.4215 538.277 29.2679 538.644 29.1879C539.014 29.1029 539.398 29.0939 539.772 29.1614C540.146 29.2289 540.502 29.3716 540.82 29.5807L551.032 36.077C551.758 36.5542 552.341 37.2193 552.718 38.0014C553.096 38.7836 553.255 39.6535 553.178 40.5186L550.851 83.1823L588.62 63.0893C589.369 62.6422 590.225 62.4061 591.097 62.4061C591.97 62.4061 592.826 62.6422 593.575 63.0893L603.788 69.5855C604.115 69.7741 604.398 70.0309 604.617 70.3385C604.836 70.6462 604.986 70.9973 605.057 71.3682C605.143 71.7335 605.153 72.1127 605.085 72.4819C605.017 72.8511 604.874 73.2024 604.664 73.5135C604.288 73.945 603.862 74.3303 603.395 74.6616Z" fill="#FFFF00"/>
<path d="M549.399 763.679C597.854 753.105 628.562 705.253 617.988 656.799C607.415 608.344 559.563 577.636 511.109 588.21C462.654 598.783 431.946 646.635 442.519 695.089C453.093 743.544 500.945 774.252 549.399 763.679Z" fill="#E3CBB0"/>
<path d="M516.891 715.342C514.593 712.353 512.513 709.203 510.667 705.915C509.342 703.561 507.889 701.282 506.316 699.087C505.051 697.428 503.456 696.05 501.632 695.038C500.617 694.348 499.472 693.872 498.267 693.639C497.062 693.405 495.822 693.418 494.622 693.678C492.253 694.482 490.158 695.937 488.579 697.878C488.172 698.316 487.664 698.647 487.099 698.845C486.786 698.922 486.459 698.932 486.142 698.875C485.824 698.818 485.522 698.694 485.256 698.513L476.191 693.467C475.891 693.303 475.629 693.079 475.421 692.809C475.213 692.538 475.063 692.227 474.983 691.895C474.88 691.57 474.849 691.226 474.89 690.887C474.932 690.548 475.046 690.222 475.224 689.931C477.719 685.452 481.496 681.821 486.072 679.507C490.292 677.525 495.041 676.963 499.608 677.906C501.14 674.845 502.492 671.697 503.657 668.479L505.198 664.672L496.133 659.535C495.746 659.34 495.405 659.063 495.134 658.724C494.862 658.385 494.668 657.992 494.562 657.571C494.446 657.159 494.413 656.727 494.464 656.302C494.516 655.877 494.652 655.466 494.864 655.093L498.55 648.567C498.749 648.185 499.027 647.85 499.366 647.584C499.705 647.318 500.096 647.128 500.514 647.026C500.925 646.897 501.359 646.857 501.786 646.909C502.213 646.961 502.624 647.104 502.992 647.328L509.609 651.075C511.059 648.053 512.328 645.727 513.386 643.823C517.545 635.329 524.884 628.816 533.811 625.694C542.131 623.096 551.195 624.576 561.005 630.136C566.738 633.2 571.698 637.53 575.508 642.796C578.777 647.41 580.663 652.86 580.947 658.508C581.131 664.171 579.807 669.781 577.11 674.763C576.731 675.445 576.103 675.954 575.357 676.184C574.996 676.307 574.612 676.352 574.232 676.315C573.851 676.279 573.483 676.162 573.151 675.972L562.002 669.687C561.17 669.229 560.52 668.499 560.162 667.618C559.805 666.738 559.761 665.762 560.038 664.853C561.502 660.823 561.743 656.45 560.733 652.283C560.11 650.431 559.127 648.719 557.841 647.247C556.555 645.774 554.992 644.57 553.24 643.702C551.385 642.496 549.26 641.771 547.055 641.591C544.85 641.412 542.635 641.784 540.61 642.675C536.085 645.026 532.432 648.763 530.186 653.341C528.849 655.666 527.648 658.067 526.59 660.532L546.864 671.923C547.239 672.132 547.567 672.413 547.832 672.75C548.097 673.088 548.291 673.474 548.405 673.887C548.529 674.304 548.567 674.741 548.515 675.172C548.463 675.604 548.323 676.02 548.103 676.395L544.447 682.891C544.037 683.645 543.357 684.217 542.544 684.493C542.12 684.622 541.673 684.657 541.234 684.594C540.796 684.531 540.376 684.373 540.005 684.13L520.547 673.222C520.275 673.887 519.55 675.67 518.341 678.51C517.208 681.291 515.896 683.996 514.413 686.608C516.042 687.983 517.494 689.557 518.734 691.291C520.028 693.241 521.218 695.258 522.299 697.334C523.352 699.432 524.554 701.451 525.895 703.377C527.091 704.964 528.617 706.274 530.367 707.214C531.454 707.934 532.675 708.429 533.957 708.667C535.239 708.906 536.556 708.885 537.83 708.604C540.436 707.756 542.806 706.307 544.749 704.374C545.159 703.989 545.657 703.709 546.2 703.558C546.479 703.485 546.77 703.468 547.055 703.51C547.341 703.551 547.615 703.65 547.861 703.8L555.929 708.332C556.247 708.484 556.528 708.703 556.752 708.974C556.977 709.246 557.139 709.563 557.228 709.904C557.368 710.563 557.26 711.252 556.926 711.837C554.685 715.866 551.463 719.265 547.559 721.718C544.107 723.838 540.129 724.947 536.078 724.92C532.116 724.885 528.228 723.846 524.777 721.899C521.752 720.24 519.075 718.013 516.891 715.342Z" fill="#FFFF00"/>
<path d="M199.468 202.808C216.406 156.195 192.35 104.677 145.738 87.7391C99.125 70.8011 47.607 94.8572 30.669 141.47C13.731 188.083 37.7871 239.601 84.3997 256.539C131.012 273.477 182.53 249.42 199.468 202.808Z" fill="#E3CBB0"/>
<path d="M141.589 226.795C141.157 226.708 140.749 226.527 140.394 226.267C140.04 226.006 139.746 225.67 139.534 225.284L134.488 217.186C129.289 219.919 123.6 221.593 117.749 222.111C113.012 222.543 108.242 221.774 103.881 219.875C100.039 218.151 96.7455 215.401 94.3628 211.929C94.1546 211.605 94.0173 211.242 93.96 210.861C93.9028 210.481 93.9267 210.093 94.0304 209.723C94.2382 208.976 94.725 208.338 95.3901 207.94L105.663 201.535C106.342 201.049 107.155 200.785 107.99 200.779C108.871 200.864 109.725 201.132 110.498 201.565C113.17 203.724 116.52 204.87 119.955 204.798C124.63 204.585 129.147 203.044 132.978 200.356C137.394 197.971 141.048 194.39 143.523 190.023C144.334 188.431 144.709 186.653 144.608 184.869C144.507 183.085 143.934 181.36 142.949 179.87C142.372 178.874 141.597 178.005 140.672 177.319C139.747 176.633 138.692 176.144 137.57 175.882C134.712 175.362 131.774 175.465 128.959 176.184C125.454 176.909 120.529 178.33 114.123 180.384C103.689 183.889 95.2692 185.158 88.8637 184.191C85.5376 183.617 82.3849 182.297 79.6426 180.329C76.9003 178.361 74.6397 175.798 73.0309 172.83C71.1879 170.021 69.9651 166.852 69.4441 163.533C68.9231 160.214 69.1158 156.822 70.0094 153.583C72.2411 146.111 76.844 139.567 83.1228 134.941L78.1373 126.964C77.8836 126.604 77.7116 126.193 77.6333 125.76C77.555 125.327 77.5724 124.882 77.6841 124.456C77.8954 123.622 78.4275 122.905 79.1646 122.462L86.2047 118.081C86.5692 117.85 86.9759 117.694 87.4012 117.621C87.8265 117.548 88.2619 117.561 88.6824 117.658C89.1061 117.745 89.5061 117.923 89.8554 118.178C90.2047 118.433 90.495 118.761 90.7068 119.138L95.8131 127.326C100.699 125.012 106.028 123.786 111.434 123.731C115.969 123.689 120.457 124.649 124.578 126.541C127.958 128.061 130.892 130.422 133.099 133.4C133.304 133.718 133.442 134.076 133.505 134.45C133.567 134.824 133.552 135.207 133.461 135.575C133.379 135.942 133.221 136.287 132.997 136.589C132.773 136.891 132.489 137.143 132.162 137.328L121.436 144.035C120.744 144.557 119.9 144.84 119.033 144.84C118.167 144.84 117.323 144.557 116.631 144.035C115.567 142.897 114.266 142.007 112.819 141.428C111.373 140.848 109.817 140.593 108.262 140.682C104.193 140.958 100.255 142.226 96.7893 144.375C93.3237 146.524 90.4367 149.488 88.3802 153.009C87.6638 154.489 87.3508 156.131 87.4728 157.771C87.5948 159.41 88.1476 160.988 89.0751 162.346C90.2139 164.328 92.0594 165.806 94.2419 166.485C96.9163 167.1 99.6954 167.1 102.37 166.485C107.011 165.579 111.592 164.388 116.087 162.92C122.369 160.59 128.883 158.939 135.516 157.995C140.078 157.319 144.738 157.905 148.992 159.687C153.135 161.783 156.571 165.051 158.872 169.084C160.889 172.083 162.207 175.497 162.73 179.074C163.253 182.651 162.967 186.299 161.893 189.751C159.173 197.722 154.002 204.628 147.118 209.481L152.074 217.428C152.304 217.792 152.461 218.199 152.533 218.624C152.606 219.05 152.593 219.485 152.497 219.905C152.402 220.323 152.225 220.717 151.976 221.064C151.727 221.412 151.411 221.706 151.046 221.93L144.006 226.311C143.29 226.77 142.427 226.943 141.589 226.795Z" fill="#FFFF00"/>
<path d="M431.56 446.717C476.903 426.624 497.371 373.579 477.278 328.236C457.185 282.894 404.14 262.426 358.798 282.519C313.455 302.612 292.987 355.657 313.08 400.999C333.173 446.341 386.218 466.81 431.56 446.717Z" fill="#E3CBB0"/>
<path d="M392.101 408.901C391.925 408.626 391.811 408.315 391.77 407.991C391.728 407.667 391.758 407.338 391.859 407.027L408.145 343.062C408.211 342.744 408.345 342.444 408.538 342.184C408.731 341.923 408.979 341.707 409.263 341.551C409.808 341.255 410.447 341.179 411.046 341.34L418.69 343.274C419.321 343.414 419.873 343.793 420.231 344.331C420.384 344.616 420.478 344.928 420.509 345.25C420.54 345.571 420.508 345.896 420.413 346.204L419.446 350.072C421.845 348.165 424.674 346.873 427.686 346.31C430.698 345.746 433.803 345.928 436.729 346.839C439.569 347.379 442.25 348.557 444.569 350.285C446.887 352.012 448.783 354.243 450.114 356.81C452.609 362.47 453.099 368.812 451.504 374.788C451.504 375.573 451.111 376.722 450.749 378.202C450.386 379.683 450.023 380.891 449.752 381.647C448.288 387.595 444.847 392.868 439.992 396.603C437.594 398.243 434.853 399.314 431.978 399.733C429.103 400.152 426.17 399.908 423.404 399.02C420.513 398.459 417.805 397.196 415.519 395.341C413.232 393.486 411.436 391.097 410.291 388.385L404.701 410.321C404.635 410.631 404.508 410.924 404.326 411.184C404.144 411.443 403.912 411.664 403.643 411.832C403.366 411.988 403.06 412.087 402.743 412.124C402.427 412.16 402.106 412.133 401.8 412.043L393.582 409.928C392.973 409.792 392.442 409.423 392.101 408.901ZM436.88 377.749C437.091 377.114 437.363 376.178 437.696 374.879C437.962 373.884 438.173 372.875 438.33 371.857C440.083 363.185 437.454 357.958 430.505 356.175C428.963 355.659 427.32 355.525 425.715 355.782C424.11 356.04 422.591 356.683 421.289 357.656C418.764 359.724 416.939 362.52 416.062 365.663L415.004 369.319L414.158 373.126C413.428 376.166 413.759 379.364 415.095 382.191C415.823 383.611 416.866 384.848 418.143 385.806C419.42 386.764 420.899 387.419 422.467 387.72C429.447 389.533 434.221 386.209 436.88 377.749Z" fill="#FFFF00"/>
<path d="M334.332 374.576C334.17 374.307 334.062 374.008 334.015 373.697C333.969 373.386 333.984 373.069 334.06 372.763L350.074 309.856C350.216 309.218 350.594 308.657 351.132 308.284C351.407 308.108 351.717 307.995 352.041 307.953C352.365 307.911 352.694 307.942 353.005 308.043L378.023 314.418C384.743 315.717 390.795 319.331 395.125 324.631C396.891 327.119 398.055 329.983 398.527 332.998C398.999 336.013 398.765 339.096 397.844 342.005C396.911 346.248 394.658 350.088 391.408 352.973C388.21 355.602 384.269 357.166 380.138 357.444L387.964 385.665C388.055 386.043 388.055 386.436 387.964 386.813C387.901 387.089 387.779 387.348 387.607 387.572C387.435 387.796 387.217 387.981 386.967 388.113C386.498 388.374 385.948 388.449 385.426 388.324L376.633 386.088C375.777 385.926 375.007 385.466 374.458 384.789C373.963 384.102 373.613 383.32 373.43 382.493L366.813 356.417L353.368 353.003L347.325 376.178C347.178 376.79 346.799 377.321 346.267 377.658C345.992 377.835 345.682 377.948 345.358 377.99C345.034 378.032 344.704 378.001 344.394 377.9L335.601 375.664C335.052 375.482 334.596 375.091 334.332 374.576ZM369.805 345.54C372.885 346.581 376.241 346.452 379.232 345.177C380.488 344.465 381.573 343.488 382.413 342.314C383.253 341.14 383.828 339.797 384.096 338.379C384.53 336.987 384.666 335.52 384.494 334.072C384.322 332.625 383.847 331.23 383.099 329.979C381.12 327.387 378.242 325.63 375.032 325.054L361.405 321.73L356.117 342.065L369.805 345.54Z" fill="#FFFF00"/>
</svg>
