<svg width="409" height="514" viewBox="0 0 409 514" fill="none" xmlns="http://www.w3.org/2000/svg">
<path d="M304.646 122.489C319.947 85.6758 302.509 43.4292 265.696 28.1281C228.883 12.827 186.636 30.2657 171.335 67.0785C156.034 103.891 173.473 146.138 210.286 161.439C247.099 176.74 289.345 159.301 304.646 122.489Z" fill="#E3CBB0"/>
<path d="M240.522 131.628C240.11 131.385 239.751 131.062 239.465 130.678C239.18 130.294 238.974 129.857 238.86 129.392L231.246 100.93L203.176 108.302C202.718 108.439 202.236 108.478 201.762 108.415C201.288 108.353 200.833 108.191 200.426 107.94C199.995 107.683 199.62 107.342 199.324 106.937C199.028 106.532 198.817 106.071 198.704 105.583L196.71 97.9988C196.567 97.5265 196.525 97.0294 196.588 96.54C196.65 96.0505 196.815 95.5798 197.072 95.1586C197.571 94.3582 198.363 93.7838 199.278 93.5572L227.348 86.1545L220.036 58.417C219.881 57.9481 219.83 57.4508 219.887 56.9601C219.945 56.4695 220.109 55.9973 220.368 55.5768C220.881 54.7767 221.681 54.2037 222.604 53.9754L231.246 51.7093C231.704 51.5669 232.186 51.5176 232.663 51.5643C233.14 51.611 233.604 51.7527 234.025 51.9812C234.444 52.235 234.804 52.5729 235.085 52.9734C235.366 53.3738 235.561 53.8282 235.657 54.3077L242.969 82.0452L271.039 74.6728C271.495 74.5157 271.979 74.4587 272.458 74.5056C272.938 74.5525 273.402 74.7023 273.819 74.9447C274.236 75.1923 274.597 75.5246 274.878 75.9201C275.159 76.3156 275.354 76.7656 275.45 77.2411L277.444 84.825C277.614 85.3209 277.674 85.8474 277.622 86.3687C277.57 86.89 277.406 87.3939 277.142 87.8465C276.901 88.2628 276.578 88.6269 276.194 88.9174C275.811 89.2079 275.373 89.4191 274.906 89.5385L246.867 96.9413L254.36 125.404C254.498 125.858 254.545 126.334 254.499 126.806C254.452 127.278 254.313 127.736 254.088 128.153C253.848 128.583 253.52 128.956 253.123 129.248C252.727 129.54 252.273 129.744 251.792 129.845L243.332 132.081C242.856 132.194 242.364 132.212 241.882 132.134C241.399 132.057 240.937 131.885 240.522 131.628Z" fill="#FFFF00"/>
<path d="M103.878 391.828C129.269 375.999 137.02 342.584 121.191 317.194C105.362 291.803 71.9476 284.052 46.5571 299.881C21.1666 315.71 13.4153 349.125 29.2441 374.515C45.0729 399.906 78.4877 407.657 103.878 391.828Z" fill="#E3CBB0"/>
<path d="M62.6752 370.539C62.4956 370.226 62.3815 369.88 62.3399 369.521C62.2984 369.163 62.3302 368.8 62.4335 368.454L68.4765 347.303L47.5677 341.26C47.2207 341.168 46.8966 341.005 46.6158 340.782C46.335 340.558 46.1035 340.279 45.9361 339.961C45.7554 339.631 45.646 339.267 45.6148 338.893C45.5835 338.518 45.6312 338.141 45.7548 337.786L47.3864 332.135C47.4652 331.775 47.6226 331.437 47.8471 331.144C48.0717 330.852 48.358 330.613 48.6856 330.443C48.9993 330.279 49.3423 330.179 49.6949 330.148C50.0475 330.117 50.4027 330.156 50.7402 330.262L71.6491 336.305L77.6921 315.608C77.7818 315.248 77.9467 314.911 78.1758 314.619C78.405 314.328 78.6931 314.088 79.0216 313.916C79.6626 313.607 80.3969 313.553 81.0762 313.765L87.3912 315.578C87.7438 315.655 88.0764 315.805 88.3677 316.019C88.659 316.232 88.9027 316.504 89.0832 316.816C89.2522 317.14 89.3527 317.494 89.3787 317.858C89.4047 318.222 89.3555 318.587 89.2343 318.931L83.1913 339.629L104.13 345.672C104.482 345.761 104.813 345.919 105.103 346.137C105.394 346.355 105.638 346.628 105.822 346.941C105.991 347.264 106.092 347.619 106.118 347.983C106.144 348.347 106.095 348.712 105.973 349.056L104.342 354.706C104.258 355.076 104.096 355.424 103.867 355.726C103.638 356.029 103.346 356.278 103.012 356.459C102.703 356.634 102.361 356.744 102.007 356.78C101.654 356.816 101.296 356.779 100.958 356.67L80.0489 350.627L74.0059 371.778C73.9196 372.123 73.7657 372.447 73.553 372.733C73.3404 373.018 73.0732 373.258 72.767 373.439C72.4507 373.626 72.0979 373.741 71.7327 373.777C71.3676 373.814 70.9989 373.771 70.652 373.651L64.3371 371.838C63.9846 371.75 63.6546 371.588 63.3683 371.365C63.0821 371.141 62.846 370.859 62.6752 370.539Z" fill="#FFFF00"/>
<path d="M371.773 496.451C391.795 487.11 400.454 463.306 391.113 443.284C381.772 423.261 357.969 414.602 337.947 423.943C317.924 433.284 309.265 457.088 318.606 477.11C327.947 497.132 351.75 505.791 371.773 496.451Z" fill="#E3CBB0"/>
<path d="M345.671 478.346C345.538 478.115 345.453 477.859 345.422 477.594C345.391 477.329 345.414 477.061 345.49 476.805L349.992 461.123L334.522 456.591C334.013 456.43 333.582 456.086 333.313 455.624C333.208 455.37 333.153 455.098 333.153 454.823C333.153 454.549 333.208 454.277 333.313 454.023L334.522 449.823C334.587 449.56 334.707 449.314 334.874 449.101C335.04 448.887 335.25 448.711 335.489 448.584C335.973 448.389 336.515 448.389 336.999 448.584L352.47 453.026L356.851 437.737C356.907 437.466 357.022 437.212 357.19 436.992C357.357 436.773 357.572 436.593 357.818 436.468C358.302 436.27 358.844 436.27 359.328 436.468L363.982 437.797C364.247 437.854 364.497 437.968 364.715 438.129C364.934 438.291 365.114 438.498 365.246 438.735C365.378 438.973 365.457 439.236 365.479 439.507C365.5 439.777 365.464 440.05 365.371 440.305L360.99 455.594L376.46 460.005C376.719 460.071 376.962 460.187 377.175 460.348C377.387 460.509 377.566 460.711 377.699 460.942C377.805 461.185 377.859 461.447 377.859 461.712C377.859 461.978 377.805 462.24 377.699 462.483L376.521 466.683C376.449 466.951 376.323 467.201 376.152 467.419C375.981 467.637 375.767 467.819 375.524 467.952C375.298 468.084 375.047 468.169 374.787 468.2C374.527 468.231 374.264 468.208 374.013 468.133L358.543 463.722L354.041 479.403C353.977 479.655 353.864 479.891 353.708 480.098C353.553 480.306 353.358 480.48 353.134 480.612C352.901 480.755 352.64 480.845 352.369 480.877C352.097 480.908 351.822 480.879 351.563 480.793L346.91 479.464C346.633 479.382 346.378 479.239 346.164 479.045C345.949 478.852 345.781 478.613 345.671 478.346Z" fill="#FFFF00"/>
</svg>
