<svg width="180" height="180" viewBox="0 0 180 180" fill="none" xmlns="http://www.w3.org/2000/svg">
<g clip-path="url(#clip0_101:121)">
<path d="M174.468 120.808C191.406 74.1951 167.35 22.6771 120.738 5.73911C74.125 -11.1989 22.607 12.8572 5.66896 59.4699C-11.269 106.083 12.7871 157.601 59.3997 174.539C106.012 191.477 157.53 167.42 174.468 120.808Z" fill="#E3CBB0"/>
<path d="M116.589 144.794C116.157 144.707 115.749 144.527 115.394 144.266C115.04 144.005 114.746 143.67 114.534 143.284L109.488 135.186C104.289 137.919 98.5999 139.593 92.7493 140.111C88.0119 140.543 83.2422 139.774 78.8806 137.875C75.0385 136.15 71.7455 133.401 69.3628 129.928C69.1546 129.605 69.0173 129.241 68.96 128.861C68.9028 128.481 68.9267 128.093 69.0304 127.723C69.2382 126.976 69.725 126.338 70.3901 125.94L80.6632 119.534C81.3423 119.049 82.155 118.785 82.9898 118.779C83.8712 118.864 84.7253 119.131 85.4977 119.565C88.17 121.724 91.5198 122.869 94.9549 122.798C99.6297 122.585 104.147 121.044 107.978 118.356C112.394 115.971 116.048 112.389 118.523 108.023C119.334 106.431 119.709 104.652 119.608 102.869C119.507 101.085 118.934 99.3602 117.949 97.8702C117.372 96.8733 116.597 96.0051 115.672 95.3191C114.747 94.6332 113.692 94.144 112.57 93.8818C109.712 93.3615 106.774 93.4646 103.959 94.184C100.454 94.9092 95.5291 96.3293 89.1235 98.3839C78.6892 101.889 70.2692 103.158 63.8637 102.191C60.5376 101.617 57.3849 100.297 54.6426 98.3289C51.9003 96.3611 49.6397 93.7973 48.0309 90.8301C46.1879 88.0212 44.9651 84.8515 44.4441 81.5325C43.9231 78.2136 44.1158 74.8217 45.0094 71.5831C47.2411 64.1103 51.844 57.5665 58.1228 52.9404L53.1373 44.9636C52.8836 44.6038 52.7116 44.193 52.6333 43.7598C52.555 43.3266 52.5724 42.8816 52.6841 42.4558C52.8954 41.6219 53.4275 40.9052 54.1646 40.4616L61.2047 36.0804C61.5692 35.8496 61.9759 35.6934 62.4012 35.6207C62.8264 35.5481 63.2619 35.5606 63.6824 35.6574C64.1061 35.7448 64.5061 35.9223 64.8554 36.1777C65.2047 36.4331 65.495 36.7606 65.7068 37.1379L70.8131 45.3262C75.6989 43.0121 81.0285 41.7853 86.4343 41.7306C90.9689 41.6889 95.4568 42.6484 99.5779 44.5406C102.958 46.0604 105.892 48.422 108.099 51.3994C108.304 51.7181 108.442 52.0756 108.505 52.4497C108.567 52.8238 108.552 53.2068 108.461 53.5749C108.379 53.9416 108.221 54.287 107.997 54.5888C107.773 54.8907 107.489 55.1423 107.162 55.3274L96.4355 62.0352C95.7435 62.5572 94.9003 62.8396 94.0334 62.8396C93.1666 62.8396 92.3233 62.5572 91.6313 62.0352C90.5671 60.8972 89.2658 60.0069 87.8195 59.4274C86.3732 58.8478 84.8173 58.5931 83.2617 58.6813C79.1935 58.958 75.2548 60.226 71.7893 62.3749C68.3237 64.5237 65.4367 67.488 63.3802 71.009C62.6638 72.4887 62.3508 74.1313 62.4728 75.7707C62.5948 77.4101 63.1476 78.9882 64.0751 80.3455C65.2139 82.3274 67.0594 83.8059 69.2419 84.4849C71.9163 85.1001 74.6954 85.1001 77.3698 84.4849C82.011 83.5784 86.5922 82.3877 91.0874 80.9196C97.3694 78.59 103.883 76.9389 110.516 75.9945C115.078 75.3192 119.738 75.9043 123.992 77.6865C128.135 79.7828 131.571 83.0505 133.872 87.0834C135.889 90.0832 137.207 93.4971 137.73 97.0738C138.253 100.65 137.967 104.299 136.893 107.751C134.173 115.722 129.002 122.628 122.118 127.481L127.074 135.428C127.304 135.792 127.461 136.199 127.533 136.624C127.606 137.049 127.593 137.485 127.497 137.905C127.402 138.322 127.225 138.716 126.976 139.064C126.727 139.412 126.411 139.706 126.046 139.93L119.006 144.311C118.29 144.77 117.427 144.943 116.589 144.794V144.794Z" fill="#FFFF00"/>
</g>
<defs>
<clipPath id="clip0_101:121">
<rect width="180" height="180" fill="white"/>
</clipPath>
</defs>
</svg>
