<svg width="180" height="180" viewBox="0 0 180 180" fill="none" xmlns="http://www.w3.org/2000/svg">
<g clip-path="url(#clip0_101:129)">
<path d="M178.621 104.336C186.644 55.3949 153.473 9.21587 104.532 1.19263C55.5905 -6.83061 9.41145 26.3402 1.3882 75.2816C-6.63504 124.223 26.5358 170.402 75.4772 178.425C124.419 186.449 170.598 153.278 178.621 104.336Z" fill="#E3CBB0"/>
<path d="M134.278 78.9029C134.657 78.9385 135.021 79.0676 135.337 79.2785C135.654 79.4895 135.913 79.7757 136.091 80.1115C139.105 84.494 140.717 89.6886 140.714 95.0075C140.681 100.973 138.986 106.812 135.819 111.868C132.038 118.072 127.019 123.431 121.074 127.61C111.748 134.499 102.683 137.712 93.8807 137.248C89.3487 136.934 84.9248 135.719 80.8677 133.675C76.8107 131.631 73.2019 128.799 70.2525 125.344L63.1217 130.571C62.7849 130.838 62.3951 131.029 61.9783 131.134C61.5615 131.238 61.1272 131.252 60.7045 131.175C60.2747 131.125 59.8608 130.983 59.4907 130.758C59.1206 130.534 58.803 130.233 58.5593 129.876L54.0572 123.833C53.7731 123.48 53.5648 123.073 53.4452 122.636C53.3257 122.199 53.2974 121.743 53.3623 121.295C53.4167 120.87 53.5607 120.462 53.7847 120.098C54.0086 119.733 54.3075 119.42 54.6615 119.18L61.4599 114.164L58.4384 109.904L51.64 114.889C51.2948 115.143 50.903 115.327 50.4869 115.429C50.0707 115.532 49.6385 115.551 49.2148 115.487C48.7912 115.422 48.3844 115.275 48.0176 115.053C47.6509 114.831 47.3314 114.539 47.0775 114.194L42.4848 107.97C42.2269 107.626 42.0402 107.234 41.9354 106.818C41.8307 106.401 41.81 105.968 41.8748 105.543C41.9395 105.118 42.0882 104.71 42.3122 104.344C42.5363 103.977 42.8313 103.659 43.1798 103.407L50.2803 98.1499C47.8385 94.3078 46.1833 90.0193 45.4106 85.533C44.6378 81.0466 44.7628 76.4516 45.7783 72.0139C47.9135 63.5335 53.6946 55.8186 63.1217 48.8691C68.8776 44.4441 75.4795 41.2459 82.5198 39.4722C88.2904 37.9646 94.3653 38.0797 100.075 39.8046C105.162 41.3848 109.651 44.4718 112.946 48.6576L113.097 48.8691C113.304 49.1527 113.445 49.4794 113.507 49.8247C113.57 50.1701 113.554 50.5251 113.46 50.8634C113.305 51.5768 112.897 52.21 112.312 52.646L101.918 60.2904C101.217 60.8867 100.33 61.2182 99.4101 61.2271C98.4132 61.1309 97.467 60.7419 96.6907 60.1092C93.4209 57.3152 89.2013 55.887 84.9068 56.1207C80.313 56.7099 75.9725 58.5611 72.3675 61.4688C63.1217 68.2672 61.0671 76.5763 66.3245 86.3962L84.4536 73.1016C85.1616 72.5664 86.0503 72.328 86.9312 72.4369C87.3638 72.4795 87.782 72.6149 88.1575 72.8339C88.5329 73.0529 88.8567 73.3504 89.1067 73.7059L93.6994 79.9605C93.9662 80.2973 94.1581 80.6871 94.2623 81.1039C94.3665 81.5207 94.3806 81.9549 94.3037 82.3777C94.2361 82.8211 94.0777 83.2458 93.8386 83.6253C93.5995 84.0048 93.2846 84.331 92.9138 84.5834L74.2711 98.1499L77.2926 102.41L95.8145 88.8135C96.1647 88.5304 96.5698 88.3229 97.0042 88.2041C97.4386 88.0852 97.8928 88.0576 98.3384 88.1228C98.784 88.1881 99.2113 88.345 99.5933 88.5834C99.9753 88.8219 100.304 89.1368 100.558 89.5085L105.09 95.5515C105.345 95.9004 105.526 96.2968 105.625 96.7171C105.724 97.1374 105.737 97.5733 105.665 97.9989C105.612 98.447 105.46 98.8776 105.22 99.2593C104.979 99.641 104.656 99.964 104.275 100.205L86.1456 113.59C94.062 121.264 102.623 121.718 111.828 114.95C115.671 112.377 118.725 108.789 120.651 104.586C122.134 100.548 122.026 96.0981 120.349 92.1372C119.927 91.1886 119.821 90.1291 120.047 89.1157C120.328 88.2259 120.918 87.4653 121.709 86.9703L132.103 79.3259C132.748 78.9144 133.526 78.7633 134.278 78.9029Z" fill="#FFFF00"/>
</g>
<defs>
<clipPath id="clip0_101:129">
<rect width="180" height="180" fill="white"/>
</clipPath>
</defs>
</svg>
