<svg width="200" height="200" viewBox="0 0 200 200" fill="none" xmlns="http://www.w3.org/2000/svg">
<path d="M100 0C80.2219 0 60.8879 5.86493 44.443 16.8531C27.9981 27.8412 15.1809 43.4591 7.61211 61.7317C0.0433471 80.0043 -1.93701 100.111 1.92151 119.509C5.78003 138.907 15.3041 156.725 29.2893 170.711C43.2746 184.696 61.0929 194.22 80.491 198.078C99.8891 201.937 119.996 199.957 138.268 192.388C156.541 184.819 172.159 172.002 183.147 155.557C194.135 139.112 200 119.778 200 100C200 73.4783 189.464 48.0429 170.711 29.2893C151.957 10.5357 126.522 0 100 0ZM100 177.174C84.7156 177.174 69.7745 172.64 57.0672 164.147C44.3598 155.654 34.4571 143.582 28.612 129.459C22.7669 115.337 21.2419 99.7977 24.2301 84.8082C27.2183 69.8187 34.5853 56.0522 45.3992 45.2506C56.213 34.4489 69.9877 27.0974 84.9805 24.1261C99.9734 21.1548 115.511 22.6973 129.627 28.5583C143.743 34.4193 155.803 44.3356 164.282 57.0525C172.761 69.7694 177.278 84.7155 177.261 100C177.232 120.482 169.083 140.117 154.6 154.6C140.117 169.083 120.482 177.232 100 177.261V177.174Z" fill="#FFFF00"/>
<path d="M71.7393 87.2608C72.777 88.2776 74.0136 89.0688 75.3715 89.5851C76.7295 90.1013 78.1795 90.3314 79.6306 90.2608C81.0914 90.3313 82.5512 90.1015 83.9198 89.5855C85.2883 89.0695 86.5365 88.2783 87.5871 87.2608C89.7649 84.7117 90.9055 81.4374 90.7828 78.0869C90.7828 75.1087 90.9349 73.1086 90.9349 72.0651C90.9349 71.0217 90.9349 68.9347 90.7828 66.0434C90.9108 62.6987 89.7692 59.4294 87.5871 56.8913C85.4109 54.9448 82.5937 53.8687 79.674 53.8687C76.7544 53.8687 73.9372 54.9448 71.761 56.8913C69.5772 59.4271 68.4421 62.7 68.5871 66.0434C68.5871 67.5 68.5871 69.4999 68.5871 72.0651C68.5871 74.6304 68.5871 76.5869 68.5871 78.0869C68.4501 81.432 69.5752 84.7064 71.7393 87.2608Z" fill="#FFFF00"/>
<path d="M136.717 56.8913C134.541 54.9449 131.724 53.8687 128.804 53.8687C125.885 53.8687 123.067 54.9449 120.891 56.8913C118.709 59.4294 117.568 62.6987 117.695 66.0434C117.695 67.5 117.695 69.4999 117.695 72.0651C117.695 74.6304 117.695 76.5869 117.695 78.0869C117.569 81.4304 118.693 84.7011 120.848 87.2608C123.039 89.1927 125.861 90.2587 128.782 90.2587C131.704 90.2587 134.525 89.1927 136.717 87.2608C138.895 84.7117 140.036 81.4374 139.913 78.0869C139.913 75.1087 140.043 73.1086 140.043 72.0651C140.043 71.0217 140.043 68.9347 139.913 66.0434C140.041 62.6987 138.899 59.4294 136.717 56.8913Z" fill="#FFFF00"/>
<path d="M97.1524 134.022C89.4917 134.027 82.1418 130.993 76.7167 125.584C71.2917 120.175 68.2349 112.835 68.2176 105.174C68.2061 105.058 68.2061 104.942 68.2176 104.826H45.8262V105.239C45.8148 111.981 47.1349 118.658 49.7107 124.888C52.2866 131.118 56.0675 136.777 60.8364 141.542C65.6053 146.307 71.2683 150.083 77.5004 152.654C83.7325 155.224 90.411 156.539 97.1524 156.522C105.012 156.461 112.755 154.615 119.798 151.124C126.84 147.633 132.997 142.588 137.805 136.37L124.065 115.5C121.965 120.937 118.272 125.614 113.47 128.919C108.669 132.223 102.981 134.002 97.1524 134.022Z" fill="#FFFF00"/>
</svg>
