<svg width="180" height="180" viewBox="0 0 180 180" fill="none" xmlns="http://www.w3.org/2000/svg">
<path d="M89.7992 179.598C139.394 179.598 179.598 139.394 179.598 89.7992C179.598 40.2045 139.394 0 89.7992 0C40.2045 0 0 40.2045 0 89.7992C0 139.394 40.2045 179.598 89.7992 179.598Z" fill="#E3CBB0"/>
<path d="M146.572 74.6616L100.615 99.7402L111.976 106.962C112.356 107.177 112.689 107.468 112.954 107.816C113.218 108.164 113.41 108.562 113.516 108.986C113.601 109.414 113.596 109.855 113.503 110.282C113.409 110.708 113.229 111.11 112.973 111.464L108.894 117.869C108.685 118.243 108.399 118.569 108.056 118.824C107.712 119.079 107.318 119.258 106.899 119.35C106.474 119.461 106.029 119.479 105.595 119.4C105.162 119.322 104.751 119.15 104.392 118.897L88.8005 108.956L86.1719 113.095L101.763 123.006C102.143 123.221 102.476 123.512 102.741 123.86C103.006 124.208 103.197 124.606 103.304 125.03C103.381 125.459 103.373 125.898 103.28 126.323C103.187 126.749 103.01 127.151 102.76 127.508L98.7111 134.064C98.2458 134.793 97.5104 135.307 96.6664 135.494C95.8223 135.681 94.9385 135.526 94.2091 135.062L78.6181 125.121L74.0858 132.252C73.8677 132.636 73.5679 132.967 73.2077 133.223C72.8475 133.479 72.4356 133.653 72.001 133.732C71.1124 133.88 70.2013 133.674 69.4629 133.158L59.1293 126.601C58.7598 126.38 58.442 126.082 58.1971 125.728C57.9522 125.373 57.7858 124.971 57.7092 124.547C57.6023 124.132 57.5847 123.699 57.6577 123.278C57.7306 122.856 57.8924 122.454 58.1323 122.099L62.6645 114.969L47.0735 105.058C46.3419 104.587 45.8218 103.85 45.6232 103.003C45.44 102.15 45.603 101.259 46.0764 100.526L50.2461 93.9993C50.461 93.6186 50.7561 93.289 51.1108 93.0334C51.4655 92.7778 51.8716 92.6022 52.3008 92.5188C52.7204 92.4332 53.1528 92.4319 53.573 92.5149C53.9931 92.5979 54.3926 92.7635 54.7482 93.0022L70.3391 102.943L72.9679 98.8035L57.3769 88.8627C57.0052 88.6477 56.6835 88.3559 56.4334 88.0069C56.1833 87.6578 56.0105 87.2594 55.9265 86.8383C55.8194 86.417 55.8044 85.9776 55.8826 85.55C55.9609 85.1224 56.1304 84.7168 56.3797 84.3607L60.4588 77.9551C60.6736 77.5653 60.9719 77.2277 61.3323 76.9665C61.6927 76.7054 62.1063 76.5271 62.5436 76.4444C62.96 76.3548 63.3906 76.3542 63.8072 76.4427C64.2238 76.5313 64.6169 76.7069 64.9608 76.958L76.3217 84.1794L79.585 31.9375C79.6151 31.4148 79.7705 30.907 80.0382 30.457C80.234 30.1358 80.493 29.8578 80.7994 29.6397C81.1058 29.4215 81.4533 29.2679 81.8209 29.1879C82.1912 29.1029 82.5749 29.0939 82.9489 29.1614C83.3228 29.2289 83.6791 29.3716 83.9964 29.5807L94.2091 36.077C94.9348 36.5542 95.5175 37.2193 95.8952 38.0014C96.273 38.7836 96.4316 39.6535 96.3543 40.5186L94.0278 83.1823L131.797 63.0893C132.546 62.6422 133.402 62.4061 134.274 62.4061C135.147 62.4061 136.003 62.6422 136.752 63.0893L146.965 69.5855C147.292 69.7741 147.574 70.0309 147.793 70.3385C148.012 70.6462 148.163 70.9973 148.234 71.3682C148.32 71.7335 148.329 72.1127 148.262 72.4819C148.194 72.8511 148.051 73.2024 147.841 73.5135C147.465 73.945 147.039 74.3303 146.572 74.6616V74.6616Z" fill="#FFFF00"/>
</svg>
