<svg width="182" height="229" viewBox="0 0 182 229" fill="none" xmlns="http://www.w3.org/2000/svg">
<path d="M135.242 54.2928C142.048 37.9191 134.291 19.1284 117.918 12.3228C101.544 5.5171 82.7532 13.2736 75.9475 29.6473C69.1418 46.021 76.8983 64.8116 93.272 71.6173C109.646 78.423 128.436 70.6665 135.242 54.2928Z" fill="#E3CBB0"/>
<path d="M106.721 58.3579C106.538 58.2496 106.378 58.1059 106.251 57.9351C106.124 57.7644 106.033 57.57 105.982 57.3634L102.595 44.7037L90.11 47.9828C89.9063 48.0438 89.6921 48.061 89.4813 48.0332C89.2705 48.0054 89.0679 47.9333 88.887 47.8215C88.6952 47.7075 88.5285 47.5559 88.3968 47.3758C88.2652 47.1956 88.1714 46.9907 88.121 46.7733L87.234 43.4001C87.1705 43.19 87.152 42.9689 87.1798 42.7512C87.2076 42.5335 87.281 42.3241 87.3953 42.1368C87.6172 41.7808 87.9692 41.5253 88.3764 41.4245L100.861 38.1319L97.6091 25.7947C97.54 25.5861 97.5175 25.3649 97.543 25.1467C97.5686 24.9285 97.6416 24.7184 97.7569 24.5314C97.9851 24.1756 98.3411 23.9207 98.7514 23.8191L102.595 22.8112C102.799 22.7479 103.013 22.726 103.225 22.7467C103.438 22.7675 103.644 22.8305 103.831 22.9322C104.017 23.0451 104.178 23.1953 104.303 23.3735C104.428 23.5516 104.514 23.7537 104.557 23.967L107.809 36.3042L120.294 33.025C120.497 32.9551 120.712 32.9298 120.926 32.9506C121.139 32.9715 121.346 33.0381 121.531 33.1459C121.716 33.2561 121.877 33.4039 122.002 33.5798C122.127 33.7557 122.214 33.9559 122.257 34.1673L123.144 37.5406C123.219 37.7611 123.246 37.9953 123.222 38.2272C123.199 38.459 123.127 38.6832 123.009 38.8845C122.902 39.0697 122.758 39.2316 122.588 39.3608C122.417 39.49 122.222 39.5839 122.015 39.6371L109.543 42.9297L112.876 55.5894C112.937 55.7912 112.958 56.0031 112.938 56.213C112.917 56.4229 112.855 56.6265 112.755 56.8123C112.648 57.0035 112.502 57.1695 112.326 57.2993C112.15 57.4292 111.948 57.5197 111.734 57.5649L107.971 58.5595C107.759 58.6096 107.54 58.6176 107.326 58.583C107.111 58.5485 106.906 58.472 106.721 58.3579Z" fill="#FFFF00"/>
<path d="M45.9439 174.091C57.2372 167.05 60.6848 152.188 53.6444 140.895C46.604 129.601 31.7416 126.154 20.4483 133.194C9.15503 140.235 5.70737 155.097 12.7478 166.39C19.7882 177.684 34.6506 181.131 45.9439 174.091Z" fill="#E3CBB0"/>
<path d="M27.6172 164.622C27.5373 164.482 27.4866 164.328 27.4681 164.169C27.4496 164.01 27.4638 163.848 27.5098 163.694L30.1976 154.287L20.8977 151.599C20.7434 151.558 20.5992 151.486 20.4743 151.386C20.3494 151.287 20.2464 151.162 20.1719 151.021C20.0916 150.874 20.0429 150.713 20.029 150.546C20.0151 150.379 20.0364 150.212 20.0913 150.054L20.817 147.54C20.8521 147.38 20.9221 147.23 21.022 147.1C21.1218 146.97 21.2492 146.863 21.3949 146.788C21.5344 146.715 21.687 146.67 21.8438 146.656C22.0006 146.643 22.1586 146.66 22.3088 146.707L31.6087 149.395L34.2965 140.189C34.3364 140.029 34.4098 139.879 34.5117 139.75C34.6136 139.62 34.7418 139.513 34.8879 139.437C35.173 139.299 35.4996 139.275 35.8017 139.369L38.6105 140.176C38.7674 140.21 38.9153 140.277 39.0449 140.372C39.1744 140.467 39.2829 140.588 39.3631 140.727C39.4383 140.871 39.483 141.028 39.4945 141.19C39.5061 141.352 39.4842 141.514 39.4303 141.668L36.7425 150.873L46.0558 153.561C46.2123 153.601 46.3594 153.671 46.4886 153.768C46.6178 153.865 46.7264 153.987 46.8084 154.126C46.8835 154.269 46.9283 154.427 46.9399 154.589C46.9514 154.751 46.9296 154.913 46.8756 155.066L46.1499 157.579C46.1127 157.744 46.0406 157.899 45.9386 158.033C45.8367 158.168 45.707 158.279 45.5586 158.359C45.4211 158.437 45.2688 158.486 45.1115 158.502C44.9542 158.518 44.7953 158.501 44.6447 158.453L35.3448 155.765L32.6569 165.173C32.6186 165.326 32.5501 165.471 32.4555 165.597C32.3609 165.724 32.2421 165.831 32.1059 165.912C31.9652 165.995 31.8083 166.046 31.6459 166.062C31.4835 166.078 31.3195 166.059 31.1652 166.006L28.3564 165.2C28.1997 165.16 28.0529 165.089 27.9255 164.989C27.7982 164.889 27.6932 164.764 27.6172 164.622Z" fill="#FFFF00"/>
<path d="M165.099 220.625C174.005 216.47 177.856 205.883 173.702 196.977C169.547 188.072 158.959 184.22 150.054 188.375C141.148 192.53 137.297 203.117 141.451 212.023C145.606 220.928 156.193 224.78 165.099 220.625Z" fill="#E3CBB0"/>
<path d="M153.49 212.573C153.43 212.47 153.393 212.356 153.379 212.238C153.365 212.12 153.375 212.001 153.409 211.887L155.411 204.912L148.531 202.896C148.304 202.825 148.112 202.672 147.993 202.466C147.946 202.353 147.922 202.232 147.922 202.11C147.922 201.988 147.946 201.867 147.993 201.754L148.531 199.886C148.56 199.769 148.613 199.66 148.687 199.565C148.761 199.47 148.854 199.392 148.961 199.335C149.176 199.248 149.417 199.248 149.633 199.335L156.513 201.311L158.462 194.51C158.487 194.39 158.538 194.277 158.613 194.179C158.687 194.081 158.783 194.002 158.892 193.946C159.108 193.858 159.349 193.858 159.564 193.946L161.634 194.537C161.752 194.563 161.863 194.613 161.96 194.685C162.057 194.757 162.138 194.849 162.196 194.954C162.255 195.06 162.29 195.177 162.3 195.297C162.309 195.418 162.293 195.539 162.252 195.653L160.303 202.453L167.184 204.415C167.299 204.444 167.407 204.496 167.502 204.567C167.597 204.639 167.676 204.729 167.735 204.832C167.782 204.94 167.806 205.056 167.806 205.174C167.806 205.292 167.782 205.409 167.735 205.517L167.211 207.385C167.179 207.504 167.123 207.616 167.047 207.713C166.971 207.81 166.876 207.89 166.768 207.949C166.667 208.008 166.556 208.046 166.44 208.06C166.324 208.074 166.207 208.064 166.096 208.03L159.215 206.068L157.212 213.043C157.184 213.155 157.134 213.26 157.064 213.352C156.995 213.444 156.908 213.522 156.809 213.58C156.706 213.644 156.589 213.684 156.469 213.698C156.348 213.712 156.226 213.699 156.11 213.661L154.041 213.07C153.917 213.033 153.804 212.97 153.709 212.884C153.613 212.798 153.539 212.691 153.49 212.573Z" fill="#FFFF00"/>
</svg>
