<svg width="284" height="349" viewBox="0 0 284 349" fill="none" xmlns="http://www.w3.org/2000/svg">
<path d="M125.705 234.551C129.274 212.783 114.52 192.243 92.7516 188.674C70.9832 185.106 50.4435 199.859 46.8749 221.628C43.3063 243.396 58.0601 263.936 79.8285 267.505C101.597 271.073 122.137 256.319 125.705 234.551Z" fill="#E3CBB0"/>
<path d="M105.982 223.238C106.151 223.254 106.313 223.312 106.453 223.405C106.594 223.499 106.709 223.627 106.789 223.776C108.129 225.725 108.847 228.036 108.845 230.401C108.831 233.055 108.077 235.652 106.668 237.901C104.986 240.66 102.754 243.044 100.11 244.902C95.9613 247.967 91.9296 249.396 88.0143 249.189C85.9985 249.05 84.0308 248.509 82.2263 247.6C80.4218 246.691 78.8167 245.431 77.5048 243.894L74.3332 246.219C74.1834 246.338 74.01 246.423 73.8246 246.47C73.6392 246.516 73.446 246.522 73.258 246.488C73.0669 246.466 72.8828 246.403 72.7181 246.303C72.5535 246.203 72.4122 246.069 72.3039 245.91L70.3014 243.222C70.1751 243.066 70.0824 242.884 70.0292 242.69C69.976 242.496 69.9635 242.293 69.9923 242.094C70.0165 241.905 70.0806 241.723 70.1802 241.561C70.2798 241.399 70.4127 241.26 70.5702 241.153L73.594 238.922L72.2501 237.027L69.2263 239.244C69.0727 239.357 68.8985 239.439 68.7134 239.485C68.5283 239.53 68.336 239.539 68.1476 239.51C67.9592 239.482 67.7782 239.416 67.6151 239.317C67.452 239.219 67.3099 239.089 67.197 238.935L65.1542 236.167C65.0395 236.014 64.9564 235.84 64.9098 235.654C64.8632 235.469 64.8541 235.276 64.8829 235.087C64.9116 234.898 64.9778 234.717 65.0774 234.554C65.1771 234.391 65.3083 234.249 65.4633 234.138L68.6215 231.799C67.5355 230.09 66.7992 228.183 66.4555 226.187C66.1118 224.192 66.1674 222.148 66.6191 220.174C67.5688 216.402 70.1401 212.971 74.3332 209.88C76.8933 207.912 79.8297 206.489 82.9611 205.7C85.5278 205.03 88.2298 205.081 90.7693 205.848C93.0322 206.551 95.0286 207.924 96.4944 209.786L96.5616 209.88C96.6536 210.006 96.716 210.151 96.7439 210.305C96.7718 210.458 96.7646 210.616 96.7228 210.767C96.654 211.084 96.4726 211.366 96.2122 211.56L91.5891 214.96C91.2775 215.225 90.8828 215.373 90.4736 215.376C90.0302 215.334 89.6094 215.161 89.2641 214.879C87.8098 213.637 85.9329 213.001 84.0228 213.105C81.9796 213.367 80.049 214.191 78.4456 215.484C74.3332 218.508 73.4193 222.204 75.7577 226.571L83.8212 220.658C84.1362 220.42 84.5315 220.314 84.9233 220.362C85.1157 220.381 85.3017 220.442 85.4687 220.539C85.6357 220.636 85.7797 220.769 85.8909 220.927L87.9336 223.709C88.0523 223.859 88.1377 224.032 88.184 224.217C88.2304 224.403 88.2366 224.596 88.2024 224.784C88.1723 224.981 88.1019 225.17 87.9956 225.339C87.8892 225.508 87.7492 225.653 87.5842 225.765L79.2922 231.799L80.6362 233.694L88.8744 227.646C89.0302 227.521 89.2104 227.428 89.4036 227.375C89.5968 227.323 89.7988 227.31 89.997 227.339C90.1952 227.368 90.3852 227.438 90.5551 227.544C90.7251 227.65 90.8712 227.79 90.9843 227.956L93.0002 230.643C93.1133 230.799 93.1941 230.975 93.238 231.162C93.2819 231.349 93.2878 231.543 93.2556 231.732C93.2323 231.931 93.1647 232.123 93.0577 232.293C92.9507 232.462 92.8071 232.606 92.6374 232.713L84.5738 238.667C88.0949 242.08 91.9027 242.282 95.9972 239.271C97.7061 238.127 99.0644 236.531 99.9214 234.662C100.581 232.866 100.533 230.887 99.787 229.125C99.599 228.703 99.5519 228.232 99.6526 227.781C99.7778 227.385 100.04 227.047 100.392 226.827L105.015 223.427C105.302 223.244 105.648 223.176 105.982 223.238Z" fill="#FFFF00"/>
<path d="M243.129 79.8826C265.188 79.8826 283.07 62.0002 283.07 39.9413C283.07 17.8823 265.188 0 243.129 0C221.07 0 203.188 17.8823 203.188 39.9413C203.188 62.0002 221.07 79.8826 243.129 79.8826Z" fill="#E3CBB0"/>
<path d="M268.381 33.2083L247.94 44.3629L252.993 47.5748C253.162 47.6708 253.31 47.8 253.428 47.9548C253.546 48.1096 253.631 48.2866 253.678 48.4753C253.716 48.6657 253.714 48.8619 253.672 49.0515C253.631 49.2411 253.55 49.4201 253.436 49.5773L251.622 52.4264C251.529 52.5927 251.402 52.7375 251.249 52.851C251.096 52.9645 250.921 53.0443 250.735 53.0849C250.546 53.1346 250.348 53.1423 250.155 53.1075C249.962 53.0727 249.78 52.9962 249.62 52.8833L242.685 48.4618L241.516 50.303L248.45 54.7111C248.62 54.807 248.768 54.9363 248.885 55.091C249.003 55.2458 249.088 55.4228 249.136 55.6115C249.17 55.802 249.167 55.9976 249.125 56.1867C249.084 56.3759 249.005 56.5549 248.894 56.7135L247.093 59.6298C246.886 59.9539 246.559 60.1826 246.184 60.2658C245.808 60.3489 245.415 60.2797 245.091 60.0733L238.156 55.6518L236.14 58.8234C236.043 58.9943 235.91 59.1419 235.75 59.2556C235.589 59.3694 235.406 59.4467 235.213 59.482C234.818 59.5477 234.412 59.4561 234.084 59.2266L229.488 56.3103C229.323 56.2118 229.182 56.0793 229.073 55.9217C228.964 55.7641 228.89 55.585 228.856 55.3965C228.809 55.212 228.801 55.0196 228.833 54.8319C228.866 54.6443 228.938 54.4656 229.044 54.3079L231.06 51.1362L224.125 46.7282C223.8 46.5188 223.569 46.1911 223.48 45.8143C223.399 45.4348 223.471 45.0384 223.682 44.7123L225.537 41.8094C225.632 41.6401 225.763 41.4935 225.921 41.3798C226.079 41.2661 226.26 41.188 226.45 41.1509C226.637 41.1129 226.829 41.1123 227.016 41.1492C227.203 41.1861 227.381 41.2598 227.539 41.3659L234.474 45.7874L235.643 43.9463L228.708 39.5248C228.543 39.4291 228.4 39.2994 228.289 39.1441C228.177 38.9888 228.101 38.8116 228.063 38.6243C228.016 38.437 228.009 38.2415 228.044 38.0513C228.078 37.8611 228.154 37.6807 228.265 37.5223L230.079 34.6732C230.175 34.4998 230.307 34.3497 230.468 34.2335C230.628 34.1174 230.812 34.0381 231.006 34.0013C231.192 33.9614 231.383 33.9612 231.568 34.0006C231.754 34.0399 231.928 34.118 232.081 34.2297L237.135 37.4417L238.586 14.2053C238.599 13.9728 238.669 13.747 238.788 13.5468C238.875 13.404 238.99 13.2803 239.126 13.1833C239.263 13.0863 239.417 13.0179 239.581 12.9824C239.745 12.9446 239.916 12.9405 240.082 12.9706C240.249 13.0006 240.407 13.064 240.548 13.1571L245.091 16.0465C245.413 16.2588 245.673 16.5546 245.841 16.9025C246.009 17.2504 246.079 17.6373 246.045 18.0221L245.01 36.9982L261.809 28.0611C262.142 27.8623 262.523 27.7573 262.911 27.7573C263.299 27.7573 263.68 27.8623 264.013 28.0611L268.555 30.9506C268.701 31.0344 268.827 31.1487 268.924 31.2855C269.022 31.4223 269.088 31.5785 269.12 31.7435C269.158 31.906 269.162 32.0746 269.132 32.2389C269.102 32.4031 269.039 32.5593 268.945 32.6977C268.778 32.8896 268.588 33.061 268.381 33.2083Z" fill="#FFFF00"/>
<path d="M244.364 339.672C265.916 334.97 279.574 313.686 274.872 292.134C270.169 270.582 248.885 256.924 227.333 261.627C205.781 266.33 192.123 287.613 196.826 309.165C201.529 330.717 222.812 344.375 244.364 339.672Z" fill="#E3CBB0"/>
<path d="M229.905 318.173C228.883 316.844 227.957 315.442 227.136 313.98C226.547 312.933 225.901 311.919 225.201 310.943C224.639 310.205 223.929 309.592 223.118 309.142C222.666 308.835 222.157 308.624 221.621 308.52C221.085 308.416 220.534 308.422 220 308.537C218.946 308.895 218.015 309.542 217.312 310.405C217.131 310.6 216.905 310.747 216.654 310.835C216.515 310.87 216.369 310.874 216.228 310.849C216.087 310.823 215.953 310.768 215.834 310.687L211.802 308.443C211.669 308.371 211.552 308.271 211.46 308.151C211.367 308.03 211.301 307.892 211.265 307.744C211.219 307.599 211.205 307.447 211.224 307.296C211.242 307.145 211.293 307 211.372 306.871C212.482 304.878 214.162 303.264 216.197 302.234C218.074 301.352 220.187 301.102 222.218 301.522C222.899 300.161 223.5 298.76 224.019 297.329L224.704 295.636L220.672 293.351C220.5 293.264 220.348 293.141 220.228 292.99C220.107 292.84 220.02 292.665 219.973 292.477C219.922 292.294 219.907 292.102 219.93 291.913C219.953 291.724 220.013 291.541 220.108 291.375L221.747 288.473C221.836 288.303 221.959 288.154 222.11 288.035C222.261 287.917 222.435 287.833 222.621 287.787C222.804 287.73 222.996 287.712 223.186 287.735C223.377 287.758 223.559 287.822 223.723 287.921L226.666 289.588C227.311 288.244 227.876 287.209 228.346 286.363C230.196 282.584 233.46 279.687 237.431 278.299C241.131 277.143 245.163 277.802 249.526 280.275C252.076 281.638 254.282 283.563 255.977 285.906C257.431 287.958 258.27 290.382 258.396 292.894C258.478 295.413 257.889 297.908 256.689 300.124C256.521 300.428 256.241 300.654 255.91 300.756C255.749 300.811 255.578 300.831 255.409 300.815C255.24 300.798 255.076 300.746 254.929 300.662L249.97 297.866C249.599 297.663 249.31 297.338 249.151 296.946C248.992 296.555 248.973 296.12 249.096 295.716C249.747 293.924 249.855 291.979 249.405 290.125C249.128 289.301 248.691 288.54 248.119 287.885C247.547 287.23 246.851 286.695 246.072 286.309C245.247 285.772 244.302 285.45 243.321 285.37C242.341 285.29 241.355 285.456 240.455 285.852C238.442 286.897 236.817 288.56 235.818 290.596C235.224 291.63 234.69 292.698 234.219 293.794L243.237 298.861C243.403 298.954 243.549 299.079 243.667 299.229C243.785 299.379 243.871 299.551 243.922 299.735C243.977 299.92 243.994 300.114 243.971 300.306C243.948 300.498 243.885 300.683 243.788 300.85L242.161 303.739C241.979 304.075 241.677 304.329 241.315 304.452C241.126 304.509 240.927 304.525 240.732 304.497C240.537 304.469 240.351 304.398 240.186 304.29L231.531 299.439C231.41 299.735 231.088 300.527 230.55 301.791C230.046 303.028 229.463 304.231 228.803 305.392C229.528 306.004 230.173 306.704 230.725 307.475C231.3 308.343 231.83 309.24 232.311 310.163C232.779 311.096 233.313 311.995 233.91 312.851C234.442 313.557 235.12 314.139 235.899 314.558C236.382 314.878 236.926 315.098 237.496 315.204C238.066 315.31 238.652 315.301 239.218 315.176C240.377 314.799 241.432 314.154 242.296 313.295C242.478 313.123 242.7 312.999 242.941 312.932C243.065 312.899 243.194 312.892 243.321 312.91C243.448 312.929 243.57 312.973 243.68 313.039L247.268 315.055C247.41 315.123 247.535 315.22 247.635 315.341C247.734 315.461 247.807 315.602 247.846 315.754C247.908 316.048 247.861 316.354 247.712 316.614C246.715 318.406 245.282 319.918 243.546 321.009C242.01 321.952 240.241 322.445 238.439 322.433C236.677 322.418 234.947 321.955 233.413 321.089C232.067 320.351 230.876 319.361 229.905 318.173Z" fill="#FFFF00"/>
<path d="M88.7204 90.2058C96.2542 69.4733 85.5544 46.5589 64.8218 39.0251C44.0892 31.4914 21.1748 42.1911 13.6411 62.9237C6.10731 83.6563 16.8071 106.571 37.5397 114.104C58.2723 121.638 81.1867 110.938 88.7204 90.2058Z" fill="#E3CBB0"/>
<path d="M62.9763 100.875C62.7842 100.836 62.6029 100.756 62.445 100.64C62.2871 100.524 62.1566 100.374 62.0625 100.203L59.8181 96.6008C57.5057 97.8165 54.9751 98.561 52.3728 98.7914C50.2657 98.9834 48.1442 98.6414 46.2042 97.7969C44.4953 97.0298 43.0307 95.807 41.9708 94.2624C41.8783 94.1187 41.8172 93.9569 41.7917 93.7878C41.7662 93.6186 41.7769 93.446 41.823 93.2814C41.9155 92.9493 42.132 92.6654 42.4278 92.4885L46.9971 89.6394C47.2992 89.4233 47.6606 89.306 48.0319 89.3034C48.424 89.3411 48.8039 89.4601 49.1474 89.6528C50.336 90.6133 51.826 91.1227 53.3538 91.0908C55.4331 90.996 57.4423 90.3107 59.1461 89.1152C61.1103 88.0543 62.7359 86.4613 63.8364 84.519C64.1973 83.8111 64.3639 83.0201 64.319 82.2267C64.2742 81.4334 64.0195 80.6662 63.5811 80.0035C63.3246 79.56 62.9801 79.1739 62.5687 78.8688C62.1572 78.5637 61.6877 78.3461 61.1889 78.2295C59.9174 77.998 58.6109 78.0439 57.3587 78.3639C55.7998 78.6864 53.6092 79.3181 50.7601 80.2319C46.1191 81.7909 42.374 82.3553 39.5249 81.9252C38.0455 81.67 36.6433 81.0827 35.4235 80.2075C34.2038 79.3322 33.1983 78.1919 32.4828 76.8721C31.663 75.6227 31.1192 74.2129 30.8874 72.7367C30.6557 71.2605 30.7414 69.7518 31.1389 68.3114C32.1315 64.9875 34.1788 62.077 36.9715 60.0194L34.754 56.4714C34.6412 56.3114 34.5647 56.1287 34.5299 55.936C34.495 55.7433 34.5027 55.5454 34.5524 55.356C34.6464 54.9851 34.8831 54.6663 35.2109 54.469L38.3423 52.5203C38.5044 52.4177 38.6853 52.3482 38.8744 52.3159C39.0636 52.2836 39.2573 52.2891 39.4443 52.3322C39.6328 52.3711 39.8107 52.45 39.966 52.5636C40.1214 52.6772 40.2505 52.8228 40.3447 52.9907L42.6159 56.6327C44.7891 55.6034 47.1596 55.0578 49.564 55.0334C51.5809 55.0149 53.577 55.4416 55.41 56.2833C56.9135 56.9593 58.2184 58.0096 59.1999 59.334C59.2914 59.4757 59.3529 59.6347 59.3806 59.8011C59.4083 59.9675 59.4017 60.1378 59.3612 60.3016C59.3246 60.4647 59.2544 60.6183 59.1548 60.7526C59.0553 60.8868 58.9287 60.9987 58.7833 61.0811L54.0124 64.0646C53.7046 64.2968 53.3295 64.4224 52.944 64.4224C52.5584 64.4224 52.1833 64.2968 51.8755 64.0646C51.4022 63.5584 50.8234 63.1625 50.1801 62.9047C49.5368 62.6469 48.8448 62.5336 48.1529 62.5728C46.3434 62.6959 44.5915 63.2599 43.0501 64.2157C41.5087 65.1714 40.2246 66.4899 39.3099 68.056C38.9913 68.7141 38.852 69.4447 38.9063 70.1739C38.9606 70.9031 39.2064 71.605 39.619 72.2087C40.1255 73.0902 40.9463 73.7479 41.9171 74.0499C43.1066 74.3235 44.3427 74.3235 45.5322 74.0499C47.5966 73.6467 49.6342 73.1171 51.6336 72.4641C54.4278 71.4279 57.3247 70.6935 60.275 70.2735C62.3042 69.9731 64.3769 70.2334 66.2689 71.0261C68.1118 71.9584 69.6399 73.4119 70.6635 75.2057C71.5606 76.5399 72.147 78.0583 72.3796 79.6492C72.6122 81.2401 72.485 82.8629 72.0075 84.3981C70.7976 87.9434 68.4973 91.0152 65.4357 93.1739L67.6397 96.7084C67.7424 96.8705 67.8118 97.0514 67.8441 97.2405C67.8764 97.4297 67.8709 97.6234 67.8279 97.8104C67.7859 97.9959 67.7072 98.1712 67.5964 98.3259C67.4856 98.4805 67.345 98.6114 67.1828 98.7108L64.0514 100.659C63.7328 100.864 63.349 100.941 62.9763 100.875Z" fill="#FFFF00"/>
<path d="M191.951 198.693C212.119 189.756 221.223 166.162 212.286 145.995C203.349 125.827 179.755 116.723 159.588 125.66C139.42 134.597 130.316 158.191 139.253 178.358C148.19 198.526 171.784 207.63 191.951 198.693Z" fill="#E3CBB0"/>
<path d="M174.4 181.873C174.322 181.75 174.272 181.612 174.253 181.468C174.234 181.324 174.248 181.178 174.293 181.039L181.537 152.589C181.566 152.447 181.625 152.314 181.711 152.198C181.797 152.082 181.907 151.986 182.034 151.917C182.276 151.785 182.56 151.751 182.827 151.823L186.227 152.683C186.507 152.745 186.753 152.914 186.912 153.153C186.98 153.28 187.022 153.419 187.036 153.562C187.05 153.705 187.035 153.849 186.993 153.986L186.563 155.707C187.63 154.858 188.888 154.284 190.228 154.033C191.568 153.783 192.949 153.863 194.25 154.269C195.513 154.509 196.706 155.033 197.737 155.801C198.768 156.569 199.612 157.562 200.204 158.704C201.313 161.221 201.531 164.042 200.822 166.7C200.822 167.049 200.647 167.56 200.486 168.218C200.325 168.877 200.163 169.415 200.042 169.751C199.392 172.396 197.861 174.742 195.702 176.403C194.635 177.132 193.416 177.609 192.137 177.795C190.858 177.981 189.554 177.873 188.323 177.478C187.038 177.229 185.833 176.666 184.816 175.841C183.799 175.017 183 173.954 182.491 172.747L180.005 182.504C179.975 182.642 179.919 182.773 179.838 182.888C179.757 183.004 179.654 183.102 179.534 183.176C179.411 183.246 179.275 183.29 179.134 183.306C178.993 183.322 178.85 183.31 178.714 183.27L175.059 182.33C174.788 182.269 174.552 182.105 174.4 181.873ZM194.317 168.017C194.411 167.735 194.532 167.318 194.68 166.74C194.798 166.298 194.893 165.849 194.962 165.396C195.742 161.539 194.573 159.214 191.482 158.421C190.796 158.192 190.065 158.132 189.351 158.247C188.637 158.361 187.962 158.647 187.383 159.08C186.26 160 185.448 161.243 185.058 162.641L184.587 164.267L184.211 165.961C183.886 167.313 184.033 168.735 184.628 169.992C184.952 170.624 185.415 171.174 185.983 171.601C186.552 172.027 187.209 172.318 187.907 172.452C191.011 173.258 193.135 171.78 194.317 168.017Z" fill="#FFFF00"/>
<path d="M148.705 166.605C148.633 166.486 148.585 166.353 148.564 166.214C148.544 166.076 148.551 165.935 148.584 165.799L155.707 137.819C155.771 137.535 155.939 137.285 156.178 137.12C156.3 137.041 156.438 136.991 156.582 136.972C156.726 136.954 156.873 136.967 157.011 137.012L168.139 139.848C171.127 140.426 173.819 142.033 175.745 144.39C176.531 145.497 177.048 146.771 177.258 148.112C177.468 149.453 177.364 150.824 176.955 152.118C176.539 154.006 175.537 155.713 174.092 156.996C172.669 158.166 170.917 158.861 169.079 158.985L172.56 171.538C172.601 171.705 172.601 171.881 172.56 172.048C172.532 172.171 172.478 172.286 172.401 172.386C172.325 172.485 172.228 172.567 172.116 172.626C171.908 172.742 171.663 172.776 171.431 172.72L167.52 171.726C167.14 171.654 166.797 171.449 166.553 171.148C166.332 170.842 166.177 170.495 166.096 170.127L163.153 158.529L157.172 157.01L154.484 167.318C154.419 167.59 154.25 167.826 154.014 167.976C153.892 168.055 153.753 168.105 153.609 168.124C153.465 168.142 153.319 168.129 153.181 168.084L149.27 167.089C149.026 167.008 148.823 166.835 148.705 166.605ZM164.483 153.69C165.853 154.154 167.346 154.096 168.676 153.529C169.235 153.212 169.718 152.778 170.091 152.256C170.465 151.734 170.72 151.136 170.84 150.505C171.033 149.886 171.093 149.234 171.017 148.59C170.94 147.946 170.729 147.326 170.396 146.769C169.516 145.616 168.236 144.835 166.808 144.579L160.747 143.1L158.395 152.145L164.483 153.69Z" fill="#FFFF00"/>
</svg>
