<svg width="166" height="33" viewBox="0 0 166 33" fill="none" xmlns="http://www.w3.org/2000/svg">
<g clip-path="url(#clip0_514:220)">
<path d="M157.114 0.55249C157.114 0.55249 145.87 19.7111 145.014 21.2487C143.901 23.2435 142.919 25.2891 141.273 25.2891C139.393 25.2891 138.367 22.9167 137.556 21.488C136.764 20.0962 125.345 0.55249 125.345 0.55249H116.484C116.484 0.55249 129.199 22.3428 131.183 25.6957C133.168 29.0487 135.396 33.0001 141.234 33.0001C146.683 33.0001 149.058 29.4476 150.995 26.2313C152.933 23.0149 165.999 0.55249 165.999 0.55249H157.114Z" fill="white"/>
<path d="M101.566 -7.15572e-05C95.6431 -7.15572e-05 90.8282 2.97998 87.7116 7.88279C84.8357 12.4081 82.3155 16.2736 79.9648 19.8705C77.9456 22.9611 75.713 25.7247 71.2235 25.7247C68.802 25.7247 66.4797 24.7495 64.7674 23.0136C63.0551 21.2778 62.0932 18.9234 62.0932 16.4685C62.0932 14.0136 63.0551 11.6592 64.7674 9.92331C66.4797 8.18742 68.802 7.2122 71.2235 7.2122C75.2846 7.2122 78.1999 9.6521 79.9088 12.9007L84.0925 6.46796C82.4157 4.24264 80.2064 2.48792 77.6739 1.36991C75.1414 0.251894 72.3693 -0.192435 69.6201 0.0789729C66.8708 0.35038 64.2354 1.32855 61.9632 2.92089C59.691 4.51324 57.8572 6.66708 56.6353 9.17857C55.4135 11.6901 54.844 14.4761 54.9809 17.273C55.1177 20.0699 55.9563 22.7851 57.4173 25.1617C58.8783 27.5383 60.9133 29.4976 63.3298 30.8542C65.7463 32.2108 68.4643 32.9197 71.2265 32.914C78.0016 32.914 82.4275 29.0332 84.8766 25.3074C87.9039 20.7038 91.688 14.9385 93.9887 11.2772C95.9171 8.20811 99.3213 7.18919 101.569 7.18919C102.779 7.1734 103.981 7.40145 105.104 7.86012C106.226 8.31878 107.248 8.99893 108.11 9.86109C108.971 10.7232 109.655 11.7502 110.122 12.8825C110.589 14.0148 110.829 15.2298 110.829 16.457C110.829 17.6842 110.589 18.8991 110.122 20.0314C109.655 21.1637 108.971 22.1907 108.11 23.0528C107.248 23.915 106.226 24.5951 105.104 25.0538C103.981 25.5125 102.779 25.7405 101.569 25.7247C97.5564 25.7247 94.4716 23.1559 92.8611 20.047L88.6879 26.4414C91.5351 30.2102 96.297 32.9109 101.569 32.9109C103.714 32.9319 105.842 32.5218 107.829 31.7041C109.817 30.8865 111.625 29.6776 113.149 28.1474C114.673 26.6171 115.883 24.7958 116.709 22.7887C117.535 20.7816 117.96 18.6285 117.96 16.4539C117.96 14.2793 117.535 12.1262 116.709 10.1191C115.883 8.11198 114.673 6.29068 113.149 4.76042C111.625 3.23016 109.817 2.02128 107.829 1.20366C105.842 0.38603 103.714 -0.0241372 101.569 -0.00313893L101.566 -7.15572e-05Z" fill="white"/>
<path d="M51.8946 10.153C51.8946 5.20418 48.4752 0.00366211 41.8046 0.00366211C36.139 0.00366211 32.9301 3.97348 31.4164 8.84407C30.9624 10.3049 27.0269 22.4047 26.4078 24.1893C26.3685 24.2825 26.3034 24.3621 26.2204 24.4185C26.1374 24.4749 26.04 24.5056 25.9401 24.507C25.8421 24.5051 25.7465 24.4753 25.6644 24.421C25.5822 24.3668 25.5167 24.2902 25.4754 24.2001C24.7927 22.2451 20.8603 10.1576 20.4259 8.70136C19.0893 4.22361 15.7487 0.0190083 10.0831 0.0190083C3.41097 0.0190083 -0.00683594 5.21952 -0.00683594 10.1684V32.3714L7.64767 32.3883L7.65978 9.71875C7.65978 8.08448 8.53013 7.22668 10.2466 7.22668C11.8314 7.22668 12.4732 8.52643 12.956 10.0272C13.4389 11.528 17.7755 24.7817 18.7382 27.7049C19.6146 30.3704 21.5793 32.9515 25.9416 32.9515C30.1919 32.9515 32.1369 30.3704 33.1405 27.7049C34.3151 24.5883 38.4382 11.5295 38.9256 10.0272C39.413 8.52489 40.0503 7.22668 41.6336 7.22668C43.3515 7.22668 44.2219 8.08448 44.2219 9.71875L44.234 32.3883L51.8885 32.3714L51.8946 10.153Z" fill="white"/>
</g>
<defs>
<clipPath id="clip0_514:220">
<rect width="166" height="33" fill="white"/>
</clipPath>
</defs>
</svg>
