<svg width="814" height="425" viewBox="0 0 814 425" fill="none" xmlns="http://www.w3.org/2000/svg">
<path d="M602.18 0.0495093C525.65 0.0495093 463.437 38.5246 423.168 101.824C386.009 160.25 353.445 210.157 323.072 256.597C296.982 296.498 268.135 332.18 210.127 332.18C178.839 332.18 148.832 319.589 126.708 297.177C104.584 274.765 92.1549 244.368 92.1549 212.673C92.1549 180.978 104.584 150.581 126.708 128.169C148.832 105.757 178.839 93.1665 210.127 93.1665C262.6 93.1665 300.268 124.668 322.349 166.61L376.406 83.5576C354.74 54.8267 326.195 32.1717 293.472 17.7372C260.749 3.30262 224.931 -2.43407 189.409 1.07004C153.886 4.57416 119.834 17.2032 90.4751 37.7618C61.1161 58.3204 37.4217 86.1285 21.6345 118.554C5.84725 150.98 -1.51053 186.95 0.257555 223.06C2.02565 259.171 12.8611 294.227 31.7384 324.911C50.6156 355.595 76.9102 380.891 108.133 398.406C139.357 415.92 174.475 425.074 210.166 425C297.706 425 354.893 374.895 386.537 326.791C425.652 267.355 474.546 192.92 504.274 145.649C529.19 106.024 573.176 92.8693 602.219 92.8693C617.858 92.6655 633.382 95.6098 647.889 101.532C662.396 107.453 675.598 116.235 686.729 127.366C697.859 138.497 706.697 151.757 712.729 166.375C718.761 180.994 721.867 196.68 721.867 212.525C721.867 228.369 718.761 244.055 712.729 258.674C706.697 273.292 697.859 286.552 686.729 297.683C675.598 308.815 662.396 317.596 647.889 323.518C633.382 329.439 617.858 332.384 602.219 332.18C550.371 332.18 510.513 299.014 489.703 258.875L435.783 341.432C472.571 390.091 534.099 424.96 602.219 424.96C629.933 425.231 657.426 419.935 683.109 409.379C708.791 398.823 732.154 383.215 751.846 363.458C771.539 343.701 787.171 320.186 797.839 294.273C808.507 268.36 814 240.562 814 212.485C814 184.408 808.507 156.61 797.839 130.697C787.171 104.783 771.539 81.2688 751.846 61.5118C732.154 41.7547 708.791 26.147 683.109 15.5907C657.426 5.03442 629.933 -0.2612 602.219 0.00990685L602.18 0.0495093Z" fill="#FFFF00"/>
</svg>
