<svg width="169" height="33" viewBox="0 0 169 33" fill="none" xmlns="http://www.w3.org/2000/svg">
<path d="M159.225 0.570088C159.225 0.570088 147.829 19.7212 146.959 21.2584C145.835 23.2529 144.837 25.2983 143.17 25.2983C141.264 25.2983 140.226 22.9258 139.4 21.4871C138.574 20.0484 127.014 0.56056 127.014 0.56056H118.048C118.048 0.56056 130.93 22.3414 132.946 25.6952C134.963 29.0491 137.215 33 143.132 33C148.649 33 151.072 29.4493 153.025 26.2352C154.978 23.0211 168.228 0.563734 168.228 0.563734L159.225 0.570088Z" fill="#395E57"/>
<path d="M103.492 0.0142923C97.4898 0.0142923 92.6084 2.99336 89.4514 7.89707C86.5518 12.4197 83.9824 16.2785 81.6004 19.88C79.5519 22.9703 77.2906 25.7334 72.7394 25.7334C71.5099 25.7561 70.2881 25.5336 69.1455 25.0789C68.0029 24.6241 66.9624 23.9461 66.0848 23.0846C65.2072 22.2231 64.51 21.1954 64.0342 20.0614C63.5583 18.9274 63.3132 17.7099 63.3132 16.4802C63.3132 15.2504 63.5583 14.0329 64.0342 12.8989C64.51 11.765 65.2072 10.7372 66.0848 9.87569C66.9624 9.01419 68.0029 8.33624 69.1455 7.88145C70.2881 7.42666 71.5099 7.20416 72.7394 7.22694C76.8682 7.22694 79.8092 9.66609 81.5433 12.9119L85.7895 6.48059C84.0902 4.25654 81.8514 2.50284 79.2852 1.38541C76.7189 0.267979 73.91 -0.176238 71.1242 0.0947919C68.3384 0.365822 65.6678 1.34314 63.365 2.93427C61.0623 4.5254 59.2036 6.67773 57.9648 9.18763C56.726 11.6975 56.148 14.482 56.2856 17.2776C56.4231 20.0732 57.2717 22.7875 58.7509 25.1636C60.2301 27.5398 62.2912 29.4992 64.739 30.8566C67.1868 32.214 69.9405 32.9244 72.7394 32.9206C79.6059 32.9206 84.0904 29.0427 86.574 25.3173C89.6388 20.7185 93.4754 14.9509 95.8097 11.289C97.763 8.2242 101.209 7.20471 103.492 7.20471C104.709 7.20471 105.914 7.44434 107.038 7.90991C108.162 8.37549 109.183 9.05789 110.043 9.91817C110.904 10.7784 111.586 11.7997 112.052 12.9237C112.517 14.0477 112.757 15.2524 112.757 16.469C112.757 17.6856 112.517 18.8903 112.052 20.0143C111.586 21.1383 110.904 22.1596 110.043 23.0199C109.183 23.8802 108.162 24.5626 107.038 25.0282C105.914 25.4937 104.709 25.7334 103.492 25.7334C99.424 25.7334 96.2988 23.164 94.6664 20.0611L90.436 26.4416C91.981 28.4373 93.9589 30.0562 96.2206 31.1763C98.4822 32.2964 100.969 32.8885 103.492 32.9079C105.672 32.9382 107.837 32.535 109.859 31.7217C111.882 30.9085 113.723 29.7014 115.275 28.1705C116.827 26.6397 118.06 24.8157 118.901 22.8045C119.743 20.7932 120.176 18.6348 120.176 16.4547C120.176 14.2746 119.743 12.1163 118.901 10.105C118.06 8.09378 116.827 6.26976 115.275 4.73894C113.723 3.20812 111.882 2.00101 109.859 1.18776C107.837 0.374498 105.672 -0.0286992 103.492 0.00158811V0.0142923Z" fill="#395E57"/>
<path d="M52.5974 10.1647C52.5974 5.21654 49.1356 0.0206427 42.3739 0.0206427C36.6317 0.0206427 33.3827 3.99062 31.8519 8.85622C31.3914 10.3172 27.4055 22.4145 26.7703 24.1898C26.7312 24.2833 26.6655 24.3632 26.5813 24.4196C26.4972 24.4761 26.3984 24.5066 26.2971 24.5074C26.1966 24.5048 26.099 24.4735 26.0157 24.4172C25.9324 24.361 25.867 24.2821 25.8271 24.1898C25.1347 22.2366 21.1488 10.152 20.7074 8.69424C19.3544 4.21929 15.9688 0.0174685 10.2266 0.0174685C3.46499 0.0174685 0 5.21337 0 10.1615V32.3743L7.75574 32.3902V9.72961C7.75574 8.09398 8.63866 7.23647 10.3791 7.23647C11.983 7.23647 12.6372 8.53544 13.1263 10.0377C13.6154 11.5399 18.0237 24.7901 18.9987 27.712C19.888 30.3766 21.8825 32.9587 26.3034 32.9587C30.6133 32.9587 32.5824 30.3766 33.6082 27.712C34.796 24.5964 38.982 11.5399 39.4711 10.0409C39.9602 8.54179 40.6112 7.23964 42.2151 7.23964C43.9555 7.23964 44.8385 8.09716 44.8385 9.73279V32.3934L52.5974 32.3775V10.1647Z" fill="#395E57"/>
</svg>
