<svg width="180" height="180" viewBox="0 0 180 180" fill="none" xmlns="http://www.w3.org/2000/svg">
<g clip-path="url(#clip0_101:141)">
<path d="M172.086 124.626C191.093 78.8984 169.431 26.4209 123.703 7.41436C77.9755 -11.5922 25.498 10.0697 6.49151 55.7974C-12.515 101.525 9.14682 154.003 54.8745 173.009C100.602 192.016 153.08 170.354 172.086 124.626Z" fill="#E3CBB0"/>
<path d="M92.4326 135.978C91.9211 135.676 91.475 135.274 91.1205 134.797C90.7661 134.321 90.5103 133.778 90.3683 133.201L80.9102 97.8453L46.0426 107.003C45.4738 107.174 44.8755 107.222 44.2868 107.144C43.6981 107.066 43.1324 106.865 42.6272 106.553C42.0915 106.234 41.6258 105.811 41.2581 105.308C40.8904 104.805 40.6285 104.232 40.4879 103.625L38.0108 94.2047C37.8333 93.618 37.7816 93.0005 37.8593 92.3925C37.9369 91.7846 38.142 91.1998 38.4612 90.6766C39.081 89.6824 40.0638 88.9689 41.2011 88.6874L76.0685 79.492L66.9857 45.0374C66.7928 44.4548 66.7299 43.8371 66.8012 43.2276C66.8725 42.6181 67.0764 42.0316 67.3985 41.5093C68.0359 40.5155 69.0299 39.8036 70.176 39.5201L80.9102 36.7052C81.4791 36.5283 82.0777 36.4671 82.6707 36.5251C83.2638 36.5831 83.8393 36.7592 84.3632 37.043C84.8826 37.3583 85.3308 37.778 85.6797 38.2754C86.0286 38.7729 86.2703 39.3372 86.3898 39.9329L95.4727 74.3876L130.34 65.2297C130.906 65.0346 131.508 64.9638 132.103 65.0221C132.699 65.0804 133.276 65.2664 133.793 65.5675C134.311 65.8751 134.759 66.2878 135.108 66.7791C135.458 67.2704 135.7 67.8294 135.82 68.42L138.297 77.8405C138.507 78.4565 138.582 79.1105 138.517 79.758C138.453 80.4056 138.25 81.0316 137.922 81.5938C137.621 82.1109 137.221 82.5632 136.744 82.924C136.267 83.2849 135.724 83.5471 135.144 83.6956L100.314 92.891L109.622 128.246C109.794 128.81 109.853 129.402 109.795 129.988C109.737 130.574 109.563 131.143 109.285 131.662C108.987 132.196 108.578 132.659 108.086 133.022C107.594 133.384 107.03 133.637 106.432 133.764L95.9231 136.541C95.3328 136.681 94.7207 136.704 94.1218 136.607C93.5229 136.51 92.9489 136.297 92.4326 135.978V135.978Z" fill="#FFFF00"/>
</g>
<defs>
<clipPath id="clip0_101:141">
<rect width="180" height="180" fill="white"/>
</clipPath>
</defs>
</svg>
