<svg width="2155" height="140" viewBox="0 0 2155 140" fill="none" xmlns="http://www.w3.org/2000/svg">
<path d="M264.59 88.0901C263.8 89.3001 264.34 90.3001 265.78 90.3101L304.08 90.6001C305.52 90.6101 307.81 90.2001 309.16 89.6801L326.66 82.9901C328.01 82.4701 329.74 81.0501 330.51 79.8301L339.38 65.7401C340.15 64.5201 340.79 62.3401 340.8 60.8901C340.8 60.8901 340.83 55.8601 340.83 54.4401C340.83 50.8501 340.78 50.4401 340.78 50.4401C340.6 49.0101 339.27 47.7301 337.83 47.5901L300.87 44.1401C299.43 44.0101 297.18 43.9001 295.85 43.9001C294.52 43.9001 292.8 44.8901 292.01 46.1001L264.59 88.0901Z" fill="#777776"/>
<path d="M338.33 55.03C338.33 54.62 338.67 54.28 339.08 54.28H343.34C343.75 54.28 344.09 54.62 344.09 55.03V57.12C344.09 57.53 343.75 57.87 343.34 57.87H339.08C338.67 57.87 338.33 57.53 338.33 57.12V55.03Z" fill="#395E57"/>
<path d="M295.78 67.13C295.78 66.63 296.19 66.21 296.7 66.21H303.53C304.03 66.21 304.45 66.62 304.45 67.13V68.88C304.45 69.38 304.04 69.8 303.53 69.8H296.7C296.2 69.8 295.78 69.39 295.78 68.88V67.13Z" fill="#395E57"/>
<path d="M295.78 43.4801C295.78 42.9801 296.19 42.5601 296.7 42.5601H303.53C304.03 42.5601 304.45 42.9701 304.45 43.4801V45.2301C304.45 45.7301 304.04 46.1501 303.53 46.1501H296.7C296.2 46.1501 295.78 45.7401 295.78 45.2301V43.4801Z" fill="#395E57"/>
<path d="M292.21 46.4602C292.21 45.0602 293.36 43.9102 294.76 43.9102H318.67C320.07 43.9102 322.36 44.0802 323.75 44.3002L338.29 46.5202C339.68 46.7302 340.81 48.0502 340.81 49.4602V62.7202C340.81 64.1202 339.67 65.4502 338.29 65.6602L323.84 67.8802C322.45 68.0902 320.17 68.2702 318.76 68.2702H294.76C293.36 68.2702 292.21 67.1202 292.21 65.7202V46.4602V46.4602Z" fill="#C9DADC"/>
<path d="M323.34 46.4C323.34 45.79 323.84 45.34 324.45 45.41L335.36 47.1C335.97 47.17 336.47 47.73 336.47 48.34L336.52 63.82C336.52 64.43 336.03 65.02 335.42 65.12L324.45 66.79C323.85 66.89 323.35 66.48 323.35 65.86V46.4H323.34Z" fill="#395E57"/>
<path d="M938.56 99.3902C937.77 100.6 938.31 101.6 939.75 101.61L978.05 101.9C979.49 101.91 981.78 101.5 983.13 100.98L1000.63 94.2902C1001.98 93.7702 1003.71 92.3502 1004.48 91.1302L1013.35 77.0402C1014.12 75.8202 1014.76 73.6402 1014.77 72.1902C1014.77 72.1902 1014.8 67.1602 1014.8 65.7402C1014.8 62.1502 1014.75 61.7402 1014.75 61.7402C1014.57 60.3102 1013.24 59.0302 1011.8 58.8902L974.84 55.4402C973.4 55.3102 971.15 55.2002 969.82 55.2002C968.5 55.2002 966.77 56.1902 965.98 57.4002L938.56 99.3902Z" fill="#777776"/>
<path d="M1012.3 66.3201C1012.3 65.9101 1012.64 65.5701 1013.05 65.5701H1017.31C1017.72 65.5701 1018.06 65.9101 1018.06 66.3201V68.4101C1018.06 68.8201 1017.72 69.1601 1017.31 69.1601H1013.05C1012.64 69.1601 1012.3 68.8201 1012.3 68.4101V66.3201Z" fill="#395E57"/>
<path d="M969.75 78.42C969.75 77.92 970.16 77.5 970.67 77.5H977.5C978 77.5 978.42 77.91 978.42 78.42V80.17C978.42 80.67 978.01 81.09 977.5 81.09H970.67C970.17 81.09 969.75 80.68 969.75 80.17V78.42Z" fill="#395E57"/>
<path d="M969.75 54.7701C969.75 54.2701 970.16 53.8501 970.67 53.8501H977.5C978 53.8501 978.42 54.2601 978.42 54.7701V56.5201C978.42 57.0201 978.01 57.4401 977.5 57.4401H970.67C970.17 57.4401 969.75 57.0301 969.75 56.5201V54.7701Z" fill="#395E57"/>
<path d="M966.19 57.7602C966.19 56.3602 967.34 55.2102 968.74 55.2102H992.65C994.05 55.2102 996.34 55.3802 997.73 55.6002L1012.27 57.8202C1013.66 58.0302 1014.79 59.3502 1014.79 60.7602V74.0202C1014.79 75.4202 1013.65 76.7502 1012.27 76.9602L997.82 79.1802C996.43 79.3902 994.15 79.5702 992.74 79.5702H968.74C967.34 79.5702 966.19 78.4202 966.19 77.0202V57.7602V57.7602Z" fill="#C9DADC"/>
<path d="M997.31 57.6901C997.31 57.0801 997.81 56.6301 998.42 56.7001L1009.33 58.3901C1009.94 58.4601 1010.44 59.0201 1010.44 59.6301L1010.49 75.1101C1010.49 75.7201 1010 76.3101 1009.39 76.4101L998.42 78.0801C997.82 78.1801 997.32 77.7701 997.32 77.1501V57.6901H997.31Z" fill="#395E57"/>
<path d="M1267.5 89.22C1266.71 90.43 1267.25 91.43 1268.69 91.44L1306.99 91.73C1308.43 91.74 1310.72 91.33 1312.07 90.81L1329.57 84.12C1330.92 83.6 1332.65 82.18 1333.42 80.96L1342.29 66.87C1343.06 65.65 1343.7 63.47 1343.71 62.02C1343.71 62.02 1343.74 56.99 1343.74 55.57C1343.74 51.98 1343.69 51.57 1343.69 51.57C1343.51 50.14 1342.18 48.86 1340.74 48.72L1303.78 45.27C1302.34 45.14 1300.09 45.03 1298.76 45.03C1297.43 45.03 1295.71 46.02 1294.92 47.23L1267.5 89.22Z" fill="#777776"/>
<path d="M1341.24 56.1599C1341.24 55.7499 1341.58 55.4099 1341.99 55.4099H1346.25C1346.66 55.4099 1347 55.7499 1347 56.1599V58.2499C1347 58.6599 1346.66 58.9999 1346.25 58.9999H1341.99C1341.58 58.9999 1341.24 58.6599 1341.24 58.2499V56.1599Z" fill="#395E57"/>
<path d="M1298.69 68.2598C1298.69 67.7598 1299.1 67.3398 1299.61 67.3398H1306.44C1306.94 67.3398 1307.36 67.7498 1307.36 68.2598V70.0098C1307.36 70.5098 1306.95 70.9298 1306.44 70.9298H1299.61C1299.11 70.9298 1298.69 70.5198 1298.69 70.0098V68.2598Z" fill="#395E57"/>
<path d="M1298.69 44.6099C1298.69 44.1099 1299.1 43.6899 1299.61 43.6899H1306.44C1306.94 43.6899 1307.36 44.0999 1307.36 44.6099V46.3599C1307.36 46.8599 1306.95 47.2799 1306.44 47.2799H1299.61C1299.11 47.2799 1298.69 46.8699 1298.69 46.3599V44.6099Z" fill="#395E57"/>
<path d="M1295.13 47.59C1295.13 46.19 1296.28 45.04 1297.68 45.04H1321.59C1322.99 45.04 1325.28 45.21 1326.67 45.43L1341.21 47.65C1342.6 47.86 1343.73 49.18 1343.73 50.59V63.85C1343.73 65.25 1342.59 66.58 1341.21 66.79L1326.76 69C1325.37 69.21 1323.09 69.39 1321.68 69.39H1297.68C1296.28 69.39 1295.13 68.24 1295.13 66.84V47.59Z" fill="#C9DADC"/>
<path d="M1326.25 47.5299C1326.25 46.9199 1326.75 46.4699 1327.36 46.5399L1338.27 48.2299C1338.88 48.2999 1339.38 48.8599 1339.38 49.4699L1339.43 64.9499C1339.43 65.5599 1338.94 66.1499 1338.33 66.2499L1327.36 67.9199C1326.76 68.0199 1326.26 67.6099 1326.26 66.9899V47.5299H1326.25Z" fill="#395E57"/>
<path d="M777.34 97.5601C776.55 98.7701 777.09 99.7701 778.54 99.7801L868.41 100.29C869.86 100.3 871.7 99.3201 872.51 98.1201L878.47 89.2701C879.28 88.0701 880.57 86.0901 881.34 84.8601L888.34 73.7201C889.11 72.5001 889.71 70.3101 889.67 68.8701L889.28 53.5401C889.24 52.0901 888.3 50.1501 887.19 49.2301L883.33 46.0101C882.22 45.0801 880.13 44.3201 878.68 44.3101L820.99 43.8601C819.54 43.8501 817.18 43.8401 815.73 43.8401H814.76C813.31 43.8401 811.49 44.8301 810.7 46.0501L777.34 97.5601Z" fill="#777776"/>
<path d="M889.79 51.97C889.79 50.52 888.78 48.72 887.55 47.96L882.86 45.05C881.63 44.29 879.44 43.67 878 43.67H877.96L877 39.24H873.88L874.83 43.67L813.73 43.74C812.28 43.74 811.1 44.93 811.1 46.37L811.13 75.26C811.13 76.71 812.32 77.89 813.76 77.89L874.8 77.82L873.87 82.16H876.99L877.92 77.82H878.02C879.47 77.82 881.66 77.21 882.91 76.47L887.54 73.71C888.78 72.97 889.8 71.18 889.79 69.73V51.97Z" fill="#C9DADC"/>
<path d="M868.51 49.7699C868.51 48.3199 869.69 47.1399 871.14 47.1399L878.25 47.1299C879.7 47.1299 880.88 48.3099 880.88 49.7599L880.91 71.4699C880.91 72.9199 879.73 74.0999 878.28 74.0999L871.17 74.1099C869.72 74.1099 868.54 72.9299 868.54 71.4799L868.51 49.7699Z" fill="#395E57"/>
<path d="M1384.22 92.49C1383.43 93.7 1383.97 94.7 1385.42 94.71L1475.29 95.22C1476.74 95.23 1478.58 94.25 1479.39 93.05L1485.35 84.2C1486.16 83 1487.45 81.02 1488.22 79.79L1495.22 68.65C1495.99 67.43 1496.59 65.24 1496.55 63.8L1496.16 48.47C1496.12 47.02 1495.18 45.08 1494.07 44.16L1490.21 40.94C1489.1 40.01 1487.01 39.25 1485.56 39.24L1427.87 38.79C1426.42 38.78 1424.06 38.77 1422.61 38.77H1421.64C1420.19 38.77 1418.37 39.76 1417.58 40.98L1384.22 92.49Z" fill="#777776"/>
<path d="M1496.67 46.8999C1496.67 45.4499 1495.66 43.6499 1494.43 42.8899L1489.74 39.9799C1488.51 39.2199 1486.32 38.5999 1484.88 38.5999H1484.84L1483.89 34.1799H1480.77L1481.72 38.6099L1420.62 38.6799C1419.17 38.6799 1417.99 39.8699 1417.99 41.3099L1418.02 70.1999C1418.02 71.6499 1419.21 72.8299 1420.65 72.8299L1481.69 72.7599L1480.76 77.0999H1483.88L1484.81 72.7599H1484.91C1486.36 72.7599 1488.55 72.1499 1489.8 71.4099L1494.43 68.6499C1495.67 67.9099 1496.69 66.1199 1496.68 64.6699L1496.67 46.8999Z" fill="#C9DADC"/>
<path d="M1475.38 44.6998C1475.38 43.2498 1476.56 42.0698 1478.01 42.0698L1485.12 42.0598C1486.57 42.0598 1487.75 43.2398 1487.75 44.6898L1487.78 66.3998C1487.78 67.8498 1486.6 69.0298 1485.15 69.0298L1478.04 69.0398C1476.59 69.0398 1475.41 67.8598 1475.41 66.4098L1475.38 44.6998Z" fill="#395E57"/>
<path d="M1831.92 106.26C1831.13 107.47 1831.67 108.47 1833.11 108.48L1871.41 108.77C1872.85 108.78 1875.14 108.37 1876.49 107.85L1893.99 101.16C1895.34 100.64 1897.07 99.2201 1897.84 98.0001L1906.71 83.9101C1907.48 82.6901 1908.12 80.5101 1908.13 79.0601C1908.13 79.0601 1908.16 74.0301 1908.16 72.6101C1908.16 69.0201 1908.11 68.6101 1908.11 68.6101C1907.93 67.1801 1906.6 65.9001 1905.16 65.7601L1868.2 62.3101C1866.76 62.1801 1864.51 62.0701 1863.18 62.0701C1861.85 62.0701 1860.13 63.0601 1859.34 64.2701L1831.92 106.26Z" fill="#777776"/>
<path d="M1905.66 73.1899C1905.66 72.7799 1906 72.4399 1906.41 72.4399H1910.67C1911.08 72.4399 1911.42 72.7799 1911.42 73.1899V75.2799C1911.42 75.6899 1911.08 76.0299 1910.67 76.0299H1906.41C1906 76.0299 1905.66 75.6899 1905.66 75.2799V73.1899Z" fill="#395E57"/>
<path d="M1863.12 85.2899C1863.12 84.7899 1863.53 84.3699 1864.04 84.3699H1870.87C1871.38 84.3699 1871.79 84.7799 1871.79 85.2899V87.0399C1871.79 87.5399 1871.38 87.9599 1870.87 87.9599H1864.04C1863.54 87.9599 1863.12 87.5499 1863.12 87.0399V85.2899Z" fill="#395E57"/>
<path d="M1863.12 61.64C1863.12 61.14 1863.53 60.72 1864.04 60.72H1870.87C1871.38 60.72 1871.79 61.13 1871.79 61.64V63.39C1871.79 63.89 1871.38 64.31 1870.87 64.31H1864.04C1863.54 64.31 1863.12 63.9 1863.12 63.39V61.64Z" fill="#395E57"/>
<path d="M1859.55 64.6301C1859.55 63.2301 1860.7 62.0801 1862.1 62.0801H1886.01C1887.41 62.0801 1889.7 62.2501 1891.09 62.4701L1905.63 64.6901C1907.02 64.9001 1908.15 66.2201 1908.15 67.6301V80.8901C1908.15 82.2901 1907.01 83.6201 1905.63 83.8301L1891.18 86.0501C1889.79 86.2601 1887.51 86.4401 1886.1 86.4401H1862.1C1860.7 86.4401 1859.55 85.2901 1859.55 83.8901V64.6301Z" fill="#C9DADC"/>
<path d="M1890.68 64.5599C1890.68 63.9499 1891.18 63.4999 1891.79 63.5699L1902.7 65.2599C1903.31 65.3299 1903.81 65.8899 1903.81 66.4999L1903.86 81.9799C1903.86 82.5899 1903.37 83.1799 1902.76 83.2799L1891.79 84.9499C1891.19 85.0499 1890.69 84.6399 1890.69 84.0199V64.5599H1890.68Z" fill="#395E57"/>
<path d="M698.59 41.64C697.16 41.43 694.81 41.26 693.37 41.26H689.86C688.42 41.26 686.92 42.4 686.54 43.79L681.85 60.97C681.47 62.36 680.07 63.03 678.75 62.46L632.3 42.41C630.97 41.84 628.71 41.37 627.26 41.37H621.81C620.37 41.37 618.54 42.36 617.75 43.57L575.58 107.92C574.79 109.13 575.32 110.12 576.77 110.12H666.96C668.4 110.12 670.24 109.14 671.05 107.94L678.34 97.1C679.15 95.9 680.99 94.92 682.43 94.92H706.3C707.74 94.92 709.91 94.27 711.12 93.48L718.77 88.45C719.98 87.66 721.57 85.99 722.31 84.76L729.54 72.7C730.28 71.46 730.86 69.27 730.82 67.82L730.35 48.95C730.31 47.51 729.12 46.15 727.69 45.94L698.59 41.64Z" fill="#777776"/>
<path d="M621.56 76.8999C620.33 76.8999 619.32 75.8999 619.32 74.6599L619.29 43.4999C619.29 42.2699 620.29 41.2599 621.53 41.2599L689.37 41.1899C690.6 41.1899 691.61 42.1899 691.61 43.4299V74.5899C691.61 75.8199 690.6 76.8299 689.37 76.8299L621.56 76.8999Z" fill="#C9DADC"/>
<path d="M730.81 48.26C730.81 47.03 729.95 45.49 728.91 44.84L724.91 42.36C723.86 41.71 722 41.18 720.77 41.19L717.88 41.2L716.97 37H714.31L715.22 41.21L695.18 41.26C693.95 41.26 692.94 42.27 692.94 43.5L692.97 74.66C692.97 75.89 693.98 76.9 695.21 76.89L715.14 76.84L714.35 80.52H717.01L717.8 76.83L720.8 76.82C722.03 76.82 723.9 76.3 724.96 75.67L728.9 73.32C729.96 72.69 730.82 71.17 730.82 69.94L730.81 48.26Z" fill="#C9DADC"/>
<path d="M709.18 46.8399C709.18 45.2499 710.47 43.9499 712.06 43.9499L719.87 43.9399C721.46 43.9399 722.76 45.2399 722.76 46.8199L722.79 70.6499C722.79 72.2399 721.49 73.5399 719.91 73.5399L712.1 73.5499C710.51 73.5499 709.21 72.2499 709.21 70.6699L709.18 46.8399Z" fill="#395E57"/>
<path d="M504.32 47.13C502.89 46.92 500.54 46.75 499.1 46.75H495.59C494.15 46.75 492.65 47.89 492.27 49.28L487.58 66.46C487.2 67.85 485.8 68.52 484.48 67.95L438.03 47.9C436.7 47.33 434.44 46.86 432.99 46.86H427.54C426.1 46.86 424.27 47.85 423.48 49.06L381.31 113.41C380.52 114.62 381.05 115.61 382.5 115.61H472.69C474.13 115.61 475.97 114.63 476.78 113.43L484.07 102.59C484.88 101.39 486.72 100.41 488.16 100.41H512.03C513.47 100.41 515.64 99.76 516.85 98.97L524.5 93.94C525.71 93.15 527.3 91.48 528.04 90.25L535.27 78.19C536.01 76.95 536.59 74.76 536.55 73.31L536.08 54.44C536.04 53 534.85 51.64 533.42 51.43L504.32 47.13Z" fill="#777776"/>
<path d="M427.29 82.3899C426.06 82.3899 425.05 81.3899 425.05 80.1499L425.02 48.9899C425.02 47.7599 426.02 46.7499 427.26 46.7499L495.1 46.6799C496.33 46.6799 497.34 47.6799 497.34 48.9199V80.0799C497.34 81.3099 496.33 82.3199 495.1 82.3199L427.29 82.3899Z" fill="#C9DADC"/>
<path d="M536.55 53.75C536.55 52.52 535.69 50.98 534.65 50.33L530.65 47.85C529.6 47.2 527.74 46.67 526.51 46.68L523.62 46.69L522.71 42.49H520.05L520.96 46.7L500.92 46.75C499.69 46.75 498.68 47.76 498.68 48.99L498.71 80.15C498.71 81.38 499.72 82.39 500.95 82.38L520.88 82.33L520.09 86.01H522.75L523.54 82.32L526.54 82.31C527.77 82.31 529.64 81.79 530.7 81.16L534.64 78.81C535.7 78.18 536.56 76.66 536.56 75.43L536.55 53.75Z" fill="#C9DADC"/>
<path d="M514.91 52.3299C514.91 50.7399 516.21 49.4399 517.79 49.4399L525.6 49.4299C527.19 49.4299 528.49 50.7299 528.49 52.3099L528.52 76.1399C528.52 77.7299 527.22 79.0299 525.64 79.0299L517.83 79.0399C516.24 79.0399 514.94 77.7399 514.94 76.1599L514.91 52.3299Z" fill="#395E57"/>
<path d="M176.98 43.17C175.55 42.96 173.2 42.79 171.76 42.79H168.25C166.81 42.79 165.31 43.93 164.93 45.32L160.24 62.5C159.86 63.89 158.46 64.56 157.14 63.99L110.7 43.95C109.37 43.38 107.11 42.91 105.66 42.91H100.21C98.77 42.91 96.94 43.9 96.15 45.11L53.98 109.46C53.19 110.67 53.72 111.66 55.17 111.66H145.36C146.8 111.66 148.64 110.68 149.45 109.48L156.74 98.64C157.55 97.44 159.39 96.46 160.83 96.46H184.7C186.14 96.46 188.31 95.81 189.52 95.02L197.17 89.99C198.38 89.2 199.97 87.53 200.71 86.3L207.94 74.24C208.68 73 209.26 70.81 209.22 69.36L208.75 50.49C208.71 49.05 207.52 47.69 206.09 47.48L176.98 43.17Z" fill="#777776"/>
<path d="M99.9601 78.44C98.7301 78.44 97.7201 77.44 97.7201 76.2L97.6901 45.04C97.6901 43.81 98.6901 42.8 99.9301 42.8L167.77 42.73C169 42.73 170.01 43.73 170.01 44.97V76.13C170.01 77.36 169 78.37 167.77 78.37L99.9601 78.44Z" fill="#C9DADC"/>
<path d="M209.21 49.8C209.21 48.57 208.35 47.03 207.31 46.38L203.31 43.9C202.26 43.25 200.4 42.72 199.17 42.73L196.28 42.74L195.37 38.54H192.71L193.62 42.75L173.58 42.8C172.35 42.8 171.34 43.81 171.34 45.04L171.37 76.2C171.37 77.43 172.38 78.44 173.61 78.43L193.54 78.38L192.75 82.06H195.41L196.2 78.37L199.2 78.36C200.43 78.36 202.3 77.84 203.36 77.21L207.3 74.86C208.36 74.23 209.22 72.71 209.22 71.48L209.21 49.8Z" fill="#C9DADC"/>
<path d="M187.57 48.38C187.57 46.79 188.87 45.49 190.45 45.49L198.26 45.48C199.85 45.48 201.15 46.78 201.15 48.36L201.18 72.19C201.18 73.78 199.88 75.08 198.3 75.08L190.49 75.09C188.9 75.09 187.6 73.79 187.6 72.21L187.57 48.38Z" fill="#395E57"/>
<path d="M2064.34 30.5001C2062.91 30.2901 2060.56 30.1201 2059.12 30.1201H2055.61C2054.17 30.1201 2052.67 31.2601 2052.29 32.6501L2047.6 49.8301C2047.22 51.2201 2045.82 51.8901 2044.5 51.3201L1998.06 31.2701C1996.73 30.7001 1994.47 30.2301 1993.02 30.2301H1987.57C1986.13 30.2301 1984.3 31.2201 1983.51 32.4301L1941.34 96.7801C1940.55 97.9901 1941.08 98.9801 1942.53 98.9801H2032.72C2034.16 98.9801 2036 98.0001 2036.81 96.8001L2044.1 85.9601C2044.91 84.7601 2046.75 83.7801 2048.19 83.7801H2072.06C2073.5 83.7801 2075.67 83.1301 2076.88 82.3401L2084.53 77.3101C2085.74 76.5201 2087.33 74.8501 2088.07 73.6201L2095.3 61.5601C2096.04 60.3201 2096.62 58.1301 2096.58 56.6801L2096.11 37.8101C2096.07 36.3701 2094.88 35.0101 2093.45 34.8001L2064.34 30.5001Z" fill="#777776"/>
<path d="M1987.32 65.7701C1986.09 65.7701 1985.08 64.7701 1985.08 63.5301L1985.05 32.3701C1985.05 31.1401 1986.05 30.1301 1987.29 30.1301L2055.13 30.0601C2056.36 30.0601 2057.37 31.0601 2057.37 32.3001V63.4601C2057.37 64.6901 2056.36 65.7001 2055.13 65.7001L1987.32 65.7701Z" fill="#C9DADC"/>
<path d="M2096.57 37.1301C2096.57 35.9001 2095.71 34.3601 2094.67 33.7101L2090.67 31.2301C2089.62 30.5801 2087.76 30.0501 2086.53 30.0601L2083.64 30.0701L2082.73 25.8701H2080.07L2080.98 30.0801L2060.94 30.1301C2059.71 30.1301 2058.7 31.1401 2058.7 32.3701L2058.73 63.5301C2058.73 64.7601 2059.74 65.7701 2060.97 65.7601L2080.9 65.7101L2080.11 69.3901H2082.77L2083.56 65.7001L2086.56 65.6901C2087.79 65.6901 2089.66 65.1701 2090.72 64.5401L2094.66 62.1901C2095.72 61.5601 2096.58 60.0401 2096.58 58.8101L2096.57 37.1301Z" fill="#C9DADC"/>
<path d="M2074.93 35.7301C2074.93 34.1401 2076.23 32.8401 2077.81 32.8401L2085.62 32.8301C2087.21 32.8301 2088.51 34.1301 2088.51 35.7101L2088.54 59.5401C2088.54 61.1301 2087.25 62.4301 2085.66 62.4301L2077.85 62.4401C2076.26 62.4401 2074.96 61.1401 2074.96 59.5601L2074.93 35.7301Z" fill="#395E57"/>
<path d="M1650.89 38.11C1649.46 37.9 1647.11 37.73 1645.67 37.73H1642.16C1640.72 37.73 1639.22 38.87 1638.84 40.26L1634.15 57.44C1633.77 58.83 1632.37 59.5 1631.05 58.93L1584.61 38.88C1583.28 38.31 1581.02 37.84 1579.57 37.84H1574.12C1572.68 37.84 1570.85 38.83 1570.06 40.04L1527.89 104.39C1527.1 105.6 1527.63 106.59 1529.08 106.59H1619.27C1620.71 106.59 1622.55 105.61 1623.36 104.41L1630.65 93.57C1631.46 92.37 1633.3 91.39 1634.74 91.39H1658.61C1660.05 91.39 1662.22 90.74 1663.43 89.95L1671.08 84.92C1672.29 84.13 1673.88 82.46 1674.62 81.23L1681.85 69.17C1682.59 67.93 1683.17 65.74 1683.13 64.29L1682.66 45.42C1682.62 43.98 1681.43 42.62 1680 42.41L1650.89 38.11Z" fill="#777776"/>
<path d="M1573.86 73.3699C1572.63 73.3699 1571.62 72.3699 1571.62 71.1299L1571.59 39.9699C1571.59 38.7399 1572.6 37.7299 1573.83 37.7299L1641.67 37.6599C1642.9 37.6599 1643.91 38.6599 1643.91 39.8999V71.0599C1643.91 72.2899 1642.9 73.2999 1641.67 73.2999L1573.86 73.3699Z" fill="#C9DADC"/>
<path d="M1683.12 44.73C1683.12 43.5 1682.26 41.96 1681.22 41.31L1677.22 38.83C1676.17 38.18 1674.31 37.65 1673.08 37.66L1670.19 37.67L1669.28 33.47H1666.62L1667.53 37.68L1647.49 37.73C1646.26 37.73 1645.25 38.74 1645.25 39.97L1645.28 71.13C1645.28 72.36 1646.29 73.37 1647.52 73.36L1667.45 73.31L1666.66 76.99H1669.32L1670.11 73.3L1673.11 73.29C1674.34 73.29 1676.21 72.77 1677.27 72.14L1681.21 69.79C1682.27 69.16 1683.13 67.64 1683.13 66.41L1683.12 44.73Z" fill="#C9DADC"/>
<path d="M1661.48 43.3099C1661.48 41.7199 1662.78 40.4199 1664.36 40.4199L1672.17 40.4099C1673.76 40.4099 1675.06 41.7099 1675.06 43.2899L1675.09 67.1199C1675.09 68.7099 1673.79 70.0099 1672.21 70.0099L1664.4 70.0199C1662.81 70.0199 1661.51 68.7199 1661.51 67.1399L1661.48 43.3099Z" fill="#395E57"/>
<path d="M1177.61 37.68C1176.18 37.47 1173.83 37.3 1172.39 37.3H1168.88C1167.44 37.3 1165.94 38.44 1165.56 39.83L1160.87 57.01C1160.49 58.4 1159.09 59.07 1157.77 58.5L1111.33 38.4501C1110 37.8801 1107.74 37.41 1106.29 37.41H1100.84C1099.4 37.41 1097.57 38.4001 1096.78 39.6101L1054.61 103.96C1053.82 105.17 1054.35 106.16 1055.8 106.16H1145.99C1147.43 106.16 1149.27 105.18 1150.08 103.98L1157.37 93.14C1158.18 91.94 1160.02 90.96 1161.46 90.96H1185.33C1186.77 90.96 1188.94 90.31 1190.15 89.52L1197.8 84.49C1199.01 83.7 1200.6 82.0301 1201.34 80.8001L1208.57 68.7401C1209.31 67.5001 1209.89 65.3101 1209.85 63.8601L1209.38 44.9901C1209.34 43.5501 1208.15 42.19 1206.72 41.98L1177.61 37.68Z" fill="#777776"/>
<path d="M1100.58 72.95C1099.35 72.95 1098.34 71.95 1098.34 70.71L1098.31 39.55C1098.31 38.32 1099.31 37.31 1100.55 37.31L1168.39 37.24C1169.62 37.24 1170.63 38.24 1170.63 39.48V70.64C1170.63 71.87 1169.62 72.88 1168.39 72.88L1100.58 72.95Z" fill="#C9DADC"/>
<path d="M1209.83 44.3101C1209.83 43.0801 1208.97 41.54 1207.93 40.89L1203.93 38.41C1202.88 37.76 1201.02 37.23 1199.79 37.24L1196.9 37.25L1195.99 33.05H1193.33L1194.24 37.26L1174.2 37.31C1172.97 37.31 1171.96 38.32 1171.96 39.55L1171.99 70.71C1171.99 71.94 1173 72.95 1174.23 72.94L1194.16 72.89L1193.37 76.57H1196.03L1196.82 72.8801L1199.82 72.87C1201.05 72.87 1202.92 72.3501 1203.98 71.7201L1207.92 69.37C1208.98 68.74 1209.84 67.2201 1209.84 65.9901L1209.83 44.3101Z" fill="#C9DADC"/>
<path d="M1188.2 42.89C1188.2 41.3 1189.5 40 1191.08 40L1198.89 39.99C1200.48 39.99 1201.78 41.29 1201.78 42.87L1201.81 66.7C1201.81 68.29 1200.51 69.59 1198.93 69.59L1191.12 69.6C1189.53 69.6 1188.23 68.3 1188.23 66.72L1188.2 42.89Z" fill="#395E57"/>
<path d="M1714.46 86.68C1713.67 87.89 1714.21 88.89 1715.65 88.9L1753.95 89.19C1755.39 89.2 1757.68 88.79 1759.03 88.27L1776.53 81.58C1777.88 81.06 1779.61 79.64 1780.38 78.42L1789.25 64.33C1790.02 63.11 1790.66 60.93 1790.67 59.48C1790.67 59.48 1790.7 54.45 1790.7 53.03C1790.7 49.44 1790.65 49.03 1790.65 49.03C1790.47 47.6 1789.14 46.32 1787.7 46.18L1750.74 42.73C1749.3 42.6 1747.05 42.49 1745.72 42.49C1744.4 42.49 1742.67 43.48 1741.88 44.69L1714.46 86.68Z" fill="#777776"/>
<path d="M1788.21 53.6099C1788.21 53.1999 1788.55 52.8599 1788.96 52.8599H1793.22C1793.63 52.8599 1793.97 53.1999 1793.97 53.6099V55.6999C1793.97 56.1099 1793.63 56.4499 1793.22 56.4499H1788.96C1788.55 56.4499 1788.21 56.1099 1788.21 55.6999V53.6099Z" fill="#395E57"/>
<path d="M1745.66 65.7098C1745.66 65.2098 1746.07 64.7898 1746.58 64.7898H1753.41C1753.91 64.7898 1754.33 65.1998 1754.33 65.7098V67.4598C1754.33 67.9598 1753.92 68.3798 1753.41 68.3798H1746.58C1746.07 68.3798 1745.66 67.9698 1745.66 67.4598V65.7098Z" fill="#395E57"/>
<path d="M1745.66 42.0599C1745.66 41.5599 1746.07 41.1399 1746.58 41.1399H1753.41C1753.91 41.1399 1754.33 41.5499 1754.33 42.0599V43.8099C1754.33 44.3099 1753.92 44.7299 1753.41 44.7299H1746.58C1746.07 44.7299 1745.66 44.3199 1745.66 43.8099V42.0599Z" fill="#395E57"/>
<path d="M1742.09 45.05C1742.09 43.65 1743.24 42.5 1744.64 42.5H1768.55C1769.95 42.5 1772.24 42.67 1773.63 42.89L1788.17 45.11C1789.56 45.32 1790.69 46.64 1790.69 48.05V61.3C1790.69 62.7 1789.55 64.03 1788.17 64.24L1773.72 66.46C1772.33 66.67 1770.05 66.85 1768.64 66.85H1744.64C1743.24 66.85 1742.09 65.7 1742.09 64.3V45.05Z" fill="#C9DADC"/>
<path d="M1773.22 44.9899C1773.22 44.3799 1773.72 43.9299 1774.33 43.9999L1785.24 45.6899C1785.85 45.7599 1786.35 46.3199 1786.35 46.9299L1786.4 62.4099C1786.4 63.0199 1785.91 63.6099 1785.3 63.7099L1774.33 65.3799C1773.73 65.4799 1773.23 65.0699 1773.23 64.4499V44.9899H1773.22Z" fill="#395E57"/>
</svg>
