<svg width="477" height="140" viewBox="0 0 477 140" fill="none" xmlns="http://www.w3.org/2000/svg">
<path d="M272.105 66.3203C272.105 65.9103 272.445 65.5703 272.855 65.5703H277.115C277.525 65.5703 277.865 65.9103 277.865 66.3203V68.4103C277.865 68.8203 277.525 69.1603 277.115 69.1603H272.855C272.445 69.1603 272.105 68.8203 272.105 68.4103V66.3203Z" fill="#395E57"/>
<path d="M198.364 99.3912C197.574 100.601 198.114 101.601 199.554 101.611L237.854 101.901C239.294 101.911 241.584 101.501 242.934 100.981L260.434 94.2912C261.784 93.7712 263.514 92.3512 264.284 91.1312L273.154 77.0412C273.924 75.8212 274.564 73.6412 274.574 72.1912C274.574 72.1912 274.604 67.1612 274.604 65.7412C274.604 62.1512 274.554 61.7412 274.554 61.7412C274.374 60.3112 273.044 59.0312 271.604 58.8912L234.644 55.4412C233.204 55.3112 230.954 55.2012 229.624 55.2012C228.304 55.2012 226.574 56.1912 225.784 57.4012L198.364 99.3912Z" fill="#777776"/>
<path d="M229.555 78.42C229.555 77.92 229.965 77.5 230.475 77.5H237.305C237.805 77.5 238.225 77.91 238.225 78.42V80.17C238.225 80.67 237.815 81.09 237.305 81.09H230.475C229.975 81.09 229.555 80.68 229.555 80.17V78.42Z" fill="#395E57"/>
<path d="M229.555 54.7696C229.555 54.2696 229.965 53.8496 230.475 53.8496H237.305C237.805 53.8496 238.225 54.2596 238.225 54.7696V56.5196C238.225 57.0196 237.815 57.4396 237.305 57.4396H230.475C229.975 57.4396 229.555 57.0296 229.555 56.5196V54.7696Z" fill="#395E57"/>
<path d="M225.994 57.7609C225.994 56.3609 227.144 55.2109 228.544 55.2109H252.454C253.854 55.2109 256.144 55.3809 257.534 55.6009L272.074 57.8209C273.464 58.0309 274.594 59.3509 274.594 60.7609V74.0209C274.594 75.4209 273.454 76.7509 272.074 76.9609L257.624 79.1809C256.234 79.3909 253.954 79.5709 252.544 79.5709H228.544C227.144 79.5709 225.994 78.4209 225.994 77.0209V57.7609Z" fill="#C9DADC"/>
<path d="M257.115 57.6905C257.115 57.0805 257.615 56.6305 258.225 56.7005L269.135 58.3905C269.745 58.4605 270.245 59.0205 270.245 59.6305L270.295 75.1105C270.295 75.7205 269.805 76.3105 269.195 76.4105L258.225 78.0805C257.625 78.1805 257.125 77.7705 257.125 77.1505V57.6905H257.115Z" fill="#395E57"/>
<path d="M42.3638 97.5598C41.5738 98.7698 42.1138 99.7698 43.5638 99.7798L133.434 100.29C134.884 100.3 136.724 99.3198 137.534 98.1198L143.494 89.2698C144.304 88.0698 145.594 86.0898 146.364 84.8598L153.364 73.7198C154.134 72.4998 154.734 70.3098 154.694 68.8698L154.304 53.5398C154.264 52.0898 153.324 50.1498 152.214 49.2298L148.354 46.0098C147.244 45.0798 145.154 44.3198 143.704 44.3098L86.0138 43.8598C84.5638 43.8498 82.2038 43.8398 80.7538 43.8398H79.7838C78.3338 43.8398 76.5138 44.8298 75.7238 46.0498L42.3638 97.5598Z" fill="#777776"/>
<path d="M154.813 51.9702C154.813 50.5202 153.803 48.7202 152.573 47.9602L147.883 45.0502C146.653 44.2902 144.463 43.6702 143.023 43.6702H142.983L142.023 39.2402H138.903L139.853 43.6702L78.7531 43.7402C77.3031 43.7402 76.123 44.9302 76.123 46.3702L76.1531 75.2602C76.1531 76.7102 77.3431 77.8902 78.7831 77.8902L139.823 77.8202L138.893 82.1602H142.013L142.943 77.8202H143.043C144.493 77.8202 146.683 77.2102 147.933 76.4702L152.563 73.7102C153.803 72.9702 154.823 71.1802 154.813 69.7302V51.9702Z" fill="#C9DADC"/>
<path d="M133.533 49.7709C133.533 48.3209 134.713 47.1409 136.163 47.1409L143.273 47.1309C144.723 47.1309 145.903 48.3109 145.903 49.7609L145.933 71.4709C145.933 72.9209 144.753 74.1009 143.303 74.1009L136.193 74.1109C134.743 74.1109 133.563 72.9309 133.563 71.4809L133.533 49.7709Z" fill="#395E57"/>
<path d="M444.37 37.6788C442.94 37.4688 440.59 37.2988 439.15 37.2988H435.64C434.2 37.2988 432.7 38.4388 432.32 39.8288L427.63 57.0088C427.25 58.3988 425.85 59.0688 424.53 58.4988L378.09 38.4488C376.76 37.8788 374.5 37.4088 373.05 37.4088H367.6C366.16 37.4088 364.33 38.3988 363.54 39.6088L321.37 103.959C320.58 105.169 321.11 106.159 322.56 106.159H412.75C414.19 106.159 416.03 105.179 416.84 103.979L424.13 93.1388C424.94 91.9388 426.78 90.9588 428.22 90.9588H452.09C453.53 90.9588 455.7 90.3088 456.91 89.5188L464.56 84.4888C465.77 83.6988 467.36 82.0288 468.1 80.7988L475.33 68.7388C476.07 67.4988 476.65 65.3088 476.61 63.8588L476.14 44.9888C476.1 43.5488 474.91 42.1888 473.48 41.9788L444.37 37.6788Z" fill="#777776"/>
<path d="M367.34 72.9502C366.11 72.9502 365.1 71.9502 365.1 70.7102L365.07 39.5502C365.07 38.3202 366.07 37.3102 367.31 37.3102L435.15 37.2402C436.38 37.2402 437.39 38.2402 437.39 39.4802V70.6402C437.39 71.8702 436.38 72.8802 435.15 72.8802L367.34 72.9502Z" fill="#C9DADC"/>
<path d="M476.59 44.3088C476.59 43.0788 475.73 41.5388 474.69 40.8888L470.69 38.4088C469.64 37.7588 467.78 37.2288 466.55 37.2388L463.66 37.2488L462.75 33.0488H460.09L461 37.2588L440.96 37.3088C439.73 37.3088 438.72 38.3188 438.72 39.5488L438.75 70.7088C438.75 71.9388 439.76 72.9488 440.99 72.9388L460.92 72.8888L460.13 76.5688H462.79L463.58 72.8788L466.58 72.8688C467.81 72.8688 469.68 72.3488 470.74 71.7188L474.68 69.3688C475.74 68.7388 476.6 67.2188 476.6 65.9888L476.59 44.3088Z" fill="#C9DADC"/>
<path d="M454.96 42.8902C454.96 41.3002 456.26 40.0002 457.84 40.0002L465.65 39.9902C467.24 39.9902 468.54 41.2902 468.54 42.8702L468.57 66.7002C468.57 68.2902 467.27 69.5902 465.69 69.5902L457.88 69.6002C456.29 69.6002 454.99 68.3002 454.99 66.7202L454.96 42.8902Z" fill="#395E57"/>
</svg>
