<svg width="1440" height="493" viewBox="0 0 1440 493" fill="none" xmlns="http://www.w3.org/2000/svg">
<rect width="1440" height="493" fill="#FFFF00"/>
<path d="M667.059 54.6329L667.02 24.0706L662.979 33.9237L629.428 24.0024L625.592 32.9696L591.836 24.2751L572.684 54.6329H554.283L554.244 24.0706L550.213 33.9237L516.662 24.0024L512.826 32.9696L479.07 24.2751L448.576 72.6256L462.401 88.7099L531.49 88.9144L517.265 111.308L532.104 128.424L616.449 129.018L642.309 88.7099H676.094L701.564 54.6329H667.059Z" fill="#808080"/>
<path d="M513.38 23.9829H478.865V54.4673H513.38V23.9829Z" fill="#E3CBB0"/>
<path d="M550.973 23.9829H516.457V54.4673H550.973V23.9829Z" fill="#E3CBB0"/>
<path d="M588.555 23.9829H554.04V54.4673H588.555V23.9829Z" fill="#E3CBB0"/>
<path d="M626.147 23.9829H591.631V54.4673H626.147V23.9829Z" fill="#E3CBB0"/>
<path d="M663.738 23.9829H629.223V54.4673H663.738V23.9829Z" fill="#E3CBB0"/>
<path d="M701.33 23.9829H666.815V54.4673H701.33V23.9829Z" fill="#E3CBB0"/>
<path d="M1240.1 66.3846C1231.54 77.8831 1236.14 99.3906 1253.66 99.3906C1265.99 99.3906 1269.23 94.3959 1274 87.1326C1279.75 78.37 1292.69 58.4787 1292.69 58.4787L1258.21 37.9351C1258.21 37.9448 1245.43 59.2186 1240.1 66.3846Z" fill="#808080"/>
<path d="M1275.67 67.9035C1286.76 67.9035 1295.74 58.9194 1295.74 47.8369C1295.74 36.7545 1286.76 27.7704 1275.67 27.7704C1264.59 27.7704 1255.61 36.7545 1255.61 47.8369C1255.61 58.9194 1264.59 67.9035 1275.67 67.9035Z" fill="#E3CBB0"/>
<path d="M1189.16 66.3846C1180.6 77.8831 1185.2 99.3906 1202.72 99.3906C1215.05 99.3906 1218.29 94.3959 1223.06 87.1326C1228.81 78.37 1241.75 58.4787 1241.75 58.4787L1207.27 37.9351C1207.27 37.9448 1194.49 59.2186 1189.16 66.3846Z" fill="#808080"/>
<path d="M1224.73 67.9035C1235.82 67.9035 1244.8 58.9194 1244.8 47.8369C1244.8 36.7545 1235.82 27.7704 1224.73 27.7704C1213.65 27.7704 1204.67 36.7545 1204.67 47.8369C1204.67 58.9194 1213.65 67.9035 1224.73 67.9035Z" fill="#E3CBB0"/>
<path d="M1138.22 66.3846C1129.66 77.8831 1134.26 99.3906 1151.78 99.3906C1164.11 99.3906 1167.35 94.3959 1172.12 87.1326C1177.87 78.37 1190.81 58.4787 1190.81 58.4787L1156.33 37.9351C1156.33 37.9448 1143.55 59.2186 1138.22 66.3846Z" fill="#808080"/>
<path d="M1173.79 67.9035C1184.88 67.9035 1193.86 58.9194 1193.86 47.8369C1193.86 36.7545 1184.88 27.7704 1173.79 27.7704C1162.71 27.7704 1153.73 36.7545 1153.73 47.8369C1153.73 58.9194 1162.71 67.9035 1173.79 67.9035Z" fill="#E3CBB0"/>
<path d="M1016 197.873C1014.07 201.797 1015.89 207.006 1023 207.396C1028.91 207.717 1035.46 202.634 1037.56 197.981C1039.29 194.174 1038.13 192.09 1038.13 192.09C1037.2 190.425 1038 188.994 1039.91 188.916L1056.26 188.244C1058.17 188.166 1060.5 186.755 1061.47 185.109L1062.18 183.892C1063.14 182.247 1064.64 179.52 1065.51 177.817L1074.13 161.031C1075 159.337 1074.16 157.916 1072.25 157.867L1067.59 157.76C1065.68 157.711 1065.18 156.523 1066.45 155.112L1089.71 129.349C1090.99 127.938 1090.5 126.506 1088.62 126.166L1083.94 125.328C1082.06 124.997 1079.48 125.873 1078.19 127.275L1059.68 147.566C1058.4 148.978 1056.4 150.117 1055.25 150.117C1054.09 150.107 1054.05 148.832 1055.14 147.274L1077.4 115.689C1078.51 114.131 1077.84 112.846 1075.93 112.846L1070.84 112.827C1068.93 112.817 1066.48 114.092 1065.39 115.65L1038.34 154.313C1037.25 155.871 1034.8 157.176 1032.89 157.195L1025.84 157.292C1023.93 157.322 1021.54 158.646 1020.51 160.252L1012.82 172.209C1011.79 173.815 1010.16 176.463 1009.18 178.099L1007.68 180.611C1006.71 182.247 1007.42 183.989 1009.26 184.486L1021.43 187.767C1023.27 188.264 1023.53 189.617 1022.02 190.776C1022.04 190.785 1017.93 193.94 1016 197.873Z" fill="#808080"/>
<path d="M1066.99 107.55C1066.99 105.466 1068.69 103.772 1070.76 103.772H1073.31C1075.39 103.772 1077.08 105.476 1077.08 107.55V115.757C1077.08 117.841 1075.38 119.535 1073.31 119.535H1070.76C1068.68 119.535 1066.99 117.831 1066.99 115.757V107.55Z" fill="#395E57"/>
<path d="M1081.05 111.006C1081.05 108.426 1083.16 106.313 1085.74 106.313H1086.45C1089.03 106.313 1091.14 108.426 1091.14 111.006V125.942C1091.14 128.522 1089.03 130.634 1086.45 130.634H1085.74C1083.16 130.634 1081.05 128.522 1081.05 125.942V111.006Z" fill="#395E57"/>
<path d="M1098.96 75.2641C1098.25 73.609 1096.21 72.2556 1094.4 72.2556H1064.54C1062.74 72.2556 1060.62 73.5797 1059.82 75.1862L1053.87 87.2398C1053.07 88.856 1053.03 91.514 1053.77 93.1595L1060.53 108.037C1061.28 109.672 1063.36 111.016 1065.16 111.016H1093.13C1094.93 111.016 1097.01 109.682 1097.77 108.037L1104.28 93.8799C1105.03 92.2443 1105.07 89.5473 1104.36 87.8921L1098.96 75.2641Z" fill="#C9DADC"/>
<path d="M502.515 343.928C498.017 342.204 502.593 337.512 504.491 335.311C505.767 333.841 506.828 331.874 506.273 330.015C505.64 327.882 502.992 326.831 500.84 327.405C498.688 327.98 497.063 329.761 496.001 331.718C494.94 333.675 494.346 335.837 493.46 337.882C492.447 340.238 491.045 342.584 489.264 344.463C487.531 346.284 486.323 345.875 483.899 345.885C483.626 345.885 482.633 345.885 481.689 345.885L476.792 345.895C475.847 345.895 474.62 346.527 474.065 347.287L439.024 388.715C438.469 389.484 437.262 390.263 436.327 390.458L413.817 395.102C412.892 395.297 412.142 396.221 412.152 397.166L412.512 422.889C412.522 423.834 413.243 424.934 414.099 425.333L416.504 426.453C413.574 428.565 410.935 431.146 409.037 433.93C408.219 435.128 407.605 436.286 407.157 437.396C406.972 437.776 406.836 438.156 406.749 438.545C405.269 443.452 407.615 446.948 413.174 446.948C420.36 446.948 430.155 441.125 435.052 433.94C438.392 429.043 438.586 424.788 436.103 422.568C437.126 419.433 438.051 418.167 439.784 417.651C445.265 416.006 447.417 414.701 451.01 414.643C454.632 414.574 463.979 414.584 467.591 414.516C468.535 414.497 469.703 413.815 470.181 412.997L482.779 393.008C483.256 392.191 481.533 391.684 480.589 391.636L470.161 391.801C469.217 391.762 468.856 391.071 469.363 390.273C472.488 385.327 492.253 355.309 496.693 353.148C498.572 352.233 500.694 351.873 502.554 350.899C504.092 350.091 506 348.28 505.884 346.352C505.777 344.22 504.199 344.57 502.515 343.928ZM425.218 403.66L430.067 402.609C430.992 402.404 431.313 402.881 430.768 403.66L424.897 412.16C424.362 412.939 423.884 412.802 423.845 411.858L423.602 405.744C423.563 404.799 424.293 403.864 425.218 403.66Z" fill="#808080"/>
<path d="M493.45 349.254C491.143 349.254 489.244 347.365 489.244 345.047V342.224C489.244 339.916 491.133 338.018 493.45 338.018H502.573C504.881 338.018 506.779 339.907 506.779 342.224V345.047C506.779 347.355 504.891 349.254 502.573 349.254H493.45Z" fill="#395E57"/>
<path d="M493.45 334.075C491.143 334.075 489.244 332.186 489.244 329.869V327.045C489.244 324.737 491.133 322.839 493.45 322.839H502.573C504.881 322.839 506.779 324.728 506.779 327.045V329.869C506.779 332.176 504.891 334.075 502.573 334.075H493.45Z" fill="#395E57"/>
<path d="M457.572 313.716C455.732 314.505 454.223 316.783 454.223 318.779V351.96C454.223 353.956 455.693 356.322 457.485 357.208L470.872 363.819C472.663 364.705 475.623 364.754 477.444 363.926L493.976 356.41C495.797 355.582 497.287 353.265 497.287 351.269V320.181C497.287 318.185 495.797 315.858 493.986 315.021L478.252 307.796C476.431 306.959 473.442 306.92 471.602 307.709L457.572 313.716Z" fill="#C9DADC"/>
<path d="M497.101 352.741V318.226H466.617V352.741H497.101Z" fill="#E3CBB0"/>
<path d="M483.276 331.212L479.342 323.189C478.564 321.593 476.607 320.921 475.01 321.7L469.285 324.504C465.332 322.157 460.327 321.787 455.888 323.949C448.897 327.366 446.005 335.808 449.423 342.798C452.84 349.789 461.282 352.681 468.272 349.263C472.702 347.092 475.477 342.905 476.052 338.349L481.777 335.545C483.393 334.766 484.055 332.809 483.276 331.212Z" fill="#395E57"/>
<path d="M450.26 169.424C450.124 164.186 446.726 157.166 442.705 153.807L428.723 142.152C424.702 138.803 417.127 136.019 411.889 135.98L377.793 135.717L337.991 92.7699L309.794 135.191L242.117 134.665L244.804 129.437C245.671 127.743 244.834 126.321 242.925 126.273L238.262 126.165C236.353 126.117 235.643 124.773 236.675 123.167L263.946 80.7456C264.978 79.1391 264.258 77.8247 262.359 77.815L257.267 77.7955C255.359 77.7858 252.973 79.1002 251.951 80.7067L229.888 115.602C228.866 117.208 227.094 118.522 225.936 118.522C224.777 118.513 224.67 117.198 225.682 115.582L247.745 80.6872C248.767 79.0807 248.037 77.7468 246.129 77.7468L241.037 77.7273C239.128 77.7176 236.733 79.0223 235.711 80.6288L208.916 122.641C207.894 124.247 205.499 125.581 203.591 125.611L196.542 125.708C194.633 125.737 192.238 127.061 191.206 128.668L187.594 134.295C186.28 134.295 185.043 134.295 183.953 134.295H180.438C175.2 134.295 168.589 137.888 165.746 142.289L44.9278 328.817C42.0848 333.208 44.0321 336.83 49.2702 336.859L374.736 338.699C379.974 338.729 386.653 335.204 389.574 330.862L411.149 298.829C414.07 294.487 418.744 287.301 421.528 282.871L446.862 242.534C449.647 238.104 451.818 230.188 451.682 224.95L450.26 169.424Z" fill="#808080"/>
<path d="M889.562 227.073C884.694 226.352 876.691 225.768 871.774 225.768H859.808C854.891 225.768 849.809 229.653 848.514 234.394L832.546 292.9C831.251 297.641 826.5 299.929 821.982 297.982L663.836 229.701C659.318 227.754 651.607 226.157 646.69 226.157H628.133C623.216 226.157 616.984 229.526 614.297 233.635L470.677 452.799C467.98 456.908 469.801 460.277 474.718 460.277H781.888C786.805 460.277 793.075 456.937 795.821 452.858L820.658 415.938C823.404 411.858 829.674 408.518 834.591 408.518H915.889C920.806 408.518 928.186 406.308 932.295 403.611L958.349 386.485C962.458 383.788 967.891 378.122 970.412 373.906L995.026 332.828C997.557 328.613 999.524 321.135 999.397 316.218L997.81 251.949C997.694 247.032 993.614 242.427 988.746 241.706L889.562 227.073Z" fill="#808080"/>
<path d="M627.237 347.16C623.041 347.16 619.613 343.733 619.604 339.546L619.497 233.411C619.497 229.215 622.924 225.787 627.11 225.778L858.153 225.554C862.349 225.554 865.776 228.981 865.776 233.168V339.303C865.776 343.499 862.349 346.927 858.153 346.936L627.237 347.16Z" fill="#C9DADC"/>
<path d="M999.32 249.641C999.32 245.445 996.399 240.217 992.835 238.006L979.234 229.575C975.67 227.365 969.322 225.563 965.136 225.573L954.533 225.602L951.427 211.29L942.372 211.3L945.488 225.622L878.005 225.778C873.809 225.787 870.382 229.224 870.392 233.421L870.499 339.556C870.499 343.753 873.936 347.17 878.132 347.16L945.225 347.004L942.528 359.555L951.583 359.545L954.28 346.985L965.272 346.956C969.468 346.946 975.836 345.184 979.438 343.032L992.865 335.029C996.467 332.887 999.407 327.697 999.407 323.501L999.32 249.641Z" fill="#C9DADC"/>
<path d="M676.707 410.573H642.192V441.057H676.707V410.573Z" fill="#E3CBB0"/>
<path d="M697.66 376.515H663.145V407H697.66V376.515Z" fill="#E3CBB0"/>
<path d="M735.252 376.515H700.736V407H735.252V376.515Z" fill="#E3CBB0"/>
<path d="M772.843 376.515H738.328V407H772.843V376.515Z" fill="#E3CBB0"/>
<path d="M714.503 410.573H679.988V441.057H714.503V410.573Z" fill="#E3CBB0"/>
<path d="M752.3 410.573H717.785V441.057H752.3V410.573Z" fill="#E3CBB0"/>
<path d="M790.086 410.573H755.571V441.057H790.086V410.573Z" fill="#E3CBB0"/>
<path d="M604.236 409.438L619.657 337.964L614.432 336.836L599.011 408.311L604.236 409.438Z" fill="#C9DADC"/>
<path d="M599.622 164.838L615.043 236.313L620.268 235.185L604.847 163.711L599.622 164.838Z" fill="#C9DADC"/>
<path d="M1067.09 282.754C1064.42 286.853 1066.23 290.242 1071.13 290.281L1201.06 291.274C1205.95 291.313 1213.7 289.911 1218.28 288.158L1277.63 265.453C1282.21 263.701 1288.09 258.881 1290.7 254.733L1320.78 206.948C1323.39 202.8 1325.55 195.41 1325.59 190.513C1325.59 190.513 1325.71 173.455 1325.71 168.616C1325.71 156.436 1325.53 155.063 1325.53 155.063C1324.91 150.204 1320.41 145.862 1315.54 145.404L1190.15 133.721C1185.27 133.263 1177.62 132.893 1173.14 132.893C1168.66 132.893 1162.8 136.252 1160.12 140.351L1067.09 282.754Z" fill="#808080"/>
<path d="M1317.26 170.339C1317.26 168.937 1318.4 167.798 1319.8 167.798H1334.27C1335.67 167.798 1336.81 168.937 1336.81 170.339V177.447C1336.81 178.849 1335.67 179.988 1334.27 179.988H1319.8C1318.4 179.988 1317.26 178.849 1317.26 177.447V170.339Z" fill="#395E57"/>
<path d="M1172.69 211.456C1172.69 209.742 1174.1 208.34 1175.81 208.34H1199.03C1200.74 208.34 1202.15 209.742 1202.15 211.456V217.404C1202.15 219.118 1200.74 220.52 1199.03 220.52H1175.81C1174.1 220.52 1172.69 219.118 1172.69 217.404V211.456Z" fill="#395E57"/>
<path d="M1172.69 131.092C1172.69 129.378 1174.1 127.976 1175.81 127.976H1199.03C1200.74 127.976 1202.15 129.378 1202.15 131.092V137.041C1202.15 138.755 1200.74 140.157 1199.03 140.157H1175.81C1174.1 140.157 1172.69 138.755 1172.69 137.041V131.092Z" fill="#395E57"/>
<path d="M1160.59 141.247C1160.59 136.476 1164.5 132.572 1169.27 132.572H1250.5C1255.27 132.572 1263.03 133.166 1267.75 133.877L1317.17 141.422C1321.88 142.143 1325.75 146.631 1325.75 151.412V196.462C1325.75 201.232 1321.89 205.731 1317.17 206.451L1268.06 213.987C1263.35 214.707 1255.58 215.301 1250.81 215.301H1169.27C1164.5 215.301 1160.59 211.397 1160.59 206.626V141.247Z" fill="#C9DADC"/>
<path d="M1266.34 141.023C1266.34 138.949 1268.03 137.44 1270.1 137.674L1307.17 143.428C1309.24 143.662 1310.93 145.55 1310.93 147.634L1311.09 200.21C1311.09 202.284 1309.41 204.28 1307.36 204.621L1270.07 210.307C1268.02 210.657 1266.34 209.245 1266.34 207.162V141.023Z" fill="#395E57"/>
<path d="M1078.89 116.273C1088.7 116.273 1096.65 108.322 1096.65 98.5144C1096.65 88.7064 1088.7 80.7554 1078.89 80.7554C1069.09 80.7554 1061.14 88.7064 1061.14 98.5144C1061.14 108.322 1069.09 116.273 1078.89 116.273Z" fill="#E3CBB0"/>
<path d="M1091.15 90.9201L1088.61 85.7793C1090.7 82.2158 1091.04 77.7079 1089.07 73.7257C1085.96 67.4458 1078.36 64.8657 1072.08 67.9716C1065.8 71.0775 1063.22 78.6815 1066.32 84.9614C1068.29 88.9436 1072.07 91.4264 1076.18 91.9326L1078.72 97.0734C1079.43 98.5144 1081.18 99.1083 1082.62 98.3975L1089.84 94.8341C1091.27 94.1136 1091.86 92.3513 1091.15 90.9201Z" fill="#395E57"/>
<path d="M928.069 245.864C928.06 240.557 932.402 236.205 937.708 236.205L963.208 236.176C968.514 236.166 972.866 240.509 972.866 245.815L972.963 326.85C972.973 332.157 968.631 336.509 963.325 336.509L937.825 336.538C932.519 336.548 928.167 332.205 928.167 326.899L928.069 245.864Z" fill="#395E57"/>
<path d="M452.139 163.718C452.129 158.48 448.488 151.938 444.039 149.182L427.039 138.647C422.59 135.892 414.664 133.633 409.426 133.643H409.261L405.824 117.637L394.51 117.627L397.957 133.662L379.789 133.682L341.759 89.5959L337.699 93.0621L372.749 133.692L176.68 133.925C171.441 133.935 167.167 138.219 167.167 143.457L167.294 248.064C167.304 253.302 171.588 257.576 176.826 257.576L397.889 257.314L394.51 273.038L405.824 273.028L409.202 257.304H409.572C414.81 257.294 422.775 255.094 427.273 252.416L444.048 242.417C448.547 239.74 452.217 233.255 452.217 228.017L452.139 163.718Z" fill="#C9DADC"/>
<path d="M375.076 155.744C375.066 150.506 379.35 146.222 384.589 146.213L410.351 146.183C415.589 146.174 419.873 150.458 419.883 155.696L419.98 234.326C419.99 239.564 415.706 243.848 410.468 243.858L384.705 243.887C379.467 243.897 375.183 239.613 375.174 234.375L375.076 155.744Z" fill="#395E57"/>
<path d="M237.648 75.9651C237.648 73.8815 239.352 72.1874 241.426 72.1874H243.967C246.051 72.1874 247.745 73.8912 247.745 75.9651V84.1728C247.745 86.2563 246.041 87.9505 243.967 87.9505H241.426C239.342 87.9505 237.648 86.2466 237.648 84.1728V75.9651Z" fill="#395E57"/>
<path d="M251.308 75.9651C251.308 73.8815 253.012 72.1874 255.086 72.1874H257.627C259.711 72.1874 261.405 73.8912 261.405 75.9651V84.1728C261.405 86.2563 259.701 87.9505 257.627 87.9505H255.086C253.002 87.9505 251.308 86.2466 251.308 84.1728V75.9651Z" fill="#395E57"/>
<path d="M269.632 43.6794C268.921 42.0242 266.877 40.6709 265.075 40.6709H235.214C233.413 40.6709 231.29 41.995 230.492 43.6015L224.533 55.6551C223.735 57.2713 223.696 59.9293 224.436 61.5748L231.193 76.4518C231.943 78.0875 234.017 79.4311 235.818 79.4311H263.79C265.591 79.4311 267.675 78.0973 268.434 76.4518L274.938 62.2952C275.688 60.6595 275.727 57.9626 275.016 56.3074L269.632 43.6794Z" fill="#C9DADC"/>
<path d="M234.513 79.2496H265.572V51.8127H234.513V79.2496Z" fill="#E3CBB0"/>
<path d="M255.514 35.7736C248.972 33.2811 241.64 36.5622 239.148 43.105C237.561 47.2527 238.31 51.7216 240.735 55.0612L238.69 60.4162C238.116 61.9156 238.875 63.6097 240.374 64.1744L247.891 67.0369C249.39 67.6113 251.084 66.8519 251.649 65.3525L253.694 59.9975C257.734 59.1115 261.259 56.2782 262.846 52.1306C265.338 45.5975 262.057 38.2758 255.514 35.7736Z" fill="#395E57"/>
</svg>
