<svg width="375" height="200" viewBox="0 0 375 200" fill="none" xmlns="http://www.w3.org/2000/svg">
<rect width="375" height="200" fill="#FFFF00"/>
<g clip-path="url(#clip0_552:1164)">
<path d="M172.052 44.1846L172.04 35.2706L170.862 38.1444L161.074 35.2507L159.955 37.8661L150.108 35.3302L144.521 44.1846H139.153L139.141 35.2706L137.966 38.1444L128.178 35.2507L127.059 37.8661L117.212 35.3302L108.316 49.4325L112.349 54.1238L132.504 54.1834L128.354 60.7148L132.683 65.7071L157.288 65.8803L164.832 54.1238H174.688L182.118 44.1846H172.052Z" fill="#808080"/>
<path d="M127.221 35.245H117.152V44.1363H127.221V35.245Z" fill="#E3CBB0"/>
<path d="M138.187 35.245H128.118V44.1363H138.187V35.245Z" fill="#E3CBB0"/>
<path d="M149.151 35.245H139.082V44.1363H149.151V35.245Z" fill="#E3CBB0"/>
<path d="M160.117 35.245H150.048V44.1363H160.117V35.245Z" fill="#E3CBB0"/>
<path d="M171.083 35.245H161.014V44.1363H171.083V35.245Z" fill="#E3CBB0"/>
<path d="M182.049 35.245H171.981V44.1363H182.049V35.245Z" fill="#E3CBB0"/>
<path d="M339.219 47.6122C336.722 50.966 338.063 57.239 343.176 57.239C346.771 57.239 347.717 55.7822 349.109 53.6637C350.788 51.108 354.562 45.3063 354.562 45.3063L344.502 39.3145C344.502 39.3173 340.776 45.5222 339.219 47.6122Z" fill="#808080"/>
<path d="M349.597 48.0552C352.83 48.0552 355.451 45.4348 355.451 42.2025C355.451 38.9701 352.83 36.3497 349.597 36.3497C346.364 36.3497 343.744 38.9701 343.744 42.2025C343.744 45.4348 346.364 48.0552 349.597 48.0552Z" fill="#E3CBB0"/>
<path d="M324.359 47.6122C321.862 50.966 323.203 57.239 328.315 57.239C331.911 57.239 332.857 55.7822 334.249 53.6637C335.927 51.108 339.702 45.3063 339.702 45.3063L329.642 39.3145C329.642 39.3173 325.915 45.5222 324.359 47.6122Z" fill="#808080"/>
<path d="M334.737 48.0552C337.97 48.0552 340.591 45.4348 340.591 42.2025C340.591 38.9701 337.97 36.3497 334.737 36.3497C331.504 36.3497 328.883 38.9701 328.883 42.2025C328.883 45.4348 331.504 48.0552 334.737 48.0552Z" fill="#E3CBB0"/>
<path d="M309.498 47.6122C307.002 50.966 308.342 57.239 313.455 57.239C317.051 57.239 317.996 55.7822 319.388 53.6637C321.067 51.108 324.842 45.3063 324.842 45.3063L314.781 39.3145C314.781 39.3173 311.055 45.5222 309.498 47.6122Z" fill="#808080"/>
<path d="M319.877 48.0552C323.11 48.0552 325.731 45.4348 325.731 42.2025C325.731 38.9701 323.11 36.3497 319.877 36.3497C316.644 36.3497 314.023 38.9701 314.023 42.2025C314.023 45.4348 316.644 48.0552 319.877 48.0552Z" fill="#E3CBB0"/>
<path d="M273.844 85.9631C273.282 87.1075 273.813 88.6268 275.887 88.7404C277.611 88.8341 279.522 87.3517 280.136 85.9943C280.638 84.884 280.3 84.2763 280.3 84.2763C280.031 83.7907 280.263 83.3732 280.82 83.3505L285.589 83.1545C286.146 83.1318 286.827 82.7201 287.109 82.2401L287.316 81.8852C287.597 81.4053 288.034 80.6101 288.287 80.1132L290.804 75.2174C291.057 74.7233 290.812 74.3087 290.256 74.2945L288.895 74.2633C288.338 74.2491 288.191 73.9026 288.563 73.4909L295.348 65.9769C295.72 65.5651 295.578 65.1476 295.03 65.0483L293.664 64.804C293.116 64.7075 292.363 64.9631 291.988 65.372L286.589 71.29C286.214 71.7018 285.632 72.0341 285.294 72.0341C284.956 72.0312 284.944 71.6592 285.262 71.2049L291.758 61.9927C292.079 61.5383 291.886 61.1635 291.329 61.1635L289.844 61.1578C289.287 61.155 288.571 61.527 288.253 61.9813L280.363 73.258C280.045 73.7124 279.329 74.0929 278.772 74.0986L276.716 74.127C276.159 74.1355 275.461 74.5217 275.16 74.9902L272.919 78.4775C272.617 78.946 272.14 79.7184 271.856 80.1955L271.419 80.9282C271.135 81.4053 271.342 81.9136 271.879 82.0584L275.429 83.0154C275.966 83.1602 276.043 83.555 275.603 83.8929C275.608 83.8957 274.407 84.8158 273.844 85.9631Z" fill="#808080"/>
<path d="M288.719 59.6187C288.719 59.011 289.216 58.5168 289.821 58.5168H290.562C291.17 58.5168 291.664 59.0138 291.664 59.6187V62.0126C291.664 62.6203 291.167 63.1144 290.562 63.1144H289.821C289.213 63.1144 288.719 62.6175 288.719 62.0126V59.6187Z" fill="#395E57"/>
<path d="M292.82 60.6268C292.82 59.8743 293.437 59.2581 294.189 59.2581H294.397C295.149 59.2581 295.766 59.8743 295.766 60.6268V64.983C295.766 65.7355 295.149 66.3518 294.397 66.3518H294.189C293.437 66.3518 292.82 65.7355 292.82 64.983V60.6268Z" fill="#395E57"/>
<path d="M298.046 50.2021C297.839 49.7193 297.243 49.3246 296.717 49.3246H288.006C287.481 49.3246 286.861 49.7108 286.628 50.1793L284.893 53.695C284.66 54.1664 284.649 54.9416 284.865 55.4215L286.836 59.7607C287.054 60.2378 287.659 60.6297 288.185 60.6297H296.345C296.87 60.6297 297.478 60.2406 297.7 59.7607L299.597 55.6317C299.816 55.1546 299.827 54.368 299.62 53.8852L298.046 50.2021Z" fill="#C9DADC"/>
<path d="M124.051 128.562C122.739 128.06 124.074 126.691 124.628 126.049C125 125.62 125.309 125.047 125.147 124.504C124.963 123.882 124.19 123.576 123.563 123.743C122.935 123.911 122.461 124.43 122.151 125.001C121.841 125.572 121.668 126.202 121.41 126.799C121.114 127.486 120.705 128.17 120.185 128.718C119.68 129.249 119.328 129.13 118.62 129.133C118.541 129.133 118.251 129.133 117.976 129.133L116.547 129.136C116.272 129.136 115.914 129.32 115.752 129.542L105.53 141.625C105.368 141.849 105.016 142.077 104.743 142.133L98.1762 143.488C97.9063 143.545 97.6876 143.815 97.6905 144.09L97.7956 151.593C97.7984 151.868 98.0086 152.189 98.2585 152.305L98.9601 152.632C98.1051 153.248 97.3354 154.001 96.7816 154.813C96.543 155.162 96.3641 155.5 96.2334 155.824C96.1794 155.935 96.1397 156.045 96.1141 156.159C95.6824 157.59 96.3669 158.61 97.9887 158.61C100.085 158.61 102.942 156.912 104.371 154.816C105.345 153.387 105.402 152.146 104.678 151.499C104.976 150.585 105.246 150.215 105.751 150.065C107.35 149.585 107.978 149.204 109.026 149.187C110.083 149.168 112.809 149.17 113.863 149.15C114.139 149.145 114.479 148.946 114.619 148.707L118.294 142.877C118.433 142.639 117.93 142.491 117.655 142.477L114.613 142.525C114.337 142.514 114.232 142.312 114.38 142.08C115.292 140.637 121.057 131.882 122.353 131.252C122.901 130.985 123.52 130.879 124.062 130.596C124.511 130.36 125.068 129.832 125.034 129.269C125.003 128.647 124.542 128.75 124.051 128.562ZM101.502 145.984L102.917 145.677C103.186 145.618 103.28 145.757 103.121 145.984L101.408 148.463C101.252 148.69 101.113 148.651 101.102 148.375L101.031 146.592C101.019 146.316 101.232 146.044 101.502 145.984Z" fill="#808080"/>
<path d="M121.406 130.116C120.733 130.116 120.179 129.565 120.179 128.889V128.065C120.179 127.392 120.73 126.839 121.406 126.839H124.068C124.741 126.839 125.295 127.389 125.295 128.065V128.889C125.295 129.562 124.744 130.116 124.068 130.116H121.406Z" fill="#395E57"/>
<path d="M121.406 125.688C120.733 125.688 120.179 125.138 120.179 124.462V123.638C120.179 122.965 120.73 122.411 121.406 122.411H124.068C124.741 122.411 125.295 122.962 125.295 123.638V124.462C125.295 125.135 124.744 125.688 124.068 125.688H121.406Z" fill="#395E57"/>
<path d="M110.94 119.751C110.403 119.981 109.963 120.645 109.963 121.227V130.905C109.963 131.487 110.392 132.177 110.915 132.436L114.82 134.364C115.343 134.622 116.206 134.637 116.737 134.395L121.56 132.203C122.091 131.961 122.526 131.286 122.526 130.703V121.636C122.526 121.054 122.091 120.375 121.563 120.131L116.973 118.024C116.442 117.78 115.57 117.768 115.033 117.998L110.94 119.751Z" fill="#C9DADC"/>
<path d="M122.472 131.133V121.066H113.579V131.133H122.472Z" fill="#E3CBB0"/>
<path d="M118.439 124.854L117.291 122.514C117.064 122.048 116.493 121.852 116.027 122.079L114.357 122.897C113.204 122.213 111.744 122.105 110.449 122.735C108.409 123.732 107.566 126.194 108.563 128.233C109.56 130.272 112.022 131.115 114.062 130.118C115.354 129.485 116.163 128.264 116.331 126.935L118.001 126.117C118.473 125.89 118.666 125.319 118.439 124.854Z" fill="#395E57"/>
<path d="M108.807 77.6654C108.767 76.1376 107.776 74.0901 106.603 73.1104L102.525 69.7112C101.352 68.7343 99.1418 67.9222 97.6137 67.9108L87.667 67.8341L76.056 55.308L67.8305 67.6808L48.0878 67.5274L48.8717 66.0025C49.1245 65.5084 48.8802 65.0938 48.3235 65.0796L46.963 65.0483C46.4063 65.0341 46.199 64.6423 46.5 64.1737L54.4557 51.8009C54.7567 51.3323 54.5465 50.9489 53.9927 50.9461L52.5072 50.9404C51.9505 50.9376 51.2547 51.321 50.9564 51.7895L44.5204 61.9672C44.2221 62.4358 43.7052 62.8191 43.3672 62.8191C43.0292 62.8163 42.998 62.4329 43.2934 61.9615L49.7294 51.7838C50.0277 51.3153 49.8146 50.9262 49.2579 50.9262L47.7725 50.9205C47.2158 50.9177 46.5171 51.2982 46.2189 51.7668L38.4024 64.0203C38.1042 64.4889 37.4055 64.878 36.8488 64.8865L34.7924 64.9149C34.2357 64.9234 33.537 65.3096 33.2359 65.7782L32.1822 67.4195C31.7988 67.4195 31.438 67.4195 31.1199 67.4195H30.0946C28.5665 67.4195 26.638 68.4674 25.8086 69.751L-9.43639 124.155C-10.2658 125.436 -9.6977 126.492 -8.16963 126.501L86.7752 127.037C88.3033 127.046 90.2517 126.018 91.1038 124.751L97.3978 115.409C98.2499 114.142 99.6132 112.046 100.426 110.754L107.816 98.9891C108.628 97.697 109.262 95.3883 109.222 93.8605L108.807 77.6654Z" fill="#808080"/>
<path d="M236.961 94.4795C235.54 94.2694 233.206 94.099 231.771 94.099H228.281C226.846 94.099 225.364 95.2321 224.986 96.615L220.328 113.679C219.95 115.062 218.564 115.729 217.246 115.161L171.112 95.2463C169.794 94.6783 167.544 94.2126 166.11 94.2126H160.696C159.262 94.2126 157.444 95.1951 156.66 96.3935L114.763 160.316C113.977 161.515 114.508 162.497 115.942 162.497H205.55C206.984 162.497 208.813 161.523 209.614 160.334L216.86 149.565C217.661 148.375 219.49 147.401 220.924 147.401H244.641C246.075 147.401 248.228 146.757 249.427 145.97L257.027 140.975C258.226 140.188 259.811 138.536 260.546 137.306L267.726 125.325C268.465 124.095 269.039 121.914 269.002 120.48L268.539 101.735C268.505 100.301 267.315 98.9578 265.894 98.7477L236.961 94.4795Z" fill="#808080"/>
<path d="M160.435 129.505C159.211 129.505 158.211 128.506 158.208 127.284L158.177 96.3282C158.177 95.1043 159.177 94.1047 160.398 94.1019L227.798 94.0366C229.022 94.0366 230.022 95.0362 230.022 96.2573V127.213C230.022 128.437 229.022 129.437 227.798 129.44L160.435 129.505Z" fill="#C9DADC"/>
<path d="M268.979 101.062C268.979 99.8381 268.127 98.3132 267.088 97.6686L263.12 95.2093C262.08 94.5647 260.228 94.0394 259.007 94.0422L255.914 94.0507L255.008 89.8763L252.366 89.8791L253.275 94.0564L233.589 94.1018C232.365 94.1047 231.365 95.1071 231.368 96.331L231.399 127.287C231.399 128.511 232.402 129.508 233.626 129.505L253.199 129.46L252.412 133.12L255.053 133.117L255.84 129.454L259.047 129.445C260.271 129.443 262.128 128.929 263.179 128.301L267.096 125.967C268.147 125.342 269.005 123.828 269.005 122.604L268.979 101.062Z" fill="#C9DADC"/>
<path d="M174.866 148H164.798V156.892H174.866V148Z" fill="#E3CBB0"/>
<path d="M180.979 138.067H170.91V146.958H180.979V138.067Z" fill="#E3CBB0"/>
<path d="M191.945 138.067H181.876V146.958H191.945V138.067Z" fill="#E3CBB0"/>
<path d="M202.911 138.067H192.843V146.958H202.911V138.067Z" fill="#E3CBB0"/>
<path d="M185.893 148H175.824V156.892H185.893V148Z" fill="#E3CBB0"/>
<path d="M196.918 148H186.85V156.892H196.918V148Z" fill="#E3CBB0"/>
<path d="M207.941 148H197.873V156.892H207.941V148Z" fill="#E3CBB0"/>
<path d="M153.725 147.669L158.224 126.823L156.7 126.494L152.201 147.341L153.725 147.669Z" fill="#C9DADC"/>
<path d="M152.379 76.3278L156.878 97.1746L158.402 96.8458L153.903 75.999L152.379 76.3278Z" fill="#C9DADC"/>
<path d="M288.75 110.72C287.969 111.916 288.498 112.904 289.926 112.915L327.83 113.205C329.258 113.216 331.519 112.807 332.854 112.296L350.168 105.674C351.503 105.163 353.219 103.757 353.98 102.547L362.757 88.6097C363.518 87.4 364.148 85.2446 364.16 83.8162C364.16 83.8162 364.194 78.841 364.194 77.4296C364.194 73.8771 364.143 73.4767 364.143 73.4767C363.961 72.0596 362.649 70.7931 361.226 70.6596L324.649 67.2519C323.226 67.1185 320.993 67.0106 319.687 67.0106C318.38 67.0106 316.67 67.9903 315.889 69.1858L288.75 110.72Z" fill="#808080"/>
<path d="M361.729 77.9322C361.729 77.5233 362.061 77.191 362.47 77.191H366.69C367.099 77.191 367.432 77.5233 367.432 77.9322V80.0052C367.432 80.4142 367.099 80.7464 366.69 80.7464H362.47C362.061 80.7464 361.729 80.4142 361.729 80.0052V77.9322Z" fill="#395E57"/>
<path d="M319.556 89.9245C319.556 89.4247 319.965 89.0158 320.465 89.0158H327.239C327.739 89.0158 328.148 89.4247 328.148 89.9245V91.6596C328.148 92.1594 327.739 92.5683 327.239 92.5683H320.465C319.965 92.5683 319.556 92.1594 319.556 91.6596V89.9245Z" fill="#395E57"/>
<path d="M319.556 66.4852C319.556 65.9854 319.965 65.5765 320.465 65.5765H327.239C327.739 65.5765 328.148 65.9854 328.148 66.4852V68.2203C328.148 68.7201 327.739 69.129 327.239 69.129H320.465C319.965 69.129 319.556 68.7201 319.556 68.2203V66.4852Z" fill="#395E57"/>
<path d="M316.026 69.4471C316.026 68.0556 317.165 66.9169 318.556 66.9169H342.253C343.645 66.9169 345.908 67.0901 347.286 67.2974L361.703 69.4982C363.078 69.7083 364.205 71.0175 364.205 72.4118V85.5513C364.205 86.9428 363.081 88.2548 361.703 88.4649L347.377 90.6629C346.002 90.8731 343.735 91.0463 342.344 91.0463H318.556C317.165 91.0463 316.026 89.9075 316.026 88.5161V69.4471Z" fill="#C9DADC"/>
<path d="M346.874 69.3817C346.874 68.7769 347.368 68.3367 347.97 68.4048L358.786 70.0831C359.388 70.1513 359.882 70.7022 359.882 71.3099L359.928 86.6446C359.928 87.2495 359.439 87.8316 358.84 87.931L347.962 89.5894C347.365 89.6917 346.874 89.2799 346.874 88.6722V69.3817Z" fill="#395E57"/>
<path d="M292.193 62.1631C295.054 62.1631 297.373 59.8441 297.373 56.9834C297.373 54.1227 295.054 51.8037 292.193 51.8037C289.331 51.8037 287.012 54.1227 287.012 56.9834C287.012 59.8441 289.331 62.1631 292.193 62.1631Z" fill="#E3CBB0"/>
<path d="M295.769 54.7683L295.027 53.2689C295.638 52.2296 295.735 50.9148 295.161 49.7533C294.255 47.9217 292.037 47.1691 290.205 48.075C288.373 48.9809 287.62 51.1987 288.526 53.0304C289.1 54.1918 290.202 54.916 291.4 55.0637L292.142 56.563C292.349 56.9833 292.86 57.1566 293.281 56.9493L295.385 55.9099C295.803 55.6998 295.976 55.1858 295.769 54.7683Z" fill="#395E57"/>
<path d="M248.194 99.9603C248.191 98.4126 249.458 97.1432 251.006 97.1432L258.444 97.1347C259.992 97.1319 261.262 98.3984 261.262 99.9461L261.29 123.581C261.293 125.129 260.026 126.398 258.479 126.398L251.04 126.407C249.492 126.41 248.222 125.143 248.222 123.596L248.194 99.9603Z" fill="#395E57"/>
<path d="M109.355 76.0012C109.353 74.4734 108.29 72.5651 106.992 71.7614L102.033 68.6888C100.735 67.8852 98.4233 67.2264 96.8952 67.2292H96.8469L95.8443 62.5606L92.5439 62.5578L93.5493 67.2349L88.2494 67.2406L77.1553 54.3821L75.9709 55.3931L86.1959 67.2434L28.9983 67.3116C27.4703 67.3144 26.2234 68.5639 26.2234 70.0917L26.2603 100.602C26.2632 102.13 27.5129 103.376 29.0409 103.376L93.5295 103.3L92.5439 107.886L95.8443 107.883L96.8299 103.297H96.9378C98.4659 103.294 100.789 102.652 102.101 101.871L106.995 98.955C108.307 98.174 109.378 96.2827 109.378 94.755L109.355 76.0012Z" fill="#C9DADC"/>
<path d="M86.8748 73.6755C86.8719 72.1477 88.1216 70.8982 89.6497 70.8954L97.1651 70.8868C98.6932 70.884 99.9429 72.1335 99.9457 73.6613L99.9741 96.5952C99.977 98.1229 98.7272 99.3724 97.1992 99.3753L89.6838 99.3838C88.1557 99.3866 86.906 98.1371 86.9032 96.6094L86.8748 73.6755Z" fill="#395E57"/>
<path d="M46.7842 50.4065C46.7842 49.7988 47.2812 49.3047 47.8862 49.3047H48.6275C49.2353 49.3047 49.7295 49.8016 49.7295 50.4065V52.8004C49.7295 53.4081 49.2325 53.9023 48.6275 53.9023H47.8862C47.2784 53.9023 46.7842 53.4053 46.7842 52.8004V50.4065Z" fill="#395E57"/>
<path d="M50.7688 50.4065C50.7688 49.7988 51.2658 49.3047 51.8708 49.3047H52.6121C53.22 49.3047 53.7142 49.8016 53.7142 50.4065V52.8004C53.7142 53.4081 53.2171 53.9023 52.6121 53.9023H51.8708C51.263 53.9023 50.7688 53.4053 50.7688 52.8004V50.4065Z" fill="#395E57"/>
<path d="M56.1144 40.9899C55.9071 40.5072 55.3106 40.1124 54.7851 40.1124H46.074C45.5485 40.1124 44.9294 40.4986 44.6965 40.9672L42.9582 44.4828C42.7253 44.9542 42.7139 45.7295 42.9298 46.2094L44.901 50.5485C45.1197 51.0256 45.7246 51.4175 46.2501 51.4175H54.4102C54.9357 51.4175 55.5435 51.0285 55.765 50.5485L57.6623 46.4195C57.881 45.9424 57.8924 45.1558 57.6851 44.6731L56.1144 40.9899Z" fill="#C9DADC"/>
<path d="M45.8694 51.3645H54.9299V43.3621H45.8694V51.3645Z" fill="#E3CBB0"/>
<path d="M51.996 38.684C50.0874 37.957 47.9486 38.914 47.2215 40.8223C46.7586 42.0321 46.9773 43.3355 47.6845 44.3096L47.088 45.8714C46.9205 46.3087 47.142 46.8029 47.5794 46.9676L49.7721 47.8025C50.2095 47.97 50.7037 47.7485 50.8684 47.3112L51.4649 45.7493C52.6436 45.4909 53.6718 44.6645 54.1348 43.4548C54.8619 41.5493 53.9047 39.4138 51.996 38.684Z" fill="#395E57"/>
</g>
<defs>
<clipPath id="clip0_552:1164">
<rect width="375" height="140" fill="white" transform="translate(0 30)"/>
</clipPath>
</defs>
</svg>
