<svg width="2177" height="1762" viewBox="0 0 2177 1762" fill="none" xmlns="http://www.w3.org/2000/svg">
<g clip-path="url(#clip0_581:347)">
<path d="M130.736 -997C-184.126 -997 -515 -779.197 -515 -354.293C-515 6.59158 -262.427 210.993 47.4559 307.409C140.401 336.334 910.227 587.014 1023.77 626.449C1029.7 628.949 1034.76 633.096 1038.35 638.384C1041.94 643.673 1043.9 649.876 1043.98 656.241C1043.86 662.485 1041.96 668.57 1038.51 673.803C1035.06 679.036 1030.19 683.206 1024.46 685.841C900.073 729.324 131.029 979.812 38.3762 1007.48C-246.513 1092.62 -514.024 1305.41 -514.024 1666.29C-514.024 2091.29 -183.15 2309 131.712 2309H2170.54L2171.62 1821.43L103.106 1820.65C-0.871681 1820.65 -55.4477 1765.22 -55.4477 1655.88C-55.4477 1554.93 27.2463 1514.05 122.73 1483.3C218.214 1452.54 1061.46 1176.31 1247.45 1114.99C1417.03 1059.16 1581.25 934.015 1581.25 656.145C1581.25 385.409 1417.03 261.515 1247.45 197.591C1049.16 122.772 218.311 -139.864 122.73 -170.91C27.1487 -201.956 -55.4477 -242.547 -55.4477 -343.398C-55.4477 -452.83 -0.871651 -508.269 103.106 -508.269L2317 -509.04L2315.93 -996.614L130.736 -997Z" fill="#FFFF00"/>
</g>
<defs>
<clipPath id="clip0_581:347">
<rect width="2177" height="1762" fill="white"/>
</clipPath>
</defs>
</svg>
