<svg width="1440" height="544" viewBox="0 0 1440 544" fill="none" xmlns="http://www.w3.org/2000/svg">
<g clip-path="url(#clip0_501:561)">
<rect width="1440" height="544" fill="white"/>
<g clip-path="url(#clip1_501:561)">
<path d="M1649.02 -33.9998L-123.638 278.567L-75.0164 554.313L1697.64 241.746L1649.02 -33.9998Z" fill="#C9DADC"/>
<path d="M9.67208 359.331L50.1488 352.581C51.2765 352.394 52.5655 351.393 53.0378 350.348L56.4453 342.678C56.9063 341.635 57.5867 339.909 57.9581 338.823L60.6358 331.071C61.0092 329.997 61.1158 328.208 60.8832 327.088L57.9235 313.095C57.6909 311.976 56.5815 310.87 55.4799 310.607L48.2741 308.97C47.1632 308.72 45.4691 309.019 44.5105 309.634L0.00835848 338.302C-0.950166 338.917 -2.21443 340.125 -2.79108 340.977C-3.37911 341.831 -3.32916 343.311 -2.6939 344.254L6.48528 357.947C7.10917 358.892 8.5444 359.518 9.67208 359.331Z" fill="#808080"/>
<path d="M200.716 299.7C201.351 300.643 202.787 301.269 203.914 301.082L244.391 294.332C245.519 294.145 246.808 293.144 247.28 292.099L250.687 284.429C251.148 283.386 251.829 281.66 252.2 280.574L254.878 272.822C255.251 271.748 255.358 269.958 255.125 268.839L252.166 254.846C251.933 253.727 250.824 252.621 249.711 252.36L242.505 250.723C241.394 250.473 239.7 250.772 238.741 251.387L194.237 280.044C193.279 280.659 192.014 281.866 191.438 282.718C190.85 283.572 190.9 285.052 191.535 285.996L200.716 299.7Z" fill="#808080"/>
<path d="M271.814 283.564C272.449 284.507 273.884 285.134 275.012 284.946L315.489 278.196C316.617 278.009 317.906 277.008 318.378 275.963L321.785 268.293C322.246 267.25 322.927 265.524 323.298 264.439L325.976 256.686C326.349 255.612 326.456 253.823 326.223 252.703L323.264 238.711C323.031 237.591 321.921 236.485 320.809 236.224L313.603 234.587C312.492 234.338 310.798 234.636 309.839 235.251L265.335 263.908C264.376 264.523 263.112 265.731 262.536 266.583C261.959 267.435 261.997 268.917 262.633 269.86L271.814 283.564Z" fill="#808080"/>
<path d="M371.141 264.889C371.776 265.833 373.212 266.459 374.339 266.272L414.816 259.521C415.944 259.334 417.233 258.333 417.705 257.289L421.112 249.618C421.573 248.576 422.254 246.849 422.625 245.764L425.303 238.011C425.676 236.937 425.783 235.148 425.55 234.028L422.591 220.036C422.358 218.916 421.249 217.81 420.147 217.547L412.941 215.911C411.83 215.661 410.136 215.96 409.178 216.574L364.673 245.231C363.715 245.846 362.451 247.054 361.874 247.906C361.286 248.76 361.336 250.24 361.971 251.183L371.141 264.889Z" fill="#808080"/>
<path d="M651.303 217.916C651.959 218.844 653.402 219.445 654.526 219.235L694.866 211.712C695.99 211.502 697.261 210.469 697.711 209.428L700.977 201.689C701.425 200.637 702.067 198.894 702.416 197.813L704.943 190.004C705.292 188.923 705.373 187.126 705.109 186.024L701.878 172.091C701.625 170.987 700.493 169.885 699.386 169.658L692.147 168.168C691.029 167.943 689.352 168.274 688.396 168.9L644.452 198.408C643.509 199.043 642.271 200.27 641.699 201.144C641.135 202.006 641.197 203.484 641.855 204.423L651.303 217.916Z" fill="#808080"/>
<path d="M797.08 189.128C797.715 190.072 799.15 190.698 800.278 190.511L840.755 183.76C841.882 183.573 843.171 182.572 843.644 181.528L847.051 173.857C847.512 172.815 848.193 171.088 848.564 170.003L851.242 162.25C851.615 161.176 851.722 159.387 851.489 158.267L848.529 144.275C848.297 143.155 847.187 142.049 846.086 141.786L838.88 140.149C837.769 139.9 836.075 140.199 835.116 140.813L790.603 169.484C789.644 170.098 788.38 171.306 787.803 172.158C787.215 173.012 787.265 174.492 787.901 175.435L797.08 189.128Z" fill="#808080"/>
<path d="M825.469 214.558C824.919 215.429 825.003 216.903 825.67 217.829L835.319 231.193C835.986 232.118 837.446 232.682 838.556 232.462L878.775 224.316C879.896 224.094 881.153 223.041 881.576 221.981L884.716 214.194C885.139 213.134 885.768 211.382 886.103 210.291L888.518 202.444C888.853 201.353 888.901 199.563 888.623 198.451L885.18 184.579C884.904 183.479 883.763 182.391 882.647 182.177L875.381 180.797C874.264 180.583 872.58 180.939 871.641 181.597L828.18 211.782C827.239 212.429 826.017 213.676 825.469 214.558Z" fill="#808080"/>
<path d="M740.626 287.388C741.262 288.331 742.697 288.957 743.825 288.77L784.301 282.02C785.429 281.832 786.718 280.831 787.19 279.787L790.598 272.116C791.059 271.074 791.739 269.348 792.111 268.262L794.788 260.509C795.162 259.435 795.268 257.646 795.036 256.526L792.076 242.534C791.843 241.414 790.734 240.309 789.621 240.048L782.415 238.411C781.304 238.161 779.61 238.46 778.652 239.074L734.148 267.732C733.189 268.346 731.925 269.554 731.348 270.406C730.771 271.258 730.81 272.74 731.445 273.683L740.626 287.388Z" fill="#808080"/>
<path d="M773.103 314.453L769.491 300.622C769.204 299.524 768.055 298.461 766.93 298.26L759.655 296.964C758.529 296.764 756.86 297.14 755.935 297.807L712.813 328.519C711.885 329.175 710.678 330.443 710.142 331.323C709.594 332.205 709.712 333.673 710.389 334.586L720.205 347.838C720.882 348.75 722.351 349.3 723.459 349.07L763.58 340.436C764.698 340.192 765.941 339.129 766.352 338.071L769.403 330.241C769.815 329.184 770.417 327.413 770.741 326.324L773.057 318.447C773.367 317.349 773.392 315.563 773.103 314.453Z" fill="#808080"/>
<path d="M836.717 328.15L829.511 326.513C828.4 326.263 826.706 326.562 825.747 327.176L781.243 355.834C780.285 356.448 779.02 357.656 778.444 358.508C777.856 359.362 777.906 360.842 778.541 361.785L787.72 375.478C788.355 376.421 789.791 377.048 790.918 376.86L831.395 370.11C832.523 369.923 833.812 368.922 834.284 367.877L837.691 360.207C838.152 359.164 838.833 357.438 839.204 356.353L841.882 348.6C842.255 347.526 842.362 345.737 842.129 344.617L839.17 330.625C838.939 329.516 837.828 328.399 836.717 328.15Z" fill="#808080"/>
<path d="M691.106 343.449L683.959 341.544C682.863 341.245 681.158 341.487 680.182 342.069L634.63 369.035C633.654 369.618 632.345 370.775 631.731 371.61C631.116 372.445 631.105 373.913 631.699 374.887L640.363 388.917C640.957 389.891 642.375 390.555 643.5 390.415L684.211 385.195C685.347 385.053 686.678 384.091 687.179 383.077L690.878 375.531C691.377 374.505 692.132 372.801 692.543 371.744L695.508 364.092C695.92 363.035 696.097 361.245 695.91 360.118L693.473 346.033C693.261 344.898 692.2 343.737 691.106 343.449Z" fill="#808080"/>
<path d="M601.593 341.916L594.387 340.279C593.276 340.03 591.582 340.328 590.624 340.943L546.12 369.6C545.161 370.215 543.897 371.423 543.32 372.275C542.732 373.129 542.782 374.609 543.417 375.552L552.596 389.245C553.232 390.188 554.667 390.814 555.795 390.627L596.271 383.877C597.399 383.69 598.688 382.689 599.16 381.644L602.568 373.974C603.029 372.931 603.709 371.205 604.081 370.119L606.758 362.367C607.132 361.292 607.238 359.503 607.006 358.384L604.046 344.391C603.806 343.296 602.706 342.177 601.593 341.916Z" fill="#808080"/>
<path d="M517.557 281.22L510.351 279.583C509.241 279.333 507.546 279.632 506.588 280.247L462.084 308.904C461.125 309.518 459.861 310.726 459.284 311.578C458.708 312.43 458.746 313.912 459.381 314.856L468.561 328.549C469.196 329.492 470.631 330.118 471.759 329.931L512.235 323.181C513.363 322.993 514.652 321.992 515.125 320.948L518.532 313.277C518.993 312.235 519.673 310.508 520.045 309.423L522.722 301.67C523.096 300.596 523.202 298.807 522.97 297.687L520.01 283.695C519.768 282.589 518.67 281.481 517.557 281.22Z" fill="#808080"/>
<path d="M600.06 289.804L592.854 288.167C591.743 287.917 590.049 288.216 589.091 288.83L544.586 317.488C543.628 318.102 542.364 319.31 541.787 320.162C541.21 321.014 541.249 322.496 541.884 323.439L551.063 337.132C551.699 338.076 553.134 338.702 554.261 338.515L594.738 331.764C595.866 331.577 597.155 330.576 597.627 329.532L601.035 321.861C601.496 320.819 602.176 319.092 602.547 318.007L605.225 310.254C605.599 309.18 605.705 307.391 605.473 306.271L602.513 292.279C602.271 291.173 601.171 290.053 600.06 289.804Z" fill="#808080"/>
<path d="M889.609 174.056C890.244 174.999 891.679 175.625 892.807 175.438L933.284 168.688C934.412 168.501 935.701 167.5 936.173 166.455L939.58 158.785C940.041 157.742 940.722 156.016 941.093 154.93L943.771 147.178C944.144 146.103 944.251 144.314 944.018 143.195L941.058 129.202C940.826 128.083 939.716 126.977 938.604 126.716L931.398 125.079C930.287 124.829 928.593 125.128 927.634 125.742L883.132 154.411C882.174 155.026 880.909 156.233 880.333 157.085C879.756 157.937 879.795 159.42 880.43 160.363L889.609 174.056Z" fill="#808080"/>
<path d="M1043.64 146.392C1044.27 147.335 1045.71 147.961 1046.84 147.774L1087.31 141.024C1088.44 140.837 1089.73 139.836 1090.2 138.791L1093.61 131.121C1094.07 130.078 1094.75 128.352 1095.12 127.267L1097.8 119.514C1098.17 118.44 1098.28 116.651 1098.05 115.531L1095.09 101.539C1094.85 100.419 1093.75 99.3131 1092.63 99.0521L1085.43 97.4151C1084.32 97.1661 1082.62 97.4641 1081.66 98.0791L1037.16 126.736C1036.2 127.351 1034.94 128.558 1034.36 129.41C1033.78 130.262 1033.82 131.745 1034.46 132.688L1043.64 146.392Z" fill="#808080"/>
<path d="M1136.65 128.914C1137.28 129.857 1138.72 130.483 1139.84 130.296L1180.32 123.546C1181.45 123.359 1182.74 122.358 1183.21 121.313L1186.62 113.642C1187.08 112.6 1187.76 110.874 1188.13 109.788L1190.81 102.035C1191.18 100.961 1191.29 99.172 1191.06 98.053L1188.1 84.06C1187.86 82.94 1186.75 81.835 1185.65 81.572L1178.45 79.935C1177.34 79.685 1175.64 79.984 1174.68 80.598L1130.18 109.256C1129.22 109.87 1127.96 111.078 1127.38 111.93C1126.79 112.784 1126.84 114.264 1127.48 115.207L1136.65 128.914Z" fill="#808080"/>
<path d="M1274.18 102.669C1274.83 103.61 1276.28 104.198 1277.41 103.989L1317.77 96.543C1318.89 96.333 1320.17 95.311 1320.62 94.259L1323.9 86.529C1324.34 85.477 1325 83.732 1325.35 82.651L1327.89 74.852C1328.23 73.77 1328.32 71.974 1328.06 70.87L1324.86 56.9327C1324.6 55.817 1323.48 54.7247 1322.36 54.4884L1315.12 52.9865C1314 52.7503 1312.32 53.0811 1311.37 53.7184L1267.36 83.144C1266.42 83.779 1265.18 85.005 1264.61 85.869C1264.03 86.732 1264.11 88.208 1264.75 89.149L1274.18 102.669Z" fill="#808080"/>
<path d="M1352.4 101.398C1353 102.372 1354.41 103.061 1355.53 102.921L1396.27 98.0004C1397.4 97.8614 1398.74 96.9204 1399.26 95.9034L1403.01 88.3834C1403.52 87.3674 1404.27 85.6633 1404.7 84.6033L1407.73 76.9763C1408.15 75.9173 1408.34 74.1374 1408.15 73.0094L1405.82 58.9065C1405.63 57.7788 1404.58 56.6156 1403.49 56.3165L1396.35 54.3619C1395.26 54.0627 1393.55 54.2819 1392.57 54.8529L1346.82 81.4793C1345.83 82.0523 1344.52 83.1984 1343.9 84.0224C1343.28 84.8464 1343.25 86.3284 1343.85 87.3024L1352.4 101.398Z" fill="#808080"/>
<path d="M1328.32 103.264L1283.82 131.921C1282.86 132.536 1281.6 133.744 1281.02 134.596C1280.44 135.448 1280.48 136.93 1281.12 137.873L1290.3 151.566C1290.93 152.509 1292.37 153.135 1293.49 152.948L1333.97 146.198C1335.1 146.011 1336.39 145.01 1336.86 143.965L1340.27 136.295C1340.73 135.252 1341.41 133.526 1341.78 132.44L1344.46 124.688C1344.83 123.613 1344.94 121.824 1344.71 120.705L1341.75 106.712C1341.51 105.593 1340.4 104.487 1339.29 104.226L1332.09 102.589C1330.97 102.339 1329.28 102.638 1328.32 103.264Z" fill="#808080"/>
<path d="M1079.98 178.579C1079.4 179.433 1079.45 180.913 1080.08 181.856L1089.26 195.549C1089.89 196.492 1091.33 197.118 1092.46 196.931L1132.93 190.181C1134.06 189.994 1135.35 188.993 1135.82 187.948L1139.23 180.278C1139.69 179.235 1140.37 177.509 1140.74 176.424L1143.42 168.671C1143.79 167.597 1143.9 165.808 1143.67 164.688L1140.71 150.696C1140.48 149.576 1139.37 148.47 1138.25 148.209L1131.05 146.572C1129.94 146.322 1128.24 146.621 1127.28 147.236L1082.78 175.893C1081.82 176.519 1080.57 177.713 1079.98 178.579Z" fill="#808080"/>
<path d="M570.78 229.137C571.415 230.08 572.851 230.706 573.978 230.519L614.455 223.769C615.583 223.581 616.872 222.58 617.344 221.536L620.752 213.865C621.213 212.823 621.893 211.097 622.264 210.011L624.942 202.258C625.315 201.184 625.422 199.395 625.189 198.275L622.23 184.283C621.997 183.163 620.888 182.058 619.786 181.795L612.58 180.158C611.47 179.908 609.775 180.207 608.817 180.821L564.313 209.479C563.354 210.093 562.09 211.301 561.513 212.153C560.925 213.007 560.975 214.487 561.61 215.43L570.78 229.137Z" fill="#808080"/>
<path d="M1321.99 243.637L1314.9 241.606C1313.8 241.296 1312.1 241.49 1311.11 242.052L1265.06 268.167C1264.07 268.728 1262.75 269.865 1262.12 270.679C1261.49 271.505 1261.44 272.979 1262.03 273.954L1270.43 288.148C1271.01 289.124 1272.41 289.827 1273.54 289.71L1314.34 285.248C1315.46 285.119 1316.82 284.188 1317.34 283.183L1321.18 275.706C1321.7 274.687 1322.47 273.004 1322.91 271.954L1326.02 264.358C1326.46 263.308 1326.67 261.524 1326.5 260.394L1324.32 246.263C1324.12 245.126 1323.08 243.95 1321.99 243.637Z" fill="#808080"/>
<path d="M932.611 203.568C932.061 204.439 932.145 205.913 932.812 206.839L942.452 220.216C943.119 221.142 944.578 221.705 945.689 221.486L985.923 213.36C987.044 213.139 988.301 212.085 988.724 211.025L991.875 203.236C992.298 202.176 992.927 200.424 993.263 199.333L993.297 199.198C993.33 199.251 993.351 199.306 993.382 199.347L999.209 208.391C999.824 209.349 1001.26 210.093 1002.39 210.033L1030.09 208.737C1031.23 208.688 1032.13 207.71 1032.08 206.569L1030.53 165.081C1030.49 163.939 1029.94 162.244 1029.29 161.302L1015.59 141.067C1014.96 140.124 1013.97 140.158 1013.4 141.148L993.084 176.644L992.34 173.621C992.064 172.521 990.922 171.433 989.806 171.219L982.551 169.837C981.435 169.623 979.751 169.979 978.81 170.626L935.309 200.783C934.383 201.45 933.161 202.697 932.611 203.568Z" fill="#808080"/>
<path d="M1100.95 269.143L1093.74 267.506C1092.63 267.257 1090.94 267.555 1089.98 268.17L1045.47 296.827C1044.51 297.442 1043.25 298.649 1042.67 299.501C1042.1 300.353 1042.14 301.836 1042.77 302.779L1051.95 316.472C1052.59 317.415 1054.02 318.041 1055.15 317.854L1095.62 311.104C1096.75 310.917 1098.04 309.916 1098.51 308.871L1101.92 301.201C1102.38 300.158 1103.06 298.432 1103.43 297.346L1106.11 289.593C1106.49 288.519 1106.59 286.73 1106.36 285.611L1103.4 271.618C1103.16 270.512 1102.06 269.393 1100.95 269.143Z" fill="#808080"/>
<path d="M1024.54 259.378L1017.34 257.741C1016.23 257.492 1014.53 257.79 1013.57 258.405L969.069 287.062C968.111 287.677 966.846 288.884 966.27 289.736C965.693 290.588 965.732 292.071 966.367 293.014L975.546 306.707C976.181 307.65 977.617 308.276 978.744 308.089L1019.22 301.339C1020.35 301.152 1021.64 300.151 1022.11 299.106L1025.52 291.436C1025.98 290.393 1026.66 288.667 1027.03 287.581L1029.71 279.828C1030.08 278.754 1030.19 276.965 1029.96 275.846L1027 261.853C1026.75 260.747 1025.65 259.628 1024.54 259.378Z" fill="#808080"/>
<path d="M957.479 302.249L950.273 300.612C949.162 300.362 947.468 300.661 946.51 301.275L902.006 329.933C901.047 330.547 899.783 331.755 899.206 332.607C898.618 333.461 898.668 334.941 899.303 335.884L908.482 349.577C909.118 350.52 910.553 351.146 911.681 350.959L952.157 344.209C953.285 344.022 954.574 343.021 955.046 341.976L958.454 334.306C958.915 333.263 959.595 331.537 959.967 330.452L962.644 322.699C963.018 321.625 963.124 319.836 962.892 318.716L959.932 304.724C959.69 303.617 958.59 302.498 957.479 302.249Z" fill="#808080"/>
<path d="M806.667 259.658C806.039 260.483 805.994 261.957 806.576 262.933L814.974 277.115C815.557 278.091 816.958 278.794 818.087 278.677L858.883 274.203C860.009 274.075 861.369 273.144 861.883 272.138L865.724 264.661C866.247 263.643 867.018 261.959 867.452 260.898L870.556 253.305C870.992 252.254 871.194 250.472 871.03 249.34L868.855 235.21C868.679 234.08 867.639 232.903 866.552 232.591L859.441 230.562C858.343 230.251 856.644 230.457 855.653 231.019L809.612 257.145C808.621 257.707 807.295 258.832 806.667 259.658Z" fill="#808080"/>
<path d="M429.189 271.619L384.378 299.802C383.418 300.406 382.14 301.604 381.55 302.447C380.962 303.301 380.987 304.773 381.611 305.718L390.643 319.508C391.269 320.464 392.693 321.092 393.823 320.917L434.376 314.599C435.505 314.423 436.808 313.431 437.282 312.398L440.777 304.759C441.252 303.726 441.955 301.995 442.339 300.919L445.103 293.187C445.488 292.111 445.617 290.317 445.398 289.207L442.586 275.189C442.365 274.067 441.276 272.946 440.163 272.685L432.968 270.976C431.848 270.739 430.149 271.015 429.189 271.619Z" fill="#808080"/>
<path d="M433.037 395.906L425.897 393.976C424.801 393.677 423.095 393.907 422.117 394.478L376.464 421.275C375.486 421.846 374.178 423.003 373.551 423.84C372.937 424.675 372.914 426.145 373.508 427.119L382.119 441.182C382.713 442.155 384.122 442.833 385.258 442.692L425.984 437.621C427.12 437.479 428.453 436.529 428.954 435.514L432.68 427.987C433.181 426.973 433.936 425.268 434.356 424.198L437.358 416.552C437.769 415.495 437.958 413.703 437.772 412.587L435.393 398.492C435.192 397.355 434.132 396.194 433.037 395.906Z" fill="#808080"/>
<path d="M258.866 415.655L251.671 413.946C250.558 413.685 248.871 413.959 247.902 414.575L203.102 442.757C202.142 443.36 200.864 444.559 200.274 445.401C199.686 446.255 199.711 447.728 200.335 448.673L209.367 462.462C209.993 463.419 211.417 464.047 212.547 463.871L253.1 457.553C254.229 457.378 255.532 456.386 256.006 455.353L259.501 447.714C259.976 446.68 260.679 444.95 261.063 443.874L263.827 436.141C264.212 435.065 264.341 433.272 264.122 432.162L261.31 418.143C261.07 417.048 259.981 415.927 258.866 415.655Z" fill="#808080"/>
<path d="M82.535 435.386L75.3399 433.677C74.227 433.416 72.5402 433.69 71.5703 434.307L26.7598 462.49C25.7993 463.094 24.5216 464.292 23.9316 465.135C23.3436 465.989 23.3688 467.461 23.9927 468.407L33.0247 482.196C33.6506 483.152 35.0745 483.781 36.2042 483.605L76.7571 477.287C77.8868 477.111 79.1891 476.119 79.6635 475.086L83.1585 467.447C83.6329 466.414 84.3361 464.684 84.7208 463.607L87.4842 455.875C87.8689 454.799 87.9982 453.006 87.779 451.895L84.9672 437.877C84.7366 436.769 83.6479 435.647 82.535 435.386Z" fill="#808080"/>
<path d="M2.73174 396.501C2.42155 395.406 1.24255 394.372 0.109562 394.196L-7.20332 393.082C-8.32493 392.905 -9.99706 393.329 -10.9075 394.017L-53.2585 425.776C-54.1688 426.465 -55.3375 427.749 -55.8586 428.65C-56.3798 429.551 -56.2275 431.013 -55.53 431.91L-45.393 444.918C-44.6955 445.815 -43.2101 446.327 -42.1078 446.062L-2.20848 436.436C-1.1062 436.171 0.11925 435.076 0.503979 434L3.35498 426.099C3.73971 425.023 4.29442 423.249 4.59354 422.153L6.71151 414.217C7.01063 413.121 6.98613 411.32 6.67595 410.226L2.73174 396.501Z" fill="#808080"/>
<path d="M896.543 294.164C896.867 293.076 896.89 291.278 896.602 290.18L892.991 276.349C892.704 275.251 891.555 274.187 890.429 273.987L883.154 272.69C882.029 272.49 880.36 272.867 879.432 273.523L836.308 304.223C835.38 304.879 834.174 306.147 833.637 307.027C833.089 307.909 833.207 309.377 833.884 310.289L843.701 323.542C844.378 324.454 845.846 325.004 846.955 324.773L887.076 316.14C888.193 315.896 889.436 314.832 889.848 313.775L892.899 305.945C893.31 304.887 893.912 303.116 894.236 302.028L896.543 294.164Z" fill="#808080"/>
<path d="M179.917 397.968C179.302 397.01 178.095 395.616 177.227 394.878L174.952 392.946C174.083 392.209 172.462 391.791 171.342 392.024L119.48 402.622C118.36 402.855 116.753 403.513 115.895 404.098C115.036 404.684 114.838 405.95 115.452 406.908L125.597 422.822C126.212 423.781 127.628 424.762 128.735 424.989L168.911 433.357C170.031 433.593 171.706 433.251 172.647 432.605L181.331 426.665C182.272 426.019 183.263 424.589 183.537 423.486L186.582 411.166C186.856 410.063 186.58 408.365 185.966 407.406L179.917 397.968Z" fill="#808080"/>
<path d="M511.348 231.644C510.733 230.685 509.526 229.292 508.658 228.554L506.383 226.622C505.514 225.884 503.893 225.467 502.773 225.699L450.911 236.298C449.791 236.53 448.184 237.189 447.328 237.785C446.469 238.371 446.271 239.637 446.885 240.595L457.03 256.509C457.645 257.468 459.061 258.449 460.168 258.676L500.344 267.044C501.464 267.281 503.139 266.938 504.08 266.292L512.764 260.352C513.705 259.706 514.696 258.277 514.97 257.173L518.015 244.853C518.289 243.75 518.013 242.052 517.399 241.093L511.348 231.644Z" fill="#808080"/>
<path d="M512.514 367.448C511.879 366.505 510.864 364.937 510.249 363.978L505.973 357.276C505.358 356.318 504.039 355.085 503.039 354.534L491.389 348.171C490.389 347.62 488.729 347.584 487.701 348.07L485.04 349.337C484.012 349.823 482.703 351.039 482.137 352.018L456.659 395.891C456.081 396.872 456.127 398.459 456.764 399.413L462.687 408.405C463.313 409.361 464.604 410.634 465.571 411.261L486.422 424.725C487.375 425.342 488.648 425.047 489.24 424.087L517.358 378.095C517.949 377.123 517.919 375.558 517.293 374.601L512.514 367.448Z" fill="#808080"/>
<path d="M708.703 275.161L713.772 266.471C714.349 265.49 714.51 263.808 714.143 262.724L712.108 256.834C711.731 255.763 710.943 254.085 710.36 253.109L705.827 245.619C705.234 244.645 703.827 243.78 702.687 243.699L650.389 239.86C649.25 239.78 647.429 239.96 646.335 240.27L645.945 240.386C644.851 240.696 644.448 241.74 645.063 242.699L655.765 259.641C656.368 260.601 657.687 261.834 658.696 262.371L694.811 281.878C695.809 282.417 697.451 282.421 698.457 281.88L705.859 277.913C706.845 277.388 708.126 276.142 708.703 275.161Z" fill="#808080"/>
<path d="M1191.75 210.422C1191.13 209.464 1189.93 208.07 1189.06 207.332L1186.78 205.401C1185.91 204.663 1184.29 204.245 1183.17 204.478L1131.31 215.076C1130.19 215.309 1128.58 215.967 1127.73 216.564C1126.87 217.149 1126.67 218.415 1127.28 219.374L1137.43 235.288C1138.04 236.246 1139.46 237.228 1140.57 237.455L1180.74 245.823C1181.86 246.059 1183.54 245.717 1184.48 245.07L1193.16 239.131C1194.1 238.484 1195.09 237.055 1195.37 235.951L1198.41 223.632C1198.69 222.528 1198.41 220.83 1197.8 219.872L1191.75 210.422Z" fill="#808080"/>
<path d="M1185.41 260.651L1178.2 259.014C1177.09 258.765 1175.4 259.063 1174.44 259.678L1129.94 288.335C1128.98 288.95 1127.71 290.158 1127.14 291.01C1126.55 291.864 1126.6 293.344 1127.23 294.287L1136.41 307.98C1137.05 308.923 1138.48 309.549 1139.61 309.362L1180.09 302.612C1181.22 302.425 1182.5 301.424 1182.98 300.379L1186.38 292.709C1186.85 291.666 1187.53 289.94 1187.9 288.854L1190.57 281.102C1190.95 280.028 1191.05 278.238 1190.82 277.119L1187.86 263.126C1187.62 262.02 1186.52 260.901 1185.41 260.651Z" fill="#808080"/>
<path d="M1258.08 195.034L1257.94 173.779C1257.93 172.644 1257.36 170.961 1256.67 170.062L1248.23 158.914C1247.54 158.003 1246.14 157.686 1245.12 158.195L1197.71 182.054C1196.69 182.561 1194.94 182.788 1193.83 182.55L1188.75 181.465C1187.64 181.226 1187.26 181.797 1187.91 182.727L1199.41 199.293C1200.06 200.234 1201.52 200.927 1202.65 200.855L1256.02 197.249C1257.16 197.164 1258.08 196.171 1258.08 195.034Z" fill="#808080"/>
<path d="M1096.6 213.225C1095.91 212.314 1094.52 211.997 1093.49 212.506L1046.08 236.365C1045.07 236.872 1043.31 237.099 1042.2 236.861L1037.12 235.776C1036.01 235.537 1035.63 236.108 1036.28 237.038L1047.78 253.604C1048.43 254.545 1049.89 255.238 1051.02 255.166L1104.39 251.56C1105.52 251.489 1106.45 250.493 1106.44 249.346L1106.3 228.092C1106.29 226.957 1105.72 225.274 1105.03 224.375L1096.6 213.225Z" fill="#808080"/>
<path d="M1389.11 151.307C1388.42 150.396 1387.03 150.079 1386 150.588L1338.59 174.447C1337.58 174.954 1335.82 175.181 1334.71 174.943L1329.63 173.857C1328.52 173.619 1328.14 174.19 1328.79 175.12L1340.29 191.686C1340.94 192.627 1342.4 193.32 1343.53 193.248L1396.9 189.642C1398.03 189.571 1398.96 188.575 1398.95 187.428L1398.81 166.173C1398.8 165.038 1398.23 163.356 1397.55 162.457L1389.11 151.307Z" fill="#808080"/>
<path d="M573.482 276.904C574.128 277.846 575.587 278.538 576.723 278.467L630.088 274.86C631.224 274.789 632.151 273.793 632.136 272.647L631.999 251.392C631.987 250.257 631.421 248.575 630.735 247.676L622.285 236.527C621.597 235.617 620.205 235.299 619.181 235.808L571.779 259.666C570.766 260.172 569.012 260.4 567.903 260.161L562.823 259.076C561.714 258.838 561.334 259.409 561.979 260.338L573.482 276.904Z" fill="#808080"/>
<path d="M449.405 347.308L440.956 336.159C440.268 335.249 438.875 334.932 437.851 335.441L390.438 359.3C389.425 359.807 387.671 360.034 386.563 359.796L381.482 358.71C380.373 358.472 379.993 359.043 380.638 359.973L392.141 376.539C392.788 377.48 394.246 378.172 395.383 378.101L448.747 374.495C449.884 374.423 450.81 373.427 450.796 372.281L450.659 351.026C450.669 349.887 450.105 348.216 449.405 347.308Z" fill="#808080"/>
<path d="M162.236 442.507C161.568 441.581 160.264 441.365 159.336 442.021L116.007 472.687C115.079 473.343 113.383 473.83 112.245 473.761L107.066 473.443C105.928 473.374 105.557 474.061 106.236 474.985L117.565 490.303C118.242 491.216 119.715 491.788 120.825 491.569L175.299 480.956C176.421 480.734 177.212 479.634 177.049 478.513L174.753 461.567C174.6 460.433 173.929 458.758 173.262 457.832L162.236 442.507Z" fill="#808080"/>
<path d="M95.6483 386.284L87.9942 376.519C87.2967 375.622 85.8133 375.122 84.713 375.398L33.2531 388.411C32.1529 388.687 30.4012 388.527 29.3679 388.052L24.6476 385.883C23.6143 385.409 23.2932 385.782 23.9512 386.721L37.7091 406.501C38.3557 407.442 39.7996 408.383 40.9178 408.608L89.7353 418.442C90.8536 418.667 91.9191 417.928 92.1079 416.804L96.5995 389.95C96.7769 388.828 96.3571 387.179 95.6483 386.284Z" fill="#808080"/>
<path d="M940.497 225.156L905.795 265.322C905.056 266.179 903.523 267.059 902.408 267.255L897.298 268.192C896.174 268.402 895.818 269.309 896.506 270.219L908.406 286.047C909.094 286.957 910.493 287.308 911.521 286.822L965.899 261.371C966.927 260.885 967.239 259.728 966.583 258.8L943.04 225.282C942.396 224.353 941.249 224.297 940.497 225.156Z" fill="#808080"/>
<path d="M729.835 231.972C730.45 232.93 731.882 233.674 733.021 233.614L760.718 232.318C761.859 232.269 762.753 231.291 762.705 230.151L761.157 188.663C761.12 187.52 760.563 185.825 759.916 184.883L746.219 164.648C745.584 163.705 744.593 163.739 744.029 164.729L723.063 201.347C722.499 202.337 722.079 204.076 722.128 205.217L722.786 219.123C722.835 220.263 723.382 221.972 724.008 222.928L729.835 231.972Z" fill="#808080"/>
<path d="M211.776 371.271L211.454 362.593L213.671 365.59C214.347 366.503 215.82 367.076 216.93 366.856L262.666 357.948L220.821 389.783C219.91 390.471 218.757 391.776 218.236 392.677C217.715 393.578 217.878 395.038 218.587 395.933L228.816 408.866C229.525 409.761 231.009 410.262 232.109 409.986L271.937 400.09C273.038 399.814 274.261 398.708 274.637 397.645L277.438 389.73C277.823 388.653 278.364 386.87 278.652 385.776L280.72 377.825C281.006 376.72 280.984 374.93 280.651 373.84L276.602 360.121C276.281 359.029 275.09 357.996 273.973 357.842L267.823 356.945L271.427 356.239C272.549 356.018 273.34 354.917 273.177 353.797L270.881 336.85C270.728 335.716 270.057 334.041 269.39 333.115L258.352 317.792C257.685 316.866 256.381 316.651 255.453 317.306L212.124 347.973C211.801 348.205 211.391 348.406 210.939 348.568L210.239 329.769C210.201 328.627 209.644 326.931 208.998 325.99L195.3 305.755C194.665 304.812 193.674 304.846 193.11 305.836L172.145 342.454C171.581 343.444 171.161 345.183 171.209 346.323L171.533 353.078L168.274 347.697C167.68 346.723 166.273 345.857 165.134 345.777L112.836 341.938C111.696 341.857 109.876 342.038 108.781 342.348L108.392 342.464C107.297 342.774 106.895 343.818 107.51 344.776L118.211 361.718C118.814 362.679 120.134 363.911 121.143 364.449L157.257 383.955C158.255 384.495 159.897 384.498 160.904 383.957L168.306 379.991C169.312 379.45 170.605 378.202 171.171 377.223L176.123 368.741L178.914 373.067C179.529 374.026 180.962 374.77 182.1 374.71L209.798 373.413C210.917 373.38 211.814 372.413 211.776 371.271Z" fill="#808080"/>
<path d="M1217.69 152.925C1218.36 153.851 1219.67 154.066 1220.6 153.421L1253.5 130.338C1254.43 129.682 1255.56 128.288 1255.99 127.238L1261.82 113.231C1262.26 112.181 1262.11 110.542 1261.5 109.584L1255.9 100.958C1255.27 100.001 1254.15 98.522 1253.41 97.669L1245.11 88.252C1244.36 87.399 1242.81 86.734 1241.67 86.771L1238.62 86.876C1237.48 86.913 1236.1 87.765 1235.56 88.774L1210.4 135.347C1209.86 136.345 1209.33 138.009 1209.23 139.047C1209.13 140.073 1209.6 141.678 1210.26 142.606L1217.69 152.925Z" fill="#808080"/>
<path d="M293.221 318.068C292.633 318.922 292.658 320.395 293.282 321.34L302.314 335.129C302.94 336.086 304.364 336.714 305.494 336.538L346.047 330.22C347.176 330.045 348.479 329.053 348.953 328.02L352.448 320.381C352.922 319.347 353.626 317.617 354.012 316.552L356.776 308.82C357.16 307.744 357.29 305.951 357.071 304.84L354.259 290.822C354.038 289.7 352.949 288.579 351.836 288.318L344.641 286.609C343.528 286.348 341.841 286.622 340.871 287.238L296.061 315.422C295.089 316.027 293.823 317.224 293.221 318.068Z" fill="#808080"/>
<path d="M361.581 369.383L354.5 367.255C353.411 366.931 351.695 367.105 350.701 367.655L304.319 393.173C303.325 393.723 301.975 394.841 301.343 395.644C300.701 396.461 300.645 397.936 301.205 398.916L309.423 413.212C309.996 414.201 311.377 414.919 312.519 414.812L353.375 410.879C354.506 410.773 355.867 409.853 356.407 408.855L360.338 401.432C360.876 400.423 361.67 398.747 362.118 397.695L365.324 390.142C365.771 389.09 366.009 387.313 365.844 386.182L363.851 372.019C363.702 370.908 362.672 369.718 361.581 369.383Z" fill="#808080"/>
<path d="M88.1523 316.91C88.7254 317.899 90.1064 318.617 91.2481 318.51L132.104 314.576C133.235 314.471 134.597 313.551 135.136 312.553L139.068 305.13C139.605 304.121 140.4 302.445 140.847 301.393L144.053 293.84C144.5 292.788 144.738 291.011 144.573 289.88L142.58 275.717C142.416 274.585 141.397 273.393 140.308 273.069L133.227 270.941C132.138 270.617 130.422 270.791 129.428 271.341L83.0459 296.86C82.0526 297.41 80.7021 298.527 80.0699 299.331C79.4284 300.147 79.372 301.623 79.9317 302.602L88.1523 316.91Z" fill="#808080"/>
<path d="M540.179 279.728C545.035 278.872 548.275 274.244 547.419 269.389C547.056 267.331 545.965 265.929 546.395 263.649C546.69 262.061 547.51 261.061 547.211 259.367C546.632 256.081 543.488 253.88 540.202 254.459C537.803 254.882 535.913 256.798 535.179 259.085C534.346 261.67 533.977 263.635 531.846 265.581C529.968 267.296 529.411 269.985 529.852 272.487C530.696 277.344 535.324 280.584 540.179 279.728Z" fill="#808080"/>
<path d="M536.571 249.554C537.958 249.309 538.885 247.985 538.64 246.598C538.396 245.211 537.072 244.284 535.684 244.528C534.297 244.773 533.37 246.097 533.615 247.484C533.871 248.869 535.183 249.799 536.571 249.554Z" fill="#808080"/>
<path d="M532.688 257.191C533.643 257.022 534.28 256.113 534.112 255.158C533.943 254.203 533.034 253.566 532.079 253.734C531.124 253.903 530.487 254.812 530.655 255.767C530.812 256.724 531.733 257.359 532.688 257.191Z" fill="#808080"/>
<path d="M292.172 424.285C291.142 421.969 288.762 420.572 286.247 420.206C281.371 419.483 276.841 422.849 276.118 427.725C275.395 432.601 278.762 437.131 283.637 437.854C285.707 438.157 287.374 437.57 289.414 438.699C290.818 439.483 291.516 440.58 293.213 440.831C296.523 441.315 299.592 439.038 300.086 435.727C300.447 433.319 299.227 430.919 297.287 429.491C295.093 427.885 293.339 426.916 292.172 424.285Z" fill="#808080"/>
<path d="M308.856 436.725C310.244 436.48 311.171 435.157 310.926 433.769C310.681 432.381 309.358 431.454 307.97 431.699C306.582 431.944 305.655 433.267 305.9 434.655C306.145 436.043 307.468 436.97 308.856 436.725Z" fill="#808080"/>
<path d="M301.862 426.246C300.898 426.099 300.008 426.772 299.859 427.724C299.713 428.688 300.386 429.578 301.338 429.726C302.302 429.873 303.191 429.2 303.34 428.248C303.487 427.284 302.825 426.393 301.862 426.246Z" fill="#808080"/>
<path d="M1279.06 178.601C1280.69 179.381 1282.21 179.323 1283.59 180.768C1284.55 181.771 1284.85 182.844 1286.17 183.491C1288.77 184.732 1291.87 183.646 1293.13 181.045C1294.04 179.161 1293.64 176.874 1292.41 175.203C1291.03 173.326 1289.83 172.082 1289.54 169.613C1289.29 167.442 1287.68 165.698 1285.7 164.756C1281.88 162.922 1277.3 164.539 1275.46 168.356C1273.62 172.174 1275.24 176.765 1279.06 178.601Z" fill="#808080"/>
<path d="M1296.55 182.586C1294.75 182.658 1293.35 184.183 1293.43 185.985C1293.51 187.79 1295.03 189.186 1296.83 189.102C1298.64 189.019 1300.03 187.506 1299.95 185.704C1299.87 183.901 1298.34 182.505 1296.55 182.586Z" fill="#808080"/>
<path d="M1300.61 175.891C1300.67 177.136 1301.72 178.1 1302.96 178.045C1304.21 177.989 1305.17 176.94 1305.11 175.695C1305.06 174.451 1304.01 173.487 1302.77 173.542C1301.53 173.595 1300.57 174.645 1300.61 175.891Z" fill="#808080"/>
<path d="M788.778 204.215C790.404 203.929 791.491 202.377 791.204 200.751C790.917 199.125 789.366 198.039 787.74 198.326C786.114 198.612 785.027 200.164 785.314 201.79C785.601 203.416 787.152 204.502 788.778 204.215Z" fill="#808080"/>
<path d="M807.09 206.673C806.135 206.841 805.498 207.75 805.667 208.706C805.835 209.661 806.745 210.298 807.7 210.129C808.655 209.961 809.292 209.051 809.123 208.096C808.955 207.141 808.045 206.504 807.09 206.673Z" fill="#808080"/>
<path d="M796.462 225.054C798.543 224.687 800.346 223.677 801.728 222.273C802.729 223.363 804.25 223.939 805.819 223.662C808.263 223.231 809.902 220.89 809.471 218.446C809.054 216.081 806.86 214.474 804.507 214.76C804.483 214.425 804.446 214.08 804.385 213.738C803.449 208.428 798.38 204.879 793.07 205.815C787.76 206.751 784.21 211.821 785.147 217.131C786.083 222.441 791.152 225.99 796.462 225.054Z" fill="#808080"/>
<path d="M150.253 274.88C151.775 275.069 153.167 273.991 153.356 272.468C153.545 270.946 152.467 269.554 150.945 269.365C149.423 269.176 148.03 270.254 147.841 271.776C147.654 273.31 148.73 274.691 150.253 274.88Z" fill="#808080"/>
<path d="M172.235 272.153C173.398 272.299 174.47 271.465 174.617 270.302C174.763 269.139 173.93 268.067 172.767 267.92C171.603 267.774 170.531 268.608 170.385 269.771C170.227 270.936 171.06 272.008 172.235 272.153Z" fill="#808080"/>
<path d="M159.937 283.923C163.424 284.352 166.611 281.879 167.039 278.391C167.258 276.641 166.739 274.962 165.727 273.675C166.614 272.921 167.236 271.862 167.391 270.615C167.714 267.99 165.85 265.599 163.237 265.274C160.613 264.952 158.221 266.815 157.897 269.428C157.794 270.244 157.912 271.044 158.19 271.757C156.197 272.624 154.685 274.485 154.403 276.809C153.965 280.31 156.447 283.483 159.937 283.923Z" fill="#808080"/>
<path d="M356.553 277.04L357.849 263.575L353.065 257.056L344.373 262.282L338.417 269.264L343.077 275.747L356.553 277.04Z" fill="#808080"/>
<path d="M795.176 301.674L789.221 308.657L793.883 315.15L806.128 309.263L803.923 301.609L795.769 290.408L795.176 301.674Z" fill="#808080"/>
<path d="M530.919 391.836L530.328 403.113L524.372 410.096L529.034 416.59L541.28 410.702L539.074 403.048L530.919 391.836Z" fill="#808080"/>
<path d="M1054.44 181.066L1048.47 188.039L1053.15 194.531L1065.39 188.643L1063.17 180.992L1055.02 169.791L1054.44 181.066Z" fill="#808080"/>
<path d="M1221.95 265.967L1217.63 268.64L1209.49 270.427L1223.68 289.802L1234.09 276.113L1228.55 267.934L1221.95 265.967Z" fill="#808080"/>
<path d="M1221.72 250.685C1222.36 251.628 1223.79 252.254 1224.92 252.067L1265.39 245.317C1266.52 245.13 1267.81 244.129 1268.28 243.084L1271.69 235.413C1272.15 234.371 1272.83 232.645 1273.2 231.559L1275.88 223.806C1276.26 222.732 1276.36 220.943 1276.13 219.824L1273.17 205.831C1272.94 204.711 1271.83 203.606 1270.73 203.343L1263.52 201.706C1262.41 201.456 1260.72 201.755 1259.76 202.369L1215.25 231.027C1214.29 231.641 1213.03 232.849 1212.45 233.701C1211.86 234.555 1211.91 236.035 1212.55 236.978L1221.72 250.685Z" fill="#808080"/>
<path d="M687.826 295.924C687.212 294.965 686.005 293.572 685.136 292.834L682.861 290.902C681.992 290.164 680.371 289.747 679.251 289.979L627.389 300.578C626.269 300.811 624.662 301.469 623.806 302.066C622.948 302.651 622.749 303.917 623.363 304.875L633.509 320.79C634.123 321.748 635.539 322.73 636.646 322.956L676.822 331.324C677.943 331.561 679.617 331.218 680.558 330.572L689.242 324.632C690.183 323.986 691.174 322.557 691.448 321.453L694.493 309.134C694.768 308.03 694.492 306.332 693.877 305.373L687.826 295.924Z" fill="#808080"/>
<path d="M1381.23 196.801L1374.03 195.164C1372.91 194.914 1371.22 195.213 1370.26 195.828L1325.76 224.485C1324.8 225.1 1323.54 226.307 1322.96 227.159C1322.37 228.013 1322.42 229.493 1323.06 230.437L1332.23 244.13C1332.87 245.073 1334.31 245.699 1335.43 245.512L1375.91 238.762C1377.04 238.574 1378.33 237.573 1378.8 236.529L1382.21 228.858C1382.67 227.816 1383.35 226.09 1383.72 225.004L1386.4 217.251C1386.77 216.177 1386.88 214.388 1386.64 213.268L1383.68 199.276C1383.44 198.17 1382.34 197.062 1381.23 196.801Z" fill="#808080"/>
<path d="M1477.68 204.533L1470.48 202.824C1469.37 202.563 1467.68 202.837 1466.71 203.453L1421.9 231.637C1420.94 232.24 1419.66 233.438 1419.07 234.281C1418.48 235.135 1418.51 236.608 1419.13 237.553L1428.17 251.342C1428.79 252.299 1430.22 252.927 1431.35 252.751L1471.9 246.433C1473.03 246.257 1474.33 245.266 1474.8 244.232L1478.3 236.593C1478.77 235.56 1479.48 233.83 1479.86 232.754L1482.63 225.021C1483.01 223.945 1483.14 222.152 1482.92 221.042L1480.11 207.023C1479.87 205.928 1478.78 204.796 1477.68 204.533Z" fill="#808080"/>
<path d="M1488.93 134.444C1488.62 133.35 1487.44 132.315 1486.31 132.139L1478.99 131.025C1477.87 130.848 1476.2 131.272 1475.29 131.96L1432.94 163.72C1432.03 164.408 1430.86 165.692 1430.34 166.593C1429.82 167.494 1429.97 168.956 1430.67 169.853L1440.81 182.861C1441.5 183.758 1442.99 184.27 1444.09 184.006L1483.99 174.379C1485.09 174.115 1486.32 173.019 1486.7 171.943L1489.55 164.043C1489.94 162.966 1490.49 161.192 1490.79 160.096L1492.91 152.161C1493.21 151.064 1493.18 149.263 1492.87 148.169L1488.93 134.444Z" fill="#808080"/>
<path d="M1406.52 96.627L1412.45 105.618C1413.07 106.574 1414.37 107.847 1415.33 108.474L1436.18 121.938C1437.14 122.556 1438.41 122.261 1439 121.3L1467.12 75.309C1467.71 74.337 1467.68 72.771 1467.05 71.815L1462.27 64.6501C1461.64 63.7069 1460.62 62.139 1460.01 61.1805L1455.73 54.4782C1455.12 53.5197 1453.8 52.2868 1452.8 51.7362L1441.15 45.3727C1440.15 44.8221 1438.49 44.7864 1437.46 45.2725L1434.8 46.5389C1433.77 47.025 1432.46 48.2407 1431.9 49.2198L1406.42 93.093C1405.84 94.097 1405.89 95.672 1406.52 96.627Z" fill="#808080"/>
<path d="M45.6695 338.88L48.0914 338.453L48.2257 334.959L48.3053 334.945C49.431 334.746 51.0523 333.968 51.9072 333.231L55.1233 330.46C55.9876 329.71 56.5275 328.184 56.3311 327.07L53.8917 313.302C53.6932 312.176 52.6621 310.916 51.6027 310.493L47.5672 308.884C46.5078 308.461 44.7294 308.282 43.6037 308.48L43.5696 308.486L42.2251 305.183L39.8031 305.61L41.1477 308.914L-6.24969 317.306C-7.37537 317.505 -8.12261 318.586 -7.92412 319.712L-3.94969 342.119C-3.7512 343.245 -2.6698 343.992 -1.54413 343.793L45.7924 335.388L45.6695 338.88Z" fill="white"/>
<path d="M192.696 285.533L240.032 277.127L239.898 280.621L242.32 280.194L242.454 276.7L242.534 276.686C243.66 276.488 245.281 275.71 246.136 274.973L249.352 272.201C250.216 271.451 250.756 269.926 250.56 268.811L248.12 255.044C247.922 253.918 246.891 252.658 245.831 252.235L241.796 250.625C240.736 250.202 238.958 250.023 237.832 250.222L237.798 250.228L236.454 246.924L234.032 247.351L235.376 250.655L187.994 259.068C186.869 259.267 186.121 260.348 186.32 261.474L190.294 283.881C190.5 284.982 191.582 285.729 192.696 285.533Z" fill="white"/>
<path d="M311.01 264.495L313.431 264.068L313.566 260.574L313.645 260.56C314.771 260.362 316.392 259.583 317.247 258.846L320.463 256.075C321.328 255.325 321.868 253.799 321.671 252.685L319.232 238.917C319.033 237.792 318.002 236.531 316.943 236.109L312.907 234.499C311.848 234.076 310.069 233.897 308.944 234.096L308.91 234.102L307.565 230.798L305.143 231.225L306.488 234.529L259.106 242.942C257.98 243.141 257.233 244.222 257.431 245.348L261.406 267.755C261.604 268.88 262.686 269.628 263.811 269.429L311.148 261.024L311.01 264.495Z" fill="white"/>
<path d="M363.123 250.734L410.459 242.328L410.325 245.822L412.747 245.395L412.881 241.901L412.961 241.887C414.087 241.689 415.708 240.911 416.563 240.174L419.779 237.402C420.643 236.652 421.183 235.127 420.987 234.012L418.547 220.245C418.349 219.119 417.318 217.859 416.258 217.436L412.223 215.826C411.163 215.403 409.385 215.224 408.259 215.423L408.225 215.429L406.881 212.125L404.459 212.552L405.803 215.856L358.421 224.269C357.296 224.468 356.548 225.549 356.747 226.675L360.721 249.082C360.914 250.174 361.997 250.932 363.123 250.734Z" fill="white"/>
<path d="M643.017 203.901L690.182 194.589L690.118 198.082L692.532 197.609L692.596 194.116L692.675 194.102C693.797 193.881 695.403 193.082 696.254 192.322L699.412 189.491C700.263 188.731 700.779 187.198 700.557 186.076L697.845 172.357C697.624 171.235 696.574 170.002 695.505 169.592L691.436 168.059C690.37 167.661 688.584 167.507 687.462 167.728L687.428 167.734L686.019 164.465L683.605 164.938L685.016 168.218L637.806 177.539C636.684 177.76 635.95 178.851 636.172 179.972L640.576 202.292C640.805 203.389 641.895 204.123 643.017 203.901Z" fill="white"/>
<path d="M789.06 174.961L836.396 166.556L836.262 170.05L838.684 169.623L838.818 166.129L838.898 166.115C840.023 165.916 841.645 165.138 842.5 164.401L845.716 161.63C846.58 160.88 847.12 159.354 846.923 158.24L844.484 144.472C844.286 143.346 843.255 142.086 842.195 141.663L838.16 140.054C837.1 139.631 835.322 139.452 834.196 139.65L834.162 139.656L832.817 136.353L830.396 136.78L831.74 140.083L784.358 148.497C783.232 148.695 782.485 149.777 782.684 150.902L786.658 173.31C786.853 174.412 787.936 175.171 789.06 174.961Z" fill="white"/>
<path d="M821.201 191.018C820.083 191.262 819.374 192.361 819.607 193.48L824.362 215.726C824.606 216.844 825.704 217.553 826.823 217.32L873.849 207.282L873.843 210.776L876.249 210.258L876.254 206.764L876.334 206.75C877.452 206.506 879.042 205.686 879.878 204.906L882.992 202.023C883.83 201.254 884.318 199.703 884.076 198.596L881.161 184.924C880.917 183.807 879.858 182.587 878.782 182.202L874.689 180.731C873.613 180.346 871.833 180.226 870.713 180.459L870.679 180.465L869.227 177.216L866.819 177.722L868.273 180.983L821.201 191.018Z" fill="white"/>
<path d="M732.608 273.232L779.945 264.827L779.811 268.321L782.233 267.893L782.367 264.4L782.447 264.385C783.572 264.187 785.194 263.409 786.048 262.672L789.265 259.901C790.129 259.15 790.669 257.625 790.472 256.51L788.031 242.731C787.833 241.606 786.801 240.346 785.742 239.923L781.706 238.313C780.647 237.89 778.869 237.711 777.743 237.91L777.709 237.916L776.362 234.601L773.94 235.028L775.285 238.331L727.903 246.745C726.777 246.943 726.03 248.025 726.228 249.15L730.203 271.557C730.399 272.672 731.483 273.43 732.608 273.232Z" fill="white"/>
<path d="M763.033 298.303L758.925 296.881C757.851 296.508 756.064 296.413 754.946 296.657L754.912 296.663L753.416 293.433L751.014 293.974L752.512 297.215L705.567 307.838C704.451 308.093 703.755 309.2 703.999 310.318L709.025 332.505C709.28 333.62 710.388 334.316 711.505 334.072L758.394 323.46L758.425 326.96L760.827 326.419L760.796 322.919L760.876 322.905C761.991 322.649 763.567 321.809 764.4 321.017L767.484 318.093C768.308 317.315 768.783 315.754 768.53 314.65L765.444 301.008C765.2 299.89 764.118 298.674 763.033 298.303Z" fill="white"/>
<path d="M832.835 328.013L828.8 326.403C827.741 325.981 825.962 325.802 824.836 326L824.802 326.006L823.458 322.703L821.036 323.13L822.381 326.433L774.999 334.847C773.873 335.045 773.126 336.127 773.324 337.252L777.299 359.659C777.497 360.785 778.578 361.532 779.704 361.334L827.041 352.929L826.906 356.423L829.328 355.995L829.462 352.501L829.542 352.487C830.668 352.289 832.289 351.511 833.144 350.774L836.36 348.003C837.224 347.252 837.764 345.727 837.568 344.612L835.128 330.845C834.917 329.71 833.895 328.436 832.835 328.013Z" fill="white"/>
<path d="M687.224 343.172L683.255 341.41C682.212 340.949 680.445 340.698 679.311 340.851L679.277 340.857L678.065 337.507L675.627 337.843L676.839 341.193L629.167 347.829C628.033 347.982 627.246 349.035 627.399 350.169L630.528 372.701C630.681 373.835 631.734 374.622 632.868 374.469L680.494 367.842L680.231 371.335L682.669 370.999L682.932 367.506L683.012 367.492C684.146 367.339 685.79 366.627 686.685 365.918L690.005 363.269C690.9 362.56 691.49 361.049 691.339 359.927L689.413 346.081C689.247 344.938 688.266 343.633 687.224 343.172Z" fill="white"/>
<path d="M597.714 341.791L593.678 340.182C592.619 339.759 590.84 339.58 589.715 339.778L589.681 339.784L588.336 336.481L585.914 336.908L587.259 340.211L539.877 348.625C538.751 348.823 538.004 349.905 538.202 351.03L542.177 373.437C542.375 374.563 543.457 375.31 544.582 375.112L591.919 366.707L591.785 370.201L594.207 369.773L594.341 366.28L594.42 366.266C595.546 366.067 597.167 365.289 598.022 364.552L601.238 361.781C602.103 361.03 602.643 359.505 602.446 358.39L600.007 344.623C599.793 343.476 598.773 342.214 597.714 341.791Z" fill="white"/>
<path d="M513.667 281.097L509.631 279.487C508.572 279.064 506.793 278.886 505.668 279.084L505.633 279.09L504.289 275.786L501.867 276.214L503.212 279.517L455.83 287.93C454.704 288.129 453.957 289.21 454.155 290.336L458.13 312.743C458.328 313.869 459.409 314.616 460.535 314.418L507.872 306.012L507.737 309.506L510.159 309.079L510.294 305.585L510.373 305.571C511.499 305.373 513.12 304.594 513.975 303.857L517.191 301.086C518.055 300.336 518.595 298.81 518.399 297.696L515.96 283.928C515.757 282.78 514.726 281.52 513.667 281.097Z" fill="white"/>
<path d="M596.179 289.668L592.143 288.058C591.084 287.635 589.305 287.456 588.18 287.655L588.146 287.661L586.801 284.357L584.379 284.784L585.724 288.088L538.342 296.501C537.216 296.699 536.469 297.781 536.667 298.907L540.642 321.314C540.84 322.439 541.922 323.187 543.047 322.988L590.384 314.583L590.25 318.077L592.671 317.65L592.806 314.156L592.885 314.142C594.011 313.943 595.632 313.165 596.487 312.428L599.703 309.657C600.568 308.907 601.108 307.381 600.911 306.267L598.472 292.499C598.258 291.353 597.238 290.09 596.179 289.668Z" fill="white"/>
<path d="M881.591 159.9L928.928 151.495L928.793 154.989L931.215 154.562L931.349 151.068L931.429 151.054C932.555 150.855 934.176 150.077 935.031 149.34L938.247 146.569C939.111 145.818 939.651 144.293 939.455 143.178L937.015 129.411C936.817 128.285 935.786 127.025 934.726 126.602L930.691 124.992C929.632 124.569 927.853 124.391 926.727 124.589L926.693 124.595L925.349 121.292L922.927 121.719L924.271 125.022L876.889 133.436C875.764 133.634 875.016 134.715 875.215 135.841L879.189 158.248C879.382 159.34 880.465 160.098 881.591 159.9Z" fill="white"/>
<path d="M1035.62 132.225L1082.95 123.82L1082.82 127.314L1085.24 126.887L1085.38 123.393L1085.46 123.379C1086.58 123.18 1088.2 122.402 1089.06 121.665L1092.27 118.894C1093.14 118.143 1093.68 116.618 1093.48 115.504L1091.04 101.736C1090.84 100.61 1089.81 99.3502 1088.75 98.9272L1084.72 97.3172C1083.66 96.8952 1081.88 96.7162 1080.75 96.9142L1080.72 96.9202L1079.38 93.6172L1076.95 94.0442L1078.3 97.3472L1030.92 105.761C1029.79 105.959 1029.04 107.041 1029.24 108.166L1033.22 130.573C1033.42 131.674 1034.5 132.422 1035.62 132.225Z" fill="white"/>
<path d="M1128.63 114.758L1175.96 106.353L1175.83 109.847L1178.25 109.42L1178.39 105.926L1178.47 105.912C1179.59 105.713 1181.21 104.935 1182.07 104.198L1185.28 101.427C1186.15 100.676 1186.69 99.1514 1186.49 98.0374L1184.05 84.2694C1183.85 83.1434 1182.82 81.8834 1181.76 81.4604L1177.73 79.8504C1176.67 79.4284 1174.89 79.2494 1173.76 79.4474L1173.73 79.4534L1172.39 76.1504L1169.96 76.5774L1171.31 79.8804L1123.93 88.2944C1122.8 88.4924 1122.05 89.5744 1122.25 90.6994L1126.23 113.106C1126.42 114.198 1127.5 114.957 1128.63 114.758Z" fill="white"/>
<path d="M1265.92 88.6513L1313.11 79.4273L1313.05 82.9203L1315.46 82.4473L1315.53 78.9543L1315.61 78.9403C1316.73 78.7193 1318.33 77.9203 1319.18 77.1603L1322.35 74.3273C1323.2 73.5673 1323.72 72.0343 1323.5 70.9123L1320.82 57.1872C1320.6 56.0656 1319.55 54.8207 1318.49 54.4206L1314.42 52.8757C1313.35 52.4662 1311.57 52.3235 1310.46 52.5314L1310.42 52.5374L1309.02 49.2666L1306.61 49.7278L1308.01 53.0099L1260.77 62.242C1259.65 62.4632 1258.91 63.5539 1259.14 64.6756L1263.51 87.0013C1263.71 88.1383 1264.8 88.8723 1265.92 88.6513Z" fill="white"/>
<path d="M1345.03 86.895L1392.69 80.624L1392.41 84.109L1394.85 83.785L1395.13 80.299L1395.21 80.285C1396.35 80.132 1398 79.442 1398.89 78.734L1402.23 76.106C1403.12 75.397 1403.74 73.905 1403.58 72.771L1401.76 58.9064C1401.61 57.7727 1400.64 56.4664 1399.61 56.0034L1395.64 54.205C1394.61 53.7307 1392.83 53.4702 1391.71 53.6212L1391.67 53.6273L1390.48 50.2729L1388.04 50.5862L1389.23 53.952L1341.52 60.231C1340.39 60.384 1339.59 61.428 1339.74 62.5503L1342.71 85.111C1342.86 86.233 1343.91 87.046 1345.03 86.895Z" fill="white"/>
<path d="M1327.38 102.083L1326.03 98.7793L1323.61 99.2063L1324.95 102.51L1277.57 110.923C1276.45 111.121 1275.7 112.203 1275.9 113.329L1279.87 135.736C1280.07 136.861 1281.15 137.609 1282.28 137.41L1329.61 129.005L1329.48 132.499L1331.9 132.072L1332.04 128.578L1332.12 128.564C1333.24 128.365 1334.86 127.587 1335.72 126.85L1338.93 124.079C1339.8 123.328 1340.34 121.803 1340.14 120.689L1337.7 106.921C1337.5 105.795 1336.47 104.535 1335.41 104.112L1331.38 102.502C1330.32 102.08 1328.54 101.901 1327.41 102.099L1327.38 102.083Z" fill="white"/>
<path d="M1076.54 154.906C1075.41 155.105 1074.66 156.186 1074.86 157.312L1078.84 179.719C1079.03 180.845 1080.12 181.592 1081.24 181.393L1128.58 172.988L1128.44 176.482L1130.87 176.055L1131 172.561L1131.08 172.547C1132.21 172.348 1133.83 171.57 1134.68 170.833L1137.9 168.062C1138.76 167.312 1139.3 165.786 1139.11 164.672L1136.67 150.904C1136.47 149.779 1135.44 148.518 1134.38 148.096L1130.34 146.486C1129.28 146.063 1127.5 145.884 1126.38 146.083L1126.34 146.089L1125 142.785L1122.58 143.212L1123.92 146.516L1076.54 154.906Z" fill="white"/>
<path d="M562.774 214.979L610.11 206.574L609.976 210.068L612.398 209.641L612.532 206.147L612.612 206.133C613.737 205.934 615.359 205.156 616.213 204.419L619.43 201.648C620.294 200.897 620.834 199.372 620.637 198.257L618.198 184.49C618 183.364 616.968 182.104 615.909 181.681L611.873 180.071C610.814 179.648 609.036 179.47 607.91 179.668L607.876 179.674L606.531 176.371L604.109 176.798L605.454 180.101L558.072 188.515C556.946 188.713 556.199 189.794 556.398 190.92L560.372 213.327C560.564 214.419 561.648 215.177 562.774 214.979Z" fill="white"/>
<path d="M1318.12 243.288L1314.19 241.45C1313.15 240.964 1311.39 240.688 1310.25 240.818L1310.22 240.824L1309.06 237.453L1306.62 237.743L1307.77 241.115L1259.99 246.856C1258.87 246.995 1258.04 248.032 1258.18 249.156L1260.9 271.75C1261.04 272.874 1262.08 273.7 1263.2 273.56L1310.94 267.827L1310.61 271.308L1313.06 271.017L1313.38 267.537L1313.46 267.523C1314.59 267.383 1316.26 266.712 1317.16 266.015L1320.53 263.428C1321.42 262.731 1322.05 261.237 1321.92 260.111L1320.26 246.229C1320.11 245.096 1319.15 243.776 1318.12 243.288Z" fill="white"/>
<path d="M928.354 180.026C927.235 180.259 926.527 181.369 926.76 182.488L931.504 204.736C931.736 205.856 932.846 206.563 933.965 206.33L980.995 196.315L980.989 199.809L983.395 199.291L983.4 195.796L983.48 195.782C984.6 195.55 986.188 194.719 987.026 193.95L990.14 191.067C990.978 190.298 991.466 188.747 991.224 187.64L988.309 173.968C988.077 172.849 987.006 171.631 985.93 171.246L981.837 169.775C980.761 169.391 978.981 169.271 977.861 169.503L977.827 169.509L976.375 166.26L973.967 166.766L975.422 170.027L928.354 180.026Z" fill="white"/>
<path d="M1097.05 269.009L1093.02 267.399C1091.96 266.976 1090.18 266.797 1089.05 266.996L1089.02 267.002L1087.68 263.698L1085.25 264.125L1086.6 267.429L1039.22 275.842C1038.09 276.041 1037.34 277.122 1037.54 278.248L1041.52 300.655C1041.72 301.781 1042.8 302.528 1043.92 302.329L1091.26 293.924L1091.12 297.418L1093.55 296.991L1093.68 293.497L1093.76 293.483C1094.89 293.285 1096.51 292.506 1097.36 291.769L1100.58 288.998C1101.44 288.248 1101.98 286.722 1101.79 285.608L1099.35 271.84C1099.14 270.692 1098.11 269.432 1097.05 269.009Z" fill="white"/>
<path d="M1020.66 259.242L1016.63 257.632C1015.57 257.209 1013.79 257.03 1012.66 257.229L1012.63 257.235L1011.28 253.931L1008.86 254.358L1010.21 257.662L962.825 266.075C961.699 266.274 960.952 267.355 961.15 268.481L965.125 290.888C965.323 292.014 966.405 292.761 967.53 292.562L1014.87 284.157L1014.73 287.651L1017.15 287.224L1017.29 283.73L1017.37 283.716C1018.49 283.518 1020.12 282.739 1020.97 282.002L1024.19 279.231C1025.05 278.481 1025.59 276.955 1025.39 275.841L1022.95 262.073C1022.74 260.938 1021.71 259.667 1020.66 259.242Z" fill="white"/>
<path d="M953.598 302.112L949.562 300.502C948.503 300.079 946.725 299.901 945.599 300.099L945.565 300.105L944.22 296.802L941.798 297.229L943.143 300.532L895.761 308.946C894.635 309.144 893.888 310.225 894.087 311.351L898.061 333.758C898.259 334.884 899.341 335.631 900.467 335.433L947.803 327.027L947.669 330.521L950.091 330.094L950.225 326.6L950.304 326.586C951.43 326.388 953.052 325.61 953.906 324.873L957.123 322.101C957.987 321.351 958.527 319.826 958.33 318.711L955.891 304.944C955.679 303.809 954.646 302.537 953.598 302.112Z" fill="white"/>
<path d="M857.616 259.971L857.94 256.49L858.02 256.476C859.144 256.337 860.818 255.655 861.717 254.969L865.083 252.382C865.98 251.685 866.607 250.191 866.479 249.064L864.805 235.185C864.666 234.061 863.718 232.739 862.682 232.253L858.736 230.417C857.7 229.931 855.94 229.655 854.802 229.785L854.768 229.791L853.611 226.42L851.165 226.71L852.322 230.082L804.541 235.834C803.417 235.974 802.603 237.008 802.731 238.135L805.449 260.728C805.588 261.853 806.623 262.667 807.749 262.538L855.485 256.794L855.161 260.275L857.616 259.971Z" fill="white"/>
<path d="M440.817 289.159L438.514 275.367C438.327 274.24 437.316 272.964 436.257 272.541L432.236 270.882C431.186 270.446 429.404 270.244 428.276 270.431L428.242 270.437L426.931 267.128L424.504 267.521L425.816 270.842L378.346 278.755C377.218 278.942 376.457 280.014 376.645 281.141L380.38 303.591C380.567 304.718 381.639 305.479 382.767 305.292L430.192 297.387L430.023 300.887L432.449 300.483L432.618 296.983L432.697 296.969C433.825 296.781 435.45 296.026 436.317 295.287L439.561 292.546C440.439 291.805 441.002 290.275 440.817 289.159Z" fill="white"/>
<path d="M429.162 395.604L425.192 393.831C424.149 393.37 422.379 393.107 421.246 393.26L421.211 393.266L420.011 389.914L417.571 390.239L418.772 393.591L371.079 400.043C369.945 400.196 369.156 401.238 369.309 402.371L372.358 424.918C372.511 426.052 373.553 426.841 374.687 426.688L422.334 420.245L422.057 423.728L424.497 423.404L424.774 419.92L424.854 419.906C425.987 419.753 427.634 419.052 428.529 418.343L431.851 415.706C432.746 414.997 433.349 413.496 433.196 412.362L431.315 398.507C431.176 397.383 430.196 396.079 429.162 395.604Z" fill="white"/>
<path d="M254.979 415.485L250.958 413.825C249.908 413.389 248.126 413.187 246.998 413.375L246.964 413.381L245.653 410.071L243.226 410.464L244.538 413.785L197.068 421.698C195.94 421.885 195.179 422.957 195.367 424.085L199.102 446.534C199.289 447.662 200.361 448.422 201.489 448.235L248.914 440.33L248.745 443.83L251.171 443.426L251.34 439.926L251.419 439.912C252.547 439.725 254.172 438.969 255.039 438.23L258.284 435.489C259.15 434.75 259.714 433.232 259.527 432.104L257.224 418.313C257.051 417.194 256.04 415.919 254.979 415.485Z" fill="white"/>
<path d="M78.6569 435.203L74.6361 433.543C73.5861 433.107 71.8037 432.905 70.676 433.093L70.6419 433.099L69.3315 429.789L66.9035 430.182L68.216 433.503L20.7458 441.416C19.6181 441.603 18.8575 442.675 19.0446 443.803L22.7802 466.252C22.9673 467.38 24.0394 468.14 25.1671 467.953L72.5918 460.048L72.4235 463.548L74.8494 463.144L75.0177 459.644L75.0973 459.63C76.225 459.443 77.8504 458.687 78.7166 457.948L81.9615 455.207C82.8278 454.468 83.3925 452.95 83.2053 451.822L80.9025 438.031C80.7174 436.914 79.7069 435.639 78.6569 435.203Z" fill="white"/>
<path d="M-3.78048 394.343L-7.91771 393.021C-8.99917 392.672 -10.7916 392.613 -11.9013 392.902L-11.9354 392.908L-13.5067 389.715L-15.8985 390.313L-14.3252 393.517L-60.9847 405.297C-62.085 405.573 -62.7633 406.713 -62.4872 407.813L-56.9216 429.869C-56.6455 430.969 -55.5059 431.648 -54.4057 431.372L-7.78965 419.611L-7.66573 423.107L-5.2739 422.509L-5.39782 419.014L-5.32022 418.988C-4.21995 418.712 -2.65276 417.826 -1.84604 417.016L1.16682 414.023C1.97555 413.223 2.40315 411.659 2.12708 410.559L-1.29546 397C-1.57555 395.877 -2.69902 394.691 -3.78048 394.343Z" fill="white"/>
<path d="M892.037 290.352L888.951 276.71C888.696 275.594 887.616 274.389 886.542 274.016L882.434 272.595C881.36 272.221 879.573 272.126 878.455 272.37L878.421 272.376L876.925 269.146L874.523 269.687L876.021 272.928L829.075 283.551C827.96 283.806 827.264 284.914 827.508 286.031L832.523 308.22C832.778 309.335 833.885 310.031 835.003 309.787L881.894 299.186L881.925 302.686L884.327 302.145L884.296 298.645L884.375 298.631C885.491 298.376 887.066 297.535 887.9 296.744L890.983 293.82C891.815 293.017 892.292 291.467 892.037 290.352Z" fill="white"/>
<path d="M120.767 321.558C119.76 321.032 118.503 321.418 117.966 322.427L107.365 342.562C106.84 343.57 107.225 344.826 108.235 345.364L150.781 367.769L148.534 370.452L150.707 371.605L152.954 368.922L153.018 368.958C154.026 369.483 155.783 369.877 156.922 369.817L161.162 369.597C162.3 369.537 163.659 368.664 164.196 367.655L170.714 355.286C171.24 354.279 171.212 352.654 170.627 351.667L168.43 347.916C167.859 346.938 166.56 345.689 165.553 345.164L165.526 345.145L166.492 341.715L164.32 340.562L163.353 343.992L120.767 321.558Z" fill="white"/>
<path d="M174.457 392.401C173.627 391.621 172.031 390.812 170.913 390.587L170.877 390.582L170.822 387.015L168.405 386.539L168.459 390.105L121.247 380.797C120.129 380.572 119.041 381.315 118.816 382.433L114.416 404.758C114.191 405.876 114.934 406.964 116.053 407.189L163.229 416.492L161.837 419.703L164.254 420.18L165.646 416.968L165.72 416.99C166.838 417.215 168.631 417.075 169.702 416.699L173.707 415.277C174.778 414.901 175.839 413.67 176.064 412.552L178.769 398.839C178.994 397.72 178.486 396.169 177.657 395.389L174.457 392.401Z" fill="white"/>
<path d="M505.899 226.074C505.07 225.294 503.473 224.485 502.355 224.261L502.319 224.255L502.265 220.689L499.848 220.212L499.902 223.779L452.69 214.471C451.571 214.246 450.483 214.989 450.258 216.107L445.859 238.431C445.634 239.55 446.377 240.638 447.495 240.863L494.671 250.165L493.28 253.377L495.697 253.854L497.088 250.642L497.163 250.664C498.281 250.889 500.073 250.749 501.144 250.372L505.15 248.951C506.22 248.575 507.281 247.344 507.506 246.226L510.211 232.512C510.436 231.394 509.928 229.842 509.099 229.062L505.899 226.074Z" fill="white"/>
<path d="M503.836 354.534L491.752 347.508C490.771 346.931 489.137 346.903 488.13 347.444L484.292 349.48C483.283 350.01 481.991 351.258 481.425 352.237L481.406 352.264L478.023 351.16L476.778 353.279L480.164 354.394L455.974 396C455.397 396.981 455.739 398.257 456.72 398.835L476.393 410.267C477.374 410.844 478.65 410.502 479.227 409.521L503.4 367.953L505.985 370.311L507.216 368.183L504.631 365.825L504.666 365.76C505.244 364.779 505.698 363.034 505.685 361.899L505.64 357.651C505.625 356.505 504.815 355.1 503.836 354.534Z" fill="white"/>
<path d="M701.759 265.564L708.277 253.195C708.803 252.188 708.774 250.563 708.19 249.576L705.993 245.825C705.422 244.847 704.123 243.599 703.116 243.073L703.089 243.054L704.055 239.624L701.882 238.472L700.916 241.901L658.332 219.479C657.325 218.953 656.068 219.339 655.531 220.348L644.93 240.483C644.404 241.49 644.79 242.747 645.799 243.284L688.345 265.69L686.098 268.372L688.271 269.525L690.518 266.843L690.583 266.878C691.59 267.404 693.348 267.797 694.486 267.737L698.727 267.517C699.863 267.446 701.222 266.573 701.759 265.564Z" fill="white"/>
<path d="M1186.3 204.841C1185.47 204.061 1183.87 203.252 1182.75 203.028L1182.72 203.022L1182.66 199.456L1180.24 198.979L1180.3 202.546L1133.09 193.238C1131.97 193.013 1130.88 193.756 1130.66 194.874L1126.26 217.198C1126.03 218.317 1126.77 219.405 1127.89 219.63L1175.07 228.932L1173.68 232.144L1176.09 232.621L1177.49 229.409L1177.56 229.431C1178.68 229.656 1180.47 229.516 1181.54 229.139L1185.55 227.718C1186.62 227.342 1187.68 226.111 1187.9 224.993L1190.61 211.279C1190.83 210.161 1190.33 208.609 1189.5 207.829L1186.3 204.841Z" fill="white"/>
<path d="M1181.53 260.515L1177.49 258.905C1176.43 258.482 1174.65 258.304 1173.53 258.502L1173.49 258.508L1172.15 255.205L1169.73 255.632L1171.07 258.935L1123.69 267.349C1122.57 267.547 1121.82 268.628 1122.02 269.754L1125.99 292.161C1126.19 293.287 1127.27 294.034 1128.4 293.836L1175.73 285.43L1175.6 288.924L1178.02 288.497L1178.16 285.003L1178.23 284.989C1179.36 284.791 1180.98 284.012 1181.84 283.276L1185.05 280.504C1185.92 279.754 1186.46 278.229 1186.26 277.114L1183.82 263.347C1183.61 262.212 1182.58 260.94 1181.53 260.515Z" fill="white"/>
<path d="M1195.99 185.863L1196.89 189.304L1199.34 189.199L1198.44 185.747L1246.52 183.624C1247.66 183.575 1248.54 182.599 1248.5 181.47L1247.49 158.738C1247.44 157.598 1246.47 156.715 1245.34 156.762L1197.3 158.877L1197.89 155.432L1195.43 155.537L1194.85 158.982L1194.76 158.985C1193.62 159.033 1191.92 159.592 1190.96 160.207L1187.41 162.533C1186.45 163.159 1185.72 164.601 1185.77 165.741L1186.38 179.714C1186.43 180.854 1187.28 182.24 1188.27 182.803L1192.06 184.938C1193.05 185.502 1194.8 185.908 1195.94 185.86L1195.99 185.863Z" fill="white"/>
<path d="M1093.72 211.082L1045.69 213.197L1046.27 209.752L1043.82 209.857L1043.23 213.302L1043.15 213.305C1042.01 213.353 1040.3 213.912 1039.34 214.527L1035.79 216.853C1034.83 217.479 1034.1 218.921 1034.15 220.061L1034.76 234.034C1034.81 235.175 1035.67 236.56 1036.66 237.124L1040.45 239.258C1041.44 239.822 1043.18 240.229 1044.32 240.18L1044.36 240.174L1045.26 243.615L1047.71 243.51L1046.81 240.058L1094.89 237.934C1096.03 237.886 1096.92 236.909 1096.87 235.78L1095.86 213.049C1095.84 211.928 1094.86 211.033 1093.72 211.082Z" fill="white"/>
<path d="M1386.23 149.164L1338.2 151.28L1338.79 147.834L1336.33 147.939L1335.74 151.384L1335.66 151.387C1334.52 151.436 1332.81 151.994 1331.85 152.609L1328.3 154.935C1327.35 155.561 1326.61 157.003 1326.66 158.143L1327.27 172.116C1327.32 173.257 1328.18 174.642 1329.17 175.206L1332.96 177.34C1333.95 177.904 1335.69 178.311 1336.83 178.262L1336.87 178.256L1337.77 181.697L1340.22 181.592L1339.32 178.14L1387.4 176.017C1388.54 175.968 1389.43 174.991 1389.38 173.862L1388.37 151.131C1388.34 150 1387.37 149.115 1386.23 149.164Z" fill="white"/>
<path d="M562.369 260.422L566.157 262.556C567.147 263.12 568.895 263.527 570.036 263.478L570.07 263.472L570.97 266.913L573.425 266.808L572.523 263.356L620.604 261.233C621.744 261.184 622.627 260.208 622.581 259.079L621.574 236.348C621.525 235.207 620.549 234.324 619.42 234.371L571.385 236.486L571.973 233.041L569.518 233.146L568.929 236.591L568.848 236.594C567.707 236.642 566 237.201 565.042 237.816L561.489 240.142C560.533 240.768 559.802 242.21 559.851 243.35L560.462 257.323C560.524 258.473 561.378 259.858 562.369 260.422Z" fill="white"/>
<path d="M438.081 334.017L390.046 336.132L390.634 332.687L388.179 332.792L387.59 336.237L387.509 336.24C386.368 336.288 384.661 336.847 383.703 337.462L380.15 339.788C379.194 340.414 378.463 341.856 378.512 342.996L379.123 356.969C379.172 358.109 380.026 359.495 381.016 360.058L384.804 362.193C385.795 362.757 387.543 363.163 388.683 363.115L388.718 363.109L389.617 366.549L392.073 366.445L391.171 362.993L439.252 360.869C440.392 360.821 441.275 359.844 441.228 358.715L440.222 335.984C440.2 334.862 439.221 333.968 438.081 334.017Z" fill="white"/>
<path d="M159.351 440.577L112.163 449.823L112.227 446.33L109.813 446.803L109.749 450.296L109.669 450.31C108.548 450.531 106.942 451.33 106.091 452.09L102.921 454.923C102.07 455.683 101.555 457.216 101.776 458.337L104.465 472.061C104.687 473.183 105.739 474.427 106.805 474.826L110.876 476.37C111.943 476.769 113.729 476.923 114.839 476.703L114.873 476.697L116.271 479.968L118.685 479.496L117.285 476.214L164.519 466.959C165.64 466.738 166.374 465.647 166.153 464.525L161.771 442.201C161.563 441.089 160.461 440.357 159.351 440.577Z" fill="white"/>
<path d="M85.2395 374.062L37.8899 365.704L39.2073 362.471L36.7868 362.042L35.4694 365.275L35.3858 365.267C34.2602 365.067 32.4737 365.241 31.4069 365.64L27.4385 367.137C26.3716 367.536 25.3375 368.785 25.1373 369.911L22.7115 383.681C22.5114 384.806 23.0402 386.343 23.8902 387.107L27.133 390.006C27.983 390.77 29.5981 391.552 30.7103 391.743L30.7465 391.748L30.869 395.303L33.2895 395.732L33.1649 392.166L80.562 400.527C81.6876 400.727 82.7625 399.975 82.9627 398.849L86.9132 376.44C87.1174 375.337 86.3517 374.253 85.2395 374.062Z" fill="white"/>
<path d="M942.925 224.763C942.439 223.735 941.211 223.284 940.169 223.76L896.585 244.072L895.807 240.657L893.575 241.695L894.353 245.111L894.278 245.147C893.25 245.633 891.871 246.791 891.24 247.735L888.845 251.24C888.203 252.186 888.076 253.791 888.552 254.833L894.457 267.508C894.932 268.539 896.262 269.5 897.387 269.63L901.699 270.147C902.826 270.289 904.604 269.999 905.634 269.524L905.666 269.507L907.809 272.353L910.041 271.314L907.898 268.468L951.525 248.137C952.553 247.651 953.005 246.422 952.528 245.381L942.925 224.763Z" fill="white"/>
<path d="M725.054 222.345L747.781 221.316C748.922 221.267 749.805 220.291 749.756 219.15L747.57 171.116L751.015 171.704L750.899 169.251L747.454 168.662L747.452 168.581C747.403 167.44 746.844 165.734 746.218 164.777L743.88 161.227C743.255 160.27 741.813 159.539 740.672 159.588L726.704 160.222C725.563 160.271 724.178 161.125 723.627 162.125L721.507 165.922C720.954 166.91 720.536 168.661 720.584 169.801L720.59 169.835L717.15 170.735L717.255 173.19L720.706 172.288L722.9 220.369C722.949 221.509 723.914 222.394 725.054 222.345Z" fill="white"/>
<path d="M198.824 360.248L196.638 312.213L200.083 312.802L199.967 310.348L196.522 309.76L196.52 309.678C196.471 308.538 195.912 306.831 195.286 305.874L192.948 302.324C192.322 301.367 190.881 300.637 189.74 300.686L175.771 301.32C174.631 301.368 173.246 302.222 172.695 303.222L170.575 307.019C170.022 308.008 169.604 309.758 169.652 310.899L169.658 310.933L166.218 311.832L166.322 314.288L169.774 313.386L171.968 361.466C172.017 362.606 172.993 363.489 174.134 363.441L196.861 362.411C197.99 362.365 198.873 361.388 198.824 360.248Z" fill="white"/>
<path d="M1020.41 148.119L1020.3 145.666L1016.85 145.078V144.996C1016.8 143.856 1016.24 142.149 1015.62 141.192L1013.28 137.642C1012.65 136.685 1011.21 135.954 1010.07 136.003L996.1 136.637C994.96 136.686 993.575 137.54 993.024 138.54L990.903 142.337C990.351 143.325 989.933 145.076 989.981 146.216L989.987 146.25L986.547 147.15L986.651 149.605L990.103 148.704L992.297 196.784C992.346 197.924 993.322 198.807 994.463 198.758L1017.19 197.729C1018.33 197.68 1019.21 196.704 1019.16 195.563L1016.98 147.529L1020.41 148.119Z" fill="white"/>
<path d="M1208.76 140.572C1209.48 141.453 1210.79 141.598 1211.68 140.878L1249.1 110.68L1250.67 113.803L1252.59 112.257L1251.02 109.134L1251.08 109.087C1251.96 108.369 1253.02 106.917 1253.42 105.85L1254.9 101.873C1255.3 100.806 1255.04 99.2104 1254.32 98.3174L1245.54 87.4374C1244.82 86.5564 1243.32 85.9414 1242.18 86.0834L1237.87 86.6214C1236.73 86.7624 1235.09 87.4634 1234.2 88.1704L1234.17 88.1874L1231.41 85.9434L1229.49 87.4894L1232.25 89.7334L1194.8 119.961C1193.92 120.679 1193.77 121.983 1194.49 122.876L1208.76 140.572Z" fill="white"/>
<path d="M352.488 304.781L350.196 290.987C350.009 289.859 348.999 288.584 347.939 288.161L343.918 286.502C342.868 286.065 341.086 285.864 339.958 286.051L339.924 286.057L338.614 282.747L336.186 283.14L337.498 286.461L290.028 294.374C288.9 294.561 288.14 295.634 288.327 296.761L292.063 319.21C292.25 320.338 293.322 321.099 294.449 320.912L341.874 313.007L341.706 316.507L344.132 316.102L344.3 312.602L344.38 312.588C345.507 312.401 347.133 311.646 347.999 310.907L351.244 308.166C352.12 307.413 352.684 305.895 352.488 304.781Z" fill="white"/>
<path d="M357.712 368.986L353.792 367.098C352.766 366.599 351.002 366.301 349.873 366.417L349.839 366.423L348.727 363.044L346.275 363.3L347.389 366.691L299.532 371.812C298.404 371.929 297.576 372.954 297.695 374.094L300.113 396.717C300.23 397.845 301.255 398.673 302.395 398.554L350.205 393.43L349.833 396.907L352.283 396.639L352.655 393.162L352.734 393.148C353.863 393.031 355.54 392.372 356.451 391.684L359.847 389.138C360.758 388.45 361.399 386.966 361.282 385.837L359.792 371.937C359.675 370.809 358.738 369.485 357.712 368.986Z" fill="white"/>
<path d="M81.1315 302.227L128.941 297.103L128.569 300.58L131.019 300.312L131.391 296.835L131.471 296.821C132.599 296.704 134.277 296.045 135.187 295.357L138.584 292.812C139.494 292.123 140.135 290.639 140.018 289.51L138.528 275.61C138.412 274.482 137.473 273.147 136.447 272.648L132.526 270.76C131.5 270.261 129.736 269.962 128.608 270.079L128.574 270.085L127.462 266.705L125.01 266.962L126.124 270.353L78.2666 275.474C77.1382 275.591 76.3107 276.616 76.4296 277.755L78.8476 300.378C78.9685 301.529 79.9938 302.357 81.1315 302.227Z" fill="white"/>
<path d="M795.561 290.503L783.354 296.342L789.193 308.549L801.4 302.71L795.561 290.503Z" fill="white"/>
<path d="M530.716 391.932L518.509 397.771L524.348 409.978L536.555 404.139L530.716 391.932Z" fill="white"/>
<path d="M1054.81 169.902L1042.6 175.741L1048.44 187.948L1060.65 182.109L1054.81 169.902Z" fill="white"/>
<path d="M339.629 255.776L338.334 269.246L351.804 270.541L353.099 257.071L339.629 255.776Z" fill="white"/>
<path d="M1217.95 259.95L1209.47 270.501L1220.02 278.975L1228.5 268.424L1217.95 259.95Z" fill="white"/>
<path d="M1263.34 231.189L1263.47 227.695L1263.55 227.681C1264.68 227.482 1266.3 226.704 1267.15 225.967L1270.37 223.196C1271.23 222.446 1271.77 220.92 1271.58 219.806L1269.14 206.038C1268.94 204.912 1267.91 203.652 1266.85 203.229L1262.81 201.62C1261.75 201.197 1259.98 201.018 1258.85 201.216L1258.82 201.222L1257.47 197.919L1255.05 198.346L1256.39 201.649L1209.01 210.063C1207.89 210.261 1207.14 211.343 1207.34 212.468L1211.31 234.875C1211.51 236.001 1212.59 236.748 1213.72 236.55L1261.05 228.145L1260.92 231.639L1263.34 231.189Z" fill="white"/>
<path d="M682.375 290.343C681.546 289.563 679.949 288.754 678.831 288.529L678.795 288.524L678.741 284.958L676.324 284.481L676.378 288.047L629.166 278.739C628.047 278.514 626.959 279.257 626.734 280.376L622.335 302.7C622.11 303.818 622.853 304.907 623.971 305.131L671.147 314.434L669.756 317.646L672.173 318.122L673.565 314.911L673.639 314.933C674.757 315.158 676.55 315.017 677.62 314.641L681.626 313.22C682.696 312.843 683.757 311.613 683.982 310.495L686.688 296.781C686.912 295.663 686.404 294.111 685.575 293.331L682.375 290.343Z" fill="white"/>
<path d="M1377.34 196.678L1373.31 195.068C1372.25 194.645 1370.47 194.467 1369.34 194.665L1369.31 194.671L1367.96 191.368L1365.54 191.795L1366.89 195.098L1319.5 203.511C1318.38 203.71 1317.63 204.791 1317.83 205.917L1321.8 228.324C1322 229.45 1323.08 230.197 1324.21 229.999L1371.55 221.593L1371.41 225.087L1373.83 224.66L1373.97 221.166L1374.05 221.152C1375.17 220.954 1376.79 220.175 1377.65 219.438L1380.87 216.667C1381.73 215.917 1382.27 214.391 1382.07 213.277L1379.63 199.51C1379.43 198.361 1378.4 197.101 1377.34 196.678Z" fill="white"/>
<path d="M262.264 339.846L257.883 317.523C257.661 316.401 256.571 315.667 255.449 315.889L208.261 325.135L208.325 321.642L205.911 322.115L205.847 325.608L205.767 325.622C204.646 325.843 203.04 326.642 202.189 327.402L199.019 330.235C198.168 330.995 197.653 332.528 197.874 333.649L200.563 347.373C200.785 348.495 201.837 349.739 202.903 350.138L206.974 351.683C208.041 352.081 209.827 352.235 210.937 352.015L210.971 352.009L212.369 355.28L214.783 354.808L213.383 351.526L260.617 342.271C261.752 342.059 262.484 340.957 262.264 339.846Z" fill="white"/>
<path d="M1473.79 204.362L1469.77 202.703C1468.72 202.267 1466.94 202.065 1465.81 202.252L1465.77 202.258L1464.46 198.949L1462.04 199.342L1463.35 202.663L1415.88 210.576C1414.75 210.763 1413.99 211.835 1414.18 212.963L1417.91 235.412C1418.1 236.54 1419.17 237.3 1420.3 237.113L1467.72 229.208L1467.56 232.708L1469.98 232.304L1470.15 228.804L1470.23 228.79C1471.36 228.603 1472.98 227.847 1473.85 227.108L1477.09 224.367C1477.96 223.628 1478.52 222.11 1478.34 220.982L1476.03 207.19C1475.85 206.074 1474.84 204.799 1473.79 204.362Z" fill="white"/>
<path d="M1482.43 132.284L1478.29 130.962C1477.21 130.613 1475.42 130.554 1474.31 130.844L1474.27 130.85L1472.7 127.656L1470.31 128.254L1471.88 131.459L1425.22 143.238C1424.12 143.514 1423.45 144.654 1423.72 145.754L1429.29 167.81C1429.56 168.911 1430.7 169.589 1431.8 169.313L1478.42 157.553L1478.54 161.048L1480.94 160.45L1480.81 156.955L1480.89 156.93C1481.99 156.654 1483.56 155.768 1484.36 154.957L1487.38 151.964C1488.19 151.165 1488.61 149.6 1488.34 148.5L1484.91 134.941C1484.63 133.818 1483.51 132.633 1482.43 132.284Z" fill="white"/>
<path d="M1405.72 93.1932C1405.14 94.1742 1405.48 95.4502 1406.47 96.0272L1426.14 107.46C1427.12 108.037 1428.4 107.695 1428.97 106.714L1453.15 65.1459L1455.73 67.5042L1456.96 65.3759L1454.38 63.0179L1454.41 62.953C1454.99 61.9719 1455.44 60.227 1455.43 59.092L1455.39 54.8442C1455.37 53.7092 1454.56 52.3045 1453.57 51.7292L1441.49 44.7034C1440.51 44.1261 1438.87 44.0978 1437.86 44.6387L1434.03 46.6754C1433.02 47.205 1431.72 48.4529 1431.16 49.432L1431.14 49.4587L1427.76 48.3553L1426.51 50.474L1429.9 51.5888L1405.72 93.1932Z" fill="white"/>
<path d="M270.075 358.013L265.919 356.718C264.828 356.382 263.038 356.335 261.94 356.622L261.906 356.628L260.312 353.439L257.933 354.046L259.527 357.235L212.946 369.329C211.848 369.617 211.181 370.754 211.457 371.854L217.18 393.871C217.468 394.969 218.605 395.636 219.705 395.36L266.241 383.274L266.387 386.766L268.764 386.147L268.617 382.656L268.695 382.631C269.793 382.343 271.358 381.446 272.153 380.637L275.138 377.614C275.944 376.803 276.36 375.241 276.073 374.143L272.562 360.611C272.289 359.534 271.166 358.348 270.075 358.013Z" fill="white"/>
<path d="M255.904 363.15C255.617 362.051 256.284 360.914 257.393 360.624L262.818 359.211C263.916 358.923 265.054 359.59 265.344 360.7L269.644 377.246C269.932 378.344 269.265 379.482 268.155 379.771L262.73 381.185C261.632 381.473 260.494 380.806 260.205 379.696L255.904 363.15Z" fill="#395E57"/>
<path d="M37.077 314.485C36.8785 313.359 37.6277 312.289 38.7514 312.079L44.2641 311.096C45.3898 310.897 46.4598 311.646 46.6696 312.77L49.6617 329.606C49.8602 330.731 49.1109 331.801 47.9872 332.011L42.4746 332.995C41.3489 333.193 40.2789 332.444 40.069 331.321L37.077 314.485Z" fill="#395E57"/>
<path d="M231.319 256.236C231.121 255.11 231.87 254.04 232.993 253.83L238.506 252.847C239.632 252.648 240.702 253.397 240.912 254.521L243.904 271.357C244.102 272.482 243.353 273.552 242.229 273.762L236.717 274.746C235.591 274.944 234.521 274.195 234.311 273.072L231.319 256.236Z" fill="#395E57"/>
<path d="M302.408 240.113C302.209 238.988 302.958 237.918 304.082 237.708L309.595 236.724C310.72 236.526 311.79 237.275 312 238.399L314.992 255.234C315.191 256.36 314.442 257.43 313.318 257.64L307.805 258.624C306.68 258.822 305.61 258.073 305.4 256.949L302.408 240.113Z" fill="#395E57"/>
<path d="M401.735 221.439C401.536 220.313 402.285 219.243 403.409 219.033L408.922 218.049C410.047 217.851 411.117 218.6 411.327 219.724L414.319 236.56C414.518 237.685 413.769 238.755 412.645 238.965L407.132 239.949C406.007 240.147 404.937 239.398 404.727 238.274L401.735 221.439Z" fill="#395E57"/>
<path d="M681.064 173.862C680.843 172.74 681.576 171.65 682.698 171.428L688.193 170.342C689.314 170.121 690.405 170.855 690.626 171.977L693.937 188.756C694.158 189.878 693.424 190.969 692.302 191.19L686.808 192.276C685.686 192.497 684.595 191.763 684.374 190.642L681.064 173.862Z" fill="#395E57"/>
<path d="M827.671 145.666C827.473 144.541 828.222 143.471 829.346 143.261L834.859 142.277C835.984 142.079 837.054 142.828 837.264 143.952L840.256 160.787C840.455 161.913 839.705 162.983 838.582 163.193L833.069 164.177C831.943 164.375 830.873 163.626 830.664 162.502L827.671 145.666Z" fill="#395E57"/>
<path d="M864.392 186.697C864.148 185.579 864.869 184.479 865.986 184.235L871.467 183.07C872.584 182.826 873.685 183.546 873.929 184.664L877.498 201.386C877.742 202.503 877.022 203.604 875.904 203.848L870.424 205.013C869.306 205.257 868.206 204.537 867.962 203.419L864.392 186.697Z" fill="#395E57"/>
<path d="M771.218 243.926C771.02 242.8 771.769 241.73 772.893 241.52L778.405 240.536C779.531 240.338 780.601 241.087 780.811 242.211L783.803 259.046C784.001 260.172 783.252 261.242 782.128 261.452L776.616 262.436C775.49 262.634 774.42 261.885 774.21 260.761L771.218 243.926Z" fill="#395E57"/>
<path d="M748.713 302.997C748.458 301.881 749.165 300.771 750.28 300.516L755.749 299.282C756.865 299.027 757.974 299.734 758.229 300.85L762.002 317.524C762.257 318.64 761.55 319.749 760.435 320.005L754.966 321.239C753.85 321.494 752.741 320.787 752.486 319.671L748.713 302.997Z" fill="#395E57"/>
<path d="M818.314 332.028C818.115 330.902 818.865 329.832 819.988 329.622L825.501 328.638C826.627 328.44 827.697 329.189 827.906 330.313L830.898 347.148C831.097 348.274 830.348 349.344 829.224 349.554L823.711 350.538C822.586 350.736 821.516 349.987 821.306 348.863L818.314 332.028Z" fill="#395E57"/>
<path d="M672.558 346.637C672.405 345.504 673.195 344.462 674.326 344.297L679.877 343.53C681.011 343.377 682.053 344.166 682.217 345.298L684.57 362.234C684.723 363.368 683.934 364.41 682.802 364.574L677.252 365.342C676.118 365.495 675.076 364.706 674.912 363.574L672.558 346.637Z" fill="#395E57"/>
<path d="M583.19 345.794C582.992 344.669 583.741 343.599 584.865 343.389L590.377 342.405C591.503 342.206 592.573 342.956 592.783 344.079L595.775 360.915C595.973 362.041 595.224 363.111 594.1 363.321L588.588 364.304C587.462 364.503 586.392 363.754 586.182 362.63L583.19 345.794Z" fill="#395E57"/>
<path d="M499.143 285.1C498.944 283.974 499.694 282.904 500.817 282.694L506.33 281.711C507.456 281.512 508.526 282.261 508.735 283.385L511.727 300.221C511.926 301.346 511.177 302.416 510.053 302.626L504.54 303.61C503.415 303.808 502.345 303.059 502.135 301.936L499.143 285.1Z" fill="#395E57"/>
<path d="M581.657 293.682C581.459 292.556 582.208 291.486 583.331 291.276L588.844 290.293C589.97 290.094 591.04 290.843 591.25 291.967L594.242 308.803C594.44 309.928 593.691 310.998 592.567 311.208L587.055 312.192C585.929 312.39 584.859 311.641 584.649 310.517L581.657 293.682Z" fill="#395E57"/>
<path d="M920.203 130.605C920.004 129.479 920.754 128.409 921.877 128.199L927.39 127.216C928.515 127.017 929.585 127.767 929.795 128.89L932.787 145.726C932.986 146.851 932.237 147.922 931.113 148.131L925.6 149.115C924.475 149.314 923.405 148.564 923.195 147.441L920.203 130.605Z" fill="#395E57"/>
<path d="M1074.24 102.928C1074.04 101.802 1074.79 100.732 1075.92 100.523L1081.43 99.5393C1082.55 99.3403 1083.62 100.09 1083.83 101.213L1086.83 118.049C1087.02 119.175 1086.27 120.245 1085.15 120.454L1079.64 121.438C1078.51 121.637 1077.44 120.887 1077.23 119.764L1074.24 102.928Z" fill="#395E57"/>
<path d="M1167.24 85.463C1167.04 84.337 1167.79 83.267 1168.91 83.058L1174.43 82.074C1175.55 81.875 1176.62 82.624 1176.83 83.748L1179.82 100.584C1180.02 101.709 1179.27 102.779 1178.15 102.989L1172.64 103.973C1171.51 104.172 1170.44 103.422 1170.23 102.299L1167.24 85.463Z" fill="#395E57"/>
<path d="M1304.01 58.685C1303.79 57.5633 1304.53 56.4726 1305.65 56.2513L1311.15 55.1766C1312.27 54.9554 1313.36 55.6893 1313.58 56.8109L1316.86 73.5963C1317.08 74.7183 1316.34 75.8093 1315.22 76.0303L1309.72 77.1053C1308.6 77.3263 1307.51 76.5923 1307.29 75.4703L1304.01 58.685Z" fill="#395E57"/>
<path d="M1384.92 59.3661C1384.77 58.2324 1385.57 57.1885 1386.71 57.0468L1392.26 56.3132C1393.4 56.1602 1394.44 56.9609 1394.58 58.0966L1396.81 75.0551C1396.97 76.1891 1396.16 77.2331 1395.03 77.3741L1389.47 78.1081C1388.34 78.2611 1387.29 77.4601 1387.15 76.3251L1384.92 59.3661Z" fill="#395E57"/>
<path d="M1320.89 108.104C1320.69 106.978 1321.44 105.908 1322.56 105.698L1328.08 104.715C1329.2 104.516 1330.27 105.265 1330.48 106.389L1333.47 123.225C1333.67 124.35 1332.92 125.42 1331.8 125.63L1326.29 126.614C1325.16 126.812 1324.09 126.063 1323.88 124.939L1320.89 108.104Z" fill="#395E57"/>
<path d="M1119.85 152.087C1119.65 150.961 1120.4 149.891 1121.53 149.682L1127.04 148.698C1128.16 148.499 1129.23 149.249 1129.44 150.372L1132.44 167.208C1132.63 168.334 1131.89 169.404 1130.76 169.613L1125.25 170.597C1124.12 170.796 1123.05 170.046 1122.84 168.923L1119.85 152.087Z" fill="#395E57"/>
<path d="M601.385 185.684C601.187 184.558 601.936 183.488 603.06 183.278L608.572 182.295C609.698 182.096 610.768 182.845 610.978 183.969L613.97 200.805C614.169 201.93 613.419 203 612.296 203.21L606.783 204.194C605.657 204.393 604.587 203.643 604.377 202.52L601.385 185.684Z" fill="#395E57"/>
<path d="M1303.4 246.471C1303.26 245.347 1304.07 244.301 1305.21 244.17L1310.78 243.505C1311.9 243.365 1312.95 244.178 1313.08 245.315L1315.12 262.295C1315.26 263.419 1314.45 264.465 1313.31 264.595L1307.74 265.261C1306.62 265.4 1305.57 264.588 1305.44 263.45L1303.4 246.471Z" fill="#395E57"/>
<path d="M971.551 175.739C971.319 174.62 972.028 173.521 973.146 173.277L978.626 172.112C979.746 171.879 980.844 172.588 981.088 173.706L984.646 190.43C984.879 191.55 984.17 192.648 983.052 192.892L977.572 194.057C976.452 194.29 975.354 193.581 975.11 192.463L971.551 175.739Z" fill="#395E57"/>
<path d="M1082.53 273.023C1082.33 271.897 1083.08 270.827 1084.21 270.618L1089.72 269.634C1090.85 269.435 1091.92 270.185 1092.12 271.308L1095.12 288.144C1095.32 289.27 1094.57 290.34 1093.44 290.549L1087.93 291.533C1086.8 291.732 1085.73 290.982 1085.52 289.859L1082.53 273.023Z" fill="#395E57"/>
<path d="M1006.13 263.258C1005.93 262.133 1006.68 261.063 1007.8 260.853L1013.32 259.869C1014.44 259.67 1015.51 260.42 1015.72 261.543L1018.71 278.379C1018.91 279.505 1018.16 280.575 1017.04 280.785L1011.53 281.768C1010.4 281.967 1009.33 281.218 1009.12 280.094L1006.13 263.258Z" fill="#395E57"/>
<path d="M939.076 306.126C938.878 305.001 939.627 303.931 940.75 303.721L946.263 302.737C947.389 302.539 948.459 303.288 948.669 304.412L951.661 321.247C951.859 322.373 951.11 323.443 949.986 323.653L944.474 324.636C943.348 324.835 942.278 324.086 942.068 322.962L939.076 306.126Z" fill="#395E57"/>
<path d="M847.944 235.438C847.804 234.314 848.616 233.268 849.754 233.138L855.323 232.472C856.447 232.333 857.493 233.145 857.623 234.282L859.668 251.262C859.807 252.386 858.995 253.432 857.858 253.562L852.289 254.228C851.164 254.367 850.118 253.555 849.988 252.417L847.944 235.438Z" fill="#395E57"/>
<path d="M421.694 276.387C421.507 275.259 422.267 274.187 423.395 274L428.92 273.085C430.047 272.897 431.119 273.658 431.306 274.786L434.117 291.653C434.304 292.781 433.543 293.853 432.415 294.04L426.891 294.956C425.763 295.143 424.691 294.382 424.504 293.255L421.694 276.387Z" fill="#395E57"/>
<path d="M414.475 399.015C414.322 397.881 415.123 396.837 416.245 396.686L421.798 395.93C422.932 395.777 423.976 396.577 424.127 397.7L426.423 414.646C426.576 415.78 425.775 416.824 424.653 416.975L419.1 417.731C417.967 417.884 416.923 417.083 416.772 415.961L414.475 399.015Z" fill="#395E57"/>
<path d="M240.418 419.342C240.231 418.214 240.991 417.142 242.119 416.955L247.644 416.039C248.771 415.852 249.844 416.613 250.031 417.74L252.841 434.608C253.028 435.736 252.267 436.808 251.14 436.995L245.615 437.911C244.487 438.098 243.415 437.337 243.228 436.209L240.418 419.342Z" fill="#395E57"/>
<path d="M64.0844 439.062C63.8973 437.934 64.6579 436.862 65.7856 436.675L71.3103 435.759C72.438 435.572 73.51 436.333 73.6971 437.461L76.5072 454.328C76.6943 455.456 75.9337 456.528 74.806 456.715L69.2813 457.631C68.1537 457.818 67.0816 457.057 66.8945 455.929L64.0844 439.062Z" fill="#395E57"/>
<path d="M872.22 278.698C871.965 277.583 872.672 276.473 873.787 276.218L879.256 274.984C880.372 274.729 881.481 275.436 881.737 276.551L885.509 293.226C885.764 294.342 885.057 295.451 883.942 295.706L878.473 296.94C877.357 297.196 876.248 296.489 875.993 295.373L872.22 278.698Z" fill="#395E57"/>
<path d="M156.705 345.915C157.231 344.908 158.499 344.52 159.506 345.046L164.468 347.653C165.475 348.179 165.863 349.447 165.337 350.454L157.372 365.587C156.846 366.594 155.578 366.982 154.57 366.456L149.609 363.849C148.601 363.323 148.214 362.055 148.74 361.048L156.705 345.915Z" fill="#395E57"/>
<path d="M162.648 393.85C162.873 392.731 163.963 392 165.08 392.213L170.581 393.295C171.7 393.52 172.431 394.61 172.218 395.726L168.915 412.5C168.69 413.618 167.599 414.349 166.483 414.136L160.981 413.054C159.863 412.829 159.132 411.739 159.345 410.623L162.648 393.85Z" fill="#395E57"/>
<path d="M494.091 227.523C494.315 226.405 495.406 225.673 496.522 225.887L502.024 226.969C503.142 227.194 503.873 228.284 503.66 229.4L500.357 246.173C500.132 247.292 499.042 248.023 497.925 247.81L492.424 246.728C491.306 246.503 490.574 245.413 490.787 244.297L494.091 227.523Z" fill="#395E57"/>
<path d="M481.804 361.104C480.823 360.526 480.483 359.262 481.058 358.269L483.873 353.423C484.451 352.442 485.715 352.102 486.708 352.677L501.496 361.278C502.477 361.855 502.817 363.12 502.242 364.112L499.427 368.958C498.85 369.939 497.585 370.28 496.592 369.704L481.804 361.104Z" fill="#395E57"/>
<path d="M694.256 243.826C694.782 242.819 696.05 242.431 697.057 242.957L702.019 245.564C703.026 246.09 703.414 247.358 702.888 248.365L694.923 263.498C694.397 264.506 693.129 264.893 692.122 264.367L687.16 261.76C686.153 261.235 685.765 259.966 686.291 258.959L694.256 243.826Z" fill="#395E57"/>
<path d="M1174.49 206.29C1174.71 205.172 1175.8 204.44 1176.92 204.654L1182.42 205.736C1183.54 205.96 1184.27 207.051 1184.06 208.167L1180.75 224.94C1180.53 226.059 1179.44 226.79 1178.32 226.577L1172.82 225.495C1171.7 225.27 1170.97 224.18 1171.18 223.064L1174.49 206.29Z" fill="#395E57"/>
<path d="M1167.01 264.529C1166.81 263.404 1167.56 262.334 1168.68 262.124L1174.19 261.14C1175.32 260.942 1176.39 261.691 1176.6 262.814L1179.59 279.65C1179.79 280.776 1179.04 281.846 1177.92 282.056L1172.4 283.039C1171.28 283.238 1170.21 282.489 1170 281.365L1167.01 264.529Z" fill="#395E57"/>
<path d="M1203.22 180.742C1203.27 181.883 1202.38 182.848 1201.24 182.896L1195.65 183.144C1194.51 183.193 1193.54 182.308 1193.49 181.168L1192.74 164.077C1192.69 162.937 1193.58 161.972 1194.72 161.923L1200.32 161.675C1201.46 161.627 1202.42 162.512 1202.47 163.652L1203.22 180.742Z" fill="#395E57"/>
<path d="M1051.59 235.064C1051.64 236.205 1050.76 237.17 1049.62 237.219L1044.02 237.467C1042.88 237.515 1041.92 236.63 1041.87 235.49L1041.12 218.4C1041.07 217.259 1041.95 216.294 1043.09 216.246L1048.69 215.998C1049.83 215.949 1050.79 216.834 1050.84 217.974L1051.59 235.064Z" fill="#395E57"/>
<path d="M1344.1 173.135C1344.15 174.275 1343.27 175.24 1342.13 175.289L1336.53 175.537C1335.39 175.586 1334.42 174.701 1334.38 173.56L1333.63 156.47C1333.58 155.33 1334.46 154.365 1335.6 154.316L1341.2 154.068C1342.34 154.02 1343.3 154.905 1343.35 156.045L1344.1 173.135Z" fill="#395E57"/>
<path d="M577.292 258.353C577.34 259.494 576.455 260.459 575.315 260.507L569.72 260.755C568.579 260.804 567.614 259.919 567.565 258.779L566.815 241.689C566.766 240.548 567.651 239.583 568.791 239.535L574.387 239.287C575.527 239.238 576.492 240.123 576.541 241.263L577.292 258.353Z" fill="#395E57"/>
<path d="M395.962 357.986C396.011 359.126 395.126 360.091 393.986 360.14L388.39 360.388C387.25 360.436 386.285 359.551 386.236 358.411L385.485 341.321C385.437 340.181 386.322 339.216 387.462 339.167L393.058 338.919C394.198 338.87 395.163 339.755 395.212 340.896L395.962 357.986Z" fill="#395E57"/>
<path d="M121.26 470.565C121.481 471.687 120.747 472.778 119.626 472.999L114.129 474.073C113.007 474.295 111.917 473.561 111.695 472.439L108.408 455.656C108.187 454.534 108.92 453.443 110.042 453.222L115.539 452.147C116.66 451.926 117.751 452.66 117.972 453.782L121.26 470.565Z" fill="#395E57"/>
<path d="M38.9107 388.316C38.7105 389.441 37.6356 390.194 36.51 389.994L30.9923 389.02C29.8666 388.82 29.1143 387.745 29.3145 386.62L32.2885 369.776C32.4886 368.65 33.5635 367.898 34.6892 368.098L40.2069 369.071C41.3325 369.271 42.0848 370.346 41.8847 371.472L38.9107 388.316Z" fill="#395E57"/>
<path d="M910.392 262.002C910.878 263.03 910.417 264.272 909.389 264.758L904.307 267.12C903.277 267.595 902.037 267.145 901.551 266.117L894.327 250.614C893.841 249.586 894.302 248.344 895.33 247.858L900.412 245.496C901.442 245.021 902.682 245.471 903.168 246.499L910.392 262.002Z" fill="#395E57"/>
<path d="M725.732 177.053C724.592 177.102 723.627 176.217 723.567 175.079L723.307 169.485C723.259 168.345 724.144 167.38 725.282 167.32L742.368 166.546C743.508 166.497 744.473 167.383 744.534 168.521L744.793 174.114C744.842 175.255 743.957 176.22 742.818 176.28L725.732 177.053Z" fill="#395E57"/>
<path d="M174.789 318.153C173.648 318.201 172.683 317.316 172.623 316.178L172.364 310.585C172.315 309.444 173.2 308.479 174.339 308.419L191.425 307.646C192.565 307.597 193.53 308.482 193.59 309.62L193.849 315.214C193.898 316.354 193.013 317.319 191.875 317.379L174.789 318.153Z" fill="#395E57"/>
<path d="M995.106 153.472C993.966 153.521 993.001 152.636 992.941 151.498L992.681 145.904C992.633 144.764 993.518 143.799 994.656 143.739L1011.74 142.965C1012.88 142.917 1013.85 143.802 1013.91 144.94L1014.17 150.533C1014.22 151.674 1013.33 152.639 1012.19 152.699L995.106 153.472Z" fill="#395E57"/>
<path d="M1231.37 96.5941C1230.66 95.7121 1230.8 94.3981 1231.68 93.6791L1236.04 90.1551C1236.92 89.4371 1238.24 89.5801 1238.96 90.4621L1249.7 103.774C1250.42 104.656 1250.27 105.97 1249.39 106.689L1245.03 110.213C1244.15 110.931 1242.83 110.788 1242.12 109.906L1231.37 96.5941Z" fill="#395E57"/>
<path d="M333.376 292.007C333.189 290.879 333.95 289.807 335.077 289.62L340.602 288.704C341.73 288.517 342.802 289.278 342.989 290.405L345.799 307.273C345.986 308.401 345.225 309.473 344.098 309.66L338.573 310.575C337.445 310.763 336.373 310.002 336.186 308.874L333.376 292.007Z" fill="#395E57"/>
<path d="M342.953 371.987C342.837 370.859 343.664 369.834 344.79 369.705L350.36 369.11C351.488 368.993 352.513 369.821 352.642 370.947L354.468 387.953C354.585 389.082 353.757 390.107 352.631 390.235L347.061 390.83C345.933 390.947 344.908 390.12 344.78 388.993L342.953 371.987Z" fill="#395E57"/>
<path d="M121.667 275.664C121.55 274.536 122.378 273.511 123.504 273.382L129.073 272.787C130.202 272.67 131.227 273.498 131.355 274.624L133.181 291.63C133.298 292.759 132.471 293.784 131.345 293.912L125.775 294.507C124.647 294.624 123.622 293.797 123.493 292.67L121.667 275.664Z" fill="#395E57"/>
<path d="M1252.31 207.234C1252.11 206.109 1252.86 205.038 1253.99 204.829L1259.5 203.845C1260.63 203.646 1261.7 204.396 1261.91 205.519L1264.9 222.355C1265.1 223.481 1264.35 224.551 1263.22 224.76L1257.71 225.744C1256.59 225.943 1255.52 225.194 1255.31 224.07L1252.31 207.234Z" fill="#395E57"/>
<path d="M670.555 291.794C670.78 290.676 671.871 289.944 672.987 290.158L678.488 291.239C679.607 291.464 680.338 292.555 680.125 293.671L676.822 310.444C676.597 311.562 675.507 312.294 674.39 312.08L668.877 311.001C667.759 310.776 667.027 309.686 667.241 308.569L670.555 291.794Z" fill="#395E57"/>
<path d="M1362.82 200.681C1362.62 199.555 1363.37 198.485 1364.49 198.275L1370 197.292C1371.13 197.093 1372.2 197.842 1372.41 198.966L1375.4 215.802C1375.6 216.927 1374.85 217.997 1373.73 218.207L1368.21 219.191C1367.09 219.389 1366.02 218.64 1365.81 217.517L1362.82 200.681Z" fill="#395E57"/>
<path d="M217.367 345.864C217.589 346.985 216.855 348.076 215.733 348.297L210.237 349.372C209.115 349.593 208.024 348.859 207.803 347.738L204.515 330.954C204.294 329.833 205.028 328.742 206.15 328.521L211.646 327.446C212.768 327.225 213.859 327.958 214.08 329.08L217.367 345.864Z" fill="#395E57"/>
<path d="M1431.55 58.3081C1430.57 57.7307 1430.23 56.4659 1430.81 55.4734L1433.62 50.6274C1434.2 49.6463 1435.46 49.3061 1436.46 49.8814L1451.24 58.482C1452.22 59.0593 1452.56 60.3242 1451.99 61.3166L1449.17 66.1622C1448.6 67.1442 1447.33 67.4842 1446.34 66.9082L1431.55 58.3081Z" fill="#395E57"/>
</g>
</g>
<defs>
<clipPath id="clip0_501:561">
<rect width="1440" height="544" fill="white"/>
</clipPath>
<clipPath id="clip1_501:561">
<rect width="1440" height="589" fill="white" transform="translate(0 -34)"/>
</clipPath>
</defs>
</svg>
