<?xml version="1.0" standalone="no"?>
<!DOCTYPE svg PUBLIC "-//W3C//DTD SVG 1.1//EN" "http://www.w3.org/Graphics/SVG/1.1/DTD/svg11.dtd" >
<svg xmlns="http://www.w3.org/2000/svg" xmlns:xlink="http://www.w3.org/1999/xlink" version="1.1">
<metadata>
Created by FontForge 20170731 at Mon Jun 25 16:15:36 2018
 By Aleksey,,,
Copyright (c) 2017 by Tokotype. All rights reserved.
</metadata>
<defs>
<font id="Gramatika-MediumItalic" horiz-adv-x="0" >
  <font-face 
    font-family="Gramatika-MediumItalic"
    font-weight="400"
    font-style="italic"
    font-stretch="normal"
    units-per-em="1000"
    panose-1="0 0 6 0 0 0 0 0 0 0"
    ascent="773"
    descent="-227"
    x-height="484"
    cap-height="700"
    bbox="-373 -420 1285 1082"
    underline-thickness="80"
    underline-position="-280"
    slope="-8"
    unicode-range="U+000D-FB02"
  />
<missing-glyph horiz-adv-x="568" 
d="M156 700h390l-101 -700h-390zM404 50l86 600h-293l-86 -600h293z" />
    <glyph glyph-name="fi" unicode="fi" horiz-adv-x="663" 
d="M583 570q-27 0 -45 17.5t-18 43.5q0 33 25.5 58.5t58.5 25.5q28 0 46.5 -18t18.5 -44q0 -32 -26 -57.5t-60 -25.5zM76 0l56 392h-92l14 92h92l7 49q12 86 69.5 131.5t134.5 45.5q59 0 108 -17l-27 -85q-37 14 -74 14q-46 0 -72.5 -26t-32.5 -70l-6 -42h372l-70 -484h-107
l56 392h-265l-56 -392h-107z" />
    <glyph glyph-name="fl" unicode="fl" horiz-adv-x="646" 
d="M76 0l56 392h-92l14 92h92l7 49q12 86 69.5 131.5t134.5 45.5q59 0 108 -17l-27 -85q-37 14 -74 14q-46 0 -72.5 -26t-32.5 -70l-6 -42h174l-14 -92h-174l-56 -392h-107zM440 0l101 700h107l-101 -700h-107z" />
    <glyph glyph-name="f_f" unicode="ff" horiz-adv-x="818" 
d="M76 0l56 392h-92l14 92h92l7 49q12 86 69.5 131.5t134.5 45.5q59 0 108 -17l-27 -85q-37 14 -74 14q-46 0 -72.5 -26t-32.5 -70l-6 -42h302l7 49q12 86 69 131.5t134 45.5q58 0 109 -17l-27 -85q-38 14 -74 14q-46 0 -72.5 -26t-32.5 -70l-6 -42h174l-14 -92h-174
l-56 -392h-107l56 392h-302l-56 -392h-107z" />
    <glyph glyph-name="f_f_i" unicode="ffi" horiz-adv-x="1072" 
d="M992 570q-27 0 -45 17.5t-18 43.5q0 33 25.5 58.5t58.5 25.5q28 0 46.5 -18t18.5 -44q0 -32 -26 -57.5t-60 -25.5zM76 0l56 392h-92l14 92h92l7 49q12 86 69.5 131.5t134.5 45.5q59 0 108 -17l-27 -85q-37 14 -74 14q-46 0 -72.5 -26t-32.5 -70l-6 -42h302l7 49
q12 86 69 131.5t134 45.5q58 0 109 -17l-27 -85q-38 14 -74 14q-46 0 -72.5 -26t-32.5 -70l-6 -42h372l-70 -484h-107l56 392h-265l-56 -392h-107l56 392h-302l-56 -392h-107z" />
    <glyph glyph-name="f_f_l" unicode="ffl" horiz-adv-x="1055" 
d="M76 0l56 392h-92l14 92h92l7 49q12 86 69.5 131.5t134.5 45.5q59 0 108 -17l-27 -85q-37 14 -74 14q-46 0 -72.5 -26t-32.5 -70l-6 -42h302l7 49q12 86 69 131.5t134 45.5q58 0 109 -17l-27 -85q-38 14 -74 14q-46 0 -72.5 -26t-32.5 -70l-6 -42h174l-14 -92h-174
l-56 -392h-107l56 392h-302l-56 -392h-107zM849 0l101 700h107l-101 -700h-107z" />
    <glyph glyph-name=".notdef" horiz-adv-x="568" 
d="M156 700h390l-101 -700h-390zM404 50l86 600h-293l-86 -600h293z" />
    <glyph glyph-name=".null" 
 />
    <glyph glyph-name="nonmarkingreturn" horiz-adv-x="333" 
 />
    <glyph glyph-name="CR" unicode="&#xd;" horiz-adv-x="582" 
 />
    <glyph glyph-name="space" unicode=" " horiz-adv-x="228" 
 />
    <glyph glyph-name="exclam" unicode="!" horiz-adv-x="288" 
d="M91 214l61 486h114l-78 -486h-97zM108 -5q-26 0 -43.5 17t-17.5 42q0 32 24.5 56t56.5 24q26 0 43.5 -17t17.5 -42q0 -31 -25 -55.5t-56 -24.5z" />
    <glyph glyph-name="quotedbl" unicode="&#x22;" horiz-adv-x="482" 
d="M122 435l42 285h105l-63 -285h-84zM322 435l41 285h105l-62 -285h-84z" />
    <glyph glyph-name="numbersign" unicode="#" horiz-adv-x="708" 
d="M81 0l52 168h-108l27 91h111l58 188h-115l27 90h118l50 163h96l-51 -163h162l50 163h95l-51 -163h115l-27 -90h-117l-58 -188h121l-27 -91h-124l-52 -168h-95l52 168h-161l-52 -168h-96zM259 259h161l58 188h-161z" />
    <glyph glyph-name="dollar" unicode="$" horiz-adv-x="615" 
d="M210 -100l13 95q-76 14 -124 59t-54 117l105 33q10 -79 89 -105l30 214q-79 22 -126 58t-47 106q0 92 64 156.5t166 74.5l10 72h87l-10 -74q73 -12 119 -58t51 -119l-107 -33q-9 81 -79 105l-29 -206q38 -9 65 -18.5t59 -28.5t49 -50t17 -72q0 -98 -68.5 -163t-179.5 -72
l-13 -91h-87zM284 416l27 190q-44 -10 -69 -39.5t-25 -70.5q0 -56 67 -80zM325 93q54 7 84.5 38t30.5 78q0 34 -22.5 52t-64.5 30z" />
    <glyph glyph-name="percent" unicode="%" horiz-adv-x="902" 
d="M234 353q-69 0 -111 39.5t-42 105.5q0 89 59.5 150.5t144.5 61.5q69 0 111.5 -40.5t42.5 -108.5q0 -88 -59 -148t-146 -60zM130 0l580 700h96l-580 -700h-96zM245 430q44 0 76.5 35t32.5 82q0 37 -22.5 61.5t-56.5 24.5q-43 0 -76 -36t-33 -83q0 -37 22.5 -60.5
t56.5 -23.5zM650 -10q-69 0 -111.5 40t-42.5 106q0 88 59.5 149.5t145.5 61.5q68 0 110 -40t42 -108q0 -88 -58.5 -148.5t-144.5 -60.5zM660 67q44 0 77 35.5t33 82.5q0 37 -23 61t-57 24q-44 0 -76.5 -35.5t-32.5 -83.5q0 -37 22.5 -60.5t56.5 -23.5z" />
    <glyph glyph-name="ampersand" unicode="&#x26;" horiz-adv-x="689" 
d="M247 -10q-95 0 -153.5 48t-58.5 130q0 152 174 229q-42 66 -42 122q0 79 62 135t150 56q76 0 122.5 -41t46.5 -105q0 -45 -18.5 -81.5t-52 -60.5t-59.5 -37t-61 -26l119 -158q41 62 50 122h95q-15 -99 -91 -192l100 -131h-122l-55 71q-90 -81 -206 -81zM310 423
q34 17 51 26.5t39 26t31.5 36t9.5 43.5q0 31 -20 50.5t-52 19.5q-40 0 -67.5 -30t-27.5 -74q0 -41 36 -98zM268 75q71 0 131 65l-144 189q-49 -27 -77.5 -59.5t-28.5 -84.5q0 -50 33.5 -80t85.5 -30z" />
    <glyph glyph-name="quotesingle" unicode="'" horiz-adv-x="283" 
d="M122 435l42 285h105l-63 -285h-84z" />
    <glyph glyph-name="parenleft" unicode="(" horiz-adv-x="301" 
d="M144 -149q-104 131 -104 325q0 155 61 299t168 242l84 -40q-96 -97 -150 -225.5t-54 -261.5q0 -173 91 -299z" />
    <glyph glyph-name="parenright" unicode=")" horiz-adv-x="301" 
d="M64 -149l-84 40q97 98 150.5 225.5t53.5 261.5q0 173 -91 299l97 40q103 -131 103 -325q0 -155 -60 -297.5t-169 -243.5z" />
    <glyph glyph-name="asterisk" unicode="*" horiz-adv-x="449" 
d="M164 383l-51 42l95 107l-111 43l30 64l115 -44l17 115h68l-17 -115l127 41l11 -64l-123 -40l63 -111l-62 -41l-67 113z" />
    <glyph glyph-name="plus" unicode="+" horiz-adv-x="567" 
d="M541 370l-14 -94h-191l-30 -205h-92l30 205h-192l14 94h191l29 200h93l-29 -200h191z" />
    <glyph glyph-name="comma" unicode="," horiz-adv-x="287" 
d="M64 -119l-37 43q54 41 65 76q-17 6 -27 20.5t-10 33.5q0 32 24.5 56t55.5 24q26 0 44 -16.5t18 -44.5q0 -84 -133 -192z" />
    <glyph glyph-name="hyphen" unicode="-" horiz-adv-x="418" 
d="M65 220l14 93h283l-14 -93h-283z" />
    <glyph glyph-name="period" unicode="." horiz-adv-x="302" 
d="M116 -5q-26 0 -43.5 17t-17.5 42q0 32 24.5 56t56.5 24q26 0 43.5 -17t17.5 -42q0 -31 -24.5 -55.5t-56.5 -24.5z" />
    <glyph glyph-name="slash" unicode="/" horiz-adv-x="369" 
d="M-50 -70l390 800h107l-391 -800h-106z" />
    <glyph glyph-name="zero" unicode="0" horiz-adv-x="647" 
d="M288 -10q-106 0 -167.5 72.5t-61.5 201.5q0 190 95 318t237 128q107 0 168.5 -72.5t61.5 -201.5q0 -190 -95.5 -318t-237.5 -128zM302 88q88 0 148 97t60 239q0 89 -35.5 139t-97.5 50q-87 0 -147 -98t-60 -240q0 -88 35 -137.5t97 -49.5z" />
    <glyph glyph-name="one" unicode="1" horiz-adv-x="359" 
d="M130 0l85 586q-76 -34 -148 -34l14 96q83 0 166 52h94l-101 -700h-110z" />
    <glyph glyph-name="two" unicode="2" horiz-adv-x="532" 
d="M-9 0l10 69l198 178q116 105 148 141q66 74 66 133q0 41 -27.5 67t-75.5 26q-47 0 -84.5 -26.5t-52.5 -73.5l-89 30q27 79 94 122.5t151 43.5q89 0 143 -45.5t54 -117.5q0 -35 -14.5 -73t-32 -65.5t-52 -65t-53 -55t-57.5 -52.5l-155 -141h306l-14 -95h-463z" />
    <glyph glyph-name="three" unicode="3" horiz-adv-x="549" 
d="M224 -10q-88 0 -144 44t-60 122l98 30q1 -47 33 -73.5t83 -26.5q66 0 108.5 38t42.5 97q0 47 -34.5 71.5t-89.5 24.5h-71l13 87h71q65 0 105 32.5t40 85.5q0 44 -33.5 68t-81.5 24t-85.5 -27t-53.5 -73l-90 30q28 78 95.5 122t153.5 44q93 0 149 -46.5t56 -124.5
q0 -125 -114 -180q80 -43 80 -131q0 -101 -78 -169.5t-193 -68.5z" />
    <glyph glyph-name="four" unicode="4" horiz-adv-x="598" 
d="M338 0l21 145h-352l14 90l422 465h106l-67 -460h93l-14 -95h-92l-21 -145h-110zM139 240h233l44 306z" />
    <glyph glyph-name="five" unicode="5" horiz-adv-x="567" 
d="M248 -10q-84 0 -140 43.5t-61 117.5l99 30q2 -44 33 -69.5t78 -25.5q66 0 112 50.5t46 122.5q0 54 -31.5 86.5t-82.5 32.5q-46 0 -81.5 -23.5t-50.5 -64.5l-87 28l56 382h423l-15 -95h-328l-25 -179q54 48 128 48q93 0 149.5 -55t56.5 -145q0 -119 -81 -201.5t-198 -82.5
z" />
    <glyph glyph-name="six" unicode="6" horiz-adv-x="560" 
d="M338 473q84 0 138.5 -57t54.5 -145q0 -116 -84.5 -198.5t-202.5 -82.5q-93 0 -153 56t-60 146q0 76 49 160l201 348h109l-136 -243q39 16 84 16zM259 86q65 0 112.5 50t47.5 120q0 55 -33.5 88.5t-84.5 33.5q-65 0 -112 -50.5t-47 -120.5q0 -54 33.5 -87.5t83.5 -33.5z
" />
    <glyph glyph-name="seven" unicode="7" horiz-adv-x="501" 
d="M52 0l354 600h-335l15 100h462l-10 -68l-361 -632h-125z" />
    <glyph glyph-name="eight" unicode="8" horiz-adv-x="584" 
d="M256 -10q-99 0 -157.5 48.5t-58.5 125.5q0 64 35.5 116t95.5 79q-71 41 -71 123q0 97 74.5 162.5t185.5 65.5q95 0 148.5 -46.5t53.5 -121.5q0 -60 -30 -108.5t-84 -74.5q84 -43 84 -136q0 -99 -80 -166t-196 -67zM315 404q58 0 97 34t39 85q0 41 -29.5 66t-75.5 25
q-58 0 -96.5 -35.5t-38.5 -87.5q0 -40 28.5 -63.5t75.5 -23.5zM270 86q65 0 108.5 38.5t43.5 95.5q0 45 -32.5 71t-86.5 26q-65 0 -108 -38t-43 -95q0 -45 32.5 -71.5t85.5 -26.5z" />
    <glyph glyph-name="nine" unicode="9" horiz-adv-x="559" 
d="M348 710q93 0 154 -56t61 -146q0 -77 -49 -160l-203 -348h-109l138 243q-41 -16 -84 -16q-85 0 -139 56.5t-54 144.5q0 116 83.5 199t201.5 83zM291 322q66 0 113 50.5t47 120.5q0 54 -33.5 87.5t-84.5 33.5q-65 0 -112 -50.5t-47 -119.5q0 -55 33.5 -88.5t83.5 -33.5z
" />
    <glyph glyph-name="colon" unicode=":" horiz-adv-x="283" 
d="M156 348q-26 0 -43 16.5t-17 41.5q0 32 24.5 56.5t56.5 24.5q26 0 43.5 -17t17.5 -42q0 -32 -25 -56t-57 -24zM106 -5q-26 0 -43 17t-17 42q0 32 24 56t56 24q26 0 43.5 -17t17.5 -41q0 -32 -24.5 -56.5t-56.5 -24.5z" />
    <glyph glyph-name="semicolon" unicode=";" horiz-adv-x="291" 
d="M183 487q26 0 43 -17t17 -42q0 -32 -24.5 -56.5t-56.5 -24.5q-25 0 -43 17.5t-18 42.5q0 31 25 55.5t57 24.5zM64 -119l-37 43q30 25 44 41t20 35q-17 6 -27 20.5t-10 33.5q0 32 24.5 56t56.5 24q25 0 43 -16.5t18 -44.5q0 -85 -132 -192z" />
    <glyph glyph-name="less" unicode="&#x3c;" horiz-adv-x="566" 
d="M551 575l-16 -112l-398 -166l350 -166l-16 -111l-425 223l6 39l10 70z" />
    <glyph glyph-name="equal" unicode="=" horiz-adv-x="639" 
d="M573 469l-13 -85h-438l13 85h438zM542 254l-13 -85h-438l13 85h438z" />
    <glyph glyph-name="greater" unicode="&#x3e;" horiz-adv-x="567" 
d="M533 334h1l-8 -52l-3 -21l-3 -18l-489 -223l17 111l398 166l-351 166l17 112l424 -223z" />
    <glyph glyph-name="question" unicode="?" horiz-adv-x="513" 
d="M189 214l27 187h28q74 0 119.5 35t45.5 91q0 39 -28 60.5t-73 21.5q-51 0 -89 -26.5t-56 -75.5l-96 34q30 81 99.5 125t154.5 44q94 0 148 -44t54 -117q0 -82 -59.5 -139.5t-159.5 -77.5l-17 -118h-98zM207 -5q-27 0 -44 17t-17 42q0 32 24.5 56t56.5 24q26 0 43.5 -17
t17.5 -42q0 -31 -24.5 -55.5t-56.5 -24.5z" />
    <glyph glyph-name="at" unicode="@" horiz-adv-x="917" 
d="M374 -187q-144 0 -235.5 91.5t-91.5 246.5q0 215 142 366t345 151q153 0 247.5 -92t94.5 -246q0 -143 -68 -239t-169 -96q-52 0 -82.5 30.5t-27.5 87.5q-63 -83 -156 -83q-58 0 -96 41t-38 112q0 110 74.5 199t167.5 89q91 0 114 -87l21 77h76l-82 -293q-15 -46 -3 -80
t51 -34q67 0 110 74.5t43 190.5q0 137 -80 212t-207 75q-175 0 -294.5 -128.5t-119.5 -317.5q0 -133 76.5 -209t198.5 -76q67 0 132.5 20.5t107.5 53.5l29 -51q-55 -38 -131.5 -61.5t-148.5 -23.5zM406 97q61 0 110 64.5t49 145.5q0 46 -22.5 71.5t-62.5 25.5
q-64 0 -113 -62.5t-49 -143.5q0 -47 23.5 -74t64.5 -27z" />
    <glyph glyph-name="A" unicode="A" horiz-adv-x="698" 
d="M478 700l177 -700h-117l-40 167h-318l-88 -167h-117l380 700h123zM234 267h238l-75 308z" />
    <glyph glyph-name="B" unicode="B" horiz-adv-x="633" 
d="M40 0l101 700h288q90 0 138.5 -40.5t48.5 -111.5q0 -122 -111 -176q84 -43 84 -136q0 -106 -72 -171t-188 -65h-289zM210 414h166q58 0 91.5 31t33.5 84q0 76 -97 76h-167zM164 95h169q64 0 103 36.5t39 97.5q0 42 -28.5 66t-81.5 24h-169z" />
    <glyph glyph-name="C" unicode="C" horiz-adv-x="730" 
d="M346 -10q-130 0 -211 82t-81 216q0 176 115.5 299t280.5 123q113 0 190.5 -57.5t87.5 -158.5l-112 -33q-6 63 -56 103t-126 40q-110 0 -187 -88t-77 -213q0 -94 53 -150.5t139 -56.5q76 0 137.5 40t86.5 103l101 -33q-40 -101 -134 -158.5t-207 -57.5z" />
    <glyph glyph-name="D" unicode="D" horiz-adv-x="693" 
d="M40 0l101 700h230q144 0 222.5 -72.5t78.5 -204.5q0 -190 -111 -306.5t-291 -116.5h-230zM165 100h116q122 0 198.5 84t76.5 220q0 93 -53 144.5t-151 51.5h-116z" />
    <glyph glyph-name="E" unicode="E" horiz-adv-x="590" 
d="M40 0l101 700h451l-15 -100h-341l-28 -199h329l-15 -100h-329l-28 -201h347l-15 -100h-457z" />
    <glyph glyph-name="F" unicode="F" horiz-adv-x="570" 
d="M40 0l101 700h451l-15 -100h-341l-29 -210h321l-15 -100h-321l-42 -290h-110z" />
    <glyph glyph-name="G" unicode="G" horiz-adv-x="747" 
d="M308 240l15 100h387l-50 -340h-100l12 83q-88 -93 -219 -93q-135 0 -217 81.5t-82 216.5q0 176 115.5 299t280.5 123q113 0 190.5 -57.5t87.5 -158.5l-112 -33q-6 63 -56 103t-126 40q-110 0 -187 -88t-77 -213q0 -94 54 -150.5t145 -56.5q76 0 138 40.5t88 103.5h-287z
" />
    <glyph glyph-name="H" unicode="H" horiz-adv-x="688" 
d="M40 0l101 700h110l-43 -300h320l43 300h110l-101 -700h-110l43 300h-320l-43 -300h-110z" />
    <glyph glyph-name="I" unicode="I" horiz-adv-x="260" 
d="M41 0l101 700h110l-101 -700h-110z" />
    <glyph glyph-name="J" unicode="J" horiz-adv-x="500" 
d="M126 234l-5 -35q-7 -48 14.5 -75.5t63.5 -27.5q47 0 77.5 30.5t38.5 83.5l71 490h110l-71 -490q-15 -107 -79.5 -163.5t-161.5 -56.5q-91 0 -138 54t-36 150l2 17z" />
    <glyph glyph-name="K" unicode="K" horiz-adv-x="624" 
d="M40 0l101 700h110l-47 -331l340 331h133l-304 -302l216 -398h-138l-172 315l-96 -89l-33 -226h-110z" />
    <glyph glyph-name="L" unicode="L" horiz-adv-x="540" 
d="M40 0l101 700h110l-86 -600h343l-14 -100h-454z" />
    <glyph glyph-name="M" unicode="M" horiz-adv-x="872" 
d="M728 700h136l-101 -700h-110l69 480l-271 -480h-97l-135 482l-69 -482h-110l101 700h136l150 -530z" />
    <glyph glyph-name="N" unicode="N" horiz-adv-x="716" 
d="M598 700h110l-101 -700h-103l-282 503l-72 -503h-110l101 700h104l282 -503z" />
    <glyph glyph-name="O" unicode="O" horiz-adv-x="776" 
d="M353 -10q-134 0 -216.5 82t-82.5 216q0 176 116.5 299t285.5 123q134 0 216.5 -81t82.5 -215q0 -176 -117.5 -300t-284.5 -124zM368 96q113 0 191 87.5t78 214.5q0 93 -54 149.5t-142 56.5q-113 0 -191.5 -87t-78.5 -214q0 -94 54 -150.5t143 -56.5z" />
    <glyph glyph-name="P" unicode="P" horiz-adv-x="616" 
d="M40 0l101 700h264q99 0 155 -50.5t56 -138.5q0 -119 -78 -195t-199 -76h-154l-35 -240h-110zM200 340h155q66 0 106.5 43t40.5 113q0 49 -29 76.5t-81 27.5h-156z" />
    <glyph glyph-name="Q" unicode="Q" horiz-adv-x="773" 
d="M630 -83l-98 118q-85 -45 -180 -45q-134 0 -216.5 82t-82.5 216q0 176 116.5 299t285.5 123q134 0 216.5 -81t82.5 -215q0 -85 -33 -166.5t-91 -140.5l90 -110zM367 96q51 0 96 20l-107 129l91 80l114 -139q75 88 75 212q0 93 -54 149.5t-142 56.5q-113 0 -191.5 -87
t-78.5 -214q0 -94 54 -150.5t143 -56.5z" />
    <glyph glyph-name="R" unicode="R" horiz-adv-x="623" 
d="M40 0l101 700h264q99 0 155.5 -50t56.5 -133q0 -91 -54 -159t-141 -89l128 -269h-119l-122 260h-122l-37 -260h-110zM202 360h158q64 0 103.5 39.5t39.5 102.5q0 45 -28 71.5t-80 26.5h-159z" />
    <glyph glyph-name="S" unicode="S" horiz-adv-x="597" 
d="M274 -10q-102 0 -166 49t-71 142l106 33q5 -61 44.5 -92t99.5 -31q64 0 104 32t40 83q0 21 -9 36t-28.5 25.5t-36.5 16.5t-47 14q-29 7 -44 11t-42.5 13.5t-42.5 18t-35.5 22.5t-31 30t-18.5 38t-8 48q0 100 74.5 165.5t189.5 65.5q95 0 155 -49t65 -142l-105 -33
q-5 59 -39.5 91t-89.5 32q-57 0 -94 -32t-37 -81q0 -38 29.5 -57.5t88.5 -33.5q97 -24 134 -43q92 -47 92 -139q0 -102 -78 -167.5t-199 -65.5z" />
    <glyph glyph-name="T" unicode="T" horiz-adv-x="551" 
d="M186 0l87 600h-208l15 100h525l-15 -100h-207l-87 -600h-110z" />
    <glyph glyph-name="U" unicode="U" horiz-adv-x="656" 
d="M292 -10q-118 0 -178.5 76t-42.5 200l63 434h110l-63 -435q-11 -75 25 -122t103 -47t114.5 46.5t58.5 122.5l63 435h110l-63 -436q-18 -123 -100.5 -198.5t-199.5 -75.5z" />
    <glyph glyph-name="V" unicode="V" horiz-adv-x="689" 
d="M630 700h117l-378 -700h-117l-176 700h117l137 -565z" />
    <glyph glyph-name="W" unicode="W" horiz-adv-x="1068" 
d="M996 700h120l-315 -700h-127l-98 542l-252 -542h-127l-113 700h120l82 -553l254 553h120l95 -551z" />
    <glyph glyph-name="X" unicode="X" horiz-adv-x="667" 
d="M716 700l-300 -359l190 -341h-125l-147 267l-225 -267h-125l300 353l-193 347h125l150 -272l226 272h124z" />
    <glyph glyph-name="Y" unicode="Y" horiz-adv-x="641" 
d="M588 700h119l-329 -453l-36 -247h-110l36 247l-199 453h119l150 -348z" />
    <glyph glyph-name="Z" unicode="Z" horiz-adv-x="631" 
d="M649 700l-12 -75l-458 -525h388l-15 -100h-541l11 75l463 525h-375l15 100h524z" />
    <glyph glyph-name="bracketleft" unicode="[" horiz-adv-x="362" 
d="M28 -132l120 832h257l-14 -93h-148l-92 -645h148l-13 -94h-258z" />
    <glyph glyph-name="backslash" unicode="\" horiz-adv-x="371" 
d="M347 -70h-106l-160 800h107z" />
    <glyph glyph-name="bracketright" unicode="]" horiz-adv-x="362" 
d="M247 -132h-258l14 94h148l92 645h-148l14 93h257z" />
    <glyph glyph-name="asciicircum" unicode="^" horiz-adv-x="551" 
d="M296 710h97l135 -404h-97l-100 312l-190 -312h-97z" />
    <glyph glyph-name="underscore" unicode="_" horiz-adv-x="692" 
d="M557 -50l-14 -93h-504l14 93h504z" />
    <glyph glyph-name="grave" unicode="`" 
d="M132 564h-80l-68 156h100z" />
    <glyph glyph-name="a" unicode="a" horiz-adv-x="592" 
d="M455 484h107l-70 -484h-107l10 66q-67 -76 -170 -76q-87 0 -142 57.5t-55 150.5q0 121 80 208.5t191 87.5q103 0 147 -75zM260 84q67 0 114.5 55t47.5 133q0 58 -32 93t-85 35q-69 0 -117.5 -55.5t-48.5 -132.5q0 -58 34 -93t87 -35z" />
    <glyph glyph-name="b" unicode="b" horiz-adv-x="596" 
d="M367 494q88 0 143 -57.5t55 -150.5q0 -121 -79.5 -208.5t-189.5 -87.5q-103 0 -148 76l-10 -66h-107l101 700h107l-40 -281q66 75 168 75zM289 84q68 0 116.5 55t48.5 133q0 58 -34 93t-86 35q-68 0 -115.5 -55t-47.5 -133q0 -58 32.5 -93t85.5 -35z" />
    <glyph glyph-name="c" unicode="c" horiz-adv-x="518" 
d="M241 -10q-92 0 -150 57t-58 151q0 122 82.5 209t198.5 87q79 0 133.5 -39.5t60.5 -110.5l-98 -30q-3 38 -32.5 61t-72.5 23q-67 0 -114 -54.5t-47 -131.5q0 -57 32.5 -91.5t84.5 -34.5q43 0 79 23t50 62l90 -30q-27 -72 -93.5 -111.5t-145.5 -39.5z" />
    <glyph glyph-name="d" unicode="d" horiz-adv-x="597" 
d="M492 700h107l-101 -700h-107l10 66q-68 -76 -171 -76q-87 0 -142 57.5t-55 150.5q0 121 80 208.5t191 87.5q102 0 148 -76zM265 84q68 0 115.5 55t47.5 133q0 57 -32.5 92.5t-85.5 35.5q-68 0 -117 -55t-49 -132q0 -58 34 -93.5t87 -35.5z" />
    <glyph glyph-name="e" unicode="e" horiz-adv-x="540" 
d="M242 -10q-93 0 -151 56.5t-58 150.5q0 124 81.5 210.5t197.5 86.5q90 0 144.5 -54t54.5 -144q0 -28 -10 -78h-361q-4 -67 27.5 -104.5t86.5 -37.5q43 0 78.5 23t49.5 65l90 -28q-28 -70 -91 -108t-139 -38zM157 300h254q-1 46 -30.5 76.5t-80.5 30.5q-47 0 -84.5 -28
t-58.5 -79z" />
    <glyph glyph-name="f" unicode="f" horiz-adv-x="409" 
d="M76 0l56 392h-92l14 92h92l7 49q12 86 69.5 131.5t134.5 45.5q59 0 108 -17l-27 -85q-37 14 -74 14q-46 0 -72.5 -26t-32.5 -70l-6 -42h174l-14 -92h-174l-56 -392h-107z" />
    <glyph glyph-name="g" unicode="g" horiz-adv-x="597" 
d="M461 484h107l-66 -455q-16 -107 -92.5 -173t-185.5 -66q-83 0 -140 40t-68 110l100 40q3 -41 36 -68.5t84 -27.5q60 0 105 38t53 99l6 45q-67 -76 -170 -76q-86 0 -141.5 57.5t-55.5 151.5q0 121 80 208t190 87q103 0 148 -76zM265 84q68 0 115.5 54.5t47.5 133.5
q0 58 -32.5 93t-85.5 35q-68 0 -117 -55t-49 -132q0 -58 34 -93.5t87 -35.5z" />
    <glyph glyph-name="h" unicode="h" horiz-adv-x="553" 
d="M347 494q81 0 124 -48.5t31 -135.5l-44 -310h-107l40 282q8 57 -16.5 86t-72.5 29q-49 0 -83 -34t-43 -95l-38 -268h-107l101 700h107l-39 -270q58 64 147 64z" />
    <glyph glyph-name="i" unicode="i" horiz-adv-x="254" 
d="M175 570q-27 0 -45 17.5t-18 43.5q0 33 25.5 58.5t58.5 25.5q27 0 45.5 -18t18.5 -44q0 -32 -25.5 -57.5t-59.5 -25.5zM40 0l70 484h107l-70 -484h-107z" />
    <glyph glyph-name="j" unicode="j" horiz-adv-x="276" 
d="M200 570q-27 0 -45 17.5t-18 43.5q0 33 26 58.5t58 25.5q28 0 46.5 -18t18.5 -44q0 -32 -26 -57.5t-60 -25.5zM-13 -205q-32 0 -73 9l26 91q21 -7 44 -7q67 0 76 70l75 526h107l-77 -538q-10 -72 -59 -111.5t-119 -39.5z" />
    <glyph glyph-name="k" unicode="k" horiz-adv-x="521" 
d="M31 0l101 700h107l-60 -423l234 207h122l-210 -188l155 -296h-121l-120 214l-81 -72l-20 -142h-107z" />
    <glyph glyph-name="l" unicode="l" horiz-adv-x="237" 
d="M31 0l101 700h107l-101 -700h-107z" />
    <glyph glyph-name="m" unicode="m" horiz-adv-x="873" 
d="M667 494q81 0 124.5 -48.5t31.5 -135.5l-45 -310h-107l41 282q8 57 -17 86t-73 29t-82.5 -34.5t-43.5 -94.5l-38 -268h-107l40 282q8 57 -16.5 86t-72.5 29q-49 0 -83 -34t-43 -95l-38 -268h-107l70 484h107l-8 -54q58 64 147 64q56 0 95 -24t55 -69q60 93 170 93z" />
    <glyph glyph-name="n" unicode="n" horiz-adv-x="553" 
d="M347 494q81 0 124 -48.5t31 -135.5l-44 -310h-107l40 282q8 57 -16.5 86t-72.5 29q-49 0 -83 -34t-43 -95l-38 -268h-107l70 484h107l-8 -54q58 64 147 64z" />
    <glyph glyph-name="o" unicode="o" horiz-adv-x="569" 
d="M249 -10q-96 0 -156 57t-60 151q0 123 84 209.5t205 86.5q96 0 156 -57.5t60 -153.5q0 -122 -84.5 -207.5t-204.5 -85.5zM263 86q68 0 116 54t48 131q0 58 -33 92.5t-86 34.5q-69 0 -116.5 -54t-47.5 -132q0 -57 33.5 -91.5t85.5 -34.5z" />
    <glyph glyph-name="p" unicode="p" horiz-adv-x="596" 
d="M367 494q88 0 143 -57.5t55 -150.5q0 -121 -79.5 -208.5t-189.5 -87.5q-103 0 -149 77l-38 -267h-107l99 684h107l-10 -65q67 75 169 75zM289 84q68 0 116.5 55t48.5 133q0 58 -34 93t-86 35q-68 0 -115.5 -55t-47.5 -133q0 -57 32 -92.5t86 -35.5z" />
    <glyph glyph-name="q" unicode="q" horiz-adv-x="597" 
d="M461 484h107l-99 -684h-107l39 266q-68 -76 -171 -76q-87 0 -142 57.5t-55 150.5q0 121 80 208.5t191 87.5q102 0 148 -76zM265 84q68 0 115.5 55t47.5 133q0 57 -32.5 92.5t-85.5 35.5q-68 0 -117 -55t-49 -132q0 -58 34 -93.5t87 -35.5z" />
    <glyph glyph-name="r" unicode="r" horiz-adv-x="394" 
d="M344 494q40 0 68 -11l-32 -101q-31 13 -70 13q-50 0 -88 -36t-47 -100l-37 -259h-107l70 484h107l-8 -54q56 64 144 64z" />
    <glyph glyph-name="s" unicode="s" horiz-adv-x="457" 
d="M197 -10q-75 0 -124.5 35.5t-54.5 97.5l94 26q4 -36 30.5 -54t64.5 -18q41 0 68.5 20t27.5 50q0 23 -20 33t-61 17q-31 6 -47 9t-44.5 13t-43.5 22t-27 33t-12 48q0 75 58.5 123.5t149.5 48.5q73 0 119 -33t52 -99l-94 -26q-3 35 -28.5 53.5t-61.5 18.5q-37 0 -60 -19
t-23 -49q0 -23 17 -33t53 -16q3 0 20.5 -3t23.5 -4.5t23.5 -5t25.5 -7t23 -9t22.5 -11.5t18 -15t15.5 -19t9 -23.5t4 -28.5q0 -75 -62 -125t-156 -50z" />
    <glyph glyph-name="t" unicode="t" horiz-adv-x="396" 
d="M253 -10q-77 0 -121 44t-31 134l32 224h-93l14 92h68q29 27 44 140h107l-19 -140h154l-14 -92h-154l-32 -224q-11 -84 78 -84q30 0 64 12v-90q-45 -16 -97 -16z" />
    <glyph glyph-name="u" unicode="u" horiz-adv-x="549" 
d="M417 484h107l-70 -484h-107l8 54q-58 -64 -146 -64q-77 0 -123 50.5t-32 143.5l43 300h107l-42 -292q-7 -51 19 -78t73 -27t81 34.5t43 94.5z" />
    <glyph glyph-name="v" unicode="v" horiz-adv-x="530" 
d="M447 484h110l-269 -484h-115l-128 484h112l92 -367z" />
    <glyph glyph-name="w" unicode="w" horiz-adv-x="820" 
d="M729 484h112l-228 -484h-120l-66 350l-168 -350h-120l-87 484h111l62 -367l170 367h102l66 -367z" />
    <glyph glyph-name="x" unicode="x" horiz-adv-x="502" 
d="M526 484l-206 -242l137 -242h-118l-97 171l-147 -171h-118l208 243l-135 241h118l95 -172l145 172h118z" />
    <glyph glyph-name="y" unicode="y" horiz-adv-x="529" 
d="M448 484h113l-392 -684h-102l117 200l-142 484h114l96 -355z" />
    <glyph glyph-name="z" unicode="z" horiz-adv-x="505" 
d="M490 484l-10 -72l-305 -317h265l-14 -95h-415l11 73l305 316h-252l14 95h401z" />
    <glyph glyph-name="braceleft" unicode="{" horiz-adv-x="349" 
d="M226 -131q-86 0 -125.5 41.5t-28.5 114.5l21 145q5 36 -17 56t-63 20l12 77q40 0 67.5 19.5t33.5 56.5l22 144q11 75 62.5 116t134.5 41h48l-13 -93h-48q-31 0 -52 -19t-25 -53l-19 -136q-10 -75 -88 -114q65 -39 55 -115l-19 -137q-9 -71 56 -71h48l-14 -93h-48z" />
    <glyph glyph-name="bar" unicode="|" horiz-adv-x="297" 
d="M272 760l-134 -928h-95l134 928h95z" />
    <glyph glyph-name="braceright" unicode="}" horiz-adv-x="349" 
d="M18 -131h-48l14 93h48q31 0 51.5 18.5t24.5 52.5l19 137q11 74 89 115q-33 21 -47.5 47t-8.5 67l19 136q9 72 -55 72h-48l14 93h47q84 0 124.5 -41t29.5 -116l-21 -144q-5 -36 17 -56t63 -20l-10 -77q-42 0 -70 -20t-33 -56l-20 -145q-11 -75 -62.5 -115.5t-136.5 -40.5z
" />
    <glyph glyph-name="asciitilde" unicode="~" horiz-adv-x="630" 
d="M418 263q-32 0 -58.5 11t-42 24.5t-36 24.5t-40.5 11q-46 0 -67 -66l-89 14q16 69 57 107t101 38q32 0 59 -11t42 -24.5t35.5 -24.5t40.5 -11q48 0 67 66l90 -15q-15 -66 -55.5 -105t-103.5 -39z" />
    <glyph glyph-name="uni00A0" unicode="&#xa0;" horiz-adv-x="242" 
 />
    <glyph glyph-name="exclamdown" unicode="&#xa1;" horiz-adv-x="294" 
d="M185 505q26 0 43.5 -17t17.5 -42q0 -32 -25 -56t-57 -24q-25 0 -43 17t-18 42q0 31 25 55.5t57 24.5zM202 286l-61 -486h-114l78 486h97z" />
    <glyph glyph-name="cent" unicode="&#xa2;" horiz-adv-x="563" 
d="M224 -5l15 103q-77 13 -124 68.5t-47 138.5q0 108 69.5 192t173.5 100l14 103h87l-14 -104q61 -11 100.5 -49t44.5 -98l-98 -30q-4 57 -62 77l-42 -298q65 24 84 78l89 -30q-23 -61 -73 -99t-115 -48l-15 -104h-87zM254 199l42 297q-51 -16 -84 -66t-33 -112
q0 -45 20 -76t55 -43z" />
    <glyph glyph-name="sterling" unicode="&#xa3;" horiz-adv-x="610" 
d="M39 0l14 95h29q49 0 81 39.5t32 101.5q0 22 -5 50h-113l14 90h73q-19 60 -19 109q0 100 72.5 162.5t187.5 62.5q78 0 135.5 -37.5t68.5 -108.5l-100 -43q-6 42 -36 65t-76 23q-66 0 -105.5 -38.5t-39.5 -102.5q0 -38 20 -92h219l-14 -90h-178q3 -21 3 -39q0 -92 -58 -152
h282l-14 -95h-473z" />
    <glyph glyph-name="currency" unicode="&#xa4;" horiz-adv-x="631" 
d="M103 92l-50 58l88 82q-16 38 -16 84q0 91 52 160l-64 79l67 59l64 -80q53 32 119 32q67 0 111 -32l88 82l51 -59l-88 -81q17 -35 17 -84q0 -91 -51 -158l65 -82l-68 -59l-64 81q-57 -33 -122 -33t-111 32zM314 218q62 0 104 46.5t42 114.5q0 50 -29 80.5t-78 30.5
q-63 0 -104.5 -46.5t-41.5 -115.5q0 -51 28.5 -80.5t78.5 -29.5z" />
    <glyph glyph-name="yen" unicode="&#xa5;" horiz-adv-x="708" 
d="M265 0l18 120h-200l8 55h200l10 72l-7 16h-190l8 55h158l-168 382h119l150 -351l250 351h119l-276 -382h158l-8 -55h-191l-12 -16l-10 -72h200l-8 -55h-200l-18 -120h-110z" />
    <glyph glyph-name="brokenbar" unicode="&#xa6;" horiz-adv-x="297" 
d="M272 760l-59 -408h-95l59 408h95zM197 240l-59 -408h-95l59 408h95z" />
    <glyph glyph-name="section" unicode="&#xa7;" horiz-adv-x="521" 
d="M231 -5q-72 0 -121 32t-56 91l92 26q4 -29 29.5 -45.5t61.5 -16.5q41 0 67 19.5t26 50.5q0 23 -18.5 33t-59.5 18q-83 15 -112 31q-54 30 -54 92q0 92 92 130q-62 32 -62 88q0 71 58.5 118.5t145.5 47.5q71 0 116.5 -31.5t52.5 -90.5l-93 -27q-3 29 -26.5 45.5
t-58.5 17.5q-37 1 -61 -18.5t-24 -50.5q0 -23 18 -34.5t52 -17.5q3 0 23.5 -3.5t26.5 -5t25 -6t27 -8.5t23 -10.5t21.5 -14.5t15 -18.5t12 -24t3.5 -29.5q0 -91 -92 -133q60 -29 60 -84q0 -71 -61 -121t-149 -50zM307 279q29 8 45.5 29t16.5 49q0 30 -22 43t-66 20l-24 4
q-33 -4 -51 -25.5t-18 -51.5t20 -42.5t56 -18.5z" />
    <glyph glyph-name="dieresis" unicode="&#xa8;" 
d="M-47 582q-26 0 -43.5 18t-17.5 43q0 32 25 57t57 25q26 0 43 -17.5t17 -42.5q0 -32 -25 -57.5t-56 -25.5zM146 582q-26 0 -43.5 18t-17.5 43q0 32 25 57t57 25q26 0 43 -17.5t17 -42.5q0 -32 -25 -57.5t-56 -25.5z" />
    <glyph glyph-name="copyright" unicode="&#xa9;" horiz-adv-x="812" 
d="M475 710q135 0 219 -82t84 -216q0 -176 -118.5 -299t-288.5 -123q-136 0 -220 82t-84 216q0 176 119 299t289 123zM466 651q-140 0 -237.5 -103t-97.5 -251q0 -112 69 -180t179 -68q140 0 238 103t98 251q0 112 -69 180t-180 68zM403 170q-67 0 -108.5 41.5t-41.5 108.5
q0 86 58.5 148t140.5 62q55 0 94 -29t44 -80l-63 -17q-10 64 -82 64q-53 0 -89 -41t-36 -100q0 -44 25 -69.5t67 -25.5q34 0 60.5 17t39.5 47l58 -17q-19 -51 -65 -80t-102 -29z" />
    <glyph glyph-name="ordfeminine" unicode="&#xaa;" horiz-adv-x="369" 
d="M155 354q-46 0 -74.5 23t-28.5 63q0 50 33.5 82.5t91.5 38.5l107 11v5q0 63 -53 63q-47 0 -66 -47l-76 13q18 54 60.5 79t95.5 25q67 0 101 -33.5t25 -95.5l-32 -220h-88l4 31q-38 -38 -100 -38zM189 420q33 0 56 21t26 57l1 11l-83 -9q-49 -6 -49 -46q0 -34 49 -34z" />
    <glyph glyph-name="guillemotleft" unicode="&#xab;" horiz-adv-x="493" 
d="M286 441l-151 -196l96 -196h-104l-103 196l158 196h104zM497 441l-152 -196l96 -196h-104l-102 196l158 196h104z" />
    <glyph glyph-name="logicalnot" unicode="&#xac;" horiz-adv-x="617" 
d="M535 370l-14 -94l-23 -159h-93l23 159h-360l14 94h453z" />
    <glyph glyph-name="uni00AD" unicode="&#xad;" horiz-adv-x="418" 
d="M65 220l14 93h283l-14 -93h-283z" />
    <glyph glyph-name="registered" unicode="&#xae;" horiz-adv-x="812" 
d="M371 -10q-136 0 -220 82t-84 216q0 176 119 299t289 123q135 0 219 -82t84 -216q0 -176 -118.5 -299t-288.5 -123zM379 49q140 0 238 103t98 251q0 112 -69 180t-180 68q-140 0 -237.5 -103t-97.5 -251q0 -112 69 -180t179 -68zM281 175l51 350h134q50 0 78.5 -25.5
t28.5 -68.5q0 -42 -21.5 -75.5t-58.5 -49.5l48 -131h-68l-43 118h-67l-16 -118h-66zM372 353h70q28 0 46 19t18 48q0 21 -13 33t-36 12h-69z" />
    <glyph glyph-name="macron" unicode="&#xaf;" 
d="M-105 581l12 78h308l-11 -78h-309z" />
    <glyph glyph-name="degree" unicode="&#xb0;" horiz-adv-x="471" 
d="M256 378q-64 0 -103 38.5t-39 99.5q0 81 55.5 137.5t133.5 56.5q64 0 103 -38.5t39 -99.5q0 -80 -55.5 -137t-133.5 -57zM266 451q42 0 72 32.5t30 76.5q0 33 -21 55t-54 22q-42 0 -72 -32t-30 -77q0 -34 20.5 -55.5t54.5 -21.5z" />
    <glyph glyph-name="plusminus" unicode="&#xb1;" horiz-adv-x="580" 
d="M370 445h185l-14 -93h-184l-29 -198h-94l29 198h-190l14 93h189l28 195h94zM23 0l13 84h468l-13 -84h-468z" />
    <glyph glyph-name="uni00B2" unicode="&#xb2;" horiz-adv-x="350" 
d="M20 276l7 52l129 115q37 34 50 46t37.5 37.5t33 44t8.5 36.5q0 23 -15.5 38t-41.5 15q-59 0 -79 -59l-71 22q18 55 63.5 84t100.5 29q60 0 97 -30t37 -78q0 -29 -11.5 -57t-36.5 -57t-37.5 -41.5t-40.5 -37.5l-93 -84h182l-10 -75h-309z" />
    <glyph glyph-name="uni00B3" unicode="&#xb3;" horiz-adv-x="360" 
d="M175 269q-60 0 -97.5 29.5t-39.5 83.5l78 22q1 -28 19 -43t47 -15q37 0 61.5 22t24.5 54q0 25 -20 39t-51 14h-43l11 68h42q36 0 59 18t23 46q0 25 -19.5 39t-46.5 14q-26 0 -48 -16t-30 -43l-72 22q18 54 64 83.5t104 29.5q62 0 99 -31.5t37 -82.5q0 -76 -68 -114
q46 -29 46 -82q0 -66 -52 -111.5t-128 -45.5z" />
    <glyph glyph-name="acute" unicode="&#xb4;" 
d="M-38 564l93 156h100l-113 -156h-80z" />
    <glyph glyph-name="uni00B5" unicode="&#xb5;" horiz-adv-x="550" 
d="M418 484h107l-70 -484h-107l8 52q-56 -62 -138 -62q-24 0 -47 8.5t-33 24.5l-24 -171h-107l91 632h107l-40 -282q-8 -56 17 -85.5t73 -29.5q47 0 81.5 34.5t42.5 94.5z" />
    <glyph glyph-name="paragraph" unicode="&#xb6;" horiz-adv-x="687" 
d="M325 -60h-109l48 335q-85 0 -136.5 48t-51.5 127q0 106 71.5 178t177.5 72h109zM544 700h109l-109 -760h-109z" />
    <glyph glyph-name="periodcentered" unicode="&#xb7;" horiz-adv-x="302" 
d="M158 295q-26 0 -43.5 17t-17.5 42q0 32 24.5 56t56.5 24q26 0 43.5 -17t17.5 -42q0 -31 -24.5 -55.5t-56.5 -24.5z" />
    <glyph glyph-name="cedilla" unicode="&#xb8;" 
d="M-63 -208q-68 0 -114 46l40 54q27 -32 75 -32q27 0 44.5 16t17.5 41q0 55 -91 86l47 19q56 -14 86 -43.5t30 -69.5q0 -50 -38.5 -83.5t-96.5 -33.5z" />
    <glyph glyph-name="uni00B9" unicode="&#xb9;" horiz-adv-x="243" 
d="M110 276l52 364q-51 -20 -94 -20l12 76q54 0 109 34h74l-65 -454h-88z" />
    <glyph glyph-name="ordmasculine" unicode="&#xba;" horiz-adv-x="397" 
d="M216 354q-68 0 -111 40.5t-43 106.5q0 87 60 148t146 61q68 0 111 -41t43 -107q0 -86 -60.5 -147t-145.5 -61zM228 433q43 0 73 34.5t30 83.5q0 37 -21 58.5t-54 21.5q-43 0 -73 -34t-30 -84q0 -36 21 -58t54 -22z" />
    <glyph glyph-name="guillemotright" unicode="&#xbb;" horiz-adv-x="494" 
d="M54 441h104l101 -196l-158 -196h-104l151 196zM264 441h104l102 -196l-158 -196h-104l151 196z" />
    <glyph glyph-name="onequarter" unicode="&#xbc;" horiz-adv-x="862" 
d="M106 246l52 364q-51 -20 -94 -20l12 76q54 0 109 34h74l-65 -454h-88zM98 0l492 700h87l-492 -700h-87zM671 0l12 89h-222l11 73l265 292h86l-43 -290h57l-10 -75h-57l-13 -89h-86zM559 164h135l25 174z" />
    <glyph glyph-name="onehalf" unicode="&#xbd;" horiz-adv-x="848" 
d="M106 246l52 364q-51 -20 -94 -20l12 76q54 0 109 34h74l-65 -454h-88zM98 0l492 700h87l-492 -700h-87zM479 0l7 52l130 116q82 73 103 101q25 34 25 62q0 23 -15.5 38t-41.5 15q-59 0 -79 -59l-71 23q18 54 63.5 83t100.5 29q60 0 97 -30t37 -78q0 -29 -11.5 -57
t-36.5 -57t-37.5 -41.5t-40.5 -37.5l-93 -84h182l-10 -75h-309z" />
    <glyph glyph-name="threequarters" unicode="&#xbe;" horiz-adv-x="979" 
d="M171 239q-60 0 -97.5 29.5t-39.5 83.5l78 22q1 -28 19 -43t47 -15q37 0 61.5 22t24.5 54q0 25 -20 39t-51 14h-43l11 68h42q36 0 59 18t23 46q0 25 -19.5 39t-46.5 14q-26 0 -48 -16t-30 -43l-72 22q18 54 64 83.5t104 29.5q62 0 99 -31.5t37 -82.5q0 -76 -68 -114
q46 -29 46 -82q0 -66 -52 -111.5t-128 -45.5zM215 0l492 700h87l-492 -700h-87zM788 0l12 89h-222l11 73l265 292h86l-43 -290h57l-10 -75h-57l-13 -89h-86zM676 164h135l25 174z" />
    <glyph glyph-name="questiondown" unicode="&#xbf;" horiz-adv-x="513" 
d="M308 503q27 0 44 -17t17 -42q0 -32 -24.5 -56t-56.5 -24q-26 0 -43.5 17t-17.5 42q0 31 24.5 55.5t56.5 24.5zM326 284l-27 -187h-28q-74 0 -119.5 -35t-45.5 -91q0 -39 28 -60.5t73 -21.5q51 0 89 26.5t56 75.5l96 -34q-30 -81 -99.5 -125t-154.5 -44q-95 0 -148.5 44.5
t-53.5 116.5q0 82 59.5 139.5t159.5 77.5l17 118h98z" />
    <glyph glyph-name="Agrave" unicode="&#xc0;" horiz-adv-x="698" 
d="M470 780h-80l-68 156h100zM478 700l177 -700h-117l-40 167h-318l-88 -167h-117l380 700h123zM234 267h238l-75 308z" />
    <glyph glyph-name="Aacute" unicode="&#xc1;" horiz-adv-x="698" 
d="M581 936l-113 -156h-80l93 156h100zM478 700l177 -700h-117l-40 167h-318l-88 -167h-117l380 700h123zM234 267h238l-75 308z" />
    <glyph glyph-name="Acircumflex" unicode="&#xc2;" horiz-adv-x="698" 
d="M442 886l-88 -106h-90l136 156h99l92 -156h-90zM478 700l177 -700h-117l-40 167h-318l-88 -167h-117l380 700h123zM234 267h238l-75 308z" />
    <glyph glyph-name="Atilde" unicode="&#xc3;" horiz-adv-x="698" 
d="M365 828q-35 0 -50 -39h-66q9 49 44 77.5t79 28.5q37 0 76.5 -22.5t59.5 -22.5q36 0 49 39h66q-9 -48 -44 -77t-78 -29q-37 0 -76.5 22.5t-59.5 22.5zM478 700l177 -700h-117l-40 167h-318l-88 -167h-117l380 700h123zM234 267h238l-75 308z" />
    <glyph glyph-name="Adieresis" unicode="&#xc4;" horiz-adv-x="698" 
d="M334 798q-26 0 -43.5 18t-17.5 43q0 32 25 57t57 25q26 0 43 -17.5t17 -42.5q0 -32 -25 -57.5t-56 -25.5zM527 798q-26 0 -43.5 18t-17.5 43q0 32 25 57t57 25q26 0 43 -17.5t17 -42.5q0 -32 -25 -57.5t-56 -25.5zM478 700l177 -700h-117l-40 167h-318l-88 -167h-117
l380 700h123zM234 267h238l-75 308z" />
    <glyph glyph-name="Aring" unicode="&#xc5;" horiz-adv-x="698" 
d="M425 758q-41 0 -66.5 26t-25.5 63q0 48 36.5 83.5t86.5 35.5q41 0 67 -25.5t26 -62.5q0 -48 -37 -84t-87 -36zM447 904q-19 0 -33 -14.5t-14 -34.5q0 -16 9.5 -25.5t24.5 -9.5q20 0 34 14.5t14 34.5q0 15 -10 25t-25 10zM478 700l177 -700h-117l-40 167h-318l-88 -167
h-117l380 700h123zM234 267h238l-75 308z" />
    <glyph glyph-name="AE" unicode="&#xc6;" horiz-adv-x="990" 
d="M-25 0l380 700h637l-15 -100h-341l-28 -199h329l-15 -100h-329l-29 -201h348l-15 -100h-457l23 167h-282l-89 -167h-117zM234 267h244l48 333h-111z" />
    <glyph glyph-name="Ccedilla" unicode="&#xc7;" horiz-adv-x="730" 
d="M362 96q76 0 137.5 40t86.5 103l101 -33q-36 -91 -116.5 -147t-180.5 -67q47 -32 47 -83q0 -50 -38.5 -83.5t-96.5 -33.5q-68 0 -114 46l40 54q27 -32 75 -32q27 0 44.5 16t17.5 41q0 47 -66 76q-111 15 -178 94.5t-67 200.5q0 176 115.5 299t280.5 123
q113 0 190.5 -57.5t87.5 -158.5l-112 -33q-6 63 -56 103t-126 40q-110 0 -187 -88t-77 -213q0 -94 53 -150.5t139 -56.5z" />
    <glyph glyph-name="Egrave" unicode="&#xc8;" horiz-adv-x="590" 
d="M415 780h-80l-68 156h100zM40 0l101 700h451l-15 -100h-341l-28 -199h329l-15 -100h-329l-28 -201h347l-15 -100h-457z" />
    <glyph glyph-name="Eacute" unicode="&#xc9;" horiz-adv-x="590" 
d="M333 780l93 156h100l-113 -156h-80zM40 0l101 700h451l-15 -100h-341l-28 -199h329l-15 -100h-329l-28 -201h347l-15 -100h-457z" />
    <glyph glyph-name="Ecircumflex" unicode="&#xca;" horiz-adv-x="590" 
d="M345 936h99l92 -156h-90l-59 106l-88 -106h-90zM40 0l101 700h451l-15 -100h-341l-28 -199h329l-15 -100h-329l-28 -201h347l-15 -100h-457z" />
    <glyph glyph-name="Edieresis" unicode="&#xcb;" horiz-adv-x="590" 
d="M279 798q-26 0 -43.5 18t-17.5 43q0 32 25 57t57 25q26 0 43 -17.5t17 -42.5q0 -32 -25 -57.5t-56 -25.5zM472 798q-26 0 -43.5 18t-17.5 43q0 32 25 57t57 25q26 0 43 -17.5t17 -42.5q0 -32 -25 -57.5t-56 -25.5zM40 0l101 700h451l-15 -100h-341l-28 -199h329l-15 -100
h-329l-28 -201h347l-15 -100h-457z" />
    <glyph glyph-name="Igrave" unicode="&#xcc;" horiz-adv-x="260" 
d="M250 780h-80l-68 156h100zM41 0l101 700h110l-101 -700h-110z" />
    <glyph glyph-name="Iacute" unicode="&#xcd;" horiz-adv-x="260" 
d="M168 780l93 156h100l-113 -156h-80zM41 0l101 700h110l-101 -700h-110z" />
    <glyph glyph-name="Icircumflex" unicode="&#xce;" horiz-adv-x="260" 
d="M180 936h99l92 -156h-90l-59 106l-88 -106h-90zM41 0l101 700h110l-101 -700h-110z" />
    <glyph glyph-name="Idieresis" unicode="&#xcf;" horiz-adv-x="260" 
d="M114 798q-26 0 -43.5 18t-17.5 43q0 32 25 57t57 25q26 0 43 -17.5t17 -42.5q0 -32 -25 -57.5t-56 -25.5zM307 798q-26 0 -43.5 18t-17.5 43q0 32 25 57t57 25q26 0 43 -17.5t17 -42.5q0 -32 -25 -57.5t-56 -25.5zM41 0l101 700h110l-101 -700h-110z" />
    <glyph glyph-name="Eth" unicode="&#xd0;" horiz-adv-x="693" 
d="M371 700q144 0 222.5 -72.5t78.5 -204.5q0 -190 -111 -306.5t-291 -116.5h-230l44 303h-103l14 93h102l44 304h230zM281 100q122 0 198.5 84t76.5 220q0 93 -53 144.5t-151 51.5h-116l-29 -204h103l-14 -93h-102l-29 -203h116z" />
    <glyph glyph-name="Ntilde" unicode="&#xd1;" horiz-adv-x="716" 
d="M373 828q-35 0 -50 -39h-66q9 49 44 77.5t79 28.5q37 0 76.5 -22.5t59.5 -22.5q36 0 49 39h66q-9 -48 -44 -77t-78 -29q-37 0 -76.5 22.5t-59.5 22.5zM598 700h110l-101 -700h-103l-282 503l-72 -503h-110l101 700h104l282 -503z" />
    <glyph glyph-name="Ograve" unicode="&#xd2;" horiz-adv-x="776" 
d="M508 780h-80l-68 156h100zM353 -10q-134 0 -216.5 82t-82.5 216q0 176 116.5 299t285.5 123q134 0 216.5 -81t82.5 -215q0 -176 -117.5 -300t-284.5 -124zM368 96q113 0 191 87.5t78 214.5q0 93 -54 149.5t-142 56.5q-113 0 -191.5 -87t-78.5 -214q0 -94 54 -150.5
t143 -56.5z" />
    <glyph glyph-name="Oacute" unicode="&#xd3;" horiz-adv-x="776" 
d="M426 780l93 156h100l-113 -156h-80zM353 -10q-134 0 -216.5 82t-82.5 216q0 176 116.5 299t285.5 123q134 0 216.5 -81t82.5 -215q0 -176 -117.5 -300t-284.5 -124zM368 96q113 0 191 87.5t78 214.5q0 93 -54 149.5t-142 56.5q-113 0 -191.5 -87t-78.5 -214
q0 -94 54 -150.5t143 -56.5z" />
    <glyph glyph-name="Ocircumflex" unicode="&#xd4;" horiz-adv-x="776" 
d="M438 936h99l92 -156h-90l-59 106l-88 -106h-90zM353 -10q-134 0 -216.5 82t-82.5 216q0 176 116.5 299t285.5 123q134 0 216.5 -81t82.5 -215q0 -176 -117.5 -300t-284.5 -124zM368 96q113 0 191 87.5t78 214.5q0 93 -54 149.5t-142 56.5q-113 0 -191.5 -87t-78.5 -214
q0 -94 54 -150.5t143 -56.5z" />
    <glyph glyph-name="Otilde" unicode="&#xd5;" horiz-adv-x="776" 
d="M539 783q-37 0 -76.5 22.5t-59.5 22.5q-35 0 -50 -39h-66q9 49 44 77.5t79 28.5q37 0 76.5 -22.5t59.5 -22.5q36 0 49 39h66q-9 -48 -44 -77t-78 -29zM353 -10q-134 0 -216.5 82t-82.5 216q0 176 116.5 299t285.5 123q134 0 216.5 -81t82.5 -215q0 -176 -117.5 -300
t-284.5 -124zM368 96q113 0 191 87.5t78 214.5q0 93 -54 149.5t-142 56.5q-113 0 -191.5 -87t-78.5 -214q0 -94 54 -150.5t143 -56.5z" />
    <glyph glyph-name="Odieresis" unicode="&#xd6;" horiz-adv-x="776" 
d="M372 798q-26 0 -43.5 18t-17.5 43q0 32 25 57t57 25q26 0 43 -17.5t17 -42.5q0 -32 -25 -57.5t-56 -25.5zM565 798q-26 0 -43.5 18t-17.5 43q0 32 25 57t57 25q26 0 43 -17.5t17 -42.5q0 -32 -25 -57.5t-56 -25.5zM353 -10q-134 0 -216.5 82t-82.5 216q0 176 116.5 299
t285.5 123q134 0 216.5 -81t82.5 -215q0 -176 -117.5 -300t-284.5 -124zM368 96q113 0 191 87.5t78 214.5q0 93 -54 149.5t-142 56.5q-113 0 -191.5 -87t-78.5 -214q0 -94 54 -150.5t143 -56.5z" />
    <glyph glyph-name="multiply" unicode="&#xd7;" horiz-adv-x="533" 
d="M96 100l-56 66l173 156l-129 155l77 66l128 -155l174 155l55 -66l-171 -155l127 -156l-75 -66l-130 155z" />
    <glyph glyph-name="Oslash" unicode="&#xd8;" horiz-adv-x="776" 
d="M792 700l-95 -99q58 -77 58 -187q0 -176 -117.5 -300t-284.5 -124q-112 0 -187 57l-45 -47h-106l96 101q-57 78 -57 187q0 176 116.5 299t285.5 123q110 0 186 -56l44 46h106zM171 303q0 -65 27 -112l362 377q-50 36 -119 36q-113 0 -191.5 -87t-78.5 -214zM637 398
q0 65 -27 112l-362 -377q49 -37 120 -37q113 0 191 87.5t78 214.5z" />
    <glyph glyph-name="Ugrave" unicode="&#xd9;" horiz-adv-x="656" 
d="M448 780h-80l-68 156h100zM292 -10q-118 0 -178.5 76t-42.5 200l63 434h110l-63 -435q-11 -75 25 -122t103 -47t114.5 46.5t58.5 122.5l63 435h110l-63 -436q-18 -123 -100.5 -198.5t-199.5 -75.5z" />
    <glyph glyph-name="Uacute" unicode="&#xda;" horiz-adv-x="656" 
d="M366 780l93 156h100l-113 -156h-80zM292 -10q-118 0 -178.5 76t-42.5 200l63 434h110l-63 -435q-11 -75 25 -122t103 -47t114.5 46.5t58.5 122.5l63 435h110l-63 -436q-18 -123 -100.5 -198.5t-199.5 -75.5z" />
    <glyph glyph-name="Ucircumflex" unicode="&#xdb;" horiz-adv-x="656" 
d="M378 936h99l92 -156h-90l-59 106l-88 -106h-90zM292 -10q-118 0 -178.5 76t-42.5 200l63 434h110l-63 -435q-11 -75 25 -122t103 -47t114.5 46.5t58.5 122.5l63 435h110l-63 -436q-18 -123 -100.5 -198.5t-199.5 -75.5z" />
    <glyph glyph-name="Udieresis" unicode="&#xdc;" horiz-adv-x="656" 
d="M312 798q-26 0 -43.5 18t-17.5 43q0 32 25 57t57 25q26 0 43 -17.5t17 -42.5q0 -32 -25 -57.5t-56 -25.5zM505 798q-26 0 -43.5 18t-17.5 43q0 32 25 57t57 25q26 0 43 -17.5t17 -42.5q0 -32 -25 -57.5t-56 -25.5zM292 -10q-118 0 -178.5 76t-42.5 200l63 434h110
l-63 -435q-11 -75 25 -122t103 -47t114.5 46.5t58.5 122.5l63 435h110l-63 -436q-18 -123 -100.5 -198.5t-199.5 -75.5z" />
    <glyph glyph-name="Yacute" unicode="&#xdd;" horiz-adv-x="641" 
d="M551 936l-113 -156h-80l93 156h100zM588 700h119l-329 -453l-36 -247h-110l36 247l-199 453h119l150 -348z" />
    <glyph glyph-name="Thorn" unicode="&#xde;" horiz-adv-x="583" 
d="M40 0l101 700h110l-14 -100h154q99 0 155 -51t56 -138q0 -118 -78 -194.5t-199 -76.5h-155l-20 -140h-110zM185 240h156q65 0 106 43t41 113q0 49 -29 76.5t-82 27.5h-155z" />
    <glyph glyph-name="germandbls" unicode="&#xdf;" horiz-adv-x="656" 
d="M380 -10q-56 0 -94 16l28 93q26 -13 60 -13q53 0 92 41.5t39 98.5q0 42 -29.5 64.5t-84.5 22.5h-50l15 95h44q56 0 92.5 33t36.5 83q0 41 -28.5 65.5t-75.5 24.5q-60 0 -100 -40.5t-50 -108.5l-67 -465h-110l54 382h-68l14 92h68q19 107 94 171.5t183 64.5
q90 0 145 -44.5t55 -117.5q0 -63 -36 -114.5t-92 -67.5q47 -11 74 -48.5t27 -91.5q0 -98 -69 -167t-167 -69z" />
    <glyph glyph-name="agrave" unicode="&#xe0;" horiz-adv-x="592" 
d="M385 564h-80l-68 156h100zM455 484h107l-70 -484h-107l10 66q-67 -76 -170 -76q-87 0 -142 57.5t-55 150.5q0 121 80 208.5t191 87.5q103 0 147 -75zM260 84q67 0 114.5 55t47.5 133q0 58 -32 93t-85 35q-69 0 -117.5 -55.5t-48.5 -132.5q0 -58 34 -93t87 -35z" />
    <glyph glyph-name="aacute" unicode="&#xe1;" horiz-adv-x="592" 
d="M496 720l-113 -156h-80l93 156h100zM455 484h107l-70 -484h-107l10 66q-67 -76 -170 -76q-87 0 -142 57.5t-55 150.5q0 121 80 208.5t191 87.5q103 0 147 -75zM260 84q67 0 114.5 55t47.5 133q0 58 -32 93t-85 35q-69 0 -117.5 -55.5t-48.5 -132.5q0 -58 34 -93t87 -35z
" />
    <glyph glyph-name="acircumflex" unicode="&#xe2;" horiz-adv-x="592" 
d="M357 670l-88 -106h-90l136 156h99l92 -156h-90zM455 484h107l-70 -484h-107l10 66q-67 -76 -170 -76q-87 0 -142 57.5t-55 150.5q0 121 80 208.5t191 87.5q103 0 147 -75zM260 84q67 0 114.5 55t47.5 133q0 58 -32 93t-85 35q-69 0 -117.5 -55.5t-48.5 -132.5
q0 -58 34 -93t87 -35z" />
    <glyph glyph-name="atilde" unicode="&#xe3;" horiz-adv-x="592" 
d="M280 612q-35 0 -50 -39h-66q9 49 44 77.5t79 28.5q37 0 76.5 -22.5t59.5 -22.5q36 0 49 39h66q-9 -48 -44 -77t-78 -29q-37 0 -76.5 22.5t-59.5 22.5zM455 484h107l-70 -484h-107l10 66q-67 -76 -170 -76q-87 0 -142 57.5t-55 150.5q0 121 80 208.5t191 87.5
q103 0 147 -75zM260 84q67 0 114.5 55t47.5 133q0 58 -32 93t-85 35q-69 0 -117.5 -55.5t-48.5 -132.5q0 -58 34 -93t87 -35z" />
    <glyph glyph-name="adieresis" unicode="&#xe4;" horiz-adv-x="592" 
d="M249 582q-26 0 -43.5 18t-17.5 43q0 32 25 57t57 25q26 0 43 -17.5t17 -42.5q0 -32 -25 -57.5t-56 -25.5zM442 582q-26 0 -43.5 18t-17.5 43q0 32 25 57t57 25q26 0 43 -17.5t17 -42.5q0 -32 -25 -57.5t-56 -25.5zM455 484h107l-70 -484h-107l10 66q-67 -76 -170 -76
q-87 0 -142 57.5t-55 150.5q0 121 80 208.5t191 87.5q103 0 147 -75zM260 84q67 0 114.5 55t47.5 133q0 58 -32 93t-85 35q-69 0 -117.5 -55.5t-48.5 -132.5q0 -58 34 -93t87 -35z" />
    <glyph glyph-name="aring" unicode="&#xe5;" horiz-adv-x="592" 
d="M340 542q-40 0 -66 26t-26 63q0 48 36.5 83.5t86.5 35.5q41 0 67 -25.5t26 -62.5q0 -48 -37 -84t-87 -36zM362 688q-19 0 -33 -14.5t-14 -34.5q0 -16 9.5 -25.5t24.5 -9.5q20 0 34 14.5t14 34.5q0 15 -10 25t-25 10zM455 484h107l-70 -484h-107l10 66q-67 -76 -170 -76
q-87 0 -142 57.5t-55 150.5q0 121 80 208.5t191 87.5q103 0 147 -75zM260 84q67 0 114.5 55t47.5 133q0 58 -32 93t-85 35q-69 0 -117.5 -55.5t-48.5 -132.5q0 -58 34 -93t87 -35z" />
    <glyph glyph-name="ae" unicode="&#xe6;" horiz-adv-x="846" 
d="M173 -10q-69 0 -113.5 33t-44.5 91q0 68 48.5 113t130.5 54l156 17l1 10q5 47 -17.5 73.5t-66.5 26.5q-76 0 -106 -73l-92 17q25 72 84 107t133 35q111 0 153 -68q77 68 179 68q90 0 144.5 -54t54.5 -144q0 -23 -10 -78h-361q-4 -67 29 -104.5t86 -37.5q42 0 77 21.5
t48 56.5l90 -28q-28 -64 -90.5 -100t-136.5 -36q-122 0 -179 90q-69 -90 -197 -90zM464 300h253q0 46 -30.5 76.5t-80.5 30.5q-47 0 -85 -28t-57 -79zM207 72q52 4 86.5 36.5t42.5 88.5l3 21l-135 -16q-37 -4 -59.5 -25.5t-22.5 -50.5q0 -28 24 -42t61 -12z" />
    <glyph glyph-name="ccedilla" unicode="&#xe7;" horiz-adv-x="518" 
d="M261 86q43 0 79 23t50 62l90 -30q-22 -59 -71 -96t-113 -50q51 -33 51 -86q0 -50 -38.5 -83.5t-96.5 -33.5q-68 0 -114 46l40 54q27 -32 75 -32q27 0 44.5 16t17.5 41q0 45 -62 75q-81 8 -130.5 63.5t-49.5 142.5q0 122 82.5 209t198.5 87q79 0 133.5 -39.5t60.5 -110.5
l-98 -30q-3 38 -32.5 61t-72.5 23q-67 0 -114 -54.5t-47 -131.5q0 -57 32.5 -91.5t84.5 -34.5z" />
    <glyph glyph-name="egrave" unicode="&#xe8;" horiz-adv-x="540" 
d="M360 564h-80l-68 156h100zM242 -10q-93 0 -151 56.5t-58 150.5q0 124 81.5 210.5t197.5 86.5q90 0 144.5 -54t54.5 -144q0 -28 -10 -78h-361q-4 -67 27.5 -104.5t86.5 -37.5q43 0 78.5 23t49.5 65l90 -28q-28 -70 -91 -108t-139 -38zM157 300h254q-1 46 -30.5 76.5
t-80.5 30.5q-47 0 -84.5 -28t-58.5 -79z" />
    <glyph glyph-name="eacute" unicode="&#xe9;" horiz-adv-x="540" 
d="M278 564l93 156h100l-113 -156h-80zM242 -10q-93 0 -151 56.5t-58 150.5q0 124 81.5 210.5t197.5 86.5q90 0 144.5 -54t54.5 -144q0 -28 -10 -78h-361q-4 -67 27.5 -104.5t86.5 -37.5q43 0 78.5 23t49.5 65l90 -28q-28 -70 -91 -108t-139 -38zM157 300h254
q-1 46 -30.5 76.5t-80.5 30.5q-47 0 -84.5 -28t-58.5 -79z" />
    <glyph glyph-name="ecircumflex" unicode="&#xea;" horiz-adv-x="540" 
d="M290 720h99l92 -156h-90l-59 106l-88 -106h-90zM242 -10q-93 0 -151 56.5t-58 150.5q0 124 81.5 210.5t197.5 86.5q90 0 144.5 -54t54.5 -144q0 -28 -10 -78h-361q-4 -67 27.5 -104.5t86.5 -37.5q43 0 78.5 23t49.5 65l90 -28q-28 -70 -91 -108t-139 -38zM157 300h254
q-1 46 -30.5 76.5t-80.5 30.5q-47 0 -84.5 -28t-58.5 -79z" />
    <glyph glyph-name="edieresis" unicode="&#xeb;" horiz-adv-x="540" 
d="M224 582q-26 0 -43.5 18t-17.5 43q0 32 25 57t57 25q26 0 43 -17.5t17 -42.5q0 -32 -25 -57.5t-56 -25.5zM417 582q-26 0 -43.5 18t-17.5 43q0 32 25 57t57 25q26 0 43 -17.5t17 -42.5q0 -32 -25 -57.5t-56 -25.5zM242 -10q-93 0 -151 56.5t-58 150.5q0 124 81.5 210.5
t197.5 86.5q90 0 144.5 -54t54.5 -144q0 -28 -10 -78h-361q-4 -67 27.5 -104.5t86.5 -37.5q43 0 78.5 23t49.5 65l90 -28q-28 -70 -91 -108t-139 -38zM157 300h254q-1 46 -30.5 76.5t-80.5 30.5q-47 0 -84.5 -28t-58.5 -79z" />
    <glyph glyph-name="igrave" unicode="&#xec;" horiz-adv-x="253" 
d="M216 564h-80l-68 156h100zM39 0l70 484h107l-70 -484h-107z" />
    <glyph glyph-name="iacute" unicode="&#xed;" horiz-adv-x="253" 
d="M134 564l93 156h100l-113 -156h-80zM39 0l70 484h107l-70 -484h-107z" />
    <glyph glyph-name="icircumflex" unicode="&#xee;" horiz-adv-x="253" 
d="M146 720h99l92 -156h-90l-59 106l-88 -106h-90zM39 0l70 484h107l-70 -484h-107z" />
    <glyph glyph-name="idieresis" unicode="&#xef;" horiz-adv-x="253" 
d="M80 582q-26 0 -43.5 18t-17.5 43q0 32 25 57t57 25q26 0 43 -17.5t17 -42.5q0 -32 -25 -57.5t-56 -25.5zM273 582q-26 0 -43.5 18t-17.5 43q0 32 25 57t57 25q26 0 43 -17.5t17 -42.5q0 -32 -25 -57.5t-56 -25.5zM39 0l70 484h107l-70 -484h-107z" />
    <glyph glyph-name="eth" unicode="&#xf0;" horiz-adv-x="568" 
d="M252 -10q-95 0 -153 54.5t-58 145.5q0 119 81 201.5t197 82.5q56 0 100 -28q-20 62 -46 108l-128 -58l-21 67l106 48q-48 53 -104 89h138q32 -22 56 -49l108 49l22 -67l-88 -40q70 -118 70 -265q0 -153 -77 -245.5t-203 -92.5zM263 86q63 0 107.5 50.5t44.5 122.5
q0 55 -31 87t-80 32q-64 0 -108 -50.5t-44 -123.5q0 -53 31 -85.5t80 -32.5z" />
    <glyph glyph-name="ntilde" unicode="&#xf1;" horiz-adv-x="553" 
d="M261 612q-35 0 -50 -39h-66q9 49 44 77.5t79 28.5q37 0 76.5 -22.5t59.5 -22.5q36 0 49 39h66q-9 -48 -44 -77t-78 -29q-37 0 -76.5 22.5t-59.5 22.5zM347 494q81 0 124 -48.5t31 -135.5l-44 -310h-107l40 282q8 57 -16.5 86t-72.5 29q-49 0 -83 -34t-43 -95l-38 -268
h-107l70 484h107l-8 -54q58 64 147 64z" />
    <glyph glyph-name="ograve" unicode="&#xf2;" horiz-adv-x="569" 
d="M373 564h-80l-68 156h100zM249 -10q-96 0 -156 57t-60 151q0 123 84 209.5t205 86.5q96 0 156 -57.5t60 -153.5q0 -122 -84.5 -207.5t-204.5 -85.5zM263 86q68 0 116 54t48 131q0 58 -33 92.5t-86 34.5q-69 0 -116.5 -54t-47.5 -132q0 -57 33.5 -91.5t85.5 -34.5z" />
    <glyph glyph-name="oacute" unicode="&#xf3;" horiz-adv-x="569" 
d="M291 564l93 156h100l-113 -156h-80zM249 -10q-96 0 -156 57t-60 151q0 123 84 209.5t205 86.5q96 0 156 -57.5t60 -153.5q0 -122 -84.5 -207.5t-204.5 -85.5zM263 86q68 0 116 54t48 131q0 58 -33 92.5t-86 34.5q-69 0 -116.5 -54t-47.5 -132q0 -57 33.5 -91.5
t85.5 -34.5z" />
    <glyph glyph-name="ocircumflex" unicode="&#xf4;" horiz-adv-x="569" 
d="M303 720h99l92 -156h-90l-59 106l-88 -106h-90zM249 -10q-96 0 -156 57t-60 151q0 123 84 209.5t205 86.5q96 0 156 -57.5t60 -153.5q0 -122 -84.5 -207.5t-204.5 -85.5zM263 86q68 0 116 54t48 131q0 58 -33 92.5t-86 34.5q-69 0 -116.5 -54t-47.5 -132
q0 -57 33.5 -91.5t85.5 -34.5z" />
    <glyph glyph-name="otilde" unicode="&#xf5;" horiz-adv-x="569" 
d="M404 567q-37 0 -76.5 22.5t-59.5 22.5q-35 0 -50 -39h-66q9 49 44 77.5t79 28.5q37 0 76.5 -22.5t59.5 -22.5q36 0 49 39h66q-9 -48 -44 -77t-78 -29zM249 -10q-96 0 -156 57t-60 151q0 123 84 209.5t205 86.5q96 0 156 -57.5t60 -153.5q0 -122 -84.5 -207.5
t-204.5 -85.5zM263 86q68 0 116 54t48 131q0 58 -33 92.5t-86 34.5q-69 0 -116.5 -54t-47.5 -132q0 -57 33.5 -91.5t85.5 -34.5z" />
    <glyph glyph-name="odieresis" unicode="&#xf6;" horiz-adv-x="569" 
d="M237 582q-26 0 -43.5 18t-17.5 43q0 32 25 57t57 25q26 0 43 -17.5t17 -42.5q0 -32 -25 -57.5t-56 -25.5zM430 582q-26 0 -43.5 18t-17.5 43q0 32 25 57t57 25q26 0 43 -17.5t17 -42.5q0 -32 -25 -57.5t-56 -25.5zM249 -10q-96 0 -156 57t-60 151q0 123 84 209.5
t205 86.5q96 0 156 -57.5t60 -153.5q0 -122 -84.5 -207.5t-204.5 -85.5zM263 86q68 0 116 54t48 131q0 58 -33 92.5t-86 34.5q-69 0 -116.5 -54t-47.5 -132q0 -57 33.5 -91.5t85.5 -34.5z" />
    <glyph glyph-name="divide" unicode="&#xf7;" horiz-adv-x="556" 
d="M311 469q-26 0 -43 17t-17 42q0 32 24.5 56t55.5 24q26 0 43.5 -17t17.5 -42q0 -31 -24.5 -55.5t-56.5 -24.5zM49 278l14 90h469l-14 -90h-469zM248 38q-25 0 -42 17t-17 42q0 32 24.5 56t55.5 24q26 0 43.5 -17t17.5 -42q0 -31 -25 -55.5t-57 -24.5z" />
    <glyph glyph-name="oslash" unicode="&#xf8;" horiz-adv-x="569" 
d="M595 484l-89 -83q32 -49 32 -118q0 -122 -84.5 -207.5t-204.5 -85.5q-80 0 -138 42l-34 -32h-103l89 84q-30 49 -30 114q0 123 84 209.5t205 86.5q79 0 136 -41l33 31h104zM144 212q0 -26 7 -46l226 212q-29 20 -69 20q-69 0 -116.5 -54t-47.5 -132zM427 271q0 23 -7 49
l-228 -212q31 -22 71 -22q68 0 116 54t48 131z" />
    <glyph glyph-name="ugrave" unicode="&#xf9;" horiz-adv-x="549" 
d="M364 564h-80l-68 156h100zM417 484h107l-70 -484h-107l8 54q-58 -64 -146 -64q-77 0 -123 50.5t-32 143.5l43 300h107l-42 -292q-7 -51 19 -78t73 -27t81 34.5t43 94.5z" />
    <glyph glyph-name="uacute" unicode="&#xfa;" horiz-adv-x="549" 
d="M475 720l-113 -156h-80l93 156h100zM417 484h107l-70 -484h-107l8 54q-58 -64 -146 -64q-77 0 -123 50.5t-32 143.5l43 300h107l-42 -292q-7 -51 19 -78t73 -27t81 34.5t43 94.5z" />
    <glyph glyph-name="ucircumflex" unicode="&#xfb;" horiz-adv-x="549" 
d="M336 670l-88 -106h-90l136 156h99l92 -156h-90zM417 484h107l-70 -484h-107l8 54q-58 -64 -146 -64q-77 0 -123 50.5t-32 143.5l43 300h107l-42 -292q-7 -51 19 -78t73 -27t81 34.5t43 94.5z" />
    <glyph glyph-name="udieresis" unicode="&#xfc;" horiz-adv-x="549" 
d="M228 582q-26 0 -43.5 18t-17.5 43q0 32 25 57t57 25q26 0 43 -17.5t17 -42.5q0 -32 -25 -57.5t-56 -25.5zM421 582q-26 0 -43.5 18t-17.5 43q0 32 25 57t57 25q26 0 43 -17.5t17 -42.5q0 -32 -25 -57.5t-56 -25.5zM417 484h107l-70 -484h-107l8 54q-58 -64 -146 -64
q-77 0 -123 50.5t-32 143.5l43 300h107l-42 -292q-7 -51 19 -78t73 -27t81 34.5t43 94.5z" />
    <glyph glyph-name="yacute" unicode="&#xfd;" horiz-adv-x="529" 
d="M465 720l-113 -156h-80l93 156h100zM448 484h113l-392 -684h-102l117 200l-142 484h114l96 -355z" />
    <glyph glyph-name="thorn" unicode="&#xfe;" horiz-adv-x="596" 
d="M367 494q88 0 143 -57.5t55 -150.5q0 -121 -79.5 -208.5t-189.5 -87.5q-103 0 -149 77l-38 -267h-107l130 900h107l-41 -281q69 75 169 75zM289 84q68 0 116.5 55t48.5 133q0 58 -34 93t-86 35q-68 0 -115.5 -55t-47.5 -133q0 -57 32 -92.5t86 -35.5z" />
    <glyph glyph-name="ydieresis" unicode="&#xff;" horiz-adv-x="529" 
d="M218 582q-26 0 -43.5 18t-17.5 43q0 32 25 57t57 25q26 0 43 -17.5t17 -42.5q0 -32 -25 -57.5t-56 -25.5zM411 582q-26 0 -43.5 18t-17.5 43q0 32 25 57t57 25q26 0 43 -17.5t17 -42.5q0 -32 -25 -57.5t-56 -25.5zM448 484h113l-392 -684h-102l117 200l-142 484h114
l96 -355z" />
    <glyph glyph-name="Amacron" unicode="&#x100;" horiz-adv-x="698" 
d="M593 859l-11 -78h-309l12 78h308zM478 700l177 -700h-117l-40 167h-318l-88 -167h-117l380 700h123zM234 267h238l-75 308z" />
    <glyph glyph-name="amacron" unicode="&#x101;" horiz-adv-x="592" 
d="M508 643l-11 -78h-309l12 78h308zM455 484h107l-70 -484h-107l10 66q-67 -76 -170 -76q-87 0 -142 57.5t-55 150.5q0 121 80 208.5t191 87.5q103 0 147 -75zM260 84q67 0 114.5 55t47.5 133q0 58 -32 93t-85 35q-69 0 -117.5 -55.5t-48.5 -132.5q0 -58 34 -93t87 -35z
" />
    <glyph glyph-name="Abreve" unicode="&#x102;" horiz-adv-x="698" 
d="M427 773q-67 0 -100 41.5t-24 107.5h78q-5 -36 10.5 -58t46.5 -22q30 0 52.5 22t27.5 58h78q-10 -67 -57 -108t-112 -41zM478 700l177 -700h-117l-40 167h-318l-88 -167h-117l380 700h123zM234 267h238l-75 308z" />
    <glyph glyph-name="abreve" unicode="&#x103;" horiz-adv-x="592" 
d="M342 557q-67 0 -100 41.5t-24 107.5h78q-5 -36 10.5 -58t46.5 -22q30 0 52.5 22t27.5 58h78q-10 -67 -57 -108t-112 -41zM455 484h107l-70 -484h-107l10 66q-67 -76 -170 -76q-87 0 -142 57.5t-55 150.5q0 121 80 208.5t191 87.5q103 0 147 -75zM260 84q67 0 114.5 55
t47.5 133q0 58 -32 93t-85 35q-69 0 -117.5 -55.5t-48.5 -132.5q0 -58 34 -93t87 -35z" />
    <glyph glyph-name="Aogonek" unicode="&#x104;" horiz-adv-x="698" 
d="M633 -111l24 -54q-60 -46 -128 -46q-44 0 -74.5 22t-30.5 62q0 41 30 76t83 55l-39 163h-318l-88 -167h-117l380 700h123l177 -700h-37q-56 -17 -86.5 -43.5t-30.5 -58.5q0 -19 13 -30t36 -11q47 0 83 32zM234 267h238l-75 308z" />
    <glyph glyph-name="aogonek" unicode="&#x105;" horiz-adv-x="592" 
d="M404 -143q47 0 83 32l24 -54q-60 -46 -128 -46q-44 0 -74.5 22t-30.5 62t28 74t79 55l10 64q-67 -76 -170 -76q-87 0 -142 57.5t-55 150.5q0 121 80 208.5t191 87.5q103 0 147 -75l9 65h107l-70 -484h-20q-56 -17 -86.5 -43.5t-30.5 -58.5q0 -19 13 -30t36 -11zM260 84
q67 0 114.5 55t47.5 133q0 58 -32 93t-85 35q-69 0 -117.5 -55.5t-48.5 -132.5q0 -58 34 -93t87 -35z" />
    <glyph glyph-name="Cacute" unicode="&#x106;" horiz-adv-x="730" 
d="M419 780l93 156h100l-113 -156h-80zM346 -10q-130 0 -211 82t-81 216q0 176 115.5 299t280.5 123q113 0 190.5 -57.5t87.5 -158.5l-112 -33q-6 63 -56 103t-126 40q-110 0 -187 -88t-77 -213q0 -94 53 -150.5t139 -56.5q76 0 137.5 40t86.5 103l101 -33
q-40 -101 -134 -158.5t-207 -57.5z" />
    <glyph glyph-name="cacute" unicode="&#x107;" horiz-adv-x="518" 
d="M284 564l93 156h100l-113 -156h-80zM241 -10q-92 0 -150 57t-58 151q0 122 82.5 209t198.5 87q79 0 133.5 -39.5t60.5 -110.5l-98 -30q-3 38 -32.5 61t-72.5 23q-67 0 -114 -54.5t-47 -131.5q0 -57 32.5 -91.5t84.5 -34.5q43 0 79 23t50 62l90 -30q-27 -72 -93.5 -111.5
t-145.5 -39.5z" />
    <glyph glyph-name="Ccircumflex" unicode="&#x108;" horiz-adv-x="730" 
d="M431 936h99l92 -156h-90l-59 106l-88 -106h-90zM346 -10q-130 0 -211 82t-81 216q0 176 115.5 299t280.5 123q113 0 190.5 -57.5t87.5 -158.5l-112 -33q-6 63 -56 103t-126 40q-110 0 -187 -88t-77 -213q0 -94 53 -150.5t139 -56.5q76 0 137.5 40t86.5 103l101 -33
q-40 -101 -134 -158.5t-207 -57.5z" />
    <glyph glyph-name="ccircumflex" unicode="&#x109;" horiz-adv-x="518" 
d="M296 720h99l92 -156h-90l-59 106l-88 -106h-90zM241 -10q-92 0 -150 57t-58 151q0 122 82.5 209t198.5 87q79 0 133.5 -39.5t60.5 -110.5l-98 -30q-3 38 -32.5 61t-72.5 23q-67 0 -114 -54.5t-47 -131.5q0 -57 32.5 -91.5t84.5 -34.5q43 0 79 23t50 62l90 -30
q-27 -72 -93.5 -111.5t-145.5 -39.5z" />
    <glyph glyph-name="Cdotaccent" unicode="&#x10a;" horiz-adv-x="730" 
d="M460 790q-29 0 -47 19t-18 47q0 36 26.5 63t61.5 27q29 0 48 -19t19 -47q0 -35 -27 -62.5t-63 -27.5zM346 -10q-130 0 -211 82t-81 216q0 176 115.5 299t280.5 123q113 0 190.5 -57.5t87.5 -158.5l-112 -33q-6 63 -56 103t-126 40q-110 0 -187 -88t-77 -213
q0 -94 53 -150.5t139 -56.5q76 0 137.5 40t86.5 103l101 -33q-40 -101 -134 -158.5t-207 -57.5z" />
    <glyph glyph-name="cdotaccent" unicode="&#x10b;" horiz-adv-x="518" 
d="M325 574q-29 0 -47 19t-18 47q0 36 26.5 63t61.5 27q29 0 48 -19t19 -47q0 -35 -27 -62.5t-63 -27.5zM241 -10q-92 0 -150 57t-58 151q0 122 82.5 209t198.5 87q79 0 133.5 -39.5t60.5 -110.5l-98 -30q-3 38 -32.5 61t-72.5 23q-67 0 -114 -54.5t-47 -131.5
q0 -57 32.5 -91.5t84.5 -34.5q43 0 79 23t50 62l90 -30q-27 -72 -93.5 -111.5t-145.5 -39.5z" />
    <glyph glyph-name="Ccaron" unicode="&#x10c;" horiz-adv-x="730" 
d="M409 780l-90 156h90l58 -106l89 106h90l-138 -156h-99zM346 -10q-130 0 -211 82t-81 216q0 176 115.5 299t280.5 123q113 0 190.5 -57.5t87.5 -158.5l-112 -33q-6 63 -56 103t-126 40q-110 0 -187 -88t-77 -213q0 -94 53 -150.5t139 -56.5q76 0 137.5 40t86.5 103
l101 -33q-40 -101 -134 -158.5t-207 -57.5z" />
    <glyph glyph-name="ccaron" unicode="&#x10d;" horiz-adv-x="518" 
d="M274 564l-90 156h90l58 -106l89 106h90l-138 -156h-99zM241 -10q-92 0 -150 57t-58 151q0 122 82.5 209t198.5 87q79 0 133.5 -39.5t60.5 -110.5l-98 -30q-3 38 -32.5 61t-72.5 23q-67 0 -114 -54.5t-47 -131.5q0 -57 32.5 -91.5t84.5 -34.5q43 0 79 23t50 62l90 -30
q-27 -72 -93.5 -111.5t-145.5 -39.5z" />
    <glyph glyph-name="Dcaron" unicode="&#x10e;" horiz-adv-x="693" 
d="M374 780l-90 156h90l58 -106l89 106h90l-138 -156h-99zM40 0l101 700h230q144 0 222.5 -72.5t78.5 -204.5q0 -190 -111 -306.5t-291 -116.5h-230zM165 100h116q122 0 198.5 84t76.5 220q0 93 -53 144.5t-151 51.5h-116z" />
    <glyph glyph-name="dcaron" unicode="&#x10f;" horiz-adv-x="734" 
d="M452 418l40 282h107l-101 -700h-107l10 66q-68 -76 -171 -76q-87 0 -142 57.5t-55 150.5q0 121 80 208.5t191 87.5q102 0 148 -76zM696 700h105l-62 -285h-84zM265 84q68 0 115.5 55t47.5 133q0 57 -32.5 92.5t-85.5 35.5q-68 0 -117 -55t-49 -132q0 -58 34 -93.5
t87 -35.5z" />
    <glyph glyph-name="Dcroat" unicode="&#x110;" horiz-adv-x="693" 
d="M371 700q144 0 222.5 -72.5t78.5 -204.5q0 -190 -111 -306.5t-291 -116.5h-230l44 303h-103l14 93h102l44 304h230zM281 100q122 0 198.5 84t76.5 220q0 93 -53 144.5t-151 51.5h-116l-29 -204h103l-14 -93h-102l-29 -203h116z" />
    <glyph glyph-name="dcroat" unicode="&#x111;" horiz-adv-x="597" 
d="M696 637l-14 -93h-106l-78 -544h-107l10 66q-68 -76 -171 -76q-87 0 -142 57.5t-55 150.5q0 121 80 208.5t191 87.5q102 0 148 -76l18 126h-103l14 93h102l9 63h107l-9 -63h106zM265 84q68 0 115.5 55t47.5 133q0 57 -32.5 92.5t-85.5 35.5q-68 0 -117 -55t-49 -132
q0 -58 34 -93.5t87 -35.5z" />
    <glyph glyph-name="Emacron" unicode="&#x112;" horiz-adv-x="590" 
d="M218 781l12 78h308l-11 -78h-309zM40 0l101 700h451l-15 -100h-341l-28 -199h329l-15 -100h-329l-28 -201h347l-15 -100h-457z" />
    <glyph glyph-name="emacron" unicode="&#x113;" horiz-adv-x="540" 
d="M163 565l12 78h308l-11 -78h-309zM242 -10q-93 0 -151 56.5t-58 150.5q0 124 81.5 210.5t197.5 86.5q90 0 144.5 -54t54.5 -144q0 -28 -10 -78h-361q-4 -67 27.5 -104.5t86.5 -37.5q43 0 78.5 23t49.5 65l90 -28q-28 -70 -91 -108t-139 -38zM157 300h254
q-1 46 -30.5 76.5t-80.5 30.5q-47 0 -84.5 -28t-58.5 -79z" />
    <glyph glyph-name="Ebreve" unicode="&#x114;" horiz-adv-x="590" 
d="M372 773q-67 0 -100 41.5t-24 107.5h78q-5 -36 10.5 -58t46.5 -22q30 0 52.5 22t27.5 58h78q-10 -67 -57 -108t-112 -41zM40 0l101 700h451l-15 -100h-341l-28 -199h329l-15 -100h-329l-28 -201h347l-15 -100h-457z" />
    <glyph glyph-name="ebreve" unicode="&#x115;" horiz-adv-x="540" 
d="M317 557q-67 0 -100 41.5t-24 107.5h78q-5 -36 10.5 -58t46.5 -22q30 0 52.5 22t27.5 58h78q-10 -67 -57 -108t-112 -41zM242 -10q-93 0 -151 56.5t-58 150.5q0 124 81.5 210.5t197.5 86.5q90 0 144.5 -54t54.5 -144q0 -28 -10 -78h-361q-4 -67 27.5 -104.5t86.5 -37.5
q43 0 78.5 23t49.5 65l90 -28q-28 -70 -91 -108t-139 -38zM157 300h254q-1 46 -30.5 76.5t-80.5 30.5q-47 0 -84.5 -28t-58.5 -79z" />
    <glyph glyph-name="Edotaccent" unicode="&#x116;" horiz-adv-x="590" 
d="M374 790q-29 0 -47 19t-18 47q0 36 26.5 63t61.5 27q29 0 48 -19t19 -47q0 -35 -27 -62.5t-63 -27.5zM40 0l101 700h451l-15 -100h-341l-28 -199h329l-15 -100h-329l-28 -201h347l-15 -100h-457z" />
    <glyph glyph-name="edotaccent" unicode="&#x117;" horiz-adv-x="540" 
d="M319 574q-29 0 -47 19t-18 47q0 36 26.5 63t61.5 27q29 0 48 -19t19 -47q0 -35 -27 -62.5t-63 -27.5zM242 -10q-93 0 -151 56.5t-58 150.5q0 124 81.5 210.5t197.5 86.5q90 0 144.5 -54t54.5 -144q0 -28 -10 -78h-361q-4 -67 27.5 -104.5t86.5 -37.5q43 0 78.5 23
t49.5 65l90 -28q-28 -70 -91 -108t-139 -38zM157 300h254q-1 46 -30.5 76.5t-80.5 30.5q-47 0 -84.5 -28t-58.5 -79z" />
    <glyph glyph-name="Eogonek" unicode="&#x118;" horiz-adv-x="590" 
d="M577 600h-341l-28 -199h329l-15 -100h-329l-28 -201h347l-15 -100h-49q-56 -17 -86.5 -43.5t-30.5 -58.5q0 -19 13 -30t36 -11q47 0 83 32l24 -54q-60 -46 -128 -46q-44 0 -74.5 22t-30.5 62q0 39 26.5 72.5t75.5 54.5h-316l101 700h451z" />
    <glyph glyph-name="eogonek" unicode="&#x119;" horiz-adv-x="540" 
d="M501 218h-361q-4 -67 27.5 -104.5t86.5 -37.5q43 0 78.5 23t49.5 65l90 -28q-26 -65 -82 -102.5t-125 -42.5q-91 -35 -91 -93q0 -19 13 -30t36 -11q47 0 83 32l24 -54q-60 -46 -128 -46q-44 0 -74.5 22t-30.5 62q0 78 92 122q-72 15 -114 68.5t-42 133.5
q0 124 81.5 210.5t197.5 86.5q90 0 144.5 -54t54.5 -144q0 -28 -10 -78zM300 407q-47 0 -84.5 -28t-58.5 -79h254q-1 46 -30.5 76.5t-80.5 30.5z" />
    <glyph glyph-name="Ecaron" unicode="&#x11a;" horiz-adv-x="590" 
d="M323 780l-90 156h90l58 -106l89 106h90l-138 -156h-99zM40 0l101 700h451l-15 -100h-341l-28 -199h329l-15 -100h-329l-28 -201h347l-15 -100h-457z" />
    <glyph glyph-name="ecaron" unicode="&#x11b;" horiz-adv-x="540" 
d="M268 564l-90 156h90l58 -106l89 106h90l-138 -156h-99zM242 -10q-93 0 -151 56.5t-58 150.5q0 124 81.5 210.5t197.5 86.5q90 0 144.5 -54t54.5 -144q0 -28 -10 -78h-361q-4 -67 27.5 -104.5t86.5 -37.5q43 0 78.5 23t49.5 65l90 -28q-28 -70 -91 -108t-139 -38zM157 300
h254q-1 46 -30.5 76.5t-80.5 30.5q-47 0 -84.5 -28t-58.5 -79z" />
    <glyph glyph-name="Gcircumflex" unicode="&#x11c;" horiz-adv-x="747" 
d="M473 886l-88 -106h-90l136 156h99l92 -156h-90zM308 240l15 100h387l-50 -340h-100l12 83q-88 -93 -219 -93q-135 0 -217 81.5t-82 216.5q0 176 115.5 299t280.5 123q113 0 190.5 -57.5t87.5 -158.5l-112 -33q-6 63 -56 103t-126 40q-110 0 -187 -88t-77 -213
q0 -94 54 -150.5t145 -56.5q76 0 138 40.5t88 103.5h-287z" />
    <glyph glyph-name="gcircumflex" unicode="&#x11d;" horiz-adv-x="597" 
d="M360 670l-88 -106h-90l136 156h99l92 -156h-90zM461 484h107l-66 -455q-16 -107 -92.5 -173t-185.5 -66q-83 0 -140 40t-68 110l100 40q3 -41 36 -68.5t84 -27.5q60 0 105 38t53 99l6 45q-67 -76 -170 -76q-86 0 -141.5 57.5t-55.5 151.5q0 121 80 208t190 87
q103 0 148 -76zM265 84q68 0 115.5 54.5t47.5 133.5q0 58 -32.5 93t-85.5 35q-68 0 -117 -55t-49 -132q0 -58 34 -93.5t87 -35.5z" />
    <glyph glyph-name="Gbreve" unicode="&#x11e;" horiz-adv-x="747" 
d="M458 773q-67 0 -100 41.5t-24 107.5h78q-5 -36 10.5 -58t46.5 -22q30 0 52.5 22t27.5 58h78q-10 -67 -57 -108t-112 -41zM308 240l15 100h387l-50 -340h-100l12 83q-88 -93 -219 -93q-135 0 -217 81.5t-82 216.5q0 176 115.5 299t280.5 123q113 0 190.5 -57.5
t87.5 -158.5l-112 -33q-6 63 -56 103t-126 40q-110 0 -187 -88t-77 -213q0 -94 54 -150.5t145 -56.5q76 0 138 40.5t88 103.5h-287z" />
    <glyph glyph-name="gbreve" unicode="&#x11f;" horiz-adv-x="597" 
d="M345 557q-67 0 -100 41.5t-24 107.5h78q-5 -36 10.5 -58t46.5 -22q30 0 52.5 22t27.5 58h78q-10 -67 -57 -108t-112 -41zM461 484h107l-66 -455q-16 -107 -92.5 -173t-185.5 -66q-83 0 -140 40t-68 110l100 40q3 -41 36 -68.5t84 -27.5q60 0 105 38t53 99l6 45
q-67 -76 -170 -76q-86 0 -141.5 57.5t-55.5 151.5q0 121 80 208t190 87q103 0 148 -76zM265 84q68 0 115.5 54.5t47.5 133.5q0 58 -32.5 93t-85.5 35q-68 0 -117 -55t-49 -132q0 -58 34 -93.5t87 -35.5z" />
    <glyph glyph-name="Gdotaccent" unicode="&#x120;" horiz-adv-x="747" 
d="M460 790q-29 0 -47 19t-18 47q0 36 26.5 63t61.5 27q29 0 48 -19t19 -47q0 -35 -27 -62.5t-63 -27.5zM308 240l15 100h387l-50 -340h-100l12 83q-88 -93 -219 -93q-135 0 -217 81.5t-82 216.5q0 176 115.5 299t280.5 123q113 0 190.5 -57.5t87.5 -158.5l-112 -33
q-6 63 -56 103t-126 40q-110 0 -187 -88t-77 -213q0 -94 54 -150.5t145 -56.5q76 0 138 40.5t88 103.5h-287z" />
    <glyph glyph-name="gdotaccent" unicode="&#x121;" horiz-adv-x="597" 
d="M347 574q-29 0 -47 19t-18 47q0 36 26.5 63t61.5 27q29 0 48 -19t19 -47q0 -35 -27 -62.5t-63 -27.5zM461 484h107l-66 -455q-16 -107 -92.5 -173t-185.5 -66q-83 0 -140 40t-68 110l100 40q3 -41 36 -68.5t84 -27.5q60 0 105 38t53 99l6 45q-67 -76 -170 -76
q-86 0 -141.5 57.5t-55.5 151.5q0 121 80 208t190 87q103 0 148 -76zM265 84q68 0 115.5 54.5t47.5 133.5q0 58 -32.5 93t-85.5 35q-68 0 -117 -55t-49 -132q0 -58 34 -93.5t87 -35.5z" />
    <glyph glyph-name="Gcommaaccent" unicode="&#x122;" horiz-adv-x="747" 
d="M308 240l15 100h387l-50 -340h-100l12 83q-88 -93 -219 -93q-135 0 -217 81.5t-82 216.5q0 176 115.5 299t280.5 123q113 0 190.5 -57.5t87.5 -158.5l-112 -33q-6 63 -56 103t-126 40q-110 0 -187 -88t-77 -213q0 -94 54 -150.5t145 -56.5q76 0 138 40.5t88 103.5h-287z
M203 -210l93 155h100l-113 -155h-80z" />
    <glyph glyph-name="gcommaaccent" unicode="&#x123;" horiz-adv-x="597" 
d="M461 484h107l-66 -455q-16 -107 -92.5 -173t-185.5 -66q-83 0 -140 40t-68 110l100 40q3 -41 36 -68.5t84 -27.5q60 0 105 38t53 99l6 45q-67 -76 -170 -76q-86 0 -141.5 57.5t-55.5 151.5q0 121 80 208t190 87q103 0 148 -76zM265 84q68 0 115.5 54.5t47.5 133.5
q0 58 -32.5 93t-85.5 35q-68 0 -117 -55t-49 -132q0 -58 34 -93.5t87 -35.5zM81 -420l93 155h100l-113 -155h-80z" />
    <glyph glyph-name="Hcircumflex" unicode="&#x124;" horiz-adv-x="688" 
d="M394 936h99l92 -156h-90l-59 106l-88 -106h-90zM40 0l101 700h110l-43 -300h320l43 300h110l-101 -700h-110l43 300h-320l-43 -300h-110z" />
    <glyph glyph-name="hcircumflex" unicode="&#x125;" horiz-adv-x="553" 
d="M211 886l-88 -106h-90l136 156h99l92 -156h-90zM347 494q81 0 124 -48.5t31 -135.5l-44 -310h-107l40 282q8 57 -16.5 86t-72.5 29q-49 0 -83 -34t-43 -95l-38 -268h-107l101 700h107l-39 -270q58 64 147 64z" />
    <glyph glyph-name="Hbar" unicode="&#x126;" horiz-adv-x="688" 
d="M40 0l72 501h-74l15 100h74l14 99h110l-14 -99h320l14 99h110l-14 -99h74l-15 -100h-74l-72 -501h-110l43 300h-320l-43 -300h-110zM208 400h320l14 101h-320z" />
    <glyph glyph-name="hbar" unicode="&#x127;" horiz-adv-x="553" 
d="M347 494q81 0 124 -48.5t31 -135.5l-44 -310h-107l40 282q8 57 -16.5 86t-72.5 29q-49 0 -83 -34t-43 -95l-38 -268h-107l78 539h-103l14 93h102l10 68h107l-10 -68h106l-14 -93h-105l-16 -109q58 64 147 64z" />
    <glyph glyph-name="Itilde" unicode="&#x128;" horiz-adv-x="260" 
d="M281 783q-37 0 -76.5 22.5t-59.5 22.5q-35 0 -50 -39h-66q9 49 44 77.5t79 28.5q37 0 76.5 -22.5t59.5 -22.5q36 0 49 39h66q-9 -48 -44 -77t-78 -29zM41 0l101 700h110l-101 -700h-110z" />
    <glyph glyph-name="itilde" unicode="&#x129;" horiz-adv-x="253" 
d="M247 567q-37 0 -76.5 22.5t-59.5 22.5q-35 0 -50 -39h-66q9 49 44 77.5t79 28.5q37 0 76.5 -22.5t59.5 -22.5q36 0 49 39h66q-9 -48 -44 -77t-78 -29zM39 0l70 484h107l-70 -484h-107z" />
    <glyph glyph-name="Imacron" unicode="&#x12a;" horiz-adv-x="260" 
d="M53 781l12 78h308l-11 -78h-309zM41 0l101 700h110l-101 -700h-110z" />
    <glyph glyph-name="imacron" unicode="&#x12b;" horiz-adv-x="253" 
d="M19 565l12 78h308l-11 -78h-309zM39 0l70 484h107l-70 -484h-107z" />
    <glyph glyph-name="Ibreve" unicode="&#x12c;" horiz-adv-x="260" 
d="M207 773q-67 0 -100 41.5t-24 107.5h78q-5 -36 10.5 -58t46.5 -22q30 0 52.5 22t27.5 58h78q-10 -67 -57 -108t-112 -41zM41 0l101 700h110l-101 -700h-110z" />
    <glyph glyph-name="ibreve" unicode="&#x12d;" horiz-adv-x="253" 
d="M173 557q-67 0 -100 41.5t-24 107.5h78q-5 -36 10.5 -58t46.5 -22q30 0 52.5 22t27.5 58h78q-10 -67 -57 -108t-112 -41zM39 0l70 484h107l-70 -484h-107z" />
    <glyph glyph-name="Iogonek" unicode="&#x12e;" horiz-adv-x="260" 
d="M60 -143q47 0 83 32l24 -54q-60 -46 -128 -46q-44 0 -74.5 22t-30.5 62t28 74t79 55l101 698h110l-101 -700h-23q-56 -17 -86.5 -43.5t-30.5 -58.5q0 -19 13 -30t36 -11z" />
    <glyph glyph-name="iogonek" unicode="&#x12f;" horiz-adv-x="253" 
d="M198 730q29 0 48 -19t19 -47q0 -35 -27 -62.5t-63 -27.5q-29 0 -47 19t-18 47q0 36 26.5 63t61.5 27zM132 0q-56 -17 -86.5 -43.5t-30.5 -58.5q0 -19 13 -30t36 -11q47 0 83 32l24 -54q-60 -46 -128 -46q-44 0 -74.5 22t-30.5 62q0 39 26.5 72.5t75.5 54.5h-1l70 484h107
l-70 -484h-14z" />
    <glyph glyph-name="Idotaccent" unicode="&#x130;" horiz-adv-x="260" 
d="M209 790q-29 0 -47 19t-18 47q0 36 26.5 63t61.5 27q29 0 48 -19t19 -47q0 -35 -27 -62.5t-63 -27.5zM41 0l101 700h110l-101 -700h-110z" />
    <glyph glyph-name="dotlessi" unicode="&#x131;" horiz-adv-x="253" 
d="M39 0l70 484h107l-70 -484h-107z" />
    <glyph glyph-name="IJ" unicode="&#x132;" horiz-adv-x="760" 
d="M41 0l101 700h110l-101 -700h-110zM386 234l-5 -35q-7 -48 14.5 -75.5t63.5 -27.5q47 0 77.5 30.5t38.5 83.5l71 490h110l-71 -490q-15 -107 -79.5 -163.5t-161.5 -56.5q-91 0 -138 54t-36 150l2 17z" />
    <glyph glyph-name="ij" unicode="&#x133;" horiz-adv-x="530" 
d="M175 570q-27 0 -45 17.5t-18 43.5q0 33 25.5 58.5t58.5 25.5q27 0 45.5 -18t18.5 -44q0 -32 -25.5 -57.5t-59.5 -25.5zM454 570q-27 0 -45 17.5t-18 43.5q0 33 26 58.5t58 25.5q28 0 46.5 -18t18.5 -44q0 -32 -26 -57.5t-60 -25.5zM40 0l70 484h107l-70 -484h-107z
M241 -205q-32 0 -73 9l26 91q21 -7 44 -7q67 0 76 70l75 526h107l-77 -538q-10 -72 -59 -111.5t-119 -39.5z" />
    <glyph glyph-name="Jcircumflex" unicode="&#x134;" horiz-adv-x="500" 
d="M424 936h99l92 -156h-90l-59 106l-88 -106h-90zM126 234l-5 -35q-7 -48 14.5 -75.5t63.5 -27.5q47 0 77.5 30.5t38.5 83.5l71 490h110l-71 -490q-15 -107 -79.5 -163.5t-161.5 -56.5q-91 0 -138 54t-36 150l2 17z" />
    <glyph glyph-name="jcircumflex" unicode="&#x135;" horiz-adv-x="277" 
d="M170 720h99l92 -156h-90l-59 106l-88 -106h-90zM-13 -205q-32 0 -73 9l26 91q21 -7 44 -7q67 0 76 70l75 526h107l-77 -538q-10 -72 -59 -111.5t-119 -39.5z" />
    <glyph glyph-name="Kcommaaccent" unicode="&#x136;" horiz-adv-x="624" 
d="M40 0l101 700h110l-47 -331l340 331h133l-304 -302l216 -398h-138l-172 315l-96 -89l-33 -226h-110zM135 -210l93 155h100l-113 -155h-80z" />
    <glyph glyph-name="kcommaaccent" unicode="&#x137;" horiz-adv-x="521" 
d="M31 0l101 700h107l-60 -423l234 207h122l-210 -188l155 -296h-121l-120 214l-81 -72l-20 -142h-107zM84 -210l93 155h100l-113 -155h-80z" />
    <glyph glyph-name="kgreenlandic" unicode="&#x138;" horiz-adv-x="521" 
d="M31 0l70 484h107l-29 -207l234 207h122l-210 -188l155 -296h-121l-120 214l-81 -72l-20 -142h-107z" />
    <glyph glyph-name="Lacute" unicode="&#x139;" horiz-adv-x="540" 
d="M168 780l93 156h100l-113 -156h-80zM40 0l101 700h110l-86 -600h343l-14 -100h-454z" />
    <glyph glyph-name="lacute" unicode="&#x13a;" horiz-adv-x="237" 
d="M157 780l93 156h100l-113 -156h-80zM31 0l101 700h107l-101 -700h-107z" />
    <glyph glyph-name="Lcommaaccent" unicode="&#x13b;" horiz-adv-x="540" 
d="M40 0l101 700h110l-86 -600h343l-14 -100h-454zM136 -210l93 155h100l-113 -155h-80z" />
    <glyph glyph-name="lcommaaccent" unicode="&#x13c;" horiz-adv-x="237" 
d="M31 0l101 700h107l-101 -700h-107zM-58 -210l93 155h100l-113 -155h-80z" />
    <glyph glyph-name="Lcaron" unicode="&#x13d;" horiz-adv-x="540" 
d="M158 780l-90 156h90l58 -106l89 106h90l-138 -156h-99zM40 0l101 700h110l-86 -600h343l-14 -100h-454z" />
    <glyph glyph-name="lcaron" unicode="&#x13e;" horiz-adv-x="374" 
d="M31 0l101 700h107l-101 -700h-107zM295 415l41 285h105l-62 -285h-84z" />
    <glyph glyph-name="Ldot" unicode="&#x13f;" horiz-adv-x="600" 
d="M40 0l101 700h110l-86 -600h343l-14 -100h-454zM376 288q-26 0 -43.5 17t-17.5 42q0 32 24.5 56t56.5 24q26 0 43.5 -17t17.5 -42q0 -31 -24.5 -55.5t-56.5 -24.5z" />
    <glyph glyph-name="ldot" unicode="&#x140;" horiz-adv-x="427" 
d="M31 0l101 700h107l-101 -700h-107zM300 295q-26 0 -43.5 17t-17.5 42q0 32 24.5 56t56.5 24q26 0 43.5 -17t17.5 -42q0 -31 -24.5 -55.5t-56.5 -24.5z" />
    <glyph glyph-name="Lslash" unicode="&#x141;" horiz-adv-x="540" 
d="M165 100h343l-14 -100h-454l41 284l-92 -31l14 93l91 30l47 324h110l-41 -285l93 31l-14 -93l-92 -31z" />
    <glyph glyph-name="lslash" unicode="&#x142;" horiz-adv-x="237" 
d="M290 438l-14 -93l-93 -31l-45 -314h-107l40 277l-95 -32l14 93l94 31l48 331h107l-42 -293z" />
    <glyph glyph-name="Nacute" unicode="&#x143;" horiz-adv-x="716" 
d="M589 936l-113 -156h-80l93 156h100zM598 700h110l-101 -700h-103l-282 503l-72 -503h-110l101 700h104l282 -503z" />
    <glyph glyph-name="nacute" unicode="&#x144;" horiz-adv-x="553" 
d="M477 720l-113 -156h-80l93 156h100zM347 494q81 0 124 -48.5t31 -135.5l-44 -310h-107l40 282q8 57 -16.5 86t-72.5 29q-49 0 -83 -34t-43 -95l-38 -268h-107l70 484h107l-8 -54q58 64 147 64z" />
    <glyph glyph-name="Ncommaaccent" unicode="&#x145;" horiz-adv-x="716" 
d="M598 700h110l-101 -700h-103l-282 503l-72 -503h-110l101 700h104l282 -503zM181 -210l93 155h100l-113 -155h-80z" />
    <glyph glyph-name="ncommaaccent" unicode="&#x146;" horiz-adv-x="553" 
d="M347 494q81 0 124 -48.5t31 -135.5l-44 -310h-107l40 282q8 57 -16.5 86t-72.5 29q-49 0 -83 -34t-43 -95l-38 -268h-107l70 484h107l-8 -54q58 64 147 64zM100 -210l93 155h100l-113 -155h-80z" />
    <glyph glyph-name="Ncaron" unicode="&#x147;" horiz-adv-x="716" 
d="M485 780h-99l-90 156h90l58 -106l89 106h90zM598 700h110l-101 -700h-103l-282 503l-72 -503h-110l101 700h104l282 -503z" />
    <glyph glyph-name="ncaron" unicode="&#x148;" horiz-adv-x="553" 
d="M373 564h-99l-90 156h90l58 -106l89 106h90zM347 494q81 0 124 -48.5t31 -135.5l-44 -310h-107l40 282q8 57 -16.5 86t-72.5 29q-49 0 -83 -34t-43 -95l-38 -268h-107l70 484h107l-8 -54q58 64 147 64z" />
    <glyph glyph-name="napostrophe" unicode="&#x149;" horiz-adv-x="753" 
d="M216 710q26 0 44 -16.5t18 -44.5q0 -84 -133 -192l-37 43q54 41 65 76q-37 13 -37 54q0 32 24 56t56 24zM547 494q81 0 124 -48.5t31 -135.5l-44 -310h-107l40 282q8 57 -16.5 86t-72.5 29q-49 0 -83 -34t-43 -95l-38 -268h-107l70 484h107l-8 -54q58 64 147 64z" />
    <glyph glyph-name="Eng" unicode="&#x14a;" horiz-adv-x="716" 
d="M422 -205q-32 0 -72 9l24 91q24 -7 45 -7q65 0 75 70l7 47l-280 498l-71 -503h-110l101 700h104l284 -503l71 503h108l-109 -754q-11 -73 -59.5 -112t-117.5 -39z" />
    <glyph glyph-name="eng" unicode="&#x14b;" horiz-adv-x="553" 
d="M347 494q81 0 124 -48.5t31 -135.5l-52 -364q-10 -73 -59 -112t-118 -39q-32 0 -73 9l25 91q22 -7 44 -7q66 0 76 70l46 324q8 57 -16.5 86t-72.5 29q-49 0 -83 -34t-43 -95l-38 -268h-107l70 484h107l-8 -54q58 64 147 64z" />
    <glyph glyph-name="Omacron" unicode="&#x14c;" horiz-adv-x="776" 
d="M311 781l12 78h308l-11 -78h-309zM353 -10q-134 0 -216.5 82t-82.5 216q0 176 116.5 299t285.5 123q134 0 216.5 -81t82.5 -215q0 -176 -117.5 -300t-284.5 -124zM368 96q113 0 191 87.5t78 214.5q0 93 -54 149.5t-142 56.5q-113 0 -191.5 -87t-78.5 -214
q0 -94 54 -150.5t143 -56.5z" />
    <glyph glyph-name="omacron" unicode="&#x14d;" horiz-adv-x="569" 
d="M176 565l12 78h308l-11 -78h-309zM249 -10q-96 0 -156 57t-60 151q0 123 84 209.5t205 86.5q96 0 156 -57.5t60 -153.5q0 -122 -84.5 -207.5t-204.5 -85.5zM263 86q68 0 116 54t48 131q0 58 -33 92.5t-86 34.5q-69 0 -116.5 -54t-47.5 -132q0 -57 33.5 -91.5t85.5 -34.5z
" />
    <glyph glyph-name="Obreve" unicode="&#x14e;" horiz-adv-x="776" 
d="M465 773q-67 0 -100 41.5t-24 107.5h78q-5 -36 10.5 -58t46.5 -22q30 0 52.5 22t27.5 58h78q-10 -67 -57 -108t-112 -41zM353 -10q-134 0 -216.5 82t-82.5 216q0 176 116.5 299t285.5 123q134 0 216.5 -81t82.5 -215q0 -176 -117.5 -300t-284.5 -124zM368 96
q113 0 191 87.5t78 214.5q0 93 -54 149.5t-142 56.5q-113 0 -191.5 -87t-78.5 -214q0 -94 54 -150.5t143 -56.5z" />
    <glyph glyph-name="obreve" unicode="&#x14f;" horiz-adv-x="569" 
d="M330 557q-67 0 -100 41.5t-24 107.5h78q-5 -36 10.5 -58t46.5 -22q30 0 52.5 22t27.5 58h78q-10 -67 -57 -108t-112 -41zM249 -10q-96 0 -156 57t-60 151q0 123 84 209.5t205 86.5q96 0 156 -57.5t60 -153.5q0 -122 -84.5 -207.5t-204.5 -85.5zM263 86q68 0 116 54
t48 131q0 58 -33 92.5t-86 34.5q-69 0 -116.5 -54t-47.5 -132q0 -57 33.5 -91.5t85.5 -34.5z" />
    <glyph glyph-name="Ohungarumlaut" unicode="&#x150;" horiz-adv-x="776" 
d="M350 780l93 156h100l-113 -156h-80zM507 780l94 156h100l-113 -156h-81zM353 -10q-134 0 -216.5 82t-82.5 216q0 176 116.5 299t285.5 123q134 0 216.5 -81t82.5 -215q0 -176 -117.5 -300t-284.5 -124zM368 96q113 0 191 87.5t78 214.5q0 93 -54 149.5t-142 56.5
q-113 0 -191.5 -87t-78.5 -214q0 -94 54 -150.5t143 -56.5z" />
    <glyph glyph-name="ohungarumlaut" unicode="&#x151;" horiz-adv-x="569" 
d="M215 564l93 156h100l-113 -156h-80zM372 564l94 156h100l-113 -156h-81zM249 -10q-96 0 -156 57t-60 151q0 123 84 209.5t205 86.5q96 0 156 -57.5t60 -153.5q0 -122 -84.5 -207.5t-204.5 -85.5zM263 86q68 0 116 54t48 131q0 58 -33 92.5t-86 34.5q-69 0 -116.5 -54
t-47.5 -132q0 -57 33.5 -91.5t85.5 -34.5z" />
    <glyph glyph-name="OE" unicode="&#x152;" horiz-adv-x="1140" 
d="M353 -10q-134 0 -216.5 82t-82.5 216q0 176 116.5 299t285.5 123q143 0 224 -92l11 82h452l-15 -100h-341l-29 -199h329l-14 -100h-329l-29 -201h347l-14 -100h-458l13 83q-109 -93 -250 -93zM368 96q113 0 191 87.5t78 214.5q0 93 -54 149.5t-142 56.5
q-113 0 -191.5 -87t-78.5 -214q0 -94 54 -150.5t143 -56.5z" />
    <glyph glyph-name="oe" unicode="&#x153;" horiz-adv-x="933" 
d="M249 -10q-96 0 -156 57t-60 151q0 123 84 209.5t205 86.5q124 0 182 -91q80 91 200 91q90 0 145 -54t55 -144q0 -13 -10 -78h-361q-4 -67 27.5 -104.5t86.5 -37.5q43 0 78.5 23t48.5 65l90 -28q-28 -71 -90.5 -108.5t-139.5 -37.5q-121 0 -177 90q-84 -90 -208 -90z
M550 300h253q1 44 -29 75.5t-81 31.5q-47 0 -85 -28t-58 -79zM263 86q68 0 116 54t48 131q0 58 -33 92.5t-86 34.5q-69 0 -116.5 -54t-47.5 -132q0 -57 33.5 -91.5t85.5 -34.5z" />
    <glyph glyph-name="Racute" unicode="&#x154;" horiz-adv-x="623" 
d="M350 780l93 156h100l-113 -156h-80zM40 0l101 700h264q99 0 155.5 -50t56.5 -133q0 -91 -54 -159t-141 -89l128 -269h-119l-122 260h-122l-37 -260h-110zM202 360h158q64 0 103.5 39.5t39.5 102.5q0 45 -28 71.5t-80 26.5h-159z" />
    <glyph glyph-name="racute" unicode="&#x155;" horiz-adv-x="394" 
d="M398 720l-113 -156h-80l93 156h100zM344 494q40 0 68 -11l-32 -101q-31 13 -70 13q-50 0 -88 -36t-47 -100l-37 -259h-107l70 484h107l-8 -54q56 64 144 64z" />
    <glyph glyph-name="Rcommaaccent" unicode="&#x156;" horiz-adv-x="623" 
d="M40 0l101 700h264q99 0 155.5 -50t56.5 -133q0 -91 -54 -159t-141 -89l128 -269h-119l-122 260h-122l-37 -260h-110zM202 360h158q64 0 103.5 39.5t39.5 102.5q0 45 -28 71.5t-80 26.5h-159zM135 -210l93 155h100l-113 -155h-80z" />
    <glyph glyph-name="rcommaaccent" unicode="&#x157;" horiz-adv-x="394" 
d="M344 494q40 0 68 -11l-32 -101q-31 13 -70 13q-50 0 -88 -36t-47 -100l-37 -259h-107l70 484h107l-8 -54q56 64 144 64zM-60 -210l93 155h100l-113 -155h-80z" />
    <glyph glyph-name="Rcaron" unicode="&#x158;" horiz-adv-x="623" 
d="M340 780l-90 156h90l58 -106l89 106h90l-138 -156h-99zM40 0l101 700h264q99 0 155.5 -50t56.5 -133q0 -91 -54 -159t-141 -89l128 -269h-119l-122 260h-122l-37 -260h-110zM202 360h158q64 0 103.5 39.5t39.5 102.5q0 45 -28 71.5t-80 26.5h-159z" />
    <glyph glyph-name="rcaron" unicode="&#x159;" horiz-adv-x="394" 
d="M294 564h-99l-90 156h90l58 -106l89 106h90zM200 430q56 64 144 64q40 0 68 -11l-32 -101q-31 13 -70 13q-50 0 -88 -36t-47 -100l-37 -259h-107l70 484h107z" />
    <glyph glyph-name="Sacute" unicode="&#x15a;" horiz-adv-x="597" 
d="M337 780l93 156h100l-113 -156h-80zM274 -10q-102 0 -166 49t-71 142l106 33q5 -61 44.5 -92t99.5 -31q64 0 104 32t40 83q0 21 -9 36t-28.5 25.5t-36.5 16.5t-47 14q-29 7 -44 11t-42.5 13.5t-42.5 18t-35.5 22.5t-31 30t-18.5 38t-8 48q0 100 74.5 165.5t189.5 65.5
q95 0 155 -49t65 -142l-105 -33q-5 59 -39.5 91t-89.5 32q-57 0 -94 -32t-37 -81q0 -38 29.5 -57.5t88.5 -33.5q97 -24 134 -43q92 -47 92 -139q0 -102 -78 -167.5t-199 -65.5z" />
    <glyph glyph-name="sacute" unicode="&#x15b;" horiz-adv-x="457" 
d="M236 564l93 156h100l-113 -156h-80zM197 -10q-75 0 -124.5 35.5t-54.5 97.5l94 26q4 -36 30.5 -54t64.5 -18q41 0 68.5 20t27.5 50q0 23 -20 33t-61 17q-31 6 -47 9t-44.5 13t-43.5 22t-27 33t-12 48q0 75 58.5 123.5t149.5 48.5q73 0 119 -33t52 -99l-94 -26
q-3 35 -28.5 53.5t-61.5 18.5q-37 0 -60 -19t-23 -49q0 -23 17 -33t53 -16q3 0 20.5 -3t23.5 -4.5t23.5 -5t25.5 -7t23 -9t22.5 -11.5t18 -15t15.5 -19t9 -23.5t4 -28.5q0 -75 -62 -125t-156 -50z" />
    <glyph glyph-name="Scircumflex" unicode="&#x15c;" horiz-adv-x="597" 
d="M349 936h99l92 -156h-90l-59 106l-88 -106h-90zM274 -10q-102 0 -166 49t-71 142l106 33q5 -61 44.5 -92t99.5 -31q64 0 104 32t40 83q0 21 -9 36t-28.5 25.5t-36.5 16.5t-47 14q-29 7 -44 11t-42.5 13.5t-42.5 18t-35.5 22.5t-31 30t-18.5 38t-8 48q0 100 74.5 165.5
t189.5 65.5q95 0 155 -49t65 -142l-105 -33q-5 59 -39.5 91t-89.5 32q-57 0 -94 -32t-37 -81q0 -38 29.5 -57.5t88.5 -33.5q97 -24 134 -43q92 -47 92 -139q0 -102 -78 -167.5t-199 -65.5z" />
    <glyph glyph-name="scircumflex" unicode="&#x15d;" horiz-adv-x="457" 
d="M248 720h99l92 -156h-90l-59 106l-88 -106h-90zM197 -10q-75 0 -124.5 35.5t-54.5 97.5l94 26q4 -36 30.5 -54t64.5 -18q41 0 68.5 20t27.5 50q0 23 -20 33t-61 17q-31 6 -47 9t-44.5 13t-43.5 22t-27 33t-12 48q0 75 58.5 123.5t149.5 48.5q73 0 119 -33t52 -99l-94 -26
q-3 35 -28.5 53.5t-61.5 18.5q-37 0 -60 -19t-23 -49q0 -23 17 -33t53 -16q3 0 20.5 -3t23.5 -4.5t23.5 -5t25.5 -7t23 -9t22.5 -11.5t18 -15t15.5 -19t9 -23.5t4 -28.5q0 -75 -62 -125t-156 -50z" />
    <glyph glyph-name="Scedilla" unicode="&#x15e;" horiz-adv-x="597" 
d="M325 405q97 -24 134 -43q92 -47 92 -139q0 -91 -63.5 -154t-165.5 -76q48 -33 48 -84q0 -50 -38.5 -83.5t-96.5 -33.5q-68 0 -114 46l40 54q27 -32 75 -32q27 0 44.5 16t17.5 41q0 45 -63 75q-86 9 -139 57t-59 132l106 33q5 -61 44.5 -92t99.5 -31q64 0 104 32t40 83
q0 21 -9 36t-28.5 25.5t-36.5 16.5t-47 14q-29 7 -44 11t-42.5 13.5t-42.5 18t-35.5 22.5t-31 30t-18.5 38t-8 48q0 100 74.5 165.5t189.5 65.5q95 0 155 -49t65 -142l-105 -33q-5 59 -39.5 91t-89.5 32q-57 0 -94 -32t-37 -81q0 -38 29.5 -57.5t88.5 -33.5z" />
    <glyph glyph-name="scedilla" unicode="&#x15f;" horiz-adv-x="457" 
d="M230 291q3 0 20.5 -3t23.5 -4.5t23.5 -5t25.5 -7t23 -9t22.5 -11.5t18 -15t15.5 -19t9 -23.5t4 -28.5q0 -63 -45.5 -109.5t-119.5 -60.5q51 -33 51 -86q0 -50 -38.5 -83.5t-96.5 -33.5q-68 0 -114 46l40 54q27 -32 75 -32q27 0 44.5 16t17.5 41q0 46 -63 75
q-63 7 -103.5 41t-44.5 90l94 26q4 -36 30.5 -54t64.5 -18q41 0 68.5 20t27.5 50q0 23 -20 33t-61 17q-31 6 -47 9t-44.5 13t-43.5 22t-27 33t-12 48q0 75 58.5 123.5t149.5 48.5q73 0 119 -33t52 -99l-94 -26q-3 35 -28.5 53.5t-61.5 18.5q-37 0 -60 -19t-23 -49
q0 -23 17 -33t53 -16z" />
    <glyph glyph-name="Scaron" unicode="&#x160;" horiz-adv-x="597" 
d="M327 780l-90 156h90l58 -106l89 106h90l-138 -156h-99zM274 -10q-102 0 -166 49t-71 142l106 33q5 -61 44.5 -92t99.5 -31q64 0 104 32t40 83q0 21 -9 36t-28.5 25.5t-36.5 16.5t-47 14q-29 7 -44 11t-42.5 13.5t-42.5 18t-35.5 22.5t-31 30t-18.5 38t-8 48
q0 100 74.5 165.5t189.5 65.5q95 0 155 -49t65 -142l-105 -33q-5 59 -39.5 91t-89.5 32q-57 0 -94 -32t-37 -81q0 -38 29.5 -57.5t88.5 -33.5q97 -24 134 -43q92 -47 92 -139q0 -102 -78 -167.5t-199 -65.5z" />
    <glyph glyph-name="scaron" unicode="&#x161;" horiz-adv-x="457" 
d="M226 564l-90 156h90l58 -106l89 106h90l-138 -156h-99zM197 -10q-75 0 -124.5 35.5t-54.5 97.5l94 26q4 -36 30.5 -54t64.5 -18q41 0 68.5 20t27.5 50q0 23 -20 33t-61 17q-31 6 -47 9t-44.5 13t-43.5 22t-27 33t-12 48q0 75 58.5 123.5t149.5 48.5q73 0 119 -33t52 -99
l-94 -26q-3 35 -28.5 53.5t-61.5 18.5q-37 0 -60 -19t-23 -49q0 -23 17 -33t53 -16q3 0 20.5 -3t23.5 -4.5t23.5 -5t25.5 -7t23 -9t22.5 -11.5t18 -15t15.5 -19t9 -23.5t4 -28.5q0 -75 -62 -125t-156 -50z" />
    <glyph glyph-name="uni0162" unicode="&#x162;" horiz-adv-x="551" 
d="M80 700h525l-15 -100h-207l-87 -600h-4q59 -33 59 -91q0 -50 -38.5 -83.5t-96.5 -33.5q-68 0 -114 46l40 54q27 -32 75 -32q27 0 44.5 16t17.5 41q0 52 -83 83h-10l87 600h-208z" />
    <glyph glyph-name="uni0163" unicode="&#x163;" horiz-adv-x="396" 
d="M240 392l-32 -224q-11 -84 78 -84q30 0 64 12v-90q-22 -8 -48 -12q50 -33 50 -85q0 -50 -38.5 -83.5t-96.5 -33.5q-68 0 -114 46l40 54q27 -32 75 -32q27 0 44.5 16t17.5 41q0 47 -66 76q-60 10 -92 53.5t-21 121.5l32 224h-93l14 92h68q29 27 44 140h107l-19 -140h154
l-14 -92h-154z" />
    <glyph glyph-name="Tcaron" unicode="&#x164;" horiz-adv-x="551" 
d="M303 780l-90 156h90l58 -106l89 106h90l-138 -156h-99zM186 0l87 600h-208l15 100h525l-15 -100h-207l-87 -600h-110z" />
    <glyph glyph-name="tcaron" unicode="&#x165;" horiz-adv-x="396" 
d="M180 704l-90 156h90l58 -106l89 106h90l-138 -156h-99zM253 -10q-77 0 -121 44t-31 134l32 224h-93l14 92h68q29 27 44 140h107l-19 -140h154l-14 -92h-154l-32 -224q-11 -84 78 -84q30 0 64 12v-90q-45 -16 -97 -16z" />
    <glyph glyph-name="Tbar" unicode="&#x166;" horiz-adv-x="551" 
d="M186 0l45 304h-135l14 93h134l29 203h-208l15 100h525l-15 -100h-207l-29 -203h135l-14 -93h-135l-44 -304h-110z" />
    <glyph glyph-name="tbar" unicode="&#x167;" horiz-adv-x="397" 
d="M253 -10q-77 0 -121.5 44t-31.5 134l9 63h-92l14 92h92l10 69h-92l12 92h69q16 14 25.5 43t19.5 97h107l-21 -140h154l-13 -92h-154l-10 -69h154l-13 -92h-154l-9 -63q-11 -84 78 -84q31 0 63 12l2 -90q-47 -16 -98 -16z" />
    <glyph glyph-name="Utilde" unicode="&#x168;" horiz-adv-x="656" 
d="M479 783q-37 0 -76.5 22.5t-59.5 22.5q-35 0 -50 -39h-66q9 49 44 77.5t79 28.5q37 0 76.5 -22.5t59.5 -22.5q36 0 49 39h66q-9 -48 -44 -77t-78 -29zM292 -10q-118 0 -178.5 76t-42.5 200l63 434h110l-63 -435q-11 -75 25 -122t103 -47t114.5 46.5t58.5 122.5l63 435
h110l-63 -436q-18 -123 -100.5 -198.5t-199.5 -75.5z" />
    <glyph glyph-name="utilde" unicode="&#x169;" horiz-adv-x="549" 
d="M259 612q-35 0 -50 -39h-66q9 49 44 77.5t79 28.5q37 0 76.5 -22.5t59.5 -22.5q36 0 49 39h66q-9 -48 -44 -77t-78 -29q-37 0 -76.5 22.5t-59.5 22.5zM417 484h107l-70 -484h-107l8 54q-58 -64 -146 -64q-77 0 -123 50.5t-32 143.5l43 300h107l-42 -292q-7 -51 19 -78
t73 -27t81 34.5t43 94.5z" />
    <glyph glyph-name="Umacron" unicode="&#x16a;" horiz-adv-x="656" 
d="M251 781l12 78h308l-11 -78h-309zM292 -10q-118 0 -178.5 76t-42.5 200l63 434h110l-63 -435q-11 -75 25 -122t103 -47t114.5 46.5t58.5 122.5l63 435h110l-63 -436q-18 -123 -100.5 -198.5t-199.5 -75.5z" />
    <glyph glyph-name="umacron" unicode="&#x16b;" horiz-adv-x="549" 
d="M487 643l-11 -78h-309l12 78h308zM417 484h107l-70 -484h-107l8 54q-58 -64 -146 -64q-77 0 -123 50.5t-32 143.5l43 300h107l-42 -292q-7 -51 19 -78t73 -27t81 34.5t43 94.5z" />
    <glyph glyph-name="Ubreve" unicode="&#x16c;" horiz-adv-x="656" 
d="M405 773q-67 0 -100 41.5t-24 107.5h78q-5 -36 10.5 -58t46.5 -22q30 0 52.5 22t27.5 58h78q-10 -67 -57 -108t-112 -41zM292 -10q-118 0 -178.5 76t-42.5 200l63 434h110l-63 -435q-11 -75 25 -122t103 -47t114.5 46.5t58.5 122.5l63 435h110l-63 -436
q-18 -123 -100.5 -198.5t-199.5 -75.5z" />
    <glyph glyph-name="ubreve" unicode="&#x16d;" horiz-adv-x="549" 
d="M321 557q-67 0 -100 41.5t-24 107.5h78q-5 -36 10.5 -58t46.5 -22q30 0 52.5 22t27.5 58h78q-10 -67 -57 -108t-112 -41zM417 484h107l-70 -484h-107l8 54q-58 -64 -146 -64q-77 0 -123 50.5t-32 143.5l43 300h107l-42 -292q-7 -51 19 -78t73 -27t81 34.5t43 94.5z" />
    <glyph glyph-name="Uring" unicode="&#x16e;" horiz-adv-x="656" 
d="M403 758q-41 0 -66.5 26t-25.5 63q0 48 36.5 83.5t86.5 35.5q41 0 67 -25.5t26 -62.5q0 -48 -37 -84t-87 -36zM412 820q20 0 34 14.5t14 34.5q0 15 -10 25t-25 10q-19 0 -33 -14.5t-14 -34.5q0 -16 9.5 -25.5t24.5 -9.5zM292 -10q-118 0 -178.5 76t-42.5 200l63 434h110
l-63 -435q-11 -75 25 -122t103 -47t114.5 46.5t58.5 122.5l63 435h110l-63 -436q-18 -123 -100.5 -198.5t-199.5 -75.5z" />
    <glyph glyph-name="uring" unicode="&#x16f;" horiz-adv-x="549" 
d="M319 542q-41 0 -66.5 26t-25.5 63q0 48 36.5 83.5t86.5 35.5q41 0 67 -25.5t26 -62.5q0 -48 -37 -84t-87 -36zM341 688q-19 0 -33 -14.5t-14 -34.5q0 -16 9.5 -25.5t24.5 -9.5q20 0 34 14.5t14 34.5q0 15 -10 25t-25 10zM417 484h107l-70 -484h-107l8 54
q-58 -64 -146 -64q-77 0 -123 50.5t-32 143.5l43 300h107l-42 -292q-7 -51 19 -78t73 -27t81 34.5t43 94.5z" />
    <glyph glyph-name="Uhungarumlaut" unicode="&#x170;" horiz-adv-x="656" 
d="M290 780l93 156h100l-113 -156h-80zM447 780l94 156h100l-113 -156h-81zM292 -10q-118 0 -178.5 76t-42.5 200l63 434h110l-63 -435q-11 -75 25 -122t103 -47t114.5 46.5t58.5 122.5l63 435h110l-63 -436q-18 -123 -100.5 -198.5t-199.5 -75.5z" />
    <glyph glyph-name="uhungarumlaut" unicode="&#x171;" horiz-adv-x="549" 
d="M399 720l-113 -156h-80l93 156h100zM444 564h-81l94 156h100zM378 216l39 268h107l-70 -484h-107l8 54q-58 -64 -146 -64q-77 0 -123 50.5t-32 143.5l43 300h107l-42 -292q-7 -51 19 -78t73 -27t81 34.5t43 94.5z" />
    <glyph glyph-name="Uogonek" unicode="&#x172;" horiz-adv-x="656" 
d="M545 700h110l-63 -436q-14 -98 -71 -167.5t-142 -94.5l4 -2q-56 -17 -86.5 -43.5t-30.5 -58.5q0 -19 13 -30t36 -11q47 0 83 32l24 -54q-60 -46 -128 -46q-44 0 -74.5 22t-30.5 62q0 73 83 118q-108 7 -163 82t-38 193l63 434h110l-63 -435q-11 -75 25 -122t103 -47
t114.5 46.5t58.5 122.5z" />
    <glyph glyph-name="uogonek" unicode="&#x173;" horiz-adv-x="549" 
d="M366 -143q47 0 83 32l24 -54q-60 -46 -128 -46q-44 0 -74.5 22t-30.5 62t28 74t79 55l8 52q-58 -64 -146 -64q-77 0 -123 50.5t-32 143.5l43 300h107l-42 -292q-7 -51 19 -78t73 -27t81 34.5t43 94.5l39 268h107l-70 -484h-20q-56 -17 -86.5 -43.5t-30.5 -58.5
q0 -19 13 -30t36 -11z" />
    <glyph glyph-name="Wcircumflex" unicode="&#x174;" horiz-adv-x="1068" 
d="M626 886l-88 -106h-90l136 156h99l92 -156h-90zM996 700h120l-315 -700h-127l-98 542l-252 -542h-127l-113 700h120l82 -553l254 553h120l95 -551z" />
    <glyph glyph-name="wcircumflex" unicode="&#x175;" horiz-adv-x="820" 
d="M471 670l-88 -106h-90l136 156h99l92 -156h-90zM729 484h112l-228 -484h-120l-66 350l-168 -350h-120l-87 484h111l62 -367l170 367h102l66 -367z" />
    <glyph glyph-name="Ycircumflex" unicode="&#x176;" horiz-adv-x="641" 
d="M412 886l-88 -106h-90l136 156h99l92 -156h-90zM588 700h119l-329 -453l-36 -247h-110l36 247l-199 453h119l150 -348z" />
    <glyph glyph-name="ycircumflex" unicode="&#x177;" horiz-adv-x="529" 
d="M326 670l-88 -106h-90l136 156h99l92 -156h-90zM448 484h113l-392 -684h-102l117 200l-142 484h114l96 -355z" />
    <glyph glyph-name="Ydieresis" unicode="&#x178;" horiz-adv-x="641" 
d="M304 798q-26 0 -43.5 18t-17.5 43q0 32 25 57t57 25q26 0 43 -17.5t17 -42.5q0 -32 -25 -57.5t-56 -25.5zM497 798q-26 0 -43.5 18t-17.5 43q0 32 25 57t57 25q26 0 43 -17.5t17 -42.5q0 -32 -25 -57.5t-56 -25.5zM588 700h119l-329 -453l-36 -247h-110l36 247l-199 453
h119l150 -348z" />
    <glyph glyph-name="Zacute" unicode="&#x179;" horiz-adv-x="631" 
d="M547 936l-113 -156h-80l93 156h100zM649 700l-12 -75l-458 -525h388l-15 -100h-541l11 75l463 525h-375l15 100h524z" />
    <glyph glyph-name="zacute" unicode="&#x17a;" horiz-adv-x="505" 
d="M453 720l-113 -156h-80l93 156h100zM490 484l-10 -72l-305 -317h265l-14 -95h-415l11 73l305 316h-252l14 95h401z" />
    <glyph glyph-name="Zdotaccent" unicode="&#x17b;" horiz-adv-x="631" 
d="M395 790q-29 0 -47 19t-18 47q0 36 26.5 63t61.5 27q29 0 48 -19t19 -47q0 -35 -27 -62.5t-63 -27.5zM649 700l-12 -75l-458 -525h388l-15 -100h-541l11 75l463 525h-375l15 100h524z" />
    <glyph glyph-name="zdotaccent" unicode="&#x17c;" horiz-adv-x="505" 
d="M301 574q-29 0 -47 19t-18 47q0 36 26.5 63t61.5 27q29 0 48 -19t19 -47q0 -35 -27 -62.5t-63 -27.5zM490 484l-10 -72l-305 -317h265l-14 -95h-415l11 73l305 316h-252l14 95h401z" />
    <glyph glyph-name="Zcaron" unicode="&#x17d;" horiz-adv-x="631" 
d="M443 780h-99l-90 156h90l58 -106l89 106h90zM649 700l-12 -75l-458 -525h388l-15 -100h-541l11 75l463 525h-375l15 100h524z" />
    <glyph glyph-name="zcaron" unicode="&#x17e;" horiz-adv-x="505" 
d="M349 564h-99l-90 156h90l58 -106l89 106h90zM490 484l-10 -72l-305 -317h265l-14 -95h-415l11 73l305 316h-252l14 95h401z" />
    <glyph glyph-name="longs" unicode="&#x17f;" horiz-adv-x="409" 
d="M76 0l56 392h-92l14 92h92l7 49q12 86 69.5 131.5t134.5 45.5q59 0 108 -17l-27 -85q-37 14 -74 14q-46 0 -72.5 -26t-32.5 -70l-76 -526h-107z" />
    <glyph glyph-name="florin" unicode="&#x192;" horiz-adv-x="482" 
d="M104 -99l59 414h-83l1 90h95l18 128q12 87 69.5 132t133.5 45q58 0 109 -17l-26 -85q-39 14 -74 14q-48 0 -73.5 -26.5t-31.5 -69.5l-17 -121h172l-1 -90h-184l-60 -414h-107z" />
    <glyph glyph-name="uni01CD" unicode="&#x1cd;" horiz-adv-x="698" 
d="M477 780h-99l-90 156h90l58 -106l89 106h90zM478 700l177 -700h-117l-40 167h-318l-88 -167h-117l380 700h123zM234 267h238l-75 308z" />
    <glyph glyph-name="Aringacute" unicode="&#x1fa;" horiz-adv-x="698" 
d="M571 1082l-73 -86h-79l54 86h98zM425 758q-41 0 -66.5 26t-25.5 63q0 48 36.5 83.5t86.5 35.5q41 0 67 -25.5t26 -62.5q0 -48 -37 -84t-87 -36zM447 904q-19 0 -33 -14.5t-14 -34.5q0 -16 9.5 -25.5t24.5 -9.5q20 0 34 14.5t14 34.5q0 15 -10 25t-25 10zM478 700
l177 -700h-117l-40 167h-318l-88 -167h-117l380 700h123zM234 267h238l-75 308z" />
    <glyph glyph-name="aringacute" unicode="&#x1fb;" horiz-adv-x="592" 
d="M486 866l-73 -86h-79l54 86h98zM340 542q-40 0 -66 26t-26 63q0 48 36.5 83.5t86.5 35.5q41 0 67 -25.5t26 -62.5q0 -48 -37 -84t-87 -36zM362 688q-19 0 -33 -14.5t-14 -34.5q0 -16 9.5 -25.5t24.5 -9.5q20 0 34 14.5t14 34.5q0 15 -10 25t-25 10zM455 484h107l-70 -484
h-107l10 66q-67 -76 -170 -76q-87 0 -142 57.5t-55 150.5q0 121 80 208.5t191 87.5q103 0 147 -75zM260 84q67 0 114.5 55t47.5 133q0 58 -32 93t-85 35q-69 0 -117.5 -55.5t-48.5 -132.5q0 -58 34 -93t87 -35z" />
    <glyph glyph-name="AEacute" unicode="&#x1fc;" horiz-adv-x="990" 
d="M737 780l93 156h100l-113 -156h-80zM-25 0l380 700h637l-15 -100h-341l-28 -199h329l-15 -100h-329l-29 -201h348l-15 -100h-457l23 167h-282l-89 -167h-117zM234 267h244l48 333h-111z" />
    <glyph glyph-name="aeacute" unicode="&#x1fd;" horiz-adv-x="846" 
d="M428 564l93 156h100l-113 -156h-80zM173 -10q-69 0 -113.5 33t-44.5 91q0 68 48.5 113t130.5 54l156 17l1 10q5 47 -17.5 73.5t-66.5 26.5q-76 0 -106 -73l-92 17q25 72 84 107t133 35q111 0 153 -68q77 68 179 68q90 0 144.5 -54t54.5 -144q0 -23 -10 -78h-361
q-4 -67 29 -104.5t86 -37.5q42 0 77 21.5t48 56.5l90 -28q-28 -64 -90.5 -100t-136.5 -36q-122 0 -179 90q-69 -90 -197 -90zM464 300h253q0 46 -30.5 76.5t-80.5 30.5q-47 0 -85 -28t-57 -79zM207 72q52 4 86.5 36.5t42.5 88.5l3 21l-135 -16q-37 -4 -59.5 -25.5
t-22.5 -50.5q0 -28 24 -42t61 -12z" />
    <glyph glyph-name="Oslashacute" unicode="&#x1fe;" horiz-adv-x="776" 
d="M619 936l-113 -156h-80l93 156h100zM792 700l-95 -99q58 -77 58 -187q0 -176 -117.5 -300t-284.5 -124q-112 0 -187 57l-45 -47h-106l96 101q-57 78 -57 187q0 176 116.5 299t285.5 123q110 0 186 -56l44 46h106zM171 303q0 -65 27 -112l362 377q-50 36 -119 36
q-113 0 -191.5 -87t-78.5 -214zM637 398q0 65 -27 112l-362 -377q49 -37 120 -37q113 0 191 87.5t78 214.5z" />
    <glyph glyph-name="oslashacute" unicode="&#x1ff;" horiz-adv-x="569" 
d="M484 720l-113 -156h-80l93 156h100zM595 484l-89 -83q32 -49 32 -118q0 -122 -84.5 -207.5t-204.5 -85.5q-80 0 -138 42l-34 -32h-103l89 84q-30 49 -30 114q0 123 84 209.5t205 86.5q79 0 136 -41l33 31h104zM144 212q0 -26 7 -46l226 212q-29 20 -69 20
q-69 0 -116.5 -54t-47.5 -132zM427 271q0 23 -7 49l-228 -212q31 -22 71 -22q68 0 116 54t48 131z" />
    <glyph glyph-name="Scommaaccent" unicode="&#x218;" horiz-adv-x="597" 
d="M274 -10q-102 0 -166 49t-71 142l106 33q5 -61 44.5 -92t99.5 -31q64 0 104 32t40 83q0 21 -9 36t-28.5 25.5t-36.5 16.5t-47 14q-29 7 -44 11t-42.5 13.5t-42.5 18t-35.5 22.5t-31 30t-18.5 38t-8 48q0 100 74.5 165.5t189.5 65.5q95 0 155 -49t65 -142l-105 -33
q-5 59 -39.5 91t-89.5 32q-57 0 -94 -32t-37 -81q0 -38 29.5 -57.5t88.5 -33.5q97 -24 134 -43q92 -47 92 -139q0 -102 -78 -167.5t-199 -65.5zM122 -210l93 155h100l-113 -155h-80z" />
    <glyph glyph-name="scommaaccent" unicode="&#x219;" horiz-adv-x="457" 
d="M197 -10q-75 0 -124.5 35.5t-54.5 97.5l94 26q4 -36 30.5 -54t64.5 -18q41 0 68.5 20t27.5 50q0 23 -20 33t-61 17q-31 6 -47 9t-44.5 13t-43.5 22t-27 33t-12 48q0 75 58.5 123.5t149.5 48.5q73 0 119 -33t52 -99l-94 -26q-3 35 -28.5 53.5t-61.5 18.5q-37 0 -60 -19
t-23 -49q0 -23 17 -33t53 -16q3 0 20.5 -3t23.5 -4.5t23.5 -5t25.5 -7t23 -9t22.5 -11.5t18 -15t15.5 -19t9 -23.5t4 -28.5q0 -75 -62 -125t-156 -50zM53 -210l93 155h100l-113 -155h-80z" />
    <glyph glyph-name="uni021A" unicode="&#x21a;" horiz-adv-x="551" 
d="M186 0l87 600h-208l15 100h525l-15 -100h-207l-87 -600h-110zM103 -210l93 155h100l-113 -155h-80z" />
    <glyph glyph-name="uni021B" unicode="&#x21b;" horiz-adv-x="396" 
d="M253 -10q-77 0 -121 44t-31 134l32 224h-93l14 92h68q29 27 44 140h107l-19 -140h154l-14 -92h-154l-32 -224q-11 -84 78 -84q30 0 64 12v-90q-45 -16 -97 -16zM104 -210l93 155h100l-113 -155h-80z" />
    <glyph glyph-name="uni0237" unicode="&#x237;" horiz-adv-x="277" 
d="M-13 -205q-32 0 -73 9l26 91q21 -7 44 -7q67 0 76 70l75 526h107l-77 -538q-10 -72 -59 -111.5t-119 -39.5z" />
    <glyph glyph-name="circumflex" unicode="&#x2c6;" 
d="M20 720h99l92 -156h-90l-59 106l-88 -106h-90z" />
    <glyph glyph-name="caron" unicode="&#x2c7;" 
d="M-4 564l-90 156h90l58 -106l89 106h90l-138 -156h-99z" />
    <glyph glyph-name="breve" unicode="&#x2d8;" 
d="M45 557q-67 0 -100 41.5t-24 107.5h78q-5 -36 10.5 -58t46.5 -22q30 0 52.5 22t27.5 58h78q-10 -67 -57 -108t-112 -41z" />
    <glyph glyph-name="dotaccent" unicode="&#x2d9;" 
d="M48 574q-29 0 -47 19t-18 47q0 36 26.5 63t61.5 27q29 0 48 -19t19 -47q0 -35 -27 -62.5t-63 -27.5z" />
    <glyph glyph-name="ring" unicode="&#x2da;" 
d="M43 542q-41 0 -66.5 26t-25.5 63q0 48 36.5 83.5t86.5 35.5q41 0 67 -25.5t26 -62.5q0 -48 -37 -84t-87 -36zM52 604q20 0 34 14.5t14 34.5q0 15 -10 25t-25 10q-19 0 -33 -14.5t-14 -34.5q0 -16 9.5 -25.5t24.5 -9.5z" />
    <glyph glyph-name="ogonek" unicode="&#x2db;" horiz-adv-x="1" 
d="M-65 -208q-44 0 -74.5 22t-30.5 62q0 51 43.5 90.5t118.5 55.5l32 -19q-56 -17 -86.5 -43.5t-30.5 -58.5q0 -19 13 -30t36 -11q47 0 83 32l24 -54q-60 -46 -128 -46z" />
    <glyph glyph-name="tilde" unicode="&#x2dc;" 
d="M121 567q-37 0 -76.5 22.5t-59.5 22.5q-35 0 -50 -39h-66q9 49 44 77.5t79 28.5q37 0 76.5 -22.5t59.5 -22.5q36 0 49 39h66q-9 -48 -44 -77t-78 -29z" />
    <glyph glyph-name="hungarumlaut" unicode="&#x2dd;" 
d="M-117 564l93 156h100l-113 -156h-80zM40 564l94 156h100l-113 -156h-81z" />
    <glyph glyph-name="uni0326" unicode="&#x326;" 
d="M-151 -210l93 155h100l-113 -155h-80z" />
    <glyph glyph-name="uni0335" unicode="&#x335;" 
d="M-160 220l14 93h315l-14 -93h-315z" />
    <glyph glyph-name="uni0336" unicode="&#x336;" 
d="M-263 220l14 93h521l-14 -93h-521z" />
    <glyph glyph-name="uni0337" unicode="&#x337;" 
d="M-310 0l517 484h104l-518 -484h-103z" />
    <glyph glyph-name="uni0338" unicode="&#x338;" 
d="M-373 0l671 700h106l-671 -700h-106z" />
    <glyph glyph-name="uni0374" unicode="&#x374;" horiz-adv-x="225" 
d="M62 444l107 256h100l-127 -256h-80z" />
    <glyph glyph-name="uni037E" unicode="&#x37e;" horiz-adv-x="291" 
d="M183 487q26 0 43 -17t17 -42q0 -32 -24.5 -56.5t-56.5 -24.5q-25 0 -43 17.5t-18 42.5q0 31 25 55.5t57 24.5zM64 -119l-37 43q30 25 44 41t20 35q-17 6 -27 20.5t-10 33.5q0 32 24.5 56t56.5 24q25 0 43 -16.5t18 -44.5q0 -85 -132 -192z" />
    <glyph glyph-name="tonos" unicode="&#x384;" 
d="M-33 564l84 156h99l-103 -156h-80z" />
    <glyph glyph-name="dieresistonos" unicode="&#x385;" 
d="M-27 564l77 180h100l-96 -180h-81zM-85 596q-23 0 -38.5 16t-15.5 38q0 28 22 49.5t50 21.5q23 0 38 -15.5t15 -37.5q0 -28 -21.5 -50t-49.5 -22zM189 596q-23 0 -38 16t-15 38q0 28 21.5 49.5t49.5 21.5q23 0 38.5 -15.5t15.5 -38.5q0 -27 -22 -49t-50 -22z" />
    <glyph glyph-name="Alphatonos" unicode="&#x386;" horiz-adv-x="725" 
d="M505 700l177 -700h-117l-40 167h-318l-88 -167h-117l380 700h123zM255 700l-113 -185h-80l90 185h103zM261 267h238l-75 308z" />
    <glyph glyph-name="anoteleia" unicode="&#x387;" horiz-adv-x="302" 
d="M158 295q-26 0 -43.5 17t-17.5 42q0 32 24.5 56t56.5 24q26 0 43.5 -17t17.5 -42q0 -31 -24.5 -55.5t-56.5 -24.5z" />
    <glyph glyph-name="Epsilontonos" unicode="&#x388;" horiz-adv-x="723" 
d="M33 515l90 185h102l-112 -185h-80zM173 0l101 700h451l-15 -100h-341l-28 -199h329l-15 -100h-329l-29 -201h348l-15 -100h-457z" />
    <glyph glyph-name="Etatonos" unicode="&#x389;" horiz-adv-x="813" 
d="M33 515l90 185h102l-112 -185h-80zM166 0l100 700h110l-43 -300h320l43 300h110l-101 -700h-110l43 300h-319l-44 -300h-109z" />
    <glyph glyph-name="Iotatonos" unicode="&#x38a;" horiz-adv-x="384" 
d="M33 515l90 185h102l-112 -185h-80zM166 0l100 700h110l-101 -700h-109z" />
    <glyph glyph-name="Omicrontonos" unicode="&#x38c;" horiz-adv-x="852" 
d="M430 -10q-134 0 -216.5 82t-82.5 216q0 177 117 299.5t285 122.5q133 0 215.5 -81t82.5 -215q0 -176 -117 -300t-284 -124zM33 515l90 185h102l-112 -185h-80zM445 96q113 0 191 87.5t78 214.5q0 94 -54 150t-143 56q-113 0 -191 -87t-78 -214q0 -94 54 -150.5t143 -56.5
z" />
    <glyph glyph-name="Upsilontonos" unicode="&#x38e;" horiz-adv-x="819" 
d="M33 515l90 185h102l-112 -185h-80zM766 700h119l-329 -453l-36 -247h-110l36 247l-199 453h119l150 -348z" />
    <glyph glyph-name="Omegatonos" unicode="&#x38f;" horiz-adv-x="858" 
d="M73 0l14 95h127q-84 71 -84 203q0 171 117 291.5t283 120.5q133 0 215.5 -80.5t82.5 -212.5q0 -99 -42.5 -185t-116.5 -137h127l-14 -95h-328l14 95q98 0 170 90.5t72 212.5q0 94 -53.5 150t-142.5 56q-113 0 -191 -88t-78 -217q0 -91 47 -147.5t122 -56.5l-13 -95h-328z
M34 516l90 184h102l-112 -184h-80z" />
    <glyph glyph-name="iotadieresistonos" unicode="&#x390;" horiz-adv-x="233" 
d="M121 564l77 180h100l-96 -180h-81zM63 596q-23 0 -38.5 16t-15.5 38q0 28 22 49.5t50 21.5q23 0 38 -15.5t15 -37.5q0 -28 -21.5 -50t-49.5 -22zM337 596q-23 0 -38 16t-15 38q0 28 21.5 49.5t49.5 21.5q23 0 38.5 -15.5t15.5 -38.5q0 -27 -22 -49t-50 -22zM130 -10
q-46 0 -74 27t-20 86l54 381h107l-53 -374q-3 -28 23 -28q5 0 19 3l-13 -90q-18 -5 -43 -5z" />
    <glyph glyph-name="Alpha" unicode="&#x391;" horiz-adv-x="698" 
d="M478 700l177 -700h-117l-40 167h-318l-88 -167h-117l380 700h123zM234 267h238l-75 308z" />
    <glyph glyph-name="Beta" unicode="&#x392;" horiz-adv-x="633" 
d="M40 0l101 700h288q90 0 138.5 -40.5t48.5 -111.5q0 -122 -111 -176q84 -43 84 -136q0 -106 -72 -171t-188 -65h-289zM210 414h166q58 0 91.5 31t33.5 84q0 76 -97 76h-167zM164 95h169q64 0 103 36.5t39 97.5q0 42 -28.5 66t-81.5 24h-169z" />
    <glyph glyph-name="Gamma" unicode="&#x393;" horiz-adv-x="503" 
d="M40 0l101 700h414l-15 -100h-304l-86 -600h-110z" />
    <glyph glyph-name="uni0394" unicode="&#x394;" horiz-adv-x="638" 
d="M-18 0l15 100l327 600h123l156 -600l-15 -100h-606zM112 100h376l-121 477z" />
    <glyph glyph-name="Epsilon" unicode="&#x395;" horiz-adv-x="590" 
d="M40 0l101 700h451l-15 -100h-341l-28 -199h329l-15 -100h-329l-28 -201h347l-15 -100h-457z" />
    <glyph glyph-name="Zeta" unicode="&#x396;" horiz-adv-x="631" 
d="M649 700l-12 -75l-458 -525h388l-15 -100h-541l11 75l463 525h-375l15 100h524z" />
    <glyph glyph-name="Eta" unicode="&#x397;" horiz-adv-x="688" 
d="M40 0l101 700h110l-43 -300h320l43 300h110l-101 -700h-110l43 300h-320l-43 -300h-110z" />
    <glyph glyph-name="Theta" unicode="&#x398;" horiz-adv-x="776" 
d="M353 -10q-134 0 -216.5 82t-82.5 216q0 176 116.5 299t285.5 123q134 0 216.5 -81t82.5 -215q0 -176 -117.5 -300t-284.5 -124zM368 96q113 0 191 87.5t78 214.5q0 93 -54 149.5t-142 56.5q-113 0 -191.5 -87t-78.5 -214q0 -94 54 -150.5t143 -56.5zM250 306l13 100h301
l-15 -100h-299z" />
    <glyph glyph-name="Iota" unicode="&#x399;" horiz-adv-x="260" 
d="M41 0l101 700h110l-101 -700h-110z" />
    <glyph glyph-name="Kappa" unicode="&#x39a;" horiz-adv-x="624" 
d="M40 0l101 700h110l-47 -331l340 331h133l-304 -302l216 -398h-138l-172 315l-96 -89l-33 -226h-110z" />
    <glyph glyph-name="Lambda" unicode="&#x39b;" horiz-adv-x="698" 
d="M-25 0l380 700h123l177 -700h-117l-140 577l-306 -577h-117z" />
    <glyph glyph-name="Mu" unicode="&#x39c;" horiz-adv-x="872" 
d="M728 700h136l-101 -700h-110l69 480l-271 -480h-97l-135 482l-69 -482h-110l101 700h136l150 -530z" />
    <glyph glyph-name="Nu" unicode="&#x39d;" horiz-adv-x="716" 
d="M598 700h110l-101 -700h-103l-282 503l-72 -503h-110l101 700h104l282 -503z" />
    <glyph glyph-name="Xi" unicode="&#x39e;" horiz-adv-x="614" 
d="M127 600l14 100h466l-14 -100h-466zM123 300l14 100h388l-14 -100h-388zM41 0l14 100h466l-15 -100h-465z" />
    <glyph glyph-name="Omicron" unicode="&#x39f;" horiz-adv-x="776" 
d="M353 -10q-134 0 -216.5 82t-82.5 216q0 176 116.5 299t285.5 123q134 0 216.5 -81t82.5 -215q0 -176 -117.5 -300t-284.5 -124zM368 96q113 0 191 87.5t78 214.5q0 93 -54 149.5t-142 56.5q-113 0 -191.5 -87t-78.5 -214q0 -94 54 -150.5t143 -56.5z" />
    <glyph glyph-name="Pi" unicode="&#x3a0;" horiz-adv-x="688" 
d="M40 0l101 700h540l-101 -700h-110l86 600h-320l-86 -600h-110z" />
    <glyph glyph-name="Rho" unicode="&#x3a1;" horiz-adv-x="616" 
d="M40 0l101 700h264q99 0 155 -50.5t56 -138.5q0 -119 -78 -195t-199 -76h-154l-35 -240h-110zM200 340h155q66 0 106.5 43t40.5 113q0 49 -29 76.5t-81 27.5h-156z" />
    <glyph glyph-name="Sigma" unicode="&#x3a3;" horiz-adv-x="568" 
d="M10 0l15 100l223 250l-152 250l15 100h480l-15 -100h-344l148 -250l-219 -250h343l-14 -100h-480z" />
    <glyph glyph-name="Tau" unicode="&#x3a4;" horiz-adv-x="551" 
d="M186 0l87 600h-208l15 100h525l-15 -100h-207l-87 -600h-110z" />
    <glyph glyph-name="Upsilon" unicode="&#x3a5;" horiz-adv-x="641" 
d="M588 700h119l-329 -453l-36 -247h-110l36 247l-199 453h119l150 -348z" />
    <glyph glyph-name="Phi" unicode="&#x3a6;" horiz-adv-x="801" 
d="M307 -40l14 87q-122 11 -194.5 80.5t-72.5 176.5q0 138 99.5 236.5t253.5 112.5l13 87h109l-13 -87q123 -12 193.5 -81t70.5 -175q0 -138 -99 -237t-252 -113l-13 -87h-109zM336 154l55 392q-97 -12 -158.5 -74.5t-61.5 -151.5q0 -68 44.5 -112t120.5 -54zM445 154
q98 13 158.5 76.5t60.5 151.5q0 66 -43.5 110t-120.5 54z" />
    <glyph glyph-name="Chi" unicode="&#x3a7;" horiz-adv-x="667" 
d="M716 700l-300 -359l190 -341h-125l-147 267l-225 -267h-125l300 353l-193 347h125l150 -272l226 272h124z" />
    <glyph glyph-name="Psi" unicode="&#x3a8;" horiz-adv-x="759" 
d="M292 0l25 179q-115 17 -173.5 98.5t-40.5 204.5l31 218h110l-31 -218q-11 -78 21.5 -130t98.5 -66l59 414h110l-59 -414q71 15 118 67.5t57 128.5l31 218h110l-31 -218q-18 -124 -99.5 -205t-201.5 -98l-25 -179h-110z" />
    <glyph glyph-name="uni03A9" unicode="&#x3a9;" horiz-adv-x="793" 
d="M8 0l14 95h127q-84 71 -84 203q0 171 117 291.5t282 120.5q134 0 216.5 -80.5t82.5 -212.5q0 -99 -42.5 -185t-116.5 -137h127l-14 -95h-328l14 95q98 0 170 90.5t72 212.5q0 94 -53.5 150t-142.5 56q-113 0 -190.5 -88t-77.5 -217q0 -91 46.5 -147.5t121.5 -56.5
l-14 -95h-327z" />
    <glyph glyph-name="Iotadieresis" unicode="&#x3aa;" horiz-adv-x="260" 
d="M114 798q-26 0 -43.5 18t-17.5 43q0 32 25 57t57 25q26 0 43 -17.5t17 -42.5q0 -32 -25 -57.5t-56 -25.5zM307 798q-26 0 -43.5 18t-17.5 43q0 32 25 57t57 25q26 0 43 -17.5t17 -42.5q0 -32 -25 -57.5t-56 -25.5zM41 0l101 700h110l-101 -700h-110z" />
    <glyph glyph-name="Upsilondieresis" unicode="&#x3ab;" horiz-adv-x="641" 
d="M304 798q-26 0 -43.5 18t-17.5 43q0 32 25 57t57 25q26 0 43 -17.5t17 -42.5q0 -32 -25 -57.5t-56 -25.5zM497 798q-26 0 -43.5 18t-17.5 43q0 32 25 57t57 25q26 0 43 -17.5t17 -42.5q0 -32 -25 -57.5t-56 -25.5zM588 700h119l-329 -453l-36 -247h-110l36 247l-199 453
h119l150 -348z" />
    <glyph glyph-name="alphatonos" unicode="&#x3ac;" horiz-adv-x="604" 
d="M499 720l-103 -156h-80l84 156h99zM515 110q-3 -28 23 -28q6 0 19 3l-14 -90q-18 -5 -42 -5q-40 0 -67.5 19t-28.5 61q-69 -80 -175 -80q-87 0 -142 57.5t-55 150.5q0 121 80 208.5t191 87.5q103 0 147 -77l10 67h107zM265 84q68 0 115.5 55t47.5 133q0 57 -32.5 92.5
t-85.5 35.5q-68 0 -117 -55t-49 -132q0 -58 34 -93.5t87 -35.5z" />
    <glyph glyph-name="epsilontonos" unicode="&#x3ad;" horiz-adv-x="456" 
d="M210 564l84 156h99l-103 -156h-80zM261 -10q-89 0 -151 47.5t-62 115.5q0 63 58 95q-40 19 -61 51.5t-21 70.5q0 54 47.5 89t122.5 35q78 0 136 -37.5t83 -101.5l-91 -26q-14 31 -44 50t-68 19q-32 0 -53.5 -13.5t-21.5 -35.5q0 -26 27 -42.5t70 -16.5h62l12 -82h-61
q-40 0 -64.5 -14.5t-24.5 -38.5q0 -29 28 -49t69 -20q38 0 63.5 19.5t28.5 53.5l100 -26q-6 -66 -55.5 -104.5t-128.5 -38.5z" />
    <glyph glyph-name="etatonos" unicode="&#x3ae;" horiz-adv-x="561" 
d="M477 720l-103 -156h-80l84 156h99zM355 494q81 0 124 -48.5t31 -135.5l-66 -458h-107l62 430q8 57 -16.5 86t-72.5 29q-49 0 -83 -34t-43 -95l-38 -268h-107l53 374q3 28 -22 28q-6 0 -19 -3l13 90q18 5 42 5q39 0 66 -17.5t31 -52.5q59 70 152 70z" />
    <glyph glyph-name="iotatonos" unicode="&#x3af;" horiz-adv-x="233" 
d="M119 564l84 156h99l-103 -156h-80zM130 -10q-46 0 -74 27t-20 86l54 381h107l-53 -374q-3 -28 23 -28q5 0 19 3l-13 -90q-18 -5 -43 -5z" />
    <glyph glyph-name="upsilondieresistonos" unicode="&#x3b0;" horiz-adv-x="551" 
d="M271 564l77 180h100l-96 -180h-81zM213 596q-23 0 -38.5 16t-15.5 38q0 28 22 49.5t50 21.5q23 0 38 -15.5t15 -37.5q0 -28 -21.5 -50t-49.5 -22zM487 596q-23 0 -38 16t-15 38q0 28 21.5 49.5t49.5 21.5q23 0 38.5 -15.5t15.5 -38.5q0 -27 -22 -49t-50 -22zM243 -10
q-94 0 -147.5 55t-40.5 146l42 293h107l-41 -283q-8 -55 19 -84.5t75 -29.5q70 0 100 52.5t30 174.5q0 97 -10 170h107q9 -101 9 -183q0 -311 -250 -311z" />
    <glyph glyph-name="alpha" unicode="&#x3b1;" horiz-adv-x="604" 
d="M515 110q-3 -28 23 -28q6 0 19 3l-14 -90q-18 -5 -42 -5q-40 0 -67.5 19t-28.5 61q-69 -80 -175 -80q-87 0 -142 57.5t-55 150.5q0 121 80 208.5t191 87.5q103 0 147 -77l10 67h107zM265 84q68 0 115.5 55t47.5 133q0 57 -32.5 92.5t-85.5 35.5q-68 0 -117 -55t-49 -132
q0 -58 34 -93.5t87 -35.5z" />
    <glyph glyph-name="beta" unicode="&#x3b2;" horiz-adv-x="606" 
d="M13 -153l90 624q16 107 90.5 173t181.5 66q98 0 156.5 -45t58.5 -119q0 -60 -34 -106t-78 -68q38 -20 60 -58.5t22 -86.5q0 -100 -73 -168.5t-178 -68.5q-52 0 -94.5 19t-60.5 50l-31 -212h-110zM290 86q67 0 112 40.5t45 100.5q0 42 -30.5 67.5t-81.5 25.5h-37l13 92h37
q55 0 90 31.5t35 80.5q0 42 -29.5 67t-80.5 25q-58 0 -99 -38.5t-50 -101.5l-35 -241q-9 -65 20.5 -107t90.5 -42z" />
    <glyph glyph-name="gamma" unicode="&#x3b3;" horiz-adv-x="535" 
d="M156 -153l21 153l-132 484h112l94 -384q81 102 131.5 194t64.5 190h110q-32 -216 -273 -484l-21 -153h-107z" />
    <glyph glyph-name="delta" unicode="&#x3b4;" horiz-adv-x="570" 
d="M247 -10q-95 0 -155.5 57t-60.5 149q0 82 42 150t113 104q-53 35 -53 94q0 72 59.5 119t149.5 47q73 0 118.5 -35t50.5 -107l-95 -26q-3 80 -87 82q-37 1 -61 -17.5t-24 -47.5q0 -18 14.5 -32t28.5 -19.5t38 -13.5q106 -32 159 -78.5t53 -128.5q0 -124 -84.5 -210.5
t-205.5 -86.5zM262 86q68 0 115.5 53t47.5 129q0 32 -11 56t-32 38.5t-36 21.5t-38 15l-33 11q-61 -28 -97 -82t-36 -118q0 -57 33.5 -90.5t86.5 -33.5z" />
    <glyph glyph-name="epsilon" unicode="&#x3b5;" horiz-adv-x="456" 
d="M261 -10q-89 0 -151 47.5t-62 115.5q0 63 58 95q-40 19 -61 51.5t-21 70.5q0 54 47.5 89t122.5 35q78 0 136 -37.5t83 -101.5l-91 -26q-14 31 -44 50t-68 19q-32 0 -53.5 -13.5t-21.5 -35.5q0 -26 27 -42.5t70 -16.5h62l12 -82h-61q-40 0 -64.5 -14.5t-24.5 -38.5
q0 -29 28 -49t69 -20q38 0 63.5 19.5t28.5 53.5l100 -26q-6 -66 -55.5 -104.5t-128.5 -38.5z" />
    <glyph glyph-name="zeta" unicode="&#x3b6;" horiz-adv-x="426" 
d="M249 -187l-48 62q83 34 83 103q0 34 -22.5 55.5t-75.5 51.5q-31 18 -47.5 29.5t-39 33t-33 50t-10.5 65.5q0 93 62.5 179.5t179.5 158.5l-239 -1l15 100h422l-14 -90q-151 -61 -231 -144.5t-80 -175.5q0 -44 19.5 -70.5t56.5 -51.5q13 -9 40 -24.5t42 -26t32.5 -27
t26 -37.5t8.5 -47q0 -123 -147 -193z" />
    <glyph glyph-name="eta" unicode="&#x3b7;" horiz-adv-x="561" 
d="M355 494q81 0 124 -48.5t31 -135.5l-66 -458h-107l62 430q8 57 -16.5 86t-72.5 29q-49 0 -83 -34t-43 -95l-38 -268h-107l53 374q3 28 -22 28q-6 0 -19 -3l13 90q18 5 42 5q39 0 66 -17.5t31 -52.5q59 70 152 70z" />
    <glyph glyph-name="theta" unicode="&#x3b8;" horiz-adv-x="634" 
d="M385 710q107 0 168.5 -72.5t61.5 -201.5q0 -190 -95.5 -318t-237.5 -128q-107 0 -168.5 72.5t-61.5 201.5q0 190 95.5 318t237.5 128zM370 610q-66 0 -118 -58.5t-74 -153.5h324q1 8 1 25q0 88 -35.5 137.5t-97.5 49.5zM297 91q66 0 118.5 58.5t74.5 153.5h-325
q-1 -9 -1 -26q0 -88 35 -137t98 -49z" />
    <glyph glyph-name="iota" unicode="&#x3b9;" horiz-adv-x="233" 
d="M130 -10q-46 0 -74 27t-20 86l54 381h107l-53 -374q-3 -28 23 -28q5 0 19 3l-13 -90q-18 -5 -43 -5z" />
    <glyph glyph-name="kappa" unicode="&#x3ba;" horiz-adv-x="533" 
d="M31 0l70 484h107l-29 -205l108 95q85 75 113 92q47 28 101 28q27 0 45 -5l-13 -92q-18 5 -43 5q-44 0 -111 -59l-54 -47l166 -296h-122l-130 214l-81 -72l-20 -142h-107z" />
    <glyph glyph-name="lambda" unicode="&#x3bb;" horiz-adv-x="577" 
d="M524 78q4 0 20 2l-13 -88q-22 -2 -33 -2q-32 0 -58 11.5t-41 25.5t-26.5 38t-16 38t-9.5 35l-58 240l-200 -378h-114l279 500l-9 32q-6 22 -11 34.5t-14 27t-23 21.5t-34 7q-6 0 -22 -2l13 88q24 2 35 2q40 0 68 -13t45 -40t24.5 -46t16.5 -53l105 -391q1 -3 3.5 -13
t4 -15t5 -14t7 -14.5t9 -12.5t12 -11t15.5 -6.5t20 -2.5z" />
    <glyph glyph-name="uni03BC" unicode="&#x3bc;" horiz-adv-x="560" 
d="M470 110q-4 -28 23 -28q5 0 20 3l-14 -90q-18 -5 -43 -5q-85 0 -94 71q-56 -71 -145 -71q-24 0 -47 8.5t-33 24.5l-24 -171h-107l91 632h107l-40 -282q-8 -56 17 -85.5t73 -29.5t82 34.5t43 94.5l38 268h107z" />
    <glyph glyph-name="nu" unicode="&#x3bd;" horiz-adv-x="534" 
d="M447 484h108q-17 -116 -87.5 -234.5t-181.5 -249.5h-113l-128 484h112l94 -382q173 219 196 382z" />
    <glyph glyph-name="xi" unicode="&#x3be;" horiz-adv-x="521" 
d="M257 -184l-48 63q92 34 92 101q0 17 -7 29.5t-22 22t-27 14.5t-34 12q-26 8 -35.5 11.5t-32.5 13t-34 18t-25 22t-20 31.5t-6 39q0 62 41.5 110.5t105.5 62.5q-40 12 -62 45t-22 79q0 95 73.5 157.5t185.5 62.5q85 0 139 -41.5t61 -118.5l-102 -29q-4 44 -33.5 68.5
t-78.5 24.5q-58 0 -96.5 -35t-38.5 -88q0 -39 26.5 -62t74.5 -23h83l-13 -91h-92q-62 0 -100 -27.5t-38 -71.5q0 -30 24.5 -47t72.5 -32q77 -25 102 -43q42 -33 43 -86q0 -120 -157 -192z" />
    <glyph glyph-name="omicron" unicode="&#x3bf;" horiz-adv-x="569" 
d="M249 -10q-96 0 -156 57t-60 151q0 123 84 209.5t205 86.5q96 0 156 -57.5t60 -153.5q0 -122 -84.5 -207.5t-204.5 -85.5zM263 86q68 0 116 54t48 131q0 58 -33 92.5t-86 34.5q-69 0 -116.5 -54t-47.5 -132q0 -57 33.5 -91.5t85.5 -34.5z" />
    <glyph glyph-name="pi" unicode="&#x3c0;" horiz-adv-x="630" 
d="M77 0l55 389h-93l14 95h596l-14 -95h-94l-55 -389h-107l55 389h-194l-56 -389h-107z" />
    <glyph glyph-name="rho" unicode="&#x3c1;" horiz-adv-x="585" 
d="M-4 -148l56 388q16 113 98 183.5t188 70.5q95 0 155 -57.5t60 -153.5q0 -122 -84 -207.5t-204 -85.5q-89 0 -133 62l-29 -200h-107zM279 86q68 0 115.5 53.5t47.5 131.5q0 58 -33 92.5t-86 34.5q-68 0 -115.5 -54.5t-47.5 -132.5q0 -58 33 -91.5t86 -33.5z" />
    <glyph glyph-name="uni03C2" unicode="&#x3c2;" horiz-adv-x="519" 
d="M250 -187l-49 62q40 16 61.5 42t21.5 56q0 9 -2.5 17t-6 14t-11 12.5t-12.5 10.5t-16.5 10.5t-17.5 9.5t-20.5 10t-20.5 10q-25 13 -38.5 20.5t-36 24t-34 32t-21 40t-9.5 52.5q0 107 78.5 182.5t189.5 75.5q82 0 139.5 -40.5t63.5 -110.5l-99 -30q-3 39 -38 62t-81 23
q-60 0 -100.5 -41t-40.5 -102q0 -19 6.5 -34.5t13 -24.5t23.5 -20t23.5 -14.5t27.5 -13.5q82 -38 109 -62q43 -38 43 -87q0 -55 -38 -103.5t-108 -82.5z" />
    <glyph glyph-name="sigma" unicode="&#x3c3;" horiz-adv-x="608" 
d="M248 -10q-95 0 -155 57.5t-60 150.5q0 119 84 202.5t203 83.5h288l-14 -95h-100q43 -50 43 -117q0 -115 -85.5 -198.5t-203.5 -83.5zM263 86q68 0 116 53t48 127q0 57 -34 89t-87 32q-68 0 -115 -51t-47 -125q0 -56 33.5 -90.5t85.5 -34.5z" />
    <glyph glyph-name="tau" unicode="&#x3c4;" horiz-adv-x="458" 
d="M317 -10q-78 0 -122 44t-31 134l32 221h-157l14 95h422l-14 -95h-158l-31 -221q-11 -84 77 -84q32 0 64 12l1 -90q-45 -16 -97 -16z" />
    <glyph glyph-name="upsilon" unicode="&#x3c5;" horiz-adv-x="551" 
d="M243 -10q-94 0 -147.5 55t-40.5 146l42 293h107l-41 -283q-8 -55 19 -84.5t75 -29.5q70 0 100 52.5t30 174.5q0 97 -10 170h107q9 -101 9 -183q0 -311 -250 -311z" />
    <glyph glyph-name="phi" unicode="&#x3c6;" horiz-adv-x="705" 
d="M246 -147l20 138q-91 7 -155 76.5t-64 169.5q0 64 28 130.5t75 116.5h105q-100 -118 -100 -239q0 -65 33.5 -108.5t91.5 -47.5l34 235q12 81 61.5 125.5t125.5 44.5q79 0 128.5 -47.5t49.5 -128.5q0 -122 -92 -220.5t-213 -106.5l-21 -139zM388 88q74 7 128.5 72
t54.5 147q0 43 -21.5 68t-55.5 25q-29 0 -48.5 -21t-24.5 -59z" />
    <glyph glyph-name="chi" unicode="&#x3c7;" horiz-adv-x="533" 
d="M427 -158q-19 0 -36.5 5t-29.5 11t-24 19t-18.5 20.5t-15.5 25t-11.5 23.5t-10 24.5t-7.5 19.5l-35 89l-166 -227h-114l240 324l-56 141q-10 25 -14.5 34.5t-14.5 26t-23.5 22.5t-31.5 6q-12 0 -20 -1l13 87q24 2 33 2q36 0 63 -12t45.5 -37.5t27 -42.5t21.5 -50
q3 -7 4 -10l28 -70l155 212h114l-230 -309l63 -156q1 -2 6.5 -17t8.5 -20.5t10 -18t13.5 -18t16.5 -10.5t22 -5q3 0 17 2l-13 -87q-19 -3 -30 -3z" />
    <glyph glyph-name="psi" unicode="&#x3c8;" horiz-adv-x="744" 
d="M264 -148l20 141q-116 15 -174 97t-40 206l27 188h107l-27 -188q-11 -78 21.5 -133t99.5 -71l56 392h107l-56 -392q72 16 120 70.5t59 133.5l27 188h107l-27 -188q-18 -124 -99.5 -205.5t-200.5 -97.5l-20 -141h-107z" />
    <glyph glyph-name="omega" unicode="&#x3c9;" horiz-adv-x="816" 
d="M216 -10q-77 0 -125 43t-48 124q0 46 21.5 126t42 136t25.5 65h107q-33 -77 -60 -169.5t-27 -137.5q0 -44 21.5 -67t60.5 -23q47 0 77.5 30.5t38.5 83.5l27 183h107l-27 -183q-8 -53 15 -83.5t69 -30.5q64 0 92 53.5t28 176.5q0 95 -10 167h107q9 -86 9 -181
q0 -157 -60.5 -235t-175.5 -78q-106 0 -144 86q-66 -86 -171 -86z" />
    <glyph glyph-name="iotadieresis" unicode="&#x3ca;" horiz-adv-x="233" 
d="M61 582q-26 0 -43.5 18t-17.5 43q0 32 25 57t57 25q26 0 43 -17.5t17 -42.5q0 -32 -25 -57.5t-56 -25.5zM254 582q-26 0 -43.5 18t-17.5 43q0 32 25 57t57 25q26 0 43 -17.5t17 -42.5q0 -32 -25 -57.5t-56 -25.5zM130 -10q-46 0 -74 27t-20 86l54 381h107l-53 -374
q-3 -28 23 -28q5 0 19 3l-13 -90q-18 -5 -43 -5z" />
    <glyph glyph-name="upsilondieresis" unicode="&#x3cb;" horiz-adv-x="551" 
d="M211 582q-26 0 -43.5 18t-17.5 43q0 32 25 57t57 25q26 0 43 -17.5t17 -42.5q0 -32 -25 -57.5t-56 -25.5zM404 582q-26 0 -43.5 18t-17.5 43q0 32 25 57t57 25q26 0 43 -17.5t17 -42.5q0 -32 -25 -57.5t-56 -25.5zM243 -10q-94 0 -147.5 55t-40.5 146l42 293h107
l-41 -283q-8 -55 19 -84.5t75 -29.5q70 0 100 52.5t30 174.5q0 97 -10 170h107q9 -101 9 -183q0 -311 -250 -311z" />
    <glyph glyph-name="omicrontonos" unicode="&#x3cc;" horiz-adv-x="569" 
d="M295 564l84 156h99l-103 -156h-80zM249 -10q-96 0 -156 57t-60 151q0 123 84 209.5t205 86.5q96 0 156 -57.5t60 -153.5q0 -122 -84.5 -207.5t-204.5 -85.5zM263 86q68 0 116 54t48 131q0 58 -33 92.5t-86 34.5q-69 0 -116.5 -54t-47.5 -132q0 -57 33.5 -91.5t85.5 -34.5
z" />
    <glyph glyph-name="upsilontonos" unicode="&#x3cd;" horiz-adv-x="551" 
d="M269 564l84 156h99l-103 -156h-80zM243 -10q-94 0 -147.5 55t-40.5 146l42 293h107l-41 -283q-8 -55 19 -84.5t75 -29.5q70 0 100 52.5t30 174.5q0 97 -10 170h107q9 -101 9 -183q0 -311 -250 -311z" />
    <glyph glyph-name="omegatonos" unicode="&#x3ce;" horiz-adv-x="816" 
d="M420 564l84 156h99l-103 -156h-80zM216 -10q-77 0 -125 43t-48 124q0 46 21.5 126t42 136t25.5 65h107q-33 -77 -60 -169.5t-27 -137.5q0 -44 21.5 -67t60.5 -23q47 0 77.5 30.5t38.5 83.5l27 183h107l-27 -183q-8 -53 15 -83.5t69 -30.5q64 0 92 53.5t28 176.5
q0 95 -10 167h107q9 -86 9 -181q0 -157 -60.5 -235t-175.5 -78q-106 0 -144 86q-66 -86 -171 -86z" />
    <glyph glyph-name="uni0400" unicode="&#x400;" horiz-adv-x="590" 
d="M415 780h-80l-68 156h100zM40 0l101 700h451l-15 -100h-341l-28 -199h329l-15 -100h-329l-28 -201h347l-15 -100h-457z" />
    <glyph glyph-name="uni0401" unicode="&#x401;" horiz-adv-x="590" 
d="M279 798q-26 0 -43.5 18t-17.5 43q0 32 25 57t57 25q26 0 43 -17.5t17 -42.5q0 -32 -25 -57.5t-56 -25.5zM472 798q-26 0 -43.5 18t-17.5 43q0 32 25 57t57 25q26 0 43 -17.5t17 -42.5q0 -32 -25 -57.5t-56 -25.5zM40 0l101 700h451l-15 -100h-341l-28 -199h329l-15 -100
h-329l-28 -201h347l-15 -100h-457z" />
    <glyph glyph-name="uni040D" unicode="&#x40d;" horiz-adv-x="716" 
d="M478 780h-80l-68 156h100zM606 700h103l-101 -700h-110l72 502l-425 -502h-104l101 700h110l-72 -502z" />
    <glyph glyph-name="uni0410" unicode="&#x410;" horiz-adv-x="698" 
d="M478 700l177 -700h-117l-40 167h-318l-88 -167h-117l380 700h123zM234 267h238l-75 308z" />
    <glyph glyph-name="uni0411" unicode="&#x411;" horiz-adv-x="620" 
d="M40 0l101 700h454l-15 -100h-344l-21 -150h159q95 0 150.5 -50t55.5 -135q0 -115 -76.5 -190t-194.5 -75h-269zM165 100h155q66 0 106 41t40 108q0 47 -28.5 74t-81.5 27h-156z" />
    <glyph glyph-name="uni0412" unicode="&#x412;" horiz-adv-x="633" 
d="M40 0l101 700h288q90 0 138.5 -40.5t48.5 -111.5q0 -122 -111 -176q84 -43 84 -136q0 -106 -72 -171t-188 -65h-289zM210 414h166q58 0 91.5 31t33.5 84q0 76 -97 76h-167zM164 95h169q64 0 103 36.5t39 97.5q0 42 -28.5 66t-81.5 24h-169z" />
    <glyph glyph-name="uni0413" unicode="&#x413;" horiz-adv-x="503" 
d="M40 0l101 700h414l-15 -100h-304l-86 -600h-110z" />
    <glyph glyph-name="uni0414" unicode="&#x414;" horiz-adv-x="757" 
d="M-40 -148l36 248h53q93 0 119 120l108 480h449l-86 -600h83l-36 -248h-110l21 148h-506l-21 -148h-110zM224 100h305l71 500h-237l-88 -391q-17 -72 -51 -109z" />
    <glyph glyph-name="uni0415" unicode="&#x415;" horiz-adv-x="590" 
d="M40 0l101 700h451l-15 -100h-341l-28 -199h329l-15 -100h-329l-28 -201h347l-15 -100h-457z" />
    <glyph glyph-name="uni0416" unicode="&#x416;" horiz-adv-x="961" 
d="M-32 0l289 354l-176 346h133l148 -304h86l44 304h110l-44 -304h87l236 304h133l-274 -346l186 -354h-139l-157 296h-87l-42 -296h-110l42 296h-85l-242 -296h-138z" />
    <glyph glyph-name="uni0417" unicode="&#x417;" horiz-adv-x="602" 
d="M224 -10q-88 0 -144 44t-60 122l98 30q1 -47 33 -73.5t83 -26.5q66 0 108.5 38t42.5 97q0 47 -34.5 71.5t-89.5 24.5h-71l13 87h71q65 0 105 32.5t40 85.5q0 44 -33.5 68t-81.5 24t-85.5 -27t-53.5 -73l-90 30q28 78 95.5 122t153.5 44q93 0 149 -46.5t56 -124.5
q0 -125 -114 -180q80 -43 80 -131q0 -101 -78 -169.5t-193 -68.5z" />
    <glyph glyph-name="uni0418" unicode="&#x418;" horiz-adv-x="716" 
d="M606 700h103l-101 -700h-110l72 502l-425 -502h-104l101 700h110l-72 -502z" />
    <glyph glyph-name="uni0419" unicode="&#x419;" horiz-adv-x="716" 
d="M435 773q-67 0 -100 41.5t-24 107.5h78q-5 -36 10.5 -58t46.5 -22q30 0 52.5 22t27.5 58h78q-10 -67 -57 -108t-112 -41zM606 700h103l-101 -700h-110l72 502l-425 -502h-104l101 700h110l-72 -502z" />
    <glyph glyph-name="uni041A" unicode="&#x41a;" horiz-adv-x="610" 
d="M40 0l101 700h110l-44 -304h87l236 304h132l-274 -346l186 -354h-139l-156 296h-87l-42 -296h-110z" />
    <glyph glyph-name="uni041B" unicode="&#x41b;" horiz-adv-x="696" 
d="M-21 -10l16 106h25q85 0 111 114l109 490h449l-101 -700h-110l86 600h-238l-86 -390q-49 -220 -236 -220h-25z" />
    <glyph glyph-name="uni041C" unicode="&#x41c;" horiz-adv-x="872" 
d="M728 700h136l-101 -700h-110l69 480l-271 -480h-97l-135 482l-69 -482h-110l101 700h136l150 -530z" />
    <glyph glyph-name="uni041D" unicode="&#x41d;" horiz-adv-x="688" 
d="M40 0l101 700h110l-43 -300h320l43 300h110l-101 -700h-110l43 300h-320l-43 -300h-110z" />
    <glyph glyph-name="uni041E" unicode="&#x41e;" horiz-adv-x="776" 
d="M353 -10q-134 0 -216.5 82t-82.5 216q0 176 116.5 299t285.5 123q134 0 216.5 -81t82.5 -215q0 -176 -117.5 -300t-284.5 -124zM368 96q113 0 191 87.5t78 214.5q0 93 -54 149.5t-142 56.5q-113 0 -191.5 -87t-78.5 -214q0 -94 54 -150.5t143 -56.5z" />
    <glyph glyph-name="uni041F" unicode="&#x41f;" horiz-adv-x="688" 
d="M40 0l101 700h540l-101 -700h-110l86 600h-320l-86 -600h-110z" />
    <glyph glyph-name="uni0420" unicode="&#x420;" horiz-adv-x="616" 
d="M40 0l101 700h264q99 0 155 -50.5t56 -138.5q0 -119 -78 -195t-199 -76h-154l-35 -240h-110zM200 340h155q66 0 106.5 43t40.5 113q0 49 -29 76.5t-81 27.5h-156z" />
    <glyph glyph-name="uni0421" unicode="&#x421;" horiz-adv-x="730" 
d="M346 -10q-130 0 -211 82t-81 216q0 176 115.5 299t280.5 123q113 0 190.5 -57.5t87.5 -158.5l-112 -33q-6 63 -56 103t-126 40q-110 0 -187 -88t-77 -213q0 -94 53 -150.5t139 -56.5q76 0 137.5 40t86.5 103l101 -33q-40 -101 -134 -158.5t-207 -57.5z" />
    <glyph glyph-name="uni0422" unicode="&#x422;" horiz-adv-x="551" 
d="M186 0l87 600h-208l15 100h525l-15 -100h-207l-87 -600h-110z" />
    <glyph glyph-name="uni0423" unicode="&#x423;" horiz-adv-x="669" 
d="M130 -10q-36 0 -73 11l26 102q29 -9 55 -9t50 16.5t38 34t31 45.5l21 34l-202 476h117l155 -377l262 377h117l-386 -555q-25 -36 -42.5 -57.5t-44.5 -47t-58 -38t-66 -12.5z" />
    <glyph glyph-name="uni0424" unicode="&#x424;" horiz-adv-x="801" 
d="M307 -40l14 87q-122 11 -194.5 80.5t-72.5 176.5q0 138 99.5 236.5t253.5 112.5l13 87h109l-13 -87q123 -12 193.5 -81t70.5 -175q0 -138 -99 -237t-252 -113l-13 -87h-109zM336 154l55 392q-97 -12 -158.5 -74.5t-61.5 -151.5q0 -68 44.5 -112t120.5 -54zM445 154
q98 13 158.5 76.5t60.5 151.5q0 66 -43.5 110t-120.5 54z" />
    <glyph glyph-name="uni0425" unicode="&#x425;" horiz-adv-x="667" 
d="M716 700l-300 -359l190 -341h-125l-147 267l-225 -267h-125l300 353l-193 347h125l150 -272l226 272h124z" />
    <glyph glyph-name="uni0426" unicode="&#x426;" horiz-adv-x="728" 
d="M544 -145l21 145h-525l101 700h110l-86 -600h321l86 600h110l-86 -600h93l-35 -245h-110z" />
    <glyph glyph-name="uni0427" unicode="&#x427;" horiz-adv-x="630" 
d="M514 700h110l-101 -700h-110l42 290q-76 -97 -195 -97q-95 0 -148 63t-38 168l40 276h110l-39 -266q-9 -62 25 -99.5t96 -37.5q65 0 114 46t59 118z" />
    <glyph glyph-name="uni0428" unicode="&#x428;" horiz-adv-x="1119" 
d="M40 0l101 700h110l-86 -600h321l86 600h110l-86 -600h320l86 600h110l-101 -700h-971z" />
    <glyph glyph-name="uni0429" unicode="&#x429;" horiz-adv-x="1158" 
d="M974 -145l20 145h-954l101 700h110l-86 -600h321l86 600h110l-86 -600h320l86 600h110l-86 -600h93l-35 -245h-110z" />
    <glyph glyph-name="uni042A" unicode="&#x42a;" horiz-adv-x="636" 
d="M59 0l87 600h-116l15 100h225l-36 -250h160q95 0 150.5 -49.5t55.5 -135.5q0 -115 -76.5 -190t-194.5 -75h-270zM184 100h156q65 0 105.5 41t40.5 108q0 47 -28.5 74t-82.5 27h-155z" />
    <glyph glyph-name="uni042B" unicode="&#x42b;" horiz-adv-x="876" 
d="M141 700h110l-36 -250h159q95 0 150.5 -50t55.5 -135q0 -115 -76.5 -190t-194.5 -75h-269zM657 0l101 700h110l-101 -700h-110zM200 350l-35 -250h155q66 0 106 41t40 108q0 47 -28.5 74t-81.5 27h-156z" />
    <glyph glyph-name="uni042C" unicode="&#x42c;" horiz-adv-x="616" 
d="M141 700h110l-36 -250h159q95 0 150.5 -50t55.5 -135q0 -115 -76.5 -190t-194.5 -75h-269zM200 350l-35 -250h155q66 0 106 41t40 108q0 47 -28.5 74t-81.5 27h-156z" />
    <glyph glyph-name="uni042D" unicode="&#x42d;" horiz-adv-x="745" 
d="M329 -10q-116 0 -194 60.5t-96 172.5h128q19 -60 65 -93.5t113 -33.5q87 0 157.5 55.5t98.5 148.5h-348l15 100h348q-1 93 -55.5 148.5t-142.5 55.5q-67 0 -122.5 -33t-91.5 -94h-128q50 112 145.5 172.5t211.5 60.5q134 0 217 -81t83 -215q0 -176 -117.5 -300
t-286.5 -124z" />
    <glyph glyph-name="uni042E" unicode="&#x42e;" horiz-adv-x="1034" 
d="M611 -10q-138 0 -221 87t-77 228h-128l-44 -305h-110l101 700h110l-42 -295h129q36 138 143 221.5t242 83.5q134 0 216.5 -81t82.5 -215q0 -176 -117.5 -300t-284.5 -124zM626 96q113 0 191.5 88t78.5 214q0 93 -54 149.5t-143 56.5q-113 0 -191 -87.5t-78 -213.5
q0 -94 54 -150.5t142 -56.5z" />
    <glyph glyph-name="uni042F" unicode="&#x42f;" horiz-adv-x="623" 
d="M515 0h-110l37 260h-122l-196 -260h-119l206 269q-64 17 -99 62.5t-35 111.5q0 112 78 184.5t197 72.5h264zM457 360l34 240h-158q-63 0 -102.5 -39.5t-39.5 -102.5q0 -45 27.5 -71.5t79.5 -26.5h159z" />
    <glyph glyph-name="uni0430" unicode="&#x430;" horiz-adv-x="592" 
d="M455 484h107l-70 -484h-107l10 66q-67 -76 -170 -76q-87 0 -142 57.5t-55 150.5q0 121 80 208.5t191 87.5q103 0 147 -75zM260 84q67 0 114.5 55t47.5 133q0 58 -32 93t-85 35q-69 0 -117.5 -55.5t-48.5 -132.5q0 -58 34 -93t87 -35z" />
    <glyph glyph-name="uni0431" unicode="&#x431;" horiz-adv-x="549" 
d="M237 -10q-91 0 -147.5 51t-56.5 151q0 71 26 148t72.5 146.5t118 124t154.5 76.5l138 36l-13 -95l-109 -30q-86 -23 -145.5 -69t-106.5 -146q65 76 167 76q82 0 131.5 -51.5t49.5 -136.5q0 -120 -80 -200.5t-199 -80.5zM253 86q63 0 107 47.5t44 115.5q0 52 -31.5 83
t-80.5 31q-62 0 -106 -47.5t-44 -115.5q0 -52 31 -83t80 -31z" />
    <glyph glyph-name="uni0432" unicode="&#x432;" horiz-adv-x="530" 
d="M31 0l70 484h255q65 0 98.5 -27t33.5 -76q0 -41 -19.5 -74t-53.5 -47q58 -22 58 -92q0 -78 -50.5 -123t-137.5 -45h-254zM176 299h146q29 0 45.5 17t16.5 46q0 37 -48 37h-145zM146 85h146q37 0 58 21.5t21 58.5q0 48 -61 48h-146z" />
    <glyph glyph-name="uni0433" unicode="&#x433;" horiz-adv-x="409" 
d="M31 0l70 484h336l-15 -95h-229l-55 -389h-107z" />
    <glyph glyph-name="uni0434" unicode="&#x434;" horiz-adv-x="591" 
d="M-41 -148l35 243h47q23 0 44 16.5t28 47.5l76 325h363l-56 -389h60l-35 -243h-107l22 148h-348l-22 -148h-107zM195 95h194l42 294h-160l-52 -235q-10 -45 -24 -59z" />
    <glyph glyph-name="uni0435" unicode="&#x435;" horiz-adv-x="540" 
d="M242 -10q-93 0 -151 56.5t-58 150.5q0 124 81.5 210.5t197.5 86.5q90 0 144.5 -54t54.5 -144q0 -28 -10 -78h-361q-4 -67 27.5 -104.5t86.5 -37.5q43 0 78.5 23t49.5 65l90 -28q-28 -70 -91 -108t-139 -38zM157 300h254q-1 46 -30.5 76.5t-80.5 30.5q-47 0 -84.5 -28
t-58.5 -79z" />
    <glyph glyph-name="uni0436" unicode="&#x436;" horiz-adv-x="777" 
d="M-27 0l193 251l-102 233h111l79 -190h90l28 190h107l-27 -190h90l134 190h111l-170 -233l120 -251h-120l-89 199h-90l-29 -199h-107l29 199h-91l-146 -199h-121z" />
    <glyph glyph-name="uni0437" unicode="&#x437;" horiz-adv-x="456" 
d="M195 -10q-79 0 -128.5 38.5t-55.5 104.5l100 26q3 -34 28.5 -53.5t63.5 -19.5q41 0 69 20t28 49q0 24 -24.5 38.5t-64.5 14.5h-61l12 82h62q43 0 70 16.5t27 42.5q0 22 -21.5 35.5t-53.5 13.5q-38 0 -68 -19t-44 -50l-91 26q25 64 83 101.5t136 37.5q75 0 122.5 -35
t47.5 -89q0 -38 -21 -70.5t-61 -51.5q58 -32 58 -95q0 -68 -62 -115.5t-151 -47.5z" />
    <glyph glyph-name="uni0438" unicode="&#x438;" horiz-adv-x="573" 
d="M31 0l70 484h107l-44 -308l288 308h92l-70 -484h-107l43 308l-287 -308h-92z" />
    <glyph glyph-name="uni0439" unicode="&#x439;" horiz-adv-x="573" 
d="M333 557q-67 0 -100 41.5t-24 107.5h78q-5 -36 10.5 -58t46.5 -22q30 0 52.5 22t27.5 58h78q-10 -67 -57 -108t-112 -41zM31 0l70 484h107l-44 -308l288 308h92l-70 -484h-107l43 308l-287 -308h-92z" />
    <glyph glyph-name="uni043A" unicode="&#x43a;" horiz-adv-x="509" 
d="M31 0l70 484h107l-28 -190h87l139 190h112l-171 -233l120 -251h-120l-93 199h-87l-29 -199h-107z" />
    <glyph glyph-name="uni043B" unicode="&#x43b;" horiz-adv-x="594" 
d="M-28 -10l14 95h25q74 0 93 88l67 311h394l-70 -484h-107l56 389h-186l-48 -219q-19 -87 -73.5 -133.5t-138.5 -46.5h-26z" />
    <glyph glyph-name="uni043C" unicode="&#x43c;" horiz-adv-x="695" 
d="M557 484h108l-70 -484h-107l40 278l-178 -278h-73l-99 281l-40 -281h-107l70 484h109l124 -350z" />
    <glyph glyph-name="uni043D" unicode="&#x43d;" horiz-adv-x="567" 
d="M31 0l70 484h107l-29 -196h222l29 196h107l-70 -484h-107l27 193h-221l-28 -193h-107z" />
    <glyph glyph-name="uni043E" unicode="&#x43e;" horiz-adv-x="569" 
d="M249 -10q-96 0 -156 57t-60 151q0 123 84 209.5t205 86.5q96 0 156 -57.5t60 -153.5q0 -122 -84.5 -207.5t-204.5 -85.5zM263 86q68 0 116 54t48 131q0 58 -33 92.5t-86 34.5q-69 0 -116.5 -54t-47.5 -132q0 -57 33.5 -91.5t85.5 -34.5z" />
    <glyph glyph-name="uni043F" unicode="&#x43f;" horiz-adv-x="567" 
d="M31 0l70 484h436l-70 -484h-107l55 389h-222l-55 -389h-107z" />
    <glyph glyph-name="uni0440" unicode="&#x440;" horiz-adv-x="596" 
d="M367 494q88 0 143 -57.5t55 -150.5q0 -121 -79.5 -208.5t-189.5 -87.5q-103 0 -149 77l-38 -267h-107l99 684h107l-10 -65q67 75 169 75zM289 84q68 0 116.5 55t48.5 133q0 58 -34 93t-86 35q-68 0 -115.5 -55t-47.5 -133q0 -57 32 -92.5t86 -35.5z" />
    <glyph glyph-name="uni0441" unicode="&#x441;" horiz-adv-x="518" 
d="M241 -10q-92 0 -150 57t-58 151q0 122 82.5 209t198.5 87q79 0 133.5 -39.5t60.5 -110.5l-98 -30q-3 38 -32.5 61t-72.5 23q-67 0 -114 -54.5t-47 -131.5q0 -57 32.5 -91.5t84.5 -34.5q43 0 79 23t50 62l90 -30q-27 -72 -93.5 -111.5t-145.5 -39.5z" />
    <glyph glyph-name="uni0442" unicode="&#x442;" horiz-adv-x="442" 
d="M135 0l56 389h-155l14 95h415l-14 -95h-153l-56 -389h-107z" />
    <glyph glyph-name="uni0443" unicode="&#x443;" horiz-adv-x="529" 
d="M448 484h113l-392 -684h-102l117 200l-142 484h114l96 -355z" />
    <glyph glyph-name="uni0444" unicode="&#x444;" horiz-adv-x="651" 
d="M216 -200l28 192q-95 10 -153 65t-58 144q0 115 79 196.5t204 94.5l30 208h93l-30 -209q95 -11 152.5 -67.5t57.5 -144.5q0 -111 -79 -191.5t-203 -94.5l-28 -193h-93zM258 90l43 304q-70 -12 -113.5 -61t-43.5 -117q0 -50 30 -83t84 -43zM352 90q72 15 114 63t42 111
q0 52 -30.5 85.5t-82.5 44.5z" />
    <glyph glyph-name="uni0445" unicode="&#x445;" horiz-adv-x="502" 
d="M526 484l-206 -242l137 -242h-118l-97 171l-147 -171h-118l208 243l-135 241h118l95 -172l145 172h118z" />
    <glyph glyph-name="uni0446" unicode="&#x446;" horiz-adv-x="610" 
d="M434 -145l20 145h-423l70 484h107l-56 -389h221l57 389h107l-57 -389h95l-34 -240h-107z" />
    <glyph glyph-name="uni0447" unicode="&#x447;" horiz-adv-x="532" 
d="M395 484h107l-70 -484h-107l28 190q-57 -65 -147 -65q-81 0 -124.5 48.5t-31.5 136.5l25 174h107l-21 -147q-7 -55 17 -84.5t74 -29.5q47 0 81 34t43 94z" />
    <glyph glyph-name="uni0448" unicode="&#x448;" horiz-adv-x="895" 
d="M31 0l70 484h107l-56 -389h221l57 389h107l-57 -389h223l56 389h107l-70 -484h-765z" />
    <glyph glyph-name="uni0449" unicode="&#x449;" horiz-adv-x="940" 
d="M762 -145l21 145h-752l70 484h107l-56 -389h221l57 389h107l-57 -389h223l56 389h107l-56 -389h94l-35 -240h-107z" />
    <glyph glyph-name="uni044A" unicode="&#x44a;" horiz-adv-x="548" 
d="M50 0l58 399h-95l13 85h201l-19 -135h124q81 0 125.5 -39.5t44.5 -106.5q0 -91 -61 -147t-160 -56h-231zM171 95h127q39 0 65 27t26 66q0 30 -18.5 48t-48.5 18h-128z" />
    <glyph glyph-name="uni044B" unicode="&#x44b;" horiz-adv-x="711" 
d="M31 0l70 484h107l-19 -135h124q81 0 125.5 -39.5t44.5 -106.5q0 -91 -61 -147t-160 -56h-231zM517 0l70 484h107l-70 -484h-107zM152 95h127q38 0 64.5 27t26.5 66q0 29 -18.5 47.5t-48.5 18.5h-128z" />
    <glyph glyph-name="uni044C" unicode="&#x44c;" horiz-adv-x="520" 
d="M31 0l70 484h107l-19 -135h124q81 0 125.5 -39.5t44.5 -106.5q0 -91 -61 -147t-160 -56h-231zM152 95h127q38 0 64.5 27t26.5 66q0 29 -18.5 47.5t-48.5 18.5h-128z" />
    <glyph glyph-name="uni044D" unicode="&#x44d;" horiz-adv-x="554" 
d="M234 -10q-83 0 -140.5 44t-70.5 119h119q28 -72 108 -72q47 0 88 30.5t60 81.5l-233 2l14 94h232q-5 53 -36.5 83t-78.5 30q-82 0 -128 -72h-119q34 76 104 120t154 44q95 0 155.5 -57.5t60.5 -153.5q0 -122 -84.5 -207.5t-204.5 -85.5z" />
    <glyph glyph-name="uni044E" unicode="&#x44e;" horiz-adv-x="783" 
d="M463 -10q-92 0 -152 53.5t-64 141.5h-82l-27 -185h-107l70 484h107l-30 -204h81q27 99 104 156.5t173 57.5t156 -57.5t60 -153.5q0 -122 -84 -207.5t-205 -85.5zM477 86q68 0 116 54t48 131q0 58 -33.5 92.5t-85.5 34.5q-69 0 -116.5 -54t-47.5 -132q0 -57 33 -91.5
t86 -34.5z" />
    <glyph glyph-name="uni044F" unicode="&#x44f;" horiz-adv-x="507" 
d="M-10 0l125 164q-76 35 -76 125q0 86 55.5 140.5t143.5 54.5h240l-70 -484h-102l21 149h-110l-112 -149h-115zM209 244h132l20 145h-132q-37 0 -61.5 -24.5t-24.5 -59.5q0 -28 18 -44.5t48 -16.5z" />
    <glyph glyph-name="uni0450" unicode="&#x450;" horiz-adv-x="540" 
d="M360 564h-80l-68 156h100zM242 -10q-93 0 -151 56.5t-58 150.5q0 124 81.5 210.5t197.5 86.5q90 0 144.5 -54t54.5 -144q0 -28 -10 -78h-361q-4 -67 27.5 -104.5t86.5 -37.5q43 0 78.5 23t49.5 65l90 -28q-28 -70 -91 -108t-139 -38zM157 300h254q-1 46 -30.5 76.5
t-80.5 30.5q-47 0 -84.5 -28t-58.5 -79z" />
    <glyph glyph-name="uni0451" unicode="&#x451;" horiz-adv-x="540" 
d="M224 582q-26 0 -43.5 18t-17.5 43q0 32 25 57t57 25q26 0 43 -17.5t17 -42.5q0 -32 -25 -57.5t-56 -25.5zM417 582q-26 0 -43.5 18t-17.5 43q0 32 25 57t57 25q26 0 43 -17.5t17 -42.5q0 -32 -25 -57.5t-56 -25.5zM242 -10q-93 0 -151 56.5t-58 150.5q0 124 81.5 210.5
t197.5 86.5q90 0 144.5 -54t54.5 -144q0 -28 -10 -78h-361q-4 -67 27.5 -104.5t86.5 -37.5q43 0 78.5 23t49.5 65l90 -28q-28 -70 -91 -108t-139 -38zM157 300h254q-1 46 -30.5 76.5t-80.5 30.5q-47 0 -84.5 -28t-58.5 -79z" />
    <glyph glyph-name="uni045D" unicode="&#x45d;" horiz-adv-x="573" 
d="M376 564h-80l-68 156h100zM31 0l70 484h107l-44 -308l288 308h92l-70 -484h-107l43 308l-287 -308h-92z" />
    <glyph glyph-name="Wgrave" unicode="&#x1e80;" horiz-adv-x="1068" 
d="M654 780h-80l-68 156h100zM996 700h120l-315 -700h-127l-98 542l-252 -542h-127l-113 700h120l82 -553l254 553h120l95 -551z" />
    <glyph glyph-name="wgrave" unicode="&#x1e81;" horiz-adv-x="820" 
d="M499 564h-80l-68 156h100zM729 484h112l-228 -484h-120l-66 350l-168 -350h-120l-87 484h111l62 -367l170 367h102l66 -367z" />
    <glyph glyph-name="Wacute" unicode="&#x1e82;" horiz-adv-x="1068" 
d="M765 936l-113 -156h-80l93 156h100zM996 700h120l-315 -700h-127l-98 542l-252 -542h-127l-113 700h120l82 -553l254 553h120l95 -551z" />
    <glyph glyph-name="wacute" unicode="&#x1e83;" horiz-adv-x="820" 
d="M610 720l-113 -156h-80l93 156h100zM729 484h112l-228 -484h-120l-66 350l-168 -350h-120l-87 484h111l62 -367l170 367h102l66 -367z" />
    <glyph glyph-name="Wdieresis" unicode="&#x1e84;" horiz-adv-x="1068" 
d="M518 798q-26 0 -43.5 18t-17.5 43q0 32 25 57t57 25q26 0 43 -17.5t17 -42.5q0 -32 -25 -57.5t-56 -25.5zM711 798q-26 0 -43.5 18t-17.5 43q0 32 25 57t57 25q26 0 43 -17.5t17 -42.5q0 -32 -25 -57.5t-56 -25.5zM996 700h120l-315 -700h-127l-98 542l-252 -542h-127
l-113 700h120l82 -553l254 553h120l95 -551z" />
    <glyph glyph-name="wdieresis" unicode="&#x1e85;" horiz-adv-x="820" 
d="M363 582q-26 0 -43.5 18t-17.5 43q0 32 25 57t57 25q26 0 43 -17.5t17 -42.5q0 -32 -25 -57.5t-56 -25.5zM556 582q-26 0 -43.5 18t-17.5 43q0 32 25 57t57 25q26 0 43 -17.5t17 -42.5q0 -32 -25 -57.5t-56 -25.5zM729 484h112l-228 -484h-120l-66 350l-168 -350h-120
l-87 484h111l62 -367l170 367h102l66 -367z" />
    <glyph glyph-name="uni1E9E" unicode="&#x1e9e;" horiz-adv-x="626" 
d="M346 -10q-58 0 -95 16l29 93q24 -13 58 -13q55 0 93 41t38 99q0 87 -113 87h-45l14 95l175 196h-141q-56 0 -95.5 -38t-48.5 -101l-67 -465h-110l67 465q15 106 88 170.5t181 64.5h276l-11 -75l-212 -231q76 -13 115 -55.5t39 -107.5q0 -101 -68.5 -171t-166.5 -70z" />
    <glyph glyph-name="Ygrave" unicode="&#x1ef2;" horiz-adv-x="641" 
d="M440 780h-80l-68 156h100zM588 700h119l-329 -453l-36 -247h-110l36 247l-199 453h119l150 -348z" />
    <glyph glyph-name="ygrave" unicode="&#x1ef3;" horiz-adv-x="529" 
d="M354 564h-80l-68 156h100zM448 484h113l-392 -684h-102l117 200l-142 484h114l96 -355z" />
    <glyph glyph-name="endash" unicode="&#x2013;" horiz-adv-x="605" 
d="M65 220l14 93h470l-14 -93h-470z" />
    <glyph glyph-name="emdash" unicode="&#x2014;" horiz-adv-x="935" 
d="M65 220l14 93h800l-14 -93h-800z" />
    <glyph glyph-name="quoteleft" unicode="&#x2018;" horiz-adv-x="287" 
d="M245 710l37 -43q-53 -39 -65 -76q17 -6 27 -20.5t10 -33.5q0 -32 -24.5 -56t-56.5 -24q-26 0 -43.5 16.5t-17.5 44.5q0 84 133 192z" />
    <glyph glyph-name="quoteright" unicode="&#x2019;" horiz-adv-x="287" 
d="M145 457l-37 43q54 41 65 76q-37 13 -37 54q0 32 24 56t56 24q26 0 44 -16.5t18 -44.5q0 -84 -133 -192z" />
    <glyph glyph-name="quotesinglbase" unicode="&#x201a;" horiz-adv-x="287" 
d="M64 -119l-37 43q54 41 65 76q-17 6 -27 20.5t-10 33.5q0 32 24.5 56t55.5 24q26 0 44 -16.5t18 -44.5q0 -84 -133 -192z" />
    <glyph glyph-name="quotedblleft" unicode="&#x201c;" horiz-adv-x="492" 
d="M245 710l37 -43q-53 -39 -65 -76q17 -6 27 -20.5t10 -33.5q0 -32 -24.5 -56t-56.5 -24q-26 0 -43.5 16.5t-17.5 44.5q0 84 133 192zM450 710l37 -43q-32 -25 -45 -40t-20 -36q16 -6 26.5 -21t10.5 -33q0 -32 -24.5 -56t-56.5 -24q-26 0 -43.5 16.5t-17.5 44.5
q0 84 133 192z" />
    <glyph glyph-name="quotedblright" unicode="&#x201d;" horiz-adv-x="488" 
d="M145 457l-37 43q54 41 65 76q-37 13 -37 54q0 32 24 56t56 24q26 0 44 -16.5t18 -44.5q0 -84 -133 -192zM345 457l-36 43q55 44 65 76q-17 6 -27 21t-10 33q0 32 24.5 56t55.5 24q26 0 44 -16.5t18 -44.5q0 -84 -134 -192z" />
    <glyph glyph-name="quotedblbase" unicode="&#x201e;" horiz-adv-x="488" 
d="M64 -124l-37 43q55 44 65 76q-17 6 -27 20.5t-10 33.5q0 31 24.5 55.5t55.5 24.5q26 0 44 -16.5t18 -44.5q0 -84 -133 -192zM264 -124l-36 43q53 37 65 76q-17 6 -27 21t-10 33q0 31 24 55.5t56 24.5q26 0 44 -16.5t18 -44.5q0 -84 -134 -192z" />
    <glyph glyph-name="dagger" unicode="&#x2020;" horiz-adv-x="555" 
d="M553 463l-14 -95h-194l-67 -468h-95l67 468h-196l14 95h196l28 197h95l-28 -197h194z" />
    <glyph glyph-name="daggerdbl" unicode="&#x2021;" horiz-adv-x="585" 
d="M548 376h-186l-27 -192h186l-12 -86h-186l-28 -198h-100l28 198h-187l12 86h187l27 192h-187l12 86h187l28 198h100l-28 -198h186z" />
    <glyph glyph-name="bullet" unicode="&#x2022;" horiz-adv-x="387" 
d="M192 236q-42 0 -69.5 26.5t-27.5 67.5q0 52 39 90.5t91 38.5q42 0 69.5 -27t27.5 -68q0 -51 -39 -89.5t-91 -38.5z" />
    <glyph glyph-name="ellipsis" unicode="&#x2026;" horiz-adv-x="785" 
d="M116 -5q-26 0 -43.5 17t-17.5 42q0 32 24.5 56t56.5 24q26 0 43.5 -17t17.5 -42q0 -31 -24.5 -55.5t-56.5 -24.5zM358 -5q-27 0 -44 17t-17 42q0 32 24.5 56t56.5 24q26 0 43.5 -17t17.5 -42q0 -31 -24.5 -55.5t-56.5 -24.5zM599 -5q-26 0 -43.5 17t-17.5 42q0 32 25 56
t56 24q27 0 44 -17t17 -42q0 -31 -24.5 -55.5t-56.5 -24.5z" />
    <glyph glyph-name="perthousand" unicode="&#x2030;" horiz-adv-x="1312" 
d="M234 353q-69 0 -111 39.5t-42 105.5q0 89 59.5 150.5t144.5 61.5q69 0 111.5 -40.5t42.5 -108.5q0 -88 -59 -148t-146 -60zM130 0l580 700h96l-580 -700h-96zM245 430q44 0 76.5 35t32.5 82q0 37 -22.5 61.5t-56.5 24.5q-43 0 -76 -36t-33 -83q0 -37 22.5 -60.5
t56.5 -23.5zM650 -10q-69 0 -111.5 40t-42.5 106q0 88 59.5 149.5t145.5 61.5q68 0 110 -40t42 -108q0 -88 -58.5 -148.5t-144.5 -60.5zM1060 -10q-69 0 -111.5 40t-42.5 106q0 88 60 149.5t145 61.5q68 0 110 -40t42 -108q0 -88 -58.5 -148.5t-144.5 -60.5zM660 67
q44 0 77 35.5t33 82.5q0 37 -23 61t-57 24q-44 0 -76.5 -35.5t-32.5 -83.5q0 -37 22.5 -60.5t56.5 -23.5zM1071 67q44 0 76.5 35.5t32.5 82.5q0 37 -23 61t-57 24q-44 0 -76.5 -35.5t-32.5 -83.5q0 -37 22.5 -60.5t57.5 -23.5z" />
    <glyph glyph-name="guilsinglleft" unicode="&#x2039;" horiz-adv-x="282" 
d="M286 441l-151 -196l96 -196h-104l-103 196l158 196h104z" />
    <glyph glyph-name="guilsinglright" unicode="&#x203a;" horiz-adv-x="283" 
d="M54 441h104l101 -196l-158 -196h-104l151 196z" />
    <glyph glyph-name="uni203D" unicode="&#x203d;" horiz-adv-x="513" 
d="M191 214l38 325h112l-21 -127q42 14 66 45t24 70t-28 60.5t-74 21.5q-52 0 -90 -27.5t-56 -74.5l-95 34q30 81 99.5 125t155.5 44q94 0 147.5 -44.5t53.5 -116.5q0 -80 -58 -138t-159 -78l-20 -119h-95zM207 -5q-27 0 -44 17t-17 42q0 32 24.5 56t56.5 24q26 0 43.5 -17
t17.5 -42q0 -31 -24.5 -55.5t-56.5 -24.5z" />
    <glyph glyph-name="fraction" unicode="&#x2044;" horiz-adv-x="256" 
d="M-145 0l492 700h87l-492 -700h-87z" />
    <glyph glyph-name="uni2070" unicode="&#x2070;" horiz-adv-x="422" 
d="M215 269q-71 0 -112 47t-41 131q0 123 63.5 206t157.5 83q71 0 112 -47.5t41 -131.5q0 -123 -63.5 -205.5t-157.5 -82.5zM227 346q50 0 85 58.5t35 143.5q0 53 -20 82t-56 29q-50 0 -85 -58.5t-35 -143.5q0 -53 20 -82t56 -29z" />
    <glyph glyph-name="uni2074" unicode="&#x2074;" horiz-adv-x="392" 
d="M240 276l12 89h-222l11 73l265 292h86l-43 -290h57l-10 -75h-57l-13 -89h-86zM128 440h135l25 175z" />
    <glyph glyph-name="uni2075" unicode="&#x2075;" horiz-adv-x="369" 
d="M383 655h-205l-14 -92q32 19 74 19q59 0 97 -36t38 -94q0 -75 -54 -128.5t-130 -53.5q-55 0 -93 28.5t-40 80.5l78 22q1 -25 17.5 -40t43.5 -15q37 0 63.5 29t26.5 69q0 30 -18 48.5t-47 18.5q-55 0 -74 -52l-67 24l35 247h279z" />
    <glyph glyph-name="uni2076" unicode="&#x2076;" horiz-adv-x="363" 
d="M245 585q60 0 95 -36t35 -94q0 -77 -55 -131.5t-134 -54.5q-61 0 -101.5 37t-40.5 96q0 52 32 104l130 223h80l-86 -154q25 10 45 10zM197 345q37 0 63.5 28.5t26.5 68.5q0 30 -18.5 49t-48.5 19q-35 0 -61 -29t-26 -68q0 -30 18.5 -49t45.5 -19z" />
    <glyph glyph-name="uni2077" unicode="&#x2077;" horiz-adv-x="329" 
d="M53 276l216 375h-198l11 79h308l-7 -52l-232 -402h-98z" />
    <glyph glyph-name="uni2078" unicode="&#x2078;" horiz-adv-x="381" 
d="M194 269q-66 0 -105 33t-39 83q0 82 80 123q-43 28 -43 77q0 64 50.5 107.5t124.5 43.5q63 0 100 -32t37 -81q0 -77 -72 -115q50 -28 50 -85q0 -65 -53 -109.5t-130 -44.5zM234 543q32 0 53.5 19t21.5 48q0 23 -16 36.5t-43 13.5q-31 0 -53 -19.5t-22 -48.5
q0 -22 16 -35.5t43 -13.5zM205 346q37 0 61 21.5t24 53.5q0 24 -18 39t-49 15q-36 0 -59.5 -21.5t-23.5 -53.5q0 -25 18 -39.5t47 -14.5z" />
    <glyph glyph-name="uni2079" unicode="&#x2079;" horiz-adv-x="364" 
d="M254 736q62 0 102 -37t40 -96q0 -51 -31 -104l-131 -223h-79l87 154q-25 -10 -47 -10q-60 0 -95 37t-35 94q0 76 55.5 130.5t133.5 54.5zM219 495q36 0 62.5 28.5t26.5 68.5q0 30 -18.5 49t-47.5 19q-36 0 -62.5 -28.5t-26.5 -67.5q0 -31 19 -50t47 -19z" />
    <glyph glyph-name="uni2080" unicode="&#x2080;" horiz-adv-x="422" 
d="M172 -36q-71 0 -112 47t-41 131q0 123 63.5 206t157.5 83q71 0 112 -47.5t41 -131.5q0 -123 -63.5 -205.5t-157.5 -82.5zM184 41q50 0 85 58.5t35 143.5q0 52 -20 81.5t-56 29.5q-50 0 -85 -58.5t-35 -143.5q0 -53 20 -82t56 -29z" />
    <glyph glyph-name="uni2081" unicode="&#x2081;" horiz-adv-x="244" 
d="M67 -30l52 364q-47 -20 -94 -20l11 75q54 0 110 35h74l-65 -454h-88z" />
    <glyph glyph-name="uni2082" unicode="&#x2082;" horiz-adv-x="349" 
d="M-24 -30l7 52l130 116q82 73 103 101q25 34 25 62q0 23 -15.5 38t-41.5 15q-59 0 -79 -59l-71 23q18 54 63.5 83t100.5 29q60 0 97 -30t37 -78q0 -29 -11.5 -57t-36.5 -57t-37.5 -41.5t-40.5 -37.5l-93 -84h182l-10 -75h-309z" />
    <glyph glyph-name="uni2083" unicode="&#x2083;" horiz-adv-x="360" 
d="M132 -36q-59 0 -97 29.5t-40 82.5l78 23q1 -28 18.5 -43.5t47.5 -15.5q37 0 61.5 22t24.5 54q0 25 -20 39t-51 14h-43l11 68h42q35 0 58.5 18.5t23.5 46.5q0 25 -19.5 38.5t-46.5 13.5q-26 0 -48 -16t-30 -43l-72 23q18 54 64 83t104 29q62 0 99 -31.5t37 -82.5
q0 -76 -68 -114q46 -29 46 -82q0 -66 -52 -111t-128 -45z" />
    <glyph glyph-name="uni2084" unicode="&#x2084;" horiz-adv-x="392" 
d="M197 -30l12 89h-222l11 73l265 292h86l-43 -290h57l-10 -75h-57l-13 -89h-86zM85 134h135l25 174z" />
    <glyph glyph-name="uni2085" unicode="&#x2085;" horiz-adv-x="367" 
d="M339 349h-205l-14 -93q34 20 75 20q58 0 96 -36t38 -95q0 -75 -54 -128t-130 -53q-54 0 -92.5 28.5t-40.5 79.5l78 22q1 -24 17.5 -39t44.5 -15q37 0 63 28.5t26 68.5q0 30 -18 48.5t-47 18.5q-55 0 -74 -51l-67 23l35 248h279z" />
    <glyph glyph-name="uni2086" unicode="&#x2086;" horiz-adv-x="364" 
d="M202 280q60 0 95 -36.5t35 -94.5q0 -77 -55 -131t-134 -54q-61 0 -101.5 36.5t-40.5 95.5q0 51 32 104l130 224h84l-85 -152q22 8 40 8zM154 40q37 0 63.5 28t26.5 68q0 30 -19 49t-48 19q-35 0 -61 -28.5t-26 -68.5q0 -30 18.5 -48.5t45.5 -18.5z" />
    <glyph glyph-name="uni2087" unicode="&#x2087;" horiz-adv-x="330" 
d="M10 -30l216 375h-198l11 79h308l-7 -53l-232 -401h-98z" />
    <glyph glyph-name="uni2088" unicode="&#x2088;" horiz-adv-x="382" 
d="M152 -36q-67 0 -106 32.5t-39 82.5q0 82 80 123q-43 28 -43 77q0 64 50.5 107.5t124.5 43.5q64 0 100.5 -31.5t36.5 -80.5q0 -78 -72 -116q50 -28 50 -85q0 -64 -52.5 -108.5t-129.5 -44.5zM191 237q32 0 53.5 19t21.5 48q0 23 -16 36.5t-43 13.5q-31 0 -53 -19.5
t-22 -48.5q0 -22 16 -35.5t43 -13.5zM162 40q37 0 61 21.5t24 53.5q0 24 -18 39t-49 15q-36 0 -59.5 -21.5t-23.5 -53.5q0 -25 18 -39.5t47 -14.5z" />
    <glyph glyph-name="uni2089" unicode="&#x2089;" horiz-adv-x="364" 
d="M211 430q62 0 102 -37t40 -96q0 -51 -31 -104l-131 -223h-84l86 152q-22 -8 -41 -8q-60 0 -95 37t-35 94q0 76 55.5 130.5t133.5 54.5zM176 189q36 0 62.5 28.5t26.5 68.5q0 30 -18.5 49t-47.5 19q-36 0 -62.5 -28.5t-26.5 -67.5q0 -31 19 -50t47 -19z" />
    <glyph glyph-name="colonmonetary" unicode="&#x20a1;" horiz-adv-x="756" 
d="M629 461q-1 21 -10 43l-188 -403q57 12 102 48.5t66 89.5l101 -33q-38 -98 -126 -155.5t-195 -60.5l-42 -90h-87l45 97q-31 5 -68 21l-55 -118h-87l75 161q-93 82 -93 226q0 176 114.5 298t280.5 125l33 70h87l-36 -78q36 -8 67 -24l47 102h87l-69 -148q54 -56 63 -138z
M183 303q0 -70 33 -122l195 419q-99 -17 -163.5 -100t-64.5 -197zM276 123q30 -18 67 -24l220 473q-30 21 -65 28z" />
    <glyph glyph-name="franc" unicode="&#x20a3;" horiz-adv-x="647" 
d="M106 0l15 109h-97l13 90h97l73 501h451l-15 -100h-342l-30 -210h321l-15 -100h-321l-13 -91h97l-13 -90h-97l-15 -109h-109z" />
    <glyph glyph-name="lira" unicode="&#x20a4;" horiz-adv-x="622" 
d="M311 228q-6 -81 -57 -133h282l-14 -95h-473l14 95h29q48 0 79.5 37t33.5 96h-123l12 90h98q-18 57 -21 68h-66l13 90h36v9q0 99 72.5 162t187.5 63q79 0 136 -37t69 -109l-100 -43q-6 42 -36 65t-78 23q-65 0 -103 -35t-39 -98h264l-13 -90h-234l9.5 -28.5t12.5 -39.5
h201l-12 -90h-180z" />
    <glyph glyph-name="uni20A6" unicode="&#x20a6;" horiz-adv-x="839" 
d="M107 0l35 246h-87l8 55h87l13 97h-86l8 55h87l35 247h152l90 -247h182l35 247h99l-35 -247h87l-8 -55h-87l-13 -97h87l-9 -55h-86l-36 -246h-152l-90 246h-181l-35 -246h-100zM273 453h75l-54 151zM250 301h154l-36 97h-104zM504 301h105l13 97h-152zM579 95l22 151h-76z
" />
    <glyph glyph-name="peseta" unicode="&#x20a7;" horiz-adv-x="741" 
d="M94 0l61 426h-80l13 90h81l26 184h264q98 0 153.5 -49.5t57.5 -134.5h70l-13 -90h-70q-26 -86 -96 -135.5t-168 -49.5h-155l-34 -241h-110zM279 516h276q-6 40 -34.5 62t-75.5 22h-155zM253 340h156q46 0 81 23t51 63h-276z" />
    <glyph glyph-name="uni20A8" unicode="&#x20a8;" horiz-adv-x="1080" 
d="M40 0l101 700h264q99 0 155.5 -50t56.5 -133q0 -91 -54 -159t-141 -89l128 -269h-119l-122 260h-122l-37 -260h-110zM202 360h158q64 0 103.5 39.5t39.5 102.5q0 45 -28 71.5t-80 26.5h-159zM820 -10q-76 0 -125.5 35.5t-54.5 97.5l94 26q4 -34 29 -53t66 -19q42 0 69 20
t27 50q0 23 -20 33t-61 17q-31 5 -47.5 8.5t-44.5 13.5t-43 22t-27 33t-12 48q0 75 58.5 123.5t149.5 48.5q72 0 119 -33t53 -99l-95 -26q-3 36 -28.5 54t-61.5 18q-37 0 -60 -19.5t-23 -48.5q0 -23 17 -33t53 -16l22 -3q22 -4 27.5 -5.5t26 -6t28.5 -8.5t24.5 -11.5t24 -16
t17 -19.5t13 -25t3.5 -31q0 -75 -62.5 -125t-155.5 -50z" />
    <glyph glyph-name="uni20A9" unicode="&#x20a9;" horiz-adv-x="863" 
d="M169 0l-3 246h-99l8 55h91l-1 97h-76l8 55h68l-3 247h100l-1 -247h109l74 247h109l3 -247h110l69 247h99l-73 -247h68l-8 -55h-76l-28 -97h91l-9 -55h-99l-72 -246h-135l-4 246h-112l-74 -246h-134zM440 453h47l-3 149zM261 301h64l28 97h-93zM394 301h95l-2 97h-64z
M558 301h64l28 97h-94zM259 81l49 165h-48zM560 81l47 165h-49z" />
    <glyph glyph-name="uni20AA" unicode="&#x20aa;" horiz-adv-x="827" 
d="M73 0l101 700h245q90 0 138 -50.5t36 -132.5l-50 -353h-110l50 353q5 36 -17 58.5t-62 22.5h-135l-86 -598h-110zM441 0q-90 0 -138 50.5t-36 132.5l51 353h110l-51 -353q-5 -36 17 -58.5t62 -22.5h135l86 598h110l-101 -700h-245z" />
    <glyph glyph-name="dong" unicode="&#x20ab;" horiz-adv-x="671" 
d="M249 -10q-87 0 -142 57.5t-55 150.5q0 121 80 208.5t191 87.5q103 0 147 -77l21 140h-170l13 89h170l7 54h107l-7 -54h70l-13 -89h-70l-81 -557h-107l10 67q-68 -77 -171 -77zM284 84q68 0 115.5 55t47.5 133q0 57 -32.5 92.5t-85.5 35.5q-68 0 -117 -55t-49 -132
q0 -58 34 -93.5t87 -35.5zM56 -161l12 90h439l-13 -90h-438z" />
    <glyph glyph-name="Euro" unicode="&#x20ac;" horiz-adv-x="682" 
d="M459 -10q-120 0 -199.5 64.5t-96.5 173.5h-105l13 90h89q0 13 3 34q6 34 6 35h-88l13 90h105q50 108 146.5 170.5t213.5 62.5q53 0 97 -15l-16 -113q-44 22 -95 22q-68 0 -126.5 -34t-94.5 -93h289l-13 -90h-315q-3 -12 -7 -36q-1 -8 -2 -19.5t-1 -13.5h316l-13 -90h-292
q18 -60 67.5 -96t120.5 -36q51 0 99 21l-16 -113q-50 -14 -98 -14z" />
    <glyph glyph-name="uni2113" unicode="&#x2113;" horiz-adv-x="566" 
d="M305 -7q-106 0 -157 124q-94 -43 -125 -50l-25 94q76 24 124 48q-7 49 -7 98q0 167 67 283.5t164 116.5q64 0 107 -53.5t43 -135.5q0 -58 -23 -113t-62.5 -100t-83 -79.5t-94.5 -64.5q27 -71 81 -71q34 0 56.5 27.5t29.5 66.5l96 -12q-13 -78 -68 -128.5t-123 -50.5z
M217 261q83 55 134.5 123t51.5 141q0 37 -15 61t-40 24q-46 0 -85 -77t-47 -182q-3 -49 1 -90z" />
    <glyph glyph-name="uni2116" unicode="&#x2116;" horiz-adv-x="1286" 
d="M997 206q-97 0 -157 57t-60 151q0 123 84.5 209.5t204.5 86.5q96 0 156 -57.5t60 -153.5q0 -122 -84 -207.5t-204 -85.5zM527 197l71 503h110l-101 -700h-103l-282 503l-72 -503h-110l101 700h104zM1055 614q-69 0 -116.5 -54.5t-47.5 -131.5q0 -57 33.5 -91.5
t85.5 -34.5q68 0 116 54t48 131q0 58 -33.5 92.5t-85.5 34.5zM738 0l13 93h459l-14 -93h-458z" />
    <glyph glyph-name="uni2117" unicode="&#x2117;" horiz-adv-x="812" 
d="M371 -10q-136 0 -220 82t-84 216q0 176 119 299t289 123q135 0 219 -82t84 -216q0 -176 -118.5 -299t-288.5 -123zM379 49q140 0 238 103t98 251q0 112 -69 180t-180 68q-140 0 -237.5 -103t-97.5 -251q0 -112 69 -180t179 -68zM281 175l51 350h134q50 0 78.5 -25.5
t28.5 -68.5q0 -63 -39 -100.5t-104 -37.5h-67l-16 -118h-66zM372 353h70q28 0 46 19t18 48q0 21 -13 33t-36 12h-69z" />
    <glyph glyph-name="trademark" unicode="&#x2122;" horiz-adv-x="821" 
d="M152 350l41 284h-94l10 66h261l-10 -66h-93l-41 -284h-74zM363 350l51 350h89l61 -251l133 251h90l-50 -350h-75l34 233l-122 -233h-49l-54 233l-34 -233h-74z" />
    <glyph glyph-name="uni2126" unicode="&#x2126;" horiz-adv-x="839" 
d="M31 0l14 95h127q-84 71 -84 203q0 171 117 291.5t282 120.5q134 0 216.5 -80.5t82.5 -212.5q0 -99 -42.5 -185t-116.5 -137h127l-14 -95h-328l14 95q98 0 170 90.5t72 212.5q0 94 -53.5 150t-142.5 56q-113 0 -190.5 -88t-77.5 -217q0 -91 46.5 -147.5t121.5 -56.5
l-14 -95h-327z" />
    <glyph glyph-name="estimated" unicode="&#x212e;" horiz-adv-x="834" 
d="M441 -10q-162 0 -265 103t-103 253q0 153 106 258.5t266 105.5q158 0 262 -104.5t104 -255.5v-9h-592q-4 0 -4 -6l-2 -195q0 -11 10 -23q87 -105 219 -105q74 0 126.5 29t103.5 88h56q-57 -69 -123 -104t-164 -35zM220 360h444q4 0 4 6l1 196q0 15 -9 24
q-49 53 -95.5 77.5t-120.5 24.5q-129 0 -217 -105q-11 -12 -11 -24l-1 -193q0 -6 5 -6z" />
    <glyph glyph-name="oneeighth" unicode="&#x215b;" horiz-adv-x="881" 
d="M106 246l52 364q-51 -20 -94 -20l12 76q54 0 109 34h74l-65 -454h-88zM98 0l492 700h87l-492 -700h-87zM655 -6q-67 0 -106 32.5t-39 82.5q0 82 80 123q-43 28 -43 77q0 64 50.5 107.5t124.5 43.5q64 0 100.5 -31.5t36.5 -80.5q0 -78 -72 -116q50 -28 50 -85
q0 -64 -52.5 -108.5t-129.5 -44.5zM694 267q32 0 53.5 19t21.5 48q0 23 -16 36.5t-43 13.5q-31 0 -53 -19.5t-22 -48.5q0 -22 16 -35.5t43 -13.5zM665 70q37 0 61 21.5t24 53.5q0 24 -18 39t-49 15q-36 0 -59.5 -21.5t-23.5 -53.5q0 -25 18 -39.5t47 -14.5z" />
    <glyph glyph-name="threeeighths" unicode="&#x215c;" horiz-adv-x="998" 
d="M171 239q-60 0 -97.5 29.5t-39.5 83.5l78 22q1 -28 19 -43t47 -15q37 0 61.5 22t24.5 54q0 25 -20 39t-51 14h-43l11 68h42q36 0 59 18t23 46q0 25 -19.5 39t-46.5 14q-26 0 -48 -16t-30 -43l-72 22q18 54 64 83.5t104 29.5q62 0 99 -31.5t37 -82.5q0 -76 -68 -114
q46 -29 46 -82q0 -66 -52 -111.5t-128 -45.5zM215 0l492 700h87l-492 -700h-87zM772 -6q-67 0 -106 32.5t-39 82.5q0 82 80 123q-43 28 -43 77q0 64 50.5 107.5t124.5 43.5q64 0 100.5 -31.5t36.5 -80.5q0 -78 -72 -116q50 -28 50 -85q0 -64 -52.5 -108.5t-129.5 -44.5z
M811 267q32 0 53.5 19t21.5 48q0 23 -16 36.5t-43 13.5q-31 0 -53 -19.5t-22 -48.5q0 -22 16 -35.5t43 -13.5zM782 70q37 0 61 21.5t24 53.5q0 24 -18 39t-49 15q-36 0 -59.5 -21.5t-23.5 -53.5q0 -25 18 -39.5t47 -14.5z" />
    <glyph glyph-name="fiveeighths" unicode="&#x215d;" horiz-adv-x="1007" 
d="M369 422q0 -75 -54 -128.5t-130 -53.5q-55 0 -93 28.5t-40 80.5l78 22q1 -25 17.5 -40t43.5 -15q37 0 63.5 29t26.5 69q0 30 -18 48.5t-47 18.5q-55 0 -74 -52l-67 24l35 247h279l-10 -75h-205l-14 -92q32 19 74 19q59 0 97 -36t38 -94zM716 700h87l-492 -700h-87z
M913 232q50 -28 50 -85q0 -64 -52.5 -108.5t-129.5 -44.5q-67 0 -106 32.5t-39 82.5q0 82 80 123q-43 28 -43 77q0 64 50.5 107.5t124.5 43.5q64 0 100.5 -31.5t36.5 -80.5q0 -78 -72 -116zM820 267q32 0 53.5 19t21.5 48q0 23 -16 36.5t-43 13.5q-31 0 -53 -19.5t-22 -48.5
q0 -22 16 -35.5t43 -13.5zM791 70q37 0 61 21.5t24 53.5q0 24 -18 39t-49 15q-36 0 -59.5 -21.5t-23.5 -53.5q0 -25 18 -39.5t47 -14.5z" />
    <glyph glyph-name="seveneighths" unicode="&#x215e;" horiz-adv-x="938" 
d="M49 246l216 375h-198l11 79h308l-7 -52l-232 -402h-98zM155 0l492 700h87l-492 -700h-87zM712 -6q-67 0 -106 32.5t-39 82.5q0 82 80 123q-43 28 -43 77q0 64 50.5 107.5t124.5 43.5q64 0 100.5 -31.5t36.5 -80.5q0 -78 -72 -116q50 -28 50 -85q0 -64 -52.5 -108.5
t-129.5 -44.5zM751 267q32 0 53.5 19t21.5 48q0 23 -16 36.5t-43 13.5q-31 0 -53 -19.5t-22 -48.5q0 -22 16 -35.5t43 -13.5zM722 70q37 0 61 21.5t24 53.5q0 24 -18 39t-49 15q-36 0 -59.5 -21.5t-23.5 -53.5q0 -25 18 -39.5t47 -14.5z" />
    <glyph glyph-name="arrowleft" unicode="&#x2190;" horiz-adv-x="727" 
d="M724 402l-13 -92l-504 -1l176 -212l-71 -61l-256 320l349 321l51 -61l-238 -214h506z" />
    <glyph glyph-name="arrowup" unicode="&#x2191;" horiz-adv-x="674" 
d="M668 369l-70 -61l-172 211l-76 -519h-92l75 520l-236 -212l-51 61l357 312z" />
    <glyph glyph-name="arrowright" unicode="&#x2192;" horiz-adv-x="727" 
d="M462 677l256 -321l-348 -320l-52 61l237 212l-505 1l14 92h505l-176 214z" />
    <glyph glyph-name="arrowdown" unicode="&#x2193;" horiz-adv-x="674" 
d="M627 352l51 -61l-357 -312l-265 312l70 61l173 -210l76 518h91l-75 -520z" />
    <glyph glyph-name="arrowboth" unicode="&#x2194;" horiz-adv-x="989" 
d="M976 329l-348 -321l-52 61l234 214h-605l174 -214l-71 -61l-256 321l349 320l51 -61l-233 -212h605l-175 212l72 61z" />
    <glyph glyph-name="arrowupdn" unicode="&#x2195;" horiz-adv-x="683" 
d="M289 -130l-267 311l70 62l175 -213l90 630l-236 -213l-51 61l356 312l266 -312l-70 -61l-173 213l-90 -630l234 213l51 -62z" />
    <glyph glyph-name="uni2196" unicode="&#x2196;" horiz-adv-x="638" 
d="M527 121l-74 -66l-315 374l-43 -302l-80 1l65 447h434l-12 -81h-290z" />
    <glyph glyph-name="uni2197" unicode="&#x2197;" horiz-adv-x="639" 
d="M158 575h434l-64 -447l-79 -1l43 301l-423 -373l-55 66l423 373h-291z" />
    <glyph glyph-name="uni2198" unicode="&#x2198;" horiz-adv-x="637" 
d="M573 552l79 -1l-64 -447h-434l11 81h290l-315 373l74 66l316 -374z" />
    <glyph glyph-name="uni2199" unicode="&#x2199;" horiz-adv-x="639" 
d="M655 558l-422 -373h290l-12 -81h-434l65 447l80 1l-44 -302l423 374z" />
    <glyph glyph-name="partialdiff" unicode="&#x2202;" horiz-adv-x="609" 
d="M242 -10q-91 0 -146 50.5t-55 136.5q0 113 72.5 190t179.5 77q99 0 160 -69q22 239 -143 239q-47 0 -99 -17l13 97q59 16 113 16q112 0 171.5 -67.5t59.5 -196.5q0 -202 -90.5 -329t-235.5 -127zM255 82q69 0 117 55.5t69 148.5q-54 74 -141 74q-66 0 -109.5 -48
t-43.5 -120q0 -51 29 -80.5t79 -29.5z" />
    <glyph glyph-name="uni2206" unicode="&#x2206;" horiz-adv-x="638" 
d="M-18 0l15 100l327 600h123l156 -600l-15 -100h-606zM112 100h376l-121 477z" />
    <glyph glyph-name="product" unicode="&#x220f;" horiz-adv-x="715" 
d="M52 -103l115 803h514l-115 -803h-109l100 703h-295l-101 -703h-109z" />
    <glyph glyph-name="summation" unicode="&#x2211;" horiz-adv-x="578" 
d="M6 -80l15 100l229 290l-147 290l15 100h480l-15 -100h-344l143 -290l-225 -290h343l-14 -100h-480z" />
    <glyph glyph-name="minus" unicode="&#x2212;" horiz-adv-x="655" 
d="M574 370l-14 -94h-453l14 94h453z" />
    <glyph glyph-name="uni2215" unicode="&#x2215;" horiz-adv-x="256" 
d="M-145 0l492 700h87l-492 -700h-87z" />
    <glyph glyph-name="uni2219" unicode="&#x2219;" horiz-adv-x="302" 
d="M143 186q-26 0 -43.5 17t-17.5 42q0 32 24.5 56t56.5 24q26 0 43.5 -17t17.5 -42q0 -31 -24.5 -55.5t-56.5 -24.5z" />
    <glyph glyph-name="radical" unicode="&#x221a;" horiz-adv-x="722" 
d="M664 780h110l-408 -780h-139l-81 349h-96l14 93h171l76 -346z" />
    <glyph glyph-name="infinity" unicode="&#x221e;" horiz-adv-x="828" 
d="M222 129q-64 0 -104.5 36.5t-40.5 97.5q0 79 56.5 135t136.5 56q51 0 88 -26t72 -82q53 57 96.5 83.5t95.5 26.5q63 0 104 -38.5t41 -100.5q0 -78 -55.5 -132.5t-136.5 -54.5q-51 0 -88 24.5t-73 77.5q-53 -54 -97.5 -78.5t-94.5 -24.5zM588 219q36 0 61 24t25 59
q0 27 -18 43.5t-46 16.5q-55 0 -123 -73q48 -70 101 -70zM235 217q52 0 123 71q-49 73 -102 73q-36 0 -60.5 -24.5t-24.5 -59.5q0 -27 18 -43.5t46 -16.5z" />
    <glyph glyph-name="integral" unicode="&#x222b;" horiz-adv-x="499" 
d="M79 -135q-53 0 -101 16l13 87q42 -15 79 -15q87 0 100 91l71 494q12 82 65.5 127t129.5 45q52 0 100 -15l-12 -88q-42 15 -80 15q-86 0 -99 -91l-71 -494q-12 -82 -65.5 -127t-129.5 -45z" />
    <glyph glyph-name="approxequal" unicode="&#x2248;" horiz-adv-x="661" 
d="M461 350q-44 0 -114.5 29.5t-112.5 29.5q-73 0 -129 -49l15 95q62 50 134 50q44 0 112.5 -30t111.5 -30q69 0 130 51l-14 -97q-62 -49 -133 -49zM429 126q-44 0 -114.5 29.5t-113.5 29.5q-72 0 -128 -49l14 95q63 50 134 50q44 0 113 -30t112 -30q69 0 130 51l-15 -97
q-60 -49 -132 -49z" />
    <glyph glyph-name="notequal" unicode="&#x2260;" horiz-adv-x="592" 
d="M545 388h-153l-81 -138h213l-12 -88h-253l-71 -122h-85l71 122h-115l13 88h154l81 138h-215l13 88h253l72 123h85l-72 -123h114z" />
    <glyph glyph-name="lessequal" unicode="&#x2264;" horiz-adv-x="592" 
d="M579 658l-17 -112l-416 -147l375 -147l-16 -111l-430 189l14 92l7 47zM28 0l13 84h456l-13 -84h-456z" />
    <glyph glyph-name="greaterequal" unicode="&#x2265;" horiz-adv-x="591" 
d="M561 469l-13 -92h-1l-7 -47l-482 -189l16 111l416 147l-375 147l17 112zM37 0l13 84h456l-13 -84h-456z" />
    <glyph glyph-name="uni22B2" unicode="&#x22b2;" horiz-adv-x="690" 
d="M148 -23l5 618l517 -309z" />
    <glyph glyph-name="uni22B3" unicode="&#x22b3;" horiz-adv-x="689" 
d="M550 -23l-516 309l522 309z" />
    <glyph glyph-name="filledbox" unicode="&#x25a0;" horiz-adv-x="833" 
d="M144 0l5 572h554l-5 -572h-554z" />
    <glyph glyph-name="triagup" unicode="&#x25b2;" horiz-adv-x="654" 
d="M-3 30l304 535l296 -536z" />
    <glyph glyph-name="triagdn" unicode="&#x25bc;" horiz-adv-x="654" 
d="M362 -25l-295 535h600z" />
    <glyph glyph-name="lozenge" unicode="&#x25ca;" horiz-adv-x="583" 
d="M416 700l151 -350l-252 -350h-115l-151 350l252 350h115zM269 75l190 275l-112 275l-188 -275z" />
    <glyph glyph-name="uni25CF" unicode="&#x25cf;" horiz-adv-x="696" 
d="M643 290q0 -124 -85 -212t-205 -88q-119 0 -202.5 86t-83.5 208q0 124 85.5 212t205.5 88q118 0 201.5 -86t83.5 -208z" />
    <glyph glyph-name="uni2605" unicode="&#x2605;" horiz-adv-x="784" 
d="M533 250l85 -275l-227 170l-228 -170l89 275l-226 171h281l89 276l85 -276h281z" />
    <glyph glyph-name="uni2610" unicode="&#x2610;" horiz-adv-x="833" 
d="M144 0l5 572h554l-5 -572h-554zM660 532h-470l-4 -492h470z" />
    <glyph glyph-name="uni2611" unicode="&#x2611;" horiz-adv-x="833" 
d="M144 0l5 572h554l-5 -572h-554zM664 532h-478l-5 -497h479zM564 462l31 -24l-224 -312l-114 125l29 28l82 -91z" />
    <glyph glyph-name="diamond" unicode="&#x2666;" horiz-adv-x="546" 
d="M277 35l-240 250l245 251l241 -251z" />
    <glyph glyph-name="uni2713" unicode="&#x2713;" horiz-adv-x="664" 
d="M641 626l48 -36l-410 -571l-243 275l45 40l193 -221z" />
    <glyph glyph-name="uniF6DD" unicode="&#xf6dd;" horiz-adv-x="1219" 
d="M617 517q0 -91 -54 -159t-141 -89l128 -269h-119l-122 260h-122l-37 -260h-110l101 700h264q99 0 155.5 -50t56.5 -133zM360 360q64 0 103.5 39.5t39.5 102.5q0 45 -28 71.5t-80 26.5h-159l-34 -240h158zM990 494q88 0 143 -57.5t55 -150.5q0 -121 -79.5 -208.5
t-189.5 -87.5q-103 0 -149 77l-38 -267h-107l99 684h107l-10 -65q67 75 169 75zM912 84q68 0 116.5 55t48.5 133q0 58 -34 93t-86 35q-68 0 -115.5 -55t-47.5 -133q0 -57 32 -92.5t86 -35.5z" />
    <glyph glyph-name="uniF8FF" unicode="&#xf8ff;" horiz-adv-x="972" 
d="M482 324l3 306h53l-1 -177l78 97h63l-72 -87l82 -139h-62l-54 98l-36 -42v-56h-54zM109 324l1 184h-45v42h28q18 0 18 19v37h53l-1 -56h58v-42h-58l-1 -141h58l-1 -43h-110zM342 320q-43 0 -69 26t-26 69v43q1 43 27.5 69.5t69.5 26.5q42 0 68.5 -27t26.5 -69v-43
q-1 -42 -28 -68.5t-69 -26.5zM796 320q-42 0 -68 26t-26 69v43q1 43 27.5 69.5t68.5 26.5q43 0 69.5 -26.5t26.5 -69.5v-43q-1 -43 -28 -69t-70 -26zM343 362q19 0 30 12.5t11 33.5v58q0 21 -11.5 33t-29.5 12q-19 0 -30 -12.5t-11 -32.5v-58q0 -21 11 -33.5t30 -12.5z
M798 362q19 0 30 12.5t11 33.5v58q0 21 -11.5 33t-29.5 12q-19 0 -30 -12.5t-11 -32.5v-58q0 -21 11 -33.5t30 -12.5zM106 0l2 185h-46v41h28q18 0 18 19v37h53l-1 -56h59l-1 -41h-58l-1 -141h58v-44h-111zM502 -80l3 306h47v-26q20 30 62 30q37 0 60.5 -25t23.5 -67v-51
q-1 -41 -24.5 -65t-61.5 -24t-57 21l-1 -99h-52zM832 -2q-42 0 -68.5 26.5t-26.5 70.5v38q1 44 28 70.5t69 26.5q43 0 69 -26.5t26 -70.5v-32h-138v-17q0 -21 11.5 -33t31.5 -12q35 0 42 33h52q-3 -34 -30 -54t-66 -20zM275 -80v42h52v60l-85 204h58l54 -149l59 149h58
l-90 -204l-1 -102h-105zM600 40q19 0 31 12t12 34v56q1 21 -11 33.5t-33 12.5q-18 0 -30.5 -12.5t-12.5 -33.5v-56q0 -21 12 -33.5t32 -12.5zM791 141h84v2q0 21 -11 33t-31 12q-19 0 -30.5 -12.5t-11.5 -32.5v-2z" />
    <glyph glyph-name="i.loclTRK" horiz-adv-x="253" 
d="M175 574q-29 0 -47 19t-18 47q0 36 26.5 63t61.5 27q29 0 48 -19t19 -47q0 -35 -27 -62.5t-63 -27.5zM39 0l70 484h107l-70 -484h-107z" />
    <glyph glyph-name="germandbls.calt" horiz-adv-x="626" 
d="M346 -10q-58 0 -95 16l29 93q24 -13 58 -13q55 0 93 41t38 99q0 87 -113 87h-45l14 95l175 196h-141q-56 0 -95.5 -38t-48.5 -101l-67 -465h-110l67 465q15 106 88 170.5t181 64.5h276l-11 -75l-212 -231q76 -13 115 -55.5t39 -107.5q0 -101 -68.5 -171t-166.5 -70z" />
    <glyph glyph-name="a.ss01" horiz-adv-x="524" 
d="M457 82q5 0 20 3l-14 -90q-17 -5 -42 -5q-77 0 -96 62q-60 -62 -158 -62q-67 0 -107.5 32t-40.5 89q0 68 48 115t131 56l162 17v9q0 48 -23.5 74t-65.5 26q-35 0 -63.5 -19t-41.5 -54l-93 17q25 72 84.5 107t132.5 35q91 0 138 -48t35 -136l-28 -200q-3 -28 22 -28z
M212 72q51 4 85.5 36.5t42.5 88.5l3 21l-135 -16q-37 -4 -59.5 -25.5t-22.5 -50.5t24.5 -42.5t61.5 -11.5z" />
    <glyph glyph-name="aacute.ss01" horiz-adv-x="524" 
d="M462 720l-113 -156h-80l93 156h100zM457 82q5 0 20 3l-14 -90q-17 -5 -42 -5q-77 0 -96 62q-60 -62 -158 -62q-67 0 -107.5 32t-40.5 89q0 68 48 115t131 56l162 17v9q0 48 -23.5 74t-65.5 26q-35 0 -63.5 -19t-41.5 -54l-93 17q25 72 84.5 107t132.5 35q91 0 138 -48
t35 -136l-28 -200q-3 -28 22 -28zM212 72q51 4 85.5 36.5t42.5 88.5l3 21l-135 -16q-37 -4 -59.5 -25.5t-22.5 -50.5t24.5 -42.5t61.5 -11.5z" />
    <glyph glyph-name="abreve.ss01" horiz-adv-x="524" 
d="M308 557q-67 0 -100 41.5t-24 107.5h78q-5 -36 10.5 -58t46.5 -22q30 0 52.5 22t27.5 58h78q-10 -67 -57 -108t-112 -41zM435 110q-3 -28 22 -28q5 0 20 3l-14 -90q-17 -5 -42 -5q-77 0 -96 62q-60 -62 -158 -62q-67 0 -107.5 32t-40.5 89q0 68 48 115t131 56l162 17v9
q0 48 -23.5 74t-65.5 26q-35 0 -63.5 -19t-41.5 -54l-93 17q25 72 84.5 107t132.5 35q91 0 138 -48t35 -136zM212 72q51 4 85.5 36.5t42.5 88.5l3 21l-135 -16q-37 -4 -59.5 -25.5t-22.5 -50.5t24.5 -42.5t61.5 -11.5z" />
    <glyph glyph-name="acircumflex.ss01" horiz-adv-x="524" 
d="M323 670l-88 -106h-90l136 156h99l92 -156h-90zM457 82q5 0 20 3l-14 -90q-17 -5 -42 -5q-77 0 -96 62q-60 -62 -158 -62q-67 0 -107.5 32t-40.5 89q0 68 48 115t131 56l162 17v9q0 48 -23.5 74t-65.5 26q-35 0 -63.5 -19t-41.5 -54l-93 17q25 72 84.5 107t132.5 35
q91 0 138 -48t35 -136l-28 -200q-3 -28 22 -28zM212 72q51 4 85.5 36.5t42.5 88.5l3 21l-135 -16q-37 -4 -59.5 -25.5t-22.5 -50.5t24.5 -42.5t61.5 -11.5z" />
    <glyph glyph-name="adieresis.ss01" horiz-adv-x="524" 
d="M215 582q-26 0 -43.5 18t-17.5 43q0 32 25 57t57 25q26 0 43 -17.5t17 -42.5q0 -32 -25 -57.5t-56 -25.5zM408 582q-26 0 -43.5 18t-17.5 43q0 32 25 57t57 25q26 0 43 -17.5t17 -42.5q0 -32 -25 -57.5t-56 -25.5zM435 110q-3 -28 22 -28q5 0 20 3l-14 -90q-17 -5 -42 -5
q-77 0 -96 62q-60 -62 -158 -62q-67 0 -107.5 32t-40.5 89q0 68 48 115t131 56l162 17v9q0 48 -23.5 74t-65.5 26q-35 0 -63.5 -19t-41.5 -54l-93 17q25 72 84.5 107t132.5 35q91 0 138 -48t35 -136zM212 72q51 4 85.5 36.5t42.5 88.5l3 21l-135 -16q-37 -4 -59.5 -25.5
t-22.5 -50.5t24.5 -42.5t61.5 -11.5z" />
    <glyph glyph-name="agrave.ss01" horiz-adv-x="524" 
d="M351 564h-80l-68 156h100zM457 82q5 0 20 3l-14 -90q-17 -5 -42 -5q-77 0 -96 62q-60 -62 -158 -62q-67 0 -107.5 32t-40.5 89q0 68 48 115t131 56l162 17v9q0 48 -23.5 74t-65.5 26q-35 0 -63.5 -19t-41.5 -54l-93 17q25 72 84.5 107t132.5 35q91 0 138 -48t35 -136
l-28 -200q-3 -28 22 -28zM212 72q51 4 85.5 36.5t42.5 88.5l3 21l-135 -16q-37 -4 -59.5 -25.5t-22.5 -50.5t24.5 -42.5t61.5 -11.5z" />
    <glyph glyph-name="amacron.ss01" horiz-adv-x="524" 
d="M474 643l-11 -78h-309l12 78h308zM457 82q5 0 20 3l-14 -90q-17 -5 -42 -5q-77 0 -96 62q-60 -62 -158 -62q-67 0 -107.5 32t-40.5 89q0 68 48 115t131 56l162 17v9q0 48 -23.5 74t-65.5 26q-35 0 -63.5 -19t-41.5 -54l-93 17q25 72 84.5 107t132.5 35q91 0 138 -48
t35 -136l-28 -200q-3 -28 22 -28zM212 72q51 4 85.5 36.5t42.5 88.5l3 21l-135 -16q-37 -4 -59.5 -25.5t-22.5 -50.5t24.5 -42.5t61.5 -11.5z" />
    <glyph glyph-name="aogonek.ss01" horiz-adv-x="524" 
d="M369 -143q47 0 83 32l24 -54q-60 -46 -128 -46q-44 0 -74.5 22t-30.5 62q0 42 31 77t86 56q-25 16 -35 46q-60 -62 -158 -62q-67 0 -107.5 32t-40.5 89q0 68 48 115t131 56l162 17v9q0 48 -23.5 74t-65.5 26q-35 0 -63.5 -19t-41.5 -54l-93 17q25 72 84.5 107t132.5 35
q91 0 138 -48t35 -136l-28 -200q-3 -28 22 -28q5 0 20 3l-14 -90q-17 -5 -42 -5h-11q-90 -36 -90 -92q0 -19 13 -30t36 -11zM212 72q51 4 85.5 36.5t42.5 88.5l3 21l-135 -16q-37 -4 -59.5 -25.5t-22.5 -50.5t24.5 -42.5t61.5 -11.5z" />
    <glyph glyph-name="aring.ss01" horiz-adv-x="524" 
d="M306 542q-40 0 -66 26t-26 63q0 48 36.5 83.5t86.5 35.5q41 0 67 -25.5t26 -62.5q0 -48 -37 -84t-87 -36zM328 688q-19 0 -33 -14.5t-14 -34.5q0 -16 9.5 -25.5t24.5 -9.5q20 0 34 14.5t14 34.5q0 15 -10 25t-25 10zM457 82q5 0 20 3l-14 -90q-17 -5 -42 -5q-77 0 -96 62
q-60 -62 -158 -62q-67 0 -107.5 32t-40.5 89q0 68 48 115t131 56l162 17v9q0 48 -23.5 74t-65.5 26q-35 0 -63.5 -19t-41.5 -54l-93 17q25 72 84.5 107t132.5 35q91 0 138 -48t35 -136l-28 -200q-3 -28 22 -28zM212 72q51 4 85.5 36.5t42.5 88.5l3 21l-135 -16
q-37 -4 -59.5 -25.5t-22.5 -50.5t24.5 -42.5t61.5 -11.5z" />
    <glyph glyph-name="aringacute.ss01" horiz-adv-x="524" 
d="M452 866l-73 -86h-79l54 86h98zM306 542q-40 0 -66 26t-26 63q0 48 36.5 83.5t86.5 35.5q41 0 67 -25.5t26 -62.5q0 -48 -37 -84t-87 -36zM328 688q-19 0 -33 -14.5t-14 -34.5q0 -16 9.5 -25.5t24.5 -9.5q20 0 34 14.5t14 34.5q0 15 -10 25t-25 10zM457 82q5 0 20 3
l-14 -90q-17 -5 -42 -5q-77 0 -96 62q-60 -62 -158 -62q-67 0 -107.5 32t-40.5 89q0 68 48 115t131 56l162 17v9q0 48 -23.5 74t-65.5 26q-35 0 -63.5 -19t-41.5 -54l-93 17q25 72 84.5 107t132.5 35q91 0 138 -48t35 -136l-28 -200q-3 -28 22 -28zM212 72q51 4 85.5 36.5
t42.5 88.5l3 21l-135 -16q-37 -4 -59.5 -25.5t-22.5 -50.5t24.5 -42.5t61.5 -11.5z" />
    <glyph glyph-name="atilde.ss01" horiz-adv-x="524" 
d="M246 612q-35 0 -50 -39h-66q9 49 44 77.5t79 28.5q37 0 76.5 -22.5t59.5 -22.5q36 0 49 39h66q-9 -48 -44 -77t-78 -29q-37 0 -76.5 22.5t-59.5 22.5zM435 110q-3 -28 22 -28q5 0 20 3l-14 -90q-17 -5 -42 -5q-77 0 -96 62q-60 -62 -158 -62q-67 0 -107.5 32t-40.5 89
q0 68 48 115t131 56l162 17v9q0 48 -23.5 74t-65.5 26q-35 0 -63.5 -19t-41.5 -54l-93 17q25 72 84.5 107t132.5 35q91 0 138 -48t35 -136zM212 72q51 4 85.5 36.5t42.5 88.5l3 21l-135 -16q-37 -4 -59.5 -25.5t-22.5 -50.5t24.5 -42.5t61.5 -11.5z" />
    <glyph glyph-name="k.ss02" horiz-adv-x="508" 
d="M31 0l101 700h107l-59 -406h87l139 190h112l-171 -233l120 -251h-120l-93 199h-87l-29 -199h-107z" />
    <glyph glyph-name="kcommaaccent.ss02" horiz-adv-x="508" 
d="M31 0l101 700h107l-59 -406h87l139 190h112l-171 -233l120 -251h-120l-93 199h-87l-29 -199h-107zM84 -210l93 155h100l-113 -155h-80z" />
    <glyph glyph-name="t.ss03" horiz-adv-x="328" 
d="M76 0l57 392h-93l14 92h93l19 140h107l-19 -140h92l-14 -92h-92l-57 -392h-107z" />
    <glyph glyph-name="tbar.ss03" horiz-adv-x="328" 
d="M77 0l33 231h-93l14 92h92l10 69h-92l13 92h92l21 140h107l-21 -140h93l-13 -92h-93l-10 -69h93l-14 -92h-92l-33 -231h-107z" />
    <glyph glyph-name="tcaron.ss03" horiz-adv-x="328" 
d="M180 704l-90 156h90l58 -106l89 106h90l-138 -156h-99zM76 0l57 392h-93l14 92h93l19 140h107l-19 -140h92l-14 -92h-92l-57 -392h-107z" />
    <glyph glyph-name="uni0163.ss03" horiz-adv-x="328" 
d="M332 392h-92l-57 -390q62 -35 62 -93q0 -50 -38.5 -83.5t-96.5 -33.5q-68 0 -114 46l40 54q27 -32 75 -32q27 0 44.5 16t17.5 41q0 52 -83 83h-14l57 392h-93l14 92h93l19 140h107l-19 -140h92z" />
    <glyph glyph-name="uni021B.ss03" horiz-adv-x="328" 
d="M76 0l57 392h-93l14 92h93l19 140h107l-19 -140h92l-14 -92h-92l-57 -392h-107zM-3 -210l93 155h100l-113 -155h-80z" />
    <glyph glyph-name="longs_t" horiz-adv-x="805" 
d="M76 0l56 392h-92l14 92h92l7 49q12 86 69.5 131.5t134.5 45.5q59 0 108 -17l-27 -85q-37 14 -74 14q-46 0 -72.5 -26t-32.5 -70l-76 -526h-107zM662 -10q-77 0 -121 44t-31 134l32 224h-93l14 92h68q29 27 44 140h107l-19 -140h154l-14 -92h-154l-32 -224q-11 -84 78 -84
q29 0 64 12v-90q-45 -16 -97 -16z" />
    <glyph glyph-name="zero.tf" horiz-adv-x="583" 
d="M257 -10q-99 0 -156.5 71.5t-57.5 198.5q0 191 91.5 320.5t225.5 129.5q99 0 156.5 -72t57.5 -198q0 -191 -91.5 -320.5t-225.5 -129.5zM271 88q81 0 138 100t57 241q0 86 -32 135t-89 49q-80 0 -136.5 -100t-56.5 -243q0 -86 31.5 -134t87.5 -48z" />
    <glyph glyph-name="one.tf" horiz-adv-x="582" 
d="M7 0l14 95h195l70 491q-77 -34 -166 -34l15 96q92 0 182 52h95l-87 -605h195l-14 -95h-499z" />
    <glyph glyph-name="two.tf" horiz-adv-x="582" 
d="M4 0l10 69l207 178q11 9 38 32t38 32.5t33.5 30t33 31.5t27 29t24.5 30.5t17 28.5t12.5 30.5t3.5 28.5q0 41 -31 67.5t-82 26.5t-91.5 -26.5t-56.5 -73.5l-90 30q28 79 99 122.5t159 43.5q92 0 149 -45.5t57 -119.5q0 -43 -19 -86t-59 -87t-67 -69t-76 -67l-165 -141h328
l-14 -95h-485z" />
    <glyph glyph-name="three.tf" horiz-adv-x="582" 
d="M241 -10q-93 0 -150.5 44t-62.5 122l99 30q1 -47 35 -73.5t88 -26.5q69 0 114 38t45 96q0 47 -37 72t-94 25h-75l13 87h75q68 0 109.5 32t41.5 85q0 45 -35.5 69t-85.5 24q-51 0 -91 -27t-56 -73l-91 30q29 78 98.5 122t158.5 44q95 0 154 -47t59 -126q0 -124 -118 -178
q84 -44 84 -132q0 -100 -80.5 -168.5t-197.5 -68.5z" />
    <glyph glyph-name="four.tf" horiz-adv-x="582" 
d="M328 0l21 145h-346l14 90l415 465h104l-67 -460h93l-14 -95h-92l-21 -145h-107zM134 240h228l44 306z" />
    <glyph glyph-name="five.tf" horiz-adv-x="582" 
d="M256 -10q-84 0 -141.5 43.5t-62.5 117.5l98 30q3 -44 35.5 -69.5t79.5 -25.5q68 0 115.5 50.5t47.5 121.5q0 54 -33 87t-86 33q-47 0 -83.5 -23.5t-52.5 -64.5l-86 28l56 382h430l-15 -95h-336l-25 -179q58 48 132 48q94 0 151.5 -55t57.5 -146q0 -119 -81.5 -201
t-200.5 -82z" />
    <glyph glyph-name="six.tf" horiz-adv-x="583" 
d="M348 473q88 0 143.5 -56.5t55.5 -145.5q0 -116 -85.5 -198.5t-205.5 -82.5q-95 0 -157 56.5t-62 146.5q0 76 50 159l204 348h109l-138 -243q42 16 86 16zM271 86q67 0 115.5 50t48.5 119q0 55 -34.5 89t-87.5 34q-68 0 -116.5 -50t-48.5 -120q0 -55 35 -88.5t88 -33.5z
" />
    <glyph glyph-name="seven.tf" horiz-adv-x="582" 
d="M85 0l372 600h-365l15 100h501l-10 -68l-388 -632h-125z" />
    <glyph glyph-name="eight.tf" horiz-adv-x="583" 
d="M255 -10q-98 0 -156.5 48.5t-58.5 125.5q0 63 34.5 115t96.5 80q-71 42 -71 123q0 97 74.5 162.5t184.5 65.5q95 0 148.5 -46.5t53.5 -121.5q0 -60 -30.5 -108.5t-83.5 -74.5q40 -20 61.5 -56t21.5 -80q0 -99 -79.5 -166t-195.5 -67zM315 404q57 0 96 34t39 85
q0 41 -29 66t-75 25q-58 0 -96.5 -35.5t-38.5 -87.5q0 -40 28.5 -63.5t75.5 -23.5zM270 86q64 0 107.5 38.5t43.5 94.5q0 45 -33 71.5t-85 26.5q-65 0 -108 -38t-43 -95q0 -45 32.5 -71.5t85.5 -26.5z" />
    <glyph glyph-name="nine.tf" horiz-adv-x="582" 
d="M358 710q96 0 158.5 -56t62.5 -146q0 -80 -48 -160l-207 -348h-109l139 243q-42 -16 -86 -16q-87 0 -143 57t-56 145q0 116 85 198.5t204 82.5zM303 322q67 0 115.5 50.5t48.5 119.5q0 54 -35 88t-87 34q-67 0 -116 -50.5t-49 -118.5q0 -55 35 -89t88 -34z" />
    <glyph glyph-name="zero.dnom" horiz-adv-x="422" 
d="M176 -6q-71 0 -112 47t-41 131q0 123 63.5 206t157.5 83q71 0 112 -47.5t41 -131.5q0 -123 -63.5 -205.5t-157.5 -82.5zM188 71q50 0 85 58.5t35 143.5q0 52 -20 81.5t-56 29.5q-50 0 -85 -58.5t-35 -143.5q0 -53 20 -82t56 -29z" />
    <glyph glyph-name="one.dnom" horiz-adv-x="244" 
d="M71 0l52 364q-47 -20 -94 -20l11 75q54 0 110 35h74l-65 -454h-88z" />
    <glyph glyph-name="two.dnom" horiz-adv-x="349" 
d="M-20 0l7 52l130 116q82 73 103 101q25 34 25 62q0 23 -15.5 38t-41.5 15q-59 0 -79 -59l-71 23q18 54 63.5 83t100.5 29q60 0 97 -30t37 -78q0 -29 -11.5 -57t-36.5 -57t-37.5 -41.5t-40.5 -37.5l-93 -84h182l-10 -75h-309z" />
    <glyph glyph-name="three.dnom" horiz-adv-x="360" 
d="M136 -6q-59 0 -97 29.5t-40 82.5l78 23q1 -28 18.5 -43.5t47.5 -15.5q37 0 61.5 22t24.5 54q0 25 -20 39t-51 14h-43l11 68h42q35 0 58.5 18.5t23.5 46.5q0 25 -19.5 38.5t-46.5 13.5q-26 0 -48 -16t-30 -43l-72 23q18 54 64 83t104 29q62 0 99 -31.5t37 -82.5
q0 -76 -68 -114q46 -29 46 -82q0 -66 -52 -111t-128 -45z" />
    <glyph glyph-name="four.dnom" horiz-adv-x="392" 
d="M201 0l12 89h-222l11 73l265 292h86l-43 -290h57l-10 -75h-57l-13 -89h-86zM89 164h135l25 174z" />
    <glyph glyph-name="five.dnom" horiz-adv-x="367" 
d="M343 379h-205l-14 -93q34 20 75 20q58 0 96 -36t38 -95q0 -75 -54 -128t-130 -53q-54 0 -92.5 28.5t-40.5 79.5l78 22q1 -24 17.5 -39t44.5 -15q37 0 63 28.5t26 68.5q0 30 -18 48.5t-47 18.5q-55 0 -74 -51l-67 23l35 248h279z" />
    <glyph glyph-name="six.dnom" horiz-adv-x="364" 
d="M206 310q60 0 95 -36.5t35 -94.5q0 -77 -55 -131t-134 -54q-61 0 -101.5 36.5t-40.5 95.5q0 51 32 104l130 224h84l-85 -152q22 8 40 8zM158 70q37 0 63.5 28t26.5 68q0 30 -19 49t-48 19q-35 0 -61 -28.5t-26 -68.5q0 -30 18.5 -48.5t45.5 -18.5z" />
    <glyph glyph-name="seven.dnom" horiz-adv-x="330" 
d="M14 0l216 375h-198l11 79h308l-7 -53l-232 -401h-98z" />
    <glyph glyph-name="eight.dnom" horiz-adv-x="382" 
d="M156 -6q-67 0 -106 32.5t-39 82.5q0 82 80 123q-43 28 -43 77q0 64 50.5 107.5t124.5 43.5q64 0 100.5 -31.5t36.5 -80.5q0 -78 -72 -116q50 -28 50 -85q0 -64 -52.5 -108.5t-129.5 -44.5zM195 267q32 0 53.5 19t21.5 48q0 23 -16 36.5t-43 13.5q-31 0 -53 -19.5
t-22 -48.5q0 -22 16 -35.5t43 -13.5zM166 70q37 0 61 21.5t24 53.5q0 24 -18 39t-49 15q-36 0 -59.5 -21.5t-23.5 -53.5q0 -25 18 -39.5t47 -14.5z" />
    <glyph glyph-name="nine.dnom" horiz-adv-x="364" 
d="M215 460q62 0 102 -37t40 -96q0 -51 -31 -104l-131 -223h-84l86 152q-22 -8 -41 -8q-60 0 -95 37t-35 94q0 76 55.5 130.5t133.5 54.5zM180 219q36 0 62.5 28.5t26.5 68.5q0 30 -18.5 49t-47.5 19q-36 0 -62.5 -28.5t-26.5 -67.5q0 -31 19 -50t47 -19z" />
    <glyph glyph-name="zero.numr" horiz-adv-x="422" 
d="M211 239q-71 0 -112 47t-41 131q0 123 63.5 206t157.5 83q71 0 112 -47.5t41 -131.5q0 -123 -63.5 -205.5t-157.5 -82.5zM223 316q50 0 85 58.5t35 143.5q0 53 -20 82t-56 29q-50 0 -85 -58.5t-35 -143.5q0 -53 20 -82t56 -29z" />
    <glyph glyph-name="one.numr" horiz-adv-x="243" 
d="M106 246l52 364q-51 -20 -94 -20l12 76q54 0 109 34h74l-65 -454h-88z" />
    <glyph glyph-name="two.numr" horiz-adv-x="350" 
d="M16 246l7 52l129 115q37 34 50 46t37.5 37.5t33 44t8.5 36.5q0 23 -15.5 38t-41.5 15q-59 0 -79 -59l-71 22q18 55 63.5 84t100.5 29q60 0 97 -30t37 -78q0 -29 -11.5 -57t-36.5 -57t-37.5 -41.5t-40.5 -37.5l-93 -84h182l-10 -75h-309z" />
    <glyph glyph-name="three.numr" horiz-adv-x="360" 
d="M171 239q-60 0 -97.5 29.5t-39.5 83.5l78 22q1 -28 19 -43t47 -15q37 0 61.5 22t24.5 54q0 25 -20 39t-51 14h-43l11 68h42q36 0 59 18t23 46q0 25 -19.5 39t-46.5 14q-26 0 -48 -16t-30 -43l-72 22q18 54 64 83.5t104 29.5q62 0 99 -31.5t37 -82.5q0 -76 -68 -114
q46 -29 46 -82q0 -66 -52 -111.5t-128 -45.5z" />
    <glyph glyph-name="four.numr" horiz-adv-x="392" 
d="M236 246l12 89h-222l11 73l265 292h86l-43 -290h57l-10 -75h-57l-13 -89h-86zM124 410h135l25 175z" />
    <glyph glyph-name="five.numr" horiz-adv-x="369" 
d="M379 625h-205l-14 -92q32 19 74 19q59 0 97 -36t38 -94q0 -75 -54 -128.5t-130 -53.5q-55 0 -93 28.5t-40 80.5l78 22q1 -25 17.5 -40t43.5 -15q37 0 63.5 29t26.5 69q0 30 -18 48.5t-47 18.5q-55 0 -74 -52l-67 24l35 247h279z" />
    <glyph glyph-name="six.numr" horiz-adv-x="363" 
d="M241 556q60 0 95 -36t35 -94q0 -77 -55 -131.5t-134 -54.5q-61 0 -101.5 37t-40.5 96q0 52 32 104l130 223h80l-86 -154q25 10 45 10zM193 316q37 0 63.5 28.5t26.5 68.5q0 31 -18.5 49.5t-48.5 18.5q-35 0 -61 -29t-26 -68q0 -30 18.5 -49t45.5 -19z" />
    <glyph glyph-name="seven.numr" horiz-adv-x="329" 
d="M49 246l216 375h-198l11 79h308l-7 -52l-232 -402h-98z" />
    <glyph glyph-name="eight.numr" horiz-adv-x="381" 
d="M190 239q-66 0 -105 33t-39 83q0 82 80 123q-43 28 -43 77q0 64 50.5 107.5t124.5 43.5q63 0 100 -32t37 -81q0 -77 -72 -115q50 -28 50 -85q0 -65 -53 -109.5t-130 -44.5zM230 513q32 0 53.5 19t21.5 48q0 23 -16 36.5t-43 13.5q-31 0 -53 -19.5t-22 -48.5
q0 -22 16 -35.5t43 -13.5zM201 316q37 0 61 21.5t24 53.5q0 24 -18 39t-49 15q-36 0 -59.5 -21.5t-23.5 -53.5q0 -25 18 -39.5t47 -14.5z" />
    <glyph glyph-name="nine.numr" horiz-adv-x="364" 
d="M250 706q62 0 102 -37t40 -96q0 -51 -31 -104l-131 -223h-79l87 154q-25 -10 -47 -10q-60 0 -95 37t-35 94q0 76 55.5 130.5t133.5 54.5zM215 465q36 0 62.5 28.5t26.5 68.5q0 30 -18.5 49t-47.5 19q-36 0 -62.5 -28.5t-26.5 -67.5q0 -31 19 -50t47 -19z" />
    <glyph glyph-name="periodcentered.case" horiz-adv-x="302" 
d="M157 288q-26 0 -43.5 17t-17.5 42q0 32 24.5 56t56.5 24q26 0 43.5 -17t17.5 -42q0 -31 -24.5 -55.5t-56.5 -24.5z" />
    <glyph glyph-name="exclamdown.case" horiz-adv-x="295" 
d="M208 665q26 0 43.5 -17t17.5 -42q0 -32 -25 -56t-57 -24q-25 0 -43 17t-18 42q0 31 25 55.5t57 24.5zM225 446l-61 -486h-114l78 486h97z" />
    <glyph glyph-name="questiondown.case" horiz-adv-x="513" 
d="M331 668q27 0 44 -17t17 -42q0 -32 -24.5 -56t-56.5 -24q-26 0 -43.5 17t-17.5 42q0 31 24.5 55.5t56.5 24.5zM349 449l-27 -187h-28q-74 0 -119.5 -35t-45.5 -91q0 -39 28 -60.5t73 -21.5q107 0 145 102l96 -34q-30 -81 -99.5 -125t-154.5 -44q-95 0 -148.5 44.5
t-53.5 116.5q0 82 59.5 139.5t159.5 77.5l17 118h98z" />
    <glyph glyph-name="braceleft.case" horiz-adv-x="348" 
d="M236 -56q-86 0 -125.5 41.5t-28.5 114.5l21 145q5 36 -17 56t-63 20l12 77q40 0 67.5 19.5t33.5 56.5l22 144q11 75 62.5 116t134.5 41h48l-13 -93h-48q-31 0 -52 -19t-25 -53l-19 -136q-11 -76 -88 -114q65 -41 55 -115l-19 -137q-9 -71 56 -71h48l-14 -93h-48z" />
    <glyph glyph-name="braceright.case" horiz-adv-x="349" 
d="M28 -56h-48l14 93h48q31 0 51.5 18.5t24.5 52.5l19 137q10 74 89 115q-33 21 -47.5 47t-8.5 67l19 136q9 72 -55 72h-48l14 93h47q84 0 124.5 -41t29.5 -116l-21 -144q-5 -36 17 -56t63 -20l-10 -77q-42 0 -70 -20t-33 -56l-20 -145q-10 -75 -62 -115.5t-137 -40.5z" />
    <glyph glyph-name="bracketleft.case" horiz-adv-x="362" 
d="M39 -57l120 832h257l-14 -93h-148l-92 -645h148l-13 -94h-258z" />
    <glyph glyph-name="bracketright.case" horiz-adv-x="362" 
d="M258 -57h-258l14 94h148l92 645h-148l14 93h257z" />
    <glyph glyph-name="parenleft.case" horiz-adv-x="301" 
d="M153 -83q-104 131 -104 325q0 156 61.5 300t167.5 241l84 -40q-97 -98 -150.5 -226t-53.5 -261q0 -173 91 -299z" />
    <glyph glyph-name="parenright.case" horiz-adv-x="301" 
d="M73 -83l-84 40q96 97 150 225t54 262q0 174 -91 299l97 40q103 -131 103 -325q0 -155 -60 -297.5t-169 -243.5z" />
    <glyph glyph-name="emdash.case" horiz-adv-x="935" 
d="M74 283l14 93h800l-14 -93h-800z" />
    <glyph glyph-name="endash.case" horiz-adv-x="605" 
d="M74 283l14 93h470l-14 -93h-470z" />
    <glyph glyph-name="hyphen.case" horiz-adv-x="418" 
d="M74 283l14 93h283l-14 -93h-283z" />
    <glyph glyph-name="guillemotleft.case" horiz-adv-x="494" 
d="M278 499l-151 -196l96 -196h-104l-103 196l158 196h104zM489 499l-152 -196l96 -196h-104l-102 196l158 196h104z" />
    <glyph glyph-name="guillemotright.case" horiz-adv-x="492" 
d="M94 499h104l101 -196l-158 -196h-104l151 196zM304 499h104l102 -196l-158 -196h-104l151 196z" />
    <glyph glyph-name="guilsinglleft.case" horiz-adv-x="283" 
d="M296 499l-151 -196l96 -196h-104l-103 196l158 196h104z" />
    <glyph glyph-name="guilsinglright.case" horiz-adv-x="281" 
d="M76 499h104l101 -196l-158 -196h-104l151 196z" />
    <glyph glyph-name="at.case" horiz-adv-x="917" 
d="M363 -99q-144 0 -235.5 91.5t-91.5 246.5q0 215 142 366t345 151q153 0 247.5 -92t94.5 -246q0 -143 -68 -239t-169 -96q-52 0 -82.5 30.5t-27.5 87.5q-63 -83 -156 -83q-58 0 -96 41t-38 112q0 110 74.5 199t167.5 89q91 0 114 -87l21 77h76l-82 -293q-15 -46 -3 -80
t51 -34q67 0 110 74.5t43 190.5q0 137 -80 212t-207 75q-175 0 -294.5 -128.5t-119.5 -317.5q0 -133 76.5 -209t198.5 -76q66 0 132 20.5t108 53.5l29 -51q-55 -38 -131.5 -61.5t-148.5 -23.5zM395 185q61 0 110 64.5t49 145.5q0 46 -22.5 71.5t-62.5 25.5q-64 0 -113 -62.5
t-49 -143.5q0 -47 23.5 -74t64.5 -27z" />
    <glyph glyph-name="bar.case" horiz-adv-x="298" 
d="M252 775l-134 -928h-95l134 928h95z" />
    <glyph glyph-name="uni0337.001" 
d="M-146 220l14 93l300 100l-14 -93z" />
    <glyph glyph-name="uni030A0301.case" 
d="M37 780l54 86h98l-73 -86h-79zM43 542q-41 0 -66.5 26t-25.5 63q0 48 36.5 83.5t86.5 35.5q41 0 67 -25.5t26 -62.5q0 -48 -37 -84t-87 -36zM52 604q20 0 34 14.5t14 34.5q0 15 -10 25t-25 10q-19 0 -33 -14.5t-14 -34.5q0 -16 9.5 -25.5t24.5 -9.5z" />
    <glyph glyph-name="brevecombcy" 
d="M45 557q-67 0 -100 41.5t-24 107.5h78q-5 -36 10.5 -58t46.5 -22q30 0 52.5 22t27.5 58h78q-10 -67 -57 -108t-112 -41z" />
    <glyph glyph-name="NULL" horiz-adv-x="582" 
 />
    </font>
</defs>
</svg>
