<svg xmlns="http://www.w3.org/2000/svg" width="25" height="10" viewBox="0 0 25 10">
  <g fill="#FF6036" fill-rule="evenodd">
    <path d="M19.8353611,10 C19.6214819,10 19.4080205,9.92113804 19.244687,9.7630097 C18.9184377,9.44715743 18.9184377,8.93516131 19.244687,8.61930905 L22.9829774,5.00015166 L19.244687,1.38099427 C18.9184377,1.06473758 18.9184377,0.553145885 19.244687,0.236889199 C19.5709362,-0.0789630663 20.0997859,-0.0789630663 20.4260352,0.236889199 L24.7549997,4.42830133 C25.0816668,4.7441536 25.0816668,5.25614972 24.7549997,5.57200198 L20.4260352,9.7630097 C20.2627017,9.92113804 20.0492402,10 19.8353611,10"/>
    <path fill-rule="nonzero" d="M23,4 C23.5522847,4 24,4.44771525 24,5 C24,5.55228475 23.5522847,6 23,6 L1,6 C0.44771525,6 0,5.55228475 0,5 C0,4.44771525 0.44771525,4 1,4 L23,4 Z"/>
  </g>
</svg>