<?xml version="1.0" encoding="UTF-8"?>
<svg width="100px" height="100px" viewBox="0 0 100 100" version="1.1" xmlns="http://www.w3.org/2000/svg" xmlns:xlink="http://www.w3.org/1999/xlink">
    <!-- Generator: Sketch 63.1 (92452) - https://sketch.com -->
    <title>being-interviewed</title>
    <desc>Created with Sketch.</desc>
    <g id="being-interviewed" stroke="none" stroke-width="1" fill="none" fill-rule="evenodd">
        <g id="request" transform="translate(7.000000, 0.000000)" fill="#FFFFFF" fill-rule="nonzero">
            <path d="M69.5072712,0.266666667 L17.1593955,0.266666667 C7.68190261,0.266666667 0,7.86782495 0,17.2762294 L0,95.1118786 C0,98.4141245 3.82026977,100.345428 6.51630667,98.3415824 L22.8791939,86.1765752 L69.5072712,86.1765752 C78.9847641,86.1765752 86.6666667,78.5754169 86.6666667,69.1670125 L86.6666667,17.2762294 C86.6666667,7.88149225 78.9985517,0.266666667 69.5072712,0.266666667 L69.5072712,0.266666667 Z M78.5212833,69.1670125 C78.5212833,74.1061882 74.4920761,78.1023159 69.5072712,78.1023159 L21.52163,78.1023159 C20.640274,78.1023159 19.7833118,78.3861765 19.078015,78.9097419 L8.14538334,87.0376194 L8.14538334,17.2762294 C8.14538334,12.3370534 12.1745906,8.34092595 17.1593955,8.34092595 L69.5072712,8.34092595 C74.489955,8.34092595 78.5212833,12.3349509 78.5212833,17.2762294 L78.5212833,69.1670125 Z" id="Shape"></path>
            <path d="M65.8916365,21.3777778 L21.8861413,21.3777778 C19.6169125,21.3777778 17.7777778,23.1196759 17.7777778,25.2666667 C17.7777778,27.4146703 19.6169125,29.1555556 21.8861413,29.1555556 L65.8916365,29.1555556 C68.1597955,29.1555556 70,27.4146703 70,25.2666667 C70,23.1196759 68.1608653,21.3777778 65.8916365,21.3777778 Z" id="Path"></path>
            <path d="M65.8916365,39.1555556 L21.8861413,39.1555556 C19.6169125,39.1555556 17.7777778,40.896441 17.7777778,43.0444444 C17.7777778,45.1914352 19.6169125,46.9333333 21.8861413,46.9333333 L65.8916365,46.9333333 C68.1597955,46.9333333 70,45.1914352 70,43.0444444 C70,40.896441 68.1608653,39.1555556 65.8916365,39.1555556 Z" id="Path"></path>
            <path d="M43.6991798,55.8222222 L21.8563757,55.8222222 C19.6035877,55.8222222 17.7777778,57.5631074 17.7777778,59.7111111 C17.7777778,61.8591145 19.6035877,63.6 21.8563757,63.6 L43.6991798,63.6 C45.9519678,63.6 47.7777778,61.8591145 47.7777778,59.7111111 C47.7777778,57.5631074 45.9519678,55.8222222 43.6991798,55.8222222 L43.6991798,55.8222222 Z" id="Path"></path>
        </g>
    </g>
</svg>