<?xml version="1.0" encoding="UTF-8"?>
<svg width="96px" height="96px" viewBox="0 0 96 96" version="1.1" xmlns="http://www.w3.org/2000/svg" xmlns:xlink="http://www.w3.org/1999/xlink">
    <!-- Generator: Sketch 63.1 (92452) - https://sketch.com -->
    <title>calander</title>
    <desc>Created with Sketch.</desc>
    <g id="Page" stroke="none" stroke-width="1" fill="none" fill-rule="evenodd">
        <g id="08-Account-Manager-Edit-Candidate-profile" transform="translate(-347.000000, -2294.000000)" fill="#92929D">
            <g id="Group-15" transform="translate(204.000000, 1613.000000)">
                <g id="Group-4" transform="translate(25.000000, 599.000000)">
                    <g id="Group-8" transform="translate(0.000000, 73.000000)">
                        <g id="Component/icon/ic_Calendar" transform="translate(109.000000, 0.000000)">
                            <path d="M40.3515468,27.55 C40.1132277,29.9503283 38.0880403,31.825 35.625,31.825 C33.1619597,31.825 31.1367723,29.9503283 30.8984532,27.55 L19,27.55 L19,35.15 L95,35.15 L95,27.55 L87.3765468,27.55 C87.1382277,29.9503283 85.1130403,31.825 82.65,31.825 C80.1869597,31.825 78.1617723,29.9503283 77.9234532,27.55 L40.3515468,27.55 L40.3515468,27.55 Z M40.3515468,27.55 L77.9234532,27.55 L40.3515468,27.55 L40.3515468,27.55 Z M30.875,18.05 L30.875,14.25 C30.875,11.6266474 33.0016474,9.5 35.625,9.5 C38.2483526,9.5 40.375,11.6266474 40.375,14.25 L40.375,18.05 L77.9,18.05 L77.9,14.25 C77.9,11.6266474 80.0266474,9.5 82.65,9.5 C85.2733526,9.5 87.4,11.6266474 87.4,14.25 L87.4,18.05 L95.475,18.05 C100.45937,18.05 104.5,22.0906301 104.5,27.075 L104.5,90.25 C104.5,98.1200577 98.1200577,104.5 90.25,104.5 L23.75,104.5 C15.8799423,104.5 9.5,98.1200577 9.5,90.25 L9.5,27.075 C9.5,22.0906301 13.5406301,18.05 18.525,18.05 L30.875,18.05 Z M95,44.65 L19,44.65 L19,90.25 C19,92.8733526 21.1266474,95 23.75,95 L90.25,95 C92.8733526,95 95,92.8733526 95,90.25 L95,44.65 L95,44.65 Z M31.35,61.75 C28.7266474,61.75 26.6,59.6233526 26.6,57 C26.6,54.3766474 28.7266474,52.25 31.35,52.25 L48.45,52.25 C51.0733526,52.25 53.2,54.3766474 53.2,57 C53.2,59.6233526 51.0733526,61.75 48.45,61.75 L31.35,61.75 Z M31.35,78.85 C28.7266474,78.85 26.6,76.7233526 26.6,74.1 C26.6,71.4766474 28.7266474,69.35 31.35,69.35 L65.55,69.35 C68.1733526,69.35 70.3,71.4766474 70.3,74.1 C70.3,76.7233526 68.1733526,78.85 65.55,78.85 L31.35,78.85 Z" id="Shape"></path>
                        </g>
                    </g>
                </g>
            </g>
        </g>
    </g>
</svg>