<?xml version="1.0" encoding="UTF-8"?>
<svg width="100px" height="100px" viewBox="0 0 100 100" version="1.1" xmlns="http://www.w3.org/2000/svg" xmlns:xlink="http://www.w3.org/1999/xlink">
    <!-- Generator: Sketch 63.1 (92452) - https://sketch.com -->
    <title>clients1</title>
    <desc>Created with Sketch.</desc>
    <defs>
        <rect id="path-1" x="0" y="0" width="100" height="100"></rect>
    </defs>
    <g id="clients1" stroke="none" stroke-width="1" fill="none" fill-rule="evenodd">
        <mask id="mask-2" fill="white">
            <use xlink:href="#path-1"></use>
        </mask>
        <g id="Rectangle"></g>
        <g id="clients" mask="url(#mask-2)">
            <g transform="translate(-1.000000, 9.000000)" id="Page-1">
                <g transform="translate(0.919000, 0.016000)">
                    <path d="M51.581,34.484 L51.581,55.484 L49.581,55.484 L49.581,34.484 L51.581,34.484 Z M63.1208939,32.984 L87.829291,48.0238939 L86.7893971,49.732291 L62.081,34.6923971 L63.1208939,32.984 Z M38.9152516,32.1098545 L39.9551455,33.8182516 L15.2467484,48.8581455 L14.2068545,47.1497484 L38.9152516,32.1098545 Z M50.4,51.568 C53.5334502,51.513531 56.344232,53.486713 57.3576076,56.4522732 C58.3709832,59.4178333 57.3555188,62.6985 54.844,64.573 C59.4560223,66.1604242 62.6286468,70.4061889 62.844,75.279 C62.883,77.04 61.567,77.972 59.285,78.879 C56.6539236,79.8043099 53.8965897,80.3209728 51.109,80.411 C43.589,80.811 36.432,79.272 36.379,75.758 C36.288,70.311 40.253,65.7 45.7,64.161 C43.5769099,62.2529614 42.776658,59.273552 43.6580224,56.5585345 C44.5393868,53.843517 46.9370248,51.9022248 49.776,51.605 L50.4,51.568 Z M86.77,46.768 C89.8220413,46.7678815 92.5444817,48.6868724 93.5702692,51.5613664 C94.5960567,54.4358605 93.7035843,57.6448635 91.341,59.577 C96.341,61.177 99.992,65.445 100.084,70.6 C100.084,72.321 98.76,73.26 96.525,74.141 C93.8936054,75.0664102 91.1359266,75.5830745 88.348,75.673 C80.825,76.073 73.671,74.539 73.618,71.026 C73.525,65.801 77.166,61.343 82.271,59.626 C79.8713711,57.7138781 78.9428567,54.4936767 79.9560578,51.5974977 C80.9692588,48.7013188 83.702706,46.7622203 86.771,46.7629998 L86.77,46.768 Z M14.58,46.768 C17.7226237,46.768 20.5041578,48.8011972 21.4585213,51.795404 C22.4128847,54.7896108 21.3208488,58.0572395 18.758,59.876 C23.4011862,61.5954836 26.500853,66.0028907 26.549,70.954 C26.509,72.695 25.158,73.584 22.865,74.399 C20.2030219,75.229982 17.4296569,75.6491567 14.641,75.642 C7.107,75.784 0.015,74 0.082,70.486 C0.174,65.086 4.221,60.648 9.645,59.257 C7.48125372,57.232547 6.77481357,54.0912212 7.86352866,51.3353353 C8.95224374,48.5794494 11.6148586,46.7690716 14.578,46.77 L14.58,46.768 Z M49.494,68.431 C46.065214,68.3478406 42.9287394,70.352985 41.565,73.5 L41.386,74.075 L41.273,74.594 L41.473,74.669 L41.905,74.801 L42.391,74.93 L42.926,75.054 C45.5345049,75.5738511 48.1987781,75.7580112 50.854,75.602 C53.1229336,75.5352265 55.3692586,75.1307868 57.519,74.402 L57.901,74.239 L57.788,73.782 C56.7297831,70.8205127 54.0346196,68.7537511 50.9,68.5 L50.161,68.437 L49.494,68.431 Z M86.726,63.7 C83.2978317,63.6164171 80.1620148,65.6218998 78.8,68.769 L78.621,69.345 L78.509,69.865 L78.709,69.938 L79.141,70.069 L79.627,70.198 L80.162,70.321 C82.7709626,70.8399394 85.4354919,71.0237579 88.091,70.868 C90.3616197,70.8017512 92.6096706,70.3973042 94.761,69.668 L95.133,69.511 L95.023,69.055 C93.962146,66.0949216 91.2671083,64.0296387 88.133,63.775 L87.395,63.711 L86.726,63.7 Z M13.441,63.62 C9.641,63.554 6.473,65.612 5.341,68.41 L5.141,68.979 L5.011,69.497 L5.211,69.576 L5.638,69.722 L6.119,69.868 L6.65,70.01 C9.23956943,70.6197549 11.8963487,70.8966568 14.556,70.834 C16.6025421,70.8283395 18.6405805,70.570394 20.624,70.066 L21.449,69.796 L21.643,69.719 L21.543,69.26 C20.5865719,66.2648673 17.9659276,64.1065516 14.843,63.742 L14.107,63.653 L13.441,63.62 Z M50.481,56.382 C49.1938563,56.4049958 48.154104,57.4394277 48.1245055,58.7264365 C48.0949069,60.0134454 49.0860053,61.0945827 50.3707311,61.1767263 C51.6554568,61.2588699 52.7761747,60.3127591 52.9107262,59.0324609 C53.0452776,57.7521626 52.1457338,56.5937348 50.872,56.407 L50.481,56.382 Z M86.767,51.582 C85.7934594,51.582 84.9157798,52.1684467 84.543222,53.067881 C84.1706641,53.9673152 84.3765968,55.0026088 85.064994,55.691006 C85.7533912,56.3794032 86.7886848,56.5853359 87.688119,56.212778 C88.5875533,55.8402202 89.174,54.9625406 89.174,53.989 C89.1734482,52.6604315 88.0965685,51.5835518 86.768,51.583 L86.767,51.582 Z M14.577,51.582 C13.6034594,51.582 12.7257798,52.1684467 12.353222,53.067881 C11.9806641,53.9673152 12.1865968,55.0026088 12.874994,55.691006 C13.5633912,56.3794032 14.5986848,56.5853359 15.498119,56.212778 C16.3975533,55.8402202 16.984,54.9625406 16.984,53.989 C16.9834482,52.6604315 15.9065685,51.5835518 14.578,51.583 L14.577,51.582 Z M50.6,0.984944478 C54.0494834,0.972536173 57.1597162,3.05951052 58.4558052,6.25626585 C59.7518941,9.45302117 58.973206,13.1167153 56.489,15.51 C62.5968534,18.3741072 66.4463544,24.5652836 66.313,31.31 C66.313,35.478 60.221,37.981 52.344,38.317 C43.168,38.706 35.029,36.058 35.029,31.297 C34.890051,24.5144848 38.7852472,18.2948944 44.948,15.459 C42.5290414,13.0908598 41.7581761,9.50698313 42.9895156,6.3536909 C44.2208551,3.20039867 47.2163643,1.087266 50.6,0.984944478 Z M50.667,19.1 L50.015,19.122 C44.4,19.5 39.842,24.75 39.842,31.3 C39.842,31.166 40.694,31.825 42.526,32.421 C45.644945,33.3287905 48.8959845,33.6974198 52.139,33.511 C57.572,33.279 61.499,31.665 61.499,31.311 C61.499,24.767 56.932,19.511 51.318,19.127 L50.667,19.1 Z M50.68,5.7999676 C48.7121415,5.86038523 47.1655512,7.50411302 47.225,9.472 C47.2104553,10.753692 47.8937615,11.9419791 49.0088206,12.5741098 C50.1238796,13.2062405 51.4944122,13.1822815 52.5866955,12.5115631 C53.6789788,11.8408447 54.320334,10.6294005 54.261,9.349 C54.2516323,7.38032773 52.648677,5.79169661 50.68,5.7999676 Z" id="clients-icon" fill="#000000" fill-rule="nonzero"></path>
                </g>
            </g>
        </g>
    </g>
</svg>