<?xml version="1.0" encoding="UTF-8"?>
<svg width="17px" height="20px" viewBox="0 0 17 20" version="1.1" xmlns="http://www.w3.org/2000/svg" xmlns:xlink="http://www.w3.org/1999/xlink">
    <!-- Generator: Sketch 63.1 (92452) - https://sketch.com -->
    <title>Shape</title>
    <desc>Created with Sketch.</desc>
    <g id="Page" stroke="none" stroke-width="1" fill="none" fill-rule="evenodd">
        <g id="08-HireDNA-Candidate-Refer-a-Friend" transform="translate(-602.000000, -587.000000)" fill="#0077B7" fill-rule="nonzero">
            <g id="Group" transform="translate(210.000000, 567.000000)">
                <g id="Group-4" transform="translate(392.000000, 20.000000)">
                    <path d="M10.6890951,20 L3.15545244,20 C1.41548544,20 0,18.598175 0,16.875 L0,6.2890625 C0,4.56588746 1.41548544,3.1640625 3.15545244,3.1640625 L10.6890951,3.1640625 C12.4290621,3.1640625 13.8445476,4.56588746 13.8445476,6.2890625 L13.8445476,16.875 C13.8445476,18.598175 12.4290621,20 10.6890951,20 Z M3.15545244,4.7265625 C2.28554595,4.7265625 1.57772622,5.42755125 1.57772622,6.2890625 L1.57772622,16.875 C1.57772622,17.7365112 2.28554595,18.4375 3.15545244,18.4375 L10.6890951,18.4375 C11.5590016,18.4375 12.2668213,17.7365112 12.2668213,16.875 L12.2668213,6.2890625 C12.2668213,5.42755125 11.5590016,4.7265625 10.6890951,4.7265625 L3.15545244,4.7265625 Z M17,14.921875 L17,3.125 C17,1.40182496 15.5845146,0 13.8445476,0 L5.08816705,0 C4.65244345,0 4.29930394,0.349731445 4.29930394,0.78125 C4.29930394,1.21276855 4.65244345,1.5625 5.08816705,1.5625 L13.8445476,1.5625 C14.7144541,1.5625 15.4222738,2.26348875 15.4222738,3.125 L15.4222738,14.921875 C15.4222738,15.3533936 15.7754133,15.703125 16.2111369,15.703125 C16.6468605,15.703125 17,15.3533936 17,14.921875 Z" id="Shape"></path>
                </g>
            </g>
        </g>
    </g>
</svg>