<?xml version="1.0" encoding="UTF-8"?>
<svg width="30px" height="30px" viewBox="0 0 30 30" version="1.1" xmlns="http://www.w3.org/2000/svg" xmlns:xlink="http://www.w3.org/1999/xlink">
    <!-- Generator: Sketch 63.1 (92452) - https://sketch.com -->
    <title>close</title>
    <desc>Created with Sketch.</desc>
    <g id="Page-1" stroke="none" stroke-width="1" fill="none" fill-rule="evenodd">
        <g id="07-HireDNA-Candidate-successfully-applied-job" transform="translate(-988.000000, -247.000000)" fill="#02295C" fill-rule="nonzero">
            <g transform="translate(401.000000, 225.000000)" id="close">
                <g transform="translate(587.000000, 22.000000)">
                    <path d="M15,0 C23.2708594,0 30,6.72914062 30,15 C30,23.2708594 23.2708594,30 15,30 C6.72914062,30 0,23.2708594 0,15 C0,6.72914062 6.72914062,0 15,0 Z M15,1.24998047 C7.41820313,1.24998047 1.24998047,7.41820312 1.24998047,15 C1.24998047,22.5817969 7.41820313,28.7500195 15,28.7500195 C22.5817969,28.7500195 28.7500195,22.5817969 28.7500195,15 C28.7500195,7.41820313 22.5817969,1.24998047 15,1.24998047 Z M8.93314453,8.93314453 C9.17724609,8.68898438 9.57275391,8.68898438 9.81691406,8.93314453 L9.81691406,8.93314453 L15,14.1162305 L20.1831445,8.93308594 C20.4272461,8.68892578 20.8227539,8.68892578 21.0669141,8.93308594 C21.3110156,9.17724609 21.3110156,9.57275391 21.0668555,9.81691406 L21.0668555,9.81691406 L15.8837695,15 L21.0669141,20.1830859 C21.3110742,20.4271875 21.3110742,20.8226953 21.0669141,21.0668555 C20.9448047,21.1889063 20.7849023,21.2499658 20.625,21.2499658 C20.4650977,21.2499658 20.3051367,21.1889063 20.1830859,21.0668555 L20.1830859,21.0668555 L15,15.8837695 L9.81697266,21.0668555 C9.69486328,21.1889063 9.53496094,21.2499658 9.37505859,21.2499658 C9.21515625,21.2499658 9.05519531,21.1889063 8.93314453,21.0668555 C8.68898438,20.8227539 8.68898438,20.4272461 8.93314453,20.1830859 L8.93314453,20.1830859 L14.1162305,15 L8.93314453,9.81691406 C8.68898438,9.5728125 8.68898438,9.17730469 8.93314453,8.93314453 Z" id="Combined-Shape"></path>
                </g>
            </g>
        </g>
    </g>
</svg>