<?xml version="1.0" encoding="UTF-8"?>
<svg width="16px" height="19px" viewBox="0 0 16 19" version="1.1" xmlns="http://www.w3.org/2000/svg" xmlns:xlink="http://www.w3.org/1999/xlink">
    <!-- Generator: Sketch 63.1 (92452) - https://sketch.com -->
    <title>delete</title>
    <desc>Created with Sketch.</desc>
    <g id="Page" stroke="none" stroke-width="1" fill="none" fill-rule="evenodd">
        <g id="7-Account-Manager--" transform="translate(-1169.000000, -2985.000000)" fill="#3F536E">
            <g id="icon/delete" transform="translate(1168.000000, 2985.000000)">
                <g id="bin" transform="translate(1.000000, 0.000000)">
                    <path d="M9.69119584,-5.84647346e-05 C10.1589304,-0.00382391686 10.6087621,0.180071721 10.9398785,0.510319087 C11.2709949,0.840740255 11.4559335,1.28987667 11.4533263,1.75761124 L11.4533263,1.75761124 L11.4533263,2.31381733 L13.7315116,2.31381733 C14.585288,2.31399113 15.306444,2.94719701 15.4169899,3.79367313 C15.527362,4.6403231 14.9927089,5.43743597 14.167612,5.65644212 L14.167612,5.65644212 L14.167612,16.6194379 C14.167612,17.267418 13.9300077,17.8759422 13.5149389,18.312564 C13.1019559,18.7504025 12.5269778,18.9989571 11.9250585,19 L11.9250585,19 L3.50618413,19 C2.90443869,18.9989571 2.3294606,18.7504025 1.91630378,18.312564 C1.50123499,17.8759422 1.26363073,17.267418 1.26363073,16.6194379 L1.26363073,16.6194379 L1.26363073,5.65644212 C0.438533749,5.43743597 -0.0961193536,4.6403231 0.0142527588,3.79367313 C0.124798763,2.94719701 0.84595471,2.31399113 1.69973106,2.31381733 L1.69973106,2.31381733 L3.97791644,2.31381733 L3.97791644,1.75761124 C3.97530922,1.28987667 4.16024774,0.840740255 4.49136417,0.510319087 C4.82248059,0.180071721 5.27231227,-0.00382391686 5.74004684,-5.84647346e-05 L5.74004684,-5.84647346e-05 Z M13.2776823,5.69555035 L2.15356047,5.69555035 L2.15356047,16.6194379 C2.15356047,17.4565281 2.7453985,18.1100703 3.50618413,18.1100703 L3.50618413,18.1100703 L11.9250585,18.1100703 C12.6858442,18.1100703 13.2776823,17.4565281 13.2776823,16.6194379 L13.2776823,16.6194379 L13.2776823,5.69555035 Z M10.3409141,6.88374561 C10.5866876,6.88374561 10.785879,7.08293694 10.785879,7.32871048 L10.785879,7.32871048 L10.785879,15.7385465 C10.785879,15.9841463 10.5866876,16.1835114 10.3409141,16.1835114 C10.0951405,16.1835114 9.89594923,15.9841463 9.89594923,15.7385465 L9.89594923,15.7385465 L9.89594923,7.32871048 C9.89594923,7.08293694 10.0951405,6.88374561 10.3409141,6.88374561 Z M5.09032862,6.88374561 C5.33610217,6.88374561 5.53529349,7.08293694 5.53529349,7.32871048 L5.53529349,7.32871048 L5.53529349,15.7385465 C5.53529349,15.9841463 5.33610217,16.1835114 5.09032862,16.1835114 C4.84455504,16.1835114 4.64536375,15.9841463 4.64536375,15.7385465 L4.64536375,15.7385465 L4.64536375,7.32871048 C4.64536375,7.08293694 4.84455504,6.88374561 5.09032862,6.88374561 Z M7.71562136,6.88374561 C7.96139491,6.88374561 8.16058623,7.08293694 8.16058623,7.32871048 L8.16058623,7.32871048 L8.16058623,15.7385465 C8.16058623,15.9841463 7.96139491,16.1835114 7.71562136,16.1835114 C7.46984778,16.1835114 7.27065649,15.9841463 7.27065649,15.7385465 L7.27065649,15.7385465 L7.27065649,7.32871048 C7.27065649,7.08293694 7.46984778,6.88374561 7.71562136,6.88374561 Z M13.7315116,3.20374707 L1.69973106,3.20374707 C1.25737337,3.20374707 0.898794288,3.5623262 0.898794288,4.00468384 C0.898794288,4.44704148 1.25737337,4.80562061 1.69973106,4.80562061 L1.69973106,4.80562061 L13.7315116,4.80562061 C14.1738693,4.80562061 14.5324484,4.44704148 14.5324484,4.00468384 C14.5324484,3.5623262 14.1738693,3.20374707 13.7315116,3.20374707 L13.7315116,3.20374707 Z M9.69119584,0.889929742 L5.74004684,0.889929742 C5.5081784,0.885932 5.2846531,0.97579408 5.1203985,1.13935342 C4.95597006,1.30291276 4.86489131,1.52591665 4.86784619,1.75761124 L4.86784619,1.75761124 L4.86784619,2.31381733 L10.5633965,2.31381733 L10.5633965,1.75761124 C10.5663514,1.52591665 10.4752726,1.30273896 10.3108442,1.13935342 C10.1465896,0.97579408 9.92306423,0.885932 9.69119584,0.889929742 L9.69119584,0.889929742 Z" id="Combined-Shape" fill-rule="nonzero"></path>
                </g>
            </g>
        </g>
    </g>
</svg>