<?xml version="1.0" encoding="UTF-8"?>
<svg width="21px" height="25px" viewBox="0 0 21 25" version="1.1" xmlns="http://www.w3.org/2000/svg" xmlns:xlink="http://www.w3.org/1999/xlink">
    <!-- Generator: Sketch 63.1 (92452) - https://sketch.com -->
    <title>icon/delete</title>
    <desc>Created with Sketch.</desc>
    <g id="Page-1" stroke="none" stroke-width="1" fill="none" fill-rule="evenodd">
        <g id="08-Account-Manager-Edit-Candidate-profile" transform="translate(-1184.000000, -3009.000000)" fill="#3F536E">
            <g id="Group-15-Copy-2" transform="translate(1158.000000, 2916.000000)">
                <g id="icon/delete" transform="translate(25.000000, 93.000000)">
                    <g id="bin" transform="translate(1.294118, 0.000000)">
                        <path d="M12.5415476,-7.69272824e-05 C13.1468511,-0.00503146956 13.7289862,0.236936475 14.1574898,0.671472482 C14.5859935,1.10623718 14.8253257,1.69720615 14.8219517,2.31264637 L14.8219517,2.31264637 L14.8219517,3.04449649 L17.7701915,3.04449649 C18.8750786,3.04472518 19.8083392,3.87789081 19.9513987,4.99167518 C20.0942332,6.10568829 19.4023292,7.15452102 18.3345567,7.442687 L18.3345567,7.442687 L18.3345567,21.8676815 C18.3345567,22.7202869 18.0270688,23.5209766 17.4899209,24.095479 C16.9554723,24.6715823 16.2113831,24.9986278 15.4324287,25 L15.4324287,25 L4.53741476,25 C3.75868537,24.9986278 3.01459608,24.6715823 2.47992254,24.095479 C1.94277469,23.5209766 1.63528683,22.7202869 1.63528683,21.8676815 L1.63528683,21.8676815 L1.63528683,7.442687 C0.567514264,7.15452102 -0.124389752,6.10568829 0.0184447467,4.99167518 C0.161504282,3.87789081 1.09476492,3.04472518 2.19965196,3.04449649 L2.19965196,3.04449649 L5.14789187,3.04449649 L5.14789187,2.31264637 C5.14451781,1.69720615 5.38385002,1.10623718 5.81235363,0.671472482 C6.24085724,0.236936475 6.82299235,-0.00503146956 7.42829591,-7.69272824e-05 L7.42829591,-7.69272824e-05 Z M17.1828829,7.4941452 L2.78696061,7.4941452 L2.78696061,21.8676815 C2.78696061,22.9691159 3.55286865,23.8290398 4.53741476,23.8290398 L4.53741476,23.8290398 L15.4324287,23.8290398 C16.4169748,23.8290398 17.1828829,22.9691159 17.1828829,21.8676815 L17.1828829,21.8676815 L17.1828829,7.4941452 Z M13.3823594,9.05756001 C13.7004193,9.05756001 13.9581963,9.31965386 13.9581963,9.64304011 L13.9581963,9.64304011 L13.9581963,20.7086139 C13.9581963,21.0317714 13.7004193,21.294094 13.3823594,21.294094 C13.0642995,21.294094 12.8065225,21.0317714 12.8065225,20.7086139 L12.8065225,20.7086139 L12.8065225,9.64304011 C12.8065225,9.31965386 13.0642995,9.05756001 13.3823594,9.05756001 Z M6.5874841,9.05756001 C6.90554398,9.05756001 7.16332099,9.31965386 7.16332099,9.64304011 L7.16332099,9.64304011 L7.16332099,20.7086139 C7.16332099,21.0317714 6.90554398,21.294094 6.5874841,21.294094 C6.26942416,21.294094 6.01164721,21.0317714 6.01164721,20.7086139 L6.01164721,20.7086139 L6.01164721,9.64304011 C6.01164721,9.31965386 6.26942416,9.05756001 6.5874841,9.05756001 Z M9.98492176,9.05756001 C10.3029816,9.05756001 10.5607587,9.31965386 10.5607587,9.64304011 L10.5607587,9.64304011 L10.5607587,20.7086139 C10.5607587,21.0317714 10.3029816,21.294094 9.98492176,21.294094 C9.66686183,21.294094 9.40908487,21.0317714 9.40908487,20.7086139 L9.40908487,20.7086139 L9.40908487,9.64304011 C9.40908487,9.31965386 9.66686183,9.05756001 9.98492176,9.05756001 Z M17.7701915,4.21545667 L2.19965196,4.21545667 C1.62718906,4.21545667 1.16314555,4.68727131 1.16314555,5.26932084 C1.16314555,5.85137037 1.62718906,6.32318501 2.19965196,6.32318501 L2.19965196,6.32318501 L17.7701915,6.32318501 C18.3426543,6.32318501 18.8066979,5.85137037 18.8066979,5.26932084 C18.8066979,4.68727131 18.3426543,4.21545667 17.7701915,4.21545667 L17.7701915,4.21545667 Z M12.5415476,1.17096019 L7.42829591,1.17096019 C7.12823087,1.1657 6.83896284,1.28393958 6.62639806,1.49914924 C6.41360831,1.7143589 6.29574169,2.00778507 6.29956565,2.31264637 L6.29956565,2.31264637 L6.29956565,3.04449649 L13.6702779,3.04449649 L13.6702779,2.31264637 C13.6741018,2.00778507 13.5562352,1.71413021 13.3434454,1.49914924 C13.1308806,1.28393958 12.8416125,1.1657 12.5415476,1.17096019 L12.5415476,1.17096019 Z" id="Combined-Shape" fill-rule="nonzero"></path>
                    </g>
                </g>
            </g>
        </g>
    </g>
</svg>