<?xml version="1.0" encoding="UTF-8"?>
<svg width="25px" height="25px" viewBox="0 0 25 25" version="1.1" xmlns="http://www.w3.org/2000/svg" xmlns:xlink="http://www.w3.org/1999/xlink">
    <!-- Generator: Sketch 63.1 (92452) - https://sketch.com -->
    <title>Logo</title>
    <desc>Created with Sketch.</desc>
    <g id="Page" stroke="none" stroke-width="1" fill="none" fill-rule="evenodd">
        <g id="00-HireDNA-Candidate-Dashboard" transform="translate(-934.000000, -465.000000)">
            <g id="Group-3" transform="translate(914.000000, 357.000000)">
                <g id="#1" transform="translate(20.000000, 104.000000)">
                    <g id="Logo" transform="translate(0.000000, 4.000000)">
                        <path d="M12.5,0.5 C9.188,0.5 6.18803972,1.84406706 4.01605339,4.01605339 C1.84406706,6.18803972 0.5,9.188 0.5,12.5 C0.5,15.812 1.84406706,18.8119603 4.01605339,20.9839466 C6.18803972,23.1559329 9.188,24.5 12.5,24.5 C15.812,24.5 18.8119603,23.1559329 20.9839466,20.9839466 C23.1559329,18.8119603 24.5,15.812 24.5,12.5 C24.5,9.188 23.1559329,6.18803972 20.9839466,4.01605339 C18.8119603,1.84406706 15.812,0.5 12.5,0.5 Z" id="Oval" stroke-opacity="0.05" stroke="#000000" fill="#EC4989"></path>
                        <path d="M12.5,20 C8.36328125,20 5,16.638639 5,12.5029331 C5,8.36136097 8.36328125,5 12.5,5 C16.6367188,5 20,8.36136097 20,12.4970669 C20,16.6327728 16.6367188,20 12.5,20 L12.5,20 L12.5,20 L12.5,20 Z M18.8222656,13.5236605 C18.6054687,13.4532655 16.8417969,12.9311693 14.8320312,13.2479468 C15.6699219,15.5475166 16.0097656,17.4247165 16.0742188,17.8118889 C17.515625,16.8439578 18.5410156,15.3070004 18.8222656,13.5236605 L18.8222656,13.5236605 L18.8222656,13.5236605 L18.8222656,13.5236605 Z M15.0019531,18.4043801 C14.9082031,17.8412202 14.5332031,15.8818928 13.6367188,13.5471255 C13.625,13.5529918 13.6074219,13.558858 13.5957031,13.558858 C9.98046875,14.8201017 8.68554688,17.3249902 8.56835938,17.5596402 C9.65234375,18.4043801 11.0175781,18.9088776 12.5,18.9088776 C13.3847656,18.9147438 14.234375,18.7328901 15.0019531,18.4043801 L15.0019531,18.4043801 L15.0019531,18.4043801 L15.0019531,18.4043801 Z M7.7421875,16.7911615 C7.88867187,16.544779 9.64648438,13.6351193 12.9511719,12.5615956 C13.0332031,12.5322644 13.1210938,12.5087994 13.203125,12.4853344 C13.0449219,12.1216269 12.8691406,11.7579194 12.6816406,11.4000782 C9.48242188,12.3562769 6.37695312,12.3152131 6.09570312,12.3093469 C6.09570312,12.3738756 6.08984375,12.4384044 6.08984375,12.5029331 C6.09570312,14.1513492 6.71679687,15.6531091 7.7421875,16.7911615 L7.7421875,16.7911615 L7.7421875,16.7911615 L7.7421875,16.7911615 Z M6.23046875,11.1947595 C6.51757812,11.2006257 9.15429688,11.2123582 12.1542969,10.4145483 C11.09375,8.52561596 9.9453125,6.94172859 9.78125,6.71294486 C7.98242187,7.55768479 6.64648437,9.21196715 6.23046875,11.1947595 L6.23046875,11.1947595 L6.23046875,11.1947595 L6.23046875,11.1947595 Z M11,6.27884239 C11.1757812,6.51349237 12.3417969,8.09737974 13.390625,10.0273758 C15.6699219,9.1709034 16.6308594,7.88032851 16.7480469,7.71607352 C15.6171875,6.71294486 14.1289062,6.10285491 12.5,6.10285491 C11.984375,6.10285491 11.4804688,6.16738365 11,6.27884239 L11,6.27884239 L11,6.27884239 L11,6.27884239 Z M17.4570312,8.45522096 C17.3222656,8.6370747 16.25,10.0156433 13.8828125,10.9835745 C14.0292969,11.2886195 14.1757812,11.5995307 14.3105469,11.9104419 C14.3574219,12.0219007 14.4042969,12.1333594 14.4511719,12.2389519 C16.5839844,11.9691044 18.6992188,12.4032069 18.9101562,12.4442706 C18.8925781,10.9366445 18.3535156,9.54634337 17.4570312,8.45522096 L17.4570312,8.45522096 L17.4570312,8.45522096 L17.4570312,8.45522096 Z" fill="#FFFFFF"></path>
                    </g>
                </g>
            </g>
        </g>
    </g>
</svg>