<?xml version="1.0" encoding="UTF-8"?>
<svg width="18px" height="18px" viewBox="0 0 18 18" version="1.1" xmlns="http://www.w3.org/2000/svg" xmlns:xlink="http://www.w3.org/1999/xlink">
    <!-- Generator: Sketch 63.1 (92452) - https://sketch.com -->
    <title>edit</title>
    <desc>Created with Sketch.</desc>
    <g id="Page" stroke="none" stroke-width="1" fill="none" fill-rule="evenodd">
        <g id="05-Account-Manager-Employer-profile" transform="translate(-1205.000000, -265.000000)" fill="#02295C">
            <g id="Group-6" transform="translate(215.000000, 265.000000)">
                <path d="M1007.5206,2.92113506 L1005.06607,0.464522067 C1004.44764,-0.154444383 1003.37179,-0.155633302 1002.75095,0.465710986 L991.755119,11.5700972 C991.706374,11.6192647 991.671205,11.6796695 991.652029,11.7460188 L990.015702,17.4781797 C989.974933,17.6209267 990.014896,17.7748725 990.119981,17.8800343 C990.197874,17.9580043 990.302153,18 990.409232,18 C990.446778,18 990.484747,17.9947841 990.521488,17.9843906 L996.24871,16.3466359 C996.315021,16.3274598 996.375349,16.2922524 996.424478,16.2434684 L1007.5206,5.23703375 C1007.82983,4.92756971 1008,4.51651063 1008,4.07910358 C1008,3.64169653 1007.82983,3.2305991 1007.5206,2.92113506 Z M1000.96827,3.4415363 L1002.47413,4.9473978 L994.612115,12.8094875 L994.04788,11.6806283 C993.978347,11.541985 993.836944,11.4545036 993.681925,11.4545036 L993.026795,11.4545036 L1000.96827,3.4415363 Z M991.004877,16.9952102 L991.53774,15.1298734 L992.870166,16.4623062 L991.004877,16.9952102 Z M995.727353,15.6460943 L993.770058,16.2052312 L991.794813,14.2299769 L992.353948,12.2726715 L993.428993,12.2726715 L994.134095,13.6829209 C994.173636,13.7620415 994.237952,13.8263582 994.317073,13.8658993 L995.727353,14.5710049 L995.727353,15.6460943 L995.727353,15.6460943 Z M996.545555,14.9732813 L996.545555,14.3181487 C996.545555,14.163129 996.458074,14.0217244 996.319432,13.9521918 L995.190578,13.387954 L1003.05259,5.52590266 L1004.55844,7.03176416 L996.545555,14.9732813 Z M1006.94333,4.6681553 L1005.13951,6.45586725 L1001.54413,2.86046185 L1003.33064,1.05786924 C1003.63987,0.7486353 1004.17837,0.7486353 1004.48761,1.05786924 L1006.94214,3.5124112 C1007.09673,3.667009 1007.18184,3.87234677 1007.18184,4.09087771 C1007.18184,4.30940865 1007.09673,4.51474643 1006.94333,4.6681553 Z" id="edit"></path>
            </g>
        </g>
    </g>
</svg>