<?xml version="1.0" encoding="UTF-8"?>
<svg width="104px" height="104px" viewBox="0 0 104 104" version="1.1" xmlns="http://www.w3.org/2000/svg" xmlns:xlink="http://www.w3.org/1999/xlink">
    <!-- Generator: Sketch 63.1 (92452) - https://sketch.com -->
    <title>experience</title>
    <desc>Created with Sketch.</desc>
    <g id="Page-1" stroke="none" stroke-width="1" fill="none" fill-rule="evenodd">
        <g id="07-HireDNA-Candidate-successfully-applied-job" transform="translate(-669.000000, -333.000000)" fill-rule="nonzero">
            <g transform="translate(401.000000, 225.000000)" id="experience">
                <g transform="translate(268.000000, 108.000000)">
                    <path d="M70,47.1578947 L70,38.7368421 C70,30.8833684 65.1316667,24.1734737 58.2916667,21.4821053 C61.3333333,19.3515789 63.3333333,15.8029474 63.3333333,11.7894737 C63.3333333,5.29010526 58.0983333,0 51.6666667,0 C45.235,0 40,5.29010526 40,11.7894737 C40,15.8029474 42,19.3515789 45.0416667,21.4821053 C40.5866667,23.2353684 36.98,26.6913684 35,31.0635789 C33.02,26.6913684 29.4133333,23.2336842 24.9583333,21.4821053 C28,19.3515789 30,15.8029474 30,11.7894737 C30,5.29010526 24.765,0 18.3333333,0 C11.9016667,0 6.66666667,5.29010526 6.66666667,11.7894737 C6.66666667,15.8029474 8.66666667,19.3515789 11.7083333,21.4821053 C4.86833333,24.1734737 0,30.8833684 0,38.7368421 L0,47.1578947 L16.6666667,47.1578947 L16.6666667,48.8421053 C16.6666667,49.7717895 15.92,50.5263158 15,50.5263158 L11.6666667,50.5263158 C8.91,50.5263158 6.66666667,52.7932632 6.66666667,55.5789474 L6.66666667,58.9473684 C6.66666667,61.7330526 8.91,64 11.6666667,64 L18.6683333,64 L18.6683333,60.6315789 L11.6666667,60.6315789 C10.7466667,60.6315789 10,59.8770526 10,58.9473684 L10,55.5789474 C10,54.6492632 10.7466667,53.8947368 11.6666667,53.8947368 L15,53.8947368 C17.7566667,53.8947368 20,51.6277895 20,48.8421053 L20,47.1578947 L33.3333333,47.1578947 L36.6666667,47.1578947 L50,47.1578947 L50,48.8421053 C50,51.6277895 52.2433333,53.8947368 55,53.8947368 L58.3333333,53.8947368 C59.2533333,53.8947368 60,54.6492632 60,55.5789474 L60,58.9473684 C60,59.8770526 59.2533333,60.6315789 58.3333333,60.6315789 L51.3316667,60.6315789 L51.3316667,64 L58.3333333,64 C61.09,64 63.3333333,61.7330526 63.3333333,58.9473684 L63.3333333,55.5789474 C63.3333333,52.7932632 61.09,50.5263158 58.3333333,50.5263158 L55,50.5263158 C54.08,50.5263158 53.3333333,49.7717895 53.3333333,48.8421053 L53.3333333,47.1578947 L70,47.1578947 Z M43.3333333,11.7894737 C43.3333333,7.14610526 47.0716667,3.36842105 51.6666667,3.36842105 C56.2616667,3.36842105 60,7.14610526 60,11.7894737 C60,16.4328421 56.2616667,20.2105263 51.6666667,20.2105263 C47.0716667,20.2105263 43.3333333,16.4328421 43.3333333,11.7894737 Z M10,11.7894737 C10,7.14610526 13.7383333,3.36842105 18.3333333,3.36842105 C22.9283333,3.36842105 26.6666667,7.14610526 26.6666667,11.7894737 C26.6666667,16.4328421 22.9283333,20.2105263 18.3333333,20.2105263 C13.7383333,20.2105263 10,16.4328421 10,11.7894737 Z M33.3333333,43.7894737 L28.3333333,43.7894737 L28.3333333,30.3157895 L25,30.3157895 L25,43.7894737 L11.6666667,43.7894737 L11.6666667,30.3157895 L8.33333333,30.3157895 L8.33333333,43.7894737 L3.33333333,43.7894737 L3.33333333,38.7368421 C3.33333333,30.3781053 10.0616667,23.5789474 18.3333333,23.5789474 C26.605,23.5789474 33.3333333,30.3781053 33.3333333,38.7368421 L33.3333333,43.7894737 Z M36.6666667,38.7368421 C36.6666667,30.3781053 43.395,23.5789474 51.6666667,23.5789474 C59.9383333,23.5789474 66.6666667,30.3781053 66.6666667,38.7368421 L66.6666667,43.7894737 L61.6666667,43.7894737 L61.6666667,30.3157895 L58.3333333,30.3157895 L58.3333333,43.7894737 L45,43.7894737 L45,30.3157895 L41.6666667,30.3157895 L41.6666667,43.7894737 L36.6666667,43.7894737 L36.6666667,38.7368421 Z" id="Shape" fill="#3F536E"></path>
                    <path d="M60,85.3066667 L60,80.6666667 L48.23,80.6666667 C47.41,87.2433333 41.7983333,92.3333333 35,92.3333333 C27.6366667,92.3333333 21.6666667,86.3633333 21.6666667,79 C21.6666667,71.6366667 27.6366667,65.6666667 35,65.6666667 C39.935,65.6666667 44.2433333,68.3483333 46.55,72.3333333 L55.7483333,72.3333333 L55.3833333,71.6533333 C55.1683333,71.065 54.925,70.4766667 54.65,69.89 L57.1383333,65.7816667 L48.2183333,56.8616667 L44.11,59.3483333 C43.5583333,59.0916667 43.005,58.86 42.4516667,58.655 L41.3066667,54 L28.6933333,54 L27.5483333,58.6566667 C26.995,58.8616667 26.4416667,59.0933333 25.89,59.35 L21.7816667,56.8633333 L12.8616667,65.7833333 L15.3483333,69.8916667 C15.0916667,70.4433333 14.86,70.9966667 14.655,71.55 L10,72.6933333 L10,85.3066667 L14.6566667,86.4516667 C14.8616667,87.005 15.0933333,87.5583333 15.35,88.11 L12.8633333,92.2183333 L21.7833333,101.138333 L25.8916667,98.6516667 C26.4416667,98.9083333 26.9966667,99.14 27.55,99.345 L28.6933333,104 L41.3066667,104 L42.4516667,99.3433333 C43.005,99.1383333 43.5583333,98.9066667 44.11,98.65 L48.2183333,101.136667 L57.1383333,92.2166667 L54.6516667,88.1083333 C54.9083333,87.5583333 55.14,87.0033333 55.345,86.45 L60,85.3066667 Z" id="Path" fill-opacity="0.389723558" fill="#0ABF53"></path>
                    <path d="M88.96232,70.8042059 C91.98464,68.3414706 93.92,64.5995882 93.92,60.4117647 C93.92,53.0168529 87.89048,47 80.48,47 C73.06952,47 67.04,53.0168529 67.04,60.4117647 C67.04,64.4185294 68.81912,68.0112059 71.61968,70.4705882 L47.6528,70.4705882 C44.85896,66.323 40.16,63.7647059 35.12,63.7647059 C26.78216,63.7647059 20,70.5326176 20,78.8529412 C20,87.1732647 26.78216,93.9411765 35.12,93.9411765 C42.22808,93.9411765 48.32144,88.9905588 49.862,82.2058824 L62.84,82.2058824 C64.22936,82.2058824 65.36,83.3341471 65.36,84.7205882 L65.36,104 L104,104 L104,88.9117647 C104,79.9175 97.51016,72.4186471 88.96232,70.8042059 Z M70.4,60.4117647 C70.4,54.8643235 74.92088,50.3529412 80.48,50.3529412 C86.03912,50.3529412 90.56,54.8643235 90.56,60.4117647 C90.56,65.9592059 86.03912,70.4705882 80.48,70.4705882 C74.92088,70.4705882 70.4,65.9592059 70.4,60.4117647 Z M35.12,90.5882353 C28.63688,90.5882353 23.36,85.3224412 23.36,78.8529412 C23.36,72.3834412 28.63688,67.1176471 35.12,67.1176471 C38.22128,67.1176471 41.16296,68.3582353 43.33688,70.4705882 L41,70.4705882 C40.04744,70.4705882 39.15872,70.7203824 38.3624,71.1227353 C37.33928,70.6969118 36.23552,70.4705882 35.12,70.4705882 C30.48824,70.4705882 26.72,74.2309118 26.72,78.8529412 C26.72,83.4749706 30.48824,87.2352941 35.12,87.2352941 C38.50184,87.2352941 41.49728,85.2201765 42.81608,82.2058824 L46.38608,82.2058824 C44.92784,87.0944706 40.38512,90.5882353 35.12,90.5882353 Z M39.13352,81.8739412 C38.2028,83.1027941 36.7412,83.8823529 35.12,83.8823529 C32.34128,83.8823529 30.08,81.6258235 30.08,78.8529412 C30.08,76.0800588 32.34128,73.8235294 35.12,73.8235294 C35.30648,73.8235294 35.48624,73.8738235 35.67104,73.8956176 C35.32496,74.6416471 35.12,75.4631176 35.12,76.3382353 C35.12,78.9183235 36.8084,81.0910294 39.13352,81.8739412 Z M100.64,100.647059 L95.6,100.647059 L95.6,82.2058824 L92.24,82.2058824 L92.24,100.647059 L68.72,100.647059 L68.72,84.7205882 C68.72,81.485 66.0824,78.8529412 62.84,78.8529412 L41,78.8529412 C39.61064,78.8529412 38.48,77.7246765 38.48,76.3382353 C38.48,74.9517941 39.61064,73.8235294 41,73.8235294 L85.52,73.8235294 C93.85784,73.8235294 100.64,80.5914412 100.64,88.9117647 L100.64,100.647059 Z" id="Shape" fill="#3F536E"></path>
                    <polygon id="Path" fill-opacity="0.389723558" fill="#0ABF53" points="80 29 97 29 97 37 80 37"></polygon>
                    <path d="M92.3333333,43 L74,43 L74,31.5 C74,25.1602143 79.235,20 85.6666667,20 L92.3333333,20 C98.765,20 104,25.1602143 104,31.5 C104,37.8397857 98.765,43 92.3333333,43 Z M77.3333333,39.7142857 L92.3333333,39.7142857 C96.9283333,39.7142857 100.666667,36.0293571 100.666667,31.5 C100.666667,26.9706429 96.9283333,23.2857143 92.3333333,23.2857143 L85.6666667,23.2857143 C81.0716667,23.2857143 77.3333333,26.9706429 77.3333333,31.5 L77.3333333,39.7142857 Z" id="Shape" fill="#3F536E"></path>
                    <polygon id="Path" fill="#3F536E" points="81 34 84 34 84 37 81 37"></polygon>
                    <polygon id="Path" fill="#3F536E" points="87 34 90 34 90 37 87 37"></polygon>
                    <polygon id="Path" fill="#3F536E" points="94 34 97 34 97 37 94 37"></polygon>
                    <polygon id="Path" fill="#3F536E" points="80 27 97 27 97 30 80 30"></polygon>
                </g>
            </g>
        </g>
    </g>
</svg>