<?xml version="1.0" encoding="UTF-8"?>
<svg width="14px" height="14px" viewBox="0 0 14 14" version="1.1" xmlns="http://www.w3.org/2000/svg" xmlns:xlink="http://www.w3.org/1999/xlink">
    <!-- Generator: Sketch 63.1 (92452) - https://sketch.com -->
    <title>export</title>
    <desc>Created with Sketch.</desc>
    <g id="Page" stroke="none" stroke-width="1" fill="none" fill-rule="evenodd">
        <g id="15-Account-Manager-Candidate-wise-Jobs-Applied" transform="translate(-1133.000000, -308.000000)" fill="#0077B7" fill-rule="nonzero">
            <g id="Group-3" transform="translate(1133.000000, 301.000000)">
                <g id="export" transform="translate(0.000000, 7.000000)">
                    <path d="M9.72586558,0.978004073 L12.3063136,0.978004073 L6.40692464,6.8802444 C6.21588595,7.0712831 6.21588595,7.38207739 6.40692464,7.57311609 C6.50101833,7.66720978 6.62647658,7.71568228 6.75193483,7.71568228 C6.87739308,7.71568228 7.00285132,7.66720978 7.09694501,7.57311609 L12.9991853,1.67087576 L12.9991853,4.25132383 C12.9991853,4.52219959 13.2187373,4.74175153 13.4867617,4.74175153 C13.7576375,4.74175153 13.9771894,4.52219959 13.9771894,4.25132383 L13.9771894,0.490427699 C13.9771894,0.219551935 13.7576375,0 13.4867617,0 L9.72586558,0 C9.45498982,0 9.23543788,0.219551935 9.23543788,0.490427699 C9.23828921,0.758452138 9.45498982,0.978004073 9.72586558,0.978004073 Z" id="Path"></path>
                    <path d="M2.93401222,13.9771894 L11.0403259,13.9771894 C12.6598778,13.9771894 13.9743381,12.6598778 13.9743381,11.0431772 L13.9743381,7.22525458 C13.9743381,6.95437882 13.7547862,6.73767821 13.4839104,6.73767821 C13.2130346,6.73767821 12.996334,6.95723014 12.996334,7.22525458 L12.996334,11.0403259 C12.996334,12.1181263 12.1181263,12.996334 11.0403259,12.996334 L2.93401222,12.996334 C1.85621181,12.996334 0.978004073,12.1181263 0.978004073,11.0403259 L0.978004073,4.60203666 L0.978004073,2.93686354 C0.978004073,1.85906314 1.85621181,0.980855397 2.93401222,0.980855397 L6.71771894,0.980855397 C6.9885947,0.980855397 7.20529532,0.761303462 7.20529532,0.490427699 C7.20529532,0.219551935 6.98574338,0 6.71771894,0 L2.93401222,0 C1.31446029,0 0,1.31731161 0,2.93401222 L0,4.59918534 L0,11.0403259 C0,12.6598778 1.31731161,13.9771894 2.93401222,13.9771894 Z" id="Path"></path>
                </g>
            </g>
        </g>
    </g>
</svg>