<?xml version="1.0" encoding="UTF-8"?>
<svg width="100px" height="100px" viewBox="0 0 100 100" version="1.1" xmlns="http://www.w3.org/2000/svg" xmlns:xlink="http://www.w3.org/1999/xlink">
    <!-- Generator: Sketch 63.1 (92452) - https://sketch.com -->
    <title>hired</title>
    <desc>Created with Sketch.</desc>
    <g id="hired" stroke="none" stroke-width="1" fill="none" fill-rule="evenodd">
        <g id="leader" transform="translate(1.000000, 1.000000)" fill="#FFFFFF" fill-rule="nonzero">
            <path d="M95.1289062,29.09375 C87.2124634,29.09375 80.7734375,35.5342713 80.7734375,43.4492188 L80.7734375,58.5075073 C78.985733,57.723938 77.0410156,57.3112183 75.03125,57.3112183 L75.0290069,57.3112183 C71.1971436,57.3112183 67.5933228,58.805832 64.8807373,61.5161743 L52.0625,74.3344116 L52.0625,98 L80.7734375,98 L80.7734375,93.3718566 L98,69.0094298 L98,29.09375 L95.1289062,29.09375 Z M92.2578125,67.1858368 L74.5295562,92.2578125 L57.8046875,92.2578125 L57.8046875,76.7135314 L68.9406434,65.5775757 C70.5698394,63.9491271 72.7306366,63.0534058 75.0290069,63.0534058 C76.3381958,63.0534058 77.6002808,63.3420106 78.7464752,63.8915557 L65.9110412,76.7269897 L69.9701996,80.7868957 L86.515625,64.2414703 L86.515625,43.4492188 C86.515625,39.7055816 88.9156798,36.5129853 92.2578125,35.3279113 L92.2578125,67.1858368 Z" id="Shape"></path>
            <path d="M33.1192627,61.5161743 C30.4066772,58.805832 26.8028564,57.3112183 22.9709931,57.3112183 L22.96875,57.3112183 C20.9589844,57.3112183 19.014267,57.723938 17.2265625,58.5075073 L17.2265625,43.4492188 C17.2265625,35.5342713 10.7875366,29.09375 2.87109375,29.09375 L0,29.09375 L0,69.0094298 L17.2265625,93.3718566 L17.2265625,98 L45.9375,98 L45.9375,74.3344116 L33.1192627,61.5161743 Z M40.1953125,92.2578125 L23.4704438,92.2578125 L5.7421875,67.1858368 L5.7421875,35.3279113 C9.08432016,36.5129853 11.484375,39.7055816 11.484375,43.4492188 L11.484375,64.2414703 L28.0298004,80.7868957 L32.0889588,76.7269897 L19.2535248,63.8915557 C20.3997192,63.3420106 21.6618042,63.0534058 22.96875,63.0534058 L22.9709931,63.0534058 C25.2693634,63.0534058 27.4301606,63.9491271 29.0593566,65.5775757 L40.1953125,76.7135314 L40.1953125,92.2578125 Z" id="Shape"></path>
            <path d="M63.3554688,14.3554688 C63.3554688,6.43977351 56.9156952,0 49,0 C41.0843048,0 34.6445312,6.43977351 34.6445312,14.3554688 C34.6445312,22.271164 41.0843048,28.7109375 49,28.7109375 C56.9156952,28.7109375 63.3554688,22.271164 63.3554688,14.3554688 Z M49,22.96875 C44.2507324,22.96875 40.3867188,19.1047363 40.3867188,14.3554688 C40.3867188,9.60620117 44.2507324,5.7421875 49,5.7421875 C53.7492676,5.7421875 57.6132812,9.60620117 57.6132812,14.3554688 C57.6132812,19.1047363 53.7492676,22.96875 49,22.96875 Z" id="Shape"></path>
            <path d="M69.0976562,48.8085938 C69.0976562,37.7264709 60.0821229,28.7109375 49,28.7109375 C37.9178771,28.7109375 28.9023438,37.7264709 28.9023438,48.8085938 L28.9023438,57.421875 L69.0976562,57.421875 L69.0976562,48.8085938 Z M63.3554688,51.6796875 L34.6445312,51.6796875 L34.6445312,48.8085938 C34.6445312,40.8928985 41.0843048,34.453125 49,34.453125 C56.9156952,34.453125 63.3554688,40.8928985 63.3554688,48.8085938 L63.3554688,51.6796875 Z" id="Shape"></path>
        </g>
    </g>
</svg>