<?xml version="1.0" encoding="UTF-8"?>
<svg width="12px" height="15px" viewBox="0 0 12 15" version="1.1" xmlns="http://www.w3.org/2000/svg" xmlns:xlink="http://www.w3.org/1999/xlink">
    <!-- Generator: Sketch 63.1 (92452) - https://sketch.com -->
    <title>ic_Location</title>
    <desc>Created with Sketch.</desc>
    <g id="Page-1" stroke="none" stroke-width="1" fill="none" fill-rule="evenodd">
        <g id="01-HireDNA-Candidate-Home" transform="translate(-722.000000, -155.000000)" fill="#50B5FF">
            <g id="Group-4" transform="translate(720.000000, 152.000000)">
                <g id="Component/icon/ic_Place" transform="translate(0.000000, 2.000000)">
                    <g id="Group-2" transform="translate(2.000000, 1.333333)">
                        <g id="Group-53">
                            <path d="M6,2.51354493e-13 C9.31128691,2.51354493e-13 12,2.64504089 12,5.91337179 C12,7.52776649 11.339616,9.03977872 10.1966869,10.1395412 L6.46755848,13.8085528 C6.20812447,14.0638045 5.79192078,14.0638174 5.53247096,13.8085817 L1.79823271,10.1349639 C0.656294364,9.03059607 0,7.52277922 0,5.91337179 C0,2.64504089 2.68871309,2.51354493e-13 6,2.51354493e-13 Z M6,1.33333333 C3.42024958,1.33333333 1.33333333,3.38635224 1.33333333,5.91337179 C1.33333333,7.15676739 1.83975911,8.32026561 2.72921698,9.18049349 L5.99997469,12.398125 L9.2668705,9.18394475 C10.1571004,8.32729305 10.6666667,7.16059252 10.6666667,5.91337179 C10.6666667,3.38635224 8.57975042,1.33333333 6,1.33333333 Z M6,3.33333333 C7.47275933,3.33333333 8.66666667,4.52724067 8.66666667,6 C8.66666667,7.47275933 7.47275933,8.66666667 6,8.66666667 C4.52724067,8.66666667 3.33333333,7.47275933 3.33333333,6 C3.33333333,4.52724067 4.52724067,3.33333333 6,3.33333333 Z M6,4.66666667 C5.26362033,4.66666667 4.66666667,5.26362033 4.66666667,6 C4.66666667,6.73637967 5.26362033,7.33333333 6,7.33333333 C6.73637967,7.33333333 7.33333333,6.73637967 7.33333333,6 C7.33333333,5.26362033 6.73637967,4.66666667 6,4.66666667 Z" id="Combined-Shape"></path>
                        </g>
                    </g>
                </g>
            </g>
        </g>
    </g>
</svg>