<?xml version="1.0" encoding="UTF-8"?>
<svg width="14px" height="14px" viewBox="0 0 14 14" version="1.1" xmlns="http://www.w3.org/2000/svg" xmlns:xlink="http://www.w3.org/1999/xlink">
    <!-- Generator: Sketch 63.1 (92452) - https://sketch.com -->
    <title>ic_More</title>
    <desc>Created with Sketch.</desc>
    <g id="Page-1" stroke="none" stroke-width="1" fill="none" fill-rule="evenodd">
        <g id="01-HireDNA-Candidate-Home" transform="translate(-931.000000, -155.000000)" fill="#50B5FF">
            <g id="Group-3" transform="translate(930.000000, 152.000000)">
                <g id="Component/icon/ic_Calendar" transform="translate(0.000000, 2.000000)">
                    <path d="M5.66337498,3.86666667 C5.62992669,4.20355485 5.34568987,4.46666667 5,4.46666667 C4.65431013,4.46666667 4.37007331,4.20355485 4.33662502,3.86666667 L2.66666667,3.86666667 L2.66666667,4.93333333 L13.3333333,4.93333333 L13.3333333,3.86666667 L12.263375,3.86666667 C12.2299267,4.20355485 11.9456899,4.46666667 11.6,4.46666667 C11.2543101,4.46666667 10.9700733,4.20355485 10.936625,3.86666667 L5.66337498,3.86666667 L5.66337498,3.86666667 Z M5.66337498,3.86666667 L10.936625,3.86666667 L5.66337498,3.86666667 L5.66337498,3.86666667 Z M4.33333333,2.53333333 L4.33333333,2 C4.33333333,1.63181017 4.63181017,1.33333333 5,1.33333333 C5.36818983,1.33333333 5.66666667,1.63181017 5.66666667,2 L5.66666667,2.53333333 L10.9333333,2.53333333 L10.9333333,2 C10.9333333,1.63181017 11.2318102,1.33333333 11.6,1.33333333 C11.9681898,1.33333333 12.2666667,1.63181017 12.2666667,2 L12.2666667,2.53333333 L13.4,2.53333333 C14.0995607,2.53333333 14.6666667,3.10043932 14.6666667,3.8 L14.6666667,12.6666667 C14.6666667,13.7712362 13.7712362,14.6666667 12.6666667,14.6666667 L3.33333333,14.6666667 C2.22876383,14.6666667 1.33333333,13.7712362 1.33333333,12.6666667 L1.33333333,3.8 C1.33333333,3.10043932 1.90043932,2.53333333 2.6,2.53333333 L4.33333333,2.53333333 Z M13.3333333,6.26666667 L2.66666667,6.26666667 L2.66666667,12.6666667 C2.66666667,13.0348565 2.9651435,13.3333333 3.33333333,13.3333333 L12.6666667,13.3333333 C13.0348565,13.3333333 13.3333333,13.0348565 13.3333333,12.6666667 L13.3333333,6.26666667 L13.3333333,6.26666667 Z M4.4,8.66666667 C4.03181017,8.66666667 3.73333333,8.36818983 3.73333333,8 C3.73333333,7.63181017 4.03181017,7.33333333 4.4,7.33333333 L6.8,7.33333333 C7.16818983,7.33333333 7.46666667,7.63181017 7.46666667,8 C7.46666667,8.36818983 7.16818983,8.66666667 6.8,8.66666667 L4.4,8.66666667 Z M4.4,11.0666667 C4.03181017,11.0666667 3.73333333,10.7681898 3.73333333,10.4 C3.73333333,10.0318102 4.03181017,9.73333333 4.4,9.73333333 L9.2,9.73333333 C9.56818983,9.73333333 9.86666667,10.0318102 9.86666667,10.4 C9.86666667,10.7681898 9.56818983,11.0666667 9.2,11.0666667 L4.4,11.0666667 Z" id="Shape"></path>
                </g>
            </g>
        </g>
    </g>
</svg>