<?xml version="1.0" encoding="UTF-8"?>
<svg width="14px" height="14px" viewBox="0 0 14 14" version="1.1" xmlns="http://www.w3.org/2000/svg" xmlns:xlink="http://www.w3.org/1999/xlink">
    <!-- Generator: Sketch 63.1 (92452) - https://sketch.com -->
    <title>ic_Salary</title>
    <desc>Created with Sketch.</desc>
    <g id="Page-1" stroke="none" stroke-width="1" fill="none" fill-rule="evenodd">
        <g id="01-HireDNA-Candidate-Home" transform="translate(-1116.000000, -155.000000)" fill="#50B5FF">
            <g id="Group-5" transform="translate(1115.000000, 152.000000)">
                <g id="Component/icon/ic_Administration" transform="translate(0.000000, 2.000000)">
                    <path d="M14.6666667,3.33333333 L14.6666667,12.7878788 C14.6666667,13.8240132 13.8324397,14.6666667 12.8,14.6666667 L3.2,14.6666667 C2.16756029,14.6666667 1.33333333,13.8240132 1.33333333,12.7878788 L1.33333333,3.33333333 C1.33333333,2.22876383 2.22876383,1.33333333 3.33333333,1.33333333 L12.6666667,1.33333333 C13.7712362,1.33333333 14.6666667,2.22876383 14.6666667,3.33333333 Z M13.3333333,11.8861962 C13.124814,11.9598972 12.9004236,12 12.6666667,12 L3.33333333,12 C3.09957638,12 2.87518595,11.9598972 2.66666667,11.8861962 L2.66666667,12.7878788 C2.66666667,13.0906165 2.90695631,13.3333333 3.2,13.3333333 L12.8,13.3333333 C13.0930437,13.3333333 13.3333333,13.0906165 13.3333333,12.7878788 L13.3333333,11.8861962 L13.3333333,11.8861962 Z M13.3333333,10 L13.3333333,3.33333333 C13.3333333,2.9651435 13.0348565,2.66666667 12.6666667,2.66666667 L3.33333333,2.66666667 C2.9651435,2.66666667 2.66666667,2.9651435 2.66666667,3.33333333 L2.66666667,10 C2.66666667,10.3681898 2.9651435,10.6666667 3.33333333,10.6666667 L12.6666667,10.6666667 C13.0348565,10.6666667 13.3333333,10.3681898 13.3333333,10 Z M8.66666667,4 L9.30206862,4 C9.67025846,4 9.96873529,4.29847683 9.96873529,4.66666667 L9.96873529,4.9694987 C9.96873529,5.33768853 9.67025846,5.63616536 9.30206862,5.63616536 C9.06811982,5.63616536 8.8623167,5.51565936 8.74334527,5.33333333 L7.34263143,5.33333333 L7.34263143,6.00060535 L8.66667123,6.00060535 C9.4030509,6.00060535 10,6.59755901 10,7.33393868 L10,8 C10,8.73637967 9.4030509,9.33333333 8.66667123,9.33333333 C8.66350589,9.69883461 8.36624153,9.99416097 8,9.99416097 C7.63375847,9.99416097 7.33649411,9.69883461 7.33335837,9.33333333 L6.66667123,9.33333333 C6.29186713,9.33333333 5.99072267,9.02446004 6.00021856,8.64977626 L6.00951209,8.28307704 C6.01884041,7.9150054 6.32478352,7.62418647 6.69285517,7.63351478 C6.94704495,7.6399569 7.16439087,7.78786248 7.2714793,8 L8.66667123,8 L8.66667123,7.33393868 L7.34263143,7.33393868 C6.60625176,7.33393868 6.0092981,6.73698501 6.0092981,6.00060535 L6.0092981,5.33333333 C6.0092981,4.60005303 6.60123727,4.00502753 7.33334078,4.00003169 C7.33333333,3.63181017 7.63181017,3.33333333 8,3.33333333 C8.36818983,3.33333333 8.66666667,3.63181017 8.66666667,4 Z" id="Shape"></path>
                </g>
            </g>
        </g>
    </g>
</svg>