<?xml version="1.0" encoding="UTF-8"?>
<svg width="36px" height="36px" viewBox="0 0 36 36" version="1.1" xmlns="http://www.w3.org/2000/svg" xmlns:xlink="http://www.w3.org/1999/xlink">
    <!-- Generator: Sketch 63.1 (92452) - https://sketch.com -->
    <title>icon-cross-grey</title>
    <desc>Created with Sketch.</desc>
    <g id="icon-cross-grey" stroke="none" stroke-width="1" fill="none" fill-rule="evenodd">
        <g id="icon-cross-black" transform="translate(9.000000, 9.000000)" fill="#788CA2" fill-rule="nonzero">
            <path d="M17.7363072,0.263692763 C17.3847169,-0.0878975876 16.8151861,-0.0878975876 16.4636801,0.263692763 L8.99995781,7.72741506 L1.53631989,0.263777138 C1.18472954,-0.0878132126 0.615198738,-0.0878132126 0.263692763,0.263777138 C-0.0878975876,0.615367488 -0.0878975876,1.18489829 0.263692763,1.53640427 L7.72733068,9.00004219 L0.263692763,16.4636801 C-0.0878975876,16.8152705 -0.0878975876,17.3848013 0.263692763,17.7363072 C0.43944575,17.9120602 0.66978932,17.9999789 0.900048516,17.9999789 C1.13030771,17.9999789 1.36056691,17.9120602 1.53640427,17.7363072 L8.99995781,10.2726693 L16.4635957,17.7363072 C16.6393487,17.9120602 16.8696923,17.9999789 17.0999515,17.9999789 C17.3302107,17.9999789 17.5604699,17.9120602 17.7363072,17.7363072 C18.0878976,17.3847169 18.0878976,16.8151861 17.7363072,16.4636801 L10.2725849,9.00004219 L17.7362229,1.53640427 C18.0878132,1.18481392 18.0878132,0.615283113 17.7363072,0.263692763 Z" id="Path"></path>
        </g>
    </g>
</svg>