<?xml version="1.0" encoding="UTF-8"?>
<svg width="12px" height="16px" viewBox="0 0 12 16" version="1.1" xmlns="http://www.w3.org/2000/svg" xmlns:xlink="http://www.w3.org/1999/xlink">
    <!-- Generator: Sketch 63.1 (92452) - https://sketch.com -->
    <title>Shape</title>
    <desc>Created with Sketch.</desc>
    <g id="Page-1" stroke="none" stroke-width="1" fill="none" fill-rule="evenodd">
        <g id="03-HireDNA-Candidate-Home-Detail-job-information" transform="translate(-211.000000, -506.000000)" fill="#5D6970" fill-rule="nonzero">
            <g id="Group-10" transform="translate(211.000000, 505.000000)">
                <path d="M6,1 C2.69140625,1 0,3.69171875 0,7 C0,11.4264375 5.5358125,16.6875 5.7715,16.9095 C5.8359375,16.9697187 5.91796875,17 6,17 C6.08203125,17 6.1640625,16.9697187 6.22853125,16.9095 C6.4641875,16.6875 12,11.4264375 12,7 C12,3.69171875 9.30859375,1 6,1 Z M6,10.3333437 C4.16209375,10.3333437 2.66665625,8.83790625 2.66665625,7 C2.66665625,5.16209375 4.162125,3.66665625 6,3.66665625 C7.837875,3.66665625 9.33334375,5.162125 9.33334375,7 C9.33334375,8.837875 7.83790625,10.3333437 6,10.3333437 Z" id="Shape"></path>
            </g>
        </g>
    </g>
</svg>