<?xml version="1.0" encoding="UTF-8"?>
<svg width="22px" height="16px" viewBox="0 0 22 16" version="1.1" xmlns="http://www.w3.org/2000/svg" xmlns:xlink="http://www.w3.org/1999/xlink">
    <!-- Generator: Sketch 63.1 (92452) - https://sketch.com -->
    <title>Match</title>
    <desc>Created with Sketch.</desc>
    <g id="Employer-Module" stroke="none" stroke-width="1" fill="none" fill-rule="evenodd">
        <g id="06-Employer-Search-Candidates" transform="translate(-949.000000, -217.000000)" fill="#50B5FF" fill-rule="nonzero">
            <g id="Group-6" transform="translate(172.000000, 119.000000)">
                <g id="Group-10" transform="translate(0.000000, 77.000000)">
                    <g id="Group-5" transform="translate(777.000000, 17.000000)">
                        <g id="Match" transform="translate(0.000000, 4.000000)">
                            <g id="Group-3">
                                <path d="M7.81752484,5.71592156e-13 C12.1369588,5.71592156e-13 15.6350497,3.56604136 15.6350497,7.96074707 C15.6350497,12.3554528 12.1369588,15.9214941 7.81752484,15.9214941 C3.49809088,15.9214941 -3.63166287e-14,12.3554528 -3.63166287e-14,7.96074707 C-3.63166287e-14,3.56604136 3.49809088,5.71592156e-13 7.81752484,5.71592156e-13 Z M7.81752484,1.69927192 C4.43191303,1.69927192 1.68383017,4.50073634 1.68383017,7.96074707 C1.68383017,11.4207578 4.43191303,14.2222222 7.81752484,14.2222222 C11.2031367,14.2222222 13.9512195,11.4207578 13.9512195,7.96074707 C13.9512195,4.50073634 11.2031367,1.69927192 7.81752484,1.69927192 Z" id="Oval"></path>
                                <path d="M13.4218609,5.71592156e-13 C17.7412949,5.71592156e-13 21.2393857,3.56604136 21.2393857,7.96074707 C21.2393857,12.3554528 17.7412949,15.9214941 13.4218609,15.9214941 C9.10242692,15.9214941 5.60433604,12.3554528 5.60433604,7.96074707 C5.60433604,3.56604136 9.10242692,5.71592156e-13 13.4218609,5.71592156e-13 Z M13.4218609,1.69927192 C10.0362491,1.69927192 7.28816621,4.50073634 7.28816621,7.96074707 C7.28816621,11.4207578 10.0362491,14.2222222 13.4218609,14.2222222 C16.8074727,14.2222222 19.5555556,11.4207578 19.5555556,7.96074707 C19.5555556,4.50073634 16.8074727,1.69927192 13.4218609,1.69927192 Z" id="Oval"></path>
                                <polygon id="Line-Copy" points="15.0704452 8.36725114 15.0704452 9.0339178 6.24395738 9.0339178 6.24395738 8.36725114"></polygon>
                                <polygon id="Line" points="15.0704452 7.47836225 15.0704452 8.14502891 6.24395738 8.14502891 6.24395738 7.47836225"></polygon>
                                <polygon id="Line-Copy-3" points="15.0704452 6.58947336 15.0704452 7.25614003 6.24395738 7.25614003 6.24395738 6.58947336"></polygon>
                                <polygon id="Line-Copy-4" points="15.0704452 5.70058447 15.0704452 6.36725114 6.24395738 6.36725114 6.24395738 5.70058447"></polygon>
                                <polygon id="Line-Copy-5" points="14.7077774 4.81169558 14.7077774 5.47836225 6.24395738 5.47836225 6.24395738 4.81169558"></polygon>
                                <polygon id="Line-Copy-6" points="14.1734417 3.92280669 14.1734417 4.58947336 7.06594399 4.58947336 7.06594399 3.92280669"></polygon>
                                <polygon id="Line-Copy-7" points="13.6440831 3.0339178 13.6440831 3.70058447 7.78099415 3.70058447 7.78099415 3.0339178"></polygon>
                                <polygon id="Line-Copy-2" points="15.0704452 9.25614003 15.0704452 9.92280669 6.24395738 9.92280669 6.24395738 9.25614003"></polygon>
                                <polygon id="Line-Copy-8" points="15.0704452 10.1450289 15.0704452 10.8116956 6.24395738 10.8116956 6.24395738 10.1450289"></polygon>
                                <polygon id="Line-Copy-9" points="14.1734417 11.0339178 14.1734417 11.7005845 6.58709153 11.7005845 6.58709153 11.0339178"></polygon>
                                <polygon id="Line-Copy-10" points="13.8222513 11.9228067 13.8222513 12.5894734 7.06594399 12.5894734 7.06594399 11.9228067"></polygon>
                                <polygon id="Line-Copy-11" points="13.4149925 12.8116956 13.4149925 13.4783622 7.78099415 13.4783622 7.78099415 12.8116956"></polygon>
                            </g>
                        </g>
                    </g>
                </g>
            </g>
        </g>
    </g>
</svg>