<?xml version="1.0" encoding="UTF-8"?>
<svg width="26px" height="11px" viewBox="0 0 26 11" version="1.1" xmlns="http://www.w3.org/2000/svg" xmlns:xlink="http://www.w3.org/1999/xlink">
    <!-- Generator: Sketch 63.1 (92452) - https://sketch.com -->
    <title>Group 3</title>
    <desc>Created with Sketch.</desc>
    <g id="Page" stroke="none" stroke-width="1" fill="none" fill-rule="evenodd">
        <g id="02-HireDNA-Application-Status" transform="translate(-1219.000000, -1221.000000)" fill="#000000">
            <g id="Group-30" transform="translate(1126.000000, 1216.000000)">
                <g id="Group-3" transform="translate(92.000000, 4.000000)">
                    <g id="select-dropdown" transform="translate(4.000000, 6.500000) rotate(90.000000) translate(-4.000000, -6.500000) translate(-2.000000, 3.000000)">
                        <g id="down-arrow(1)" transform="translate(0.545455, 0.000000)">
                            <path d="M10.7845952,0.158742898 C10.6183381,-0.0356214489 10.3485511,-0.0359197443 10.1819318,0.158022017 L5.75586648,5.31105114 C5.5896946,5.50489347 5.319375,5.50486861 5.15290483,5.31067827 L0.727159091,0.158022017 C0.56056108,-0.0359446023 0.290774148,-0.0356214489 0.124495739,0.158742898 C-0.0417400568,0.353107244 -0.0414630682,0.667883523 0.125113636,0.861825284 L4.55056108,6.01413352 C4.79987216,6.30494673 5.12725142,6.45031605 5.4546733,6.45031605 C5.78190341,6.45031605 6.10919744,6.30499645 6.35818892,6.01448153 L10.7839773,0.861825284 C10.950554,0.667883523 10.950831,0.353107244 10.7845952,0.158742898 Z" id="Path" fill-rule="nonzero"></path>
                        </g>
                    </g>
                    <g id="select-dropdown" transform="translate(24.000000, 6.500000) scale(-1, 1) rotate(90.000000) translate(-24.000000, -6.500000) translate(18.000000, 3.000000)">
                        <g id="down-arrow(1)" transform="translate(0.545455, 0.000000)">
                            <path d="M10.7845952,0.158742898 C10.6183381,-0.0356214489 10.3485511,-0.0359197443 10.1819318,0.158022017 L5.75586648,5.31105114 C5.5896946,5.50489347 5.319375,5.50486861 5.15290483,5.31067827 L0.727159091,0.158022017 C0.56056108,-0.0359446023 0.290774148,-0.0356214489 0.124495739,0.158742898 C-0.0417400568,0.353107244 -0.0414630682,0.667883523 0.125113636,0.861825284 L4.55056108,6.01413352 C4.79987216,6.30494673 5.12725142,6.45031605 5.4546733,6.45031605 C5.78190341,6.45031605 6.10919744,6.30499645 6.35818892,6.01448153 L10.7839773,0.861825284 C10.950554,0.667883523 10.950831,0.353107244 10.7845952,0.158742898 Z" id="Path" fill-rule="nonzero"></path>
                        </g>
                    </g>
                </g>
            </g>
        </g>
    </g>
</svg>