<?xml version="1.0" encoding="UTF-8"?>
<svg width="18px" height="18px" viewBox="0 0 18 18" version="1.1" xmlns="http://www.w3.org/2000/svg" xmlns:xlink="http://www.w3.org/1999/xlink">
    <!-- Generator: Sketch 63.1 (92452) - https://sketch.com -->
    <title>correct-icon</title>
    <desc>Created with Sketch.</desc>
    <g id="Symbols" stroke="none" stroke-width="1" fill="none" fill-rule="evenodd">
        <g id="earning-list" transform="translate(-1013.000000, -16.000000)" fill="#0ABF53" fill-rule="nonzero">
            <g id="Group" transform="translate(978.000000, 13.000000)">
                <g id="correct-icon" transform="translate(35.000000, 3.000000)">
                    <path d="M8.95210714,-9.59232693e-15 C13.8882857,-9.59232693e-15 17.9038929,4.01592857 17.9042143,8.95210714 C17.9042143,13.8882857 13.8882857,17.9042143 8.95210714,17.9042143 C4.01592857,17.9042143 -9.59232693e-15,13.8882857 -9.59232693e-15,8.95210714 C-9.59232693e-15,4.01592857 4.01592857,-9.59232693e-15 8.95210714,-9.59232693e-15 Z M8.95210714,1.44257143 C4.81146429,1.44257143 1.44289286,4.81114286 1.44289286,8.95178571 C1.44289286,13.09275 4.81146429,16.4613214 8.95210714,16.4613214 C13.09275,16.4613214 16.4613214,13.09275 16.4613214,8.95210714 C16.4613214,4.81146429 13.09275,1.44257143 8.95210714,1.44257143 Z M11.80575,6.0975 C12.0876429,5.81592857 12.5440714,5.81592857 12.8259643,6.0975 C13.1075357,6.37939286 13.1075357,6.83582143 12.8259643,7.11771429 L12.8259643,7.11771429 L8.13728571,11.8063929 C7.9965,11.9475 7.812,12.0178929 7.6275,12.0178929 C7.443,12.0178929 7.25817857,11.9471786 7.11739286,11.8063929 L7.11739286,11.8063929 L5.07825,9.76725 C4.79635714,9.48567857 4.79635714,9.02892857 5.07825,8.74735714 C5.35982143,8.46546429 5.81657143,8.46546429 6.09814286,8.74735714 L6.09814286,8.74735714 L7.62717857,10.2763929 Z" id="Combined-Shape"></path>
                </g>
            </g>
        </g>
    </g>
</svg>