<?xml version="1.0" encoding="UTF-8"?>
<svg width="100px" height="100px" viewBox="0 0 100 100" version="1.1" xmlns="http://www.w3.org/2000/svg" xmlns:xlink="http://www.w3.org/1999/xlink">
    <!-- Generator: Sketch 63.1 (92452) - https://sketch.com -->
    <title>pending-approval</title>
    <desc>Created with Sketch.</desc>
    <g id="pending-approval" stroke="none" stroke-width="1" fill="none" fill-rule="evenodd">
        <g id="user(5)" transform="translate(5.000000, 0.000000)" fill="#FFFFFF" fill-rule="nonzero">
            <path d="M6.54630169,73.391914 C6.54630169,58.0526327 18.9792273,45.5711099 34.2599495,45.5711099 C40.7856727,45.5711099 46.8499321,47.7683662 51.7992623,51.9262752 L56,46.8854878 C49.8582799,41.7263986 42.3407105,39 34.2601437,39 C15.3690546,39 0,54.4291283 0,73.3930834 L0,89.7138603 C0,91.5289258 1.46534653,93 3.27334498,93 L55.4272957,93 L55.4272957,86.4265513 L6.54630169,86.4265513 L6.54630169,73.391914 Z" id="Path"></path>
            <path d="M34.5,0 C22.0932836,0 12,10.0932836 12,22.5 C12,34.9067164 22.0932836,45 34.5,45 C46.9067164,45 57,34.9067164 57,22.5 C57,10.0932836 46.9067164,0 34.5,0 Z M34.5,38.446634 C25.7074394,38.446634 18.553366,31.2925606 18.553366,22.5 C18.553366,13.7074394 25.7074394,6.55336598 34.5,6.55336598 C43.2925606,6.55336598 50.446634,13.7074394 50.446634,22.5 C50.446634,31.2925606 43.2923663,38.446634 34.5,38.446634 Z" id="Shape"></path>
            <path d="M89.2918564,50.5197835 L68.7626036,39.3890841 C67.7955848,38.8642563 66.6286257,38.8706637 65.6648751,39.406559 L45.6758456,50.5372583 C44.6417314,51.1123749 44,52.2111543 44,53.4039095 L44,69.1178722 C44,81.8494614 51.5062195,93.3925671 63.116021,98.522599 L65.8171373,99.7229266 C66.2331669,99.9073833 66.677265,100 67.1223243,100 C67.5437369,100 67.963996,99.9159266 68.3606083,99.7512747 L71.4940955,98.4427972 C71.498325,98.4406614 71.5027467,98.4394964 71.5069762,98.4373606 C83.3480548,93.4329534 91,81.838394 91,68.8994366 L91,53.4048803 C91,52.1981452 90.3442343,51.0906284 89.2918564,50.5197835 Z M84.5182822,68.8996308 C84.5182822,79.1890134 78.4318309,88.4110714 69.0123367,92.3951418 L67.1625047,93.1667533 L65.7212044,92.5273681 C56.4647384,88.4363129 50.4830636,79.2480396 50.4830636,69.1180664 L50.4830636,55.3377923 L67.2520933,46.000012 L84.5182822,55.3618687 L84.5182822,68.8996308 Z" id="Shape"></path>
            <path d="M79.2490261,62.2058733 C78.0854397,60.7998825 75.995826,60.5936184 74.5787384,61.7441697 L64.2727722,70.1133767 L60.8514898,66.1114252 C59.665663,64.7263144 57.5729002,64.5518584 56.1735262,65.7275828 C54.7753331,66.9033073 54.6017399,68.9794124 55.7863858,70.365694 L61.3171605,76.8363742 C61.973154,77.6040589 62.9078413,78 63.8513854,78 C64.5914201,78 65.3357847,77.756464 65.952021,77.255342 L78.7833554,66.836374 C80.201427,65.6846518 80.4104474,63.6106933 79.2490261,62.2058733 Z" id="Path"></path>
        </g>
    </g>
</svg>