<?xml version="1.0" encoding="UTF-8"?>
<svg width="25px" height="25px" viewBox="0 0 25 25" version="1.1" xmlns="http://www.w3.org/2000/svg" xmlns:xlink="http://www.w3.org/1999/xlink">
    <!-- Generator: Sketch 63.1 (92452) - https://sketch.com -->
    <title>Logo</title>
    <desc>Created with Sketch.</desc>
    <g id="Page" stroke="none" stroke-width="1" fill="none" fill-rule="evenodd">
        <g id="00-HireDNA-Candidate-Dashboard" transform="translate(-934.000000, -525.000000)">
            <g id="Group-3" transform="translate(914.000000, 357.000000)">
                <g id="#2" transform="translate(20.000000, 133.000000)">
                    <g id="Logo" transform="translate(0.000000, 35.000000)">
                        <path d="M12.5,0.5 C9.188,0.5 6.18803972,1.84406706 4.01605339,4.01605339 C1.84406706,6.18803972 0.5,9.188 0.5,12.5 C0.5,15.812 1.84406706,18.8119603 4.01605339,20.9839466 C6.18803972,23.1559329 9.188,24.5 12.5,24.5 C15.812,24.5 18.8119603,23.1559329 20.9839466,20.9839466 C23.1559329,18.8119603 24.5,15.812 24.5,12.5 C24.5,9.188 23.1559329,6.18803972 20.9839466,4.01605339 C18.8119603,1.84406706 15.812,0.5 12.5,0.5 Z" id="Oval" stroke-opacity="0.05" stroke="#000000" fill="#CA3737"></path>
                        <path d="M12.7384966,6 C9.01045376,6 6.01673726,8.9937165 6.01673726,12.7217594 C6.01673726,15.4895369 7.65481969,17.8054223 10.0272004,18.8786502 C10.0272004,18.4267581 10.0272004,17.8619176 10.1401769,17.3535443 C10.2531535,16.7886897 10.9874517,13.6820107 10.9874517,13.6820107 C10.9874517,13.6820107 10.7615127,13.2301327 10.7615127,12.6087828 C10.7615127,11.5920503 11.3263813,10.8577379 12.0606796,10.8577379 C12.6820154,10.8577379 12.9644357,11.309616 12.9644357,11.8744846 C12.9644357,12.4958204 12.5690389,13.3995905 12.3995811,14.2468653 C12.2301233,14.9811636 12.7949779,15.5460181 13.4727949,15.5460181 C14.7719618,15.5460181 15.6192507,13.9079497 15.6192507,11.9874611 C15.6192507,10.5188364 14.602504,9.44562263 12.8514732,9.44562263 C10.8179799,9.44562263 9.57530832,10.9707145 9.57530832,12.6652781 C9.57530832,13.2301327 9.74476609,13.6820107 10.0271863,13.964445 C10.1401769,14.1339028 10.1966582,14.19037 10.1401769,14.3598418 C10.0836957,14.4728183 10.0271863,14.7552526 10.0271863,14.9247104 C9.97071916,15.0941541 9.85774262,15.1506354 9.68828485,15.0941541 C8.72803351,14.6987574 8.33263673,13.6820248 8.33263673,12.5523157 C8.33263673,10.631813 9.91422386,8.37239476 13.1338934,8.37239476 C15.6757319,8.37239476 17.3702956,10.2364162 17.3702956,12.2134001 C17.3702956,14.8682011 15.9016709,16.7887038 13.7552433,16.7887038 C13.0209309,16.7887038 12.3430999,16.393307 12.1171608,15.9414289 C12.1171608,15.9414289 11.7217641,17.4665348 11.6652828,17.8054504 C11.4958251,18.3138096 11.269872,18.822183 10.9874517,19.2175797 C11.6088016,19.3870375 12.2301374,19.5 12.9079544,19.5 C16.6359973,19.5 19.6297138,16.5062835 19.6297138,12.7782547 C19.460256,8.99373055 16.4665395,6 12.7384966,6" id="Icon" fill="#FFFFFF"></path>
                    </g>
                </g>
            </g>
        </g>
    </g>
</svg>