<?xml version="1.0" encoding="UTF-8"?>
<svg width="100px" height="100px" viewBox="0 0 100 100" version="1.1" xmlns="http://www.w3.org/2000/svg" xmlns:xlink="http://www.w3.org/1999/xlink">
    <!-- Generator: Sketch 63.1 (92452) - https://sketch.com -->
    <title>rejected</title>
    <desc>Created with Sketch.</desc>
    <g id="rejected" stroke="none" stroke-width="1" fill="none" fill-rule="evenodd">
        <path d="M50,2 C76.4682616,2 98,23.5317384 98,50 C98,76.4682616 76.4682616,98 50,98 C23.5317384,98 2,76.4682616 2,50 C2,23.5317384 23.5317384,2 50,2 Z M50,8 C26.8400879,8 8,26.8400879 8,50 C8,73.1599121 26.8400879,92 50,92 C73.1599121,92 92,73.1599121 92,50 C92,26.8400879 73.1599121,8 50,8 Z M66.9760741,33.0239259 C68.1479491,34.1958009 68.1479491,36.0957031 66.9760741,37.2683105 L54.2428648,50.0000196 L66.9716797,62.7280272 C68.1442871,63.8999022 68.1442871,65.7998047 66.9716797,66.9716797 C66.3842773,67.5561522 65.6159668,67.8476562 64.8476563,67.8476562 C64.0800781,67.8476562 63.3117676,67.5561522 62.7280273,66.9680176 L50.0008648,54.2420196 L37.2756348,66.9680176 C36.6838379,67.5561522 35.9162598,67.8476562 35.1523438,67.8476562 C34.3840333,67.8476562 33.6157228,67.5561522 33.0319824,66.9680176 C31.8601074,65.7961426 31.8601074,63.8962402 33.0319824,62.7243652 L45.7568648,49.9980196 L33.0283203,37.2719727 C31.8557129,36.1000977 31.8557129,34.2001953 33.0283203,33.0283203 C34.2001953,31.8557129 36.1000978,31.8557129 37.2719728,33.0283203 L49.9988648,45.7560196 L62.7316895,33.0239259 C63.9042969,31.8520509 65.8041991,31.8520509 66.9760741,33.0239259 Z" id="Icon/Request-Deny" stroke="#FFFFFF" stroke-width="1.125" fill="#FFFFFF"></path>
    </g>
</svg>