<?xml version="1.0" encoding="UTF-8"?>
<svg width="85px" height="85px" viewBox="0 0 85 85" version="1.1" xmlns="http://www.w3.org/2000/svg" xmlns:xlink="http://www.w3.org/1999/xlink">
    <!-- Generator: Sketch 64 (93537) - https://sketch.com -->
    <title>request-deny</title>
    <desc>Created with Sketch.</desc>
    <g id="Page" stroke="none" stroke-width="1" fill="none" fill-rule="evenodd">
        <g id="7.1-Account-Manager-Recruiter-Reject-Candidate" transform="translate(-678.000000, -495.000000)" fill="#FC5A5A">
            <g id="Group-36">
                <g id="Group-4" transform="translate(401.000000, 384.000000)">
                    <g id="Group-3">
                        <g id="request-deny" transform="translate(277.000000, 111.000000)">
                            <path d="M42.5,0 C65.93544,0 85,19.06456 85,42.5 C85,65.93544 65.93544,85 42.5,85 C19.06456,85 0,65.93544 0,42.5 C0,19.06456 19.06456,0 42.5,0 Z M42.5,5.3125 C21.9938279,5.3125 5.3125,21.9938279 5.3125,42.5 C5.3125,63.0061721 21.9938279,79.6875 42.5,79.6875 C63.0061721,79.6875 79.6875,63.0061721 79.6875,42.5 C79.6875,21.9938279 63.0061721,5.3125 42.5,5.3125 Z M57.530899,27.469101 C58.5684966,28.5066987 58.5684966,30.1889038 57.530899,31.2271499 L46.2573074,42.4999028 L57.5270081,53.7696075 C58.5652542,54.8072051 58.5652542,56.4894104 57.5270081,57.5270081 C57.0069121,58.0445098 56.3266372,58.3026123 55.6463623,58.3026123 C54.9667358,58.3026123 54.2864609,58.0445098 53.7696075,57.5237656 L42.5003074,46.2559028 L31.233635,57.5237656 C30.7096482,58.0445098 30.0300217,58.3026123 29.3536377,58.3026123 C28.6733628,58.3026123 27.9930879,58.0445098 27.4762344,57.5237656 C26.4386367,56.4861679 26.4386367,54.8039627 27.4762344,53.766365 L38.7423074,42.4989028 L27.4729919,31.2303925 C26.4347458,30.1927949 26.4347458,28.5105896 27.4729919,27.4729919 C28.5105896,26.4347458 30.1927949,26.4347458 31.2303925,27.4729919 L42.4993074,38.7419028 L53.7728501,27.469101 C54.8110962,26.4315034 56.4933013,26.4315034 57.530899,27.469101 Z" id="Icon/Request-Deny"></path>
                        </g>
                    </g>
                </g>
            </g>
        </g>
    </g>
</svg>