<?xml version="1.0" encoding="UTF-8"?>
<svg width="100px" height="100px" viewBox="0 0 100 100" version="1.1" xmlns="http://www.w3.org/2000/svg" xmlns:xlink="http://www.w3.org/1999/xlink">
    <!-- Generator: Sketch 63.1 (92452) - https://sketch.com -->
    <title>shutdown1 copy 4</title>
    <desc>Created with Sketch.</desc>
    <g id="shutdown1-copy-4" stroke="none" stroke-width="1" fill="none" fill-rule="evenodd">
        <path d="M49.525095,-0.475 C56.2106963,-0.487952846 62.8301693,0.848390258 68.987095,3.4540958 C74.9282313,5.96364877 80.325728,9.60262046 84.880095,14.1690958 C89.446531,18.7234953 93.0854972,24.1209838 95.595095,30.0620958 C98.2007479,36.2190378 99.5370888,42.8384999 99.52419,49.5240958 C99.5371685,56.2100228 98.2008271,62.8298276 95.595095,68.9870958 C93.0854972,74.9282078 89.446531,80.3256963 84.880095,84.8800958 C80.325728,89.4465711 74.9282313,93.0855428 68.987095,95.5950958 C62.8314886,98.2006431 56.2134212,99.5373172 49.529095,99.5251916 C42.8431625,99.5382242 36.2233469,98.2018806 30.066095,95.5960958 C24.1250073,93.0864532 18.7275269,89.4474925 14.173095,84.8810958 C9.60517582,80.3267056 5.9648375,74.9288572 3.454095,68.9870958 C0.848362942,62.8298276 -0.487978467,56.2100228 -0.475,49.5240958 C-0.487898757,42.8384999 0.848442155,36.2190378 3.454095,30.0620958 C5.9637376,24.1210081 9.60269828,18.7235277 14.169095,14.1690958 C18.7235269,9.60269907 24.1210073,5.96373839 30.062095,3.4540958 C36.2193469,0.848311044 42.8391625,-0.488032557 49.525095,-0.475 Z M73.0876,19.525 L49.6534,42.9556 L27.1204,20.4304 L20.4262,27.1204 L42.9592,49.6534 L19.525,73.0876 L25.9624,79.525 L49.3984,56.0908 L71.9296,78.6184 L78.6238,71.9314 L56.0908,49.3984 L79.525,25.9624 L73.0876,19.525 Z" id="Combined-Shape" fill="#000000" fill-rule="nonzero"></path>
    </g>
</svg>