<?xml version="1.0" encoding="UTF-8"?>
<svg width="650px" height="170px" viewBox="0 0 650 170" version="1.1" xmlns="http://www.w3.org/2000/svg" xmlns:xlink="http://www.w3.org/1999/xlink">
    <!-- Generator: Sketch 63.1 (92452) - https://sketch.com -->
    <title>undraw_organize_resume_utk5</title>
    <desc>Created with Sketch.</desc>
    <defs>
        <polygon id="path-1" points="0 -1.6611712e-13 650 -1.86517468e-13 650 170 0 170"></polygon>
        <linearGradient x1="50%" y1="100%" x2="50%" y2="0%" id="linearGradient-3">
            <stop stop-color="#808080" stop-opacity="0.25" offset="0%"></stop>
            <stop stop-color="#808080" stop-opacity="0.12" offset="54%"></stop>
            <stop stop-color="#808080" stop-opacity="0.1" offset="100%"></stop>
        </linearGradient>
        <linearGradient x1="49.9983815%" y1="99.9650755%" x2="49.9983815%" y2="0.00516764778%" id="linearGradient-4">
            <stop stop-color="#808080" stop-opacity="0.25" offset="0%"></stop>
            <stop stop-color="#808080" stop-opacity="0.12" offset="54%"></stop>
            <stop stop-color="#808080" stop-opacity="0.1" offset="100%"></stop>
        </linearGradient>
        <linearGradient x1="49.9975244%" y1="100%" x2="49.9975244%" y2="0%" id="linearGradient-5">
            <stop stop-color="#808080" stop-opacity="0.25" offset="0%"></stop>
            <stop stop-color="#808080" stop-opacity="0.12" offset="54%"></stop>
            <stop stop-color="#808080" stop-opacity="0.1" offset="100%"></stop>
        </linearGradient>
        <linearGradient x1="49.9926407%" y1="100.000845%" x2="49.9926407%" y2="-0.00700073374%" id="linearGradient-6">
            <stop stop-color="#808080" stop-opacity="0.25" offset="0%"></stop>
            <stop stop-color="#808080" stop-opacity="0.12" offset="54%"></stop>
            <stop stop-color="#808080" stop-opacity="0.1" offset="100%"></stop>
        </linearGradient>
    </defs>
    <g id="Page-1" stroke="none" stroke-width="1" fill="none" fill-rule="evenodd">
        <g id="03-HireDNA-Candidate-Home-Detail-job-information" transform="translate(-180.000000, -172.000000)">
            <g id="undraw_organize_resume_utk5" transform="translate(180.000000, 172.000000)">
                <mask id="mask-2" fill="white">
                    <use xlink:href="#path-1"></use>
                </mask>
                <use id="Mask" fill="#C3C3C3" xlink:href="#path-1"></use>
                <g mask="url(#mask-2)">
                    <g transform="translate(32.000000, -173.000000)">
                        <path d="M16.7684847,271.991942 C9.73708379,273.135311 0.918535088,276.407103 1,284.01197 C1.0415846,287.870105 3.60218645,291.159489 6.09247429,293.979798 C16.6772016,306.048868 28.7528518,316.721889 42.0287927,325.741988 C48.3687725,330.039881 55.183372,334.150144 59.396353,340.793408 C63.6093341,347.436672 64.6699037,355.891736 65.0038953,363.936359 C65.825452,382.982952 63.5819407,402.037865 58.3592214,420.371855 C79.0022427,424.306215 102.024221,427.753911 119.227716,415.329307 C129.528718,407.888616 136.495665,395.422968 147.974427,390.263151 C155.638654,386.815456 164.316574,387.120354 172.672222,387.560111 C212.223853,389.643583 251.677825,393.552535 291.034138,399.286967 C307.516914,401.690973 324.316103,404.411604 340.623094,401.303987 C356.930084,398.19637 372.973398,388.058502 378.985245,371.623313 C379.911047,369.090312 380.743096,366.26414 382.817359,364.739649 C384.692399,363.379333 387.14753,363.40865 389.426876,363.490738 L527.172021,368.228388 C534.719058,368.486379 542.529772,368.697463 549.438124,365.589846 C556.135533,362.581907 561.286034,356.794703 566.243172,351.124768 C577.581306,338.190046 589.774927,322.276702 586.440871,304.721598 C583.774798,290.64937 571.856574,280.816401 560.037961,273.932737 C548.219347,267.049072 535.181958,261.414318 526.498178,250.408663 C513.285004,233.656849 513.806499,209.681291 512.986169,187.945563 C512.23859,168.263869 509.817685,148.681608 505.749686,129.41096 C502.169531,112.471516 497.183095,95.5086179 487.86063,81.2018532 C478.538164,66.8950885 464.281999,55.4379499 448.156652,53.3388426 C427.097606,50.5947582 405.92723,63.7405641 385.325225,58.1585805 C367.922508,53.467838 355.945688,36.7981117 341.525457,25.2471583 C315.913579,4.72515971 282.303482,0.427266873 250.527409,0.0344171863 C216.83528,-0.393613069 182.252506,3.01890212 152.222565,18.8501581 C145.343511,22.4737567 138.616804,26.859601 133.85303,33.2624646 C126.552092,43.0837067 124.782522,56.2764201 120.007029,67.7570124 C100.758569,113.98428 38.1556626,123.952108 17.8349139,169.686848 C10.6218684,185.910953 10.6921824,204.832236 15.9481546,221.871358 C21.6025729,240.206298 37.5169771,250.332438 43.8276594,266.316144 C37.036498,270.690261 25.0010834,270.649217 16.7684847,271.991942 Z" id="Path" stroke="none" fill="#6C63FF" fill-rule="nonzero" opacity="0.1"></path>
                        <g id="Group" opacity="0.2" stroke="none" stroke-width="1" fill="none" fill-rule="evenodd" transform="translate(506.000000, 87.000000)">
                            <path d="M13.7676923,130.953004 C13.7676923,130.953004 16.5738462,93.491704 37.6433846,73.1367713 C46.5350643,64.656654 52.449203,53.5070348 54.4978462,41.3619283 C55.4174265,35.5884397 55.808805,29.7424502 55.6670769,23.8972197" id="Path" stroke="#535461" stroke-width="2"></path>
                            <path d="M39.1984615,104.2713 C34.9658462,105.446188 20.5375385,101.257713 20.5375385,101.257713 C20.5375385,101.257713 30.6396923,90.096278 34.8723077,88.8802691 C37.6084125,88.103737 40.5489578,88.8529488 42.5862686,90.8456837 C44.6235794,92.8384185 45.4481397,95.7719326 44.7493456,98.5411995 C44.0505515,101.310466 41.9345664,103.494769 39.1984615,104.2713 L39.1984615,104.2713 Z" id="Path" fill="#6C63FF" fill-rule="nonzero"></path>
                            <path d="M1.28615385,102.362108 C3.66553846,106.074753 17.2636923,112.507265 17.2636923,112.507265 C17.2636923,112.507265 17.0473846,97.4099552 14.668,93.7090583 C12.286803,89.9958847 7.36083333,88.9254439 3.66553868,91.3181618 C-0.0297559587,93.7108796 -1.09504282,98.6606827 1.28615385,102.373857 L1.28615385,102.362108 Z" id="Path" fill="#6C63FF" fill-rule="nonzero"></path>
                        </g>
                        <polygon id="Path" stroke="none" fill="url(#linearGradient-3)" fill-rule="nonzero" points="96 52 96 73.0670282 96 322 530 322 530 73.0670282 530 52"></polygon>
                        <rect id="Rectangle" stroke="none" fill="#F6F7F9" fill-rule="nonzero" x="101" y="75" width="425" height="244"></rect>
                        <g id="Group" opacity="0.2" stroke="none" stroke-width="1" fill="none" fill-rule="evenodd" transform="translate(158.000000, 181.000000)">
                            <rect id="Rectangle" fill="#6C63FF" fill-rule="nonzero" x="0.456419214" y="73.1129858" width="15.260786" height="50.5872986"></rect>
                            <rect id="Rectangle" fill="#6C63FF" fill-rule="nonzero" x="29.9656769" y="36.829763" width="15.260786" height="86.8646445"></rect>
                            <rect id="Rectangle" fill="#6C63FF" fill-rule="nonzero" x="59.4749345" y="0.552417062" width="15.260786" height="123.141991"></rect>
                            <rect id="Rectangle" fill="#6C63FF" fill-rule="nonzero" x="88.9841921" y="12.3059716" width="15.260786" height="111.394313"></rect>
                            <rect id="Rectangle" fill="#6C63FF" fill-rule="nonzero" x="118.49345" y="47.0494787" width="15.260786" height="76.6449289"></rect>
                        </g>
                        <g id="Group" opacity="0.2" stroke="none" stroke-width="1" fill="none" fill-rule="evenodd" transform="translate(390.000000, 155.000000)">
                            <rect id="Rectangle" fill="#6C63FF" fill-rule="nonzero" x="0.235532995" y="0.428347107" width="115.193299" height="141.067025"></rect>
                        </g>
                        <path d="M584.594261,256.41108 C583.863976,252.686986 582.461828,249.044868 582.426775,245.250508 C582.374194,239.090527 585.645871,231.935113 581.345953,227.385394 C580.364449,226.348971 579.049936,225.576046 578.319651,224.363958 C577.768206,223.31605 577.506005,222.139545 577.560155,220.956061 C577.490047,213.771369 581.439429,206.475422 579.073305,199.665482 C578.611358,198.137539 577.658283,196.805568 576.362487,195.876977 C574.995394,194.986942 573.441347,194.817133 571.764612,194.84641 C570.251462,194.84641 568.656519,195.016219 567.090788,195.045497 C566.205063,195.046103 565.323105,194.929949 564.467604,194.700023 C562.656497,194.184739 561.119977,192.996074 559.326397,192.410524 C558.384066,192.104288 557.395122,191.967505 556.405257,192.006495 C552.479244,191.877674 548.892084,194.49508 546.099474,197.03051 C544.706883,198.205284 543.232874,199.279538 541.688552,200.245176 C541.922243,200.081222 536.237704,203.992693 538.375979,204.033681 C539.903629,204.078635 541.380442,204.593827 542.60579,205.509266 C539.955279,209.608023 540.189865,214.940481 543.190018,218.789527 C542.261096,217.87607 541.232854,216.874781 540.181244,215.86178 C537.049781,212.775935 532.673913,208.6361 530.61743,207.505989 C527.23475,205.684931 522.403184,201.726616 522.403184,201.726616 C522.403184,201.726616 516.122732,205.239913 518.056527,210.11754 C518.979188,210.403633 519.879418,210.757885 520.749818,211.177385 C520.750329,211.825652 520.875288,212.467766 521.117882,213.068709 C523.104086,213.697019 524.984861,214.620782 526.69726,215.809081 C526.890854,216.078618 527.070262,216.358111 527.23475,216.646416 C528.070196,218.11029 530.670011,220.77454 533.848211,223.73742 C536.079963,225.980075 539.01863,228.661891 541.945612,231.244165 C541.063428,233.000813 540.134505,234.757461 539.970922,236.51411 C539.745352,236.425073 539.524946,236.323418 539.310744,236.209624 C534.964087,233.867426 524.821888,234.113357 524.821888,234.113357 C524.821888,234.113357 516.368108,229.686603 514.679689,219.667852 C514.679689,219.667852 512.99127,213.607415 513.470337,211.979587 L513.441125,211.979587 L513.65729,211.932743 L515.684561,208.249637 C515.943799,207.761145 515.93772,207.174121 515.66842,206.691127 C515.399121,206.208133 514.903478,205.895308 514.352521,205.860595 C504.467382,204.97056 504,214.058288 504,214.058288 L504.087634,214.058288 L504.058423,214.134409 C505.267775,219.960626 506.231751,219.492187 505.992218,224.153161 L509.853965,234.406132 C509.853965,234.406132 510.093499,237.919428 517.098393,242.562836 C524.103287,247.206243 532.072158,254.44949 532.072158,254.44949 C532.072158,254.44949 527.848189,256.662867 529.413921,266.798728 C531.330189,279.188954 528.449944,296.860837 528.449944,296.860837 L528.449944,308.279052 L528.987434,308.132664 C528.917327,308.513271 528.853062,308.9173 528.782954,309.356463 C527.891238,315.094243 527.779216,320.926656 528.449944,326.694582 C529.89883,338.815456 535.694372,355.386506 535.694372,355.386506 C535.694372,355.386506 537.867701,361.212723 538.35261,365.873696 C538.429244,366.796634 538.637803,367.703747 538.971892,368.567224 C540.060871,371.125077 540.636579,373.872839 540.666153,376.653662 C540.645158,383.638612 541.906671,390.567816 544.387686,397.095194 C546.835601,403.32544 547.746997,406.979269 548.015742,409.110669 C546.263058,411.3826 544.007937,413.859475 542.214357,414.105405 C538.831677,414.573845 532.311692,415.036429 536.658348,420.628426 C536.809121,420.821152 536.977312,420.999524 537.160785,421.161276 C533.859896,421.688271 530.23184,422.847659 533.760577,427.385667 C538.107234,432.977665 563.702265,430.412958 563.702265,430.412958 C563.702265,430.412958 563.865849,427.30369 563.702265,423.889937 C565.495845,423.766972 566.623406,423.655717 566.623406,423.655717 C566.623406,423.655717 567.347848,410.141236 564.210544,408.507553 C563.630542,408.570522 563.06108,408.708289 562.516282,408.917437 C562.17743,407.049534 561.932054,404.724903 561.756786,403.009243 L563.001192,402.915555 L563.001192,402.821867 L563.077141,402.821867 L563.077141,382.456457 C563.077141,382.456457 561.628256,369.872999 556.317623,364.304424 C555.634637,363.603077 555.045476,362.815753 554.564938,361.962226 L554.494831,361.815839 C554.529885,360.223144 554.529885,358.074178 554.494831,355.609014 L554.570781,355.474338 C554.664257,355.322095 554.757734,355.187419 554.845368,355.064453 C554.968274,354.900442 555.10094,354.744011 555.242643,354.596014 L555.318593,354.49647 L555.318593,354.49647 C555.318593,354.49647 558.239733,350.983174 568.119029,328.861115 C574.154105,315.358344 572.559163,307.781334 570.397519,303.87572 C569.941821,302.119071 568.989529,298.184179 567.797704,291.444505 C567.309173,288.584248 567.076505,285.685975 567.102473,282.784228 C568.599649,283.159093 570.139981,283.332379 571.682821,283.299512 C574.104314,283.353822 576.504993,282.840519 578.693557,281.800505 C577.116141,279.49344 575.468618,276.788202 576.263169,274.135662 C577.16288,271.114227 580.726671,269.726475 582.783154,267.290589 C585.260281,264.345276 585.324546,260.14103 584.594261,256.41108 Z" id="Path" stroke="none" fill="url(#linearGradient-4)" fill-rule="nonzero"></path>
                        <path d="M523.543945,204 C523.543945,204 517.492742,207.461426 519.356465,212.308592 C519.356465,212.308592 525.643583,214.156245 528.203254,218.769531 C530.762925,223.382816 550.550244,240 550.550244,240 L565,232.849115 C565,232.849115 559.980922,226.206919 544.103884,221.564398 C544.103884,221.564398 534.743981,211.624492 531.482464,209.770992 C528.220948,207.917492 523.543945,204 523.543945,204 Z" id="Path" stroke="none" fill="#797C9C" fill-rule="nonzero"></path>
                        <path d="M526.543945,207 C526.543945,207 520.492742,210.461426 522.356465,215.308592 C522.356465,215.308592 528.643583,217.156245 531.203254,221.769531 C533.762925,226.382816 553.550244,243 553.550244,243 L568,235.849115 C568,235.849115 562.980922,229.206919 547.103884,224.564398 C547.103884,224.564398 537.743981,214.624492 534.482464,212.770992 C531.220948,210.917492 526.543945,207 526.543945,207 Z" id="Path" stroke="none" fill="#000000" fill-rule="nonzero" opacity="0.05"></path>
                        <path d="M39.2449724,429 C39.2449724,429 28.4731042,392.947247 41.2479318,366.455316 C46.6857469,355.366839 48.3256777,342.839769 45.9215039,330.754928 C44.733552,325.02727 43.0155124,319.41886 40.7889203,314" id="Path" stroke="#535461" stroke-width="2" fill="none"></path>
                        <path d="M48.9941241,297.927681 C48.9941241,302.306393 40.9970621,315 40.9970621,315 C40.9970621,315 33,302.306393 33,297.927681 C33,293.549344 36.581722,290 41,290 C45.418278,290 49,293.549344 49,297.927681 L48.9941241,297.927681 Z" id="Path" stroke="none" fill="#6C63FF" fill-rule="nonzero"></path>
                        <path d="M61.7416086,322.091649 C59.3884222,325.724519 46,332 46,332 C46,332 46.2416475,317.203682 48.5948339,313.576569 C50.1159274,311.226569 52.7743564,309.86711 55.5687163,310.010288 C58.3630762,310.153466 60.8688373,311.777528 62.1421037,314.270706 C63.41537,316.763885 63.2627022,319.747406 61.7416086,322.097406 L61.7416086,322.091649 Z" id="Path" stroke="none" fill="#6C63FF" fill-rule="nonzero"></path>
                        <path d="M29.3960417,333.734402 C32.5049977,336.811415 47,340 47,340 C47,340 43.4526755,325.319592 40.3379516,322.266067 C38.3256678,320.273042 35.4218336,319.524336 32.7202954,320.301981 C30.0187571,321.079625 27.9299427,323.265478 27.2406884,326.036148 C26.551434,328.806818 27.3664538,331.741376 29.3787377,333.734402 L29.3960417,333.734402 Z" id="Path" stroke="none" fill="#6C63FF" fill-rule="nonzero"></path>
                        <path d="M48.9941241,297.927681 C48.9941241,302.306393 40.9970621,315 40.9970621,315 C40.9970621,315 33,302.306393 33,297.927681 C33,293.549344 36.581722,290 41,290 C45.418278,290 49,293.549344 49,297.927681 L48.9941241,297.927681 Z" id="Path" stroke="none" fill="#000000" fill-rule="nonzero" opacity="0.25"></path>
                        <path d="M61.7416086,322.091649 C59.3884222,325.724519 46,332 46,332 C46,332 46.2416475,317.203682 48.5948339,313.576569 C50.1159274,311.226569 52.7743564,309.86711 55.5687163,310.010288 C58.3630762,310.153466 60.8688373,311.777528 62.1421037,314.270706 C63.41537,316.763885 63.2627022,319.747406 61.7416086,322.097406 L61.7416086,322.091649 Z" id="Path" stroke="none" fill="#000000" fill-rule="nonzero" opacity="0.25"></path>
                        <path d="M29.3960417,333.734402 C32.5049977,336.811415 47,340 47,340 C47,340 43.4526755,325.319592 40.3379516,322.266067 C38.3256678,320.273042 35.4218336,319.524336 32.7202954,320.301981 C30.0187571,321.079625 27.9299427,323.265478 27.2406884,326.036148 C26.551434,328.806818 27.3664538,331.741376 29.3787377,333.734402 L29.3960417,333.734402 Z" id="Path" stroke="none" fill="#000000" fill-rule="nonzero" opacity="0.25"></path>
                        <path d="M64.2357995,430 C64.2357995,430 53.4760028,393.970738 66.2543779,367.455316 C71.686099,356.366839 73.324192,343.839769 70.9227125,331.754928 C69.7360919,326.02727 68.0199776,320.41886 65.7958807,315" id="Path" stroke="#535461" stroke-width="2" fill="none"></path>
                        <path d="M72.9941241,298.927681 C72.9941241,303.306393 64.9970621,316 64.9970621,316 C64.9970621,316 57,303.306393 57,298.927681 C57,294.549344 60.581722,291 65,291 C69.418278,291 73,294.549344 73,298.927681 L72.9941241,298.927681 Z" id="Path" stroke="none" fill="#6C63FF" fill-rule="nonzero"></path>
                        <path d="M86.7407599,323.092052 C84.3877004,326.724774 71,333 71,333 C71,333 71.2416345,318.204284 73.594694,314.577319 C75.9459741,310.944681 80.7949103,309.907222 84.4250961,312.260091 C88.055282,314.612959 89.0920399,319.465171 86.7407599,323.097809 L86.7407599,323.092052 Z" id="Path" stroke="none" fill="#6C63FF" fill-rule="nonzero"></path>
                        <path d="M53.3960416,333.734402 C56.5049976,336.811415 71,340 71,340 C71,340 67.4526755,325.319592 64.3379515,322.266067 C62.3256677,320.273042 59.4218336,319.524336 56.7202953,320.301981 C54.0187571,321.079625 51.9299428,323.265478 51.2406884,326.036148 C50.551434,328.806818 51.3664538,331.741376 53.3787376,333.734402 L53.3960416,333.734402 Z" id="Path" stroke="none" fill="#6C63FF" fill-rule="nonzero"></path>
                        <rect id="Rectangle" stroke="none" fill="url(#linearGradient-5)" fill-rule="nonzero" x="410" y="200" width="118" height="145"></rect>
                        <rect id="Rectangle" stroke="none" fill="#6C63FF" fill-rule="nonzero" x="411" y="202" width="115" height="141"></rect>
                        <rect id="Rectangle" stroke="none" fill="#E8EAF1" fill-rule="nonzero" x="419" y="215" width="23" height="23"></rect>
                        <rect id="Rectangle" stroke="none" fill="#E8EAF1" fill-rule="nonzero" x="431" y="252" width="83" height="5"></rect>
                        <rect id="Rectangle" stroke="none" fill="#E8EAF1" fill-rule="nonzero" x="431" y="262" width="83" height="5"></rect>
                        <rect id="Rectangle" stroke="none" fill="#E8EAF1" fill-rule="nonzero" x="431" y="272" width="83" height="5"></rect>
                        <rect id="Rectangle" stroke="none" fill="#E8EAF1" fill-rule="nonzero" x="431" y="282" width="83" height="5"></rect>
                        <rect id="Rectangle" stroke="none" fill="#E8EAF1" fill-rule="nonzero" x="431" y="292" width="83" height="5"></rect>
                        <rect id="Rectangle" stroke="none" fill="#E8EAF1" fill-rule="nonzero" x="431" y="301" width="83" height="5"></rect>
                        <rect id="Rectangle" stroke="none" fill="#E8EAF1" fill-rule="nonzero" x="431" y="311" width="83" height="5"></rect>
                        <path d="M554.197861,356.505647 C553.037199,358.488801 553.037199,360.954872 554.197861,362.938027 C554.646137,363.771437 555.197397,364.543683 555.838348,365.236141 C560.852228,370.773835 562.221225,383.235109 562.221225,383.235109 L562.221225,403.309981 L558.80162,403.573124 L553.331408,404 L545.123201,369.844064 C545.123201,369.844064 540.334599,344.921516 542.616261,340.535802 C544.897923,336.150089 546.94853,308.689675 546.94853,308.689675 L548.843176,306.707332 L553.331408,302 L566.328216,302 C567.368128,302.754224 568.231804,303.73036 568.858262,304.859485 C571.041726,308.514246 572.999912,316.11615 567.015603,330.150433 C557.669454,352.073153 554.931459,355.534942 554.931459,355.534942 C554.650871,355.82888 554.404712,356.1546 554.197861,356.505647 L554.197861,356.505647 Z" id="Path" stroke="none" fill="#4C4C78" fill-rule="nonzero"></path>
                        <path d="M554.197861,356.505647 C553.037199,358.488801 553.037199,360.954872 554.197861,362.938027 C554.646137,363.771437 555.197397,364.543683 555.838348,365.236141 C560.852228,370.773835 562.221225,383.235109 562.221225,383.235109 L562.221225,403.309981 L558.80162,403.573124 L553.331408,404 L545.123201,369.844064 C545.123201,369.844064 540.334599,344.921516 542.616261,340.535802 C544.897923,336.150089 546.94853,308.689675 546.94853,308.689675 L548.843176,306.707332 L553.331408,302 L566.328216,302 C567.368128,302.754224 568.231804,303.73036 568.858262,304.859485 C571.041726,308.514246 572.999912,316.11615 567.015603,330.150433 C557.669454,352.073153 554.931459,355.534942 554.931459,355.534942 C554.650871,355.82888 554.404712,356.1546 554.197861,356.505647 L554.197861,356.505647 Z" id="Path" stroke="none" fill="#000000" fill-rule="nonzero" opacity="0.05"></path>
                        <path d="M553.62931,326.431407 C553.62931,326.431407 554.214154,344.637366 554.296032,356.075419 C554.296032,358.665388 554.296032,360.903778 554.296032,362.521044 C554.309243,363.370686 554.246611,364.21981 554.108882,365.058276 C553.418766,367.138454 554.798998,371.761725 554.798998,371.761725 C558.262406,380.900788 559.679938,390.690515 558.951392,400.438894 L558.951392,410.611261 L547.874443,412 C547.874443,412 549.722551,410.611261 544.640254,397.198503 C542.263945,390.700981 541.057994,383.832328 541.078553,376.912365 C541.051782,374.15771 540.501995,371.433329 539.458535,368.884633 C539.141153,368.025361 538.944328,367.126115 538.873691,366.212628 C538.411664,361.589358 536.335467,355.805875 536.335467,355.805875 C536.335467,355.805875 530.796992,339.398831 529.410911,327.363093 C528.770809,321.638833 528.878943,315.855359 529.732576,310.159135 C529.936172,308.712247 530.213359,307.276716 530.563054,305.858146 C530.563054,305.858146 553.126344,291.630895 561.647524,301.463402 C562.468118,302.42607 563.118827,303.521912 563.571662,304.703793 C564.039375,305.870619 564.403391,307.076528 564.659472,308.307483 C567.308816,321.345223 553.62931,326.431407 553.62931,326.431407 Z" id="Path" stroke="none" fill="#4C4C78" fill-rule="nonzero"></path>
                        <circle id="Oval" stroke="none" fill="#FFB9B9" fill-rule="nonzero" cx="553" cy="214" r="12"></circle>
                        <path d="M546.746009,221.147372 C546.746009,221.147372 551.582325,234.697114 546.746009,241.821205 C541.909692,248.945296 562.170884,246.646263 562.170884,246.646263 L570,237.22896 C570,237.22896 560.788246,237.22896 560.327366,221.147372 C559.866487,205.065785 546.746009,221.147372 546.746009,221.147372 Z" id="Path" stroke="none" fill="#FFB9B9" fill-rule="nonzero"></path>
                        <path d="M570,306.894546 C568.330357,307.466326 566.613338,307.89204 564.868651,308.166799 C562.002335,308.606304 558.616462,308.623653 556.637478,306.894546 C555.469936,305.87096 552.55108,305.737952 549.100992,306.073364 C541.78634,306.76732 531.891419,309.467967 530,310 C530.203223,308.572048 530.479901,307.155305 530.828955,305.755301 C530.828955,305.755301 553.350846,291.714252 561.856392,301.418074 L566.771745,301.418074 C567.822702,302.16396 568.695551,303.129304 569.328663,304.245946 C569.754816,306.061798 570,306.894546 570,306.894546 Z" id="Path" stroke="none" fill="#000000" fill-rule="nonzero" opacity="0.1"></path>
                        <path d="M506,216 C506,216 506.436567,207.20021 515.593134,208.059005 C516.106991,208.111657 516.562023,208.416964 516.809189,208.874928 C517.056355,209.332891 517.063816,209.884517 516.829129,210.349126 L514.952458,213.91599 L506,216 Z" id="Path" stroke="none" fill="#FFB9B9" fill-rule="nonzero"></path>
                        <path d="M560.690423,240.431398 C560.690423,240.431398 549.337919,238.575453 546.32663,236.261394 C546.32663,236.261394 544.007995,240.666328 539.840323,238.346396 C535.672651,236.026464 525.940256,236.261394 525.940256,236.261394 C520.778186,233.097497 517.231025,227.859403 516.207862,221.88956 C516.207862,221.88956 514.587752,215.863609 515.033869,214.25434 C515.033869,214.25434 509.01129,207.993459 506,216.339342 C507.173992,222.136236 508.083836,221.67225 507.854908,226.323861 L511.558853,236.519816 C511.558853,236.519816 511.787781,239.996778 518.508886,244.630769 C525.229991,249.264761 532.87268,256.453614 532.87268,256.453614 C532.87268,256.453614 528.816537,258.656081 530.325117,268.740445 C532.168285,281.074262 529.397663,298.641142 529.397663,298.641142 L529.397663,310 C529.397663,310 552.566398,303.281006 556.499271,306.752095 C560.432145,310.223183 569.935611,306.752095 569.935611,306.752095 C569.935611,306.752095 568.761619,302.811147 567.15325,293.308234 C565.544881,283.805322 567.382178,274.513846 567.382178,274.513846 C567.382178,274.513846 573.404758,258.520997 576.187119,252.03106 C578.969481,245.541123 574.103283,236.760619 569.237086,233.489221 C564.370889,230.217823 562.562941,232.191234 562.562941,232.191234 C562.562941,232.191234 571.115473,238.346396 560.690423,240.431398 Z" id="Path" stroke="none" fill="#797C9C" fill-rule="nonzero"></path>
                        <path d="M531,272.984002 C531,272.984002 532.869586,272.578717 542.235322,271.314869 C551.601059,270.05102 568,273 568,273" id="Path" stroke="none" fill="#000000" fill-rule="nonzero" opacity="0.05"></path>
                        <path d="M538.467701,206.036852 C543.797355,206.148633 547.741298,212.679003 545.378485,217.391459 C544.342164,219.462351 542.334661,221.286148 542.541925,223.586485 C542.636674,224.633698 543.199249,225.580895 543.442044,226.604575 C544.561272,231.311148 538.894073,235.717677 540.190956,240.365417 C540.633668,241.611738 541.322193,242.757796 542.216224,243.7365 L552.058318,256.055955 C552.655971,256.733945 553.150732,257.495031 553.526933,258.315109 C553.902044,259.482684 554.046815,260.711208 553.953306,261.933287 C553.905931,267.816503 554.29085,274.129194 557.784734,278.900482 C561.983317,284.630735 570.540372,286.68986 576.906347,283.495274 C575.378513,281.194937 573.785539,278.500424 574.537612,275.847093 C575.408122,272.84077 578.854632,271.452331 580.844369,269.028446 C583.248635,266.086838 583.307853,261.909754 582.62092,258.197445 C581.933987,254.485136 580.554199,250.855192 580.52459,247.078167 C580.477215,240.941973 583.639476,233.811515 579.476425,229.281438 C578.523009,228.245992 577.255736,227.481174 576.545115,226.269232 C576.009622,225.217486 575.756682,224.046146 575.810807,222.868733 C575.745667,215.714742 579.565252,208.437204 577.273501,201.653856 C576.836641,200.144504 575.915467,198.818235 574.650127,197.876831 C571.40496,195.705924 566.904364,197.812116 563.149919,196.700188 C561.373368,196.188348 559.910674,194.999939 558.175576,194.4175 C553.497324,192.846681 549.168461,196.000085 545.935138,199.024058 C544.59083,200.190993 543.163949,201.260564 541.665493,202.224528 C541.896445,202.10098 536.395058,205.995669 538.467701,206.036852 Z" id="Path" stroke="none" fill="#000000" fill-rule="nonzero" opacity="0.1"></path>
                        <path d="M539.467701,206.036852 C544.797355,206.148633 548.741298,212.679003 546.378485,217.391459 C545.342164,219.462351 543.334661,221.286148 543.541925,223.586485 C543.636674,224.633698 544.199249,225.580895 544.442044,226.604575 C545.561272,231.311148 539.894073,235.717677 541.190956,240.365417 C541.633668,241.611738 542.322193,242.757796 543.216224,243.7365 L553.058318,256.055955 C553.655971,256.733945 554.150732,257.495031 554.526933,258.315109 C554.902044,259.482684 555.046815,260.711208 554.953306,261.933287 C554.905931,267.816503 555.29085,274.129194 558.784734,278.900482 C562.983317,284.630735 571.540372,286.68986 577.906347,283.495274 C576.378513,281.194937 574.785539,278.500424 575.537612,275.847093 C576.408122,272.84077 579.854632,271.452331 581.844369,269.028446 C584.248635,266.086838 584.307853,261.909754 583.62092,258.197445 C582.933987,254.485136 581.554199,250.855192 581.52459,247.078167 C581.477215,240.941973 584.639476,233.811515 580.476425,229.281438 C579.523009,228.245992 578.255736,227.481174 577.545115,226.269232 C577.009622,225.217486 576.756682,224.046146 576.810807,222.868733 C576.745667,215.714742 580.565252,208.437204 578.273501,201.653856 C577.836641,200.144504 576.915467,198.818235 575.650127,197.876831 C572.40496,195.705924 567.904364,197.812116 564.149919,196.700188 C562.373368,196.188348 560.910674,194.999939 559.175576,194.4175 C554.497324,192.846681 550.168461,196.000085 546.935138,199.024058 C545.59083,200.190993 544.163949,201.260564 542.665493,202.224528 C542.896445,202.10098 537.395058,205.995669 539.467701,206.036852 Z" id="Path" stroke="none" fill="#B36362" fill-rule="nonzero"></path>
                        <path d="M362.129974,317.781466 C360.797856,316.528799 359.64054,315.100329 358.689598,313.535024 C356.675435,310.348729 353.304914,308.632581 350.993867,307.777436 L350.993867,306.740718 L351.133577,306.740718 L351.069543,305.780144 L351.133577,305.780144 L350.970581,303.238136 L350.970581,303.238136 L350.970581,303.238136 L350.149781,290.539812 C350.149781,290.539812 347.180929,282.029358 352.42008,274.239335 C357.659231,266.449311 352.746072,258.975574 347.821269,256.052851 C347.821269,256.052851 345.492758,243.711814 347.495278,240.789091 C344.818949,239.226412 342.059393,237.812711 339.229062,236.554364 C339.186372,236.402078 339.145623,236.245887 339.106815,236.085791 C339.054423,234.914359 338.984568,233.783927 338.920534,232.635924 C338.987771,232.043189 339.096708,231.456 339.246525,230.878775 C339.310559,230.638632 339.380415,230.392631 339.456091,230.140773 C344.280778,228.258476 347.469675,223.597827 347.495278,218.391309 C347.496335,216.903488 347.232134,215.427539 346.715226,214.033582 C346.970567,213.601458 347.166399,213.136446 347.297354,212.651292 C347.555751,211.249602 347.277048,209.801457 346.517303,208.598137 C345.213336,205.669557 341.924314,202.992834 339.531768,202.014689 C336.114677,200.60897 330.968666,200.942828 327.411865,201.370401 C325.415166,201.610544 323.133225,202.289975 322.411386,204.146695 C322.219887,204.850082 322.068289,205.563855 321.957326,206.284559 C321.212203,209.119424 317.981393,210.443142 315.984694,212.610292 C314.23831,214.525583 313.446616,217.114448 312.876131,219.638884 C311.237323,226.872482 310.843531,234.335279 311.711875,241.702808 C311.91562,243.401385 312.183399,245.088247 312.468641,246.775109 C311.269458,248.473686 310.1867,251.460837 310.681509,256.732282 L306.740503,275.56891 L305.098902,286.609658 C304.64858,289.742573 305.753581,292.898544 308.056112,295.055683 C310.570904,297.539119 313.621255,301.738703 315.501528,304.462283 C314.681914,306.870732 314.276377,309.402145 314.302344,311.947734 C314.343093,313.119166 314.407127,314.226169 314.488625,315.292172 C314.657517,317.539132 315.079349,319.759542 315.746022,321.910764 C316.205903,326.444206 317.119843,332.242795 318.901155,335.967949 L319.558959,355.776866 C319.558959,355.776866 318.575163,373.963349 316.60175,377.536217 C314.628336,381.109085 320.874568,411.314462 320.874568,411.314462 L320.874568,415.537474 L319.820917,418.630055 L319.558959,418.430912 C314.628336,424.604359 319.558959,426.876937 319.558959,426.876937 C319.558959,426.876937 320.897854,426.941366 323.051727,427.023366 C322.674919,428.800034 323.538884,430.608447 325.153209,431.422093 C325.153209,431.422093 353.095348,432.722383 358.02015,431.422093 C362.944953,430.121804 361.635165,425.564933 359.003947,425.898791 C357.672572,425.945626 356.34272,425.769463 355.068762,425.377504 C356.60558,423.567641 355.37729,421.113491 353.42134,421.353635 C350.790122,421.675778 344.875702,419.3212 344.875702,419.3212 L344.875702,419.3622 C344.685875,419.290324 344.491377,419.231615 344.293574,419.186485 C342.0962,418.683714 339.925895,418.067904 337.791206,417.34148 C336.522167,414.606186 333.599885,407.249592 335.695545,401.527146 C336.644414,398.949996 336.952941,395.5177 336.952941,392.190833 C337.002809,382.160141 338.458894,372.186687 341.278152,362.565315 L345.219158,348.935702 C345.219158,348.935702 350.807586,332.371652 351.133577,327.849925 L351.087007,321.219619 C355.709103,324.212628 359.376509,323.304768 361.722484,321.916621 C362.435151,321.50756 362.906671,320.776435 362.987624,319.954929 C363.068578,319.133424 362.74893,318.323371 362.129974,317.781466 Z M318.266635,283.329648 C318.37724,282.855218 318.47038,282.33393 318.551878,281.789214 C319.328049,281.789214 320.104219,281.789214 320.88039,281.789214 C321.841832,283.772106 322.244515,285.982283 322.044646,288.179377 C320.263334,287.59366 317.597188,286.199656 318.266635,283.329648 L318.266635,283.329648 Z" id="Shape" stroke="none" fill="url(#linearGradient-6)" fill-rule="nonzero"></path>
                        <path d="M342,242.823182 C342,242.823182 327,244.41259 329.191334,238.060802 C329.801652,236.260936 329.959813,234.334696 329.651457,232.45697 C329.262294,230.127843 328.355488,227.919542 327,226 L341.0625,228.220496 C340.220628,229.651925 339.579841,231.195891 339.158742,232.807575 C337.485046,239.545028 342,242.823182 342,242.823182 Z" id="Path" stroke="none" fill="#DB8B8B" fill-rule="nonzero"></path>
                        <path d="M316,315 C316,315 316.30818,328.710147 319.424223,335.406755 L320.04629,354.856852 C320.04629,354.856852 319.116043,372.710562 317.255549,376.220265 C315.395054,379.729969 321.284718,409.380509 321.284718,409.380509 L321.284718,414.48073 C321.284718,414.48073 331.192137,418.295626 334,413.835133 L331.209258,375.891597 L332.447685,323.281257 L316,315 Z" id="Path" stroke="none" fill="#474463" fill-rule="nonzero"></path>
                        <path d="M316,315 C316,315 316.30818,328.710147 319.424223,335.406755 L320.04629,354.856852 C320.04629,354.856852 319.116043,372.710562 317.255549,376.220265 C315.395054,379.729969 321.284718,409.380509 321.284718,409.380509 L321.284718,414.48073 C321.284718,414.48073 331.192137,418.295626 334,413.835133 L331.209258,375.891597 L332.447685,323.281257 L316,315 Z" id="Path" stroke="none" fill="#000000" fill-rule="nonzero" opacity="0.1"></path>
                        <path d="M309.615775,272 L307.697094,277.096774 L306.096231,287.929619 C305.658572,290.991178 306.73029,294.075054 308.974253,296.211144 C312.811616,300.035191 317.926138,308 317.926138,308 L324,289.818182 C324,289.818182 317.926138,288.86217 318.885478,284.721408 C319.844819,280.580645 319.527001,272.932551 319.527001,272.932551 L309.615775,272 Z" id="Path" stroke="none" fill="#CBCDDA" fill-rule="nonzero"></path>
                        <path d="M309.615775,271 L307.697094,276.096774 L306.096231,286.929619 C305.658572,289.991178 306.73029,293.075054 308.974253,295.211144 C312.811616,299.035191 317.926138,307 317.926138,307 L324,288.818182 C324,288.818182 317.926138,287.86217 318.885478,283.721408 C319.844819,279.580645 319.527001,271.932551 319.527001,271.932551 L309.615775,271 Z" id="Path" stroke="none" fill="#000000" fill-rule="nonzero" opacity="0.05"></path>
                        <path d="M351,328.1982 C350.680561,332.640295 345.214604,348.809286 345.214604,348.809286 L341.36359,362.118058 C338.60114,371.529036 337.175701,381.272791 337.128065,391.070475 C337.128065,394.315947 336.826372,397.666489 335.897633,400.182314 C333.324374,407.186931 338.470892,416.67235 338.470892,416.67235 C333.969168,424.599241 326.261222,419.211524 326.261222,419.211524 L326.261222,414.139013 C326.261222,414.139013 320.156388,386.552497 321.759499,381.158942 C323.362609,375.765387 324.007403,361.178272 324.007403,361.178272 L324.007403,334.858424 C318.858812,329.796086 315.728091,323.074737 315.187336,315.922609 C315.110434,314.883591 315.051279,313.792038 315.00987,312.659625 C314.749587,305.503241 319.706807,297.115212 321.641188,294.126576 C322.108515,293.402765 322.398377,293 322.398377,293 L350.792956,304.090644 L350.858027,304.090644 L350.858027,305.176359 L350.858027,307.57544 L351,328.1982 Z" id="Path" stroke="none" fill="#474463" fill-rule="nonzero"></path>
                        <path d="M341,228.331734 C340.16187,229.834871 339.523931,231.456183 339.104703,233.148605 C336.032669,234.400101 332.618955,234.267315 329.639673,232.780437 C329.252239,230.33463 328.349464,228.015703 327,226 L341,228.331734 Z" id="Path" stroke="none" fill="#000000" fill-rule="nonzero" opacity="0.1"></path>
                        <circle id="Oval" stroke="none" fill="#DB8B8B" fill-rule="nonzero" cx="334.5" cy="220.5" r="12.5"></circle>
                        <path d="M351,307.641992 L350.866305,307.641992 C337.624685,310.38407 321,296.47447 321,296.47447 C321.448549,295.725553 321.837297,294.941863 322.162565,294.130814 C322.621779,293.404281 322.906607,293 322.906607,293 L350.808177,304.132367 L350.877931,305.245604 L351,307.641992 Z" id="Path" stroke="none" fill="#000000" fill-rule="nonzero" opacity="0.1"></path>
                        <path d="M347.128401,242.393842 C347.128401,242.393842 329.457885,231.644625 323.776832,236.067692 L315.888416,246.182548 C315.888416,246.182548 310.840527,247.765541 311.787369,257.880397 L308,276.218665 L319.362107,279.06456 C319.362107,279.06456 325.990003,285.39071 320.622627,294.556934 C320.622627,294.556934 337.346301,308.466316 350.602092,305.614602 L349.626206,290.768228 C349.626206,290.768228 346.785679,282.550635 351.833568,274.961583 C356.881457,267.372531 352.147246,260.10357 347.413035,257.257675 C347.447888,257.257675 345.234716,245.239737 347.128401,242.393842 Z" id="Path" stroke="none" fill="#CBCDDA" fill-rule="nonzero"></path>
                        <path d="M348.21271,307 C348.21271,307 354.785048,308.285173 357.912812,313.437708 C358.816351,314.984583 359.918811,316.398997 361.19034,317.642651 C361.768515,318.184845 362.064218,318.975584 361.98826,319.776374 C361.912303,320.577163 361.473578,321.294259 360.80441,321.711377 C358.321783,323.245293 354.272394,324.192886 349.157376,319.869494 C340.39042,312.472348 348.21271,307 348.21271,307 Z" id="Path" stroke="none" fill="#DB8B8B" fill-rule="nonzero"></path>
                        <path d="M338.295242,249.237981 C338.295242,249.237981 331.991844,248.603298 330.420344,265.052642 C328.848843,281.501985 326.326324,285.298436 326.326324,285.298436 C326.326324,285.298436 324.749025,293.840449 328.529904,298.900441 C332.310783,303.960434 339.547803,314.715102 339.547803,314.715102 C339.547803,314.715102 347.422701,316.927757 349,309.020427 L339.234662,290.672858 C339.234662,290.672858 337.657363,284.3435 341.438242,279.91819 C345.219121,275.49288 348.060579,246.070391 338.295242,249.237981 Z" id="Path" stroke="none" fill="#000000" fill-rule="nonzero" opacity="0.1"></path>
                        <path d="M339.295242,248.237679 C339.295242,248.237679 332.991844,247.602993 331.420344,264.052413 C329.848843,280.501832 327.326324,284.298299 327.326324,284.298299 C327.326324,284.298299 325.749025,292.840352 329.529904,297.900367 C333.310783,302.960383 340.547803,313.715101 340.547803,313.715101 C340.547803,313.715101 348.422701,315.927766 350,308.020399 L340.234662,289.672747 C340.234662,289.672747 338.663162,283.349182 342.438242,278.94132 C346.213322,274.533458 349.060579,245.070074 339.295242,248.237679 Z" id="Path" stroke="none" fill="#CBCDDA" fill-rule="nonzero"></path>
                        <path d="M343.945248,259 C343.945248,259 344.52112,269.018219 341.937623,274.515152 C339.354126,280.012084 339.354126,287.121212 341.937623,291" id="Path" stroke="none" fill="#000000" fill-rule="nonzero" opacity="0.1"></path>
                        <path d="M346,247 C346,247 343.497843,244.646104 336.313489,244.353896 C329.129134,244.061688 326,242 326,242" id="Path" stroke="none" fill="#000000" fill-rule="nonzero" opacity="0.1"></path>
                        <path d="M327.930765,204.365597 C325.99574,204.607223 323.785119,205.273167 323.087337,207.100092 C322.901705,207.794566 322.754883,208.498935 322.647559,209.209896 C321.926322,212.009217 318.795098,213.335211 316.860073,215.445016 C315.153732,217.330874 314.403176,219.882676 313.846123,222.375545 C312.260167,229.511635 311.881547,236.865244 312.726154,244.127743 C313.347708,249.43172 314.620134,254.664977 314.971956,259.998421 C315.323779,265.331864 314.678771,270.942293 311.776232,275.421206 C310.527261,277.348318 308.885421,279.039697 308,281.161288 C309.829479,282.652295 312.345012,282.864454 314.702226,282.92928 C317.438626,283.023573 320.175026,283.023573 322.911426,282.92928 C324.348036,282.882134 325.843283,282.787841 327.092254,282.057071 C328.009295,281.46966 328.763681,280.658759 329.285283,279.699748 C330.850895,277.024186 331.249628,273.80644 331.179263,270.712454 C331.108899,267.618467 330.62221,264.530374 330.592892,261.424601 C330.563573,259.733222 330.692575,257.941656 331.660088,256.556729 C332.35787,255.554867 333.419202,254.88303 334.328078,254.075647 C337.74076,251.040593 338.907639,246.166828 339.019049,241.587728 C339.13046,237.008628 338.379904,232.423635 338.76691,227.862215 C338.919366,226.094222 339.581966,223.931378 341.329353,223.583673 C341.889444,223.560674 342.446562,223.489697 342.994648,223.371514 C344.396075,222.82933 344.26121,220.843285 344.659943,219.387638 C345.111449,217.755192 346.495285,216.494024 346.888154,214.843898 C347.802894,210.971995 342.900828,206.345749 339.687513,204.996181 C336.386242,203.611254 331.402084,203.947173 327.930765,204.365597 Z" id="Path" stroke="none" fill="#000000" fill-rule="nonzero" opacity="0.1"></path>
                        <path d="M327.930765,203.367968 C325.99574,203.609586 323.785119,204.27551 323.087337,206.10238 C322.901705,206.796833 322.754883,207.501181 322.647559,208.212121 C321.926322,211.011357 318.795098,212.337312 316.860073,214.447052 C315.153732,216.332854 314.403176,218.884579 313.846123,221.377373 C312.260167,228.513247 311.881547,235.866634 312.726154,243.128915 C313.347708,248.432732 314.620134,253.665832 314.971956,258.999114 C315.323779,264.332397 314.678771,269.942656 311.776232,274.421435 C310.527261,276.348488 308.885421,278.039817 308,280.161343 C309.829479,281.652305 312.345012,281.864458 314.702226,281.929282 C317.438626,282.023573 320.175026,282.023573 322.911426,281.929282 C324.348036,281.882137 325.843283,281.787847 327.092254,281.057099 C328.009295,280.469706 328.763681,279.65883 329.285283,278.699847 C330.850895,276.024366 331.249628,272.806717 331.179263,269.712824 C331.108899,266.618931 330.62221,263.530931 330.592892,260.425252 C330.563573,258.733923 330.692575,256.942412 331.660088,255.557526 C332.35787,254.555694 333.419202,253.883877 334.328078,253.076519 C337.74076,250.041557 338.907639,245.167938 339.019049,240.588976 C339.13046,236.010014 338.379904,231.425159 338.76691,226.863877 C338.919366,225.095938 339.581966,222.933159 341.329353,222.585465 C341.889444,222.562466 342.446562,222.491491 342.994648,222.373312 C344.396075,221.831144 344.26121,219.845159 344.659943,218.389556 C345.111449,216.757159 346.495285,215.496029 346.888154,213.845953 C347.802894,209.974167 342.900828,205.34806 339.687513,203.998533 C336.362787,202.613647 331.378629,202.943663 327.930765,203.367968 Z" id="Path" stroke="none" fill="#472727" fill-rule="nonzero"></path>
                    </g>
                </g>
            </g>
        </g>
    </g>
</svg>