<?xml version="1.0" encoding="UTF-8"?>
<svg width="18px" height="18px" viewBox="0 0 18 18" version="1.1" xmlns="http://www.w3.org/2000/svg" xmlns:xlink="http://www.w3.org/1999/xlink">
    <!-- Generator: Sketch 63.1 (92452) - https://sketch.com -->
    <title>Artboard</title>
    <desc>Created with Sketch.</desc>
    <g id="Artboard" stroke="none" stroke-width="1" fill="none" fill-rule="evenodd">
        <g id="Group" transform="translate(2.000000, 0.000000)"></g>
        <path d="M12.0582886,8.69485472 C12.5261688,8.69485472 12.963562,8.77395628 13.3582459,8.9300995 C13.754303,9.08706663 14.0968018,9.30226134 14.3765411,9.56991579 C14.6440582,9.82575988 14.8824615,10.136673 15.0852966,10.4937286 C15.2809906,10.8377381 15.4390564,11.1967163 15.5555115,11.5602264 C15.6681213,11.9119263 15.7621918,12.2967224 15.8352509,12.7037659 C15.9076233,13.1077881 15.9567871,13.4903869 15.9810944,13.8411255 C16.005127,14.1838989 16.0174866,14.5416412 16.0174866,14.9043274 C16.0174866,15.8442078 15.7187958,16.6051483 15.1296539,17.1657257 C14.5477905,17.7192993 13.7781982,18 12.8423004,18 L12.8423004,18 L4.17518615,18 C3.23901367,18 2.46942139,17.7192993 1.88769531,17.1657257 C1.2986908,16.6047363 1,15.8440704 1,14.9044647 C1,14.5430145 1.01208496,14.1852722 1.03598024,13.8415375 C1.06028748,13.489975 1.10931396,13.1072388 1.18182373,12.7037659 C1.25488281,12.2967224 1.34895324,11.9120636 1.46142578,11.5603638 C1.57788086,11.196579 1.73608398,10.8377381 1.9315033,10.4937286 C2.13420106,10.1368103 2.37260438,9.82603455 2.64012147,9.57005311 C2.92013552,9.30212402 3.2627716,9.08692931 3.65855409,8.93023682 C4.05310059,8.77395628 4.49035645,8.6947174 4.95837402,8.6947174 C5.14212034,8.6947174 5.31982422,8.7701111 5.66273498,8.99354552 C5.8771057,9.13320921 6.12429808,9.29251097 6.39744569,9.46705627 C6.63282775,9.61729432 6.95239258,9.75805664 7.34652712,9.88536073 C7.73173524,10.0099182 8.12257384,10.0730896 8.50819396,10.0730896 C8.89408875,10.0730896 9.28492736,10.0099182 9.66986084,9.88536073 C10.0644073,9.75791932 10.3838348,9.617157 10.6196289,9.46691895 C10.8953857,9.2907257 11.1424408,9.13142394 11.3536529,8.99368284 C11.6968384,8.77024842 11.8745422,8.69485472 12.0582886,8.69485472 Z M12.1390381,9.75064085 C12.1020966,9.77027892 12.0363159,9.80790711 11.9297485,9.8772583 C11.7129059,10.0187073 11.4699707,10.1752625 11.1872101,10.3559875 C10.8753357,10.5548401 10.4741974,10.7340546 9.99436952,10.8890991 C9.5045166,11.0474396 9.00450135,11.1279144 8.50833128,11.1279144 C8.01216125,11.1279144 7.51228332,11.0474396 7.02215576,10.8889618 C6.54273986,10.7341919 6.14146424,10.5548401 5.83000184,10.3562622 C5.55369569,10.1797943 5.30375672,10.0185699 5.08691406,9.8772583 C4.98034668,9.80776976 4.91456603,9.77027892 4.87762451,9.75064085 C4.57453918,9.75874328 4.29534912,9.81257629 4.04692079,9.91090392 C3.77830506,10.0171967 3.55033875,10.1589203 3.36947634,10.3320923 C3.17611696,10.5172119 3.00088499,10.7469635 2.84858703,11.0147553 C2.68901063,11.2957306 2.56033323,11.5874176 2.46598817,11.8819885 C2.36766053,12.1891937 2.28498839,12.528534 2.22003174,12.8901215 C2.15425109,13.2562408 2.10989378,13.6007996 2.0881958,13.9144592 C2.06594847,14.2341614 2.05482482,14.5671845 2.05482482,14.9044647 C2.05482482,15.5529327 2.23802186,16.0427856 2.61499023,16.4016266 C2.99923708,16.767334 3.50955198,16.9451752 4.17518615,16.9451752 L4.17518615,16.9451752 L12.8421631,16.9451752 C13.5076599,16.9451752 14.0179748,16.767334 14.402359,16.4014893 C14.7793274,16.0427856 14.9625244,15.5530701 14.9626617,14.9044647 C14.9625244,14.5662231 14.9512634,14.2333374 14.9288788,13.9148712 L14.9288788,13.9148712 L14.9083567,13.6739895 C14.8836117,13.4277563 14.8462753,13.1650887 14.7970429,12.8899841 C14.7322235,12.5286713 14.6494141,12.1894684 14.5509491,11.8818512 C14.4567413,11.5875549 14.3279266,11.2957306 14.1682129,11.0148926 C14.0159149,10.7468262 13.840683,10.5170746 13.6473236,10.3320923 C13.4664612,10.1590576 13.2384949,10.0171967 12.9700165,9.91090392 C12.7214508,9.81257629 12.4422607,9.75874328 12.1390381,9.75064085 Z M8.3951721,-2.93987057e-13 C9.58622743,-2.93987057e-13 10.617569,0.427230844 11.460495,1.26988221 C12.303421,2.11294554 12.7306519,3.14428711 12.7306519,4.33520508 C12.7306519,5.52653504 12.3032837,6.55773926 11.4606323,7.40052795 C10.6177063,8.24345399 9.58636475,8.6706848 8.3951721,8.6706848 C7.20425413,8.6706848 6.1729126,8.24331663 5.32984923,7.40066527 C4.48706055,6.55787658 4.05969238,5.52653504 4.05969238,4.33520508 C4.05969238,3.14414979 4.48706055,2.11280822 5.32984923,1.27001953 C6.17263792,0.427230844 7.20384217,-2.93987057e-13 8.3951721,-2.93987057e-13 Z M8.3951721,1.05482482 C7.4811096,1.05482482 6.72250368,1.36917112 6.07582091,2.01585389 C5.42900086,2.66267394 5.1145172,3.42141722 5.1145172,4.33520508 C5.1145172,5.24926758 5.42900086,6.00801086 6.07582091,6.65469359 C6.72277832,7.30137635 7.48138428,7.61585998 8.3951721,7.61585998 C9.30909728,7.61585998 10.0678406,7.30151367 10.7146606,6.65469359 C11.3613434,6.00787354 11.675827,5.24926758 11.675827,4.33520508 C11.675827,3.42141722 11.3613434,2.66267394 10.7146606,2.01585389 C10.0678406,1.36917112 9.30909728,1.05482482 8.3951721,1.05482482 Z" id="Combined-Shape" fill="#50B5FF" fill-rule="nonzero"></path>
    </g>
</svg>