<svg width="11" height="11" viewBox="0 0 11 11" fill="none" xmlns="http://www.w3.org/2000/svg">
<path d="M5.41675 3.27493H6.40953V4.26771H5.41675V3.27493ZM5.41675 5.2605H6.40953V8.23885H5.41675V5.2605ZM5.91314 0.792969C3.17306 0.792969 0.949219 3.01681 0.949219 5.75689C0.949219 8.49698 3.17306 10.7208 5.91314 10.7208C8.65323 10.7208 10.8771 8.49698 10.8771 5.75689C10.8771 3.01681 8.65323 0.792969 5.91314 0.792969ZM5.91314 9.72803C3.72405 9.72803 1.942 7.94598 1.942 5.75689C1.942 3.5678 3.72405 1.78575 5.91314 1.78575C8.10223 1.78575 9.88428 3.5678 9.88428 5.75689C9.88428 7.94598 8.10223 9.72803 5.91314 9.72803Z" fill="white"/>
</svg>
