<svg width="231" height="60" viewBox="0 0 231 60" fill="none" xmlns="http://www.w3.org/2000/svg">
<path d="M0 59.0795V36.0762H0.49948L11.3316 49.4636L22.1637 36.0762H22.6632V59.0795H19.8107V43.619L11.3316 54.2746L2.90661 43.619V59.0795H0Z" fill="white"/>
<path d="M29.1025 47.5766C29.1025 40.9766 34.0492 35.6035 40.8072 35.6035C47.5652 35.6035 52.5721 40.9766 52.5721 47.5766C52.5721 54.1766 47.6314 59.5497 40.8072 59.5497C33.983 59.5497 29.1025 54.2069 29.1025 47.5766ZM32.0152 47.5766C32.0152 52.5448 35.9869 56.9085 40.8072 56.9085C45.6275 56.9085 49.6294 52.5448 49.6294 47.5766C49.6294 42.6085 45.6877 38.275 40.8072 38.275C35.9268 38.275 32.0152 42.6447 32.0152 47.5766Z" fill="white"/>
<path d="M76.7273 36.0762L66.3405 59.0795H65.7387L55.4482 36.0762H58.7039L66.0577 52.8905L73.4175 36.0762H76.7273Z" fill="white"/>
<path d="M85.3991 38.524V46.4476H97.0677V48.9559H85.3991V56.5652H98.6022V59.0795H82.4443V36.0762H98.5902V38.524H85.3991Z" fill="white"/>
<path d="M110.276 59.0795V36.0762H110.776L121.608 49.4636L132.47 36.0762H132.994V59.0795H130.111V43.619L121.602 54.2746L113.177 43.619V59.0795H110.276Z" fill="white"/>
<path d="M143.634 38.524V46.4476H155.303V48.9559H143.634V56.5652H156.837V59.0795H140.691V36.0762H156.837V38.524H143.634Z" fill="white"/>
<path d="M178.729 38.524H171.766V59.0735H168.854V38.524H161.879V36.0762H178.729V38.524Z" fill="white"/>
<path d="M187.004 38.524V46.4476H198.679V48.9559H187.004V56.5652H200.213V59.0795H184.062V36.0762H200.213V38.524H187.004Z" fill="white"/>
<path d="M210.533 51.3191V59.0795H207.614V36.0762H217.694C222.105 36.0762 225.265 39.219 225.265 43.7097C225.265 47.735 223.044 50.3581 219.632 51.1317L225.517 59.0795H222.045L216.442 51.3191H210.533ZM210.533 48.7746H217.153C220.161 48.7746 222.376 47.2636 222.376 43.7097C222.376 41.9811 221.377 38.524 217.369 38.524H210.533V48.7746Z" fill="white"/>
<path d="M226.271 37.8057C226.267 37.8929 226.284 37.9798 226.319 38.0595C226.352 38.1259 226.399 38.1839 226.457 38.2287C226.521 38.2744 226.592 38.3072 226.668 38.3254C226.75 38.3481 226.836 38.3583 226.921 38.3557C227.006 38.3568 227.091 38.3466 227.174 38.3254C227.235 38.3065 227.292 38.2757 227.342 38.2348C227.386 38.2028 227.419 38.1587 227.438 38.1079C227.447 38.0619 227.447 38.0148 227.438 37.9688C227.445 37.8887 227.421 37.809 227.372 37.7452C227.33 37.7014 227.279 37.6683 227.222 37.6485C227.118 37.6093 227.011 37.577 226.903 37.5518L226.457 37.4309C226.359 37.4109 226.265 37.3719 226.181 37.3161C226.111 37.2786 226.051 37.2246 226.006 37.159C225.961 37.1061 225.929 37.0443 225.91 36.9776C225.901 36.9114 225.901 36.8444 225.91 36.7782C225.905 36.6603 225.932 36.5434 225.988 36.4397C226.042 36.3443 226.116 36.2618 226.205 36.198C226.297 36.136 226.399 36.0891 226.506 36.0589C226.618 36.03 226.733 36.0158 226.849 36.0166C226.979 36.0167 227.108 36.0329 227.234 36.065C227.347 36.0997 227.453 36.155 227.547 36.2282C227.637 36.295 227.711 36.3819 227.763 36.482C227.816 36.5956 227.843 36.7195 227.842 36.8447H227.39C227.391 36.7762 227.376 36.7085 227.347 36.6467C227.318 36.5849 227.275 36.5306 227.222 36.4881C227.104 36.4165 226.968 36.3808 226.831 36.3853H226.668C226.614 36.3915 226.563 36.4101 226.518 36.4397C226.473 36.4655 226.434 36.5005 226.403 36.5425C226.37 36.6014 226.356 36.6694 226.364 36.7367C226.371 36.804 226.4 36.8672 226.445 36.9172C226.508 36.9762 226.585 37.0179 226.668 37.0381H226.782L227.005 37.0985L227.246 37.159L227.408 37.2073C227.489 37.2286 227.565 37.2656 227.631 37.3161C227.69 37.3606 227.743 37.4136 227.787 37.4732C227.829 37.5325 227.861 37.5977 227.884 37.6666C227.892 37.7328 227.892 37.7999 227.884 37.8661C227.888 37.9969 227.856 38.1263 227.793 38.2408C227.735 38.3401 227.655 38.4248 227.559 38.4886C227.46 38.5562 227.35 38.6054 227.234 38.6337C227.11 38.663 226.982 38.6772 226.855 38.676C226.715 38.6785 226.575 38.6623 226.439 38.6276C226.318 38.5923 226.204 38.5349 226.102 38.4584C226.003 38.383 225.924 38.2831 225.874 38.1683C225.811 38.0407 225.78 37.8996 225.783 37.7573L226.271 37.8057Z" fill="white"/>
<path d="M228.328 36.0769H228.966L229.676 38.0775L230.368 36.0527H231V38.6819H230.567V36.6873L229.881 38.6819H229.508L228.798 36.6873V38.6819H228.37L228.328 36.0769Z" fill="white"/>
<path d="M116.541 33.2955L136.58 17.6416L136.785 17.9136L118.376 35.435L116.541 33.2955Z" fill="white"/>
<path d="M99.2215 18.1924L99.3418 17.9446L99.6247 17.8963L101.599 17.5518L100.263 16.2886L98.2706 17.3946L98.1924 17.31L100.01 14.7776L100.238 13.7139L98.5174 14.6809L98.2406 14.838L98.0059 14.7232L96.1885 13.8287L96.5856 15.8293L96.6338 16.0831L96.5014 16.2161L95.0391 17.7331L97.037 17.9688L97.3138 17.999L97.4221 18.2106L98.385 20.0359L99.2215 18.1924Z" fill="white"/>
<path d="M90.4601 30.1724L90.5383 30.0031L90.7309 29.9669L92.0608 29.7372L91.1641 28.885L89.8161 29.6345L89.768 29.574L90.9896 27.8636L91.1461 27.1504L89.9846 27.8031L89.7981 27.9059L89.6416 27.8334L88.414 27.2229L88.6848 28.5768L88.7149 28.746L88.6306 28.8367L87.6377 29.8581L88.9857 30.0152L89.1722 30.0394L89.2505 30.1784L89.8944 31.4114L90.4601 30.1724Z" fill="white"/>
<path d="M113.286 8.87838L113.473 8.58827L113.834 8.57618L116.367 8.51574L114.929 6.69046L112.233 7.70585L112.155 7.58497L114.893 4.75035L115.374 3.46298L113.045 4.35749L112.666 4.50254L112.395 4.30914L110.283 2.85254L110.416 5.43331L110.434 5.75364L110.241 5.90474L108.135 7.52453L110.59 8.18936L110.927 8.28002L111.029 8.56409L111.896 11.024L113.286 8.87838Z" fill="white"/>
<path d="M131.729 8.83628L132.09 8.54617L132.548 8.68518L135.761 9.65826L134.708 6.7632L130.899 6.92035L130.845 6.73298L135.46 4.30935L136.598 2.88902L133.3 3.04616L132.764 3.07034L132.499 2.71979L130.447 0L129.545 3.30605L129.43 3.71704L129.135 3.81979L125.808 4.98023L128.624 6.84177L129.015 7.10166L129.021 7.50057L129.093 10.9517L131.729 8.83628Z" fill="white"/>
<path d="M148.02 20.7843L148.471 20.4942L148.983 20.7178L152.539 22.253L151.703 18.7958L147.316 18.4755L147.28 18.2579L152.888 16.0821L154.375 14.6013L150.572 14.3474L149.958 14.3051L149.699 13.87L147.695 10.4854L146.233 14.154L146.052 14.6134L145.697 14.692L141.731 15.5925L144.716 18.0887L145.132 18.4392L145.089 18.8986L144.728 22.8634L148.02 20.7843Z" fill="white"/>
</svg>
