<?xml version="1.0" standalone="no"?>
<!DOCTYPE svg PUBLIC "-//W3C//DTD SVG 1.1//EN" "http://www.w3.org/Graphics/SVG/1.1/DTD/svg11.dtd" >
<svg xmlns="http://www.w3.org/2000/svg" xmlns:xlink="http://www.w3.org/1999/xlink" version="1.1">
<metadata>
Created by FontForge 20170731 at Wed Dec 14 08:56:26 2022
 By Aleksey,,,
Copyright (c) 2020 by Doni Sukma. All rights reserved.
</metadata>
<defs>
<font id="Bauziet-Norm-RegularItalic" horiz-adv-x="1443" >
  <font-face 
    font-family="Regular"
    font-weight="400"
    font-style="italic"
    font-stretch="normal"
    units-per-em="2048"
    panose-1="0 0 5 0 0 0 0 0 0 0"
    ascent="1495"
    descent="-553"
    x-height="1085"
    cap-height="1434"
    bbox="-788 -528 3212.41 2042"
    underline-thickness="102"
    underline-position="-307"
    slope="-8"
    unicode-range="U+0020-1F642"
  />
<missing-glyph horiz-adv-x="2138" 
d="M1843 0h-1720l31 172q75 0 121 27t65 106l156 897q5 40 -3.5 65.5t-31.5 36.5t-47 14.5t-60 2.5l33 172l531 2l-29 -172h-9.5h-14t-16.5 -1t-19.5 -3t-20.5 -6t-20.5 -10t-19 -15.5t-17.5 -21t-13.5 -28t-9.5 -36.5l-149 -811q-17 -95 -37 -148t-62 -89l29 -37
q40 33 96.5 49t94.5 18t112 2h674q32 0 47.5 0.5t40.5 3.5t38 10.5t28.5 20.5t24.5 34t15 50l33 201h201zM1622 1278q0 59 35.5 94t93.5 35q57 0 91 -34.5t34 -94.5q0 -55 -34.5 -90t-90.5 -35q-57 0 -93 35.5t-36 89.5zM1653 1282q0 -49 26 -77.5t72 -28.5q43 0 68.5 29
t25.5 73q0 47 -25 74.5t-69 27.5q-48 0 -73 -26t-25 -72zM1733 1217h-27v124h55q18 0 32.5 -10t14.5 -31q0 -13 -7.5 -23.5t-18.5 -12.5l26 -47h-30l-21 43h-24v-43zM1733 1319v-41h24q9 0 17 5.5t8 12.5q0 23 -21 23h-28zM1094 336h-394l31 168h227l7 37q-91 46 -138 128
t-47 183q0 183 131.5 303.5t343.5 120.5q192 0 310 -100.5t118 -264.5q0 -132 -77 -233.5t-203 -136.5l-8 -37h209l-23 -168h-397l41 246q120 19 195 99.5t75 190.5q0 106 -67 169t-179 63q-126 0 -205 -78t-79 -199q0 -91 47 -157t123 -88z" />
    <glyph glyph-name="fi" unicode="fi" horiz-adv-x="1310" 
d="M1028 1401q0 65 45 106t109 41q61 0 99 -37t38 -94q0 -64 -45 -104.5t-109 -40.5q-61 0 -99 35.5t-38 93.5zM332 918h-230l25 167h229l15 121q42 310 383 310q75 0 116 -13l4 -172q-54 15 -100 15q-99 0 -147.5 -36.5t-61.5 -133.5l-10 -91h674l-152 -1085h-196l127 918
h-478l-129 -918h-198z" />
    <glyph glyph-name="f_f.liga" unicode="ff" horiz-adv-x="1484" 
d="M332 918h-230l25 167h229l15 121q42 310 383 310q75 0 116 -13l4 -172q-54 15 -100 15q-99 0 -147.5 -36.5t-61.5 -133.5l-10 -91h461l16 121q42 310 383 310q76 0 117 -13l4 -172q-54 15 -102 15q-99 0 -147 -36.5t-60 -133.5l-10 -91h307l-25 -167h-307l-129 -918h-201
l129 918h-461l-129 -918h-198z" />
    <glyph glyph-name="f_f_i.liga" unicode="ffi" horiz-adv-x="1972" 
d="M1690 1401q0 65 44 106t109 41q60 0 97.5 -37t37.5 -94q0 -65 -44 -105t-109 -40q-60 0 -97.5 35.5t-37.5 93.5zM332 918h-230l25 167h229l15 121q42 310 383 310q75 0 116 -13l4 -172q-54 15 -100 15q-99 0 -147.5 -36.5t-61.5 -133.5l-10 -91h461l16 121
q42 310 383 310q76 0 117 -13l4 -172q-54 15 -102 15q-99 0 -147 -36.5t-60 -133.5l-10 -91h671l-151 -1085h-197l129 918h-477l-129 -918h-201l129 918h-461l-129 -918h-198z" />
    <glyph glyph-name="f_t.liga" unicode="ft" horiz-adv-x="1507" 
d="M332 918h-230l25 167h229l15 121q42 310 383 310q75 0 116 -13l4 -172q-54 15 -100 15q-99 0 -147.5 -36.5t-61.5 -133.5l-10 -91h457l37 279l206 37l-45 -316h312l-25 -167h-311l-86 -607q-11 -88 20.5 -118.5t106.5 -30.5q77 0 127 31l-54 -189q-64 -31 -155 -31
q-148 0 -209 77t-41 212l92 656h-457l-129 -918h-198z" />
    <glyph glyph-name="t_f.liga" unicode="tf" horiz-adv-x="1484" 
d="M297 918h-209l25 167h209l38 279l205 37l-43 -316h494l16 121q39 310 381 310q76 0 117 -13l4 -172q-51 15 -100 15q-98 0 -146 -36t-61 -134l-13 -91h310l-25 -167h-309l-129 -918h-199l129 918h-493l-86 -607q-13 -88 19 -118.5t108 -30.5q75 0 125 31l-52 -189
q-67 -31 -157 -31q-148 0 -208 77t-40 212z" />
    <glyph glyph-name="t_i.liga" unicode="ti" horiz-adv-x="1288" 
d="M1006 1401q0 65 44.5 106t108.5 41q61 0 99 -37t38 -94q0 -64 -45 -104.5t-108 -40.5q-61 0 -99 35.5t-38 93.5zM297 918h-209l25 167h209l38 279l203 37l-43 -316h686l-151 -1085h-197l127 918h-489l-86 -607q-13 -88 19 -118.5t108 -30.5q75 0 125 31l-52 -189
q-67 -31 -157 -31q-147 0 -206.5 77t-39.5 212z" />
    <glyph glyph-name="t_t.liga" unicode="tt" horiz-adv-x="1456" 
d="M297 918h-209l25 167h209l38 279l205 37l-43 -316h439l38 279l205 37l-43 -316h309l-24 -167h-309l-86 -607q-13 -88 19 -118.5t108 -30.5q75 0 125 31l-52 -189q-67 -31 -157 -31q-148 0 -208 77t-40 212l90 656h-438l-86 -607q-13 -88 19 -118.5t108 -30.5q75 0 125 31
l-52 -189q-67 -31 -157 -31q-148 0 -208 77t-40 212z" />
    <glyph glyph-name="t_t_i.liga" unicode="tti" horiz-adv-x="1921" 
d="M1638 1401q0 65 44 106t110 41q60 0 97.5 -37t37.5 -94q0 -65 -44 -105t-109 -40q-60 0 -98 35.5t-38 93.5zM297 918h-209l25 167h209l38 279l205 37l-43 -316h439l38 279l205 37l-43 -316h676l-151 -1085h-197l129 918h-481l-86 -607q-13 -88 19 -118.5t108 -30.5
q75 0 125 31l-52 -189q-67 -31 -157 -31q-148 0 -208 77t-40 212l90 656h-438l-86 -607q-13 -88 19 -118.5t108 -30.5q75 0 125 31l-52 -189q-67 -31 -157 -31q-148 0 -208 77t-40 212z" />
    <glyph glyph-name=".notdef" horiz-adv-x="2138" 
d="M1843 0h-1720l31 172q75 0 121 27t65 106l156 897q5 40 -3.5 65.5t-31.5 36.5t-47 14.5t-60 2.5l33 172l531 2l-29 -172h-9.5h-14t-16.5 -1t-19.5 -3t-20.5 -6t-20.5 -10t-19 -15.5t-17.5 -21t-13.5 -28t-9.5 -36.5l-149 -811q-17 -95 -37 -148t-62 -89l29 -37
q40 33 96.5 49t94.5 18t112 2h674q32 0 47.5 0.5t40.5 3.5t38 10.5t28.5 20.5t24.5 34t15 50l33 201h201zM1622 1278q0 59 35.5 94t93.5 35q57 0 91 -34.5t34 -94.5q0 -55 -34.5 -90t-90.5 -35q-57 0 -93 35.5t-36 89.5zM1653 1282q0 -49 26 -77.5t72 -28.5q43 0 68.5 29
t25.5 73q0 47 -25 74.5t-69 27.5q-48 0 -73 -26t-25 -72zM1733 1217h-27v124h55q18 0 32.5 -10t14.5 -31q0 -13 -7.5 -23.5t-18.5 -12.5l26 -47h-30l-21 43h-24v-43zM1733 1319v-41h24q9 0 17 5.5t8 12.5q0 23 -21 23h-28zM1094 336h-394l31 168h227l7 37q-91 46 -138 128
t-47 183q0 183 131.5 303.5t343.5 120.5q192 0 310 -100.5t118 -264.5q0 -132 -77 -233.5t-203 -136.5l-8 -37h209l-23 -168h-397l41 246q120 19 195 99.5t75 190.5q0 106 -67 169t-179 63q-126 0 -205 -78t-79 -199q0 -91 47 -157t123 -88z" />
    <glyph glyph-name=".null" horiz-adv-x="0" 
 />
    <glyph glyph-name="nonmarkingreturn" horiz-adv-x="682" 
 />
    <glyph glyph-name="space" unicode=" " horiz-adv-x="546" 
 />
    <glyph glyph-name="exclam" unicode="!" horiz-adv-x="657" 
d="M362 473h-92l27 602l51 359h209l-51 -359zM268 -25q-65 0 -104 38t-39 98q0 64 45.5 102.5t110.5 38.5q63 0 102 -37t39 -96q0 -65 -45 -104.5t-109 -39.5z" />
    <glyph glyph-name="quotedbl" unicode="&#x22;" horiz-adv-x="792" 
d="M152 887l75 547h179l-76 -547h-178zM565 887l76 547h178l-76 -547h-178z" />
    <glyph glyph-name="numbersign" unicode="#" horiz-adv-x="1452" 
d="M375 0h-172l63 213q36 122 115 195l-35 43q-70 -70 -217 -70h-66v156h295l113 383h-256v155h299l104 359h173l-58 -191q-35 -120 -112 -194l34 -43q69 69 226 69h135l104 359h174l-55 -185q-20 -75 -45.5 -116.5t-69.5 -83.5l35 -43q69 69 217 69h64v-155h-293l-115 -383
h256v-156h-297l-112 -381h-172l61 207q37 126 115 201l-33 43q-74 -70 -219 -70h-146zM643 920l-113 -383h330l115 383h-332z" />
    <glyph glyph-name="dollar" unicode="$" horiz-adv-x="1447" 
d="M88 461l207 33q6 -127 94 -222.5t223 -115.5l70 491q-55 13 -95 24t-91.5 29.5t-88 38.5t-74.5 49.5t-61 64.5t-38 82.5t-15 102.5q0 194 162 311t418 115q0 93 18 211h164q-13 -104 -45 -219q198 -31 325.5 -145.5t145.5 -286.5l-211 -39q-13 122 -89.5 195t-193.5 98
l-65 -459l37 -8q42 -9 66.5 -15t66.5 -18.5t68.5 -23.5t62.5 -29.5t59 -39t48.5 -49.5t39.5 -62t23.5 -76t9.5 -92q0 -200 -162.5 -321t-439.5 -120q-4 -129 -16 -215h-164q13 117 43 225q-226 34 -356.5 158.5t-145.5 327.5zM436 1079q0 -95 63.5 -146.5t211.5 -82.5
l34 242q24 163 99 213l-21 59q-195 -24 -291 -98.5t-96 -186.5zM674 129l10 -55q192 5 311 85t119 212q0 50 -15 88.5t-39 63t-64.5 43.5t-79.5 30t-97 22l-37 -272q-11 -84 -35 -135t-73 -82z" />
    <glyph glyph-name="percent" unicode="%" horiz-adv-x="1624" 
d="M1038 -20q-163 0 -261.5 97t-98.5 257q0 42 10 84.5t16 56.5t23 53l-51 11q-56 -112 -107 -192t-114 -148l-183 -199h-176l2 18l371 408q128 140 311 254l-30 49q-74 -67 -195 -67q-148 0 -238 103t-90 273q0 193 113.5 311.5t298.5 118.5q162 0 261 -97.5t99 -256.5
q0 -13 -1 -26.5t-2 -24t-4 -23t-5 -20.5t-6 -20t-6 -17.5t-7 -17.5t-6.5 -15t-7 -15t-6.5 -13l49 -11q114 219 224 340l182 199h176l-2 -18l-371 -408q-135 -148 -309 -256l29 -47q74 67 196 67q147 0 236.5 -103t89.5 -273q0 -193 -113.5 -312.5t-296.5 -119.5zM596 797
q109 0 173.5 80.5t64.5 212.5q0 117 -52.5 179t-144.5 62q-109 0 -173.5 -82t-64.5 -213q0 -116 52.5 -177.5t144.5 -61.5zM1038 119q109 0 173.5 82t64.5 213q0 116 -52.5 177.5t-144.5 61.5q-109 0 -173 -81t-64 -212q0 -118 52 -179.5t144 -61.5z" />
    <glyph glyph-name="ampersand" unicode="&#x26;" horiz-adv-x="1423" 
d="M86 338q0 166 112.5 288t299.5 160q-91 76 -135 150.5t-44 167.5q0 110 58.5 193.5t153.5 126t210 42.5q169 0 273 -90t104 -231q0 -140 -106.5 -237.5t-286.5 -119.5l-12 -51q6 -5 51 -34.5t94 -67t90 -76.5l84 -82q96 108 174 295l176 -67q-42 -96 -110 -170.5
t-150 -110.5l-16 -45q83 -84 132.5 -184.5t57.5 -194.5h-223q-21 129 -76 236h-49q-61 -127 -185.5 -199t-273.5 -72q-183 0 -293 104.5t-110 268.5zM516 1112q0 -65 39 -123t125 -125q252 90 252 262q0 83 -56.5 134t-146.5 51q-95 0 -154 -55.5t-59 -143.5zM299 373
q0 -104 66 -167t182 -63q114 0 208 59.5t136 153.5l-301 314q-135 -24 -213 -105.5t-78 -191.5z" />
    <glyph glyph-name="quotesingle" unicode="'" horiz-adv-x="378" 
d="M152 887l75 547h179l-76 -547h-178z" />
    <glyph glyph-name="parenleft" unicode="(" horiz-adv-x="784" 
d="M166 420q0 320 143.5 625.5t413.5 566.5l117 -99q-78 -78 -145 -161.5t-132.5 -192t-111 -222t-73.5 -252t-28 -282.5q0 -375 234 -708l-127 -90q-291 377 -291 815z" />
    <glyph glyph-name="parenright" unicode=")" horiz-adv-x="798" 
d="M649 784q0 -317 -143 -623.5t-414 -566.5l-115 101q76 76 142 158t132 190.5t112 222t75 254t29 285.5q0 374 -234 708l127 89q289 -371 289 -818z" />
    <glyph glyph-name="asterisk" unicode="*" horiz-adv-x="1030" 
d="M512 1071l-4 12q-33 5 -64.5 11.5t-51.5 11.5t-51 15t-41 13.5t-43.5 16t-37.5 14.5l68 133q56 -18 80 -27t74.5 -35t101.5 -62l14 10q-8 57 -4.5 125t7 94.5t13.5 81.5h150q-18 -160 -66 -299l9 -10q61 35 120.5 61.5t85.5 34.5t84 26l31 -133q-7 -2 -51 -17.5
t-59.5 -20t-52.5 -15t-70.5 -17t-73.5 -12.5l-8 -14q107 -100 186 -233l-131 -88q-3 4 -18.5 26t-20 29.5t-18 29t-21 36t-19 37.5t-21 47.5t-19.5 52.5h-19q-37 -59 -78 -111.5t-64.5 -77.5t-68.5 -72l-102 91q46 51 71 77.5t73.5 69.5t109.5 88z" />
    <glyph glyph-name="plus" unicode="+" horiz-adv-x="1316" 
d="M774 768h463l-23 -158h-462l-66 -467h-164l66 467h-465l22 158h465l66 467h164z" />
    <glyph glyph-name="comma" unicode="," horiz-adv-x="548" 
d="M266 -47l-180 -219l-92 71l145 179q-41 12 -65.5 46.5t-24.5 80.5q0 64 45 102.5t109 38.5q63 0 103 -38t40 -97q0 -42 -18 -76t-62 -88z" />
    <glyph glyph-name="hyphen" unicode="-" horiz-adv-x="757" 
d="M123 578l24 176h523l-25 -176h-522z" />
    <glyph glyph-name="period" unicode="." horiz-adv-x="620" 
d="M242 -25q-64 0 -103 38.5t-39 97.5q0 64 45 102.5t109 38.5t103.5 -37t39.5 -96q0 -65 -45 -104.5t-110 -39.5z" />
    <glyph glyph-name="slash" unicode="/" horiz-adv-x="952" 
d="M-41 0l868 1434h217l-868 -1434h-217z" />
    <glyph glyph-name="zero" unicode="0" horiz-adv-x="1425" 
d="M696 -37q-258 0 -411.5 181t-153.5 499q0 183 47 337t131.5 261t205.5 167t265 60q259 0 412.5 -181.5t153.5 -498.5q0 -245 -81 -433t-228.5 -290t-340.5 -102zM700 150q201 0 320 173t119 463q0 233 -96.5 364.5t-266.5 131.5q-200 0 -319 -173t-119 -464
q0 -234 96.5 -364.5t265.5 -130.5z" />
    <glyph glyph-name="one" unicode="1" horiz-adv-x="991" 
d="M618 0h-200l112 825q19 134 47 211.5t93 149.5l-54 53q-167 -185 -423 -215l26 180q272 51 451 230h151z" />
    <glyph glyph-name="two" unicode="2" horiz-adv-x="1267" 
d="M1085 0h-1046l22 168l607 414q194 134 270 236.5t76 221.5q0 117 -77.5 184.5t-207.5 67.5q-158 0 -262 -93t-117 -255l-190 19q26 232 185.5 367.5t395.5 135.5q215 0 346.5 -110.5t131.5 -300.5q0 -123 -53.5 -229t-147 -191.5t-242.5 -179.5q-241 -169 -473 -293
l31 -76q199 88 411 88h365z" />
    <glyph glyph-name="three" unicode="3" horiz-adv-x="1347" 
d="M649 -33q-261 0 -410.5 131t-152.5 361l188 30q1 -166 103 -257t280 -91q167 0 267 81t100 214q0 107 -70 163t-196 56h-203l23 158h163q162 0 251 64.5t89 183.5q0 111 -79.5 172t-225.5 61q-162 0 -263 -75t-128 -201l-178 49q41 187 198 293t388 106q230 0 362.5 -103
t132.5 -271q0 -125 -73.5 -212t-206.5 -118l-9 -70q104 -22 164 -99.5t60 -193.5q0 -133 -76 -232t-205 -149.5t-293 -50.5z" />
    <glyph glyph-name="four" unicode="4" horiz-adv-x="1458" 
d="M1055 0h-201l45 324h-858l25 161l960 949h229l-129 -936h236l-27 -174h-235zM1040 1253l-761 -759l40 -58q84 62 273 62h334l57 413q24 189 104 285z" />
    <glyph glyph-name="five" unicode="5" horiz-adv-x="1370" 
d="M74 403l190 41q22 -137 129 -220t269 -83q172 0 280.5 95t108.5 256q0 138 -87.5 221.5t-238.5 83.5q-112 0 -221.5 -47t-186.5 -127l-157 53l211 758h905l-29 -179h-735l-53 -192q-29 -104 -135 -256l51 -43q66 86 183.5 137t242.5 51q205 0 329.5 -126t124.5 -332
q0 -237 -164 -382t-434 -145q-244 0 -401 120.5t-182 315.5z" />
    <glyph glyph-name="six" unicode="6" horiz-adv-x="1441" 
d="M731 -33q-285 0 -443.5 177.5t-158.5 478.5q0 243 96.5 436t267.5 300t386 107q206 0 347 -95.5t179 -258.5l-209 -51q-27 106 -115.5 167.5t-220.5 61.5q-225 0 -368.5 -166.5t-155.5 -445.5l55 -4q70 119 206 191.5t288 72.5q195 0 315.5 -119.5t120.5 -326.5
q0 -237 -164 -381t-426 -144zM743 141q167 0 271 95.5t104 252.5q0 140 -86.5 218.5t-232.5 78.5q-134 0 -261 -73t-202 -193q15 -177 125 -278t282 -101z" />
    <glyph glyph-name="seven" unicode="7" horiz-adv-x="1253" 
d="M635 1255h-457l29 179h1104l-25 -160l-844 -1274h-233l2 16l643 947q75 114 130.5 179.5t133.5 127.5l-45 73q-143 -88 -438 -88z" />
    <glyph glyph-name="eight" unicode="8" horiz-adv-x="1447" 
d="M80 352q0 152 105 255t280 126l8 60q-115 28 -178.5 100t-63.5 178q0 123 80.5 213.5t215.5 136t307 45.5q255 0 394.5 -97t139.5 -263q0 -136 -88.5 -220.5t-237.5 -105.5l-8 -59q135 -25 211 -110t76 -216q0 -140 -83 -237.5t-225 -144t-333 -46.5q-288 0 -444 104
t-156 281zM430 1049q0 -106 92 -166t264 -60q185 0 280 68t95 182q0 110 -91.5 166.5t-256.5 56.5q-183 0 -283 -66t-100 -181zM289 397q0 -128 107 -193t296 -65q205 0 316.5 76t111.5 209q0 128 -104.5 194t-290.5 66q-199 0 -317.5 -74.5t-118.5 -212.5z" />
    <glyph glyph-name="nine" unicode="9" horiz-adv-x="1439" 
d="M758 1466q284 0 443 -180t159 -491q0 -187 -55.5 -343t-154 -262t-236.5 -164.5t-300 -58.5q-203 0 -346.5 97.5t-185.5 257.5l207 53q31 -106 122 -169t216 -63q236 0 376.5 160t149.5 453l-55 6q-70 -127 -204.5 -196.5t-287.5 -69.5q-197 0 -318.5 119.5t-121.5 326.5
q0 158 76 278t209.5 183t306.5 63zM745 1292q-169 0 -271.5 -94.5t-102.5 -251.5q0 -141 86 -219t233 -78q140 0 266 68t195 196q-13 170 -125 274.5t-281 104.5z" />
    <glyph glyph-name="colon" unicode=":" horiz-adv-x="663" 
d="M375 756q-65 0 -104.5 38t-39.5 97q0 64 45.5 102.5t110.5 38.5q63 0 102 -37t39 -96q0 -66 -44 -104.5t-109 -38.5zM266 -25q-65 0 -104 38t-39 98q0 64 45.5 102.5t110.5 38.5q63 0 102 -37t39 -96q0 -65 -45 -104.5t-109 -39.5z" />
    <glyph glyph-name="semicolon" unicode=";" horiz-adv-x="663" 
d="M377 756q-64 0 -104 38t-40 97q0 64 45.5 102.5t110.5 38.5q63 0 102 -37t39 -96q0 -66 -44 -104.5t-109 -38.5zM344 -45l-180 -221l-92 71l143 181q-41 12 -65.5 46t-24.5 79q0 65 46 104t110 39q61 0 101 -38t40 -97q0 -43 -17.5 -77t-60.5 -87z" />
    <glyph glyph-name="less" unicode="&#x3c;" horiz-adv-x="1239" 
d="M1020 422l-29 -191l-823 328l33 246l919 330l-26 -191l-402 -137q-214 -72 -323 -90l-11 -68q134 -26 299 -92z" />
    <glyph glyph-name="equal" unicode="=" horiz-adv-x="1167" 
d="M199 1001h899l-23 -155h-897zM133 535h899l-22 -158h-899z" />
    <glyph glyph-name="greater" unicode="&#x3e;" horiz-adv-x="1236" 
d="M1067 559l-917 -328l26 191l399 135q182 65 326 92l8 68q-124 24 -299 90l-362 137l28 191l824 -330z" />
    <glyph glyph-name="question" unicode="?" horiz-adv-x="1257" 
d="M717 432h-180l36 262q200 3 316.5 89t116.5 243q0 122 -74.5 194t-204.5 72q-133 0 -226.5 -71.5t-129.5 -190.5l-178 47q51 178 202.5 283.5t354.5 105.5q211 0 336.5 -118t125.5 -306q0 -192 -128.5 -315t-348.5 -145zM586 -25q-60 0 -96.5 37t-36.5 94q0 66 44 106
t105 40q60 0 96.5 -37t36.5 -94q0 -66 -44 -106t-105 -40z" />
    <glyph glyph-name="at" unicode="@" horiz-adv-x="2125" 
d="M981 -324q-190 0 -353 62.5t-279 174t-181.5 273.5t-65.5 355q0 219 80.5 404t221.5 312.5t337 199t422 71.5q258 0 461 -96.5t316.5 -272.5t113.5 -401q0 -138 -39.5 -255t-106 -195.5t-153.5 -122.5t-182 -44q-101 0 -164.5 48.5t-81.5 134.5h-53q-54 -83 -159 -133
t-226 -50q-166 0 -262.5 106t-96.5 285q0 121 41 226t111.5 177.5t165.5 113.5t201 41q127 0 215 -53.5t118 -145.5h54l55 170h176l-166 -543q-68 -227 94 -227q126 0 212.5 128.5t86.5 323.5q0 138 -52 255t-146 201t-231.5 131.5t-303.5 47.5q-197 0 -363 -61
t-281.5 -170.5t-180 -265t-64.5 -340.5q0 -167 56.5 -303.5t155.5 -226.5t232.5 -138.5t289.5 -48.5q160 0 312 45t269 127l62 -133q-115 -83 -299.5 -135t-368.5 -52zM993 309q85 0 158 37t125 103l72 268q-15 96 -82 149.5t-172 53.5q-153 0 -249.5 -103t-96.5 -258
q0 -119 65 -184.5t180 -65.5z" />
    <glyph glyph-name="A" unicode="A" 
d="M1327 0h-211l-65 272h-721l-142 -272h-221l760 1434h242zM627 846l-203 -393h584l-84 350q-60 250 -66 424h-70q-45 -154 -161 -381z" />
    <glyph glyph-name="B" unicode="B" horiz-adv-x="1402" 
d="M1020 791l-8 -72q119 -15 182 -88t63 -185q0 -209 -139.5 -327.5t-376.5 -118.5h-645l201 1434h666q164 0 255 -78.5t91 -214.5t-76 -229t-213 -121zM881 1253h-410l-57 -419h403q135 0 207 65.5t72 183.5q0 170 -215 170zM324 180h411q159 0 240.5 76.5t81.5 216.5
q0 193 -240 193h-426z" />
    <glyph glyph-name="C" unicode="C" horiz-adv-x="1630" 
d="M143 684q0 177 58 325t159 248t239 155.5t296 55.5q253 0 428 -134t215 -357l-203 -55q-23 163 -145 260.5t-305 97.5q-240 0 -385.5 -165t-145.5 -423q0 -245 131.5 -391.5t350.5 -146.5q188 0 321 102t170 270l193 -49q-47 -230 -237.5 -371t-453.5 -141
q-146 0 -271 48.5t-217.5 138.5t-145 227t-52.5 305z" />
    <glyph glyph-name="D" unicode="D" horiz-adv-x="1462" 
d="M297 1434h483q284 0 439 -172.5t155 -473.5q0 -182 -55.5 -330.5t-156 -248.5t-240.5 -154.5t-308 -54.5h-518zM328 186h297q252 0 397 161.5t145 434.5q0 224 -105.5 344.5t-291.5 120.5h-297z" />
    <glyph glyph-name="E" unicode="E" horiz-adv-x="1196" 
d="M1241 1434l-29 -187h-737l-61 -426h684l-27 -172h-682l-63 -463h743l-29 -186h-944l201 1434h944z" />
    <glyph glyph-name="F" unicode="F" horiz-adv-x="1161" 
d="M96 0l201 1434h950l-26 -187h-748l-65 -489h706l-27 -178h-708l-80 -580h-203z" />
    <glyph glyph-name="G" unicode="G" horiz-adv-x="1617" 
d="M141 674q0 226 92.5 406t265 284t394.5 104q256 0 430 -132t211 -351l-201 -53q-23 158 -144 253t-302 95q-242 0 -388.5 -166.5t-146.5 -431.5q0 -248 131.5 -391.5t337.5 -143.5q170 0 291 95t162 250l8 59h-448l22 160h627l-101 -711h-172l4 25q1 14 7 32.5t13.5 36
t24.5 59t31 76.5l-67 27q-60 -133 -180 -210t-279 -77q-127 0 -240 48.5t-198 137.5t-135 223.5t-50 295.5z" />
    <glyph glyph-name="H" unicode="H" horiz-adv-x="1456" 
d="M96 0l201 1434h203l-82 -603h704l82 603h205l-201 -1434h-207l91 641h-703l-90 -641h-203z" />
    <glyph glyph-name="I" unicode="I" horiz-adv-x="587" 
d="M117 0l200 1434h205l-200 -1434h-205z" />
    <glyph glyph-name="J" unicode="J" horiz-adv-x="1183" 
d="M66 473l8 59l202 31l-10 -71q-24 -168 43 -253t201 -85q259 0 307 350l131 930h205l-137 -971q-72 -498 -516 -498q-229 0 -344.5 137.5t-89.5 370.5z" />
    <glyph glyph-name="K" unicode="K" horiz-adv-x="1333" 
d="M96 0l201 1434h203l-51 -383q-13 -104 -39.5 -182.5t-79.5 -151.5l47 -45l756 762h272l-635 -627l432 -807h-237l-344 674h-3l-260 -252l-59 -422h-203z" />
    <glyph glyph-name="L" unicode="L" horiz-adv-x="1122" 
d="M96 0l201 1434h203l-172 -1248h702l-29 -186h-905z" />
    <glyph glyph-name="M" unicode="M" horiz-adv-x="1839" 
d="M293 0h-197l201 1434h332l196 -838q25 -187 19 -322h63q39 152 86 263l455 897h346l-201 -1434h-198l98 696q38 261 137 523l-86 26l-608 -1245h-186l-261 1243l-90 -24q27 -264 -4 -488z" />
    <glyph glyph-name="N" unicode="N" horiz-adv-x="1484" 
d="M96 0l201 1434h225l549 -1139h4l158 1139h205l-201 -1434h-227l-549 1130h-4l-158 -1130h-203z" />
    <glyph glyph-name="O" unicode="O" horiz-adv-x="1662" 
d="M139 666q0 233 97 416t271 284.5t396 101.5q300 0 486 -191.5t186 -508.5q0 -233 -97 -416t-271 -285t-394 -102q-198 0 -351 86t-238 245.5t-85 369.5zM350 678q0 -241 128.5 -383.5t344.5 -142.5q239 0 390 165t151 437q0 242 -128.5 384t-342.5 142q-241 0 -392 -164
t-151 -438z" />
    <glyph glyph-name="P" unicode="P" horiz-adv-x="1378" 
d="M297 1434h635q194 0 305 -109t111 -305q0 -235 -151.5 -366.5t-414.5 -131.5h-409l-74 -522h-203zM397 707h406q163 0 248.5 80t85.5 219q0 122 -66.5 182.5t-181.5 60.5h-416z" />
    <glyph glyph-name="Q" unicode="Q" horiz-adv-x="1671" 
d="M141 670q0 231 95.5 413t269 283.5t395.5 101.5q302 0 489 -192t187 -504q0 -281 -142.5 -471.5t-383.5 -251.5l-7 -61q116 -3 230 -55.5t178 -137.5l-164 -102q-96 115 -208.5 186.5t-200.5 91.5q-54 -4 -70 -4q-146 0 -269.5 50t-211.5 140.5t-137.5 222.5t-49.5 290z
M352 678q0 -239 128.5 -382.5t344.5 -143.5q244 0 392.5 166t148.5 434q0 239 -129 383.5t-346 144.5q-242 0 -390.5 -166t-148.5 -436z" />
    <glyph glyph-name="R" unicode="R" horiz-adv-x="1357" 
d="M1343 1061q0 -187 -123 -297.5t-335 -124.5l-11 -66q86 -26 133.5 -81t77.5 -158l52 -174q30 -109 75 -135l-2 -25h-229q-33 60 -43 104l-64 226q-33 118 -101.5 171.5t-176.5 53.5h-219l-78 -555h-203l201 1434h647q189 0 294 -99.5t105 -273.5zM401 739h420
q142 0 224.5 76.5t82.5 206.5q0 115 -63.5 171t-173.5 56h-418z" />
    <glyph glyph-name="S" unicode="S" horiz-adv-x="1335" 
d="M84 428l203 35q12 -155 116.5 -238.5t272.5 -83.5q157 0 241 62.5t84 175.5q0 57 -19.5 98t-61.5 69.5t-94 47.5t-132 37q-85 19 -146 38.5t-126.5 53t-106.5 75t-67.5 105.5t-26.5 144q0 194 142 306.5t374 112.5q233 0 385 -118.5t172 -311.5l-202 -41
q-15 141 -115.5 219t-249.5 78q-135 0 -215 -61t-80 -162q0 -46 15 -79.5t40 -57t77.5 -45.5t105.5 -37.5t147 -38.5q63 -15 112.5 -32t105.5 -49t93 -73t61.5 -106t24.5 -145q0 -206 -146 -323.5t-402 -117.5t-412 128t-170 335z" />
    <glyph glyph-name="T" unicode="T" horiz-adv-x="1255" 
d="M178 1434h1155l-26 -187h-478l-174 -1247h-204l174 1247h-475z" />
    <glyph glyph-name="U" unicode="U" 
d="M162 557l123 877h204l-122 -875q-29 -200 51 -302.5t256 -102.5q185 0 279.5 83t123.5 289l127 908h205l-129 -938q-37 -267 -185 -399t-419 -132q-130 0 -232 35.5t-173 106.5t-100 186t-9 264z" />
    <glyph glyph-name="V" unicode="V" horiz-adv-x="1449" 
d="M164 1434h209l182 -754q75 -334 78 -473h78q52 174 194 459l398 768h233l-758 -1434h-256z" />
    <glyph glyph-name="W" unicode="W" horiz-adv-x="1947" 
d="M291 0l-115 1434h203l47 -654q19 -266 -14 -538h80q45 178 170 446l339 746h181l127 -652q67 -363 65 -540h80q45 291 119 512l233 680h219l-514 -1434h-239l-139 752q-42 252 -35 458h-62q-45 -235 -157 -473l-351 -737h-237z" />
    <glyph glyph-name="X" unicode="X" horiz-adv-x="1413" 
d="M238 0h-258l606 727l-391 707h249l191 -359q72 -151 74 -248h77q36 111 138 248l284 359h260l-583 -709l399 -725h-250l-194 362q-29 60 -54 138.5t-28 126.5h-80q-19 -56 -57.5 -123.5t-75.5 -116.5z" />
    <glyph glyph-name="Y" unicode="Y" horiz-adv-x="1386" 
d="M596 561l-432 873h231l158 -338q112 -270 119 -369h84q30 98 223 373l254 334h242l-674 -873l-78 -561h-207z" />
    <glyph glyph-name="Z" unicode="Z" horiz-adv-x="1292" 
d="M1124 0h-1112l27 178l1010 1106l-45 57q-108 -94 -322 -94h-477l26 187h1078l-27 -179l-1012 -1105l45 -58q105 94 324 94h514z" />
    <glyph glyph-name="bracketleft" unicode="[" horiz-adv-x="708" 
d="M496 -311h-465l262 1865h465l-23 -165h-295l-217 -1534h297z" />
    <glyph glyph-name="backslash" unicode="\" horiz-adv-x="845" 
d="M117 1434h194l467 -1434h-194z" />
    <glyph glyph-name="bracketright" unicode="]" horiz-adv-x="704" 
d="M694 1554l-262 -1865h-465l23 166h297l215 1534h-297l24 165h465z" />
    <glyph glyph-name="asciicircum" unicode="^" horiz-adv-x="913" 
d="M350 946h-184l297 549h260l141 -549h-184l-43 187q-32 124 -43 204h-49q-55 -125 -99 -204z" />
    <glyph glyph-name="underscore" unicode="_" horiz-adv-x="1021" 
d="M4 -178l25 178h807l-25 -178h-807z" />
    <glyph glyph-name="grave" unicode="`" horiz-adv-x="411" 
d="M324 1274l-136 282h232l53 -282h-149z" />
    <glyph glyph-name="a" unicode="a" horiz-adv-x="1187" 
d="M1016 131q31 0 59 16l-20 -147q-52 -27 -123 -27q-77 0 -117 46.5t-31 127.5l2 21h-57q-43 -93 -142.5 -148t-224.5 -55q-140 0 -226.5 81t-86.5 210q0 150 102 240t287 122l389 66l2 10q19 135 -50.5 203t-190.5 68q-130 0 -202.5 -64t-78.5 -172l-190 37
q27 171 157 262.5t328 91.5q213 0 334 -119.5t90 -330.5l-57 -412q-13 -57 -4.5 -92t51.5 -35zM778 328l31 225l-315 -53q-248 -40 -248 -215q0 -77 53.5 -122.5t146.5 -45.5q110 0 200.5 59.5t131.5 151.5z" />
    <glyph glyph-name="b" unicode="b" horiz-adv-x="1300" 
d="M672 -33q-143 0 -246 70.5t-156 200.5l-59 -31q28 -124 31 -193l-2 -14h-181l207 1495h199l-29 -199q-4 -33 -12 -66.5t-14.5 -55t-21.5 -57t-20 -47.5t-25 -52.5t-24 -48.5l54 -41q62 90 162.5 140t214.5 50q205 0 334.5 -146t129.5 -392q0 -139 -42.5 -255t-116 -194
t-172.5 -121t-211 -43zM637 143q168 0 272.5 118t104.5 308q0 173 -89.5 274t-240.5 101q-101 0 -190.5 -52t-133.5 -140l-45 -359q26 -119 113.5 -184.5t208.5 -65.5z" />
    <glyph glyph-name="c" unicode="c" horiz-adv-x="1255" 
d="M86 514q0 265 162 435.5t422 170.5q210 0 352 -119t164 -309l-197 -41q-13 133 -100.5 211t-220.5 78q-171 0 -276 -117t-105 -305q0 -177 93.5 -276t250.5 -99q129 0 212.5 63t121.5 175l182 -68q-53 -162 -194 -255t-335 -93q-237 0 -384.5 152t-147.5 397z" />
    <glyph glyph-name="d" unicode="d" horiz-adv-x="1302" 
d="M543 -35q-204 0 -330.5 145.5t-126.5 385.5q0 142 42.5 260.5t116 197.5t172.5 122.5t212 43.5q138 0 239.5 -68.5t155.5 -195.5l57 33q-24 92 -25 188.5t15 202.5l27 215h200l-211 -1495h-165v6q7 36 57 150l-53 30q-51 -101 -156 -161t-227 -60zM623 141
q103 0 187.5 51.5t127.5 133.5l47 366q-33 122 -120.5 186t-205.5 64q-165 0 -268.5 -117.5t-103.5 -306.5q0 -171 91 -274t245 -103z" />
    <glyph glyph-name="e" unicode="e" horiz-adv-x="1265" 
d="M90 524q0 265 159.5 430.5t412.5 165.5q236 0 382 -146t146 -382q0 -60 -12 -119h-883q6 -160 100 -249t252 -89q237 0 348 187l117 -127q-69 -110 -198.5 -170t-280.5 -60q-246 0 -394.5 152t-148.5 407zM303 616h690q-5 153 -94.5 245.5t-239.5 92.5q-153 0 -250 -91
t-106 -247z" />
    <glyph glyph-name="f" unicode="f" horiz-adv-x="825" 
d="M332 918h-230l25 167h229l15 121q42 310 383 310q75 0 116 -13l4 -172q-54 15 -100 15q-98 0 -146.5 -36t-62.5 -134l-10 -91h307l-24 -167h-308l-129 -918h-198z" />
    <glyph glyph-name="g" unicode="g" horiz-adv-x="1101" 
d="M399 -528q-228 0 -339 66t-111 181q0 98 67 157.5t174 72.5l9 37q-34 19 -54 53.5t-20 75.5q0 71 48.5 119t131.5 57l4 43q-96 38 -149.5 124.5t-53.5 196.5q0 192 135 311t359 119h520l8 -151h-69q-95 0 -195 43l-30 -55q70 -37 108.5 -108.5t38.5 -162.5
q0 -175 -123.5 -281t-333.5 -106h-82q-139 -6 -139 -92q0 -74 117 -78l235 -14q299 -20 299 -264q0 -168 -141 -256t-414 -88zM526 412q127 0 206 77.5t79 206.5q0 111 -64 175.5t-178 64.5q-128 0 -205 -77t-77 -206q0 -111 63 -176t176 -65zM422 -391q174 0 251 44t77 126
q0 66 -42 92t-124 33l-293 22q-79 -9 -125.5 -52.5t-46.5 -106.5q0 -83 76.5 -120.5t226.5 -37.5z" />
    <glyph glyph-name="h" unicode="h" horiz-adv-x="1275" 
d="M256 0h-199l211 1495h199l-47 -328q-26 -173 -96 -280l53 -37q83 132 195.5 201t244.5 69q194 0 287 -132.5t59 -366.5l-88 -621h-196l79 584q50 356 -225 356q-119 0 -220 -68.5t-161 -189.5z" />
    <glyph glyph-name="i" unicode="i" horiz-adv-x="520" 
d="M375 1272q-61 0 -99 35.5t-38 93.5q0 65 44.5 106t108.5 41q61 0 99 -37t38 -94q0 -64 -45 -104.5t-108 -40.5zM90 0l152 1085h196l-151 -1085h-197z" />
    <glyph glyph-name="j" unicode="j" horiz-adv-x="514" 
d="M367 1272q-60 0 -98 35.5t-38 93.5q0 65 45 106t109 41q60 0 97.5 -37t37.5 -94q0 -65 -44 -105t-109 -40zM432 1085l-168 -1198q-27 -197 -129 -290t-276 -93q-59 0 -92 13l-5 172q42 -11 80 -11q196 0 228 226l163 1181h199z" />
    <glyph glyph-name="k" unicode="k" horiz-adv-x="1179" 
d="M256 0h-199l211 1495h199l-80 -569q-36 -239 -119 -353l51 -47q82 104 220 224l387 335h280l-536 -444l397 -641h-242l-309 524h-4l-207 -174z" />
    <glyph glyph-name="l" unicode="l" horiz-adv-x="483" 
d="M68 0l211 1495h196l-211 -1495h-196z" />
    <glyph glyph-name="m" unicode="m" horiz-adv-x="1882" 
d="M254 0h-197l152 1085h174l-2 -22q-4 -72 -57 -180l61 -23q66 133 160.5 196.5t202.5 63.5q117 0 193 -66t89 -192h55q55 123 155.5 190.5t225.5 67.5q170 0 255.5 -120.5t56.5 -327.5l-95 -672h-200l88 631q22 151 -25 231t-162 80q-105 0 -190 -66.5t-127 -175.5
l-98 -700h-199l88 631q22 152 -25.5 231.5t-162.5 79.5q-103 0 -189 -66.5t-129 -175.5z" />
    <glyph glyph-name="n" unicode="n" horiz-adv-x="1273" 
d="M350 682l-96 -682h-197l152 1085h170v-14q-13 -114 -55 -194l61 -31q73 134 183.5 204t234.5 70q198 0 294 -135t64 -364l-88 -621h-196l81 584q24 174 -36 266t-203 92q-109 0 -210.5 -71t-158.5 -189z" />
    <glyph glyph-name="o" unicode="o" horiz-adv-x="1302" 
d="M86 506q0 272 168 443t430 171q238 0 385.5 -147.5t147.5 -390.5q0 -276 -167.5 -446.5t-435.5 -170.5q-236 0 -382 148t-146 393zM1014 569q0 168 -94 269.5t-250 101.5q-169 0 -276 -119t-107 -305q0 -169 94 -269t250 -100q171 0 277 118t106 304z" />
    <glyph glyph-name="p" unicode="p" horiz-adv-x="1294" 
d="M188 -461h-198l217 1546h166v-6q-10 -47 -58 -149l54 -31q55 101 160.5 161t224.5 60q199 0 326.5 -145.5t127.5 -390.5q0 -273 -153 -446t-383 -173q-141 0 -244 69t-158 195l-57 -32q27 -82 30 -166t-10 -156zM635 143q165 0 269 118t104 306q0 171 -91 274t-245 103
q-103 0 -188.5 -51t-127.5 -133l-47 -367q33 -122 120.5 -186t205.5 -64z" />
    <glyph glyph-name="q" unicode="q" horiz-adv-x="1312" 
d="M1028 -461h-201l37 250q8 62 30 128.5t35 95t50 104.5l-51 41q-63 -90 -162.5 -140.5t-214.5 -50.5q-206 0 -335.5 146t-129.5 393q0 139 43 255t117 193.5t173 120.5t210 43q144 0 246 -69.5t157 -200.5l58 31q-28 124 -31 192l2 14h180zM616 141q102 0 191 53t133 140
l45 358q-27 120 -113.5 185t-207.5 65q-168 0 -272.5 -118t-104.5 -308q0 -173 89 -274t240 -101z" />
    <glyph glyph-name="r" unicode="r" horiz-adv-x="755" 
d="M352 696l-98 -696h-197l152 1085h168v-14q-3 -48 -16 -88.5t-42 -101.5l64 -21q118 242 319 242q61 0 91 -15l-15 -184q-59 19 -125 19q-98 0 -179 -60t-122 -166z" />
    <glyph glyph-name="s" unicode="s" horiz-adv-x="1089" 
d="M35 309l164 58q17 -116 107 -180t231 -64q110 0 171.5 44.5t61.5 123.5q0 35 -12 61.5t-31 44t-56.5 32.5t-73 24t-95.5 22q-43 10 -76 18.5t-73.5 23.5t-70.5 31.5t-60.5 41t-49.5 53.5t-31 68.5t-12 85.5q0 153 116 238t302 85q190 0 320 -89t155 -236l-162 -58
q-18 105 -107.5 167.5t-213.5 62.5q-99 0 -157 -41t-58 -113q0 -33 13 -58.5t33.5 -43t62 -33.5t80 -26.5t105.5 -26.5q64 -15 108.5 -29t94.5 -39.5t80 -57t50 -81t20 -113.5q0 -162 -122.5 -251t-318.5 -89q-204 0 -337 93t-158 251z" />
    <glyph glyph-name="t" unicode="t" horiz-adv-x="817" 
d="M455 -25q-148 0 -208 76t-40 211l90 656h-209l25 167h209l38 279l205 37l-43 -316h309l-24 -167h-309l-88 -615q-11 -84 21 -114.5t106 -30.5q81 0 125 30l-50 -186q-62 -27 -157 -27z" />
    <glyph glyph-name="u" unicode="u" horiz-adv-x="1273" 
d="M924 403l96 682h197l-152 -1085h-176l2 14q16 115 59 209l-61 23q-75 -138 -187 -209.5t-253 -71.5q-193 0 -281.5 132.5t-54.5 367.5l86 620h198l-82 -583q-25 -174 32.5 -265.5t193.5 -91.5q123 0 223 69t160 189z" />
    <glyph glyph-name="v" unicode="v" horiz-adv-x="1212" 
d="M430 0l-326 1085h215l132 -456q61 -225 65 -426h76q53 178 164 389l274 493h230l-631 -1085h-199z" />
    <glyph glyph-name="w" unicode="w" horiz-adv-x="1640" 
d="M676 463l-209 -463h-236l-127 1085h197l45 -428q23 -237 -2 -444h80q40 158 164 430l207 442h192l92 -444q45 -231 39 -428h82q32 199 123 446l160 426h205l-422 -1085h-234l-90 467q-45 279 -35 436h-76q-4 -21 -9 -42.5t-13 -47.5t-13 -43t-17.5 -49.5t-17 -46
t-20.5 -52.5t-19.5 -48.5t-23 -56t-22.5 -54.5z" />
    <glyph glyph-name="x" unicode="x" horiz-adv-x="1179" 
d="M-33 0l484 553l-320 532h240l82 -137q97 -174 114 -303h70q62 133 190 295l123 145h248l-467 -532l330 -553h-244l-76 129q-96 178 -125 338h-69q-77 -160 -203 -311l-131 -156h-246z" />
    <glyph glyph-name="y" unicode="y" horiz-adv-x="1202" 
d="M106 -496q-87 0 -141 31l29 182q47 -24 119 -24q153 0 243 172l66 125l-318 1095h213l127 -481q66 -247 74 -407h70q62 176 168 383l266 505h227l-710 -1269q-83 -150 -186.5 -231t-246.5 -81z" />
    <glyph glyph-name="z" unicode="z" horiz-adv-x="1069" 
d="M543 168h403l-24 -168h-920l27 174l796 764l-39 53q-60 -39 -119.5 -56t-144.5 -17h-377l23 167h891l-25 -174l-796 -764l38 -53q95 74 267 74z" />
    <glyph glyph-name="braceleft" unicode="{" horiz-adv-x="866" 
d="M199 -31l59 428q10 72 -9.5 98.5t-82.5 26.5h-45l33 238h45q63 0 90.5 27.5t38.5 99.5l53 385q21 149 92.5 215.5t220.5 66.5h193l-25 -170h-172q-66 0 -100.5 -35.5t-44.5 -121.5l-51 -373q-11 -78 -61 -127.5t-122 -52.5l-10 -66q69 -3 105 -51.5t26 -126.5l-57 -416
q-12 -83 11.5 -119t90.5 -36h170l-24 -170h-191q-37 0 -66.5 3.5t-57.5 12t-47 22.5t-35.5 35.5t-23.5 51t-9.5 68t6.5 87.5z" />
    <glyph glyph-name="bar" unicode="|" horiz-adv-x="718" 
d="M164 -205l229 1639h185l-230 -1639h-184z" />
    <glyph glyph-name="braceright" unicode="}" horiz-adv-x="866" 
d="M567 397l-61 -428q-22 -151 -94 -215.5t-219 -64.5h-191l25 170h170q67 0 100.5 36t44.5 119l59 416q10 78 60.5 126.5t122.5 51.5l10 66q-71 3 -108 52t-25 128l53 373q12 84 -10.5 120.5t-91.5 36.5h-170l22 170h191q142 0 199 -64.5t36 -217.5l-55 -385
q-9 -72 10 -99.5t84 -27.5h45l-33 -238h-47q-63 0 -90.5 -26.5t-36.5 -98.5z" />
    <glyph glyph-name="asciitilde" unicode="~" horiz-adv-x="1163" 
d="M272 500h-133q9 207 82 308t195 101q52 0 101.5 -26.5t77 -54t67.5 -74.5q47 -53 79 -78t68 -25q109 0 125 252h135q-9 -210 -82 -309.5t-192 -99.5q-42 0 -78 12t-68.5 38t-52.5 46.5t-51 56.5q-35 39 -50 54.5t-42.5 33t-53.5 17.5q-52 0 -86 -62.5t-41 -189.5z" />
    <glyph glyph-name="exclamdown" unicode="&#xa1;" horiz-adv-x="563" 
d="M350 1120q65 0 104.5 -38t39.5 -97q0 -64 -45.5 -102.5t-110.5 -38.5q-63 0 -102 37t-39 96q0 66 44 104.5t109 38.5zM256 623h92l-26 -603l-52 -358h-209l52 358z" />
    <glyph glyph-name="cent" unicode="&#xa2;" horiz-adv-x="1323" 
d="M113 694q0 174 79.5 310t216.5 211t310 81l31 228h139l-35 -240q175 -31 291.5 -142t136.5 -274l-201 -41q-7 101 -77.5 177t-174.5 96l-79 -572q-11 -78 -32 -127t-65 -84l35 -55q151 42 240.5 109.5t130.5 185.5l184 -70q-62 -162 -208 -250.5t-341 -93.5l-35 -249
h-137l35 260q-205 37 -324.5 182.5t-119.5 357.5zM317 696q0 -147 72 -245.5t193 -126.5l82 583q22 150 96 205l-37 51q-193 -54 -299.5 -171t-106.5 -296z" />
    <glyph glyph-name="sterling" unicode="&#xa3;" horiz-adv-x="1400" 
d="M330 188l18 -61q163 59 375 59h522l-26 -186h-1205l25 168h137q221 136 221 332q0 50 -20 108h-277l23 168h57q97 0 166 -63l45 43q-88 109 -88 264q0 195 149.5 320.5t389.5 125.5q215 0 356 -106t158 -279l-201 -55q-10 117 -97 185.5t-224 68.5q-158 0 -249 -84
t-91 -221q0 -111 59 -199h569l-22 -168h-522q14 -54 14 -104q-1 -110 -70.5 -190t-191.5 -126z" />
    <glyph glyph-name="currency" unicode="&#xa4;" horiz-adv-x="1347" 
d="M1245 1327l103 -119l-105 -92l-133 -94q59 -86 59 -207q0 -199 -137 -342l107 -94l78 -92l-136 -119l-80 90l-81 129q-126 -74 -279 -74q-152 0 -258 72l-119 -127l-102 -90l-103 119l103 92l135 94q-69 104 -57 244q15 178 135 305l-109 94l-78 92l136 119l79 -90
l82 -129q126 74 279 74q149 0 258 -72l117 127zM416 702q0 -105 68.5 -169t181.5 -64q136 0 229.5 93.5t93.5 230.5q0 105 -67 169t-179 64q-137 0 -232 -94t-95 -230z" />
    <glyph glyph-name="yen" unicode="&#xa5;" horiz-adv-x="1517" 
d="M573 719l-409 715h235l189 -334q59 -107 100.5 -223.5t44.5 -188.5h86q24 78 96 196.5t154 219.5l283 330h254l-611 -715h265l-21 -146h-369l-22 -157h369l-21 -146h-369l-36 -270h-211l38 270h-382l20 146h383l23 157h-383l18 146h276z" />
    <glyph glyph-name="brokenbar" unicode="&#xa6;" horiz-adv-x="720" 
d="M305 793l88 641h185l-91 -641h-182zM164 -205l90 641h184l-90 -641h-184z" />
    <glyph glyph-name="section" unicode="&#xa7;" horiz-adv-x="1271" 
d="M47 174l191 49q-3 -131 84 -200.5t272 -69.5q155 0 237 50t82 144q0 105 -172 134l-290 61q-63 13 -110 29t-89.5 42t-65 66t-22.5 92q0 99 62.5 171.5t172.5 103.5l7 49q-78 27 -123 79t-45 124q0 157 144.5 254.5t375.5 97.5q233 0 364.5 -97.5t126.5 -242.5l-174 -47
q-4 111 -94 171t-246 60q-136 0 -215.5 -47t-79.5 -127q0 -23 8 -41.5t27.5 -32.5t39.5 -24t55.5 -19t64 -15t76.5 -15l209 -39q143 -25 209.5 -78.5t66.5 -142.5q0 -207 -238 -279l-6 -51q78 -23 123 -76t45 -133q0 -170 -151.5 -274.5t-399.5 -104.5q-254 0 -392.5 100.5
t-129.5 278.5zM371 631q0 -58 40.5 -88t116.5 -43l260 -49q83 6 139 59.5t56 128.5q0 25 -7 44.5t-23 33t-30.5 23t-42 17.5t-44 11.5t-48.5 9.5l-213 39q-90 -6 -147 -57.5t-57 -128.5z" />
    <glyph glyph-name="dieresis" unicode="&#xa8;" horiz-adv-x="937" 
d="M328 1272q-64 0 -103 37t-39 96q0 65 45 104t109 39t103.5 -38t39.5 -97q0 -65 -44.5 -103t-110.5 -38zM836 1272q-64 0 -103 37t-39 96q0 65 45 104t109 39t103.5 -38t39.5 -97q0 -65 -44.5 -103t-110.5 -38z" />
    <glyph glyph-name="copyright" unicode="&#xa9;" horiz-adv-x="1794" 
d="M893 -31q-223 0 -399.5 94t-276.5 266.5t-100 393.5q0 232 109.5 417.5t300 287.5t425.5 102q166 0 310.5 -54.5t248.5 -151.5t164 -238t60 -308q0 -175 -65.5 -326.5t-178.5 -257t-268 -165.5t-330 -60zM899 98q199 0 356.5 84.5t246.5 238.5t89 351q0 188 -84 332
t-230 220.5t-329 76.5q-201 0 -358.5 -85t-244.5 -238.5t-87 -348.5q0 -137 47 -254.5t131 -200.5t203.5 -129.5t259.5 -46.5zM502 731q0 192 125 315t319 123q151 0 259 -76t134 -200l-168 -53q-15 79 -76 125.5t-151 46.5q-119 0 -191.5 -78t-72.5 -201q0 -113 64 -179.5
t171 -66.5q92 0 157.5 48.5t84.5 130.5l164 -52q-33 -130 -146.5 -206t-265.5 -76q-181 0 -294 109.5t-113 289.5z" />
    <glyph glyph-name="ordfeminine" unicode="&#xaa;" horiz-adv-x="841" 
d="M797 784q27 0 41 11l-17 -117q-44 -21 -94 -21q-57 0 -87.5 34t-21.5 91l3 13h-48q-28 -65 -96 -103.5t-155 -38.5q-98 0 -159 57t-61 148q0 204 273 254l268 45l2 8q11 86 -33.5 129t-124.5 43q-83 0 -131 -40.5t-53 -112.5l-153 28q20 121 113.5 185.5t234.5 64.5
q156 0 241 -84.5t64 -234.5l-41 -283q-7 -34 0 -55t35 -21zM608 909l21 146l-209 -35q-158 -25 -158 -137q0 -50 34 -79.5t95 -29.5q70 0 130.5 37.5t86.5 97.5z" />
    <glyph glyph-name="guillemotleft" unicode="&#xab;" horiz-adv-x="1105" 
d="M305 580l199 -482h-191l-207 494l328 469h205zM723 567l199 -469h-193l-207 482l342 481h207z" />
    <glyph glyph-name="logicalnot" unicode="&#xac;" horiz-adv-x="1165" 
d="M915 610h-804l20 158h969l-86 -623h-164z" />
    <glyph glyph-name="registered" unicode="&#xae;" horiz-adv-x="1191" 
d="M641 494q-224 0 -369 139t-145 360q0 232 157 384.5t396 152.5q224 0 371 -138.5t147 -361.5q0 -154 -73.5 -277t-200.5 -191t-283 -68zM643 588q196 0 322.5 123t126.5 317q0 183 -116 294.5t-298 111.5q-196 0 -320.5 -122.5t-124.5 -316.5q0 -181 114 -294t296 -113z
M524 758h-116l73 518h264q82 0 126 -37t44 -100q0 -64 -45.5 -105t-124.5 -45l-6 -39q39 -6 58 -24.5t30 -53.5l17 -49q10 -32 33 -51l4 -14h-129q-16 19 -23 47l-27 76q-14 40 -29 56.5t-52 16.5h-68zM586 1182l-23 -148h123q47 0 73.5 22.5t26.5 59.5q0 33 -22.5 49.5
t-58.5 16.5h-119z" />
    <glyph glyph-name="macron" unicode="&#xaf;" horiz-adv-x="864" 
d="M205 1317l20 153h676l-20 -153h-676z" />
    <glyph glyph-name="degree" unicode="&#xb0;" horiz-adv-x="999" 
d="M569 788q-154 0 -250 92t-96 238q0 156 107.5 254t267.5 98q154 0 250 -90.5t96 -236.5q0 -156 -108 -255.5t-267 -99.5zM573 932q95 0 156.5 57.5t61.5 151.5q0 86 -54.5 137t-142.5 51q-96 0 -155.5 -58t-59.5 -151q0 -86 52.5 -137t141.5 -51z" />
    <glyph glyph-name="plusminus" unicode="&#xb1;" horiz-adv-x="1210" 
d="M786 1126l-43 -303h412l-22 -157h-412l-43 -304h-164l43 304h-410l23 157h410l43 303h163zM1038 0h-985l21 152h985z" />
    <glyph glyph-name="uni00B2" unicode="&#xb2;" horiz-adv-x="905" 
d="M809 614h-692l16 123l395 264q122 84 168.5 146.5t46.5 134.5q0 73 -47.5 115.5t-126.5 42.5q-95 0 -158 -57t-69 -160l-145 14q17 154 120.5 243t260.5 89q141 0 229 -75t88 -202q0 -117 -70.5 -206.5t-218.5 -180.5q-139 -95 -291 -172l25 -55q143 67 295 67h192z" />
    <glyph glyph-name="uni00B3" unicode="&#xb3;" horiz-adv-x="956" 
d="M522 592q-170 0 -270 84.5t-100 238.5l141 23q-1 -101 62 -159t173 -58q101 0 161.5 49t60.5 129q0 65 -44.5 100t-123.5 35h-125l16 115h113q94 0 146 39t52 110q0 66 -48.5 104t-135.5 38q-98 0 -160 -47t-80 -125l-133 37q27 124 130.5 193t254.5 69q152 0 240 -68
t88 -178q0 -82 -48 -137t-136 -74l-6 -49q69 -15 109 -65.5t40 -125.5q0 -128 -105.5 -203t-271.5 -75z" />
    <glyph glyph-name="acute" unicode="&#xb4;" horiz-adv-x="423" 
d="M287 1556h233l-213 -282h-151z" />
    <glyph glyph-name="paragraph" unicode="&#xb6;" horiz-adv-x="1736" 
d="M248 1137q0 137 92.5 217t253.5 80h1096l-25 -179h-225l-211 -1511h-201l211 1511h-326l-211 -1511h-202l157 1128h-129q-127 0 -203.5 71t-76.5 194z" />
    <glyph glyph-name="periodcentered" unicode="&#xb7;" horiz-adv-x="679" 
d="M332 365q-77 0 -124.5 45t-47.5 116q0 79 54 126.5t132 47.5q76 0 124 -45.5t48 -117.5q0 -79 -54.5 -125.5t-131.5 -46.5z" />
    <glyph glyph-name="cedilla" unicode="&#xb8;" horiz-adv-x="741" 
d="M240 -109l14 -20q27 8 74 8q81 0 129.5 -49t48.5 -125q0 -99 -82.5 -160t-212.5 -61q-72 0 -135.5 18.5t-102.5 48.5l52 103q82 -57 184 -57q78 0 120 31t42 83q0 39 -26 64.5t-71 25.5q-44 0 -81 -16l-66 35l88 194l111 4v-18q-5 -53 -86 -109z" />
    <glyph glyph-name="uni00B9" unicode="&#xb9;" horiz-adv-x="808" 
d="M524 614h-151l65 486q13 92 32.5 148t72.5 112l-39 41q-105 -117 -279 -141l21 135q193 39 297 151h112z" />
    <glyph glyph-name="ordmasculine" unicode="&#xba;" horiz-adv-x="909" 
d="M129 1032q0 191 118.5 310.5t303.5 119.5q168 0 271.5 -104t103.5 -275q0 -192 -118 -311t-308 -119q-166 0 -268.5 104.5t-102.5 274.5zM764 1075q0 109 -61.5 176.5t-161.5 67.5q-110 0 -180 -78.5t-70 -200.5q0 -109 61 -175t162 -66q112 0 181 77.5t69 198.5z" />
    <glyph glyph-name="guillemotright" unicode="&#xbb;" horiz-adv-x="1107" 
d="M254 98h-207l348 494l-198 469h192l205 -481zM684 98h-205l332 482l-197 481h191l207 -494z" />
    <glyph glyph-name="onequarter" unicode="&#xbc;" horiz-adv-x="1482" 
d="M-18 0l1278 1434h172l-1278 -1434h-172zM379 645h-141l53 381q8 60 13.5 88.5t25.5 69.5t55 76l-37 38q-92 -105 -235 -116l20 123q170 33 252 129h104zM1241 0h-141l22 168h-450l16 113l502 507h162l-70 -503h129l-18 -117h-129zM1202 670l-379 -389l27 -35
q51 39 158 39h133l24 184q16 106 68 162z" />
    <glyph glyph-name="onehalf" unicode="&#xbd;" horiz-adv-x="1538" 
d="M-18 0l1278 1434h172l-1278 -1434h-172zM379 645h-141l53 381q8 60 13.5 88.5t25.5 69.5t55 76l-37 38q-92 -105 -235 -116l20 123q170 33 252 129h104zM1409 0h-594l16 111l334 223q97 64 136.5 116t39.5 111q0 58 -38 92.5t-103 34.5q-75 0 -126 -45.5t-54 -130.5
l-135 14q13 130 102 205.5t221 75.5q122 0 199.5 -64.5t77.5 -173.5q0 -105 -61.5 -178t-190.5 -147q-164 -99 -234 -135l23 -52q132 62 250 62h153z" />
    <glyph glyph-name="threequarters" unicode="&#xbe;" horiz-adv-x="1693" 
d="M403 627q-148 0 -232 72t-85 204l129 23q1 -87 52.5 -134t140.5 -47q82 0 130 39.5t48 104.5q0 53 -36.5 80.5t-103.5 27.5h-100l14 105h103q71 0 111 32t40 89q0 54 -39 83t-108 29q-81 0 -131 -39t-64 -102l-122 35q24 107 112 166t215 59q130 0 205.5 -58.5
t75.5 -152.5q0 -68 -41 -115.5t-115 -62.5l-6 -43q60 -12 93.5 -54.5t33.5 -105.5q0 -107 -89 -171t-231 -64zM193 0l1277 1434h172l-1277 -1434h-172zM1454 0h-141l22 168h-450l16 113l502 507h162l-70 -503h129l-18 -117h-129zM1415 670l-379 -389l27 -35q51 39 158 39
h133l24 184q16 106 68 162z" />
    <glyph glyph-name="questiondown" unicode="&#xbf;" horiz-adv-x="1286" 
d="M721 1120q58 0 94.5 -37t36.5 -94q0 -65 -44 -105t-108 -40q-59 0 -95 36.5t-36 92.5q0 67 43.5 107t108.5 40zM588 664h178l-37 -263q-202 -3 -317 -88.5t-115 -242.5q0 -122 74 -194.5t204 -72.5q133 0 227 72t130 191l178 -48q-52 -181 -204 -285t-353 -104
q-211 0 -337 118t-126 306q0 191 128.5 315t348.5 146z" />
    <glyph glyph-name="Agrave" unicode="&#xc0;" 
d="M893 1864l53 -283h-149l-135 283h231zM1327 0h-211l-65 272h-721l-142 -272h-221l760 1434h242zM627 846l-203 -393h584l-84 350q-60 250 -66 424h-70q-45 -154 -161 -381z" />
    <glyph glyph-name="Aacute" unicode="&#xc1;" 
d="M928 1864h233l-213 -283h-151zM1327 0h-211l-65 272h-721l-142 -272h-221l760 1434h242zM627 846l-203 -393h584l-84 350q-60 250 -66 424h-70q-45 -154 -161 -381z" />
    <glyph glyph-name="Acircumflex" unicode="&#xc2;" 
d="M795 1651l-52 -70h-196l244 283h235l166 -283h-188l-33 70q-32 66 -41 108h-64q-30 -56 -71 -108zM1327 0h-211l-65 272h-721l-142 -272h-221l760 1434h242zM627 846l-203 -393h584l-84 350q-60 250 -66 424h-70q-45 -154 -161 -381z" />
    <glyph glyph-name="Atilde" unicode="&#xc3;" 
d="M754 1731q-61 0 -74 -154h-119q4 150 58.5 225.5t142.5 75.5q25 0 49 -7.5t37.5 -14t36.5 -26.5t27.5 -24.5t27.5 -29.5q19 -19 31 -29.5t28 -19.5t31 -9q61 0 74 158h121q-6 -151 -59.5 -227t-141.5 -76q-87 0 -184 102q-17 20 -24.5 28t-25 18t-36.5 10zM1327 0h-211
l-65 272h-721l-142 -272h-221l760 1434h242zM627 846l-203 -393h584l-84 350q-60 250 -66 424h-70q-45 -154 -161 -381z" />
    <glyph glyph-name="Adieresis" unicode="&#xc4;" 
d="M618 1579q-64 0 -102.5 37t-38.5 96q0 65 45 104t109 39t103.5 -38t39.5 -97q0 -65 -45 -103t-111 -38zM1126 1579q-64 0 -102.5 37t-38.5 96q0 65 45 104t109 39t103.5 -38t39.5 -97q0 -65 -45 -103t-111 -38zM1327 0h-211l-65 272h-721l-142 -272h-221l760 1434h242z
M627 846l-203 -393h584l-84 350q-60 250 -66 424h-70q-45 -154 -161 -381z" />
    <glyph glyph-name="Aring" unicode="&#xc5;" 
d="M885 1559q-114 0 -186 63.5t-72 165.5q0 111 84.5 182.5t210.5 71.5q113 0 184.5 -64t71.5 -166q0 -109 -83.5 -181t-209.5 -72zM911 1925q-62 0 -101.5 -36t-39.5 -97q0 -53 33 -85t88 -32q64 0 103.5 36t39.5 97q0 53 -33 85t-90 32zM1327 0h-211l-65 272h-721
l-142 -272h-221l760 1434h242zM627 846l-203 -393h584l-84 350q-60 250 -66 424h-70q-45 -154 -161 -381z" />
    <glyph glyph-name="AE" unicode="&#xc6;" horiz-adv-x="2019" 
d="M188 0h-221l842 1434h1257l-24 -187h-793l-59 -426h727l-25 -172h-727l-65 -463h792l-26 -186h-1002l39 272h-559zM745 969l-299 -516h482l108 774h-168q-30 -78 -52.5 -126t-70.5 -132z" />
    <glyph glyph-name="Ccedilla" unicode="&#xc7;" horiz-adv-x="1630" 
d="M836 154q188 0 321 102t170 270l193 -49q-44 -219 -219 -357.5t-420 -152.5q-19 -37 -76 -76l14 -20q27 8 74 8q81 0 129.5 -49t48.5 -125q0 -99 -82.5 -160t-212.5 -61q-149 0 -237 67l51 103q82 -57 184 -57q78 0 120 31t42 83q0 39 -25.5 64.5t-70.5 25.5t-82 -16
l-66 35l68 147q-133 12 -245.5 65.5t-195.5 143t-129.5 220t-46.5 288.5q0 177 58 325t159 248t239 155.5t296 55.5q253 0 428 -134t215 -357l-203 -55q-23 163 -145 260.5t-305 97.5q-240 0 -385.5 -165t-145.5 -423q0 -245 131.5 -391.5t350.5 -146.5z" />
    <glyph glyph-name="Egrave" unicode="&#xc8;" horiz-adv-x="1196" 
d="M797 1864l53 -283h-150l-135 283h232zM1241 1434l-29 -187h-737l-61 -426h684l-27 -172h-682l-63 -463h743l-29 -186h-944l201 1434h944z" />
    <glyph glyph-name="Eacute" unicode="&#xc9;" horiz-adv-x="1196" 
d="M831 1864h234l-213 -283h-152zM1241 1434l-29 -187h-737l-61 -426h684l-27 -172h-682l-63 -463h743l-29 -186h-944l201 1434h944z" />
    <glyph glyph-name="Ecircumflex" unicode="&#xca;" horiz-adv-x="1196" 
d="M698 1651l-51 -70h-196l243 283h236l166 -283h-189l-33 70q-30 63 -40 108h-64q-28 -52 -72 -108zM1241 1434l-29 -187h-737l-61 -426h684l-27 -172h-682l-63 -463h743l-29 -186h-944l201 1434h944z" />
    <glyph glyph-name="Edieresis" unicode="&#xcb;" horiz-adv-x="1196" 
d="M520 1579q-64 0 -102.5 37t-38.5 96q0 65 44.5 104t108.5 39t104 -38t40 -97q0 -65 -45 -103t-111 -38zM1028 1579q-64 0 -102.5 37t-38.5 96q0 65 44.5 104t108.5 39t104 -38t40 -97q0 -65 -45 -103t-111 -38zM1241 1434l-29 -187h-737l-61 -426h684l-27 -172h-682
l-63 -463h743l-29 -186h-944l201 1434h944z" />
    <glyph glyph-name="Igrave" unicode="&#xcc;" horiz-adv-x="587" 
d="M365 1581l-136 283h232l53 -283h-149zM117 0l200 1434h205l-200 -1434h-205z" />
    <glyph glyph-name="Iacute" unicode="&#xcd;" horiz-adv-x="587" 
d="M496 1864h233l-213 -283h-151zM117 0l200 1434h205l-200 -1434h-205z" />
    <glyph glyph-name="Icircumflex" unicode="&#xce;" horiz-adv-x="587" 
d="M311 1581h-196l243 283h236l166 -283h-189l-32 70q-32 66 -41 108h-64q-28 -52 -72 -108zM117 0l200 1434h205l-200 -1434h-205z" />
    <glyph glyph-name="Idieresis" unicode="&#xcf;" horiz-adv-x="587" 
d="M186 1579q-64 0 -102.5 37t-38.5 96q0 65 45 104t109 39t103.5 -38t39.5 -97q0 -65 -45 -103t-111 -38zM694 1579q-64 0 -102.5 37t-38.5 96q0 65 45 104t109 39t103.5 -38t39.5 -97q0 -65 -45 -103t-111 -38zM117 0l200 1434h205l-200 -1434h-205z" />
    <glyph glyph-name="Eth" unicode="&#xd0;" horiz-adv-x="1617" 
d="M217 641h-135l22 154h136l88 639h534q318 0 493 -175.5t175 -486.5q0 -180 -61 -326t-170.5 -243.5t-263 -150t-337.5 -52.5h-571zM428 641l-63 -455h340q287 0 449.5 158.5t162.5 425.5q0 230 -123 353.5t-340 123.5h-342l-63 -452h260l-23 -154h-258z" />
    <glyph glyph-name="Ntilde" unicode="&#xd1;" horiz-adv-x="1484" 
d="M702 1577h-118q4 150 58 225.5t142 75.5q40 0 77.5 -19t53 -34t48.5 -49q19 -19 31 -29.5t28 -19.5t31 -9q60 0 73 158h121q-6 -151 -59 -227t-141 -76t-185 102q-17 20 -24.5 28t-25 18t-36.5 10q-61 0 -74 -154zM96 0l201 1434h225l549 -1139h4l158 1139h205
l-201 -1434h-227l-549 1130h-4l-158 -1130h-203z" />
    <glyph glyph-name="Ograve" unicode="&#xd2;" horiz-adv-x="1662" 
d="M858 1589l-135 283h231l54 -283h-150zM139 666q0 233 97 416t271 284.5t396 101.5q300 0 486 -191.5t186 -508.5q0 -233 -97 -416t-271 -285t-394 -102q-198 0 -351 86t-238 245.5t-85 369.5zM350 678q0 -241 128.5 -383.5t344.5 -142.5q239 0 390 165t151 437
q0 242 -128.5 384t-342.5 142q-241 0 -392 -164t-151 -438z" />
    <glyph glyph-name="Oacute" unicode="&#xd3;" horiz-adv-x="1662" 
d="M989 1872h234l-213 -283h-152zM139 666q0 233 97 416t271 284.5t396 101.5q300 0 486 -191.5t186 -508.5q0 -233 -97 -416t-271 -285t-394 -102q-198 0 -351 86t-238 245.5t-85 369.5zM350 678q0 -241 128.5 -383.5t344.5 -142.5q239 0 390 165t151 437q0 242 -128.5 384
t-342.5 142q-241 0 -392 -164t-151 -438z" />
    <glyph glyph-name="Ocircumflex" unicode="&#xd4;" horiz-adv-x="1662" 
d="M805 1589h-197l244 283h235l166 -283h-188l-33 70q-32 66 -41 108h-63q-28 -52 -72 -108zM139 666q0 233 97 416t271 284.5t396 101.5q300 0 486 -191.5t186 -508.5q0 -233 -97 -416t-271 -285t-394 -102q-198 0 -351 86t-238 245.5t-85 369.5zM350 678
q0 -241 128.5 -383.5t344.5 -142.5q239 0 390 165t151 437q0 242 -128.5 384t-342.5 142q-241 0 -392 -164t-151 -438z" />
    <glyph glyph-name="Otilde" unicode="&#xd5;" horiz-adv-x="1662" 
d="M741 1585h-118q4 150 58 225.5t142 75.5q25 0 49 -7.5t37.5 -14t36.5 -26.5t27.5 -24.5t27.5 -29.5q58 -58 91 -58q60 0 73 158h121q-6 -151 -59.5 -227t-141.5 -76q-87 0 -184 102q-17 20 -24.5 28t-25 18t-36.5 10q-61 0 -74 -154zM139 666q0 233 97 416t271 284.5
t396 101.5q300 0 486 -191.5t186 -508.5q0 -233 -97 -416t-271 -285t-394 -102q-198 0 -351 86t-238 245.5t-85 369.5zM350 678q0 -241 128.5 -383.5t344.5 -142.5q239 0 390 165t151 437q0 242 -128.5 384t-342.5 142q-241 0 -392 -164t-151 -438z" />
    <glyph glyph-name="Odieresis" unicode="&#xd6;" horiz-adv-x="1662" 
d="M680 1587q-64 0 -102.5 37t-38.5 96q0 65 44.5 104.5t108.5 39.5t104 -38t40 -97q0 -65 -45 -103.5t-111 -38.5zM1188 1587q-64 0 -102.5 37t-38.5 96q0 65 44.5 104.5t108.5 39.5t103.5 -38t39.5 -97q0 -65 -44.5 -103.5t-110.5 -38.5zM139 666q0 233 97 416t271 284.5
t396 101.5q300 0 486 -191.5t186 -508.5q0 -233 -97 -416t-271 -285t-394 -102q-198 0 -351 86t-238 245.5t-85 369.5zM350 678q0 -241 128.5 -383.5t344.5 -142.5q239 0 390 165t151 437q0 242 -128.5 384t-342.5 142q-241 0 -392 -164t-151 -438z" />
    <glyph glyph-name="multiply" unicode="&#xd7;" horiz-adv-x="1286" 
d="M279 240l-105 120l375 334l-281 322l125 112l281 -323l377 334l102 -121l-373 -332l283 -324l-127 -110l-281 321z" />
    <glyph glyph-name="Oslash" unicode="&#xd8;" horiz-adv-x="1677" 
d="M111 662q0 170 57.5 318.5t159.5 256t252 169.5t327 62q147 0 275 -46.5t223 -135.5l141 125l94 -108l-141 -125q117 -168 117 -408q0 -169 -57 -317t-159.5 -255.5t-252 -170t-326.5 -62.5q-307 0 -502 180l-139 -122l-94 108l139 123q-114 173 -114 408zM309 672
q0 -155 70 -273l702 607q109 94 219 100l9 63q-66 58 -169.5 89.5t-215.5 31.5q-275 0 -445 -170.5t-170 -447.5zM428 328l-10 -66q132 -119 375 -119q278 0 450 171.5t172 447.5q0 154 -67 272l-699 -602q-121 -101 -221 -104z" />
    <glyph glyph-name="Ugrave" unicode="&#xd9;" 
d="M793 1581l-136 283h232l53 -283h-149zM162 557l123 877h204l-122 -875q-29 -200 51 -302.5t256 -102.5q185 0 279.5 83t123.5 289l127 908h205l-129 -938q-37 -267 -185 -399t-419 -132q-130 0 -232 35.5t-173 106.5t-100 186t-9 264z" />
    <glyph glyph-name="Uacute" unicode="&#xda;" 
d="M922 1864h233l-213 -283h-151zM162 557l123 877h204l-122 -875q-29 -200 51 -302.5t256 -102.5q185 0 279.5 83t123.5 289l127 908h205l-129 -938q-37 -267 -185 -399t-419 -132q-130 0 -232 35.5t-173 106.5t-100 186t-9 264z" />
    <glyph glyph-name="Ucircumflex" unicode="&#xdb;" 
d="M739 1581h-196l243 283h236l166 -283h-189l-32 70q-32 66 -41 108h-64q-30 -56 -71 -108zM162 557l123 877h204l-122 -875q-29 -200 51 -302.5t256 -102.5q185 0 279.5 83t123.5 289l127 908h205l-129 -938q-37 -267 -185 -399t-419 -132q-130 0 -232 35.5t-173 106.5
t-100 186t-9 264z" />
    <glyph glyph-name="Udieresis" unicode="&#xdc;" 
d="M612 1579q-64 0 -102.5 37t-38.5 96q0 65 45 104t109 39t103.5 -38t39.5 -97q0 -65 -45 -103t-111 -38zM1120 1579q-64 0 -102.5 37t-38.5 96q0 65 45 104t109 39t103.5 -38t39.5 -97q0 -65 -45 -103t-111 -38zM162 557l123 877h204l-122 -875q-29 -200 51 -302.5
t256 -102.5q185 0 279.5 83t123.5 289l127 908h205l-129 -938q-37 -267 -185 -399t-419 -132q-130 0 -232 35.5t-173 106.5t-100 186t-9 264z" />
    <glyph glyph-name="Yacute" unicode="&#xdd;" horiz-adv-x="1386" 
d="M889 1864h233l-213 -283h-151zM596 561l-432 873h231l158 -338q112 -270 119 -369h84q30 98 223 373l254 334h242l-674 -873l-78 -561h-207z" />
    <glyph glyph-name="Thorn" unicode="&#xde;" horiz-adv-x="1486" 
d="M305 0h-209l201 1434h209l-35 -260h508q207 0 326.5 -100t119.5 -279q0 -238 -159.5 -386.5t-415.5 -148.5h-508zM444 989l-75 -545h493q165 0 257.5 86.5t92.5 241.5q0 108 -70 162.5t-202 54.5h-496z" />
    <glyph glyph-name="germandbls" unicode="&#xdf;" horiz-adv-x="1351" 
d="M262 0h-205l148 1034q18 129 69.5 227t127 155.5t164.5 85.5t190 28q210 0 336 -106t131 -273q3 -125 -64 -220t-182 -134l-6 -47q122 -31 191 -125.5t69 -227.5q0 -193 -146.5 -312.5t-384.5 -119.5q-156 0 -247 43l24 172q83 -45 209 -45q161 0 252.5 78.5t91.5 206.5
q0 121 -79 190.5t-212 69.5q-70 0 -110 -8l22 164q45 -5 70 -5q135 0 222 75t87 198q0 114 -75.5 179t-198.5 65q-151 0 -241 -90.5t-112 -247.5z" />
    <glyph glyph-name="agrave" unicode="&#xe0;" horiz-adv-x="1187" 
d="M670 1556l53 -282h-150l-135 282h232zM1016 131q31 0 59 16l-20 -147q-52 -27 -123 -27q-77 0 -117 46.5t-31 127.5l2 21h-57q-43 -93 -142.5 -148t-224.5 -55q-140 0 -226.5 81t-86.5 210q0 150 102 240t287 122l389 66l2 10q19 135 -50.5 203t-190.5 68
q-130 0 -202.5 -64t-78.5 -172l-190 37q27 171 157 262.5t328 91.5q213 0 334 -119.5t90 -330.5l-57 -412q-13 -57 -4.5 -92t51.5 -35zM778 328l31 225l-315 -53q-248 -40 -248 -215q0 -77 53.5 -122.5t146.5 -45.5q110 0 200.5 59.5t131.5 151.5z" />
    <glyph glyph-name="aacute" unicode="&#xe1;" horiz-adv-x="1187" 
d="M702 1556h234l-213 -282h-152zM1016 131q31 0 59 16l-20 -147q-52 -27 -123 -27q-77 0 -117 46.5t-31 127.5l2 21h-57q-43 -93 -142.5 -148t-224.5 -55q-140 0 -226.5 81t-86.5 210q0 150 102 240t287 122l389 66l2 10q19 135 -50.5 203t-190.5 68q-130 0 -202.5 -64
t-78.5 -172l-190 37q27 171 157 262.5t328 91.5q213 0 334 -119.5t90 -330.5l-57 -412q-13 -57 -4.5 -92t51.5 -35zM778 328l31 225l-315 -53q-248 -40 -248 -215q0 -77 53.5 -122.5t146.5 -45.5q110 0 200.5 59.5t131.5 151.5z" />
    <glyph glyph-name="acircumflex" unicode="&#xe2;" horiz-adv-x="1187" 
d="M571 1343l-51 -69h-196l243 282h236l166 -282h-189l-32 69q-32 65 -41 109h-64q-29 -55 -72 -109zM1016 131q31 0 59 16l-20 -147q-52 -27 -123 -27q-77 0 -117 46.5t-31 127.5l2 21h-57q-43 -93 -142.5 -148t-224.5 -55q-140 0 -226.5 81t-86.5 210q0 150 102 240
t287 122l389 66l2 10q19 135 -50.5 203t-190.5 68q-130 0 -202.5 -64t-78.5 -172l-190 37q27 171 157 262.5t328 91.5q213 0 334 -119.5t90 -330.5l-57 -412q-13 -57 -4.5 -92t51.5 -35zM778 328l31 225l-315 -53q-248 -40 -248 -215q0 -77 53.5 -122.5t146.5 -45.5
q110 0 200.5 59.5t131.5 151.5z" />
    <glyph glyph-name="atilde" unicode="&#xe3;" horiz-adv-x="1187" 
d="M528 1423q-61 0 -73 -153h-119q4 150 58.5 225.5t142.5 75.5q37 0 71 -16t53.5 -33.5t45.5 -44.5q2 -3 4 -5l4 -4q57 -57 90 -57q61 0 74 158h120q-6 -151 -59 -227t-141 -76t-185 102q-17 19 -24.5 27.5t-25 18t-36.5 9.5zM1016 131q31 0 59 16l-20 -147
q-52 -27 -123 -27q-77 0 -117 46.5t-31 127.5l2 21h-57q-43 -93 -142.5 -148t-224.5 -55q-140 0 -226.5 81t-86.5 210q0 150 102 240t287 122l389 66l2 10q19 135 -50.5 203t-190.5 68q-130 0 -202.5 -64t-78.5 -172l-190 37q27 171 157 262.5t328 91.5q213 0 334 -119.5
t90 -330.5l-57 -412q-13 -57 -4.5 -92t51.5 -35zM778 328l31 225l-315 -53q-248 -40 -248 -215q0 -77 53.5 -122.5t146.5 -45.5q110 0 200.5 59.5t131.5 151.5z" />
    <glyph glyph-name="adieresis" unicode="&#xe4;" horiz-adv-x="1187" 
d="M393 1272q-64 0 -102.5 37t-38.5 96q0 65 45 104t109 39t103.5 -38t39.5 -97q0 -65 -45 -103t-111 -38zM901 1272q-64 0 -102.5 37t-38.5 96q0 65 44.5 104t108.5 39t104 -38t40 -97q0 -65 -45 -103t-111 -38zM1016 131q31 0 59 16l-20 -147q-52 -27 -123 -27
q-77 0 -117 46.5t-31 127.5l2 21h-57q-43 -93 -142.5 -148t-224.5 -55q-140 0 -226.5 81t-86.5 210q0 150 102 240t287 122l389 66l2 10q19 135 -50.5 203t-190.5 68q-130 0 -202.5 -64t-78.5 -172l-190 37q27 171 157 262.5t328 91.5q213 0 334 -119.5t90 -330.5l-57 -412
q-13 -57 -4.5 -92t51.5 -35zM778 328l31 225l-315 -53q-248 -40 -248 -215q0 -77 53.5 -122.5t146.5 -45.5q110 0 200.5 59.5t131.5 151.5z" />
    <glyph glyph-name="aring" unicode="&#xe5;" horiz-adv-x="1187" 
d="M659 1251q-114 0 -186 64t-72 166q0 111 84.5 182.5t210.5 71.5q113 0 184.5 -64t71.5 -166q0 -109 -83.5 -181.5t-209.5 -72.5zM686 1618q-62 0 -101.5 -36t-39.5 -97q0 -53 33 -85t88 -32q64 0 103.5 36t39.5 97q0 53 -33 85t-90 32zM1016 131q31 0 59 16l-20 -147
q-52 -27 -123 -27q-77 0 -117 46.5t-31 127.5l2 21h-57q-43 -93 -142.5 -148t-224.5 -55q-140 0 -226.5 81t-86.5 210q0 150 102 240t287 122l389 66l2 10q19 135 -50.5 203t-190.5 68q-130 0 -202.5 -64t-78.5 -172l-190 37q27 171 157 262.5t328 91.5q213 0 334 -119.5
t90 -330.5l-57 -412q-13 -57 -4.5 -92t51.5 -35zM778 328l31 225l-315 -53q-248 -40 -248 -215q0 -77 53.5 -122.5t146.5 -45.5q110 0 200.5 59.5t131.5 151.5z" />
    <glyph glyph-name="ae" unicode="&#xe6;" horiz-adv-x="2140" 
d="M49 260q0 144 102 232t289 118l471 82l2 13q20 129 -62.5 192.5t-219.5 63.5q-144 0 -228.5 -65t-89.5 -175l-196 37q24 171 164 266.5t356 95.5q139 0 249.5 -50t164.5 -146q77 93 194 144.5t258 51.5q247 0 403 -148t156 -386q0 -48 -10 -113h-950q7 -154 112.5 -245
t274.5 -91q124 0 221 50.5t154 138.5l121 -131q-73 -105 -211.5 -167.5t-294.5 -62.5q-170 0 -305 74t-203 203h-58q-44 -88 -128 -152t-180.5 -94.5t-196.5 -30.5q-163 0 -261 81t-98 214zM1108 616h754q-5 150 -103 243t-260 93q-165 0 -273 -92t-118 -244zM252 283
q0 -73 57.5 -115.5t155.5 -42.5q129 0 240 58.5t165 154.5l29 217l-403 -70q-133 -22 -188.5 -72.5t-55.5 -129.5z" />
    <glyph glyph-name="ccedilla" unicode="&#xe7;" horiz-adv-x="1255" 
d="M631 143q129 0 212.5 63t121.5 175l182 -68q-50 -151 -175 -242.5t-300 -103.5q-19 -37 -76 -76l14 -20q27 8 74 8q81 0 129.5 -49t48.5 -125q0 -99 -82.5 -160t-212.5 -61q-149 0 -237 67l51 103q82 -57 184 -57q78 0 120 31t42 83q0 39 -25.5 64.5t-70.5 25.5t-82 -16
l-66 35l68 149q-210 22 -337.5 170.5t-127.5 374.5q0 265 162 435.5t422 170.5q210 0 352 -119t164 -309l-197 -41q-13 133 -100.5 211t-220.5 78q-171 0 -276 -117t-105 -305q0 -177 93.5 -276t250.5 -99z" />
    <glyph glyph-name="egrave" unicode="&#xe8;" horiz-adv-x="1265" 
d="M621 1274l-136 282h232l53 -282h-149zM90 524q0 265 159.5 430.5t412.5 165.5q236 0 382 -146t146 -382q0 -60 -12 -119h-883q6 -160 100 -249t252 -89q237 0 348 187l117 -127q-69 -110 -198.5 -170t-280.5 -60q-246 0 -394.5 152t-148.5 407zM303 616h690
q-5 153 -94.5 245.5t-239.5 92.5q-153 0 -250 -91t-106 -247z" />
    <glyph glyph-name="eacute" unicode="&#xe9;" horiz-adv-x="1265" 
d="M752 1556h233l-213 -282h-151zM90 524q0 265 159.5 430.5t412.5 165.5q236 0 382 -146t146 -382q0 -60 -12 -119h-883q6 -160 100 -249t252 -89q237 0 348 187l117 -127q-69 -110 -198.5 -170t-280.5 -60q-246 0 -394.5 152t-148.5 407zM303 616h690q-5 153 -94.5 245.5
t-239.5 92.5q-153 0 -250 -91t-106 -247z" />
    <glyph glyph-name="ecircumflex" unicode="&#xea;" horiz-adv-x="1265" 
d="M567 1274h-196l243 282h236l166 -282h-189l-32 69q-32 65 -41 109h-64q-29 -55 -72 -109zM90 524q0 265 159.5 430.5t412.5 165.5q236 0 382 -146t146 -382q0 -60 -12 -119h-883q6 -160 100 -249t252 -89q237 0 348 187l117 -127q-69 -110 -198.5 -170t-280.5 -60
q-246 0 -394.5 152t-148.5 407zM303 616h690q-5 153 -94.5 245.5t-239.5 92.5q-153 0 -250 -91t-106 -247z" />
    <glyph glyph-name="edieresis" unicode="&#xeb;" horiz-adv-x="1265" 
d="M440 1272q-64 0 -102.5 37t-38.5 96q0 65 45 104t109 39t103.5 -38t39.5 -97q0 -65 -45 -103t-111 -38zM948 1272q-64 0 -102.5 37t-38.5 96q0 65 45 104t109 39t103.5 -38t39.5 -97q0 -65 -45 -103t-111 -38zM90 524q0 265 159.5 430.5t412.5 165.5q236 0 382 -146
t146 -382q0 -60 -12 -119h-883q6 -160 100 -249t252 -89q237 0 348 187l117 -127q-69 -110 -198.5 -170t-280.5 -60q-246 0 -394.5 152t-148.5 407zM303 616h690q-5 153 -94.5 245.5t-239.5 92.5q-153 0 -250 -91t-106 -247z" />
    <glyph glyph-name="igrave" unicode="&#xec;" horiz-adv-x="499" 
d="M272 1274l-135 282h232l53 -282h-150zM68 0l151 1085h203l-152 -1085h-202z" />
    <glyph glyph-name="iacute" unicode="&#xed;" horiz-adv-x="499" 
d="M401 1556h234l-213 -282h-152zM68 0l151 1085h203l-152 -1085h-202z" />
    <glyph glyph-name="icircumflex" unicode="&#xee;" horiz-adv-x="499" 
d="M219 1274h-196l243 282h236l166 -282h-189l-33 69q-30 62 -40 109h-64q-29 -55 -72 -109zM68 0l151 1085h203l-152 -1085h-202z" />
    <glyph glyph-name="idieresis" unicode="&#xef;" horiz-adv-x="499" 
d="M92 1272q-64 0 -102.5 37t-38.5 96q0 65 44.5 104t108.5 39t104 -38t40 -97q0 -65 -45 -103t-111 -38zM600 1272q-64 0 -102.5 37t-38.5 96q0 65 44.5 104t108.5 39t104 -38t40 -97q0 -65 -45 -103t-111 -38zM68 0l151 1085h203l-152 -1085h-202z" />
    <glyph glyph-name="eth" unicode="&#xf0;" horiz-adv-x="1294" 
d="M74 434q0 221 136.5 361.5t350.5 140.5q144 0 258.5 -73.5t163.5 -200.5l66 30q4 143 -53 276t-158 222l-185 -170l-84 104l148 138q-110 81 -350 112l104 156q108 -12 217 -49.5t178 -87.5l203 184l84 -102l-172 -162q117 -114 179.5 -273.5t62.5 -341.5
q0 -213 -83.5 -380.5t-233 -260t-339.5 -92.5q-226 0 -359.5 128.5t-133.5 340.5zM276 449q0 -141 86 -226.5t230 -85.5q148 0 258 89t147 237q-38 153 -141 239t-242 86q-153 0 -245.5 -94.5t-92.5 -244.5z" />
    <glyph glyph-name="ntilde" unicode="&#xf1;" horiz-adv-x="1273" 
d="M549 1270h-119q4 150 58.5 225.5t142.5 75.5q37 0 71 -16t53.5 -33.5t45.5 -44.5q2 -3 4 -5l4 -4q57 -57 90 -57q61 0 74 158h121q-6 -151 -59.5 -227t-141.5 -76q-87 0 -184 102q-17 19 -24.5 27.5t-25 18t-36.5 9.5q-62 0 -74 -153zM350 682l-96 -682h-197l152 1085
h170v-14q-13 -114 -55 -194l61 -31q73 134 183.5 204t234.5 70q198 0 294 -135t64 -364l-88 -621h-196l81 584q24 174 -36 266t-203 92q-109 0 -210.5 -71t-158.5 -189z" />
    <glyph glyph-name="ograve" unicode="&#xf2;" horiz-adv-x="1302" 
d="M625 1274l-136 282h232l53 -282h-149zM86 506q0 272 168 443t430 171q238 0 385.5 -147.5t147.5 -390.5q0 -276 -167.5 -446.5t-435.5 -170.5q-236 0 -382 148t-146 393zM1014 569q0 168 -94 269.5t-250 101.5q-169 0 -276 -119t-107 -305q0 -169 94 -269t250 -100
q171 0 277 118t106 304z" />
    <glyph glyph-name="oacute" unicode="&#xf3;" horiz-adv-x="1302" 
d="M756 1556h233l-213 -282h-151zM86 506q0 272 168 443t430 171q238 0 385.5 -147.5t147.5 -390.5q0 -276 -167.5 -446.5t-435.5 -170.5q-236 0 -382 148t-146 393zM1014 569q0 168 -94 269.5t-250 101.5q-169 0 -276 -119t-107 -305q0 -169 94 -269t250 -100
q171 0 277 118t106 304z" />
    <glyph glyph-name="ocircumflex" unicode="&#xf4;" horiz-adv-x="1302" 
d="M571 1274h-196l243 282h236l166 -282h-189l-32 69q-32 65 -41 109h-64q-31 -59 -71 -109zM86 506q0 272 168 443t430 171q238 0 385.5 -147.5t147.5 -390.5q0 -276 -167.5 -446.5t-435.5 -170.5q-236 0 -382 148t-146 393zM1014 569q0 168 -94 269.5t-250 101.5
q-169 0 -276 -119t-107 -305q0 -169 94 -269t250 -100q171 0 277 118t106 304z" />
    <glyph glyph-name="otilde" unicode="&#xf5;" horiz-adv-x="1302" 
d="M506 1270h-119q4 150 58.5 225.5t142.5 75.5q37 0 71 -16t53.5 -33.5t45.5 -44.5q2 -3 4 -5l4 -4q57 -57 90 -57q61 0 74 158h121q-6 -151 -59.5 -227t-141.5 -76q-87 0 -184 102q-17 19 -24.5 27.5t-25 18t-36.5 9.5q-62 0 -74 -153zM86 506q0 272 168 443t430 171
q238 0 385.5 -147.5t147.5 -390.5q0 -276 -167.5 -446.5t-435.5 -170.5q-236 0 -382 148t-146 393zM1014 569q0 168 -94 269.5t-250 101.5q-169 0 -276 -119t-107 -305q0 -169 94 -269t250 -100q171 0 277 118t106 304z" />
    <glyph glyph-name="odieresis" unicode="&#xf6;" horiz-adv-x="1302" 
d="M444 1272q-64 0 -102.5 37t-38.5 96q0 65 45 104t109 39t103.5 -38t39.5 -97q0 -65 -45 -103t-111 -38zM952 1272q-64 0 -102.5 37t-38.5 96q0 65 45 104t109 39t103.5 -38t39.5 -97q0 -65 -45 -103t-111 -38zM86 506q0 272 168 443t430 171q238 0 385.5 -147.5
t147.5 -390.5q0 -276 -167.5 -446.5t-435.5 -170.5q-236 0 -382 148t-146 393zM1014 569q0 168 -94 269.5t-250 101.5q-169 0 -276 -119t-107 -305q0 -169 94 -269t250 -100q171 0 277 118t106 304z" />
    <glyph glyph-name="divide" unicode="&#xf7;" horiz-adv-x="1167" 
d="M641 952q-64 0 -102.5 38t-38.5 97q0 64 45 103t110 39q63 0 102.5 -37.5t39.5 -97.5q0 -64 -45.5 -103t-110.5 -39zM166 768h899l-23 -158h-897zM528 150q-64 0 -102.5 38t-38.5 97q0 64 45 102.5t109 38.5t103.5 -37.5t39.5 -97.5q0 -64 -45.5 -102.5t-110.5 -38.5z
" />
    <glyph glyph-name="oslash" unicode="&#xf8;" horiz-adv-x="1382" 
d="M90 543q-1 247 171.5 412t430.5 165q207 0 363 -112l104 102l96 -100l-96 -99q133 -152 133 -368q1 -162 -77.5 -295t-216 -208t-306.5 -75q-209 0 -366 113l-103 -103l-98 103l94 94q-132 161 -129 371zM285 543q0 -132 69 -230l414 416q109 109 215 109v61
q-98 68 -264 68q-87 0 -164.5 -28t-138 -80t-96 -134t-35.5 -182zM401 248v-62q96 -67 263 -67q117 0 213.5 47.5t157.5 145.5t61 231t-68 229l-418 -418q-106 -106 -209 -106z" />
    <glyph glyph-name="ugrave" unicode="&#xf9;" horiz-adv-x="1273" 
d="M666 1274l-136 282h232l53 -282h-149zM924 403l96 682h197l-152 -1085h-176l2 14q16 115 59 209l-61 23q-75 -138 -187 -209.5t-253 -71.5q-193 0 -281.5 132.5t-54.5 367.5l86 620h198l-82 -583q-25 -174 32.5 -265.5t193.5 -91.5q123 0 223 69t160 189z" />
    <glyph glyph-name="uacute" unicode="&#xfa;" horiz-adv-x="1273" 
d="M795 1556h233l-213 -282h-151zM1020 1085h197l-152 -1085h-176l2 14q16 115 59 209l-61 23q-75 -138 -187 -209.5t-253 -71.5q-193 0 -281.5 132.5t-54.5 367.5l86 620h198l-82 -583q-25 -174 32.5 -265.5t193.5 -91.5q123 0 223 69t160 189z" />
    <glyph glyph-name="ucircumflex" unicode="&#xfb;" horiz-adv-x="1273" 
d="M612 1274h-196l243 282h236l166 -282h-189l-32 69q-32 65 -41 109h-64q-31 -59 -71 -109zM924 403l96 682h197l-152 -1085h-176l2 14q16 115 59 209l-61 23q-75 -138 -187 -209.5t-253 -71.5q-193 0 -281.5 132.5t-54.5 367.5l86 620h198l-82 -583q-25 -174 32.5 -265.5
t193.5 -91.5q123 0 223 69t160 189z" />
    <glyph glyph-name="udieresis" unicode="&#xfc;" horiz-adv-x="1273" 
d="M485 1272q-64 0 -102.5 37t-38.5 96q0 65 45 104t109 39t103.5 -38t39.5 -97q0 -65 -45 -103t-111 -38zM993 1272q-64 0 -102.5 37t-38.5 96q0 65 45 104t109 39t103.5 -38t39.5 -97q0 -65 -45 -103t-111 -38zM924 403l96 682h197l-152 -1085h-176l2 14q16 115 59 209
l-61 23q-75 -138 -187 -209.5t-253 -71.5q-193 0 -281.5 132.5t-54.5 367.5l86 620h198l-82 -583q-25 -174 32.5 -265.5t193.5 -91.5q123 0 223 69t160 189z" />
    <glyph glyph-name="yacute" unicode="&#xfd;" horiz-adv-x="1202" 
d="M758 1556h233l-213 -282h-151zM106 -496q-87 0 -141 31l29 182q47 -24 119 -24q153 0 243 172l66 125l-318 1095h213l127 -481q66 -247 74 -407h70q62 176 168 383l266 505h227l-710 -1269q-83 -150 -186.5 -231t-246.5 -81z" />
    <glyph glyph-name="thorn" unicode="&#xfe;" horiz-adv-x="1357" 
d="M190 -461h-200l274 1956h170l-47 -324q-19 -141 -88 -241l57 -37q66 110 178 168.5t242 58.5q216 0 355 -147t139 -395q0 -178 -74 -318.5t-202.5 -217.5t-288.5 -77q-151 0 -261.5 68.5t-171.5 195.5l-59 -32q29 -80 32.5 -165t-9.5 -157zM668 143q178 0 288.5 116
t110.5 302q0 174 -100 278.5t-269 104.5q-111 0 -202.5 -51t-135.5 -133l-49 -367q36 -120 132 -185t225 -65z" />
    <glyph glyph-name="ydieresis" unicode="&#xff;" horiz-adv-x="1202" 
d="M449 1272q-64 0 -103 37t-39 96q0 65 45 104t109 39t103.5 -38t39.5 -97q0 -65 -44.5 -103t-110.5 -38zM956 1272q-64 0 -102.5 37t-38.5 96q0 65 45 104t109 39t103.5 -38t39.5 -97q0 -65 -45 -103t-111 -38zM106 -496q-87 0 -141 31l29 182q47 -24 119 -24
q153 0 243 172l66 125l-318 1095h213l127 -481q66 -247 74 -407h70q62 176 168 383l266 505h227l-710 -1269q-83 -150 -186.5 -231t-246.5 -81z" />
    <glyph glyph-name="Amacron" unicode="&#x100;" 
d="M561 1778h676l-20 -154h-676zM1327 0h-211l-65 272h-721l-142 -272h-221l760 1434h242zM627 846l-203 -393h584l-84 350q-60 250 -66 424h-70q-45 -154 -161 -381z" />
    <glyph glyph-name="amacron" unicode="&#x101;" horiz-adv-x="1187" 
d="M336 1470h676l-21 -153h-676zM1016 131q31 0 59 16l-20 -147q-52 -27 -123 -27q-77 0 -117 46.5t-31 127.5l2 21h-57q-43 -93 -142.5 -148t-224.5 -55q-140 0 -226.5 81t-86.5 210q0 150 102 240t287 122l389 66l2 10q19 135 -50.5 203t-190.5 68q-130 0 -202.5 -64
t-78.5 -172l-190 37q27 171 157 262.5t328 91.5q213 0 334 -119.5t90 -330.5l-57 -412q-13 -57 -4.5 -92t51.5 -35zM778 328l31 225l-315 -53q-248 -40 -248 -215q0 -77 53.5 -122.5t146.5 -45.5q110 0 200.5 59.5t131.5 151.5z" />
    <glyph glyph-name="Abreve" unicode="&#x102;" 
d="M872 1569q-144 0 -225 79.5t-76 215.5h170q-6 -78 31 -120t105 -42q75 0 117.5 43t47.5 119h166q0 -134 -92 -214.5t-244 -80.5zM1327 0h-211l-65 272h-721l-142 -272h-221l760 1434h242zM627 846l-203 -393h584l-84 350q-60 250 -66 424h-70q-45 -154 -161 -381z" />
    <glyph glyph-name="abreve" unicode="&#x103;" horiz-adv-x="1187" 
d="M647 1262q-144 0 -225 79.5t-76 214.5h170q-6 -78 30.5 -119.5t104.5 -41.5q76 0 118.5 42.5t47.5 118.5h166q0 -133 -92 -213.5t-244 -80.5zM1016 131q31 0 59 16l-20 -147q-52 -27 -123 -27q-77 0 -117 46.5t-31 127.5l2 21h-57q-43 -93 -142.5 -148t-224.5 -55
q-140 0 -226.5 81t-86.5 210q0 150 102 240t287 122l389 66l2 10q19 135 -50.5 203t-190.5 68q-130 0 -202.5 -64t-78.5 -172l-190 37q27 171 157 262.5t328 91.5q213 0 334 -119.5t90 -330.5l-57 -412q-13 -57 -4.5 -92t51.5 -35zM778 328l31 225l-315 -53
q-248 -40 -248 -215q0 -77 53.5 -122.5t146.5 -45.5q110 0 200.5 59.5t131.5 151.5z" />
    <glyph glyph-name="Aogonek" unicode="&#x104;" 
d="M1389 -246l30 -119q-39 -31 -107.5 -51t-140.5 -20q-108 0 -171.5 54t-63.5 146q0 75 47.5 139.5t130.5 104.5l-63 264h-721l-142 -272h-221l760 1434h242l358 -1434h-31q-100 -27 -159.5 -80t-59.5 -119q0 -54 33.5 -81t93.5 -27q102 0 185 61zM627 846l-203 -393h584
l-84 350q-60 250 -66 424h-70q-45 -154 -161 -381z" />
    <glyph glyph-name="aogonek" unicode="&#x105;" horiz-adv-x="1187" 
d="M1124 -248l31 -119q-39 -31 -107.5 -51t-140.5 -20q-108 0 -171.5 54t-63.5 146q0 72 44 135t120 103q-64 47 -52 147l2 21h-57q-43 -93 -142.5 -148t-224.5 -55q-140 0 -226.5 81t-86.5 210q0 150 102 240t287 122l389 66l2 10q19 135 -50.5 203t-190.5 68
q-130 0 -202.5 -64t-78.5 -172l-190 37q27 171 157 262.5t328 91.5q213 0 334 -119.5t90 -330.5l-57 -412q-13 -57 -4.5 -92t51.5 -35q31 0 59 16l-20 -147q-35 -18 -90 -25q-71 -30 -111.5 -76t-40.5 -100t33.5 -81t93.5 -27q101 0 184 61zM778 328l31 225l-315 -53
q-248 -40 -248 -215q0 -77 53.5 -122.5t146.5 -45.5q110 0 200.5 59.5t131.5 151.5z" />
    <glyph glyph-name="Cacute" unicode="&#x106;" horiz-adv-x="1630" 
d="M983 1864h234l-213 -283h-152zM143 684q0 177 58 325t159 248t239 155.5t296 55.5q253 0 428 -134t215 -357l-203 -55q-23 163 -145 260.5t-305 97.5q-240 0 -385.5 -165t-145.5 -423q0 -245 131.5 -391.5t350.5 -146.5q188 0 321 102t170 270l193 -49
q-47 -230 -237.5 -371t-453.5 -141q-146 0 -271 48.5t-217.5 138.5t-145 227t-52.5 305z" />
    <glyph glyph-name="cacute" unicode="&#x107;" horiz-adv-x="1255" 
d="M770 1556h234l-213 -282h-152zM86 514q0 265 162 435.5t422 170.5q210 0 352 -119t164 -309l-197 -41q-13 133 -100.5 211t-220.5 78q-171 0 -276 -117t-105 -305q0 -177 93.5 -276t250.5 -99q129 0 212.5 63t121.5 175l182 -68q-53 -162 -194 -255t-335 -93
q-237 0 -384.5 152t-147.5 397z" />
    <glyph glyph-name="Cdotaccent" unicode="&#x10a;" horiz-adv-x="1630" 
d="M930 1579q-64 0 -103 37t-39 96q0 65 45 104t109 39t103.5 -38t39.5 -97q0 -65 -44.5 -103t-110.5 -38zM143 684q0 177 58 325t159 248t239 155.5t296 55.5q253 0 428 -134t215 -357l-203 -55q-23 163 -145 260.5t-305 97.5q-240 0 -385.5 -165t-145.5 -423
q0 -245 131.5 -391.5t350.5 -146.5q188 0 321 102t170 270l193 -49q-47 -230 -237.5 -371t-453.5 -141q-146 0 -271 48.5t-217.5 138.5t-145 227t-52.5 305z" />
    <glyph glyph-name="cdotaccent" unicode="&#x10b;" horiz-adv-x="1255" 
d="M717 1272q-64 0 -103 37t-39 96q0 65 45 104t109 39t103.5 -38t39.5 -97q0 -65 -44.5 -103t-110.5 -38zM86 514q0 265 162 435.5t422 170.5q210 0 352 -119t164 -309l-197 -41q-13 133 -100.5 211t-220.5 78q-171 0 -276 -117t-105 -305q0 -177 93.5 -276t250.5 -99
q129 0 212.5 63t121.5 175l182 -68q-53 -162 -194 -255t-335 -93q-237 0 -384.5 152t-147.5 397z" />
    <glyph glyph-name="Ccaron" unicode="&#x10c;" horiz-adv-x="1630" 
d="M811 1581l-166 283h189l32 -70q3 -7 11 -23.5t11.5 -24.5t9 -24t9.5 -34h64q25 49 71 106l52 70h196l-243 -283h-236zM143 684q0 177 58 325t159 248t239 155.5t296 55.5q253 0 428 -134t215 -357l-203 -55q-23 163 -145 260.5t-305 97.5q-240 0 -385.5 -165t-145.5 -423
q0 -245 131.5 -391.5t350.5 -146.5q188 0 321 102t170 270l193 -49q-47 -230 -237.5 -371t-453.5 -141q-146 0 -271 48.5t-217.5 138.5t-145 227t-52.5 305z" />
    <glyph glyph-name="ccaron" unicode="&#x10d;" horiz-adv-x="1255" 
d="M598 1274l-166 282h189l32 -69q33 -71 41 -107h64q26 52 71 107l52 69h196l-243 -282h-236zM86 514q0 265 162 435.5t422 170.5q210 0 352 -119t164 -309l-197 -41q-13 133 -100.5 211t-220.5 78q-171 0 -276 -117t-105 -305q0 -177 93.5 -276t250.5 -99q129 0 212.5 63
t121.5 175l182 -68q-53 -162 -194 -255t-335 -93q-237 0 -384.5 152t-147.5 397z" />
    <glyph glyph-name="Dcaron" unicode="&#x10e;" horiz-adv-x="1462" 
d="M1169 1864l-243 -283h-236l-166 283h189l32 -70q3 -7 11 -23.5t11.5 -24.5t9 -24t9.5 -34h64q23 46 72 106l51 70h196zM297 1434h483q284 0 439 -172.5t155 -473.5q0 -182 -55.5 -330.5t-156 -248.5t-240.5 -154.5t-308 -54.5h-518zM328 186h297q252 0 397 161.5
t145 434.5q0 224 -105.5 344.5t-291.5 120.5h-297z" />
    <glyph glyph-name="dcaron" unicode="&#x10f;" horiz-adv-x="1513" 
d="M1796 1278l-172 -209l-78 64l131 159q-37 12 -58.5 42.5t-21.5 70.5q0 55 39 89t95 34q54 0 89 -32.5t35 -84.5q0 -36 -13.5 -65.5t-45.5 -67.5zM608 -35q-110 0 -205.5 38.5t-165 109t-109.5 175t-40 230.5q0 181 80.5 319.5t215 210.5t300.5 72q160 0 277 -70t178 -194
l53 23q-15 76 -21 124t-5.5 119.5t12.5 157.5l28 215h203l-209 -1495h-182l2 6q5 35 67 139l-45 33q-68 -102 -183.5 -157.5t-250.5 -55.5zM678 141q119 0 218 50t146 135l52 366q-38 116 -141 183t-240 67q-186 0 -302 -115t-116 -301q0 -174 106 -279.5t277 -105.5z" />
    <glyph glyph-name="Dcroat" unicode="&#x110;" horiz-adv-x="1617" 
d="M217 641h-135l22 154h136l88 639h534q318 0 493 -175.5t175 -486.5q0 -180 -61 -326t-170.5 -243.5t-263 -150t-337.5 -52.5h-571zM428 641l-63 -455h340q287 0 449.5 158.5t162.5 425.5q0 230 -123 353.5t-340 123.5h-342l-63 -452h260l-23 -154h-258z" />
    <glyph glyph-name="dcroat" unicode="&#x111;" horiz-adv-x="1409" 
d="M1391 1360h145l-20 -143h-146l-170 -1217h-182l2 6q5 35 67 139l-45 33q-68 -101 -183 -157t-247 -56q-230 0 -377 151t-147 402q0 181 80.5 319.5t215 210.5t300.5 72q160 0 277 -70t178 -194l53 23q-13 71 -17.5 107.5t-9 107t3.5 123.5h-258l21 143h256l18 135h203z
M1042 326l52 366q-38 116 -141 183t-240 67q-186 0 -302 -115t-116 -301q0 -175 106 -280t281 -105q114 0 213.5 51t146.5 134z" />
    <glyph glyph-name="Emacron" unicode="&#x112;" horiz-adv-x="1196" 
d="M463 1778h676l-21 -154h-676zM1241 1434l-29 -187h-737l-61 -426h684l-27 -172h-682l-63 -463h743l-29 -186h-944l201 1434h944z" />
    <glyph glyph-name="emacron" unicode="&#x113;" horiz-adv-x="1265" 
d="M365 1317l20 153h676l-21 -153h-675zM90 524q0 265 159.5 430.5t412.5 165.5q236 0 382 -146t146 -382q0 -60 -12 -119h-883q6 -160 100 -249t252 -89q237 0 348 187l117 -127q-69 -110 -198.5 -170t-280.5 -60q-246 0 -394.5 152t-148.5 407zM303 616h690
q-5 153 -94.5 245.5t-239.5 92.5q-153 0 -250 -91t-106 -247z" />
    <glyph glyph-name="Edotaccent" unicode="&#x116;" horiz-adv-x="1196" 
d="M778 1579q-64 0 -102.5 37t-38.5 96q0 65 45 104t109 39t103.5 -38t39.5 -97q0 -65 -45 -103t-111 -38zM1241 1434l-29 -187h-737l-61 -426h684l-27 -172h-682l-63 -463h743l-29 -186h-944l201 1434h944z" />
    <glyph glyph-name="edotaccent" unicode="&#x117;" horiz-adv-x="1265" 
d="M698 1272q-64 0 -102.5 37t-38.5 96q0 65 45 104t109 39t103.5 -38t39.5 -97q0 -65 -45 -103t-111 -38zM90 524q0 265 159.5 430.5t412.5 165.5q236 0 382 -146t146 -382q0 -60 -12 -119h-883q6 -160 100 -249t252 -89q237 0 348 187l117 -127q-69 -110 -198.5 -170
t-280.5 -60q-246 0 -394.5 152t-148.5 407zM303 616h690q-5 153 -94.5 245.5t-239.5 92.5q-153 0 -250 -91t-106 -247z" />
    <glyph glyph-name="Eogonek" unicode="&#x118;" horiz-adv-x="1196" 
d="M1241 1434l-29 -187h-737l-61 -426h684l-27 -172h-682l-63 -463h743l-29 -186h-137q-103 -25 -165 -79t-62 -122q0 -54 33.5 -81t93.5 -27q101 0 184 61l31 -119q-39 -31 -107.5 -51t-140.5 -20q-108 0 -171.5 54t-63.5 146q0 73 43.5 135.5t119.5 102.5h-602l201 1434
h944z" />
    <glyph glyph-name="eogonek" unicode="&#x119;" horiz-adv-x="1265" 
d="M1190 592q0 -60 -12 -119h-883q6 -160 100 -249t252 -89q237 0 348 187l117 -127q-50 -79 -134.5 -133t-189.5 -78q-78 -30 -124 -79t-46 -106q0 -54 33.5 -81t93.5 -27q102 0 185 61l31 -119q-39 -31 -107.5 -51t-140.5 -20q-108 0 -172 54t-64 146q0 122 113 205
q-228 14 -364 164.5t-136 392.5q0 265 159.5 430.5t412.5 165.5q236 0 382 -146t146 -382zM303 616h690q-5 153 -94.5 245.5t-239.5 92.5q-153 0 -250 -91t-106 -247z" />
    <glyph glyph-name="Ecaron" unicode="&#x11a;" horiz-adv-x="1196" 
d="M1139 1864l-244 -283h-236l-165 283h188l33 -70q3 -7 11 -23.5t11.5 -24.5t9 -24t9.5 -34h63q23 46 72 106l51 70h197zM1241 1434l-29 -187h-737l-61 -426h684l-27 -172h-682l-63 -463h743l-29 -186h-944l201 1434h944z" />
    <glyph glyph-name="ecaron" unicode="&#x11b;" horiz-adv-x="1265" 
d="M580 1274l-166 282h188l33 -69q33 -71 41 -107h63q25 48 72 107l51 69h197l-244 -282h-235zM90 524q0 265 159.5 430.5t412.5 165.5q236 0 382 -146t146 -382q0 -60 -12 -119h-883q6 -160 100 -249t252 -89q237 0 348 187l117 -127q-69 -110 -198.5 -170t-280.5 -60
q-246 0 -394.5 152t-148.5 407zM303 616h690q-5 153 -94.5 245.5t-239.5 92.5q-153 0 -250 -91t-106 -247z" />
    <glyph glyph-name="Gbreve" unicode="&#x11e;" horiz-adv-x="1617" 
d="M627 1864h170q-6 -78 30.5 -120t104.5 -42q76 0 118.5 43t47.5 119h166q0 -134 -92 -214.5t-244 -80.5q-144 0 -225 79.5t-76 215.5zM141 674q0 226 92.5 406t265 284t394.5 104q256 0 430 -132t211 -351l-201 -53q-23 158 -144 253t-302 95q-242 0 -388.5 -166.5
t-146.5 -431.5q0 -248 131.5 -391.5t337.5 -143.5q170 0 291 95t162 250l8 59h-448l22 160h627l-101 -711h-172l4 25q1 14 7 32.5t13.5 36t24.5 59t31 76.5l-67 27q-60 -133 -180 -210t-279 -77q-127 0 -240 48.5t-198 137.5t-135 223.5t-50 295.5z" />
    <glyph glyph-name="gbreve" unicode="&#x11f;" horiz-adv-x="1101" 
d="M332 1556h170q-6 -78 30.5 -119.5t104.5 -41.5q76 0 118.5 42.5t47.5 118.5h166q0 -133 -92 -213.5t-244 -80.5q-144 0 -225 79.5t-76 214.5zM399 -528q-228 0 -339 66t-111 181q0 98 67 157.5t174 72.5l9 37q-34 19 -54 53.5t-20 75.5q0 71 48.5 119t131.5 57l4 43
q-96 38 -149.5 124.5t-53.5 196.5q0 192 135 311t359 119h520l8 -151h-69q-95 0 -195 43l-30 -55q70 -37 108.5 -108.5t38.5 -162.5q0 -175 -123.5 -281t-333.5 -106h-82q-139 -6 -139 -92q0 -74 117 -78l235 -14q299 -20 299 -264q0 -168 -141 -256t-414 -88zM526 412
q127 0 206 77.5t79 206.5q0 111 -64 175.5t-178 64.5q-128 0 -205 -77t-77 -206q0 -111 63 -176t176 -65zM422 -391q174 0 251 44t77 126q0 66 -42 92t-124 33l-293 22q-79 -9 -125.5 -52.5t-46.5 -106.5q0 -83 76.5 -120.5t226.5 -37.5z" />
    <glyph glyph-name="Gdotaccent" unicode="&#x120;" horiz-adv-x="1617" 
d="M930 1579q-64 0 -103 37t-39 96q0 65 45 104t109 39t103.5 -38t39.5 -97q0 -65 -44.5 -103t-110.5 -38zM141 674q0 226 92.5 406t265 284t394.5 104q256 0 430 -132t211 -351l-201 -53q-23 158 -144 253t-302 95q-242 0 -388.5 -166.5t-146.5 -431.5q0 -248 131.5 -391.5
t337.5 -143.5q170 0 291 95t162 250l8 59h-448l22 160h627l-101 -711h-172l4 25q1 14 7 32.5t13.5 36t24.5 59t31 76.5l-67 27q-60 -133 -180 -210t-279 -77q-127 0 -240 48.5t-198 137.5t-135 223.5t-50 295.5z" />
    <glyph glyph-name="gdotaccent" unicode="&#x121;" horiz-adv-x="1101" 
d="M635 1272q-64 0 -102.5 37t-38.5 96q0 65 44.5 104t108.5 39t104 -38t40 -97q0 -65 -45 -103t-111 -38zM399 -528q-228 0 -339 66t-111 181q0 98 67 157.5t174 72.5l9 37q-34 19 -54 53.5t-20 75.5q0 71 48.5 119t131.5 57l4 43q-96 38 -149.5 124.5t-53.5 196.5
q0 192 135 311t359 119h520l8 -151h-69q-95 0 -195 43l-30 -55q70 -37 108.5 -108.5t38.5 -162.5q0 -175 -123.5 -281t-333.5 -106h-82q-139 -6 -139 -92q0 -74 117 -78l235 -14q299 -20 299 -264q0 -168 -141 -256t-414 -88zM526 412q127 0 206 77.5t79 206.5
q0 111 -64 175.5t-178 64.5q-128 0 -205 -77t-77 -206q0 -111 63 -176t176 -65zM422 -391q174 0 251 44t77 126q0 66 -42 92t-124 33l-293 22q-79 -9 -125.5 -52.5t-46.5 -106.5q0 -83 76.5 -120.5t226.5 -37.5z" />
    <glyph glyph-name="uni0122" unicode="&#x122;" horiz-adv-x="1617" 
d="M141 674q0 226 92.5 406t265 284t394.5 104q256 0 430 -132t211 -351l-201 -53q-23 158 -144 253t-302 95q-242 0 -388.5 -166.5t-146.5 -431.5q0 -248 131.5 -391.5t337.5 -143.5q170 0 291 95t162 250l8 59h-448l22 160h627l-101 -711h-172l4 25q1 14 7 32.5t13.5 36
t24.5 59t31 76.5l-67 27q-60 -133 -180 -210t-279 -77q-127 0 -240 48.5t-198 137.5t-135 223.5t-50 295.5zM668 -170h233l-215 -281h-151z" />
    <glyph glyph-name="uni0123" unicode="&#x123;" horiz-adv-x="1101" 
d="M561 1501l164 209l96 -57l-106 -137q36 -9 57 -37.5t21 -67.5q0 -65 -47.5 -109.5t-116.5 -44.5q-55 0 -89 30.5t-34 80.5q0 58 55 133zM399 -528q-228 0 -339 66t-111 181q0 98 67 157.5t174 72.5l9 37q-34 19 -54 53.5t-20 75.5q0 71 48.5 119t131.5 57l4 43
q-96 38 -149.5 124.5t-53.5 196.5q0 192 135 311t359 119h520l8 -151h-69q-95 0 -195 43l-30 -55q70 -37 108.5 -108.5t38.5 -162.5q0 -175 -123.5 -281t-333.5 -106h-82q-139 -6 -139 -92q0 -74 117 -78l235 -14q299 -20 299 -264q0 -168 -141 -256t-414 -88zM526 412
q127 0 206 77.5t79 206.5q0 111 -64 175.5t-178 64.5q-128 0 -205 -77t-77 -206q0 -111 63 -176t176 -65zM422 -391q174 0 251 44t77 126q0 66 -42 92t-124 33l-293 22q-79 -9 -125.5 -52.5t-46.5 -106.5q0 -83 76.5 -120.5t226.5 -37.5z" />
    <glyph glyph-name="Hbar" unicode="&#x126;" horiz-adv-x="1597" 
d="M1526 1434l-27 -191h137l-22 -160h-137l-152 -1083h-213l92 641h-803l-92 -641h-209l152 1083h-139l22 160h139l27 191h209l-27 -191h803l27 191h213zM463 1083l-35 -252h803l35 252h-803z" />
    <glyph glyph-name="hbar" unicode="&#x127;" horiz-adv-x="1359" 
d="M856 1120q215 0 319 -132t72 -367l-88 -621h-205l84 584q50 356 -264 356q-138 0 -253 -68.5t-181 -189.5l-96 -682h-203l172 1217h-141l20 143h141l19 135h203l-19 -135h260l-20 -143h-260l-8 -68q-21 -146 -89 -279l46 -20q86 132 211.5 201t279.5 69z" />
    <glyph glyph-name="Imacron" unicode="&#x12a;" horiz-adv-x="587" 
d="M109 1624l20 154h676l-21 -154h-675zM117 0l200 1434h205l-200 -1434h-205z" />
    <glyph glyph-name="imacron" unicode="&#x12b;" horiz-adv-x="499" 
d="M14 1317l21 153h676l-21 -153h-676zM68 0l151 1085h203l-152 -1085h-202z" />
    <glyph glyph-name="Iogonek" unicode="&#x12e;" horiz-adv-x="587" 
d="M219 -309q101 0 184 61l31 -119q-39 -31 -107.5 -51t-140.5 -20q-108 0 -171.5 54t-63.5 146q0 73 44.5 135.5t121.5 102.5l200 1434h205l-200 -1434h-3q-103 -25 -165 -79t-62 -122q0 -54 33.5 -81t93.5 -27z" />
    <glyph glyph-name="iogonek" unicode="&#x12f;" horiz-adv-x="499" 
d="M360 1548q64 0 104 -38t40 -97q0 -65 -45 -103t-111 -38q-64 0 -102.5 37t-38.5 96q0 65 44.5 104t108.5 39zM270 0h-2q-103 -25 -165 -79t-62 -122q0 -54 33.5 -81t93.5 -27q101 0 184 61l31 -119q-39 -31 -107.5 -51t-140.5 -20q-108 0 -171.5 54t-63.5 146
q0 73 45 136.5t123 103.5l151 1083h203z" />
    <glyph glyph-name="Idotaccent" unicode="&#x130;" horiz-adv-x="587" 
d="M442 1579q-64 0 -102.5 37t-38.5 96q0 65 45 104t109 39t103.5 -38t39.5 -97q0 -65 -45 -103t-111 -38zM117 0l200 1434h205l-200 -1434h-205z" />
    <glyph glyph-name="dotlessi" unicode="&#x131;" horiz-adv-x="499" 
d="M68 0l151 1085h203l-152 -1085h-202z" />
    <glyph glyph-name="uni0136" unicode="&#x136;" horiz-adv-x="1333" 
d="M96 0l201 1434h203l-51 -383q-13 -104 -39.5 -182.5t-79.5 -151.5l47 -45l756 762h272l-635 -627l432 -807h-237l-344 674h-3l-260 -252l-59 -422h-203zM492 -170h233l-215 -281h-152z" />
    <glyph glyph-name="uni0137" unicode="&#x137;" horiz-adv-x="1179" 
d="M256 0h-199l211 1495h199l-80 -569q-36 -239 -119 -353l51 -47q82 104 220 224l387 335h280l-536 -444l397 -641h-242l-309 524h-4l-207 -174zM381 -170h233l-215 -281h-151z" />
    <glyph glyph-name="Lacute" unicode="&#x139;" horiz-adv-x="1122" 
d="M477 1864h234l-213 -283h-152zM96 0l201 1434h203l-172 -1248h702l-29 -186h-905z" />
    <glyph glyph-name="lacute" unicode="&#x13a;" horiz-adv-x="483" 
d="M459 1966h233l-213 -283h-151zM68 0l211 1495h196l-211 -1495h-196z" />
    <glyph glyph-name="uni013B" unicode="&#x13b;" horiz-adv-x="1122" 
d="M96 0l201 1434h203l-172 -1248h702l-29 -186h-905zM408 -170h233l-215 -281h-152z" />
    <glyph glyph-name="uni013C" unicode="&#x13c;" horiz-adv-x="483" 
d="M68 0l211 1495h196l-211 -1495h-196zM27 -170h233l-215 -281h-151z" />
    <glyph glyph-name="Lcaron" unicode="&#x13d;" horiz-adv-x="1210" 
d="M999 1245l-178 -225l-88 55l125 156q-34 9 -53 35t-19 61q0 59 43.5 100t106.5 41q52 0 82.5 -28.5t30.5 -73.5q0 -60 -50 -121zM96 0l201 1434h209l-174 -1248h786l-26 -186h-996z" />
    <glyph glyph-name="lcaron" unicode="&#x13e;" horiz-adv-x="569" 
d="M858 1266l-162 -199l-82 63l134 162q-37 10 -58.5 40.5t-21.5 70.5q0 56 40 90.5t95 34.5t90 -33t35 -86q0 -37 -16 -66.5t-54 -76.5zM68 0l211 1495h202l-211 -1495h-202z" />
    <glyph glyph-name="Lslash" unicode="&#x141;" horiz-adv-x="1228" 
d="M201 629l-156 -58l21 156l157 57l90 650h211l-80 -566l244 90l-22 -155l-244 -90l-74 -527h787l-27 -186h-995z" />
    <glyph glyph-name="lslash" unicode="&#x142;" horiz-adv-x="485" 
d="M12 555l23 158l155 67l99 715h205l-88 -621l155 70l-22 -160l-154 -67l-102 -717h-203l88 623z" />
    <glyph glyph-name="Nacute" unicode="&#x143;" horiz-adv-x="1484" 
d="M950 1864h234l-213 -283h-152zM96 0l201 1434h225l549 -1139h4l158 1139h205l-201 -1434h-227l-549 1130h-4l-158 -1130h-203z" />
    <glyph glyph-name="nacute" unicode="&#x144;" horiz-adv-x="1273" 
d="M797 1556h233l-213 -282h-151zM254 0h-197l152 1085h170v-14q-13 -114 -55 -194l61 -31q73 134 183.5 204t234.5 70q198 0 294 -135t64 -364l-88 -621h-196l81 584q24 174 -36 266t-203 92q-109 0 -210.5 -71t-158.5 -189z" />
    <glyph glyph-name="uni0145" unicode="&#x145;" horiz-adv-x="1484" 
d="M96 0l201 1434h225l549 -1139h4l158 1139h205l-201 -1434h-227l-549 1130h-4l-158 -1130h-203zM514 -170h234l-216 -281h-151z" />
    <glyph glyph-name="uni0146" unicode="&#x146;" horiz-adv-x="1273" 
d="M350 682l-96 -682h-197l152 1085h170v-14q-13 -114 -55 -194l61 -31q73 134 183.5 204t234.5 70q198 0 294 -135t64 -364l-88 -621h-196l81 584q24 174 -36 266t-203 92q-109 0 -210.5 -71t-158.5 -189zM424 -170h233l-215 -281h-151z" />
    <glyph glyph-name="Ncaron" unicode="&#x147;" horiz-adv-x="1484" 
d="M780 1581l-166 283h189l33 -70q3 -7 11 -23.5t11.5 -24.5t9 -24t9.5 -34h63q23 46 72 106l51 70h197l-244 -283h-236zM96 0l201 1434h225l549 -1139h4l158 1139h205l-201 -1434h-227l-549 1130h-4l-158 -1130h-203z" />
    <glyph glyph-name="ncaron" unicode="&#x148;" horiz-adv-x="1273" 
d="M627 1274l-166 282h188l33 -69q33 -71 41 -107h63q25 48 72 107l51 69h197l-244 -282h-235zM350 682l-96 -682h-197l152 1085h170v-14q-13 -114 -55 -194l61 -31q73 134 183.5 204t234.5 70q198 0 294 -135t64 -364l-88 -621h-196l81 584q24 174 -36 266t-203 92
q-109 0 -210.5 -71t-158.5 -189z" />
    <glyph glyph-name="Eng" unicode="&#x14a;" horiz-adv-x="1638" 
d="M326 0h-209l200 1434h234l649 -1125h4l156 1125h213l-217 -1547q-27 -191 -138 -287t-296 -96q-64 0 -101 13l-8 172q46 -11 90 -11q114 0 174.5 50.5t75.5 154.5l14 117h-32l-648 1116h-4z" />
    <glyph glyph-name="eng" unicode="&#x14b;" horiz-adv-x="1435" 
d="M291 0h-203l152 1085h188v-14q-8 -62 -21 -104t-42 -97l47 -20q190 270 489 270q216 0 319.5 -137t67.5 -391l-100 -705q-26 -191 -137 -287t-295 -96q-68 0 -101 13l-8 172q46 -11 90 -11q119 0 177 54.5t73 171.5l94 661q26 189 -39 282t-223 93q-138 0 -252 -68
t-180 -190z" />
    <glyph glyph-name="Omacron" unicode="&#x14c;" horiz-adv-x="1662" 
d="M602 1632l21 154h675l-20 -154h-676zM139 666q0 233 97 416t271 284.5t396 101.5q300 0 486 -191.5t186 -508.5q0 -233 -97 -416t-271 -285t-394 -102q-198 0 -351 86t-238 245.5t-85 369.5zM350 678q0 -241 128.5 -383.5t344.5 -142.5q239 0 390 165t151 437
q0 242 -128.5 384t-342.5 142q-241 0 -392 -164t-151 -438z" />
    <glyph glyph-name="omacron" unicode="&#x14d;" horiz-adv-x="1302" 
d="M369 1317l20 153h676l-21 -153h-675zM86 506q0 272 168 443t430 171q238 0 385.5 -147.5t147.5 -390.5q0 -276 -167.5 -446.5t-435.5 -170.5q-236 0 -382 148t-146 393zM1014 569q0 168 -94 269.5t-250 101.5q-169 0 -276 -119t-107 -305q0 -169 94 -269t250 -100
q171 0 277 118t106 304z" />
    <glyph glyph-name="Ohungarumlaut" unicode="&#x150;" horiz-adv-x="1662" 
d="M809 1872h225l-194 -283h-150zM1217 1872h225l-254 -283h-162zM139 666q0 233 97 416t271 284.5t396 101.5q300 0 486 -191.5t186 -508.5q0 -233 -97 -416t-271 -285t-394 -102q-198 0 -351 86t-238 245.5t-85 369.5zM350 678q0 -241 128.5 -383.5t344.5 -142.5
q239 0 390 165t151 437q0 242 -128.5 384t-342.5 142q-241 0 -392 -164t-151 -438z" />
    <glyph glyph-name="ohungarumlaut" unicode="&#x151;" horiz-adv-x="1302" 
d="M575 1556h226l-195 -282h-149zM983 1556h225l-254 -282h-161zM86 506q0 272 168 443t430 171q238 0 385.5 -147.5t147.5 -390.5q0 -276 -167.5 -446.5t-435.5 -170.5q-236 0 -382 148t-146 393zM1014 569q0 168 -94 269.5t-250 101.5q-169 0 -276 -119t-107 -305
q0 -169 94 -269t250 -100q171 0 277 118t106 304z" />
    <glyph glyph-name="OE" unicode="&#x152;" horiz-adv-x="2252" 
d="M139 659q0 237 101.5 413t286 269t429.5 93h1342l-25 -187h-833l-60 -426h766l-24 -172h-766l-66 -463h834l-27 -186h-1304q-293 0 -473.5 181.5t-180.5 477.5zM350 684q0 -226 131 -362t346 -136h252l152 1061h-289q-280 0 -436 -152.5t-156 -410.5z" />
    <glyph glyph-name="oe" unicode="&#x153;" horiz-adv-x="2295" 
d="M2220 592q0 -41 -12 -119h-885q6 -160 100.5 -249t253.5 -89q120 0 207 50t139 137l117 -127q-69 -110 -198.5 -170t-278.5 -60q-185 0 -317 87t-189 243q-71 -155 -213.5 -242.5t-331.5 -87.5q-235 0 -380.5 148t-145.5 393q0 273 167.5 443.5t430.5 170.5
q176 0 305.5 -83.5t186.5 -233.5q68 149 202.5 233t311.5 84q238 0 384 -146t146 -382zM1331 616h690q-5 154 -93.5 246t-239.5 92q-152 0 -250 -91.5t-107 -246.5zM629 147q171 0 277 118t106 304q0 168 -94 269.5t-248 101.5q-170 0 -276.5 -118.5t-106.5 -305.5
q0 -169 93.5 -269t248.5 -100z" />
    <glyph glyph-name="Racute" unicode="&#x154;" horiz-adv-x="1357" 
d="M885 1864h233l-213 -283h-151zM1343 1061q0 -187 -123 -297.5t-335 -124.5l-11 -66q86 -26 133.5 -81t77.5 -158l52 -174q30 -109 75 -135l-2 -25h-229q-33 60 -43 104l-64 226q-33 118 -101.5 171.5t-176.5 53.5h-219l-78 -555h-203l201 1434h647q189 0 294 -99.5
t105 -273.5zM401 739h420q142 0 224.5 76.5t82.5 206.5q0 115 -63.5 171t-173.5 56h-418z" />
    <glyph glyph-name="racute" unicode="&#x155;" horiz-adv-x="755" 
d="M549 1556h233l-213 -282h-151zM352 696l-98 -696h-197l152 1085h168v-14q-3 -48 -16 -88.5t-42 -101.5l64 -21q118 242 319 242q61 0 91 -15l-15 -184q-59 19 -125 19q-98 0 -179 -60t-122 -166z" />
    <glyph glyph-name="uni0156" unicode="&#x156;" horiz-adv-x="1357" 
d="M1343 1061q0 -187 -123 -297.5t-335 -124.5l-11 -66q86 -26 133.5 -81t77.5 -158l52 -174q30 -109 75 -135l-2 -25h-229q-33 60 -43 104l-64 226q-33 118 -101.5 171.5t-176.5 53.5h-219l-78 -555h-203l201 1434h647q189 0 294 -99.5t105 -273.5zM401 739h420
q142 0 224.5 76.5t82.5 206.5q0 115 -63.5 171t-173.5 56h-418zM481 -451h-151l133 281h233z" />
    <glyph glyph-name="uni0157" unicode="&#x157;" horiz-adv-x="755" 
d="M352 696l-98 -696h-197l152 1085h168v-14q-3 -48 -16 -88.5t-42 -101.5l64 -21q118 242 319 242q61 0 91 -15l-15 -184q-59 19 -125 19q-98 0 -179 -60t-122 -166zM16 -170h234l-215 -281h-152z" />
    <glyph glyph-name="Rcaron" unicode="&#x158;" horiz-adv-x="1357" 
d="M1194 1864l-244 -283h-235l-166 283h188l33 -70q3 -7 11 -23.5t11.5 -24.5t9 -24t9.5 -34h63q23 46 72 106l51 70h197zM1343 1061q0 -187 -123 -297.5t-335 -124.5l-11 -66q86 -26 133.5 -81t77.5 -158l52 -174q30 -109 75 -135l-2 -25h-229q-33 60 -43 104l-64 226
q-33 118 -101.5 171.5t-176.5 53.5h-219l-78 -555h-203l201 1434h647q189 0 294 -99.5t105 -273.5zM401 739h420q142 0 224.5 76.5t82.5 206.5q0 115 -63.5 171t-173.5 56h-418z" />
    <glyph glyph-name="rcaron" unicode="&#x159;" horiz-adv-x="755" 
d="M379 1274l-166 282h188l33 -69q33 -71 41 -107h64q26 52 71 107l52 69h196l-244 -282h-235zM352 696l-98 -696h-197l152 1085h168v-14q-3 -48 -16 -88.5t-42 -101.5l64 -21q118 242 319 242q61 0 91 -15l-15 -184q-59 19 -125 19q-98 0 -179 -60t-122 -166z" />
    <glyph glyph-name="Sacute" unicode="&#x15a;" horiz-adv-x="1335" 
d="M834 1870h233l-213 -283h-152zM84 428l203 35q12 -155 116.5 -238.5t272.5 -83.5q157 0 241 62.5t84 175.5q0 57 -19.5 98t-61.5 69.5t-94 47.5t-132 37q-85 19 -146 38.5t-126.5 53t-106.5 75t-67.5 105.5t-26.5 144q0 194 142 306.5t374 112.5q233 0 385 -118.5
t172 -311.5l-202 -41q-15 141 -115.5 219t-249.5 78q-135 0 -215 -61t-80 -162q0 -46 15 -79.5t40 -57t77.5 -45.5t105.5 -37.5t147 -38.5q63 -15 112.5 -32t105.5 -49t93 -73t61.5 -106t24.5 -145q0 -206 -146 -323.5t-402 -117.5t-412 128t-170 335z" />
    <glyph glyph-name="sacute" unicode="&#x15b;" horiz-adv-x="1089" 
d="M657 1556h234l-213 -282h-152zM35 309l164 58q17 -116 107 -180t231 -64q110 0 171.5 44.5t61.5 123.5q0 35 -12 61.5t-31 44t-56.5 32.5t-73 24t-95.5 22q-43 10 -76 18.5t-73.5 23.5t-70.5 31.5t-60.5 41t-49.5 53.5t-31 68.5t-12 85.5q0 153 116 238t302 85
q190 0 320 -89t155 -236l-162 -58q-18 105 -107.5 167.5t-213.5 62.5q-99 0 -157 -41t-58 -113q0 -33 13 -58.5t33.5 -43t62 -33.5t80 -26.5t105.5 -26.5q64 -15 108.5 -29t94.5 -39.5t80 -57t50 -81t20 -113.5q0 -162 -122.5 -251t-318.5 -89q-204 0 -337 93t-158 251z" />
    <glyph glyph-name="Scedilla" unicode="&#x15e;" horiz-adv-x="1335" 
d="M817 811q63 -15 112.5 -32t105.5 -49t93 -73t61.5 -106t24.5 -145q0 -197 -133.5 -314t-369.5 -127q-23 -40 -74 -71l14 -21q27 8 74 8q81 0 129.5 -49t48.5 -125q0 -99 -82.5 -160t-212.5 -61q-71 0 -134 19t-103 49l51 102q82 -57 184 -57q78 0 120 31t42 83
q0 39 -25.5 64.5t-70.5 25.5t-82 -16l-66 35l66 147q-223 19 -358.5 143.5t-147.5 315.5l203 35q12 -155 116.5 -238.5t272.5 -83.5q157 0 241 62.5t84 175.5q0 57 -19.5 98t-61.5 69.5t-94 47.5t-132 37q-85 19 -146 38.5t-126.5 53t-106.5 75t-67.5 105.5t-26.5 144
q0 194 142 306.5t374 112.5q233 0 385 -118.5t172 -311.5l-202 -41q-15 141 -115.5 219t-249.5 78q-135 0 -215 -61t-80 -162q0 -46 15 -79.5t40 -57t77.5 -45.5t105.5 -37.5t147 -38.5z" />
    <glyph glyph-name="scedilla" unicode="&#x15f;" horiz-adv-x="1089" 
d="M618 625q64 -15 108.5 -29t94.5 -39.5t80 -57t50 -81t20 -113.5q0 -162 -122.5 -251t-318.5 -89h-26q-19 -40 -74 -74l14 -20q27 8 74 8q81 0 129.5 -49t48.5 -125q0 -99 -82.5 -160t-212.5 -61q-149 0 -237 67l51 103q82 -57 184 -57q78 0 120 31t42 83q0 39 -25.5 64.5
t-70.5 25.5t-82 -16l-66 35l72 157q-147 29 -240.5 116.5t-113.5 215.5l164 58q17 -116 107 -180t231 -64q110 0 171.5 44.5t61.5 123.5q0 35 -12 61.5t-31 44t-56.5 32.5t-73 24t-95.5 22q-43 10 -76 18.5t-73.5 23.5t-70.5 31.5t-60.5 41t-49.5 53.5t-31 68.5t-12 85.5
q0 153 116 238t302 85q190 0 320 -89t155 -236l-162 -58q-18 105 -107.5 167.5t-213.5 62.5q-99 0 -157 -41t-58 -113q0 -33 13 -58.5t33.5 -43t62 -33.5t80 -26.5t105.5 -26.5z" />
    <glyph glyph-name="Scaron" unicode="&#x160;" horiz-adv-x="1335" 
d="M664 1587l-166 283h188l33 -70q3 -7 11 -23.5t11.5 -24.5t9 -24t9.5 -34h63q23 46 72 106l51 70h197l-244 -283h-235zM84 428l203 35q12 -155 116.5 -238.5t272.5 -83.5q157 0 241 62.5t84 175.5q0 57 -19.5 98t-61.5 69.5t-94 47.5t-132 37q-85 19 -146 38.5t-126.5 53
t-106.5 75t-67.5 105.5t-26.5 144q0 194 142 306.5t374 112.5q233 0 385 -118.5t172 -311.5l-202 -41q-15 141 -115.5 219t-249.5 78q-135 0 -215 -61t-80 -162q0 -46 15 -79.5t40 -57t77.5 -45.5t105.5 -37.5t147 -38.5q63 -15 112.5 -32t105.5 -49t93 -73t61.5 -106
t24.5 -145q0 -206 -146 -323.5t-402 -117.5t-412 128t-170 335z" />
    <glyph glyph-name="scaron" unicode="&#x161;" horiz-adv-x="1089" 
d="M487 1274l-165 282h188l33 -69q33 -71 41 -107h63q25 48 72 107l51 69h197l-244 -282h-236zM35 309l164 58q17 -116 107 -180t231 -64q110 0 171.5 44.5t61.5 123.5q0 35 -12 61.5t-31 44t-56.5 32.5t-73 24t-95.5 22q-43 10 -76 18.5t-73.5 23.5t-70.5 31.5t-60.5 41
t-49.5 53.5t-31 68.5t-12 85.5q0 153 116 238t302 85q190 0 320 -89t155 -236l-162 -58q-18 105 -107.5 167.5t-213.5 62.5q-99 0 -157 -41t-58 -113q0 -33 13 -58.5t33.5 -43t62 -33.5t80 -26.5t105.5 -26.5q64 -15 108.5 -29t94.5 -39.5t80 -57t50 -81t20 -113.5
q0 -162 -122.5 -251t-318.5 -89q-204 0 -337 93t-158 251z" />
    <glyph glyph-name="uni0162" unicode="&#x162;" horiz-adv-x="1255" 
d="M655 0h-43q-5 -53 -86 -109l15 -20q27 8 73 8q81 0 130 -49t49 -125q0 -99 -82.5 -160t-212.5 -61q-72 0 -135.5 18.5t-102.5 48.5l51 103q82 -57 185 -57q78 0 119.5 31t41.5 83q0 39 -25.5 64.5t-70.5 25.5t-82 -16l-65 35l82 180h-45l174 1247h-475l28 187h1155
l-26 -187h-478z" />
    <glyph glyph-name="uni0163" unicode="&#x163;" horiz-adv-x="817" 
d="M807 918h-309l-88 -615q-11 -84 21 -114.5t106 -30.5q81 0 125 30l-50 -186q-47 -19 -102 -25q-15 -41 -80 -86l14 -20q27 8 74 8q81 0 129.5 -49t48.5 -125q0 -99 -82.5 -160t-212.5 -61q-149 0 -237 67l51 103q82 -57 184 -57q78 0 120 31t42 83q0 39 -25.5 64.5
t-70.5 25.5t-82 -16l-66 35l72 160q-112 17 -156 90.5t-26 191.5l90 656h-209l25 167h209l38 279l205 37l-43 -316h309z" />
    <glyph glyph-name="Tcaron" unicode="&#x164;" horiz-adv-x="1255" 
d="M1143 1864l-244 -283h-235l-166 283h188l33 -70q3 -7 11 -23.5t11.5 -24.5t9 -24t9.5 -34h63q23 46 72 106l51 70h197zM178 1434h1155l-26 -187h-478l-174 -1247h-204l174 1247h-475z" />
    <glyph glyph-name="tcaron" unicode="&#x165;" horiz-adv-x="870" 
d="M975 1354l-146 -176l-77 63l104 129q-37 12 -58.5 42.5t-21.5 68.5q0 55 38.5 89t94.5 34q54 0 89.5 -32.5t35.5 -84.5q0 -35 -13.5 -64t-45.5 -69zM455 -27q-148 0 -208 77t-40 212l90 656h-209l25 167h209l38 279l205 37l-43 -316h309l-24 -167h-309l-86 -607
q-13 -88 19 -118.5t108 -30.5q75 0 125 31l-52 -189q-67 -31 -157 -31z" />
    <glyph glyph-name="Tbar" unicode="&#x166;" horiz-adv-x="1382" 
d="M1399 1434l-27 -187h-500l-59 -424h369l-25 -170h-369l-92 -653h-207l93 653h-353l25 170h350l60 424h-500l26 187h1209z" />
    <glyph glyph-name="tbar" unicode="&#x167;" horiz-adv-x="817" 
d="M831 1085l-24 -167h-309l-35 -252h309l-43 -150h-289l-28 -205q-13 -88 19 -118.5t108 -30.5q75 0 125 31l-52 -189q-67 -31 -157 -31q-148 0 -208 77t-40 212l35 254h-209l22 150h207l35 252h-209l25 167h209l38 279l205 37l-43 -316h309z" />
    <glyph glyph-name="Umacron" unicode="&#x16a;" 
d="M535 1624l20 154h676l-21 -154h-675zM162 557l123 877h204l-122 -875q-29 -200 51 -302.5t256 -102.5q185 0 279.5 83t123.5 289l127 908h205l-129 -938q-37 -267 -185 -399t-419 -132q-130 0 -232 35.5t-173 106.5t-100 186t-9 264z" />
    <glyph glyph-name="umacron" unicode="&#x16b;" horiz-adv-x="1273" 
d="M408 1317l20 153h676l-21 -153h-675zM924 403l96 682h197l-152 -1085h-176l2 14q16 115 59 209l-61 23q-75 -138 -187 -209.5t-253 -71.5q-193 0 -281.5 132.5t-54.5 367.5l86 620h198l-82 -583q-25 -174 32.5 -265.5t193.5 -91.5q123 0 223 69t160 189z" />
    <glyph glyph-name="Uring" unicode="&#x16e;" 
d="M621 1788q0 111 84 182.5t210 71.5q113 0 184.5 -64t71.5 -166q0 -109 -83 -181t-209 -72q-114 0 -186 63.5t-72 165.5zM764 1792q0 -53 33 -85t88 -32q64 0 103.5 36t39.5 97q0 53 -33 85t-90 32q-62 0 -101.5 -36t-39.5 -97zM162 557l123 877h204l-122 -875
q-29 -200 51 -302.5t256 -102.5q185 0 279.5 83t123.5 289l127 908h205l-129 -938q-37 -267 -185 -399t-419 -132q-130 0 -232 35.5t-173 106.5t-100 186t-9 264z" />
    <glyph glyph-name="uring" unicode="&#x16f;" horiz-adv-x="1273" 
d="M494 1481q0 111 84 182.5t210 71.5q113 0 184.5 -64t71.5 -166q0 -109 -83 -181.5t-209 -72.5q-114 0 -186 64t-72 166zM637 1485q0 -53 33 -85t88 -32q64 0 103.5 36t39.5 97q0 53 -33 85t-90 32q-62 0 -101.5 -36t-39.5 -97zM924 403l96 682h197l-152 -1085h-176l2 14
q16 115 59 209l-61 23q-75 -138 -187 -209.5t-253 -71.5q-193 0 -281.5 132.5t-54.5 367.5l86 620h198l-82 -583q-25 -174 32.5 -265.5t193.5 -91.5q123 0 223 69t160 189z" />
    <glyph glyph-name="Uhungarumlaut" unicode="&#x170;" 
d="M743 1864h226l-195 -283h-149zM1151 1864h225l-254 -283h-161zM162 557l123 877h204l-122 -875q-29 -200 51 -302.5t256 -102.5q185 0 279.5 83t123.5 289l127 908h205l-129 -938q-37 -267 -185 -399t-419 -132q-130 0 -232 35.5t-173 106.5t-100 186t-9 264z" />
    <glyph glyph-name="uhungarumlaut" unicode="&#x171;" horiz-adv-x="1273" 
d="M616 1556h226l-195 -282h-149zM1024 1556h225l-254 -282h-161zM924 403l96 682h197l-152 -1085h-176l2 14q16 115 59 209l-61 23q-75 -138 -187 -209.5t-253 -71.5q-193 0 -281.5 132.5t-54.5 367.5l86 620h198l-82 -583q-25 -174 32.5 -265.5t193.5 -91.5q123 0 223 69
t160 189z" />
    <glyph glyph-name="Uogonek" unicode="&#x172;" 
d="M1077 526l127 908h205l-129 -938q-37 -263 -181 -395t-407 -136q-94 -62 -94 -145q0 -54 33.5 -81.5t93.5 -27.5q100 0 184 62l31 -119q-39 -31 -107.5 -51.5t-140.5 -20.5q-107 0 -171 54.5t-64 146.5q0 110 96 190q-212 34 -319 180.5t-72 403.5l123 877h204l-122 -875
q-29 -200 51 -302.5t256 -102.5q185 0 279.5 83t123.5 289z" />
    <glyph glyph-name="uogonek" unicode="&#x173;" horiz-adv-x="1273" 
d="M942 -309q101 0 184 61l31 -119q-39 -31 -107.5 -51t-140.5 -20q-108 0 -171.5 54t-63.5 146q0 85 59 155.5t160 107.5q15 103 57 198l-61 23q-75 -138 -187 -209.5t-253 -71.5q-193 0 -281.5 132.5t-54.5 367.5l86 620h198l-82 -583q-25 -174 32.5 -265.5t193.5 -91.5
q123 0 223 69t160 189l96 682h197l-152 -1085h-23q-103 -25 -165 -79t-62 -122q0 -54 33.5 -81t93.5 -27z" />
    <glyph glyph-name="Wcircumflex" unicode="&#x174;" horiz-adv-x="1947" 
d="M985 1581h-197l244 283h236l166 -283h-189l-33 70q-32 66 -41 108h-63q-28 -52 -72 -108zM291 0l-115 1434h203l47 -654q19 -266 -14 -538h80q45 178 170 446l339 746h181l127 -652q67 -363 65 -540h80q45 291 119 512l233 680h219l-514 -1434h-239l-139 752
q-42 252 -35 458h-62q-45 -235 -157 -473l-351 -737h-237z" />
    <glyph glyph-name="wcircumflex" unicode="&#x175;" horiz-adv-x="1640" 
d="M795 1274h-197l244 282h235l166 -282h-188l-33 69q-32 65 -41 109h-63q-29 -55 -72 -109zM676 463l-209 -463h-236l-127 1085h197l45 -428q23 -237 -2 -444h80q40 158 164 430l207 442h192l92 -444q45 -231 39 -428h82q32 199 123 446l160 426h205l-422 -1085h-234
l-90 467q-45 279 -35 436h-76q-4 -21 -9 -42.5t-13 -47.5t-13 -43t-17.5 -49.5t-17 -46t-20.5 -52.5t-19.5 -48.5t-23 -56t-22.5 -54.5z" />
    <glyph glyph-name="Ycircumflex" unicode="&#x176;" horiz-adv-x="1386" 
d="M707 1581h-197l244 283h235l166 -283h-188l-33 70q-32 66 -41 108h-64q-30 -56 -71 -108zM596 561l-432 873h231l158 -338q112 -270 119 -369h84q30 98 223 373l254 334h242l-674 -873l-78 -561h-207z" />
    <glyph glyph-name="ycircumflex" unicode="&#x177;" horiz-adv-x="1202" 
d="M573 1274h-196l244 282h235l166 -282h-188l-33 69q-32 65 -41 109h-64q-31 -59 -71 -109zM106 -496q-87 0 -141 31l29 182q47 -24 119 -24q153 0 243 172l66 125l-318 1095h213l127 -481q66 -247 74 -407h70q62 176 168 383l266 505h227l-710 -1269q-83 -150 -186.5 -231
t-246.5 -81z" />
    <glyph glyph-name="Ydieresis" unicode="&#x178;" horiz-adv-x="1386" 
d="M580 1579q-64 0 -103 37t-39 96q0 65 45 104t109 39t103.5 -38t39.5 -97q0 -65 -44.5 -103t-110.5 -38zM1087 1579q-64 0 -102.5 37t-38.5 96q0 65 45 104t109 39t103.5 -38t39.5 -97q0 -65 -45 -103t-111 -38zM596 561l-432 873h231l158 -338q112 -270 119 -369h84
q30 98 223 373l254 334h242l-674 -873l-78 -561h-207z" />
    <glyph glyph-name="Zacute" unicode="&#x179;" horiz-adv-x="1292" 
d="M854 1864h233l-213 -283h-151zM1124 0h-1112l27 178l1010 1106l-45 57q-108 -94 -322 -94h-477l26 187h1078l-27 -179l-1012 -1105l45 -58q105 94 324 94h514z" />
    <glyph glyph-name="zacute" unicode="&#x17a;" horiz-adv-x="1069" 
d="M696 1556h234l-213 -282h-152zM946 168l-24 -168h-920l27 174l796 764l-39 53q-60 -39 -119.5 -56t-144.5 -17h-377l23 167h891l-25 -174l-796 -764l38 -53q95 74 267 74h403z" />
    <glyph glyph-name="Zdotaccent" unicode="&#x17b;" horiz-adv-x="1292" 
d="M801 1579q-64 0 -103 37t-39 96q0 65 45 104t109 39t103.5 -38t39.5 -97q0 -65 -44.5 -103t-110.5 -38zM1124 0h-1112l27 178l1010 1106l-45 57q-108 -94 -322 -94h-477l26 187h1078l-27 -179l-1012 -1105l45 -58q105 94 324 94h514z" />
    <glyph glyph-name="zdotaccent" unicode="&#x17c;" horiz-adv-x="1069" 
d="M643 1272q-64 0 -102.5 37t-38.5 96q0 65 44.5 104t108.5 39t104 -38t40 -97q0 -65 -45 -103t-111 -38zM543 168h403l-24 -168h-920l27 174l796 764l-39 53q-60 -39 -119.5 -56t-144.5 -17h-377l23 167h891l-25 -174l-796 -764l38 -53q95 74 267 74z" />
    <glyph glyph-name="Zcaron" unicode="&#x17d;" horiz-adv-x="1292" 
d="M684 1581l-166 283h189l32 -70q3 -7 11 -23.5t11.5 -24.5t9 -24t9.5 -34h64q25 49 71 106l52 70h196l-243 -283h-236zM1124 0h-1112l27 178l1010 1106l-45 57q-108 -94 -322 -94h-477l26 187h1078l-27 -179l-1012 -1105l45 -58q105 94 324 94h514z" />
    <glyph glyph-name="zcaron" unicode="&#x17e;" horiz-adv-x="1069" 
d="M524 1274l-166 282h189l33 -69q33 -71 41 -107h63q25 48 72 107l51 69h197l-244 -282h-236zM543 168h403l-24 -168h-920l27 174l796 764l-39 53q-60 -39 -119.5 -56t-144.5 -17h-377l23 167h891l-25 -174l-796 -764l38 -53q95 74 267 74z" />
    <glyph glyph-name="uni0218" unicode="&#x218;" horiz-adv-x="1335" 
d="M84 428l203 35q12 -155 116.5 -238.5t272.5 -83.5q157 0 241 62.5t84 175.5q0 57 -19.5 98t-61.5 69.5t-94 47.5t-132 37q-85 19 -146 38.5t-126.5 53t-106.5 75t-67.5 105.5t-26.5 144q0 194 142 306.5t374 112.5q233 0 385 -118.5t172 -311.5l-202 -41
q-15 141 -115.5 219t-249.5 78q-135 0 -215 -61t-80 -162q0 -46 15 -79.5t40 -57t77.5 -45.5t105.5 -37.5t147 -38.5q63 -15 112.5 -32t105.5 -49t93 -73t61.5 -106t24.5 -145q0 -206 -146 -323.5t-402 -117.5t-412 128t-170 335zM524 -168h234l-215 -281h-152z" />
    <glyph glyph-name="uni0219" unicode="&#x219;" horiz-adv-x="1089" 
d="M35 309l164 58q17 -116 107 -180t231 -64q110 0 171.5 44.5t61.5 123.5q0 35 -12 61.5t-31 44t-56.5 32.5t-73 24t-95.5 22q-43 10 -76 18.5t-73.5 23.5t-70.5 31.5t-60.5 41t-49.5 53.5t-31 68.5t-12 85.5q0 153 116 238t302 85q190 0 320 -89t155 -236l-162 -58
q-18 105 -107.5 167.5t-213.5 62.5q-99 0 -157 -41t-58 -113q0 -33 13 -58.5t33.5 -43t62 -33.5t80 -26.5t105.5 -26.5q64 -15 108.5 -29t94.5 -39.5t80 -57t50 -81t20 -113.5q0 -162 -122.5 -251t-318.5 -89q-204 0 -337 93t-158 251zM317 -170h234l-215 -281h-152z" />
    <glyph glyph-name="uni021A" unicode="&#x21a;" horiz-adv-x="1255" 
d="M178 1434h1155l-26 -187h-478l-174 -1247h-204l174 1247h-475zM432 -451h-151l133 281h233z" />
    <glyph glyph-name="uni021B" unicode="&#x21b;" horiz-adv-x="817" 
d="M455 -25q-148 0 -208 76t-40 211l90 656h-209l25 167h209l38 279l205 37l-43 -316h309l-24 -167h-309l-88 -615q-11 -84 21 -114.5t106 -30.5q81 0 125 30l-50 -186q-62 -27 -157 -27zM317 -170h234l-215 -281h-152z" />
    <glyph glyph-name="uni0237" unicode="&#x237;" horiz-adv-x="481" 
d="M416 1085l-166 -1198q-27 -191 -138 -287t-296 -96q-68 0 -101 13l-8 172q46 -11 90 -11q119 0 176.5 54.5t75.5 171.5l164 1181h203z" />
    <glyph glyph-name="circumflex" unicode="&#x2c6;" horiz-adv-x="753" 
d="M356 1274h-196l243 282h236l166 -282h-189l-32 69q-32 65 -41 109h-64q-31 -59 -71 -109z" />
    <glyph glyph-name="caron" unicode="&#x2c7;" horiz-adv-x="843" 
d="M410 1274l-166 282h188l33 -69q33 -71 41 -107h63q25 48 72 107l51 69h197l-244 -282h-235z" />
    <glyph glyph-name="breve" unicode="&#x2d8;" horiz-adv-x="833" 
d="M242 1556h170q-6 -78 30.5 -119.5t104.5 -41.5q76 0 118.5 42.5t47.5 118.5h166q0 -133 -92 -213.5t-244 -80.5q-144 0 -225 79.5t-76 214.5z" />
    <glyph glyph-name="dotaccent" unicode="&#x2d9;" horiz-adv-x="512" 
d="M373 1272q-64 0 -103 37t-39 96q0 65 45 104t109 39t103.5 -38t39.5 -97q0 -65 -44.5 -103t-110.5 -38z" />
    <glyph glyph-name="ring" unicode="&#x2da;" horiz-adv-x="743" 
d="M233 1481q0 111 84.5 182.5t210.5 71.5q113 0 184.5 -64t71.5 -166q0 -109 -83 -181.5t-209 -72.5q-114 0 -186.5 64t-72.5 166zM377 1485q0 -53 33 -85t88 -32q64 0 103.5 36t39.5 97q0 53 -33 85t-90 32q-62 0 -101.5 -36t-39.5 -97z" />
    <glyph glyph-name="ogonek" unicode="&#x2db;" horiz-adv-x="739" 
d="M285 49l69 -20l2 -27q-103 -25 -165 -79t-62 -122q0 -54 33.5 -81t93.5 -27q101 0 184 61l31 -119q-39 -31 -107.5 -51t-140.5 -20q-108 0 -171.5 54t-63.5 146q0 101 82 179t215 106z" />
    <glyph glyph-name="tilde" unicode="&#x2dc;" horiz-adv-x="821" 
d="M324 1270h-119q4 150 58.5 225.5t142.5 75.5q37 0 71 -16t53.5 -33.5t45.5 -44.5q2 -3 4 -5l4 -4q57 -57 90 -57q61 0 74 158h120q-6 -151 -59 -227t-141 -76t-185 102q-17 19 -24.5 27.5t-25 18t-36.5 9.5q-61 0 -73 -153z" />
    <glyph glyph-name="hungarumlaut" unicode="&#x2dd;" horiz-adv-x="858" 
d="M297 1556h225l-194 -282h-150zM705 1556h225l-254 -282h-162z" />
    <glyph glyph-name="gravecomb" unicode="&#x300;" horiz-adv-x="0" 
d="M-88 1274l-135 282h231l53 -282h-149z" />
    <glyph glyph-name="acutecomb" unicode="&#x301;" horiz-adv-x="0" 
d="M-137 1556h233l-213 -282h-151z" />
    <glyph glyph-name="uni0302" unicode="&#x302;" horiz-adv-x="0" 
d="M-397 1274h-197l244 282h235l166 -282h-188l-33 69q-32 65 -41 109h-63q-29 -55 -72 -109z" />
    <glyph glyph-name="tildecomb" unicode="&#x303;" horiz-adv-x="0" 
d="M-498 1270h-118q4 150 58 225.5t142 75.5q37 0 71 -16t53.5 -33.5t45.5 -44.5q5 -6 8 -9q57 -57 91 -57q60 0 73 158h121q-6 -151 -59.5 -227t-141.5 -76q-87 0 -184 102q-17 19 -24.5 27.5t-25 18t-36.5 9.5q-62 0 -74 -153z" />
    <glyph glyph-name="uni0304" unicode="&#x304;" horiz-adv-x="0" 
d="M-659 1317l20 153h676l-21 -153h-675z" />
    <glyph glyph-name="uni0306" unicode="&#x306;" horiz-adv-x="0" 
d="M-592 1556h170q-6 -78 30.5 -119.5t104.5 -41.5q76 0 118.5 42.5t47.5 118.5h166q0 -133 -92 -213.5t-244 -80.5q-144 0 -225 79.5t-76 214.5z" />
    <glyph glyph-name="uni0307" unicode="&#x307;" horiz-adv-x="0" 
d="M-139 1272q-64 0 -103 37t-39 96q0 65 45 104t109 39t103.5 -38t39.5 -97q0 -65 -44.5 -103t-110.5 -38z" />
    <glyph glyph-name="uni0308" unicode="&#x308;" horiz-adv-x="0" 
d="M-610 1272q-64 0 -103 37t-39 96q0 65 45 104t109 39t103.5 -38t39.5 -97q0 -65 -44.5 -103t-110.5 -38zM-102 1272q-64 0 -103 37t-39 96q0 65 45 104t109 39t103.5 -38t39.5 -97q0 -65 -44.5 -103t-110.5 -38z" />
    <glyph glyph-name="uni030A" unicode="&#x30a;" horiz-adv-x="0" 
d="M-510 1481q0 111 84.5 182.5t210.5 71.5q113 0 184.5 -64t71.5 -166q0 -109 -83.5 -181.5t-209.5 -72.5q-114 0 -186 64t-72 166zM-367 1485q0 -53 33 -85t88 -32q64 0 104 36t40 97q0 53 -33 85t-90 32q-63 0 -102.5 -36t-39.5 -97z" />
    <glyph glyph-name="uni030B" unicode="&#x30b;" horiz-adv-x="0" 
d="M-561 1556h225l-194 -282h-150zM-154 1556h226l-254 -282h-162z" />
    <glyph glyph-name="uni030C" unicode="&#x30c;" horiz-adv-x="0" 
d="M-434 1274l-166 282h188l33 -69q33 -71 41 -107h64q26 52 71 107l51 69h197l-244 -282h-235z" />
    <glyph glyph-name="uni0312" unicode="&#x312;" horiz-adv-x="0" 
d="M-258 1501l164 209l96 -57l-106 -137q36 -9 56.5 -37.5t20.5 -67.5q0 -65 -47 -109.5t-116 -44.5q-55 0 -89 30.5t-34 80.5q0 58 55 133z" />
    <glyph glyph-name="uni0326" unicode="&#x326;" horiz-adv-x="0" 
d="M-655 -170h233l-215 -281h-151z" />
    <glyph glyph-name="uni0327" unicode="&#x327;" horiz-adv-x="0" 
d="M-502 -109l15 -20q27 8 73 8q81 0 129.5 -49t48.5 -125q0 -99 -82 -160t-212 -61q-72 0 -135.5 18.5t-102.5 48.5l51 103q82 -57 185 -57q78 0 119.5 31t41.5 83q0 39 -25.5 64.5t-70.5 25.5t-82 -16l-65 35l88 194l110 4v-18q-5 -53 -86 -109z" />
    <glyph glyph-name="uni0328" unicode="&#x328;" horiz-adv-x="0" 
d="M-455 49l70 -20l2 -27q-103 -25 -165 -79t-62 -122q0 -54 33.5 -81t93.5 -27q101 0 184 61l31 -119q-39 -31 -107.5 -51t-140.5 -20q-108 0 -172 54t-64 146q0 101 82 179t215 106z" />
    <glyph glyph-name="Wgrave" unicode="&#x1e80;" horiz-adv-x="1947" 
d="M1038 1581l-135 283h232l53 -283h-150zM291 0l-115 1434h203l47 -654q19 -266 -14 -538h80q45 178 170 446l339 746h181l127 -652q67 -363 65 -540h80q45 291 119 512l233 680h219l-514 -1434h-239l-139 752q-42 252 -35 458h-62q-45 -235 -157 -473l-351 -737h-237z" />
    <glyph glyph-name="wgrave" unicode="&#x1e81;" horiz-adv-x="1640" 
d="M848 1274l-135 282h231l53 -282h-149zM676 463l-209 -463h-236l-127 1085h197l45 -428q23 -237 -2 -444h80q40 158 164 430l207 442h192l92 -444q45 -231 39 -428h82q32 199 123 446l160 426h205l-422 -1085h-234l-90 467q-45 279 -35 436h-76q-4 -21 -9 -42.5t-13 -47.5
t-13 -43t-17.5 -49.5t-17 -46t-20.5 -52.5t-19.5 -48.5t-23 -56t-22.5 -54.5z" />
    <glyph glyph-name="Wacute" unicode="&#x1e82;" horiz-adv-x="1947" 
d="M1167 1864h234l-213 -283h-152zM291 0l-115 1434h203l47 -654q19 -266 -14 -538h80q45 178 170 446l339 746h181l127 -652q67 -363 65 -540h80q45 291 119 512l233 680h219l-514 -1434h-239l-139 752q-42 252 -35 458h-62q-45 -235 -157 -473l-351 -737h-237z" />
    <glyph glyph-name="wacute" unicode="&#x1e83;" horiz-adv-x="1640" 
d="M977 1556h233l-213 -282h-151zM467 0h-236l-127 1085h197l45 -428q23 -237 -2 -444h80q40 158 164 430l207 442h192l92 -444q45 -231 39 -428h82q32 199 123 446l160 426h205l-422 -1085h-234l-90 467q-45 279 -35 436h-76q-4 -21 -9 -42.5t-13 -47.5t-13 -43
t-17.5 -49.5t-17 -46t-20.5 -52.5t-19.5 -48.5t-23 -56t-22.5 -54.5z" />
    <glyph glyph-name="Wdieresis" unicode="&#x1e84;" horiz-adv-x="1947" 
d="M858 1579q-64 0 -102.5 37t-38.5 96q0 65 44.5 104t108.5 39t104 -38t40 -97q0 -65 -45 -103t-111 -38zM1366 1579q-64 0 -102.5 37t-38.5 96q0 65 44.5 104t108.5 39t104 -38t40 -97q0 -65 -45 -103t-111 -38zM291 0l-115 1434h203l47 -654q19 -266 -14 -538h80
q45 178 170 446l339 746h181l127 -652q67 -363 65 -540h80q45 291 119 512l233 680h219l-514 -1434h-239l-139 752q-42 252 -35 458h-62q-45 -235 -157 -473l-351 -737h-237z" />
    <glyph glyph-name="wdieresis" unicode="&#x1e85;" horiz-adv-x="1640" 
d="M668 1272q-64 0 -103 37t-39 96q0 65 45 104t109 39t103.5 -38t39.5 -97q0 -65 -44.5 -103t-110.5 -38zM1176 1272q-64 0 -103 37t-39 96q0 65 45 104t109 39t103.5 -38t39.5 -97q0 -65 -44.5 -103t-110.5 -38zM676 463l-209 -463h-236l-127 1085h197l45 -428
q23 -237 -2 -444h80q40 158 164 430l207 442h192l92 -444q45 -231 39 -428h82q32 199 123 446l160 426h205l-422 -1085h-234l-90 467q-45 279 -35 436h-76q-4 -21 -9 -42.5t-13 -47.5t-13 -43t-17.5 -49.5t-17 -46t-20.5 -52.5t-19.5 -48.5t-23 -56t-22.5 -54.5z" />
    <glyph glyph-name="uni1E9E" unicode="&#x1e9e;" horiz-adv-x="1484" 
d="M795 -35q-83 0 -155 13t-108 36l27 185q85 -49 221 -49q167 0 274 80t107 216q0 118 -76.5 184t-205.5 66q-63 0 -111 -10l20 154l400 372l4 35h-711l-174 -1247h-211l201 1434h1128l-32 -250l-363 -338l-6 -47q160 -17 253 -117.5t93 -253.5q0 -210 -160 -336.5
t-415 -126.5z" />
    <glyph glyph-name="Ygrave" unicode="&#x1ef2;" horiz-adv-x="1386" 
d="M760 1581l-135 283h231l53 -283h-149zM596 561l-432 873h231l158 -338q112 -270 119 -369h84q30 98 223 373l254 334h242l-674 -873l-78 -561h-207z" />
    <glyph glyph-name="ygrave" unicode="&#x1ef3;" horiz-adv-x="1202" 
d="M627 1274l-135 282h231l53 -282h-149zM106 -496q-87 0 -141 31l29 182q47 -24 119 -24q153 0 243 172l66 125l-318 1095h213l127 -481q66 -247 74 -407h70q62 176 168 383l266 505h227l-710 -1269q-83 -150 -186.5 -231t-246.5 -81z" />
    <glyph glyph-name="endash" unicode="&#x2013;" horiz-adv-x="1130" 
d="M96 578l25 176h948l-25 -176h-948z" />
    <glyph glyph-name="emdash" unicode="&#x2014;" horiz-adv-x="1722" 
d="M100 578l25 176h1532l-25 -176h-1532z" />
    <glyph glyph-name="quoteleft" unicode="&#x2018;" horiz-adv-x="532" 
d="M283 1257l180 220l92 -72l-145 -178q41 -12 65.5 -46.5t24.5 -80.5q0 -64 -45.5 -103t-108.5 -39t-103 38.5t-40 97.5q0 43 18 77t62 86z" />
    <glyph glyph-name="quoteright" unicode="&#x2019;" horiz-adv-x="530" 
d="M442 1165l-180 -219l-94 72l145 178q-41 12 -65.5 46.5t-24.5 80.5q0 64 46 102.5t110 38.5q61 0 101 -38t40 -97q0 -43 -17.5 -77t-60.5 -87z" />
    <glyph glyph-name="quotesinglbase" unicode="&#x201a;" horiz-adv-x="540" 
d="M266 -47l-180 -219l-92 71l145 179q-41 12 -65.5 46.5t-24.5 80.5q0 64 45 102.5t109 38.5q63 0 103 -38t40 -97q0 -42 -18 -76t-62 -88z" />
    <glyph glyph-name="quotedblleft" unicode="&#x201c;" horiz-adv-x="960" 
d="M287 1257l180 220l94 -72l-145 -178q41 -12 65.5 -46.5t24.5 -80.5q0 -64 -46 -103t-110 -39q-61 0 -101 38.5t-40 97.5q0 43 17.5 76.5t60.5 86.5zM715 1257l180 220l92 -72l-143 -178q41 -12 65.5 -46.5t24.5 -80.5q0 -64 -46 -103t-110 -39q-62 0 -101.5 38.5
t-39.5 97.5q0 43 17.5 76.5t60.5 86.5z" />
    <glyph glyph-name="quotedblright" unicode="&#x201d;" horiz-adv-x="958" 
d="M442 1165l-180 -219l-94 72l145 178q-41 12 -65.5 46.5t-24.5 80.5q0 64 46 102.5t110 38.5q61 0 101 -38t40 -97q0 -43 -17.5 -77t-60.5 -87zM868 1165l-180 -219l-92 72l145 178q-41 12 -65.5 46.5t-24.5 80.5q0 64 45 102.5t109 38.5q63 0 103 -38t40 -97
q0 -42 -18 -76t-62 -88z" />
    <glyph glyph-name="quotedblbase" unicode="&#x201e;" horiz-adv-x="974" 
d="M266 -47l-180 -219l-92 71l145 179q-41 12 -65.5 46.5t-24.5 80.5q0 64 45 102.5t109 38.5q63 0 103 -38t40 -97q0 -42 -18 -76t-62 -88zM694 -47l-180 -219l-94 71l145 179q-41 12 -65.5 46.5t-24.5 80.5q0 64 46 102.5t110 38.5q61 0 101 -38t40 -97q0 -43 -17.5 -77
t-60.5 -87z" />
    <glyph glyph-name="dagger" unicode="&#x2020;" horiz-adv-x="897" 
d="M621 1167h251l-20 -153h-254l-102 -729h-162l102 729h-254l23 153h254l37 267h161z" />
    <glyph glyph-name="daggerdbl" unicode="&#x2021;" horiz-adv-x="899" 
d="M872 1167l-20 -153h-252l-43 -312h252l-23 -153h-251l-37 -264h-164l37 264h-252l22 153h252l43 312h-254l23 153h254l37 267h163l-36 -267h249z" />
    <glyph glyph-name="bullet" unicode="&#x2022;" horiz-adv-x="931" 
d="M451 248q-131 0 -211 76.5t-80 197.5q0 132 92 213.5t223 81.5q130 0 210.5 -77t80.5 -199q0 -134 -91.5 -213.5t-223.5 -79.5z" />
    <glyph glyph-name="ellipsis" unicode="&#x2026;" horiz-adv-x="1517" 
d="M221 -25q-65 0 -104 38t-39 98q0 64 45 102.5t110 38.5q63 0 102.5 -37t39.5 -96q0 -66 -44.5 -105t-109.5 -39zM692 -25q-65 0 -104 38t-39 98q0 64 45.5 102.5t110.5 38.5q63 0 102 -37t39 -96q0 -66 -44.5 -105t-109.5 -39zM1163 -25q-65 0 -104 38t-39 98
q0 64 45.5 102.5t110.5 38.5q63 0 102 -37t39 -96q0 -66 -44.5 -105t-109.5 -39z" />
    <glyph glyph-name="perthousand" unicode="&#x2030;" horiz-adv-x="2463" 
d="M1040 -20q-163 0 -262.5 97t-99.5 257q0 94 51 194l-53 11q-106 -217 -219 -340l-183 -199h-178l4 18l371 408q131 143 309 254l-28 49q-74 -67 -197 -67q-148 0 -237 103t-89 273q0 194 112.5 312t297.5 118q163 0 261.5 -97t98.5 -257q0 -87 -49 -192l49 -11
q121 230 224 340l182 199h176l-2 -18l-371 -408q-133 -145 -311 -256l31 -47q70 67 194 67q148 0 237 -103t89 -273q0 -194 -112.5 -313t-295.5 -119zM596 797q109 0 173.5 80.5t64.5 212.5q0 117 -52 179t-145 62q-107 0 -171.5 -82t-64.5 -213q0 -117 51.5 -178t143.5 -61
zM1898 -20q-163 0 -262.5 104t-99.5 274q0 195 116 314t304 119q161 0 259.5 -103.5t98.5 -273.5q0 -196 -114 -315t-302 -119zM1040 119q109 0 173.5 82t64.5 213q0 116 -52.5 177.5t-144.5 61.5q-109 0 -173 -81t-64 -212q0 -118 52 -179.5t144 -61.5zM1907 119
q107 0 172 84t65 211q0 114 -53 176.5t-145 62.5q-108 0 -173 -83t-65 -210q0 -115 53.5 -178t145.5 -63z" />
    <glyph glyph-name="guilsinglleft" unicode="&#x2039;" horiz-adv-x="634" 
d="M287 580l192 -482h-192l-199 492l322 471h204z" />
    <glyph glyph-name="guilsinglright" unicode="&#x203a;" horiz-adv-x="638" 
d="M240 98h-205l327 482l-192 481h192l199 -492z" />
    <glyph glyph-name="fraction" unicode="&#x2044;" horiz-adv-x="311" 
d="M-545 0l1278 1434h172l-1278 -1434h-172z" />
    <glyph glyph-name="uni2070" unicode="&#x2070;" horiz-adv-x="1005" 
d="M553 590q-170 0 -271.5 117.5t-101.5 324.5q0 241 118.5 389t309.5 148q168 0 269.5 -118.5t101.5 -326.5q0 -238 -118 -386t-308 -148zM555 729q123 0 195.5 108t72.5 287q0 143 -58 224.5t-159 81.5q-123 0 -196.5 -107.5t-73.5 -286.5q0 -145 58 -226t161 -81z" />
    <glyph glyph-name="uni2074" unicode="&#x2074;" horiz-adv-x="1011" 
d="M778 614h-151l28 203h-544l18 123l608 606h172l-82 -600h152l-18 -129h-154zM748 1415l-467 -475l30 -37q59 43 183 43h180l33 238q18 123 75 190z" />
    <glyph glyph-name="uni2075" unicode="&#x2075;" horiz-adv-x="970" 
d="M139 879l144 32q15 -86 82 -137t167 -51q104 0 169 57t65 154q0 84 -55 136t-146 52q-69 0 -134.5 -28t-115.5 -78l-118 39l137 491h594l-21 -131h-465l-30 -102q-15 -64 -90 -162l36 -35q42 55 116 87t151 32q132 0 213.5 -82.5t81.5 -216.5q0 -155 -107.5 -249.5
t-284.5 -94.5q-159 0 -265.5 79.5t-123.5 207.5z" />
    <glyph glyph-name="uni2076" unicode="&#x2076;" horiz-adv-x="1021" 
d="M578 592q-186 0 -291 117t-105 313q0 240 138 393.5t350 153.5q135 0 228.5 -63t119.5 -171l-158 -37q-18 64 -70.5 101t-134.5 37q-135 0 -222.5 -101t-94.5 -270l41 -6q43 76 127.5 121t177.5 45q126 0 204.5 -79t78.5 -212q0 -154 -108.5 -248t-280.5 -94zM586 723
q102 0 164.5 57t62.5 152q0 85 -53.5 132.5t-141.5 47.5q-81 0 -157.5 -42.5t-122.5 -111.5q7 -108 75 -171.5t173 -63.5z" />
    <glyph glyph-name="uni2077" unicode="&#x2077;" horiz-adv-x="864" 
d="M477 1413h-276l20 133h717l-18 -119l-531 -813h-174v11l385 571q58 88 96 133.5t103 95.5l-35 56q-105 -68 -287 -68z" />
    <glyph glyph-name="uni2078" unicode="&#x2078;" horiz-adv-x="1024" 
d="M147 844q0 98 67.5 163.5t178.5 79.5l6 43q-74 20 -112.5 66.5t-38.5 112.5q0 121 111 190.5t282 69.5q168 0 261 -64.5t93 -173.5q0 -88 -57.5 -142.5t-151.5 -66.5l-6 -43q87 -15 136 -69.5t49 -137.5q0 -136 -115 -208t-307 -72q-187 0 -291.5 68.5t-104.5 183.5z
M395 1292q0 -66 56 -102.5t159 -36.5q112 0 171 41.5t59 110.5q0 67 -57 102t-156 35q-109 0 -170.5 -40t-61.5 -110zM305 879q0 -78 65.5 -118t182.5 -40q125 0 193.5 46t68.5 126q0 79 -65 119.5t-179 40.5q-122 0 -194 -45t-72 -129z" />
    <glyph glyph-name="uni2079" unicode="&#x2079;" horiz-adv-x="1017" 
d="M592 1569q187 0 292 -118.5t105 -320.5q0 -244 -136.5 -391t-350.5 -147q-134 0 -229 63.5t-121 169.5l157 39q17 -65 72 -103t133 -38q139 0 225 98t92 275l-40 6q-41 -79 -125 -122.5t-179 -43.5q-128 0 -206 78t-78 213q0 155 108.5 248.5t280.5 93.5zM584 1440
q-102 0 -165 -58t-63 -153q0 -85 53 -132.5t144 -47.5q83 0 159 39.5t119 113.5q-6 105 -74.5 171.5t-172.5 66.5z" />
    <glyph glyph-name="uni2080" unicode="&#x2080;" horiz-adv-x="1005" 
d="M451 -133q-168 0 -269.5 118t-101.5 324q0 241 117.5 389t308.5 148q169 0 270 -118.5t101 -326.5q0 -238 -118 -386t-308 -148zM453 6q123 0 196.5 107.5t73.5 287.5q0 142 -59 224t-160 82q-123 0 -197 -107.5t-74 -286.5q0 -145 59 -226t161 -81z" />
    <glyph glyph-name="uni2081" unicode="&#x2081;" horiz-adv-x="811" 
d="M422 -113h-150l64 486q10 65 17.5 97.5t29 78t57.5 84.5l-39 41q-103 -117 -276 -142l20 136q193 39 297 151h113z" />
    <glyph glyph-name="uni2082" unicode="&#x2082;" horiz-adv-x="905" 
d="M707 -113h-693l17 123l395 264q122 84 168.5 146.5t46.5 134.5q0 73 -47.5 115.5t-126.5 42.5q-95 0 -158 -57t-69 -160l-146 14q17 154 120.5 243t260.5 89q142 0 230 -75t88 -202q0 -117 -70.5 -206.5t-218.5 -180.5q-139 -95 -291 -172l25 -55q143 67 294 67h193z" />
    <glyph glyph-name="uni2083" unicode="&#x2083;" horiz-adv-x="954" 
d="M420 -133q-170 0 -270.5 84.5t-100.5 238.5l141 25q-1 -102 62 -160.5t174 -58.5q101 0 161 49t60 131q0 65 -44.5 99t-123.5 34h-125l17 115h112q94 0 146.5 39.5t52.5 109.5q0 68 -48.5 106t-135.5 38q-98 0 -160 -48t-80 -126l-133 39q27 123 130.5 192.5t254.5 69.5
t239.5 -68.5t88.5 -179.5q0 -80 -49 -136t-136 -75l-6 -49q69 -14 109.5 -64t40.5 -125q0 -129 -105.5 -204.5t-271.5 -75.5z" />
    <glyph glyph-name="uni2084" unicode="&#x2084;" horiz-adv-x="1011" 
d="M676 -113h-152l29 203h-545l19 123l608 606h172l-82 -600h152l-19 -129h-153zM645 688l-467 -475l31 -37q59 43 182 43h180l33 238q17 122 76 190z" />
    <glyph glyph-name="uni2085" unicode="&#x2085;" horiz-adv-x="968" 
d="M37 156l143 30q15 -85 83 -136.5t167 -51.5q104 0 169 57t65 154q0 84 -55 136t-146 52q-69 0 -135 -27.5t-115 -78.5l-119 39l137 491h594l-20 -131h-465l-31 -100q-15 -62 -90 -164l37 -33q41 55 114.5 86t151.5 31q132 0 213.5 -82.5t81.5 -216.5q0 -154 -107.5 -249
t-283.5 -95q-160 0 -266 80t-123 209z" />
    <glyph glyph-name="uni2086" unicode="&#x2086;" horiz-adv-x="1021" 
d="M475 -133q-186 0 -290.5 117t-104.5 313q0 241 138.5 394t350.5 153q135 0 228 -63.5t118 -170.5l-157 -37q-15 64 -69 102t-134 38q-136 0 -223 -101.5t-94 -271.5l38 -6q43 76 128 121t178 45q126 0 204 -79t78 -212q0 -154 -108.5 -248t-280.5 -94zM485 -2
q101 0 163.5 57t62.5 152q0 85 -53 133.5t-142 48.5q-82 0 -158 -42.5t-122 -113.5q7 -108 75 -171.5t174 -63.5z" />
    <glyph glyph-name="uni2087" unicode="&#x2087;" horiz-adv-x="864" 
d="M375 686h-277l21 133h717l-19 -119l-530 -813h-174v11l385 571q58 89 95.5 134t102.5 95l-34 56q-105 -68 -287 -68z" />
    <glyph glyph-name="uni2088" unicode="&#x2088;" horiz-adv-x="1024" 
d="M47 121q0 97 66.5 163t179.5 81l6 41q-76 20 -115 66.5t-39 113.5q0 120 111.5 189t284.5 69q166 0 259 -64t93 -172q0 -89 -57 -143.5t-150 -67.5l-6 -43q85 -15 134.5 -69.5t49.5 -137.5q0 -135 -115.5 -207.5t-306.5 -72.5q-188 0 -291.5 69t-103.5 185zM293 567
q0 -65 57.5 -102t159.5 -37q112 0 169.5 41.5t57.5 110.5q0 68 -56.5 103.5t-156.5 35.5q-109 0 -170 -41t-61 -111zM205 154q0 -77 65.5 -117.5t180.5 -40.5q126 0 194 46t68 128q0 78 -64.5 119t-177.5 41q-123 0 -194.5 -45.5t-71.5 -130.5z" />
    <glyph glyph-name="uni2089" unicode="&#x2089;" horiz-adv-x="1017" 
d="M489 844q187 0 292.5 -118t105.5 -320q0 -243 -137 -391t-351 -148q-135 0 -229.5 63.5t-120.5 171.5l158 37q17 -65 72 -103t133 -38q139 0 225 98t92 275l-41 6q-41 -77 -125 -120.5t-178 -43.5q-128 0 -206.5 78t-78.5 211q0 155 108.5 248.5t280.5 93.5zM481 715
q-102 0 -164.5 -58t-62.5 -153q0 -85 53 -132.5t144 -47.5q83 0 159 39.5t119 113.5q-6 105 -75 171.5t-173 66.5z" />
    <glyph glyph-name="uni20A9" unicode="&#x20a9;" horiz-adv-x="2043" 
d="M1839 1434h225l-223 -643h191l-21 -142h-221l-225 -649h-226l-141 649h-336l-297 -649h-227l-62 649h-210l20 142h178l-61 643h209l57 -643h279l290 643h172l138 -643h278zM936 811l-10 -20h241l-4 22q-46 209 -33 391h-59q-21 -102 -50.5 -186t-84.5 -207zM467 248h65
q54 184 152 401h-205q15 -222 -12 -401zM1430 248h61q34 217 90 401h-203q42 -229 52 -401z" />
    <glyph glyph-name="uni20AA" unicode="&#x20aa;" horiz-adv-x="1607" 
d="M289 0h-193l201 1434h596q145 0 209 -74.5t45 -202.5l-115 -809h-162l107 760q12 84 -24 121t-115 37h-371zM1368 1434h195l-201 -1434h-598q-146 0 -208 74t-44 202l113 809h163l-106 -759q-12 -84 24 -121t113 -37h373z" />
    <glyph glyph-name="Euro" unicode="&#x20ac;" horiz-adv-x="1716" 
d="M913 -35q-270 0 -456.5 144.5t-223.5 382.5h-186l19 131h141q2 43 2 94q0 26 8 74h-127l19 133h137q50 171 162.5 294.5t267.5 186t336 61.5q266 0 443 -138.5t210 -366.5l-203 -54q-21 173 -150 272t-323 101q-138 0 -252.5 -56t-193.5 -159q-30 -36 -101 -150l21 -32
q86 43 309 43h266l-18 -135h-588q-10 -30 -10 -74q-1 -16 -1 -43.5t-1 -50.5l575 2l-18 -136h-244q-182 0 -270 43l-19 -38q37 -76 78 -136q47 -94 158 -150t248 -56q188 1 323 103.5t191 283.5l196 -50q-63 -246 -256 -384t-469 -140z" />
    <glyph glyph-name="uni20B9" unicode="&#x20b9;" horiz-adv-x="1191" 
d="M352 555h-178l23 166h393q143 0 232 53.5t116 149.5h-711l19 141h704q-9 99 -79 151t-187 52h-410l25 166h1075l-16 -140h-103q-100 0 -198 66l-41 -51q72 -40 105.5 -98.5t41.5 -145.5h160l-18 -141h-164q-37 -128 -157 -204.5t-308 -88.5l-8 -58q84 -25 136 -80.5
t87 -158.5l59 -174q38 -109 88 -135l-4 -25h-235q-30 43 -49 104l-74 226q-74 225 -324 225z" />
    <glyph glyph-name="uni20BD" unicode="&#x20bd;" horiz-adv-x="1423" 
d="M313 1434h607q228 0 349.5 -115t121.5 -313q0 -222 -147 -343.5t-402 -121.5h-443l-22 -164h328l-21 -150h-330l-30 -227h-211l32 227h-172l23 150h170l22 164h-170l25 166h168zM422 707h414q173 0 257.5 76t84.5 212q0 125 -71.5 189.5t-209.5 64.5h-399z" />
    <glyph glyph-name="uni20BF" unicode="&#x20bf;" horiz-adv-x="1433" 
d="M1038 793l-10 -62q123 -19 191.5 -96.5t68.5 -194.5q0 -196 -131 -312t-369 -126l-34 -252h-140l35 250h-194l-35 -250h-139l34 250h-219l201 1434h219l35 241h139l-35 -241h195l35 241h139l-35 -243q166 -9 255 -86t89 -211t-79 -225t-216 -117zM883 1253h-406l-57 -419
h395q144 0 222.5 64.5t78.5 180.5q0 86 -60 130t-173 44zM328 180h403q170 0 260 75.5t90 211.5q0 199 -264 199h-422z" />
    <glyph glyph-name="uni2116" unicode="&#x2116;" horiz-adv-x="2553" 
d="M2025 604q-195 0 -316.5 117t-121.5 303q0 130 63 232.5t171.5 158t240.5 55.5q194 0 316.5 -115.5t122.5 -299.5q0 -199 -136.5 -325t-339.5 -126zM96 0l201 1434h225l549 -1139h4l158 1139h205l-201 -1434h-227l-549 1130h-4l-158 -1130h-203zM2030 768
q127 0 209.5 78.5t82.5 204.5q0 117 -72.5 186.5t-191.5 69.5q-131 0 -212 -77.5t-81 -203.5q0 -117 72 -187.5t193 -70.5zM1956 -25q-66 0 -107 39t-41 99q0 68 46.5 107.5t113.5 39.5q64 0 105 -38.5t41 -98.5q0 -68 -45.5 -108t-112.5 -40z" />
    <glyph glyph-name="uni2117" unicode="&#x2117;" horiz-adv-x="1845" 
d="M920 -31q-223 0 -399.5 94t-277 266.5t-100.5 393.5q0 174 64 325t175 256.5t265.5 165.5t329.5 60q167 0 311.5 -54.5t248 -151.5t163 -238t59.5 -308q0 -175 -65 -326.5t-177.5 -257t-267 -165.5t-329.5 -60zM924 98q199 0 357 84.5t247.5 239t89.5 350.5
q0 141 -47.5 259.5t-132.5 199t-204.5 125.5t-260.5 45q-201 0 -357.5 -84.5t-243.5 -238t-87 -349.5q0 -283 177 -457t462 -174zM770 356h-166l111 793h368q134 0 204.5 -61.5t70.5 -172.5q0 -122 -85 -193t-226 -71h-236zM864 1020l-37 -250h195q80 0 122 37t42 102
q0 111 -129 111h-193z" />
    <glyph glyph-name="trademark" unicode="&#x2122;" horiz-adv-x="1642" 
d="M344 819l68 490h-215l16 125h575l-18 -125h-217l-68 -490h-141zM940 819h-135l86 615h211l82 -295q21 -79 14 -166h45q10 53 22.5 86t37.5 80l165 295h211l-86 -615h-137l33 238q9 60 24 102.5t56 132.5l-56 17l-268 -490h-92l-129 490l-59 -17q14 -89 15.5 -129
t-5.5 -106z" />
    <glyph glyph-name="oneeighth" unicode="&#x215b;" horiz-adv-x="1652" 
d="M-18 0l1278 1434h172l-1278 -1434h-172zM379 645h-141l53 381q8 60 13.5 88.5t25.5 69.5t55 76l-37 38q-92 -105 -235 -116l20 123q170 33 252 129h104zM848 195q0 82 56 137t149 67l6 39q-61 15 -95 53.5t-34 96.5q0 101 95.5 160t242.5 59q144 0 222.5 -54.5
t78.5 -146.5q0 -74 -47 -120.5t-125 -55.5l-4 -41q69 -12 110 -57t41 -115q0 -114 -97.5 -174.5t-260.5 -60.5q-160 0 -249 58t-89 155zM1069 571q0 -54 45.5 -83t128.5 -29q89 0 135.5 33.5t46.5 89.5q0 54 -46 82t-126 28q-86 0 -135 -32.5t-49 -88.5zM995 227
q0 -63 52.5 -96t146.5 -33q100 0 155.5 38.5t55.5 103.5q0 63 -52 96t-145 33q-98 0 -155.5 -37t-57.5 -105z" />
    <glyph glyph-name="threeeighths" unicode="&#x215c;" horiz-adv-x="1865" 
d="M403 627q-148 0 -232 72t-85 204l129 23q1 -87 52.5 -134t140.5 -47q82 0 130 39.5t48 104.5q0 53 -36.5 80.5t-103.5 27.5h-100l14 105h103q71 0 111 32t40 89q0 54 -39 83t-108 29q-81 0 -131 -39t-64 -102l-122 35q24 107 112 166t215 59q130 0 205.5 -58.5
t75.5 -152.5q0 -68 -41 -115.5t-115 -62.5l-6 -43q60 -12 93.5 -54.5t33.5 -105.5q0 -107 -89 -171t-231 -64zM193 0l1277 1434h172l-1277 -1434h-172zM1061 195q0 82 56 137t149 67l6 39q-61 15 -95 53.5t-34 96.5q0 101 95.5 160t242.5 59q144 0 222.5 -54.5t78.5 -146.5
q0 -74 -47 -120.5t-125 -55.5l-4 -41q69 -12 110 -57t41 -115q0 -114 -97.5 -174.5t-260.5 -60.5q-160 0 -249 58t-89 155zM1282 571q0 -54 45.5 -83t128.5 -29q89 0 135.5 33.5t46.5 89.5q0 54 -46 82t-126 28q-86 0 -135 -32.5t-49 -88.5zM1208 227q0 -63 52.5 -96
t146.5 -33q100 0 155.5 38.5t55.5 103.5q0 63 -52 96t-145 33q-98 0 -155.5 -37t-57.5 -105z" />
    <glyph glyph-name="fiveeighths" unicode="&#x215d;" horiz-adv-x="1888" 
d="M92 870l131 31q14 -70 68.5 -113t138.5 -43t135 46t51 124q0 68 -44.5 110t-120.5 42q-118 0 -199 -84l-111 35l115 416h506l-17 -119h-389l-22 -72q-2 -12 -5.5 -23t-9.5 -23.5t-10 -20t-13.5 -20.5t-12 -17t-13.5 -18t-12 -15l31 -31q36 45 95.5 72t123.5 27
q113 0 181.5 -70.5t68.5 -185.5q0 -131 -91 -211t-241 -80q-137 0 -228 67.5t-106 175.5zM217 0l1278 1434h172l-1278 -1434h-172zM1085 195q0 82 56 137t149 67l6 39q-61 15 -95 53.5t-34 96.5q0 101 95.5 160t242.5 59q144 0 222.5 -54.5t78.5 -146.5q0 -74 -47 -120.5
t-125 -55.5l-4 -41q69 -12 110.5 -57t41.5 -115q0 -114 -98 -174.5t-261 -60.5q-160 0 -249 58t-89 155zM1307 571q0 -54 45.5 -83t128.5 -29q89 0 135.5 33.5t46.5 89.5q0 54 -46 82t-126 28q-86 0 -135 -32.5t-49 -88.5zM1233 227q0 -63 52.5 -96t146.5 -33
q100 0 155 38.5t55 103.5q0 63 -51.5 96t-144.5 33q-98 0 -155.5 -37t-57.5 -105z" />
    <glyph glyph-name="seveneighths" unicode="&#x215e;" horiz-adv-x="1705" 
d="M35 0l1278 1434h172l-1278 -1434h-172zM371 1313h-224l19 121h606l-16 -109l-439 -680h-163l2 8l305 459q52 81 88.5 125t95.5 86l-33 51q-92 -61 -241 -61zM901 195q0 82 56 137t149 67l6 39q-61 15 -95 53.5t-34 96.5q0 101 95.5 160t242.5 59q144 0 222.5 -54.5
t78.5 -146.5q0 -74 -47 -120.5t-125 -55.5l-4 -41q69 -12 110 -57t41 -115q0 -114 -97.5 -174.5t-260.5 -60.5q-160 0 -249 58t-89 155zM1122 571q0 -54 45.5 -83t128.5 -29q89 0 136 33.5t47 89.5q0 54 -46 82t-126 28q-86 0 -135.5 -32.5t-49.5 -88.5zM1049 227
q0 -63 52 -96t146 -33q100 0 155.5 38.5t55.5 103.5q0 63 -51.5 96t-144.5 33q-98 0 -155.5 -37t-57.5 -105z" />
    <glyph glyph-name="arrowleft" unicode="&#x2190;" horiz-adv-x="1740" 
d="M1622 780l-25 -172h-933q-105 0 -230 47l-31 -59q65 -36 103.5 -64t77.5 -73l196 -230l-127 -110l-501 586l653 573l104 -121l-250 -217q-13 -11 -25.5 -21.5t-23 -18.5t-23.5 -17t-21 -15t-22.5 -14.5t-21 -12.5t-23 -12.5t-22 -11.5t-24.5 -13t-25 -13l16 -58
q118 45 244 47h934z" />
    <glyph glyph-name="arrowup" unicode="&#x2191;" horiz-adv-x="1417" 
d="M281 762l-103 121l656 575l499 -581l-127 -109l-205 242q-21 23 -39 54t-28.5 55.5t-28.5 72.5l-63 -23q30 -113 16 -235l-131 -934h-172l129 934q16 111 80 235l-55 25q-87 -130 -150 -184z" />
    <glyph glyph-name="arrowright" unicode="&#x2192;" horiz-adv-x="1716" 
d="M983 1163l125 113l502 -582l-658 -577l-102 121l252 221q59 52 106.5 81t122.5 66l-14 60q-131 -48 -246 -48l-932 -4l23 172l936 5q102 0 229 -48l31 60q-67 38 -103.5 65t-74.5 72z" />
    <glyph glyph-name="arrowdown" unicode="&#x2193;" horiz-adv-x="1392" 
d="M623 0l-498 582l125 110l207 -241q29 -35 48.5 -75t45.5 -110l63 23q-31 118 -14 235l131 934h172l-131 -934q-13 -104 -80 -235l56 -25q87 129 149 187l279 245l104 -121z" />
    <glyph glyph-name="arrowboth" unicode="&#x2194;" horiz-adv-x="2029" 
d="M643 119l-502 586l654 573l106 -121l-252 -217q-16 -14 -32 -26.5t-28 -22t-29 -20.5t-26 -17t-28 -16.5t-26 -14.5t-30 -16t-30 -16l14 -58q121 45 244 47h741q105 0 230 -47l30 60q-65 35 -103.5 63t-76.5 74l-196 229l127 111l501 -586l-653 -573l-107 120l252 218
q13 11 25.5 21.5t22.5 18.5t24 17.5t21.5 14.5t23 14t20.5 12.5t23 12.5l22 11t24 12.5t24 12.5l-15 59q-121 -45 -245 -47h-740q-104 0 -229 47l-31 -59q65 -35 103.5 -63t76.5 -74l197 -230z" />
    <glyph glyph-name="arrowupdn" unicode="&#x2195;" horiz-adv-x="1433" 
d="M190 979l658 575l498 -581l-125 -111l-207 242q-29 35 -48 73.5t-48 110.5l-62 -22q31 -118 14 -238l-82 -596q-16 -115 -79 -237l55 -25q48 72 79 111t70 73l279 248l102 -121l-655 -575l-500 581l125 111l207 -242q21 -24 39.5 -57t26.5 -52t30 -75l64 23
q-31 110 -17 237l84 596q13 107 80 238l-55 24q-90 -135 -150 -186l-278 -246z" />
    <glyph glyph-name="uni2196" unicode="&#x2196;" horiz-adv-x="1372" 
d="M260 1245h817l-22 -162h-310q-71 0 -120 9.5t-125 33.5l-33 -57q119 -58 182 -135l565 -662l-137 -120l-565 661q-73 88 -106 201l-62 -27q6 -43 8.5 -61t5.5 -52t1.5 -65t-5.5 -68l-45 -313h-164z" />
    <glyph glyph-name="uni2197" unicode="&#x2197;" horiz-adv-x="1374" 
d="M467 1083l25 162h819l-115 -817h-166l43 299q19 145 80 260l-53 27q-68 -118 -164 -203l-748 -661l-106 124l749 662q81 71 222 133l-17 57q-124 -43 -262 -43h-307z" />
    <glyph glyph-name="uni2198" unicode="&#x2198;" horiz-adv-x="1372" 
d="M1157 152h-819l22 161l310 -2q71 0 120 -9.5t125 -33.5l33 60q-119 58 -182 133l-565 663l137 121l565 -663q71 -84 109 -199l59 25q-12 82 -14 116.5t6 128.5l45 316h162z" />
    <glyph glyph-name="uni2199" unicode="&#x2199;" horiz-adv-x="1384" 
d="M948 311l-22 -161h-820l115 817h164l-43 -299q-15 -135 -78 -260l53 -27q70 122 162 203l750 661l106 -125l-751 -661q-15 -13 -31 -25.5t-29 -21.5t-30.5 -19.5l-27.5 -16.5t-28.5 -15.5t-25 -12.5t-25.5 -11.5t-22 -10.5l16 -58q124 43 260 43h307z" />
    <glyph glyph-name="partialdiff" unicode="&#x2202;" horiz-adv-x="1398" 
d="M80 442q0 218 146 356t378 138q160 0 287 -73.5t182 -200.5l68 30q1 183 -99 331.5t-266.5 237t-374.5 113.5l95 156q177 -18 329.5 -88.5t262 -179.5t171.5 -258t62 -318q0 -209 -87 -373t-247 -256t-366 -92q-249 0 -395 130t-146 347zM287 455q0 -145 96 -231.5
t258 -86.5q166 0 286.5 88.5t162.5 237.5q-44 154 -160 239.5t-273 85.5q-168 0 -269 -92.5t-101 -240.5z" />
    <glyph glyph-name="emptyset" unicode="&#x2205;" 
d="M121 543q-1 162 77.5 294.5t216 207.5t306.5 75t307 -75.5t216.5 -207.5t78.5 -294q1 -247 -171.5 -412.5t-430.5 -165.5q-124 -1 -235 42.5t-192 119.5t-127.5 184.5t-45.5 231.5zM315 543q0 -134 68 -230l416 416q109 109 213 109v61q-98 68 -262 68q-88 0 -166 -28
t-138 -80t-95.5 -134t-35.5 -182zM430 248v-62q98 -67 264 -67q117 0 213.5 47.5t157.5 145.5t61 231q0 134 -67 229l-418 -418q-109 -106 -211 -106z" />
    <glyph glyph-name="product" unicode="&#x220f;" horiz-adv-x="1384" 
d="M186 1434h1268l-24 -179h-228l-211 -1511h-203l213 1511h-413l-213 -1511h-201l211 1511h-223z" />
    <glyph glyph-name="summation" unicode="&#x2211;" horiz-adv-x="1095" 
d="M913 -268h-940l29 196l500 656l-316 655l27 195h938l-25 -179h-411q-113 0 -176.5 24.5t-106.5 72.5l-65 -54l360 -714l-561 -717l49 -51q57 48 122.5 71t174.5 23h426z" />
    <glyph glyph-name="minus" unicode="&#x2212;" horiz-adv-x="1167" 
d="M166 768h899l-23 -158h-899z" />
    <glyph glyph-name="radical" unicode="&#x221a;" horiz-adv-x="1185" 
d="M383 -258h-285l-53 897h166l12 -299q1 -22 3.5 -91t3 -103.5t0.5 -99t-3 -128.5h68q43 169 164 459l448 1057h404l-25 -177h-256z" />
    <glyph glyph-name="infinity" unicode="&#x221e;" horiz-adv-x="1923" 
d="M133 659q0 190 131.5 320.5t323.5 130.5q150 0 246 -85t127 -226h71q70 141 191.5 226t271.5 85q153 0 248.5 -88t95.5 -236q0 -189 -131.5 -319.5t-323.5 -130.5q-149 0 -245.5 85t-126.5 226h-72q-70 -140 -191 -225.5t-270 -85.5q-155 0 -250.5 87.5t-95.5 235.5z
M322 682q0 -87 53.5 -138.5t146.5 -51.5q99 0 180 61.5t129 169.5q-19 112 -82.5 171.5t-162.5 59.5q-114 0 -189 -77.5t-75 -194.5zM1141 723q20 -110 83 -170.5t162 -60.5q114 0 189.5 77t75.5 195q0 87 -54 138.5t-147 51.5q-97 0 -177.5 -59.5t-131.5 -171.5z" />
    <glyph glyph-name="integral" unicode="&#x222b;" horiz-adv-x="1130" 
d="M-59 -266l4 174q47 -14 108 -14q115 0 181 61t102 180l282 955q55 181 170.5 265.5t296.5 84.5q73 0 117 -10l-4 -173q-53 11 -108 11q-123 0 -184 -60t-95 -180l-285 -950q-52 -178 -172.5 -267.5t-302.5 -89.5q-66 0 -110 13z" />
    <glyph glyph-name="approxequal" unicode="&#x2248;" horiz-adv-x="1112" 
d="M217 281h-135q6 119 43.5 213t97.5 135l-4 28h-80q13 242 86.5 356.5t190.5 114.5q68 0 120 -38t130 -125q64 -74 88 -92q31 -23 57 -23q114 0 131 278h135q-5 -115 -42 -209.5t-97 -136.5l2 -30h80q-11 -242 -85.5 -356.5t-193.5 -114.5q-39 0 -73.5 12.5t-69 43
t-51.5 48.5t-53 61q-33 38 -50.5 56.5t-46 37.5t-53.5 19q-110 0 -127 -278zM270 686q31 31 86 31q95 3 186 -91q18 -18 66 -75t81.5 -85t66.5 -28q103 0 131 285q-31 -31 -86 -31q-37 -1 -72.5 12.5t-68 40.5t-52 47.5t-45.5 51.5q-39 46 -60 68t-49 40.5t-53 18.5
q-53 0 -82.5 -66t-48.5 -219z" />
    <glyph glyph-name="notequal" unicode="&#x2260;" horiz-adv-x="1191" 
d="M377 385h-264l22 158h326l84 162q26 53 58 87.5t77 69.5l-29 45q-99 -71 -248 -71h-227l23 157h501l166 318h162l-168 -318h262l-22 -157h-324l-82 -156q-49 -90 -145 -162l29 -47q105 72 243 72h238l-23 -158h-499l-166 -317h-162z" />
    <glyph glyph-name="lessequal" unicode="&#x2264;" horiz-adv-x="1269" 
d="M1059 494l-25 -175l-868 279l35 246l946 278l-25 -174l-411 -114q-180 -52 -344 -78l-11 -70q208 -40 328 -78zM989 0h-907l22 152h906z" />
    <glyph glyph-name="greaterequal" unicode="&#x2265;" horiz-adv-x="1273" 
d="M1085 598l-946 -279l25 175l405 114q144 41 349 78l10 70q-183 34 -320 78l-381 114l25 174l868 -278zM1001 0h-907l21 152h907z" />
    <glyph glyph-name="uni2573" unicode="&#x2573;" horiz-adv-x="1925" 
d="M127 -84l-68 80l856 752l-645 751l80 72l643 -748l862 756l70 -80l-858 -751l645 -752l-80 -72l-643 748z" />
    <glyph glyph-name="lozenge" unicode="&#x25ca;" horiz-adv-x="1148" 
d="M338 0l-242 725l443 725h323l240 -725l-443 -725h-321zM510 1040l-205 -315l115 -317q37 -99 63 -258h70q76 165 137 260l203 315l-115 315q-39 113 -63 260h-68q-65 -142 -137 -260z" />
    <glyph glyph-name="uni2605" unicode="&#x2605;" horiz-adv-x="1804" 
d="M956 311l-503 -340l174 580l-486 373l611 16l204 578l203 -578l613 -16l-486 -373l174 -580z" />
    <glyph glyph-name="uni261C" unicode="&#x261c;" horiz-adv-x="1896" 
d="M1063 111h-250q-65 0 -105 32.5t-40 83.5q0 33 22 70q-47 9 -73.5 40.5t-26.5 80.5q0 45 28 76q-45 36 -45 96q0 35 19 67h-332q-73 0 -113.5 36t-40.5 106q0 59 39 91t115 32h469q-31 22 -31 75q0 37 27 76q78 -2 184 6t119 8q50 0 98.5 -22t120.5 -66q54 -32 76.5 -44
t73 -35t98 -32t100.5 -9h66l2 -670q-110 0 -258 -45q-70 -18 -103.5 -26t-102.5 -17.5t-136 -9.5zM815 184h270q116 0 295 52q6 2 30 7.5t32 7.5t28.5 6.5t31.5 6.5t28 4.5t31.5 4t29.5 1.5v529h-26q-60 0 -123.5 20t-104 42t-100.5 59q-52 31 -79 46t-67.5 29.5t-74.5 14.5
q-188 -8 -230 -8q-4 -16 -4 -31q0 -29 27 -53h260v-74h-793q-41 0 -59 -13t-18 -44t18 -45.5t59 -14.5h582v-82h-145q-25 0 -39.5 -14t-14.5 -39q0 -27 14 -42t40 -15h176v-72h-156q-55 0 -55 -53q0 -26 14 -41t41 -15h187v-71h-105q-55 0 -55 -51q0 -52 55 -52z" />
    <glyph glyph-name="uni261E" unicode="&#x261e;" horiz-adv-x="1896" 
d="M1083 111h-249q-67 0 -136 9.5t-102.5 17.5t-103.5 26q-148 45 -259 45l3 670h65q53 0 100.5 9t98 32t73 35t76.5 44q48 29 76 45t68 29.5t75 13.5q13 0 119 -8t184 -6q27 -39 27 -76q0 -53 -31 -75h469q76 0 115 -32t39 -91q0 -70 -40.5 -106t-113.5 -36h-331
q18 -30 18 -67q0 -60 -45 -96q29 -32 29 -76q0 -49 -27 -80.5t-74 -40.5q23 -39 23 -70q0 -51 -40 -83.5t-106 -32.5zM811 184h270q27 0 41.5 14t14.5 38q0 51 -56 51h-104v71h186q27 0 41.5 15.5t14.5 40.5q0 53 -56 53h-155v72h176q53 0 53 57q0 25 -14 39t-39 14h-146v82
h582q41 0 59.5 14.5t18.5 45.5t-18.5 44t-59.5 13h-793v74h260q27 24 27 53q0 15 -4 31q-41 0 -229 8q-34 0 -74.5 -14.5t-68.5 -29.5t-79 -46q-60 -38 -100 -59.5t-103.5 -41.5t-123.5 -20h-27v-529q15 0 29.5 -1.5t31.5 -4t28 -4.5t31.5 -6.5t28.5 -6.5t32 -7.5t30 -7.5
q179 -52 295 -52z" />
    <glyph glyph-name="uni271A" unicode="&#x271a;" horiz-adv-x="1697" 
d="M762 1434h426l-72 -516h504l-57 -402h-504l-72 -516h-426l72 516h-504l57 402h504z" />
    <glyph glyph-name="uni2731" unicode="&#x2731;" horiz-adv-x="1583" 
d="M211 209l-129 299l393 209l-336 209l215 299l332 -211l59 420h345l-60 -420l393 211l129 -299l-393 -209l336 -209l-215 -299l-332 211l-59 -420h-344l59 420z" />
    <glyph glyph-name="uni2733" unicode="&#x2733;" horiz-adv-x="1615" 
d="M657 649l-555 -22l25 182l549 -23l-350 375l145 127l317 -403l54 551h182l-98 -551l430 403l110 -127l-458 -375l555 23l-25 -182l-549 20l352 -373l-145 -129l-317 406l-56 -551h-182l98 551l-430 -404l-110 127z" />
    <glyph glyph-name="uni2738" unicode="&#x2738;" horiz-adv-x="1830" 
d="M1729 1069l-353 -330l353 -319l-484 22l19 -481l-328 358l-322 -352l23 473l-479 -14l356 328l-350 321l471 -24l-14 481l327 -350l322 350l-25 -481z" />
    <glyph glyph-name="uni2739" unicode="&#x2739;" horiz-adv-x="1730" 
d="M1016 293l-121 -324l-123 324l-268 -219l57 342l-338 -58l219 269l-325 121l325 122l-219 269l340 -60l-57 340l268 -219l121 326l123 -326l268 219l-59 -342l342 60l-219 -269l323 -123l-323 -120l219 -269l-344 58l59 -340z" />
    <glyph glyph-name="uni274C" unicode="&#x274c;" horiz-adv-x="2334" 
d="M270 1456l289 289l645 -645l645 645l289 -289l-645 -645l645 -645l-289 -289l-645 645l-645 -645l-289 289l645 645z" />
    <glyph glyph-name="uni2762" unicode="&#x2762;" horiz-adv-x="1236" 
d="M250 1200q0 152 116.5 239t338.5 87t338 -87t116 -239q0 -71 -22 -124t-57.5 -85.5t-79 -59t-88 -53.5t-82 -60t-63 -86.5t-30.5 -125.5q133 -23 211 -108.5t78 -212.5q0 -140 -87.5 -226t-233.5 -86t-234 86t-88 226q0 127 78 212.5t211 108.5q-5 72 -30.5 125.5
t-63 86.5t-82 60t-88 53.5t-79 59t-57.5 85.5t-22 124z" />
    <glyph glyph-name="uni29D8" unicode="&#x29d8;" horiz-adv-x="823" 
d="M336 -27l-293 220l354 215l-295 217l357 217l-297 215l356 217l-264 192l106 86l394 -288l-357 -215l297 -218l-358 -217l295 -215l-355 -217l295 -217l-462 -280l-91 98z" />
    <glyph glyph-name="uni29D9" unicode="&#x29d9;" horiz-adv-x="823" 
d="M508 1264l295 -217l-354 -218l294 -215l-358 -217l297 -217l-356 -215l264 -192l-107 -88l-391 288l357 217l-297 216l356 217l-295 217l354 215l-295 219l465 278l90 -96z" />
    <glyph glyph-name="uni29DA" unicode="&#x29da;" horiz-adv-x="1236" 
d="M336 -27l-293 220l354 215l-295 217l357 217l-297 215l356 217l-264 192l106 86l394 -288l-357 -215l297 -218l-358 -217l295 -215l-355 -217l295 -217l-462 -280l-91 98zM823 -35l-295 219l355 215l-295 217l356 215l-297 218l357 215l-265 194l107 86l393 -289
l-356 -217l297 -215l-357 -217l293 -215l-354 -217l295 -219l-463 -279l-90 97z" />
    <glyph glyph-name="uni29DB" unicode="&#x29db;" horiz-adv-x="1236" 
d="M436 1264l293 -217l-354 -218l295 -215l-357 -217l297 -217l-356 -215l264 -192l-106 -88l-394 288l357 217l-297 216l358 217l-295 217l355 215l-295 219l463 278l90 -96zM922 1255l295 -219l-357 -215l295 -217l-356 -215l297 -217l-357 -215l265 -195l-107 -86
l-393 289l356 217l-295 215l357 217l-295 215l354 218l-295 219l463 278l90 -96z" />
    <glyph glyph-name="uni3008" unicode="&#x3008;" horiz-adv-x="681" 
d="M373 -393l-221 1009l499 992l162 -64l-475 -940l209 -942z" />
    <glyph glyph-name="uni3009" unicode="&#x3009;" horiz-adv-x="716" 
d="M362 1608l224 -1010l-500 -991l-164 63l475 940l-209 942z" />
    <glyph glyph-name="uni300A" unicode="&#x300a;" horiz-adv-x="1083" 
d="M373 -393l-221 1009l499 1012l162 -63l-475 -961l209 -942zM739 -406l-223 1014l500 1000l164 -64l-475 -948l208 -946z" />
    <glyph glyph-name="uni300B" unicode="&#x300b;" horiz-adv-x="1083" 
d="M365 1628l221 -1014l-500 -999l-162 63l475 949l-209 946zM729 1616l223 -1010l-499 -1012l-164 64l475 960l-209 943z" />
    <glyph glyph-name="uni300C" unicode="&#x300c;" horiz-adv-x="698" 
d="M467 1389l-90 -652h-170l112 817h467l-24 -165h-295z" />
    <glyph glyph-name="uni300D" unicode="&#x300d;" horiz-adv-x="700" 
d="M254 -147l90 651h170l-115 -815h-465l23 164h297z" />
    <glyph glyph-name="uni3010" unicode="&#x3010;" horiz-adv-x="843" 
d="M670 -311h-613l262 1865h613q-184 -272 -281.5 -602.5t-93 -661t112.5 -601.5z" />
    <glyph glyph-name="uni3011" unicode="&#x3011;" horiz-adv-x="843" 
d="M807 1554l-262 -1865h-611q184 271 281.5 601.5t93 661t-111.5 602.5h610z" />
    <glyph glyph-name="u1F642" unicode="&#x1f642;" horiz-adv-x="1849" 
d="M952 -31q-167 0 -315 57.5t-257 159t-172 250t-63 322.5q0 177 65.5 325t177 245.5t258 151.5t308.5 54q161 0 306.5 -53.5t257 -151t177.5 -246t66 -325.5q0 -174 -63 -322.5t-172 -250t-257.5 -159t-316.5 -57.5zM709 811q87 0 131.5 55t44.5 150q0 100 -46.5 150.5
t-127.5 50.5q-88 0 -133.5 -53.5t-45.5 -147.5q0 -101 47.5 -153t129.5 -52zM1196 811q88 0 133 55t45 150q0 100 -47 150.5t-129 50.5q-87 0 -131.5 -53.5t-44.5 -147.5q0 -101 46.5 -153t127.5 -52zM1487 649l-172 27q-35 -234 -361 -234t-360 234l-172 -27
q29 -192 172.5 -298.5t359.5 -106.5q224 0 365 109.5t168 295.5z" />
    <glyph glyph-name="Adieresis.ss01" 
d="M559 1802h199l-31 -235h-201zM1049 1802h200l-32 -235h-201zM1327 0h-211l-65 272h-721l-142 -272h-221l760 1434h242zM627 846l-203 -393h584l-84 350q-60 250 -66 424h-70q-45 -154 -161 -381z" />
    <glyph glyph-name="Edieresis.ss01" horiz-adv-x="1196" 
d="M461 1802h198l-30 -235h-201zM950 1802h201l-33 -235h-200zM1241 1434l-29 -187h-737l-61 -426h684l-27 -172h-682l-63 -463h743l-29 -186h-944l201 1434h944z" />
    <glyph glyph-name="Edotaccent.ss01" horiz-adv-x="1196" 
d="M707 1802h198l-33 -235h-198zM1241 1434l-29 -187h-737l-61 -426h684l-27 -172h-682l-63 -463h743l-29 -186h-944l201 1434h944z" />
    <glyph glyph-name="Gdotaccent.ss01" horiz-adv-x="1617" 
d="M827 1567l33 235h199l-33 -235h-199zM141 674q0 226 92.5 406t265 284t394.5 104q256 0 430 -132t211 -351l-201 -53q-23 158 -144 253t-302 95q-242 0 -388.5 -166.5t-146.5 -431.5q0 -248 131.5 -391.5t337.5 -143.5q170 0 291 95t162 250l8 59h-448l22 160h627
l-101 -711h-172l4 25q1 14 7 32.5t13.5 36t24.5 59t31 76.5l-67 27q-60 -133 -180 -210t-279 -77q-127 0 -240 48.5t-198 137.5t-135 223.5t-50 295.5z" />
    <glyph glyph-name="Idieresis.ss01" horiz-adv-x="587" 
d="M94 1567l33 235h199l-31 -235h-201zM584 1567l32 235h201l-33 -235h-200zM117 0l200 1434h205l-200 -1434h-205z" />
    <glyph glyph-name="Idotaccent.ss01" horiz-adv-x="587" 
d="M340 1567l33 235h198l-32 -235h-199zM117 0l200 1434h205l-200 -1434h-205z" />
    <glyph glyph-name="Odieresis.ss01" horiz-adv-x="1662" 
d="M588 1575l33 235h198l-31 -235h-200zM1077 1575l33 235h201l-33 -235h-201zM139 666q0 233 97 416t271 284.5t396 101.5q300 0 486 -191.5t186 -508.5q0 -233 -97 -416t-271 -285t-394 -102q-198 0 -351 86t-238 245.5t-85 369.5zM350 678q0 -241 128.5 -383.5
t344.5 -142.5q239 0 390 165t151 437q0 242 -128.5 384t-342.5 142q-241 0 -392 -164t-151 -438z" />
    <glyph glyph-name="R.ss01" horiz-adv-x="1380" 
d="M834 575h-56l455 -575h-246l-436 573h-172l-80 -573h-203l201 1434h629q195 0 306 -106t111 -281q0 -208 -133 -340t-376 -132zM473 1249l-72 -510h420q142 0 224.5 76t82.5 207q0 110 -63.5 168.5t-173.5 58.5h-418z" />
    <glyph glyph-name="Udieresis.ss01" 
d="M520 1567l33 235h199l-31 -235h-201zM1010 1567l32 235h201l-33 -235h-200zM162 557l123 877h204l-122 -875q-29 -200 51 -302.5t256 -102.5q185 0 279.5 83t123.5 289l127 908h205l-129 -938q-37 -267 -185 -399t-419 -132q-130 0 -232 35.5t-173 106.5t-100 186t-9 264
z" />
    <glyph glyph-name="Wdieresis.ss01" horiz-adv-x="1947" 
d="M766 1567l33 235h198l-30 -235h-201zM1255 1567l33 235h201l-33 -235h-201zM291 0l-115 1434h203l47 -654q19 -266 -14 -538h80q45 178 170 446l339 746h181l127 -652q67 -363 65 -540h80q45 291 119 512l233 680h219l-514 -1434h-239l-139 752q-42 252 -35 458h-62
q-45 -235 -157 -473l-351 -737h-237z" />
    <glyph glyph-name="Ydieresis.ss01" horiz-adv-x="1386" 
d="M487 1567l33 235h199l-31 -235h-201zM977 1567l33 235h200l-32 -235h-201zM596 561l-432 873h231l158 -338q112 -270 119 -369h84q30 98 223 373l254 334h242l-674 -873l-78 -561h-207z" />
    <glyph glyph-name="Zdotaccent.ss01" horiz-adv-x="1292" 
d="M698 1567l33 235h199l-33 -235h-199zM1124 0h-1112l27 178l1010 1106l-45 57q-108 -94 -322 -94h-477l26 187h1078l-27 -179l-1012 -1105l45 -58q105 94 324 94h514z" />
    <glyph glyph-name="M.ss05" horiz-adv-x="1949" 
d="M299 0h-203l164 1169q18 134 95 204.5t192 70.5q99 0 160 -52t88 -165l135 -590q6 -27 16.5 -38t30.5 -11q36 0 61 49l297 596q57 113 128 162t169 49q112 0 181.5 -76t50.5 -219l-162 -1149h-203l164 1163q6 39 -12.5 61.5t-53.5 22.5q-57 0 -86 -59l-333 -664
q-76 -153 -217 -153q-83 0 -130 44t-67 138l-143 635q-14 59 -74 59q-34 0 -57 -22.5t-29 -61.5z" />
    <glyph glyph-name="i.loclTRK" horiz-adv-x="499" 
d="M348 1272q-64 0 -102.5 37t-38.5 96q0 65 44.5 104t108.5 39t104 -38t40 -97q0 -65 -45 -103t-111 -38zM68 0l151 1085h203l-152 -1085h-202z" />
    <glyph glyph-name="a.ss01" horiz-adv-x="1148" 
d="M602 1120q213 0 334 -119.5t90 -330.5l-57 -402l6 -268h-187l-4 168h-55q-43 -93 -142.5 -148t-224.5 -55q-140 0 -226.5 81t-86.5 210q0 150 102 240t287 122l389 66l2 10q19 135 -50.5 203t-190.5 68q-130 0 -202.5 -64t-78.5 -172l-190 37q27 171 157 262.5t328 91.5z
M446 117q110 0 200.5 59.5t131.5 151.5l31 225l-315 -53q-248 -40 -248 -215q0 -77 53.5 -122.5t146.5 -45.5z" />
    <glyph glyph-name="aacute.ss01" horiz-adv-x="1148" 
d="M678 1556h233l-213 -282h-151zM602 1120q213 0 334 -119.5t90 -330.5l-57 -402l6 -268h-187l-4 168h-55q-43 -93 -142.5 -148t-224.5 -55q-140 0 -226.5 81t-86.5 210q0 150 102 240t287 122l389 66l2 10q19 135 -50.5 203t-190.5 68q-130 0 -202.5 -64t-78.5 -172
l-190 37q27 171 157 262.5t328 91.5zM446 117q110 0 200.5 59.5t131.5 151.5l31 225l-315 -53q-248 -40 -248 -215q0 -77 53.5 -122.5t146.5 -45.5z" />
    <glyph glyph-name="abreve.ss01" horiz-adv-x="1148" 
d="M623 1262q-144 0 -225 79.5t-76 214.5h170q-6 -78 30.5 -119.5t104.5 -41.5q76 0 118.5 42.5t47.5 118.5h165q0 -134 -91.5 -214t-243.5 -80zM602 1120q213 0 334 -119.5t90 -330.5l-57 -402l6 -268h-187l-4 168h-55q-43 -93 -142.5 -148t-224.5 -55q-140 0 -226.5 81
t-86.5 210q0 150 102 240t287 122l389 66l2 10q19 135 -50.5 203t-190.5 68q-130 0 -202.5 -64t-78.5 -172l-190 37q27 171 157 262.5t328 91.5zM446 117q110 0 200.5 59.5t131.5 151.5l31 225l-315 -53q-248 -40 -248 -215q0 -77 53.5 -122.5t146.5 -45.5z" />
    <glyph glyph-name="acircumflex.ss01" horiz-adv-x="1148" 
d="M547 1343l-51 -69h-197l244 282h235l166 -282h-188l-33 69q-32 65 -41 109h-64q-31 -59 -71 -109zM602 1120q213 0 334 -119.5t90 -330.5l-57 -402l6 -268h-187l-4 168h-55q-43 -93 -142.5 -148t-224.5 -55q-140 0 -226.5 81t-86.5 210q0 150 102 240t287 122l389 66
l2 10q19 135 -50.5 203t-190.5 68q-130 0 -202.5 -64t-78.5 -172l-190 37q27 171 157 262.5t328 91.5zM446 117q110 0 200.5 59.5t131.5 151.5l31 225l-315 -53q-248 -40 -248 -215q0 -77 53.5 -122.5t146.5 -45.5z" />
    <glyph glyph-name="adieresis.ss01" horiz-adv-x="1148" 
d="M309 1495h199l-31 -235h-201zM799 1495h200l-32 -235h-201zM602 1120q213 0 334 -119.5t90 -330.5l-57 -402l6 -268h-187l-4 168h-55q-43 -93 -142.5 -148t-224.5 -55q-140 0 -226.5 81t-86.5 210q0 150 102 240t287 122l389 66l2 10q19 135 -50.5 203t-190.5 68
q-130 0 -202.5 -64t-78.5 -172l-190 37q27 171 157 262.5t328 91.5zM446 117q110 0 200.5 59.5t131.5 151.5l31 225l-315 -53q-248 -40 -248 -215q0 -77 53.5 -122.5t146.5 -45.5z" />
    <glyph glyph-name="agrave.ss01" horiz-adv-x="1148" 
d="M645 1556l53 -282h-149l-135 282h231zM602 1120q213 0 334 -119.5t90 -330.5l-57 -402l6 -268h-187l-4 168h-55q-43 -93 -142.5 -148t-224.5 -55q-140 0 -226.5 81t-86.5 210q0 150 102 240t287 122l389 66l2 10q19 135 -50.5 203t-190.5 68q-130 0 -202.5 -64
t-78.5 -172l-190 37q27 171 157 262.5t328 91.5zM446 117q110 0 200.5 59.5t131.5 151.5l31 225l-315 -53q-248 -40 -248 -215q0 -77 53.5 -122.5t146.5 -45.5z" />
    <glyph glyph-name="amacron.ss01" horiz-adv-x="1148" 
d="M311 1470h676l-20 -153h-676zM602 1120q213 0 334 -119.5t90 -330.5l-57 -402l6 -268h-187l-4 168h-55q-43 -93 -142.5 -148t-224.5 -55q-140 0 -226.5 81t-86.5 210q0 150 102 240t287 122l389 66l2 10q19 135 -50.5 203t-190.5 68q-130 0 -202.5 -64t-78.5 -172
l-190 37q27 171 157 262.5t328 91.5zM446 117q110 0 200.5 59.5t131.5 151.5l31 225l-315 -53q-248 -40 -248 -215q0 -77 53.5 -122.5t146.5 -45.5z" />
    <glyph glyph-name="aogonek.ss01" horiz-adv-x="1148" 
d="M1038 -248l31 -119q-39 -31 -107.5 -51t-140.5 -20q-108 0 -171.5 54t-63.5 146q0 81 54.5 149t147.5 107l-4 150h-55q-43 -93 -142.5 -148t-224.5 -55q-140 0 -226.5 81t-86.5 210q0 150 102 240t287 122l389 66l2 10q19 135 -50.5 203t-190.5 68q-130 0 -202.5 -64
t-78.5 -172l-190 37q27 171 157 262.5t328 91.5q213 0 334 -119.5t90 -330.5l-57 -402l6 -268h-21q-103 -25 -165 -79t-62 -122q0 -54 33.5 -81t93.5 -27q101 0 184 61zM446 117q110 0 200.5 59.5t131.5 151.5l31 225l-315 -53q-248 -40 -248 -215q0 -77 53.5 -122.5
t146.5 -45.5z" />
    <glyph glyph-name="aring.ss01" horiz-adv-x="1148" 
d="M635 1251q-114 0 -186 64t-72 166q0 111 84.5 182.5t210.5 71.5q113 0 184.5 -64t71.5 -166q0 -109 -83.5 -181.5t-209.5 -72.5zM662 1618q-63 0 -102.5 -36t-39.5 -97q0 -53 33 -85t88 -32q64 0 103.5 36t39.5 97q0 53 -33 85t-89 32zM602 1120q213 0 334 -119.5
t90 -330.5l-57 -402l6 -268h-187l-4 168h-55q-43 -93 -142.5 -148t-224.5 -55q-140 0 -226.5 81t-86.5 210q0 150 102 240t287 122l389 66l2 10q19 135 -50.5 203t-190.5 68q-130 0 -202.5 -64t-78.5 -172l-190 37q27 171 157 262.5t328 91.5zM446 117q110 0 200.5 59.5
t131.5 151.5l31 225l-315 -53q-248 -40 -248 -215q0 -77 53.5 -122.5t146.5 -45.5z" />
    <glyph glyph-name="atilde.ss01" horiz-adv-x="1148" 
d="M504 1423q-62 0 -74 -153h-119q4 150 58.5 225.5t142.5 75.5q37 0 71 -16t53.5 -33.5t45.5 -44.5q2 -3 4 -5l4 -4q57 -57 90 -57q61 0 74 158h121q-6 -151 -59.5 -227t-141.5 -76q-87 0 -184 102q-17 19 -24.5 27.5t-25 18t-36.5 9.5zM602 1120q213 0 334 -119.5
t90 -330.5l-57 -402l6 -268h-187l-4 168h-55q-43 -93 -142.5 -148t-224.5 -55q-140 0 -226.5 81t-86.5 210q0 150 102 240t287 122l389 66l2 10q19 135 -50.5 203t-190.5 68q-130 0 -202.5 -64t-78.5 -172l-190 37q27 171 157 262.5t328 91.5zM446 117q110 0 200.5 59.5
t131.5 151.5l31 225l-315 -53q-248 -40 -248 -215q0 -77 53.5 -122.5t146.5 -45.5z" />
    <glyph glyph-name="cdotaccent.ss01" horiz-adv-x="1255" 
d="M612 1260l33 235h199l-33 -235h-199zM86 514q0 265 162 435.5t422 170.5q210 0 352 -119t164 -309l-197 -41q-13 133 -100.5 211t-220.5 78q-171 0 -276 -117t-105 -305q0 -177 93.5 -276t250.5 -99q129 0 212.5 63t121.5 175l182 -68q-53 -162 -194 -255t-335 -93
q-237 0 -384.5 152t-147.5 397z" />
    <glyph glyph-name="edieresis.ss01" horiz-adv-x="1265" 
d="M348 1260l33 235h199l-31 -235h-201zM838 1260l32 235h201l-33 -235h-200zM90 524q0 265 159.5 430.5t412.5 165.5q236 0 382 -146t146 -382q0 -60 -12 -119h-883q6 -160 100 -249t252 -89q237 0 348 187l117 -127q-69 -110 -198.5 -170t-280.5 -60q-246 0 -394.5 152
t-148.5 407zM303 616h690q-5 153 -94.5 245.5t-239.5 92.5q-153 0 -250 -91t-106 -247z" />
    <glyph glyph-name="edotaccent.ss01" horiz-adv-x="1265" 
d="M594 1260l33 235h198l-32 -235h-199zM90 524q0 265 159.5 430.5t412.5 165.5q236 0 382 -146t146 -382q0 -60 -12 -119h-883q6 -160 100 -249t252 -89q237 0 348 187l117 -127q-69 -110 -198.5 -170t-280.5 -60q-246 0 -394.5 152t-148.5 407zM303 616h690
q-5 153 -94.5 245.5t-239.5 92.5q-153 0 -250 -91t-106 -247z" />
    <glyph glyph-name="f.ss01" horiz-adv-x="821" 
d="M193 0l129 918h-220l25 167h219l35 244q10 76 68 121t143 45h274l17 -164h-303l-33 -246h307l-25 -167h-307l-129 -918h-200z" />
    <glyph glyph-name="g.ss01" horiz-adv-x="1312" 
d="M90 530q0 130 43 241t116.5 186.5t173 118t210.5 42.5q144 0 246 -69.5t157 -200.5l58 31q-28 124 -31 192l2 14h180l-164 -1153q-30 -211 -169 -318.5t-353 -107.5q-195 0 -318.5 97t-138.5 258l185 37q6 -108 83 -172t199 -64q142 0 222 66.5t96 183.5q28 145 96 254
l-51 39q-63 -90 -163.5 -140.5t-215.5 -50.5q-201 0 -332 141.5t-131 374.5zM291 541q0 -156 90 -253.5t240 -97.5q102 0 190.5 52.5t132.5 140.5l45 309q-27 120 -113.5 185t-207.5 65q-166 0 -271.5 -114t-105.5 -287z" />
    <glyph glyph-name="gbreve.ss01" horiz-adv-x="1312" 
d="M414 1556h170q-6 -78 30.5 -119.5t104.5 -41.5q76 0 118.5 42.5t47.5 118.5h166q0 -133 -92 -213.5t-244 -80.5q-144 0 -225 79.5t-76 214.5zM90 530q0 130 43 241t116.5 186.5t173 118t210.5 42.5q144 0 246 -69.5t157 -200.5l58 31q-28 124 -31 192l2 14h180
l-164 -1153q-30 -211 -169 -318.5t-353 -107.5q-195 0 -318.5 97t-138.5 258l185 37q6 -108 83 -172t199 -64q142 0 222 66.5t96 183.5q28 145 96 254l-51 39q-63 -90 -163.5 -140.5t-215.5 -50.5q-201 0 -332 141.5t-131 374.5zM291 541q0 -156 90 -253.5t240 -97.5
q102 0 190.5 52.5t132.5 140.5l45 309q-27 120 -113.5 185t-207.5 65q-166 0 -271.5 -114t-105.5 -287z" />
    <glyph glyph-name="uni0123.ss01" horiz-adv-x="1312" 
d="M643 1501l164 209l96 -57l-106 -137q36 -9 56.5 -37.5t20.5 -67.5q0 -65 -47 -109.5t-116 -44.5q-55 0 -89 30.5t-34 80.5q0 58 55 133zM90 530q0 130 43 241t116.5 186.5t173 118t210.5 42.5q144 0 246 -69.5t157 -200.5l58 31q-28 124 -31 192l2 14h180l-164 -1153
q-30 -211 -169 -318.5t-353 -107.5q-195 0 -318.5 97t-138.5 258l185 37q6 -108 83 -172t199 -64q142 0 222 66.5t96 183.5q28 145 96 254l-51 39q-63 -90 -163.5 -140.5t-215.5 -50.5q-201 0 -332 141.5t-131 374.5zM291 541q0 -156 90 -253.5t240 -97.5q102 0 190.5 52.5
t132.5 140.5l45 309q-27 120 -113.5 185t-207.5 65q-166 0 -271.5 -114t-105.5 -287z" />
    <glyph glyph-name="gdotaccent.ss01" horiz-adv-x="1312" 
d="M614 1260l33 235h199l-33 -235h-199zM90 530q0 130 43 241t116.5 186.5t173 118t210.5 42.5q144 0 246 -69.5t157 -200.5l58 31q-28 124 -31 192l2 14h180l-164 -1153q-30 -211 -169 -318.5t-353 -107.5q-195 0 -318.5 97t-138.5 258l185 37q6 -108 83 -172t199 -64
q142 0 222 66.5t96 183.5q28 145 96 254l-51 39q-63 -90 -163.5 -140.5t-215.5 -50.5q-201 0 -332 141.5t-131 374.5zM291 541q0 -156 90 -253.5t240 -97.5q102 0 190.5 52.5t132.5 140.5l45 309q-27 120 -113.5 185t-207.5 65q-166 0 -271.5 -114t-105.5 -287z" />
    <glyph glyph-name="i.ss01" horiz-adv-x="483" 
d="M242 1247l34 248h201l-35 -248h-200zM68 0l151 1085h199l-152 -1085h-198z" />
    <glyph glyph-name="idieresis.ss01" horiz-adv-x="499" 
d="M0 1260l33 235h198l-30 -235h-201zM489 1260l33 235h201l-33 -235h-201zM68 0l151 1085h203l-152 -1085h-202z" />
    <glyph glyph-name="i.loclTRK.ss01" horiz-adv-x="499" 
d="M246 1260l33 235h198l-33 -235h-198zM68 0l151 1085h203l-152 -1085h-202z" />
    <glyph glyph-name="j.ss01" horiz-adv-x="497" 
d="M256 1247l35 248h198l-34 -248h-199zM432 1085l-196 -1382q-10 -76 -67 -121t-142 -45h-277l-16 164h303l196 1384h199z" />
    <glyph glyph-name="odieresis.ss01" horiz-adv-x="1302" 
d="M352 1260l33 235h199l-31 -235h-201zM842 1260l32 235h201l-33 -235h-200zM86 506q0 272 168 443t430 171q238 0 385.5 -147.5t147.5 -390.5q0 -276 -167.5 -446.5t-435.5 -170.5q-236 0 -382 148t-146 393zM1014 569q0 168 -94 269.5t-250 101.5q-169 0 -276 -119
t-107 -305q0 -169 94 -269t250 -100q171 0 277 118t106 304z" />
    <glyph glyph-name="t.ss01" horiz-adv-x="829" 
d="M623 0h-252q-94 0 -135.5 46.5t-30.5 131.5l104 740h-221l25 167h221l37 279l207 37l-46 -316h312l-25 -167h-311l-105 -744h269z" />
    <glyph glyph-name="udieresis.ss01" horiz-adv-x="1273" 
d="M393 1260l33 235h199l-31 -235h-201zM883 1260l32 235h201l-33 -235h-200zM924 403l96 682h197l-152 -1085h-176l2 14q16 115 59 209l-61 23q-75 -138 -187 -209.5t-253 -71.5q-193 0 -281.5 132.5t-54.5 367.5l86 620h198l-82 -583q-25 -174 32.5 -265.5t193.5 -91.5
q123 0 223 69t160 189z" />
    <glyph glyph-name="wdieresis.ss01" horiz-adv-x="1640" 
d="M575 1260l33 235h199l-31 -235h-201zM1065 1260l33 235h200l-32 -235h-201zM676 463l-209 -463h-236l-127 1085h197l45 -428q23 -237 -2 -444h80q40 158 164 430l207 442h192l92 -444q45 -231 39 -428h82q32 199 123 446l160 426h205l-422 -1085h-234l-90 467
q-45 279 -35 436h-76q-4 -21 -9 -42.5t-13 -47.5t-13 -43t-17.5 -49.5t-17 -46t-20.5 -52.5t-19.5 -48.5t-23 -56t-22.5 -54.5z" />
    <glyph glyph-name="y.ss01" horiz-adv-x="1153" 
d="M971 1085h227l-897 -1546h-215l315 551l-297 995h213l127 -469q55 -210 50 -331h77q44 155 142 331z" />
    <glyph glyph-name="yacute.ss01" horiz-adv-x="1153" 
d="M725 1556h233l-213 -282h-151zM86 -461l315 551l-297 995h213l127 -469q55 -210 50 -331h77q44 155 142 331l258 469h227l-897 -1546h-215z" />
    <glyph glyph-name="ycircumflex.ss01" horiz-adv-x="1153" 
d="M541 1274h-197l244 282h235l166 -282h-188l-33 69q-32 65 -41 109h-63q-29 -55 -72 -109zM301 -461h-215l315 551l-297 995h213l127 -469q55 -210 50 -331h77q44 155 142 331l258 469h227z" />
    <glyph glyph-name="ydieresis.ss01" horiz-adv-x="1153" 
d="M324 1260l32 235h199l-31 -235h-200zM813 1260l33 235h201l-33 -235h-201zM1198 1085l-897 -1546h-215l315 551l-297 995h213l127 -469q55 -210 50 -331h77q44 155 142 331l258 469h227z" />
    <glyph glyph-name="ygrave.ss01" horiz-adv-x="1153" 
d="M594 1274l-135 282h231l53 -282h-149zM971 1085h227l-897 -1546h-215l315 551l-297 995h213l127 -469q55 -210 50 -331h77q44 155 142 331z" />
    <glyph glyph-name="zdotaccent.ss01" horiz-adv-x="1069" 
d="M539 1260l32 235h199l-33 -235h-198zM543 168h403l-24 -168h-920l27 174l796 764l-39 53q-60 -39 -119.5 -56t-144.5 -17h-377l23 167h891l-25 -174l-796 -764l38 -53q95 74 267 74z" />
    <glyph glyph-name="m_m.dlig" horiz-adv-x="3309" 
d="M254 0h-197l152 1085h192l-2 -22q-27 -103 -65 -180l43 -23q67 133 164.5 196.5t206.5 63.5q117 0 193 -66t89 -192h47q61 123 162 190.5t221 67.5q118 0 194.5 -66.5t88.5 -191.5h49q61 123 162 190.5t221 67.5q118 0 194.5 -66.5t88.5 -191.5h49q61 123 162 190.5
t223 67.5q173 0 257.5 -120t55.5 -328l-94 -672h-201l90 631q20 151 -27 231t-161 80q-104 0 -190 -66t-128 -174l-98 -702h-198l88 631q22 151 -25.5 231t-161.5 80q-106 0 -191.5 -66t-125.5 -174l-99 -702h-198l88 631q22 151 -26.5 231t-162.5 80q-105 0 -190 -66
t-127 -174l-98 -702h-199l88 631q22 152 -25.5 231.5t-162.5 79.5q-103 0 -189 -66.5t-129 -175.5z" />
    <glyph glyph-name="o_o.dlig" horiz-adv-x="2363" 
d="M84 487q0 136 48 253.5t132 200t202 130t253 47.5q174 0 290.5 -73.5t174.5 -198.5h45q81 126 211 199t303 73q236 0 386 -140t150 -374q0 -136 -48 -253.5t-132.5 -201t-202.5 -131t-254 -47.5q-174 0 -289.5 73.5t-172.5 201.5h-45q-75 -126 -204.5 -200.5
t-305.5 -74.5q-153 0 -274.5 59.5t-194 178t-72.5 278.5zM287 494q0 -156 98.5 -249t261.5 -93q283 0 428 278h187q79 -278 366 -278q192 0 319.5 127t127.5 319q0 156 -99.5 249t-259.5 93q-282 0 -430 -278h-186q-77 278 -367 278q-193 0 -319.5 -127.5t-126.5 -318.5z
" />
    <glyph glyph-name="fi.ss01" horiz-adv-x="1304" 
d="M193 0l129 918h-220l25 167h219l35 244q10 76 68 121t143 45h274l17 -164h-303l-33 -246h307l-25 -167h-307l-129 -918h-200zM1063 1247l35 248h200l-34 -248h-201zM889 0l151 1085h199l-152 -1085h-198z" />
    <glyph glyph-name="f_f.liga.ss01" horiz-adv-x="1503" 
d="M193 0l129 918h-220l25 167h219l35 244q10 76 68 121t143 45h274l17 -164h-303l-33 -246h483l33 244q12 76 69 121t142 45h276l17 -164h-303l-35 -246h309l-25 -167h-309l-129 -918h-198l129 918h-484l-129 -918h-200z" />
    <glyph glyph-name="f_f_i.liga.ss01" horiz-adv-x="1988" 
d="M193 0l129 918h-220l25 167h219l35 244q10 76 68 121t143 45h274l17 -164h-303l-33 -246h483l33 244q12 76 69 121t142 45h276l17 -164h-303l-35 -246h309l-25 -167h-309l-129 -918h-198l129 918h-484l-129 -918h-200zM1745 1247l35 248h200l-34 -248h-201zM1571 0
l151 1085h199l-152 -1085h-198z" />
    <glyph glyph-name="f_t.liga.ss01" horiz-adv-x="1511" 
d="M322 918h-220l25 167h219l35 244q10 76 68 121t143 45h258l16 -164h-286l-33 -246h469l37 279l207 37l-46 -316h312l-25 -167h-311l-105 -744h269l-49 -174h-252q-94 0 -136 46.5t-30 131.5l104 740h-469l-129 -918h-200z" />
    <glyph glyph-name="t_f.liga.ss01" horiz-adv-x="1499" 
d="M309 918h-221l25 167h221l37 279l207 37l-46 -316h494l33 244q10 76 68 121t143 45h276l17 -164h-306l-32 -246h307l-25 -167h-307l-129 -918h-199l129 918h-493l-105 -744h269l-49 -174h-252q-94 0 -135.5 46.5t-30.5 131.5z" />
    <glyph glyph-name="t_i.liga.ss01" horiz-adv-x="1312" 
d="M1071 1247l35 248h201l-35 -248h-201zM623 0h-252q-94 0 -135.5 46.5t-30.5 131.5l104 740h-221l25 167h221l37 279l207 37l-46 -316h312l-25 -167h-311l-105 -744h269zM897 0l152 1085h198l-151 -1085h-199z" />
    <glyph glyph-name="t_t.liga.ss01" horiz-adv-x="1515" 
d="M309 918h-221l25 167h221l37 279l207 37l-46 -316h488l37 279l207 37l-45 -316h311l-25 -167h-311l-104 -744h268l-49 -174h-252q-94 0 -136 46.5t-30 131.5l104 740h-487l-105 -744h269l-49 -174h-252q-94 0 -135.5 46.5t-30.5 131.5z" />
    <glyph glyph-name="t_t_i.liga.ss01" horiz-adv-x="1998" 
d="M1757 1247l35 248h201l-35 -248h-201zM309 918h-221l25 167h221l37 279l207 37l-46 -316h488l37 279l207 37l-45 -316h311l-25 -167h-311l-104 -744h268l-49 -174h-252q-94 0 -136 46.5t-30 131.5l104 740h-487l-105 -744h269l-49 -174h-252q-94 0 -135.5 46.5
t-30.5 131.5zM1583 0l152 1085h198l-151 -1085h-199z" />
    <glyph glyph-name="zero.tf" horiz-adv-x="1441" 
d="M700 -37q-247 0 -392.5 179t-145.5 493q0 247 78.5 437t221.5 294t329 104q247 0 393.5 -179.5t146.5 -493.5q0 -185 -46 -340t-128 -264t-199.5 -169.5t-257.5 -60.5zM705 150q192 0 306.5 176t114.5 469q0 230 -90.5 359.5t-249.5 129.5q-192 0 -306.5 -176
t-114.5 -469q0 -230 90.5 -359.5t249.5 -129.5z" />
    <glyph glyph-name="one.tf" horiz-adv-x="1445" 
d="M973 1434l-174 -1258h448l-24 -176h-1145l24 176h490l96 684q27 209 131 328l-47 47q-92 -83 -240.5 -141t-298.5 -70l25 180q160 18 315.5 81.5t255.5 148.5h144z" />
    <glyph glyph-name="two.tf" 
d="M1208 0h-1110l23 168l727 469q285 183 285 383q0 131 -86.5 202.5t-225.5 71.5q-175 0 -282.5 -89t-124.5 -259l-197 19q29 239 197 371t420 132q142 0 256 -49.5t182.5 -148t68.5 -230.5q0 -88 -27 -164t-81.5 -142t-123 -121t-165.5 -115q-343 -220 -559 -336l31 -76
q167 88 413 88h404z" />
    <glyph glyph-name="three.tf" horiz-adv-x="1441" 
d="M700 -33q-266 0 -421 129.5t-158 362.5l190 30q0 -165 106 -256.5t290 -91.5q172 0 276 81t104 214q0 107 -73 163t-203 56h-211l23 160h168q169 0 261.5 63.5t92.5 182.5q0 111 -84 173t-234 62q-167 0 -272.5 -75.5t-132.5 -200.5l-180 49q41 186 202.5 292.5
t397.5 106.5q235 0 372.5 -103.5t137.5 -272.5q0 -124 -75 -210.5t-212 -117.5l-8 -72q108 -22 168.5 -100.5t60.5 -194.5q0 -132 -77 -230.5t-209 -149t-300 -50.5z" />
    <glyph glyph-name="four.tf" horiz-adv-x="1439" 
d="M1042 0h-196l43 324h-826l23 161l911 951h246l-129 -938h225l-24 -174h-230zM1024 1247l-725 -753l41 -58q75 62 264 62h314l55 415q24 187 106 285z" />
    <glyph glyph-name="five.tf" horiz-adv-x="1439" 
d="M111 403l190 41q24 -137 130.5 -220t268.5 -83q174 0 283 95t109 258q0 137 -88 221t-240 84q-113 0 -223.5 -48t-186.5 -128l-157 53l213 760h907l-27 -179h-739l-55 -192q-12 -47 -36.5 -98t-43.5 -80t-54 -78l52 -43q66 86 183.5 137t242.5 51q205 0 331.5 -127
t126.5 -331q0 -238 -165.5 -383.5t-436.5 -145.5q-244 0 -401 120t-184 316z" />
    <glyph glyph-name="six.tf" horiz-adv-x="1439" 
d="M727 -33q-274 0 -427 176.5t-153 474.5q0 245 95 439.5t262 302.5t375 108q199 0 334.5 -95.5t172.5 -258.5l-208 -51q-23 105 -109 167t-211 62q-215 0 -354 -167t-152 -447l56 -4q67 120 198 193t277 73q188 0 304 -119.5t116 -326.5q0 -237 -161 -382t-415 -145z
M739 141q162 0 261.5 96.5t99.5 254.5q0 139 -82.5 217.5t-220.5 78.5q-128 0 -250.5 -73.5t-196.5 -194.5q13 -176 119.5 -277.5t269.5 -101.5z" />
    <glyph glyph-name="seven.tf" 
d="M727 1257h-504l27 179h1196l-23 -160l-909 -1276h-240l2 16l701 951q68 91 96.5 128t75.5 86.5t100 90.5l-49 74q-151 -89 -473 -89z" />
    <glyph glyph-name="eight.tf" horiz-adv-x="1439" 
d="M102 350q0 151 101.5 255.5t269.5 129.5l6 60q-106 27 -166.5 98t-60.5 178q0 124 77.5 215t207.5 136.5t294 45.5q243 0 376.5 -97t133.5 -261q0 -137 -84.5 -222t-228.5 -106l-8 -59q130 -26 201 -111.5t71 -212.5q0 -142 -81 -240.5t-218 -145t-319 -46.5
q-273 0 -422.5 104t-149.5 279zM446 1049q0 -105 87.5 -164.5t246.5 -59.5q175 0 266 68t91 182q0 110 -87 166.5t-241 56.5q-170 0 -266.5 -66.5t-96.5 -182.5zM309 395q0 -126 100.5 -191t278.5 -65q194 0 300 76t106 211q0 127 -98.5 192.5t-272.5 65.5q-188 0 -301 -75
t-113 -214z" />
    <glyph glyph-name="nine.tf" horiz-adv-x="1439" 
d="M764 1468q271 0 423 -179t152 -486q0 -188 -54 -345t-149.5 -264.5t-229 -167t-290.5 -59.5q-194 0 -331 97.5t-176 257.5l206 53q26 -106 112.5 -169t205.5 -63q222 0 356 160t144 455l-54 6q-67 -128 -194.5 -198t-272.5 -70q-189 0 -304 118t-115 326
q0 241 158.5 384.5t412.5 143.5zM752 1294q-162 0 -260.5 -96.5t-98.5 -255.5q0 -138 82 -215.5t219 -77.5q135 0 254.5 68.5t186.5 197.5q-12 170 -118 274.5t-265 104.5z" />
    <glyph glyph-name="zero.dnom" horiz-adv-x="866" 
d="M387 -20q-143 0 -229 99.5t-86 274.5q0 202 100.5 327.5t261.5 125.5q144 0 231 -99.5t87 -275.5q0 -202 -101.5 -327t-263.5 -125zM389 109q99 0 158 88t59 233q0 117 -46 182.5t-128 65.5q-99 0 -159 -87.5t-60 -234.5q0 -116 47 -181.5t129 -65.5z" />
    <glyph glyph-name="one.dnom" horiz-adv-x="526" 
d="M289 0h-142l54 381q8 60 13.5 88t25.5 69t55 76l-37 39q-92 -105 -235 -116l20 122q170 33 252 129h104z" />
    <glyph glyph-name="two.dnom" horiz-adv-x="702" 
d="M573 0h-593l16 111l334 223q97 64 136.5 116t39.5 111q0 58 -38 92.5t-103 34.5q-75 0 -126.5 -45.5t-54.5 -130.5l-135 14q13 130 102.5 205.5t221.5 75.5q122 0 199 -64.5t77 -173.5q0 -105 -61.5 -178t-190.5 -147q-169 -102 -233 -135l22 -52q132 62 250 62h154z" />
    <glyph glyph-name="three.dnom" horiz-adv-x="737" 
d="M313 -18q-148 0 -232 71t-85 203l129 23q1 -86 52 -132.5t140 -46.5q83 0 131 39.5t48 104.5q0 52 -36.5 79t-103.5 27h-100l14 107h103q71 0 111 30.5t40 87.5q0 54 -39 84.5t-108 30.5q-81 0 -131 -39.5t-64 -103.5l-123 37q24 106 112.5 164.5t215.5 58.5
q130 0 205.5 -58t75.5 -153q0 -68 -40.5 -114.5t-115.5 -63.5l-6 -43q60 -12 93.5 -54t33.5 -106q0 -107 -89 -170t-231 -63z" />
    <glyph glyph-name="four.dnom" horiz-adv-x="808" 
d="M567 0h-141l23 168h-451l16 113l502 507h162l-70 -503h129l-18 -117h-129zM528 670l-378 -389l26 -35q51 39 158 39h133l25 184q16 108 67 162z" />
    <glyph glyph-name="five.dnom" horiz-adv-x="761" 
d="M2 225l131 31q14 -70 68.5 -113t138.5 -43t135 46t51 124q0 68 -45 110t-121 42q-117 0 -198 -84l-111 35l115 415h506l-17 -118h-389l-22 -72q-2 -12 -5.5 -23t-9.5 -23.5t-10 -20t-13.5 -20.5t-12 -17t-13.5 -18t-12 -15l31 -31q35 44 95 71t124 27q113 0 181.5 -70.5
t68.5 -185.5q0 -131 -91 -210.5t-241 -79.5q-137 0 -228 67.5t-106 175.5z" />
    <glyph glyph-name="six.dnom" horiz-adv-x="802" 
d="M379 -18q-159 0 -248.5 98.5t-89.5 265.5q0 203 118.5 332t297.5 129q116 0 195.5 -54t101.5 -145l-146 -35q-15 53 -58.5 84t-107.5 31q-109 0 -179 -84t-75 -217l35 -6q34 60 104 96.5t148 36.5q105 0 170.5 -65.5t65.5 -178.5q0 -130 -92 -209t-240 -79zM387 100
q82 0 132 46.5t50 121.5q0 68 -43.5 107t-115.5 39q-66 0 -126.5 -32.5t-97.5 -88.5q4 -88 59.5 -140.5t141.5 -52.5z" />
    <glyph glyph-name="seven.dnom" horiz-adv-x="679" 
d="M279 668h-224l19 120h606l-16 -108l-439 -680h-162l3 8l305 459q48 77 85.5 122.5t96.5 88.5l-31 51q-96 -61 -243 -61z" />
    <glyph glyph-name="eight.dnom" horiz-adv-x="817" 
d="M12 195q0 82 56 137t149 67l6 39q-61 15 -95 53.5t-34 96.5q0 101 95.5 160t242.5 59q144 0 222.5 -54.5t78.5 -146.5q0 -74 -47 -120.5t-125 -55.5l-4 -41q69 -12 110.5 -57t41.5 -115q0 -114 -98 -174.5t-261 -60.5q-160 0 -249 58t-89 155zM233 571q0 -54 45.5 -83
t129.5 -29q89 0 135.5 33.5t46.5 89.5q0 54 -46 82t-126 28q-86 0 -135.5 -32.5t-49.5 -88.5zM160 227q0 -63 52 -96t146 -33q100 0 155.5 38.5t55.5 103.5q0 63 -51.5 96t-144.5 33q-98 0 -155.5 -37t-57.5 -105z" />
    <glyph glyph-name="nine.dnom" horiz-adv-x="813" 
d="M389 807q160 0 250 -100t90 -271q0 -206 -117 -330t-297 -124q-115 0 -196 54t-103 144l146 33q15 -52 58.5 -81.5t105.5 -29.5q112 0 181 78.5t75 220.5l-37 5q-34 -63 -103 -98.5t-145 -35.5q-106 0 -172 66t-66 180q0 131 91.5 210t238.5 79zM381 688
q-81 0 -130.5 -46.5t-49.5 -121.5q0 -68 43 -106.5t116 -38.5q67 0 127.5 31t94.5 90q-4 86 -60 139t-141 53z" />
    <glyph glyph-name="zero.numr" horiz-adv-x="868" 
d="M477 627q-143 0 -229 99t-86 275q0 201 101 327t263 126q143 0 229.5 -100.5t86.5 -276.5q0 -201 -101 -325.5t-264 -124.5zM481 756q98 0 157.5 88t59.5 233q0 117 -47 182.5t-129 65.5q-97 0 -157 -87.5t-60 -233.5q0 -118 47 -183t129 -65z" />
    <glyph glyph-name="one.numr" horiz-adv-x="526" 
d="M379 645h-141l53 381q8 60 13.5 88.5t25.5 69.5t55 76l-37 38q-92 -105 -235 -116l20 123q170 33 252 129h104z" />
    <glyph glyph-name="two.numr" horiz-adv-x="702" 
d="M664 647h-592l16 111l334 221q97 65 136.5 117.5t39.5 111.5q0 58 -39 92.5t-102 34.5q-75 0 -127 -45.5t-56 -130.5l-133 12q12 130 101 206.5t223 76.5q122 0 198 -64t76 -173q0 -105 -61.5 -178.5t-188.5 -147.5q-155 -94 -233 -135l23 -51q130 61 247 61h156z" />
    <glyph glyph-name="three.numr" horiz-adv-x="737" 
d="M403 627q-148 0 -232 72t-85 204l129 23q1 -87 52.5 -134t140.5 -47q82 0 130 39.5t48 104.5q0 53 -36.5 80.5t-103.5 27.5h-100l14 105h103q71 0 111 32t40 89q0 54 -39 83t-108 29q-81 0 -131 -39t-64 -102l-122 35q24 107 112 166t215 59q130 0 205.5 -58.5
t75.5 -152.5q0 -68 -41 -115.5t-115 -62.5l-6 -43q60 -12 93.5 -54.5t33.5 -105.5q0 -107 -89 -171t-231 -64z" />
    <glyph glyph-name="four.numr" horiz-adv-x="808" 
d="M657 645h-139l23 168h-453l16 113l504 508h160l-70 -504h129l-18 -117h-129zM618 1315l-376 -389l24 -35q51 39 160 39h131l25 184q16 109 69 162z" />
    <glyph glyph-name="five.numr" horiz-adv-x="761" 
d="M92 870l131 31q14 -70 68.5 -113t138.5 -43t135 46t51 124q0 68 -44.5 110t-120.5 42q-118 0 -199 -84l-111 35l115 416h506l-17 -119h-389l-22 -72q-2 -12 -5.5 -23t-9.5 -23.5t-10 -20t-13.5 -20.5t-12 -17t-13.5 -18t-12 -15l31 -31q36 45 95.5 72t123.5 27
q113 0 181.5 -70.5t68.5 -185.5q0 -131 -91 -211t-241 -80q-137 0 -228 67.5t-106 175.5z" />
    <glyph glyph-name="six.numr" horiz-adv-x="802" 
d="M469 627q-159 0 -248.5 99.5t-89.5 266.5q0 202 118.5 331.5t297.5 129.5q116 0 195.5 -54.5t101.5 -146.5l-146 -32q-15 53 -58.5 82.5t-107.5 29.5q-110 0 -179 -83t-74 -216l34 -6q34 60 104 96.5t148 36.5q105 0 170.5 -66t65.5 -180q0 -130 -92 -209t-240 -79z
M477 748q82 0 132 45.5t50 121.5q0 68 -43.5 107t-115.5 39q-65 0 -126 -33t-98 -88q4 -89 59.5 -140.5t141.5 -51.5z" />
    <glyph glyph-name="seven.numr" horiz-adv-x="681" 
d="M371 1313h-224l19 121h606l-16 -109l-439 -680h-163l2 8l305 459q52 81 88.5 125t95.5 86l-33 51q-92 -61 -241 -61z" />
    <glyph glyph-name="eight.numr" horiz-adv-x="817" 
d="M104 842q0 83 56 138.5t149 66.5l6 38q-61 15 -95 53.5t-34 96.5q0 103 95 161t243 58q144 0 222.5 -54.5t78.5 -146.5q0 -74 -47 -120.5t-125 -55.5l-4 -39q69 -12 110.5 -58t41.5 -116q0 -114 -98 -174.5t-261 -60.5q-160 0 -249 58t-89 155zM326 1219q0 -53 45.5 -83
t128.5 -30q89 0 135.5 33.5t46.5 89.5q0 54 -46 82t-126 28q-86 0 -135 -32t-49 -88zM252 874q0 -63 52.5 -96t146.5 -33q100 0 155.5 38.5t55.5 103.5q0 63 -52 96t-145 33q-98 0 -155.5 -37t-57.5 -105z" />
    <glyph glyph-name="nine.numr" horiz-adv-x="813" 
d="M479 1454q160 0 250 -100t90 -271q0 -207 -116.5 -331.5t-296.5 -124.5q-115 0 -196.5 54.5t-103.5 145.5l146 33q15 -52 58.5 -82t105.5 -30q112 0 181 79t75 222l-37 4q-34 -64 -102.5 -98.5t-145.5 -34.5q-106 0 -171.5 65.5t-65.5 177.5q0 133 91 212t238 79z
M471 1335q-82 0 -131 -46.5t-49 -123.5q0 -68 43.5 -105.5t116.5 -37.5q66 0 126.5 30.5t94.5 88.5q-4 87 -60 140.5t-141 53.5z" />
    <glyph glyph-name="colon.case" horiz-adv-x="630" 
d="M381 918q-65 0 -104 37.5t-39 95.5q0 65 45 104t110 39q63 0 102.5 -37.5t39.5 -97.5q0 -64 -45 -102.5t-109 -38.5zM281 207q-64 0 -103 38t-39 97q0 64 45 102.5t109 38.5t103.5 -37t39.5 -96q0 -65 -45 -104t-110 -39z" />
    <glyph glyph-name="period.ss01" horiz-adv-x="550" 
d="M84 -2l33 221h227l-33 -221h-227z" />
    <glyph glyph-name="comma.ss01" horiz-adv-x="499" 
d="M68 -272l-93 53l168 219h-94l31 221h233l-30 -221z" />
    <glyph glyph-name="colon.ss01" horiz-adv-x="591" 
d="M213 766l31 221h227l-31 -221h-227zM106 -2l31 221h228l-31 -221h-228z" />
    <glyph glyph-name="semicolon.ss01" horiz-adv-x="610" 
d="M231 766l33 221h228l-31 -221h-230zM141 -272l-90 53l170 217h-96l31 221h227l-31 -221z" />
    <glyph glyph-name="exclam.ss01" horiz-adv-x="589" 
d="M334 473h-94l26 602l51 359h209l-51 -359zM111 -2l30 221h228l-31 -221h-227z" />
    <glyph glyph-name="question.ss01" horiz-adv-x="1257" 
d="M717 432h-180l36 262q200 3 316.5 89t116.5 243q0 122 -74.5 194t-204.5 72q-133 0 -226.5 -71.5t-129.5 -190.5l-178 47q51 178 202.5 283.5t354.5 105.5q211 0 336.5 -118t125.5 -306q0 -192 -128.5 -315t-348.5 -145zM459 -2l30 221h228l-31 -221h-227z" />
    <glyph glyph-name="asterisk.ss02" horiz-adv-x="968" 
d="M520 1104l-2 8q-23 5 -45.5 10.5t-40 10.5t-40 12t-35 11.5t-35.5 13t-31.5 11.5t-34 13t-31.5 12l31 66q63 -18 92 -26.5t82.5 -29.5t104.5 -49l10 7q0 124 37 305h73q-14 -181 -47 -305l4 -7q135 64 308 105l14 -66q-195 -68 -316 -94l-2 -10q38 -46 73 -98.5
t49.5 -77.5t49.5 -88l-63 -39q-4 6 -34.5 49t-43 62.5t-37 63t-45.5 89.5h-12q-21 -28 -43 -56t-38 -46.5t-41.5 -46t-36 -38.5t-39.5 -40.5t-36 -36.5l-49 39q9 11 37 44t38 44.5t34.5 39t41.5 44.5t43.5 42.5t55.5 51.5z" />
    <glyph glyph-name="slash.ss02" horiz-adv-x="901" 
d="M-10 0l868 1434h100l-868 -1434h-100z" />
    <glyph glyph-name="backslash.ss02" horiz-adv-x="892" 
d="M193 1434h90l467 -1434h-91z" />
    <glyph glyph-name="parenleft.case" horiz-adv-x="786" 
d="M178 504q0 320 143 624.5t414 563.5l117 -97q-78 -78 -145 -161.5t-132.5 -192t-111 -222t-73.5 -252t-28 -282.5q0 -375 234 -710l-127 -86q-291 374 -291 815z" />
    <glyph glyph-name="parenright.case" horiz-adv-x="800" 
d="M664 866q0 -317 -141.5 -622.5t-413.5 -567.5l-117 99q97 98 177.5 206.5t154 247.5t115.5 308.5t42 349.5q0 375 -233 708l127 88q289 -371 289 -817z" />
    <glyph glyph-name="braceleft.case" horiz-adv-x="749" 
d="M139 -23l68 484q9 73 -10 100t-82 27h-47l34 237h45q63 0 90.5 26.5t36.5 98.5l62 441q22 151 94 216.5t219 65.5h193l-25 -170h-172q-65 0 -99 -36t-46 -121l-60 -428q-11 -79 -60 -128.5t-122 -50.5l-10 -67q71 -3 107 -51.5t26 -126.5l-68 -471q-11 -82 12.5 -119
t92.5 -37h170l-25 -170h-190q-45 0 -79.5 5t-65 17.5t-49.5 33t-32.5 52t-13.5 74t6 98.5z" />
    <glyph glyph-name="braceright.case" horiz-adv-x="747" 
d="M518 461l-67 -484q-22 -151 -94 -215.5t-220 -64.5h-190l24 170h170q67 0 101 36.5t45 119.5l67 471q12 78 61.5 126.5t121.5 51.5l8 67q-71 2 -107 51t-24 128l61 428q11 82 -11 119.5t-91 37.5h-172l24 170h191q142 0 199 -64t36 -218l-63 -441q-9 -70 9 -97.5
t83 -27.5h47l-35 -237h-45q-63 0 -91 -27t-38 -100z" />
    <glyph glyph-name="bracketleft.case" horiz-adv-x="696" 
d="M524 -303h-465l279 1976h465l-23 -166h-297l-231 -1644h297z" />
    <glyph glyph-name="bracketright.case" horiz-adv-x="696" 
d="M676 1673l-277 -1976h-467l25 166h295l231 1644h-295l23 166h465z" />
    <glyph glyph-name="parenleft.ss02" horiz-adv-x="628" 
d="M117 401q0 333 143 641.5t412 561.5l57 -54q-240 -232 -379 -523t-139 -632q0 -405 252 -739l-64 -49q-282 358 -282 794z" />
    <glyph glyph-name="parenright.ss02" horiz-adv-x="630" 
d="M530 801q0 -329 -142 -637.5t-413 -562.5l-57 55q114 110 205 233t163 266.5t111 311t39 344.5q0 405 -252 739l64 47q282 -357 282 -796z" />
    <glyph glyph-name="braceleft.ss02" horiz-adv-x="722" 
d="M106 -18l72 507q10 75 -9 103.5t-81 28.5h-37l19 131h36q62 0 89.5 28t37.5 103l66 467q19 129 78.5 188t169.5 59h252l-13 -86h-243q-68 0 -107 -42.5t-51 -133.5l-66 -473q-21 -148 -155 -157l-6 -37q131 -9 110 -158l-71 -516q-12 -91 13.5 -132.5t94.5 -41.5h244
l-12 -86h-252q-103 0 -151 54.5t-28 193.5z" />
    <glyph glyph-name="braceright.ss02" horiz-adv-x="675" 
d="M479 449l-65 -467q-19 -129 -78.5 -188.5t-169.5 -59.5h-211l12 86h203q68 0 107 42.5t51 133.5l65 473q10 74 50.5 113.5t105.5 44.5l6 37q-132 9 -111 157l72 516q12 91 -13.5 132.5t-94.5 41.5h-203l12 86h211q103 0 150.5 -54t27.5 -193l-71 -508q-10 -75 9 -103
t81 -28h37l-19 -131h-37q-62 0 -89.5 -28t-37.5 -103z" />
    <glyph glyph-name="bracketleft.ss02" horiz-adv-x="679" 
d="M518 -266h-465l262 1863h465l-12 -86h-377l-237 -1691h376z" />
    <glyph glyph-name="bracketright.ss02" horiz-adv-x="679" 
d="M659 1597l-262 -1863h-465l13 86h377l237 1691h-377l13 86h464z" />
    <glyph glyph-name="hyphen.case" horiz-adv-x="866" 
d="M182 618l25 177h524l-24 -177h-525z" />
    <glyph glyph-name="endash.case" horiz-adv-x="1163" 
d="M119 618l24 177h951l-25 -177h-950z" />
    <glyph glyph-name="emdash.case" horiz-adv-x="1722" 
d="M109 618l24 177h1532l-25 -177h-1531z" />
    <glyph glyph-name="hyphen.ss02" horiz-adv-x="823" 
d="M174 565l12 88h484l-13 -88h-483z" />
    <glyph glyph-name="endash.ss02" horiz-adv-x="1218" 
d="M164 565l12 88h897l-12 -88h-897z" />
    <glyph glyph-name="emdash.ss02" horiz-adv-x="1802" 
d="M164 565l12 88h1481l-12 -88h-1481z" />
    <glyph glyph-name="hyphen.case.ss02" horiz-adv-x="823" 
d="M188 668l13 88h483l-12 -88h-484z" />
    <glyph glyph-name="endash.case.ss02" horiz-adv-x="1218" 
d="M178 668l12 88h897l-12 -88h-897z" />
    <glyph glyph-name="emdash.case.ss02" horiz-adv-x="1802" 
d="M178 668l12 88h1481l-12 -88h-1481z" />
    <glyph glyph-name="guillemotleft.case" horiz-adv-x="1241" 
d="M354 733l230 -559h-217l-240 574l381 546h233zM834 721l233 -547h-219l-240 559l398 561h231z" />
    <glyph glyph-name="guillemotright.case" horiz-adv-x="1241" 
d="M289 174h-232l406 574l-234 546h217l242 -561zM786 174h-233l389 559l-231 561h217l239 -573z" />
    <glyph glyph-name="guilsinglleft.case" horiz-adv-x="704" 
d="M336 733l223 -559h-219l-231 571l374 549h234z" />
    <glyph glyph-name="guilsinglright.case" horiz-adv-x="706" 
d="M276 174h-231l381 559l-225 561h219l229 -571z" />
    <glyph glyph-name="quotesinglbase.ss01" horiz-adv-x="499" 
d="M68 -272l-93 53l168 219h-94l31 221h233l-30 -221z" />
    <glyph glyph-name="quotedblbase.ss01" horiz-adv-x="872" 
d="M68 -272l-93 53l168 219h-94l31 221h233l-30 -221zM440 -272l-92 53l168 219h-96l33 221h233l-33 -221z" />
    <glyph glyph-name="quotedblleft.ss01" horiz-adv-x="854" 
d="M436 1470l92 -55l-168 -219h97l-33 -221h-234l33 221zM809 1470l92 -55l-168 -219h94l-30 -221h-234l31 221z" />
    <glyph glyph-name="quotedblright.ss01" horiz-adv-x="856" 
d="M246 969l-92 53l168 219h-95l31 221h234l-31 -221zM618 969l-92 53l168 219h-96l33 221h233l-33 -221z" />
    <glyph glyph-name="quoteleft.ss01" horiz-adv-x="481" 
d="M430 1470l92 -55l-168 -219h97l-33 -221h-234l33 221z" />
    <glyph glyph-name="quoteright.ss01" horiz-adv-x="481" 
d="M246 969l-92 53l168 219h-95l31 221h234l-31 -221z" />
    <glyph glyph-name="hyphen_hyphen.dlig" horiz-adv-x="1386" 
d="M1214 541h-1042l25 178h1042z" />
    <glyph glyph-name="hyphen_hyphen_greater.dlig" horiz-adv-x="1716" 
d="M987 1163l127 113l500 -582l-656 -577l-104 121l254 221q41 36 81 64t67.5 42.5t78.5 40.5l-12 60q-131 -48 -246 -48l-934 -4l25 172l934 5q99 0 231 -48l31 60q-47 27 -70 41.5t-53.5 39.5t-56.5 56z" />
    <glyph glyph-name="emdash_emdash.dlig" horiz-adv-x="2531" 
d="M1098 631h-901v92h901l-178 207l20 16l209 -162q17 58 76 58q35 0 54 -22t13 -56q6 35 28 56.5t54 21.5q44 0 60 -37l264 217l18 -16l-254 -283h910v-92h-910l176 -205l-18 -16l-209 161q-17 -57 -78 -57q-34 0 -52.5 22t-12.5 56q-6 -35 -28 -56.5t-54 -21.5
q-44 0 -60 37l-264 -217l-18 16z" />
    <glyph glyph-name="parenleft_arrowup_parenright.dlig" horiz-adv-x="2197" 
d="M1126 -217q-193 0 -369 75.5t-304 202.5t-203.5 302.5t-75.5 367.5t75.5 367t203.5 301.5t304 202t369 75.5t369 -75.5t303.5 -202.5t203 -302t75.5 -366q0 -192 -75.5 -367t-203 -302.5t-303.5 -203t-369 -75.5zM1126 -53q159 0 304.5 62t250.5 167t167.5 250t62.5 305
q0 212 -105.5 393t-286.5 286.5t-393 105.5q-160 0 -305.5 -62.5t-250.5 -167.5t-167.5 -250.5t-62.5 -304.5q0 -160 62.5 -305t167.5 -250t250.5 -167t305.5 -62zM719 690l-115 117l524 522l521 -522l-117 -117l-186 189q-55 55 -119 180l-62 -21q17 -46 25.5 -70.5
t17.5 -71.5t9 -93v-639h-177v639q0 96 47 235l-59 25q-31 -57 -43.5 -79t-34.5 -53t-45 -54z" />
    <glyph glyph-name="uni0028_uni2197_uni0029.dlig" horiz-adv-x="2197" 
d="M1126 -217q-193 0 -369 75.5t-304 202.5t-203.5 302.5t-75.5 367.5t75.5 367t203.5 301.5t304 202t369 75.5t369 -75.5t303.5 -202.5t203 -302t75.5 -366q0 -192 -75.5 -367t-203 -302.5t-303.5 -203t-369 -75.5zM1126 -53q159 0 304.5 62t250.5 167t167.5 250t62.5 305
q0 212 -105.5 393t-286.5 286.5t-393 105.5q-160 0 -305.5 -62.5t-250.5 -167.5t-167.5 -250.5t-62.5 -304.5q0 -160 62.5 -305t167.5 -250t250.5 -167t305.5 -62zM836 1018l2 166h739l-2 -740h-164v265q0 70 45 213l-59 26q-52 -117 -133 -198l-467 -471l-123 122l467 471
q10 10 21 20t19.5 17.5t21 16.5t19.5 14t21.5 13t19 11t20.5 11l19 9.5t20.5 10t18.5 9.5l-24 59q-141 -43 -217 -43z" />
    <glyph glyph-name="parenleft_arrowright_parenright.dlig" horiz-adv-x="2197" 
d="M1126 -217q-193 0 -369 75.5t-304 202.5t-203.5 302.5t-75.5 367.5t75.5 367t203.5 301.5t304 202t369 75.5t369 -75.5t303.5 -202.5t203 -302t75.5 -366q0 -192 -75.5 -367t-203 -302.5t-303.5 -203t-369 -75.5zM1126 -53q159 0 304.5 62t250.5 167t167.5 250t62.5 305
q0 212 -105.5 393t-286.5 286.5t-393 105.5q-160 0 -305.5 -62.5t-250.5 -167.5t-167.5 -250.5t-62.5 -304.5q0 -160 62.5 -305t167.5 -250t250.5 -167t305.5 -62zM1081 1139l117 114l522 -522l-522 -522l-117 117l187 186q35 33 72.5 56.5t111.5 62.5l-25 61
q-115 -47 -235 -47l-660 -2v172l660 2q48 1 97.5 -8t72.5 -16.5t65 -22.5l25 59q-124 66 -184 123z" />
    <glyph glyph-name="uni0028_uni2198_uni0029.dlig" horiz-adv-x="2197" 
d="M1126 -217q-193 0 -369 75.5t-304 202.5t-203.5 302.5t-75.5 367.5t75.5 367t203.5 301.5t304 202t369 75.5t369 -75.5t303.5 -202.5t203 -302t75.5 -366q0 -192 -75.5 -367t-203 -302.5t-303.5 -203t-369 -75.5zM1126 -53q159 0 304.5 62t250.5 167t167.5 250t62.5 305
q0 212 -105.5 393t-286.5 286.5t-393 105.5q-160 0 -305.5 -62.5t-250.5 -167.5t-167.5 -250.5t-62.5 -304.5q0 -160 62.5 -305t167.5 -250t250.5 -167t305.5 -62zM1405 1051l164 2v-742h-740l2 166l265 -2q70 0 213 -45l26 59q-112 48 -198 134l-471 464l122 123l469 -465
q12 -12 23.5 -24t21.5 -25t17.5 -23t16 -24.5t13 -21.5t12.5 -22.5t10.5 -20t10.5 -21t9 -18.5l61 26q-47 137 -47 215v265z" />
    <glyph glyph-name="parenleft_arrowdown_parenright.dlig" horiz-adv-x="2197" 
d="M1126 -217q-193 0 -369 75.5t-304 202.5t-203.5 302.5t-75.5 367.5t75.5 367t203.5 301.5t304 202t369 75.5t369 -75.5t303.5 -202.5t203 -302t75.5 -366q0 -192 -75.5 -367t-203 -302.5t-303.5 -203t-369 -75.5zM1126 -53q159 0 304.5 62t250.5 167t167.5 250t62.5 305
q0 212 -105.5 393t-286.5 286.5t-393 105.5q-160 0 -305.5 -62.5t-250.5 -167.5t-167.5 -250.5t-62.5 -304.5q0 -160 62.5 -305t167.5 -250t250.5 -167t305.5 -62zM1128 143l-524 523l115 116l186 -186q34 -34 59 -73t64 -111l59 24l-5 16q-6 16 -7 19t-6 19t-6.5 22
l-5.5 22t-5.5 25t-4.5 25t-4 28.5t-2 28t-1 31.5v637h177v-637q0 -47 -9 -93.5t-17.5 -72t-25.5 -70.5l62 -22q60 110 91 149q13 17 28 33l186 186l117 -116z" />
    <glyph glyph-name="uni0028_uni2199_uni0029.dlig" horiz-adv-x="2197" 
d="M1126 -217q-193 0 -369 75.5t-304 202.5t-203.5 302.5t-75.5 367.5t75.5 367t203.5 301.5t304 202t369 75.5t369 -75.5t303.5 -202.5t203 -302t75.5 -366q0 -192 -75.5 -367t-203 -302.5t-303.5 -203t-369 -75.5zM1126 -53q159 0 304.5 62t250.5 167t167.5 250t62.5 305
q0 212 -105.5 393t-286.5 286.5t-393 105.5q-160 0 -305.5 -62.5t-250.5 -167.5t-167.5 -250.5t-62.5 -304.5q0 -160 62.5 -305t167.5 -250t250.5 -167t305.5 -62zM698 293l-2 739h166v-264q-3 -89 -47 -215l62 -27q1 3 15.5 32.5t22 42t23 38t33 47t39.5 43.5l469 463
l123 -123l-472 -465q-78 -78 -198 -133l26 -59q146 47 216 47h262l2 -166h-740z" />
    <glyph glyph-name="parenleft_arrowleft_parenright.dlig" horiz-adv-x="2197" 
d="M1124 -219q-193 0 -369 75.5t-303 202.5t-202.5 302.5t-75.5 367.5q0 191 75.5 366t202.5 302t303 202.5t369 75.5t369.5 -75.5t304 -202.5t203.5 -302t76 -366q0 -192 -76 -367.5t-203.5 -302.5t-304 -202.5t-369.5 -75.5zM1124 -57q159 0 304.5 62.5t250.5 167.5
t167.5 250.5t62.5 305.5q0 159 -62.5 304t-167.5 249.5t-250.5 166.5t-304.5 62t-304 -62t-250.5 -166.5t-167.5 -249.5t-62 -304q0 -160 62 -305.5t167.5 -250.5t250.5 -167.5t304 -62.5zM530 727l523 524l114 -116l-186 -187q-49 -49 -184 -121l24 -59q139 47 236 47
l661 -2v-174l-661 4q-118 0 -236 47l-24 -61q53 -28 74.5 -40t54 -34t55.5 -45l186 -186l-114 -117z" />
    <glyph glyph-name="uni0028_uni2196_uni0029.dlig" horiz-adv-x="2197" 
d="M1124 -219q-193 0 -369 75.5t-303 202.5t-202.5 302.5t-75.5 367.5q0 191 75.5 366t202.5 302t303 202.5t369 75.5t369.5 -75.5t304 -202.5t203.5 -302t76 -366q0 -192 -76 -367.5t-203.5 -302.5t-304 -202.5t-369.5 -75.5zM1124 -57q159 0 304.5 62.5t250.5 167.5
t167.5 250.5t62.5 305.5q0 159 -62.5 304t-167.5 249.5t-250.5 166.5t-304.5 62t-304 -62t-250.5 -166.5t-167.5 -249.5t-62 -304q0 -160 62 -305.5t167.5 -250.5t250.5 -167.5t304 -62.5zM696 1180h740v-164l-262 2q-70 0 -218 41l-26 -58q48 -23 69 -33.5t59.5 -37.5
t71.5 -60l467 -471l-122 -125l-467 471q-77 82 -134 201l-57 -26q45 -153 45 -213v-267h-164z" />
    <glyph glyph-name="registered.calt" horiz-adv-x="1847" 
d="M920 -31q-223 0 -399.5 94t-277 266.5t-100.5 393.5q0 174 64 325t175 256.5t265.5 165.5t329.5 60q167 0 311.5 -54.5t248 -151.5t163 -238t59.5 -308q0 -175 -65 -326.5t-177.5 -257t-267 -165.5t-329.5 -60zM926 98q198 0 355.5 84t247 238.5t89.5 351.5
q0 285 -179.5 457t-467.5 172q-198 0 -354 -84t-244 -237t-88 -349q0 -283 176.5 -458t464.5 -175zM748 356h-166l112 793h377q141 0 211 -57t70 -156q0 -102 -72 -164.5t-199 -66.5l-2 -35q50 -12 79 -41t52 -90l33 -88q16 -54 55 -68l-4 -27h-174q-20 16 -39 74l-37 113
q-21 62 -50.5 86t-90.5 24h-112zM842 1020l-35 -250h203q82 0 124 36.5t42 98.5q0 58 -35.5 86.5t-98.5 28.5h-200z" />
    <glyph glyph-name="at.case" horiz-adv-x="2164" 
d="M1012 -262q-190 0 -353 62t-279 173.5t-181.5 273.5t-65.5 355q0 219 80.5 404t221.5 312.5t337 199t422 71.5q258 0 461 -96.5t316.5 -272.5t113.5 -401q0 -137 -39.5 -254.5t-106 -195.5t-153.5 -122t-182 -44q-101 0 -165 48t-81 134h-53q-54 -83 -158.5 -132.5
t-226.5 -49.5q-167 0 -264 106t-97 285q0 121 41 226t111 177t165.5 113t202.5 41q126 0 215 -53.5t119 -145.5h53l56 170h176l-166 -542q-34 -107 -11 -167.5t103 -60.5q126 0 212.5 129t86.5 324q0 138 -51.5 255t-145 201t-231 131.5t-303.5 47.5q-198 0 -364 -61
t-281.5 -170.5t-179.5 -265.5t-64 -341q0 -167 56.5 -303.5t155 -226.5t232 -138.5t289.5 -48.5q160 0 312.5 45t269.5 127l61 -133q-117 -83 -300 -134.5t-367 -51.5zM1022 371q175 0 285 139l71 268q-15 96 -82 149.5t-172 53.5q-153 0 -249.5 -103t-96.5 -257
q0 -119 65 -184.5t179 -65.5z" />
    <glyph glyph-name="ampersand.ss02" horiz-adv-x="1337" 
d="M90 332q0 166 118 288t310 156q-111 91 -162 166.5t-51 177.5q0 156 108.5 250t266.5 94q157 0 254.5 -90t97.5 -225q0 -139 -107 -238.5t-282 -124.5l-8 -30q115 -88 248 -226l112 -116q110 121 187 325l84 -39q-93 -219 -242 -317l-6 -37q79 -65 137.5 -162t73.5 -184
h-117q-33 148 -106 274h-39q-65 -144 -196 -224.5t-288 -80.5q-179 0 -286 102t-107 261zM399 1126q0 -46 13 -84.5t43.5 -77t65 -70t93.5 -79.5q324 104 324 328q0 107 -73.5 173t-192.5 66q-122 0 -197.5 -71.5t-75.5 -184.5zM186 342q0 -130 82.5 -207.5t229.5 -77.5
q149 0 267.5 80t172.5 209l-367 373q-182 -30 -283.5 -132t-101.5 -245z" />
    <glyph glyph-name="bar_bar.dlig" horiz-adv-x="1259" 
d="M1214 1434l-77 -562h-918l78 562h917zM96 0l78 561h918l-78 -561h-918z" />
    <glyph glyph-name="less_hyphen_hyphen.dlig" horiz-adv-x="1734" 
d="M1622 780l-25 -172h-933q-105 0 -230 47l-31 -59q65 -36 103.5 -64t77.5 -73l196 -230l-127 -110l-501 586l653 573l104 -121l-250 -217q-13 -11 -25.5 -21.5t-23 -18.5t-23.5 -17t-21 -15t-22.5 -14.5t-21 -12.5t-23 -12.5t-22 -11.5t-24.5 -13t-25 -13l16 -58
q118 45 244 47h934z" />
    <glyph glyph-name="uni0308.ss01" horiz-adv-x="0" 
d="M-682 1260l33 235h198l-30 -235h-201zM-193 1260l33 235h201l-33 -235h-201z" />
    <glyph glyph-name="uni0307.ss01" horiz-adv-x="0" 
d="M-168 1260l33 235h198l-32 -235h-199z" />
    <glyph glyph-name="dotaccent.ss01" horiz-adv-x="337" 
d="M170 1260l33 235h198l-32 -235h-199z" />
    <glyph glyph-name="dieresis.ss01" horiz-adv-x="874" 
d="M193 1260l32 235h199l-31 -235h-200zM682 1260l33 235h200l-32 -235h-201z" />
    </font>
</defs>
</svg>
