<?xml version="1.0" standalone="no"?>
<!DOCTYPE svg PUBLIC "-//W3C//DTD SVG 1.1//EN" "http://www.w3.org/Graphics/SVG/1.1/DTD/svg11.dtd" >
<svg xmlns="http://www.w3.org/2000/svg" xmlns:xlink="http://www.w3.org/1999/xlink" version="1.1">
<metadata>
Created by FontForge 20170731 at Wed Dec 14 08:56:27 2022
 By Aleksey,,,
Copyright (c) 2020 by Doni Sukma. All rights reserved.
</metadata>
<defs>
<font id="Bauziet-Norm-SemiBold" horiz-adv-x="0" >
  <font-face 
    font-family="SemiBold"
    font-weight="600"
    font-stretch="normal"
    units-per-em="2048"
    panose-1="0 0 7 0 0 0 0 0 0 0"
    ascent="1495"
    descent="-553"
    x-height="1085"
    cap-height="1434"
    bbox="-956 -535 3219 2068"
    underline-thickness="102"
    underline-position="-307"
    unicode-range="U+0020-1F642"
  />
<missing-glyph horiz-adv-x="2230" 
d="M1939 0h-1720l31 172q75 0 121 27t65 106l156 897q5 40 -3.5 65.5t-31 36.5t-46.5 14.5t-60 2.5l32 172l531 2l-29 -172h-9.5h-14t-16.5 -1t-19.5 -3t-20.5 -6t-20.5 -10t-19 -15.5t-17.5 -21t-13.5 -28t-9.5 -36.5l-149 -811q-18 -96 -37 -148.5t-61 -88.5l28 -37
q40 33 96.5 49t94.5 18t112 2h674q32 0 47.5 0.5t40.5 3.5t38.5 10.5t29 20.5t24.5 34t15 50l32 201h201zM1718 1278q0 59 35.5 94t93.5 35q57 0 91 -34.5t34 -94.5q0 -55 -34.5 -90t-90.5 -35q-57 0 -93 35.5t-36 89.5zM1749 1282q0 -49 26 -77.5t72 -28.5q43 0 69 29
t26 73q0 47 -25.5 74.5t-69.5 27.5q-48 0 -73 -26t-25 -72zM1829 1217h-27v124h56q18 0 32.5 -10t14.5 -31q0 -13 -8 -23.5t-19 -12.5l27 -47h-31l-21 43h-24v-43zM1829 1319v-41h24q9 0 17 5.5t8 12.5q0 23 -20 23h-29zM1190 336h-393l30 168h228l6 37q-91 46 -137.5 127.5
t-46.5 183.5q0 183 131.5 303.5t343.5 120.5q192 0 310 -100.5t118 -264.5q0 -132 -77.5 -233.5t-203.5 -136.5l-8 -37h209l-23 -168h-397l41 246q120 19 195 99.5t75 190.5q0 106 -66.5 169t-178.5 63q-127 0 -206 -78t-79 -199q0 -91 47 -157t123 -88z" />
    <glyph glyph-name="fi" unicode="fi" horiz-adv-x="1390" 
d="M942 1413q0 75 47 121.5t125 46.5t126 -46.5t48 -121.5q0 -74 -48 -120t-126 -46t-125 46t-47 120zM250 858h-213v227h213v101q0 330 381 330q81 0 139 -15l33 -225q-54 14 -111 14q-91 0 -129.5 -29t-38.5 -112v-64h727v-1085h-274v858h-453v-858h-274v858z" />
    <glyph glyph-name="f_f.liga" unicode="ff" horiz-adv-x="1564" 
d="M250 858h-213v227h213v101q0 330 381 330q81 0 139 -15l33 -225q-54 14 -111 14q-91 0 -129.5 -29t-38.5 -112v-64h437v101q0 330 380 330q82 0 140 -15l32 -225q-54 14 -110 14q-91 0 -129.5 -29t-38.5 -112v-64h303v-227h-303v-858h-274v858h-437v-858h-274v858z" />
    <glyph glyph-name="f_f_i.liga" unicode="ffi" horiz-adv-x="2101" 
d="M1653 1413q0 75 47 121.5t125 46.5t126 -46.5t48 -121.5q0 -74 -48 -120t-126 -46t-125 46t-47 120zM250 858h-213v227h213v101q0 330 381 330q81 0 139 -15l33 -225q-54 14 -111 14q-91 0 -129.5 -29t-38.5 -112v-64h437v101q0 330 380 330q82 0 140 -15l32 -225
q-54 14 -110 14q-91 0 -129.5 -29t-38.5 -112v-64h727v-1085h-274v858h-453v-858h-274v858h-437v-858h-274v858z" />
    <glyph glyph-name="f_t.liga" unicode="ft" horiz-adv-x="1611" 
d="M250 858h-213v227h213v101q0 330 381 330q81 0 139 -15l33 -225q-54 14 -111 14q-91 0 -129.5 -29t-38.5 -112v-64h443v273l272 49v-322h311v-227h-311v-483q0 -82 27 -116t106 -34q71 0 139 31l-34 -258q-80 -25 -179 -25q-94 0 -159.5 24.5t-102.5 71.5t-53 107
t-16 141v541h-443v-858h-274v858z" />
    <glyph glyph-name="t_f.liga" unicode="tf" horiz-adv-x="1585" 
d="M238 858h-211v227h211v273l274 49v-322h467v101q0 330 381 330q81 0 139 -15l35 -225q-54 14 -111 14q-92 0 -131 -29t-39 -112v-64h306v-227h-306v-858h-274v858h-467v-483q0 -82 27 -116t106 -34q71 0 139 31l-34 -258q-84 -25 -181 -25q-180 0 -255.5 89t-75.5 255
v541z" />
    <glyph glyph-name="t_i.liga" unicode="ti" horiz-adv-x="1394" 
d="M946 1413q0 75 47 121.5t125 46.5t126 -46.5t48 -121.5q0 -74 -48 -120t-126 -46t-125 46t-47 120zM238 858h-211v227h211v273l272 49v-322h745v-1085h-272v858h-473v-483q0 -83 26.5 -116.5t106.5 -33.5q67 0 139 31l-37 -258q-80 -25 -178 -25q-179 0 -254 89t-75 255
v541z" />
    <glyph glyph-name="t_t.liga" unicode="tt" horiz-adv-x="1615" 
d="M238 858h-211v227h211v273l274 49v-322h457v273l274 49v-322h311v-227h-311v-483q0 -82 27 -116t106 -34q72 0 140 31l-35 -258q-84 -25 -181 -25q-180 0 -255.5 89t-75.5 255v541h-457v-483q0 -82 27 -116t106 -34q71 0 139 31l-34 -258q-84 -25 -181 -25
q-180 0 -255.5 89t-75.5 255v541z" />
    <glyph glyph-name="t_t_i.liga" unicode="tti" horiz-adv-x="2115" 
d="M1665 1413q0 75 47.5 121.5t124.5 46.5q78 0 127 -46.5t49 -121.5q0 -74 -49 -120t-127 -46q-76 0 -124 46t-48 120zM238 858h-211v227h211v273l274 49v-322h457v273l274 49v-322h733v-1085h-274v858h-459v-483q0 -82 27 -116t106 -34q72 0 140 31l-35 -258
q-84 -25 -181 -25q-180 0 -255.5 89t-75.5 255v541h-457v-483q0 -82 27 -116t106 -34q71 0 139 31l-34 -258q-84 -25 -181 -25q-180 0 -255.5 89t-75.5 255v541z" />
    <glyph glyph-name=".notdef" horiz-adv-x="2230" 
d="M1939 0h-1720l31 172q75 0 121 27t65 106l156 897q5 40 -3.5 65.5t-31 36.5t-46.5 14.5t-60 2.5l32 172l531 2l-29 -172h-9.5h-14t-16.5 -1t-19.5 -3t-20.5 -6t-20.5 -10t-19 -15.5t-17.5 -21t-13.5 -28t-9.5 -36.5l-149 -811q-18 -96 -37 -148.5t-61 -88.5l28 -37
q40 33 96.5 49t94.5 18t112 2h674q32 0 47.5 0.5t40.5 3.5t38.5 10.5t29 20.5t24.5 34t15 50l32 201h201zM1718 1278q0 59 35.5 94t93.5 35q57 0 91 -34.5t34 -94.5q0 -55 -34.5 -90t-90.5 -35q-57 0 -93 35.5t-36 89.5zM1749 1282q0 -49 26 -77.5t72 -28.5q43 0 69 29
t26 73q0 47 -25.5 74.5t-69.5 27.5q-48 0 -73 -26t-25 -72zM1829 1217h-27v124h56q18 0 32.5 -10t14.5 -31q0 -13 -8 -23.5t-19 -12.5l27 -47h-31l-21 43h-24v-43zM1829 1319v-41h24q9 0 17 5.5t8 12.5q0 23 -20 23h-29zM1190 336h-393l30 168h228l6 37q-91 46 -137.5 127.5
t-46.5 183.5q0 183 131.5 303.5t343.5 120.5q192 0 310 -100.5t118 -264.5q0 -132 -77.5 -233.5t-203.5 -136.5l-8 -37h209l-23 -168h-397l41 246q120 19 195 99.5t75 190.5q0 106 -66.5 169t-178.5 63q-127 0 -206 -78t-79 -199q0 -91 47 -157t123 -88z" />
    <glyph glyph-name=".null" 
 />
    <glyph glyph-name="nonmarkingreturn" horiz-adv-x="682" 
 />
    <glyph glyph-name="space" unicode=" " horiz-adv-x="534" 
 />
    <glyph glyph-name="exclam" unicode="!" horiz-adv-x="659" 
d="M387 500h-115l-84 610v324h283v-324zM330 -20q-84 0 -132 42t-48 125t48 126.5t132 43.5q82 0 131 -44t49 -126q0 -81 -49 -124t-131 -43z" />
    <glyph glyph-name="quotedbl" unicode="&#x22;" horiz-adv-x="872" 
d="M96 852v582h236v-582h-236zM541 852v582h235v-582h-235z" />
    <glyph glyph-name="numbersign" unicode="#" horiz-adv-x="1529" 
d="M422 0h-227l49 174q40 139 133 217l-41 51q-36 -36 -97 -61t-135 -25h-41v203h283l94 336h-233v205h287l92 334h227l-43 -152q-40 -139 -131 -217l41 -51q86 86 246 86h82l92 334h229l-41 -148q-23 -85 -54 -132t-81 -89l43 -51q34 36 94.5 61t136.5 25h39v-205h-282
l-94 -336h233v-203h-285l-100 -356h-227l47 170q40 144 133 221l-41 51q-36 -36 -96 -61t-136 -25h-98zM668 895l-93 -336h285l96 336h-288z" />
    <glyph glyph-name="dollar" unicode="$" horiz-adv-x="1452" 
d="M78 465l276 47q15 -265 297 -305v407q-100 21 -169 41.5t-140 54.5t-113.5 77t-69 108t-26.5 149q0 186 141.5 296t376.5 124q-16 88 -16 209h209q3 -101 -17 -213q227 -25 372.5 -142t170.5 -290l-274 -59q-17 104 -86 167.5t-181 82.5v-369l48 -12q181 -40 258 -73
q193 -82 230 -253q9 -44 9 -94q0 -204 -146 -321.5t-401 -131.5q20 -112 17 -209h-209q0 120 16 211q-266 21 -413.5 153t-159.5 345zM422 1098q0 -84 55 -132t174 -77v149q0 156 76 211l-39 78q-37 -5 -72.5 -15.5t-71.5 -29.5t-62.5 -44t-43 -61.5t-16.5 -78.5zM737 180
l25 -76q139 8 232 77t93 171t-66.5 152.5t-191.5 75.5v-168q0 -96 -20.5 -148.5t-71.5 -83.5z" />
    <glyph glyph-name="percent" unicode="%" horiz-adv-x="1738" 
d="M1192 -18q-186 0 -298 109.5t-112 287.5q0 76 27 158l-66 12q-47 -208 -151 -342l-164 -207h-235v23l266 342q64 84 152 163t177 138l-45 55q-40 -39 -97.5 -60.5t-113.5 -21.5q-187 0 -291 114t-104 306q0 198 111.5 309t298.5 111q184 0 295.5 -111t111.5 -287
q0 -78 -24 -159l63 -11q50 208 154 340l162 209h235v-22l-266 -344q-129 -167 -328 -299l45 -56q39 39 96 60.5t113 21.5q188 0 293 -114t105 -306q0 -198 -111.5 -308.5t-298.5 -110.5zM547 819q88 0 133 57.5t45 180.5q0 239 -178 239q-180 0 -180 -239q0 -238 180 -238z
M1192 164q178 0 178 239q0 238 -178 238q-180 0 -180 -238q0 -239 180 -239z" />
    <glyph glyph-name="ampersand" unicode="&#x26;" horiz-adv-x="1476" 
d="M104 352q0 150 88 259.5t232 181.5q-90 82 -135 158t-45 167q0 155 119.5 252.5t314.5 97.5q190 0 304 -95t114 -243q-1 -96 -53.5 -172.5t-132 -117.5t-173.5 -49l-8 -68q108 -38 250 -145l74 -60q77 109 125 275l252 -86q-29 -94 -93 -162.5t-145 -93.5l-14 -52
q95 -94 154.5 -197.5t74.5 -201.5h-293q-30 116 -84 211h-55q-45 -116 -165 -182t-273 -66q-196 0 -314.5 107t-118.5 282zM504 1118q0 -58 37 -110.5t125 -112.5q79 51 124.5 100.5t45.5 116.5q0 70 -45.5 111t-120.5 41q-72 0 -119 -41t-47 -105zM389 393q0 -83 55 -135.5
t154 -52.5q89 0 160.5 41.5t118.5 115.5l-295 277q-193 -97 -193 -246z" />
    <glyph glyph-name="quotesingle" unicode="'" horiz-adv-x="428" 
d="M96 852v582h236v-582h-236z" />
    <glyph glyph-name="parenleft" unicode="(" horiz-adv-x="813" 
d="M170 604q0 266 105.5 521t308.5 483l164 -121q-171 -208 -251.5 -421t-80.5 -462t81.5 -462.5t250.5 -422.5l-164 -120q-414 465 -414 1005z" />
    <glyph glyph-name="parenright" unicode=")" horiz-adv-x="811" 
d="M641 604q0 -268 -105 -523t-309 -482l-161 120q169 209 250 422t81 463q0 249 -80.5 461.5t-250.5 421.5l161 121q204 -227 309 -482t105 -522z" />
    <glyph glyph-name="asterisk" unicode="*" horiz-adv-x="1036" 
d="M418 1049l-8 16q-67 7 -128.5 21.5t-84 22t-82.5 28.5l65 178q44 -14 74 -26t79.5 -40t106.5 -69l17 10q-43 153 -39 301h200v-78.5t-9 -94.5t-27 -126l14 -12q57 42 107.5 70.5t78 39t74.5 25.5l66 -178q-55 -20 -80 -28.5t-85.5 -22.5t-127.5 -21l-6 -18
q55 -40 101 -82t66.5 -65t57.5 -66l-160 -121q-36 43 -53.5 65.5t-48.5 75t-58 115.5h-20q-26 -62 -59 -117t-47 -73.5t-54 -67.5l-158 123q34 42 56.5 67.5t68 66.5t103.5 81z" />
    <glyph glyph-name="plus" unicode="+" horiz-adv-x="1335" 
d="M776 793h438v-205h-438v-445h-213v445h-440v205h440v442h213v-442z" />
    <glyph glyph-name="comma" unicode="," horiz-adv-x="573" 
d="M406 16l-191 -311l-131 66l131 217q-58 11 -91.5 53t-33.5 109q0 81 49 124t131 43t131.5 -43t49.5 -124q0 -64 -45 -134z" />
    <glyph glyph-name="hyphen" unicode="-" horiz-adv-x="778" 
d="M115 543v237h551v-237h-551z" />
    <glyph glyph-name="period" unicode="." horiz-adv-x="653" 
d="M326 -20q-83 0 -132 42.5t-49 124.5t49.5 126t131.5 44q84 0 133 -43.5t49 -126.5q0 -81 -49 -124t-133 -43z" />
    <glyph glyph-name="slash" unicode="/" horiz-adv-x="972" 
d="M18 0l668 1434h279l-668 -1434h-279z" />
    <glyph glyph-name="zero" unicode="0" horiz-adv-x="1398" 
d="M698 -27q-192 0 -331 94t-209 261t-70 391q0 354 165.5 551.5t444.5 197.5q193 0 333 -93.5t211 -261.5t71 -394q0 -353 -167 -549.5t-448 -196.5zM698 223q170 0 253 128.5t83 367.5q0 250 -86.5 376t-249.5 126q-168 0 -249.5 -130t-81.5 -372q0 -247 85.5 -371.5
t245.5 -124.5z" />
    <glyph glyph-name="one" unicode="1" horiz-adv-x="1032" 
d="M752 0h-281v741q0 118 27 201.5t90 155.5l-68 61q-169 -180 -405 -205v242q134 21 255.5 87t192.5 151h189v-1434z" />
    <glyph glyph-name="two" unicode="2" horiz-adv-x="1263" 
d="M1180 0h-1090v217l572 422q130 98 176.5 177.5t46.5 164.5q0 121 -67.5 187.5t-182.5 66.5q-133 0 -209 -80.5t-76 -226.5l-264 26q2 238 147.5 376t405.5 138q235 0 379.5 -128.5t144.5 -340.5q0 -161 -78 -280.5t-288 -267.5q-173 -129 -363 -236l43 -88
q74 30 129.5 49t151 38t186.5 19h236v-233z" />
    <glyph glyph-name="three" unicode="3" horiz-adv-x="1341" 
d="M674 -37q-281 0 -430 123t-164 350l248 60q31 -299 350 -299q143 0 222 58.5t79 172.5q0 101 -71 153t-195 52h-185v203h158q135 0 197.5 52.5t62.5 141.5q0 103 -69.5 157t-192.5 54q-145 0 -227.5 -73.5t-94.5 -200.5l-251 57q17 205 178 324.5t401 119.5
q254 0 394.5 -106.5t140.5 -278.5q0 -118 -69.5 -195t-190.5 -106v-86q133 -12 212.5 -96t79.5 -213q0 -193 -155 -308.5t-428 -115.5z" />
    <glyph glyph-name="four" unicode="4" horiz-adv-x="1449" 
d="M1141 0h-279v297h-805v221l770 916h314v-908h235v-229h-235v-297zM881 1204l-564 -688l54 -59q81 69 272 69h219v287q0 114 24.5 186.5t76.5 126.5z" />
    <glyph glyph-name="five" unicode="5" horiz-adv-x="1370" 
d="M78 412l252 59q18 -135 112.5 -204.5t245.5 -69.5q156 0 239 75.5t83 208.5q0 135 -83 206t-227 71q-105 0 -195 -39t-147 -109l-225 68l100 756h930v-232h-696l-14 -106q-7 -62 -39.5 -129t-77.5 -121l80 -62q54 85 153 133t219 48q230 0 365 -133t135 -353
q0 -244 -163 -380t-433 -136q-259 0 -426.5 123.5t-187.5 325.5z" />
    <glyph glyph-name="six" unicode="6" horiz-adv-x="1423" 
d="M733 -37q-311 0 -477 198.5t-166 547.5q0 358 182.5 558.5t493.5 200.5q212 0 365 -100.5t188 -263.5l-279 -66q-28 92 -104.5 144.5t-179.5 52.5q-184 0 -286.5 -133.5t-102.5 -392.5l69 -11q46 108 159 173t257 65q218 0 349.5 -124t131.5 -341q0 -230 -161.5 -369
t-438.5 -139zM741 197q141 0 226.5 76.5t85.5 205.5q0 122 -79.5 192t-221.5 70q-117 0 -213.5 -54.5t-151.5 -147.5q13 -165 106.5 -253.5t247.5 -88.5z" />
    <glyph glyph-name="seven" unicode="7" horiz-adv-x="1206" 
d="M381 1200h-324v234h1102v-213l-608 -1221h-320v14l474 916q50 100 104 172t131 145l-68 88q-75 -68 -190 -101.5t-301 -33.5z" />
    <glyph glyph-name="eight" unicode="8" horiz-adv-x="1439" 
d="M84 385q0 131 86.5 218t232.5 112v76q-122 25 -194 97t-72 193q0 175 158 281t426 106q267 0 424.5 -106t157.5 -281q0 -121 -72.5 -193t-194.5 -97v-76q146 -25 233 -112t87 -218q0 -201 -169.5 -311.5t-465.5 -110.5q-297 0 -467 110.5t-170 311.5zM416 1040
q0 -92 79.5 -147t225.5 -55q144 0 223.5 55t79.5 147q0 99 -78 152t-225 53q-148 0 -226.5 -53t-78.5 -152zM365 430q0 -114 90.5 -174.5t265.5 -60.5q173 0 263.5 61t90.5 174q0 111 -91 174.5t-263 63.5q-174 0 -265 -63.5t-91 -174.5z" />
    <glyph glyph-name="nine" unicode="9" horiz-adv-x="1423" 
d="M690 1468q209 0 354.5 -91.5t217 -257t71.5 -394.5q0 -359 -183 -560.5t-495 -201.5q-214 0 -365.5 102t-185.5 265l279 63q27 -91 104.5 -142.5t180.5 -51.5q184 0 286.5 133t102.5 393l-72 10q-46 -109 -158 -174t-258 -65q-218 0 -348.5 125t-130.5 342
q0 229 161.5 367t438.5 138zM682 1235q-142 0 -227.5 -76.5t-85.5 -204.5q0 -122 80 -192t221 -70q118 0 214.5 54.5t149.5 146.5q-12 165 -105.5 253.5t-246.5 88.5z" />
    <glyph glyph-name="colon" unicode=":" horiz-adv-x="677" 
d="M338 737q-82 0 -131 43t-49 125t49 126t131 44q84 0 133 -43.5t49 -126.5q0 -81 -49 -124.5t-133 -43.5zM338 -20q-82 0 -131 42.5t-49 124.5t49 126t131 44q84 0 133 -43.5t49 -126.5q0 -81 -49 -124t-133 -43z" />
    <glyph glyph-name="semicolon" unicode=";" horiz-adv-x="673" 
d="M336 737q-84 0 -133 42.5t-49 125.5t49 126.5t133 43.5q82 0 131 -44t49 -126q0 -81 -49 -124.5t-131 -43.5zM471 16l-190 -311l-131 66l131 217q-58 11 -91.5 53t-33.5 109q0 81 49 124t131 43t131 -43t49 -124q0 -64 -45 -134z" />
    <glyph glyph-name="less" unicode="&#x3c;" horiz-adv-x="1245" 
d="M1051 449v-252l-869 340v305l869 338v-252l-349 -121q-183 -67 -290 -82v-74q105 -15 290 -80z" />
    <glyph glyph-name="equal" unicode="=" horiz-adv-x="1187" 
d="M145 1032h893v-205h-893v205zM145 551h893v-203h-893v203z" />
    <glyph glyph-name="greater" unicode="&#x3e;" horiz-adv-x="1243" 
d="M1063 537l-868 -340v252l346 122q192 66 290 80v74q-111 16 -288 82l-348 121v252l868 -338v-305z" />
    <glyph glyph-name="question" unicode="?" horiz-adv-x="1269" 
d="M770 459h-238v260q363 25 363 280q0 111 -68 173.5t-182 62.5q-112 0 -190 -59t-95 -166l-254 55q26 185 175.5 294t373.5 109q232 0 375.5 -120.5t143.5 -321.5q0 -169 -106.5 -287t-297.5 -153v-127zM643 -20q-79 0 -126.5 42.5t-47.5 124.5t47.5 126t126.5 44
t127.5 -44t48.5 -126q0 -81 -48.5 -124t-127.5 -43z" />
    <glyph glyph-name="at" unicode="@" horiz-adv-x="2097" 
d="M1071 -344q-285 0 -510.5 111.5t-354 320.5t-128.5 481q0 205 75 383t207 305t321.5 200t410.5 73q268 0 478.5 -103t329.5 -293.5t119 -437.5q0 -258 -127.5 -413.5t-324.5 -155.5q-114 0 -185 54.5t-90 148.5h-61q-42 -86 -132.5 -134.5t-201.5 -48.5
q-174 0 -278.5 117t-104.5 311q0 219 126.5 359.5t317.5 140.5q113 0 195.5 -49t118.5 -135h63l29 160h227l-90 -541q-29 -186 88 -186q102 0 161.5 104t59.5 264q0 152 -54.5 275.5t-150.5 203.5t-225 123t-280 43q-231 0 -413 -94.5t-284 -267.5t-102 -395q0 -216 97 -381
t278 -257t420 -92q300 0 530 162l92 -170q-115 -87 -285.5 -136.5t-361.5 -49.5zM1014 367q66 0 121 30t86 80l26 219q-17 72 -74.5 115t-136.5 43q-106 0 -170.5 -72t-64.5 -186q0 -108 57.5 -168.5t155.5 -60.5z" />
    <glyph glyph-name="A" unicode="A" horiz-adv-x="1468" 
d="M1444 0h-293l-88 242h-657l-89 -242h-294l546 1434h328zM598 766l-102 -279h477l-103 279q-38 106 -56 185t-30 196h-100q-13 -119 -31.5 -200t-54.5 -181z" />
    <glyph glyph-name="B" unicode="B" horiz-adv-x="1392" 
d="M995 797v-76q141 -13 220 -102t79 -232q0 -186 -128 -286.5t-355 -100.5h-666v1434h711q185 0 288 -91t103 -247q0 -123 -64.5 -202t-187.5 -97zM772 1190h-348v-334h346q103 0 150 41.5t47 126.5q0 166 -195 166zM424 244h371q116 0 167.5 48t51.5 148q0 98 -52 145.5
t-165 47.5h-373v-389z" />
    <glyph glyph-name="C" unicode="C" horiz-adv-x="1574" 
d="M90 717q-1 155 52.5 293t149 240.5t236.5 161.5t306 58q248 -2 430 -135.5t231 -359.5l-266 -72q-40 150 -145 232t-255 82q-201 1 -326.5 -140t-125.5 -360t126 -360t328 -140q155 0 261.5 88.5t142.5 253.5l270 -65q-47 -247 -229.5 -388t-441.5 -143
q-165 -1 -306 58.5t-236.5 162t-149 240.5t-52.5 293z" />
    <glyph glyph-name="D" unicode="D" horiz-adv-x="1476" 
d="M145 1434h594q298 0 471.5 -188.5t173.5 -528.5q0 -346 -171 -531.5t-478 -185.5h-590v1434zM428 252h289q385 0 385 465q0 230 -98 347.5t-287 117.5h-289v-930z" />
    <glyph glyph-name="E" unicode="E" horiz-adv-x="1234" 
d="M428 614v-362h737v-252h-1020v1434h1018v-252h-735v-336h674v-232h-674z" />
    <glyph glyph-name="F" unicode="F" horiz-adv-x="1171" 
d="M145 0v1434h985v-252h-702v-406h672v-239h-672v-537h-283z" />
    <glyph glyph-name="G" unicode="G" horiz-adv-x="1617" 
d="M90 702q0 231 100.5 408.5t269.5 270t376 89.5q162 -2 299.5 -61t231 -168t126.5 -252l-268 -74q-42 144 -145 223t-253 79q-206 1 -327 -141t-121 -363q0 -225 126 -366t339 -140q159 0 266 78.5t137 210.5v36h-416v209h654v-741h-240v16q6 38 60 203l-88 41
q-62 -138 -178 -215.5t-281 -77.5q-156 -1 -284 58t-211 160t-128 234t-45 283z" />
    <glyph glyph-name="H" unicode="H" horiz-adv-x="1460" 
d="M145 0v1434h283v-570h604v570h283v-1434h-283v602h-604v-602h-283z" />
    <glyph glyph-name="I" unicode="I" horiz-adv-x="618" 
d="M168 0v1434h283v-1434h-283z" />
    <glyph glyph-name="J" unicode="J" horiz-adv-x="1228" 
d="M61 467v65l273 46v-76q0 -146 62.5 -215.5t174.5 -69.5q62 0 107 20.5t69 50.5t38.5 74.5t18 80t3.5 79.5v912h283v-940q0 -244 -135 -387.5t-380 -143.5q-231 0 -372.5 133t-141.5 371z" />
    <glyph glyph-name="K" unicode="K" horiz-adv-x="1392" 
d="M145 0v1434h283v-291q0 -120 -18.5 -194.5t-77.5 -155.5l67 -64l631 705h340l-549 -613l557 -821h-340l-413 621h-4l-193 -226v-395h-283z" />
    <glyph glyph-name="L" unicode="L" horiz-adv-x="1136" 
d="M145 0v1434h283v-1180h674v-254h-957z" />
    <glyph glyph-name="M" unicode="M" horiz-adv-x="1847" 
d="M416 0h-271v1434h457l234 -732q35 -134 47 -321h82q4 69 6.5 100.5t13 94t27.5 126.5l235 732h455v-1434h-270v537q0 138 19 259t79 345l-121 33l-373 -1174h-225l-373 1174l-121 -33q60 -225 79.5 -346t19.5 -258v-537z" />
    <glyph glyph-name="N" unicode="N" horiz-adv-x="1546" 
d="M145 0v1434h316l653 -1004h4v1004h281v-1434h-316l-651 991h-4v-991h-283z" />
    <glyph glyph-name="O" unicode="O" horiz-adv-x="1658" 
d="M90 717q0 161 56.5 301t154.5 239t235.5 156t294.5 57q156 0 293 -57t235.5 -156t155 -239t56.5 -301q0 -215 -96.5 -387.5t-265.5 -269.5t-378 -97t-378.5 97t-266 269.5t-96.5 387.5zM377 717q0 -223 127 -361.5t327 -138.5q205 0 329 139.5t124 360.5
q0 223 -124.5 361.5t-328.5 138.5q-205 0 -329.5 -137.5t-124.5 -362.5z" />
    <glyph glyph-name="P" unicode="P" horiz-adv-x="1372" 
d="M145 1434h680q214 0 344.5 -127.5t130.5 -348.5t-130 -347t-345 -126h-397v-485h-283v1434zM428 733h371q99 0 158 60t59 170q0 112 -55 167.5t-158 55.5h-375v-453z" />
    <glyph glyph-name="Q" unicode="Q" horiz-adv-x="1660" 
d="M90 715q0 218 92.5 389t261 267.5t385.5 98.5q161 1 298.5 -52.5t234.5 -149t152 -232t55 -297.5q0 -261 -138 -437.5t-356 -215.5v-86q150 -14 290.5 -52t221.5 -102l-217 -190q-122 54 -240 142.5t-188 174.5q-33 -10 -90 -10q-225 0 -399 96t-268.5 267t-94.5 389z
M377 719q0 -225 127 -363.5t330 -138.5q201 0 324.5 138t123.5 362q0 223 -124 361.5t-329 138.5t-328.5 -138.5t-123.5 -359.5z" />
    <glyph glyph-name="R" unicode="R" horiz-adv-x="1359" 
d="M1165 309l66 -155q19 -40 28 -57t25 -38t33 -32v-27h-320q-32 34 -49 88l-90 221q-50 122 -103 163.5t-165 41.5h-162v-514h-283v1434h717q203 0 316.5 -105.5t113.5 -290.5q0 -189 -108.5 -288.5t-306.5 -108.5v-86q59 -10 97 -23t73 -40t62 -70.5t56 -112.5zM428 762
h369q100 0 155.5 56t55.5 157q0 211 -211 211h-369v-424z" />
    <glyph glyph-name="S" unicode="S" horiz-adv-x="1327" 
d="M78 440l256 47q6 -140 99.5 -213t252.5 -73q132 0 205.5 50.5t73.5 141.5q0 97 -75 141.5t-259 75.5q-256 40 -381 139.5t-125 288.5q0 203 148.5 316.5t394.5 113.5q249 0 408 -117t173 -309l-262 -59q-17 126 -100.5 190t-220.5 64q-125 0 -191.5 -46.5t-66.5 -127.5
q0 -36 9.5 -62.5t35 -47.5t53.5 -35.5t81 -28t100 -22.5t128 -23q215 -38 324.5 -140t109.5 -290q0 -213 -158.5 -332t-420.5 -119q-270 0 -425.5 129.5t-166.5 347.5z" />
    <glyph glyph-name="T" unicode="T" horiz-adv-x="1273" 
d="M37 1434h1202v-252h-461v-1182h-282v1182h-459v252z" />
    <glyph glyph-name="U" unicode="U" horiz-adv-x="1449" 
d="M139 549v885h281v-865q0 -177 73.5 -264.5t231.5 -87.5t231.5 87.5t73.5 264.5v865h283v-885q0 -284 -152.5 -435t-435.5 -151q-281 0 -433.5 151t-152.5 435z" />
    <glyph glyph-name="V" unicode="V" horiz-adv-x="1482" 
d="M20 1434h304l274 -766q76 -219 94 -379h101q17 157 92 379l272 766h305l-549 -1434h-342z" />
    <glyph glyph-name="W" unicode="W" horiz-adv-x="1980" 
d="M352 0l-323 1434h290l125 -617q15 -77 22.5 -179t8 -150t0.5 -152h107q23 232 94 465l196 633h234l205 -646q66 -221 90 -452h106q-5 312 27 473l125 625h293l-322 -1434h-319l-203 651q-77 256 -80 471h-78q0 -190 -82 -471l-202 -651h-314z" />
    <glyph glyph-name="X" unicode="X" horiz-adv-x="1462" 
d="M377 0h-346l493 727l-479 707h348l166 -269q105 -189 121 -299h102q17 112 121 299l166 269h346l-477 -707l494 -727h-347l-192 303q-94 161 -111 285h-102q-18 -125 -111 -285z" />
    <glyph glyph-name="Y" unicode="Y" horiz-adv-x="1402" 
d="M561 549l-549 885h328l145 -256q4 -8 24.5 -47.5t29.5 -58t28 -57t29 -65t23 -61t20 -64.5t10 -57h109q11 118 148 384q9 19 14 28l143 254h328l-547 -885v-549h-283v549z" />
    <glyph glyph-name="Z" unicode="Z" horiz-adv-x="1316" 
d="M1237 0h-1155v229l803 1006l-68 72q-60 -63 -133 -94t-186 -31h-396v252h1110v-230l-804 -1005l69 -72q54 60 130 92.5t202 32.5h428v-252z" />
    <glyph glyph-name="bracketleft" unicode="[" horiz-adv-x="755" 
d="M666 -342h-521v1866h521v-217h-295v-1430h295v-219z" />
    <glyph glyph-name="backslash" unicode="\" horiz-adv-x="1011" 
d="M33 1434h278l668 -1434h-279z" />
    <glyph glyph-name="bracketright" unicode="]" horiz-adv-x="755" 
d="M610 1524v-1866h-520v219h295v1430h-295v217h520z" />
    <glyph glyph-name="asciicircum" unicode="^" horiz-adv-x="940" 
d="M328 946h-244l213 549h346l213 -549h-244l-63 184q-20 53 -53 173h-52q-23 -94 -53 -173z" />
    <glyph glyph-name="underscore" unicode="_" horiz-adv-x="1058" 
d="M109 -238v238h839v-238h-839z" />
    <glyph glyph-name="grave" unicode="`" horiz-adv-x="548" 
d="M268 1268l-188 303h303l88 -303h-203z" />
    <glyph glyph-name="a" unicode="a" horiz-adv-x="1220" 
d="M1108 178q32 0 59 19v-189q-61 -37 -151 -37q-96 0 -152.5 54t-56.5 161h-76q-23 -100 -116.5 -161.5t-217.5 -61.5q-145 0 -235 82t-90 217q0 139 90 227t276 127l340 72v17q0 208 -215 208q-108 0 -171.5 -55.5t-67.5 -157.5l-252 48q19 175 157 274.5t353 99.5
q223 0 347 -107t124 -310v-402q0 -27 0.5 -40.5t3 -33t8 -28.5t16.5 -16t27 -7zM500 172q91 0 171.5 53t106.5 131v168l-246 -49q-104 -21 -148 -62.5t-44 -101.5q0 -67 43 -103t117 -36z" />
    <glyph glyph-name="b" unicode="b" horiz-adv-x="1320" 
d="M741 -35q-125 0 -218 59.5t-142 174.5l-84 -43q39 -96 51 -146v-10h-231v1495h274v-213q0 -101 -18 -176t-64 -152l84 -53q50 103 147.5 161t225.5 58q214 0 349.5 -158.5t135.5 -420.5q0 -263 -141 -419.5t-369 -156.5zM676 195q137 0 217 92t80 256q0 168 -82.5 258
t-216.5 90q-105 0 -180 -52t-103 -139v-315q27 -89 105 -139.5t180 -50.5z" />
    <glyph glyph-name="c" unicode="c" horiz-adv-x="1230" 
d="M70 537q0 265 159 425t422 160q206 0 343.5 -100t179.5 -272l-259 -80q-23 111 -96.5 167t-181.5 56q-138 0 -215.5 -95.5t-77.5 -254.5q0 -164 81 -257t214 -93q113 0 186 60t95 163l258 -80q-40 -167 -190.5 -270t-356.5 -103q-254 0 -407.5 156.5t-153.5 417.5z" />
    <glyph glyph-name="d" unicode="d" horiz-adv-x="1320" 
d="M555 -35q-215 0 -350 160.5t-135 417.5q0 261 138 419t353 158q126 0 220.5 -57.5t146.5 -161.5l84 53q-46 77 -64 152t-18 176v213h272v-1495h-229v10q12 50 51 146l-84 43q-48 -113 -151.5 -173.5t-233.5 -60.5zM645 195q101 0 178.5 50.5t106.5 139.5v315
q-28 86 -103.5 138.5t-179.5 52.5q-134 0 -216.5 -90t-82.5 -258q0 -164 80 -256t217 -92z" />
    <glyph glyph-name="e" unicode="e" horiz-adv-x="1251" 
d="M70 541q0 260 154.5 420.5t414.5 160.5q253 0 404 -155.5t151 -423.5v-88h-852q8 -124 91.5 -197.5t219.5 -73.5q111 0 198.5 50t135.5 137l158 -172q-68 -110 -204.5 -173t-295.5 -63q-256 0 -415.5 157t-159.5 421zM344 643h582q-8 121 -85 192.5t-206 71.5
q-124 0 -203 -70t-88 -194z" />
    <glyph glyph-name="f" unicode="f" horiz-adv-x="854" 
d="M250 858h-213v227h213v101q0 330 381 330q81 0 139 -15l33 -225q-54 14 -111 14q-91 0 -129.5 -29t-38.5 -112v-64h303v-227h-303v-858h-274v858z" />
    <glyph glyph-name="g" unicode="g" horiz-adv-x="1081" 
d="M496 -535q-242 0 -355.5 67t-113.5 187q0 81 54 132.5t146 60.5v53q-46 23 -70 62.5t-24 85.5q0 72 44.5 121.5t121.5 64.5v53q-117 36 -182.5 125t-65.5 209q0 184 125 291.5t332 107.5h522l37 -198h-53q-91 0 -178 51l-43 -74q168 -73 168 -256q0 -155 -117 -246.5
t-312 -91.5h-69q-101 0 -101 -69q0 -37 29.5 -52t87.5 -20l246 -12q324 -19 324 -297q0 -177 -144.5 -266t-408.5 -89zM506 465q100 0 154.5 58t54.5 157q0 100 -57 155.5t-152 55.5q-99 0 -153 -57t-54 -154q0 -101 56 -158t151 -57zM500 -356q147 0 210.5 33.5t63.5 97.5
q0 54 -33.5 75t-91.5 25l-313 19q-40 -7 -63 -40.5t-23 -76.5q0 -73 64.5 -103t185.5 -30z" />
    <glyph glyph-name="h" unicode="h" horiz-adv-x="1304" 
d="M391 0h-274v1495h274v-295q0 -55 -8.5 -105t-16 -74.5t-24.5 -67.5t-20 -52l84 -35q58 125 159 190.5t230 65.5q187 0 294 -125t107 -366v-631h-272v571q0 308 -234 308q-97 0 -175.5 -51.5t-123.5 -141.5v-686z" />
    <glyph glyph-name="i" unicode="i" horiz-adv-x="552" 
d="M276 1245q-79 0 -126.5 46.5t-47.5 121.5q0 77 47.5 123.5t126.5 46.5q78 0 127.5 -47t49.5 -123q0 -74 -49.5 -121t-127.5 -47zM139 0v1085h275v-1085h-275z" />
    <glyph glyph-name="j" unicode="j" horiz-adv-x="550" 
d="M272 1245q-78 0 -126 46.5t-48 121.5q0 76 48 123t126 47q80 0 128.5 -47t48.5 -123q0 -74 -49 -121t-128 -47zM412 1085v-1148q0 -214 -101.5 -324.5t-300.5 -110.5q-66 0 -98 13l-37 229q31 -8 74 -8q107 0 146.5 55t39.5 168v1126h277z" />
    <glyph glyph-name="k" unicode="k" horiz-adv-x="1243" 
d="M117 0v1495h274v-516q0 -112 -15.5 -187t-72.5 -161l76 -51q60 92 178 213l289 292h373l-465 -438l475 -647h-332l-340 479h-4l-162 -151v-328h-274z" />
    <glyph glyph-name="l" unicode="l" horiz-adv-x="520" 
d="M125 0v1495h274v-1495h-274z" />
    <glyph glyph-name="m" unicode="m" horiz-adv-x="1912" 
d="M391 0h-274v1085h245v-14q-12 -76 -43 -162l84 -32q52 123 136.5 184t195.5 61q126 0 207 -61.5t111 -171.5h61q44 113 131 173t201 60q171 0 264.5 -115.5t93.5 -328.5v-678h-272v635q0 244 -191 244q-85 0 -150 -46t-93 -124v-709h-273v635q0 244 -190 244
q-84 0 -150 -47.5t-94 -124.5v-707z" />
    <glyph glyph-name="n" unicode="n" horiz-adv-x="1304" 
d="M117 0v1085h245v-10q-11 -92 -40 -174l84 -35q58 125 159 190.5t230 65.5q187 0 294 -125t107 -366v-631h-272v571q0 308 -234 308q-97 0 -175.5 -51.5t-123.5 -141.5v-686h-274z" />
    <glyph glyph-name="o" unicode="o" horiz-adv-x="1288" 
d="M70 545q0 259 159 418t416 159q256 0 416 -159t160 -418q0 -260 -160 -420t-416 -160q-257 0 -416 160t-159 420zM944 545q0 160 -80 253t-219 93t-220 -93t-81 -253q0 -161 81 -254.5t220 -93.5t219 93t80 255z" />
    <glyph glyph-name="p" unicode="p" horiz-adv-x="1320" 
d="M391 -461h-274v1546h231v-10q-11 -47 -51 -145l84 -43q48 113 151.5 173t233.5 60q215 0 350 -160.5t135 -416.5q0 -261 -138 -419.5t-353 -158.5q-127 0 -222 57.5t-145 161.5l-84 -53q46 -77 64 -152t18 -176v-264zM674 195q134 0 216.5 90t82.5 258q0 164 -80 256
t-217 92q-102 0 -180 -51t-105 -140v-315q28 -87 103 -138.5t180 -51.5z" />
    <glyph glyph-name="q" unicode="q" horiz-adv-x="1320" 
d="M1202 -461h-272v264q0 101 18 176t64 152l-84 53q-49 -103 -144.5 -161t-214.5 -58q-223 0 -361 158t-138 422q0 263 141 419t369 156q126 0 218.5 -59t141.5 -174l84 43q-40 98 -51 145v10h229v-1546zM647 195q104 0 179.5 52t103.5 138v315q-29 89 -106.5 140
t-178.5 51q-137 0 -217 -92t-80 -256q0 -168 82.5 -258t216.5 -90z" />
    <glyph glyph-name="r" unicode="r" horiz-adv-x="786" 
d="M391 0h-274v1085h241v-12q-9 -67 -47 -164l90 -28q82 225 250 225q65 0 94 -16l19 -246q-50 18 -137 18q-77 0 -144 -47t-92 -133v-682z" />
    <glyph glyph-name="s" unicode="s" horiz-adv-x="1130" 
d="M57 315l230 78q41 -221 299 -221q97 0 149.5 34t52.5 97q0 18 -4 33t-14.5 27.5t-20 21.5t-30 17t-33.5 13t-41 11t-43.5 9t-49.5 9t-50 9q-54 10 -96.5 21t-92 28.5t-85.5 42.5t-67 57.5t-47 78.5t-16 101q0 159 128 249.5t339 90.5q206 0 340 -87t160 -234l-219 -68
q-27 91 -104 136.5t-189 45.5q-90 0 -137 -30t-47 -84q0 -27 14 -48t34 -34t57.5 -24t69 -17.5t83.5 -15.5l51 -9q71 -13 120.5 -26.5t104 -38.5t87 -58t54 -84t21.5 -118q0 -174 -130.5 -269.5t-367.5 -95.5q-229 0 -357.5 91.5t-152.5 260.5z" />
    <glyph glyph-name="t" unicode="t" horiz-adv-x="884" 
d="M569 -23q-180 0 -255.5 90.5t-75.5 256.5v534h-211v227h211v273l274 49v-322h311v-227h-311v-477q0 -83 27 -116.5t106 -33.5q71 0 139 31l-34 -258q-91 -27 -181 -27z" />
    <glyph glyph-name="u" unicode="u" horiz-adv-x="1304" 
d="M1188 1085v-1085h-260v10q8 73 45 174l-86 29q-47 -118 -150 -184t-237 -66q-182 0 -286.5 116.5t-104.5 334.5v671h272v-620q0 -125 63 -191.5t179 -66.5q97 0 172.5 48t117.5 140v690h275z" />
    <glyph glyph-name="v" unicode="v" horiz-adv-x="1239" 
d="M485 0l-479 1085h307l174 -442q72 -195 78 -375h105q15 212 80 375l174 442h305l-477 -1085h-267z" />
    <glyph glyph-name="w" unicode="w" horiz-adv-x="1697" 
d="M285 0l-275 1085h277l75 -335q43 -196 46 -469h90q11 105 37.5 207.5t85.5 285.5l106 311h246l104 -311q60 -182 86.5 -285t36.5 -208h90q3 264 45 469l76 335h277l-273 -1085h-311l-100 299q-56 176 -78.5 294.5t-28.5 256.5h-96q-6 -137 -29 -261t-76 -290l-100 -299
h-311z" />
    <glyph glyph-name="x" unicode="x" horiz-adv-x="1232" 
d="M23 0l395 551l-383 534h336l88 -133q29 -47 45.5 -78t35.5 -84t31 -116h97q17 88 42 152.5t66 125.5l86 133h338l-385 -534l395 -551h-336l-83 129q-95 151 -123 315h-97q-44 -189 -125 -315l-84 -129h-339z" />
    <glyph glyph-name="y" unicode="y" horiz-adv-x="1239" 
d="M248 -498q-96 0 -168 35v244q64 -25 135 -25q50 0 89 15t64 42t38.5 49.5t25.5 51.5l41 106l-467 1065h307l174 -452q70 -185 88 -344h97q18 164 86 344l170 452h301l-537 -1249q-21 -49 -41.5 -87t-59 -87t-83 -81.5t-112.5 -55.5t-148 -23z" />
    <glyph glyph-name="z" unicode="z" horiz-adv-x="1077" 
d="M1020 0h-952v225l637 664l-64 69q-62 -55 -117.5 -77.5t-146.5 -22.5h-295v227h922v-225l-637 -663l61 -70q60 55 118.5 77.5t151.5 22.5h322v-227z" />
    <glyph glyph-name="braceleft" unicode="{" horiz-adv-x="917" 
d="M281 -39v373q0 71 -23.5 98t-87.5 27h-51v307h51q64 0 87.5 26.5t23.5 98.5v330q0 164 71.5 233.5t241.5 69.5h207v-226h-178q-66 0 -91.5 -31.5t-25.5 -111.5v-307q0 -82 -49 -137t-125 -56v-88q76 0 125 -54t49 -138v-348q0 -79 26 -111.5t91 -32.5h178v-225h-207
q-170 0 -241.5 69.5t-71.5 233.5z" />
    <glyph glyph-name="bar" unicode="|" horiz-adv-x="720" 
d="M238 -205v1639h243v-1639h-243z" />
    <glyph glyph-name="braceright" unicode="}" horiz-adv-x="917" 
d="M637 334v-373q0 -164 -71.5 -233.5t-241.5 -69.5h-205v225h176q66 0 92.5 33t26.5 111v348q0 84 48 138t124 54v88q-76 1 -124 56t-48 137v307q0 79 -26.5 111t-92.5 32h-176v226h205q170 0 241.5 -69.5t71.5 -233.5v-330q0 -72 23.5 -98.5t87.5 -26.5h53v-307h-53
q-64 0 -87.5 -27t-23.5 -98z" />
    <glyph glyph-name="asciitilde" unicode="~" horiz-adv-x="1140" 
d="M299 469h-172q-43 451 227 451q42 0 82 -13t77.5 -40t61.5 -48t58 -55q70 -64 94 -78q23 -12 41 -12q44 0 61 56.5t7 187.5h172q45 -451 -228 -451q-42 0 -82 13.5t-78 40.5t-61.5 48t-58.5 56q-32 31 -49.5 46t-41 28.5t-42.5 13.5q-44 0 -61 -57.5t-7 -186.5z" />
    <glyph glyph-name="exclamdown" unicode="&#xa1;" horiz-adv-x="659" 
d="M330 1122q82 0 131 -43t49 -125t-49 -125t-131 -43q-84 0 -132 42.5t-48 125.5t48 125.5t132 42.5zM188 -8l84 610h115l84 -610v-324h-283v324z" />
    <glyph glyph-name="cent" unicode="&#xa2;" horiz-adv-x="1300" 
d="M70 715q-1 223 141.5 382t363.5 189v230h179v-228q180 -19 312 -122t173 -259l-260 -80q-23 86 -81 140t-144 71v-409q0 -97 -19.5 -151t-62.5 -89l57 -72q101 34 168.5 108.5t87.5 176.5l260 -78q-41 -157 -174.5 -260t-316.5 -123v-241h-179v243q-220 30 -363 190
t-142 382zM348 729q0 -134 64 -225.5t163 -120.5v424q0 177 87 240l-60 69q-120 -48 -187 -149t-67 -238z" />
    <glyph glyph-name="sterling" unicode="&#xa3;" horiz-adv-x="1384" 
d="M889 250h407v-250h-1212v227h139q150 109 150 256q0 41 -23 97h-266v227h33q83 0 180 -84l47 49q-123 123 -123 287q0 182 145.5 295.5t387.5 113.5q226 0 373.5 -107t162.5 -284l-256 -80q-7 106 -81 163t-193 57q-130 0 -202.5 -60.5t-72.5 -161.5q0 -111 80 -188h537
v-227h-481q12 -46 12 -78q0 -79 -59 -145.5t-164 -108.5l36 -76q86 40 186.5 59t256.5 19z" />
    <glyph glyph-name="currency" unicode="&#xa4;" horiz-adv-x="1355" 
d="M1065 492l125 -97l88 -90l-158 -158l-90 89l-104 137q-110 -58 -248 -58q-137 0 -250 58l-104 -137l-88 -89l-160 158l90 90l125 97q-80 110 -80 256t80 256l-125 96l-90 90l160 158l88 -88l104 -138q113 58 250 58q138 0 248 -58l104 138l90 88l158 -158l-88 -90
l-125 -94q80 -113 80 -258q0 -146 -80 -256zM446 748q0 -100 65.5 -164t166.5 -64t166 64t65 164q0 99 -65 163t-166 64t-166.5 -63.5t-65.5 -163.5z" />
    <glyph glyph-name="yen" unicode="&#xa5;" horiz-adv-x="1533" 
d="M489 754l-477 680h334l176 -256q69 -103 121.5 -229t69.5 -230h112q19 108 71.5 236t119.5 227l172 252h334l-478 -680h216v-189h-349v-127h349v-186h-349v-252h-286v252h-373v186h373v127h-373v189h237z" />
    <glyph glyph-name="brokenbar" unicode="&#xa6;" horiz-adv-x="720" 
d="M238 776v658h243v-658h-243zM238 -205v658h243v-658h-243z" />
    <glyph glyph-name="section" unicode="&#xa7;" horiz-adv-x="1298" 
d="M78 180l250 72q39 -223 368 -223q136 0 190 33t54 94q0 29 -13.5 51t-39.5 35.5t-50 21.5t-59 15l-317 67q-58 12 -99 24t-86.5 33t-73.5 47t-46.5 66.5t-18.5 91.5q0 88 54.5 148t148.5 82v59q-96 30 -149.5 92.5t-53.5 149.5q0 151 138.5 236t367.5 85q242 0 397 -93
t177 -241l-224 -67q-26 96 -119.5 146t-234.5 50q-109 0 -168 -29.5t-59 -84.5q0 -54 53 -80t188 -51l265 -47q167 -31 235 -93.5t68 -160.5q0 -176 -205 -232v-61q96 -25 150.5 -90.5t54.5 -161.5q0 -162 -145 -253t-388 -91q-267 0 -425 95.5t-185 264.5zM412 676
q0 -53 34 -83t103 -42l268 -51q54 6 88.5 39.5t34.5 85.5q0 61 -41 88t-123 41l-235 45q-58 -5 -93.5 -37t-35.5 -86z" />
    <glyph glyph-name="dieresis" unicode="&#xa8;" horiz-adv-x="1032" 
d="M262 1245q-82 0 -131 43.5t-49 124.5q0 84 49 127t131 43t131 -43t49 -127q0 -81 -49 -124.5t-131 -43.5zM770 1245q-82 0 -131 43.5t-49 124.5q0 84 49 127t131 43t131 -43t49 -127q0 -81 -49 -124.5t-131 -43.5z" />
    <glyph glyph-name="copyright" unicode="&#xa9;" horiz-adv-x="1705" 
d="M49 756q0 177 65 325t176 245.5t256 151.5t306 54q129 0 248.5 -33.5t220.5 -100.5t176 -159t117.5 -216.5t42.5 -266.5q0 -174 -63 -322t-171 -249.5t-256 -158.5t-315 -57q-166 0 -313.5 57t-255.5 158.5t-171 249.5t-63 322zM223 758q0 -186 80 -330t223 -222.5
t326 -78.5q184 0 328 78t224.5 221t80.5 328q0 186 -82.5 327.5t-225 216t-323.5 74.5q-182 0 -325 -74.5t-224.5 -215t-81.5 -324.5zM426 750q0 189 122 303t304 114q150 0 262 -76t141 -196l-217 -72q-17 68 -65.5 106t-120.5 38q-88 0 -142.5 -59t-54.5 -156t55 -157
t144 -60q142 0 186 143l215 -70q-31 -121 -142 -197.5t-261 -76.5q-118 0 -214.5 50t-154 145.5t-57.5 220.5z" />
    <glyph glyph-name="ordfeminine" unicode="&#xaa;" horiz-adv-x="860" 
d="M782 813q23 0 43 12v-141q-47 -27 -114 -27q-69 0 -110.5 38t-41.5 112h-57q-13 -70 -78 -113t-152 -43q-101 0 -164 57.5t-63 151.5q0 101 64 160.5t194 89.5l234 51v8q0 136 -140 136q-71 0 -113 -36t-46 -106l-193 35q15 125 114 195.5t251 70.5q158 0 246.5 -75.5
t88.5 -219.5v-274q0 -27 1 -41t10 -27.5t26 -13.5zM354 809q59 0 112.5 35t70.5 86v106l-160 -30q-127 -27 -127 -107q0 -43 28.5 -66.5t75.5 -23.5z" />
    <glyph glyph-name="guillemotleft" unicode="&#xab;" horiz-adv-x="1148" 
d="M336 580l264 -482h-268l-264 482l264 481h268zM799 580l266 -482h-268l-269 482l269 481h268z" />
    <glyph glyph-name="logicalnot" unicode="&#xac;" horiz-adv-x="1173" 
d="M856 588h-756v205h969v-648h-213v443z" />
    <glyph glyph-name="registered" unicode="&#xae;" horiz-adv-x="1167" 
d="M582 494q-148 0 -270 65t-194.5 186t-72.5 275t75 272.5t196.5 180t267.5 61.5q107 0 204 -35.5t171 -100t117.5 -163t43.5 -215.5q0 -154 -72.5 -275t-195 -186t-270.5 -65zM582 612q179 0 293 113.5t114 294.5q0 176 -114.5 285.5t-290.5 109.5q-177 0 -292.5 -109
t-115.5 -286q0 -181 114 -294.5t292 -113.5zM512 770h-137v504h262q90 0 137 -38t47 -106q0 -60 -38 -96.5t-107 -40.5v-39q83 -3 112 -80l15 -36q12 -39 39 -50v-18h-150q-24 20 -35 53l-26 64q-15 39 -30.5 53t-43.5 14h-45v-184zM512 1161v-117h92q36 0 55 15.5t19 42.5
q0 59 -76 59h-90z" />
    <glyph glyph-name="macron" unicode="&#xaf;" horiz-adv-x="999" 
d="M147 1294v197h705v-197h-705z" />
    <glyph glyph-name="degree" unicode="&#xb0;" horiz-adv-x="987" 
d="M494 745q-166 0 -273.5 100.5t-107.5 260.5q0 161 107.5 261.5t273.5 100.5t273 -100.5t107 -261.5q0 -160 -107 -260.5t-273 -100.5zM494 930q79 0 130.5 50.5t51.5 127.5q0 78 -51 128t-131 50t-131.5 -50t-51.5 -128q0 -77 52 -127.5t131 -50.5z" />
    <glyph glyph-name="plusminus" unicode="&#xb1;" horiz-adv-x="1232" 
d="M727 1151v-281h387v-202h-387v-281h-213v281h-387v202h387v281h213zM1114 0h-987v195h987v-195z" />
    <glyph glyph-name="uni00B2" unicode="&#xb2;" horiz-adv-x="888" 
d="M803 614h-717v152l375 274q78 56 107.5 105.5t29.5 103.5q0 74 -42 115t-112 41q-80 0 -126 -49.5t-46 -141.5l-186 19q0 155 95.5 245.5t267.5 90.5q154 0 249 -83.5t95 -221.5q0 -107 -51.5 -186.5t-188.5 -172.5q-95 -74 -223 -141l30 -62q175 76 322 76h121v-164z
" />
    <glyph glyph-name="uni00B3" unicode="&#xb3;" horiz-adv-x="935" 
d="M469 590q-184 0 -282 80t-107 227l174 43q22 -186 219 -186q87 0 134.5 35.5t47.5 105.5q0 63 -44.5 94t-121.5 31h-116v141h98q84 0 123 33t39 88q0 61 -41.5 94t-116.5 33q-90 0 -140.5 -46.5t-58.5 -125.5l-178 39q10 136 117 214.5t264 78.5q167 0 258.5 -69
t91.5 -181q0 -78 -46 -127.5t-126 -67.5v-57q89 -7 142 -63t53 -138q0 -127 -102 -201.5t-281 -74.5z" />
    <glyph glyph-name="acute" unicode="&#xb4;" horiz-adv-x="550" 
d="M168 1571h303l-188 -303h-203z" />
    <glyph glyph-name="paragraph" unicode="&#xb6;" horiz-adv-x="1837" 
d="M215 1135q0 141 90.5 220t241.5 79h1145v-238h-209v-1454h-273v1454h-280v-1454h-273v1089h-110q-157 0 -244.5 82.5t-87.5 221.5z" />
    <glyph glyph-name="periodcentered" unicode="&#xb7;" horiz-adv-x="651" 
d="M145 530q0 81 51.5 131t131.5 50t129 -49.5t49 -131.5q0 -83 -49 -131.5t-129 -48.5q-82 0 -132.5 48.5t-50.5 131.5z" />
    <glyph glyph-name="cedilla" unicode="&#xb8;" horiz-adv-x="727" 
d="M352 -104l21 -23q25 14 67 14q83 0 134 -49t51 -129q0 -104 -82.5 -166.5t-212.5 -62.5q-67 0 -128.5 18t-99.5 49l43 134q83 -60 183 -60q59 0 93 26t34 70q0 35 -23 56.5t-61 21.5q-39 0 -68 -16l-90 43l55 192l146 2v-16q0 -58 -62 -104z" />
    <glyph glyph-name="uni00B9" unicode="&#xb9;" horiz-adv-x="825" 
d="M545 614h-199v451q0 153 82 242l-47 45q-117 -117 -266 -131v170q92 13 172 56.5t123 98.5h135v-932z" />
    <glyph glyph-name="ordmasculine" unicode="&#xba;" horiz-adv-x="901" 
d="M45 1059q0 181 112 293t294 112q181 0 293 -112t112 -293q0 -183 -112.5 -295.5t-292.5 -112.5q-181 0 -293.5 112.5t-112.5 295.5zM645 1059q0 107 -51 168t-143 61q-91 0 -143 -62t-52 -167q0 -106 51.5 -168t143.5 -62t143 61.5t51 168.5z" />
    <glyph glyph-name="guillemotright" unicode="&#xbb;" horiz-adv-x="1148" 
d="M350 98h-266l264 482l-264 481h266l268 -481zM815 98h-266l262 482l-262 481h266l266 -481z" />
    <glyph glyph-name="onequarter" unicode="&#xbc;" horiz-adv-x="1527" 
d="M397 645h-180v356q0 137 74 216l-41 40q-99 -99 -227 -110v151q78 13 148.5 51t107.5 85h118v-789zM74 0l1077 1434h197l-1078 -1434h-196zM1364 0h-180v154h-426v141l403 493h203v-489h127v-145h-127v-154zM1196 643l-278 -350l34 -37q46 43 154 43h78v117q0 117 63 180
z" />
    <glyph glyph-name="onehalf" unicode="&#xbd;" horiz-adv-x="1576" 
d="M397 645h-180v356q0 137 74 216l-41 40q-99 -99 -227 -110v151q78 13 148.5 51t107.5 85h118v-789zM74 0l1077 1434h197l-1078 -1434h-196zM1528 0h-615v137l320 230q67 48 91 88t24 88q0 54 -34 86.5t-91 32.5q-64 0 -101 -41.5t-37 -116.5l-170 16q0 131 86 210t226 79
q131 0 212 -72t81 -190q0 -92 -48 -161t-149 -136q-110 -71 -186 -115l26 -55q168 70 277 70h88v-150z" />
    <glyph glyph-name="threequarters" unicode="&#xbe;" horiz-adv-x="1718" 
d="M367 623q-159 0 -241.5 68.5t-90.5 193.5l158 39q17 -150 176 -150q145 0 145 109q0 102 -135 102h-94v127h80q68 0 99.5 26.5t31.5 69.5q0 47 -32.5 73t-92.5 26q-72 0 -113 -37.5t-49 -102.5l-160 37q10 118 101.5 184t224.5 66q143 0 221 -59t78 -154q0 -64 -40 -107
t-108 -57v-51q78 -6 123 -52.5t45 -115.5q0 -108 -87 -171.5t-240 -63.5zM264 0l1077 1434h197l-1077 -1434h-197zM1554 0h-180v154h-426v141l404 493h202v-489h127v-145h-127v-154zM1386 643l-278 -350l35 -37q46 43 153 43h78v117q0 116 64 180z" />
    <glyph glyph-name="questiondown" unicode="&#xbf;" horiz-adv-x="1275" 
d="M649 1122q78 0 125 -43t47 -125t-47 -125t-125 -43q-79 0 -126.5 43t-47.5 125t47.5 125t126.5 43zM520 643h238v-260q-363 -22 -363 -281q0 -111 68 -173t182 -62q111 0 190.5 60t96.5 167l252 -55q-26 -185 -176.5 -295.5t-372.5 -110.5q-233 0 -374.5 120.5
t-141.5 322.5q0 169 104.5 287.5t296.5 154.5v125z" />
    <glyph glyph-name="Agrave" unicode="&#xc0;" horiz-adv-x="1468" 
d="M745 1878l89 -303h-203l-189 303h303zM1444 0h-293l-88 242h-657l-89 -242h-294l546 1434h328zM598 766l-102 -279h477l-103 279q-38 106 -56 185t-30 196h-100q-13 -119 -31.5 -200t-54.5 -181z" />
    <glyph glyph-name="Aacute" unicode="&#xc1;" horiz-adv-x="1468" 
d="M719 1878h303l-188 -303h-203zM1444 0h-293l-88 242h-657l-89 -242h-294l546 1434h328zM598 766l-102 -279h477l-103 279q-38 106 -56 185t-30 196h-100q-13 -119 -31.5 -200t-54.5 -181z" />
    <glyph glyph-name="Acircumflex" unicode="&#xc2;" horiz-adv-x="1468" 
d="M651 1638l-37 -63h-245l213 303h301l213 -303h-246l-37 63q-32 62 -45 111h-70q-12 -39 -47 -111zM1444 0h-293l-88 242h-657l-89 -242h-294l546 1434h328zM598 766l-102 -279h477l-103 279q-38 106 -56 185t-30 196h-100q-13 -119 -31.5 -200t-54.5 -181z" />
    <glyph glyph-name="Atilde" unicode="&#xc3;" horiz-adv-x="1468" 
d="M559 1550h-153q-18 170 29 258t145 88q40 0 80.5 -18t63.5 -35.5t60 -50.5q50 -47 82 -47q30 0 38.5 35.5t2.5 113.5h154q18 -169 -28.5 -257.5t-143.5 -88.5q-57 0 -107 29.5t-102 77.5q-17 16 -27 24t-24.5 15.5t-28.5 7.5q-56 0 -41 -152zM1444 0h-293l-88 242h-657
l-89 -242h-294l546 1434h328zM598 766l-102 -279h477l-103 279q-38 106 -56 185t-30 196h-100q-13 -119 -31.5 -200t-54.5 -181z" />
    <glyph glyph-name="Adieresis" unicode="&#xc4;" horiz-adv-x="1468" 
d="M477 1552q-82 0 -131 43.5t-49 124.5q0 84 49 127t131 43t131 -43t49 -127q0 -81 -49 -124.5t-131 -43.5zM985 1552q-82 0 -131 43.5t-49 124.5q0 84 49 127t131 43t131 -43t49 -127q0 -81 -49 -124.5t-131 -43.5zM1444 0h-293l-88 242h-657l-89 -242h-294l546 1434h328z
M598 766l-102 -279h477l-103 279q-38 106 -56 185t-30 196h-100q-13 -119 -31.5 -200t-54.5 -181z" />
    <glyph glyph-name="Aring" unicode="&#xc5;" horiz-adv-x="1468" 
d="M733 1542q-139 0 -223 71.5t-84 190.5q0 122 86 193t221 71q136 0 219.5 -72.5t83.5 -191.5q0 -121 -85 -191.5t-218 -70.5zM733 1923q-58 0 -92.5 -31.5t-34.5 -87.5q0 -55 35.5 -85.5t91.5 -30.5t89.5 32t33.5 84q0 55 -34 87t-89 32zM1444 0h-293l-88 242h-657
l-89 -242h-294l546 1434h328zM598 766l-102 -279h477l-103 279q-38 106 -56 185t-30 196h-100q-13 -119 -31.5 -200t-54.5 -181z" />
    <glyph glyph-name="AE" unicode="&#xc6;" horiz-adv-x="2033" 
d="M324 0h-301l641 1434h1296v-252h-746v-336h678v-232h-678v-362h748v-252h-1034v242h-502zM676 827l-148 -340h400v660h-156q-15 -88 -33.5 -150t-62.5 -170z" />
    <glyph glyph-name="Ccedilla" unicode="&#xc7;" horiz-adv-x="1574" 
d="M899 -35q-12 -37 -55 -69l20 -23q25 14 68 14q83 0 133.5 -49t50.5 -129q0 -104 -82.5 -166.5t-212.5 -62.5q-67 0 -128 18t-99 49l43 134q83 -60 182 -60q59 0 93 26t34 70q0 35 -23 56.5t-61 21.5t-67 -16l-90 43l40 145q-147 14 -270.5 78.5t-207.5 165t-131 231.5
t-46 275q-1 155 52.5 293t149 240.5t236.5 161.5t306 58q248 -2 430 -135.5t231 -359.5l-266 -72q-40 150 -145 232t-255 82q-201 1 -326.5 -140t-125.5 -360t126 -360t328 -140q155 0 261.5 88.5t142.5 253.5l270 -65q-44 -230 -207 -369t-399 -160z" />
    <glyph glyph-name="Egrave" unicode="&#xc8;" horiz-adv-x="1234" 
d="M664 1878l88 -303h-203l-189 303h304zM428 614v-362h737v-252h-1020v1434h1018v-252h-735v-336h674v-232h-674z" />
    <glyph glyph-name="Eacute" unicode="&#xc9;" horiz-adv-x="1234" 
d="M637 1878h303l-188 -303h-203zM428 614v-362h737v-252h-1020v1434h1018v-252h-735v-336h674v-232h-674z" />
    <glyph glyph-name="Ecircumflex" unicode="&#xca;" horiz-adv-x="1234" 
d="M569 1638l-37 -63h-245l213 303h301l213 -303h-246l-37 63q-32 62 -45 111h-70q-12 -39 -47 -111zM428 614v-362h737v-252h-1020v1434h1018v-252h-735v-336h674v-232h-674z" />
    <glyph glyph-name="Edieresis" unicode="&#xcb;" horiz-adv-x="1234" 
d="M395 1552q-82 0 -131 43.5t-49 124.5q0 84 49 127t131 43t131 -43t49 -127q0 -81 -49 -124.5t-131 -43.5zM903 1552q-82 0 -131 43.5t-49 124.5q0 84 49 127t131 43t131 -43t49 -127q0 -81 -49 -124.5t-131 -43.5zM428 614v-362h737v-252h-1020v1434h1018v-252h-735v-336
h674v-232h-674z" />
    <glyph glyph-name="Igrave" unicode="&#xcc;" horiz-adv-x="618" 
d="M209 1575l-189 303h304l88 -303h-203zM168 0v1434h283v-1434h-283z" />
    <glyph glyph-name="Iacute" unicode="&#xcd;" horiz-adv-x="618" 
d="M295 1878h303l-188 -303h-203zM168 0v1434h283v-1434h-283z" />
    <glyph glyph-name="Icircumflex" unicode="&#xce;" horiz-adv-x="618" 
d="M190 1575h-245l213 303h301l213 -303h-246l-37 63q-32 62 -45 111h-70q-12 -39 -47 -111zM168 0v1434h283v-1434h-283z" />
    <glyph glyph-name="Idieresis" unicode="&#xcf;" horiz-adv-x="618" 
d="M55 1552q-82 0 -131 43.5t-49 124.5q0 84 49 127t131 43q83 0 132 -43t49 -127q0 -81 -49.5 -124.5t-131.5 -43.5zM563 1552q-82 0 -131 43.5t-49 124.5q0 84 49 127t131 43t131 -43t49 -127q0 -81 -49 -124.5t-131 -43.5zM168 0v1434h283v-1434h-283z" />
    <glyph glyph-name="Eth" unicode="&#xd0;" horiz-adv-x="1560" 
d="M172 618h-121v199h121v617h602q322 0 509 -188t187 -529q0 -346 -184.5 -531.5t-515.5 -185.5h-598v618zM459 618v-366h295q430 0 430 465q0 230 -109.5 347.5t-320.5 117.5h-295v-365h243v-199h-243z" />
    <glyph glyph-name="Ntilde" unicode="&#xd1;" horiz-adv-x="1546" 
d="M594 1550h-154q-18 170 29 258t145 88q40 0 80.5 -17.5t64.5 -36t60 -50.5q50 -47 82 -47q30 0 38.5 35.5t2.5 113.5h154q18 -169 -28.5 -257.5t-143.5 -88.5q-57 0 -107 29.5t-102 77.5q-17 16 -27 24t-24.5 15.5t-28.5 7.5q-56 0 -41 -152zM145 0v1434h316l653 -1004h4
v1004h281v-1434h-316l-651 991h-4v-991h-283z" />
    <glyph glyph-name="Ograve" unicode="&#xd2;" horiz-adv-x="1658" 
d="M729 1589l-188 303h303l88 -303h-203zM90 717q0 161 56.5 301t154.5 239t235.5 156t294.5 57q156 0 293 -57t235.5 -156t155 -239t56.5 -301q0 -215 -96.5 -387.5t-265.5 -269.5t-378 -97t-378.5 97t-266 269.5t-96.5 387.5zM377 717q0 -223 127 -361.5t327 -138.5
q205 0 329 139.5t124 360.5q0 223 -124.5 361.5t-328.5 138.5q-205 0 -329.5 -137.5t-124.5 -362.5z" />
    <glyph glyph-name="Oacute" unicode="&#xd3;" horiz-adv-x="1658" 
d="M817 1892h303l-188 -303h-203zM90 717q0 161 56.5 301t154.5 239t235.5 156t294.5 57q156 0 293 -57t235.5 -156t155 -239t56.5 -301q0 -215 -96.5 -387.5t-265.5 -269.5t-378 -97t-378.5 97t-266 269.5t-96.5 387.5zM377 717q0 -223 127 -361.5t327 -138.5
q205 0 329 139.5t124 360.5q0 223 -124.5 361.5t-328.5 138.5q-205 0 -329.5 -137.5t-124.5 -362.5z" />
    <glyph glyph-name="Ocircumflex" unicode="&#xd4;" horiz-adv-x="1658" 
d="M713 1589h-246l213 303h301l213 -303h-246l-37 64q-32 63 -45 110h-69q-11 -36 -47 -110zM90 717q0 161 56.5 301t154.5 239t235.5 156t294.5 57q156 0 293 -57t235.5 -156t155 -239t56.5 -301q0 -215 -96.5 -387.5t-265.5 -269.5t-378 -97t-378.5 97t-266 269.5
t-96.5 387.5zM377 717q0 -223 127 -361.5t327 -138.5q205 0 329 139.5t124 360.5q0 223 -124.5 361.5t-328.5 138.5q-205 0 -329.5 -137.5t-124.5 -362.5z" />
    <glyph glyph-name="Otilde" unicode="&#xd5;" horiz-adv-x="1658" 
d="M657 1565h-153q-18 170 29 258t145 88q40 0 81 -18t64 -36t60 -51q50 -47 82 -47q30 0 38.5 36t2.5 114h153q18 -169 -28.5 -257.5t-143.5 -88.5q-94 0 -209 106q-17 16 -27 24t-24.5 15.5t-28.5 7.5q-30 0 -39.5 -37t-1.5 -114zM90 717q0 161 56.5 301t154.5 239
t235.5 156t294.5 57q156 0 293 -57t235.5 -156t155 -239t56.5 -301q0 -215 -96.5 -387.5t-265.5 -269.5t-378 -97t-378.5 97t-266 269.5t-96.5 387.5zM377 717q0 -223 127 -361.5t327 -138.5q205 0 329 139.5t124 360.5q0 223 -124.5 361.5t-328.5 138.5
q-205 0 -329.5 -137.5t-124.5 -362.5z" />
    <glyph glyph-name="Odieresis" unicode="&#xd6;" horiz-adv-x="1658" 
d="M575 1567q-82 0 -131 43.5t-49 124.5q0 84 49 127t131 43q83 0 132 -43t49 -127q0 -81 -49.5 -124.5t-131.5 -43.5zM1083 1567q-82 0 -131 43.5t-49 124.5q0 84 49 127t131 43q83 0 132 -43t49 -127q0 -81 -49.5 -124.5t-131.5 -43.5zM90 717q0 161 56.5 301t154.5 239
t235.5 156t294.5 57q156 0 293 -57t235.5 -156t155 -239t56.5 -301q0 -215 -96.5 -387.5t-265.5 -269.5t-378 -97t-378.5 97t-266 269.5t-96.5 387.5zM377 717q0 -223 127 -361.5t327 -138.5q205 0 329 139.5t124 360.5q0 223 -124.5 361.5t-328.5 138.5
q-205 0 -329.5 -137.5t-124.5 -362.5z" />
    <glyph glyph-name="multiply" unicode="&#xd7;" horiz-adv-x="1282" 
d="M330 227l-150 152l312 311l-312 309l150 152l311 -311l311 311l150 -152l-309 -309l309 -311l-150 -152l-311 312z" />
    <glyph glyph-name="Oslash" unicode="&#xd8;" horiz-adv-x="1648" 
d="M70 717q-2 161 55 302t157 240t240.5 155.5t300.5 55.5q269 3 467 -149l113 113l137 -140l-110 -110q152 -198 149 -467q2 -161 -55.5 -302.5t-158 -241t-241.5 -156t-301 -54.5q-263 -3 -467 148l-108 -109l-137 137l106 109q-150 198 -147 469zM346 717q0 -152 68 -264
l477 485q68 70 138.5 105.5t131.5 35.5v90q-120 69 -280 66q-243 0 -389 -141t-146 -377zM487 354v-92q118 -65 279 -65q244 0 390.5 143t146.5 377q0 145 -66 264l-496 -504q-63 -61 -130 -93t-124 -30z" />
    <glyph glyph-name="Ugrave" unicode="&#xd9;" horiz-adv-x="1449" 
d="M625 1575l-189 303h303l88 -303h-202zM139 549v885h281v-865q0 -177 73.5 -264.5t231.5 -87.5t231.5 87.5t73.5 264.5v865h283v-885q0 -284 -152.5 -435t-435.5 -151q-281 0 -433.5 151t-152.5 435z" />
    <glyph glyph-name="Uacute" unicode="&#xda;" horiz-adv-x="1449" 
d="M713 1878h303l-189 -303h-202zM139 549v885h281v-865q0 -177 73.5 -264.5t231.5 -87.5t231.5 87.5t73.5 264.5v865h283v-885q0 -284 -152.5 -435t-435.5 -151q-281 0 -433.5 151t-152.5 435z" />
    <glyph glyph-name="Ucircumflex" unicode="&#xdb;" horiz-adv-x="1449" 
d="M608 1575h-246l213 303h302l213 -303h-246l-37 63q-32 62 -45 111h-70q-12 -39 -47 -111zM139 549v885h281v-865q0 -177 73.5 -264.5t231.5 -87.5t231.5 87.5t73.5 264.5v865h283v-885q0 -284 -152.5 -435t-435.5 -151q-281 0 -433.5 151t-152.5 435z" />
    <glyph glyph-name="Udieresis" unicode="&#xdc;" horiz-adv-x="1449" 
d="M471 1552q-82 0 -131 43.5t-49 124.5q0 84 49 127t131 43t131 -43t49 -127q0 -81 -49 -124.5t-131 -43.5zM979 1552q-82 0 -131 43.5t-49 124.5q0 84 49 127t131 43t131 -43t49 -127q0 -81 -49 -124.5t-131 -43.5zM139 549v885h281v-865q0 -177 73.5 -264.5t231.5 -87.5
t231.5 87.5t73.5 264.5v865h283v-885q0 -284 -152.5 -435t-435.5 -151q-281 0 -433.5 151t-152.5 435z" />
    <glyph glyph-name="Yacute" unicode="&#xdd;" horiz-adv-x="1402" 
d="M688 1878h303l-188 -303h-203zM561 549l-549 885h328l145 -256q4 -8 24.5 -47.5t29.5 -58t28 -57t29 -65t23 -61t20 -64.5t10 -57h109q11 118 148 384q9 19 14 28l143 254h328l-547 -885v-549h-283v549z" />
    <glyph glyph-name="Thorn" unicode="&#xde;" horiz-adv-x="1435" 
d="M432 0h-287v1434h287v-242h422q231 0 370.5 -127t139.5 -348q0 -222 -139 -348.5t-371 -126.5h-422v-242zM432 944v-455h402q243 0 243 228q0 227 -243 227h-402z" />
    <glyph glyph-name="germandbls" unicode="&#xdf;" horiz-adv-x="1359" 
d="M397 0h-280v965q0 182 73.5 311.5t199 192.5t290.5 63q230 0 369 -116.5t139 -301.5q0 -106 -51 -184.5t-146 -118.5v-59q132 -26 211.5 -124t79.5 -235q0 -197 -142.5 -312.5t-385.5 -115.5q-148 0 -217 37v229q55 -34 170 -34q146 0 220 64t74 171t-72 166t-200 59
q-79 0 -111 -8v205l29 -2q126 0 198.5 58t72.5 161q0 99 -65 157t-177 58q-125 0 -202 -77.5t-77 -229.5v-979z" />
    <glyph glyph-name="agrave" unicode="&#xe0;" horiz-adv-x="1220" 
d="M600 1571l88 -303h-203l-188 303h303zM1108 178q32 0 59 19v-189q-61 -37 -151 -37q-96 0 -152.5 54t-56.5 161h-76q-23 -100 -116.5 -161.5t-217.5 -61.5q-145 0 -235 82t-90 217q0 139 90 227t276 127l340 72v17q0 208 -215 208q-108 0 -171.5 -55.5t-67.5 -157.5
l-252 48q19 175 157 274.5t353 99.5q223 0 347 -107t124 -310v-402q0 -27 0.5 -40.5t3 -33t8 -28.5t16.5 -16t27 -7zM500 172q91 0 171.5 53t106.5 131v168l-246 -49q-104 -21 -148 -62.5t-44 -101.5q0 -67 43 -103t117 -36z" />
    <glyph glyph-name="aacute" unicode="&#xe1;" horiz-adv-x="1220" 
d="M571 1571h303l-188 -303h-203zM1108 178q32 0 59 19v-189q-61 -37 -151 -37q-96 0 -152.5 54t-56.5 161h-76q-23 -100 -116.5 -161.5t-217.5 -61.5q-145 0 -235 82t-90 217q0 139 90 227t276 127l340 72v17q0 208 -215 208q-108 0 -171.5 -55.5t-67.5 -157.5l-252 48
q19 175 157 274.5t353 99.5q223 0 347 -107t124 -310v-402q0 -27 0.5 -40.5t3 -33t8 -28.5t16.5 -16t27 -7zM500 172q91 0 171.5 53t106.5 131v168l-246 -49q-104 -21 -148 -62.5t-44 -101.5q0 -67 43 -103t117 -36z" />
    <glyph glyph-name="acircumflex" unicode="&#xe2;" horiz-adv-x="1220" 
d="M504 1331l-37 -63h-246l213 303h301l213 -303h-246l-36 63q-32 62 -45 111h-70q-12 -39 -47 -111zM1108 178q32 0 59 19v-189q-61 -37 -151 -37q-96 0 -152.5 54t-56.5 161h-76q-23 -100 -116.5 -161.5t-217.5 -61.5q-145 0 -235 82t-90 217q0 139 90 227t276 127l340 72
v17q0 208 -215 208q-108 0 -171.5 -55.5t-67.5 -157.5l-252 48q19 175 157 274.5t353 99.5q223 0 347 -107t124 -310v-402q0 -27 0.5 -40.5t3 -33t8 -28.5t16.5 -16t27 -7zM500 172q91 0 171.5 53t106.5 131v168l-246 -49q-104 -21 -148 -62.5t-44 -101.5q0 -67 43 -103
t117 -36z" />
    <glyph glyph-name="atilde" unicode="&#xe3;" horiz-adv-x="1220" 
d="M412 1243h-154q-18 170 29 258t145 88q40 0 80.5 -17.5t64.5 -36t60 -50.5q50 -47 82 -47q30 0 38.5 35.5t2.5 113.5h153q18 -169 -28.5 -257.5t-143.5 -88.5q-57 0 -107 29.5t-102 77.5q-18 17 -27 24.5t-23.5 15t-28.5 7.5q-56 0 -41 -152zM1108 178q32 0 59 19v-189
q-61 -37 -151 -37q-96 0 -152.5 54t-56.5 161h-76q-23 -100 -116.5 -161.5t-217.5 -61.5q-145 0 -235 82t-90 217q0 139 90 227t276 127l340 72v17q0 208 -215 208q-108 0 -171.5 -55.5t-67.5 -157.5l-252 48q19 175 157 274.5t353 99.5q223 0 347 -107t124 -310v-402
q0 -27 0.5 -40.5t3 -33t8 -28.5t16.5 -16t27 -7zM500 172q91 0 171.5 53t106.5 131v168l-246 -49q-104 -21 -148 -62.5t-44 -101.5q0 -67 43 -103t117 -36z" />
    <glyph glyph-name="adieresis" unicode="&#xe4;" horiz-adv-x="1220" 
d="M332 1245q-82 0 -131 43.5t-49 124.5q0 84 49 127t131 43t131 -43t49 -127q0 -81 -49 -124.5t-131 -43.5zM840 1245q-82 0 -131.5 43.5t-49.5 124.5q0 84 49 127t132 43q82 0 131 -43t49 -127q0 -81 -49 -124.5t-131 -43.5zM1108 178q32 0 59 19v-189q-61 -37 -151 -37
q-96 0 -152.5 54t-56.5 161h-76q-23 -100 -116.5 -161.5t-217.5 -61.5q-145 0 -235 82t-90 217q0 139 90 227t276 127l340 72v17q0 208 -215 208q-108 0 -171.5 -55.5t-67.5 -157.5l-252 48q19 175 157 274.5t353 99.5q223 0 347 -107t124 -310v-402q0 -27 0.5 -40.5t3 -33
t8 -28.5t16.5 -16t27 -7zM500 172q91 0 171.5 53t106.5 131v168l-246 -49q-104 -21 -148 -62.5t-44 -101.5q0 -67 43 -103t117 -36z" />
    <glyph glyph-name="aring" unicode="&#xe5;" horiz-adv-x="1220" 
d="M588 1235q-139 0 -223 71.5t-84 190.5q0 122 86 193t221 71q136 0 219.5 -72.5t83.5 -191.5q0 -121 -85 -191.5t-218 -70.5zM588 1616q-58 0 -92.5 -31.5t-34.5 -87.5q0 -55 35.5 -86t91.5 -31q55 0 89 32t34 85q0 55 -34 87t-89 32zM1108 178q32 0 59 19v-189
q-61 -37 -151 -37q-96 0 -152.5 54t-56.5 161h-76q-23 -100 -116.5 -161.5t-217.5 -61.5q-145 0 -235 82t-90 217q0 139 90 227t276 127l340 72v17q0 208 -215 208q-108 0 -171.5 -55.5t-67.5 -157.5l-252 48q19 175 157 274.5t353 99.5q223 0 347 -107t124 -310v-402
q0 -27 0.5 -40.5t3 -33t8 -28.5t16.5 -16t27 -7zM500 172q91 0 171.5 53t106.5 131v168l-246 -49q-104 -21 -148 -62.5t-44 -101.5q0 -67 43 -103t117 -36z" />
    <glyph glyph-name="ae" unicode="&#xe6;" horiz-adv-x="2109" 
d="M74 279q0 275 381 344l405 75v21q-2 86 -60 140t-190 54t-206 -56.5t-78 -162.5l-256 47q20 182 166.5 281.5t381.5 99.5q300 0 424 -168q78 80 188 124t240 44q263 0 422.5 -155.5t159.5 -427.5v-84h-917q5 -121 96 -196t235 -75q219 0 373 189l162 -174
q-202 -236 -528 -236q-172 0 -306 63.5t-213 178.5h-73q-42 -112 -161.5 -177t-277.5 -65q-169 0 -268.5 84t-99.5 232zM1137 643h643q-9 121 -96 192.5t-224 71.5q-136 0 -225 -74t-98 -190zM344 303q0 -65 46.5 -98t129.5 -33q109 0 206 50t134 134v166l-332 -67
q-103 -19 -143.5 -56.5t-40.5 -95.5z" />
    <glyph glyph-name="ccedilla" unicode="&#xe7;" horiz-adv-x="1230" 
d="M696 -35q-12 -37 -55 -69l21 -23q25 14 67 14q83 0 133.5 -49t50.5 -129q0 -104 -82.5 -166.5t-212.5 -62.5q-67 0 -128 18t-99 49l43 134q83 -60 182 -60q59 0 93 26t34 70q0 35 -23 56.5t-61 21.5t-67 -16l-90 43l43 147q-218 26 -346.5 178.5t-128.5 389.5
q0 265 159 425t422 160q206 0 343.5 -100t179.5 -272l-259 -80q-23 111 -96.5 167t-181.5 56q-138 0 -215.5 -95.5t-77.5 -254.5q0 -164 81 -257t214 -93q113 0 186 60t95 163l258 -80q-37 -153 -167.5 -253.5t-314.5 -117.5z" />
    <glyph glyph-name="egrave" unicode="&#xe8;" horiz-adv-x="1251" 
d="M545 1268l-189 303h303l89 -303h-203zM70 541q0 260 154.5 420.5t414.5 160.5q253 0 404 -155.5t151 -423.5v-88h-852q8 -124 91.5 -197.5t219.5 -73.5q111 0 198.5 50t135.5 137l158 -172q-68 -110 -204.5 -173t-295.5 -63q-256 0 -415.5 157t-159.5 421zM344 643h582
q-8 121 -85 192.5t-206 71.5q-124 0 -203 -70t-88 -194z" />
    <glyph glyph-name="eacute" unicode="&#xe9;" horiz-adv-x="1251" 
d="M633 1571h303l-188 -303h-203zM70 541q0 260 154.5 420.5t414.5 160.5q253 0 404 -155.5t151 -423.5v-88h-852q8 -124 91.5 -197.5t219.5 -73.5q111 0 198.5 50t135.5 137l158 -172q-68 -110 -204.5 -173t-295.5 -63q-256 0 -415.5 157t-159.5 421zM344 643h582
q-8 121 -85 192.5t-206 71.5q-124 0 -203 -70t-88 -194z" />
    <glyph glyph-name="ecircumflex" unicode="&#xea;" horiz-adv-x="1251" 
d="M528 1268h-245l213 303h301l213 -303h-246l-37 63q-32 62 -45 111h-70q-12 -39 -47 -111zM70 541q0 260 154.5 420.5t414.5 160.5q253 0 404 -155.5t151 -423.5v-88h-852q8 -124 91.5 -197.5t219.5 -73.5q111 0 198.5 50t135.5 137l158 -172q-68 -110 -204.5 -173
t-295.5 -63q-256 0 -415.5 157t-159.5 421zM344 643h582q-8 121 -85 192.5t-206 71.5q-124 0 -203 -70t-88 -194z" />
    <glyph glyph-name="edieresis" unicode="&#xeb;" horiz-adv-x="1251" 
d="M391 1245q-82 0 -131 43.5t-49 124.5q0 84 49 127t131 43t131 -43t49 -127q0 -81 -49 -124.5t-131 -43.5zM899 1245q-82 0 -131 43.5t-49 124.5q0 84 49 127t131 43t131 -43t49 -127q0 -81 -49 -124.5t-131 -43.5zM70 541q0 260 154.5 420.5t414.5 160.5
q253 0 404 -155.5t151 -423.5v-88h-852q8 -124 91.5 -197.5t219.5 -73.5q111 0 198.5 50t135.5 137l158 -172q-68 -110 -204.5 -173t-295.5 -63q-256 0 -415.5 157t-159.5 421zM344 643h582q-8 121 -85 192.5t-206 71.5q-124 0 -203 -70t-88 -194z" />
    <glyph glyph-name="igrave" unicode="&#xec;" horiz-adv-x="546" 
d="M162 1268l-189 303h303l89 -303h-203zM125 0v1085h278v-1085h-278z" />
    <glyph glyph-name="iacute" unicode="&#xed;" horiz-adv-x="546" 
d="M250 1571h303l-188 -303h-203zM125 0v1085h278v-1085h-278z" />
    <glyph glyph-name="icircumflex" unicode="&#xee;" horiz-adv-x="546" 
d="M145 1268h-245l213 303h301l213 -303h-246l-37 63q-32 62 -45 111h-70q-12 -39 -47 -111zM125 0v1085h278v-1085h-278z" />
    <glyph glyph-name="idieresis" unicode="&#xef;" horiz-adv-x="546" 
d="M10 1245q-82 0 -131 43.5t-49 124.5q0 84 49 127t131 43t131 -43t49 -127q0 -81 -49 -124.5t-131 -43.5zM518 1245q-82 0 -131 43.5t-49 124.5q0 84 49 127t131 43t131 -43t49 -127q0 -81 -49 -124.5t-131 -43.5zM125 0v1085h278v-1085h-278z" />
    <glyph glyph-name="eth" unicode="&#xf0;" horiz-adv-x="1277" 
d="M70 446q0 211 131.5 347.5t328.5 136.5q115 0 208 -54t149 -151l78 51q-53 232 -244 371l-131 -146l-139 121l102 111q-63 31 -154.5 56t-177.5 32l105 211q112 -12 220.5 -43t174.5 -72l166 182l133 -124l-139 -152q154 -123 240.5 -297t86.5 -387q0 -307 -174.5 -491.5
t-451.5 -184.5q-225 0 -368.5 133t-143.5 350zM344 467q0 -127 70.5 -199.5t185.5 -72.5q128 0 224.5 83t123.5 224q-55 114 -143 176.5t-191 62.5q-120 0 -195 -76t-75 -198z" />
    <glyph glyph-name="ntilde" unicode="&#xf1;" horiz-adv-x="1304" 
d="M483 1243h-153q-18 170 29 258t145 88q40 0 80.5 -17.5t64.5 -36t60 -50.5q50 -47 82 -47q30 0 38 35t2 114h154q18 -169 -28.5 -257.5t-143.5 -88.5q-57 0 -107 29.5t-102 77.5q-17 16 -27 24t-24.5 15.5t-28.5 7.5q-56 0 -41 -152zM117 0v1085h245v-10
q-11 -92 -40 -174l84 -35q58 125 159 190.5t230 65.5q187 0 294 -125t107 -366v-631h-272v571q0 308 -234 308q-97 0 -175.5 -51.5t-123.5 -141.5v-686h-274z" />
    <glyph glyph-name="ograve" unicode="&#xf2;" horiz-adv-x="1288" 
d="M545 1268l-189 303h303l89 -303h-203zM70 545q0 259 159 418t416 159q256 0 416 -159t160 -418q0 -260 -160 -420t-416 -160q-257 0 -416 160t-159 420zM944 545q0 160 -80 253t-219 93t-220 -93t-81 -253q0 -161 81 -254.5t220 -93.5t219 93t80 255z" />
    <glyph glyph-name="oacute" unicode="&#xf3;" horiz-adv-x="1288" 
d="M631 1571h303l-189 -303h-202zM70 545q0 259 159 418t416 159q256 0 416 -159t160 -418q0 -260 -160 -420t-416 -160q-257 0 -416 160t-159 420zM944 545q0 160 -80 253t-219 93t-220 -93t-81 -253q0 -161 81 -254.5t220 -93.5t219 93t80 255z" />
    <glyph glyph-name="ocircumflex" unicode="&#xf4;" horiz-adv-x="1288" 
d="M526 1268h-245l213 303h301l213 -303h-246l-37 63q-32 62 -45 111h-70q-12 -39 -47 -111zM70 545q0 259 159 418t416 159q256 0 416 -159t160 -418q0 -260 -160 -420t-416 -160q-257 0 -416 160t-159 420zM944 545q0 160 -80 253t-219 93t-220 -93t-81 -253
q0 -161 81 -254.5t220 -93.5t219 93t80 255z" />
    <glyph glyph-name="otilde" unicode="&#xf5;" horiz-adv-x="1288" 
d="M471 1243h-154q-18 170 29.5 258t145.5 88q40 0 80.5 -18t63.5 -35.5t60 -50.5q50 -47 82 -47q30 0 38.5 35.5t2.5 113.5h154q18 -169 -28.5 -257.5t-143.5 -88.5q-57 0 -107 29.5t-102 77.5q-17 16 -27 24t-24.5 15.5t-28.5 7.5q-56 0 -41 -152zM70 545q0 259 159 418
t416 159q256 0 416 -159t160 -418q0 -260 -160 -420t-416 -160q-257 0 -416 160t-159 420zM944 545q0 160 -80 253t-219 93t-220 -93t-81 -253q0 -161 81 -254.5t220 -93.5t219 93t80 255z" />
    <glyph glyph-name="odieresis" unicode="&#xf6;" horiz-adv-x="1288" 
d="M391 1245q-82 0 -131 43.5t-49 124.5q0 84 49 127t131 43t131 -43t49 -127q0 -81 -49 -124.5t-131 -43.5zM899 1245q-82 0 -131 43.5t-49 124.5q0 84 49 127t131 43t131 -43t49 -127q0 -81 -49 -124.5t-131 -43.5zM70 545q0 259 159 418t416 159q256 0 416 -159t160 -418
q0 -260 -160 -420t-416 -160q-257 0 -416 160t-159 420zM944 545q0 160 -80 253t-219 93t-220 -93t-81 -253q0 -161 81 -254.5t220 -93.5t219 93t80 255z" />
    <glyph glyph-name="divide" unicode="&#xf7;" horiz-adv-x="1187" 
d="M592 936q-82 0 -131 43t-49 125t49 125t131 43q84 0 133 -42.5t49 -125.5t-49 -125.5t-133 -42.5zM145 793h893v-205h-893v205zM592 109q-82 0 -131 42.5t-49 124.5t49 125t131 43q85 0 133.5 -42.5t48.5 -125.5q0 -82 -49 -124.5t-133 -42.5z" />
    <glyph glyph-name="oslash" unicode="&#xf8;" horiz-adv-x="1370" 
d="M70 543q-2 162 78 295t221.5 208.5t314.5 75.5q196 0 352 -100l119 119l125 -129l-106 -107q129 -154 126 -362q1 -122 -45.5 -229.5t-128.5 -184.5t-197 -121.5t-245 -44.5q-204 0 -352 100l-119 -116l-123 129l105 104q-128 153 -125 363zM334 545q0 -100 41 -168
l284 285q142 139 271 133v82q-71 43 -199 43q-77 0 -146 -22t-126.5 -65.5t-91.5 -117.5t-33 -170zM438 291v-82q76 -43 199 -43q77 0 146 22t127 65.5t92 118t34 171.5q0 93 -43 168l-280 -281q-142 -142 -275 -139z" />
    <glyph glyph-name="ugrave" unicode="&#xf9;" horiz-adv-x="1304" 
d="M549 1268l-189 303h304l88 -303h-203zM1188 1085v-1085h-260v10q8 73 45 174l-86 29q-47 -118 -150 -184t-237 -66q-182 0 -286.5 116.5t-104.5 334.5v671h272v-620q0 -125 63 -191.5t179 -66.5q97 0 172.5 48t117.5 140v690h275z" />
    <glyph glyph-name="uacute" unicode="&#xfa;" horiz-adv-x="1304" 
d="M637 1571h303l-188 -303h-203zM1188 1085v-1085h-260v10q8 73 45 174l-86 29q-47 -118 -150 -184t-237 -66q-182 0 -286.5 116.5t-104.5 334.5v671h272v-620q0 -125 63 -191.5t179 -66.5q97 0 172.5 48t117.5 140v690h275z" />
    <glyph glyph-name="ucircumflex" unicode="&#xfb;" horiz-adv-x="1304" 
d="M532 1268h-245l213 303h301l213 -303h-246l-37 63q-32 62 -45 111h-70q-12 -39 -47 -111zM1188 1085v-1085h-260v10q8 73 45 174l-86 29q-47 -118 -150 -184t-237 -66q-182 0 -286.5 116.5t-104.5 334.5v671h272v-620q0 -125 63 -191.5t179 -66.5q97 0 172.5 48
t117.5 140v690h275z" />
    <glyph glyph-name="udieresis" unicode="&#xfc;" horiz-adv-x="1304" 
d="M395 1245q-82 0 -131 43.5t-49 124.5q0 84 49 127t131 43t131 -43t49 -127q0 -81 -49 -124.5t-131 -43.5zM903 1245q-82 0 -131 43.5t-49 124.5q0 84 49 127t131 43t131 -43t49 -127q0 -81 -49 -124.5t-131 -43.5zM1188 1085v-1085h-260v10q8 73 45 174l-86 29
q-47 -118 -150 -184t-237 -66q-182 0 -286.5 116.5t-104.5 334.5v671h272v-620q0 -125 63 -191.5t179 -66.5q97 0 172.5 48t117.5 140v690h275z" />
    <glyph glyph-name="yacute" unicode="&#xfd;" horiz-adv-x="1239" 
d="M604 1571h303l-188 -303h-203zM248 -498q-96 0 -168 35v244q64 -25 135 -25q50 0 89 15t64 42t38.5 49.5t25.5 51.5l41 106l-467 1065h307l174 -452q70 -185 88 -344h97q18 164 86 344l170 452h301l-537 -1249q-21 -49 -41.5 -87t-59 -87t-83 -81.5t-112.5 -55.5
t-148 -23z" />
    <glyph glyph-name="thorn" unicode="&#xfe;" horiz-adv-x="1320" 
d="M391 -461h-274v1956h274v-225q0 -164 -67 -324l55 -28q47 96 149 151t226 55q222 0 359.5 -159t137.5 -420q0 -264 -138 -422t-361 -158q-123 0 -222.5 54.5t-150.5 150.5l-55 -29q67 -158 67 -325v-277zM674 195q134 0 216.5 90.5t82.5 259.5q0 168 -82 258t-217 90
q-101 0 -178.5 -51t-104.5 -140v-317q28 -87 103 -138.5t180 -51.5z" />
    <glyph glyph-name="ydieresis" unicode="&#xff;" horiz-adv-x="1239" 
d="M365 1245q-82 0 -131.5 43.5t-49.5 124.5q0 84 49 127t132 43q82 0 131 -43t49 -127q0 -81 -49 -124.5t-131 -43.5zM872 1245q-82 0 -131 43.5t-49 124.5q0 84 49 127t131 43q83 0 132 -43t49 -127q0 -81 -49.5 -124.5t-131.5 -43.5zM248 -498q-96 0 -168 35v244
q64 -25 135 -25q50 0 89 15t64 42t38.5 49.5t25.5 51.5l41 106l-467 1065h307l174 -452q70 -185 88 -344h97q18 164 86 344l170 452h301l-537 -1249q-21 -49 -41.5 -87t-59 -87t-83 -81.5t-112.5 -55.5t-148 -23z" />
    <glyph glyph-name="Amacron" unicode="&#x100;" horiz-adv-x="1468" 
d="M381 1798h704v-196h-704v196zM1444 0h-293l-88 242h-657l-89 -242h-294l546 1434h328zM598 766l-102 -279h477l-103 279q-38 106 -56 185t-30 196h-100q-13 -119 -31.5 -200t-54.5 -181z" />
    <glyph glyph-name="amacron" unicode="&#x101;" horiz-adv-x="1220" 
d="M233 1491h705v-197h-705v197zM1108 178q32 0 59 19v-189q-61 -37 -151 -37q-96 0 -152.5 54t-56.5 161h-76q-23 -100 -116.5 -161.5t-217.5 -61.5q-145 0 -235 82t-90 217q0 139 90 227t276 127l340 72v17q0 208 -215 208q-108 0 -171.5 -55.5t-67.5 -157.5l-252 48
q19 175 157 274.5t353 99.5q223 0 347 -107t124 -310v-402q0 -27 0.5 -40.5t3 -33t8 -28.5t16.5 -16t27 -7zM500 172q91 0 171.5 53t106.5 131v168l-246 -49q-104 -21 -148 -62.5t-44 -101.5q0 -67 43 -103t117 -36z" />
    <glyph glyph-name="Abreve" unicode="&#x102;" horiz-adv-x="1468" 
d="M733 1559q-163 0 -261 87.5t-97 231.5h223q0 -74 36.5 -111.5t98.5 -37.5q135 0 135 149h224q0 -144 -98.5 -231.5t-260.5 -87.5zM1444 0h-293l-88 242h-657l-89 -242h-294l546 1434h328zM598 766l-102 -279h477l-103 279q-38 106 -56 185t-30 196h-100
q-13 -119 -31.5 -200t-54.5 -181z" />
    <glyph glyph-name="abreve" unicode="&#x103;" horiz-adv-x="1220" 
d="M586 1251q-163 0 -261.5 87.5t-97.5 232.5h224q0 -74 36.5 -112t98.5 -38q135 0 135 150h223q0 -145 -98.5 -232.5t-259.5 -87.5zM1108 178q32 0 59 19v-189q-61 -37 -151 -37q-96 0 -152.5 54t-56.5 161h-76q-23 -100 -116.5 -161.5t-217.5 -61.5q-145 0 -235 82
t-90 217q0 139 90 227t276 127l340 72v17q0 208 -215 208q-108 0 -171.5 -55.5t-67.5 -157.5l-252 48q19 175 157 274.5t353 99.5q223 0 347 -107t124 -310v-402q0 -27 0.5 -40.5t3 -33t8 -28.5t16.5 -16t27 -7zM500 172q91 0 171.5 53t106.5 131v168l-246 -49
q-104 -21 -148 -62.5t-44 -101.5q0 -67 43 -103t117 -36z" />
    <glyph glyph-name="Aogonek" unicode="&#x104;" horiz-adv-x="1468" 
d="M1520 -221l57 -150q-39 -31 -106 -51t-138 -20q-126 0 -201 65.5t-75 169.5q0 63 31.5 117.5t87.5 89.5h-25l-88 242h-657l-89 -242h-294l546 1434h328l547 -1434h-25q-88 -13 -138 -58.5t-50 -105.5q0 -52 35 -81t98 -29q89 0 156 53zM598 766l-102 -279h477l-103 279
q-38 106 -56 185t-30 196h-100q-13 -119 -31.5 -200t-54.5 -181z" />
    <glyph glyph-name="aogonek" unicode="&#x105;" horiz-adv-x="1220" 
d="M1239 -215l57 -150q-39 -31 -105.5 -51t-137.5 -20q-126 0 -201.5 65.5t-75.5 169.5q0 61 30.5 114.5t84.5 90.5q-84 54 -84 182h-76q-23 -100 -116.5 -161.5t-217.5 -61.5q-145 0 -235 82t-90 217q0 139 90 227t276 127l340 72v17q0 208 -215 208q-108 0 -171.5 -55.5
t-67.5 -157.5l-252 48q19 175 157 274.5t353 99.5q223 0 347 -107t124 -310v-402q0 -27 0.5 -40.5t3 -33t8 -28.5t16.5 -16t27 -7q32 0 59 19v-189q-54 -34 -133 -37q-84 -47 -84 -129q0 -52 35 -81t98 -29q89 0 156 53zM500 172q91 0 171.5 53t106.5 131v168l-246 -49
q-104 -21 -148 -62.5t-44 -101.5q0 -67 43 -103t117 -36z" />
    <glyph glyph-name="Cacute" unicode="&#x106;" horiz-adv-x="1574" 
d="M819 1878h303l-188 -303h-203zM90 717q-1 155 52.5 293t149 240.5t236.5 161.5t306 58q248 -2 430 -135.5t231 -359.5l-266 -72q-40 150 -145 232t-255 82q-201 1 -326.5 -140t-125.5 -360t126 -360t328 -140q155 0 261.5 88.5t142.5 253.5l270 -65q-47 -247 -229.5 -388
t-441.5 -143q-165 -1 -306 58.5t-236.5 162t-149 240.5t-52.5 293z" />
    <glyph glyph-name="cacute" unicode="&#x107;" horiz-adv-x="1230" 
d="M637 1571h303l-188 -303h-203zM70 537q0 265 159 425t422 160q206 0 343.5 -100t179.5 -272l-259 -80q-23 111 -96.5 167t-181.5 56q-138 0 -215.5 -95.5t-77.5 -254.5q0 -164 81 -257t214 -93q113 0 186 60t95 163l258 -80q-40 -167 -190.5 -270t-356.5 -103
q-254 0 -407.5 156.5t-153.5 417.5z" />
    <glyph glyph-name="Cdotaccent" unicode="&#x10a;" horiz-adv-x="1574" 
d="M834 1552q-82 0 -131.5 43.5t-49.5 124.5q0 84 49 127t132 43q82 0 131 -43t49 -127q0 -81 -49 -124.5t-131 -43.5zM90 717q-1 155 52.5 293t149 240.5t236.5 161.5t306 58q248 -2 430 -135.5t231 -359.5l-266 -72q-40 150 -145 232t-255 82q-201 1 -326.5 -140
t-125.5 -360t126 -360t328 -140q155 0 261.5 88.5t142.5 253.5l270 -65q-47 -247 -229.5 -388t-441.5 -143q-165 -1 -306 58.5t-236.5 162t-149 240.5t-52.5 293z" />
    <glyph glyph-name="cdotaccent" unicode="&#x10b;" horiz-adv-x="1230" 
d="M651 1245q-82 0 -131 43.5t-49 124.5q0 84 49 127t131 43t131 -43t49 -127q0 -81 -49 -124.5t-131 -43.5zM70 537q0 265 159 425t422 160q206 0 343.5 -100t179.5 -272l-259 -80q-23 111 -96.5 167t-181.5 56q-138 0 -215.5 -95.5t-77.5 -254.5q0 -164 81 -257t214 -93
q113 0 186 60t95 163l258 -80q-40 -167 -190.5 -270t-356.5 -103q-254 0 -407.5 156.5t-153.5 417.5z" />
    <glyph glyph-name="Ccaron" unicode="&#x10c;" horiz-adv-x="1574" 
d="M682 1575l-213 303h246l37 -66q34 -65 47 -110h69q12 45 45 110l37 66h246l-213 -303h-301zM90 717q-1 155 52.5 293t149 240.5t236.5 161.5t306 58q248 -2 430 -135.5t231 -359.5l-266 -72q-40 150 -145 232t-255 82q-201 1 -326.5 -140t-125.5 -360t126 -360t328 -140
q155 0 261.5 88.5t142.5 253.5l270 -65q-47 -247 -229.5 -388t-441.5 -143q-165 -1 -306 58.5t-236.5 162t-149 240.5t-52.5 293z" />
    <glyph glyph-name="ccaron" unicode="&#x10d;" horiz-adv-x="1230" 
d="M500 1268l-213 303h245l37 -66q34 -65 47 -110h70q12 45 45 110l37 66h246l-213 -303h-301zM70 537q0 265 159 425t422 160q206 0 343.5 -100t179.5 -272l-259 -80q-23 111 -96.5 167t-181.5 56q-138 0 -215.5 -95.5t-77.5 -254.5q0 -164 81 -257t214 -93q113 0 186 60
t95 163l258 -80q-40 -167 -190.5 -270t-356.5 -103q-254 0 -407.5 156.5t-153.5 417.5z" />
    <glyph glyph-name="Dcaron" unicode="&#x10e;" horiz-adv-x="1476" 
d="M1073 1878l-213 -303h-301l-213 303h246l37 -66q34 -65 47 -110h69q11 41 46 110l36 66h246zM145 1434h594q298 0 471.5 -188.5t173.5 -528.5q0 -346 -171 -531.5t-478 -185.5h-590v1434zM428 252h289q385 0 385 465q0 230 -98 347.5t-287 117.5h-289v-930z" />
    <glyph glyph-name="dcaron" unicode="&#x10f;" horiz-adv-x="1474" 
d="M1681 1272l-145 -234l-121 62l96 153q-46 10 -73 46.5t-27 86.5q0 66 45.5 106t112.5 40q68 0 109.5 -40.5t41.5 -105.5q0 -53 -39 -114zM602 -37q-234 0 -383 155.5t-149 416.5q0 263 150 425t390 162q136 0 246.5 -58.5t171.5 -182.5l59 28q-37 81 -54 164.5t-17 196.5
v225h278v-1495h-250v10q12 72 41 166l-57 29q-55 -120 -169.5 -181t-256.5 -61zM686 203q115 0 206 55.5t124 149.5v270q-32 93 -121 149t-207 56q-151 0 -245.5 -92.5t-94.5 -247.5q0 -156 96 -248t242 -92z" />
    <glyph glyph-name="Dcroat" unicode="&#x110;" horiz-adv-x="1560" 
d="M172 618h-121v199h121v617h602q322 0 509 -188t187 -529q0 -346 -184.5 -531.5t-515.5 -185.5h-598v618zM459 618v-366h295q430 0 430 465q0 230 -109.5 347.5t-320.5 117.5h-295v-365h243v-199h-243z" />
    <glyph glyph-name="dcroat" unicode="&#x111;" horiz-adv-x="1404" 
d="M1294 1378h101v-184h-101v-1194h-250v10q12 72 41 166l-57 29q-55 -120 -169.5 -181t-256.5 -61q-234 0 -383 155.5t-149 416.5q0 263 150 425t390 162q136 0 246.5 -58.5t171.5 -182.5l59 28q-61 130 -69 285h-268v184h266v117h278v-117zM1016 408v270q-32 93 -121 149
t-207 56q-151 0 -245.5 -92.5t-94.5 -247.5q0 -156 96 -248t242 -92q115 0 206 55.5t124 149.5z" />
    <glyph glyph-name="Emacron" unicode="&#x112;" horiz-adv-x="1234" 
d="M299 1798h705v-196h-705v196zM428 614v-362h737v-252h-1020v1434h1018v-252h-735v-336h674v-232h-674z" />
    <glyph glyph-name="emacron" unicode="&#x113;" horiz-adv-x="1251" 
d="M295 1294v197h704v-197h-704zM70 541q0 260 154.5 420.5t414.5 160.5q253 0 404 -155.5t151 -423.5v-88h-852q8 -124 91.5 -197.5t219.5 -73.5q111 0 198.5 50t135.5 137l158 -172q-68 -110 -204.5 -173t-295.5 -63q-256 0 -415.5 157t-159.5 421zM344 643h582
q-8 121 -85 192.5t-206 71.5q-124 0 -203 -70t-88 -194z" />
    <glyph glyph-name="Edotaccent" unicode="&#x116;" horiz-adv-x="1234" 
d="M651 1552q-82 0 -131 43.5t-49 124.5q0 84 49 127t131 43t131 -43t49 -127q0 -81 -49 -124.5t-131 -43.5zM428 614v-362h737v-252h-1020v1434h1018v-252h-735v-336h674v-232h-674z" />
    <glyph glyph-name="edotaccent" unicode="&#x117;" horiz-adv-x="1251" 
d="M647 1245q-82 0 -131 43.5t-49 124.5q0 84 49 127t131 43t131 -43t49 -127q0 -81 -49 -124.5t-131 -43.5zM70 541q0 260 154.5 420.5t414.5 160.5q253 0 404 -155.5t151 -423.5v-88h-852q8 -124 91.5 -197.5t219.5 -73.5q111 0 198.5 50t135.5 137l158 -172
q-68 -110 -204.5 -173t-295.5 -63q-256 0 -415.5 157t-159.5 421zM344 643h582q-8 121 -85 192.5t-206 71.5q-124 0 -203 -70t-88 -194z" />
    <glyph glyph-name="Eogonek" unicode="&#x118;" horiz-adv-x="1234" 
d="M1161 -221l58 -150q-39 -31 -106 -51t-138 -20q-126 0 -201.5 65.5t-75.5 169.5q0 63 31.5 117.5t87.5 89.5h-672v1434h1018v-252h-735v-336h674v-232h-674v-362h737v-252h-104q-89 -13 -139 -58.5t-50 -105.5q0 -52 35.5 -81t98.5 -29q88 0 155 53z" />
    <glyph glyph-name="eogonek" unicode="&#x119;" horiz-adv-x="1251" 
d="M1194 543v-88h-852q8 -124 91.5 -197.5t219.5 -73.5q111 0 198.5 50t135.5 137l158 -172q-51 -83 -142 -139t-204 -80q-47 -23 -73 -59.5t-26 -78.5q0 -52 35.5 -81t98.5 -29q88 0 155 53l58 -150q-39 -31 -106 -51t-138 -20q-126 0 -201.5 65.5t-75.5 169.5q0 95 68 166
q-235 15 -379.5 170.5t-144.5 405.5q0 260 154.5 420.5t414.5 160.5q253 0 404 -155.5t151 -423.5zM344 643h582q-8 121 -85 192.5t-206 71.5q-124 0 -203 -70t-88 -194z" />
    <glyph glyph-name="Ecaron" unicode="&#x11a;" horiz-adv-x="1234" 
d="M1014 1878l-213 -303h-301l-213 303h245l37 -66q34 -65 47 -110h70q12 45 45 110l37 66h246zM428 614v-362h737v-252h-1020v1434h1018v-252h-735v-336h674v-232h-674z" />
    <glyph glyph-name="ecaron" unicode="&#x11b;" horiz-adv-x="1251" 
d="M496 1268l-213 303h245l37 -66q34 -65 47 -110h70q12 45 45 110l37 66h246l-213 -303h-301zM70 541q0 260 154.5 420.5t414.5 160.5q253 0 404 -155.5t151 -423.5v-88h-852q8 -124 91.5 -197.5t219.5 -73.5q111 0 198.5 50t135.5 137l158 -172q-68 -110 -204.5 -173
t-295.5 -63q-256 0 -415.5 157t-159.5 421zM344 643h582q-8 121 -85 192.5t-206 71.5q-124 0 -203 -70t-88 -194z" />
    <glyph glyph-name="Gbreve" unicode="&#x11e;" horiz-adv-x="1617" 
d="M475 1878h223q0 -74 37 -111.5t99 -37.5q135 0 135 149h223q0 -144 -98 -231.5t-260 -87.5q-163 0 -261.5 87.5t-97.5 231.5zM90 702q0 231 100.5 408.5t269.5 270t376 89.5q162 -2 299.5 -61t231 -168t126.5 -252l-268 -74q-42 144 -145 223t-253 79q-206 1 -327 -141
t-121 -363q0 -225 126 -366t339 -140q159 0 266 78.5t137 210.5v36h-416v209h654v-741h-240v16q6 38 60 203l-88 41q-62 -138 -178 -215.5t-281 -77.5q-156 -1 -284 58t-211 160t-128 234t-45 283z" />
    <glyph glyph-name="gbreve" unicode="&#x11f;" horiz-adv-x="1081" 
d="M145 1571h224q0 -74 36.5 -112t98.5 -38q135 0 135 150h223q0 -145 -98.5 -232.5t-259.5 -87.5q-163 0 -261.5 87.5t-97.5 232.5zM496 -535q-242 0 -355.5 67t-113.5 187q0 81 54 132.5t146 60.5v53q-46 23 -70 62.5t-24 85.5q0 72 44.5 121.5t121.5 64.5v53
q-117 36 -182.5 125t-65.5 209q0 184 125 291.5t332 107.5h522l37 -198h-53q-91 0 -178 51l-43 -74q168 -73 168 -256q0 -155 -117 -246.5t-312 -91.5h-69q-101 0 -101 -69q0 -37 29.5 -52t87.5 -20l246 -12q324 -19 324 -297q0 -177 -144.5 -266t-408.5 -89zM506 465
q100 0 154.5 58t54.5 157q0 100 -57 155.5t-152 55.5q-99 0 -153 -57t-54 -154q0 -101 56 -158t151 -57zM500 -356q147 0 210.5 33.5t63.5 97.5q0 54 -33.5 75t-91.5 25l-313 19q-40 -7 -63 -40.5t-23 -76.5q0 -73 64.5 -103t185.5 -30z" />
    <glyph glyph-name="Gdotaccent" unicode="&#x120;" horiz-adv-x="1617" 
d="M836 1552q-82 0 -131.5 43.5t-49.5 124.5q0 84 49 127t132 43q82 0 131 -43t49 -127q0 -81 -49 -124.5t-131 -43.5zM90 702q0 231 100.5 408.5t269.5 270t376 89.5q162 -2 299.5 -61t231 -168t126.5 -252l-268 -74q-42 144 -145 223t-253 79q-206 1 -327 -141t-121 -363
q0 -225 126 -366t339 -140q159 0 266 78.5t137 210.5v36h-416v209h654v-741h-240v16q6 38 60 203l-88 41q-62 -138 -178 -215.5t-281 -77.5q-156 -1 -284 58t-211 160t-128 234t-45 283z" />
    <glyph glyph-name="gdotaccent" unicode="&#x121;" horiz-adv-x="1081" 
d="M506 1245q-82 0 -131 43.5t-49 124.5q0 84 49 127t131 43t131 -43t49 -127q0 -81 -49 -124.5t-131 -43.5zM496 -535q-242 0 -355.5 67t-113.5 187q0 81 54 132.5t146 60.5v53q-46 23 -70 62.5t-24 85.5q0 72 44.5 121.5t121.5 64.5v53q-117 36 -182.5 125t-65.5 209
q0 184 125 291.5t332 107.5h522l37 -198h-53q-91 0 -178 51l-43 -74q168 -73 168 -256q0 -155 -117 -246.5t-312 -91.5h-69q-101 0 -101 -69q0 -37 29.5 -52t87.5 -20l246 -12q324 -19 324 -297q0 -177 -144.5 -266t-408.5 -89zM506 465q100 0 154.5 58t54.5 157
q0 100 -57 155.5t-152 55.5q-99 0 -153 -57t-54 -154q0 -101 56 -158t151 -57zM500 -356q147 0 210.5 33.5t63.5 97.5q0 54 -33.5 75t-91.5 25l-313 19q-40 -7 -63 -40.5t-23 -76.5q0 -73 64.5 -103t185.5 -30z" />
    <glyph glyph-name="uni0122" unicode="&#x122;" horiz-adv-x="1617" 
d="M90 702q0 231 100.5 408.5t269.5 270t376 89.5q162 -2 299.5 -61t231 -168t126.5 -252l-268 -74q-42 144 -145 223t-253 79q-206 1 -327 -141t-121 -363q0 -225 126 -366t339 -140q159 0 266 78.5t137 210.5v36h-416v209h654v-741h-240v16q6 38 60 203l-88 41
q-62 -138 -178 -215.5t-281 -77.5q-156 -1 -284 58t-211 160t-128 234t-45 283zM608 -152h303l-188 -303h-203z" />
    <glyph glyph-name="uni0123" unicode="&#x123;" horiz-adv-x="1081" 
d="M377 1528l151 246l136 -70l-95 -152q51 -15 81 -55.5t30 -95.5q0 -74 -50 -118t-124 -44q-78 0 -125 45t-47 117q0 63 43 127zM496 -535q-242 0 -355.5 67t-113.5 187q0 81 54 132.5t146 60.5v53q-46 23 -70 62.5t-24 85.5q0 72 44.5 121.5t121.5 64.5v53
q-117 36 -182.5 125t-65.5 209q0 184 125 291.5t332 107.5h522l37 -198h-53q-91 0 -178 51l-43 -74q168 -73 168 -256q0 -155 -117 -246.5t-312 -91.5h-69q-101 0 -101 -69q0 -37 29.5 -52t87.5 -20l246 -12q324 -19 324 -297q0 -177 -144.5 -266t-408.5 -89zM506 465
q100 0 154.5 58t54.5 157q0 100 -57 155.5t-152 55.5q-99 0 -153 -57t-54 -154q0 -101 56 -158t151 -57zM500 -356q147 0 210.5 33.5t63.5 97.5q0 54 -33.5 75t-91.5 25l-313 19q-40 -7 -63 -40.5t-23 -76.5q0 -73 64.5 -103t185.5 -30z" />
    <glyph glyph-name="Hbar" unicode="&#x126;" horiz-adv-x="1622" 
d="M1417 1434v-164h131v-213h-131v-1057h-287v602h-675v-602h-287v1057h-131v213h131v164h287v-164h675v164h287zM455 1057v-193h675v193h-675z" />
    <glyph glyph-name="hbar" unicode="&#x127;" horiz-adv-x="1359" 
d="M784 1122q224 0 346.5 -131t122.5 -360v-631h-278v571q0 308 -275 308q-115 0 -206.5 -51.5t-139.5 -141.5v-686h-278v1194h-129v184h129v117h278v-117h238v-184h-238v-2q0 -147 -59 -291l57 -29q64 121 177 185.5t255 64.5z" />
    <glyph glyph-name="Imacron" unicode="&#x12a;" horiz-adv-x="618" 
d="M-43 1602v196h705v-196h-705zM168 0v1434h283v-1434h-283z" />
    <glyph glyph-name="imacron" unicode="&#x12b;" horiz-adv-x="546" 
d="M-88 1294v197h704v-197h-704zM125 0v1085h278v-1085h-278z" />
    <glyph glyph-name="Iogonek" unicode="&#x12e;" horiz-adv-x="618" 
d="M551 -221l57 -150q-39 -31 -105.5 -51t-137.5 -20q-126 0 -201.5 65.5t-75.5 169.5q0 63 31.5 117.5t87.5 89.5h-39v1434h283v-1434q-89 -13 -139 -58.5t-50 -105.5q0 -52 35 -81t98 -29q89 0 156 53z" />
    <glyph glyph-name="iogonek" unicode="&#x12f;" horiz-adv-x="546" 
d="M266 1245q-82 0 -131 43.5t-49 124.5q0 84 49 127t131 43t131 -43t49 -127q0 -81 -49 -124.5t-131 -43.5zM504 -221l57 -150q-39 -31 -106 -51t-138 -20q-126 0 -201 65.5t-75 169.5q0 63 31.5 117.5t87.5 89.5h-35v1085h278v-1085q-88 -13 -138 -58.5t-50 -105.5
q0 -52 35 -81t98 -29q89 0 156 53z" />
    <glyph glyph-name="Idotaccent" unicode="&#x130;" horiz-adv-x="618" 
d="M311 1552q-82 0 -131 43.5t-49 124.5q0 84 49 127t131 43q83 0 132 -43t49 -127q0 -81 -49.5 -124.5t-131.5 -43.5zM168 0v1434h283v-1434h-283z" />
    <glyph glyph-name="dotlessi" unicode="&#x131;" horiz-adv-x="546" 
d="M125 0v1085h278v-1085h-278z" />
    <glyph glyph-name="uni0136" unicode="&#x136;" horiz-adv-x="1392" 
d="M145 0v1434h283v-291q0 -120 -18.5 -194.5t-77.5 -155.5l67 -64l631 705h340l-549 -613l557 -821h-340l-413 621h-4l-193 -226v-395h-283zM539 -152h303l-189 -303h-202z" />
    <glyph glyph-name="uni0137" unicode="&#x137;" horiz-adv-x="1243" 
d="M117 0v1495h274v-516q0 -112 -15.5 -187t-72.5 -161l76 -51q60 92 178 213l289 292h373l-465 -438l475 -647h-332l-340 479h-4l-162 -151v-328h-274zM481 -152h303l-188 -303h-203z" />
    <glyph glyph-name="Lacute" unicode="&#x139;" horiz-adv-x="1136" 
d="M272 1878h303l-188 -303h-203zM145 0v1434h283v-1180h674v-254h-957z" />
    <glyph glyph-name="lacute" unicode="&#x13a;" horiz-adv-x="520" 
d="M248 1980h303l-189 -303h-202zM125 0v1495h274v-1495h-274z" />
    <glyph glyph-name="uni013B" unicode="&#x13b;" horiz-adv-x="1136" 
d="M145 0v1434h283v-1180h674v-254h-957zM457 -152h303l-189 -303h-202z" />
    <glyph glyph-name="uni013C" unicode="&#x13c;" horiz-adv-x="520" 
d="M125 0v1495h274v-1495h-274zM109 -152h303l-189 -303h-203z" />
    <glyph glyph-name="Lcaron" unicode="&#x13d;" horiz-adv-x="1226" 
d="M940 1212l-145 -233l-121 61l96 154q-46 10 -73 46.5t-27 86.5q0 66 44.5 106t110.5 40q69 0 111.5 -40.5t42.5 -105.5q0 -54 -39 -115zM145 0v1434h289v-1180h758v-254h-1047z" />
    <glyph glyph-name="lcaron" unicode="&#x13e;" horiz-adv-x="579" 
d="M791 1272l-146 -234l-119 62l95 153q-45 10 -72 46.5t-27 86.5q0 66 45 106t111 40q68 0 109.5 -40.5t41.5 -105.5q0 -55 -38 -114zM125 0v1495h278v-1495h-278z" />
    <glyph glyph-name="Lslash" unicode="&#x141;" horiz-adv-x="1124" 
d="M133 582l-137 -54v205l137 53v648h283v-535l198 78v-205l-198 -78v-440h674v-254h-957v582z" />
    <glyph glyph-name="lslash" unicode="&#x142;" horiz-adv-x="544" 
d="M4 514v207l143 65v709h273v-577l143 65v-207l-143 -67v-709h-273v580z" />
    <glyph glyph-name="Nacute" unicode="&#x143;" horiz-adv-x="1546" 
d="M754 1878h303l-189 -303h-202zM145 0v1434h316l653 -1004h4v1004h281v-1434h-316l-651 991h-4v-991h-283z" />
    <glyph glyph-name="nacute" unicode="&#x144;" horiz-adv-x="1304" 
d="M643 1571h303l-188 -303h-203zM117 0v1085h245v-10q-11 -92 -40 -174l84 -35q58 125 159 190.5t230 65.5q187 0 294 -125t107 -366v-631h-272v571q0 308 -234 308q-97 0 -175.5 -51.5t-123.5 -141.5v-686h-274z" />
    <glyph glyph-name="uni0145" unicode="&#x145;" horiz-adv-x="1546" 
d="M145 0v1434h316l653 -1004h4v1004h281v-1434h-316l-651 991h-4v-991h-283zM616 -152h304l-189 -303h-203z" />
    <glyph glyph-name="uni0146" unicode="&#x146;" horiz-adv-x="1304" 
d="M117 0v1085h245v-10q-11 -92 -40 -174l84 -35q58 125 159 190.5t230 65.5q187 0 294 -125t107 -366v-631h-272v571q0 308 -234 308q-97 0 -175.5 -51.5t-123.5 -141.5v-686h-274zM506 -152h303l-188 -303h-203z" />
    <glyph glyph-name="Ncaron" unicode="&#x147;" horiz-adv-x="1546" 
d="M616 1575l-213 303h246l37 -66q34 -65 47 -110h70q12 45 45 110l37 66h245l-212 -303h-302zM145 0v1434h316l653 -1004h4v1004h281v-1434h-316l-651 991h-4v-991h-283z" />
    <glyph glyph-name="ncaron" unicode="&#x148;" horiz-adv-x="1304" 
d="M506 1268l-213 303h246l36 -66q36 -70 48 -110h69q12 45 45 110l37 66h246l-213 -303h-301zM117 0v1085h245v-10q-11 -92 -40 -174l84 -35q58 125 159 190.5t230 65.5q187 0 294 -125t107 -366v-631h-272v571q0 308 -234 308q-97 0 -175.5 -51.5t-123.5 -141.5v-686h-274
z" />
    <glyph glyph-name="Eng" unicode="&#x14a;" horiz-adv-x="1673" 
d="M465 0h-287v1434h307l719 -998h4v998h287v-1500q0 -213 -107.5 -322.5t-320.5 -109.5q-69 0 -106 13l-41 227q38 -6 86 -6q109 0 160 45.5t51 144.5v74h-29l-719 985h-4v-985z" />
    <glyph glyph-name="eng" unicode="&#x14b;" horiz-adv-x="1470" 
d="M428 0h-278v1085h266v-10q-15 -97 -47 -174l59 -29q62 120 176 185t256 65q224 0 346.5 -131t122.5 -360v-697q0 -213 -108.5 -322.5t-321.5 -109.5q-69 0 -106 13l-39 227q34 -6 84 -6q116 0 163.5 51.5t47.5 169.5v614q0 308 -275 308q-114 0 -205 -51.5t-141 -141.5
v-686z" />
    <glyph glyph-name="Omacron" unicode="&#x14c;" horiz-adv-x="1658" 
d="M479 1616v196h705v-196h-705zM90 717q0 161 56.5 301t154.5 239t235.5 156t294.5 57q156 0 293 -57t235.5 -156t155 -239t56.5 -301q0 -215 -96.5 -387.5t-265.5 -269.5t-378 -97t-378.5 97t-266 269.5t-96.5 387.5zM377 717q0 -223 127 -361.5t327 -138.5
q205 0 329 139.5t124 360.5q0 223 -124.5 361.5t-328.5 138.5q-205 0 -329.5 -137.5t-124.5 -362.5z" />
    <glyph glyph-name="omacron" unicode="&#x14d;" horiz-adv-x="1288" 
d="M293 1294v197h704v-197h-704zM70 545q0 259 159 418t416 159q256 0 416 -159t160 -418q0 -260 -160 -420t-416 -160q-257 0 -416 160t-159 420zM944 545q0 160 -80 253t-219 93t-220 -93t-81 -253q0 -161 81 -254.5t220 -93.5t219 93t80 255z" />
    <glyph glyph-name="Ohungarumlaut" unicode="&#x150;" horiz-adv-x="1658" 
d="M627 1892h288l-167 -303h-201zM1083 1892h289l-244 -303h-217zM90 717q0 161 56.5 301t154.5 239t235.5 156t294.5 57q156 0 293 -57t235.5 -156t155 -239t56.5 -301q0 -215 -96.5 -387.5t-265.5 -269.5t-378 -97t-378.5 97t-266 269.5t-96.5 387.5zM377 717
q0 -223 127 -361.5t327 -138.5q205 0 329 139.5t124 360.5q0 223 -124.5 361.5t-328.5 138.5q-205 0 -329.5 -137.5t-124.5 -362.5z" />
    <glyph glyph-name="ohungarumlaut" unicode="&#x151;" horiz-adv-x="1288" 
d="M442 1571h289l-168 -303h-201zM899 1571h289l-244 -303h-217zM70 545q0 259 159 418t416 159q256 0 416 -159t160 -418q0 -260 -160 -420t-416 -160q-257 0 -416 160t-159 420zM944 545q0 160 -80 253t-219 93t-220 -93t-81 -253q0 -161 81 -254.5t220 -93.5t219 93
t80 255z" />
    <glyph glyph-name="OE" unicode="&#x152;" horiz-adv-x="2045" 
d="M90 717q0 342 192 529.5t525 187.5h1167v-252h-688v-336h621v-232h-621v-362h688v-252h-1165q-340 0 -529.5 185.5t-189.5 531.5zM379 717q0 -465 446 -465h174v930h-174q-219 0 -332.5 -117t-113.5 -348z" />
    <glyph glyph-name="oe" unicode="&#x153;" horiz-adv-x="2123" 
d="M2066 455h-852v-4q9 -122 92.5 -194.5t217.5 -72.5q113 0 200.5 50t133.5 137l159 -172q-68 -110 -205 -173t-294 -63q-136 0 -249.5 46.5t-191.5 133.5q-76 -85 -187 -131.5t-245 -46.5q-257 0 -416 160t-159 420q0 259 159 418t416 159q134 0 245.5 -46t188.5 -132
q74 86 184.5 132t247.5 46q253 0 404 -155.5t151 -423.5v-88zM1507 907q-123 0 -202 -70t-88 -194h581q-9 122 -85.5 193t-205.5 71zM645 197q127 0 205 78t92 217q-2 16 -2 49q0 37 2 55q-12 137 -90.5 216t-206.5 79q-139 0 -220 -93t-81 -253q0 -161 81 -254.5t220 -93.5
z" />
    <glyph glyph-name="Racute" unicode="&#x154;" horiz-adv-x="1359" 
d="M668 1878h303l-189 -303h-202zM1165 309l66 -155q19 -40 28 -57t25 -38t33 -32v-27h-320q-32 34 -49 88l-90 221q-50 122 -103 163.5t-165 41.5h-162v-514h-283v1434h717q203 0 316.5 -105.5t113.5 -290.5q0 -189 -108.5 -288.5t-306.5 -108.5v-86q59 -10 97 -23t73 -40
t62 -70.5t56 -112.5zM428 762h369q100 0 155.5 56t55.5 157q0 211 -211 211h-369v-424z" />
    <glyph glyph-name="racute" unicode="&#x155;" horiz-adv-x="786" 
d="M391 1571h303l-188 -303h-203zM391 0h-274v1085h241v-12q-9 -67 -47 -164l90 -28q82 225 250 225q65 0 94 -16l19 -246q-50 18 -137 18q-77 0 -144 -47t-92 -133v-682z" />
    <glyph glyph-name="uni0156" unicode="&#x156;" horiz-adv-x="1359" 
d="M1165 309l66 -155q19 -40 28 -57t25 -38t33 -32v-27h-320q-32 34 -49 88l-90 221q-50 122 -103 163.5t-165 41.5h-162v-514h-283v1434h717q203 0 316.5 -105.5t113.5 -290.5q0 -189 -108.5 -288.5t-306.5 -108.5v-86q59 -10 97 -23t73 -40t62 -70.5t56 -112.5zM428 762
h369q100 0 155.5 56t55.5 157q0 211 -211 211h-369v-424zM643 -455h-203l88 303h303z" />
    <glyph glyph-name="uni0157" unicode="&#x157;" horiz-adv-x="786" 
d="M391 0h-274v1085h241v-12q-9 -67 -47 -164l90 -28q82 225 250 225q65 0 94 -16l19 -246q-50 18 -137 18q-77 0 -144 -47t-92 -133v-682zM102 -152h304l-189 -303h-203z" />
    <glyph glyph-name="Rcaron" unicode="&#x158;" horiz-adv-x="1359" 
d="M1044 1878l-213 -303h-301l-213 303h246l37 -66q34 -65 47 -110h70q12 45 45 110l37 66h245zM1165 309l66 -155q19 -40 28 -57t25 -38t33 -32v-27h-320q-32 34 -49 88l-90 221q-50 122 -103 163.5t-165 41.5h-162v-514h-283v1434h717q203 0 316.5 -105.5t113.5 -290.5
q0 -189 -108.5 -288.5t-306.5 -108.5v-86q59 -10 97 -23t73 -40t62 -70.5t56 -112.5zM428 762h369q100 0 155.5 56t55.5 157q0 211 -211 211h-369v-424z" />
    <glyph glyph-name="rcaron" unicode="&#x159;" horiz-adv-x="786" 
d="M254 1268l-213 303h246l37 -66q34 -65 47 -110h69q12 45 45 110l37 66h246l-213 -303h-301zM391 0h-274v1085h241v-12q-9 -67 -47 -164l90 -28q82 225 250 225q65 0 94 -16l19 -246q-50 18 -137 18q-77 0 -144 -47t-92 -133v-682z" />
    <glyph glyph-name="Sacute" unicode="&#x15a;" horiz-adv-x="1327" 
d="M647 1882h303l-188 -303h-203zM78 440l256 47q6 -140 99.5 -213t252.5 -73q132 0 205.5 50.5t73.5 141.5q0 97 -75 141.5t-259 75.5q-256 40 -381 139.5t-125 288.5q0 203 148.5 316.5t394.5 113.5q249 0 408 -117t173 -309l-262 -59q-17 126 -100.5 190t-220.5 64
q-125 0 -191.5 -46.5t-66.5 -127.5q0 -36 9.5 -62.5t35 -47.5t53.5 -35.5t81 -28t100 -22.5t128 -23q215 -38 324.5 -140t109.5 -290q0 -213 -158.5 -332t-420.5 -119q-270 0 -425.5 129.5t-166.5 347.5z" />
    <glyph glyph-name="sacute" unicode="&#x15b;" horiz-adv-x="1130" 
d="M535 1571h303l-189 -303h-203zM57 315l230 78q41 -221 299 -221q97 0 149.5 34t52.5 97q0 18 -4 33t-14.5 27.5t-20 21.5t-30 17t-33.5 13t-41 11t-43.5 9t-49.5 9t-50 9q-54 10 -96.5 21t-92 28.5t-85.5 42.5t-67 57.5t-47 78.5t-16 101q0 159 128 249.5t339 90.5
q206 0 340 -87t160 -234l-219 -68q-27 91 -104 136.5t-189 45.5q-90 0 -137 -30t-47 -84q0 -27 14 -48t34 -34t57.5 -24t69 -17.5t83.5 -15.5l51 -9q71 -13 120.5 -26.5t104 -38.5t87 -58t54 -84t21.5 -118q0 -174 -130.5 -269.5t-367.5 -95.5q-229 0 -357.5 91.5
t-152.5 260.5z" />
    <glyph glyph-name="Scedilla" unicode="&#x15e;" horiz-adv-x="1327" 
d="M815 844q215 -38 324.5 -140t109.5 -290q0 -199 -139.5 -316.5t-374.5 -132.5q-16 -40 -55 -69l20 -23q25 14 68 14q83 0 133.5 -49t50.5 -129q0 -104 -82.5 -166.5t-212.5 -62.5q-67 0 -128 18t-99 49l43 134q83 -60 182 -60q59 0 93 26t34 70q0 35 -23 56.5t-61 21.5
t-67 -16l-90 43l41 145q-231 22 -363 148t-141 325l256 47q6 -140 99.5 -213t252.5 -73q132 0 205.5 50.5t73.5 141.5q0 97 -75 141.5t-259 75.5q-256 40 -381 139.5t-125 288.5q0 203 148.5 316.5t394.5 113.5q249 0 408 -117t173 -309l-262 -59q-17 126 -100.5 190
t-220.5 64q-125 0 -191.5 -46.5t-66.5 -127.5q0 -36 9.5 -62.5t35 -47.5t53.5 -35.5t81 -28t100 -22.5t128 -23z" />
    <glyph glyph-name="scedilla" unicode="&#x15f;" horiz-adv-x="1130" 
d="M678 653q71 -13 120.5 -26.5t104 -38.5t87 -58t54 -84t21.5 -118q0 -165 -117.5 -259.5t-333.5 -105.5q-17 -41 -55 -67l21 -23q25 14 67 14q83 0 133.5 -49t50.5 -129q0 -104 -82.5 -166.5t-211.5 -62.5q-67 0 -128.5 18t-99.5 49l43 134q83 -60 183 -60q59 0 93 26
t34 70q0 35 -23 56.5t-61 21.5q-39 0 -68 -16l-90 43l43 147q-182 20 -283.5 108.5t-122.5 237.5l230 78q41 -221 299 -221q97 0 149.5 34t52.5 97q0 18 -4 33t-14.5 27.5t-20 21.5t-30 17t-33.5 13t-41 11t-43.5 9t-49.5 9t-50 9q-54 10 -96.5 21t-92 28.5t-85.5 42.5
t-67 57.5t-47 78.5t-16 101q0 159 128 249.5t339 90.5q206 0 340 -87t160 -234l-219 -68q-27 91 -104 136.5t-189 45.5q-90 0 -137 -30t-47 -84q0 -27 14 -48t34 -34t57.5 -24t69 -17.5t83.5 -15.5z" />
    <glyph glyph-name="Scaron" unicode="&#x160;" horiz-adv-x="1327" 
d="M510 1579l-213 303h246l37 -65q33 -64 47 -111h69q12 47 45 111l37 65h246l-213 -303h-301zM78 440l256 47q6 -140 99.5 -213t252.5 -73q132 0 205.5 50.5t73.5 141.5q0 97 -75 141.5t-259 75.5q-256 40 -381 139.5t-125 288.5q0 203 148.5 316.5t394.5 113.5
q249 0 408 -117t173 -309l-262 -59q-17 126 -100.5 190t-220.5 64q-125 0 -191.5 -46.5t-66.5 -127.5q0 -36 9.5 -62.5t35 -47.5t53.5 -35.5t81 -28t100 -22.5t128 -23q215 -38 324.5 -140t109.5 -290q0 -213 -158.5 -332t-420.5 -119q-270 0 -425.5 129.5t-166.5 347.5z
" />
    <glyph glyph-name="scaron" unicode="&#x161;" horiz-adv-x="1130" 
d="M397 1268l-213 303h246l37 -66q34 -65 47 -110h70q12 45 45 110l37 66h245l-213 -303h-301zM57 315l230 78q41 -221 299 -221q97 0 149.5 34t52.5 97q0 18 -4 33t-14.5 27.5t-20 21.5t-30 17t-33.5 13t-41 11t-43.5 9t-49.5 9t-50 9q-54 10 -96.5 21t-92 28.5t-85.5 42.5
t-67 57.5t-47 78.5t-16 101q0 159 128 249.5t339 90.5q206 0 340 -87t160 -234l-219 -68q-27 91 -104 136.5t-189 45.5q-90 0 -137 -30t-47 -84q0 -27 14 -48t34 -34t57.5 -24t69 -17.5t83.5 -15.5l51 -9q71 -13 120.5 -26.5t104 -38.5t87 -58t54 -84t21.5 -118
q0 -174 -130.5 -269.5t-367.5 -95.5q-229 0 -357.5 91.5t-152.5 260.5z" />
    <glyph glyph-name="uni0162" unicode="&#x162;" horiz-adv-x="1273" 
d="M778 0h-69q0 -58 -62 -104l21 -23q25 14 67 14q83 0 134 -49t51 -129q0 -104 -82.5 -166.5t-212.5 -62.5q-67 0 -128.5 18t-99.5 49l43 134q83 -60 183 -60q59 0 93 26t34 70q0 35 -23 56.5t-61 21.5q-39 0 -68 -16l-90 43l51 178h-63v1182h-459v252h1202v-252h-461
v-1182z" />
    <glyph glyph-name="uni0163" unicode="&#x163;" horiz-adv-x="884" 
d="M668 -113q83 0 133.5 -49t50.5 -129q0 -104 -82.5 -166.5t-212.5 -62.5q-67 0 -128 18t-99 49l43 134q83 -60 182 -60q59 0 93 26t34 70q0 35 -23 56.5t-61 21.5q-39 0 -68 -16l-90 43l47 162q-134 21 -191.5 108t-57.5 232v534h-211v227h211v273l274 49v-322h311v-227
h-311v-477q0 -83 27 -116.5t106 -33.5q71 0 139 31l-34 -258q-50 -16 -111 -22q-9 -48 -59 -86l20 -23q25 14 68 14z" />
    <glyph glyph-name="Tcaron" unicode="&#x164;" horiz-adv-x="1273" 
d="M999 1878l-213 -303h-301l-213 303h246l37 -66q34 -65 47 -110h70q12 45 45 110l37 66h245zM37 1434h1202v-252h-461v-1182h-282v1182h-459v252z" />
    <glyph glyph-name="tcaron" unicode="&#x165;" horiz-adv-x="821" 
d="M1001 1401l-135 -221l-121 61l86 139q-46 10 -73 47.5t-27 88.5q0 65 45.5 104t112.5 39t109 -40t42 -103q0 -57 -39 -115zM569 -27q-180 0 -255.5 89t-75.5 255v541h-211v227h211v273l274 49v-322h311v-227h-311v-483q0 -82 27 -116t106 -34q71 0 139 31l-34 -258
q-84 -25 -181 -25z" />
    <glyph glyph-name="Tbar" unicode="&#x166;" horiz-adv-x="1310" 
d="M1257 1434v-252h-460v-355h295v-225h-295v-602h-283v602h-295v225h295v355h-461v252h1204z" />
    <glyph glyph-name="tbar" unicode="&#x167;" horiz-adv-x="884" 
d="M823 1085v-227h-311v-182h311l-32 -195h-279v-106q0 -82 27 -116t106 -34q71 0 139 31l-34 -258q-84 -25 -181 -25q-180 0 -255.5 89t-75.5 255v164h-211v195h211v182h-211v227h211v273l274 49v-322h311z" />
    <glyph glyph-name="Umacron" unicode="&#x16a;" horiz-adv-x="1449" 
d="M373 1602v196h704v-196h-704zM139 549v885h281v-865q0 -177 73.5 -264.5t231.5 -87.5t231.5 87.5t73.5 264.5v865h283v-885q0 -284 -152.5 -435t-435.5 -151q-281 0 -433.5 151t-152.5 435z" />
    <glyph glyph-name="umacron" unicode="&#x16b;" horiz-adv-x="1304" 
d="M299 1294v197h705v-197h-705zM1188 1085v-1085h-260v10q8 73 45 174l-86 29q-47 -118 -150 -184t-237 -66q-182 0 -286.5 116.5t-104.5 334.5v671h272v-620q0 -125 63 -191.5t179 -66.5q97 0 172.5 48t117.5 140v690h275z" />
    <glyph glyph-name="Uring" unicode="&#x16e;" horiz-adv-x="1449" 
d="M420 1804q0 122 86 193t221 71q136 0 219.5 -72.5t83.5 -191.5q0 -121 -85 -191.5t-218 -70.5q-139 0 -223 71.5t-84 190.5zM600 1804q0 -55 35.5 -85.5t91.5 -30.5t89.5 32t33.5 84q0 55 -34 87t-89 32q-58 0 -92.5 -31.5t-34.5 -87.5zM139 549v885h281v-865
q0 -177 73.5 -264.5t231.5 -87.5t231.5 87.5t73.5 264.5v865h283v-885q0 -284 -152.5 -435t-435.5 -151q-281 0 -433.5 151t-152.5 435z" />
    <glyph glyph-name="uring" unicode="&#x16f;" horiz-adv-x="1304" 
d="M344 1497q0 122 86 193t221 71q136 0 219.5 -72.5t83.5 -191.5q0 -121 -85 -191.5t-218 -70.5q-139 0 -223 71.5t-84 190.5zM524 1497q0 -55 35.5 -86t91.5 -31q55 0 89 32t34 85q0 55 -34 87t-89 32q-58 0 -92.5 -31.5t-34.5 -87.5zM1188 1085v-1085h-260v10
q8 73 45 174l-86 29q-47 -118 -150 -184t-237 -66q-182 0 -286.5 116.5t-104.5 334.5v671h272v-620q0 -125 63 -191.5t179 -66.5q97 0 172.5 48t117.5 140v690h275z" />
    <glyph glyph-name="Uhungarumlaut" unicode="&#x170;" horiz-adv-x="1449" 
d="M522 1878h289l-168 -303h-201zM979 1878h289l-244 -303h-217zM139 549v885h281v-865q0 -177 73.5 -264.5t231.5 -87.5t231.5 87.5t73.5 264.5v865h283v-885q0 -284 -152.5 -435t-435.5 -151q-281 0 -433.5 151t-152.5 435z" />
    <glyph glyph-name="uhungarumlaut" unicode="&#x171;" horiz-adv-x="1304" 
d="M446 1571h289l-168 -303h-200zM903 1571h289l-244 -303h-217zM1188 1085v-1085h-260v10q8 73 45 174l-86 29q-47 -118 -150 -184t-237 -66q-182 0 -286.5 116.5t-104.5 334.5v671h272v-620q0 -125 63 -191.5t179 -66.5q97 0 172.5 48t117.5 140v690h275z" />
    <glyph glyph-name="Uogonek" unicode="&#x172;" horiz-adv-x="1449" 
d="M1030 569v865h283v-885q0 -262 -131 -411t-375 -171q-55 -46 -55 -110q0 -53 35 -82t98 -29q88 0 155 53l58 -149q-39 -31 -106 -51.5t-138 -20.5q-126 0 -201 66t-75 170q0 87 57 153q-239 23 -367.5 172t-128.5 410v885h281v-865q0 -177 73.5 -264.5t231.5 -87.5
t231.5 87.5t73.5 264.5z" />
    <glyph glyph-name="uogonek" unicode="&#x173;" horiz-adv-x="1304" 
d="M1255 -221l58 -150q-39 -31 -106 -51t-138 -20q-126 0 -201 65.5t-75 169.5q0 67 36 124.5t99 92.5q8 73 45 174l-86 29q-47 -118 -150 -184t-237 -66q-182 0 -286.5 116.5t-104.5 334.5v671h272v-620q0 -125 63 -191.5t179 -66.5q97 0 172.5 48t117.5 140v690h275v-1085
h-33q-88 -13 -138 -58.5t-50 -105.5q0 -52 35 -81t98 -29q88 0 155 53z" />
    <glyph glyph-name="Wcircumflex" unicode="&#x174;" horiz-adv-x="1980" 
d="M872 1575h-245l213 303h301l213 -303h-246l-37 63q-32 62 -45 111h-70q-12 -39 -47 -111zM352 0l-323 1434h290l125 -617q15 -77 22.5 -179t8 -150t0.5 -152h107q23 232 94 465l196 633h234l205 -646q66 -221 90 -452h106q-5 312 27 473l125 625h293l-322 -1434h-319
l-203 651q-77 256 -80 471h-78q0 -190 -82 -471l-202 -651h-314z" />
    <glyph glyph-name="wcircumflex" unicode="&#x175;" horiz-adv-x="1697" 
d="M731 1268h-246l213 303h301l213 -303h-245l-37 63q-32 62 -45 111h-70q-12 -39 -47 -111zM285 0l-275 1085h277l75 -335q43 -196 46 -469h90q11 105 37.5 207.5t85.5 285.5l106 311h246l104 -311q60 -182 86.5 -285t36.5 -208h90q3 264 45 469l76 335h277l-273 -1085
h-311l-100 299q-56 176 -78.5 294.5t-28.5 256.5h-96q-6 -137 -29 -261t-76 -290l-100 -299h-311z" />
    <glyph glyph-name="Ycircumflex" unicode="&#x176;" horiz-adv-x="1402" 
d="M584 1575h-246l213 303h301l213 -303h-246l-37 63q-32 62 -45 111h-69q-12 -39 -47 -111zM561 549l-549 885h328l145 -256q4 -8 24.5 -47.5t29.5 -58t28 -57t29 -65t23 -61t20 -64.5t10 -57h109q11 118 148 384q9 19 14 28l143 254h328l-547 -885v-549h-283v549z" />
    <glyph glyph-name="ycircumflex" unicode="&#x177;" horiz-adv-x="1239" 
d="M500 1268h-246l213 303h301l213 -303h-246l-37 63q-32 62 -45 111h-69q-12 -39 -47 -111zM248 -498q-96 0 -168 35v244q64 -25 135 -25q50 0 89 15t64 42t38.5 49.5t25.5 51.5l41 106l-467 1065h307l174 -452q70 -185 88 -344h97q18 164 86 344l170 452h301l-537 -1249
q-21 -49 -41.5 -87t-59 -87t-83 -81.5t-112.5 -55.5t-148 -23z" />
    <glyph glyph-name="Ydieresis" unicode="&#x178;" horiz-adv-x="1402" 
d="M446 1552q-82 0 -131 43.5t-49 124.5q0 84 49 127t131 43q83 0 132 -43t49 -127q0 -81 -49.5 -124.5t-131.5 -43.5zM954 1552q-82 0 -131 43.5t-49 124.5q0 84 49 127t131 43q83 0 132 -43t49 -127q0 -81 -49.5 -124.5t-131.5 -43.5zM561 549l-549 885h328l145 -256
q4 -8 24.5 -47.5t29.5 -58t28 -57t29 -65t23 -61t20 -64.5t10 -57h109q11 118 148 384q9 19 14 28l143 254h328l-547 -885v-549h-283v549z" />
    <glyph glyph-name="Zacute" unicode="&#x179;" horiz-adv-x="1316" 
d="M645 1878h303l-188 -303h-203zM1237 0h-1155v229l803 1006l-68 72q-60 -63 -133 -94t-186 -31h-396v252h1110v-230l-804 -1005l69 -72q54 60 130 92.5t202 32.5h428v-252z" />
    <glyph glyph-name="zacute" unicode="&#x17a;" horiz-adv-x="1077" 
d="M530 1571h304l-189 -303h-203zM1020 0h-952v225l637 664l-64 69q-62 -55 -117.5 -77.5t-146.5 -22.5h-295v227h922v-225l-637 -663l61 -70q60 55 118.5 77.5t151.5 22.5h322v-227z" />
    <glyph glyph-name="Zdotaccent" unicode="&#x17b;" horiz-adv-x="1316" 
d="M662 1552q-82 0 -131.5 43.5t-49.5 124.5q0 84 49 127t132 43q82 0 131 -43t49 -127q0 -81 -49 -124.5t-131 -43.5zM1237 0h-1155v229l803 1006l-68 72q-60 -63 -133 -94t-186 -31h-396v252h1110v-230l-804 -1005l69 -72q54 60 130 92.5t202 32.5h428v-252z" />
    <glyph glyph-name="zdotaccent" unicode="&#x17c;" horiz-adv-x="1077" 
d="M545 1245q-82 0 -131 43.5t-49 124.5q0 84 49 127t131 43t131 -43t49 -127q0 -81 -49 -124.5t-131 -43.5zM1020 0h-952v225l637 664l-64 69q-62 -55 -117.5 -77.5t-146.5 -22.5h-295v227h922v-225l-637 -663l61 -70q60 55 118.5 77.5t151.5 22.5h322v-227z" />
    <glyph glyph-name="Zcaron" unicode="&#x17d;" horiz-adv-x="1316" 
d="M508 1575l-213 303h246l37 -66q34 -65 47 -110h69q12 45 45 110l37 66h246l-213 -303h-301zM1237 0h-1155v229l803 1006l-68 72q-60 -63 -133 -94t-186 -31h-396v252h1110v-230l-804 -1005l69 -72q54 60 130 92.5t202 32.5h428v-252z" />
    <glyph glyph-name="zcaron" unicode="&#x17e;" horiz-adv-x="1077" 
d="M393 1268l-213 303h246l37 -66q34 -65 47 -110h70q12 45 45 110l37 66h245l-213 -303h-301zM1020 0h-952v225l637 664l-64 69q-62 -55 -117.5 -77.5t-146.5 -22.5h-295v227h922v-225l-637 -663l61 -70q60 55 118.5 77.5t151.5 22.5h322v-227z" />
    <glyph glyph-name="uni0218" unicode="&#x218;" horiz-adv-x="1327" 
d="M78 440l256 47q6 -140 99.5 -213t252.5 -73q132 0 205.5 50.5t73.5 141.5q0 97 -75 141.5t-259 75.5q-256 40 -381 139.5t-125 288.5q0 203 148.5 316.5t394.5 113.5q249 0 408 -117t173 -309l-262 -59q-17 126 -100.5 190t-220.5 64q-125 0 -191.5 -46.5t-66.5 -127.5
q0 -36 9.5 -62.5t35 -47.5t53.5 -35.5t81 -28t100 -22.5t128 -23q215 -38 324.5 -140t109.5 -290q0 -213 -158.5 -332t-420.5 -119q-270 0 -425.5 129.5t-166.5 347.5zM518 -152h303l-188 -303h-203z" />
    <glyph glyph-name="uni0219" unicode="&#x219;" horiz-adv-x="1130" 
d="M57 315l230 78q41 -221 299 -221q97 0 149.5 34t52.5 97q0 18 -4 33t-14.5 27.5t-20 21.5t-30 17t-33.5 13t-41 11t-43.5 9t-49.5 9t-50 9q-54 10 -96.5 21t-92 28.5t-85.5 42.5t-67 57.5t-47 78.5t-16 101q0 159 128 249.5t339 90.5q206 0 340 -87t160 -234l-219 -68
q-27 91 -104 136.5t-189 45.5q-90 0 -137 -30t-47 -84q0 -27 14 -48t34 -34t57.5 -24t69 -17.5t83.5 -15.5l51 -9q71 -13 120.5 -26.5t104 -38.5t87 -58t54 -84t21.5 -118q0 -174 -130.5 -269.5t-367.5 -95.5q-229 0 -357.5 91.5t-152.5 260.5zM397 -152h303l-188 -303h-203
z" />
    <glyph glyph-name="uni021A" unicode="&#x21a;" horiz-adv-x="1273" 
d="M37 1182v252h1202v-252h-461v-1182h-282v1182h-459zM600 -455h-203l88 303h303z" />
    <glyph glyph-name="uni021B" unicode="&#x21b;" horiz-adv-x="884" 
d="M569 -23q-180 0 -255.5 90.5t-75.5 256.5v534h-211v227h211v273l274 49v-322h311v-227h-311v-477q0 -83 27 -116.5t106 -33.5q71 0 139 31l-34 -258q-91 -27 -181 -27zM418 -152h303l-189 -303h-202z" />
    <glyph glyph-name="uni0237" unicode="&#x237;" horiz-adv-x="526" 
d="M401 1085v-1148q0 -215 -105.5 -325t-313.5 -110q-68 0 -105 13l-39 229q31 -8 82 -8q114 0 159.5 52.5t45.5 170.5v1126h276z" />
    <glyph glyph-name="circumflex" unicode="&#x2c6;" horiz-adv-x="907" 
d="M336 1268h-246l213 303h301l213 -303h-246l-36 63q-34 66 -46 111h-69q-12 -39 -47 -111z" />
    <glyph glyph-name="caron" unicode="&#x2c7;" horiz-adv-x="907" 
d="M303 1268l-213 303h246l37 -66q34 -65 47 -110h69q11 41 46 110l36 66h246l-213 -303h-301z" />
    <glyph glyph-name="breve" unicode="&#x2d8;" horiz-adv-x="880" 
d="M82 1571h223q0 -74 36.5 -112t98.5 -38q135 0 135 150h224q0 -145 -98.5 -232.5t-260.5 -87.5q-163 0 -261 87.5t-97 232.5z" />
    <glyph glyph-name="dotaccent" unicode="&#x2d9;" horiz-adv-x="509" 
d="M256 1245q-82 0 -131 43.5t-49 124.5q0 84 49 127t131 43t131 -43t49 -127q0 -81 -49 -124.5t-131 -43.5z" />
    <glyph glyph-name="ring" unicode="&#x2da;" horiz-adv-x="733" 
d="M61 1497q0 122 86.5 193t221.5 71q136 0 219.5 -72.5t83.5 -191.5q0 -121 -85 -191.5t-218 -70.5q-139 0 -223.5 71.5t-84.5 190.5zM242 1497q0 -55 35.5 -86t91.5 -31q55 0 89 32t34 85q0 55 -34 87t-89 32q-58 0 -92.5 -31.5t-34.5 -87.5z" />
    <glyph glyph-name="ogonek" unicode="&#x2db;" horiz-adv-x="753" 
d="M383 51l96 -18l4 -33q-88 -13 -138 -58.5t-50 -105.5q0 -52 35 -81t98 -29q89 0 156 53l57 -150q-39 -31 -106 -51t-138 -20q-126 0 -201 65.5t-75 169.5q0 97 72 169t190 89z" />
    <glyph glyph-name="tilde" unicode="&#x2dc;" horiz-adv-x="800" 
d="M225 1243h-153q-18 170 29 258t145 88q40 0 80.5 -17.5t64.5 -36t60 -50.5q50 -47 81 -47q30 0 38.5 35.5t2.5 113.5h154q18 -169 -28.5 -257.5t-143.5 -88.5q-57 0 -107 29.5t-102 77.5q-17 16 -27 24t-24.5 15.5t-28.5 7.5q-56 0 -41 -152z" />
    <glyph glyph-name="hungarumlaut" unicode="&#x2dd;" horiz-adv-x="1089" 
d="M213 1571h289l-168 -303h-201zM670 1571h288l-243 -303h-217z" />
    <glyph glyph-name="gravecomb" unicode="&#x300;" 
d="M-281 1268l-188 303h303l88 -303h-203z" />
    <glyph glyph-name="acutecomb" unicode="&#x301;" 
d="M-383 1571h303l-188 -303h-203z" />
    <glyph glyph-name="uni0302" unicode="&#x302;" 
d="M-571 1268h-246l213 303h301l213 -303h-246l-37 63q-32 62 -45 111h-69q-10 -33 -48 -111z" />
    <glyph glyph-name="tildecomb" unicode="&#x303;" 
d="M-575 1243h-154q-18 170 29 258t145 88q40 0 80.5 -17.5t64.5 -36t60 -50.5q50 -47 82 -47q30 0 38.5 35.5t2.5 113.5h153q18 -169 -28.5 -257.5t-143.5 -88.5q-57 0 -107 29.5t-102 77.5q-17 16 -27 24t-24.5 15.5t-28.5 7.5q-30 0 -39 -37t-1 -115z" />
    <glyph glyph-name="uni0304" unicode="&#x304;" 
d="M-852 1294v197h705v-197h-705z" />
    <glyph glyph-name="uni0306" unicode="&#x306;" 
d="M-799 1571h224q0 -74 36.5 -112t98.5 -38q135 0 135 150h223q0 -145 -98.5 -232.5t-259.5 -87.5q-163 0 -261.5 87.5t-97.5 232.5z" />
    <glyph glyph-name="uni0307" unicode="&#x307;" 
d="M-254 1245q-82 0 -131 43.5t-49 124.5q0 84 49 127t131 43t131 -43t49 -127q0 -81 -49 -124.5t-131 -43.5z" />
    <glyph glyph-name="uni0308" unicode="&#x308;" 
d="M-770 1245q-82 0 -131 43.5t-49 124.5q0 84 49 127t131 43t131 -43t49 -127q0 -81 -49 -124.5t-131 -43.5zM-262 1245q-82 0 -131 43.5t-49 124.5q0 84 49 127t131 43t131 -43t49 -127q0 -81 -49 -124.5t-131 -43.5z" />
    <glyph glyph-name="uni030A" unicode="&#x30a;" 
d="M-672 1497q0 122 86 193t221 71q136 0 220 -72.5t84 -191.5q0 -121 -85.5 -191.5t-218.5 -70.5q-139 0 -223 71.5t-84 190.5zM-492 1497q0 -55 35.5 -86t91.5 -31q55 0 89 32t34 85q0 55 -34 87t-89 32q-58 0 -92.5 -31.5t-34.5 -87.5z" />
    <glyph glyph-name="uni030B" unicode="&#x30b;" 
d="M-877 1571h289l-168 -303h-200zM-420 1571h289l-244 -303h-217z" />
    <glyph glyph-name="uni030C" unicode="&#x30c;" 
d="M-604 1268l-213 303h246l36 -66q36 -70 48 -110h69q12 45 45 110l37 66h246l-213 -303h-301z" />
    <glyph glyph-name="uni0312" unicode="&#x312;" 
d="M-408 1528l152 246l135 -70l-94 -152q51 -15 81 -55.5t30 -95.5q0 -74 -50 -118t-125 -44q-78 0 -125 45t-47 117q0 63 43 127z" />
    <glyph glyph-name="uni0326" unicode="&#x326;" 
d="M-516 -152h303l-188 -303h-203z" />
    <glyph glyph-name="uni0327" unicode="&#x327;" 
d="M-375 -104l21 -23q25 14 67 14q83 0 134 -49t51 -129q0 -104 -82.5 -166.5t-212.5 -62.5q-67 0 -128.5 18t-99.5 49l43 134q83 -60 183 -60q59 0 93 26t34 70q0 35 -23 56.5t-61 21.5q-39 0 -68 -16l-90 43l55 192l146 2v-16q0 -58 -62 -104z" />
    <glyph glyph-name="uni0328" unicode="&#x328;" 
d="M-371 51l97 -18l4 -33q-89 -13 -139 -58.5t-50 -105.5q0 -52 35 -81t98 -29q89 0 156 53l57 -150q-39 -31 -105.5 -51t-137.5 -20q-126 0 -201.5 65.5t-75.5 169.5q0 97 72 169t190 89z" />
    <glyph glyph-name="Wgrave" unicode="&#x1e80;" horiz-adv-x="1980" 
d="M889 1575l-189 303h304l88 -303h-203zM352 0l-323 1434h290l125 -617q15 -77 22.5 -179t8 -150t0.5 -152h107q23 232 94 465l196 633h234l205 -646q66 -221 90 -452h106q-5 312 27 473l125 625h293l-322 -1434h-319l-203 651q-77 256 -80 471h-78q0 -190 -82 -471
l-202 -651h-314z" />
    <glyph glyph-name="wgrave" unicode="&#x1e81;" horiz-adv-x="1697" 
d="M748 1268l-189 303h303l88 -303h-202zM285 0l-275 1085h277l75 -335q43 -196 46 -469h90q11 105 37.5 207.5t85.5 285.5l106 311h246l104 -311q60 -182 86.5 -285t36.5 -208h90q3 264 45 469l76 335h277l-273 -1085h-311l-100 299q-56 176 -78.5 294.5t-28.5 256.5h-96
q-6 -137 -29 -261t-76 -290l-100 -299h-311z" />
    <glyph glyph-name="Wacute" unicode="&#x1e82;" horiz-adv-x="1980" 
d="M977 1878h303l-188 -303h-203zM352 0l-323 1434h290l125 -617q15 -77 22.5 -179t8 -150t0.5 -152h107q23 232 94 465l196 633h234l205 -646q66 -221 90 -452h106q-5 312 27 473l125 625h293l-322 -1434h-319l-203 651q-77 256 -80 471h-78q0 -190 -82 -471l-202 -651
h-314z" />
    <glyph glyph-name="wacute" unicode="&#x1e83;" horiz-adv-x="1697" 
d="M836 1571h303l-189 -303h-202zM285 0l-275 1085h277l75 -335q43 -196 46 -469h90q11 105 37.5 207.5t85.5 285.5l106 311h246l104 -311q60 -182 86.5 -285t36.5 -208h90q3 264 45 469l76 335h277l-273 -1085h-311l-100 299q-56 176 -78.5 294.5t-28.5 256.5h-96
q-6 -137 -29 -261t-76 -290l-100 -299h-311z" />
    <glyph glyph-name="Wdieresis" unicode="&#x1e84;" horiz-adv-x="1980" 
d="M735 1552q-82 0 -131 43.5t-49 124.5q0 84 49 127t131 43t131 -43t49 -127q0 -81 -49 -124.5t-131 -43.5zM1243 1552q-82 0 -131 43.5t-49 124.5q0 84 49 127t131 43t131 -43t49 -127q0 -81 -49 -124.5t-131 -43.5zM352 0l-323 1434h290l125 -617q15 -77 22.5 -179
t8 -150t0.5 -152h107q23 232 94 465l196 633h234l205 -646q66 -221 90 -452h106q-5 312 27 473l125 625h293l-322 -1434h-319l-203 651q-77 256 -80 471h-78q0 -190 -82 -471l-202 -651h-314z" />
    <glyph glyph-name="wdieresis" unicode="&#x1e85;" horiz-adv-x="1697" 
d="M594 1245q-82 0 -131 43.5t-49 124.5q0 84 49 127t131 43t131 -43t49 -127q0 -81 -49 -124.5t-131 -43.5zM1102 1245q-82 0 -131 43.5t-49 124.5q0 84 49 127t131 43t131 -43t49 -127q0 -81 -49 -124.5t-131 -43.5zM285 0l-275 1085h277l75 -335q43 -196 46 -469h90
q11 105 37.5 207.5t85.5 285.5l106 311h246l104 -311q60 -182 86.5 -285t36.5 -208h90q3 264 45 469l76 335h277l-273 -1085h-311l-100 299q-56 176 -78.5 294.5t-28.5 256.5h-96q-6 -137 -29 -261t-76 -290l-100 -299h-311z" />
    <glyph glyph-name="uni1E9E" unicode="&#x1e9e;" horiz-adv-x="1470" 
d="M856 -37q-158 0 -238 41v246q67 -39 185 -39q146 0 223.5 61.5t77.5 171.5q0 103 -69 162.5t-187 59.5q-78 0 -119 -13v174l301 322v35h-596v-1184h-289v1434h1158v-330l-248 -264v-56q156 -15 247 -122t91 -265q0 -199 -149 -316.5t-388 -117.5z" />
    <glyph glyph-name="Ygrave" unicode="&#x1ef2;" horiz-adv-x="1402" 
d="M600 1575l-188 303h303l88 -303h-203zM561 549l-549 885h328l145 -256q4 -8 24.5 -47.5t29.5 -58t28 -57t29 -65t23 -61t20 -64.5t10 -57h109q11 118 148 384q9 19 14 28l143 254h328l-547 -885v-549h-283v549z" />
    <glyph glyph-name="ygrave" unicode="&#x1ef3;" horiz-adv-x="1239" 
d="M516 1268l-188 303h303l88 -303h-203zM248 -498q-96 0 -168 35v244q64 -25 135 -25q50 0 89 15t64 42t38.5 49.5t25.5 51.5l41 106l-467 1065h307l174 -452q70 -185 88 -344h97q18 164 86 344l170 452h301l-537 -1249q-21 -49 -41.5 -87t-59 -87t-83 -81.5t-112.5 -55.5
t-148 -23z" />
    <glyph glyph-name="endash" unicode="&#x2013;" horiz-adv-x="1144" 
d="M82 543v237h983v-237h-983z" />
    <glyph glyph-name="emdash" unicode="&#x2014;" horiz-adv-x="1748" 
d="M90 543v237h1567v-237h-1567z" />
    <glyph glyph-name="quoteleft" unicode="&#x2018;" horiz-adv-x="563" 
d="M158 1163l190 312l131 -66l-131 -217q59 -11 93 -53t34 -109q0 -81 -50 -124.5t-132 -43.5t-131 43.5t-49 124.5q0 63 45 133z" />
    <glyph glyph-name="quoteright" unicode="&#x2019;" horiz-adv-x="559" 
d="M406 1174l-193 -312l-131 68l131 215q-58 12 -91.5 54t-33.5 108q0 81 50 124.5t132 43.5t130.5 -43.5t48.5 -124.5q0 -62 -43 -133z" />
    <glyph glyph-name="quotesinglbase" unicode="&#x201a;" horiz-adv-x="583" 
d="M406 16l-193 -311l-131 66l131 217q-58 11 -91.5 53t-33.5 109q0 81 50 124t132 43t130.5 -43t48.5 -124q0 -63 -43 -134z" />
    <glyph glyph-name="quotedblleft" unicode="&#x201c;" horiz-adv-x="1046" 
d="M131 1163l191 312l131 -66l-129 -217q58 -11 91.5 -53t33.5 -109q0 -81 -50.5 -124.5t-132.5 -43.5t-131 43.5t-49 124.5q0 59 45 133zM623 1163l190 312l131 -66l-129 -217q58 -11 91.5 -53t33.5 -109q0 -81 -50 -124.5t-132 -43.5t-131 43.5t-49 124.5q0 59 45 133z
" />
    <glyph glyph-name="quotedblright" unicode="&#x201d;" horiz-adv-x="1054" 
d="M406 1174l-193 -312l-131 68l131 215q-58 12 -91.5 54t-33.5 108q0 81 50 124.5t132 43.5t130.5 -43.5t48.5 -124.5q0 -62 -43 -133zM897 1174l-192 -312l-132 68l132 215q-58 12 -91.5 54t-33.5 108q0 81 50 124.5t132 43.5t130 -43.5t48 -124.5q0 -62 -43 -133z" />
    <glyph glyph-name="quotedblbase" unicode="&#x201e;" horiz-adv-x="1052" 
d="M406 16l-191 -311l-131 66l131 217q-58 11 -91.5 53t-33.5 109q0 81 49 124t131 43t131.5 -43t49.5 -124q0 -64 -45 -134zM887 16l-193 -311l-131 66l131 217q-58 11 -91.5 53t-33.5 109q0 81 50.5 124t132.5 43t130 -43t48 -124q0 -63 -43 -134z" />
    <glyph glyph-name="dagger" unicode="&#x2020;" horiz-adv-x="884" 
d="M549 1174h242v-201h-242v-688h-213v688h-242v201h242v260h213v-260z" />
    <glyph glyph-name="daggerdbl" unicode="&#x2021;" horiz-adv-x="884" 
d="M791 1174v-201h-242v-232h242v-198h-242v-258h-213v258h-242v198h242v232h-242v201h242v260h213v-260h242z" />
    <glyph glyph-name="bullet" unicode="&#x2022;" horiz-adv-x="882" 
d="M145 530q0 134 82.5 215.5t214.5 81.5t213.5 -81.5t81.5 -215.5q0 -136 -81 -216.5t-214 -80.5t-215 81t-82 216z" />
    <glyph glyph-name="ellipsis" unicode="&#x2026;" horiz-adv-x="1624" 
d="M305 -20q-84 0 -133 42.5t-49 124.5q0 83 49 126.5t133 43.5q82 0 131 -44t49 -126q0 -81 -49 -124t-131 -43zM811 -20q-82 0 -131 42.5t-49 124.5t49 126t131 44q84 0 133 -43.5t49 -126.5q0 -81 -49 -124t-133 -43zM1319 -20q-82 0 -131 42.5t-49 124.5t49 126t131 44
q84 0 133 -43.5t49 -126.5q0 -81 -49 -124t-133 -43z" />
    <glyph glyph-name="perthousand" unicode="&#x2030;" horiz-adv-x="2627" 
d="M1192 -18q-186 0 -298 109.5t-112 287.5q0 76 27 158l-66 12q-47 -208 -151 -342l-164 -207h-235v23l266 342q64 84 152 163t177 138l-45 55q-40 -39 -97.5 -60.5t-113.5 -21.5q-187 0 -291 114t-104 306q0 198 111.5 309t298.5 111q184 0 295.5 -111t111.5 -287
q0 -78 -24 -159l63 -11q50 208 154 340l162 209h235v-22l-266 -344q-129 -167 -328 -299l45 -56q39 39 96 60.5t113 21.5q188 0 293 -114t105 -306q0 -198 -111.5 -308.5t-298.5 -110.5zM547 819q88 0 133 57.5t45 180.5q0 239 -178 239q-180 0 -180 -239q0 -238 180 -238z
M2097 -18q-84 0 -156.5 25t-129.5 75t-90 132.5t-33 188.5t33.5 188t91 131.5t129.5 74t155 24.5q85 0 157.5 -25t130 -75t90 -131.5t32.5 -186.5q0 -108 -33.5 -190.5t-91.5 -132t-130 -74t-155 -24.5zM1192 164q178 0 178 239q0 238 -178 238q-180 0 -180 -238
q0 -239 180 -239zM2097 164q180 0 180 239q0 238 -180 238q-88 0 -133 -57.5t-45 -180.5q0 -239 178 -239z" />
    <glyph glyph-name="guilsinglleft" unicode="&#x2039;" horiz-adv-x="669" 
d="M336 580l260 -482h-268l-262 482l262 481h268z" />
    <glyph glyph-name="guilsinglright" unicode="&#x203a;" horiz-adv-x="671" 
d="M344 98h-266l260 482l-260 481h266l262 -481z" />
    <glyph glyph-name="fraction" unicode="&#x2044;" horiz-adv-x="307" 
d="M-483 0l1077 1434h197l-1078 -1434h-196z" />
    <glyph glyph-name="uni2070" unicode="&#x2070;" horiz-adv-x="974" 
d="M487 598q-189 0 -294 131.5t-105 353.5q0 229 108 357.5t291 128.5q189 0 295.5 -132t106.5 -354q0 -228 -109.5 -356.5t-292.5 -128.5zM487 772q205 0 205 311q0 157 -53 234.5t-152 77.5q-202 0 -202 -312q0 -157 52.5 -234t149.5 -77z" />
    <glyph glyph-name="uni2074" unicode="&#x2074;" horiz-adv-x="993" 
d="M766 614h-197v187h-512v157l488 588h221v-583h154v-162h-154v-187zM584 1386l-346 -432l36 -41q53 50 181 50h114v161q0 75 17 123t55 84z" />
    <glyph glyph-name="uni2075" unicode="&#x2075;" horiz-adv-x="956" 
d="M78 885l178 41q12 -85 71.5 -128.5t151.5 -43.5q96 0 146.5 47t50.5 127q0 83 -50 126.5t-139 43.5q-65 0 -121.5 -23.5t-91.5 -66.5l-157 47l63 491h608v-164h-442l-10 -67q-12 -75 -78 -141l57 -46q35 56 99 85.5t137 29.5q148 0 234.5 -86.5t86.5 -228.5
q0 -160 -106.5 -249t-282.5 -89q-171 0 -282 81.5t-123 213.5z" />
    <glyph glyph-name="uni2076" unicode="&#x2076;" horiz-adv-x="993" 
d="M512 590q-204 0 -313 129.5t-109 357.5q0 232 120 362t322 130q139 0 239.5 -66.5t123.5 -173.5l-199 -43q-17 55 -64 87t-108 32q-110 0 -173.5 -81t-63.5 -243l47 -6q30 69 101.5 108.5t160.5 39.5q139 0 223 -80.5t84 -220.5q0 -151 -105 -241.5t-286 -90.5zM516 754
q87 0 139 47.5t52 124.5q0 75 -48.5 117t-136.5 42q-70 0 -129.5 -31t-93.5 -85q6 -102 63.5 -158.5t153.5 -56.5z" />
    <glyph glyph-name="uni2077" unicode="&#x2077;" horiz-adv-x="819" 
d="M248 1382h-191v164h715v-149l-383 -783h-225v11l293 571q35 71 70 119.5t91 99.5l-45 64q-52 -48 -128 -72.5t-197 -24.5z" />
    <glyph glyph-name="uni2078" unicode="&#x2078;" horiz-adv-x="1001" 
d="M84 864q0 83 56 139.5t149 71.5v53q-170 41 -170 187q0 116 104 185t279 69q174 0 277.5 -69.5t103.5 -184.5q0 -79 -46.5 -124.5t-121.5 -62.5v-53q93 -15 149 -71.5t56 -139.5q0 -131 -112 -202.5t-306 -71.5t-306 71.5t-112 202.5zM315 1286q0 -57 49.5 -91t137.5 -34
q87 0 135.5 34t48.5 91q0 61 -47 93t-137 32q-91 0 -139 -32t-48 -93zM283 899q0 -70 55 -107.5t164 -37.5q108 0 163.5 37.5t55.5 107.5q0 66 -56.5 105.5t-162.5 39.5t-162.5 -39.5t-56.5 -105.5z" />
    <glyph glyph-name="uni2079" unicode="&#x2079;" horiz-adv-x="993" 
d="M483 1569q204 0 312 -129.5t108 -356.5q0 -232 -120 -362.5t-322 -130.5q-139 0 -239 67t-122 174l197 43q17 -56 64 -87t110 -31q110 0 173.5 81.5t64.5 239.5l-52 8q-26 -66 -97 -106.5t-163 -40.5q-140 0 -224.5 80t-84.5 221q0 149 106 239.5t289 90.5zM477 1405
q-86 0 -139 -46.5t-53 -125.5q0 -74 49 -117t137 -43q70 0 129.5 32t93.5 85q-6 104 -64 159.5t-153 55.5z" />
    <glyph glyph-name="uni2080" unicode="&#x2080;" horiz-adv-x="974" 
d="M487 -133q-189 0 -294 131.5t-105 353.5q0 230 108 359t291 129q189 0 295.5 -132.5t106.5 -355.5q0 -228 -109.5 -356.5t-292.5 -128.5zM487 41q205 0 205 311q0 157 -53 234.5t-152 77.5q-202 0 -202 -312q0 -157 52.5 -234t149.5 -77z" />
    <glyph glyph-name="uni2081" unicode="&#x2081;" horiz-adv-x="825" 
d="M545 -113h-199v451q0 153 82 242l-47 45q-117 -117 -266 -131v170q92 13 172 56.5t123 98.5h135v-932z" />
    <glyph glyph-name="uni2082" unicode="&#x2082;" horiz-adv-x="888" 
d="M803 -113h-717v152l375 274q78 56 107.5 105.5t29.5 103.5q0 74 -42 115t-112 41q-80 0 -126 -49.5t-46 -141.5l-186 19q0 155 95.5 245.5t267.5 90.5q154 0 249 -83.5t95 -221.5q0 -107 -51.5 -186.5t-188.5 -172.5q-95 -74 -223 -141l30 -62q175 76 322 76h121v-164z
" />
    <glyph glyph-name="uni2083" unicode="&#x2083;" horiz-adv-x="935" 
d="M469 -133q-184 0 -282 80t-107 227l174 43q22 -186 219 -186q87 0 134.5 35.5t47.5 105.5q0 63 -44.5 94t-121.5 31h-116v143h98q162 0 162 119q0 61 -41.5 94t-116.5 33q-90 0 -140.5 -46.5t-58.5 -125.5l-178 41q10 135 117.5 214t263.5 79q167 0 258.5 -70t91.5 -182
q0 -78 -46 -127.5t-126 -67.5v-57q89 -7 142 -63t53 -138q0 -126 -102.5 -201t-280.5 -75z" />
    <glyph glyph-name="uni2084" unicode="&#x2084;" horiz-adv-x="993" 
d="M766 -113h-197v187h-512v157l488 588h221v-583h154v-162h-154v-187zM584 659l-346 -432l36 -41q53 50 181 50h114v161q0 75 17 123t55 84z" />
    <glyph glyph-name="uni2085" unicode="&#x2085;" horiz-adv-x="956" 
d="M78 162l178 41q12 -85 71.5 -128.5t151.5 -43.5q96 0 146.5 47t50.5 127q0 84 -50 128t-139 44q-64 0 -120.5 -24t-92.5 -66l-157 45l63 491h608v-161h-442l-10 -66q-17 -81 -78 -145l57 -43q35 55 99.5 84.5t136.5 29.5q148 0 234.5 -86.5t86.5 -230.5
q0 -160 -106.5 -249t-282.5 -89q-171 0 -282 81.5t-123 213.5z" />
    <glyph glyph-name="uni2086" unicode="&#x2086;" horiz-adv-x="993" 
d="M512 -133q-204 0 -313 129.5t-109 357.5q0 232 120 363t322 131q139 0 239.5 -67t123.5 -175l-199 -43q-17 56 -64 87.5t-108 31.5q-110 0 -173.5 -80.5t-63.5 -241.5l47 -8q30 69 101.5 108.5t160.5 39.5q139 0 223 -80.5t84 -220.5q0 -151 -105 -241.5t-286 -90.5z
M516 31q87 0 139 48t52 126q0 74 -49 115.5t-136 41.5q-70 0 -129.5 -31t-93.5 -85q6 -101 64 -158t153 -57z" />
    <glyph glyph-name="uni2087" unicode="&#x2087;" horiz-adv-x="819" 
d="M248 655h-191v164h715v-149l-383 -783h-225v11l293 571q35 71 70 119.5t91 99.5l-45 64q-52 -48 -128 -72.5t-197 -24.5z" />
    <glyph glyph-name="uni2088" unicode="&#x2088;" horiz-adv-x="1001" 
d="M84 141q0 83 56 139.5t149 71.5v54q-170 41 -170 188q0 114 104.5 184t278.5 70q173 0 277 -70.5t104 -183.5q0 -80 -46.5 -125.5t-121.5 -62.5v-54q93 -15 149 -71.5t56 -139.5q0 -131 -112 -202.5t-306 -71.5t-306 71.5t-112 202.5zM315 565q0 -57 50 -92t137 -35
t135.5 35t48.5 92q0 60 -47.5 91.5t-136.5 31.5q-91 0 -139 -31.5t-48 -91.5zM283 176q0 -70 55 -107.5t164 -37.5q108 0 163.5 37.5t55.5 107.5q0 66 -56.5 106t-162.5 40t-162.5 -40t-56.5 -106z" />
    <glyph glyph-name="uni2089" unicode="&#x2089;" horiz-adv-x="993" 
d="M483 848q203 0 311.5 -130.5t108.5 -357.5q0 -231 -120 -362t-322 -131q-139 0 -239 67.5t-122 174.5l197 43q17 -56 64 -87.5t110 -31.5q110 0 173.5 81.5t64.5 239.5l-52 8q-26 -66 -97 -106.5t-163 -40.5q-140 0 -224.5 80t-84.5 221q0 150 106.5 241t288.5 91z
M477 682q-86 0 -139 -46.5t-53 -125.5q0 -74 49 -117t137 -43q70 0 129.5 32t93.5 87q-6 103 -64 158t-153 55z" />
    <glyph glyph-name="uni20A9" unicode="&#x20a9;" horiz-adv-x="2074" 
d="M1864 815h182v-184h-223l-144 -631h-303l-205 631h-272l-205 -631h-301l-143 631h-221v184h180l-139 619h297l125 -609q0 -2 1 -5t1 -5h231l195 619h231l197 -619h233v2l127 617h297zM1075 1116h-78q-3 -143 -45 -301h164q-41 161 -41 301zM535 342h77q31 174 62 289
h-150q19 -149 11 -289zM1460 342h78q-6 149 12 289h-149q40 -165 59 -289z" />
    <glyph glyph-name="uni20AA" unicode="&#x20aa;" horiz-adv-x="1642" 
d="M406 0h-261v1434h633q160 0 242 -81.5t82 -222.5v-774h-211v697q0 89 -40.5 123t-121.5 34h-323v-1210zM1239 1434h258v-1434h-633q-160 0 -241.5 81t-81.5 222v774h211v-696q0 -89 40 -123.5t121 -34.5h326v1211z" />
    <glyph glyph-name="Euro" unicode="&#x20ac;" horiz-adv-x="1685" 
d="M932 -37q-256 -3 -451 136t-268 370h-158v164h125q-4 27 -4 84q0 35 2 53h-123v162h148q65 244 265 392.5t464 145.5q257 0 444 -136t238 -367l-268 -72q-40 155 -148 238.5t-266 83.5q-234 3 -377 -183q-14 -16 -80 -100l29 -43q81 45 276 45h221v-168l-534 2
q0 -9 -1 -26.5t-1 -26.5q0 -43 6 -84h530v-168h-221q-177 0 -260 45l-28 -49q58 -74 92 -103q135 -144 348 -141q160 0 271 88.5t149 253.5l270 -65q-49 -247 -237 -389t-453 -142z" />
    <glyph glyph-name="uni20B9" unicode="&#x20b9;" horiz-adv-x="1159" 
d="M299 514h-154v219h371q224 0 264 152h-635v178h637q-39 151 -254 151h-383v220h1057v-179h-53q-43 0 -101.5 24t-101.5 56l-47 -57q69 -37 114 -92.5t54 -122.5h135v-178h-160q-36 -120 -141 -186t-258 -74v-70q39 -7 63.5 -14t56 -23.5t55.5 -41t52 -66.5t56 -101
l73 -155q49 -99 99 -127v-27h-328q-30 26 -57 88l-103 221q-56 122 -119 163.5t-192 41.5z" />
    <glyph glyph-name="uni20BD" unicode="&#x20bd;" horiz-adv-x="1425" 
d="M164 1434h667q247 0 385 -124t138 -337q0 -217 -141 -338t-382 -121h-380v-127h311v-199h-311v-188h-287v188h-137v199h137v127h-137v219h137v701zM451 733h358q119 0 188.5 59.5t69.5 170.5q0 112 -66 167.5t-190 55.5h-360v-453z" />
    <glyph glyph-name="uni20BF" unicode="&#x20bf;" horiz-adv-x="1409" 
d="M1311 387q0 -168 -106 -268t-314 -115v-248h-176v244h-174v-244h-179v244h-217v1434h217v239h179v-239h174v239h176v-239q176 -9 271 -98t95 -240q0 -122 -68.5 -201t-193.5 -98v-76q146 -14 231 -103t85 -231zM971 1024q0 166 -201 166h-342v-334h338q205 0 205 168z
M428 244h363q233 0 233 196q0 193 -229 193h-367v-389z" />
    <glyph glyph-name="uni2116" unicode="&#x2116;" horiz-adv-x="2629" 
d="M2054 578q-204 0 -335.5 124t-131.5 322q0 197 131.5 320.5t335.5 123.5t336.5 -123.5t132.5 -320.5q0 -198 -132.5 -322t-336.5 -124zM145 0v1434h316l653 -1004h4v1004h281v-1434h-316l-651 991h-4v-991h-283zM2054 797q101 0 167.5 64.5t66.5 162.5q0 101 -66 165
t-168 64t-167.5 -64t-65.5 -165q0 -98 66 -162.5t167 -64.5zM2054 -20q-84 0 -133 44t-49 128t49 128t133 44q86 0 135 -44t49 -128t-49 -128t-135 -44z" />
    <glyph glyph-name="uni2117" unicode="&#x2117;" horiz-adv-x="1824" 
d="M911 -31q-166 0 -313 57t-255 158.5t-171 249.5t-63 322q0 177 65 325t175.5 245.5t256 151.5t307.5 54q161 0 306 -54t256 -151.5t176 -245.5t65 -325q0 -174 -63 -322t-171 -249.5t-256 -158.5t-315 -57zM911 127q184 0 328 78t224.5 221t80.5 328q0 186 -82.5 327.5
t-225 216t-323.5 74.5q-182 0 -324.5 -74.5t-224 -215t-81.5 -324.5q0 -139 46.5 -257t129 -200t199 -128t253.5 -46zM825 356h-215v791h396q143 0 218.5 -68t75.5 -186q0 -117 -79 -187.5t-215 -70.5h-181v-279zM825 989v-209h142q118 0 118 103q0 106 -118 106h-142z" />
    <glyph glyph-name="trademark" unicode="&#x2122;" horiz-adv-x="1671" 
d="M285 815v459h-205v160h596v-160h-209v-459h-182zM938 815h-174v619h256l90 -224q41 -109 41 -200h51q4 65 13 104t30 96l88 224h258v-619h-176v160q0 50 7.5 93t17 75t37.5 112l-68 23l-176 -463h-111l-178 463l-63 -23q37 -111 47 -160t10 -120v-160z" />
    <glyph glyph-name="oneeighth" unicode="&#x215b;" horiz-adv-x="1687" 
d="M397 645h-180v356q0 137 74 216l-41 40q-99 -99 -227 -110v151q78 13 148.5 51t107.5 85h118v-789zM74 0l1077 1434h197l-1078 -1434h-196zM920 211q0 70 46.5 116t123.5 60v49q-142 33 -142 156q0 97 89.5 156t238.5 59t237.5 -59t88.5 -156q0 -124 -142 -156v-49
q79 -14 125.5 -60t46.5 -116q0 -112 -95 -171.5t-261 -59.5t-261 59.5t-95 171.5zM1128 567q0 -45 39.5 -72.5t108.5 -27.5q68 0 106.5 27.5t38.5 72.5q0 47 -38 73t-107 26q-71 0 -109.5 -26t-38.5 -73zM1100 244q0 -57 44 -88t132 -31t132 31t44 88q0 54 -45 85t-131 31
t-131 -31t-45 -85z" />
    <glyph glyph-name="threeeighths" unicode="&#x215c;" horiz-adv-x="1878" 
d="M367 623q-159 0 -241.5 68.5t-90.5 193.5l158 39q17 -150 176 -150q145 0 145 109q0 102 -135 102h-94v127h80q68 0 99.5 26.5t31.5 69.5q0 47 -32.5 73t-92.5 26q-72 0 -113 -37.5t-49 -102.5l-160 37q10 118 101.5 184t224.5 66q143 0 221 -59t78 -154q0 -64 -40 -107
t-108 -57v-51q78 -6 123 -52.5t45 -115.5q0 -108 -87 -171.5t-240 -63.5zM264 0l1077 1434h197l-1077 -1434h-197zM1110 211q0 70 46.5 116t123.5 60v49q-141 33 -141 156q0 97 89 156t238 59t237.5 -59t88.5 -156q0 -124 -141 -156v-49q79 -14 125.5 -60t46.5 -116
q0 -112 -95.5 -171.5t-261.5 -59.5t-261 59.5t-95 171.5zM1319 567q0 -45 39 -72.5t108 -27.5q68 0 107 27.5t39 72.5q0 47 -38.5 73t-107.5 26q-70 0 -108.5 -26t-38.5 -73zM1290 244q0 -57 44 -88t132 -31t132 31t44 88q0 54 -45 85t-131 31t-131 -31t-45 -85z" />
    <glyph glyph-name="fiveeighths" unicode="&#x215d;" horiz-adv-x="1896" 
d="M39 874l160 39q10 -69 57.5 -104t124.5 -35t117.5 37t40.5 100q0 66 -40 102t-112 36q-110 0 -172 -72l-143 41l55 416h518v-148h-369l-4 -29q-13 -78 -71 -133l51 -39q31 46 83 70.5t111 24.5q125 0 198 -74t73 -195q0 -135 -90.5 -210.5t-241.5 -75.5q-147 0 -242 68.5
t-104 180.5zM281 0l1077 1434h196l-1077 -1434h-196zM1128 211q0 70 46.5 116t123.5 60v49q-141 33 -141 156q0 97 89.5 156t238.5 59t237 -59t88 -156q0 -124 -141 -156v-49q79 -14 125.5 -60t46.5 -116q0 -112 -95 -171.5t-261 -59.5t-261.5 59.5t-95.5 171.5zM1337 567
q0 -45 39.5 -72.5t108.5 -27.5q68 0 106.5 27.5t38.5 72.5q0 47 -38 73t-107 26q-71 0 -109.5 -26t-38.5 -73zM1309 244q0 -57 44 -88t132 -31t132 31t44 88q0 54 -45 85t-131 31t-131 -31t-45 -85z" />
    <glyph glyph-name="seveneighths" unicode="&#x215e;" horiz-adv-x="1703" 
d="M184 1284h-145v150h604v-136l-311 -653h-209v8l235 467q29 58 60.5 101.5t87.5 95.5l-41 55q-94 -88 -281 -88zM90 0l1077 1434h197l-1077 -1434h-197zM936 211q0 70 46.5 116t123.5 60v49q-141 33 -141 156q0 97 89 156t238 59t237.5 -59t88.5 -156q0 -124 -141 -156
v-49q79 -14 125.5 -60t46.5 -116q0 -112 -95.5 -171.5t-261.5 -59.5t-261 59.5t-95 171.5zM1145 567q0 -45 39 -72.5t108 -27.5q68 0 107 27.5t39 72.5q0 47 -38.5 73t-107.5 26q-70 0 -108.5 -26t-38.5 -73zM1116 244q0 -57 44 -88t132 -31t132 31t44 88q0 54 -45 85
t-131 31t-131 -31t-45 -85z" />
    <glyph glyph-name="arrowleft" unicode="&#x2190;" horiz-adv-x="1736" 
d="M1583 803v-230l-813 7q-55 0 -108.5 10.5t-78.5 19.5t-83 31l-29 -80q15 -8 45.5 -24.5t43.5 -23.5t35 -19.5t34.5 -21.5t27.5 -20.5t27 -23.5l207 -207l-150 -149l-620 618l620 621l150 -150l-205 -203q-9 -9 -19.5 -18.5t-19 -16t-24 -16.5t-23.5 -15t-29 -16
t-29.5 -15.5t-35.5 -18.5t-37 -19l31 -84q109 46 169 58q49 10 99 10z" />
    <glyph glyph-name="arrowup" unicode="&#x2191;" horiz-adv-x="1449" 
d="M254 692l-150 150l621 620l618 -620l-149 -150l-207 205q-23 24 -47 61t-36 60t-48 94l-82 -31q66 -157 66 -268v-813h-230v813q-3 106 66 268l-84 33q-77 -159 -133 -217z" />
    <glyph glyph-name="arrowright" unicode="&#x2192;" horiz-adv-x="1736" 
d="M846 1161l149 150l621 -621l-621 -618l-149 149l207 207q14 14 29 26t41 28t37.5 22.5t53 28.5t52.5 28l-29 80q-58 -22 -83 -31t-78.5 -19.5t-108.5 -10.5l-813 -7v230l815 4q54 0 110.5 -13t79.5 -22t78 -33l31 84q-70 35 -97.5 50t-62 38t-57.5 47z" />
    <glyph glyph-name="arrowdown" unicode="&#x2193;" horiz-adv-x="1480" 
d="M741 -29l-620 621l149 149l203 -204q34 -34 60.5 -78.5t74.5 -139.5l84 33q-65 148 -65 269l2 813h229l-6 -813q0 -80 -15 -138t-46 -131l79 -30q73 138 102 177q15 21 32 38l206 204l150 -149z" />
    <glyph glyph-name="arrowboth" unicode="&#x2194;" horiz-adv-x="2074" 
d="M707 104l-586 584l586 584l149 -150l-201 -196q-58 -58 -206 -129l22 -60q3 1 25.5 10t29.5 12t29 10.5t33.5 10.5t33 9t38 8t38.5 4t43 2h592q17 0 34.5 -1.5t31.5 -2.5t32 -5t28 -6t28 -8t25 -8t25.5 -9t22 -8.5t22.5 -9.5t20 -8l24 60q-155 74 -207 129l-200 196
l149 150l586 -584l-586 -584l-149 150l200 201q22 22 56 44.5t60 36.5t89 46l-22 57q-52 -22 -80.5 -32.5t-80.5 -21t-108 -10.5h-592q-56 0 -108.5 10.5t-79 20.5t-82.5 33l-20 -57q131 -68 169 -97q20 -15 35 -30l201 -201z" />
    <glyph glyph-name="arrowupdn" unicode="&#x2195;" horiz-adv-x="1411" 
d="M121 1020l584 584l585 -584l-149 -150l-199 199q-33 33 -61 79t-68 128l-59 -23q20 -48 31 -76t22.5 -83t11.5 -109v-477q0 -54 -11.5 -109t-22.5 -83t-31 -76l59 -23q45 89 71 132t58 75l199 199l149 -148l-585 -586l-584 586l149 148l201 -199q7 -7 14 -15.5
t12.5 -15.5t13 -18t11.5 -17t12 -20t11.5 -20t13 -23.5t12.5 -23.5t14.5 -27t14.5 -27l55 23q-21 53 -31 81t-20 80t-10 107v477q-1 55 8.5 106.5t20.5 81.5t32 80l-57 23q-32 -63 -46 -89t-36.5 -60.5t-44.5 -57.5l-201 -199z" />
    <glyph glyph-name="uni2196" unicode="&#x2196;" horiz-adv-x="1388" 
d="M160 1247h876v-211h-288q-48 0 -97.5 13t-150.5 47l-37 -82q110 -47 162 -82q40 -28 75 -62l572 -577l-160 -162l-571 578q-39 40 -69 84t-44 72.5t-35 78.5l-78 -37q4 -14 15 -48.5t15 -47t11 -38t9.5 -40t5 -33.5t2.5 -36v-293h-211z" />
    <glyph glyph-name="uni2197" unicode="&#x2197;" horiz-adv-x="1388" 
d="M350 1036l2 211h877l-2 -876h-211v293q0 15 1 29t4.5 32t6 29.5t9.5 35.5t10 33.5t13 41t13 42.5l-78 37q-1 -3 -10 -22.5t-11 -24t-10 -22t-11.5 -23.5t-12 -22t-14.5 -24t-15.5 -22.5t-18.5 -25t-20.5 -23.5t-23.5 -26l-572 -578l-161 162l573 577q12 12 25.5 23.5
t24.5 20t26 18.5t23.5 15.5t26 14.5t23 12.5t24.5 11.5t22 9.5t22.5 10t20.5 8.5l-37 82q-101 -34 -150.5 -47t-97.5 -13h-291z" />
    <glyph glyph-name="uni2198" unicode="&#x2198;" horiz-adv-x="1388" 
d="M1227 131h-875l-2 211h291q49 0 99.5 -13t148.5 -46l37 82q-4 2 -23 10t-25.5 10.5t-24.5 11t-27 13.5t-26 14t-28.5 17t-27 19t-29 23t-27.5 25l-573 577l161 162l572 -577q14 -14 26 -27.5t23 -28.5t18.5 -25.5t17 -27.5t14 -24.5t13.5 -26.5t11.5 -24t12.5 -27t11 -25
l78 37q-3 10 -11.5 37t-11.5 36.5t-9.5 31t-8.5 31.5t-6 27.5t-5.5 28.5t-3 25t-1.5 27v291h211v-875z" />
    <glyph glyph-name="uni2199" unicode="&#x2199;" horiz-adv-x="1388" 
d="M1036 342v-211h-876l2 875h211v-291q0 -17 -2.5 -36.5t-5 -33t-9.5 -40.5t-10.5 -38t-15 -47.5t-15.5 -48.5l78 -37q21 51 35 79.5t44 72.5t69 84l571 577l160 -162l-572 -577q-14 -13 -27.5 -25t-29 -23t-26.5 -19t-28.5 -17.5t-25.5 -14t-27.5 -13t-24 -10.5t-26 -11
t-22.5 -10l37 -82q98 33 148.5 46t99.5 13h288z" />
    <glyph glyph-name="partialdiff" unicode="&#x2202;" horiz-adv-x="1413" 
d="M61 455q0 210 141 344.5t361 134.5q138 0 244.5 -56t159.5 -153l82 41q-51 228 -271.5 356t-552.5 119l115 244q220 -3 404 -66.5t311.5 -174t198.5 -265.5t71 -338q0 -307 -187.5 -492.5t-494.5 -185.5q-262 0 -422 135.5t-160 356.5zM342 467q0 -125 85 -197.5
t224 -72.5q157 0 262.5 91t122.5 247q-61 97 -159.5 150.5t-221.5 53.5q-145 0 -229 -75t-84 -197z" />
    <glyph glyph-name="emptyset" unicode="&#x2205;" horiz-adv-x="1419" 
d="M92 545q0 161 80 292.5t222 207t317 75.5q171 0 311.5 -73t222.5 -206.5t82 -301.5q0 -161 -79.5 -293t-221 -207.5t-315.5 -75.5q-175 -1 -317 75t-222 209.5t-80 297.5zM367 567q0 -112 51 -194l270 268q137 134 246 137l2 86q-84 41 -186 41q-162 0 -272.5 -95
t-110.5 -243zM485 303v-84q75 -39 187 -43q162 2 271.5 96.5t109.5 243.5q0 114 -49 195l-285 -285q-120 -120 -234 -123z" />
    <glyph glyph-name="product" unicode="&#x220f;" horiz-adv-x="1392" 
d="M43 1434h1307v-238h-209v-1454h-273v1454h-344v-1454h-272v1454h-209v238z" />
    <glyph glyph-name="summation" unicode="&#x2211;" horiz-adv-x="1075" 
d="M1018 -262h-938v266l366 582l-366 581v267h938v-238h-303q-130 0 -203.5 32t-128.5 93l-76 -66l441 -669l-439 -672l74 -64q55 61 126.5 93t199.5 32h309v-237z" />
    <glyph glyph-name="minus" unicode="&#x2212;" horiz-adv-x="1187" 
d="M145 793h893v-205h-893v205z" />
    <glyph glyph-name="radical" unicode="&#x221a;" horiz-adv-x="1148" 
d="M539 -258h-359l-184 887h217l37 -201q46 -256 61 -448h80q15 212 101 509l268 945h432v-238h-236z" />
    <glyph glyph-name="infinity" unicode="&#x221e;" horiz-adv-x="1859" 
d="M92 723q0 173 111.5 281t283.5 108q145 0 252.5 -80t155.5 -215h70q48 135 155 215t252 80q171 0 283 -107.5t112 -281.5q0 -173 -111.5 -281t-283.5 -108q-145 0 -252 80t-155 215h-70q-48 -135 -155.5 -215t-252.5 -80q-171 0 -283 107.5t-112 281.5zM346 723
q0 -80 48.5 -129t127.5 -49q77 0 133 46.5t84 131.5q-29 86 -85.5 132t-131.5 46q-79 0 -127.5 -49t-48.5 -129zM1118 723q30 -86 86 -132t133 -46q79 0 127.5 49t48.5 129t-48.5 129t-127.5 49q-75 0 -131.5 -46t-87.5 -132z" />
    <glyph glyph-name="integral" unicode="&#x222b;" horiz-adv-x="1169" 
d="M57 -268l-24 229q45 -10 110 -10q114 0 166 53t70 166l141 903q31 201 149 287t314 86q69 0 127 -12l27 -228q-57 11 -113 11q-116 0 -165 -52.5t-68 -167.5l-142 -903q-58 -375 -467 -375q-68 0 -125 13z" />
    <glyph glyph-name="approxequal" unicode="&#x2248;" horiz-adv-x="1142" 
d="M301 248h-172q-14 138 13 239t91 142l-14 33h-88q-45 481 223 481q69 0 127 -36t156 -126q48 -48 78.5 -71t56.5 -23q44 0 61 60.5t7 195.5h172q15 -135 -12.5 -235t-92.5 -142l17 -37h86q45 -481 -226 -481q-42 0 -81 13.5t-77.5 42t-61.5 49t-60 57.5q-33 33 -50.5 49
t-42 31.5t-42.5 15.5q-88 0 -68 -258zM299 694q27 19 55 19q42 1 81.5 -12t80.5 -44t60.5 -49t60.5 -59q37 -35 52.5 -49t40 -29.5t42.5 -15.5q42 0 59 55.5t11 185.5q-22 -16 -58 -16q-66 -4 -135.5 40.5t-120.5 98.5q-89 84 -114 100q-26 17 -47 17q-43 0 -58.5 -55.5
t-9.5 -186.5z" />
    <glyph glyph-name="notequal" unicode="&#x2260;" horiz-adv-x="1230" 
d="M383 362h-238v205h318l39 109q14 37 37 71t42 53t48 44l-39 55q-115 -86 -273 -86h-172v205h494l115 293h207l-113 -293h233v-205h-315l-37 -98q-8 -19 -16.5 -36t-20.5 -33.5t-18.5 -26t-22.5 -25.5l-20 -20t-23 -21t-20 -18l41 -54q115 86 268 86h184v-205h-491
l-113 -292h-209z" />
    <glyph glyph-name="lessequal" unicode="&#x2264;" horiz-adv-x="1298" 
d="M1110 557v-225l-928 266v309l928 267v-226l-375 -96q-171 -44 -323 -64v-71q123 -16 331 -64zM1110 0h-928v195h928v-195z" />
    <glyph glyph-name="greaterequal" unicode="&#x2265;" horiz-adv-x="1296" 
d="M1120 598l-925 -266v225l364 96q207 47 332 64v71q-154 21 -324 64l-372 96v226l925 -267v-309zM1120 0h-925v195h925v-195z" />
    <glyph glyph-name="uni2573" unicode="&#x2573;" horiz-adv-x="1976" 
d="M240 -82l-82 82l749 748l-749 747l82 82l747 -748l750 748l82 -82l-748 -747l748 -748l-82 -82l-748 748z" />
    <glyph glyph-name="lozenge" unicode="&#x25ca;" horiz-adv-x="1183" 
d="M379 0l-334 729l334 731h426l334 -731l-334 -729h-426zM469 1022l-143 -293l143 -291q59 -122 86 -243h74q27 121 86 243l143 291l-143 293q-59 121 -86 244h-74q-27 -123 -86 -244z" />
    <glyph glyph-name="uni2605" unicode="&#x2605;" horiz-adv-x="1785" 
d="M893 311l-504 -340l174 580l-485 373l610 16l205 578l203 -578l612 -16l-485 -373l174 -580z" />
    <glyph glyph-name="uni261C" unicode="&#x261c;" horiz-adv-x="1906" 
d="M1122 104h-254q-70 0 -112.5 33.5t-42.5 89.5q0 37 24 68q-47 9 -74.5 41.5t-27.5 81.5q0 48 31 76q-48 39 -48 96q0 31 19 65h-330q-72 0 -113.5 36.5t-41.5 105.5q0 61 39.5 94t115.5 33h479q-36 16 -36 73q0 46 28 82q86 -4 192 7.5t122 11.5q36 0 75.5 -13.5t67 -29
t74.5 -45.5q63 -40 100 -61t106 -42.5t140 -21.5h74l2 -682q-99 0 -263 -45q-71 -18 -105 -26t-104 -18t-137 -10zM874 186h271q119 0 291 50q149 36 215 38v525h-39q-56 0 -118 21t-97 40.5t-99 59.5q-58 35 -80.5 48t-66 29t-76.5 15l-227 -8q-4 -16 -4 -29q0 -26 24 -53
h262v-80h-806q-64 0 -64 -51q0 -54 64 -54h596v-94h-148q-23 0 -37 -12.5t-14 -34.5q0 -51 51 -51h178v-84h-157q-54 0 -54 -47q0 -49 54 -49h188v-84h-107q-53 0 -53 -48q0 -47 53 -47z" />
    <glyph glyph-name="uni261E" unicode="&#x261e;" horiz-adv-x="1906" 
d="M1038 104h-254q-67 0 -137 10t-104 18t-105 26q-57 16 -86 23t-79 14.5t-97 7.5l2 682h74q71 0 140 21.5t106 42.5t100 61q47 30 74.5 45.5t67 29t75.5 13.5q16 0 121.5 -11.5t191.5 -7.5q29 -37 29 -82q0 -57 -37 -73h479q76 0 116 -33t40 -94q0 -69 -42 -105.5
t-114 -36.5h-329q18 -32 18 -65q0 -58 -47 -96q31 -28 31 -76q0 -49 -28 -81.5t-75 -41.5q25 -32 25 -68q0 -56 -43 -89.5t-113 -33.5zM762 186h270q53 0 53 47q0 48 -53 48h-106v84h188q53 0 53 49q0 47 -53 47h-158v84h179q51 0 51 51q0 22 -14 34.5t-37 12.5h-148v94h596
q64 0 64 54q0 51 -64 51h-807v80h262q25 29 25 53q0 13 -4 29l-228 8q-33 1 -76.5 -15t-66 -29t-80.5 -48q-50 -31 -74 -44.5t-69 -35.5t-86 -31.5t-84 -9.5h-39v-525q66 -2 215 -38q172 -50 291 -50z" />
    <glyph glyph-name="uni271A" unicode="&#x271a;" horiz-adv-x="1656" 
d="M614 1434h426v-516h504v-402h-504v-516h-426v516h-503v402h503v516z" />
    <glyph glyph-name="uni2731" unicode="&#x2731;" horiz-adv-x="1589" 
d="M262 209l-172 299l365 209l-365 209l172 299l363 -211v420h344v-420l362 211l172 -299l-364 -209l364 -209l-172 -299l-362 211v-420h-344v420z" />
    <glyph glyph-name="uni2733" unicode="&#x2733;" horiz-adv-x="1617" 
d="M596 629l-506 -33v242l506 -31l-379 332l170 172l332 -379l-31 502h240l-31 -502l332 377l172 -170l-379 -332l506 31v-242l-506 33l379 -334l-170 -170l-334 379l31 -504h-240l31 504l-332 -379l-172 170z" />
    <glyph glyph-name="uni2738" unicode="&#x2738;" horiz-adv-x="1726" 
d="M1649 1069l-353 -330l353 -319l-484 22l19 -481l-328 358l-321 -352l22 473l-479 -14l356 328l-350 321l471 -24l-14 481l327 -350l322 350l-25 -481z" />
    <glyph glyph-name="uni2739" unicode="&#x2739;" horiz-adv-x="1712" 
d="M977 293l-121 -324l-123 324l-268 -219l57 342l-338 -58l219 269l-325 121l325 122l-219 269l340 -60l-57 340l268 -219l121 326l123 -326l268 219l-59 -342l342 60l-219 -269l323 -123l-323 -120l219 -269l-344 58l59 -340z" />
    <glyph glyph-name="uni274C" unicode="&#x274c;" horiz-adv-x="2121" 
d="M127 1456l289 289l645 -645l645 645l289 -289l-645 -645l645 -645l-289 -289l-645 645l-645 -645l-289 289l645 645z" />
    <glyph glyph-name="uni2762" unicode="&#x2762;" horiz-adv-x="1243" 
d="M158 1200q0 152 116 239t338 87t338.5 -87t116.5 -239q0 -71 -22 -124t-57.5 -85.5t-78.5 -59t-87 -53.5t-81.5 -60t-63 -86.5t-30.5 -125.5q132 -23 209.5 -109t77.5 -212q0 -140 -88 -226t-234 -86t-233.5 86t-87.5 226q0 126 77.5 212t209.5 109q-5 72 -30.5 125.5
t-63 86.5t-81.5 60t-87 53.5t-78.5 59t-57.5 85.5t-22 124z" />
    <glyph glyph-name="uni29D8" unicode="&#x29d8;" horiz-adv-x="854" 
d="M391 -33l-313 209l313 209l-313 207l313 211l-313 207l313 209l-289 190l127 119l467 -309l-313 -209l313 -207l-313 -211l313 -207l-313 -209l313 -209l-467 -309l-127 119z" />
    <glyph glyph-name="uni29D9" unicode="&#x29d9;" horiz-adv-x="854" 
d="M463 385l313 -209l-313 -209l291 -190l-127 -119l-467 309l313 209l-313 209l313 207l-313 211l313 207l-313 209l467 309l127 -119l-291 -190l313 -209l-313 -207l313 -211z" />
    <glyph glyph-name="uni29DA" unicode="&#x29da;" horiz-adv-x="1394" 
d="M391 -33l-313 209l313 209l-313 207l313 211l-313 207l313 209l-289 190l127 119l467 -309l-313 -209l313 -207l-313 -211l313 -207l-313 -209l313 -209l-467 -309l-127 119zM969 -33l-314 209l314 209l-314 207l314 211l-314 207l314 209l-291 190l127 119l467 -309
l-314 -209l314 -207l-314 -211l314 -207l-314 -209l314 -209l-467 -309l-127 119z" />
    <glyph glyph-name="uni29DB" unicode="&#x29db;" horiz-adv-x="1394" 
d="M426 385l313 -209l-313 -209l291 -190l-127 -119l-467 309l313 209l-313 209l313 207l-313 211l313 207l-313 209l467 309l127 -119l-291 -190l313 -209l-313 -207l313 -211zM1004 385l313 -209l-313 -209l288 -190l-125 -119l-469 309l314 209l-314 209l314 207
l-314 211l314 207l-314 209l467 309l129 -119l-290 -190l313 -209l-313 -207l313 -211z" />
    <glyph glyph-name="uni3008" unicode="&#x3008;" horiz-adv-x="712" 
d="M473 -401l-362 1005l362 1004l223 -82l-336 -922l336 -923z" />
    <glyph glyph-name="uni3009" unicode="&#x3009;" horiz-adv-x="729" 
d="M256 1608l365 -1004l-365 -1005l-223 82l336 923l-336 922z" />
    <glyph glyph-name="uni300A" unicode="&#x300a;" horiz-adv-x="1142" 
d="M473 -401l-362 1005l362 1004l223 -82l-336 -922l336 -923zM887 -401l-363 1005l363 1004l223 -82l-334 -922l334 -923z" />
    <glyph glyph-name="uni300B" unicode="&#x300b;" horiz-adv-x="1142" 
d="M256 1608l365 -1004l-365 -1005l-223 82l336 923l-336 922zM670 1608l364 -1004l-364 -1005l-221 82l333 923l-333 922z" />
    <glyph glyph-name="uni300C" unicode="&#x300c;" horiz-adv-x="739" 
d="M393 1307v-633h-225v850h520v-217h-295z" />
    <glyph glyph-name="uni300D" unicode="&#x300d;" horiz-adv-x="739" 
d="M346 -125v633h223v-850h-520v217h297z" />
    <glyph glyph-name="uni3010" unicode="&#x3010;" horiz-adv-x="858" 
d="M809 -342h-641v1866h641q-148 -248 -200.5 -590.5t0 -685t200.5 -590.5z" />
    <glyph glyph-name="uni3011" unicode="&#x3011;" horiz-adv-x="858" 
d="M690 1524v-1866h-641q148 248 200.5 590.5t0 685t-200.5 590.5h641z" />
    <glyph glyph-name="u1F642" unicode="&#x1f642;" horiz-adv-x="1810" 
d="M905 -31q-167 0 -315 57.5t-257 159t-172 250t-63 322.5q0 177 65.5 325t177 245.5t258 151.5t308.5 54q161 0 306.5 -53.5t257 -151t177.5 -246t66 -325.5q0 -174 -63 -322.5t-172 -250t-257.5 -159t-316.5 -57.5zM662 811q87 0 131.5 55t44.5 150q0 100 -46.5 150.5
t-127.5 50.5q-88 0 -133.5 -53.5t-45.5 -147.5q0 -101 47.5 -153t129.5 -52zM1149 811q88 0 133 55t45 150q0 100 -47 150.5t-129 50.5q-87 0 -131.5 -53.5t-44.5 -147.5q0 -101 46.5 -153t127.5 -52zM1440 649l-172 27q-35 -234 -361 -234t-360 234l-172 -27
q29 -192 172.5 -298.5t359.5 -106.5q224 0 365 109.5t168 295.5z" />
    <glyph glyph-name="Adieresis.ss01" horiz-adv-x="1468" 
d="M350 1802h275v-256h-275v256zM840 1802h274v-256h-274v256zM1444 0h-293l-88 242h-657l-89 -242h-294l546 1434h328zM598 766l-102 -279h477l-103 279q-38 106 -56 185t-30 196h-100q-13 -119 -31.5 -200t-54.5 -181z" />
    <glyph glyph-name="Edieresis.ss01" horiz-adv-x="1234" 
d="M268 1802h275v-256h-275v256zM758 1802h274v-256h-274v256zM428 614v-362h737v-252h-1020v1434h1018v-252h-735v-336h674v-232h-674z" />
    <glyph glyph-name="Edotaccent.ss01" horiz-adv-x="1234" 
d="M514 1802h272v-256h-272v256zM428 614v-362h737v-252h-1020v1434h1018v-252h-735v-336h674v-232h-674z" />
    <glyph glyph-name="Gdotaccent.ss01" horiz-adv-x="1617" 
d="M698 1546v256h273v-256h-273zM90 702q0 231 100.5 408.5t269.5 270t376 89.5q162 -2 299.5 -61t231 -168t126.5 -252l-268 -74q-42 144 -145 223t-253 79q-206 1 -327 -141t-121 -363q0 -225 126 -366t339 -140q159 0 266 78.5t137 210.5v36h-416v209h654v-741h-240v16
q6 38 60 203l-88 41q-62 -138 -178 -215.5t-281 -77.5q-156 -1 -284 58t-211 160t-128 234t-45 283z" />
    <glyph glyph-name="Idieresis.ss01" horiz-adv-x="618" 
d="M-72 1546v256h275v-256h-275zM418 1546v256h274v-256h-274zM168 0v1434h283v-1434h-283z" />
    <glyph glyph-name="Idotaccent.ss01" horiz-adv-x="618" 
d="M174 1546v256h272v-256h-272zM168 0v1434h283v-1434h-283z" />
    <glyph glyph-name="Odieresis.ss01" horiz-adv-x="1658" 
d="M449 1561v256h274v-256h-274zM938 1561v256h274v-256h-274zM90 717q0 161 56.5 301t154.5 239t235.5 156t294.5 57q156 0 293 -57t235.5 -156t155 -239t56.5 -301q0 -215 -96.5 -387.5t-265.5 -269.5t-378 -97t-378.5 97t-266 269.5t-96.5 387.5zM377 717
q0 -223 127 -361.5t327 -138.5q205 0 329 139.5t124 360.5q0 223 -124.5 361.5t-328.5 138.5q-205 0 -329.5 -137.5t-124.5 -362.5z" />
    <glyph glyph-name="R.ss01" horiz-adv-x="1392" 
d="M877 588l466 -588h-350l-413 547h-146v-547h-289v1434h674q228 0 353.5 -116.5t125.5 -311.5q0 -182 -114.5 -294t-306.5 -124zM434 1186v-424h324q121 0 186.5 55.5t65.5 157.5q0 211 -252 211h-324z" />
    <glyph glyph-name="Udieresis.ss01" horiz-adv-x="1449" 
d="M344 1546v256h274v-256h-274zM834 1546v256h274v-256h-274zM139 549v885h281v-865q0 -177 73.5 -264.5t231.5 -87.5t231.5 87.5t73.5 264.5v865h283v-885q0 -284 -152.5 -435t-435.5 -151q-281 0 -433.5 151t-152.5 435z" />
    <glyph glyph-name="Wdieresis.ss01" horiz-adv-x="1980" 
d="M608 1546v256h275v-256h-275zM1098 1546v256h274v-256h-274zM352 0l-323 1434h290l125 -617q15 -77 22.5 -179t8 -150t0.5 -152h107q23 232 94 465l196 633h234l205 -646q66 -221 90 -452h106q-5 312 27 473l125 625h293l-322 -1434h-319l-203 651q-77 256 -80 471h-78
q0 -190 -82 -471l-202 -651h-314z" />
    <glyph glyph-name="Ydieresis.ss01" horiz-adv-x="1402" 
d="M319 1546v256h275v-256h-275zM809 1546v256h274v-256h-274zM561 549l-549 885h328l145 -256q4 -8 24.5 -47.5t29.5 -58t28 -57t29 -65t23 -61t20 -64.5t10 -57h109q11 118 148 384q9 19 14 28l143 254h328l-547 -885v-549h-283v549z" />
    <glyph glyph-name="Zdotaccent.ss01" horiz-adv-x="1316" 
d="M524 1546v256h273v-256h-273zM1237 0h-1155v229l803 1006l-68 72q-60 -63 -133 -94t-186 -31h-396v252h1110v-230l-804 -1005l69 -72q54 60 130 92.5t202 32.5h428v-252z" />
    <glyph glyph-name="M.ss05" horiz-adv-x="1972" 
d="M416 0h-271v1139q0 149 77.5 231t215.5 82q117 0 192.5 -53.5t121.5 -181.5l198 -545q6 -21 14 -29t23 -8q13 0 21 8.5t14 28.5l199 545q48 131 124 183t189 52q138 0 215.5 -82t77.5 -231v-1139h-271v1120q0 28 -14 42t-37 14q-42 0 -55 -37l-231 -617
q-66 -180 -232 -180q-168 0 -233 180l-232 617q-14 37 -55 37q-51 0 -51 -56v-1120z" />
    <glyph glyph-name="i.loclTRK" horiz-adv-x="546" 
d="M266 1245q-82 0 -131 43.5t-49 124.5q0 84 49 127t131 43t131 -43t49 -127q0 -81 -49 -124.5t-131 -43.5zM125 0v1085h278v-1085h-278z" />
    <glyph glyph-name="a.ss01" horiz-adv-x="1161" 
d="M1053 268l34 -268h-272l-20 186h-64q-23 -100 -116.5 -161.5t-217.5 -61.5q-145 0 -235 82t-90 217q0 139 90 227t276 127l340 72v17q0 208 -215 208q-108 0 -171.5 -55.5t-67.5 -157.5l-252 48q19 175 157 274.5t353 99.5q223 0 347 -107t124 -310v-437zM500 172
q91 0 171.5 53t106.5 131v168l-246 -49q-104 -21 -148 -62.5t-44 -101.5q0 -67 43 -103t117 -36z" />
    <glyph glyph-name="aacute.ss01" horiz-adv-x="1161" 
d="M571 1571h303l-188 -303h-203zM1053 268l34 -268h-272l-20 186h-64q-23 -100 -116.5 -161.5t-217.5 -61.5q-145 0 -235 82t-90 217q0 139 90 227t276 127l340 72v17q0 208 -215 208q-108 0 -171.5 -55.5t-67.5 -157.5l-252 48q19 175 157 274.5t353 99.5q223 0 347 -107
t124 -310v-437zM500 172q91 0 171.5 53t106.5 131v168l-246 -49q-104 -21 -148 -62.5t-44 -101.5q0 -67 43 -103t117 -36z" />
    <glyph glyph-name="abreve.ss01" horiz-adv-x="1161" 
d="M586 1251q-163 0 -261.5 87.5t-97.5 232.5h224q0 -74 36.5 -112t98.5 -38q135 0 135 150h223q0 -145 -98.5 -232.5t-259.5 -87.5zM1053 268l34 -268h-272l-20 186h-64q-23 -100 -116.5 -161.5t-217.5 -61.5q-145 0 -235 82t-90 217q0 139 90 227t276 127l340 72v17
q0 208 -215 208q-108 0 -171.5 -55.5t-67.5 -157.5l-252 48q19 175 157 274.5t353 99.5q223 0 347 -107t124 -310v-437zM500 172q91 0 171.5 53t106.5 131v168l-246 -49q-104 -21 -148 -62.5t-44 -101.5q0 -67 43 -103t117 -36z" />
    <glyph glyph-name="acircumflex.ss01" horiz-adv-x="1161" 
d="M504 1331l-37 -63h-246l213 303h301l213 -303h-246l-36 63q-32 62 -45 111h-70q-12 -39 -47 -111zM1053 268l34 -268h-272l-20 186h-64q-23 -100 -116.5 -161.5t-217.5 -61.5q-145 0 -235 82t-90 217q0 139 90 227t276 127l340 72v17q0 208 -215 208q-108 0 -171.5 -55.5
t-67.5 -157.5l-252 48q19 175 157 274.5t353 99.5q223 0 347 -107t124 -310v-437zM500 172q91 0 171.5 53t106.5 131v168l-246 -49q-104 -21 -148 -62.5t-44 -101.5q0 -67 43 -103t117 -36z" />
    <glyph glyph-name="adieresis.ss01" horiz-adv-x="1161" 
d="M205 1495h274v-256h-274v256zM694 1495h275v-256h-275v256zM1053 268l34 -268h-272l-20 186h-64q-23 -100 -116.5 -161.5t-217.5 -61.5q-145 0 -235 82t-90 217q0 139 90 227t276 127l340 72v17q0 208 -215 208q-108 0 -171.5 -55.5t-67.5 -157.5l-252 48
q19 175 157 274.5t353 99.5q223 0 347 -107t124 -310v-437zM500 172q91 0 171.5 53t106.5 131v168l-246 -49q-104 -21 -148 -62.5t-44 -101.5q0 -67 43 -103t117 -36z" />
    <glyph glyph-name="agrave.ss01" horiz-adv-x="1161" 
d="M600 1571l88 -303h-203l-188 303h303zM1053 268l34 -268h-272l-20 186h-64q-23 -100 -116.5 -161.5t-217.5 -61.5q-145 0 -235 82t-90 217q0 139 90 227t276 127l340 72v17q0 208 -215 208q-108 0 -171.5 -55.5t-67.5 -157.5l-252 48q19 175 157 274.5t353 99.5
q223 0 347 -107t124 -310v-437zM500 172q91 0 171.5 53t106.5 131v168l-246 -49q-104 -21 -148 -62.5t-44 -101.5q0 -67 43 -103t117 -36z" />
    <glyph glyph-name="amacron.ss01" horiz-adv-x="1161" 
d="M233 1491h705v-197h-705v197zM1053 268l34 -268h-272l-20 186h-64q-23 -100 -116.5 -161.5t-217.5 -61.5q-145 0 -235 82t-90 217q0 139 90 227t276 127l340 72v17q0 208 -215 208q-108 0 -171.5 -55.5t-67.5 -157.5l-252 48q19 175 157 274.5t353 99.5q223 0 347 -107
t124 -310v-437zM500 172q91 0 171.5 53t106.5 131v168l-246 -49q-104 -21 -148 -62.5t-44 -101.5q0 -67 43 -103t117 -36z" />
    <glyph glyph-name="aogonek.ss01" horiz-adv-x="1161" 
d="M1153 -221l57 -150q-39 -31 -105.5 -51t-137.5 -20q-126 0 -201.5 65.5t-75.5 169.5q0 64 33 119t92 92l-20 182h-64q-23 -100 -116.5 -161.5t-217.5 -61.5q-145 0 -235 82t-90 217q0 139 90 227t276 127l340 72v17q0 208 -215 208q-108 0 -171.5 -55.5t-67.5 -157.5
l-252 48q19 175 157 274.5t353 99.5q223 0 347 -107t124 -310v-437l34 -268h-34q-89 -13 -139 -58.5t-50 -105.5q0 -52 35 -81t98 -29q89 0 156 53zM500 172q91 0 171.5 53t106.5 131v168l-246 -49q-104 -21 -148 -62.5t-44 -101.5q0 -67 43 -103t117 -36z" />
    <glyph glyph-name="aring.ss01" horiz-adv-x="1161" 
d="M588 1235q-139 0 -223 71.5t-84 190.5q0 122 86 193t221 71q136 0 219.5 -72.5t83.5 -191.5q0 -121 -85 -191.5t-218 -70.5zM588 1616q-58 0 -92.5 -31.5t-34.5 -87.5q0 -55 35.5 -86t91.5 -31q55 0 89 32t34 85q0 55 -34 87t-89 32zM1053 268l34 -268h-272l-20 186h-64
q-23 -100 -116.5 -161.5t-217.5 -61.5q-145 0 -235 82t-90 217q0 139 90 227t276 127l340 72v17q0 208 -215 208q-108 0 -171.5 -55.5t-67.5 -157.5l-252 48q19 175 157 274.5t353 99.5q223 0 347 -107t124 -310v-437zM500 172q91 0 171.5 53t106.5 131v168l-246 -49
q-104 -21 -148 -62.5t-44 -101.5q0 -67 43 -103t117 -36z" />
    <glyph glyph-name="atilde.ss01" horiz-adv-x="1161" 
d="M412 1243h-154q-18 170 29 258t145 88q40 0 80.5 -17.5t64.5 -36t60 -50.5q50 -47 82 -47q30 0 38.5 35.5t2.5 113.5h153q18 -169 -28.5 -257.5t-143.5 -88.5q-57 0 -107 29.5t-102 77.5q-18 17 -27 24.5t-23.5 15t-28.5 7.5q-56 0 -41 -152zM1053 268l34 -268h-272
l-20 186h-64q-23 -100 -116.5 -161.5t-217.5 -61.5q-145 0 -235 82t-90 217q0 139 90 227t276 127l340 72v17q0 208 -215 208q-108 0 -171.5 -55.5t-67.5 -157.5l-252 48q19 175 157 274.5t353 99.5q223 0 347 -107t124 -310v-437zM500 172q91 0 171.5 53t106.5 131v168
l-246 -49q-104 -21 -148 -62.5t-44 -101.5q0 -67 43 -103t117 -36z" />
    <glyph glyph-name="cdotaccent.ss01" horiz-adv-x="1230" 
d="M514 1239v256h272v-256h-272zM70 537q0 265 159 425t422 160q206 0 343.5 -100t179.5 -272l-259 -80q-23 111 -96.5 167t-181.5 56q-138 0 -215.5 -95.5t-77.5 -254.5q0 -164 81 -257t214 -93q113 0 186 60t95 163l258 -80q-40 -167 -190.5 -270t-356.5 -103
q-254 0 -407.5 156.5t-153.5 417.5z" />
    <glyph glyph-name="edieresis.ss01" horiz-adv-x="1251" 
d="M264 1239v256h275v-256h-275zM754 1239v256h274v-256h-274zM70 541q0 260 154.5 420.5t414.5 160.5q253 0 404 -155.5t151 -423.5v-88h-852q8 -124 91.5 -197.5t219.5 -73.5q111 0 198.5 50t135.5 137l158 -172q-68 -110 -204.5 -173t-295.5 -63q-256 0 -415.5 157
t-159.5 421zM344 643h582q-8 121 -85 192.5t-206 71.5q-124 0 -203 -70t-88 -194z" />
    <glyph glyph-name="edotaccent.ss01" horiz-adv-x="1251" 
d="M510 1239v256h272v-256h-272zM70 541q0 260 154.5 420.5t414.5 160.5q253 0 404 -155.5t151 -423.5v-88h-852q8 -124 91.5 -197.5t219.5 -73.5q111 0 198.5 50t135.5 137l158 -172q-68 -110 -204.5 -173t-295.5 -63q-256 0 -415.5 157t-159.5 421zM344 643h582
q-8 121 -85 192.5t-206 71.5q-124 0 -203 -70t-88 -194z" />
    <glyph glyph-name="f.ss01" horiz-adv-x="864" 
d="M250 858h-213v227h213v211q0 90 63 144.5t166 54.5h320l35 -219h-310v-191h303v-227h-303v-858h-274v858z" />
    <glyph glyph-name="g.ss01" horiz-adv-x="1320" 
d="M70 575q0 242 141 393.5t360 151.5q131 0 225.5 -59t143.5 -174l84 43q-40 98 -51 145v10h229v-1077q0 -237 -145 -371.5t-406 -134.5q-219 0 -346 101.5t-145 273.5l252 47q1 -101 71.5 -157t188.5 -56q120 0 187 63t69 169q1 40 14 87t27 79t43 92l-84 55
q-51 -106 -146.5 -163.5t-218.5 -57.5q-210 0 -351.5 149.5t-141.5 390.5zM348 578q0 -145 83.5 -229.5t215.5 -84.5q104 0 179.5 52.5t103.5 138.5v245q-29 89 -106.5 140t-178.5 51q-134 0 -215.5 -86.5t-81.5 -226.5z" />
    <glyph glyph-name="gbreve.ss01" horiz-adv-x="1320" 
d="M285 1571h223q0 -74 36.5 -112t98.5 -38q135 0 135 150h223q0 -145 -98.5 -232.5t-259.5 -87.5q-163 0 -261 87.5t-97 232.5zM70 575q0 242 141 393.5t360 151.5q131 0 225.5 -59t143.5 -174l84 43q-40 98 -51 145v10h229v-1077q0 -237 -145 -371.5t-406 -134.5
q-219 0 -346 101.5t-145 273.5l252 47q1 -101 71.5 -157t188.5 -56q120 0 187 63t69 169q1 40 14 87t27 79t43 92l-84 55q-51 -106 -146.5 -163.5t-218.5 -57.5q-210 0 -351.5 149.5t-141.5 390.5zM348 578q0 -145 83.5 -229.5t215.5 -84.5q104 0 179.5 52.5t103.5 138.5
v245q-29 89 -106.5 140t-178.5 51q-134 0 -215.5 -86.5t-81.5 -226.5z" />
    <glyph glyph-name="uni0123.ss01" horiz-adv-x="1320" 
d="M516 1528l152 246l135 -70l-94 -152q51 -15 80.5 -55.5t29.5 -95.5q0 -74 -50 -118t-124 -44q-78 0 -125 45t-47 117q0 63 43 127zM70 575q0 242 141 393.5t360 151.5q131 0 225.5 -59t143.5 -174l84 43q-40 98 -51 145v10h229v-1077q0 -237 -145 -371.5t-406 -134.5
q-219 0 -346 101.5t-145 273.5l252 47q1 -101 71.5 -157t188.5 -56q120 0 187 63t69 169q1 40 14 87t27 79t43 92l-84 55q-51 -106 -146.5 -163.5t-218.5 -57.5q-210 0 -351.5 149.5t-141.5 390.5zM348 578q0 -145 83.5 -229.5t215.5 -84.5q104 0 179.5 52.5t103.5 138.5
v245q-29 89 -106.5 140t-178.5 51q-134 0 -215.5 -86.5t-81.5 -226.5z" />
    <glyph glyph-name="gdotaccent.ss01" horiz-adv-x="1320" 
d="M508 1239v256h272v-256h-272zM70 575q0 242 141 393.5t360 151.5q131 0 225.5 -59t143.5 -174l84 43q-40 98 -51 145v10h229v-1077q0 -237 -145 -371.5t-406 -134.5q-219 0 -346 101.5t-145 273.5l252 47q1 -101 71.5 -157t188.5 -56q120 0 187 63t69 169q1 40 14 87
t27 79t43 92l-84 55q-51 -106 -146.5 -163.5t-218.5 -57.5q-210 0 -351.5 149.5t-141.5 390.5zM348 578q0 -145 83.5 -229.5t215.5 -84.5q104 0 179.5 52.5t103.5 138.5v245q-29 89 -106.5 140t-178.5 51q-134 0 -215.5 -86.5t-81.5 -226.5z" />
    <glyph glyph-name="i.ss01" horiz-adv-x="522" 
d="M127 1235v260h272v-260h-272zM125 0v1085h274v-1085h-274z" />
    <glyph glyph-name="idieresis.ss01" horiz-adv-x="546" 
d="M-117 1239v256h275v-256h-275zM373 1239v256h274v-256h-274zM125 0v1085h278v-1085h-278z" />
    <glyph glyph-name="i.loclTRK.ss01" horiz-adv-x="546" 
d="M129 1239v256h272v-256h-272zM125 0v1085h278v-1085h-278z" />
    <glyph glyph-name="j.ss01" horiz-adv-x="534" 
d="M139 1235v260h273v-260h-273zM412 1085v-1347q0 -90 -63.5 -144.5t-166.5 -54.5h-319v219h274v1327h275z" />
    <glyph glyph-name="odieresis.ss01" horiz-adv-x="1288" 
d="M264 1239v256h275v-256h-275zM754 1239v256h274v-256h-274zM70 545q0 259 159 418t416 159q256 0 416 -159t160 -418q0 -260 -160 -420t-416 -160q-257 0 -416 160t-159 420zM944 545q0 160 -80 253t-219 93t-220 -93t-81 -253q0 -161 81 -254.5t220 -93.5t219 93t80 255
z" />
    <glyph glyph-name="t.ss01" horiz-adv-x="897" 
d="M762 -2l-289 2q-113 0 -171 56t-58 157v645h-217v227h217v273l274 49v-322h316v-227h-316v-625h279z" />
    <glyph glyph-name="udieresis.ss01" horiz-adv-x="1304" 
d="M268 1239v256h275v-256h-275zM758 1239v256h274v-256h-274zM1188 1085v-1085h-260v10q8 73 45 174l-86 29q-47 -118 -150 -184t-237 -66q-182 0 -286.5 116.5t-104.5 334.5v671h272v-620q0 -125 63 -191.5t179 -66.5q97 0 172.5 48t117.5 140v690h275z" />
    <glyph glyph-name="wdieresis.ss01" horiz-adv-x="1697" 
d="M467 1239v256h274v-256h-274zM956 1239v256h275v-256h-275zM285 0l-275 1085h277l75 -335q43 -196 46 -469h90q11 105 37.5 207.5t85.5 285.5l106 311h246l104 -311q60 -182 86.5 -285t36.5 -208h90q3 264 45 469l76 335h277l-273 -1085h-311l-100 299
q-56 176 -78.5 294.5t-28.5 256.5h-96q-6 -137 -29 -261t-76 -290l-100 -299h-311z" />
    <glyph glyph-name="y.ss01" horiz-adv-x="1214" 
d="M453 76l-447 1009h307l160 -407q71 -183 82 -350h104q13 171 80 350l160 407h305l-686 -1546h-299z" />
    <glyph glyph-name="yacute.ss01" horiz-adv-x="1214" 
d="M592 1571h303l-188 -303h-203zM453 76l-447 1009h307l160 -407q71 -183 82 -350h104q13 171 80 350l160 407h305l-686 -1546h-299z" />
    <glyph glyph-name="ycircumflex.ss01" horiz-adv-x="1214" 
d="M487 1268h-245l213 303h301l213 -303h-246l-37 63q-32 62 -45 111h-70q-12 -39 -47 -111zM453 76l-447 1009h307l160 -407q71 -183 82 -350h104q13 171 80 350l160 407h305l-686 -1546h-299z" />
    <glyph glyph-name="ydieresis.ss01" horiz-adv-x="1214" 
d="M223 1239v256h275v-256h-275zM713 1239v256h274v-256h-274zM453 76l-447 1009h307l160 -407q71 -183 82 -350h104q13 171 80 350l160 407h305l-686 -1546h-299z" />
    <glyph glyph-name="ygrave.ss01" horiz-adv-x="1214" 
d="M504 1268l-189 303h303l89 -303h-203zM453 76l-447 1009h307l160 -407q71 -183 82 -350h104q13 171 80 350l160 407h305l-686 -1546h-299z" />
    <glyph glyph-name="zdotaccent.ss01" horiz-adv-x="1077" 
d="M408 1239v256h272v-256h-272zM1020 0h-952v225l637 664l-64 69q-62 -55 -117.5 -77.5t-146.5 -22.5h-295v227h922v-225l-637 -663l61 -70q60 55 118.5 77.5t151.5 22.5h322v-227z" />
    <glyph glyph-name="m_m.dlig" horiz-adv-x="3325" 
d="M391 0h-274v1085h260v-14q-7 -70 -43 -164l55 -30q106 245 346 245q126 0 207 -61.5t111 -171.5h47q45 112 134.5 171.5t207.5 61.5q125 0 206 -61.5t113 -171.5h45q47 113 136 172t208 61q125 0 206 -61.5t114 -171.5h43q47 113 137.5 173t208.5 60q171 0 265.5 -115.5
t94.5 -328.5v-678h-274v635q0 244 -190 244q-85 0 -149.5 -46t-92.5 -124v-709h-275v635q0 244 -190 244q-85 0 -149.5 -46t-94.5 -124v-709h-272v635q0 244 -191 244q-85 0 -150 -46t-93 -124v-709h-273v635q0 244 -190 244q-84 0 -150 -47.5t-94 -124.5v-707z" />
    <glyph glyph-name="o_o.dlig" horiz-adv-x="2260" 
d="M70 547q0 131 45 240t123.5 181.5t185 112t229.5 39.5q152 0 269.5 -63t181.5 -168h53q66 107 183.5 169t267.5 62q124 0 230.5 -40t185 -113t123 -182t44.5 -240q0 -175 -77 -307t-209.5 -200.5t-298.5 -68.5q-153 0 -269.5 64t-179.5 170h-53q-65 -107 -183 -170.5
t-268 -63.5q-165 0 -296.5 69t-209 201.5t-77.5 307.5zM348 545q0 -150 95 -240t245 -90q122 0 205.5 59t122.5 164h229q37 -107 121.5 -165t206.5 -58q150 0 245 90t95 240q0 152 -95 242t-245 90q-122 0 -205.5 -59.5t-122.5 -166.5h-229q-37 107 -122 166.5t-206 59.5
q-150 0 -245 -90t-95 -242z" />
    <glyph glyph-name="fi.ss01" horiz-adv-x="1388" 
d="M250 858h-213v227h213v211q0 90 63 144.5t166 54.5h320l35 -219h-310v-191h303v-227h-303v-858h-274v858zM991 1235v260h273v-260h-273zM989 0v1085h275v-1085h-275z" />
    <glyph glyph-name="f_f.liga.ss01" horiz-adv-x="1601" 
d="M250 858h-213v227h213v211q0 90 63 144.5t166 54.5h320l35 -219h-310v-191h463v211q0 91 62 145t165 54h322l35 -219h-311v-191h305v-227h-305v-858h-273v858h-463v-858h-274v858z" />
    <glyph glyph-name="f_f_i.liga.ss01" horiz-adv-x="2123" 
d="M250 858h-213v227h213v211q0 90 63 144.5t166 54.5h320l35 -219h-310v-191h463v211q0 91 62 145t165 54h322l35 -219h-311v-191h305v-227h-305v-858h-273v858h-463v-858h-274v858zM1729 1235v260h272v-260h-272zM1726 0v1085h275v-1085h-275z" />
    <glyph glyph-name="f_t.liga.ss01" horiz-adv-x="1619" 
d="M250 858h-213v227h213v211q0 90 63 144.5t166 54.5h291l33 -219h-279v-191h449v273l272 49v-322h311v-227h-311v-625h273l-35 -235l-283 2q-113 0 -170 56t-57 157v645h-449v-858h-274v858z" />
    <glyph glyph-name="t_f.liga.ss01" horiz-adv-x="1591" 
d="M244 858h-217v227h217v273l274 49v-322h459v211q0 91 62 145t165 54h322l35 -219h-312v-191h305v-227h-305v-858h-272v858h-459v-625h273l-35 -235l-283 2q-113 1 -171 57t-58 156v645z" />
    <glyph glyph-name="t_i.liga.ss01" horiz-adv-x="1419" 
d="M1024 1235v260h272v-260h-272zM762 -2l-289 2q-113 0 -171 56t-58 157v645h-217v227h217v273l274 49v-322h316v-227h-316v-625h279zM1022 0v1085h274v-1085h-274z" />
    <glyph glyph-name="t_t.liga.ss01" horiz-adv-x="1636" 
d="M244 858h-217v227h217v273l274 49v-322h467v273l272 49v-322h318v-227h-318v-625h279l-35 -235l-289 2q-113 0 -170 56t-57 157v645h-467v-625h279l-35 -235l-289 2q-113 1 -171 57t-58 156v645z" />
    <glyph glyph-name="t_t_i.liga.ss01" horiz-adv-x="2158" 
d="M1763 1235v260h273v-260h-273zM244 858h-217v227h217v273l274 49v-322h467v273l272 49v-322h318v-227h-318v-625h279l-35 -235l-289 2q-113 0 -170 56t-57 157v645h-467v-625h279l-35 -235l-289 2q-113 1 -171 57t-58 156v645zM1761 0v1085h275v-1085h-275z" />
    <glyph glyph-name="zero.tf" horiz-adv-x="1452" 
d="M723 -27q-184 0 -317.5 94t-201 261.5t-67.5 390.5q0 355 159.5 553t426.5 198q280 0 436 -203t156 -548q0 -351 -161 -548.5t-431 -197.5zM723 223q315 0 315 496q0 250 -81 377t-234 127q-158 0 -234.5 -131t-76.5 -373q0 -247 80.5 -371.5t230.5 -124.5z" />
    <glyph glyph-name="one.tf" horiz-adv-x="1456" 
d="M903 1434v-1201h395v-233h-1130v233h455v527q0 67 7.5 117t26 90.5t34.5 64.5t48 66l-67 61q-79 -82 -218 -138t-286 -67v242q176 21 321 86t226 152h188z" />
    <glyph glyph-name="two.tf" horiz-adv-x="1454" 
d="M1303 0h-1139v217l600 422q135 96 187.5 174.5t52.5 169.5q0 121 -74 187.5t-197 66.5q-143 0 -225 -81t-82 -226l-268 26q2 238 155.5 376t423.5 138q246 0 396.5 -128.5t150.5 -340.5q0 -163 -82.5 -282.5t-300.5 -265.5q-179 -125 -389 -238l43 -88q75 30 132 49
t154.5 38t190.5 19h271v-233z" />
    <glyph glyph-name="three.tf" horiz-adv-x="1452" 
d="M731 -37q-285 0 -436 123.5t-166 349.5l252 60q27 -299 354 -299q145 0 226 58.5t81 172.5q0 102 -71.5 153.5t-198.5 51.5h-188v205h161q139 0 202 52t63 142q0 102 -72 156.5t-197 54.5q-147 0 -231 -73.5t-96 -200.5l-252 57q15 203 178 323.5t408 120.5
q257 0 398.5 -106.5t141.5 -278.5q0 -118 -70 -195t-192 -106v-88q132 -11 213.5 -94.5t81.5 -214.5q0 -193 -157 -308.5t-433 -115.5z" />
    <glyph glyph-name="four.tf" horiz-adv-x="1445" 
d="M1130 0h-276v297h-758v221l723 918h311v-910h222v-229h-222v-297zM866 1194l-514 -678l54 -59q79 69 260 69h188v285q0 184 98 317z" />
    <glyph glyph-name="five.tf" horiz-adv-x="1449" 
d="M125 412l252 59q17 -135 110 -204.5t242 -69.5q154 0 236 75.5t82 208.5q0 136 -81 207.5t-223 71.5q-105 0 -194 -39.5t-146 -110.5l-223 68l101 758h921v-232h-692l-14 -106q-6 -117 -115 -250l80 -62q56 86 155 133.5t215 47.5q228 0 362 -134t134 -354
q0 -244 -163 -380t-431 -136q-258 0 -423 123.5t-185 325.5z" />
    <glyph glyph-name="six.tf" horiz-adv-x="1449" 
d="M743 -37q-300 0 -459 198.5t-159 547.5q0 358 176.5 559.5t474.5 201.5q203 0 352 -101t181 -263l-277 -66q-26 91 -98.5 144t-167.5 53q-170 0 -268.5 -134.5t-98.5 -393.5l70 -11q44 110 151 175t244 65q208 0 333.5 -125t125.5 -342q0 -229 -156.5 -368.5
t-423.5 -139.5zM754 197q132 0 212.5 76.5t80.5 205.5q0 122 -75 193t-208 71q-109 0 -201 -55t-143 -149q12 -164 100 -253t234 -89z" />
    <glyph glyph-name="seven.tf" horiz-adv-x="1454" 
d="M504 1202h-367v234h1180v-213l-664 -1223h-323v14l520 918q57 104 109 172.5t135 144.5l-68 88q-85 -72 -209 -103.5t-313 -31.5z" />
    <glyph glyph-name="eight.tf" horiz-adv-x="1449" 
d="M125 385q0 132 81.5 219t213.5 113v76q-111 25 -178.5 96.5t-67.5 193.5q0 174 150 280.5t401 106.5q252 0 401.5 -106.5t149.5 -280.5q0 -125 -68 -195.5t-180 -94.5v-76q137 -27 218 -114.5t81 -217.5q0 -200 -161 -311t-441 -111q-279 0 -439.5 110.5t-160.5 311.5z
M451 1042q0 -92 71 -147t203 -55q131 0 203.5 55.5t72.5 146.5q0 98 -71.5 151.5t-204.5 53.5t-203.5 -53t-70.5 -152zM401 430q0 -113 82.5 -174t241.5 -61q160 0 243 61t83 174q0 111 -84 174.5t-242 63.5t-241 -63.5t-83 -174.5z" />
    <glyph glyph-name="nine.tf" horiz-adv-x="1449" 
d="M707 1470q299 0 456.5 -197.5t157.5 -545.5q0 -360 -174.5 -562t-472.5 -202q-204 0 -349.5 102t-179.5 265l279 63q24 -91 96 -142.5t166 -51.5q171 0 267 135t96 393l-70 10q-43 -109 -149 -175t-242 -66q-206 0 -331.5 126t-125.5 343q0 229 155.5 367t420.5 138z
M700 1237q-132 0 -212 -77t-80 -204q0 -122 74.5 -193t205.5 -71q111 0 201 55.5t139 147.5q-10 164 -98 253t-230 89z" />
    <glyph glyph-name="zero.dnom" horiz-adv-x="843" 
d="M420 -14q-159 0 -248.5 111.5t-89.5 299.5q0 193 92.5 302.5t245.5 109.5q162 0 252 -112t90 -300q0 -194 -93 -302.5t-249 -108.5zM420 145q164 0 164 252q0 126 -43 189t-121 63q-160 0 -160 -252q0 -128 42 -190t118 -62z" />
    <glyph glyph-name="one.dnom" horiz-adv-x="557" 
d="M397 0h-180v356q0 136 74 215l-41 41q-99 -99 -227 -110v151q78 14 148.5 51t107.5 84h118v-788z" />
    <glyph glyph-name="two.dnom" horiz-adv-x="712" 
d="M664 0h-615v137l320 230q66 48 90 88t24 88q0 54 -34 86.5t-91 32.5q-64 0 -100.5 -41t-36.5 -117l-170 16q0 131 85.5 210t225.5 79q131 0 212 -72t81 -190q0 -92 -47.5 -161t-148.5 -136q-102 -66 -187 -115l27 -55q168 70 276 70h89v-150z" />
    <glyph glyph-name="three.dnom" horiz-adv-x="747" 
d="M367 -23q-159 0 -241.5 69t-90.5 194l158 39q17 -150 176 -150q145 0 145 109q0 102 -135 102h-94v127h80q68 0 99.5 26.5t31.5 69.5q0 47 -32.5 73t-92.5 26q-72 0 -113 -37.5t-49 -102.5l-160 37q10 118 101.5 184t224.5 66q143 0 221 -59t78 -154q0 -64 -40 -107
t-108 -57v-51q78 -6 123 -52.5t45 -115.5q0 -108 -87 -172t-240 -64z" />
    <glyph glyph-name="four.dnom" horiz-adv-x="821" 
d="M657 0h-180v154h-426v141l404 493h202v-489h127v-145h-127v-154zM489 643l-278 -350l35 -37q46 43 153 43h78v117q0 116 64 180z" />
    <glyph glyph-name="five.dnom" horiz-adv-x="763" 
d="M39 229l160 39q10 -69 57.5 -104t124.5 -35t117.5 37t40.5 100q0 66 -40 101.5t-112 35.5q-110 0 -172 -71l-143 41l55 415h518v-147h-369l-4 -29q-13 -78 -71 -133l51 -39q31 46 83 70.5t111 24.5q125 0 198 -74t73 -195q0 -135 -90.5 -210.5t-241.5 -75.5
q-147 0 -242 68.5t-104 180.5z" />
    <glyph glyph-name="six.dnom" horiz-adv-x="800" 
d="M420 -20q-176 0 -268.5 109.5t-92.5 303.5q0 195 103 305.5t274 110.5q119 0 204.5 -57t102.5 -150l-178 -39q-15 45 -52.5 70.5t-84.5 25.5q-84 0 -136.5 -63.5t-53.5 -192.5l45 -10q22 55 79.5 88t133.5 33q119 0 189.5 -67t70.5 -187q0 -127 -90.5 -203.5
t-245.5 -76.5zM424 129q69 0 110 36t41 99q0 60 -38 93.5t-107 33.5q-58 0 -105.5 -24t-74.5 -64q3 -83 49.5 -128.5t124.5 -45.5z" />
    <glyph glyph-name="seven.dnom" horiz-adv-x="681" 
d="M184 639h-145v149h604v-135l-311 -653h-209v8l235 467q29 58 60.5 101.5t87.5 95.5l-41 55q-94 -88 -281 -88z" />
    <glyph glyph-name="eight.dnom" horiz-adv-x="823" 
d="M55 211q0 70 46.5 116t123.5 60v49q-141 33 -141 156q0 97 89.5 156t238.5 59t237 -59t88 -156q0 -124 -141 -156v-49q79 -14 125.5 -60t46.5 -116q0 -112 -95 -171.5t-261 -59.5t-261.5 59.5t-95.5 171.5zM264 567q0 -45 39.5 -72.5t108.5 -27.5q68 0 106.5 27.5
t38.5 72.5q0 47 -38 73t-107 26q-71 0 -109.5 -26t-38.5 -73zM236 244q0 -57 44 -88t132 -31t132 31t44 88q0 54 -45 85t-131 31t-131 -31t-45 -85z" />
    <glyph glyph-name="nine.dnom" horiz-adv-x="804" 
d="M389 809q174 0 266.5 -110.5t92.5 -303.5q0 -195 -102 -305t-273 -110q-121 0 -207 56.5t-105 147.5l183 39q13 -45 50.5 -69.5t84.5 -24.5q86 0 137.5 63t52.5 193l-45 8q-22 -55 -79.5 -87t-133.5 -32q-119 0 -189.5 67t-70.5 187q0 127 90.5 204t247.5 77zM383 659
q-68 0 -110 -37t-42 -98t38.5 -94t109.5 -33q119 0 178 88q-3 84 -49 129t-125 45z" />
    <glyph glyph-name="zero.numr" horiz-adv-x="843" 
d="M420 631q-159 0 -248.5 111.5t-89.5 299.5q0 193 92.5 302.5t245.5 109.5q162 0 252 -112t90 -300q0 -194 -93 -302.5t-249 -108.5zM420 791q164 0 164 251q0 126 -43 189t-121 63q-160 0 -160 -252q0 -251 160 -251z" />
    <glyph glyph-name="one.numr" horiz-adv-x="557" 
d="M397 645h-180v356q0 137 74 216l-41 40q-99 -99 -227 -110v151q78 13 148.5 51t107.5 85h118v-789z" />
    <glyph glyph-name="two.numr" horiz-adv-x="712" 
d="M664 645h-615v137l320 230q66 48 90 88t24 88q0 54 -34 86.5t-91 32.5q-64 0 -100.5 -41t-36.5 -117l-170 16q0 131 85.5 210t225.5 79q131 0 212 -72t81 -190q0 -92 -47.5 -161t-148.5 -136q-102 -66 -187 -115l27 -55q168 70 276 70h89v-150z" />
    <glyph glyph-name="three.numr" horiz-adv-x="747" 
d="M367 623q-159 0 -241.5 68.5t-90.5 193.5l158 39q17 -150 176 -150q145 0 145 109q0 102 -135 102h-94v127h80q68 0 99.5 26.5t31.5 69.5q0 47 -32.5 73t-92.5 26q-72 0 -113 -37.5t-49 -102.5l-160 37q10 118 101.5 184t224.5 66q143 0 221 -59t78 -154q0 -64 -40 -107
t-108 -57v-51q78 -6 123 -52.5t45 -115.5q0 -108 -87 -171.5t-240 -63.5z" />
    <glyph glyph-name="four.numr" horiz-adv-x="821" 
d="M657 645h-180v154h-426v141l404 494h202v-490h127v-145h-127v-154zM489 1288l-278 -350l35 -37q46 43 153 43h78v117q0 116 64 180z" />
    <glyph glyph-name="five.numr" horiz-adv-x="763" 
d="M39 874l160 39q10 -69 57.5 -104t124.5 -35t117.5 37t40.5 100q0 66 -40 102t-112 36q-110 0 -172 -72l-143 41l55 416h518v-148h-369l-4 -29q-13 -78 -71 -133l51 -39q31 46 83 70.5t111 24.5q125 0 198 -74t73 -195q0 -135 -90.5 -210.5t-241.5 -75.5q-147 0 -242 68.5
t-104 180.5z" />
    <glyph glyph-name="six.numr" horiz-adv-x="800" 
d="M420 625q-176 0 -268.5 109.5t-92.5 303.5q0 195 103 305.5t274 110.5q119 0 204.5 -57t102.5 -150l-178 -39q-15 45 -52.5 71t-84.5 26q-84 0 -136.5 -63.5t-53.5 -192.5l45 -11q22 55 79.5 88t133.5 33q119 0 189.5 -67t70.5 -187q0 -127 -90.5 -203.5t-245.5 -76.5z
M424 774q69 0 110 36t41 99q0 60 -38 93.5t-107 33.5q-58 0 -105.5 -24t-74.5 -64q3 -83 49.5 -128.5t124.5 -45.5z" />
    <glyph glyph-name="seven.numr" horiz-adv-x="681" 
d="M184 1284h-145v150h604v-136l-311 -653h-209v8l235 467q29 58 60.5 101.5t87.5 95.5l-41 55q-94 -88 -281 -88z" />
    <glyph glyph-name="eight.numr" horiz-adv-x="823" 
d="M55 856q0 70 46.5 116t123.5 60v49q-141 33 -141 156q0 97 89.5 156t238.5 59t237 -59t88 -156q0 -124 -141 -156v-49q79 -14 125.5 -60t46.5 -116q0 -112 -95 -171.5t-261 -59.5t-261.5 59.5t-95.5 171.5zM264 1212q0 -45 39.5 -72.5t108.5 -27.5q68 0 106.5 27.5
t38.5 72.5q0 47 -38 73t-107 26q-71 0 -109.5 -26t-38.5 -73zM236 889q0 -57 44 -88t132 -31t132 31t44 88q0 54 -45 85.5t-131 31.5t-131 -31.5t-45 -85.5z" />
    <glyph glyph-name="nine.numr" horiz-adv-x="804" 
d="M389 1454q174 0 266.5 -110.5t92.5 -303.5q0 -195 -102 -305t-273 -110q-121 0 -207 56.5t-105 147.5l183 39q13 -45 50.5 -69.5t84.5 -24.5q86 0 137.5 63t52.5 193l-45 8q-22 -55 -79.5 -86.5t-133.5 -31.5q-119 0 -189.5 67t-70.5 187q0 127 90.5 203.5t247.5 76.5z
M383 1305q-68 0 -110 -37.5t-42 -98.5t38.5 -94t109.5 -33q119 0 178 88q-3 84 -49 129.5t-125 45.5z" />
    <glyph glyph-name="colon.case" horiz-adv-x="638" 
d="M319 860q-82 0 -131 43t-49 125t49 126t131 44q84 0 132.5 -43.5t48.5 -126.5q0 -81 -48.5 -124.5t-132.5 -43.5zM319 205q-82 0 -131 43t-49 125t49 126t131 44q84 0 132.5 -43.5t48.5 -126.5q0 -81 -48.5 -124.5t-132.5 -43.5z" />
    <glyph glyph-name="period.ss01" horiz-adv-x="579" 
d="M145 0v279h289v-279h-289z" />
    <glyph glyph-name="comma.ss01" horiz-adv-x="516" 
d="M203 -311l-129 65l149 246h-119v279h291v-279z" />
    <glyph glyph-name="colon.ss01" horiz-adv-x="604" 
d="M158 758v278h288v-278h-288zM158 0v279h288v-279h-288z" />
    <glyph glyph-name="semicolon.ss01" horiz-adv-x="616" 
d="M170 758v278h287v-278h-287zM266 -311l-127 63l150 248h-119v279h287v-279z" />
    <glyph glyph-name="exclam.ss01" horiz-adv-x="591" 
d="M352 500h-112l-86 610v324h282v-324zM152 0v279h288v-279h-288z" />
    <glyph glyph-name="question.ss01" horiz-adv-x="1269" 
d="M770 459h-238v260q363 25 363 280q0 111 -68 173.5t-182 62.5q-112 0 -190 -59t-95 -166l-254 55q26 185 175.5 294t373.5 109q232 0 375.5 -120.5t143.5 -321.5q0 -169 -106.5 -287t-297.5 -153v-127zM506 0v279h289v-279h-289z" />
    <glyph glyph-name="asterisk.ss02" horiz-adv-x="935" 
d="M424 1104l-4 8q-116 25 -305 94l22 66q176 -46 293 -105l8 7q-18 128 -6 305h74q12 -177 -4 -305l6 -7q117 59 293 105l22 -66q-180 -67 -303 -94v-10q97 -99 209 -264l-57 -39q-43 49 -67.5 78.5t-61 80.5t-68.5 105h-12q-19 -33 -38.5 -62t-44 -61t-35.5 -46t-43 -52
t-36 -43l-55 39q111 162 213 266z" />
    <glyph glyph-name="slash.ss02" horiz-adv-x="899" 
d="M68 0l667 1434h94l-667 -1434h-94z" />
    <glyph glyph-name="backslash.ss02" horiz-adv-x="899" 
d="M68 1434h94l667 -1434h-94z" />
    <glyph glyph-name="parenleft.case" horiz-adv-x="813" 
d="M170 686q0 539 414 1004l164 -119q-171 -211 -251.5 -423.5t-80.5 -461.5t81.5 -462.5t250.5 -422.5l-164 -120q-414 465 -414 1005z" />
    <glyph glyph-name="parenright.case" horiz-adv-x="811" 
d="M641 686q0 -268 -105 -523t-309 -482l-161 120q169 209 250 422t81 463q0 248 -80.5 461t-250.5 424l161 119q414 -461 414 -1004z" />
    <glyph glyph-name="braceleft.case" horiz-adv-x="821" 
d="M240 6v422q0 72 -23.5 98.5t-87.5 26.5h-51v307h51q64 0 87.5 27t23.5 98v379q0 164 71.5 233.5t241.5 69.5h207v-225h-178q-66 0 -91.5 -32t-25.5 -112v-356q0 -82 -49 -136.5t-125 -55.5v-86q76 -1 125 -56.5t49 -138.5v-397q0 -79 26 -111.5t91 -32.5h178v-225h-207
q-170 0 -241.5 69.5t-71.5 233.5z" />
    <glyph glyph-name="braceright.case" horiz-adv-x="821" 
d="M584 428v-422q0 -164 -72 -233.5t-244 -69.5h-205v225h177q67 0 92.5 32.5t25.5 111.5v397q0 83 48.5 138.5t123.5 56.5v86q-75 1 -123.5 55.5t-48.5 136.5v356q0 80 -25.5 112t-92.5 32h-177v225h205q172 0 244 -69.5t72 -233.5v-379q0 -71 23 -98t87 -27h51v-307h-51
q-64 0 -87 -26.5t-23 -98.5z" />
    <glyph glyph-name="bracketleft.case" horiz-adv-x="761" 
d="M707 -297h-521v1964h521v-217h-297v-1528h297v-219z" />
    <glyph glyph-name="bracketright.case" horiz-adv-x="761" 
d="M575 1667v-1964h-520v219h297v1528h-297v217h520z" />
    <glyph glyph-name="parenleft.ss02" horiz-adv-x="634" 
d="M125 602q0 562 403 997l62 -49q-189 -210 -280 -443.5t-91 -504.5q0 -269 91 -502.5t280 -443.5l-62 -51q-403 435 -403 997z" />
    <glyph glyph-name="parenright.ss02" horiz-adv-x="634" 
d="M508 602q0 -561 -404 -997l-61 51q189 210 280 443.5t91 502.5q0 271 -91 504.5t-280 443.5l61 49q404 -436 404 -997z" />
    <glyph glyph-name="braceleft.ss02" horiz-adv-x="718" 
d="M184 -18v507q0 75 -23.5 103.5t-84.5 28.5h-37v131h37q62 0 85 28t23 103v467q0 129 51 188t162 59h252v-86h-243q-69 0 -101.5 -42t-32.5 -134v-473q0 -148 -133 -157v-37q133 -9 133 -158v-516q0 -90 32.5 -132t101.5 -42h243v-86h-252q-111 0 -162 59t-51 189z" />
    <glyph glyph-name="braceright.ss02" horiz-adv-x="718" 
d="M535 489v-507q0 -130 -51 -189t-162 -59h-252v86h243q69 0 101 41.5t32 132.5v516q0 149 134 158v37q-134 9 -134 157v473q0 92 -32 134t-101 42h-243v86h252q111 0 162 -59t51 -188v-467q0 -75 23 -103t85 -28h37v-131h-37q-61 0 -84.5 -28.5t-23.5 -103.5z" />
    <glyph glyph-name="bracketleft.ss02" horiz-adv-x="679" 
d="M633 -266h-465v1863h465v-86h-377v-1691h377v-86z" />
    <glyph glyph-name="bracketright.ss02" horiz-adv-x="679" 
d="M512 1597v-1863h-465v86h377v1691h-377v86h465z" />
    <glyph glyph-name="hyphen.case" horiz-adv-x="903" 
d="M176 584v237h551v-237h-551z" />
    <glyph glyph-name="endash.case" horiz-adv-x="1200" 
d="M109 584v237h983v-237h-983z" />
    <glyph glyph-name="emdash.case" horiz-adv-x="1748" 
d="M90 584v237h1567v-237h-1567z" />
    <glyph glyph-name="hyphen.ss02" horiz-adv-x="833" 
d="M176 565v88h483v-88h-483z" />
    <glyph glyph-name="endash.ss02" horiz-adv-x="1226" 
d="M166 565v88h897v-88h-897z" />
    <glyph glyph-name="emdash.ss02" horiz-adv-x="1812" 
d="M166 565v88h1481v-88h-1481z" />
    <glyph glyph-name="hyphen.case.ss02" horiz-adv-x="833" 
d="M176 668v88h483v-88h-483z" />
    <glyph glyph-name="endash.case.ss02" horiz-adv-x="1226" 
d="M166 668v88h897v-88h-897z" />
    <glyph glyph-name="emdash.case.ss02" horiz-adv-x="1812" 
d="M166 668v88h1481v-88h-1481z" />
    <glyph glyph-name="guillemotleft.case" horiz-adv-x="1247" 
d="M362 737l291 -528h-295l-290 528l290 531h295zM872 737l293 -528h-295l-295 528l295 531h295z" />
    <glyph glyph-name="guillemotright.case" horiz-adv-x="1247" 
d="M377 209h-293l293 528l-293 531h293l295 -531zM889 209h-293l287 528l-287 531h293l293 -531z" />
    <glyph glyph-name="guilsinglleft.case" horiz-adv-x="720" 
d="M362 737l285 -528h-295l-286 528l286 531h295z" />
    <glyph glyph-name="guilsinglright.case" horiz-adv-x="724" 
d="M371 209h-293l287 528l-287 531h293l288 -531z" />
    <glyph glyph-name="quotesinglbase.ss01" horiz-adv-x="516" 
d="M203 -311l-129 65l149 246h-119v279h291v-279z" />
    <glyph glyph-name="quotedblbase.ss01" horiz-adv-x="944" 
d="M203 -311l-129 65l149 246h-119v279h291v-279zM631 -311l-129 65l149 246h-121v279h291v-279z" />
    <glyph glyph-name="quotedblleft.ss01" horiz-adv-x="925" 
d="M279 1475l129 -66l-150 -246h119v-278h-291v278zM705 1475l131 -66l-150 -246h119v-278h-291v278z" />
    <glyph glyph-name="quotedblright.ss01" horiz-adv-x="933" 
d="M203 881l-131 65l149 248h-119v279h291v-279zM629 881l-129 65l149 248h-119v279h291v-279z" />
    <glyph glyph-name="quoteleft.ss01" horiz-adv-x="507" 
d="M305 1475l129 -66l-149 -246h118v-278h-290v278z" />
    <glyph glyph-name="quoteright.ss01" horiz-adv-x="503" 
d="M203 881l-131 65l149 248h-119v279h291v-279z" />
    <glyph glyph-name="hyphen_hyphen.dlig" horiz-adv-x="1449" 
d="M1272 526h-1096v238h1096v-238z" />
    <glyph glyph-name="hyphen_hyphen_greater.dlig" horiz-adv-x="1736" 
d="M856 1161l150 150l620 -621l-620 -618l-150 149l207 207q14 14 29 26t41 28t37.5 22.5t53 28.5t52.5 28l-29 80q-58 -22 -83 -31t-78.5 -19.5t-108.5 -10.5l-813 -7v230l815 4q54 0 110.5 -13t79.5 -22t78 -33l31 84q-70 35 -97.5 50t-62 38t-57.5 47z" />
    <glyph glyph-name="emdash_emdash.dlig" horiz-adv-x="2605" 
d="M1085 623h-909v106h909l-202 240l22 18l240 -188q19 65 88 65q40 0 61.5 -24t14.5 -62q8 39 33 62.5t61 23.5q52 0 70 -41l303 250l20 -20l-291 -324h924v-106h-924l203 -236l-22 -18l-240 188q-19 -65 -88 -65q-40 0 -61.5 24t-14.5 62q-8 -39 -33 -62.5t-61 -23.5
q-52 0 -70 40l-303 -249l-20 20z" />
    <glyph glyph-name="parenleft_arrowup_parenright.dlig" horiz-adv-x="2172" 
d="M1085 -221q-196 0 -374.5 76.5t-307.5 205.5t-205.5 307t-76.5 373q0 193 76.5 370t205.5 305.5t307.5 205t374.5 76.5t375 -76.5t308.5 -205t206.5 -305.5t77 -370q0 -194 -77 -372t-206.5 -307.5t-308.5 -206t-375 -76.5zM1085 -14q153 0 292.5 59.5t241 160t161 240.5
t59.5 295q0 153 -60 292t-161 240t-240.5 160.5t-292.5 59.5t-292.5 -59.5t-240.5 -160.5t-160.5 -240t-59.5 -292q0 -206 101 -380t274 -274.5t378 -100.5zM711 670l-148 145l527 528l522 -528l-150 -145l-119 118q-13 13 -24 27t-24.5 37.5t-21 36.5t-26.5 51t-28 55
l-82 -30q4 -11 19 -44.5t20.5 -48.5t14 -44t12 -57t3.5 -60v-535h-231v535q0 20 2 40t4 35t7.5 35.5t8 30.5t10.5 31.5t10.5 27t12 28.5t10.5 26l-86 30q-35 -72 -48.5 -98t-33 -56.5t-41.5 -52.5z" />
    <glyph glyph-name="uni0028_uni2197_uni0029.dlig" horiz-adv-x="2172" 
d="M1085 -221q-196 0 -374.5 76.5t-307.5 205.5t-205.5 307t-76.5 373q0 193 76.5 370t205.5 305.5t307.5 205t374.5 76.5t375 -76.5t308.5 -205t206.5 -305.5t77 -370q0 -194 -77 -372t-206.5 -307.5t-308.5 -206t-375 -76.5zM1085 -14q153 0 292.5 59.5t241 160t161 240.5
t59.5 295q0 153 -60 292t-161 240t-240.5 160.5t-292.5 59.5t-292.5 -59.5t-240.5 -160.5t-160.5 -240t-59.5 -292q0 -206 101 -380t274 -274.5t378 -100.5zM803 991l2 211h739v-743h-211v172q0 17 2.5 34.5t9 41.5t12 41.5t17.5 54t19 59.5l-80 39q-43 -108 -69 -147
q-26 -41 -64 -80l-394 -398l-161 162l393 398q22 22 44.5 40t51 33t42 22t49 21.5t40.5 16.5l-37 80q-102 -34 -149.5 -46t-85.5 -12h-170z" />
    <glyph glyph-name="parenleft_arrowright_parenright.dlig" horiz-adv-x="2172" 
d="M1085 -221q-196 0 -374.5 76.5t-307.5 205.5t-205.5 307t-76.5 373q0 193 76.5 370t205.5 305.5t307.5 205t374.5 76.5t375 -76.5t308.5 -205t206.5 -305.5t77 -370q0 -194 -77 -372t-206.5 -307.5t-308.5 -206t-375 -76.5zM1085 -14q153 0 292.5 59.5t241 160t161 240.5
t59.5 295q0 153 -60 292t-161 240t-240.5 160.5t-292.5 59.5t-292.5 -59.5t-240.5 -160.5t-160.5 -240t-59.5 -292q0 -206 101 -380t274 -274.5t378 -100.5zM1010 1116l147 148l524 -527l-524 -520l-147 148l118 118q14 14 28 25t38 25t36 20.5t51 26.5t54 28l-32 84
q-56 -25 -80 -35t-72 -20.5t-102 -11.5l-557 -4v227l557 4q33 1 62.5 -2.5t59.5 -12.5t45.5 -14.5t47.5 -19.5t39 -17l32 86q-99 46 -139.5 71t-67.5 52z" />
    <glyph glyph-name="uni0028_uni2198_uni0029.dlig" horiz-adv-x="2172" 
d="M1085 -221q-196 0 -374.5 76.5t-307.5 205.5t-205.5 307t-76.5 373q0 193 76.5 370t205.5 305.5t307.5 205t374.5 76.5t375 -76.5t308.5 -205t206.5 -305.5t77 -370q0 -194 -77 -372t-206.5 -307.5t-308.5 -206t-375 -76.5zM1085 -14q153 0 292.5 59.5t241 160t161 240.5
t59.5 295q0 153 -60 292t-161 240t-240.5 160.5t-292.5 59.5t-292.5 -59.5t-240.5 -160.5t-160.5 -240t-59.5 -292q0 -206 101 -380t274 -274.5t378 -100.5zM1335 1061l209 4v-746h-741l2 211h172q15 0 31.5 -3t29.5 -5.5t37 -9t36.5 -10.5t46.5 -15t50 -16l37 82
q-61 24 -83.5 34t-63 36t-78.5 63l-399 389l161 162l398 -389q23 -23 41.5 -46.5t33 -50t22 -42.5t20 -47.5t16.5 -40.5l86 38q-37 95 -50.5 143t-13.5 89v170z" />
    <glyph glyph-name="parenleft_arrowdown_parenright.dlig" horiz-adv-x="2172" 
d="M1085 -221q-196 0 -374.5 76.5t-307.5 205.5t-205.5 307t-76.5 373q0 193 76.5 370t205.5 305.5t307.5 205t374.5 76.5t375 -76.5t308.5 -205t206.5 -305.5t77 -370q0 -194 -77 -372t-206.5 -307.5t-308.5 -206t-375 -76.5zM1085 -14q153 0 292.5 59.5t241 160t161 240.5
t59.5 295q0 153 -60 292t-161 240t-240.5 160.5t-292.5 59.5t-292.5 -59.5t-240.5 -160.5t-160.5 -240t-59.5 -292q0 -206 101 -380t274 -274.5t378 -100.5zM1090 141l-527 527l148 147l120 -123q8 -8 16 -17.5t14 -17t15 -22t13.5 -22t14.5 -27t14.5 -28t17.5 -35t18 -36.5
l86 31q-2 5 -15.5 37.5t-19 48t-14.5 46t-12.5 60t-3.5 62.5v535h231v-535q0 -31 -3.5 -58.5t-12 -56t-14 -44.5t-20 -49.5t-19.5 -45.5l82 -31q11 21 34 65.5t32 60.5t25 39.5t33 39.5l119 123l150 -147z" />
    <glyph glyph-name="uni0028_uni2199_uni0029.dlig" horiz-adv-x="2172" 
d="M1085 -221q-196 0 -374.5 76.5t-307.5 205.5t-205.5 307t-76.5 373q0 193 76.5 370t205.5 305.5t307.5 205t374.5 76.5t375 -76.5t308.5 -205t206.5 -305.5t77 -370q0 -194 -77 -372t-206.5 -307.5t-308.5 -206t-375 -76.5zM1085 -14q153 0 292.5 59.5t241 160t161 240.5
t59.5 295q0 153 -60 292t-161 240t-240.5 160.5t-292.5 59.5t-292.5 -59.5t-240.5 -160.5t-160.5 -240t-59.5 -292q0 -206 101 -380t274 -274.5t378 -100.5zM653 301v741l211 -2v-168q0 -41 -12 -87t-49 -148l84 -37q6 13 20.5 49t25 58.5t34 56.5t53.5 63l397 392l160 -162
l-397 -393q-17 -16 -33 -29t-35.5 -25.5t-29.5 -19t-34 -18t-29.5 -14t-34 -14t-30.5 -12.5l39 -81q14 4 49.5 16t47 15.5t37 11t38 9.5t29.5 4.5t31 2.5l170 2l2 -211h-744z" />
    <glyph glyph-name="parenleft_arrowleft_parenright.dlig" horiz-adv-x="2172" 
d="M1085 -225q-196 0 -374.5 76.5t-307.5 205.5t-205.5 307t-76.5 373q0 193 76.5 370t205.5 305.5t307.5 205t374.5 76.5t375 -76.5t308.5 -205.5t206.5 -306t77 -369q0 -194 -77 -372t-206.5 -307.5t-308.5 -206t-375 -76.5zM1085 -18q153 0 292.5 59.5t241 160t161 240.5
t59.5 295q0 153 -60 292t-161 240t-240.5 160.5t-292.5 59.5t-292.5 -59.5t-240.5 -160.5t-160.5 -240t-59.5 -292q0 -206 101 -380t274 -274.5t378 -100.5zM492 733l524 527l145 -148l-119 -121q-19 -21 -51 -41.5t-57.5 -33.5t-97.5 -48l32 -86q9 4 40.5 17t48 19t46 15
t58.5 12.5t61 2.5l557 -4v-228l-557 5q-52 1 -101.5 12t-73 20t-79.5 33l-32 -82q12 -6 45 -23t43 -22.5t33.5 -18.5t34 -20.5t25 -18.5t25.5 -22l119 -119l-145 -149z" />
    <glyph glyph-name="uni0028_uni2196_uni0029.dlig" horiz-adv-x="2172" 
d="M1085 -225q-196 0 -374.5 76.5t-307.5 205.5t-205.5 307t-76.5 373q0 193 76.5 370t205.5 305.5t307.5 205t374.5 76.5t375 -76.5t308.5 -205.5t206.5 -306t77 -369q0 -194 -77 -372t-206.5 -307.5t-308.5 -206t-375 -76.5zM1085 -18q153 0 292.5 59.5t241 160t161 240.5
t59.5 295q0 153 -60 292t-161 240t-240.5 160.5t-292.5 59.5t-292.5 -59.5t-240.5 -160.5t-160.5 -240t-59.5 -292q0 -206 101 -380t274 -274.5t378 -100.5zM649 1198h742v-211h-170q-29 0 -66 7.5t-67 17t-101 32.5l-39 -79q11 -5 46 -19t49.5 -21t41.5 -21.5t49 -32
t44 -40.5l391 -399l-160 -160l-393 398q-19 19 -36 40.5t-27 35t-23 40t-16.5 34.5t-17 40t-15.5 37l-78 -39q5 -16 14 -45t13 -41t10 -33.5t8.5 -33t6 -27t4.5 -27.5t1 -24v-172h-209z" />
    <glyph glyph-name="registered.calt" horiz-adv-x="1828" 
d="M911 -31q-166 0 -313 57t-255 158.5t-171 249.5t-63 322q0 177 65 325t175.5 245.5t256 151.5t307.5 54q161 0 306 -54t256 -151.5t176 -245.5t65 -325q0 -174 -63 -322t-171 -249.5t-256 -158.5t-315 -57zM911 127q184 0 328 78t224.5 221t80.5 328q0 186 -82.5 327.5
t-225 216t-323.5 74.5q-182 0 -324.5 -74.5t-224 -215t-81.5 -324.5q0 -139 46.5 -257t129 -200t199 -128t253.5 -46zM793 356h-213v791h438q133 0 203.5 -60t70.5 -165q0 -96 -63.5 -156t-171.5 -66v-38q56 -7 88 -34.5t61 -82.5l41 -80q28 -63 66 -80v-29h-219
q-31 28 -62 99l-39 86q-25 54 -51 75t-76 21h-73v-281zM793 989v-209h151q67 0 96 26.5t29 76.5q0 56 -31 81t-94 25h-151z" />
    <glyph glyph-name="at.case" horiz-adv-x="2121" 
d="M1083 -283q-213 0 -396 65.5t-315 183t-207 289.5t-75 376q0 205 75 383t207 305t321.5 199.5t410.5 72.5q268 0 479 -102.5t331 -293t120 -437.5q0 -258 -128 -414t-325 -156q-115 0 -185.5 54.5t-88.5 148.5h-62q-42 -86 -133 -134t-203 -48q-174 0 -277.5 117
t-103.5 311q0 219 127 359.5t318 140.5q112 0 194.5 -50t116.5 -135h66l28 160h226l-88 -541q-29 -186 88 -186q100 0 160.5 105t60.5 264q0 152 -55 275.5t-151.5 203.5t-226 123t-280.5 43q-231 0 -413 -95t-284 -268t-102 -395q0 -216 97 -381t278.5 -256.5t421.5 -91.5
q301 0 528 162l93 -170q-115 -87 -286 -137t-362 -50zM1026 428q68 0 122.5 30t84.5 81l27 219q-15 72 -73 114.5t-138 42.5q-105 0 -170.5 -72.5t-65.5 -185.5q0 -108 57.5 -168.5t155.5 -60.5z" />
    <glyph glyph-name="ampersand.ss02" horiz-adv-x="1320" 
d="M113 340q0 153 99 271.5t263 164.5q-92 64 -145.5 114.5t-84 112t-30.5 134.5q0 141 99 234t264 93q166 0 262.5 -93t93.5 -228q-1 -63 -25.5 -119t-61 -95t-82.5 -70t-88 -48.5t-79 -24.5l-4 -30q120 -81 280 -226l130 -116q89 115 141 325l88 -39q-57 -214 -197 -317
v-37q86 -65 156.5 -162t97.5 -184h-116q-50 144 -146 274h-39q-49 -135 -180.5 -217t-296.5 -82q-184 0 -291.5 102.5t-107.5 262.5zM307 1143q0 -96 57.5 -163.5t200.5 -164.5q114 69 154 102q125 102 125 232q0 105 -73.5 169t-195.5 64q-124 0 -196 -65t-72 -174z
M207 348q0 -133 85.5 -209t231.5 -76q148 0 261.5 78.5t170.5 204.5l-419 373q-162 -44 -246 -143t-84 -228z" />
    <glyph glyph-name="bar_bar.dlig" horiz-adv-x="1210" 
d="M1063 1434v-562h-918v562h918zM145 0v561h918v-561h-918z" />
    <glyph glyph-name="less_hyphen_hyphen.dlig" horiz-adv-x="1728" 
d="M1583 803v-230l-813 7q-55 0 -108.5 10.5t-78.5 19.5t-83 31l-29 -80q15 -8 45.5 -24.5t43.5 -23.5t35 -19.5t34.5 -21.5t27.5 -20.5t27 -23.5l207 -207l-150 -149l-620 618l620 621l150 -150l-205 -203q-9 -9 -19.5 -18.5t-19 -16t-24 -16.5t-23.5 -15t-29 -16
t-29.5 -15.5t-35.5 -18.5t-37 -19l31 -84q109 46 169 58q49 10 99 10z" />
    <glyph glyph-name="uni0308.ss01" 
d="M-901 1239v256h274v-256h-274zM-412 1239v256h275v-256h-275z" />
    <glyph glyph-name="uni0307.ss01" 
d="M-399 1239v256h272v-256h-272z" />
    <glyph glyph-name="dotaccent.ss01" horiz-adv-x="526" 
d="M127 1239v256h272v-256h-272z" />
    <glyph glyph-name="dieresis.ss01" horiz-adv-x="1038" 
d="M137 1239v256h275v-256h-275zM627 1239v256h274v-256h-274z" />
    </font>
</defs>
</svg>
