<?xml version="1.0" standalone="no"?>
<!DOCTYPE svg PUBLIC "-//W3C//DTD SVG 1.1//EN" "http://www.w3.org/Graphics/SVG/1.1/DTD/svg11.dtd" >
<svg xmlns="http://www.w3.org/2000/svg" xmlns:xlink="http://www.w3.org/1999/xlink" version="1.1">
<metadata>
Created by FontForge 20170731 at Wed Dec 14 08:56:26 2022
 By Aleksey,,,
Copyright (c) 2020 by Doni Sukma. All rights reserved.
</metadata>
<defs>
<font id="Bauziet-Norm-Regular" horiz-adv-x="1443" >
  <font-face 
    font-family="Regular"
    font-weight="400"
    font-stretch="normal"
    units-per-em="2048"
    panose-1="0 0 5 0 0 0 0 0 0 0"
    ascent="1495"
    descent="-553"
    x-height="1085"
    cap-height="1434"
    bbox="-903 -528 3185 2042"
    underline-thickness="102"
    underline-position="-307"
    unicode-range="U+0020-1F642"
  />
<missing-glyph horiz-adv-x="2220" 
d="M1933 0h-1720l31 172q75 0 121 27t65 106l156 897q5 40 -3.5 65.5t-31.5 36.5t-47 14.5t-60 2.5l33 172l531 2l-29 -172h-9.5h-14t-16.5 -1t-19.5 -3t-20.5 -6t-20.5 -10t-19 -15.5t-17.5 -21t-13.5 -28t-9.5 -36.5l-149 -811q-17 -95 -37 -148t-62 -89l29 -37
q40 33 96.5 49t94.5 18t112 2h674q32 0 47.5 0.5t40.5 3.5t38.5 10.5t29 20.5t24.5 34t15 50l32 201h201zM1712 1278q0 59 35.5 94t93.5 35q57 0 91 -34.5t34 -94.5q0 -55 -34.5 -90t-90.5 -35q-57 0 -93 35.5t-36 89.5zM1743 1282q0 -49 26 -77.5t72 -28.5q43 0 68.5 29
t25.5 73q0 47 -25 74.5t-69 27.5q-48 0 -73 -26t-25 -72zM1823 1217h-27v124h55q18 0 32.5 -10t14.5 -31q0 -13 -7.5 -23.5t-18.5 -12.5l26 -47h-30l-21 43h-24v-43zM1823 1319v-41h24q9 0 17 5.5t8 12.5q0 23 -21 23h-28zM1184 336h-393l30 168h228l6 37q-91 46 -138 128
t-47 183q0 183 132 303.5t344 120.5q192 0 310 -100.5t118 -264.5q0 -132 -77.5 -233.5t-203.5 -136.5l-8 -37h209l-23 -168h-397l41 246q120 19 195 99.5t75 190.5q0 106 -67 169t-179 63q-126 0 -205 -78t-79 -199q0 -91 47 -157t123 -88z" />
    <glyph glyph-name="fi" unicode="fi" horiz-adv-x="1290" 
d="M899 1409q0 60 38 96.5t101 36.5t102.5 -36.5t39.5 -96.5t-39.5 -96.5t-102.5 -36.5t-101 36.5t-38 96.5zM268 918h-221v167h221v121q0 310 338 310q75 0 119 -13l29 -172q-54 15 -105 15q-97 0 -139.5 -36.5t-42.5 -133.5v-91h672v-1085h-199v918h-473v-918h-199v918z
" />
    <glyph glyph-name="f_f.liga" unicode="ff" horiz-adv-x="1478" 
d="M268 918h-221v167h221v121q0 310 338 310q75 0 119 -13l29 -172q-54 15 -105 15q-97 0 -139.5 -36.5t-42.5 -133.5v-91h467v121q0 310 338 310q75 0 119 -13l28 -172q-54 15 -104 15q-97 0 -139.5 -36.5t-42.5 -133.5v-91h309v-167h-309v-918h-199v918h-467v-918h-199
v918z" />
    <glyph glyph-name="f_f_i.liga" unicode="ffi" horiz-adv-x="1955" 
d="M1565 1409q0 60 38 96.5t101 36.5t102 -36.5t39 -96.5t-39 -96.5t-102 -36.5t-101 36.5t-38 96.5zM268 918h-221v167h221v121q0 310 338 310q75 0 119 -13l29 -172q-54 15 -105 15q-97 0 -139.5 -36.5t-42.5 -133.5v-91h467v121q0 310 338 310q75 0 119 -13l28 -172
q-54 15 -104 15q-97 0 -139.5 -36.5t-42.5 -133.5v-91h671v-1085h-198v918h-473v-918h-199v918h-467v-918h-199v918z" />
    <glyph glyph-name="f_t.liga" unicode="ft" horiz-adv-x="1509" 
d="M268 918h-221v167h221v121q0 310 338 310q75 0 119 -13l29 -172q-54 15 -105 15q-97 0 -139.5 -36.5t-42.5 -133.5v-91h459v279l200 37v-316h310v-167h-310v-607q0 -84 29.5 -116.5t106.5 -32.5q76 0 133 31l-27 -193q-66 -27 -156 -27q-81 0 -138 21.5t-89 62.5
t-45.5 93.5t-13.5 121.5v646h-459v-918h-199v918z" />
    <glyph glyph-name="t_f.liga" unicode="tf" horiz-adv-x="1482" 
d="M244 918h-209v167h209v279l198 37v-316h496v121q0 310 338 310q75 0 119 -13l28 -172q-54 15 -104 15q-97 0 -139.5 -36.5t-42.5 -133.5v-91h309v-167h-309v-918h-199v918h-496v-607q0 -84 29.5 -116.5t106.5 -32.5q76 0 133 31l-25 -193q-66 -27 -156 -27
q-159 0 -222.5 77.5t-63.5 221.5v646z" />
    <glyph glyph-name="t_i.liga" unicode="ti" horiz-adv-x="1277" 
d="M887 1409q0 60 37.5 96.5t99.5 36.5q63 0 102 -36.5t39 -96.5t-39 -96.5t-102 -36.5q-62 0 -99.5 36.5t-37.5 96.5zM244 918h-209v167h209v279l196 37v-316h686v-1085h-200v918h-486v-607q0 -84 29.5 -116.5t105.5 -32.5q81 0 134 31l-25 -193q-66 -27 -156 -27
q-157 0 -220.5 77.5t-63.5 221.5v646z" />
    <glyph glyph-name="t_t.liga" unicode="tt" horiz-adv-x="1495" 
d="M244 918h-209v167h209v279l198 37v-316h471v279l199 37v-316h309v-167h-309v-607q0 -84 29 -116.5t106 -32.5q76 0 133 31l-24 -193q-66 -27 -156 -27q-159 0 -223 77.5t-64 221.5v646h-471v-607q0 -84 29.5 -116.5t106.5 -32.5q76 0 133 31l-25 -193q-66 -27 -156 -27
q-159 0 -222.5 77.5t-63.5 221.5v646z" />
    <glyph glyph-name="t_t_i.liga" unicode="tti" horiz-adv-x="1939" 
d="M1548 1409q0 60 38.5 96.5t101.5 36.5t101 -36.5t38 -96.5t-38 -96.5t-101 -36.5t-101.5 36.5t-38.5 96.5zM244 918h-209v167h209v279l198 37v-316h471v279l199 37v-316h676v-1085h-199v918h-477v-607q0 -84 29 -116.5t106 -32.5q76 0 133 31l-24 -193q-66 -27 -156 -27
q-159 0 -223 77.5t-64 221.5v646h-471v-607q0 -84 29.5 -116.5t106.5 -32.5q76 0 133 31l-25 -193q-66 -27 -156 -27q-159 0 -222.5 77.5t-63.5 221.5v646z" />
    <glyph glyph-name=".notdef" horiz-adv-x="2220" 
d="M1933 0h-1720l31 172q75 0 121 27t65 106l156 897q5 40 -3.5 65.5t-31.5 36.5t-47 14.5t-60 2.5l33 172l531 2l-29 -172h-9.5h-14t-16.5 -1t-19.5 -3t-20.5 -6t-20.5 -10t-19 -15.5t-17.5 -21t-13.5 -28t-9.5 -36.5l-149 -811q-17 -95 -37 -148t-62 -89l29 -37
q40 33 96.5 49t94.5 18t112 2h674q32 0 47.5 0.5t40.5 3.5t38.5 10.5t29 20.5t24.5 34t15 50l32 201h201zM1712 1278q0 59 35.5 94t93.5 35q57 0 91 -34.5t34 -94.5q0 -55 -34.5 -90t-90.5 -35q-57 0 -93 35.5t-36 89.5zM1743 1282q0 -49 26 -77.5t72 -28.5q43 0 68.5 29
t25.5 73q0 47 -25 74.5t-69 27.5q-48 0 -73 -26t-25 -72zM1823 1217h-27v124h55q18 0 32.5 -10t14.5 -31q0 -13 -7.5 -23.5t-18.5 -12.5l26 -47h-30l-21 43h-24v-43zM1823 1319v-41h24q9 0 17 5.5t8 12.5q0 23 -21 23h-28zM1184 336h-393l30 168h228l6 37q-91 46 -138 128
t-47 183q0 183 132 303.5t344 120.5q192 0 310 -100.5t118 -264.5q0 -132 -77.5 -233.5t-203.5 -136.5l-8 -37h209l-23 -168h-397l41 246q120 19 195 99.5t75 190.5q0 106 -67 169t-179 63q-126 0 -205 -78t-79 -199q0 -91 47 -157t123 -88z" />
    <glyph glyph-name=".null" horiz-adv-x="0" 
 />
    <glyph glyph-name="nonmarkingreturn" horiz-adv-x="682" 
 />
    <glyph glyph-name="space" unicode=" " horiz-adv-x="546" 
 />
    <glyph glyph-name="exclam" unicode="!" horiz-adv-x="624" 
d="M358 473h-92l-59 602v359h209v-359zM311 -18q-66 0 -105.5 36.5t-39.5 102.5t39.5 101.5t105.5 35.5q69 0 108.5 -35.5t39.5 -101.5q0 -67 -39.5 -103t-108.5 -36z" />
    <glyph glyph-name="quotedbl" unicode="&#x22;" horiz-adv-x="794" 
d="M102 887v547h179v-547h-179zM514 887v547h178v-547h-178z" />
    <glyph glyph-name="numbersign" unicode="#" horiz-adv-x="1505" 
d="M377 0h-172l63 213q35 121 113 195l-35 43q-70 -70 -217 -70h-63v156h294l111 383h-256v155h299l104 359h175l-60 -191q-35 -120 -112 -194l34 -43q69 69 226 69h137l102 359h176l-55 -185q-22 -76 -47 -117.5t-68 -82.5l33 -43q73 69 217 69h64v-155h-293l-113 -383h254
v-156h-297l-110 -381h-172l61 207q34 123 115 201l-35 43q-70 -70 -217 -70h-146zM645 920l-115 -383h332l113 383h-330z" />
    <glyph glyph-name="dollar" unicode="$" horiz-adv-x="1445" 
d="M100 469l203 33q5 -158 97 -249t268 -108v500q-65 13 -113 24.5t-104 30.5t-96 40t-79.5 52t-63.5 68t-39 87t-15 110q0 183 140 288.5t372 116.5q-16 90 -13 213h164q0 -134 -14 -217q230 -22 373.5 -140t160.5 -298l-202 -41q-13 130 -99 206t-231 95v-463l37 -8
q179 -39 252 -67q196 -77 239 -237q13 -49 13 -106q0 -198 -145.5 -311t-397.5 -125q14 -100 14 -213h-164q-2 105 13 215q-267 19 -415.5 153t-154.5 351zM369 1094q0 -102 68.5 -157t230.5 -89v244q0 162 67 213l-28 59q-40 -5 -80.5 -15t-88.5 -31.5t-84 -50t-60.5 -74
t-24.5 -99.5zM731 123l21 -57q100 3 187.5 38.5t143.5 102.5t56 151q0 62 -24 107.5t-72.5 74t-102.5 45.5t-131 31v-270q0 -92 -17.5 -143t-60.5 -80z" />
    <glyph glyph-name="percent" unicode="%" horiz-adv-x="1619" 
d="M1079 -20q-175 0 -278 107t-103 278q0 80 33 172l-53 10q-65 -207 -176 -348l-154 -199h-180v18l313 408q111 141 275 254l-37 49q-35 -33 -87 -52.5t-102 -19.5q-177 0 -275.5 110t-98.5 296q0 192 104 298.5t279 106.5q176 0 279.5 -106t103.5 -277q0 -81 -35 -172
l55 -12q67 212 174 350l156 199h180v-18l-313 -408q-106 -135 -277 -256l37 -47q36 33 87.5 51.5t100.5 18.5q179 0 277 -109t98 -295q0 -192 -104 -299.5t-279 -107.5zM539 797q105 0 159 67t54 199q0 130 -55 199t-158 69q-108 0 -159.5 -71t-51.5 -197q0 -266 211 -266z
M1079 119q109 0 161 70.5t52 197.5q0 136 -56 201t-157 65q-104 0 -157.5 -67.5t-53.5 -198.5t54 -199.5t157 -68.5z" />
    <glyph glyph-name="ampersand" unicode="&#x26;" horiz-adv-x="1415" 
d="M109 346q0 153 92 266.5t243 173.5q-110 87 -161.5 164.5t-51.5 175.5q0 149 111.5 244.5t294.5 95.5q182 0 288.5 -94t104.5 -237q-1 -74 -33.5 -138t-84 -106t-111 -68.5t-119.5 -34.5l-6 -51q118 -58 260 -178l96 -82q84 115 133 295l187 -67q-28 -96 -87 -170
t-137 -111l-8 -45q92 -82 155.5 -183.5t84.5 -195.5h-223q-33 121 -109 236h-47q-47 -123 -172 -195t-283 -72q-190 0 -303.5 104.5t-113.5 272.5zM426 1128q0 -72 46 -132t153 -132q34 21 50.5 31.5t47 32.5t47 40.5t35 43.5t27 53.5t8.5 60.5q0 85 -57 135t-152 50
q-92 0 -148.5 -50t-56.5 -133zM317 375q0 -103 67 -165.5t185 -62.5q111 0 198.5 57t139.5 152l-344 314q-246 -93 -246 -295z" />
    <glyph glyph-name="quotesingle" unicode="'" horiz-adv-x="380" 
d="M102 887v547h179v-547h-179z" />
    <glyph glyph-name="parenleft" unicode="(" horiz-adv-x="786" 
d="M172 602q0 550 410 1004l120 -93q-178 -212 -262 -432.5t-84 -478.5q0 -256 85 -477.5t261 -429.5l-120 -94q-410 454 -410 1001z" />
    <glyph glyph-name="parenright" unicode=")" horiz-adv-x="786" 
d="M614 602q0 -548 -409 -1001l-121 94q176 208 261 429.5t85 477.5q0 258 -84 478.5t-262 432.5l121 93q409 -453 409 -1004z" />
    <glyph glyph-name="asterisk" unicode="*" horiz-adv-x="1028" 
d="M436 1071l-6 12q-33 5 -66 11.5t-54 11.5t-53 15t-43 13.5t-45.5 16t-39.5 14.5l49 133q4 -1 25.5 -8t27.5 -9t26 -8.5t29.5 -11t28 -12t32 -14.5t32 -16.5t37 -20.5t37.5 -24l12 10q-33 147 -25 301h148q8 -152 -23 -299l10 -10q56 35 109.5 60.5t83.5 36t82 25.5
l49 -133q-6 -2 -39.5 -14t-45 -16t-43 -14t-52.5 -15t-53.5 -11.5t-65.5 -11.5l-4 -14q75 -61 122 -113t97 -120l-117 -88q-38 44 -59 70.5t-55 78t-62 109.5h-16q-28 -58 -62 -110.5t-54 -78t-60 -72.5l-117 91q37 48 60 76t67 72.5t96 86.5z" />
    <glyph glyph-name="plus" unicode="+" horiz-adv-x="1318" 
d="M741 768h463v-158h-463v-467h-163v467h-465v158h465v467h163v-467z" />
    <glyph glyph-name="comma" unicode="," horiz-adv-x="548" 
d="M371 8l-174 -270l-107 57l125 195q-46 11 -72 45.5t-26 87.5q0 63 40.5 99t106.5 36t105 -35.5t39 -99.5q0 -56 -37 -115z" />
    <glyph glyph-name="hyphen" unicode="-" horiz-adv-x="759" 
d="M117 578v176h524v-176h-524z" />
    <glyph glyph-name="period" unicode="." horiz-adv-x="614" 
d="M307 -18q-67 0 -107 36.5t-40 102.5t39.5 101.5t107.5 35.5q67 0 106.5 -35.5t39.5 -101.5t-39.5 -102.5t-106.5 -36.5z" />
    <glyph glyph-name="slash" unicode="/" horiz-adv-x="921" 
d="M35 0l667 1434h205l-667 -1434h-205z" />
    <glyph glyph-name="zero" unicode="0" horiz-adv-x="1411" 
d="M705 -29q-189 0 -326 93.5t-207 261.5t-70 393q0 353 164 550t439 197q190 0 327 -93.5t206 -261t69 -392.5q0 -354 -163.5 -551t-438.5 -197zM705 156q194 0 295.5 144t101.5 419q0 272 -101 417.5t-296 145.5q-193 0 -295.5 -144.5t-102.5 -418.5q0 -271 102 -417
t296 -146z" />
    <glyph glyph-name="one" unicode="1" horiz-adv-x="985" 
d="M692 0h-207v885q0 103 20 172t64 131l-51 47q-161 -183 -395 -211v180q122 20 236.5 83.5t189.5 146.5h143v-1434z" />
    <glyph glyph-name="two" unicode="2" horiz-adv-x="1265" 
d="M1161 0h-1046v168l561 428q153 121 207.5 210t54.5 189q0 140 -82.5 218.5t-220.5 78.5q-158 0 -247 -94t-89 -254l-199 19q3 234 147 368.5t390 134.5q228 0 367 -125t139 -331q0 -157 -77.5 -277.5t-279.5 -271.5q-232 -182 -419 -297l30 -70q185 80 381 80h383v-174z
" />
    <glyph glyph-name="three" unicode="3" horiz-adv-x="1339" 
d="M676 -35q-273 0 -419.5 124.5t-158.5 348.5l187 39q28 -336 395 -336q166 0 260 70.5t94 204.5q0 116 -75.5 177.5t-215.5 61.5h-204v158h176q148 0 219.5 62.5t71.5 166.5q0 123 -85 187.5t-235 64.5q-163 0 -257 -80.5t-105 -216.5l-191 39q15 197 169.5 313.5
t387.5 116.5q248 0 384 -105.5t136 -281.5q0 -115 -65 -194.5t-178 -110.5v-67q126 -17 200 -103t74 -215q0 -192 -150 -308t-415 -116z" />
    <glyph glyph-name="four" unicode="4" horiz-adv-x="1460" 
d="M1133 0h-205v324h-854v161l827 949h232v-936h235v-174h-235v-324zM942 1253l-655 -759l45 -52q75 56 258 56h338v403q0 203 78 293z" />
    <glyph glyph-name="five" unicode="5" horiz-adv-x="1359" 
d="M94 403l189 41q17 -147 123.5 -225t275.5 -78q180 0 276.5 88.5t96.5 245.5q0 160 -97.5 241t-259.5 81q-123 0 -224 -45t-167 -129l-166 53l105 758h905v-179h-733l-29 -192q-18 -132 -102 -256l63 -45q55 89 165 141.5t239 52.5q235 0 371.5 -132.5t136.5 -350.5
q0 -239 -159.5 -372.5t-420.5 -133.5q-248 0 -408.5 119.5t-179.5 316.5z" />
    <glyph glyph-name="six" unicode="6" horiz-adv-x="1427" 
d="M735 -33q-301 0 -463.5 195t-162.5 534q0 366 178 568t491 202q202 0 349.5 -97.5t185.5 -256.5l-205 -51q-28 104 -120.5 166.5t-217.5 62.5q-229 0 -347 -161t-112 -457l54 -6q56 125 179 198.5t277 73.5q225 0 360.5 -126.5t135.5 -342.5q0 -227 -158 -364.5
t-424 -137.5zM743 143q166 0 267.5 91t101.5 243q0 141 -96 225t-258 84q-139 0 -252 -71t-174 -193q23 -185 131.5 -282t279.5 -97z" />
    <glyph glyph-name="seven" unicode="7" horiz-adv-x="1251" 
d="M496 1255h-416v179h1104v-160l-668 -1274h-233v16l548 1018q71 142 181 252l-49 68q-64 -52 -174.5 -75.5t-292.5 -23.5z" />
    <glyph glyph-name="eight" unicode="8" horiz-adv-x="1437" 
d="M102 385q0 136 91 227.5t241 116.5v59q-128 23 -204 99t-76 198q0 171 152.5 276t414.5 105q261 0 413 -105t152 -276q0 -122 -76 -198t-204 -99v-59q150 -25 240.5 -116.5t90.5 -227.5q0 -196 -163.5 -307t-452.5 -111q-290 0 -454.5 111t-164.5 307zM358 1061
q0 -109 94.5 -173.5t268.5 -64.5q173 0 266.5 64.5t93.5 173.5q0 110 -91.5 172.5t-268.5 62.5q-179 0 -271 -62.5t-92 -172.5zM309 414q0 -133 108 -204t304 -71q195 0 302 71t107 204q0 128 -105.5 200t-303.5 72q-200 0 -306 -72t-106 -200z" />
    <glyph glyph-name="nine" unicode="9" horiz-adv-x="1429" 
d="M692 1466q301 0 464 -195t163 -534q0 -366 -178.5 -568t-491.5 -202q-202 0 -349 98t-185 257l204 53q28 -105 120.5 -168.5t217.5 -63.5q230 0 347.5 161t111.5 458l-53 6q-54 -124 -178 -198t-279 -74q-225 0 -360 126t-135 343q0 227 158 364t423 137zM686 1290
q-167 0 -268 -91t-101 -243q0 -141 95.5 -225t257.5 -84q140 0 252.5 71t173.5 193q-23 185 -131.5 282t-278.5 97z" />
    <glyph glyph-name="colon" unicode=":" horiz-adv-x="638" 
d="M319 754q-67 0 -107 36t-40 101q0 67 39.5 103t107.5 36t107 -35.5t39 -103.5q0 -65 -39.5 -101t-106.5 -36zM319 -18q-67 0 -107 36.5t-40 102.5t39.5 101.5t107.5 35.5q67 0 106.5 -35.5t39.5 -101.5t-39.5 -102.5t-106.5 -36.5z" />
    <glyph glyph-name="semicolon" unicode=";" horiz-adv-x="645" 
d="M324 754q-66 0 -106 36t-40 101q0 67 40 103t106 36q68 0 107.5 -36t39.5 -103q0 -65 -40 -101t-107 -36zM434 8l-172 -270l-106 57l123 195q-45 11 -72 45.5t-27 87.5q0 63 41 99t107 36t105.5 -36t39.5 -99q0 -53 -39 -115z" />
    <glyph glyph-name="less" unicode="&#x3c;" horiz-adv-x="1241" 
d="M1055 422v-191l-871 328v246l871 330v-191l-381 -137q-191 -67 -312 -90v-68q129 -24 314 -92z" />
    <glyph glyph-name="equal" unicode="=" horiz-adv-x="1167" 
d="M131 1001h899v-155h-899v155zM131 535h899v-158h-899v158z" />
    <glyph glyph-name="greater" unicode="&#x3e;" horiz-adv-x="1241" 
d="M1057 559l-871 -328v191l381 135q179 67 312 92v68q-112 21 -312 90l-381 137v191l871 -330v-246z" />
    <glyph glyph-name="question" unicode="?" horiz-adv-x="1245" 
d="M721 432h-178v258q186 12 286.5 96.5t100.5 229.5q0 127 -78.5 201.5t-212.5 74.5q-128 0 -220 -69.5t-118 -192.5l-186 43q34 179 178 286t350 107q219 0 355.5 -118t136.5 -316q0 -174 -110.5 -295t-303.5 -155v-150zM627 -18q-65 0 -104.5 36.5t-39.5 102.5
t39.5 101.5t104.5 35.5q66 0 104.5 -35.5t38.5 -101.5t-38.5 -102.5t-104.5 -36.5z" />
    <glyph glyph-name="at" unicode="@" horiz-adv-x="2099" 
d="M1053 -324q-210 0 -388 64t-304.5 179.5t-197.5 283t-71 366.5q0 272 126 490.5t354.5 343.5t517.5 125q196 0 365 -60t291 -167t191.5 -263t69.5 -340q0 -248 -123 -402.5t-311 -154.5q-99 0 -162.5 49t-81.5 134h-53q-45 -85 -142 -135t-214 -50q-183 0 -294.5 124
t-111.5 319q0 219 135 363.5t334 144.5q119 0 209 -54.5t127 -144.5h53l31 170h174l-88 -555q-37 -215 98 -215q117 0 189.5 116t72.5 289q0 156 -57.5 285.5t-158 216t-238 133.5t-297.5 47q-178 0 -332.5 -57.5t-266 -160.5t-175.5 -253t-64 -327q0 -168 58 -309
t162.5 -239.5t256.5 -153t334 -54.5q323 0 557 172l72 -127q-110 -89 -282 -141t-365 -52zM1004 307q88 0 159.5 40.5t108.5 107.5l35 254q-22 96 -96 153.5t-179 57.5q-134 0 -218.5 -92t-84.5 -234q0 -132 75 -209.5t200 -77.5z" />
    <glyph glyph-name="A" unicode="A" 
d="M1401 0h-213l-105 272h-721l-104 -272h-217l559 1434h246zM580 846l-150 -393h586l-152 395q-81 209 -102 379h-80q-24 -172 -102 -381z" />
    <glyph glyph-name="B" unicode="B" horiz-adv-x="1398" 
d="M985 793v-62q136 -17 211.5 -106t75.5 -230q0 -192 -121 -293.5t-344 -101.5h-635v1434h668q183 0 285 -91.5t102 -252.5q0 -119 -62.5 -197.5t-179.5 -99.5zM782 1253h-407v-419h399q246 0 246 213q0 206 -238 206zM375 180h418q141 0 207.5 61t66.5 187
q0 121 -65.5 179.5t-202.5 58.5h-424v-486z" />
    <glyph glyph-name="C" unicode="C" horiz-adv-x="1605" 
d="M113 717q-3 208 89.5 380.5t261 272.5t378.5 98q242 -2 424.5 -134t234.5 -357l-196 -55q-45 171 -168 264.5t-295 93.5q-231 1 -375.5 -159.5t-144.5 -403.5q0 -241 144 -402.5t376 -160.5q178 0 301.5 99.5t165.5 285.5l198 -50q-49 -244 -230.5 -383t-434.5 -141
q-157 -1 -294.5 57.5t-233 159.5t-149.5 240t-52 295z" />
    <glyph glyph-name="D" unicode="D" horiz-adv-x="1490" 
d="M172 1434h571q297 0 467 -188.5t170 -528.5q0 -345 -168.5 -531t-472.5 -186h-567v1434zM377 186h352q213 0 329 130.5t116 400.5q0 259 -115 394.5t-330 135.5h-352v-1061z" />
    <glyph glyph-name="E" unicode="E" horiz-adv-x="1232" 
d="M1157 1434v-187h-780v-426h721v-172h-721v-463h780v-186h-985v1434h985z" />
    <glyph glyph-name="F" unicode="F" horiz-adv-x="1163" 
d="M172 0v1434h950v-187h-745v-489h704v-178h-704v-580h-205z" />
    <glyph glyph-name="G" unicode="G" horiz-adv-x="1642" 
d="M113 709q0 169 57.5 313.5t156.5 242t232.5 151.5t282.5 52q242 -3 423.5 -133.5t233.5 -349.5l-199 -55q-46 167 -167 258.5t-293 91.5q-155 1 -273.5 -74.5t-180.5 -203.5t-62 -287q0 -247 144 -408t382 -160q178 0 300.5 91.5t162.5 253.5v59h-467v160h645v-711h-178
v25q1 19 6.5 47.5t11 51.5t15 63t14.5 63l-68 29q-66 -149 -193.5 -229.5t-297.5 -82.5q-159 -1 -291.5 59t-218 163t-132 237t-46.5 283z" />
    <glyph glyph-name="H" unicode="H" horiz-adv-x="1456" 
d="M172 0v1434h205v-603h700v603h207v-1434h-207v641h-700v-641h-205z" />
    <glyph glyph-name="I" unicode="I" horiz-adv-x="591" 
d="M193 0v1434h206v-1434h-206z" />
    <glyph glyph-name="J" unicode="J" horiz-adv-x="1187" 
d="M78 444v88l201 31v-100q0 -156 72 -232.5t200 -76.5q272 0 272 325v955h207v-973q0 -229 -125.5 -362.5t-351.5 -133.5q-216 0 -345.5 126.5t-129.5 352.5z" />
    <glyph glyph-name="K" unicode="K" horiz-adv-x="1366" 
d="M172 0v1434h205v-392q0 -103 -13.5 -176t-58.5 -149l53 -45l707 762h252l-569 -615l577 -819h-250l-471 672h-4l-223 -246v-426h-205z" />
    <glyph glyph-name="L" unicode="L" horiz-adv-x="1120" 
d="M172 0v1434h205v-1248h700v-186h-905z" />
    <glyph glyph-name="M" unicode="M" horiz-adv-x="1843" 
d="M371 0h-199v1434h340l330 -897q37 -128 47 -263h63q14 147 49 263l328 897h342v-1434h-201v756q0 109 14.5 205t55.5 258l-90 26l-444 -1245h-168l-447 1245l-88 -26q40 -163 54 -258.5t14 -204.5v-756z" />
    <glyph glyph-name="N" unicode="N" horiz-adv-x="1540" 
d="M172 0v1434h238l749 -1127h4v1127h207v-1434h-237l-752 1118h-4v-1118h-205z" />
    <glyph glyph-name="O" unicode="O" horiz-adv-x="1681" 
d="M113 717q0 161 55.5 301t152.5 238.5t232 155t289 56.5q153 0 288 -56.5t231.5 -155t152 -238.5t55.5 -301q0 -215 -95 -387t-261 -268.5t-371 -96.5q-206 0 -372.5 96.5t-261.5 268.5t-95 387zM322 717q0 -251 146 -407t374 -156q230 0 374 157t144 406
q0 250 -144.5 406.5t-373.5 156.5q-231 0 -375.5 -155t-144.5 -408z" />
    <glyph glyph-name="P" unicode="P" horiz-adv-x="1376" 
d="M172 1434h653q208 0 333.5 -122t125.5 -335q0 -214 -124.5 -334.5t-334.5 -120.5h-448v-522h-205v1434zM377 707h430q127 0 197.5 70t70.5 202q0 134 -68 202t-198 68h-432v-542z" />
    <glyph glyph-name="Q" unicode="Q" horiz-adv-x="1683" 
d="M113 715q0 216 93 388t259 268t375 97q156 1 291.5 -53.5t231.5 -151t151 -234.5t55 -298q0 -254 -131 -432.5t-344 -228.5v-62q133 -28 267.5 -75.5t205.5 -100.5l-172 -133q-97 43 -215.5 127.5t-190.5 157.5q-53 -19 -133 -19q-166 -1 -306 56t-235.5 157.5
t-148.5 238.5t-53 298zM322 717q0 -251 146 -407t374 -156q227 0 371.5 155.5t144.5 407.5q0 250 -144.5 406.5t-373.5 156.5q-230 0 -374 -156.5t-144 -406.5z" />
    <glyph glyph-name="R" unicode="R" horiz-adv-x="1353" 
d="M1133 332l73 -172q26 -59 45 -89t45 -46v-25h-239q-29 37 -58 104l-92 226q-54 131 -119 178t-192 47h-219v-555h-205v1434h672q201 0 313.5 -105.5t112.5 -294.5q0 -184 -106 -283.5t-290 -105.5v-70q98 -21 152 -70.5t107 -172.5zM377 739h424q125 0 192.5 65.5
t67.5 188.5q0 256 -264 256h-420v-510z" />
    <glyph glyph-name="S" unicode="S" horiz-adv-x="1325" 
d="M100 440l189 33q6 -163 109.5 -247.5t281.5 -84.5q162 0 250 63.5t88 170.5q0 54 -17.5 94t-45.5 66.5t-78.5 47t-101 32.5t-128.5 26q-89 15 -157.5 34.5t-135 52t-109.5 76t-69 108t-26 145.5q0 194 142.5 301.5t379.5 107.5q158 0 282 -53t196 -149.5t79 -223.5
l-195 -41q-13 143 -109.5 219t-254.5 76q-151 0 -232.5 -59.5t-81.5 -161.5q0 -42 11 -74.5t38 -57.5t58 -42.5t85 -33.5t104 -27t130 -25q100 -18 174 -45t138.5 -74.5t98.5 -123.5t34 -179q0 -201 -152 -313.5t-405 -112.5q-264 0 -414 128.5t-156 346.5z" />
    <glyph glyph-name="T" unicode="T" horiz-adv-x="1255" 
d="M49 1434h1157v-187h-475v-1247h-207v1247h-475v187z" />
    <glyph glyph-name="U" unicode="U" 
d="M160 547v887h207v-875q0 -203 83 -304t273 -101q188 0 271 101.5t83 303.5v875h207v-887q0 -287 -144 -434.5t-417 -147.5q-275 0 -419 148t-144 434z" />
    <glyph glyph-name="V" unicode="V" horiz-adv-x="1452" 
d="M39 1434h221l320 -848q86 -231 108 -377h76q26 156 108 379l316 846h223l-557 -1434h-256z" />
    <glyph glyph-name="W" unicode="W" horiz-adv-x="1949" 
d="M367 0l-318 1434h213l152 -727q34 -169 43 -465h78q30 214 104 446l244 746h184l248 -756q67 -210 100 -436h80q10 309 41 458l152 734h213l-316 -1434h-239l-261 805q-72 221 -79 405h-62q-9 -170 -82 -407l-260 -803h-235z" />
    <glyph glyph-name="X" unicode="X" horiz-adv-x="1415" 
d="M309 0h-254l504 727l-489 707h256l235 -359q92 -157 107 -248h77q17 101 107 248l235 359h256l-485 -707l502 -727h-256l-256 387q-86 138 -103 240h-77q-18 -104 -103 -240z" />
    <glyph glyph-name="Y" unicode="Y" horiz-adv-x="1378" 
d="M588 561l-553 873h237l203 -332q48 -84 71.5 -126.5t60 -123t42.5 -125.5h82q14 95 174 375l201 332h237l-548 -873v-561h-207v561z" />
    <glyph glyph-name="Z" unicode="Z" horiz-adv-x="1290" 
d="M1200 0h-1110v178l860 1106l-51 57q-91 -94 -301 -94h-489v187h1075v-179l-860 -1105l49 -58q94 94 309 94h518v-186z" />
    <glyph glyph-name="bracketleft" unicode="[" horiz-adv-x="716" 
d="M621 -311h-465v1865h465v-165h-297v-1534h297v-166z" />
    <glyph glyph-name="backslash" unicode="\" horiz-adv-x="989" 
d="M57 1434h205l668 -1434h-205z" />
    <glyph glyph-name="bracketright" unicode="]" horiz-adv-x="716" 
d="M563 1554v-1865h-467v166h297v1534h-297v165h467z" />
    <glyph glyph-name="asciicircum" unicode="^" horiz-adv-x="915" 
d="M293 946h-184l219 549h260l219 -549h-184l-70 187q-49 130 -72 204h-47q-23 -74 -72 -204z" />
    <glyph glyph-name="underscore" unicode="_" horiz-adv-x="1019" 
d="M106 -178v178h807v-178h-807z" />
    <glyph glyph-name="grave" unicode="`" horiz-adv-x="520" 
d="M270 1274l-174 282h234l92 -282h-152z" />
    <glyph glyph-name="a" unicode="a" horiz-adv-x="1191" 
d="M1075 131q35 0 62 19v-146q-49 -27 -123 -27q-90 0 -139 52t-46 155l9 9h-66q-32 -104 -130 -166t-224 -62q-147 0 -237.5 83.5t-90.5 219.5q0 277 363 348l358 70v21q-3 254 -258 254q-126 0 -201.5 -63.5t-79.5 -176.5l-186 35q17 168 146.5 266t330.5 98
q216 0 332.5 -106.5t116.5 -300.5v-434q0 -28 0.5 -41.5t2 -34.5t5.5 -31t10.5 -21t18 -15.5t26.5 -4.5zM485 123q110 0 204 63t124 160l-2 209l-291 -53q-125 -23 -178 -75.5t-53 -129.5q0 -83 51 -128.5t145 -45.5z" />
    <glyph glyph-name="b" unicode="b" horiz-adv-x="1302" 
d="M711 -33q-135 0 -237 64t-146 180l-64 -31q35 -127 41 -166v-14h-172v1495h199v-254q0 -92 -13 -165.5t-49 -153.5l64 -39q50 110 153 172.5t238 62.5q215 0 353.5 -155.5t138.5 -419.5q0 -265 -140.5 -420.5t-365.5 -155.5zM666 137q159 0 253.5 107t94.5 299
q0 194 -96.5 299.5t-255.5 105.5q-123 0 -210 -63t-120 -170v-344q34 -113 124.5 -173.5t209.5 -60.5z" />
    <glyph glyph-name="c" unicode="c" horiz-adv-x="1243" 
d="M84 539q0 263 155.5 422t409.5 159q203 0 338 -102.5t176 -276.5l-190 -55q-27 130 -115 196t-217 66q-168 0 -261 -110t-93 -297q0 -190 96.5 -297t257.5 -107q137 0 225.5 70.5t112.5 191.5l190 -55q-37 -171 -183 -275t-349 -104q-248 0 -400.5 157t-152.5 417z" />
    <glyph glyph-name="d" unicode="d" horiz-adv-x="1302" 
d="M578 -33q-219 0 -356.5 158t-137.5 418q0 264 140.5 419.5t357.5 155.5q135 0 235 -62.5t150 -172.5l63 39q-61 141 -61 319v254h200v-1495h-174v14q8 58 43 166l-63 31q-45 -115 -152.5 -179.5t-244.5 -64.5zM635 137q119 0 210 61t124 173v344q-31 106 -117.5 169.5
t-210.5 63.5q-159 0 -255.5 -105.5t-96.5 -299.5q0 -192 94 -299t252 -107z" />
    <glyph glyph-name="e" unicode="e" horiz-adv-x="1253" 
d="M84 543q0 257 149 417t402 160q249 0 396 -156.5t147 -416.5v-74h-895q5 -154 103 -248t261 -94q128 0 224.5 57.5t144.5 159.5l125 -117q-63 -125 -198 -195.5t-298 -70.5q-251 0 -406 156.5t-155 421.5zM285 614h696q-8 158 -99.5 251t-248.5 93q-150 0 -244.5 -90.5
t-103.5 -253.5z" />
    <glyph glyph-name="f" unicode="f" horiz-adv-x="813" 
d="M268 918h-221v167h221v121q0 310 338 310q75 0 119 -13l29 -172q-54 15 -105 15q-97 0 -139.5 -36.5t-42.5 -133.5v-91h309v-167h-309v-918h-199v918z" />
    <glyph glyph-name="g" unicode="g" horiz-adv-x="1095" 
d="M512 -528q-236 0 -348.5 68t-112.5 192q0 85 57 142t152 71v41q-42 20 -65 55.5t-23 77.5q0 65 41 110t115 60v43q-120 38 -186 129.5t-66 216.5q0 187 121 297t321 110h512l33 -151h-72q-96 0 -178 39l-33 -55q178 -87 178 -289q0 -166 -117.5 -265.5t-316.5 -99.5h-55
q-127 -6 -127 -86q0 -24 10.5 -41t31.5 -25.5t42.5 -12t52.5 -5.5l256 -16q155 -9 230 -80t75 -195q0 -164 -136.5 -247.5t-391.5 -83.5zM516 412q121 0 190.5 71.5t69.5 190.5q0 122 -71 192t-189 70q-119 0 -188.5 -71.5t-69.5 -190.5q0 -120 71 -191t187 -71zM516 -391
q326 0 326 168q0 67 -42 94.5t-118 32.5l-315 18q-71 -9 -109.5 -51.5t-38.5 -101.5q0 -160 297 -160z" />
    <glyph glyph-name="h" unicode="h" horiz-adv-x="1275" 
d="M332 0h-199v1495h199v-340q0 -66 -9.5 -125t-17.5 -84t-26 -76l63 -24q63 135 166.5 204.5t239.5 69.5q192 0 298.5 -128t106.5 -371v-621h-201v584q0 356 -270 356q-121 0 -213.5 -68t-136.5 -190v-682z" />
    <glyph glyph-name="i" unicode="i" horiz-adv-x="507" 
d="M252 1272q-63 0 -102 38t-39 99q0 63 39 101t102 38q65 0 104 -38t39 -101q0 -62 -39.5 -99.5t-103.5 -37.5zM154 0v1085h200v-1085h-200z" />
    <glyph glyph-name="j" unicode="j" horiz-adv-x="514" 
d="M260 1272q-64 0 -102.5 37.5t-38.5 99.5q0 63 38.5 101t102.5 38t102.5 -38t38.5 -101q0 -62 -38.5 -99.5t-102.5 -37.5zM360 1085v-1198q0 -190 -89.5 -285.5t-260.5 -95.5q-62 0 -94 13l-31 170q33 -8 82 -8q110 0 152.5 56.5t42.5 166.5v1181h198z" />
    <glyph glyph-name="k" unicode="k" horiz-adv-x="1185" 
d="M133 0v1495h199v-596q0 -109 -12.5 -185t-51.5 -145l56 -37q71 100 194 218l340 335h270l-464 -438l485 -647h-246l-381 524h-4l-186 -174v-350h-199z" />
    <glyph glyph-name="l" unicode="l" horiz-adv-x="483" 
d="M143 0v1495h199v-1495h-199z" />
    <glyph glyph-name="m" unicode="m" horiz-adv-x="1882" 
d="M332 0h-199v1085h182v-22q-8 -90 -39 -178l64 -25q52 132 141.5 196t202.5 64q127 0 209.5 -64t112.5 -179h51q43 116 132 179.5t210 63.5q170 0 265 -115t95 -325v-680h-200v647q0 142 -57.5 218.5t-168.5 76.5q-107 0 -183.5 -64t-102.5 -173v-705h-201v647
q0 142 -56.5 218.5t-168.5 76.5q-105 0 -183 -65t-106 -172v-705z" />
    <glyph glyph-name="n" unicode="n" horiz-adv-x="1275" 
d="M133 0v1085h182v-14q-7 -119 -36 -201l63 -24q63 135 166.5 204.5t239.5 69.5q192 0 298.5 -128t106.5 -371v-621h-201v584q0 356 -270 356q-121 0 -213.5 -68t-136.5 -190v-682h-199z" />
    <glyph glyph-name="o" unicode="o" horiz-adv-x="1296" 
d="M84 545q0 258 157 416.5t406 158.5q250 0 406.5 -158.5t156.5 -416.5t-156.5 -416t-406.5 -158q-249 0 -406 158t-157 416zM1010 545q0 187 -98.5 295t-264.5 108q-164 0 -262 -108t-98 -295t98 -295.5t262 -108.5q166 0 264.5 108t98.5 296z" />
    <glyph glyph-name="p" unicode="p" horiz-adv-x="1302" 
d="M332 -461h-199v1546h172v-14q-6 -39 -41 -166l64 -31q43 115 151 179.5t246 64.5q219 0 355.5 -157.5t136.5 -417.5q0 -265 -139.5 -420.5t-356.5 -155.5q-134 0 -234.5 62.5t-152.5 173.5l-64 -39q62 -137 62 -320v-305zM662 137q159 0 255.5 106t96.5 300
q0 192 -94.5 298.5t-253.5 106.5q-119 0 -209.5 -60.5t-124.5 -172.5v-344q33 -107 120 -170.5t210 -63.5z" />
    <glyph glyph-name="q" unicode="q" horiz-adv-x="1302" 
d="M1169 -461h-200v305q0 179 61 320l-63 39q-50 -110 -151 -173t-230 -63q-221 0 -361.5 155.5t-140.5 420.5q0 264 141.5 419.5t366.5 155.5q135 0 236.5 -64t146.5 -180l63 31q-35 108 -43 166v14h174v-1546zM641 137q123 0 210 63.5t118 170.5v344q-33 112 -123.5 172.5
t-210.5 60.5q-158 0 -252 -106.5t-94 -298.5q0 -194 96.5 -300t255.5 -106z" />
    <glyph glyph-name="r" unicode="r" horiz-adv-x="768" 
d="M332 0h-199v1085h178v-14q-4 -75 -41 -180l68 -23q90 234 287 234q56 0 90 -15l14 -184q-62 19 -129 19q-94 0 -167.5 -61t-100.5 -165v-696z" />
    <glyph glyph-name="s" unicode="s" horiz-adv-x="1112" 
d="M72 340l172 53q13 -133 96 -201.5t231 -68.5q122 0 189 45t67 129q0 37 -15.5 64.5t-36 44t-62 30t-72 20t-88.5 17.5q-7 1 -11 2t-10.5 2t-11.5 2q-47 9 -81 16.5t-79 21.5t-76.5 29.5t-65 40t-54 53.5t-34 69t-13.5 88q0 148 120 235.5t314 87.5q199 0 327 -90.5
t148 -243.5l-166 -47q-20 110 -104 167t-213 57q-108 0 -168 -40.5t-60 -113.5q0 -28 9 -50.5t30.5 -38.5t42.5 -27.5t58.5 -21.5t65 -16t75.5 -15q24 -5 37 -7q51 -9 85.5 -17t79.5 -21.5t75.5 -29t62.5 -39.5t51 -53t31 -69t12 -89q0 -167 -124 -258.5t-343 -91.5
q-222 0 -349.5 98t-141.5 277z" />
    <glyph glyph-name="t" unicode="t" horiz-adv-x="825" 
d="M530 -23q-159 0 -222.5 77.5t-63.5 221.5v642h-209v167h209v279l198 37v-316h310v-167h-310v-605q0 -83 29.5 -116t106.5 -33q69 0 133 31l-25 -193q-70 -25 -156 -25z" />
    <glyph glyph-name="u" unicode="u" horiz-adv-x="1277" 
d="M1143 1085v-1085h-189v14q7 108 37 201l-65 21q-48 -126 -154 -198.5t-250 -72.5q-188 0 -293.5 119t-105.5 336v665h201v-626q0 -155 71.5 -234.5t204.5 -79.5q122 0 210.5 63.5t133.5 190.5v686h199z" />
    <glyph glyph-name="v" unicode="v" horiz-adv-x="1204" 
d="M502 0l-475 1085h219l223 -538q81 -209 94 -350h80q18 176 92 350l223 538h220l-476 -1085h-200z" />
    <glyph glyph-name="w" unicode="w" horiz-adv-x="1642" 
d="M303 0l-274 1085h202l103 -428q53 -217 59 -444h72q23 163 110 428l152 444h188l152 -444q94 -278 111 -428h71q6 211 62 444l102 428h201l-273 -1085h-231l-160 465q-80 248 -92 438h-74q-11 -181 -90 -438l-159 -465h-232z" />
    <glyph glyph-name="x" unicode="x" horiz-adv-x="1179" 
d="M45 0l404 553l-392 532h242l117 -165q50 -71 82.5 -132t56.5 -143h72q39 131 137 277l117 163h243l-393 -532l404 -553h-242l-109 156q-111 162 -157 311h-72q-50 -154 -156 -311l-110 -156h-244z" />
    <glyph glyph-name="y" unicode="y" horiz-adv-x="1200" 
d="M250 -496q-84 0 -141 31v182q47 -24 122 -24q148 0 218 172l51 125l-473 1095h221l219 -544q45 -118 66.5 -189t35.5 -155h72q31 166 102 344l209 544h219l-530 -1269q-20 -49 -40 -87.5t-54 -82.5t-73 -73.5t-97 -49t-127 -19.5z" />
    <glyph glyph-name="z" unicode="z" horiz-adv-x="1064" 
d="M997 0h-919v174l692 764l-47 53q-53 -40 -110 -56.5t-142 -16.5h-379v167h891v-174l-690 -764l45 -53q47 41 105 57.5t149 16.5h405v-168z" />
    <glyph glyph-name="braceleft" unicode="{" horiz-adv-x="866" 
d="M279 -31v428q0 72 -23.5 98.5t-87.5 26.5h-45v238h45q64 0 87.5 27.5t23.5 99.5v385q0 151 63.5 216.5t210.5 65.5h190v-170h-170q-67 0 -95.5 -36t-28.5 -121v-373q0 -79 -42.5 -128t-113.5 -52v-66q71 -3 113.5 -51.5t42.5 -126.5v-416q0 -84 28.5 -119.5t95.5 -35.5
h170v-170h-190q-148 0 -211 64.5t-63 215.5z" />
    <glyph glyph-name="bar" unicode="|" horiz-adv-x="684" 
d="M250 -205v1639h184v-1639h-184z" />
    <glyph glyph-name="braceright" unicode="}" horiz-adv-x="866" 
d="M588 397v-428q0 -151 -63.5 -215.5t-211.5 -64.5h-190v170h170q69 0 97 35.5t28 119.5v416q0 78 42.5 126.5t114.5 51.5v66q-72 3 -114.5 51.5t-42.5 128.5v373q0 85 -28 121t-97 36h-170v170h190q148 0 211.5 -65.5t63.5 -216.5v-385q0 -72 23.5 -99.5t86.5 -27.5h45
v-238h-45q-63 0 -86.5 -26.5t-23.5 -98.5z" />
    <glyph glyph-name="asciitilde" unicode="~" horiz-adv-x="1165" 
d="M272 500h-133q-20 207 38.5 308t178.5 101q41 0 79 -12.5t74.5 -39.5t59 -47t58.5 -56q37 -36 56 -52.5t48.5 -33.5t54.5 -17q110 0 91 252h135q21 -211 -38 -310t-179 -99q-41 0 -79 12.5t-75.5 39.5t-60 46.5t-58.5 54.5q-37 37 -55.5 54t-47.5 34t-54 17
q-113 0 -93 -252z" />
    <glyph glyph-name="exclamdown" unicode="&#xa1;" horiz-adv-x="624" 
d="M311 1120q68 0 108 -36t40 -101q0 -67 -39.5 -103t-108.5 -36q-66 0 -105.5 36.5t-39.5 102.5t39.5 101.5t105.5 35.5zM207 29l59 600h92l58 -600v-359h-209v359z" />
    <glyph glyph-name="cent" unicode="&#xa2;" horiz-adv-x="1310" 
d="M84 713q-1 226 145 386.5t367 184.5v240h139v-238q180 -15 314.5 -118t175.5 -265l-191 -55q-30 111 -108.5 176.5t-190.5 79.5v-576q0 -86 -15.5 -133t-49.5 -78l41 -55q280 80 333 318l193 -58q-42 -164 -178 -266t-324 -117v-245h-139v247q-108 12 -203 60t-163 123
t-107.5 176t-38.5 213zM289 723q0 -162 87 -271t220 -133v588q0 147 68 205l-46 53q-151 -48 -240 -165.5t-89 -276.5z" />
    <glyph glyph-name="sterling" unicode="&#xa3;" horiz-adv-x="1398" 
d="M770 186h522v-186h-1202v168h135q181 121 181 287q0 69 -41 153h-275v168h57q97 0 172 -63l39 43q-127 130 -127 301q0 184 143.5 296.5t381.5 112.5q219 0 362 -105.5t160 -279.5l-193 -55q-12 124 -99 189t-226 65q-156 0 -243 -72.5t-87 -195.5q0 -130 88 -236h569
v-168h-520q29 -74 29 -139q0 -91 -56 -164t-163 -117l26 -61q153 59 367 59z" />
    <glyph glyph-name="currency" unicode="&#xa4;" horiz-adv-x="1349" 
d="M1042 473l121 -94l92 -92l-120 -119l-91 90l-100 129q-117 -74 -268 -74q-155 0 -268 72l-101 -127l-92 -90l-119 119l90 92l121 94q-92 115 -92 275q0 159 92 274l-121 94l-90 92l119 119l92 -90l101 -127q118 72 268 72q151 0 268 -74l100 129l91 90l120 -119l-92 -92
l-121 -94q93 -117 93 -274q0 -158 -93 -275zM391 748q0 -123 80 -201t205 -78t205 78t80 201t-80 200.5t-205 77.5t-205 -77.5t-80 -200.5z" />
    <glyph glyph-name="yen" unicode="&#xa5;" horiz-adv-x="1509" 
d="M545 719l-510 715h244l237 -334q69 -99 123 -212t74 -200h86q23 91 76.5 205t121.5 211l234 330h244l-508 -715h262v-146h-369v-157h369v-146h-369v-270h-209v270h-383v146h383v157h-383v146h277z" />
    <glyph glyph-name="brokenbar" unicode="&#xa6;" horiz-adv-x="684" 
d="M250 793v641h184v-641h-184zM250 -205v641h184v-641h-184z" />
    <glyph glyph-name="section" unicode="&#xa7;" horiz-adv-x="1269" 
d="M100 174l183 49q29 -270 393 -270q295 0 295 172q0 32 -11.5 57.5t-29 41t-45 27.5t-51.5 18t-56 12l-301 61q-57 11 -100.5 24.5t-86.5 35t-70.5 49t-44.5 68t-17 91.5q0 88 52 148.5t144 87.5v49q-92 31 -144 91.5t-52 150.5q0 147 130 230t343 83q234 0 379 -97.5
t159 -242.5l-168 -47q-20 112 -117.5 171.5t-254.5 59.5q-129 0 -201 -41t-72 -114q0 -32 15 -56.5t36.5 -40t64 -29t79.5 -21.5t100 -19l213 -39q172 -29 241 -94t69 -168q0 -173 -201 -238v-51q94 -26 147.5 -90t53.5 -162q0 -158 -135 -247t-365 -89q-255 0 -407 100.5
t-167 278.5zM356 655q0 -66 45 -102.5t134 -52.5l268 -49q70 5 119 49.5t49 113.5q0 34 -12.5 60.5t-30.5 42.5t-49.5 29t-57 19t-65.5 13l-219 39q-78 -5 -129.5 -47.5t-51.5 -114.5z" />
    <glyph glyph-name="dieresis" unicode="&#xa8;" horiz-adv-x="1015" 
d="M256 1272q-66 0 -104.5 35.5t-38.5 101.5t38.5 102.5t104.5 36.5q67 0 107 -36.5t40 -102.5q0 -65 -40 -101t-107 -36zM758 1272q-66 0 -106 35.5t-40 101.5t40 102.5t106 36.5q67 0 106 -36.5t39 -102.5q0 -65 -39 -101t-106 -36z" />
    <glyph glyph-name="copyright" unicode="&#xa9;" horiz-adv-x="1765" 
d="M84 756q0 141 42 264.5t116.5 216t174.5 159t219 100.5t247 34t246.5 -33.5t218.5 -100t174.5 -159t116.5 -216t42 -265.5q0 -174 -62.5 -322t-170 -249.5t-254.5 -158.5t-313 -57q-165 0 -311 57t-253.5 158.5t-170 249.5t-62.5 322zM223 756q0 -145 50.5 -268.5
t138 -208.5t209.5 -133t262 -48q187 0 336.5 81.5t235 231.5t85.5 343q0 194 -88.5 343t-237 226.5t-331.5 77.5q-184 0 -333.5 -77t-238 -225.5t-88.5 -342.5zM463 748q0 190 119.5 305.5t300.5 115.5q150 0 258.5 -77t138.5 -199l-166 -53q-22 81 -81 126.5t-146 45.5
q-111 0 -179.5 -72t-68.5 -190q0 -119 67 -191t179 -72q91 0 152 48t83 131l166 -52q-30 -126 -139.5 -204t-263.5 -78q-181 0 -300.5 114t-119.5 302z" />
    <glyph glyph-name="ordfeminine" unicode="&#xaa;" horiz-adv-x="841" 
d="M762 784q28 0 41 13v-115q-39 -23 -92 -23q-66 0 -102 40t-34 112h-47q-20 -72 -86.5 -115t-154.5 -43q-102 0 -166 58t-64 153q0 192 256 244l244 49v14q0 166 -168 166q-82 0 -131.5 -42.5t-52.5 -118.5l-150 28q12 119 106 188.5t238 69.5q153 0 236.5 -74t83.5 -212
v-295q0 -27 1 -39.5t4.5 -28.5t12.5 -22.5t25 -6.5zM344 778q71 0 132.5 42t80.5 104v133l-190 -35q-152 -27 -152 -133q0 -53 34 -82t95 -29z" />
    <glyph glyph-name="guillemotleft" unicode="&#xab;" horiz-adv-x="1095" 
d="M299 580l266 -482h-198l-269 482l269 481h198zM715 580l272 -482h-196l-275 482l275 481h196z" />
    <glyph glyph-name="logicalnot" unicode="&#xac;" horiz-adv-x="1171" 
d="M903 610h-805v158h969v-623h-164v465z" />
    <glyph glyph-name="registered" unicode="&#xae;" horiz-adv-x="1179" 
d="M590 494q-147 0 -269 65t-194 186t-72 275q0 155 74 274t194.5 180.5t266.5 61.5q144 0 264.5 -61.5t195 -180.5t74.5 -274q0 -153 -73 -274.5t-194.5 -186.5t-266.5 -65zM590 590q184 0 305 120.5t121 309.5q0 186 -122.5 301t-303.5 115q-119 0 -216 -50.5t-154.5 -146
t-57.5 -219.5q0 -190 121 -310t307 -120zM498 762h-117v514h268q89 0 135.5 -38.5t46.5 -107.5q0 -62 -41 -99.5t-108 -39.5v-39q83 -6 111 -80l18 -45q17 -39 41 -49v-16h-133q-19 16 -35 53l-31 70q-16 38 -34.5 54.5t-53.5 16.5h-67v-194zM498 1182v-146h120q89 0 89 72
q0 74 -93 74h-116z" />
    <glyph glyph-name="macron" unicode="&#xaf;" horiz-adv-x="970" 
d="M147 1317v153h676v-153h-676z" />
    <glyph glyph-name="degree" unicode="&#xb0;" horiz-adv-x="980" 
d="M492 788q-154 0 -254.5 94.5t-100.5 245.5q0 149 100.5 243.5t254.5 94.5q153 0 252.5 -94t99.5 -244q0 -151 -99 -245.5t-253 -94.5zM492 932q87 0 143.5 55.5t56.5 140.5q0 87 -56 142t-144 55q-90 0 -146.5 -55t-56.5 -142q0 -85 57 -140.5t146 -55.5z" />
    <glyph glyph-name="plusminus" unicode="&#xb1;" horiz-adv-x="1214" 
d="M696 1126v-303h412v-157h-412v-304h-164v304h-411v157h411v303h164zM1108 0h-987v152h987v-152z" />
    <glyph glyph-name="uni00B2" unicode="&#xb2;" horiz-adv-x="903" 
d="M801 614h-695v123l369 277q90 69 125 125t35 118q0 85 -49.5 134t-132.5 49q-95 0 -150 -58t-55 -159l-148 14q3 154 97 243t258 89q148 0 239.5 -82.5t91.5 -218.5q0 -104 -50.5 -182.5t-182.5 -174.5q-135 -104 -256 -176l22 -51q139 61 273 61h209v-131z" />
    <glyph glyph-name="uni00B3" unicode="&#xb3;" horiz-adv-x="950" 
d="M477 592q-179 0 -274.5 80t-104.5 227l140 31q16 -207 241 -207q102 0 159.5 42t57.5 124q0 71 -48 108t-134 37h-127v115h109q92 0 136 37.5t44 101.5q0 74 -51 113t-140 39q-101 0 -159 -50t-66 -135l-139 29q9 130 111 207.5t255 77.5q162 0 252 -69.5t90 -182.5
q0 -75 -43.5 -126.5t-117.5 -70.5v-49q83 -9 132.5 -65t49.5 -140q0 -125 -99 -199.5t-274 -74.5z" />
    <glyph glyph-name="acute" unicode="&#xb4;" horiz-adv-x="520" 
d="M190 1556h234l-176 -282h-150z" />
    <glyph glyph-name="paragraph" unicode="&#xb6;" horiz-adv-x="1775" 
d="M203 1155q0 131 83 205t222 74h1096v-179h-226v-1511h-200v1511h-326v-1511h-201v1128h-143q-144 0 -224.5 77.5t-80.5 205.5z" />
    <glyph glyph-name="periodcentered" unicode="&#xb7;" horiz-adv-x="661" 
d="M160 530q0 77 48 123.5t124 46.5t123 -46.5t47 -123.5t-47 -123.5t-123 -46.5q-77 0 -124.5 46.5t-47.5 123.5z" />
    <glyph glyph-name="cedilla" unicode="&#xb8;" horiz-adv-x="735" 
d="M340 -109l16 -20q28 14 78 14q84 0 136.5 -50.5t52.5 -131.5q0 -99 -80.5 -160t-206.5 -61q-65 0 -125.5 18t-97.5 49l39 105q79 -57 182 -57q72 0 112.5 29.5t40.5 82.5q0 43 -28.5 69.5t-75.5 26.5q-44 0 -82 -20l-72 35l60 194l112 4v-18q0 -62 -61 -109z" />
    <glyph glyph-name="uni00B9" unicode="&#xb9;" horiz-adv-x="806" 
d="M512 614h-156v535q0 133 66 213l-39 33q-108 -113 -260 -135v135q84 13 160 55t123 96h106v-932z" />
    <glyph glyph-name="ordmasculine" unicode="&#xba;" horiz-adv-x="905" 
d="M55 1059q0 181 110 292t288 111q176 0 286.5 -111t110.5 -292t-110.5 -292.5t-286.5 -111.5t-287 111.5t-111 292.5zM688 1059q0 124 -63.5 195t-171.5 71t-172 -71t-64 -195q0 -122 64 -194t172 -72t171.5 71.5t63.5 194.5z" />
    <glyph glyph-name="guillemotright" unicode="&#xbb;" horiz-adv-x="1095" 
d="M307 98h-198l272 482l-272 481h198l273 -481zM729 98h-199l267 482l-267 481h199l268 -481z" />
    <glyph glyph-name="onequarter" unicode="&#xbc;" horiz-adv-x="1478" 
d="M362 645h-141v428q0 120 60 191l-35 30q-96 -102 -221 -112v123q71 10 137 46.5t104 82.5h96v-789zM55 0l1078 1434h159l-1077 -1434h-160zM1315 0h-144v168h-450v113l432 507h162v-503h127v-117h-127v-168zM1182 670l-324 -389l29 -31q41 35 147 35h137v176
q0 113 52 168z" />
    <glyph glyph-name="onehalf" unicode="&#xbd;" horiz-adv-x="1523" 
d="M362 645h-141v428q0 120 60 191l-35 30q-96 -102 -221 -112v123q71 10 137 46.5t104 82.5h96v-789zM55 0l1078 1434h159l-1077 -1434h-160zM1470 0h-591v111l311 233q78 60 106.5 105.5t28.5 97.5q0 65 -41 103t-108 38q-78 0 -122 -47t-44 -129l-136 14
q1 128 84.5 204.5t217.5 76.5q129 0 207.5 -69.5t78.5 -186.5q0 -88 -45.5 -155.5t-148.5 -141.5q-134 -97 -213 -143l20 -45q128 53 238 53h157v-119z" />
    <glyph glyph-name="threequarters" unicode="&#xbe;" horiz-adv-x="1689" 
d="M360 625q-152 0 -233 68t-90 192l129 28q17 -168 199 -168q82 0 127 34.5t45 99.5q0 57 -39 86.5t-109 29.5h-106v107h90q147 0 147 112q0 59 -40.5 90t-110.5 31q-83 0 -131 -41t-54 -112l-129 28q9 113 98 177.5t218 64.5q138 0 215.5 -58.5t77.5 -154.5
q0 -63 -39 -106.5t-105 -57.5v-45q74 -7 117 -54.5t43 -117.5q0 -106 -85 -169.5t-235 -63.5zM266 0l1077 1434h160l-1077 -1434h-160zM1526 0h-144v168h-450v113l432 507h162v-503h127v-117h-127v-168zM1393 670l-324 -389l29 -31q41 35 147 35h137v176q0 113 52 168z" />
    <glyph glyph-name="questiondown" unicode="&#xbf;" horiz-adv-x="1261" 
d="M659 1122q63 0 101.5 -36t38.5 -101q0 -67 -38.5 -103t-101.5 -36t-100 36t-37 103q0 65 37 101t100 36zM565 672h178v-258q-186 -12 -286.5 -96.5t-100.5 -229.5q0 -127 78.5 -201.5t212.5 -74.5q127 0 219.5 70t118.5 192l186 -43q-34 -179 -179 -286t-351 -107
q-219 0 -354 118.5t-135 317.5q0 172 110 294t303 154v150z" />
    <glyph glyph-name="Agrave" unicode="&#xc0;" 
d="M702 1864l93 -283h-152l-174 283h233zM1401 0h-213l-105 272h-721l-104 -272h-217l559 1434h246zM580 846l-150 -393h586l-152 395q-81 209 -102 379h-80q-24 -172 -102 -381z" />
    <glyph glyph-name="Aacute" unicode="&#xc1;" 
d="M737 1864h234l-176 -283h-150zM1401 0h-213l-105 272h-721l-104 -272h-217l559 1434h246zM580 846l-150 -393h586l-152 395q-81 209 -102 379h-80q-24 -172 -102 -381z" />
    <glyph glyph-name="Acircumflex" unicode="&#xc2;" 
d="M633 1651l-43 -70h-193l205 283h236l204 -283h-192l-43 70q-44 76 -55 108h-64q-11 -32 -55 -108zM1401 0h-213l-105 272h-721l-104 -272h-217l559 1434h246zM580 846l-150 -393h586l-152 395q-81 209 -102 379h-80q-24 -172 -102 -381z" />
    <glyph glyph-name="Atilde" unicode="&#xc3;" 
d="M528 1577h-118q-15 146 27.5 223.5t129.5 77.5q39 0 78.5 -18.5t59.5 -34.5t55 -49q23 -21 34.5 -30t30 -18.5t33.5 -9.5q60 0 51 158h121q15 -147 -28 -225t-130 -78q-40 0 -81 19t-63 37t-52 46q-1 1 -8.5 8t-9 8t-8.5 7.5t-9 8t-9 6.5t-10 6.5l-9 4.5t-11 4t-10.5 2
t-11.5 1q-61 0 -52 -154zM1401 0h-213l-105 272h-721l-104 -272h-217l559 1434h246zM580 846l-150 -393h586l-152 395q-81 209 -102 379h-80q-24 -172 -102 -381z" />
    <glyph glyph-name="Adieresis" unicode="&#xc4;" 
d="M469 1579q-66 0 -104.5 35.5t-38.5 101.5t38.5 102.5t104.5 36.5q67 0 107 -36.5t40 -102.5q0 -65 -40 -101t-107 -36zM971 1579q-66 0 -106 35.5t-40 101.5t40 102.5t106 36.5q67 0 106 -36.5t39 -102.5q0 -65 -39 -101t-106 -36zM1401 0h-213l-105 272h-721l-104 -272
h-217l559 1434h246zM580 846l-150 -393h586l-152 395q-81 209 -102 379h-80q-24 -172 -102 -381z" />
    <glyph glyph-name="Aring" unicode="&#xc5;" 
d="M721 1559q-120 0 -196.5 66.5t-75.5 174.5q-1 110 77 176t195 66q119 0 195.5 -67t76.5 -175q0 -110 -77.5 -175.5t-194.5 -65.5zM721 1925q-57 0 -94 -33t-37 -92q0 -60 37.5 -92.5t93.5 -32.5q57 0 93 34t36 91t-36 91t-93 34zM1401 0h-213l-105 272h-721l-104 -272
h-217l559 1434h246zM580 846l-150 -393h586l-152 395q-81 209 -102 379h-80q-24 -172 -102 -381z" />
    <glyph glyph-name="AE" unicode="&#xc6;" horiz-adv-x="2017" 
d="M264 0h-223l643 1434h1258v-187h-793v-426h727v-172h-727v-463h793v-186h-1004v272h-557zM684 969l-227 -516h481v774h-168q-26 -116 -86 -258z" />
    <glyph glyph-name="Ccedilla" unicode="&#xc7;" horiz-adv-x="1605" 
d="M893 -33q-11 -44 -55 -76l16 -20q28 14 78 14q84 0 136 -50.5t52 -131.5q0 -99 -80 -160t-206 -61q-65 0 -126 18t-98 49l39 105q79 -57 182 -57q72 0 113 30t41 82q0 43 -28.5 69.5t-75.5 26.5q-44 0 -82 -20l-72 35l45 147q-192 15 -344.5 118.5t-235 269t-79.5 362.5
q-3 208 89.5 380.5t261 272.5t378.5 98q242 -2 424.5 -134t234.5 -357l-196 -55q-45 171 -168 264.5t-295 93.5q-231 1 -375.5 -159.5t-144.5 -403.5q0 -241 144 -402.5t376 -160.5q178 0 301.5 99.5t165.5 285.5l198 -50q-45 -230 -211.5 -368.5t-402.5 -153.5z" />
    <glyph glyph-name="Egrave" unicode="&#xc8;" horiz-adv-x="1232" 
d="M639 1864l92 -283h-151l-174 283h233zM1157 1434v-187h-780v-426h721v-172h-721v-463h780v-186h-985v1434h985z" />
    <glyph glyph-name="Eacute" unicode="&#xc9;" horiz-adv-x="1232" 
d="M674 1864h233l-176 -283h-149zM1157 1434v-187h-780v-426h721v-172h-721v-463h780v-186h-985v1434h985z" />
    <glyph glyph-name="Ecircumflex" unicode="&#xca;" horiz-adv-x="1232" 
d="M569 1651l-43 -70h-192l205 283h235l205 -283h-193l-43 70q-44 76 -55 108h-63q-6 -16 -13.5 -33t-13 -26.5t-15.5 -26t-14 -22.5zM1157 1434v-187h-780v-426h721v-172h-721v-463h780v-186h-985v1434h985z" />
    <glyph glyph-name="Edieresis" unicode="&#xcb;" horiz-adv-x="1232" 
d="M403 1579q-66 0 -104.5 35.5t-38.5 101.5t38.5 102.5t104.5 36.5q67 0 107.5 -36.5t40.5 -102.5q0 -65 -40.5 -101t-107.5 -36zM905 1579q-66 0 -105.5 35.5t-39.5 101.5t39.5 102.5t105.5 36.5q67 0 106.5 -36.5t39.5 -102.5q0 -65 -39.5 -101t-106.5 -36zM1157 1434
v-187h-780v-426h721v-172h-721v-463h780v-186h-985v1434h985z" />
    <glyph glyph-name="Igrave" unicode="&#xcc;" horiz-adv-x="591" 
d="M219 1581l-174 283h234l92 -283h-152zM193 0v1434h206v-1434h-206z" />
    <glyph glyph-name="Iacute" unicode="&#xcd;" horiz-adv-x="591" 
d="M313 1864h234l-176 -283h-150zM193 0v1434h206v-1434h-206z" />
    <glyph glyph-name="Icircumflex" unicode="&#xce;" horiz-adv-x="591" 
d="M166 1581h-193l205 283h236l204 -283h-192l-43 70q-44 76 -55 108h-64q-11 -32 -55 -108zM193 0v1434h206v-1434h-206z" />
    <glyph glyph-name="Idieresis" unicode="&#xcf;" horiz-adv-x="591" 
d="M43 1579q-66 0 -104.5 35.5t-38.5 101.5t38.5 102.5t104.5 36.5q67 0 107 -36.5t40 -102.5q0 -65 -40 -101t-107 -36zM545 1579q-66 0 -106 35.5t-40 101.5t40 102.5t106 36.5q67 0 106 -36.5t39 -102.5q0 -65 -39 -101t-106 -36zM193 0v1434h206v-1434h-206z" />
    <glyph glyph-name="Eth" unicode="&#xd0;" horiz-adv-x="1562" 
d="M207 641h-139v154h139v639h577q313 0 490.5 -187.5t177.5 -529.5q0 -345 -176.5 -531t-493.5 -186h-575v641zM416 641v-455h356q231 0 350 133.5t119 397.5q0 260 -120.5 395t-348.5 135h-356v-452h256v-154h-256z" />
    <glyph glyph-name="Ntilde" unicode="&#xd1;" horiz-adv-x="1540" 
d="M571 1577h-118q-15 146 27.5 223.5t129.5 77.5q39 0 78.5 -18.5t59.5 -34.5t55 -49q23 -21 34.5 -30t30 -18.5t33.5 -9.5q60 0 51 158h121q15 -147 -28 -225t-130 -78q-40 0 -81 19t-63 37t-52 46q-1 1 -8.5 8t-9 8t-8.5 7.5t-9 8t-9 6.5t-10 6.5l-9 4.5t-11 4t-10.5 2
t-11.5 1q-61 0 -52 -154zM172 0v1434h238l749 -1127h4v1127h207v-1434h-237l-752 1118h-4v-1118h-205z" />
    <glyph glyph-name="Ograve" unicode="&#xd2;" horiz-adv-x="1681" 
d="M764 1589l-174 283h233l92 -283h-151zM113 717q0 161 55.5 301t152.5 238.5t232 155t289 56.5q153 0 288 -56.5t231.5 -155t152 -238.5t55.5 -301q0 -215 -95 -387t-261 -268.5t-371 -96.5q-206 0 -372.5 96.5t-261.5 268.5t-95 387zM322 717q0 -251 146 -407t374 -156
q230 0 374 157t144 406q0 250 -144.5 406.5t-373.5 156.5q-231 0 -375.5 -155t-144.5 -408z" />
    <glyph glyph-name="Oacute" unicode="&#xd3;" horiz-adv-x="1681" 
d="M858 1872h234l-177 -283h-149zM113 717q0 161 55.5 301t152.5 238.5t232 155t289 56.5q153 0 288 -56.5t231.5 -155t152 -238.5t55.5 -301q0 -215 -95 -387t-261 -268.5t-371 -96.5q-206 0 -372.5 96.5t-261.5 268.5t-95 387zM322 717q0 -251 146 -407t374 -156
q230 0 374 157t144 406q0 250 -144.5 406.5t-373.5 156.5q-231 0 -375.5 -155t-144.5 -408z" />
    <glyph glyph-name="Ocircumflex" unicode="&#xd4;" horiz-adv-x="1681" 
d="M711 1589h-193l205 283h235l205 -283h-192l-43 70q-4 6 -14 22.5t-15.5 26t-13 26.5t-13.5 33h-63q-11 -32 -55 -108zM113 717q0 161 55.5 301t152.5 238.5t232 155t289 56.5q153 0 288 -56.5t231.5 -155t152 -238.5t55.5 -301q0 -215 -95 -387t-261 -268.5t-371 -96.5
q-206 0 -372.5 96.5t-261.5 268.5t-95 387zM322 717q0 -251 146 -407t374 -156q230 0 374 157t144 406q0 250 -144.5 406.5t-373.5 156.5q-231 0 -375.5 -155t-144.5 -408z" />
    <glyph glyph-name="Otilde" unicode="&#xd5;" horiz-adv-x="1681" 
d="M649 1585h-119q-15 146 28 223.5t130 77.5q39 0 78.5 -18.5t59.5 -34.5t55 -49q23 -21 34.5 -30t30 -18.5t33.5 -9.5q60 0 51 158h121q15 -147 -28 -225t-130 -78q-40 0 -81 19t-63 37t-52 46q-21 20 -30.5 28t-29 18t-37.5 10q-60 0 -51 -154zM113 717q0 161 55.5 301
t152.5 238.5t232 155t289 56.5q153 0 288 -56.5t231.5 -155t152 -238.5t55.5 -301q0 -215 -95 -387t-261 -268.5t-371 -96.5q-206 0 -372.5 96.5t-261.5 268.5t-95 387zM322 717q0 -251 146 -407t374 -156q230 0 374 157t144 406q0 250 -144.5 406.5t-373.5 156.5
q-231 0 -375.5 -155t-144.5 -408z" />
    <glyph glyph-name="Odieresis" unicode="&#xd6;" horiz-adv-x="1681" 
d="M588 1587q-66 0 -105 35.5t-39 101.5t39 103t105 37q67 0 107 -37t40 -103q0 -65 -40 -101t-107 -36zM1090 1587q-66 0 -106 35.5t-40 101.5t40 103t106 37q67 0 106 -36.5t39 -103.5q0 -65 -39 -101t-106 -36zM113 717q0 161 55.5 301t152.5 238.5t232 155t289 56.5
q153 0 288 -56.5t231.5 -155t152 -238.5t55.5 -301q0 -215 -95 -387t-261 -268.5t-371 -96.5q-206 0 -372.5 96.5t-261.5 268.5t-95 387zM322 717q0 -251 146 -407t374 -156q230 0 374 157t144 406q0 250 -144.5 406.5t-373.5 156.5q-231 0 -375.5 -155t-144.5 -408z" />
    <glyph glyph-name="multiply" unicode="&#xd7;" horiz-adv-x="1286" 
d="M313 246l-116 114l329 330l-329 328l116 115l328 -328l328 328l116 -115l-327 -328l327 -330l-116 -114l-328 327z" />
    <glyph glyph-name="Oslash" unicode="&#xd8;" horiz-adv-x="1656" 
d="M84 717q-2 129 34 245.5t104 208t159.5 159t206.5 103.5t241 35q282 0 480 -163l110 110l109 -106l-113 -113q161 -200 158 -479q3 -214 -94.5 -388t-269 -270.5t-380.5 -93.5q-279 -3 -479 164l-110 -111l-109 109l111 111q-161 204 -158 479zM291 717q0 -190 94 -330
l616 621q114 114 220 114v74q-162 96 -359 96q-255 0 -413 -157.5t-158 -417.5zM438 307v-71q167 -98 357 -95q256 0 413.5 158.5t157.5 417.5q0 194 -94 330l-625 -629q-105 -108 -209 -111z" />
    <glyph glyph-name="Ugrave" unicode="&#xd9;" 
d="M645 1581l-174 283h234l92 -283h-152zM160 547v887h207v-875q0 -203 83 -304t273 -101q188 0 271 101.5t83 303.5v875h207v-887q0 -287 -144 -434.5t-417 -147.5q-275 0 -419 148t-144 434z" />
    <glyph glyph-name="Uacute" unicode="&#xda;" 
d="M739 1864h234l-176 -283h-150zM160 547v887h207v-875q0 -203 83 -304t273 -101q188 0 271 101.5t83 303.5v875h207v-887q0 -287 -144 -434.5t-417 -147.5q-275 0 -419 148t-144 434z" />
    <glyph glyph-name="Ucircumflex" unicode="&#xdb;" 
d="M592 1581h-193l205 283h236l204 -283h-192l-43 70q-44 76 -55 108h-64q-11 -32 -55 -108zM160 547v887h207v-875q0 -203 83 -304t273 -101q188 0 271 101.5t83 303.5v875h207v-887q0 -287 -144 -434.5t-417 -147.5q-275 0 -419 148t-144 434z" />
    <glyph glyph-name="Udieresis" unicode="&#xdc;" 
d="M471 1579q-66 0 -104.5 35.5t-38.5 101.5t38.5 102.5t104.5 36.5q67 0 107 -36.5t40 -102.5q0 -65 -40 -101t-107 -36zM973 1579q-66 0 -106 35.5t-40 101.5t40 102.5t106 36.5q67 0 106 -36.5t39 -102.5q0 -65 -39 -101t-106 -36zM160 547v887h207v-875q0 -203 83 -304
t273 -101q188 0 271 101.5t83 303.5v875h207v-887q0 -287 -144 -434.5t-417 -147.5q-275 0 -419 148t-144 434z" />
    <glyph glyph-name="Yacute" unicode="&#xdd;" horiz-adv-x="1378" 
d="M707 1864h233l-176 -283h-150zM588 561l-553 873h237l203 -332q48 -84 71.5 -126.5t60 -123t42.5 -125.5h82q14 95 174 375l201 332h237l-548 -873v-561h-207v561z" />
    <glyph glyph-name="Thorn" unicode="&#xde;" horiz-adv-x="1388" 
d="M381 0h-209v1434h209v-260h438q218 0 347.5 -122t129.5 -335q0 -215 -129 -336t-348 -121h-438v-260zM381 989v-545h422q138 0 210 69t72 204t-72 203.5t-210 68.5h-422z" />
    <glyph glyph-name="germandbls" unicode="&#xdf;" horiz-adv-x="1341" 
d="M336 0h-203v981q0 259 146 404t389 145q218 0 351.5 -113t133.5 -293q0 -110 -55.5 -195t-153.5 -126v-49q138 -26 220.5 -126.5t82.5 -240.5q0 -191 -138 -305.5t-368 -114.5q-147 0 -215 41v170q70 -39 189 -39q155 0 241 75.5t86 201.5q0 123 -85 193.5t-234 70.5
q-67 0 -115 -8v164q23 -2 29 -2q148 0 232.5 68.5t84.5 189.5q0 118 -78 188t-210 70q-150 0 -240 -94t-90 -267v-989z" />
    <glyph glyph-name="agrave" unicode="&#xe0;" horiz-adv-x="1191" 
d="M551 1556l92 -282h-151l-175 282h234zM1075 131q35 0 62 19v-146q-49 -27 -123 -27q-90 0 -139 52t-46 155l9 9h-66q-32 -104 -130 -166t-224 -62q-147 0 -237.5 83.5t-90.5 219.5q0 277 363 348l358 70v21q-3 254 -258 254q-126 0 -201.5 -63.5t-79.5 -176.5l-186 35
q17 168 146.5 266t330.5 98q216 0 332.5 -106.5t116.5 -300.5v-434q0 -28 0.5 -41.5t2 -34.5t5.5 -31t10.5 -21t18 -15.5t26.5 -4.5zM485 123q110 0 204 63t124 160l-2 209l-291 -53q-125 -23 -178 -75.5t-53 -129.5q0 -83 51 -128.5t145 -45.5z" />
    <glyph glyph-name="aacute" unicode="&#xe1;" horiz-adv-x="1191" 
d="M586 1556h233l-176 -282h-149zM1075 131q35 0 62 19v-146q-49 -27 -123 -27q-90 0 -139 52t-46 155l9 9h-66q-32 -104 -130 -166t-224 -62q-147 0 -237.5 83.5t-90.5 219.5q0 277 363 348l358 70v21q-3 254 -258 254q-126 0 -201.5 -63.5t-79.5 -176.5l-186 35
q17 168 146.5 266t330.5 98q216 0 332.5 -106.5t116.5 -300.5v-434q0 -28 0.5 -41.5t2 -34.5t5.5 -31t10.5 -21t18 -15.5t26.5 -4.5zM485 123q110 0 204 63t124 160l-2 209l-291 -53q-125 -23 -178 -75.5t-53 -129.5q0 -83 51 -128.5t145 -45.5z" />
    <glyph glyph-name="acircumflex" unicode="&#xe2;" horiz-adv-x="1191" 
d="M481 1343l-43 -69h-192l205 282h235l205 -282h-193l-43 69q-43 74 -55 109h-63q-10 -30 -56 -109zM1075 131q35 0 62 19v-146q-49 -27 -123 -27q-90 0 -139 52t-46 155l9 9h-66q-32 -104 -130 -166t-224 -62q-147 0 -237.5 83.5t-90.5 219.5q0 277 363 348l358 70v21
q-3 254 -258 254q-126 0 -201.5 -63.5t-79.5 -176.5l-186 35q17 168 146.5 266t330.5 98q216 0 332.5 -106.5t116.5 -300.5v-434q0 -28 0.5 -41.5t2 -34.5t5.5 -31t10.5 -21t18 -15.5t26.5 -4.5zM485 123q110 0 204 63t124 160l-2 209l-291 -53q-125 -23 -178 -75.5
t-53 -129.5q0 -83 51 -128.5t145 -45.5z" />
    <glyph glyph-name="atilde" unicode="&#xe3;" horiz-adv-x="1191" 
d="M377 1270h-119q-15 146 28 223.5t130 77.5q30 0 56.5 -8t54.5 -28t40 -30t41 -37q64 -57 99 -57q60 0 51 158h121q15 -147 -28 -225t-130 -78q-90 0 -197 102q-21 20 -30.5 28t-28.5 17.5t-37 9.5q-33 0 -44.5 -38t-6.5 -115zM1075 131q35 0 62 19v-146q-49 -27 -123 -27
q-90 0 -139 52t-46 155l9 9h-66q-32 -104 -130 -166t-224 -62q-147 0 -237.5 83.5t-90.5 219.5q0 277 363 348l358 70v21q-3 254 -258 254q-126 0 -201.5 -63.5t-79.5 -176.5l-186 35q17 168 146.5 266t330.5 98q216 0 332.5 -106.5t116.5 -300.5v-434q0 -28 0.5 -41.5
t2 -34.5t5.5 -31t10.5 -21t18 -15.5t26.5 -4.5zM485 123q110 0 204 63t124 160l-2 209l-291 -53q-125 -23 -178 -75.5t-53 -129.5q0 -83 51 -128.5t145 -45.5z" />
    <glyph glyph-name="adieresis" unicode="&#xe4;" horiz-adv-x="1191" 
d="M315 1272q-66 0 -104.5 35.5t-38.5 101.5t38.5 102.5t104.5 36.5q67 0 107.5 -36.5t40.5 -102.5q0 -65 -40.5 -101t-107.5 -36zM817 1272q-66 0 -105.5 35.5t-39.5 101.5t39.5 102.5t105.5 36.5q67 0 106.5 -36.5t39.5 -102.5q0 -65 -39.5 -101t-106.5 -36zM1075 131
q35 0 62 19v-146q-49 -27 -123 -27q-90 0 -139 52t-46 155l9 9h-66q-32 -104 -130 -166t-224 -62q-147 0 -237.5 83.5t-90.5 219.5q0 277 363 348l358 70v21q-3 254 -258 254q-126 0 -201.5 -63.5t-79.5 -176.5l-186 35q17 168 146.5 266t330.5 98q216 0 332.5 -106.5
t116.5 -300.5v-434q0 -28 0.5 -41.5t2 -34.5t5.5 -31t10.5 -21t18 -15.5t26.5 -4.5zM485 123q110 0 204 63t124 160l-2 209l-291 -53q-125 -23 -178 -75.5t-53 -129.5q0 -83 51 -128.5t145 -45.5z" />
    <glyph glyph-name="aring" unicode="&#xe5;" horiz-adv-x="1191" 
d="M569 1251q-120 0 -196.5 67t-75.5 175q-1 110 77 176t195 66q119 0 196 -67t77 -175q0 -110 -78 -176t-195 -66zM569 1618q-57 0 -94 -33t-37 -92q0 -60 37.5 -92.5t93.5 -32.5q57 0 93 34t36 91t-36 91t-93 34zM1075 131q35 0 62 19v-146q-49 -27 -123 -27
q-90 0 -139 52t-46 155l9 9h-66q-32 -104 -130 -166t-224 -62q-147 0 -237.5 83.5t-90.5 219.5q0 277 363 348l358 70v21q-3 254 -258 254q-126 0 -201.5 -63.5t-79.5 -176.5l-186 35q17 168 146.5 266t330.5 98q216 0 332.5 -106.5t116.5 -300.5v-434q0 -28 0.5 -41.5
t2 -34.5t5.5 -31t10.5 -21t18 -15.5t26.5 -4.5zM485 123q110 0 204 63t124 160l-2 209l-291 -53q-125 -23 -178 -75.5t-53 -129.5q0 -83 51 -128.5t145 -45.5z" />
    <glyph glyph-name="ae" unicode="&#xe6;" horiz-adv-x="2131" 
d="M92 279q0 147 105 228.5t305 115.5l391 69v29q0 116 -72 178t-219 62q-152 0 -237.5 -67t-88.5 -185l-190 34q18 180 158.5 278.5t363.5 98.5q323 0 426 -211q76 100 192.5 155.5t258.5 55.5q258 0 413.5 -157t155.5 -428v-62h-958q1 -151 111 -246.5t276 -95.5
q262 0 405 223l127 -123q-183 -266 -528 -266q-169 0 -301.5 67t-206.5 187h-64q-55 -121 -177 -187.5t-281 -66.5q-167 0 -266 83.5t-99 230.5zM1098 616h757q-9 155 -112 248.5t-266 93.5q-160 0 -265.5 -97t-113.5 -245zM291 293q0 -82 57 -125t158 -43q131 0 239.5 60.5
t149.5 160.5l-2 207l-346 -61q-144 -23 -200 -73t-56 -126z" />
    <glyph glyph-name="ccedilla" unicode="&#xe7;" horiz-adv-x="1243" 
d="M688 -33q-11 -44 -55 -76l16 -20q28 14 78 14q84 0 136 -50.5t52 -131.5q0 -99 -80 -160t-206 -61q-65 0 -125.5 18t-97.5 49l38 105q79 -57 183 -57q72 0 112.5 29.5t40.5 82.5q0 43 -28.5 69.5t-75.5 26.5q-44 0 -82 -20l-72 35l45 149q-220 22 -351.5 175.5
t-131.5 394.5q0 263 155.5 422t409.5 159q203 0 338 -102.5t176 -276.5l-190 -55q-27 130 -115 196t-217 66q-168 0 -261 -110t-93 -297q0 -190 96.5 -297t257.5 -107q137 0 225.5 70.5t112.5 191.5l190 -55q-34 -160 -164.5 -261.5t-316.5 -115.5z" />
    <glyph glyph-name="egrave" unicode="&#xe8;" horiz-adv-x="1253" 
d="M563 1274l-174 282h234l92 -282h-152zM84 543q0 257 149 417t402 160q249 0 396 -156.5t147 -416.5v-74h-895q5 -154 103 -248t261 -94q128 0 224.5 57.5t144.5 159.5l125 -117q-63 -125 -198 -195.5t-298 -70.5q-251 0 -406 156.5t-155 421.5zM285 614h696
q-8 158 -99.5 251t-248.5 93q-150 0 -244.5 -90.5t-103.5 -253.5z" />
    <glyph glyph-name="eacute" unicode="&#xe9;" horiz-adv-x="1253" 
d="M657 1556h234l-176 -282h-150zM84 543q0 257 149 417t402 160q249 0 396 -156.5t147 -416.5v-74h-895q5 -154 103 -248t261 -94q128 0 224.5 57.5t144.5 159.5l125 -117q-63 -125 -198 -195.5t-298 -70.5q-251 0 -406 156.5t-155 421.5zM285 614h696q-8 158 -99.5 251
t-248.5 93q-150 0 -244.5 -90.5t-103.5 -253.5z" />
    <glyph glyph-name="ecircumflex" unicode="&#xea;" horiz-adv-x="1253" 
d="M510 1274h-193l205 282h236l205 -282h-193l-43 69q-43 74 -55 109h-64q-12 -35 -55 -109zM84 543q0 257 149 417t402 160q249 0 396 -156.5t147 -416.5v-74h-895q5 -154 103 -248t261 -94q128 0 224.5 57.5t144.5 159.5l125 -117q-63 -125 -198 -195.5t-298 -70.5
q-251 0 -406 156.5t-155 421.5zM285 614h696q-8 158 -99.5 251t-248.5 93q-150 0 -244.5 -90.5t-103.5 -253.5z" />
    <glyph glyph-name="edieresis" unicode="&#xeb;" horiz-adv-x="1253" 
d="M387 1272q-66 0 -104.5 35.5t-38.5 101.5t38.5 102.5t104.5 36.5q67 0 107.5 -36.5t40.5 -102.5q0 -65 -40.5 -101t-107.5 -36zM889 1272q-66 0 -106 35.5t-40 101.5t40 102.5t106 36.5q67 0 106 -36.5t39 -102.5q0 -65 -39 -101t-106 -36zM84 543q0 257 149 417t402 160
q249 0 396 -156.5t147 -416.5v-74h-895q5 -154 103 -248t261 -94q128 0 224.5 57.5t144.5 159.5l125 -117q-63 -125 -198 -195.5t-298 -70.5q-251 0 -406 156.5t-155 421.5zM285 614h696q-8 158 -99.5 251t-248.5 93q-150 0 -244.5 -90.5t-103.5 -253.5z" />
    <glyph glyph-name="igrave" unicode="&#xec;" horiz-adv-x="499" 
d="M168 1274l-174 282h233l92 -282h-151zM143 0v1085h203v-1085h-203z" />
    <glyph glyph-name="iacute" unicode="&#xed;" horiz-adv-x="499" 
d="M262 1556h234l-177 -282h-149zM143 0v1085h203v-1085h-203z" />
    <glyph glyph-name="icircumflex" unicode="&#xee;" horiz-adv-x="499" 
d="M115 1274h-193l205 282h235l205 -282h-192l-43 69q-46 79 -56 109h-63q-12 -35 -55 -109zM143 0v1085h203v-1085h-203z" />
    <glyph glyph-name="idieresis" unicode="&#xef;" horiz-adv-x="499" 
d="M-8 1272q-66 0 -105 35.5t-39 101.5t39 102.5t105 36.5q67 0 107 -36.5t40 -102.5q0 -65 -40 -101t-107 -36zM494 1272q-66 0 -106 35.5t-40 101.5t40 102.5t106 36.5q67 0 106 -36.5t39 -102.5q0 -65 -39 -101t-106 -36zM143 0v1085h203v-1085h-203z" />
    <glyph glyph-name="eth" unicode="&#xf0;" horiz-adv-x="1284" 
d="M84 451q0 213 135 349t338 136q133 0 239 -67.5t162 -186.5l62 33q-15 155 -87 280.5t-190 210.5l-157 -174l-105 96l133 148q-72 36 -173 62t-195 32l82 158q112 -9 225.5 -40.5t185.5 -76.5l174 188l103 -98l-152 -166q157 -122 245.5 -300.5t88.5 -395.5
q0 -305 -171 -488.5t-445 -183.5q-219 0 -358.5 133t-139.5 351zM285 461q0 -148 86 -235t221 -87q154 0 266.5 96t142.5 257q-59 139 -161 217.5t-228 78.5q-148 0 -237.5 -89.5t-89.5 -237.5z" />
    <glyph glyph-name="ntilde" unicode="&#xf1;" horiz-adv-x="1275" 
d="M451 1270h-119q-15 146 27.5 223.5t129.5 77.5q39 0 79 -19t59 -35t55 -49q22 -20 34.5 -29.5t30 -18.5t33.5 -9q60 0 51 158h121q15 -148 -27.5 -225.5t-129.5 -77.5q-90 0 -197 102q-21 20 -30.5 28t-28.5 17.5t-37 9.5q-33 0 -44.5 -38t-6.5 -115zM133 0v1085h182v-14
q-7 -119 -36 -201l63 -24q63 135 166.5 204.5t239.5 69.5q192 0 298.5 -128t106.5 -371v-621h-201v584q0 356 -270 356q-121 0 -213.5 -68t-136.5 -190v-682h-199z" />
    <glyph glyph-name="ograve" unicode="&#xf2;" horiz-adv-x="1296" 
d="M567 1274l-174 282h234l92 -282h-152zM84 545q0 258 157 416.5t406 158.5q250 0 406.5 -158.5t156.5 -416.5t-156.5 -416t-406.5 -158q-249 0 -406 158t-157 416zM1010 545q0 187 -98.5 295t-264.5 108q-164 0 -262 -108t-98 -295t98 -295.5t262 -108.5q166 0 264.5 108
t98.5 296z" />
    <glyph glyph-name="oacute" unicode="&#xf3;" horiz-adv-x="1296" 
d="M662 1556h233l-176 -282h-150zM84 545q0 258 157 416.5t406 158.5q250 0 406.5 -158.5t156.5 -416.5t-156.5 -416t-406.5 -158q-249 0 -406 158t-157 416zM1010 545q0 187 -98.5 295t-264.5 108q-164 0 -262 -108t-98 -295t98 -295.5t262 -108.5q166 0 264.5 108
t98.5 296z" />
    <glyph glyph-name="ocircumflex" unicode="&#xf4;" horiz-adv-x="1296" 
d="M514 1274h-192l204 282h236l205 -282h-193l-43 69q-43 74 -55 109h-64q-12 -35 -55 -109zM84 545q0 258 157 416.5t406 158.5q250 0 406.5 -158.5t156.5 -416.5t-156.5 -416t-406.5 -158q-249 0 -406 158t-157 416zM1010 545q0 187 -98.5 295t-264.5 108
q-164 0 -262 -108t-98 -295t98 -295.5t262 -108.5q166 0 264.5 108t98.5 296z" />
    <glyph glyph-name="otilde" unicode="&#xf5;" horiz-adv-x="1296" 
d="M453 1270h-119q-15 146 28 223.5t130 77.5q30 0 56.5 -8t54.5 -28t40 -30t41 -37q22 -20 34.5 -29.5t30 -18.5t33.5 -9q61 0 52 158h120q15 -148 -27.5 -225.5t-129.5 -77.5q-90 0 -197 102q-21 20 -30.5 28t-28.5 17.5t-37 9.5q-33 0 -44.5 -38t-6.5 -115zM84 545
q0 258 157 416.5t406 158.5q250 0 406.5 -158.5t156.5 -416.5t-156.5 -416t-406.5 -158q-249 0 -406 158t-157 416zM1010 545q0 187 -98.5 295t-264.5 108q-164 0 -262 -108t-98 -295t98 -295.5t262 -108.5q166 0 264.5 108t98.5 296z" />
    <glyph glyph-name="odieresis" unicode="&#xf6;" horiz-adv-x="1296" 
d="M391 1272q-66 0 -104.5 35.5t-38.5 101.5t38.5 102.5t104.5 36.5q67 0 107.5 -36.5t40.5 -102.5q0 -65 -40.5 -101t-107.5 -36zM893 1272q-66 0 -105.5 35.5t-39.5 101.5t39.5 102.5t105.5 36.5q67 0 106 -36.5t39 -102.5q0 -65 -39 -101t-106 -36zM84 545
q0 258 157 416.5t406 158.5q250 0 406.5 -158.5t156.5 -416.5t-156.5 -416t-406.5 -158q-249 0 -406 158t-157 416zM1010 545q0 187 -98.5 295t-264.5 108q-164 0 -262 -108t-98 -295t98 -295.5t262 -108.5q166 0 264.5 108t98.5 296z" />
    <glyph glyph-name="divide" unicode="&#xf7;" horiz-adv-x="1167" 
d="M582 952q-67 0 -107.5 36.5t-40.5 101.5q0 67 40 103t108 36q67 0 106 -35.5t39 -103.5q0 -65 -39 -101.5t-106 -36.5zM131 768h899v-158h-899v158zM582 150q-67 0 -107.5 36t-40.5 101q0 67 40 103t108 36q67 0 106 -35.5t39 -103.5q0 -65 -39 -101t-106 -36z" />
    <glyph glyph-name="oslash" unicode="&#xf8;" horiz-adv-x="1370" 
d="M84 543q-1 247 171.5 412t430.5 165q207 0 363 -112l104 102l96 -100l-96 -99q133 -152 133 -368q1 -162 -77.5 -295t-216 -208t-306.5 -75q-210 0 -367 113l-102 -103l-98 103l94 94q-132 161 -129 371zM279 543q0 -132 69 -230l414 416q109 109 215 109v61
q-98 68 -264 68q-87 0 -164.5 -28t-138 -80t-96 -134t-35.5 -182zM395 248v-62q96 -67 262 -67q87 0 164.5 28t137.5 80t95.5 134t35.5 182q0 133 -68 229l-418 -418q-106 -106 -209 -106z" />
    <glyph glyph-name="ugrave" unicode="&#xf9;" horiz-adv-x="1277" 
d="M563 1274l-174 282h234l92 -282h-152zM1143 1085v-1085h-189v14q7 108 37 201l-65 21q-48 -126 -154 -198.5t-250 -72.5q-188 0 -293.5 119t-105.5 336v665h201v-626q0 -155 71.5 -234.5t204.5 -79.5q122 0 210.5 63.5t133.5 190.5v686h199z" />
    <glyph glyph-name="uacute" unicode="&#xfa;" horiz-adv-x="1277" 
d="M657 1556h234l-176 -282h-150zM1143 1085v-1085h-189v14q7 108 37 201l-65 21q-48 -126 -154 -198.5t-250 -72.5q-188 0 -293.5 119t-105.5 336v665h201v-626q0 -155 71.5 -234.5t204.5 -79.5q122 0 210.5 63.5t133.5 190.5v686h199z" />
    <glyph glyph-name="ucircumflex" unicode="&#xfb;" horiz-adv-x="1277" 
d="M510 1274h-193l205 282h236l205 -282h-193l-43 69q-43 74 -55 109h-64q-12 -35 -55 -109zM1143 1085v-1085h-189v14q7 108 37 201l-65 21q-48 -126 -154 -198.5t-250 -72.5q-188 0 -293.5 119t-105.5 336v665h201v-626q0 -155 71.5 -234.5t204.5 -79.5q122 0 210.5 63.5
t133.5 190.5v686h199z" />
    <glyph glyph-name="udieresis" unicode="&#xfc;" horiz-adv-x="1277" 
d="M387 1272q-66 0 -104.5 35.5t-38.5 101.5t38.5 102.5t104.5 36.5q67 0 107.5 -36.5t40.5 -102.5q0 -65 -40.5 -101t-107.5 -36zM889 1272q-66 0 -106 35.5t-40 101.5t40 102.5t106 36.5q67 0 106 -36.5t39 -102.5q0 -65 -39 -101t-106 -36zM1143 1085v-1085h-189v14
q7 108 37 201l-65 21q-48 -126 -154 -198.5t-250 -72.5q-188 0 -293.5 119t-105.5 336v665h201v-626q0 -155 71.5 -234.5t204.5 -79.5q122 0 210.5 63.5t133.5 190.5v686h199z" />
    <glyph glyph-name="yacute" unicode="&#xfd;" horiz-adv-x="1200" 
d="M616 1556h234l-176 -282h-150zM250 -496q-84 0 -141 31v182q47 -24 122 -24q148 0 218 172l51 125l-473 1095h221l219 -544q45 -118 66.5 -189t35.5 -155h72q31 166 102 344l209 544h219l-530 -1269q-20 -49 -40 -87.5t-54 -82.5t-73 -73.5t-97 -49t-127 -19.5z" />
    <glyph glyph-name="thorn" unicode="&#xfe;" horiz-adv-x="1302" 
d="M332 -461h-199v1956h199v-268q0 -164 -51 -312l45 -20q44 104 150.5 164.5t240.5 60.5q223 0 361.5 -156.5t138.5 -420.5q0 -265 -140 -420.5t-360 -155.5q-133 0 -236.5 60.5t-154.5 165.5l-45 -21q51 -161 51 -319v-314zM662 137q159 0 255.5 106t96.5 300t-95.5 300.5
t-252.5 106.5q-120 0 -210 -60t-124 -173v-346q33 -107 120 -170.5t210 -63.5z" />
    <glyph glyph-name="ydieresis" unicode="&#xff;" horiz-adv-x="1200" 
d="M346 1272q-66 0 -104.5 35.5t-38.5 101.5t38.5 102.5t104.5 36.5q67 0 107.5 -36.5t40.5 -102.5q0 -65 -40.5 -101t-107.5 -36zM848 1272q-66 0 -106 35.5t-40 101.5t40 102.5t106 36.5q67 0 106 -36.5t39 -102.5q0 -65 -39 -101t-106 -36zM250 -496q-84 0 -141 31v182
q47 -24 122 -24q148 0 218 172l51 125l-473 1095h221l219 -544q45 -118 66.5 -189t35.5 -155h72q31 166 102 344l209 544h219l-530 -1269q-20 -49 -40 -87.5t-54 -82.5t-73 -73.5t-97 -49t-127 -19.5z" />
    <glyph glyph-name="Amacron" unicode="&#x100;" 
d="M383 1778h676v-154h-676v154zM1401 0h-213l-105 272h-721l-104 -272h-217l559 1434h246zM580 846l-150 -393h586l-152 395q-81 209 -102 379h-80q-24 -172 -102 -381z" />
    <glyph glyph-name="amacron" unicode="&#x101;" horiz-adv-x="1191" 
d="M231 1470h676v-153h-676v153zM1075 131q35 0 62 19v-146q-49 -27 -123 -27q-90 0 -139 52t-46 155l9 9h-66q-32 -104 -130 -166t-224 -62q-147 0 -237.5 83.5t-90.5 219.5q0 277 363 348l358 70v21q-3 254 -258 254q-126 0 -201.5 -63.5t-79.5 -176.5l-186 35
q17 168 146.5 266t330.5 98q216 0 332.5 -106.5t116.5 -300.5v-434q0 -28 0.5 -41.5t2 -34.5t5.5 -31t10.5 -21t18 -15.5t26.5 -4.5zM485 123q110 0 204 63t124 160l-2 209l-291 -53q-125 -23 -178 -75.5t-53 -129.5q0 -83 51 -128.5t145 -45.5z" />
    <glyph glyph-name="Abreve" unicode="&#x102;" 
d="M721 1569q-147 0 -235 80.5t-87 214.5h170q0 -82 40.5 -122t111.5 -40q73 0 110 42.5t37 119.5h170q1 -135 -85.5 -215t-231.5 -80zM1401 0h-213l-105 272h-721l-104 -272h-217l559 1434h246zM580 846l-150 -393h586l-152 395q-81 209 -102 379h-80q-24 -172 -102 -381z
" />
    <glyph glyph-name="abreve" unicode="&#x103;" horiz-adv-x="1191" 
d="M569 1262q-147 0 -234.5 80t-86.5 214h170q0 -82 40 -121.5t111 -39.5q74 0 111 42t37 119h170q1 -134 -86 -214t-232 -80zM1075 131q35 0 62 19v-146q-49 -27 -123 -27q-90 0 -139 52t-46 155l9 9h-66q-32 -104 -130 -166t-224 -62q-147 0 -237.5 83.5t-90.5 219.5
q0 277 363 348l358 70v21q-3 254 -258 254q-126 0 -201.5 -63.5t-79.5 -176.5l-186 35q17 168 146.5 266t330.5 98q216 0 332.5 -106.5t116.5 -300.5v-434q0 -28 0.5 -41.5t2 -34.5t5.5 -31t10.5 -21t18 -15.5t26.5 -4.5zM485 123q110 0 204 63t124 160l-2 209l-291 -53
q-125 -23 -178 -75.5t-53 -129.5q0 -83 51 -128.5t145 -45.5z" />
    <glyph glyph-name="Aogonek" unicode="&#x104;" 
d="M1516 -256l47 -117q-36 -32 -102 -52.5t-136 -20.5q-120 0 -192 64t-72 165q0 64 33.5 121.5t93.5 95.5l-105 272h-721l-104 -272h-217l559 1434h246l555 -1434h-17q-85 -18 -135.5 -70.5t-50.5 -117.5q0 -60 38 -94.5t107 -34.5q45 0 92.5 16t80.5 45zM580 846
l-150 -393h586l-152 395q-81 209 -102 379h-80q-24 -172 -102 -381z" />
    <glyph glyph-name="aogonek" unicode="&#x105;" horiz-adv-x="1191" 
d="M1235 -246l47 -116q-36 -32 -102 -53t-136 -21q-120 0 -192 64t-72 165q0 63 32 119t89 94q-75 53 -72 178l9 9h-66q-32 -104 -130 -166t-224 -62q-147 0 -237.5 83.5t-90.5 219.5q0 277 363 348l358 70v21q-3 254 -258 254q-126 0 -201.5 -63.5t-79.5 -176.5l-186 35
q17 168 146.5 266t330.5 98q216 0 332.5 -106.5t116.5 -300.5v-434q0 -28 0.5 -41.5t2 -34.5t5.5 -31t10.5 -21t18 -15.5t26.5 -4.5q35 0 62 19v-146q-49 -27 -119 -27q-47 -28 -73.5 -68.5t-26.5 -86.5q0 -60 38 -94.5t107 -34.5q45 0 92 16t80 45zM485 123q110 0 204 63
t124 160l-2 209l-291 -53q-125 -23 -178 -75.5t-53 -129.5q0 -83 51 -128.5t145 -45.5z" />
    <glyph glyph-name="Cacute" unicode="&#x106;" horiz-adv-x="1605" 
d="M858 1864h234l-177 -283h-149zM113 717q-3 208 89.5 380.5t261 272.5t378.5 98q242 -2 424.5 -134t234.5 -357l-196 -55q-45 171 -168 264.5t-295 93.5q-231 1 -375.5 -159.5t-144.5 -403.5q0 -241 144 -402.5t376 -160.5q178 0 301.5 99.5t165.5 285.5l198 -50
q-49 -244 -230.5 -383t-434.5 -141q-157 -1 -294.5 57.5t-233 159.5t-149.5 240t-52 295z" />
    <glyph glyph-name="cacute" unicode="&#x107;" horiz-adv-x="1243" 
d="M666 1556h233l-176 -282h-150zM84 539q0 263 155.5 422t409.5 159q203 0 338 -102.5t176 -276.5l-190 -55q-27 130 -115 196t-217 66q-168 0 -261 -110t-93 -297q0 -190 96.5 -297t257.5 -107q137 0 225.5 70.5t112.5 191.5l190 -55q-37 -171 -183 -275t-349 -104
q-248 0 -400.5 157t-152.5 417z" />
    <glyph glyph-name="Cdotaccent" unicode="&#x10a;" horiz-adv-x="1605" 
d="M842 1579q-66 0 -106 35.5t-40 101.5t40 102.5t106 36.5q67 0 106 -36.5t39 -102.5q0 -65 -39 -101t-106 -36zM113 717q-3 208 89.5 380.5t261 272.5t378.5 98q242 -2 424.5 -134t234.5 -357l-196 -55q-45 171 -168 264.5t-295 93.5q-231 1 -375.5 -159.5t-144.5 -403.5
q0 -241 144 -402.5t376 -160.5q178 0 301.5 99.5t165.5 285.5l198 -50q-49 -244 -230.5 -383t-434.5 -141q-157 -1 -294.5 57.5t-233 159.5t-149.5 240t-52 295z" />
    <glyph glyph-name="cdotaccent" unicode="&#x10b;" horiz-adv-x="1243" 
d="M649 1272q-66 0 -105.5 35.5t-39.5 101.5t39.5 102.5t105.5 36.5q67 0 106.5 -36.5t39.5 -102.5q0 -65 -39.5 -101t-106.5 -36zM84 539q0 263 155.5 422t409.5 159q203 0 338 -102.5t176 -276.5l-190 -55q-27 130 -115 196t-217 66q-168 0 -261 -110t-93 -297
q0 -190 96.5 -297t257.5 -107q137 0 225.5 70.5t112.5 191.5l190 -55q-37 -171 -183 -275t-349 -104q-248 0 -400.5 157t-152.5 417z" />
    <glyph glyph-name="Ccaron" unicode="&#x10c;" horiz-adv-x="1605" 
d="M723 1581l-205 283h193l43 -70q45 -77 55 -106h63q6 16 13.5 32t13.5 26t15.5 25.5t13.5 22.5l43 70h192l-205 -283h-235zM113 717q-3 208 89.5 380.5t261 272.5t378.5 98q242 -2 424.5 -134t234.5 -357l-196 -55q-45 171 -168 264.5t-295 93.5q-231 1 -375.5 -159.5
t-144.5 -403.5q0 -241 144 -402.5t376 -160.5q178 0 301.5 99.5t165.5 285.5l198 -50q-49 -244 -230.5 -383t-434.5 -141q-157 -1 -294.5 57.5t-233 159.5t-149.5 240t-52 295z" />
    <glyph glyph-name="ccaron" unicode="&#x10d;" horiz-adv-x="1243" 
d="M530 1274l-204 282h192l43 -69q44 -75 55 -107h64q11 32 55 107l43 69h193l-205 -282h-236zM84 539q0 263 155.5 422t409.5 159q203 0 338 -102.5t176 -276.5l-190 -55q-27 130 -115 196t-217 66q-168 0 -261 -110t-93 -297q0 -190 96.5 -297t257.5 -107
q137 0 225.5 70.5t112.5 191.5l190 -55q-37 -171 -183 -275t-349 -104q-248 0 -400.5 157t-152.5 417z" />
    <glyph glyph-name="Dcaron" unicode="&#x10e;" horiz-adv-x="1490" 
d="M1047 1864l-205 -283h-236l-205 283h193l43 -70q45 -77 55 -106h64q10 29 55 106l43 70h193zM172 1434h571q297 0 467 -188.5t170 -528.5q0 -345 -168.5 -531t-472.5 -186h-567v1434zM377 186h352q213 0 329 130.5t116 400.5q0 259 -115 394.5t-330 135.5h-352v-1061z
" />
    <glyph glyph-name="dcaron" unicode="&#x10f;" horiz-adv-x="1470" 
d="M1632 1305l-145 -226l-96 56l102 155q-39 9 -62.5 41.5t-23.5 75.5q0 55 37 88t94 33q58 0 93.5 -34t35.5 -87q0 -51 -35 -102zM629 -35q-154 0 -277.5 70t-195.5 202t-72 302q0 260 154.5 420.5t394.5 160.5q92 0 171 -25t149.5 -84t113.5 -149l49 23q-57 155 -57 340
v270h205v-1495h-187v14q12 90 39 187l-51 22q-37 -88 -106.5 -147t-152 -85t-177.5 -26zM682 141q133 0 237 66t140 178v315q-37 111 -139.5 177.5t-237.5 66.5q-171 0 -282 -111t-111 -290q0 -181 112 -291.5t281 -110.5z" />
    <glyph glyph-name="Dcroat" unicode="&#x110;" horiz-adv-x="1562" 
d="M207 641h-139v154h139v639h577q313 0 490.5 -187.5t177.5 -529.5q0 -345 -176.5 -531t-493.5 -186h-575v641zM416 641v-455h356q231 0 350 133.5t119 397.5q0 260 -120.5 395t-348.5 135h-356v-452h256v-154h-256z" />
    <glyph glyph-name="dcroat" unicode="&#x111;" horiz-adv-x="1392" 
d="M1264 1360h118v-143h-118v-1217h-187v14q12 90 39 187l-51 22q-37 -88 -106.5 -147t-152 -85t-177.5 -26q-154 0 -277.5 70t-195.5 202t-72 302q0 260 154.5 420.5t394.5 160.5q92 0 171 -25t149.5 -84t113.5 -149l49 23q-57 152 -57 332h-281v143h281v135h205v-135z
M1059 385v315q-37 111 -139.5 177.5t-237.5 66.5q-171 0 -282 -111t-111 -290q0 -181 112 -291.5t281 -110.5q133 0 237 66t140 178z" />
    <glyph glyph-name="Emacron" unicode="&#x112;" horiz-adv-x="1232" 
d="M317 1778h676v-154h-676v154zM1157 1434v-187h-780v-426h721v-172h-721v-463h780v-186h-985v1434h985z" />
    <glyph glyph-name="emacron" unicode="&#x113;" horiz-adv-x="1253" 
d="M301 1317v153h676v-153h-676zM84 543q0 257 149 417t402 160q249 0 396 -156.5t147 -416.5v-74h-895q5 -154 103 -248t261 -94q128 0 224.5 57.5t144.5 159.5l125 -117q-63 -125 -198 -195.5t-298 -70.5q-251 0 -406 156.5t-155 421.5zM285 614h696q-8 158 -99.5 251
t-248.5 93q-150 0 -244.5 -90.5t-103.5 -253.5z" />
    <glyph glyph-name="Edotaccent" unicode="&#x116;" horiz-adv-x="1232" 
d="M657 1579q-66 0 -105.5 35.5t-39.5 101.5t39.5 102.5t105.5 36.5q67 0 106.5 -36.5t39.5 -102.5q0 -65 -39.5 -101t-106.5 -36zM1157 1434v-187h-780v-426h721v-172h-721v-463h780v-186h-985v1434h985z" />
    <glyph glyph-name="edotaccent" unicode="&#x117;" horiz-adv-x="1253" 
d="M641 1272q-66 0 -105.5 35.5t-39.5 101.5t39.5 102.5t105.5 36.5q67 0 106 -36.5t39 -102.5q0 -65 -39 -101t-106 -36zM84 543q0 257 149 417t402 160q249 0 396 -156.5t147 -416.5v-74h-895q5 -154 103 -248t261 -94q128 0 224.5 57.5t144.5 159.5l125 -117
q-63 -125 -198 -195.5t-298 -70.5q-251 0 -406 156.5t-155 421.5zM285 614h696q-8 158 -99.5 251t-248.5 93q-150 0 -244.5 -90.5t-103.5 -253.5z" />
    <glyph glyph-name="Eogonek" unicode="&#x118;" horiz-adv-x="1232" 
d="M1157 -258l47 -117q-36 -32 -101.5 -53t-135.5 -21q-120 0 -192.5 64.5t-72.5 165.5q0 64 35 122.5t97 96.5h-662v1434h985v-187h-780v-426h721v-172h-721v-463h780v-186h-131v-2q-85 -18 -135.5 -70.5t-50.5 -117.5q0 -60 38 -94.5t107 -34.5q45 0 92 16t80 45z" />
    <glyph glyph-name="eogonek" unicode="&#x119;" horiz-adv-x="1253" 
d="M1178 547v-74h-895q5 -154 103 -248t261 -94q128 0 224.5 57.5t144.5 159.5l125 -117q-45 -90 -129 -152t-193 -91q-55 -26 -87 -70.5t-32 -95.5q0 -60 38.5 -94.5t107.5 -34.5q45 0 92 16t80 45l47 -116q-36 -32 -102 -53t-136 -21q-120 0 -192 64t-72 165q0 97 72 172
q-247 3 -399 159.5t-152 418.5q0 257 149 417t402 160q249 0 396 -156.5t147 -416.5zM285 614h696q-8 158 -99.5 251t-248.5 93q-150 0 -244.5 -90.5t-103.5 -253.5z" />
    <glyph glyph-name="Ecaron" unicode="&#x11a;" horiz-adv-x="1232" 
d="M979 1864l-205 -283h-235l-205 283h192l43 -70q4 -7 13.5 -22.5t15.5 -25.5t13.5 -26t13.5 -32h63q10 29 55 106l43 70h193zM1157 1434v-187h-780v-426h721v-172h-721v-463h780v-186h-985v1434h985z" />
    <glyph glyph-name="ecaron" unicode="&#x11b;" horiz-adv-x="1253" 
d="M522 1274l-205 282h193l43 -69q44 -75 55 -107h64q11 32 55 107l43 69h193l-205 -282h-236zM84 543q0 257 149 417t402 160q249 0 396 -156.5t147 -416.5v-74h-895q5 -154 103 -248t261 -94q128 0 224.5 57.5t144.5 159.5l125 -117q-63 -125 -198 -195.5t-298 -70.5
q-251 0 -406 156.5t-155 421.5zM285 614h696q-8 158 -99.5 251t-248.5 93q-150 0 -244.5 -90.5t-103.5 -253.5z" />
    <glyph glyph-name="Gbreve" unicode="&#x11e;" horiz-adv-x="1642" 
d="M522 1864h170q0 -82 40.5 -122t111.5 -40q73 0 110 42.5t37 119.5h170q1 -135 -85.5 -215t-231.5 -80q-147 0 -235 80.5t-87 214.5zM113 709q0 169 57.5 313.5t156.5 242t232.5 151.5t282.5 52q242 -3 423.5 -133.5t233.5 -349.5l-199 -55q-46 167 -167 258.5t-293 91.5
q-155 1 -273.5 -74.5t-180.5 -203.5t-62 -287q0 -247 144 -408t382 -160q178 0 300.5 91.5t162.5 253.5v59h-467v160h645v-711h-178v25q1 19 6.5 47.5t11 51.5t15 63t14.5 63l-68 29q-66 -149 -193.5 -229.5t-297.5 -82.5q-159 -1 -291.5 59t-218 163t-132 237t-46.5 283z
" />
    <glyph glyph-name="gbreve" unicode="&#x11f;" horiz-adv-x="1095" 
d="M197 1556h170q0 -82 40 -121.5t111 -39.5q74 0 111 42t37 119h170q1 -134 -86 -214t-232 -80q-147 0 -234.5 80t-86.5 214zM512 -528q-236 0 -348.5 68t-112.5 192q0 85 57 142t152 71v41q-42 20 -65 55.5t-23 77.5q0 65 41 110t115 60v43q-120 38 -186 129.5t-66 216.5
q0 187 121 297t321 110h512l33 -151h-72q-96 0 -178 39l-33 -55q178 -87 178 -289q0 -166 -117.5 -265.5t-316.5 -99.5h-55q-127 -6 -127 -86q0 -24 10.5 -41t31.5 -25.5t42.5 -12t52.5 -5.5l256 -16q155 -9 230 -80t75 -195q0 -164 -136.5 -247.5t-391.5 -83.5zM516 412
q121 0 190.5 71.5t69.5 190.5q0 122 -71 192t-189 70q-119 0 -188.5 -71.5t-69.5 -190.5q0 -120 71 -191t187 -71zM516 -391q326 0 326 168q0 67 -42 94.5t-118 32.5l-315 18q-71 -9 -109.5 -51.5t-38.5 -101.5q0 -160 297 -160z" />
    <glyph glyph-name="Gdotaccent" unicode="&#x120;" horiz-adv-x="1642" 
d="M842 1579q-66 0 -106 35.5t-40 101.5t40 102.5t106 36.5q67 0 106 -36.5t39 -102.5q0 -65 -39 -101t-106 -36zM113 709q0 169 57.5 313.5t156.5 242t232.5 151.5t282.5 52q242 -3 423.5 -133.5t233.5 -349.5l-199 -55q-46 167 -167 258.5t-293 91.5q-155 1 -273.5 -74.5
t-180.5 -203.5t-62 -287q0 -247 144 -408t382 -160q178 0 300.5 91.5t162.5 253.5v59h-467v160h645v-711h-178v25q1 19 6.5 47.5t11 51.5t15 63t14.5 63l-68 29q-66 -149 -193.5 -229.5t-297.5 -82.5q-159 -1 -291.5 59t-218 163t-132 237t-46.5 283z" />
    <glyph glyph-name="gdotaccent" unicode="&#x121;" horiz-adv-x="1095" 
d="M516 1272q-66 0 -105.5 35.5t-39.5 101.5t39.5 102.5t105.5 36.5q67 0 106.5 -36.5t39.5 -102.5q0 -65 -39.5 -101t-106.5 -36zM512 -528q-236 0 -348.5 68t-112.5 192q0 85 57 142t152 71v41q-42 20 -65 55.5t-23 77.5q0 65 41 110t115 60v43q-120 38 -186 129.5
t-66 216.5q0 187 121 297t321 110h512l33 -151h-72q-96 0 -178 39l-33 -55q178 -87 178 -289q0 -166 -117.5 -265.5t-316.5 -99.5h-55q-127 -6 -127 -86q0 -24 10.5 -41t31.5 -25.5t42.5 -12t52.5 -5.5l256 -16q155 -9 230 -80t75 -195q0 -164 -136.5 -247.5t-391.5 -83.5z
M516 412q121 0 190.5 71.5t69.5 190.5q0 122 -71 192t-189 70q-119 0 -188.5 -71.5t-69.5 -190.5q0 -120 71 -191t187 -71zM516 -391q326 0 326 168q0 67 -42 94.5t-118 32.5l-315 18q-71 -9 -109.5 -51.5t-38.5 -101.5q0 -160 297 -160z" />
    <glyph glyph-name="uni0122" unicode="&#x122;" horiz-adv-x="1642" 
d="M113 709q0 169 57.5 313.5t156.5 242t232.5 151.5t282.5 52q242 -3 423.5 -133.5t233.5 -349.5l-199 -55q-46 167 -167 258.5t-293 91.5q-155 1 -273.5 -74.5t-180.5 -203.5t-62 -287q0 -247 144 -408t382 -160q178 0 300.5 91.5t162.5 253.5v59h-467v160h645v-711h-178
v25q1 19 6.5 47.5t11 51.5t15 63t14.5 63l-68 29q-66 -149 -193.5 -229.5t-297.5 -82.5q-159 -1 -291.5 59t-218 163t-132 237t-46.5 283zM684 -170h234l-175 -281h-151z" />
    <glyph glyph-name="uni0123" unicode="&#x123;" horiz-adv-x="1095" 
d="M414 1501l135 209l104 -57l-88 -137q43 -9 68.5 -43.5t25.5 -81.5q0 -60 -41 -97t-102 -37q-62 0 -100.5 37.5t-38.5 96.5q0 51 37 110zM512 -528q-236 0 -348.5 68t-112.5 192q0 85 57 142t152 71v41q-42 20 -65 55.5t-23 77.5q0 65 41 110t115 60v43
q-120 38 -186 129.5t-66 216.5q0 187 121 297t321 110h512l33 -151h-72q-96 0 -178 39l-33 -55q178 -87 178 -289q0 -166 -117.5 -265.5t-316.5 -99.5h-55q-127 -6 -127 -86q0 -24 10.5 -41t31.5 -25.5t42.5 -12t52.5 -5.5l256 -16q155 -9 230 -80t75 -195
q0 -164 -136.5 -247.5t-391.5 -83.5zM516 412q121 0 190.5 71.5t69.5 190.5q0 122 -71 192t-189 70q-119 0 -188.5 -71.5t-69.5 -190.5q0 -120 71 -191t187 -71zM516 -391q326 0 326 168q0 67 -42 94.5t-118 32.5l-315 18q-71 -9 -109.5 -51.5t-38.5 -101.5q0 -160 297 -160
z" />
    <glyph glyph-name="Hbar" unicode="&#x126;" horiz-adv-x="1617" 
d="M1374 1434v-191h139v-160h-139v-1083h-209v641h-743v-641h-209v1083h-139v160h139v191h209v-191h743v191h209zM422 1083v-252h743v252h-743z" />
    <glyph glyph-name="hbar" unicode="&#x127;" horiz-adv-x="1339" 
d="M756 1120q221 0 341 -131.5t120 -367.5v-621h-203v584q0 356 -316 356q-139 0 -242 -68t-153 -190v-682h-205v1217h-137v143h137v135h205v-135h262v-143h-262v-68q0 -154 -49 -279l51 -20q67 133 182.5 201.5t268.5 68.5z" />
    <glyph glyph-name="Imacron" unicode="&#x12a;" horiz-adv-x="591" 
d="M-41 1624v154h676v-154h-676zM193 0v1434h206v-1434h-206z" />
    <glyph glyph-name="imacron" unicode="&#x12b;" horiz-adv-x="499" 
d="M-94 1317v153h676v-153h-676zM143 0v1085h203v-1085h-203z" />
    <glyph glyph-name="Iogonek" unicode="&#x12e;" horiz-adv-x="591" 
d="M530 -256l48 -117q-36 -32 -102 -52.5t-136 -20.5q-120 0 -192 64t-72 165q0 64 33.5 121.5t93.5 95.5h-10v1434h206v-1434q-85 -18 -135.5 -70.5t-50.5 -117.5q0 -60 38 -94.5t107 -34.5q45 0 92 16t80 45z" />
    <glyph glyph-name="iogonek" unicode="&#x12f;" horiz-adv-x="499" 
d="M244 1272q-66 0 -106 35.5t-40 101.5t40 102.5t106 36.5q67 0 106 -36.5t39 -102.5q0 -65 -39 -101t-106 -36zM481 -258l47 -117q-36 -32 -101.5 -53t-135.5 -21q-120 0 -192 64.5t-72 165.5q0 65 35 123t96 96h-15v1085h203v-1069l4 -18q-85 -18 -135.5 -70.5
t-50.5 -117.5q0 -60 38 -94.5t107 -34.5q45 0 92 16t80 45z" />
    <glyph glyph-name="Idotaccent" unicode="&#x130;" horiz-adv-x="591" 
d="M297 1579q-66 0 -105.5 35.5t-39.5 101.5t39.5 102.5t105.5 36.5q67 0 106 -36.5t39 -102.5q0 -65 -39 -101t-106 -36zM193 0v1434h206v-1434h-206z" />
    <glyph glyph-name="dotlessi" unicode="&#x131;" horiz-adv-x="499" 
d="M143 0v1085h203v-1085h-203z" />
    <glyph glyph-name="uni0136" unicode="&#x136;" horiz-adv-x="1366" 
d="M172 0v1434h205v-392q0 -103 -13.5 -176t-58.5 -149l53 -45l707 762h252l-569 -615l577 -819h-250l-471 672h-4l-223 -246v-426h-205zM555 -170h233l-174 -281h-151z" />
    <glyph glyph-name="uni0137" unicode="&#x137;" horiz-adv-x="1185" 
d="M133 0v1495h199v-596q0 -109 -12.5 -185t-51.5 -145l56 -37q71 100 194 218l340 335h270l-464 -438l485 -647h-246l-381 524h-4l-186 -174v-350h-199zM481 -170h234l-174 -281h-152z" />
    <glyph glyph-name="Lacute" unicode="&#x139;" horiz-adv-x="1120" 
d="M291 1864h233l-176 -283h-149zM172 0v1434h205v-1248h700v-186h-905z" />
    <glyph glyph-name="lacute" unicode="&#x13a;" horiz-adv-x="483" 
d="M260 1966h234l-177 -283h-149zM143 0v1495h199v-1495h-199z" />
    <glyph glyph-name="uni013B" unicode="&#x13b;" horiz-adv-x="1120" 
d="M172 0v1434h205v-1248h700v-186h-905zM475 -170h234l-174 -281h-152z" />
    <glyph glyph-name="uni013C" unicode="&#x13c;" horiz-adv-x="483" 
d="M143 0v1495h199v-1495h-199zM125 -170h233l-174 -281h-151z" />
    <glyph glyph-name="Lcaron" unicode="&#x13d;" horiz-adv-x="1210" 
d="M899 1245l-145 -225l-97 55l103 156q-39 9 -62.5 41.5t-23.5 75.5q0 54 38 87t95 33t92 -33.5t35 -86.5q0 -52 -35 -103zM172 0v1434h209v-1248h786v-186h-995z" />
    <glyph glyph-name="lcaron" unicode="&#x13e;" horiz-adv-x="569" 
d="M715 1305l-146 -226l-96 56l105 155q-40 9 -64.5 41.5t-24.5 75.5q0 54 38.5 87.5t95.5 33.5t92 -34t35 -87q0 -51 -35 -102zM143 0v1495h203v-1495h-203z" />
    <glyph glyph-name="Lslash" unicode="&#x141;" horiz-adv-x="1095" 
d="M147 629l-149 -58v156l149 57v650h203v-566l232 90v-155l-232 -90v-527h703v-186h-906v629z" />
    <glyph glyph-name="lslash" unicode="&#x142;" horiz-adv-x="481" 
d="M10 555v158l144 67v715h200v-621l146 70v-160l-146 -67v-717h-200v623z" />
    <glyph glyph-name="Nacute" unicode="&#x143;" horiz-adv-x="1540" 
d="M780 1864h234l-176 -283h-150zM172 0v1434h238l749 -1127h4v1127h207v-1434h-237l-752 1118h-4v-1118h-205z" />
    <glyph glyph-name="nacute" unicode="&#x144;" horiz-adv-x="1275" 
d="M659 1556h234l-176 -282h-150zM133 0v1085h182v-14q-7 -119 -36 -201l63 -24q63 135 166.5 204.5t239.5 69.5q192 0 298.5 -128t106.5 -371v-621h-201v584q0 356 -270 356q-121 0 -213.5 -68t-136.5 -190v-682h-199z" />
    <glyph glyph-name="uni0145" unicode="&#x145;" horiz-adv-x="1540" 
d="M172 0v1434h238l749 -1127h4v1127h207v-1434h-237l-752 1118h-4v-1118h-205zM647 -170h234l-174 -281h-152z" />
    <glyph glyph-name="uni0146" unicode="&#x146;" horiz-adv-x="1275" 
d="M133 0v1085h182v-14q-7 -119 -36 -201l63 -24q63 135 166.5 204.5t239.5 69.5q192 0 298.5 -128t106.5 -371v-621h-201v584q0 356 -270 356q-121 0 -213.5 -68t-136.5 -190v-682h-199zM524 -170h234l-174 -281h-152z" />
    <glyph glyph-name="Ncaron" unicode="&#x147;" horiz-adv-x="1540" 
d="M645 1581l-205 283h193l43 -70q45 -77 55 -106h64q10 29 55 106l43 70h192l-204 -283h-236zM172 0v1434h238l749 -1127h4v1127h207v-1434h-237l-752 1118h-4v-1118h-205z" />
    <glyph glyph-name="ncaron" unicode="&#x148;" horiz-adv-x="1275" 
d="M524 1274l-205 282h193l43 -69q44 -75 55 -107h64q11 32 55 107l43 69h193l-205 -282h-236zM133 0v1085h182v-14q-7 -119 -36 -201l63 -24q63 135 166.5 204.5t239.5 69.5q192 0 298.5 -128t106.5 -371v-621h-201v584q0 356 -270 356q-121 0 -213.5 -68t-136.5 -190v-682
h-199z" />
    <glyph glyph-name="Eng" unicode="&#x14a;" horiz-adv-x="1638" 
d="M401 0h-208v1434h233l805 -1125h4v1125h213v-1547q0 -191 -98 -287t-283 -96q-65 0 -102 13l-31 172q46 -11 90 -11q115 0 167 50t52 155v117h-33l-804 1116h-5v-1116z" />
    <glyph glyph-name="eng" unicode="&#x14b;" horiz-adv-x="1435" 
d="M367 0h-203v1085h192v-14q-5 -108 -39 -201l52 -20q67 133 182 201.5t268 68.5q221 0 341 -131.5t120 -367.5v-734q0 -191 -97 -287t-282 -96q-65 0 -102 13l-33 172q50 -11 92 -11q119 0 169 54.5t50 171.5v680q0 356 -313 356q-139 0 -243 -68t-154 -190v-682z" />
    <glyph glyph-name="Omacron" unicode="&#x14c;" horiz-adv-x="1681" 
d="M502 1632v154h676v-154h-676zM113 717q0 161 55.5 301t152.5 238.5t232 155t289 56.5q153 0 288 -56.5t231.5 -155t152 -238.5t55.5 -301q0 -215 -95 -387t-261 -268.5t-371 -96.5q-206 0 -372.5 96.5t-261.5 268.5t-95 387zM322 717q0 -251 146 -407t374 -156
q230 0 374 157t144 406q0 250 -144.5 406.5t-373.5 156.5q-231 0 -375.5 -155t-144.5 -408z" />
    <glyph glyph-name="omacron" unicode="&#x14d;" horiz-adv-x="1296" 
d="M307 1317v153h676v-153h-676zM84 545q0 258 157 416.5t406 158.5q250 0 406.5 -158.5t156.5 -416.5t-156.5 -416t-406.5 -158q-249 0 -406 158t-157 416zM1010 545q0 187 -98.5 295t-264.5 108q-164 0 -262 -108t-98 -295t98 -295.5t262 -108.5q166 0 264.5 108t98.5 296
z" />
    <glyph glyph-name="Ohungarumlaut" unicode="&#x150;" horiz-adv-x="1681" 
d="M678 1872h225l-155 -283h-150zM1085 1872h226l-215 -283h-162zM113 717q0 161 55.5 301t152.5 238.5t232 155t289 56.5q153 0 288 -56.5t231.5 -155t152 -238.5t55.5 -301q0 -215 -95 -387t-261 -268.5t-371 -96.5q-206 0 -372.5 96.5t-261.5 268.5t-95 387zM322 717
q0 -251 146 -407t374 -156q230 0 374 157t144 406q0 250 -144.5 406.5t-373.5 156.5q-231 0 -375.5 -155t-144.5 -408z" />
    <glyph glyph-name="ohungarumlaut" unicode="&#x151;" horiz-adv-x="1296" 
d="M481 1556h226l-156 -282h-150zM889 1556h225l-215 -282h-162zM84 545q0 258 157 416.5t406 158.5q250 0 406.5 -158.5t156.5 -416.5t-156.5 -416t-406.5 -158q-249 0 -406 158t-157 416zM1010 545q0 187 -98.5 295t-264.5 108q-164 0 -262 -108t-98 -295t98 -295.5
t262 -108.5q166 0 264.5 108t98.5 296z" />
    <glyph glyph-name="OE" unicode="&#x152;" horiz-adv-x="2062" 
d="M113 717q0 342 186.5 529.5t517.5 187.5h1168v-187h-732v-426h668v-172h-668v-463h734v-186h-1168q-335 0 -520.5 186t-185.5 531zM324 717q0 -264 127.5 -397.5t375.5 -133.5h215v1061h-215q-245 0 -374 -135t-129 -395z" />
    <glyph glyph-name="oe" unicode="&#x153;" horiz-adv-x="2179" 
d="M2103 547v-74h-895q5 -154 104 -248t263 -94q127 0 223 57.5t144 159.5l124 -117q-63 -125 -197.5 -195.5t-297.5 -70.5q-151 0 -271 59.5t-192 168.5q-74 -105 -193.5 -163.5t-267.5 -58.5q-249 0 -406 158t-157 416t157 416.5t406 158.5q149 0 268 -59t193 -166
q72 108 187.5 166.5t265.5 58.5q249 0 395.5 -156.5t146.5 -416.5zM1210 614h697q-6 157 -98 250.5t-250 93.5q-151 0 -245.5 -90.5t-103.5 -253.5zM647 141q166 0 264.5 108t98.5 296q0 187 -98.5 295t-264.5 108q-164 0 -262 -108t-98 -295t98 -295.5t262 -108.5z" />
    <glyph glyph-name="Racute" unicode="&#x154;" horiz-adv-x="1353" 
d="M694 1864h234l-176 -283h-150zM1133 332l73 -172q26 -59 45 -89t45 -46v-25h-239q-29 37 -58 104l-92 226q-54 131 -119 178t-192 47h-219v-555h-205v1434h672q201 0 313.5 -105.5t112.5 -294.5q0 -184 -106 -283.5t-290 -105.5v-70q98 -21 152 -70.5t107 -172.5z
M377 739h424q125 0 192.5 65.5t67.5 188.5q0 256 -264 256h-420v-510z" />
    <glyph glyph-name="racute" unicode="&#x155;" horiz-adv-x="768" 
d="M406 1556h233l-176 -282h-150zM332 0h-199v1085h178v-14q-4 -75 -41 -180l68 -23q90 234 287 234q56 0 90 -15l14 -184q-62 19 -129 19q-94 0 -167.5 -61t-100.5 -165v-696z" />
    <glyph glyph-name="uni0156" unicode="&#x156;" horiz-adv-x="1353" 
d="M1133 332l73 -172q26 -59 45 -89t45 -46v-25h-239q-29 37 -58 104l-92 226q-54 131 -119 178t-192 47h-219v-555h-205v1434h672q201 0 313.5 -105.5t112.5 -294.5q0 -184 -106 -283.5t-290 -105.5v-70q98 -21 152 -70.5t107 -172.5zM377 739h424q125 0 192.5 65.5
t67.5 188.5q0 256 -264 256h-420v-510zM621 -451h-152l92 281h234z" />
    <glyph glyph-name="uni0157" unicode="&#x157;" horiz-adv-x="768" 
d="M332 0h-199v1085h178v-14q-4 -75 -41 -180l68 -23q90 234 287 234q56 0 90 -15l14 -184q-62 19 -129 19q-94 0 -167.5 -61t-100.5 -165v-696zM117 -170h233l-174 -281h-151z" />
    <glyph glyph-name="Rcaron" unicode="&#x158;" horiz-adv-x="1353" 
d="M999 1864l-204 -283h-236l-205 283h193l43 -70q45 -77 55 -106h64q10 29 55 106l43 70h192zM1133 332l73 -172q26 -59 45 -89t45 -46v-25h-239q-29 37 -58 104l-92 226q-54 131 -119 178t-192 47h-219v-555h-205v1434h672q201 0 313.5 -105.5t112.5 -294.5
q0 -184 -106 -283.5t-290 -105.5v-70q98 -21 152 -70.5t107 -172.5zM377 739h424q125 0 192.5 65.5t67.5 188.5q0 256 -264 256h-420v-510z" />
    <glyph glyph-name="rcaron" unicode="&#x159;" horiz-adv-x="768" 
d="M270 1274l-204 282h192l43 -69q44 -75 55 -107h64q11 32 55 107l43 69h193l-205 -282h-236zM332 0h-199v1085h178v-14q-4 -75 -41 -180l68 -23q90 234 287 234q56 0 90 -15l14 -184q-62 19 -129 19q-94 0 -167.5 -61t-100.5 -165v-696z" />
    <glyph glyph-name="Sacute" unicode="&#x15a;" horiz-adv-x="1325" 
d="M676 1870h233l-176 -283h-149zM100 440l189 33q6 -163 109.5 -247.5t281.5 -84.5q162 0 250 63.5t88 170.5q0 54 -17.5 94t-45.5 66.5t-78.5 47t-101 32.5t-128.5 26q-89 15 -157.5 34.5t-135 52t-109.5 76t-69 108t-26 145.5q0 194 142.5 301.5t379.5 107.5
q158 0 282 -53t196 -149.5t79 -223.5l-195 -41q-13 143 -109.5 219t-254.5 76q-151 0 -232.5 -59.5t-81.5 -161.5q0 -42 11 -74.5t38 -57.5t58 -42.5t85 -33.5t104 -27t130 -25q100 -18 174 -45t138.5 -74.5t98.5 -123.5t34 -179q0 -201 -152 -313.5t-405 -112.5
q-264 0 -414 128.5t-156 346.5z" />
    <glyph glyph-name="sacute" unicode="&#x15b;" horiz-adv-x="1112" 
d="M559 1556h234l-177 -282h-149zM72 340l172 53q13 -133 96 -201.5t231 -68.5q122 0 189 45t67 129q0 37 -15.5 64.5t-36 44t-62 30t-72 20t-88.5 17.5q-7 1 -11 2t-10.5 2t-11.5 2q-47 9 -81 16.5t-79 21.5t-76.5 29.5t-65 40t-54 53.5t-34 69t-13.5 88q0 148 120 235.5
t314 87.5q199 0 327 -90.5t148 -243.5l-166 -47q-20 110 -104 167t-213 57q-108 0 -168 -40.5t-60 -113.5q0 -28 9 -50.5t30.5 -38.5t42.5 -27.5t58.5 -21.5t65 -16t75.5 -15q24 -5 37 -7q51 -9 85.5 -17t79.5 -21.5t75.5 -29t62.5 -39.5t51 -53t31 -69t12 -89
q0 -167 -124 -258.5t-343 -91.5q-222 0 -349.5 98t-141.5 277z" />
    <glyph glyph-name="Scedilla" unicode="&#x15e;" horiz-adv-x="1325" 
d="M782 813q100 -18 174 -45t138.5 -74.5t98.5 -123.5t34 -179q0 -190 -137.5 -301.5t-368.5 -122.5q-10 -40 -55 -76l16 -20q28 14 78 14q84 0 136 -50.5t52 -131.5q0 -99 -80 -160t-206 -61q-65 0 -126 18t-98 49l39 105q79 -57 182 -57q72 0 113 30t41 82
q0 43 -28.5 69.5t-75.5 26.5q-44 0 -82 -20l-72 35l45 147q-233 19 -363.5 145t-136.5 328l189 33q6 -163 109.5 -247.5t281.5 -84.5q162 0 250 63.5t88 170.5q0 54 -17.5 94t-45.5 66.5t-78.5 47t-101 32.5t-128.5 26q-89 15 -157.5 34.5t-135 52t-109.5 76t-69 108
t-26 145.5q0 194 142.5 301.5t379.5 107.5q158 0 282 -53t196 -149.5t79 -223.5l-195 -41q-13 143 -109.5 219t-254.5 76q-151 0 -232.5 -59.5t-81.5 -161.5q0 -42 11 -74.5t38 -57.5t58 -42.5t85 -33.5t104 -27t130 -25z" />
    <glyph glyph-name="scedilla" unicode="&#x15f;" horiz-adv-x="1112" 
d="M594 -35q-12 -43 -55 -74l16 -20q28 14 78 14q84 0 136 -50.5t52 -131.5q0 -99 -80 -160t-206 -61q-65 0 -126 18t-98 49l39 105q79 -57 182 -57q72 0 113 30t41 82q0 43 -28.5 69.5t-75.5 26.5q-44 0 -82 -20l-72 35l45 149q-182 20 -285.5 116t-115.5 255l172 53
q13 -133 96 -201.5t231 -68.5q122 0 189 45t67 129q0 37 -15.5 64.5t-36 44t-62 30t-72 20t-88.5 17.5q-7 1 -11 2t-10.5 2t-11.5 2q-47 9 -81 16.5t-79 21.5t-76.5 29.5t-65 40t-54 53.5t-34 69t-13.5 88q0 148 120 235.5t314 87.5q199 0 327 -90.5t148 -243.5l-166 -47
q-20 110 -104 167t-213 57q-108 0 -168 -40.5t-60 -113.5q0 -28 9 -50.5t30.5 -38.5t42.5 -27.5t58.5 -21.5t65 -16t75.5 -15q24 -5 37 -7q51 -9 85.5 -17t79.5 -21.5t75.5 -29t62.5 -39.5t51 -53t31 -69t12 -89q0 -161 -115.5 -251.5t-320.5 -98.5z" />
    <glyph glyph-name="Scaron" unicode="&#x160;" horiz-adv-x="1325" 
d="M541 1587l-205 283h192l43 -70q4 -7 13.5 -22.5t15.5 -25.5t13.5 -26t13.5 -32h63q10 29 55 106l43 70h193l-205 -283h-235zM100 440l189 33q6 -163 109.5 -247.5t281.5 -84.5q162 0 250 63.5t88 170.5q0 54 -17.5 94t-45.5 66.5t-78.5 47t-101 32.5t-128.5 26
q-89 15 -157.5 34.5t-135 52t-109.5 76t-69 108t-26 145.5q0 194 142.5 301.5t379.5 107.5q158 0 282 -53t196 -149.5t79 -223.5l-195 -41q-13 143 -109.5 219t-254.5 76q-151 0 -232.5 -59.5t-81.5 -161.5q0 -42 11 -74.5t38 -57.5t58 -42.5t85 -33.5t104 -27t130 -25
q100 -18 174 -45t138.5 -74.5t98.5 -123.5t34 -179q0 -201 -152 -313.5t-405 -112.5q-264 0 -414 128.5t-156 346.5z" />
    <glyph glyph-name="scaron" unicode="&#x161;" horiz-adv-x="1112" 
d="M424 1274l-205 282h193l43 -69q44 -75 55 -107h63q6 16 13.5 32t13 26t15.5 26.5t14 22.5l43 69h192l-205 -282h-235zM72 340l172 53q13 -133 96 -201.5t231 -68.5q122 0 189 45t67 129q0 37 -15.5 64.5t-36 44t-62 30t-72 20t-88.5 17.5q-7 1 -11 2t-10.5 2t-11.5 2
q-47 9 -81 16.5t-79 21.5t-76.5 29.5t-65 40t-54 53.5t-34 69t-13.5 88q0 148 120 235.5t314 87.5q199 0 327 -90.5t148 -243.5l-166 -47q-20 110 -104 167t-213 57q-108 0 -168 -40.5t-60 -113.5q0 -28 9 -50.5t30.5 -38.5t42.5 -27.5t58.5 -21.5t65 -16t75.5 -15
q24 -5 37 -7q51 -9 85.5 -17t79.5 -21.5t75.5 -29t62.5 -39.5t51 -53t31 -69t12 -89q0 -167 -124 -258.5t-343 -91.5q-222 0 -349.5 98t-141.5 277z" />
    <glyph glyph-name="uni0162" unicode="&#x162;" horiz-adv-x="1255" 
d="M731 0h-41q0 -62 -61 -109l16 -20q28 14 78 14q84 0 136 -50.5t52 -131.5q0 -99 -80 -160t-206 -61q-65 0 -126 18t-98 49l39 105q79 -57 183 -57q72 0 112.5 29.5t40.5 82.5q0 43 -28.5 69.5t-75.5 26.5q-44 0 -82 -20l-72 35l55 180h-49v1247h-475v187h1157v-187h-475
v-1247z" />
    <glyph glyph-name="uni0163" unicode="&#x163;" horiz-adv-x="825" 
d="M618 -115q84 0 136.5 -50.5t52.5 -131.5q0 -99 -80.5 -160t-206.5 -61q-65 0 -125.5 18t-97.5 49l39 105q79 -57 182 -57q72 0 113 30t41 82q0 43 -29 69.5t-76 26.5q-44 0 -82 -20l-71 35l49 162q-82 11 -132 52t-68.5 99.5t-18.5 142.5v642h-209v167h209v279l198 37
v-316h310v-167h-310v-605q0 -83 29.5 -116t106.5 -33q69 0 133 31l-25 -193q-43 -16 -102 -22q-8 -48 -60 -89l17 -20q28 14 77 14z" />
    <glyph glyph-name="Tcaron" unicode="&#x164;" horiz-adv-x="1255" 
d="M948 1864l-205 -283h-235l-205 283h193l43 -70q45 -77 55 -106h63q6 16 13.5 32t13.5 26t15.5 25.5t13.5 22.5l43 70h192zM49 1434h1157v-187h-475v-1247h-207v1247h-475v187z" />
    <glyph glyph-name="tcaron" unicode="&#x165;" horiz-adv-x="786" 
d="M897 1380l-125 -194l-96 53l82 127q-39 9 -62.5 41.5t-23.5 75.5q0 55 37 88t94 33q58 0 93.5 -34t35.5 -87q0 -48 -35 -103zM530 -27q-159 0 -222.5 77.5t-63.5 221.5v646h-209v167h209v279l198 37v-316h310v-167h-310v-607q0 -84 29.5 -116.5t106.5 -32.5q76 0 133 31
l-25 -193q-66 -27 -156 -27z" />
    <glyph glyph-name="Tbar" unicode="&#x166;" horiz-adv-x="1257" 
d="M1206 1434v-187h-475v-424h313v-170h-313v-653h-205v653h-311v170h311v424h-475v187h1155z" />
    <glyph glyph-name="tbar" unicode="&#x167;" horiz-adv-x="825" 
d="M752 1085v-167h-310v-252h310l-23 -150h-287v-205q0 -84 29.5 -116.5t106.5 -32.5q76 0 133 31l-25 -193q-66 -27 -156 -27q-159 0 -222.5 77.5t-63.5 221.5v244h-209v150h209v252h-209v167h209v279l198 37v-316h310z" />
    <glyph glyph-name="Umacron" unicode="&#x16a;" 
d="M385 1624v154h676v-154h-676zM160 547v887h207v-875q0 -203 83 -304t273 -101q188 0 271 101.5t83 303.5v875h207v-887q0 -287 -144 -434.5t-417 -147.5q-275 0 -419 148t-144 434z" />
    <glyph glyph-name="umacron" unicode="&#x16b;" horiz-adv-x="1277" 
d="M301 1317v153h676v-153h-676zM1143 1085v-1085h-189v14q7 108 37 201l-65 21q-48 -126 -154 -198.5t-250 -72.5q-188 0 -293.5 119t-105.5 336v665h201v-626q0 -155 71.5 -234.5t204.5 -79.5q122 0 210.5 63.5t133.5 190.5v686h199z" />
    <glyph glyph-name="Uring" unicode="&#x16e;" 
d="M451 1800q-1 110 77 176t195 66q119 0 195.5 -67t76.5 -175q0 -110 -77.5 -175.5t-194.5 -65.5q-120 0 -196.5 66.5t-75.5 174.5zM592 1800q0 -60 37.5 -92.5t93.5 -32.5q57 0 93 34t36 91t-36 91t-93 34t-94 -33t-37 -92zM160 547v887h207v-875q0 -203 83 -304t273 -101
q188 0 271 101.5t83 303.5v875h207v-887q0 -287 -144 -434.5t-417 -147.5q-275 0 -419 148t-144 434z" />
    <glyph glyph-name="uring" unicode="&#x16f;" horiz-adv-x="1277" 
d="M369 1493q-1 110 77 176t195 66q119 0 195.5 -67t76.5 -175q0 -110 -77.5 -176t-194.5 -66q-120 0 -196.5 67t-75.5 175zM510 1493q0 -60 37.5 -92.5t93.5 -32.5q57 0 93 34t36 91t-36 91t-93 34t-94 -33t-37 -92zM1143 1085v-1085h-189v14q7 108 37 201l-65 21
q-48 -126 -154 -198.5t-250 -72.5q-188 0 -293.5 119t-105.5 336v665h201v-626q0 -155 71.5 -234.5t204.5 -79.5q122 0 210.5 63.5t133.5 190.5v686h199z" />
    <glyph glyph-name="Uhungarumlaut" unicode="&#x170;" 
d="M559 1864h225l-155 -283h-150zM967 1864h225l-215 -283h-162zM160 547v887h207v-875q0 -203 83 -304t273 -101q188 0 271 101.5t83 303.5v875h207v-887q0 -287 -144 -434.5t-417 -147.5q-275 0 -419 148t-144 434z" />
    <glyph glyph-name="uhungarumlaut" unicode="&#x171;" horiz-adv-x="1277" 
d="M477 1556h225l-155 -282h-150zM885 1556h225l-215 -282h-162zM1143 1085v-1085h-189v14q7 108 37 201l-65 21q-48 -126 -154 -198.5t-250 -72.5q-188 0 -293.5 119t-105.5 336v665h201v-626q0 -155 71.5 -234.5t204.5 -79.5q122 0 210.5 63.5t133.5 190.5v686h199z" />
    <glyph glyph-name="Uogonek" unicode="&#x172;" 
d="M1077 559v875h207v-887q0 -268 -125.5 -414.5t-365.5 -165.5q-74 -55 -74 -137q0 -60 38 -94.5t107 -34.5q45 0 92 16t80 45l47 -116q-36 -32 -101.5 -53t-135.5 -21q-120 0 -192 64t-72 165q0 93 67 166q-239 20 -364 167t-125 413v887h207v-875q0 -203 83 -304
t273 -101q188 0 271 101.5t83 303.5z" />
    <glyph glyph-name="uogonek" unicode="&#x173;" horiz-adv-x="1277" 
d="M1257 -258l48 -117q-36 -32 -102 -53t-136 -21q-120 0 -192 64.5t-72 165.5q0 71 40.5 132.5t110.5 98.5v2q7 108 37 201l-65 21q-48 -126 -154 -198.5t-250 -72.5q-188 0 -293.5 119t-105.5 336v665h201v-626q0 -155 71.5 -234.5t204.5 -79.5q122 0 210.5 63.5
t133.5 190.5v686h199v-1085h-17v-2q-85 -18 -135.5 -70.5t-50.5 -117.5q0 -60 38 -94.5t107 -34.5q45 0 92 16t80 45z" />
    <glyph glyph-name="Wcircumflex" unicode="&#x174;" horiz-adv-x="1949" 
d="M844 1581h-193l205 283h236l204 -283h-192l-43 70q-44 76 -55 108h-64q-11 -32 -55 -108zM367 0l-318 1434h213l152 -727q34 -169 43 -465h78q30 214 104 446l244 746h184l248 -756q67 -210 100 -436h80q10 309 41 458l152 734h213l-316 -1434h-239l-261 805
q-72 221 -79 405h-62q-9 -170 -82 -407l-260 -803h-235z" />
    <glyph glyph-name="wcircumflex" unicode="&#x175;" horiz-adv-x="1642" 
d="M690 1274h-192l204 282h236l205 -282h-193l-43 69q-43 74 -55 109h-64q-12 -35 -55 -109zM303 0l-274 1085h202l103 -428q53 -217 59 -444h72q23 163 110 428l152 444h188l152 -444q94 -278 111 -428h71q6 211 62 444l102 428h201l-273 -1085h-231l-160 465
q-80 248 -92 438h-74q-11 -181 -90 -438l-159 -465h-232z" />
    <glyph glyph-name="Ycircumflex" unicode="&#x176;" horiz-adv-x="1378" 
d="M559 1581h-192l204 283h236l205 -283h-193l-43 70q-44 76 -55 108h-64q-11 -32 -55 -108zM588 561l-553 873h237l203 -332q48 -84 71.5 -126.5t60 -123t42.5 -125.5h82q14 95 174 375l201 332h237l-548 -873v-561h-207v561z" />
    <glyph glyph-name="ycircumflex" unicode="&#x177;" horiz-adv-x="1200" 
d="M469 1274h-193l205 282h236l205 -282h-193l-43 69q-43 74 -55 109h-64q-12 -35 -55 -109zM250 -496q-84 0 -141 31v182q47 -24 122 -24q148 0 218 172l51 125l-473 1095h221l219 -544q45 -118 66.5 -189t35.5 -155h72q31 166 102 344l209 544h219l-530 -1269
q-20 -49 -40 -87.5t-54 -82.5t-73 -73.5t-97 -49t-127 -19.5z" />
    <glyph glyph-name="Ydieresis" unicode="&#x178;" horiz-adv-x="1378" 
d="M438 1579q-66 0 -104.5 35.5t-38.5 101.5t38.5 102.5t104.5 36.5q67 0 107.5 -36.5t40.5 -102.5q0 -65 -40.5 -101t-107.5 -36zM940 1579q-66 0 -105.5 35.5t-39.5 101.5t39.5 102.5t105.5 36.5q67 0 106 -36.5t39 -102.5q0 -65 -39 -101t-106 -36zM588 561l-553 873h237
l203 -332q48 -84 71.5 -126.5t60 -123t42.5 -125.5h82q14 95 174 375l201 332h237l-548 -873v-561h-207v561z" />
    <glyph glyph-name="Zacute" unicode="&#x179;" horiz-adv-x="1290" 
d="M662 1864h233l-176 -283h-150zM1200 0h-1110v178l860 1106l-51 57q-91 -94 -301 -94h-489v187h1075v-179l-860 -1105l49 -58q94 94 309 94h518v-186z" />
    <glyph glyph-name="zacute" unicode="&#x17a;" horiz-adv-x="1064" 
d="M555 1556h233l-176 -282h-149zM997 0h-919v174l692 764l-47 53q-53 -40 -110 -56.5t-142 -16.5h-379v167h891v-174l-690 -764l45 -53q47 41 105 57.5t149 16.5h405v-168z" />
    <glyph glyph-name="Zdotaccent" unicode="&#x17b;" horiz-adv-x="1290" 
d="M645 1579q-66 0 -105.5 35.5t-39.5 101.5t39.5 102.5t105.5 36.5q67 0 106.5 -36.5t39.5 -102.5q0 -65 -39.5 -101t-106.5 -36zM1200 0h-1110v178l860 1106l-51 57q-91 -94 -301 -94h-489v187h1075v-179l-860 -1105l49 -58q94 94 309 94h518v-186z" />
    <glyph glyph-name="zdotaccent" unicode="&#x17c;" horiz-adv-x="1064" 
d="M539 1272q-66 0 -106 35.5t-40 101.5t40 102.5t106 36.5q67 0 106 -36.5t39 -102.5q0 -65 -39 -101t-106 -36zM997 0h-919v174l692 764l-47 53q-53 -40 -110 -56.5t-142 -16.5h-379v167h891v-174l-690 -764l45 -53q47 41 105 57.5t149 16.5h405v-168z" />
    <glyph glyph-name="Zcaron" unicode="&#x17d;" horiz-adv-x="1290" 
d="M526 1581l-204 283h192l43 -70q45 -77 55 -106h64q10 29 55 106l43 70h193l-205 -283h-236zM1200 0h-1110v178l860 1106l-51 57q-91 -94 -301 -94h-489v187h1075v-179l-860 -1105l49 -58q94 94 309 94h518v-186z" />
    <glyph glyph-name="zcaron" unicode="&#x17e;" horiz-adv-x="1064" 
d="M420 1274l-205 282h193l43 -69q44 -75 55 -107h63q6 16 13.5 32t13 26t15.5 26.5t14 22.5l43 69h192l-205 -282h-235zM997 0h-919v174l692 764l-47 53q-53 -40 -110 -56.5t-142 -16.5h-379v167h891v-174l-690 -764l45 -53q47 41 105 57.5t149 16.5h405v-168z" />
    <glyph glyph-name="uni0218" unicode="&#x218;" horiz-adv-x="1325" 
d="M100 440l189 33q6 -163 109.5 -247.5t281.5 -84.5q162 0 250 63.5t88 170.5q0 54 -17.5 94t-45.5 66.5t-78.5 47t-101 32.5t-128.5 26q-89 15 -157.5 34.5t-135 52t-109.5 76t-69 108t-26 145.5q0 194 142.5 301.5t379.5 107.5q158 0 282 -53t196 -149.5t79 -223.5
l-195 -41q-13 143 -109.5 219t-254.5 76q-151 0 -232.5 -59.5t-81.5 -161.5q0 -42 11 -74.5t38 -57.5t58 -42.5t85 -33.5t104 -27t130 -25q100 -18 174 -45t138.5 -74.5t98.5 -123.5t34 -179q0 -201 -152 -313.5t-405 -112.5q-264 0 -414 128.5t-156 346.5zM553 -170h233
l-174 -281h-151z" />
    <glyph glyph-name="uni0219" unicode="&#x219;" horiz-adv-x="1112" 
d="M72 340l172 53q13 -133 96 -201.5t231 -68.5q122 0 189 45t67 129q0 37 -15.5 64.5t-36 44t-62 30t-72 20t-88.5 17.5q-7 1 -11 2t-10.5 2t-11.5 2q-47 9 -81 16.5t-79 21.5t-76.5 29.5t-65 40t-54 53.5t-34 69t-13.5 88q0 148 120 235.5t314 87.5q199 0 327 -90.5
t148 -243.5l-166 -47q-20 110 -104 167t-213 57q-108 0 -168 -40.5t-60 -113.5q0 -28 9 -50.5t30.5 -38.5t42.5 -27.5t58.5 -21.5t65 -16t75.5 -15q24 -5 37 -7q51 -9 85.5 -17t79.5 -21.5t75.5 -29t62.5 -39.5t51 -53t31 -69t12 -89q0 -167 -124 -258.5t-343 -91.5
q-222 0 -349.5 98t-141.5 277zM426 -170h233l-174 -281h-151z" />
    <glyph glyph-name="uni021A" unicode="&#x21a;" horiz-adv-x="1255" 
d="M49 1247v187h1157v-187h-475v-1247h-207v1247h-475zM575 -451h-151l92 281h234z" />
    <glyph glyph-name="uni021B" unicode="&#x21b;" horiz-adv-x="825" 
d="M530 -23q-159 0 -222.5 77.5t-63.5 221.5v642h-209v167h209v279l198 37v-316h310v-167h-310v-605q0 -83 29.5 -116t106.5 -33q69 0 133 31l-25 -193q-70 -25 -156 -25zM412 -170h233l-174 -281h-152z" />
    <glyph glyph-name="uni0237" unicode="&#x237;" horiz-adv-x="499" 
d="M356 1085v-1198q0 -190 -93.5 -285.5t-270.5 -95.5q-64 0 -96 13l-31 170q33 -8 86 -8q112 0 157.5 55.5t45.5 167.5v1181h202z" />
    <glyph glyph-name="circumflex" unicode="&#x2c6;" horiz-adv-x="858" 
d="M299 1274h-193l205 282h236l205 -282h-193l-43 69q-43 74 -55 109h-64q-12 -35 -55 -109z" />
    <glyph glyph-name="caron" unicode="&#x2c7;" horiz-adv-x="858" 
d="M311 1274l-205 282h193l43 -69q44 -75 55 -107h64q11 32 55 107l43 69h193l-205 -282h-236z" />
    <glyph glyph-name="breve" unicode="&#x2d8;" horiz-adv-x="839" 
d="M100 1556h170q0 -82 40.5 -121.5t111.5 -39.5q73 0 110 42t37 119h170q1 -134 -85.5 -214t-231.5 -80q-147 0 -235 80t-87 214z" />
    <glyph glyph-name="dotaccent" unicode="&#x2d9;" horiz-adv-x="505" 
d="M252 1272q-66 0 -106 35.5t-40 101.5t40 102.5t106 36.5q67 0 106 -36.5t39 -102.5q0 -65 -39 -101t-106 -36z" />
    <glyph glyph-name="ring" unicode="&#x2da;" horiz-adv-x="702" 
d="M80 1493q-1 110 77 176t195 66q119 0 196 -67t77 -175q0 -110 -78 -176t-195 -66q-120 0 -196.5 67t-75.5 175zM221 1493q0 -60 37.5 -92.5t93.5 -32.5q57 0 93 34t36 91t-36 91t-93 34t-94 -33t-37 -92z" />
    <glyph glyph-name="ogonek" unicode="&#x2db;" horiz-adv-x="763" 
d="M377 47l72 -20l6 -29q-85 -19 -136 -71t-51 -117q0 -60 38.5 -94.5t107.5 -34.5q45 0 92 16t80 45l47 -117q-36 -32 -102 -53t-136 -21q-120 0 -192 64.5t-72 165.5q0 93 68 167t178 99z" />
    <glyph glyph-name="tilde" unicode="&#x2dc;" horiz-adv-x="792" 
d="M205 1270h-119q-15 146 28 223.5t130 77.5q30 0 56.5 -8t54.5 -28t40 -30t41 -37q64 -57 99 -57q60 0 51 158h121q15 -147 -28 -225t-130 -78q-90 0 -197 102q-21 20 -30.5 28t-28.5 17.5t-37 9.5q-33 0 -44.5 -38t-6.5 -115z" />
    <glyph glyph-name="hungarumlaut" unicode="&#x2dd;" horiz-adv-x="1011" 
d="M229 1556h226l-156 -282h-149zM637 1556h225l-215 -282h-162z" />
    <glyph glyph-name="gravecomb" unicode="&#x300;" horiz-adv-x="0" 
d="M-250 1274l-174 282h234l92 -282h-152z" />
    <glyph glyph-name="acutecomb" unicode="&#x301;" horiz-adv-x="0" 
d="M-330 1556h234l-176 -282h-150z" />
    <glyph glyph-name="uni0302" unicode="&#x302;" horiz-adv-x="0" 
d="M-559 1274h-193l205 282h236l205 -282h-193l-43 69q-43 74 -55 109h-64q-12 -35 -55 -109z" />
    <glyph glyph-name="tildecomb" unicode="&#x303;" horiz-adv-x="0" 
d="M-588 1270h-119q-15 146 28 223.5t130 77.5q39 0 79 -19t59 -35t55 -49q22 -20 34.5 -29.5t30 -18.5t33.5 -9q60 0 51 158h121q15 -147 -28 -225t-130 -78q-40 0 -81 19t-63 37t-52 46q-20 19 -30.5 27.5t-29.5 18t-37 9.5q-33 0 -44.5 -38t-6.5 -115z" />
    <glyph glyph-name="uni0304" unicode="&#x304;" horiz-adv-x="0" 
d="M-823 1317v153h676v-153h-676z" />
    <glyph glyph-name="uni0306" unicode="&#x306;" horiz-adv-x="0" 
d="M-739 1556h170q0 -82 40 -121.5t111 -39.5q74 0 111 42t37 119h170q1 -134 -86 -214t-232 -80q-147 0 -234.5 80t-86.5 214z" />
    <glyph glyph-name="uni0307" unicode="&#x307;" horiz-adv-x="0" 
d="M-254 1272q-66 0 -105.5 35.5t-39.5 101.5t39.5 102.5t105.5 36.5q67 0 106 -36.5t39 -102.5q0 -65 -39 -101t-106 -36z" />
    <glyph glyph-name="uni0308" unicode="&#x308;" horiz-adv-x="0" 
d="M-760 1272q-66 0 -104.5 35.5t-38.5 101.5t38.5 102.5t104.5 36.5q67 0 107.5 -36.5t40.5 -102.5q0 -65 -40.5 -101t-107.5 -36zM-258 1272q-66 0 -105.5 35.5t-39.5 101.5t39.5 102.5t105.5 36.5q67 0 106 -36.5t39 -102.5q0 -65 -39 -101t-106 -36z" />
    <glyph glyph-name="uni030A" unicode="&#x30a;" horiz-adv-x="0" 
d="M-623 1493q-1 110 77.5 176t195.5 66q119 0 195.5 -67t76.5 -175q0 -110 -77.5 -176t-194.5 -66q-120 0 -197 67t-76 175zM-481 1493q0 -60 37.5 -92.5t93.5 -32.5q57 0 93 34t36 91t-36 91t-93 34t-94 -33t-37 -92z" />
    <glyph glyph-name="uni030B" unicode="&#x30b;" horiz-adv-x="0" 
d="M-782 1556h225l-156 -282h-149zM-375 1556h225l-215 -282h-161z" />
    <glyph glyph-name="uni030C" unicode="&#x30c;" horiz-adv-x="0" 
d="M-547 1274l-205 282h193l43 -69q44 -75 55 -107h64q11 32 55 107l43 69h193l-205 -282h-236z" />
    <glyph glyph-name="uni0312" unicode="&#x312;" horiz-adv-x="0" 
d="M-393 1501l135 209l104 -57l-88 -137q44 -9 69.5 -43.5t25.5 -81.5q0 -60 -41.5 -97t-102.5 -37q-62 0 -100.5 37.5t-38.5 96.5q0 51 37 110z" />
    <glyph glyph-name="uni0326" unicode="&#x326;" horiz-adv-x="0" 
d="M-555 -170h233l-174 -281h-151z" />
    <glyph glyph-name="uni0327" unicode="&#x327;" horiz-adv-x="0" 
d="M-395 -109l16 -20q28 14 78 14q84 0 136 -50.5t52 -131.5q0 -99 -80 -160t-206 -61q-65 0 -126 18t-98 49l39 105q79 -57 183 -57q72 0 112.5 29.5t40.5 82.5q0 43 -28.5 69.5t-75.5 26.5q-44 0 -82 -20l-72 35l60 194l112 4v-18q0 -62 -61 -109z" />
    <glyph glyph-name="uni0328" unicode="&#x328;" horiz-adv-x="0" 
d="M-387 47l72 -20l6 -29q-85 -19 -136 -71t-51 -117q0 -60 38.5 -94.5t107.5 -34.5q45 0 92 16t80 45l47 -117q-36 -32 -102 -53t-136 -21q-120 0 -192 64.5t-72 165.5q0 93 68 167t178 99z" />
    <glyph glyph-name="Wgrave" unicode="&#x1e80;" horiz-adv-x="1949" 
d="M897 1581l-174 283h233l93 -283h-152zM367 0l-318 1434h213l152 -727q34 -169 43 -465h78q30 214 104 446l244 746h184l248 -756q67 -210 100 -436h80q10 309 41 458l152 734h213l-316 -1434h-239l-261 805q-72 221 -79 405h-62q-9 -170 -82 -407l-260 -803h-235z" />
    <glyph glyph-name="wgrave" unicode="&#x1e81;" horiz-adv-x="1642" 
d="M743 1274l-174 282h234l92 -282h-152zM303 0l-274 1085h202l103 -428q53 -217 59 -444h72q23 163 110 428l152 444h188l152 -444q94 -278 111 -428h71q6 211 62 444l102 428h201l-273 -1085h-231l-160 465q-80 248 -92 438h-74q-11 -181 -90 -438l-159 -465h-232z" />
    <glyph glyph-name="Wacute" unicode="&#x1e82;" horiz-adv-x="1949" 
d="M991 1864h234l-176 -283h-150zM367 0l-318 1434h213l152 -727q34 -169 43 -465h78q30 214 104 446l244 746h184l248 -756q67 -210 100 -436h80q10 309 41 458l152 734h213l-316 -1434h-239l-261 805q-72 221 -79 405h-62q-9 -170 -82 -407l-260 -803h-235z" />
    <glyph glyph-name="wacute" unicode="&#x1e83;" horiz-adv-x="1642" 
d="M838 1556h233l-176 -282h-150zM303 0l-274 1085h202l103 -428q53 -217 59 -444h72q23 163 110 428l152 444h188l152 -444q94 -278 111 -428h71q6 211 62 444l102 428h201l-273 -1085h-231l-160 465q-80 248 -92 438h-74q-11 -181 -90 -438l-159 -465h-232z" />
    <glyph glyph-name="Wdieresis" unicode="&#x1e84;" horiz-adv-x="1949" 
d="M723 1579q-66 0 -104.5 35.5t-38.5 101.5t38.5 102.5t104.5 36.5q67 0 107 -36.5t40 -102.5q0 -65 -40 -101t-107 -36zM1225 1579q-66 0 -106 35.5t-40 101.5t40 102.5t106 36.5q67 0 106 -36.5t39 -102.5q0 -65 -39 -101t-106 -36zM367 0l-318 1434h213l152 -727
q34 -169 43 -465h78q30 214 104 446l244 746h184l248 -756q67 -210 100 -436h80q10 309 41 458l152 734h213l-316 -1434h-239l-261 805q-72 221 -79 405h-62q-9 -170 -82 -407l-260 -803h-235z" />
    <glyph glyph-name="wdieresis" unicode="&#x1e85;" horiz-adv-x="1642" 
d="M569 1272q-66 0 -104.5 35.5t-38.5 101.5t38.5 102.5t104.5 36.5q67 0 107.5 -36.5t40.5 -102.5q0 -65 -40.5 -101t-107.5 -36zM1071 1272q-66 0 -105.5 35.5t-39.5 101.5t39.5 102.5t105.5 36.5q67 0 106.5 -36.5t39.5 -102.5q0 -65 -39.5 -101t-106.5 -36zM303 0
l-274 1085h202l103 -428q53 -217 59 -444h72q23 163 110 428l152 444h188l152 -444q94 -278 111 -428h71q6 211 62 444l102 428h201l-273 -1085h-231l-160 465q-80 248 -92 438h-74q-11 -181 -90 -438l-159 -465h-232z" />
    <glyph glyph-name="uni1E9E" unicode="&#x1e9e;" horiz-adv-x="1462" 
d="M842 -35q-165 0 -254 47v183q86 -45 219 -45q163 0 255.5 74t92.5 204q0 123 -79 194.5t-218 71.5q-75 0 -129 -14v158l346 374v35h-692v-1247h-211v1434h1112v-250l-313 -340v-47q185 -4 290 -115.5t105 -282.5q0 -135 -68 -234.5t-186 -149.5t-270 -50z" />
    <glyph glyph-name="Ygrave" unicode="&#x1ef2;" horiz-adv-x="1378" 
d="M612 1581l-174 283h234l92 -283h-152zM588 561l-553 873h237l203 -332q48 -84 71.5 -126.5t60 -123t42.5 -125.5h82q14 95 174 375l201 332h237l-548 -873v-561h-207v561z" />
    <glyph glyph-name="ygrave" unicode="&#x1ef3;" horiz-adv-x="1200" 
d="M522 1274l-174 282h234l92 -282h-152zM250 -496q-84 0 -141 31v182q47 -24 122 -24q148 0 218 172l51 125l-473 1095h221l219 -544q45 -118 66.5 -189t35.5 -155h72q31 166 102 344l209 544h219l-530 -1269q-20 -49 -40 -87.5t-54 -82.5t-73 -73.5t-97 -49t-127 -19.5z
" />
    <glyph glyph-name="endash" unicode="&#x2013;" horiz-adv-x="1130" 
d="M90 578v176h948v-176h-948z" />
    <glyph glyph-name="emdash" unicode="&#x2014;" horiz-adv-x="1724" 
d="M96 578v176h1532v-176h-1532z" />
    <glyph glyph-name="quoteleft" unicode="&#x2018;" horiz-adv-x="528" 
d="M160 1208l174 271l106 -58l-125 -194q45 -11 72 -45.5t27 -87.5q0 -63 -41 -99.5t-107 -36.5q-65 0 -104 36t-39 100q0 55 37 114z" />
    <glyph glyph-name="quoteright" unicode="&#x2019;" horiz-adv-x="520" 
d="M369 1229l-172 -271l-107 56l125 196q-46 9 -73 44t-27 87q0 65 40.5 101.5t106.5 36.5t106 -36.5t40 -101.5q0 -54 -39 -112z" />
    <glyph glyph-name="quotesinglbase" unicode="&#x201a;" horiz-adv-x="542" 
d="M369 8l-172 -270l-107 57l125 195q-47 11 -73.5 45.5t-26.5 87.5q0 63 40.5 99t106.5 36t106 -36t40 -99q0 -57 -39 -115z" />
    <glyph glyph-name="quotedblleft" unicode="&#x201c;" horiz-adv-x="966" 
d="M145 1208l172 271l107 -58l-125 -194q46 -11 72 -45.5t26 -87.5q0 -64 -39.5 -100t-105.5 -36t-106 36.5t-40 99.5q0 56 39 114zM596 1208l172 271l106 -58l-124 -194q46 -11 72 -45.5t26 -87.5q0 -63 -40 -99.5t-106 -36.5t-105.5 36t-39.5 100q0 56 39 114z" />
    <glyph glyph-name="quotedblright" unicode="&#x201d;" horiz-adv-x="978" 
d="M369 1229l-172 -271l-107 56l125 196q-46 9 -73 44t-27 87q0 65 40.5 101.5t106.5 36.5t106 -36.5t40 -101.5q0 -54 -39 -112zM819 1229l-172 -271l-106 56l125 196q-46 9 -73.5 44t-27.5 87q0 65 41 101.5t107 36.5t105.5 -36.5t39.5 -101.5q0 -54 -39 -112z" />
    <glyph glyph-name="quotedblbase" unicode="&#x201e;" horiz-adv-x="976" 
d="M371 8l-174 -270l-107 57l125 195q-46 11 -72 45.5t-26 87.5q0 63 40.5 99t106.5 36t105 -35.5t39 -99.5q0 -56 -37 -115zM797 8l-172 -270l-107 57l125 195q-47 11 -73.5 45.5t-26.5 87.5q0 63 40.5 99t106.5 36t106 -36t40 -99q0 -57 -39 -115z" />
    <glyph glyph-name="dagger" unicode="&#x2020;" horiz-adv-x="897" 
d="M530 1167h252v-153h-252v-729h-163v729h-252v153h252v267h163v-267z" />
    <glyph glyph-name="daggerdbl" unicode="&#x2021;" horiz-adv-x="897" 
d="M782 1167v-153h-252v-312h252v-153h-252v-264h-163v264h-252v153h252v312h-252v153h252v267h163v-267h252z" />
    <glyph glyph-name="bullet" unicode="&#x2022;" horiz-adv-x="886" 
d="M160 530q0 129 79 207t205 78q127 0 205 -77.5t78 -207.5q0 -131 -78 -207.5t-205 -76.5t-205.5 76.5t-78.5 207.5z" />
    <glyph glyph-name="ellipsis" unicode="&#x2026;" horiz-adv-x="1507" 
d="M285 -18q-66 0 -106 36.5t-40 102.5t40 101.5t106 35.5q68 0 107.5 -35.5t39.5 -101.5t-40 -102.5t-107 -36.5zM754 -18q-67 0 -106.5 36.5t-39.5 102.5t39.5 101.5t106.5 35.5q68 0 107.5 -35.5t39.5 -101.5t-40 -102.5t-107 -36.5zM1223 -18q-67 0 -107.5 36.5
t-40.5 102.5t40 101.5t108 35.5q67 0 106 -35.5t39 -101.5t-39 -102.5t-106 -36.5z" />
    <glyph glyph-name="perthousand" unicode="&#x2030;" horiz-adv-x="2449" 
d="M1079 -20q-175 0 -278 107t-103 278q0 80 33 172l-53 10q-65 -207 -176 -348l-154 -199h-180v18l313 408q111 141 275 254l-37 49q-35 -33 -87 -52.5t-102 -19.5q-177 0 -275.5 110t-98.5 296q0 192 104 298.5t279 106.5q176 0 279.5 -106t103.5 -277q0 -81 -35 -172
l55 -12q67 212 174 350l156 199h180v-18l-313 -408q-106 -135 -277 -256l37 -47q36 33 87.5 51.5t100.5 18.5q179 0 277 -109t98 -295q0 -192 -104 -299.5t-279 -107.5zM539 797q105 0 159 67t54 199q0 130 -55 199t-158 69q-108 0 -159.5 -71t-51.5 -197q0 -266 211 -266z
M1944 -20q-171 0 -278 106t-107 301q0 100 30 178.5t83 127t122 73.5t150 25q170 0 275 -105t105 -299q0 -198 -106.5 -302.5t-273.5 -104.5zM1079 119q109 0 161 70.5t52 197.5q0 136 -56 201t-157 65q-104 0 -157.5 -67.5t-53.5 -198.5t54 -199.5t157 -68.5zM1944 119
q107 0 158.5 71t51.5 197q0 136 -55.5 201t-154.5 65q-104 0 -158.5 -68t-54.5 -198t55 -199t158 -69z" />
    <glyph glyph-name="guilsinglleft" unicode="&#x2039;" horiz-adv-x="634" 
d="M281 580l260 -482h-199l-262 482l262 481h199z" />
    <glyph glyph-name="guilsinglright" unicode="&#x203a;" horiz-adv-x="636" 
d="M295 98h-199l260 482l-260 481h199l262 -481z" />
    <glyph glyph-name="fraction" unicode="&#x2044;" horiz-adv-x="299" 
d="M-469 0l1077 1434h160l-1077 -1434h-160z" />
    <glyph glyph-name="uni2070" unicode="&#x2070;" horiz-adv-x="995" 
d="M498 596q-186 0 -291 132t-105 353q0 230 108 359t288 129q186 0 289.5 -132.5t103.5 -355.5q0 -229 -106.5 -357t-286.5 -128zM498 733q119 0 180 89.5t61 258.5q0 170 -62 259.5t-179 89.5q-119 0 -180.5 -90t-61.5 -259t62.5 -258.5t179.5 -89.5z" />
    <glyph glyph-name="uni2074" unicode="&#x2074;" horiz-adv-x="1015" 
d="M768 614h-152v203h-542v123l522 606h172v-600h154v-129h-154v-203zM627 1415l-402 -475l33 -35q50 41 172 41h186v230q0 135 56 194z" />
    <glyph glyph-name="uni2075" unicode="&#x2075;" horiz-adv-x="962" 
d="M94 879l139 32q12 -93 78 -140.5t170 -47.5q109 0 169.5 54t60.5 149t-59.5 145.5t-159.5 50.5q-74 0 -137.5 -27.5t-102.5 -78.5l-125 39l68 491h593v-131h-464l-19 -110q-8 -72 -67 -156l47 -33q34 57 104 90t148 33q151 0 239 -86.5t88 -228.5q0 -156 -105 -244
t-276 -88q-163 0 -270 78.5t-119 208.5z" />
    <glyph glyph-name="uni2076" unicode="&#x2076;" horiz-adv-x="1009" 
d="M520 592q-198 0 -304.5 128t-106.5 351q0 236 117.5 367t320.5 131q133 0 230 -65t120 -169l-152 -37q-19 64 -75.5 101t-130.5 37q-135 0 -207.5 -96t-71.5 -279l39 -4q35 77 113.5 122.5t173.5 45.5q143 0 230 -82t87 -223q0 -148 -103.5 -238t-279.5 -90zM526 723
q100 0 162 55.5t62 147.5q0 86 -58 136t-157 50q-85 0 -154.5 -42t-106.5 -112q10 -113 77 -174t175 -61z" />
    <glyph glyph-name="uni2077" unicode="&#x2077;" horiz-adv-x="864" 
d="M324 1413h-244v133h717v-119l-418 -813h-176v11l336 632q59 111 133 183l-39 49q-88 -76 -309 -76z" />
    <glyph glyph-name="uni2078" unicode="&#x2078;" horiz-adv-x="1017" 
d="M102 864q0 88 58 146t155 73v43q-80 16 -129 65t-49 128q0 112 101 181t272 69t271 -69t100 -181q0 -79 -49.5 -128t-129.5 -65v-43q97 -15 155 -73.5t58 -145.5q0 -128 -107.5 -200t-297.5 -72q-191 0 -299.5 71.5t-108.5 200.5zM291 1298q0 -66 57 -105.5t162 -39.5
q104 0 161.5 39.5t57.5 105.5q0 67 -56 105.5t-163 38.5t-163 -38.5t-56 -105.5zM258 889q0 -82 65 -125t187 -43q120 0 185 43.5t65 124.5q0 78 -64.5 122t-185.5 44q-122 0 -187 -44t-65 -122z" />
    <glyph glyph-name="uni2079" unicode="&#x2079;" horiz-adv-x="1011" 
d="M489 1569q199 0 305.5 -128t106.5 -351q0 -235 -117 -366.5t-319 -131.5q-135 0 -232 64.5t-120 168.5l153 39q19 -65 75 -103t130 -38q138 0 210 97.5t69 279.5l-39 4q-33 -75 -110.5 -121.5t-176.5 -46.5q-143 0 -230.5 82t-87.5 223q0 148 104.5 238t278.5 90z
M485 1438q-100 0 -161.5 -55.5t-61.5 -147.5q0 -86 58 -137t157 -51q84 0 153 42t105 113q-12 115 -79 175.5t-171 60.5z" />
    <glyph glyph-name="uni2080" unicode="&#x2080;" horiz-adv-x="995" 
d="M498 -133q-186 0 -291 132t-105 353q0 228 108 357t288 129q186 0 289.5 -132t103.5 -354q0 -229 -106.5 -357t-286.5 -128zM498 4q119 0 180 89.5t61 258.5q0 170 -62 259t-179 89q-119 0 -180.5 -90.5t-61.5 -257.5q0 -170 62.5 -259t179.5 -89z" />
    <glyph glyph-name="uni2081" unicode="&#x2081;" horiz-adv-x="806" 
d="M512 -113h-156v535q0 133 66 213l-39 33q-109 -114 -260 -136v136q84 13 160 55t123 96h106v-932z" />
    <glyph glyph-name="uni2082" unicode="&#x2082;" horiz-adv-x="903" 
d="M801 -113h-695v123l369 277q90 69 125 125t35 118q0 85 -49.5 134t-132.5 49q-95 0 -150 -58t-55 -159l-148 14q3 154 97 243t258 89q148 0 239.5 -82.5t91.5 -218.5q0 -104 -50.5 -182.5t-182.5 -174.5q-135 -104 -256 -176l22 -51q139 61 273 61h209v-131z" />
    <glyph glyph-name="uni2083" unicode="&#x2083;" horiz-adv-x="950" 
d="M477 -133q-178 0 -274 80.5t-105 226.5l140 33q16 -209 241 -209q102 0 159.5 42t57.5 124q0 71 -48 108t-134 37h-127v115h109q92 0 136 38.5t44 102.5q0 73 -51 112.5t-140 39.5q-100 0 -158.5 -50.5t-66.5 -136.5l-139 29q9 131 110.5 208t255.5 77q162 0 252 -69
t90 -181q0 -76 -43.5 -127t-117.5 -72v-49q83 -9 132.5 -65t49.5 -140q0 -125 -99 -199.5t-274 -74.5z" />
    <glyph glyph-name="uni2084" unicode="&#x2084;" horiz-adv-x="1015" 
d="M768 -113h-152v203h-542v123l522 606h172v-600h154v-129h-154v-203zM627 688l-402 -475l33 -35q50 41 172 41h186v230q0 135 56 194z" />
    <glyph glyph-name="uni2085" unicode="&#x2085;" horiz-adv-x="962" 
d="M94 156l139 30q12 -93 78 -140.5t170 -47.5q109 0 169.5 54t60.5 149t-59.5 145.5t-159.5 50.5q-74 0 -137.5 -27.5t-102.5 -78.5l-125 39l68 491h593v-131h-464l-19 -108q-10 -75 -67 -158l47 -33q34 57 104 90t148 33q151 0 239 -86.5t88 -228.5q0 -156 -105 -244
t-276 -88q-163 0 -270 79t-119 210z" />
    <glyph glyph-name="uni2086" unicode="&#x2086;" horiz-adv-x="1009" 
d="M520 -133q-198 0 -304.5 128t-106.5 351q0 236 117.5 367t320.5 131q133 0 230 -65t120 -169l-152 -37q-19 64 -75.5 102t-130.5 38q-135 0 -207.5 -97t-71.5 -280l39 -4q35 77 113.5 122.5t173.5 45.5q143 0 230 -81.5t87 -221.5q0 -149 -103.5 -239.5t-279.5 -90.5z
M526 -2q100 0 162 55.5t62 147.5q0 86 -58.5 137t-156.5 51q-85 0 -154.5 -41.5t-106.5 -111.5q10 -114 77 -176t175 -62z" />
    <glyph glyph-name="uni2087" unicode="&#x2087;" horiz-adv-x="864" 
d="M324 686h-244v133h717v-119l-418 -813h-176v11l336 632q59 111 133 183l-39 49q-88 -76 -309 -76z" />
    <glyph glyph-name="uni2088" unicode="&#x2088;" horiz-adv-x="1017" 
d="M102 139q0 88 58 146t155 73v45q-80 14 -129 63t-49 128q0 113 100.5 181.5t272.5 68.5q171 0 271 -69t100 -181q0 -79 -49.5 -128t-129.5 -63v-45q97 -15 155 -73.5t58 -145.5q0 -129 -107.5 -200.5t-297.5 -71.5q-191 0 -299.5 71.5t-108.5 200.5zM291 573
q0 -66 57 -105.5t162 -39.5q104 0 161.5 39.5t57.5 105.5q0 69 -56 107.5t-163 38.5t-163 -38.5t-56 -107.5zM258 164q0 -80 65.5 -124t186.5 -44q120 0 185 44t65 124q0 78 -64.5 123t-185.5 45q-122 0 -187 -45t-65 -123z" />
    <glyph glyph-name="uni2089" unicode="&#x2089;" horiz-adv-x="1011" 
d="M489 844q199 0 305.5 -128t106.5 -349q0 -236 -116.5 -368t-319.5 -132q-135 0 -232 65t-120 170l153 37q19 -64 75 -102.5t130 -38.5q138 0 210 97.5t69 279.5l-39 6q-33 -76 -110 -122t-177 -46q-143 0 -230.5 82t-87.5 221q0 148 104.5 238t278.5 90zM485 713
q-100 0 -161.5 -54.5t-61.5 -146.5q0 -86 58 -137t157 -51q84 0 153.5 41t104.5 112q-12 115 -79 175.5t-171 60.5z" />
    <glyph glyph-name="uni20A9" unicode="&#x20a9;" horiz-adv-x="2043" 
d="M1810 791h185v-142h-215l-146 -649h-227l-219 649h-336l-221 -649h-223l-144 649h-215v142h184l-143 643h217l133 -643h279l215 643h174l215 -643h276l136 643h219zM907 811l-6 -20h238l-6 20q-74 223 -80 393h-62q-6 -91 -24.5 -178t-59.5 -215zM510 248h61
q34 181 103 401h-203q42 -226 39 -401zM1470 248h64q-3 183 37 401h-201q65 -213 100 -401z" />
    <glyph glyph-name="uni20AA" unicode="&#x20aa;" horiz-adv-x="1607" 
d="M365 0h-193v1434h596q146 0 218.5 -74t72.5 -203v-809h-162v760q0 84 -41 121t-119 37h-372v-1266zM1243 1434h195v-1434h-598q-146 0 -218.5 73.5t-72.5 202.5v809h164v-759q0 -84 40.5 -121t116.5 -37h373v1266z" />
    <glyph glyph-name="Euro" unicode="&#x20ac;" horiz-adv-x="1679" 
d="M928 -35q-256 -3 -452 143t-261 384h-162v131h133q-2 31 -2 94q0 49 2 74h-133v133h156q62 246 260 396.5t459 147.5q254 0 439 -136t237 -371l-199 -54q-42 179 -168.5 276t-308.5 97q-145 1 -258.5 -60t-188.5 -176q-25 -41 -84 -129l25 -32q49 26 120 34.5t183 8.5
h258v-135h-584q-2 -25 -2 -74q0 -32 4 -94l582 2v-136h-258q-111 0 -178 8.5t-115 34.5l-26 -38l94 -129q72 -102 183.5 -157t244.5 -54q184 0 311.5 99.5t169.5 285.5l201 -50q-50 -245 -236.5 -384.5t-445.5 -139.5z" />
    <glyph glyph-name="uni20B9" unicode="&#x20b9;" horiz-adv-x="1193" 
d="M369 555h-197v166h416q136 0 214 52.5t93 150.5h-723v141h725q-34 203 -303 203h-422v166h1081v-140h-90q-98 0 -207 66l-34 -51q168 -82 184 -244h147v-141h-161q-29 -133 -137.5 -207.5t-264.5 -79.5v-62q43 -10 72.5 -22t63.5 -37.5t65 -70.5t63 -113l82 -172
q48 -104 103 -135v-25h-246q-27 25 -66 104l-104 226q-61 131 -135.5 178t-218.5 47z" />
    <glyph glyph-name="uni20BD" unicode="&#x20bd;" horiz-adv-x="1421" 
d="M176 1434h647q237 0 371.5 -119.5t134.5 -327.5q0 -212 -135 -329t-371 -117h-436v-162h361v-156h-361v-223h-211v223h-156v156h156v162h-156v166h156v727zM387 707h422q148 0 228.5 70t80.5 202q0 134 -78.5 202t-228.5 68h-424v-542z" />
    <glyph glyph-name="uni20BF" unicode="&#x20bf;" horiz-adv-x="1421" 
d="M1294 395q0 -177 -109 -278.5t-323 -114.5v-252h-139v250h-195v-250h-139v250h-217v1434h217v241h139v-241h195v241h139v-241q181 -9 281 -99.5t100 -244.5q0 -118 -68 -196.5t-190 -100.5v-62q146 -17 227.5 -106t81.5 -230zM774 1253h-395v-419h385q268 0 268 213
q0 101 -66 153.5t-192 52.5zM379 180h403q303 0 303 248q0 238 -294 238h-412v-486z" />
    <glyph glyph-name="uni2116" unicode="&#x2116;" horiz-adv-x="2607" 
d="M2036 606q-194 0 -321.5 120t-127.5 310q0 191 127.5 310.5t321.5 119.5q195 0 321.5 -119t126.5 -311q0 -191 -126.5 -310.5t-321.5 -119.5zM172 0v1434h238l749 -1127h4v1127h207v-1434h-237l-752 1118h-4v-1118h-205zM2036 770q120 0 196 75.5t76 192.5t-76 191
t-196 74q-119 0 -195 -74t-76 -191t76.5 -192.5t194.5 -75.5zM2036 -18q-69 0 -110.5 37.5t-41.5 105.5q0 70 41.5 108.5t110.5 38.5q70 0 111.5 -38t41.5 -109q0 -67 -41.5 -105t-111.5 -38z" />
    <glyph glyph-name="uni2117" unicode="&#x2117;" horiz-adv-x="1818" 
d="M909 -31q-222 0 -403 97t-288 278t-107 412q0 141 41.5 264.5t116 216t174.5 159t219 100.5t247 34q160 0 304.5 -54t254.5 -151t175 -245t65 -324q0 -174 -62.5 -322t-170 -249.5t-254.5 -158.5t-312 -57zM909 98q140 0 261.5 47.5t209 132.5t137.5 208t50 268
q0 194 -88.5 343t-237.5 226.5t-332 77.5q-184 0 -333 -77t-237.5 -225.5t-88.5 -342.5q0 -193 86 -344t236 -232.5t337 -81.5zM784 356h-166v793h388q138 0 212 -67.5t74 -182.5q0 -113 -76.5 -180.5t-209.5 -67.5h-222v-295zM784 1020v-250h195q72 0 108.5 32.5t36.5 92.5
q0 125 -147 125h-193z" />
    <glyph glyph-name="trademark" unicode="&#x2122;" horiz-adv-x="1642" 
d="M303 819v490h-217v125h576v-125h-218v-490h-141zM899 819h-135v615h211l123 -295q34 -88 39 -166h43q5 86 37 166l124 295h211v-615h-137v238q0 61 9 105.5t36 129.5l-57 17l-199 -490h-92l-199 490l-57 -17q27 -83 35 -127.5t8 -107.5v-238z" />
    <glyph glyph-name="oneeighth" unicode="&#x215b;" horiz-adv-x="1636" 
d="M362 645h-141v428q0 120 60 191l-35 30q-96 -102 -221 -112v123q71 10 137 46.5t104 82.5h96v-789zM55 0l1078 1434h159l-1077 -1434h-160zM883 211q0 72 48 121t128 63v39q-66 13 -107 53.5t-41 106.5q0 96 86 154.5t234 58.5q145 0 231 -58.5t86 -154.5
q0 -67 -41.5 -107t-107.5 -53v-39q80 -14 129 -63t49 -121q0 -108 -92.5 -168.5t-253.5 -60.5q-162 0 -255 60.5t-93 168.5zM1055 575q0 -54 45.5 -85t130.5 -31q83 0 128.5 31.5t45.5 84.5q0 56 -44.5 86.5t-129.5 30.5q-87 0 -131.5 -30.5t-44.5 -86.5zM1026 233
q0 -65 53 -100t152 -35q98 0 150.5 35t52.5 100q0 64 -53 101t-150 37q-99 0 -152 -37t-53 -101z" />
    <glyph glyph-name="threeeighths" unicode="&#x215c;" horiz-adv-x="1847" 
d="M360 625q-152 0 -233 68t-90 192l129 28q17 -168 199 -168q82 0 127 34.5t45 99.5q0 57 -39 86.5t-109 29.5h-106v107h90q147 0 147 112q0 59 -40.5 90t-110.5 31q-83 0 -131 -41t-54 -112l-129 28q9 113 98 177.5t218 64.5q138 0 215.5 -58.5t77.5 -154.5
q0 -63 -39 -106.5t-105 -57.5v-45q74 -7 117 -54.5t43 -117.5q0 -106 -85 -169.5t-235 -63.5zM266 0l1077 1434h160l-1077 -1434h-160zM1094 211q0 72 48 121t128 63v39q-66 13 -107 53.5t-41 106.5q0 96 86 154.5t234 58.5q145 0 231 -58.5t86 -154.5q0 -67 -41.5 -107
t-107.5 -53v-39q80 -14 129 -63t49 -121q0 -108 -92.5 -168.5t-253.5 -60.5q-162 0 -255 60.5t-93 168.5zM1266 575q0 -54 45.5 -85t130.5 -31q83 0 128.5 31.5t45.5 84.5q0 56 -44.5 86.5t-129.5 30.5q-87 0 -131.5 -30.5t-44.5 -86.5zM1237 233q0 -65 53 -100t152 -35
q98 0 150.5 35t52.5 100q0 64 -53 101t-150 37q-99 0 -152 -37t-53 -101z" />
    <glyph glyph-name="fiveeighths" unicode="&#x215d;" horiz-adv-x="1865" 
d="M45 870l131 31q9 -76 62.5 -116t140.5 -40q88 0 135 44t47 120q0 78 -47 118t-129 40q-59 0 -111 -22t-86 -62l-114 35l57 416h508v-119h-389l-10 -72q-11 -70 -62 -139l41 -31q31 49 88 75t121 26q128 0 202.5 -73.5t74.5 -193.5q0 -132 -89 -206t-237 -74
q-140 0 -232 66.5t-102 176.5zM287 0l1077 1434h160l-1078 -1434h-159zM1114 211q0 72 48 121t128 63v39q-66 13 -106.5 53.5t-40.5 106.5q0 96 85.5 154.5t233.5 58.5q145 0 231.5 -58.5t86.5 -154.5q0 -67 -41.5 -107t-108.5 -53v-39q80 -14 129 -63t49 -121
q0 -108 -92.5 -168.5t-253.5 -60.5q-162 0 -255 60.5t-93 168.5zM1286 575q0 -54 45.5 -85t130.5 -31q83 0 128.5 31.5t45.5 84.5q0 56 -44.5 86.5t-129.5 30.5q-87 0 -131.5 -30.5t-44.5 -86.5zM1257 233q0 -65 53 -100t152 -35q98 0 150.5 35t52.5 100q0 64 -53 101
t-150 37q-99 0 -152 -37t-53 -101z" />
    <glyph glyph-name="seveneighths" unicode="&#x215e;" horiz-adv-x="1675" 
d="M231 1313h-192v121h606v-109l-344 -680h-164v8l273 518q23 42 32.5 59t33.5 47t56 60l-34 45q-84 -69 -267 -69zM94 0l1077 1434h160l-1077 -1434h-160zM922 211q0 72 48 121t128 63v39q-66 13 -107 53.5t-41 106.5q0 96 86 154.5t234 58.5q145 0 231 -58.5t86 -154.5
q0 -67 -41.5 -107t-107.5 -53v-39q80 -14 129 -63t49 -121q0 -108 -92.5 -168.5t-253.5 -60.5q-162 0 -255 60.5t-93 168.5zM1094 575q0 -54 45.5 -85t130.5 -31q83 0 128.5 31.5t45.5 84.5q0 56 -44.5 86.5t-129.5 30.5q-87 0 -131.5 -30.5t-44.5 -86.5zM1065 233
q0 -65 53 -100t152 -35q98 0 150.5 35t52.5 100q0 64 -53 101t-150 37q-99 0 -152 -37t-53 -101z" />
    <glyph glyph-name="arrowleft" unicode="&#x2190;" horiz-adv-x="1738" 
d="M1589 782v-170l-934 2q-116 0 -237 48l-23 -60q51 -27 74 -40t55 -35.5t56 -47.5l243 -243l-114 -115l-578 579l578 578l114 -115l-243 -241q-61 -58 -187 -123l25 -60q134 47 237 47z" />
    <glyph glyph-name="arrowup" unicode="&#x2191;" horiz-adv-x="1396" 
d="M236 764l-115 117l577 577l578 -577l-115 -117l-243 246q-24 23 -47 56t-33.5 52t-40.5 74l-60 -23q47 -118 47 -235v-934h-172v934q-3 112 47 235l-59 25q-67 -128 -123 -184z" />
    <glyph glyph-name="arrowright" unicode="&#x2192;" horiz-adv-x="1738" 
d="M913 1163l117 115l578 -578l-578 -579l-117 115l246 243q24 25 55.5 48t54 35.5t72.5 39.5l-20 60q-121 -48 -238 -48l-933 -2v170l933 4q104 0 238 -47l22 60q-128 67 -184 123z" />
    <glyph glyph-name="arrowdown" unicode="&#x2193;" horiz-adv-x="1415" 
d="M709 -25l-578 578l113 117l241 -246q24 -23 46.5 -53.5t36.5 -54.5t42 -76l58 24q-16 47 -22 67t-15.5 71.5t-9.5 97.5l2 934h172l-2 -934q0 -119 -48 -236l60 -22q60 110 89 148q15 18 32 34l243 246l115 -117z" />
    <glyph glyph-name="arrowboth" unicode="&#x2194;" horiz-adv-x="1978" 
d="M659 162l-528 528l528 529l113 -115l-209 -211q-34 -34 -72.5 -58.5t-107.5 -60.5l18 -47q117 49 236 49h702q121 0 238 -49l18 47q-69 36 -107.5 60.5t-72.5 58.5l-211 211l115 115l528 -529l-528 -528l-115 114l211 211q33 33 71.5 58t106.5 63l-16 43
q-123 -45 -238 -45h-702q-117 0 -236 45l-18 -43q65 -35 105 -61t75 -60l209 -211z" />
    <glyph glyph-name="arrowupdn" unicode="&#x2195;" horiz-adv-x="1316" 
d="M131 1020l526 528l529 -528l-115 -115l-209 211q-56 56 -121 180l-45 -18q47 -129 47 -238v-630q0 -109 -47 -238l45 -18q62 121 121 180l209 211l115 -115l-529 -528l-526 528l115 115l211 -211q9 -9 18 -19.5t15 -18t15 -21.5t13.5 -20t14.5 -23.5t13 -22.5t14.5 -26.5
t14.5 -26.5l46 16q-48 121 -48 238v630q0 117 48 238l-46 16q-3 -5 -14.5 -26.5t-14.5 -26.5t-13 -22.5t-14.5 -23.5t-13.5 -20t-15 -21.5t-15 -18t-18 -19.5l-211 -211z" />
    <glyph glyph-name="uni2196" unicode="&#x2196;" horiz-adv-x="1370" 
d="M162 1245h817l2 -162h-344q-76 0 -219 43l-25 -57q129 -61 201 -135l659 -662l-123 -120l-657 661q-77 79 -135 201l-57 -27q18 -58 24 -80t13.5 -61.5t7.5 -73.5v-344h-164v817z" />
    <glyph glyph-name="uni2197" unicode="&#x2197;" horiz-adv-x="1370" 
d="M391 1083v162h819l-2 -817h-161v344q0 74 43 215l-58 27q-51 -114 -135 -201l-657 -661l-121 120l657 662q72 74 201 135l-25 57q-143 -43 -219 -43h-342z" />
    <glyph glyph-name="uni2198" unicode="&#x2198;" horiz-adv-x="1370" 
d="M1208 152h-817v161l342 -2q76 0 219 -43l25 60q-129 61 -201 133l-657 663l121 121l657 -663q84 -84 135 -199l58 25q-43 144 -43 215v346h161v-817z" />
    <glyph glyph-name="uni2199" unicode="&#x2199;" horiz-adv-x="1370" 
d="M981 313l-2 -161h-817v817h164v-346q0 -10 -0.5 -21t-1.5 -19.5t-3 -21t-3.5 -19.5t-5 -21.5t-5 -20t-6 -22.5t-6 -21.5t-7.5 -24t-7 -24.5l57 -25q58 122 135 199l657 663l123 -121l-659 -663q-72 -72 -201 -133l25 -60q143 43 219 43z" />
    <glyph glyph-name="partialdiff" unicode="&#x2202;" horiz-adv-x="1413" 
d="M80 455q0 214 142 347.5t368 133.5q154 0 274.5 -68t179.5 -186l66 27q-41 278 -268 432t-586 145l90 182q288 -1 508 -108.5t337.5 -296t117.5 -428.5q0 -304 -182.5 -486t-479.5 -182q-255 0 -411 134t-156 354zM289 461q0 -147 99.5 -233.5t262.5 -86.5
q176 0 295.5 100t147.5 269q-65 129 -182 202.5t-263 73.5q-164 0 -262 -89.5t-98 -235.5z" />
    <glyph glyph-name="emptyset" unicode="&#x2205;" horiz-adv-x="1435" 
d="M117 543q0 161 77.5 292.5t215.5 207t307 75.5q168 0 306 -74t217 -207t79 -298q0 -162 -78 -294t-216 -207t-308 -75q-259 -1 -429.5 165t-170.5 415zM317 557q0 -149 72 -246l377 375q128 128 229 137l2 66q-99 63 -256 67q-182 -2 -303 -113t-121 -286zM440 256
l-2 -66q49 -31 119 -48t137 -17q182 0 302 111t120 288q0 145 -72 246l-387 -387q-118 -118 -217 -127z" />
    <glyph glyph-name="product" unicode="&#x220f;" horiz-adv-x="1386" 
d="M59 1434h1268v-179h-225v-1511h-203v1511h-414v-1511h-200v1511h-226v179z" />
    <glyph glyph-name="summation" unicode="&#x2211;" horiz-adv-x="1097" 
d="M1030 -268h-940v196l410 656l-410 655v195h940v-179h-414q-115 0 -180.5 25t-116.5 72l-55 -54l459 -714l-459 -717l55 -51q52 47 113.5 70.5t171.5 23.5h426v-178z" />
    <glyph glyph-name="minus" unicode="&#x2212;" horiz-adv-x="1167" 
d="M131 768h899v-158h-899v158z" />
    <glyph glyph-name="radical" unicode="&#x221a;" horiz-adv-x="1185" 
d="M494 -258h-285l-178 897h164l55 -299q43 -231 63 -422h68q19 177 98 459l301 1057h402v-177h-256z" />
    <glyph glyph-name="infinity" unicode="&#x221e;" horiz-adv-x="1927" 
d="M115 723q0 173 111.5 280t283.5 107q150 0 258 -85t160 -226h71q49 140 158.5 225.5t259.5 85.5q170 0 281.5 -106.5t111.5 -280.5q0 -173 -111.5 -280t-283.5 -107q-149 0 -258 85.5t-158 225.5h-71q-52 -141 -160 -226t-258 -85q-172 0 -283.5 106.5t-111.5 280.5z
M301 723q0 -103 63.5 -167t167.5 -64q99 0 171 61.5t106 169.5q-33 111 -106 171t-171 60q-104 0 -167.5 -64t-63.5 -167zM1118 723q34 -108 106 -169.5t171 -61.5q104 0 167.5 64t63.5 167t-63.5 167t-167.5 64q-99 0 -171 -59.5t-106 -171.5z" />
    <glyph glyph-name="integral" unicode="&#x222b;" horiz-adv-x="1136" 
d="M57 -266l-20 174q51 -14 108 -14q115 0 172.5 60t77.5 181l150 955q30 185 136.5 267.5t281.5 82.5q72 0 118 -10l19 -173q-53 11 -109 11q-120 0 -174 -57.5t-74 -182.5l-149 -950q-28 -183 -139 -270t-285 -87q-66 0 -113 13z" />
    <glyph glyph-name="approxequal" unicode="&#x2248;" horiz-adv-x="1167" 
d="M279 281h-136q-11 121 13.5 214t79.5 134l-9 28h-80q-22 243 35 357t176 114q69 0 128 -39.5t145 -125.5q78 -75 106 -93q31 -20 56 -20q112 0 92 278h133q12 -119 -11.5 -212t-78.5 -134l8 -30h80q40 -471 -213 -471q-39 0 -76 13t-76 43t-59.5 49t-61.5 60
q-36 37 -56.5 56.5t-51 38t-55.5 18.5q-108 0 -88 -278zM276 686q28 31 80 31q40 1 77.5 -11.5t77 -43.5t59.5 -50t61 -61q77 -75 106 -93q32 -20 58 -20q52 0 75 67t17 218q-34 -31 -82 -31q-37 -1 -74 12t-74 41t-58 47t-54 52q-44 46 -68 68t-54.5 40.5t-55.5 18.5
q-55 0 -75.5 -66.5t-15.5 -218.5z" />
    <glyph glyph-name="notequal" unicode="&#x2260;" horiz-adv-x="1193" 
d="M395 385h-264v158h326l61 162q21 54 48 88.5t67 68.5l-35 45q-91 -71 -240 -71h-227v157h502l123 318h162l-123 -318h262v-157h-324l-61 -156q-15 -39 -38 -72t-39.5 -49t-45.5 -41l35 -47q95 72 235 72h238v-158h-500l-123 -317h-162z" />
    <glyph glyph-name="lessequal" unicode="&#x2264;" horiz-adv-x="1271" 
d="M1090 494v-175l-906 279v246l906 278v-174l-396 -114q-133 -41 -332 -78v-70q195 -36 338 -78zM1090 0h-906v152h906v-152z" />
    <glyph glyph-name="greaterequal" unicode="&#x2265;" horiz-adv-x="1271" 
d="M1094 598l-908 -279v175l392 114q138 42 335 78v70q-196 36 -331 78l-396 114v174l908 -278v-246zM1094 0h-908v152h908v-152z" />
    <glyph glyph-name="uni2573" unicode="&#x2573;" horiz-adv-x="1925" 
d="M211 -80l-76 76l752 752l-752 751l76 76l752 -752l751 752l76 -76l-752 -751l752 -752l-76 -76l-751 752z" />
    <glyph glyph-name="lozenge" unicode="&#x25ca;" horiz-adv-x="1148" 
d="M414 0l-342 725l342 725h321l342 -725l-342 -725h-321zM438 1040l-157 -315l157 -317q53 -105 103 -258h67q56 171 101 260l159 315l-159 315q-56 112 -101 260h-67q-41 -134 -103 -260z" />
    <glyph glyph-name="uni2605" unicode="&#x2605;" horiz-adv-x="1804" 
d="M903 311l-504 -340l174 580l-485 373l610 16l205 578l203 -578l612 -16l-485 -373l174 -580z" />
    <glyph glyph-name="uni261C" unicode="&#x261c;" horiz-adv-x="1886" 
d="M1096 111h-248q-66 0 -107 32.5t-41 83.5q0 31 23 70q-47 9 -73.5 40.5t-26.5 80.5q0 45 28 76q-45 36 -45 96q0 29 19 67h-332q-72 0 -113 36.5t-41 105.5q0 59 39.5 91t114.5 32h471q-33 23 -33 75q0 39 29 76q78 -2 183 6t118 8q36 0 76 -14t67 -29t76 -45
q51 -30 76.5 -43.5t74.5 -35.5t97 -31.5t100 -9.5h66l2 -670q-107 0 -258 -45q-65 -17 -101.5 -25.5t-105 -18t-135.5 -9.5zM848 184h270q116 0 295 52q149 36 213 38v529h-29q-60 0 -123.5 20t-103.5 41.5t-100 59.5q-47 29 -76.5 45.5t-70 30.5t-74.5 14q-188 -8 -230 -8
q-4 -16 -4 -31q0 -29 27 -53h260v-74h-793q-41 0 -59.5 -13t-18.5 -44q0 -60 78 -60h582v-82h-146q-25 0 -39 -14t-14 -39q0 -57 53 -57h177v-72h-156q-55 0 -55 -53q0 -26 14 -41t41 -15h186v-71h-104q-25 0 -40 -13.5t-15 -37.5q0 -52 55 -52z" />
    <glyph glyph-name="uni261E" unicode="&#x261e;" horiz-adv-x="1884" 
d="M1038 111h-247q-68 0 -137.5 9.5t-104 17.5t-103.5 26q-148 45 -258 45l2 670h68q52 0 100.5 9.5t96 31t74.5 36t75 43.5q52 31 78 45.5t66.5 28.5t76.5 14q13 0 118 -8t183 -6q29 -42 29 -76q0 -52 -33 -75h469q76 0 115 -32t39 -91q0 -70 -40.5 -106t-113.5 -36h-331
q18 -30 18 -67q0 -60 -45 -96q29 -32 29 -76q0 -49 -26.5 -80.5t-72.5 -40.5q21 -41 21 -70q0 -51 -40 -83.5t-106 -32.5zM768 184h270q26 0 40 14t14 38t-14.5 37.5t-39.5 13.5h-106v71h188q54 0 54 56q0 53 -54 53h-157v72h178q24 0 37.5 15t13.5 42q0 25 -14 39t-37 14
h-148v82h582q41 0 59.5 14.5t18.5 45.5t-18.5 44t-59.5 13h-793v74h260q27 24 27 53q0 15 -4 31q-47 0 -227 8q-35 0 -76 -14.5t-69 -29.5t-79 -46q-61 -38 -100 -59.5t-102.5 -41.5t-124.5 -20h-27v-529q66 -2 211 -38q62 -18 93.5 -26t90.5 -17t113 -9z" />
    <glyph glyph-name="uni271A" unicode="&#x271a;" horiz-adv-x="1697" 
d="M637 1434h426v-516h504v-402h-504v-516h-426v516h-504v402h504v516z" />
    <glyph glyph-name="uni2731" unicode="&#x2731;" horiz-adv-x="1583" 
d="M262 209l-172 299l365 209l-365 209l172 299l363 -211v420h344v-420l362 211l172 -299l-364 -209l364 -209l-172 -299l-362 211v-420h-344v420z" />
    <glyph glyph-name="uni2733" unicode="&#x2733;" horiz-adv-x="1615" 
d="M643 649l-553 -22v182l553 -23l-405 375l127 127l374 -403l-22 551h182l-20 -551l372 403l127 -127l-403 -375l551 23v-182l-551 20l403 -373l-127 -129l-372 406l20 -551h-182l22 551l-374 -404l-127 127z" />
    <glyph glyph-name="uni2738" unicode="&#x2738;" horiz-adv-x="1744" 
d="M1659 1069l-352 -330l352 -319l-483 22l18 -481l-328 358l-321 -352l22 473l-479 -14l356 328l-350 321l471 -24l-14 481l328 -350l321 350l-24 -481z" />
    <glyph glyph-name="uni2739" unicode="&#x2739;" horiz-adv-x="1730" 
d="M987 293l-121 -324l-123 324l-268 -219l57 342l-337 -58l219 269l-326 121l326 122l-219 269l340 -60l-58 340l268 -219l121 326l123 -326l268 219l-59 -342l342 60l-219 -269l324 -123l-324 -120l219 -269l-344 58l59 -340z" />
    <glyph glyph-name="uni274C" unicode="&#x274c;" horiz-adv-x="2152" 
d="M141 1456l289 289l645 -645l645 645l289 -289l-645 -645l645 -645l-289 -289l-645 645l-645 -645l-289 289l645 645z" />
    <glyph glyph-name="uni2762" unicode="&#x2762;" horiz-adv-x="1228" 
d="M154 1200q0 152 116 239t338 87t338.5 -87t116.5 -239q0 -71 -22 -124t-57.5 -85.5t-79 -59t-88 -53.5t-82 -60t-63 -86.5t-30.5 -125.5q133 -23 211 -108.5t78 -212.5q0 -140 -88 -226t-234 -86t-233.5 86t-87.5 226q0 127 77.5 212.5t210.5 108.5q-5 72 -30.5 125.5
t-63 86.5t-81.5 60t-87.5 53.5t-79 59t-57.5 85.5t-22 124z" />
    <glyph glyph-name="uni29D8" unicode="&#x29d8;" horiz-adv-x="821" 
d="M416 -27l-326 220l326 215l-326 217l326 217l-326 215l326 217l-293 192l100 93l426 -285l-325 -217l325 -215l-325 -217l325 -217l-325 -215l325 -220l-428 -282l-96 92z" />
    <glyph glyph-name="uni29D9" unicode="&#x29d9;" horiz-adv-x="821" 
d="M406 408l325 -215l-325 -220l290 -190l-96 -92l-430 282l326 220l-326 215l326 217l-326 217l326 215l-326 217l428 285l100 -93l-292 -192l325 -217l-325 -215l325 -217z" />
    <glyph glyph-name="uni29DA" unicode="&#x29da;" horiz-adv-x="1265" 
d="M416 -27l-326 220l326 215l-326 217l326 217l-326 215l326 217l-293 192l100 93l426 -285l-325 -217l325 -215l-325 -217l325 -217l-325 -215l325 -220l-428 -282l-96 92zM934 -27l-326 220l326 215l-326 217l326 217l-326 215l326 217l-293 192l100 93l426 -285
l-325 -217l325 -215l-325 -217l325 -217l-325 -215l325 -220l-428 -282l-96 92z" />
    <glyph glyph-name="uni29DB" unicode="&#x29db;" horiz-adv-x="1265" 
d="M334 408l325 -215l-325 -220l291 -190l-99 -92l-428 282l326 220l-326 215l326 217l-326 217l326 215l-326 217l428 285l99 -93l-291 -192l325 -217l-325 -215l325 -217zM850 408l326 -215l-326 -220l293 -190l-99 -92l-428 282l326 220l-326 215l326 217l-326 217
l326 215l-326 217l428 285l99 -93l-293 -192l326 -217l-326 -215l326 -217z" />
    <glyph glyph-name="uni3008" unicode="&#x3008;" horiz-adv-x="677" 
d="M504 -399l-365 1003l365 1002l166 -62l-342 -940l342 -942z" />
    <glyph glyph-name="uni3009" unicode="&#x3009;" horiz-adv-x="714" 
d="M211 1606l362 -1002l-362 -1003l-166 61l342 942l-342 940z" />
    <glyph glyph-name="uni300A" unicode="&#x300a;" horiz-adv-x="1077" 
d="M504 -399l-365 1003l365 1002l166 -62l-342 -940l342 -942zM866 -399l-364 1003l364 1002l166 -62l-342 -940l342 -942z" />
    <glyph glyph-name="uni300B" unicode="&#x300b;" horiz-adv-x="1077" 
d="M211 1606l362 -1002l-362 -1003l-166 61l342 942l-342 940zM573 1606l365 -1002l-365 -1003l-165 61l342 942l-342 940z" />
    <glyph glyph-name="uni300C" unicode="&#x300c;" horiz-adv-x="698" 
d="M348 1389v-652h-170v817h467v-165h-297z" />
    <glyph glyph-name="uni300D" unicode="&#x300d;" horiz-adv-x="698" 
d="M350 -147v651h170v-815h-465v164h295z" />
    <glyph glyph-name="uni3010" unicode="&#x3010;" horiz-adv-x="843" 
d="M791 -311h-613v1865h613q-147 -272 -198 -602.5t0 -661t198 -601.5z" />
    <glyph glyph-name="uni3011" unicode="&#x3011;" horiz-adv-x="843" 
d="M666 1554v-1865h-611q221 412 221 932t-221 933h611z" />
    <glyph glyph-name="u1F642" unicode="&#x1f642;" horiz-adv-x="1818" 
d="M907 -31q-167 0 -315 57.5t-257 159t-172 250t-63 322.5q0 177 65.5 325t177 245.5t258 151.5t308.5 54q161 0 306.5 -53.5t257 -151t177.5 -246t66 -325.5q0 -174 -63 -322.5t-172 -250t-257.5 -159t-316.5 -57.5zM664 811q87 0 131.5 55t44.5 150q0 100 -46.5 150.5
t-127.5 50.5q-88 0 -133.5 -53.5t-45.5 -147.5q0 -101 47.5 -153t129.5 -52zM1151 811q88 0 133 55t45 150q0 100 -47 150.5t-129 50.5q-87 0 -131.5 -53.5t-44.5 -147.5q0 -101 46.5 -153t127.5 -52zM1442 649l-172 27q-35 -234 -361 -234t-360 234l-172 -27
q29 -192 172.5 -298.5t359.5 -106.5q224 0 365 109.5t168 295.5z" />
    <glyph glyph-name="Adieresis.ss01" 
d="M377 1802h198v-235h-198v235zM866 1802h199v-235h-199v235zM1401 0h-213l-105 272h-721l-104 -272h-217l559 1434h246zM580 846l-150 -393h586l-152 395q-81 209 -102 379h-80q-24 -172 -102 -381z" />
    <glyph glyph-name="Edieresis.ss01" horiz-adv-x="1232" 
d="M313 1802h199v-235h-199v235zM803 1802h198v-235h-198v235zM1157 1434v-187h-780v-426h721v-172h-721v-463h780v-186h-985v1434h985z" />
    <glyph glyph-name="Edotaccent.ss01" horiz-adv-x="1232" 
d="M557 1802h201v-235h-201v235zM1157 1434v-187h-780v-426h721v-172h-721v-463h780v-186h-985v1434h985z" />
    <glyph glyph-name="Gdotaccent.ss01" horiz-adv-x="1642" 
d="M741 1567v235h201v-235h-201zM113 709q0 169 57.5 313.5t156.5 242t232.5 151.5t282.5 52q242 -3 423.5 -133.5t233.5 -349.5l-199 -55q-46 167 -167 258.5t-293 91.5q-155 1 -273.5 -74.5t-180.5 -203.5t-62 -287q0 -247 144 -408t382 -160q178 0 300.5 91.5
t162.5 253.5v59h-467v160h645v-711h-178v25q1 19 6.5 47.5t11 51.5t15 63t14.5 63l-68 29q-66 -149 -193.5 -229.5t-297.5 -82.5q-159 -1 -291.5 59t-218 163t-132 237t-46.5 283z" />
    <glyph glyph-name="Idieresis.ss01" horiz-adv-x="591" 
d="M-47 1567v235h199v-235h-199zM442 1567v235h199v-235h-199zM193 0v1434h206v-1434h-206z" />
    <glyph glyph-name="Idotaccent.ss01" horiz-adv-x="591" 
d="M197 1567v235h200v-235h-200zM193 0v1434h206v-1434h-206z" />
    <glyph glyph-name="Odieresis.ss01" horiz-adv-x="1681" 
d="M498 1575v235h198v-235h-198zM987 1575v235h199v-235h-199zM113 717q0 161 55.5 301t152.5 238.5t232 155t289 56.5q153 0 288 -56.5t231.5 -155t152 -238.5t55.5 -301q0 -215 -95 -387t-261 -268.5t-371 -96.5q-206 0 -372.5 96.5t-261.5 268.5t-95 387zM322 717
q0 -251 146 -407t374 -156q230 0 374 157t144 406q0 250 -144.5 406.5t-373.5 156.5q-231 0 -375.5 -155t-144.5 -408z" />
    <glyph glyph-name="R.ss01" horiz-adv-x="1361" 
d="M805 596h-12l499 -596h-260l-463 573h-188v-573h-209v1434h627q226 0 349.5 -114t123.5 -306q0 -193 -127.5 -305.5t-339.5 -112.5zM381 1249v-510h379q146 0 223.5 65.5t77.5 188.5q0 256 -301 256h-379z" />
    <glyph glyph-name="Udieresis.ss01" 
d="M379 1567v235h199v-235h-199zM868 1567v235h199v-235h-199zM160 547v887h207v-875q0 -203 83 -304t273 -101q188 0 271 101.5t83 303.5v875h207v-887q0 -287 -144 -434.5t-417 -147.5q-275 0 -419 148t-144 434z" />
    <glyph glyph-name="Wdieresis.ss01" horiz-adv-x="1949" 
d="M631 1567v235h198v-235h-198zM1120 1567v235h199v-235h-199zM367 0l-318 1434h213l152 -727q34 -169 43 -465h78q30 214 104 446l244 746h184l248 -756q67 -210 100 -436h80q10 309 41 458l152 734h213l-316 -1434h-239l-261 805q-72 221 -79 405h-62q-9 -170 -82 -407
l-260 -803h-235z" />
    <glyph glyph-name="Ydieresis.ss01" horiz-adv-x="1378" 
d="M346 1567v235h199v-235h-199zM836 1567v235h198v-235h-198zM588 561l-553 873h237l203 -332q48 -84 71.5 -126.5t60 -123t42.5 -125.5h82q14 95 174 375l201 332h237l-548 -873v-561h-207v561z" />
    <glyph glyph-name="Zdotaccent.ss01" horiz-adv-x="1290" 
d="M545 1567v235h200v-235h-200zM1200 0h-1110v178l860 1106l-51 57q-91 -94 -301 -94h-489v187h1075v-179l-860 -1105l49 -58q94 94 309 94h518v-186z" />
    <glyph glyph-name="M.ss05" horiz-adv-x="1935" 
d="M371 0h-199v1176q0 129 68.5 202.5t189.5 73.5q100 0 164 -48t104 -155l211 -585q12 -34 24.5 -47t33.5 -13q22 0 33.5 12.5t23.5 47.5l211 585q41 111 107 157t161 46q122 0 191 -73.5t69 -202.5v-1176h-200v1167q0 39 -20.5 60.5t-55.5 21.5q-58 0 -78 -57l-231 -629
q-63 -170 -211 -170t-211 170l-232 629q-20 57 -78 57q-35 0 -55 -22t-20 -60v-1167z" />
    <glyph glyph-name="i.loclTRK" horiz-adv-x="499" 
d="M244 1272q-66 0 -106 35.5t-40 101.5t40 102.5t106 36.5q67 0 106 -36.5t39 -102.5q0 -65 -39 -101t-106 -36zM143 0v1085h203v-1085h-203z" />
    <glyph glyph-name="a.ss01" horiz-adv-x="1134" 
d="M1012 258l24 -258h-196l-17 193h-51q-32 -104 -130 -166t-224 -62q-147 0 -237.5 83.5t-90.5 219.5q0 277 363 348l358 70v21q-3 254 -258 254q-126 0 -201.5 -63.5t-79.5 -176.5l-186 35q17 168 146.5 266t330.5 98q216 0 332.5 -106.5t116.5 -300.5v-455zM485 123
q110 0 204 63t124 160l-2 209l-291 -53q-125 -23 -178 -75.5t-53 -129.5q0 -83 51 -128.5t145 -45.5z" />
    <glyph glyph-name="aacute.ss01" horiz-adv-x="1134" 
d="M586 1556h233l-176 -282h-149zM1012 258l24 -258h-196l-17 193h-51q-32 -104 -130 -166t-224 -62q-147 0 -237.5 83.5t-90.5 219.5q0 277 363 348l358 70v21q-3 254 -258 254q-126 0 -201.5 -63.5t-79.5 -176.5l-186 35q17 168 146.5 266t330.5 98q216 0 332.5 -106.5
t116.5 -300.5v-455zM485 123q110 0 204 63t124 160l-2 209l-291 -53q-125 -23 -178 -75.5t-53 -129.5q0 -83 51 -128.5t145 -45.5z" />
    <glyph glyph-name="abreve.ss01" horiz-adv-x="1134" 
d="M569 1262q-147 0 -234.5 80t-86.5 214h170q0 -82 40 -121.5t111 -39.5q74 0 111 42t37 119h170q1 -134 -86 -214t-232 -80zM1012 258l24 -258h-196l-17 193h-51q-32 -104 -130 -166t-224 -62q-147 0 -237.5 83.5t-90.5 219.5q0 277 363 348l358 70v21q-3 254 -258 254
q-126 0 -201.5 -63.5t-79.5 -176.5l-186 35q17 168 146.5 266t330.5 98q216 0 332.5 -106.5t116.5 -300.5v-455zM485 123q110 0 204 63t124 160l-2 209l-291 -53q-125 -23 -178 -75.5t-53 -129.5q0 -83 51 -128.5t145 -45.5z" />
    <glyph glyph-name="acircumflex.ss01" horiz-adv-x="1134" 
d="M481 1343l-43 -69h-192l205 282h235l205 -282h-193l-43 69q-43 74 -55 109h-63q-10 -30 -56 -109zM1012 258l24 -258h-196l-17 193h-51q-32 -104 -130 -166t-224 -62q-147 0 -237.5 83.5t-90.5 219.5q0 277 363 348l358 70v21q-3 254 -258 254q-126 0 -201.5 -63.5
t-79.5 -176.5l-186 35q17 168 146.5 266t330.5 98q216 0 332.5 -106.5t116.5 -300.5v-455zM485 123q110 0 204 63t124 160l-2 209l-291 -53q-125 -23 -178 -75.5t-53 -129.5q0 -83 51 -128.5t145 -45.5z" />
    <glyph glyph-name="adieresis.ss01" horiz-adv-x="1134" 
d="M225 1495h199v-235h-199v235zM715 1495h198v-235h-198v235zM1012 258l24 -258h-196l-17 193h-51q-32 -104 -130 -166t-224 -62q-147 0 -237.5 83.5t-90.5 219.5q0 277 363 348l358 70v21q-3 254 -258 254q-126 0 -201.5 -63.5t-79.5 -176.5l-186 35q17 168 146.5 266
t330.5 98q216 0 332.5 -106.5t116.5 -300.5v-455zM485 123q110 0 204 63t124 160l-2 209l-291 -53q-125 -23 -178 -75.5t-53 -129.5q0 -83 51 -128.5t145 -45.5z" />
    <glyph glyph-name="agrave.ss01" horiz-adv-x="1134" 
d="M551 1556l92 -282h-151l-175 282h234zM1012 258l24 -258h-196l-17 193h-51q-32 -104 -130 -166t-224 -62q-147 0 -237.5 83.5t-90.5 219.5q0 277 363 348l358 70v21q-3 254 -258 254q-126 0 -201.5 -63.5t-79.5 -176.5l-186 35q17 168 146.5 266t330.5 98
q216 0 332.5 -106.5t116.5 -300.5v-455zM485 123q110 0 204 63t124 160l-2 209l-291 -53q-125 -23 -178 -75.5t-53 -129.5q0 -83 51 -128.5t145 -45.5z" />
    <glyph glyph-name="amacron.ss01" horiz-adv-x="1134" 
d="M231 1470h676v-153h-676v153zM1012 258l24 -258h-196l-17 193h-51q-32 -104 -130 -166t-224 -62q-147 0 -237.5 83.5t-90.5 219.5q0 277 363 348l358 70v21q-3 254 -258 254q-126 0 -201.5 -63.5t-79.5 -176.5l-186 35q17 168 146.5 266t330.5 98q216 0 332.5 -106.5
t116.5 -300.5v-455zM485 123q110 0 204 63t124 160l-2 209l-291 -53q-125 -23 -178 -75.5t-53 -129.5q0 -83 51 -128.5t145 -45.5z" />
    <glyph glyph-name="aogonek.ss01" horiz-adv-x="1134" 
d="M1147 -258l47 -117q-36 -32 -102 -53t-136 -21q-120 0 -192 64.5t-72 165.5q0 69 39.5 130t108.5 99l-17 183h-51q-32 -104 -130 -166t-224 -62q-147 0 -237.5 83.5t-90.5 219.5q0 277 363 348l358 70v21q-3 254 -258 254q-126 0 -201.5 -63.5t-79.5 -176.5l-186 35
q17 168 146.5 266t330.5 98q216 0 332.5 -106.5t116.5 -300.5v-455l24 -258h-20v-2q-85 -19 -136 -71t-51 -117q0 -60 38.5 -94.5t107.5 -34.5q45 0 92 16t80 45zM485 123q110 0 204 63t124 160l-2 209l-291 -53q-125 -23 -178 -75.5t-53 -129.5q0 -83 51 -128.5t145 -45.5z
" />
    <glyph glyph-name="aring.ss01" horiz-adv-x="1134" 
d="M569 1251q-120 0 -196.5 67t-75.5 175q-1 110 77 176t195 66q119 0 196 -67t77 -175q0 -110 -78 -176t-195 -66zM569 1618q-57 0 -94 -33t-37 -92q0 -60 37.5 -92.5t93.5 -32.5q57 0 93 34t36 91t-36 91t-93 34zM1012 258l24 -258h-196l-17 193h-51q-32 -104 -130 -166
t-224 -62q-147 0 -237.5 83.5t-90.5 219.5q0 277 363 348l358 70v21q-3 254 -258 254q-126 0 -201.5 -63.5t-79.5 -176.5l-186 35q17 168 146.5 266t330.5 98q216 0 332.5 -106.5t116.5 -300.5v-455zM485 123q110 0 204 63t124 160l-2 209l-291 -53q-125 -23 -178 -75.5
t-53 -129.5q0 -83 51 -128.5t145 -45.5z" />
    <glyph glyph-name="atilde.ss01" horiz-adv-x="1134" 
d="M377 1270h-119q-15 146 28 223.5t130 77.5q30 0 56.5 -8t54.5 -28t40 -30t41 -37q64 -57 99 -57q60 0 51 158h121q15 -147 -28 -225t-130 -78q-90 0 -197 102q-21 20 -30.5 28t-28.5 17.5t-37 9.5q-33 0 -44.5 -38t-6.5 -115zM1012 258l24 -258h-196l-17 193h-51
q-32 -104 -130 -166t-224 -62q-147 0 -237.5 83.5t-90.5 219.5q0 277 363 348l358 70v21q-3 254 -258 254q-126 0 -201.5 -63.5t-79.5 -176.5l-186 35q17 168 146.5 266t330.5 98q216 0 332.5 -106.5t116.5 -300.5v-455zM485 123q110 0 204 63t124 160l-2 209l-291 -53
q-125 -23 -178 -75.5t-53 -129.5q0 -83 51 -128.5t145 -45.5z" />
    <glyph glyph-name="cdotaccent.ss01" horiz-adv-x="1243" 
d="M549 1260v235h201v-235h-201zM84 539q0 263 155.5 422t409.5 159q203 0 338 -102.5t176 -276.5l-190 -55q-27 130 -115 196t-217 66q-168 0 -261 -110t-93 -297q0 -190 96.5 -297t257.5 -107q137 0 225.5 70.5t112.5 191.5l190 -55q-37 -171 -183 -275t-349 -104
q-248 0 -400.5 157t-152.5 417z" />
    <glyph glyph-name="edieresis.ss01" horiz-adv-x="1253" 
d="M297 1260v235h199v-235h-199zM786 1260v235h199v-235h-199zM84 543q0 257 149 417t402 160q249 0 396 -156.5t147 -416.5v-74h-895q5 -154 103 -248t261 -94q128 0 224.5 57.5t144.5 159.5l125 -117q-63 -125 -198 -195.5t-298 -70.5q-251 0 -406 156.5t-155 421.5z
M285 614h696q-8 158 -99.5 251t-248.5 93q-150 0 -244.5 -90.5t-103.5 -253.5z" />
    <glyph glyph-name="edotaccent.ss01" horiz-adv-x="1253" 
d="M541 1260v235h200v-235h-200zM84 543q0 257 149 417t402 160q249 0 396 -156.5t147 -416.5v-74h-895q5 -154 103 -248t261 -94q128 0 224.5 57.5t144.5 159.5l125 -117q-63 -125 -198 -195.5t-298 -70.5q-251 0 -406 156.5t-155 421.5zM285 614h696q-8 158 -99.5 251
t-248.5 93q-150 0 -244.5 -90.5t-103.5 -253.5z" />
    <glyph glyph-name="f.ss01" horiz-adv-x="819" 
d="M268 918h-221v167h221v244q0 76 51 121t136 45h288l27 -164h-303v-246h309v-167h-309v-918h-199v918z" />
    <glyph glyph-name="g.ss01" horiz-adv-x="1302" 
d="M84 571q0 245 141.5 396t362.5 151q138 0 239.5 -63.5t147.5 -180.5l63 31q-35 108 -43 166v14h174v-1112q0 -217 -136.5 -343t-377.5 -126q-209 0 -334 99.5t-139 265.5l187 35q3 -112 85 -176t216 -64q137 0 217 72.5t82 193.5q0 103 61 293l-63 37
q-52 -111 -151.5 -173t-233.5 -62q-103 0 -193.5 38.5t-158 107.5t-107 172.5t-39.5 227.5zM289 571q0 -175 97.5 -274.5t254.5 -99.5q124 0 210.5 63.5t117.5 169.5v285q-33 112 -123.5 172.5t-210.5 60.5q-156 0 -251 -102.5t-95 -274.5z" />
    <glyph glyph-name="gbreve.ss01" horiz-adv-x="1302" 
d="M315 1556h170q0 -82 40.5 -121.5t111.5 -39.5q73 0 110 42t37 119h170q1 -134 -85.5 -214t-231.5 -80q-147 0 -235 80t-87 214zM84 571q0 245 141.5 396t362.5 151q138 0 239.5 -63.5t147.5 -180.5l63 31q-35 108 -43 166v14h174v-1112q0 -217 -136.5 -343t-377.5 -126
q-209 0 -334 99.5t-139 265.5l187 35q3 -112 85 -176t216 -64q137 0 217 72.5t82 193.5q0 103 61 293l-63 37q-52 -111 -151.5 -173t-233.5 -62q-103 0 -193.5 38.5t-158 107.5t-107 172.5t-39.5 227.5zM289 571q0 -175 97.5 -274.5t254.5 -99.5q124 0 210.5 63.5
t117.5 169.5v285q-33 112 -123.5 172.5t-210.5 60.5q-156 0 -251 -102.5t-95 -274.5z" />
    <glyph glyph-name="uni0123.ss01" horiz-adv-x="1302" 
d="M532 1501l136 209l104 -57l-88 -137q43 -9 68.5 -43.5t25.5 -81.5q0 -60 -41 -97t-102 -37q-62 0 -100.5 37.5t-38.5 96.5q0 53 36 110zM84 571q0 245 141.5 396t362.5 151q138 0 239.5 -63.5t147.5 -180.5l63 31q-35 108 -43 166v14h174v-1112q0 -217 -136.5 -343
t-377.5 -126q-209 0 -334 99.5t-139 265.5l187 35q3 -112 85 -176t216 -64q137 0 217 72.5t82 193.5q0 103 61 293l-63 37q-52 -111 -151.5 -173t-233.5 -62q-103 0 -193.5 38.5t-158 107.5t-107 172.5t-39.5 227.5zM289 571q0 -175 97.5 -274.5t254.5 -99.5
q124 0 210.5 63.5t117.5 169.5v285q-33 112 -123.5 172.5t-210.5 60.5q-156 0 -251 -102.5t-95 -274.5z" />
    <glyph glyph-name="gdotaccent.ss01" horiz-adv-x="1302" 
d="M535 1260v235h200v-235h-200zM84 571q0 245 141.5 396t362.5 151q138 0 239.5 -63.5t147.5 -180.5l63 31q-35 108 -43 166v14h174v-1112q0 -217 -136.5 -343t-377.5 -126q-209 0 -334 99.5t-139 265.5l187 35q3 -112 85 -176t216 -64q137 0 217 72.5t82 193.5
q0 103 61 293l-63 37q-52 -111 -151.5 -173t-233.5 -62q-103 0 -193.5 38.5t-158 107.5t-107 172.5t-39.5 227.5zM289 571q0 -175 97.5 -274.5t254.5 -99.5q124 0 210.5 63.5t117.5 169.5v285q-33 112 -123.5 172.5t-210.5 60.5q-156 0 -251 -102.5t-95 -274.5z" />
    <glyph glyph-name="i.ss01" horiz-adv-x="483" 
d="M143 1247v248h201v-248h-201zM143 0v1085h199v-1085h-199z" />
    <glyph glyph-name="idieresis.ss01" horiz-adv-x="499" 
d="M-100 1260v235h198v-235h-198zM389 1260v235h199v-235h-199zM143 0v1085h203v-1085h-203z" />
    <glyph glyph-name="i.loclTRK.ss01" horiz-adv-x="499" 
d="M143 1260v235h201v-235h-201zM143 0v1085h203v-1085h-203z" />
    <glyph glyph-name="j.ss01" horiz-adv-x="503" 
d="M162 1247v248h200v-248h-200zM360 1085v-1380q0 -76 -50.5 -121t-135.5 -45h-289v164h277v1382h198z" />
    <glyph glyph-name="odieresis.ss01" horiz-adv-x="1296" 
d="M301 1260v235h199v-235h-199zM791 1260v235h198v-235h-198zM84 545q0 258 157 416.5t406 158.5q250 0 406.5 -158.5t156.5 -416.5t-156.5 -416t-406.5 -158q-249 0 -406 158t-157 416zM1010 545q0 187 -98.5 295t-264.5 108q-164 0 -262 -108t-98 -295t98 -295.5
t262 -108.5q166 0 264.5 108t98.5 296z" />
    <glyph glyph-name="t.ss01" horiz-adv-x="849" 
d="M709 0h-265q-94 0 -142 46.5t-48 131.5v740h-219v167h219v279l201 37v-316h321v-167h-321v-744h278z" />
    <glyph glyph-name="udieresis.ss01" horiz-adv-x="1277" 
d="M297 1260v235h199v-235h-199zM786 1260v235h199v-235h-199zM1143 1085v-1085h-189v14q7 108 37 201l-65 21q-48 -126 -154 -198.5t-250 -72.5q-188 0 -293.5 119t-105.5 336v665h201v-626q0 -155 71.5 -234.5t204.5 -79.5q122 0 210.5 63.5t133.5 190.5v686h199z" />
    <glyph glyph-name="wdieresis.ss01" horiz-adv-x="1642" 
d="M477 1260v235h199v-235h-199zM967 1260v235h198v-235h-198zM303 0l-274 1085h202l103 -428q53 -217 59 -444h72q23 163 110 428l152 444h188l152 -444q94 -278 111 -428h71q6 211 62 444l102 428h201l-273 -1085h-231l-160 465q-80 248 -92 438h-74q-11 -181 -90 -438
l-159 -465h-232z" />
    <glyph glyph-name="y.ss01" horiz-adv-x="1155" 
d="M467 82l-440 1003h221l194 -475q83 -208 97 -338h79q22 161 95 338l194 475h221l-679 -1546h-220z" />
    <glyph glyph-name="yacute.ss01" horiz-adv-x="1155" 
d="M594 1556h233l-176 -282h-149zM467 82l-440 1003h221l194 -475q83 -208 97 -338h79q22 161 95 338l194 475h221l-679 -1546h-220z" />
    <glyph glyph-name="ycircumflex.ss01" horiz-adv-x="1155" 
d="M446 1274h-192l205 282h235l205 -282h-192l-43 69q-46 79 -56 109h-63q-10 -30 -56 -109zM467 82l-440 1003h221l194 -475q83 -208 97 -338h79q22 161 95 338l194 475h221l-679 -1546h-220z" />
    <glyph glyph-name="ydieresis.ss01" horiz-adv-x="1155" 
d="M233 1260v235h199v-235h-199zM723 1260v235h199v-235h-199zM467 82l-440 1003h221l194 -475q83 -208 97 -338h79q22 161 95 338l194 475h221l-679 -1546h-220z" />
    <glyph glyph-name="ygrave.ss01" horiz-adv-x="1155" 
d="M500 1274l-174 282h233l92 -282h-151zM467 82l-440 1003h221l194 -475q83 -208 97 -338h79q22 161 95 338l194 475h221l-679 -1546h-220z" />
    <glyph glyph-name="zdotaccent.ss01" horiz-adv-x="1064" 
d="M438 1260v235h201v-235h-201zM997 0h-919v174l692 764l-47 53q-53 -40 -110 -56.5t-142 -16.5h-379v167h891v-174l-690 -764l45 -53q47 41 105 57.5t149 16.5h405v-168z" />
    <glyph glyph-name="m_m.dlig" horiz-adv-x="3309" 
d="M332 0h-199v1085h191v-22q-8 -91 -41 -180l47 -23q109 260 354 260q127 0 209.5 -64t112.5 -179h43q44 114 134.5 178t213.5 65q126 0 210 -63t117 -180h37q44 114 134.5 178t213.5 65q127 0 211.5 -63.5t116.5 -179.5h37q44 116 135.5 179.5t214.5 63.5q171 0 266 -115
t95 -325v-680h-199v647q0 143 -57 219t-168 76q-107 0 -185 -63.5t-104 -171.5v-707h-199v647q0 143 -57 219t-170 76q-107 0 -184 -63.5t-103 -171.5v-707h-200v647q0 142 -57.5 218.5t-168.5 76.5q-107 0 -183.5 -63.5t-102.5 -171.5v-707h-201v647q0 142 -56.5 218.5
t-168.5 76.5q-105 0 -183 -65t-106 -172v-705z" />
    <glyph glyph-name="o_o.dlig" horiz-adv-x="2351" 
d="M84 547q0 175 79 306.5t210.5 198t294.5 66.5q172 0 294 -73.5t191 -198.5h45q69 126 192 199t293 73q164 0 295.5 -67t210 -198.5t78.5 -305.5q0 -175 -78.5 -307t-210.5 -199.5t-297 -67.5q-172 0 -294 74t-189 199h-45q-68 -125 -191.5 -199t-293.5 -74
q-163 0 -294.5 67.5t-210.5 199.5t-79 307zM289 547q0 -180 112 -287.5t287 -107.5q284 0 395 278h185q109 -278 395 -278q175 0 287 107.5t112 287.5q0 179 -112 286t-287 107q-284 0 -395 -278h-185q-109 278 -395 278q-175 0 -287 -107t-112 -286z" />
    <glyph glyph-name="fi.ss01" horiz-adv-x="1302" 
d="M268 918h-221v167h221v244q0 76 51 121t136 45h288l27 -164h-303v-246h309v-167h-309v-918h-199v918zM963 1247v248h200v-248h-200zM963 0v1085h198v-1085h-198z" />
    <glyph glyph-name="f_f.liga.ss01" horiz-adv-x="1505" 
d="M268 918h-221v167h221v244q0 76 51 121t136 45h288l27 -164h-303v-246h485v244q0 76 52 121t137 45h286l29 -164h-303v-246h307v-167h-307v-918h-201v918h-485v-918h-199v918z" />
    <glyph glyph-name="f_f_i.liga.ss01" horiz-adv-x="1988" 
d="M268 918h-221v167h221v244q0 76 51 121t136 45h288l27 -164h-303v-246h485v244q0 76 52 121t137 45h286l29 -164h-303v-246h307v-167h-307v-918h-201v918h-485v-918h-199v918zM1649 1247v248h200v-248h-200zM1649 0v1085h198v-1085h-198z" />
    <glyph glyph-name="f_t.liga.ss01" horiz-adv-x="1525" 
d="M268 918h-221v167h221v244q0 76 51 121t136 45h270l29 -164h-287v-246h475v279l201 37v-316h309v-167h-309v-744h268l-25 -174h-253q-93 0 -142 47t-49 131v740h-475v-918h-199v918z" />
    <glyph glyph-name="t_f.liga.ss01" horiz-adv-x="1495" 
d="M254 918h-219v167h219v279l201 37v-316h487v244q0 76 51.5 121t136.5 45h287l29 -164h-303v-246h307v-167h-307v-918h-201v918h-487v-744h268l-27 -174h-252q-94 0 -142 46.5t-48 131.5v740z" />
    <glyph glyph-name="t_i.liga.ss01" horiz-adv-x="1333" 
d="M993 1247v248h201v-248h-201zM709 0h-265q-94 0 -142 46.5t-48 131.5v740h-219v167h219v279l201 37v-316h321v-167h-321v-744h278zM993 0v1085h199v-1085h-199z" />
    <glyph glyph-name="t_t.liga.ss01" horiz-adv-x="1552" 
d="M254 918h-219v167h219v279l201 37v-316h501v279l201 37v-316h322v-167h-322v-744h279l-25 -174h-264q-94 0 -142.5 46.5t-48.5 131.5v740h-501v-744h278l-24 -174h-265q-94 0 -142 46.5t-48 131.5v740z" />
    <glyph glyph-name="t_t_i.liga.ss01" horiz-adv-x="2035" 
d="M1696 1247v248h200v-248h-200zM254 918h-219v167h219v279l201 37v-316h501v279l201 37v-316h322v-167h-322v-744h279l-25 -174h-264q-94 0 -142.5 46.5t-48.5 131.5v740h-501v-744h278l-24 -174h-265q-94 0 -142 46.5t-48 131.5v740zM1696 0v1085h198v-1085h-198z" />
    <glyph glyph-name="zero.tf" 
d="M721 -29q-185 0 -319 94.5t-201.5 262t-67.5 391.5q0 354 160 551.5t428 197.5q279 0 434.5 -203t155.5 -546q0 -352 -161 -550t-429 -198zM721 156q188 0 286.5 144t98.5 419q0 272 -98 418.5t-287 146.5q-188 0 -286.5 -145t-98.5 -420q0 -270 98.5 -416.5
t286.5 -146.5z" />
    <glyph glyph-name="one.tf" horiz-adv-x="1445" 
d="M864 1434v-1258h432v-176h-1138v176h501v721q0 75 13 132t26 82.5t45 76.5l-51 47q-83 -83 -226.5 -141t-295.5 -70v180q171 19 314 82t237 148h143z" />
    <glyph glyph-name="two.tf" horiz-adv-x="1445" 
d="M1296 0h-1126v168l604 428q165 117 228 208t63 193q0 140 -92 218.5t-244 78.5q-175 0 -274 -94t-99 -254l-200 19q1 234 156 368.5t419 134.5q244 0 394.5 -125.5t150.5 -330.5q0 -158 -83.5 -278.5t-299.5 -270.5q-269 -186 -465 -299l31 -70q197 80 397 80h440v-174z
" />
    <glyph glyph-name="three.tf" 
d="M729 -35q-284 0 -435 125t-165 348l190 39q13 -175 122.5 -255.5t291.5 -80.5q174 0 274.5 70.5t100.5 204.5q0 117 -78.5 178t-226.5 61h-217v160h186q156 0 231.5 62.5t75.5 166.5q0 123 -91 187.5t-247 64.5q-171 0 -271 -81t-112 -216l-190 39q15 196 174 313
t403 117q256 0 398.5 -106t142.5 -281q0 -116 -68 -194.5t-186 -110.5v-69q130 -17 207.5 -102.5t77.5 -215.5q0 -192 -157 -308t-431 -116z" />
    <glyph glyph-name="four.tf" horiz-adv-x="1441" 
d="M1122 0h-202v324h-828v161l801 951h229v-938h230v-174h-230v-324zM926 1247l-625 -753l45 -52q72 56 252 56h322v403q0 181 75 295z" />
    <glyph glyph-name="five.tf" 
d="M129 403l188 41q18 -147 127 -225t281 -78q184 0 283.5 88.5t99.5 245.5q0 160 -100 242t-265 82q-125 0 -228 -46t-171 -130l-166 53l105 760h921v-179h-749l-29 -192q-11 -119 -102 -256l63 -45q57 90 170 142t242 52q239 0 377.5 -133.5t138.5 -351.5
q0 -239 -162 -372.5t-426 -133.5q-254 0 -416.5 119.5t-181.5 316.5z" />
    <glyph glyph-name="six.tf" 
d="M743 -33q-295 0 -455.5 195.5t-160.5 533.5q0 367 175 569.5t482 202.5q197 0 342.5 -97.5t182.5 -256.5l-201 -51q-29 104 -120.5 166.5t-211.5 62.5q-223 0 -338 -161t-110 -459l53 -6q53 124 175 199t273 75q220 0 352 -127t132 -344q0 -227 -155 -364.5t-415 -137.5z
M750 143q162 0 261 91t99 243q0 141 -93 226t-251 85q-137 0 -247.5 -72t-170.5 -194q23 -185 130 -282t272 -97z" />
    <glyph glyph-name="seven.tf" horiz-adv-x="1445" 
d="M592 1257h-469v179h1202v-160l-737 -1276h-238v16l608 1020q46 80 84.5 132.5t104.5 119.5l-51 68q-72 -56 -190.5 -77.5t-313.5 -21.5z" />
    <glyph glyph-name="eight.tf" 
d="M125 385q0 138 87 228.5t232 117.5v60q-122 21 -196 97.5t-74 198.5q0 171 148 276t401 105q252 0 399.5 -105t147.5 -276q0 -123 -76 -198.5t-197 -97.5v-60q147 -27 234.5 -118.5t87.5 -227.5q0 -196 -158.5 -307t-437.5 -111q-280 0 -439 111t-159 307zM377 1063
q0 -109 90 -173.5t256 -64.5q165 0 254.5 65t89.5 173q0 110 -88.5 172.5t-255.5 62.5q-170 0 -258 -62.5t-88 -172.5zM330 414q0 -133 103 -204t290 -71q186 0 288.5 71t102.5 204q0 128 -101 200t-290 72q-191 0 -292 -72t-101 -200z" />
    <glyph glyph-name="nine.tf" 
d="M702 1468q293 0 453 -195.5t160 -533.5q0 -366 -174.5 -569t-478.5 -203q-199 0 -342.5 98t-180.5 257l203 53q28 -105 118.5 -168.5t209.5 -63.5q220 0 334 163t108 458l-53 6q-51 -124 -171.5 -199t-271.5 -75q-218 0 -349.5 127t-131.5 344q0 227 154 364t413 137z
M696 1292q-161 0 -258.5 -91t-97.5 -243q0 -142 91.5 -226.5t248.5 -84.5q136 0 245.5 73t166.5 193q-21 185 -126.5 282t-269.5 97z" />
    <glyph glyph-name="zero.dnom" horiz-adv-x="856" 
d="M428 -14q-158 0 -247 111t-89 298q0 194 91.5 303t244.5 109q159 0 247.5 -112t88.5 -300q0 -193 -91.5 -301t-244.5 -108zM428 113q97 0 146 73t49 209q0 139 -50.5 212t-144.5 73q-96 0 -145.5 -73.5t-49.5 -211.5q0 -139 50.5 -210.5t144.5 -71.5z" />
    <glyph glyph-name="one.dnom" horiz-adv-x="524" 
d="M362 0h-141v428q0 119 60 190l-35 31q-96 -102 -221 -112v122q71 10 137 46.5t104 82.5h96v-788z" />
    <glyph glyph-name="two.dnom" horiz-adv-x="700" 
d="M647 0h-592v111l312 233q78 60 106.5 105.5t28.5 97.5q0 65 -41.5 103t-108.5 38q-78 0 -122 -47t-44 -129l-135 14q1 128 84 204.5t217 76.5q130 0 208.5 -69.5t78.5 -186.5q0 -88 -46 -155t-149 -142q-134 -97 -213 -143l21 -45q128 53 237 53h158v-119z" />
    <glyph glyph-name="three.dnom" horiz-adv-x="735" 
d="M360 -20q-152 0 -233 68t-90 192l129 28q17 -168 199 -168q83 0 127.5 34t44.5 99q0 58 -39 87.5t-109 29.5h-106v107h90q147 0 147 112q0 59 -40.5 90t-110.5 31q-83 0 -131 -41t-54 -112l-129 28q9 113 98 177.5t218 64.5q138 0 215.5 -58.5t77.5 -154.5
q0 -63 -39 -106.5t-105 -57.5v-45q74 -7 117 -54.5t43 -117.5q0 -106 -85 -169.5t-235 -63.5z" />
    <glyph glyph-name="four.dnom" horiz-adv-x="806" 
d="M643 0h-143v168h-451v113l432 507h162v-503h127v-117h-127v-168zM510 670l-324 -389l29 -31q41 35 147 35h138v176q0 114 51 168z" />
    <glyph glyph-name="five.dnom" horiz-adv-x="755" 
d="M45 225l131 31q9 -76 62.5 -116t140.5 -40q88 0 135 44t47 120q0 78 -47 118t-129 40q-59 0 -111 -22t-86 -62l-114 35l57 415h508v-118h-389l-10 -72q-11 -70 -62 -139l41 -31q31 49 87.5 74.5t121.5 25.5q128 0 202.5 -73t74.5 -193q0 -132 -89 -206t-237 -74
q-140 0 -232 66.5t-102 176.5z" />
    <glyph glyph-name="six.dnom" horiz-adv-x="792" 
d="M414 -18q-169 0 -260 108t-91 297q0 199 100 309.5t271 110.5q115 0 198 -55t103 -144l-143 -35q-13 53 -58 84t-106 31q-107 0 -165.5 -78t-57.5 -225l35 -6q28 62 91 98.5t144 36.5q120 0 193 -68t73 -188q0 -125 -88 -200.5t-239 -75.5zM420 100q80 0 129 44.5
t49 119.5q0 69 -46.5 109.5t-125.5 40.5q-67 0 -123.5 -32.5t-87.5 -88.5q9 -92 64 -142.5t141 -50.5z" />
    <glyph glyph-name="seven.dnom" horiz-adv-x="677" 
d="M231 668h-192v120h606v-108l-344 -680h-164v8l273 518q23 42 32.5 59t33.5 47t56 60l-34 45q-84 -69 -267 -69z" />
    <glyph glyph-name="eight.dnom" horiz-adv-x="813" 
d="M59 211q0 72 48.5 121t128.5 63v39q-66 13 -107 53.5t-41 106.5q0 96 86 154.5t234 58.5q145 0 231 -58.5t86 -154.5q0 -67 -41.5 -107t-108.5 -53v-39q80 -14 129.5 -63t49.5 -121q0 -108 -92.5 -168.5t-253.5 -60.5q-162 0 -255.5 60.5t-93.5 168.5zM231 575
q0 -53 46 -84.5t131 -31.5q83 0 128.5 31.5t45.5 84.5q0 56 -44.5 86.5t-129.5 30.5q-87 0 -132 -30.5t-45 -86.5zM203 233q0 -65 53 -100t152 -35q98 0 150 35t52 100q0 64 -52.5 101t-149.5 37q-99 0 -152 -37t-53 -101z" />
    <glyph glyph-name="nine.dnom" horiz-adv-x="798" 
d="M387 807q169 0 259.5 -108.5t90.5 -297.5q0 -199 -99.5 -309t-270.5 -110q-115 0 -198 54.5t-103 143.5l143 33q13 -52 59 -81.5t105 -29.5q108 0 166 76.5t57 224.5l-37 7q-26 -63 -89 -100.5t-144 -37.5q-121 0 -194 69t-73 189q0 125 89 201t239 76zM383 688
q-82 0 -132 -44.5t-50 -117.5q0 -70 47 -110.5t129 -40.5q67 0 122 32t85 87q-7 93 -61.5 143.5t-139.5 50.5z" />
    <glyph glyph-name="zero.numr" horiz-adv-x="856" 
d="M428 631q-158 0 -247 111t-89 298q0 194 91.5 303t244.5 109q159 0 247.5 -112t88.5 -300q0 -193 -91.5 -301t-244.5 -108zM428 758q97 0 146 73t49 209q0 139 -50.5 212t-144.5 73q-96 0 -145.5 -73.5t-49.5 -211.5q0 -139 50.5 -210.5t144.5 -71.5z" />
    <glyph glyph-name="one.numr" horiz-adv-x="524" 
d="M362 645h-141v428q0 120 60 191l-35 30q-96 -102 -221 -112v123q71 10 137 46.5t104 82.5h96v-789z" />
    <glyph glyph-name="two.numr" horiz-adv-x="700" 
d="M647 645h-592v111l312 233q78 60 106.5 105.5t28.5 97.5q0 65 -41.5 103t-108.5 38q-78 0 -122 -47t-44 -129l-135 14q1 128 84 204.5t217 76.5q130 0 208.5 -69.5t78.5 -186.5q0 -88 -46 -155t-149 -142q-134 -97 -213 -143l21 -45q128 53 237 53h158v-119z" />
    <glyph glyph-name="three.numr" horiz-adv-x="735" 
d="M360 625q-152 0 -233 68t-90 192l129 28q17 -168 199 -168q82 0 127 34.5t45 99.5q0 57 -39 86.5t-109 29.5h-106v107h90q147 0 147 112q0 59 -40.5 90t-110.5 31q-83 0 -131 -41t-54 -112l-129 28q9 113 98 177.5t218 64.5q138 0 215.5 -58.5t77.5 -154.5
q0 -63 -39 -106.5t-105 -57.5v-45q74 -7 117 -54.5t43 -117.5q0 -106 -85 -169.5t-235 -63.5z" />
    <glyph glyph-name="four.numr" horiz-adv-x="806" 
d="M643 645h-143v168h-451v113l432 508h162v-504h127v-117h-127v-168zM510 1315l-324 -389l29 -31q41 35 147 35h138v176q0 114 51 168z" />
    <glyph glyph-name="five.numr" horiz-adv-x="755" 
d="M45 870l131 31q9 -76 62.5 -116t140.5 -40q88 0 135 44t47 120q0 78 -47 118t-129 40q-59 0 -111 -22t-86 -62l-114 35l57 416h508v-119h-389l-10 -72q-11 -70 -62 -139l41 -31q31 49 88 75t121 26q128 0 202.5 -73.5t74.5 -193.5q0 -132 -89 -206t-237 -74
q-140 0 -232 66.5t-102 176.5z" />
    <glyph glyph-name="six.numr" horiz-adv-x="792" 
d="M414 627q-169 0 -260 108t-91 297q0 199 100 309.5t271 110.5q115 0 198 -55t103 -144l-143 -34q-13 53 -58 83.5t-106 30.5q-107 0 -165.5 -78t-57.5 -225l35 -6q28 62 91 98.5t144 36.5q120 0 193 -68t73 -188q0 -125 -88 -200.5t-239 -75.5zM420 745q80 0 129 44.5
t49 119.5q0 69 -46.5 109.5t-125.5 40.5q-67 0 -123.5 -32.5t-87.5 -88.5q9 -92 64 -142.5t141 -50.5z" />
    <glyph glyph-name="seven.numr" horiz-adv-x="677" 
d="M231 1313h-192v121h606v-109l-344 -680h-164v8l273 518q23 42 32.5 59t33.5 47t56 60l-34 45q-84 -69 -267 -69z" />
    <glyph glyph-name="eight.numr" horiz-adv-x="813" 
d="M59 856q0 72 48.5 121t128.5 63v39q-66 13 -107 53.5t-41 106.5q0 96 86 154.5t234 58.5q145 0 231 -58.5t86 -154.5q0 -67 -41.5 -107t-108.5 -53v-39q80 -14 129.5 -63t49.5 -121q0 -108 -92.5 -168.5t-253.5 -60.5q-162 0 -255.5 60.5t-93.5 168.5zM231 1221
q0 -54 46 -85.5t131 -31.5q83 0 128.5 31.5t45.5 85.5q0 56 -44 86t-130 30q-87 0 -132 -30t-45 -86zM203 879q0 -65 53 -100.5t152 -35.5q98 0 150 35.5t52 100.5q0 64 -52.5 100.5t-149.5 36.5q-100 0 -152.5 -36.5t-52.5 -100.5z" />
    <glyph glyph-name="nine.numr" horiz-adv-x="798" 
d="M387 1452q169 0 259.5 -108t90.5 -297q0 -199 -99.5 -309.5t-270.5 -110.5q-115 0 -198 54.5t-103 143.5l143 33q13 -52 59 -81t105 -29q108 0 166 76.5t57 224.5l-37 6q-26 -63 -88.5 -100t-144.5 -37q-121 0 -194 69t-73 189q0 125 89 200.5t239 75.5zM383 1333
q-82 0 -132 -44.5t-50 -117.5q0 -70 47 -110.5t129 -40.5q67 0 122 32t85 87q-7 93 -61.5 143.5t-139.5 50.5z" />
    <glyph glyph-name="colon.case" horiz-adv-x="624" 
d="M311 918q-67 0 -106 36t-39 101q0 68 39 103.5t106 35.5q68 0 108 -36t40 -103q0 -65 -40.5 -101t-107.5 -36zM311 207q-67 0 -106 36.5t-39 102.5t39 101.5t106 35.5q68 0 108 -35.5t40 -101.5t-40.5 -102.5t-107.5 -36.5z" />
    <glyph glyph-name="period.ss01" horiz-adv-x="548" 
d="M160 -2v221h227v-221h-227z" />
    <glyph glyph-name="comma.ss01" horiz-adv-x="501" 
d="M188 -274l-104 55l139 219h-96v221h233v-221z" />
    <glyph glyph-name="colon.ss01" horiz-adv-x="573" 
d="M172 766v221h227v-221h-227zM172 -2v221h227v-221h-227z" />
    <glyph glyph-name="semicolon.ss01" horiz-adv-x="591" 
d="M193 766v221h227v-221h-227zM248 -272l-98 53l137 217h-94v221h227v-221z" />
    <glyph glyph-name="exclam.ss01" horiz-adv-x="563" 
d="M330 473h-94l-58 602v359h209v-359zM168 -2v221h227v-221h-227z" />
    <glyph glyph-name="question.ss01" horiz-adv-x="1245" 
d="M721 432h-178v258q186 12 286.5 96.5t100.5 229.5q0 127 -78.5 201.5t-212.5 74.5q-128 0 -220 -69.5t-118 -192.5l-186 43q34 179 178 286t350 107q219 0 355.5 -118t136.5 -316q0 -174 -110.5 -295t-303.5 -155v-150zM516 -2v221h227v-221h-227z" />
    <glyph glyph-name="asterisk.ss02" horiz-adv-x="968" 
d="M438 1104l-4 8q-116 25 -305 94l23 66q174 -45 292 -105l9 7q-19 132 -7 305h74q12 -177 -4 -305l6 -7q117 59 293 105l23 -66q-180 -67 -303 -94v-10q94 -96 208 -264l-57 -39q-43 49 -67.5 78.5t-61 80.5t-68.5 105h-12q-16 -28 -34.5 -55.5t-31.5 -46t-35 -46.5
t-30 -38t-34 -41t-31 -37l-56 39q111 162 213 266z" />
    <glyph glyph-name="slash.ss02" horiz-adv-x="894" 
d="M66 0l667 1434h94l-667 -1434h-94z" />
    <glyph glyph-name="backslash.ss02" horiz-adv-x="897" 
d="M68 1434h94l667 -1434h-94z" />
    <glyph glyph-name="parenleft.case" horiz-adv-x="786" 
d="M172 684q0 550 410 1004l120 -93q-178 -212 -262 -432.5t-84 -478.5q0 -256 85 -477t261 -432l-120 -92q-410 454 -410 1001z" />
    <glyph glyph-name="parenright.case" horiz-adv-x="786" 
d="M614 684q0 -548 -409 -1001l-121 92q176 211 261 432t85 477q0 258 -84 478.5t-262 432.5l121 93q409 -453 409 -1004z" />
    <glyph glyph-name="braceleft.case" horiz-adv-x="747" 
d="M217 -23v484q0 72 -23.5 99.5t-87.5 27.5h-45v237h45q64 0 87.5 26.5t23.5 98.5v441q0 151 63.5 216.5t211.5 65.5h190v-170h-170q-67 0 -96 -36t-29 -121v-428q0 -79 -42.5 -128t-113.5 -51v-67q71 -3 113.5 -51.5t42.5 -126.5v-471q0 -84 29 -120t96 -36h170v-170h-190
q-148 0 -211.5 64.5t-63.5 215.5z" />
    <glyph glyph-name="braceright.case" horiz-adv-x="747" 
d="M530 461v-484q0 -151 -63 -215.5t-209 -64.5h-192v170h172q67 0 94.5 36t27.5 120v471q0 78 43 126.5t115 51.5v67q-72 1 -115 50t-43 129v428q0 85 -27.5 121t-94.5 36h-172v170h192q146 0 209 -65.5t63 -216.5v-441q0 -72 24 -98.5t87 -26.5h45v-237h-45
q-63 0 -87 -27.5t-24 -99.5z" />
    <glyph glyph-name="bracketleft.case" horiz-adv-x="696" 
d="M643 -303h-465v1976h465v-166h-295v-1644h295v-166z" />
    <glyph glyph-name="bracketright.case" horiz-adv-x="696" 
d="M518 1673v-1976h-465v166h295v1644h-295v166h465z" />
    <glyph glyph-name="parenleft.ss02" horiz-adv-x="628" 
d="M123 602q0 562 403 997l62 -49q-189 -210 -280 -443.5t-91 -504.5q0 -269 91 -502.5t280 -443.5l-62 -51q-403 435 -403 997z" />
    <glyph glyph-name="parenright.ss02" horiz-adv-x="630" 
d="M508 602q0 -561 -404 -997l-61 51q189 210 280 443.5t91 502.5q0 271 -91 504.5t-280 443.5l61 49q404 -436 404 -997z" />
    <glyph glyph-name="braceleft.ss02" horiz-adv-x="718" 
d="M184 -18v507q0 75 -23.5 103.5t-84.5 28.5h-37v131h37q62 0 85 28t23 103v467q0 129 51 188t162 59h252v-86h-243q-69 0 -101.5 -42t-32.5 -134v-473q0 -148 -133 -157v-37q133 -9 133 -158v-516q0 -90 32.5 -132t101.5 -42h243v-86h-252q-111 0 -162 59t-51 189z" />
    <glyph glyph-name="braceright.ss02" horiz-adv-x="718" 
d="M535 489v-507q0 -130 -51 -189t-162 -59h-252v86h243q69 0 101 41.5t32 132.5v516q0 149 134 158v37q-134 9 -134 157v473q0 92 -32 134t-101 42h-243v86h252q111 0 162 -59t51 -188v-467q0 -75 23 -103t85 -28h37v-131h-37q-61 0 -84.5 -28.5t-23.5 -103.5z" />
    <glyph glyph-name="bracketleft.ss02" horiz-adv-x="679" 
d="M633 -266h-465v1863h465v-86h-377v-1691h377v-86z" />
    <glyph glyph-name="bracketright.ss02" horiz-adv-x="679" 
d="M512 1597v-1863h-465v86h377v1691h-377v86h465z" />
    <glyph glyph-name="hyphen.case" horiz-adv-x="866" 
d="M172 618v177h524v-177h-524z" />
    <glyph glyph-name="endash.case" horiz-adv-x="1163" 
d="M106 618v177h951v-177h-951z" />
    <glyph glyph-name="emdash.case" horiz-adv-x="1724" 
d="M96 618v177h1532v-177h-1532z" />
    <glyph glyph-name="hyphen.ss02" horiz-adv-x="823" 
d="M170 565v88h483v-88h-483z" />
    <glyph glyph-name="endash.ss02" horiz-adv-x="1218" 
d="M160 565v88h897v-88h-897z" />
    <glyph glyph-name="emdash.ss02" horiz-adv-x="1802" 
d="M160 565v88h1480v-88h-1480z" />
    <glyph glyph-name="hyphen.case.ss02" horiz-adv-x="823" 
d="M170 668v88h483v-88h-483z" />
    <glyph glyph-name="endash.case.ss02" horiz-adv-x="1218" 
d="M160 668v88h897v-88h-897z" />
    <glyph glyph-name="emdash.case.ss02" horiz-adv-x="1802" 
d="M160 668v88h1480v-88h-1480z" />
    <glyph glyph-name="guillemotleft.case" horiz-adv-x="1185" 
d="M319 737l291 -528h-215l-297 528l297 531h215zM776 737l301 -528h-219l-301 528l301 531h219z" />
    <glyph glyph-name="guillemotright.case" horiz-adv-x="1185" 
d="M326 209h-217l299 528l-299 531h217l303 -531zM791 209h-218l293 528l-293 531h218l294 -531z" />
    <glyph glyph-name="guilsinglleft.case" horiz-adv-x="679" 
d="M299 737l287 -528h-217l-289 528l289 531h217z" />
    <glyph glyph-name="guilsinglright.case" horiz-adv-x="681" 
d="M315 209h-219l287 528l-287 531h219l289 -531z" />
    <glyph glyph-name="quotesinglbase.ss01" horiz-adv-x="501" 
d="M188 -274l-104 55l139 219h-96v221h233v-221z" />
    <glyph glyph-name="quotedblbase.ss01" horiz-adv-x="884" 
d="M188 -274l-104 55l139 219h-96v221h233v-221zM571 -274l-104 55l139 219h-94v221h233v-221z" />
    <glyph glyph-name="quotedblleft.ss01" horiz-adv-x="851" 
d="M281 1479l102 -56l-139 -219h96v-221h-234v221zM664 1479l102 -56l-139 -219h96v-221h-234v221z" />
    <glyph glyph-name="quotedblright.ss01" horiz-adv-x="866" 
d="M186 977l-102 57l139 217h-96v222h233v-222zM569 977l-102 57l139 217h-96v222h233v-222z" />
    <glyph glyph-name="quoteleft.ss01" horiz-adv-x="481" 
d="M295 1479l104 -56l-139 -219h96v-221h-233v221z" />
    <glyph glyph-name="quoteright.ss01" horiz-adv-x="473" 
d="M186 977l-102 57l139 217h-96v222h233v-222z" />
    <glyph glyph-name="hyphen_hyphen.dlig" horiz-adv-x="1386" 
d="M1214 541h-1042v178h1042v-178z" />
    <glyph glyph-name="hyphen_hyphen_greater.dlig" horiz-adv-x="1738" 
d="M920 1163l116 115l578 -578l-578 -579l-116 115l245 243q24 25 56.5 48t53.5 35t73 40l-21 60q-121 -48 -237 -48l-934 -2v170l934 4q103 0 237 -47l23 60q-130 68 -185 123z" />
    <glyph glyph-name="emdash_emdash.dlig" horiz-adv-x="2516" 
d="M1071 631h-901v92h901l-176 207l18 16l211 -162q14 58 76 58q34 0 53 -22t13 -56q6 34 29 56t53 22q42 0 61 -37l262 217l19 -16l-252 -283h909v-92h-909l176 -205l-19 -16l-211 161q-14 -57 -75 -57q-34 0 -53 22t-13 56q-6 -34 -29 -56t-53 -22q-42 0 -61 37l-262 -217
l-19 16z" />
    <glyph glyph-name="parenleft_arrowup_parenright.dlig" horiz-adv-x="2179" 
d="M1090 -217q-193 0 -369.5 75.5t-304 202.5t-203.5 302.5t-76 367.5q0 191 76 366.5t203.5 302t304 202t369.5 75.5q154 0 299.5 -48t262.5 -136t205.5 -204.5t136.5 -260.5t48 -297q0 -192 -75.5 -367t-203 -302.5t-304 -203t-369.5 -75.5zM1090 -53q159 0 304 62
t250.5 167t167.5 250t62 305q0 159 -62 304.5t-167.5 250.5t-250.5 167.5t-304 62.5q-160 0 -305.5 -62.5t-250.5 -167.5t-167 -250.5t-62 -304.5q0 -160 62 -305t167 -250t250.5 -167t305.5 -62zM684 690l-117 117l525 522l520 -522l-117 -117l-186 189q-55 55 -119 180
l-62 -21q17 -46 25.5 -70.5t17.5 -71.5t9 -93v-639h-174l-2 639q0 96 47 235l-60 25q-38 -72 -63.5 -112t-59.5 -74z" />
    <glyph glyph-name="uni0028_uni2197_uni0029.dlig" horiz-adv-x="2179" 
d="M1090 -217q-193 0 -369.5 75.5t-304 202.5t-203.5 302.5t-76 367.5q0 191 76 366.5t203.5 302t304 202t369.5 75.5q154 0 299.5 -48t262.5 -136t205.5 -204.5t136.5 -260.5t48 -297q0 -192 -75.5 -367t-203 -302.5t-304 -203t-369.5 -75.5zM1090 -53q159 0 304 62
t250.5 167t167.5 250t62 305q0 159 -62 304.5t-167.5 250.5t-250.5 167.5t-304 62.5q-160 0 -305.5 -62.5t-250.5 -167.5t-167 -250.5t-62 -304.5q0 -160 62 -305t167 -250t250.5 -167t305.5 -62zM801 1018v166h739l-2 -740h-164v265q0 70 45 213l-59 26q-52 -117 -133 -198
l-467 -471l-121 122l465 471q11 11 22 21.5t24 20t22 16.5t23.5 16t21.5 13t23.5 12.5t21 11t23 11.5t20.5 10l-25 59q-141 -43 -217 -43z" />
    <glyph glyph-name="parenleft_arrowright_parenright.dlig" horiz-adv-x="2179" 
d="M1090 -217q-193 0 -369.5 75.5t-304 202.5t-203.5 302.5t-76 367.5q0 191 76 366.5t203.5 302t304 202t369.5 75.5q154 0 299.5 -48t262.5 -136t205.5 -204.5t136.5 -260.5t48 -297q0 -192 -75.5 -367t-203 -302.5t-304 -203t-369.5 -75.5zM1090 -53q159 0 304 62
t250.5 167t167.5 250t62 305q0 159 -62 304.5t-167.5 250.5t-250.5 167.5t-304 62.5q-160 0 -305.5 -62.5t-250.5 -167.5t-167 -250.5t-62 -304.5q0 -160 62 -305t167 -250t250.5 -167t305.5 -62zM1044 1139l117 114l522 -522l-522 -522l-117 117l189 186q33 33 70.5 56.5
t111.5 62.5l-24 61q-115 -47 -234 -47l-661 -2v172l661 2q99 2 234 -47l24 59q-126 67 -182 123z" />
    <glyph glyph-name="uni0028_uni2198_uni0029.dlig" horiz-adv-x="2179" 
d="M1090 -217q-193 0 -369.5 75.5t-304 202.5t-203.5 302.5t-76 367.5q0 191 76 366.5t203.5 302t304 202t369.5 75.5q154 0 299.5 -48t262.5 -136t205.5 -204.5t136.5 -260.5t48 -297q0 -192 -75.5 -367t-203 -302.5t-304 -203t-369.5 -75.5zM1090 -53q159 0 304 62
t250.5 167t167.5 250t62 305q0 159 -62 304.5t-167.5 250.5t-250.5 167.5t-304 62.5q-160 0 -305.5 -62.5t-250.5 -167.5t-167 -250.5t-62 -304.5q0 -160 62 -305t167 -250t250.5 -167t305.5 -62zM1368 1051l166 2l-2 -742h-739l2 166l264 -2q70 0 213 -45l28 59
q-113 47 -200 134l-471 464l123 123l471 -465q15 -15 28.5 -30.5t25.5 -33t19.5 -28.5t18 -30.5l14 -26t14 -28t11.5 -23.5l61 26q-45 131 -45 215z" />
    <glyph glyph-name="parenleft_arrowdown_parenright.dlig" horiz-adv-x="2179" 
d="M1090 -217q-193 0 -369.5 75.5t-304 202.5t-203.5 302.5t-76 367.5q0 191 76 366.5t203.5 302t304 202t369.5 75.5q154 0 299.5 -48t262.5 -136t205.5 -204.5t136.5 -260.5t48 -297q0 -192 -75.5 -367t-203 -302.5t-304 -203t-369.5 -75.5zM1090 -53q159 0 304 62
t250.5 167t167.5 250t62 305q0 159 -62 304.5t-167.5 250.5t-250.5 167.5t-304 62.5q-160 0 -305.5 -62.5t-250.5 -167.5t-167 -250.5t-62 -304.5q0 -160 62 -305t167 -250t250.5 -167t305.5 -62zM1092 143l-525 523l117 116l186 -186q51 -53 121 -184l60 24l-5 16
q-6 16 -7 19t-6 19t-6.5 22l-5.5 22t-5.5 25t-4.5 25t-4 28.5t-2 28t-1 31.5l2 637h174v-637q0 -109 -52 -236l62 -22q60 110 91 149q13 17 28 33l186 186l117 -116z" />
    <glyph glyph-name="uni0028_uni2199_uni0029.dlig" horiz-adv-x="2179" 
d="M1090 -217q-193 0 -369.5 75.5t-304 202.5t-203.5 302.5t-76 367.5q0 191 76 366.5t203.5 302t304 202t369.5 75.5q154 0 299.5 -48t262.5 -136t205.5 -204.5t136.5 -260.5t48 -297q0 -192 -75.5 -367t-203 -302.5t-304 -203t-369.5 -75.5zM1090 -53q159 0 304 62
t250.5 167t167.5 250t62 305q0 159 -62 304.5t-167.5 250.5t-250.5 167.5t-304 62.5q-160 0 -305.5 -62.5t-250.5 -167.5t-167 -250.5t-62 -304.5q0 -160 62 -305t167 -250t250.5 -167t305.5 -62zM662 293l-3 739h166v-264q-3 -89 -47 -215l62 -27q1 3 15.5 32.5t22 42
t23 38t33 47t39.5 43.5l469 463l123 -123l-471 -465q-81 -81 -199 -133l27 -59q146 47 215 47h262l2 -166h-739z" />
    <glyph glyph-name="parenleft_arrowleft_parenright.dlig" horiz-adv-x="2179" 
d="M1087 -219q-192 0 -368 75.5t-303.5 202.5t-203 302.5t-75.5 367.5q0 153 48 297t136.5 260.5t205 204.5t261.5 136t299 48q194 0 370.5 -75.5t304.5 -202.5t204 -302t76 -366q0 -192 -76 -367.5t-204 -302.5t-304.5 -202.5t-370.5 -75.5zM1087 -57q160 0 305.5 62.5
t251 167.5t168 250.5t62.5 305.5q0 159 -62.5 304t-168 249.5t-251 166.5t-305.5 62q-159 0 -304 -62t-249.5 -166.5t-166.5 -249.5t-62 -304q0 -160 62 -305.5t166.5 -250.5t249.5 -167.5t304 -62.5zM494 727l524 524l112 -116l-184 -187q-54 -52 -184 -121l24 -59
q134 47 236 47l661 -2v-174l-661 4q-121 0 -236 47l-24 -61q53 -28 74.5 -40t54 -34t55.5 -45l184 -186l-112 -117z" />
    <glyph glyph-name="uni0028_uni2196_uni0029.dlig" horiz-adv-x="2179" 
d="M1087 -219q-192 0 -368 75.5t-303.5 202.5t-203 302.5t-75.5 367.5q0 153 48 297t136.5 260.5t205 204.5t261.5 136t299 48q194 0 370.5 -75.5t304.5 -202.5t204 -302t76 -366q0 -192 -76 -367.5t-204 -302.5t-304.5 -202.5t-370.5 -75.5zM1087 -57q160 0 305.5 62.5
t251 167.5t168 250.5t62.5 305.5q0 159 -62.5 304t-168 249.5t-251 166.5t-305.5 62q-159 0 -304 -62t-249.5 -166.5t-166.5 -249.5t-62 -304q0 -160 62 -305.5t166.5 -250.5t249.5 -167.5t304 -62.5zM659 1180h742v-164l-264 2q-48 0 -91.5 9t-125.5 32l-25 -58
q5 -2 23.5 -11t25 -12.5t23.5 -12.5t25.5 -14.5t24 -15.5t27 -19t25.5 -21t27 -25l465 -471l-121 -125l-467 471q-81 83 -133 201l-58 -26q43 -147 43 -213v-267h-163z" />
    <glyph glyph-name="registered.calt" horiz-adv-x="1818" 
d="M909 -31q-222 0 -403 97t-288 278t-107 412q0 141 41.5 264.5t116 216t174.5 159t219 100.5t247 34q160 0 304.5 -54t254.5 -151t175 -245t65 -324q0 -174 -62.5 -322t-170 -249.5t-254.5 -158.5t-312 -57zM909 98q140 0 261.5 47.5t209 132.5t137.5 208t50 268
q0 194 -88.5 343t-237.5 226.5t-332 77.5q-184 0 -333 -77t-237.5 -225.5t-88.5 -342.5q0 -193 86 -344t236 -232.5t337 -81.5zM758 356h-168v793h420q130 0 200 -60t70 -165q0 -97 -63.5 -155.5t-167.5 -63.5v-35q51 -9 84 -38t61 -87l41 -82q34 -70 65 -82v-25h-174
q-32 26 -57 88l-45 99q-30 62 -63.5 86t-94.5 24h-108v-297zM758 1020v-250h198q148 0 148 125t-150 125h-196z" />
    <glyph glyph-name="at.case" horiz-adv-x="2136" 
d="M1071 -262q-280 0 -497.5 110t-339 313.5t-121.5 469.5q0 204 73.5 381t203 304t316 200t404.5 73q262 0 469.5 -102t326.5 -292t119 -435q0 -248 -123 -402.5t-311 -154.5q-98 0 -161 48.5t-82 133.5h-54q-45 -85 -141.5 -134.5t-212.5 -49.5q-184 0 -296 123.5
t-112 318.5q0 219 135 363.5t334 144.5q119 0 209 -54.5t127 -144.5h54l30 170h176l-90 -555q-37 -215 99 -215q117 0 189.5 116.5t72.5 289.5q0 208 -99.5 364.5t-269 237t-383.5 80.5q-178 0 -332 -57.5t-265.5 -161t-175.5 -253.5t-64 -327q0 -340 222.5 -548t588.5 -208
q323 0 557 172l71 -127q-110 -89 -282 -140.5t-365 -51.5zM1022 369q88 0 159.5 40t110.5 107l33 254q-22 96 -95.5 153.5t-178.5 57.5q-134 0 -218.5 -92t-84.5 -234q0 -132 74.5 -209t199.5 -77z" />
    <glyph glyph-name="ampersand.ss02" horiz-adv-x="1320" 
d="M113 340q0 153 99 271.5t263 164.5q-92 64 -145.5 114.5t-84 112t-30.5 134.5q0 141 99 234t264 93q166 0 262.5 -93t93.5 -228q-1 -63 -25.5 -119t-61 -95t-82.5 -70t-88 -48.5t-79 -24.5l-4 -30q120 -81 280 -226l130 -116q89 115 141 325l88 -39q-57 -214 -197 -317
v-37q86 -65 156.5 -162t97.5 -184h-116q-50 144 -146 274h-39q-49 -135 -180.5 -217t-296.5 -82q-184 0 -291.5 102.5t-107.5 262.5zM307 1143q0 -96 57.5 -163.5t200.5 -164.5q114 69 154 102q125 102 125 232q0 105 -73.5 169t-195.5 64q-124 0 -196 -65t-72 -174z
M207 348q0 -133 85.5 -209t231.5 -76q148 0 261.5 78.5t170.5 204.5l-419 373q-162 -44 -246 -143t-84 -228z" />
    <glyph glyph-name="bar_bar.dlig" horiz-adv-x="1259" 
d="M1090 1434v-562h-918v562h918zM172 0v561h918v-561h-918z" />
    <glyph glyph-name="less_hyphen_hyphen.dlig" horiz-adv-x="1734" 
d="M1589 782v-170l-934 2q-116 0 -237 48l-23 -60q51 -27 74 -40t55 -35.5t56 -47.5l243 -243l-114 -115l-578 579l578 578l114 -115l-243 -241q-61 -58 -187 -123l25 -60q134 47 237 47z" />
    <glyph glyph-name="uni0308.ss01" horiz-adv-x="0" 
d="M-856 1260v235h199v-235h-199zM-367 1260v235h199v-235h-199z" />
    <glyph glyph-name="uni0307.ss01" horiz-adv-x="0" 
d="M-344 1260v235h201v-235h-201z" />
    <glyph glyph-name="dotaccent.ss01" horiz-adv-x="487" 
d="M143 1260v235h201v-235h-201z" />
    <glyph glyph-name="dieresis.ss01" horiz-adv-x="1024" 
d="M168 1260v235h199v-235h-199zM657 1260v235h199v-235h-199z" />
    </font>
</defs>
</svg>
