<?xml version="1.0" standalone="no"?>
<!DOCTYPE svg PUBLIC "-//W3C//DTD SVG 1.1//EN" "http://www.w3.org/Graphics/SVG/1.1/DTD/svg11.dtd" >
<svg xmlns="http://www.w3.org/2000/svg" xmlns:xlink="http://www.w3.org/1999/xlink" version="1.1">
<metadata>
Created by FontForge 20170731 at Wed Dec 14 08:56:24 2022
 By Aleksey,,,
Copyright (c) 2020 by Doni Sukma. All rights reserved.
</metadata>
<defs>
<font id="Bauziet-Norm-Bold" horiz-adv-x="1329" >
  <font-face 
    font-family="Bold"
    font-weight="700"
    font-stretch="normal"
    units-per-em="2048"
    panose-1="0 0 8 0 0 0 0 0 0 0"
    ascent="1495"
    descent="-553"
    x-height="1085"
    cap-height="1434"
    bbox="-1008 -537 3236 2081"
    underline-thickness="102"
    underline-position="-307"
    unicode-range="U+0020-1F642"
  />
<missing-glyph horiz-adv-x="2236" 
d="M1944 0h-1721l31 172q75 0 121 27t65 106l156 897q5 40 -3.5 65.5t-31 36.5t-46.5 14.5t-60 2.5l32 172l531 2l-29 -172h-9.5h-14t-16.5 -1t-19.5 -3t-20.5 -6t-20.5 -10t-19 -15.5t-17.5 -21t-13.5 -28t-9.5 -36.5l-149 -811q-18 -96 -37 -148.5t-61 -88.5l28 -37
q40 33 96.5 49t94.5 18t112 2h674q32 0 47.5 0.5t40.5 3.5t38.5 10.5t29 20.5t24.5 34t15 50l33 201h200zM1722 1278q0 59 35.5 94t93.5 35q57 0 91 -34.5t34 -94.5q0 -55 -34.5 -90t-90.5 -35q-57 0 -93 35.5t-36 89.5zM1753 1282q0 -49 26 -77.5t72 -28.5q43 0 69 29
t26 73q0 47 -25.5 74.5t-69.5 27.5q-48 0 -73 -26t-25 -72zM1833 1217h-27v124h56q18 0 32.5 -10t14.5 -31q0 -13 -8 -23.5t-19 -12.5l27 -47h-31l-20 43h-25v-43zM1833 1319v-41h25q9 0 16.5 5.5t7.5 12.5q0 23 -20 23h-29zM1194 336h-393l30 168h228l6 37
q-91 46 -137.5 127.5t-46.5 183.5q0 183 131.5 303.5t343.5 120.5q192 0 310 -100.5t118 -264.5q0 -132 -77.5 -233.5t-203.5 -136.5l-8 -37h209l-23 -168h-397l41 246q120 19 195 99.5t75 190.5q0 106 -66.5 169t-178.5 63q-127 0 -206 -78t-79 -199q0 -91 47 -157t123 -88
z" />
    <glyph glyph-name="fi" unicode="fi" horiz-adv-x="1441" 
d="M963 1417q0 82 51.5 132t136.5 50q86 0 139 -50t53 -132q0 -83 -52.5 -132.5t-139.5 -49.5q-85 0 -136.5 49.5t-51.5 132.5zM240 829h-209v256h209v89q0 342 401 342q88 0 150 -15l38 -252q-54 13 -114 13q-90 0 -127 -25t-37 -100v-52h758v-1085h-312v829h-446v-829
h-311v829z" />
    <glyph glyph-name="f_f.liga" unicode="ff" horiz-adv-x="1609" 
d="M240 829h-209v256h209v89q0 342 401 342q88 0 150 -15l38 -252q-54 13 -114 13q-90 0 -127 -25t-37 -100v-52h422v89q0 342 401 342q88 0 150 -15l39 -252q-54 13 -115 13q-90 0 -127 -25t-37 -100v-52h303v-256h-303v-829h-311v829h-422v-829h-311v829z" />
    <glyph glyph-name="f_f_i.liga" unicode="ffi" horiz-adv-x="2174" 
d="M1696 1417q0 82 51.5 132t136.5 50q86 0 139.5 -50t53.5 -132q0 -83 -53 -132.5t-140 -49.5q-85 0 -136.5 49.5t-51.5 132.5zM240 829h-209v256h209v89q0 342 401 342q88 0 150 -15l38 -252q-54 13 -114 13q-90 0 -127 -25t-37 -100v-52h422v89q0 342 401 342
q88 0 150 -15l39 -252q-54 13 -115 13q-90 0 -127 -25t-37 -100v-52h758v-1085h-311v829h-447v-829h-311v829h-422v-829h-311v829z" />
    <glyph glyph-name="f_t.liga" unicode="ft" horiz-adv-x="1665" 
d="M240 829h-209v256h209v89q0 342 401 342q88 0 150 -15l38 -252q-54 13 -114 13q-90 0 -127 -25t-37 -100v-52h434v269l311 57v-326h312v-256h-312v-423q0 -81 26.5 -114.5t107.5 -33.5q69 0 141 31l-39 -291q-98 -27 -193 -27q-192 0 -273 96.5t-81 274.5v487h-434v-829
h-311v829z" />
    <glyph glyph-name="t_f.liga" unicode="tf" horiz-adv-x="1636" 
d="M236 829h-211v256h211v269l311 57v-326h454v89q0 342 402 342q87 0 149 -15l37 -252q-54 13 -114 13q-88 0 -125 -25t-37 -100v-52h301v-256h-301v-829h-312v829h-454v-423q0 -82 26 -115t107 -33q69 0 141 31l-41 -291q-94 -27 -190 -27q-192 0 -273 96.5t-81 274.5v487
z" />
    <glyph glyph-name="t_i.liga" unicode="ti" horiz-adv-x="1454" 
d="M975 1417q0 82 52 132t138 50t139.5 -50t53.5 -132q0 -83 -53 -132.5t-140 -49.5q-86 0 -138 49.5t-52 132.5zM236 829h-211v256h211v269l307 57v-326h778v-1085h-311v829h-467v-423q0 -82 26 -115t107 -33q69 0 141 31l-39 -291q-98 -27 -192 -27q-189 0 -269.5 96.5
t-80.5 274.5v487z" />
    <glyph glyph-name="t_t.liga" unicode="tt" horiz-adv-x="1677" 
d="M236 829h-211v256h211v269l311 57v-326h450v269l312 57v-326h311v-256h-311v-423q0 -82 26 -115t107 -33q69 0 141 31l-41 -291q-94 -27 -190 -27q-192 0 -273.5 96.5t-81.5 274.5v487h-450v-423q0 -82 26 -115t107 -33q69 0 141 31l-41 -291q-94 -27 -190 -27
q-192 0 -273 96.5t-81 274.5v487z" />
    <glyph glyph-name="t_t_i.liga" unicode="tti" horiz-adv-x="2201" 
d="M1724 1417q0 82 51.5 132t137.5 50t139 -50t53 -132q0 -83 -52.5 -132.5t-139.5 -49.5q-86 0 -137.5 49.5t-51.5 132.5zM236 829h-211v256h211v269l311 57v-326h450v269l312 57v-326h759v-1085h-311v829h-448v-423q0 -82 26 -115t107 -33q69 0 141 31l-41 -291
q-94 -27 -190 -27q-192 0 -273.5 96.5t-81.5 274.5v487h-450v-423q0 -82 26 -115t107 -33q69 0 141 31l-41 -291q-94 -27 -190 -27q-192 0 -273 96.5t-81 274.5v487z" />
    <glyph glyph-name=".notdef" horiz-adv-x="2236" 
d="M1944 0h-1721l31 172q75 0 121 27t65 106l156 897q5 40 -3.5 65.5t-31 36.5t-46.5 14.5t-60 2.5l32 172l531 2l-29 -172h-9.5h-14t-16.5 -1t-19.5 -3t-20.5 -6t-20.5 -10t-19 -15.5t-17.5 -21t-13.5 -28t-9.5 -36.5l-149 -811q-18 -96 -37 -148.5t-61 -88.5l28 -37
q40 33 96.5 49t94.5 18t112 2h674q32 0 47.5 0.5t40.5 3.5t38.5 10.5t29 20.5t24.5 34t15 50l33 201h200zM1722 1278q0 59 35.5 94t93.5 35q57 0 91 -34.5t34 -94.5q0 -55 -34.5 -90t-90.5 -35q-57 0 -93 35.5t-36 89.5zM1753 1282q0 -49 26 -77.5t72 -28.5q43 0 69 29
t26 73q0 47 -25.5 74.5t-69.5 27.5q-48 0 -73 -26t-25 -72zM1833 1217h-27v124h56q18 0 32.5 -10t14.5 -31q0 -13 -8 -23.5t-19 -12.5l27 -47h-31l-20 43h-25v-43zM1833 1319v-41h25q9 0 16.5 5.5t7.5 12.5q0 23 -20 23h-29zM1194 336h-393l30 168h228l6 37
q-91 46 -137.5 127.5t-46.5 183.5q0 183 131.5 303.5t343.5 120.5q192 0 310 -100.5t118 -264.5q0 -132 -77.5 -233.5t-203.5 -136.5l-8 -37h209l-23 -168h-397l41 246q120 19 195 99.5t75 190.5q0 106 -66.5 169t-178.5 63q-127 0 -206 -78t-79 -199q0 -91 47 -157t123 -88
z" />
    <glyph glyph-name=".null" horiz-adv-x="0" 
 />
    <glyph glyph-name="nonmarkingreturn" horiz-adv-x="682" 
 />
    <glyph glyph-name="space" unicode=" " horiz-adv-x="528" 
 />
    <glyph glyph-name="exclam" unicode="!" horiz-adv-x="675" 
d="M399 514h-125l-96 612v308h320v-308zM338 -20q-91 0 -145 46.5t-54 135.5q0 91 54 137.5t145 46.5t145 -46.5t54 -137.5q0 -89 -54 -135.5t-145 -46.5z" />
    <glyph glyph-name="quotedbl" unicode="&#x22;" horiz-adv-x="909" 
d="M92 836v598h264v-598h-264zM553 836v598h264v-598h-264z" />
    <glyph glyph-name="numbersign" unicode="#" horiz-adv-x="1542" 
d="M446 0h-256l43 156q37 142 142 227l-45 57q-37 -40 -100 -67t-140 -27h-29v225h279l86 314h-223v225h278l86 324h258l-39 -134q-38 -142 -139 -227l45 -57q37 41 102.5 67.5t151.5 26.5h58l83 324h261l-37 -129q-24 -91 -57 -139.5t-87 -92.5l45 -57q37 40 100 67t140 27
h29v-225h-279l-86 -314h223v-225h-278l-92 -346h-258l43 152q40 149 141 231l-45 57q-37 -40 -100 -67t-140 -27h-71zM680 885l-84 -314h264l86 314h-266z" />
    <glyph glyph-name="dollar" unicode="$" horiz-adv-x="1456" 
d="M68 463l311 55q18 -235 262 -278v358q-103 23 -174.5 44.5t-141 56.5t-111 79.5t-66.5 110.5t-25 151q0 187 141.5 298.5t378.5 125.5q-20 95 -20 209h233q0 -129 -18 -211q225 -26 371.5 -143t174.5 -289l-311 -65q-33 179 -235 225v-324l55 -12q177 -43 251 -74
q187 -79 231 -237q14 -53 14 -115q0 -208 -147 -326.5t-404 -136.5q18 -82 18 -207h-233q0 117 20 209q-265 23 -413 154.5t-162 341.5zM449 1102q0 -77 48 -122.5t144 -68.5v103q0 151 80 209l-43 84q-96 -13 -162.5 -66t-66.5 -139zM741 209l25 -84q132 9 213.5 70.5
t81.5 154.5q0 95 -57.5 142.5t-165.5 66.5v-115q0 -97 -21 -150t-76 -85z" />
    <glyph glyph-name="percent" unicode="%" horiz-adv-x="1798" 
d="M1247 -16q-190 0 -307 111t-117 290q0 60 23 154l-70 12q-42 -212 -141 -338l-166 -213h-264v23l241 313q71 89 169 176t188 145l-49 60q-41 -41 -101 -63.5t-118 -22.5q-194 0 -301 114.5t-107 309.5q0 203 114.5 315.5t307.5 112.5q190 0 307 -112t117 -292
q0 -57 -23 -151l70 -13q41 206 141 338l166 211h264v-22l-241 -312q-71 -91 -169 -178t-188 -143l49 -61q42 42 102.5 65t119.5 23q192 0 298.5 -115.5t106.5 -310.5q0 -202 -114 -314t-308 -112zM549 829q164 0 164 224q0 227 -164 227t-164 -227q0 -224 164 -224z
M1247 184q164 0 164 228q0 120 -42.5 171.5t-121.5 51.5q-80 0 -122 -52.5t-42 -170.5q0 -228 164 -228z" />
    <glyph glyph-name="ampersand" unicode="&#x26;" horiz-adv-x="1509" 
d="M104 354q0 273 310 441q-82 80 -124 156.5t-42 164.5q0 156 124 255t324 99q196 0 314 -96.5t116 -247.5q0 -143 -104 -232.5t-258 -100.5l-6 -76q111 -38 241 -131l62 -45q81 112 125 264l284 -98q-31 -91 -97.5 -157.5t-149.5 -86.5l-19 -51q196 -202 228 -412h-330
q-25 109 -72 197h-59q-43 -111 -160.5 -173.5t-267.5 -62.5q-198 0 -318.5 107.5t-120.5 285.5zM545 1112q0 -104 139 -201q48 32 75.5 54.5t52 61t24.5 79.5q0 62 -40.5 98.5t-107.5 36.5q-62 0 -102.5 -36t-40.5 -93zM426 403q0 -74 48 -123t140 -49q150 0 246 134
l-268 258q-82 -50 -124 -101t-42 -119z" />
    <glyph glyph-name="quotesingle" unicode="'" horiz-adv-x="450" 
d="M92 836v598h264v-598h-264z" />
    <glyph glyph-name="parenleft" unicode="(" horiz-adv-x="825" 
d="M170 604q0 265 106 521t310 485l182 -135q-166 -210 -245 -419t-79 -452q0 -244 79.5 -453.5t244.5 -416.5l-182 -135q-204 229 -310 484.5t-106 520.5z" />
    <glyph glyph-name="parenright" unicode=")" horiz-adv-x="825" 
d="M655 604q0 -265 -106 -520t-309 -485l-185 135q165 207 244.5 416.5t79.5 453.5t-78.5 453t-245.5 418l185 135q203 -229 309 -485t106 -521z" />
    <glyph glyph-name="asterisk" unicode="*" horiz-adv-x="1040" 
d="M408 1036l-7 21q-155 14 -295 67l76 201q45 -17 70 -28t76 -41t108 -74l17 10q-21 71 -31.5 131.5t-12 90.5t-1.5 79h225q0 -48 -1.5 -77.5t-11.5 -89t-30 -130.5l14 -12q58 44 107.5 73.5t77 41t69.5 26.5l76 -201q-47 -18 -76.5 -27.5t-88 -21t-128.5 -18.5l-6 -23
q58 -38 104.5 -77.5t68.5 -63.5t54 -62l-178 -137q-36 46 -50.5 65t-45.5 72.5t-56 116.5h-24q-26 -64 -55.5 -116t-47 -75.5t-49.5 -62.5l-178 137q32 39 55 63t69 63.5t106 78.5z" />
    <glyph glyph-name="plus" unicode="+" horiz-adv-x="1345" 
d="M793 803h426v-225h-426v-435h-238v435h-428v225h428v432h238v-432z" />
    <glyph glyph-name="comma" unicode="," horiz-adv-x="583" 
d="M424 18l-199 -329l-143 71l133 226q-65 12 -102 57.5t-37 118.5q0 91 53.5 137.5t144.5 46.5t145 -46.5t54 -137.5q0 -64 -49 -144z" />
    <glyph glyph-name="hyphen" unicode="-" horiz-adv-x="788" 
d="M113 526v269h563v-269h-563z" />
    <glyph glyph-name="period" unicode="." horiz-adv-x="671" 
d="M336 -20q-91 0 -144 46t-53 136q0 91 53 137.5t144 46.5t145 -46.5t54 -137.5q0 -89 -54 -135.5t-145 -46.5z" />
    <glyph glyph-name="slash" unicode="/" horiz-adv-x="999" 
d="M10 0l668 1434h315l-667 -1434h-316z" />
    <glyph glyph-name="zero" unicode="0" horiz-adv-x="1394" 
d="M694 -25q-290 0 -452 203t-162 543q0 354 167 551.5t447 197.5q196 0 337 -93.5t212.5 -261.5t71.5 -394q0 -353 -168.5 -549.5t-452.5 -196.5zM694 256q305 0 305 465q0 237 -79 352t-226 115q-299 0 -299 -467q0 -237 77.5 -351t221.5 -114z" />
    <glyph glyph-name="one" unicode="1" horiz-adv-x="1056" 
d="M780 0h-315v668q0 126 30 216.5t101 166.5l-74 71q-176 -178 -411 -200v268q141 25 266.5 91.5t191.5 152.5h211v-1434z" />
    <glyph glyph-name="two" unicode="2" horiz-adv-x="1263" 
d="M1188 0h-1112v244l579 418q121 87 162 159.5t41 153.5q0 111 -60.5 172t-162.5 61q-121 0 -189.5 -74t-68.5 -214l-299 28q0 241 148 381.5t415 140.5q238 0 384 -130t146 -345q0 -164 -78.5 -284.5t-291.5 -264.5q-162 -118 -332 -204l47 -101q83 35 141.5 56t164 43
t206.5 22h160v-262z" />
    <glyph glyph-name="three" unicode="3" horiz-adv-x="1341" 
d="M672 -39q-283 0 -433.5 122.5t-168.5 350.5l280 70q34 -279 328 -279q132 0 202 52.5t70 154.5q0 97 -67.5 143t-184.5 46h-176v225h152q127 0 184 49t57 131q0 90 -61 138t-172 48q-134 0 -210.5 -69.5t-88.5 -190.5l-283 66q15 210 180 331t408 121q259 0 401 -107
t142 -280q0 -118 -72 -195t-196 -104v-92q136 -9 219.5 -93t83.5 -212q0 -195 -157.5 -310.5t-436.5 -115.5z" />
    <glyph glyph-name="four" unicode="4" horiz-adv-x="1445" 
d="M1145 0h-316v283h-782v249l741 902h357v-893h233v-258h-233v-283zM852 1178l-520 -650l59 -63q42 36 118 56t163 20h157v229q0 115 26.5 189.5t84.5 132.5z" />
    <glyph glyph-name="five" unicode="5" horiz-adv-x="1376" 
d="M72 416l282 67q18 -127 107 -192.5t229 -65.5q146 0 220.5 69t74.5 189q0 124 -74 190t-209 66q-99 0 -181.5 -35.5t-137.5 -99.5l-252 74l98 756h940v-260h-675l-9 -64q-9 -63 -43 -129t-84 -117l91 -67q54 82 148.5 128t209.5 46q227 0 360 -134t133 -354
q0 -247 -165 -383.5t-439 -136.5q-264 0 -434.5 125t-189.5 328z" />
    <glyph glyph-name="six" unicode="6" horiz-adv-x="1419" 
d="M731 -37q-317 0 -484 199t-167 551q0 356 185 556.5t497 200.5q217 0 372 -102.5t187 -269.5l-315 -70q-27 85 -96 131.5t-162 46.5q-161 0 -256.5 -119t-98.5 -360l80 -14q41 102 148 162.5t247 60.5q215 0 343 -123.5t128 -341.5q0 -231 -162.5 -369.5t-445.5 -138.5z
M739 225q131 0 208 68.5t77 185.5q0 113 -72 175.5t-202 62.5q-106 0 -195 -45.5t-139 -122.5q7 -155 93 -239.5t230 -84.5z" />
    <glyph glyph-name="seven" unicode="7" horiz-adv-x="1181" 
d="M324 1171h-277v263h1100v-240l-580 -1194h-362v14l436 865q57 112 116.5 191t145.5 157l-74 98q-84 -76 -201 -115t-304 -39z" />
    <glyph glyph-name="eight" unicode="8" horiz-adv-x="1439" 
d="M76 385q0 128 84.5 212.5t226.5 109.5v86q-258 59 -258 284q0 178 160.5 284.5t431.5 106.5q269 0 429.5 -107t160.5 -284q0 -225 -258 -284v-86q142 -25 226.5 -109.5t84.5 -212.5q0 -204 -171 -313t-472 -109q-302 0 -473.5 109t-171.5 313zM444 1032
q0 -85 72.5 -135.5t204.5 -50.5q131 0 202.5 50.5t71.5 135.5q0 91 -71 139t-203 48q-134 0 -205.5 -48t-71.5 -139zM391 440q0 -105 83.5 -162t246.5 -57q162 0 245 57.5t83 161.5q0 101 -84.5 159t-243.5 58q-160 0 -245 -58.5t-85 -158.5z" />
    <glyph glyph-name="nine" unicode="9" horiz-adv-x="1421" 
d="M688 1470q318 0 484.5 -199.5t166.5 -551.5q0 -356 -184.5 -556t-495.5 -200q-220 0 -373.5 103t-187.5 268l316 69q27 -84 96.5 -131t161.5 -47q162 0 256.5 119.5t97.5 360.5l-78 14q-43 -102 -149 -161.5t-246 -59.5q-216 0 -344.5 122.5t-128.5 340.5q0 231 163 370
t445 139zM682 1208q-130 0 -208.5 -69.5t-78.5 -186.5q0 -113 72.5 -175t204.5 -62q106 0 194 45.5t140 124.5q-9 155 -94.5 239t-229.5 84z" />
    <glyph glyph-name="colon" unicode=":" horiz-adv-x="696" 
d="M348 729q-91 0 -143.5 46.5t-52.5 137.5q0 90 52.5 136.5t143.5 46.5t145 -46.5t54 -136.5q0 -91 -54 -137.5t-145 -46.5zM348 -20q-91 0 -143.5 46t-52.5 136q0 91 52.5 137.5t143.5 46.5t145 -46.5t54 -137.5q0 -89 -54 -135.5t-145 -46.5z" />
    <glyph glyph-name="semicolon" unicode=";" horiz-adv-x="690" 
d="M340 729q-91 0 -144 46.5t-53 137.5q0 90 53 136.5t144 46.5q92 0 145.5 -46.5t53.5 -136.5q0 -91 -53.5 -137.5t-145.5 -46.5zM492 18l-201 -329l-144 71l136 226q-66 12 -103 57t-37 119q0 91 54 137.5t145 46.5t144 -46.5t53 -137.5q0 -67 -47 -144z" />
    <glyph glyph-name="less" unicode="&#x3c;" horiz-adv-x="1245" 
d="M1049 461v-281l-869 344v334l869 344v-280l-332 -117q-190 -65 -279 -76v-76q92 -11 279 -75z" />
    <glyph glyph-name="equal" unicode="=" horiz-adv-x="1196" 
d="M154 1047h888v-228h-888v228zM154 561h888v-227h-888v227z" />
    <glyph glyph-name="greater" unicode="&#x3e;" horiz-adv-x="1245" 
d="M1065 524l-868 -344v281l331 117q186 64 281 75v76q-91 11 -281 76l-331 117v280l868 -344v-334z" />
    <glyph glyph-name="question" unicode="?" horiz-adv-x="1282" 
d="M795 473h-267v262q351 19 351 258q0 102 -63 158.5t-167 56.5t-176 -55t-84 -156l-287 62q23 189 175 300t382 111q240 0 386.5 -121.5t146.5 -324.5q0 -168 -102.5 -284t-294.5 -152v-115zM651 -20q-88 0 -139 46t-51 136q0 91 51 137.5t139 46.5t139.5 -46.5
t51.5 -137.5q0 -90 -51.5 -136t-139.5 -46z" />
    <glyph glyph-name="at" unicode="@" horiz-adv-x="2095" 
d="M1079 -356q-171 0 -325.5 41.5t-278.5 122t-215 191.5t-140.5 257t-49.5 313q0 207 75.5 385t208.5 305t324 199t414 72q271 0 482.5 -102.5t331 -293.5t119.5 -440q0 -263 -129 -418t-331 -155q-122 0 -196.5 57t-92.5 154h-68q-39 -85 -126.5 -133.5t-196.5 -48.5
q-170 0 -270.5 114t-100.5 307q0 219 123 358.5t311 139.5q108 0 187.5 -47.5t111.5 -132.5h70l29 158h251l-88 -535q-6 -46 -6 -84.5t22 -64t66 -25.5q93 0 147 99t54 253q0 121 -34.5 222.5t-97 175t-149 125t-190.5 77t-221 25.5q-228 0 -406 -93t-276.5 -261t-98.5 -383
q0 -211 96 -373t276 -252t419 -90q289 0 514 155l102 -188q-118 -88 -287 -137t-360 -49zM1018 397q58 0 103.5 24.5t72.5 67.5l23 203q-14 59 -64 95t-117 36q-91 0 -145.5 -63.5t-54.5 -163.5q0 -95 48.5 -147t133.5 -52z" />
    <glyph glyph-name="A" unicode="A" horiz-adv-x="1480" 
d="M1466 0h-331l-82 227h-625l-82 -227h-332l541 1434h369zM606 727l-80 -223h428l-80 223q-34 96 -49.5 173.5t-27.5 205.5h-113q-12 -127 -28.5 -205.5t-49.5 -173.5z" />
    <glyph glyph-name="B" unicode="B" horiz-adv-x="1390" 
d="M999 797v-80q143 -14 224.5 -102.5t81.5 -233.5q0 -182 -132 -281.5t-358 -99.5h-682v1434h733q186 0 290 -91t104 -245q0 -123 -67 -202t-194 -99zM768 1157h-319v-291h319q92 0 132 36.5t40 111.5q0 71 -40.5 107t-131.5 36zM449 276h348q102 0 146 41t44 129
q0 87 -45 128.5t-145 41.5h-348v-340z" />
    <glyph glyph-name="C" unicode="C" horiz-adv-x="1560" 
d="M80 717q0 154 53 292t148 241.5t237.5 163.5t310.5 59q252 -3 434.5 -138t229.5 -360l-301 -82q-38 140 -133 215.5t-234 77.5q-187 0 -303 -131t-116 -338t115.5 -338t303.5 -131q144 2 242 84t133 237l303 -75q-44 -245 -228.5 -387.5t-445.5 -145.5q-168 -1 -310.5 59
t-237.5 163.5t-148 241.5t-53 292z" />
    <glyph glyph-name="D" unicode="D" horiz-adv-x="1468" 
d="M133 1434h604q298 0 475 -188.5t177 -528.5q0 -346 -174 -531.5t-484 -185.5h-598v1434zM455 285h256q82 0 145 22t111.5 70.5t74 134t25.5 205.5q0 432 -356 432h-256v-864z" />
    <glyph glyph-name="E" unicode="E" horiz-adv-x="1236" 
d="M455 596v-311h712v-285h-1034v1434h1032v-285h-710v-289h649v-264h-649z" />
    <glyph glyph-name="F" unicode="F" horiz-adv-x="1177" 
d="M133 0v1434h1004v-285h-682v-363h655v-272h-655v-514h-322z" />
    <glyph glyph-name="G" unicode="G" horiz-adv-x="1605" 
d="M80 698q0 176 58.5 323t159.5 246t238.5 153t294.5 53q249 -3 430 -134.5t228 -345.5l-301 -84q-40 132 -133.5 204t-233.5 73q-191 0 -303 -132.5t-112 -342.5q0 -212 117 -343.5t317 -131.5q150 1 249.5 73t124.5 191v22h-391v236h658v-758h-269v14q2 15 6.5 31.5
t12.5 38.5t13.5 36.5t17.5 43t16 39.5l-98 49q-128 -287 -445 -287q-155 0 -280.5 59t-206.5 160t-124.5 233t-43.5 281z" />
    <glyph glyph-name="H" unicode="H" horiz-adv-x="1464" 
d="M133 0v1434h322v-553h553v553h323v-1434h-323v582h-553v-582h-322z" />
    <glyph glyph-name="I" unicode="I" horiz-adv-x="632" 
d="M156 0v1434h319v-1434h-319z" />
    <glyph glyph-name="J" unicode="J" horiz-adv-x="1247" 
d="M53 477v55l309 52v-64q0 -138 58 -205t162 -67q44 0 79 11.5t57 28t38 44.5t23.5 50.5t12 57t5 54t0.5 49.5v891h323v-926q0 -250 -140 -397.5t-394 -147.5q-239 0 -386 136t-147 378z" />
    <glyph glyph-name="K" unicode="K" horiz-adv-x="1406" 
d="M133 0v1434h322v-242q0 -130 -20.5 -203.5t-88.5 -159.5l74 -69l592 674h383l-539 -611l547 -823h-383l-387 594h-4l-174 -215v-379h-322z" />
    <glyph glyph-name="L" unicode="L" horiz-adv-x="1144" 
d="M133 0v1434h322v-1147h659v-287h-981z" />
    <glyph glyph-name="M" unicode="M" horiz-adv-x="1851" 
d="M440 0h-307v1434h512l186 -648q6 -22 11 -44t8.5 -39.5t7 -39.5t5.5 -35t4.5 -35.5t3.5 -32t2.5 -33.5t2 -30.5t2 -32t1.5 -30.5h94q3 74 5 108t12 102.5t28 141.5l186 648h512v-1434h-305v428q0 147 22.5 279t92.5 393l-137 39l-338 -1139h-252l-336 1139l-139 -39
q71 -259 93.5 -391t22.5 -281v-428z" />
    <glyph glyph-name="N" unicode="N" horiz-adv-x="1548" 
d="M133 0v1434h354l603 -942h4v942h321v-1434h-354l-602 926h-4v-926h-322z" />
    <glyph glyph-name="O" unicode="O" horiz-adv-x="1648" 
d="M80 717q0 161 56.5 301t155 239t237 156t296.5 57t296.5 -57t237.5 -156t155.5 -239t56.5 -301t-56.5 -301.5t-155.5 -239.5t-237.5 -156t-296.5 -57q-211 0 -381.5 97t-267 269.5t-96.5 387.5zM406 717q0 -209 116.5 -339t302.5 -130q194 0 307 131.5t113 337.5
q0 208 -114 338.5t-306 130.5t-305.5 -129t-113.5 -340z" />
    <glyph glyph-name="P" unicode="P" horiz-adv-x="1370" 
d="M133 1434h692q217 0 351.5 -130t134.5 -354q0 -226 -134 -354.5t-352 -128.5h-370v-467h-322v1434zM455 745h342q85 0 137.5 54.5t52.5 152.5q0 102 -49 152.5t-139 50.5h-344v-410z" />
    <glyph glyph-name="Q" unicode="Q" horiz-adv-x="1648" 
d="M80 713q0 219 92 391t261.5 268.5t389.5 97.5q218 2 388.5 -89t265 -257t94.5 -379q0 -268 -142 -443t-362 -208v-98q374 -17 532 -143l-241 -220q-134 61 -251 151.5t-189 184.5q-15 -6 -66 -6q-346 -1 -559 207.5t-213 542.5zM406 719q0 -211 116 -341t305 -130
q188 0 302 129.5t114 339.5q0 209 -113 339t-307 130q-193 0 -305 -130t-112 -337z" />
    <glyph glyph-name="R" unicode="R" horiz-adv-x="1363" 
d="M1184 297l61 -147q22 -51 39.5 -78t44.5 -43v-29h-360q-33 28 -47 78l-91 221q-47 118 -94.5 157.5t-148.5 39.5h-133v-496h-322v1434h737q205 0 319 -104.5t114 -287.5q0 -193 -109.5 -293t-316.5 -112v-94q65 -8 104 -19.5t77 -38t66.5 -71t59.5 -117.5zM455 774h342
q87 0 136.5 50.5t49.5 142.5q0 188 -188 188h-340v-381z" />
    <glyph glyph-name="S" unicode="S" 
d="M68 440l286 56q9 -128 99 -197.5t235 -69.5q116 0 182 45.5t66 126.5q0 83 -68 124t-243 69q-267 41 -389.5 144.5t-122.5 291.5q0 208 151 324t404 116q252 0 415.5 -118t178.5 -310l-299 -65q-17 116 -94 174.5t-205 58.5q-112 0 -171 -41t-59 -112q0 -28 8 -49.5
t21 -38t40.5 -30.5t53.5 -24t74 -20.5t88.5 -18t109.5 -18.5q220 -37 325.5 -142.5t105.5 -291.5q0 -144 -75.5 -249.5t-207.5 -158.5t-305 -53q-276 0 -434 129t-170 348z" />
    <glyph glyph-name="T" unicode="T" horiz-adv-x="1282" 
d="M29 1434h1226v-285h-452v-1149h-322v1149h-452v285z" />
    <glyph glyph-name="U" unicode="U" horiz-adv-x="1454" 
d="M127 551v883h322v-859q0 -166 68 -246.5t210 -80.5q279 0 279 327v859h319v-883q0 -283 -155.5 -435.5t-442.5 -152.5q-286 0 -443 152.5t-157 435.5z" />
    <glyph glyph-name="V" unicode="V" horiz-adv-x="1499" 
d="M12 1434h344l250 -727q67 -189 88 -377h111q19 179 88 377l250 727h346l-547 -1434h-383z" />
    <glyph glyph-name="W" unicode="W" horiz-adv-x="1994" 
d="M344 0l-326 1434h332l111 -562q21 -110 25 -262t-1 -227h121q16 236 86 473l176 578h258l181 -590q63 -206 86 -461h118q-5 79 -2 228t23 251l115 572h329l-323 -1434h-359l-174 575q-82 283 -82 504h-84q0 -211 -84 -506l-172 -573h-354z" />
    <glyph glyph-name="X" unicode="X" horiz-adv-x="1486" 
d="M412 0h-394l490 727l-475 707h395l129 -224q109 -194 131 -325h111q21 127 131 325l129 224h393l-473 -707l487 -727h-391l-157 260q-97 172 -119 309h-111q-22 -138 -119 -309z" />
    <glyph glyph-name="Y" unicode="Y" horiz-adv-x="1415" 
d="M547 545l-545 889h373l114 -217q2 -4 21 -41.5t25 -50.5t24 -50.5t26 -57.5t21.5 -55.5t20.5 -60.5t13.5 -55.5t8.5 -57.5h123q6 68 33 150t51.5 135t71.5 146l112 215h373l-543 -889v-545h-323v545z" />
    <glyph glyph-name="Z" unicode="Z" 
d="M1253 0h-1173v254l772 954l-78 82q-66 -72 -138.5 -106.5t-189.5 -34.5h-346v285h1127v-254l-776 -955l77 -82q41 46 77.5 73t105 48t159.5 21h383v-285z" />
    <glyph glyph-name="bracketleft" unicode="[" horiz-adv-x="776" 
d="M690 -358h-549v1867h549v-243h-297v-1379h297v-245z" />
    <glyph glyph-name="backslash" unicode="\" horiz-adv-x="1021" 
d="M18 1434h316l667 -1434h-315z" />
    <glyph glyph-name="bracketright" unicode="]" horiz-adv-x="776" 
d="M633 1509v-1867h-547v245h297v1379h-297v243h547z" />
    <glyph glyph-name="asciicircum" unicode="^" horiz-adv-x="954" 
d="M346 946h-272l209 549h389l209 -549h-273l-61 184q-26 79 -43 156h-53q-11 -57 -43 -156z" />
    <glyph glyph-name="underscore" unicode="_" horiz-adv-x="1077" 
d="M111 -266v266h856v-266h-856z" />
    <glyph glyph-name="grave" unicode="`" horiz-adv-x="565" 
d="M268 1264l-198 313h340l84 -313h-226z" />
    <glyph glyph-name="a" unicode="a" horiz-adv-x="1232" 
d="M1124 201q35 0 60 18v-211q-70 -39 -166 -39q-100 0 -160 52.5t-63 160.5h-82q-18 -98 -110.5 -158.5t-217.5 -60.5q-142 0 -232 81.5t-90 215.5q0 139 89 227.5t280 130.5l330 72v12q0 187 -195 187q-98 0 -155.5 -51t-63.5 -148l-285 51q21 179 164.5 280t364.5 101
q226 0 353.5 -106.5t127.5 -313.5v-389q0 -28 1 -42.5t5.5 -33.5t15.5 -27.5t29 -8.5zM508 197q83 0 157 47.5t97 117.5v146l-221 -45q-174 -38 -174 -146q0 -60 38 -90t103 -30z" />
    <glyph glyph-name="b" unicode="b" 
d="M756 -37q-243 0 -348 232l-95 -50q44 -92 56 -137v-8h-258v1495h311v-190q0 -107 -21 -182.5t-73 -149.5l94 -64q50 102 145 157.5t221 55.5q212 0 347 -160t135 -421q0 -262 -142.5 -420t-371.5 -158zM682 223q124 0 197 84.5t73 235.5q0 156 -75 237.5t-199 81.5
q-94 0 -163 -47t-93 -123v-299q24 -79 95.5 -124.5t164.5 -45.5z" />
    <glyph glyph-name="c" unicode="c" horiz-adv-x="1222" 
d="M61 535q0 267 161.5 427t428.5 160q209 0 346.5 -99t182.5 -271l-291 -88q-23 99 -90.5 149.5t-165.5 50.5q-123 0 -190.5 -87t-67.5 -234q0 -153 71.5 -237.5t190.5 -84.5q100 0 166 54t88 147l291 -88q-43 -167 -194.5 -269t-358.5 -102q-258 0 -413 156t-155 416z" />
    <glyph glyph-name="d" unicode="d" 
d="M543 -37q-214 0 -348 162t-134 418q0 260 137 419.5t353 159.5q123 0 214.5 -55.5t143.5 -157.5l95 64q-53 74 -74 149t-21 183v190h312v-1495h-258v8q12 42 53 137l-94 50q-50 -112 -151.5 -172t-227.5 -60zM649 223q93 0 164.5 45.5t95.5 124.5v299q-25 77 -94 123.5
t-164 46.5q-124 0 -199 -81.5t-75 -237.5q0 -151 73 -235.5t199 -84.5z" />
    <glyph glyph-name="e" unicode="e" horiz-adv-x="1251" 
d="M61 541q0 260 159 420.5t421 160.5q255 0 408 -154.5t153 -424.5v-99h-829q9 -106 84.5 -168.5t197.5 -62.5q104 0 187.5 45t128.5 123l176 -199q-69 -103 -206.5 -161t-293.5 -58q-260 0 -423 156.5t-163 421.5zM375 655h524q-9 105 -78 166.5t-184 61.5
q-109 0 -181 -60.5t-81 -167.5z" />
    <glyph glyph-name="f" unicode="f" horiz-adv-x="876" 
d="M240 829h-209v256h209v89q0 342 401 342q88 0 150 -15l38 -252q-54 13 -114 13q-90 0 -127 -25t-37 -100v-52h303v-256h-303v-829h-311v829z" />
    <glyph glyph-name="g" unicode="g" horiz-adv-x="1075" 
d="M485 -537q-244 0 -358.5 66t-114.5 182q0 80 53.5 129t143.5 58v59q-48 22 -72 63t-24 91q0 74 47 125.5t127 66.5v62q-118 35 -183 121t-65 202q0 185 126.5 291t338.5 106h526l41 -221h-45q-89 0 -178 58l-51 -84q83 -33 124.5 -95.5t41.5 -146.5q0 -147 -116.5 -234.5
t-309.5 -87.5h-78q-88 0 -88 -63q0 -33 27.5 -47t78.5 -17l244 -12q330 -19 330 -309q0 -181 -148.5 -272t-417.5 -91zM500 494q89 0 135.5 50.5t46.5 137.5q0 89 -49 136.5t-133 47.5q-90 0 -136.5 -49t-46.5 -135q0 -92 49 -140t134 -48zM494 -338q134 0 189.5 29t55.5 84
q0 82 -106 86l-314 18q-24 -6 -38.5 -35.5t-14.5 -64.5q0 -65 59 -91t169 -26z" />
    <glyph glyph-name="h" unicode="h" horiz-adv-x="1318" 
d="M422 0h-311v1495h311v-270q0 -74 -12 -128.5t-39.5 -116t-28.5 -65.5l94 -38q58 120 156.5 182.5t224.5 62.5q186 0 294 -123t108 -362v-637h-312v567q0 279 -211 279q-87 0 -159 -42.5t-115 -117.5v-686z" />
    <glyph glyph-name="i" unicode="i" horiz-adv-x="577" 
d="M287 1233q-86 0 -138.5 50.5t-52.5 133.5q0 82 52.5 132t138.5 50q87 0 139.5 -50t52.5 -132q0 -83 -52 -133.5t-140 -50.5zM133 0v1085h309v-1085h-309z" />
    <glyph glyph-name="j" unicode="j" horiz-adv-x="567" 
d="M281 1233q-86 0 -138.5 50.5t-52.5 133.5q0 82 52.5 132t138.5 50t138 -50t52 -132q0 -83 -52 -133.5t-138 -50.5zM436 1085v-1126q0 -224 -106.5 -340.5t-319.5 -116.5q-63 0 -100 13l-41 256q45 -9 72 -9q106 0 144 54.5t38 169.5v1099h313z" />
    <glyph glyph-name="k" unicode="k" horiz-adv-x="1273" 
d="M111 0v1495h311v-477q0 -57 -2 -89t-11 -79t-30.5 -91.5t-56.5 -94.5l84 -60q54 83 172 211l260 270h424l-463 -440l471 -645h-377l-318 459h-4l-149 -142v-317h-311z" />
    <glyph glyph-name="l" unicode="l" horiz-adv-x="540" 
d="M115 0v1495h311v-1495h-311z" />
    <glyph glyph-name="m" unicode="m" horiz-adv-x="1929" 
d="M422 0h-311v1085h276v-10q-11 -65 -45 -153l92 -35q104 235 328 235q125 0 205 -59.5t108 -165.5h68q45 110 130 167.5t195 57.5q173 0 267 -115t94 -329v-678h-311v629q0 219 -172 219q-74 0 -133 -37.5t-89 -101.5v-709h-311v629q0 219 -172 219q-73 0 -132 -38
t-87 -101v-709z" />
    <glyph glyph-name="n" unicode="n" horiz-adv-x="1318" 
d="M111 0v1085h276v-8q-8 -59 -45 -162l94 -38q58 120 156.5 182.5t224.5 62.5q186 0 294 -123t108 -362v-637h-312v567q0 279 -211 279q-87 0 -159 -42.5t-115 -117.5v-686h-311z" />
    <glyph glyph-name="o" unicode="o" horiz-adv-x="1286" 
d="M61 543q0 260 161 419.5t421 159.5t421 -159.5t161 -419.5q0 -259 -161 -419.5t-421 -160.5t-421 160.5t-161 419.5zM911 543q0 149 -70.5 235t-197.5 86q-128 0 -198 -86t-70 -235q0 -148 70.5 -234t197.5 -86q126 0 197 86t71 234z" />
    <glyph glyph-name="p" unicode="p" 
d="M422 -461h-311v1546h258v-8q-12 -45 -56 -137l95 -49q51 112 152 171.5t226 59.5q215 0 349.5 -161.5t134.5 -417.5q0 -260 -138 -420t-354 -160q-122 0 -213 55.5t-143 157.5l-94 -63q52 -74 73 -149.5t21 -182.5v-242zM678 223q123 0 198.5 82t75.5 238q0 151 -73 235
t-197 84q-93 0 -164.5 -45.5t-95.5 -124.5v-299q24 -76 93 -123t163 -47z" />
    <glyph glyph-name="q" unicode="q" 
d="M1221 -461h-312v242q0 108 21 183t74 149l-95 63q-49 -100 -142.5 -156.5t-207.5 -56.5q-222 0 -360 159.5t-138 422.5q0 262 141.5 419.5t370.5 157.5q120 0 209.5 -58.5t139.5 -172.5l94 49q-41 95 -53 137v8h258v-1546zM651 223q95 0 164 46.5t94 123.5v299
q-24 79 -95.5 124.5t-164.5 45.5q-126 0 -199 -84t-73 -235q0 -156 75.5 -238t198.5 -82z" />
    <glyph glyph-name="r" unicode="r" horiz-adv-x="794" 
d="M422 0h-311v1085h272v-10q-9 -49 -49 -155l98 -31q77 217 234 217q68 0 94 -16l22 -277q-54 21 -141 21q-69 0 -131.5 -40.5t-87.5 -117.5v-676z" />
    <glyph glyph-name="s" unicode="s" horiz-adv-x="1140" 
d="M51 303l256 90q47 -196 285 -196q85 0 131.5 28t46.5 82q0 21 -6.5 36.5t-22.5 27.5t-31 19.5t-45 14.5t-50 11t-60 11t-63 11q-65 13 -115.5 27.5t-107 41t-93.5 61t-61.5 88t-24.5 120.5q0 163 131 254.5t350 91.5q210 0 346 -84.5t166 -228.5l-243 -80
q-30 82 -103.5 122t-177.5 40q-162 0 -162 -96q0 -19 7 -34.5t24.5 -27t34 -19t49 -15.5t54.5 -12t66.5 -12t69.5 -13q70 -13 121.5 -27.5t103 -40t84 -59t52.5 -84.5t20 -117q0 -180 -132.5 -275.5t-379.5 -95.5q-461 0 -520 340z" />
    <glyph glyph-name="t" unicode="t" horiz-adv-x="915" 
d="M590 -20q-192 0 -273 95t-81 273v481h-211v256h211v269l311 57v-326h311v-256h-311v-415q0 -82 26 -115t107 -33q77 0 141 31l-41 -291q-80 -26 -190 -26z" />
    <glyph glyph-name="u" unicode="u" horiz-adv-x="1318" 
d="M1208 1085v-1085h-293v8q10 62 48 162l-97 33q-46 -115 -147.5 -177.5t-231.5 -62.5q-177 0 -282 116t-105 333v673h312v-618q0 -110 57.5 -168.5t163.5 -58.5q85 0 155 39t109 112v694h311z" />
    <glyph glyph-name="v" unicode="v" horiz-adv-x="1255" 
d="M475 0l-477 1085h350l150 -393q62 -174 69 -387h117q12 227 72 387l149 393h348l-477 -1085h-301z" />
    <glyph glyph-name="w" unicode="w" horiz-adv-x="1726" 
d="M276 0l-274 1085h313l62 -290q39 -195 39 -482h100q10 113 36 217t93 310l80 245h274l82 -245q69 -213 95 -314t34 -213h101q3 317 39 482l59 290h315l-272 -1085h-352l-72 217q-61 194 -82.5 318.5t-27.5 289.5h-109q-6 -162 -29 -293t-82 -315l-69 -217h-353z" />
    <glyph glyph-name="x" unicode="x" horiz-adv-x="1259" 
d="M12 0l391 551l-380 534h383l73 -118q27 -46 42.5 -75.5t32 -84.5t24.5 -119h108q25 166 94 281l74 116h383l-381 -534l391 -551h-383l-71 117q-85 147 -107 315h-108q-28 -186 -109 -315l-72 -117h-385z" />
    <glyph glyph-name="y" unicode="y" horiz-adv-x="1259" 
d="M246 -498q-109 0 -178 35v277q60 -25 139 -25q160 0 215 150l39 96l-463 1050h348l154 -407q65 -180 78 -342h108q13 167 78 344l149 405h347l-543 -1237q-20 -48 -41 -87t-62 -90.5t-88 -85.5t-120.5 -58.5t-159.5 -24.5z" />
    <glyph glyph-name="z" unicode="z" horiz-adv-x="1083" 
d="M1030 0h-967v252l611 610l-74 82q-66 -65 -121 -90t-151 -25h-250v256h936v-251l-611 -611l72 -82q63 65 121 90t154 25h280v-256z" />
    <glyph glyph-name="braceleft" unicode="{" horiz-adv-x="944" 
d="M283 -43v346q0 70 -24 96.5t-89 26.5h-55v344h55q64 0 88.5 26t24.5 95v305q0 171 75 242t258 71h211v-252h-178q-67 0 -92 -30.5t-25 -106.5v-276q0 -84 -50.5 -141.5t-129.5 -57.5v-96q79 -1 129.5 -59t50.5 -142v-313q0 -77 25 -107t92 -30h178v-256h-211
q-183 0 -258 71.5t-75 243.5z" />
    <glyph glyph-name="bar" unicode="|" horiz-adv-x="737" 
d="M231 -205v1639h273v-1639h-273z" />
    <glyph glyph-name="braceright" unicode="}" horiz-adv-x="944" 
d="M662 303v-346q0 -172 -75.5 -243.5t-258.5 -71.5h-213v256h180q66 0 90.5 30t24.5 107v313q0 84 51 142t129 59v96q-77 0 -128.5 57.5t-51.5 141.5v276q0 76 -25 106.5t-90 30.5h-180v252h213q183 0 258.5 -71t75.5 -242v-305q0 -70 23.5 -95.5t88.5 -25.5h53v-344h-53
q-66 0 -89 -26t-23 -97z" />
    <glyph glyph-name="asciitilde" unicode="~" horiz-adv-x="1128" 
d="M311 455h-190q-25 249 36 360t197 111q42 0 82.5 -13.5t79.5 -41.5t62 -48t59 -55q31 -30 47.5 -44t37.5 -27t38 -13q39 0 52 55t3 185h191q25 -249 -36.5 -360t-195.5 -111q-57 0 -115 28t-90.5 56t-79.5 75q-69 63 -92 75q-15 7 -28 7q-40 0 -54 -54.5t-4 -184.5z" />
    <glyph glyph-name="exclamdown" unicode="&#xa1;" horiz-adv-x="675" 
d="M338 1124q91 0 145 -47t54 -137q0 -91 -54 -137.5t-145 -46.5t-145 46.5t-54 137.5q0 90 54 137t145 47zM178 -25l96 615h125l99 -615v-307h-320v307z" />
    <glyph glyph-name="cent" unicode="&#xa2;" horiz-adv-x="1294" 
d="M61 717q-1 220 142 379t364 192v223h195v-221q179 -22 310.5 -125t174.5 -258l-297 -88q-20 72 -68.5 120t-119.5 67v-328q0 -101 -21 -157.5t-67 -94.5l63 -80q84 32 142 103t75 163l295 -88q-41 -155 -173 -258t-314 -123v-241h-195v243q-221 33 -364 191.5t-142 380.5
zM377 733q0 -119 54 -201.5t136 -115.5v342q0 190 95 258l-70 76q-101 -48 -158 -142t-57 -217z" />
    <glyph glyph-name="sterling" unicode="&#xa3;" horiz-adv-x="1378" 
d="M426 276l41 -83q91 46 199 68t280 22h350v-283h-1214v256h141q133 109 133 240q0 29 -12 69h-262v256h18q84 0 185 -94l53 55q-123 111 -123 277q0 182 147.5 296.5t389.5 114.5q230 0 380.5 -109.5t163.5 -287.5l-288 -90q-6 96 -73.5 149.5t-174.5 53.5
q-117 0 -181.5 -54.5t-64.5 -146.5q0 -48 20.5 -91.5t53.5 -72.5h520v-256h-463q4 -28 4 -45q0 -74 -59.5 -138t-163.5 -106z" />
    <glyph glyph-name="currency" unicode="&#xa4;" horiz-adv-x="1357" 
d="M1075 500l129 -99l86 -88l-176 -178l-90 88l-109 142q-110 -50 -237 -50q-130 0 -236 50l-108 -142l-90 -88l-176 178l86 88l129 99q-74 107 -74 248q0 140 74 247l-129 99l-86 88l176 178l90 -88l108 -142q106 50 236 50t237 -52l109 144l90 88l176 -178l-86 -88
l-129 -99q74 -107 74 -247q0 -141 -74 -248zM475 748q0 -88 56.5 -144.5t148.5 -56.5q90 0 146.5 56.5t56.5 144.5t-56.5 144t-146.5 56q-92 0 -148.5 -55.5t-56.5 -144.5z" />
    <glyph glyph-name="yen" unicode="&#xa5;" horiz-adv-x="1546" 
d="M461 770l-459 664h379l145 -220q68 -100 118.5 -231.5t68.5 -249.5h127q17 120 67.5 254.5t116.5 235.5l141 211h379l-459 -664h191v-207h-338v-112h338v-209h-338v-242h-328v242h-364v209h364v112h-364v207h215z" />
    <glyph glyph-name="brokenbar" unicode="&#xa6;" horiz-adv-x="737" 
d="M231 766v668h273v-668h-273zM231 -205v668h273v-668h-273z" />
    <glyph glyph-name="section" unicode="&#xa7;" horiz-adv-x="1310" 
d="M68 184l280 80q48 -198 357 -198q128 0 174.5 27t46.5 79q0 24 -12 42t-37 30t-45 18t-54 14l-327 72q-43 10 -70.5 17t-65 19.5t-61.5 25t-50.5 32t-41.5 42.5t-25 54.5t-10 69.5q0 87 55 146t150 80v63q-97 29 -151 93.5t-54 150.5q0 154 141.5 238.5t378.5 84.5
q248 0 408.5 -90t185.5 -237l-250 -80q-30 89 -122 134.5t-224 45.5q-100 0 -153.5 -24t-53.5 -70q0 -45 45.5 -68t169.5 -45l293 -55q163 -29 230 -90.5t67 -157.5q0 -176 -205 -227v-70q96 -22 150.5 -89t54.5 -161q0 -165 -148.5 -256.5t-400.5 -91.5q-271 0 -432 93.5
t-194 258.5zM438 684q0 -85 119 -106l266 -52q45 5 74 33t29 70q0 52 -33 75.5t-109 38.5l-239 48q-47 -5 -77 -33.5t-30 -73.5z" />
    <glyph glyph-name="dieresis" unicode="&#xa8;" horiz-adv-x="1042" 
d="M266 1233q-91 0 -144.5 46.5t-53.5 137.5q0 90 53.5 136t144.5 46t144 -46t53 -136q0 -91 -53 -137.5t-144 -46.5zM776 1233q-91 0 -143.5 46.5t-52.5 137.5q0 90 52.5 136t143.5 46t145 -46.5t54 -135.5q0 -91 -54 -137.5t-145 -46.5z" />
    <glyph glyph-name="copyright" unicode="&#xa9;" horiz-adv-x="1677" 
d="M33 758q0 142 42.5 265.5t117.5 216t176 159t220.5 100t248.5 33.5t249 -33.5t221 -100t176.5 -158.5t118 -216t42.5 -266q0 -174 -63 -322.5t-172 -250t-257.5 -159t-316.5 -57.5q-165 0 -312.5 57.5t-256 159t-171.5 250t-63 322.5zM221 758q0 -276 171 -445.5
t446 -169.5q276 0 447 169t171 444q0 272 -171.5 438t-444.5 166q-274 0 -446.5 -165.5t-172.5 -436.5zM410 752q0 189 122 302t304 113q151 0 263.5 -75.5t141.5 -194.5l-240 -82q-18 61 -60.5 95t-104.5 34q-76 0 -124 -53t-48 -139q0 -87 48.5 -141t127.5 -54
q61 0 101 34t58 93l242 -78q-32 -121 -143.5 -195.5t-261.5 -74.5q-180 0 -303 114t-123 302z" />
    <glyph glyph-name="ordfeminine" unicode="&#xaa;" horiz-adv-x="870" 
d="M795 829q19 0 41 13v-156q-53 -31 -123 -31t-115 38t-45 112h-66q-10 -69 -72.5 -112.5t-150.5 -43.5q-98 0 -161.5 58t-63.5 151q0 101 64.5 161.5t195.5 90.5l225 51v8q0 121 -125 121q-134 0 -143 -135l-215 41q15 127 117 198.5t258 71.5q160 0 252 -76t92 -223v-264
q0 -19 0.5 -28t3.5 -22t11 -18.5t20 -5.5zM358 825q52 0 101.5 32t64.5 75v94l-143 -31q-113 -22 -113 -92q0 -38 25 -58t65 -20z" />
    <glyph glyph-name="guillemotleft" unicode="&#xab;" horiz-adv-x="1173" 
d="M356 580l260 -482h-301l-264 482l264 481h301zM842 580l262 -482h-303l-264 482l264 481h303z" />
    <glyph glyph-name="logicalnot" unicode="&#xac;" horiz-adv-x="1173" 
d="M834 578h-732v225h969v-660h-237v435z" />
    <glyph glyph-name="registered" unicode="&#xae;" horiz-adv-x="1159" 
d="M580 494q-149 0 -271.5 65.5t-195 186.5t-72.5 274q0 116 44 213.5t118 162.5t172.5 101.5t206.5 36.5q107 0 204 -35.5t171 -100t117.5 -163t43.5 -215.5q0 -153 -72.5 -274t-195 -186.5t-270.5 -65.5zM580 623q176 0 286.5 109.5t110.5 287.5q0 172 -111 277.5
t-284 105.5q-176 0 -288 -105.5t-112 -277.5q0 -176 112 -286.5t286 -110.5zM520 774h-149v498h262q90 0 136 -38t46 -106q0 -59 -36.5 -94t-106.5 -41v-39q88 0 112 -77l13 -33q15 -41 39 -49v-21h-158q-20 15 -35 51l-25 64q-14 40 -27 52.5t-36 12.5h-35v-180zM520 1149
v-98h78q64 0 64 49t-64 49h-78z" />
    <glyph glyph-name="macron" unicode="&#xaf;" horiz-adv-x="1011" 
d="M147 1282v217h717v-217h-717z" />
    <glyph glyph-name="degree" unicode="&#xb0;" horiz-adv-x="989" 
d="M494 725q-172 0 -283 103.5t-111 267.5q0 166 111 270t283 104t283.5 -104t111.5 -270q0 -164 -111.5 -267.5t-283.5 -103.5zM494 928q75 0 123.5 48t48.5 122q0 75 -48.5 122.5t-123.5 47.5q-74 0 -122 -47.5t-48 -122.5q0 -74 48 -122t122 -48z" />
    <glyph glyph-name="plusminus" unicode="&#xb1;" horiz-adv-x="1241" 
d="M743 1161v-266h373v-227h-373v-271h-237v271h-377v227h377v266h237zM1116 0h-987v217h987v-217z" />
    <glyph glyph-name="uni00B2" unicode="&#xb2;" horiz-adv-x="880" 
d="M805 614h-731v168l379 271q71 52 98 97.5t27 94.5q0 68 -37.5 106t-98.5 38q-74 0 -115.5 -46t-41.5 -135l-207 21q0 157 95.5 249.5t272.5 92.5q156 0 252.5 -86t96.5 -225q0 -106 -51.5 -185.5t-190.5 -173.5q-81 -57 -205 -121l31 -67q67 27 99 39t107 28.5t144 16.5
h76v-183z" />
    <glyph glyph-name="uni00B3" unicode="&#xb3;" horiz-adv-x="927" 
d="M465 588q-185 0 -284.5 80.5t-110.5 228.5l194 49q19 -176 205 -176q79 0 122.5 32.5t43.5 94.5q0 115 -160 115h-108v157h94q151 0 151 111q0 54 -37 83.5t-106 29.5q-82 0 -129 -44.5t-55 -119.5l-197 45q10 137 119.5 217t267.5 80q168 0 261 -69.5t93 -180.5
q0 -79 -46.5 -128t-129.5 -67v-63q91 -6 146 -61t55 -138q0 -126 -104 -201t-285 -75z" />
    <glyph glyph-name="acute" unicode="&#xb4;" horiz-adv-x="565" 
d="M156 1577h340l-197 -313h-227z" />
    <glyph glyph-name="paragraph" unicode="&#xb6;" horiz-adv-x="1869" 
d="M221 1122q0 147 93.5 229.5t252.5 82.5h1170v-267h-201v-1425h-309v1425h-256v-1425h-309v1069h-95q-163 0 -254.5 84.5t-91.5 226.5z" />
    <glyph glyph-name="periodcentered" unicode="&#xb7;" horiz-adv-x="647" 
d="M139 530q0 84 52 134.5t133 50.5q84 0 134 -50.5t50 -134.5q0 -86 -50 -135t-134 -49q-83 0 -134 49.5t-51 134.5z" />
    <glyph glyph-name="cedilla" unicode="&#xb8;" horiz-adv-x="722" 
d="M360 -100l19 -25q32 14 63 14q83 0 134 -49.5t51 -128.5q0 -105 -84.5 -168t-214.5 -63q-147 0 -232 65l45 148q83 -58 185 -58q53 0 83.5 22.5t30.5 61.5q0 33 -21 52.5t-54 19.5q-23 0 -60 -14l-100 47l53 190l162 2v-16q0 -58 -60 -100z" />
    <glyph glyph-name="uni00B9" unicode="&#xb9;" horiz-adv-x="833" 
d="M559 614h-219v410q0 83 20 144.5t70 111.5l-49 51q-117 -117 -270 -131v186q98 17 180.5 61t122.5 99h145v-932z" />
    <glyph glyph-name="ordmasculine" unicode="&#xba;" horiz-adv-x="899" 
d="M39 1057q0 183 113.5 296t296.5 113q184 0 297.5 -113t113.5 -296q0 -182 -113.5 -294t-297.5 -112q-182 0 -296 112t-114 294zM623 1057q0 98 -45.5 155.5t-128.5 57.5q-82 0 -127.5 -58t-45.5 -155t45 -154t128 -57t128.5 57t45.5 154z" />
    <glyph glyph-name="guillemotright" unicode="&#xbb;" horiz-adv-x="1173" 
d="M373 98h-303l264 482l-264 481h303l266 -481zM860 98h-303l262 482l-262 481h303l262 -481z" />
    <glyph glyph-name="onequarter" unicode="&#xbc;" horiz-adv-x="1550" 
d="M414 645h-199v322q0 145 82 227l-45 45q-100 -100 -229 -111v168q81 14 153 51.5t107 86.5h131v-789zM82 0l1077 1434h215l-1077 -1434h-215zM1386 0h-198v145h-412v158l389 485h221v-481h130v-162h-130v-145zM1204 631l-256 -332l35 -39q24 22 68.5 34.5t91.5 12.5h45
v88q0 120 72 183z" />
    <glyph glyph-name="onehalf" unicode="&#xbd;" horiz-adv-x="1603" 
d="M414 645h-199v322q0 145 82 227l-45 45q-100 -100 -229 -111v168q81 14 153 51.5t107 86.5h131v-789zM82 0l1077 1434h215l-1077 -1434h-215zM1554 0h-624v150l323 227q61 44 84 81t23 83q0 48 -31.5 77t-83.5 29q-57 0 -90 -37.5t-33 -109.5l-188 18q0 132 87 211.5
t230 79.5q133 0 215 -72.5t82 -191.5q0 -95 -48.5 -163.5t-149.5 -131.5q-71 -49 -172 -100l30 -62q182 76 295 76h51v-164z" />
    <glyph glyph-name="threequarters" unicode="&#xbe;" horiz-adv-x="1732" 
d="M369 621q-160 0 -243.5 69.5t-92.5 192.5l172 45q20 -142 168 -142q63 0 97 26t34 75q0 92 -131 92h-88v139h75q123 0 123 86q0 43 -28 66.5t-82 23.5q-67 0 -104.5 -36t-45.5 -97l-178 39q10 120 104.5 187t229.5 67q143 0 222 -58.5t79 -152.5q0 -66 -40.5 -108
t-111.5 -56v-55q81 -6 127.5 -52t46.5 -116q0 -107 -89 -171t-244 -64zM264 0l1077 1434h215l-1077 -1434h-215zM1569 0h-199v145h-412v158l390 485h221v-481h129v-162h-129v-145zM1386 631l-256 -332l35 -39q24 22 68.5 34.5t91.5 12.5h45v88q0 120 72 183z" />
    <glyph glyph-name="questiondown" unicode="&#xbf;" horiz-adv-x="1284" 
d="M643 1124q86 0 137 -46.5t51 -137.5q0 -90 -51 -137t-137 -47t-138 47t-52 137t52 137t138 47zM500 631h266v-262q-172 -11 -261 -73t-89 -185q0 -102 62.5 -158.5t166.5 -56.5q103 0 174.5 54t83.5 154l289 -61q-23 -189 -176 -299.5t-385 -110.5q-239 0 -385 121.5
t-146 323.5q0 168 103.5 284t296.5 152v117z" />
    <glyph glyph-name="Agrave" unicode="&#xc0;" horiz-adv-x="1480" 
d="M768 1884l84 -313h-225l-199 313h340zM1466 0h-331l-82 227h-625l-82 -227h-332l541 1434h369zM606 727l-80 -223h428l-80 223q-34 96 -49.5 173.5t-27.5 205.5h-113q-12 -127 -28.5 -205.5t-49.5 -173.5z" />
    <glyph glyph-name="Aacute" unicode="&#xc1;" horiz-adv-x="1480" 
d="M709 1884h340l-197 -313h-227zM1466 0h-331l-82 227h-625l-82 -227h-332l541 1434h369zM606 727l-80 -223h428l-80 223q-34 96 -49.5 173.5t-27.5 205.5h-113q-12 -127 -28.5 -205.5t-49.5 -173.5z" />
    <glyph glyph-name="Acircumflex" unicode="&#xc2;" horiz-adv-x="1480" 
d="M659 1634l-30 -63h-273l215 313h334l215 -313h-272l-31 63q-33 64 -43 111h-72q-10 -47 -43 -111zM1466 0h-331l-82 227h-625l-82 -227h-332l541 1434h369zM606 727l-80 -223h428l-80 223q-34 96 -49.5 173.5t-27.5 205.5h-113q-12 -127 -28.5 -205.5t-49.5 -173.5z" />
    <glyph glyph-name="Atilde" unicode="&#xc3;" horiz-adv-x="1480" 
d="M571 1538h-170q-20 180 30.5 274.5t152.5 94.5q41 0 82.5 -17.5t66 -36t64.5 -53.5q43 -43 73 -43q27 0 35 34.5t2 113.5h170q20 -180 -30 -273.5t-152 -93.5q-97 0 -213 104q-44 44 -74 44q-27 0 -35 -34.5t-2 -113.5zM1466 0h-331l-82 227h-625l-82 -227h-332l541 1434
h369zM606 727l-80 -223h428l-80 223q-34 96 -49.5 173.5t-27.5 205.5h-113q-12 -127 -28.5 -205.5t-49.5 -173.5z" />
    <glyph glyph-name="Adieresis" unicode="&#xc4;" horiz-adv-x="1480" 
d="M483 1540q-91 0 -144.5 46.5t-53.5 137.5q0 90 53.5 136.5t144.5 46.5t144 -46.5t53 -136.5q0 -91 -53 -137.5t-144 -46.5zM993 1540q-91 0 -143.5 46.5t-52.5 137.5q0 90 52.5 136.5t143.5 46.5t145 -46.5t54 -136.5q0 -91 -54 -137.5t-145 -46.5zM1466 0h-331l-82 227
h-625l-82 -227h-332l541 1434h369zM606 727l-80 -223h428l-80 223q-34 96 -49.5 173.5t-27.5 205.5h-113q-12 -127 -28.5 -205.5t-49.5 -173.5z" />
    <glyph glyph-name="Aring" unicode="&#xc5;" horiz-adv-x="1480" 
d="M739 1536q-147 0 -234 74t-87 198q0 126 90 199.5t231 73.5q147 0 234.5 -75t85.5 -198q1 -127 -88 -199.5t-232 -72.5zM739 1921q-56 0 -88.5 -30.5t-32.5 -82.5q0 -54 33 -83t88 -29q57 0 89 30.5t32 81.5q0 53 -33 83t-88 30zM1466 0h-331l-82 227h-625l-82 -227h-332
l541 1434h369zM606 727l-80 -223h428l-80 223q-34 96 -49.5 173.5t-27.5 205.5h-113q-12 -127 -28.5 -205.5t-49.5 -173.5z" />
    <glyph glyph-name="AE" unicode="&#xc6;" horiz-adv-x="2039" 
d="M352 0h-338l641 1434h1315v-285h-723v-289h656v-264h-656v-311h725v-285h-1050v227h-473zM670 758l-107 -254h359v602h-150q-14 -99 -32.5 -164t-69.5 -184z" />
    <glyph glyph-name="Ccedilla" unicode="&#xc7;" horiz-adv-x="1560" 
d="M901 -35q-12 -38 -53 -65l18 -25q32 14 64 14q83 0 133.5 -49.5t50.5 -128.5q0 -105 -84.5 -168t-214.5 -63q-146 0 -231 65l45 148q83 -58 184 -58q53 0 84 22.5t31 61.5q0 33 -21.5 52.5t-54.5 19.5q-22 0 -59 -14l-101 47l39 141q-196 21 -346 129t-227.5 270.5
t-77.5 352.5q0 154 53 292t148 241.5t237.5 163.5t310.5 59q252 -3 434.5 -138t229.5 -360l-301 -82q-38 140 -133 215.5t-234 77.5q-187 0 -303 -131t-116 -338t115.5 -338t303.5 -131q144 2 242 84t133 237l303 -75q-41 -228 -204 -367.5t-398 -161.5z" />
    <glyph glyph-name="Egrave" unicode="&#xc8;" horiz-adv-x="1236" 
d="M676 1884l84 -313h-225l-199 313h340zM455 596v-311h712v-285h-1034v1434h1032v-285h-710v-289h649v-264h-649z" />
    <glyph glyph-name="Eacute" unicode="&#xc9;" horiz-adv-x="1236" 
d="M616 1884h340l-196 -313h-228zM455 596v-311h712v-285h-1034v1434h1032v-285h-710v-289h649v-264h-649z" />
    <glyph glyph-name="Ecircumflex" unicode="&#xca;" horiz-adv-x="1236" 
d="M567 1634l-30 -63h-273l215 313h334l215 -313h-272l-31 63q-33 64 -43 111h-72q-10 -47 -43 -111zM455 596v-311h712v-285h-1034v1434h1032v-285h-710v-289h649v-264h-649z" />
    <glyph glyph-name="Edieresis" unicode="&#xcb;" horiz-adv-x="1236" 
d="M393 1540q-91 0 -144.5 46.5t-53.5 137.5q0 90 53.5 136.5t144.5 46.5t144 -46.5t53 -136.5q0 -91 -53 -137.5t-144 -46.5zM903 1540q-91 0 -143.5 46.5t-52.5 137.5q0 90 52.5 136.5t143.5 46.5t145 -46.5t54 -136.5q0 -91 -54 -137.5t-145 -46.5zM455 596v-311h712
v-285h-1034v1434h1032v-285h-710v-289h649v-264h-649z" />
    <glyph glyph-name="Igrave" unicode="&#xcc;" horiz-adv-x="632" 
d="M203 1571l-199 313h340l84 -313h-225zM156 0v1434h319v-1434h-319z" />
    <glyph glyph-name="Iacute" unicode="&#xcd;" horiz-adv-x="632" 
d="M287 1884h340l-197 -313h-227zM156 0v1434h319v-1434h-319z" />
    <glyph glyph-name="Icircumflex" unicode="&#xce;" horiz-adv-x="632" 
d="M207 1571h-273l216 313h333l215 -313h-272l-31 63q-33 64 -43 111h-71q-10 -47 -43 -111zM156 0v1434h319v-1434h-319z" />
    <glyph glyph-name="Idieresis" unicode="&#xcf;" horiz-adv-x="632" 
d="M61 1540q-91 0 -144.5 46.5t-53.5 137.5q0 90 53.5 136.5t144.5 46.5t144 -46.5t53 -136.5q0 -91 -53 -137.5t-144 -46.5zM571 1540q-91 0 -143.5 46.5t-52.5 137.5q0 90 52.5 136.5t143.5 46.5t145 -46.5t54 -136.5q0 -91 -54 -137.5t-145 -46.5zM156 0v1434h319v-1434
h-319z" />
    <glyph glyph-name="Eth" unicode="&#xd0;" horiz-adv-x="1560" 
d="M156 606h-113v223h113v605h614q327 0 518 -188t191 -529q0 -347 -188 -532t-525 -185h-610v606zM481 606v-321h262q206 0 308 105.5t102 326.5q0 432 -410 432h-262v-320h238v-223h-238z" />
    <glyph glyph-name="Ntilde" unicode="&#xd1;" horiz-adv-x="1548" 
d="M604 1538h-170q-20 181 30 275t152 94q41 0 82.5 -17.5t66 -36t64.5 -53.5q43 -43 74 -43q27 0 35 34.5t2 113.5h170q20 -180 -30 -273.5t-152 -93.5q-97 0 -213 104q-44 44 -74 44q-27 0 -35 -34.5t-2 -113.5zM133 0v1434h354l603 -942h4v942h321v-1434h-354l-602 926
h-4v-926h-322z" />
    <glyph glyph-name="Ograve" unicode="&#xd2;" horiz-adv-x="1648" 
d="M713 1589l-199 314h340l84 -314h-225zM80 717q0 161 56.5 301t155 239t237 156t296.5 57t296.5 -57t237.5 -156t155.5 -239t56.5 -301t-56.5 -301.5t-155.5 -239.5t-237.5 -156t-296.5 -57q-211 0 -381.5 97t-267 269.5t-96.5 387.5zM406 717q0 -209 116.5 -339
t302.5 -130q194 0 307 131.5t113 337.5q0 208 -114 338.5t-306 130.5t-305.5 -129t-113.5 -340z" />
    <glyph glyph-name="Oacute" unicode="&#xd3;" horiz-adv-x="1648" 
d="M795 1903h340l-197 -314h-227zM80 717q0 161 56.5 301t155 239t237 156t296.5 57t296.5 -57t237.5 -156t155.5 -239t56.5 -301t-56.5 -301.5t-155.5 -239.5t-237.5 -156t-296.5 -57q-211 0 -381.5 97t-267 269.5t-96.5 387.5zM406 717q0 -209 116.5 -339t302.5 -130
q194 0 307 131.5t113 337.5q0 208 -114 338.5t-306 130.5t-305.5 -129t-113.5 -340z" />
    <glyph glyph-name="Ocircumflex" unicode="&#xd4;" horiz-adv-x="1648" 
d="M715 1589h-273l215 314h334l215 -314h-272l-31 64q-33 65 -43 110h-72q-10 -45 -43 -110zM80 717q0 161 56.5 301t155 239t237 156t296.5 57t296.5 -57t237.5 -156t155.5 -239t56.5 -301t-56.5 -301.5t-155.5 -239.5t-237.5 -156t-296.5 -57q-211 0 -381.5 97t-267 269.5
t-96.5 387.5zM406 717q0 -209 116.5 -339t302.5 -130q194 0 307 131.5t113 337.5q0 208 -114 338.5t-306 130.5t-305.5 -129t-113.5 -340z" />
    <glyph glyph-name="Otilde" unicode="&#xd5;" horiz-adv-x="1648" 
d="M657 1556h-170q-20 180 30.5 274.5t152.5 94.5q41 0 82 -17.5t66.5 -36t64.5 -52.5q43 -43 73 -43q27 0 35 34t2 113h170q20 -180 -30 -273.5t-152 -93.5q-96 0 -213 105q-43 43 -74 43q-27 0 -35 -34.5t-2 -113.5zM80 717q0 161 56.5 301t155 239t237 156t296.5 57
t296.5 -57t237.5 -156t155.5 -239t56.5 -301t-56.5 -301.5t-155.5 -239.5t-237.5 -156t-296.5 -57q-211 0 -381.5 97t-267 269.5t-96.5 387.5zM406 717q0 -209 116.5 -339t302.5 -130q194 0 307 131.5t113 337.5q0 208 -114 338.5t-306 130.5t-305.5 -129t-113.5 -340z" />
    <glyph glyph-name="Odieresis" unicode="&#xd6;" horiz-adv-x="1648" 
d="M571 1559q-91 0 -144.5 46.5t-53.5 137.5q0 90 53.5 136t144.5 46t144 -46t53 -136q0 -91 -53 -137.5t-144 -46.5zM1081 1559q-91 0 -143.5 46.5t-52.5 137.5q0 90 52.5 136t143.5 46t145 -46.5t54 -135.5q0 -91 -54 -137.5t-145 -46.5zM80 717q0 161 56.5 301t155 239
t237 156t296.5 57t296.5 -57t237.5 -156t155.5 -239t56.5 -301t-56.5 -301.5t-155.5 -239.5t-237.5 -156t-296.5 -57q-211 0 -381.5 97t-267 269.5t-96.5 387.5zM406 717q0 -209 116.5 -339t302.5 -130q194 0 307 131.5t113 337.5q0 208 -114 338.5t-306 130.5t-305.5 -129
t-113.5 -340z" />
    <glyph glyph-name="multiply" unicode="&#xd7;" horiz-adv-x="1280" 
d="M340 219l-170 168l303 303l-303 301l170 168l301 -301l301 301l170 -168l-301 -301l301 -303l-170 -168l-301 301z" />
    <glyph glyph-name="Oslash" unicode="&#xd8;" horiz-adv-x="1642" 
d="M61 717q-2 161 55.5 302t158.5 240.5t243 156t303 54.5q264 3 461 -139l111 111l153 -154l-108 -108q146 -197 143 -463q2 -161 -55.5 -302t-158.5 -241t-243 -156.5t-303 -54.5q-264 -3 -461 139l-108 -108l-154 153l109 107q-149 198 -146 463zM373 717q0 -130 53 -230
l408 416q157 154 299 154v100q-102 51 -242 51q-238 0 -378 -132.5t-140 -358.5zM512 377v-101q101 -53 242 -53q236 0 376 135.5t140 358.5q0 126 -51 231l-433 -440q-66 -66 -138.5 -100t-135.5 -31z" />
    <glyph glyph-name="Ugrave" unicode="&#xd9;" horiz-adv-x="1454" 
d="M614 1571l-198 313h340l84 -313h-226zM127 551v883h322v-859q0 -166 68 -246.5t210 -80.5q279 0 279 327v859h319v-883q0 -283 -155.5 -435.5t-442.5 -152.5q-286 0 -443 152.5t-157 435.5z" />
    <glyph glyph-name="Uacute" unicode="&#xda;" horiz-adv-x="1454" 
d="M696 1884h340l-196 -313h-228zM127 551v883h322v-859q0 -166 68 -246.5t210 -80.5q279 0 279 327v859h319v-883q0 -283 -155.5 -435.5t-442.5 -152.5q-286 0 -443 152.5t-157 435.5z" />
    <glyph glyph-name="Ucircumflex" unicode="&#xdb;" horiz-adv-x="1454" 
d="M616 1571h-272l215 313h334l215 -313h-272l-31 63q-33 64 -43 111h-72q-10 -47 -43 -111zM127 551v883h322v-859q0 -166 68 -246.5t210 -80.5q279 0 279 327v859h319v-883q0 -283 -155.5 -435.5t-442.5 -152.5q-286 0 -443 152.5t-157 435.5z" />
    <glyph glyph-name="Udieresis" unicode="&#xdc;" horiz-adv-x="1454" 
d="M471 1540q-91 0 -145 46.5t-54 137.5q0 90 54 136.5t145 46.5t144 -46.5t53 -136.5q0 -91 -53 -137.5t-144 -46.5zM981 1540q-91 0 -144 46.5t-53 137.5q0 90 53 136.5t144 46.5t145 -46.5t54 -136.5q0 -91 -54 -137.5t-145 -46.5zM127 551v883h322v-859
q0 -166 68 -246.5t210 -80.5q279 0 279 327v859h319v-883q0 -283 -155.5 -435.5t-442.5 -152.5q-286 0 -443 152.5t-157 435.5z" />
    <glyph glyph-name="Yacute" unicode="&#xdd;" horiz-adv-x="1415" 
d="M678 1884h340l-197 -313h-227zM547 545l-545 889h373l114 -217q2 -4 21 -41.5t25 -50.5t24 -50.5t26 -57.5t21.5 -55.5t20.5 -60.5t13.5 -55.5t8.5 -57.5h123q6 68 33 150t51.5 135t71.5 146l112 215h373l-543 -889v-545h-323v545z" />
    <glyph glyph-name="Thorn" unicode="&#xde;" horiz-adv-x="1458" 
d="M459 0h-326v1434h326v-234h413q237 0 382 -129.5t145 -353.5t-145 -354t-382 -130h-413v-233zM459 922v-410h389q107 0 165 51t58 154q0 205 -223 205h-389z" />
    <glyph glyph-name="germandbls" unicode="&#xdf;" horiz-adv-x="1368" 
d="M426 0h-315v954q0 141 43.5 252t121 182t182 107.5t230.5 36.5q235 0 375.5 -117.5t140.5 -304.5q0 -104 -47.5 -181t-140.5 -116v-61q127 -26 204.5 -124t77.5 -233q0 -198 -145 -315t-393 -117q-148 0 -217 37v256q61 -33 162 -33q139 0 208.5 60t69.5 159
q0 97 -66.5 151t-183.5 54q-81 0 -108 -10v225q16 -2 26 -2q117 0 182.5 52.5t65.5 146.5q0 89 -58.5 141.5t-158.5 52.5q-113 0 -184.5 -69.5t-71.5 -210.5v-973z" />
    <glyph glyph-name="agrave" unicode="&#xe0;" horiz-adv-x="1232" 
d="M623 1577l84 -313h-226l-198 313h340zM1124 201q35 0 60 18v-211q-70 -39 -166 -39q-100 0 -160 52.5t-63 160.5h-82q-18 -98 -110.5 -158.5t-217.5 -60.5q-142 0 -232 81.5t-90 215.5q0 139 89 227.5t280 130.5l330 72v12q0 187 -195 187q-98 0 -155.5 -51t-63.5 -148
l-285 51q21 179 164.5 280t364.5 101q226 0 353.5 -106.5t127.5 -313.5v-389q0 -28 1 -42.5t5.5 -33.5t15.5 -27.5t29 -8.5zM508 197q83 0 157 47.5t97 117.5v146l-221 -45q-174 -38 -174 -146q0 -60 38 -90t103 -30z" />
    <glyph glyph-name="aacute" unicode="&#xe1;" horiz-adv-x="1232" 
d="M565 1577h340l-196 -313h-228zM1124 201q35 0 60 18v-211q-70 -39 -166 -39q-100 0 -160 52.5t-63 160.5h-82q-18 -98 -110.5 -158.5t-217.5 -60.5q-142 0 -232 81.5t-90 215.5q0 139 89 227.5t280 130.5l330 72v12q0 187 -195 187q-98 0 -155.5 -51t-63.5 -148l-285 51
q21 179 164.5 280t364.5 101q226 0 353.5 -106.5t127.5 -313.5v-389q0 -28 1 -42.5t5.5 -33.5t15.5 -27.5t29 -8.5zM508 197q83 0 157 47.5t97 117.5v146l-221 -45q-174 -38 -174 -146q0 -60 38 -90t103 -30z" />
    <glyph glyph-name="acircumflex" unicode="&#xe2;" horiz-adv-x="1232" 
d="M516 1327l-31 -63h-272l215 313h334l215 -313h-272l-31 63q-33 64 -43 111h-72q-10 -47 -43 -111zM1124 201q35 0 60 18v-211q-70 -39 -166 -39q-100 0 -160 52.5t-63 160.5h-82q-18 -98 -110.5 -158.5t-217.5 -60.5q-142 0 -232 81.5t-90 215.5q0 139 89 227.5
t280 130.5l330 72v12q0 187 -195 187q-98 0 -155.5 -51t-63.5 -148l-285 51q21 179 164.5 280t364.5 101q226 0 353.5 -106.5t127.5 -313.5v-389q0 -28 1 -42.5t5.5 -33.5t15.5 -27.5t29 -8.5zM508 197q83 0 157 47.5t97 117.5v146l-221 -45q-174 -38 -174 -146
q0 -60 38 -90t103 -30z" />
    <glyph glyph-name="atilde" unicode="&#xe3;" horiz-adv-x="1232" 
d="M428 1231h-170q-20 181 30 274.5t152 93.5q41 0 82 -17.5t66.5 -36t64.5 -52.5q43 -43 74 -43q27 0 35 34t2 113h170q20 -180 -30 -273t-152 -93q-97 0 -213 104q-43 43 -74 43q-27 0 -35 -34t-2 -113zM1124 201q35 0 60 18v-211q-70 -39 -166 -39q-100 0 -160 52.5
t-63 160.5h-82q-18 -98 -110.5 -158.5t-217.5 -60.5q-142 0 -232 81.5t-90 215.5q0 139 89 227.5t280 130.5l330 72v12q0 187 -195 187q-98 0 -155.5 -51t-63.5 -148l-285 51q21 179 164.5 280t364.5 101q226 0 353.5 -106.5t127.5 -313.5v-389q0 -28 1 -42.5t5.5 -33.5
t15.5 -27.5t29 -8.5zM508 197q83 0 157 47.5t97 117.5v146l-221 -45q-174 -38 -174 -146q0 -60 38 -90t103 -30z" />
    <glyph glyph-name="adieresis" unicode="&#xe4;" horiz-adv-x="1232" 
d="M340 1233q-91 0 -145 46.5t-54 137.5q0 89 54 135.5t145 46.5t144 -46t53 -136q0 -91 -53 -137.5t-144 -46.5zM850 1233q-91 0 -144 46.5t-53 137.5q0 90 53 136t144 46t145 -46.5t54 -135.5q0 -91 -54 -137.5t-145 -46.5zM1124 201q35 0 60 18v-211q-70 -39 -166 -39
q-100 0 -160 52.5t-63 160.5h-82q-18 -98 -110.5 -158.5t-217.5 -60.5q-142 0 -232 81.5t-90 215.5q0 139 89 227.5t280 130.5l330 72v12q0 187 -195 187q-98 0 -155.5 -51t-63.5 -148l-285 51q21 179 164.5 280t364.5 101q226 0 353.5 -106.5t127.5 -313.5v-389
q0 -28 1 -42.5t5.5 -33.5t15.5 -27.5t29 -8.5zM508 197q83 0 157 47.5t97 117.5v146l-221 -45q-174 -38 -174 -146q0 -60 38 -90t103 -30z" />
    <glyph glyph-name="aring" unicode="&#xe5;" horiz-adv-x="1232" 
d="M594 1229q-147 0 -234.5 74.5t-87.5 197.5q0 126 90.5 199.5t231.5 73.5q147 0 234 -74.5t85 -198.5q1 -128 -87.5 -200t-231.5 -72zM594 1614q-56 0 -88.5 -30.5t-32.5 -82.5q0 -54 33 -83t88 -29q57 0 89 30.5t32 81.5q0 53 -33 83t-88 30zM1124 201q35 0 60 18v-211
q-70 -39 -166 -39q-100 0 -160 52.5t-63 160.5h-82q-18 -98 -110.5 -158.5t-217.5 -60.5q-142 0 -232 81.5t-90 215.5q0 139 89 227.5t280 130.5l330 72v12q0 187 -195 187q-98 0 -155.5 -51t-63.5 -148l-285 51q21 179 164.5 280t364.5 101q226 0 353.5 -106.5
t127.5 -313.5v-389q0 -28 1 -42.5t5.5 -33.5t15.5 -27.5t29 -8.5zM508 197q83 0 157 47.5t97 117.5v146l-221 -45q-174 -38 -174 -146q0 -60 38 -90t103 -30z" />
    <glyph glyph-name="ae" unicode="&#xe6;" horiz-adv-x="2097" 
d="M63 276q0 139 96.5 225.5t270.5 119.5l412 79v19q0 31 -10.5 59t-34.5 54t-71.5 41.5t-113.5 15.5q-121 0 -188.5 -51.5t-71.5 -149.5l-291 51q21 185 170.5 284t391.5 99q289 0 421 -147q169 147 418 147q268 0 428 -154.5t160 -428.5v-95h-897q6 -103 88.5 -167
t214.5 -64q199 0 356 168l181 -199q-213 -219 -527 -219q-174 0 -308.5 62t-215.5 174h-80q-37 -108 -153.5 -172t-272.5 -64q-170 0 -271.5 83t-101.5 230zM1155 657h586q-9 104 -87.5 165t-203.5 61q-121 0 -202.5 -63.5t-92.5 -162.5zM371 307q0 -54 40.5 -82t114.5 -28
q99 0 190 44.5t126 120.5v144l-324 -70q-84 -18 -115.5 -49t-31.5 -80z" />
    <glyph glyph-name="ccedilla" unicode="&#xe7;" horiz-adv-x="1222" 
d="M700 -33q-13 -39 -53 -67l19 -25q32 14 63 14q83 0 133.5 -49.5t50.5 -128.5q0 -105 -84.5 -168t-214.5 -63q-146 0 -231 65l45 148q83 -58 184 -58q53 0 84 22.5t31 61.5q0 33 -21.5 52.5t-54.5 19.5q-22 0 -59 -14l-100 47l40 145q-218 29 -344.5 180.5t-126.5 385.5
q0 267 161.5 427t428.5 160q209 0 346.5 -99t182.5 -271l-291 -88q-23 99 -90.5 149.5t-165.5 50.5q-123 0 -190.5 -87t-67.5 -234q0 -153 71.5 -237.5t190.5 -84.5q100 0 166 54t88 147l291 -88q-40 -152 -170 -251t-312 -116z" />
    <glyph glyph-name="egrave" unicode="&#xe8;" horiz-adv-x="1251" 
d="M537 1264l-199 313h340l84 -313h-225zM61 541q0 260 159 420.5t421 160.5q255 0 408 -154.5t153 -424.5v-99h-829q9 -106 84.5 -168.5t197.5 -62.5q104 0 187.5 45t128.5 123l176 -199q-69 -103 -206.5 -161t-293.5 -58q-260 0 -423 156.5t-163 421.5zM375 655h524
q-9 105 -78 166.5t-184 61.5q-109 0 -181 -60.5t-81 -167.5z" />
    <glyph glyph-name="eacute" unicode="&#xe9;" horiz-adv-x="1251" 
d="M618 1577h340l-196 -313h-227zM61 541q0 260 159 420.5t421 160.5q255 0 408 -154.5t153 -424.5v-99h-829q9 -106 84.5 -168.5t197.5 -62.5q104 0 187.5 45t128.5 123l176 -199q-69 -103 -206.5 -161t-293.5 -58q-260 0 -423 156.5t-163 421.5zM375 655h524
q-9 105 -78 166.5t-184 61.5q-109 0 -181 -60.5t-81 -167.5z" />
    <glyph glyph-name="ecircumflex" unicode="&#xea;" horiz-adv-x="1251" 
d="M539 1264h-273l215 313h334l215 -313h-272l-31 63q-33 64 -43 111h-72q-10 -47 -43 -111zM61 541q0 260 159 420.5t421 160.5q255 0 408 -154.5t153 -424.5v-99h-829q9 -106 84.5 -168.5t197.5 -62.5q104 0 187.5 45t128.5 123l176 -199q-69 -103 -206.5 -161t-293.5 -58
q-260 0 -423 156.5t-163 421.5zM375 655h524q-9 105 -78 166.5t-184 61.5q-109 0 -181 -60.5t-81 -167.5z" />
    <glyph glyph-name="edieresis" unicode="&#xeb;" horiz-adv-x="1251" 
d="M395 1233q-91 0 -144.5 46.5t-53.5 137.5q0 90 53.5 136t144.5 46t144 -46t53 -136q0 -91 -53 -137.5t-144 -46.5zM905 1233q-91 0 -143.5 46.5t-52.5 137.5q0 90 52.5 136t143.5 46t145 -46.5t54 -135.5q0 -91 -54 -137.5t-145 -46.5zM61 541q0 260 159 420.5t421 160.5
q255 0 408 -154.5t153 -424.5v-99h-829q9 -106 84.5 -168.5t197.5 -62.5q104 0 187.5 45t128.5 123l176 -199q-69 -103 -206.5 -161t-293.5 -58q-260 0 -423 156.5t-163 421.5zM375 655h524q-9 105 -78 166.5t-184 61.5q-109 0 -181 -60.5t-81 -167.5z" />
    <glyph glyph-name="igrave" unicode="&#xec;" horiz-adv-x="571" 
d="M162 1264l-199 313h340l84 -313h-225zM115 0v1085h317v-1085h-317z" />
    <glyph glyph-name="iacute" unicode="&#xed;" horiz-adv-x="571" 
d="M244 1577h340l-197 -313h-227zM115 0v1085h317v-1085h-317z" />
    <glyph glyph-name="icircumflex" unicode="&#xee;" horiz-adv-x="571" 
d="M164 1264h-273l215 313h334l215 -313h-272l-31 63q-33 64 -43 111h-71q-10 -47 -43 -111zM115 0v1085h317v-1085h-317z" />
    <glyph glyph-name="idieresis" unicode="&#xef;" horiz-adv-x="571" 
d="M18 1233q-91 0 -144.5 46.5t-53.5 137.5q0 90 53.5 136t144.5 46t144 -46t53 -136q0 -91 -53 -137.5t-144 -46.5zM528 1233q-91 0 -143.5 46.5t-52.5 137.5q0 90 52.5 136t143.5 46t145 -46.5t54 -135.5q0 -91 -54 -137.5t-145 -46.5zM115 0v1085h317v-1085h-317z" />
    <glyph glyph-name="eth" unicode="&#xf0;" horiz-adv-x="1273" 
d="M61 444q0 210 130.5 347t324.5 137q106 0 192.5 -47t141.5 -133l88 57q-63 188 -227 311l-121 -129l-156 131l86 94q-60 28 -145.5 51.5t-163.5 32.5l115 236q109 -11 216 -41t171 -70l159 178l152 -137l-133 -147q151 -124 237 -295.5t86 -380.5q0 -205 -81.5 -359.5
t-224 -235.5t-324.5 -81q-230 0 -376.5 131.5t-146.5 349.5zM373 469q0 -115 63.5 -180.5t167.5 -65.5q116 0 203 76t113 207q-54 101 -133.5 157t-170.5 56q-107 0 -175 -70t-68 -180z" />
    <glyph glyph-name="ntilde" unicode="&#xf1;" horiz-adv-x="1318" 
d="M498 1231h-170q-20 181 30 274.5t152 93.5q41 0 82 -17.5t66.5 -36t64.5 -52.5q43 -43 74 -43q27 0 35 34t2 113h170q20 -180 -30.5 -273t-152.5 -93q-97 0 -213 104q-43 43 -73 43q-27 0 -35 -34t-2 -113zM111 0v1085h276v-8q-8 -59 -45 -162l94 -38q58 120 156.5 182.5
t224.5 62.5q186 0 294 -123t108 -362v-637h-312v567q0 279 -211 279q-87 0 -159 -42.5t-115 -117.5v-686h-311z" />
    <glyph glyph-name="ograve" unicode="&#xf2;" horiz-adv-x="1286" 
d="M532 1264l-198 313h340l84 -313h-226zM61 543q0 260 161 419.5t421 159.5t421 -159.5t161 -419.5q0 -259 -161 -419.5t-421 -160.5t-421 160.5t-161 419.5zM911 543q0 149 -70.5 235t-197.5 86q-128 0 -198 -86t-70 -235q0 -148 70.5 -234t197.5 -86q126 0 197 86t71 234
z" />
    <glyph glyph-name="oacute" unicode="&#xf3;" horiz-adv-x="1286" 
d="M616 1577h340l-196 -313h-228zM61 543q0 260 161 419.5t421 159.5t421 -159.5t161 -419.5q0 -259 -161 -419.5t-421 -160.5t-421 160.5t-161 419.5zM911 543q0 149 -70.5 235t-197.5 86q-128 0 -198 -86t-70 -235q0 -148 70.5 -234t197.5 -86q126 0 197 86t71 234z" />
    <glyph glyph-name="ocircumflex" unicode="&#xf4;" horiz-adv-x="1286" 
d="M537 1264h-273l215 313h334l215 -313h-272l-31 63q-33 64 -43 111h-72q-10 -47 -43 -111zM61 543q0 260 161 419.5t421 159.5t421 -159.5t161 -419.5q0 -259 -161 -419.5t-421 -160.5t-421 160.5t-161 419.5zM911 543q0 149 -70.5 235t-197.5 86q-128 0 -198 -86
t-70 -235q0 -148 70.5 -234t197.5 -86q126 0 197 86t71 234z" />
    <glyph glyph-name="otilde" unicode="&#xf5;" horiz-adv-x="1286" 
d="M479 1231h-170q-20 180 30.5 274t152.5 94q41 0 82 -17.5t66.5 -36t64.5 -52.5q43 -43 73 -43q27 0 35 34t2 113h170q20 -180 -30 -273t-152 -93q-97 0 -213 104q-43 43 -74 43q-27 0 -35 -34t-2 -113zM61 543q0 260 161 419.5t421 159.5t421 -159.5t161 -419.5
q0 -259 -161 -419.5t-421 -160.5t-421 160.5t-161 419.5zM911 543q0 149 -70.5 235t-197.5 86q-128 0 -198 -86t-70 -235q0 -148 70.5 -234t197.5 -86q126 0 197 86t71 234z" />
    <glyph glyph-name="odieresis" unicode="&#xf6;" horiz-adv-x="1286" 
d="M391 1233q-91 0 -144.5 46.5t-53.5 137.5q0 90 53.5 136t144.5 46t144 -46t53 -136q0 -91 -53 -137.5t-144 -46.5zM901 1233q-91 0 -143.5 46.5t-52.5 137.5q0 90 52.5 136t143.5 46t145 -46.5t54 -135.5q0 -91 -54 -137.5t-145 -46.5zM61 543q0 260 161 419.5t421 159.5
t421 -159.5t161 -419.5q0 -259 -161 -419.5t-421 -160.5t-421 160.5t-161 419.5zM911 543q0 149 -70.5 235t-197.5 86q-128 0 -198 -86t-70 -235q0 -148 70.5 -234t197.5 -86q126 0 197 86t71 234z" />
    <glyph glyph-name="divide" unicode="&#xf7;" horiz-adv-x="1196" 
d="M598 926q-91 0 -144 46.5t-53 137.5q0 90 53 137t144 47t145 -47t54 -137t-54 -137t-145 -47zM154 803h888v-225h-888v225zM598 86q-91 0 -144 46.5t-53 137.5q0 90 53.5 137.5t143.5 47.5q92 0 145.5 -47.5t53.5 -137.5t-54 -137t-145 -47z" />
    <glyph glyph-name="oslash" unicode="&#xf8;" horiz-adv-x="1368" 
d="M61 543q-3 162 78.5 295t225.5 208.5t319 75.5q193 0 346 -92l125 127l139 -145l-112 -111q128 -150 125 -358q2 -122 -45.5 -229.5t-130.5 -184.5t-199.5 -121.5t-247.5 -44.5q-190 -3 -348 92l-123 -125l-139 144l110 110q-126 154 -123 359zM360 545q0 -74 29 -137
l221 219q150 154 297 145v92q-62 33 -166 33q-56 0 -109 -11.5t-103.5 -38t-87.5 -66t-59.5 -100.5t-21.5 -136zM461 313v-92q65 -33 168 -33q56 0 108 11.5t102 38.5t87 66.5t59.5 101t22.5 137.5q0 71 -29 137l-211 -211q-86 -86 -159.5 -122.5t-147.5 -33.5z" />
    <glyph glyph-name="ugrave" unicode="&#xf9;" horiz-adv-x="1318" 
d="M543 1264l-199 313h340l84 -313h-225zM1208 1085v-1085h-293v8q10 62 48 162l-97 33q-46 -115 -147.5 -177.5t-231.5 -62.5q-177 0 -282 116t-105 333v673h312v-618q0 -110 57.5 -168.5t163.5 -58.5q85 0 155 39t109 112v694h311z" />
    <glyph glyph-name="uacute" unicode="&#xfa;" horiz-adv-x="1318" 
d="M625 1577h340l-197 -313h-227zM1208 1085v-1085h-293v8q10 62 48 162l-97 33q-46 -115 -147.5 -177.5t-231.5 -62.5q-177 0 -282 116t-105 333v673h312v-618q0 -110 57.5 -168.5t163.5 -58.5q85 0 155 39t109 112v694h311z" />
    <glyph glyph-name="ucircumflex" unicode="&#xfb;" horiz-adv-x="1318" 
d="M545 1264h-273l215 313h334l215 -313h-272l-31 63q-33 64 -43 111h-72q-10 -47 -43 -111zM1208 1085v-1085h-293v8q10 62 48 162l-97 33q-46 -115 -147.5 -177.5t-231.5 -62.5q-177 0 -282 116t-105 333v673h312v-618q0 -110 57.5 -168.5t163.5 -58.5q85 0 155 39
t109 112v694h311z" />
    <glyph glyph-name="udieresis" unicode="&#xfc;" horiz-adv-x="1318" 
d="M401 1233q-91 0 -144.5 46.5t-53.5 137.5q0 90 53.5 136t144.5 46t144 -46t53 -136q0 -91 -53 -137.5t-144 -46.5zM911 1233q-91 0 -143.5 46.5t-52.5 137.5q0 90 52.5 136t143.5 46t145 -46.5t54 -135.5q0 -91 -54 -137.5t-145 -46.5zM1208 1085v-1085h-293v8
q10 62 48 162l-97 33q-46 -115 -147.5 -177.5t-231.5 -62.5q-177 0 -282 116t-105 333v673h312v-618q0 -110 57.5 -168.5t163.5 -58.5q85 0 155 39t109 112v694h311z" />
    <glyph glyph-name="yacute" unicode="&#xfd;" horiz-adv-x="1259" 
d="M598 1577h340l-197 -313h-227zM246 -498q-109 0 -178 35v277q60 -25 139 -25q160 0 215 150l39 96l-463 1050h348l154 -407q65 -180 78 -342h108q13 167 78 344l149 405h347l-543 -1237q-20 -48 -41 -87t-62 -90.5t-88 -85.5t-120.5 -58.5t-159.5 -24.5z" />
    <glyph glyph-name="thorn" unicode="&#xfe;" 
d="M422 -461h-311v1956h311v-205q0 -164 -78 -327l59 -33q50 92 149 143t218 51q225 0 362.5 -158.5t137.5 -420.5q0 -263 -138 -422.5t-362 -159.5q-118 0 -216.5 52t-150.5 145l-59 -33q78 -166 78 -330v-258zM678 223q124 0 199 82.5t75 239.5q0 156 -75 238.5t-197 82.5
q-93 0 -163 -46.5t-95 -123.5v-303q24 -76 93 -123t163 -47z" />
    <glyph glyph-name="ydieresis" unicode="&#xff;" horiz-adv-x="1259" 
d="M373 1233q-91 0 -145 46.5t-54 137.5q0 89 54 135.5t145 46.5t143.5 -46t52.5 -136q0 -91 -52.5 -137.5t-143.5 -46.5zM883 1233q-91 0 -144 46.5t-53 137.5q0 90 53 136t144 46t144.5 -46t53.5 -136q0 -91 -53.5 -137.5t-144.5 -46.5zM246 -498q-109 0 -178 35v277
q60 -25 139 -25q160 0 215 150l39 96l-463 1050h348l154 -407q65 -180 78 -342h108q13 167 78 344l149 405h347l-543 -1237q-20 -48 -41 -87t-62 -90.5t-88 -85.5t-120.5 -58.5t-159.5 -24.5z" />
    <glyph glyph-name="Amacron" unicode="&#x100;" horiz-adv-x="1480" 
d="M379 1806h717v-217h-717v217zM1466 0h-331l-82 227h-625l-82 -227h-332l541 1434h369zM606 727l-80 -223h428l-80 223q-34 96 -49.5 173.5t-27.5 205.5h-113q-12 -127 -28.5 -205.5t-49.5 -173.5z" />
    <glyph glyph-name="amacron" unicode="&#x101;" horiz-adv-x="1232" 
d="M236 1499h716v-217h-716v217zM1124 201q35 0 60 18v-211q-70 -39 -166 -39q-100 0 -160 52.5t-63 160.5h-82q-18 -98 -110.5 -158.5t-217.5 -60.5q-142 0 -232 81.5t-90 215.5q0 139 89 227.5t280 130.5l330 72v12q0 187 -195 187q-98 0 -155.5 -51t-63.5 -148l-285 51
q21 179 164.5 280t364.5 101q226 0 353.5 -106.5t127.5 -313.5v-389q0 -28 1 -42.5t5.5 -33.5t15.5 -27.5t29 -8.5zM508 197q83 0 157 47.5t97 117.5v146l-221 -45q-174 -38 -174 -146q0 -60 38 -90t103 -30z" />
    <glyph glyph-name="Abreve" unicode="&#x102;" horiz-adv-x="1480" 
d="M739 1552q-170 0 -274.5 92t-104.5 240h250q0 -71 34.5 -106t94.5 -35q64 0 95.5 37t31.5 104h250q2 -148 -102.5 -240t-274.5 -92zM1466 0h-331l-82 227h-625l-82 -227h-332l541 1434h369zM606 727l-80 -223h428l-80 223q-34 96 -49.5 173.5t-27.5 205.5h-113
q-12 -127 -28.5 -205.5t-49.5 -173.5z" />
    <glyph glyph-name="abreve" unicode="&#x103;" horiz-adv-x="1232" 
d="M596 1245q-170 0 -274.5 92t-104.5 240h250q0 -71 34.5 -106t94.5 -35q64 0 95.5 37t31.5 104h250q2 -148 -102.5 -240t-274.5 -92zM1124 201q35 0 60 18v-211q-70 -39 -166 -39q-100 0 -160 52.5t-63 160.5h-82q-18 -98 -110.5 -158.5t-217.5 -60.5q-142 0 -232 81.5
t-90 215.5q0 139 89 227.5t280 130.5l330 72v12q0 187 -195 187q-98 0 -155.5 -51t-63.5 -148l-285 51q21 179 164.5 280t364.5 101q226 0 353.5 -106.5t127.5 -313.5v-389q0 -28 1 -42.5t5.5 -33.5t15.5 -27.5t29 -8.5zM508 197q83 0 157 47.5t97 117.5v146l-221 -45
q-174 -38 -174 -146q0 -60 38 -90t103 -30z" />
    <glyph glyph-name="Aogonek" unicode="&#x104;" horiz-adv-x="1480" 
d="M1522 -203l59 -168q-40 -31 -107 -50t-137 -19q-130 0 -207 67.5t-77 173.5q0 124 112 199h-30l-82 227h-625l-82 -227h-332l541 1434h369l542 -1434h-32q-88 -9 -137.5 -51t-49.5 -101q0 -47 33.5 -74.5t91.5 -27.5q85 0 150 51zM606 727l-80 -223h428l-80 223
q-34 96 -49.5 173.5t-27.5 205.5h-113q-12 -127 -28.5 -205.5t-49.5 -173.5z" />
    <glyph glyph-name="aogonek" unicode="&#x105;" horiz-adv-x="1232" 
d="M1241 -201l59 -168q-40 -31 -106.5 -50t-136.5 -19q-130 0 -207.5 67.5t-77.5 173.5q0 123 113 199q-87 54 -90 180h-82q-18 -98 -110.5 -158.5t-217.5 -60.5q-142 0 -232 81.5t-90 215.5q0 139 89 227.5t280 130.5l330 72v12q0 187 -195 187q-98 0 -155.5 -51
t-63.5 -148l-285 51q21 179 164.5 280t364.5 101q226 0 353.5 -106.5t127.5 -313.5v-389q0 -28 1 -42.5t5.5 -33.5t15.5 -27.5t29 -8.5q35 0 60 18v-211q-64 -33 -140 -39q-77 -41 -77 -119q0 -47 33.5 -74.5t91.5 -27.5q84 0 149 51zM508 197q83 0 157 47.5t97 117.5v146
l-221 -45q-174 -38 -174 -146q0 -60 38 -90t103 -30z" />
    <glyph glyph-name="Cacute" unicode="&#x106;" horiz-adv-x="1560" 
d="M799 1884h340l-197 -313h-227zM80 717q0 154 53 292t148 241.5t237.5 163.5t310.5 59q252 -3 434.5 -138t229.5 -360l-301 -82q-38 140 -133 215.5t-234 77.5q-187 0 -303 -131t-116 -338t115.5 -338t303.5 -131q144 2 242 84t133 237l303 -75q-44 -245 -228.5 -387.5
t-445.5 -145.5q-168 -1 -310.5 59t-237.5 163.5t-148 241.5t-53 292z" />
    <glyph glyph-name="cacute" unicode="&#x107;" horiz-adv-x="1222" 
d="M621 1577h340l-197 -313h-227zM61 535q0 267 161.5 427t428.5 160q209 0 346.5 -99t182.5 -271l-291 -88q-23 99 -90.5 149.5t-165.5 50.5q-123 0 -190.5 -87t-67.5 -234q0 -153 71.5 -237.5t190.5 -84.5q100 0 166 54t88 147l291 -88q-43 -167 -194.5 -269t-358.5 -102
q-258 0 -413 156t-155 416z" />
    <glyph glyph-name="Cdotaccent" unicode="&#x10a;" horiz-adv-x="1560" 
d="M829 1540q-91 0 -143.5 46.5t-52.5 137.5q0 90 52.5 136.5t143.5 46.5t145 -46.5t54 -136.5q0 -91 -54 -137.5t-145 -46.5zM80 717q0 154 53 292t148 241.5t237.5 163.5t310.5 59q252 -3 434.5 -138t229.5 -360l-301 -82q-38 140 -133 215.5t-234 77.5q-187 0 -303 -131
t-116 -338t115.5 -338t303.5 -131q144 2 242 84t133 237l303 -75q-44 -245 -228.5 -387.5t-445.5 -145.5q-168 -1 -310.5 59t-237.5 163.5t-148 241.5t-53 292z" />
    <glyph glyph-name="cdotaccent" unicode="&#x10b;" horiz-adv-x="1222" 
d="M651 1233q-91 0 -143.5 46.5t-52.5 137.5q0 90 52.5 136t143.5 46t145 -46.5t54 -135.5q0 -91 -54 -137.5t-145 -46.5zM61 535q0 267 161.5 427t428.5 160q209 0 346.5 -99t182.5 -271l-291 -88q-23 99 -90.5 149.5t-165.5 50.5q-123 0 -190.5 -87t-67.5 -234
q0 -153 71.5 -237.5t190.5 -84.5q100 0 166 54t88 147l291 -88q-43 -167 -194.5 -269t-358.5 -102q-258 0 -413 156t-155 416z" />
    <glyph glyph-name="Ccaron" unicode="&#x10c;" horiz-adv-x="1560" 
d="M662 1571l-216 313h273l31 -61q34 -70 43 -113h71q11 51 43 113l31 61h272l-215 -313h-333zM80 717q0 154 53 292t148 241.5t237.5 163.5t310.5 59q252 -3 434.5 -138t229.5 -360l-301 -82q-38 140 -133 215.5t-234 77.5q-187 0 -303 -131t-116 -338t115.5 -338
t303.5 -131q144 2 242 84t133 237l303 -75q-44 -245 -228.5 -387.5t-445.5 -145.5q-168 -1 -310.5 59t-237.5 163.5t-148 241.5t-53 292z" />
    <glyph glyph-name="ccaron" unicode="&#x10d;" horiz-adv-x="1222" 
d="M483 1264l-215 313h273l30 -61q34 -70 43 -113h72q11 51 43 113l31 61h272l-215 -313h-334zM61 535q0 267 161.5 427t428.5 160q209 0 346.5 -99t182.5 -271l-291 -88q-23 99 -90.5 149.5t-165.5 50.5q-123 0 -190.5 -87t-67.5 -234q0 -153 71.5 -237.5t190.5 -84.5
q100 0 166 54t88 147l291 -88q-43 -167 -194.5 -269t-358.5 -102q-258 0 -413 156t-155 416z" />
    <glyph glyph-name="Dcaron" unicode="&#x10e;" horiz-adv-x="1468" 
d="M1083 1884l-215 -313h-333l-216 313h273l31 -61q34 -70 43 -113h71q11 51 43 113l31 61h272zM133 1434h604q298 0 475 -188.5t177 -528.5q0 -346 -174 -531.5t-484 -185.5h-598v1434zM455 285h256q82 0 145 22t111.5 70.5t74 134t25.5 205.5q0 432 -356 432h-256v-864z
" />
    <glyph glyph-name="dcaron" unicode="&#x10f;" horiz-adv-x="1476" 
d="M1706 1257l-145 -241l-131 65l92 152q-50 14 -78.5 52.5t-28.5 92.5q0 71 48 112.5t120 41.5q73 0 118.5 -43t45.5 -111q0 -59 -41 -121zM590 -37q-114 0 -211 39t-167.5 111.5t-110.5 181t-40 240.5q0 264 147.5 425.5t389.5 161.5q135 0 243.5 -56.5t168.5 -176.5
l63 31q-41 83 -60.5 168.5t-19.5 203.5v203h316v-1495h-281v8q16 76 43 158l-63 31q-55 -116 -166 -175t-252 -59zM690 231q106 0 188.5 50t114.5 137v250q-31 84 -112 135t-189 51q-140 0 -227.5 -85t-87.5 -226q0 -145 88.5 -228.5t224.5 -83.5z" />
    <glyph glyph-name="Dcroat" unicode="&#x110;" horiz-adv-x="1560" 
d="M156 606h-113v223h113v605h614q327 0 518 -188t191 -529q0 -347 -188 -532t-525 -185h-610v606zM481 606v-321h262q206 0 308 105.5t102 326.5q0 432 -410 432h-262v-320h238v-223h-238z" />
    <glyph glyph-name="dcroat" unicode="&#x111;" horiz-adv-x="1413" 
d="M1309 1389h90v-205h-90v-1184h-281v8q16 76 43 158l-63 31q-55 -116 -166 -175t-252 -59q-114 0 -211 39t-167.5 111.5t-110.5 181t-40 240.5q0 264 147.5 425.5t389.5 161.5q135 0 243.5 -56.5t168.5 -176.5l63 31q-63 130 -76 264h-264v205h260v106h316v-106zM993 418
v250q-31 84 -112 135t-189 51q-140 0 -227.5 -85t-87.5 -226q0 -145 88.5 -228.5t224.5 -83.5q106 0 188.5 50t114.5 137z" />
    <glyph glyph-name="Emacron" unicode="&#x112;" horiz-adv-x="1236" 
d="M289 1806h717v-217h-717v217zM455 596v-311h712v-285h-1034v1434h1032v-285h-710v-289h649v-264h-649z" />
    <glyph glyph-name="emacron" unicode="&#x113;" horiz-adv-x="1251" 
d="M291 1282v217h717v-217h-717zM61 541q0 260 159 420.5t421 160.5q255 0 408 -154.5t153 -424.5v-99h-829q9 -106 84.5 -168.5t197.5 -62.5q104 0 187.5 45t128.5 123l176 -199q-69 -103 -206.5 -161t-293.5 -58q-260 0 -423 156.5t-163 421.5zM375 655h524
q-9 105 -78 166.5t-184 61.5q-109 0 -181 -60.5t-81 -167.5z" />
    <glyph glyph-name="Edotaccent" unicode="&#x116;" horiz-adv-x="1236" 
d="M647 1540q-91 0 -143.5 46.5t-52.5 137.5q0 90 52.5 136.5t143.5 46.5t145 -46.5t54 -136.5q0 -91 -54 -137.5t-145 -46.5zM455 596v-311h712v-285h-1034v1434h1032v-285h-710v-289h649v-264h-649z" />
    <glyph glyph-name="edotaccent" unicode="&#x117;" horiz-adv-x="1251" 
d="M649 1233q-91 0 -143.5 46.5t-52.5 137.5q0 90 52.5 136t143.5 46t145 -46.5t54 -135.5q0 -91 -54 -137.5t-145 -46.5zM61 541q0 260 159 420.5t421 160.5q255 0 408 -154.5t153 -424.5v-99h-829q9 -106 84.5 -168.5t197.5 -62.5q104 0 187.5 45t128.5 123l176 -199
q-69 -103 -206.5 -161t-293.5 -58q-260 0 -423 156.5t-163 421.5zM375 655h524q-9 105 -78 166.5t-184 61.5q-109 0 -181 -60.5t-81 -167.5z" />
    <glyph glyph-name="Eogonek" unicode="&#x118;" horiz-adv-x="1236" 
d="M1163 -203l60 -168q-40 -31 -107 -50t-137 -19q-130 0 -207.5 67.5t-77.5 173.5q0 123 113 199h-674v1434h1032v-285h-710v-289h649v-264h-649v-311h712v-285h-92q-88 -9 -137 -51t-49 -101q0 -47 33.5 -74.5t91.5 -27.5q84 0 149 51z" />
    <glyph glyph-name="eogonek" unicode="&#x119;" horiz-adv-x="1251" 
d="M1202 543v-99h-829q9 -106 84.5 -168.5t197.5 -62.5q104 0 187.5 45t128.5 123l176 -199q-53 -78 -147 -131t-207 -74q-91 -45 -91 -127q0 -47 33.5 -74.5t91.5 -27.5q85 0 150 51l59 -168q-40 -31 -106.5 -50t-136.5 -19q-130 0 -207.5 67.5t-77.5 173.5q0 94 70 164
q-233 21 -375 174t-142 400q0 260 159 420.5t421 160.5q255 0 408 -154.5t153 -424.5zM375 655h524q-9 105 -78 166.5t-184 61.5q-109 0 -181 -60.5t-81 -167.5z" />
    <glyph glyph-name="Ecaron" unicode="&#x11a;" horiz-adv-x="1236" 
d="M1028 1884l-215 -313h-334l-215 313h273l30 -61q34 -70 43 -113h72q11 51 43 113l31 61h272zM455 596v-311h712v-285h-1034v1434h1032v-285h-710v-289h649v-264h-649z" />
    <glyph glyph-name="ecaron" unicode="&#x11b;" horiz-adv-x="1251" 
d="M481 1264l-215 313h273l30 -61q34 -70 43 -113h72q11 51 43 113l31 61h272l-215 -313h-334zM61 541q0 260 159 420.5t421 160.5q255 0 408 -154.5t153 -424.5v-99h-829q9 -106 84.5 -168.5t197.5 -62.5q104 0 187.5 45t128.5 123l176 -199q-69 -103 -206.5 -161
t-293.5 -58q-260 0 -423 156.5t-163 421.5zM375 655h524q-9 105 -78 166.5t-184 61.5q-109 0 -181 -60.5t-81 -167.5z" />
    <glyph glyph-name="Gbreve" unicode="&#x11e;" horiz-adv-x="1605" 
d="M453 1884h249q0 -71 34.5 -106t94.5 -35q64 0 95.5 37t31.5 104h250q2 -148 -102.5 -240t-274.5 -92t-274 92t-104 240zM80 698q0 176 58.5 323t159.5 246t238.5 153t294.5 53q249 -3 430 -134.5t228 -345.5l-301 -84q-40 132 -133.5 204t-233.5 73q-191 0 -303 -132.5
t-112 -342.5q0 -212 117 -343.5t317 -131.5q150 1 249.5 73t124.5 191v22h-391v236h658v-758h-269v14q2 15 6.5 31.5t12.5 38.5t13.5 36.5t17.5 43t16 39.5l-98 49q-128 -287 -445 -287q-155 0 -280.5 59t-206.5 160t-124.5 233t-43.5 281z" />
    <glyph glyph-name="gbreve" unicode="&#x11f;" horiz-adv-x="1075" 
d="M121 1577h250q0 -71 34.5 -106t94.5 -35q64 0 95.5 37t31.5 104h250q2 -148 -102.5 -240t-274.5 -92t-274.5 92t-104.5 240zM485 -537q-244 0 -358.5 66t-114.5 182q0 80 53.5 129t143.5 58v59q-48 22 -72 63t-24 91q0 74 47 125.5t127 66.5v62q-118 35 -183 121t-65 202
q0 185 126.5 291t338.5 106h526l41 -221h-45q-89 0 -178 58l-51 -84q83 -33 124.5 -95.5t41.5 -146.5q0 -147 -116.5 -234.5t-309.5 -87.5h-78q-88 0 -88 -63q0 -33 27.5 -47t78.5 -17l244 -12q330 -19 330 -309q0 -181 -148.5 -272t-417.5 -91zM500 494q89 0 135.5 50.5
t46.5 137.5q0 89 -49 136.5t-133 47.5q-90 0 -136.5 -49t-46.5 -135q0 -92 49 -140t134 -48zM494 -338q134 0 189.5 29t55.5 84q0 82 -106 86l-314 18q-24 -6 -38.5 -35.5t-14.5 -64.5q0 -65 59 -91t169 -26z" />
    <glyph glyph-name="Gdotaccent" unicode="&#x120;" horiz-adv-x="1605" 
d="M831 1540q-91 0 -143.5 46.5t-52.5 137.5q0 90 52.5 136.5t143.5 46.5t145 -46.5t54 -136.5q0 -91 -54 -137.5t-145 -46.5zM80 698q0 176 58.5 323t159.5 246t238.5 153t294.5 53q249 -3 430 -134.5t228 -345.5l-301 -84q-40 132 -133.5 204t-233.5 73
q-191 0 -303 -132.5t-112 -342.5q0 -212 117 -343.5t317 -131.5q150 1 249.5 73t124.5 191v22h-391v236h658v-758h-269v14q2 15 6.5 31.5t12.5 38.5t13.5 36.5t17.5 43t16 39.5l-98 49q-128 -287 -445 -287q-155 0 -280.5 59t-206.5 160t-124.5 233t-43.5 281z" />
    <glyph glyph-name="gdotaccent" unicode="&#x121;" horiz-adv-x="1075" 
d="M500 1233q-91 0 -144 46.5t-53 137.5q0 90 53 136t144 46t144.5 -46t53.5 -136q0 -91 -53.5 -137.5t-144.5 -46.5zM485 -537q-244 0 -358.5 66t-114.5 182q0 80 53.5 129t143.5 58v59q-48 22 -72 63t-24 91q0 74 47 125.5t127 66.5v62q-118 35 -183 121t-65 202
q0 185 126.5 291t338.5 106h526l41 -221h-45q-89 0 -178 58l-51 -84q83 -33 124.5 -95.5t41.5 -146.5q0 -147 -116.5 -234.5t-309.5 -87.5h-78q-88 0 -88 -63q0 -33 27.5 -47t78.5 -17l244 -12q330 -19 330 -309q0 -181 -148.5 -272t-417.5 -91zM500 494q89 0 135.5 50.5
t46.5 137.5q0 89 -49 136.5t-133 47.5q-90 0 -136.5 -49t-46.5 -135q0 -92 49 -140t134 -48zM494 -338q134 0 189.5 29t55.5 84q0 82 -106 86l-314 18q-24 -6 -38.5 -35.5t-14.5 -64.5q0 -65 59 -91t169 -26z" />
    <glyph glyph-name="uni0122" unicode="&#x122;" horiz-adv-x="1605" 
d="M80 698q0 176 58.5 323t159.5 246t238.5 153t294.5 53q249 -3 430 -134.5t228 -345.5l-301 -84q-40 132 -133.5 204t-233.5 73q-191 0 -303 -132.5t-112 -342.5q0 -212 117 -343.5t317 -131.5q150 1 249.5 73t124.5 191v22h-391v236h658v-758h-269v14q2 15 6.5 31.5
t12.5 38.5t13.5 36.5t17.5 43t16 39.5l-98 49q-128 -287 -445 -287q-155 0 -280.5 59t-206.5 160t-124.5 233t-43.5 281zM569 -143h340l-198 -316h-226z" />
    <glyph glyph-name="uni0123" unicode="&#x123;" horiz-adv-x="1075" 
d="M360 1542l158 264l150 -75l-97 -162q55 -15 88 -59.5t33 -104.5q0 -80 -55.5 -127t-136.5 -47q-85 0 -136 48t-51 126q0 63 47 137zM485 -537q-244 0 -358.5 66t-114.5 182q0 80 53.5 129t143.5 58v59q-48 22 -72 63t-24 91q0 74 47 125.5t127 66.5v62q-118 35 -183 121
t-65 202q0 185 126.5 291t338.5 106h526l41 -221h-45q-89 0 -178 58l-51 -84q83 -33 124.5 -95.5t41.5 -146.5q0 -147 -116.5 -234.5t-309.5 -87.5h-78q-88 0 -88 -63q0 -33 27.5 -47t78.5 -17l244 -12q330 -19 330 -309q0 -181 -148.5 -272t-417.5 -91zM500 494
q89 0 135.5 50.5t46.5 137.5q0 89 -49 136.5t-133 47.5q-90 0 -136.5 -49t-46.5 -135q0 -92 49 -140t134 -48zM494 -338q134 0 189.5 29t55.5 84q0 82 -106 86l-314 18q-24 -6 -38.5 -35.5t-14.5 -64.5q0 -65 59 -91t169 -26z" />
    <glyph glyph-name="Hbar" unicode="&#x126;" horiz-adv-x="1622" 
d="M1440 1434v-152h127v-238h-127v-1044h-328v582h-639v-582h-326v1044h-129v238h129v152h326v-152h639v152h328zM473 1044v-163h639v163h-639z" />
    <glyph glyph-name="hbar" unicode="&#x127;" horiz-adv-x="1372" 
d="M801 1122q223 0 347 -130.5t124 -354.5v-637h-318v567q0 279 -254 279q-102 0 -186.5 -43t-134.5 -117v-686h-316v1184h-124v205h124v106h316v-106h225v-205h-225q-6 -136 -66 -269l64 -32q61 115 173 177t251 62z" />
    <glyph glyph-name="Imacron" unicode="&#x12a;" horiz-adv-x="632" 
d="M-43 1589v217h717v-217h-717zM156 0v1434h319v-1434h-319z" />
    <glyph glyph-name="imacron" unicode="&#x12b;" horiz-adv-x="571" 
d="M-84 1282v217h717v-217h-717zM115 0v1085h317v-1085h-317z" />
    <glyph glyph-name="Iogonek" unicode="&#x12e;" horiz-adv-x="632" 
d="M561 -203l60 -168q-40 -31 -107 -50t-137 -19q-130 0 -207.5 67.5t-77.5 173.5q0 123 113 199h-49v1434h319v-1434h-2q-88 -9 -137 -51t-49 -101q0 -47 33.5 -74.5t91.5 -27.5q84 0 149 51z" />
    <glyph glyph-name="iogonek" unicode="&#x12f;" horiz-adv-x="571" 
d="M274 1233q-91 0 -143.5 46.5t-52.5 137.5q0 90 52.5 136t143.5 46t145 -46.5t54 -135.5q0 -91 -54 -137.5t-145 -46.5zM518 -203l60 -168q-40 -31 -107 -50t-137 -19q-130 0 -207.5 67.5t-77.5 173.5q0 123 113 199h-47v1085h317v-1085h-2q-88 -9 -137 -51t-49 -101
q0 -47 33.5 -74.5t91.5 -27.5q84 0 149 51z" />
    <glyph glyph-name="Idotaccent" unicode="&#x130;" horiz-adv-x="632" 
d="M315 1540q-91 0 -143.5 46.5t-52.5 137.5q0 90 52.5 136.5t143.5 46.5t145 -46.5t54 -136.5q0 -91 -54 -137.5t-145 -46.5zM156 0v1434h319v-1434h-319z" />
    <glyph glyph-name="dotlessi" unicode="&#x131;" horiz-adv-x="571" 
d="M115 0v1085h317v-1085h-317z" />
    <glyph glyph-name="uni0136" unicode="&#x136;" horiz-adv-x="1406" 
d="M133 0v1434h322v-242q0 -130 -20.5 -203.5t-88.5 -159.5l74 -69l592 674h383l-539 -611l547 -823h-383l-387 594h-4l-174 -215v-379h-322zM530 -143h340l-198 -316h-226z" />
    <glyph glyph-name="uni0137" unicode="&#x137;" horiz-adv-x="1273" 
d="M111 0v1495h311v-477q0 -57 -2 -89t-11 -79t-30.5 -91.5t-56.5 -94.5l84 -60q54 83 172 211l260 270h424l-463 -440l471 -645h-377l-318 459h-4l-149 -142v-317h-311zM481 -143h340l-198 -316h-226z" />
    <glyph glyph-name="Lacute" unicode="&#x139;" horiz-adv-x="1144" 
d="M264 1884h340l-196 -313h-228zM133 0v1434h322v-1147h659v-287h-981z" />
    <glyph glyph-name="lacute" unicode="&#x13a;" horiz-adv-x="540" 
d="M242 1987h340l-197 -314h-227zM115 0v1495h311v-1495h-311z" />
    <glyph glyph-name="uni013B" unicode="&#x13b;" horiz-adv-x="1144" 
d="M133 0v1434h322v-1147h659v-287h-981zM446 -143h340l-198 -316h-226z" />
    <glyph glyph-name="uni013C" unicode="&#x13c;" horiz-adv-x="540" 
d="M115 0v1495h311v-1495h-311zM100 -143h340l-198 -316h-226z" />
    <glyph glyph-name="Lcaron" unicode="&#x13d;" horiz-adv-x="1234" 
d="M958 1198l-145 -242l-131 66l92 152q-49 13 -77.5 52t-28.5 93q0 71 48 112.5t120 41.5q74 0 118.5 -43t44.5 -111q0 -59 -41 -121zM133 0v1434h326v-1147h745v-287h-1071z" />
    <glyph glyph-name="lcaron" unicode="&#x13e;" horiz-adv-x="585" 
d="M829 1257l-145 -241l-133 65l92 152q-49 13 -77.5 52t-28.5 93q0 71 48 112.5t120 41.5q74 0 119.5 -43t45.5 -111q0 -59 -41 -121zM115 0v1495h317v-1495h-317z" />
    <glyph glyph-name="Lslash" unicode="&#x141;" horiz-adv-x="1138" 
d="M127 557l-131 -51v229l131 51v648h319v-519l185 72v-229l-185 -72v-399h662v-287h-981v557z" />
    <glyph glyph-name="lslash" unicode="&#x142;" horiz-adv-x="575" 
d="M2 496v229l141 63v707h312v-557l141 66v-232l-141 -65v-707h-312v559z" />
    <glyph glyph-name="Nacute" unicode="&#x143;" horiz-adv-x="1548" 
d="M741 1884h340l-196 -313h-228zM133 0v1434h354l603 -942h4v942h321v-1434h-354l-602 926h-4v-926h-322z" />
    <glyph glyph-name="nacute" unicode="&#x144;" horiz-adv-x="1318" 
d="M635 1577h340l-197 -313h-227zM111 0v1085h276v-8q-8 -59 -45 -162l94 -38q58 120 156.5 182.5t224.5 62.5q186 0 294 -123t108 -362v-637h-312v567q0 279 -211 279q-87 0 -159 -42.5t-115 -117.5v-686h-311z" />
    <glyph glyph-name="uni0145" unicode="&#x145;" horiz-adv-x="1548" 
d="M133 0v1434h354l603 -942h4v942h321v-1434h-354l-602 926h-4v-926h-322zM600 -143h340l-199 -316h-225z" />
    <glyph glyph-name="uni0146" unicode="&#x146;" horiz-adv-x="1318" 
d="M111 0v1085h276v-8q-8 -59 -45 -162l94 -38q58 120 156.5 182.5t224.5 62.5q186 0 294 -123t108 -362v-637h-312v567q0 279 -211 279q-87 0 -159 -42.5t-115 -117.5v-686h-311zM496 -143h340l-199 -316h-225z" />
    <glyph glyph-name="Ncaron" unicode="&#x147;" horiz-adv-x="1548" 
d="M604 1571l-215 313h273l30 -61q34 -70 43 -113h72q11 51 43 113l31 61h272l-215 -313h-334zM133 0v1434h354l603 -942h4v942h321v-1434h-354l-602 926h-4v-926h-322z" />
    <glyph glyph-name="ncaron" unicode="&#x148;" horiz-adv-x="1318" 
d="M498 1264l-215 313h272l31 -61q34 -70 43 -113h71q11 51 43 113l31 61h273l-216 -313h-333zM111 0v1085h276v-8q-8 -59 -45 -162l94 -38q58 120 156.5 182.5t224.5 62.5q186 0 294 -123t108 -362v-637h-312v567q0 279 -211 279q-87 0 -159 -42.5t-115 -117.5v-686h-311z
" />
    <glyph glyph-name="Eng" unicode="&#x14a;" horiz-adv-x="1691" 
d="M498 0h-328v1434h346l674 -934h4v934h326v-1475q0 -223 -114 -340t-341 -117q-68 0 -109 13l-43 256q37 -9 82 -9q108 0 158.5 44.5t50.5 140.5v53h-28l-674 918h-4v-918z" />
    <glyph glyph-name="eng" unicode="&#x14b;" horiz-adv-x="1488" 
d="M461 0h-318v1085h301v-8q-15 -84 -49 -162l62 -32q62 115 174 177t250 62q223 0 347 -130.5t124 -354.5v-678q0 -223 -114 -340t-341 -117q-68 0 -109 13l-43 256q37 -9 82 -9q116 0 162.5 51.5t46.5 172.5v581q0 279 -256 279q-102 0 -186.5 -43t-132.5 -117v-686z" />
    <glyph glyph-name="Omacron" unicode="&#x14c;" horiz-adv-x="1648" 
d="M467 1608v217h717v-217h-717zM80 717q0 161 56.5 301t155 239t237 156t296.5 57t296.5 -57t237.5 -156t155.5 -239t56.5 -301t-56.5 -301.5t-155.5 -239.5t-237.5 -156t-296.5 -57q-211 0 -381.5 97t-267 269.5t-96.5 387.5zM406 717q0 -209 116.5 -339t302.5 -130
q194 0 307 131.5t113 337.5q0 208 -114 338.5t-306 130.5t-305.5 -129t-113.5 -340z" />
    <glyph glyph-name="omacron" unicode="&#x14d;" horiz-adv-x="1286" 
d="M287 1282v217h717v-217h-717zM61 543q0 260 161 419.5t421 159.5t421 -159.5t161 -419.5q0 -259 -161 -419.5t-421 -160.5t-421 160.5t-161 419.5zM911 543q0 149 -70.5 235t-197.5 86q-128 0 -198 -86t-70 -235q0 -148 70.5 -234t197.5 -86q126 0 197 86t71 234z" />
    <glyph glyph-name="Ohungarumlaut" unicode="&#x150;" horiz-adv-x="1648" 
d="M602 1903h322l-176 -314h-228zM1083 1903h322l-258 -314h-244zM80 717q0 161 56.5 301t155 239t237 156t296.5 57t296.5 -57t237.5 -156t155.5 -239t56.5 -301t-56.5 -301.5t-155.5 -239.5t-237.5 -156t-296.5 -57q-211 0 -381.5 97t-267 269.5t-96.5 387.5zM406 717
q0 -209 116.5 -339t302.5 -130q194 0 307 131.5t113 337.5q0 208 -114 338.5t-306 130.5t-305.5 -129t-113.5 -340z" />
    <glyph glyph-name="ohungarumlaut" unicode="&#x151;" horiz-adv-x="1286" 
d="M422 1577h321l-176 -313h-227zM903 1577h322l-258 -313h-244zM61 543q0 260 161 419.5t421 159.5t421 -159.5t161 -419.5q0 -259 -161 -419.5t-421 -160.5t-421 160.5t-161 419.5zM911 543q0 149 -70.5 235t-197.5 86q-128 0 -198 -86t-70 -235q0 -148 70.5 -234
t197.5 -86q126 0 197 86t71 234z" />
    <glyph glyph-name="OE" unicode="&#x152;" horiz-adv-x="2037" 
d="M80 717q0 342 194.5 529.5t526.5 187.5h1167v-285h-665v-289h595v-264h-595v-311h667v-285h-1165q-343 0 -534 185t-191 532zM406 717q0 -221 104 -326.5t315 -105.5h152v864h-152q-419 0 -419 -432z" />
    <glyph glyph-name="oe" unicode="&#x153;" horiz-adv-x="2095" 
d="M2046 444h-827q0 -1 -1 -3t-1 -3q12 -103 87.5 -164t194.5 -61q104 0 187.5 45t130.5 123l174 -199q-69 -103 -206 -161t-294 -58q-265 0 -428 160q-160 -160 -420 -160t-421 160.5t-161 419.5q0 260 161 419.5t421 159.5q263 0 422 -159q159 159 420 159
q255 0 408 -154.5t153 -424.5v-99zM1481 883q-109 0 -181 -60.5t-81 -167.5h524q-9 105 -78 166.5t-184 61.5zM643 223q113 0 181.5 68t82.5 188q-2 20 -2 62q0 43 2 63q-14 123 -82.5 191.5t-181.5 68.5q-128 0 -198 -86t-70 -235q0 -148 70.5 -234t197.5 -86z" />
    <glyph glyph-name="Racute" unicode="&#x154;" horiz-adv-x="1363" 
d="M653 1884h340l-196 -313h-228zM1184 297l61 -147q22 -51 39.5 -78t44.5 -43v-29h-360q-33 28 -47 78l-91 221q-47 118 -94.5 157.5t-148.5 39.5h-133v-496h-322v1434h737q205 0 319 -104.5t114 -287.5q0 -193 -109.5 -293t-316.5 -112v-94q65 -8 104 -19.5t77 -38
t66.5 -71t59.5 -117.5zM455 774h342q87 0 136.5 50.5t49.5 142.5q0 188 -188 188h-340v-381z" />
    <glyph glyph-name="racute" unicode="&#x155;" horiz-adv-x="794" 
d="M383 1577h340l-197 -313h-227zM422 0h-311v1085h272v-10q-9 -49 -49 -155l98 -31q77 217 234 217q68 0 94 -16l22 -277q-54 21 -141 21q-69 0 -131.5 -40.5t-87.5 -117.5v-676z" />
    <glyph glyph-name="uni0156" unicode="&#x156;" horiz-adv-x="1363" 
d="M1184 297l61 -147q22 -51 39.5 -78t44.5 -43v-29h-360q-33 28 -47 78l-91 221q-47 118 -94.5 157.5t-148.5 39.5h-133v-496h-322v1434h737q205 0 319 -104.5t114 -287.5q0 -193 -109.5 -293t-316.5 -112v-94q65 -8 104 -19.5t77 -38t66.5 -71t59.5 -117.5zM455 774h342
q87 0 136.5 50.5t49.5 142.5q0 188 -188 188h-340v-381zM655 -459h-225l84 316h340z" />
    <glyph glyph-name="uni0157" unicode="&#x157;" horiz-adv-x="794" 
d="M422 0h-311v1085h272v-10q-9 -49 -49 -155l98 -31q77 217 234 217q68 0 94 -16l22 -277q-54 21 -141 21q-69 0 -131.5 -40.5t-87.5 -117.5v-676zM96 -143h340l-198 -316h-226z" />
    <glyph glyph-name="Rcaron" unicode="&#x158;" horiz-adv-x="1363" 
d="M1065 1884l-215 -313h-334l-215 313h272l31 -61q34 -70 43 -113h72q11 51 43 113l31 61h272zM1184 297l61 -147q22 -51 39.5 -78t44.5 -43v-29h-360q-33 28 -47 78l-91 221q-47 118 -94.5 157.5t-148.5 39.5h-133v-496h-322v1434h737q205 0 319 -104.5t114 -287.5
q0 -193 -109.5 -293t-316.5 -112v-94q65 -8 104 -19.5t77 -38t66.5 -71t59.5 -117.5zM455 774h342q87 0 136.5 50.5t49.5 142.5q0 188 -188 188h-340v-381z" />
    <glyph glyph-name="rcaron" unicode="&#x159;" horiz-adv-x="794" 
d="M246 1264l-215 313h272l31 -61q34 -70 43 -113h72q11 51 43 113l30 61h273l-215 -313h-334zM422 0h-311v1085h272v-10q-9 -49 -49 -155l98 -31q77 217 234 217q68 0 94 -16l22 -277q-54 21 -141 21q-69 0 -131.5 -40.5t-87.5 -117.5v-676z" />
    <glyph glyph-name="Sacute" unicode="&#x15a;" 
d="M631 1886h340l-197 -313h-227zM68 440l286 56q9 -128 99 -197.5t235 -69.5q116 0 182 45.5t66 126.5q0 83 -68 124t-243 69q-267 41 -389.5 144.5t-122.5 291.5q0 208 151 324t404 116q252 0 415.5 -118t178.5 -310l-299 -65q-17 116 -94 174.5t-205 58.5
q-112 0 -171 -41t-59 -112q0 -28 8 -49.5t21 -38t40.5 -30.5t53.5 -24t74 -20.5t88.5 -18t109.5 -18.5q220 -37 325.5 -142.5t105.5 -291.5q0 -144 -75.5 -249.5t-207.5 -158.5t-305 -53q-276 0 -434 129t-170 348z" />
    <glyph glyph-name="sacute" unicode="&#x15b;" horiz-adv-x="1140" 
d="M522 1577h340l-196 -313h-228zM51 303l256 90q47 -196 285 -196q85 0 131.5 28t46.5 82q0 21 -6.5 36.5t-22.5 27.5t-31 19.5t-45 14.5t-50 11t-60 11t-63 11q-65 13 -115.5 27.5t-107 41t-93.5 61t-61.5 88t-24.5 120.5q0 163 131 254.5t350 91.5q210 0 346 -84.5
t166 -228.5l-243 -80q-30 82 -103.5 122t-177.5 40q-162 0 -162 -96q0 -19 7 -34.5t24.5 -27t34 -19t49 -15.5t54.5 -12t66.5 -12t69.5 -13q70 -13 121.5 -27.5t103 -40t84 -59t52.5 -84.5t20 -117q0 -180 -132.5 -275.5t-379.5 -95.5q-461 0 -520 340z" />
    <glyph glyph-name="Scedilla" unicode="&#x15e;" 
d="M829 858q220 -37 325.5 -142.5t105.5 -291.5q0 -201 -141 -321t-376 -138q-13 -39 -53 -65l19 -25q31 14 63 14q83 0 133.5 -49.5t50.5 -128.5q0 -105 -84.5 -168t-214.5 -63q-146 0 -231 65l45 148q83 -58 184 -58q53 0 84 22.5t31 61.5q0 33 -21.5 52.5t-54.5 19.5
q-22 0 -59 -14l-100 47l40 143q-233 23 -364.5 149t-142.5 324l286 56q9 -128 99 -197.5t235 -69.5q116 0 182 45.5t66 126.5q0 83 -68 124t-243 69q-267 41 -389.5 144.5t-122.5 291.5q0 208 151 324t404 116q252 0 415.5 -118t178.5 -310l-299 -65q-17 116 -94 174.5
t-205 58.5q-112 0 -171 -41t-59 -112q0 -28 8 -49.5t21 -38t40.5 -30.5t53.5 -24t74 -20.5t88.5 -18t109.5 -18.5z" />
    <glyph glyph-name="scedilla" unicode="&#x15f;" horiz-adv-x="1140" 
d="M702 662q70 -13 121.5 -27.5t103 -40t84 -59t52.5 -84.5t20 -117q0 -170 -118 -265t-340 -104q-12 -37 -54 -65l19 -25q32 14 63 14q83 0 134 -49.5t51 -128.5q0 -105 -84.5 -168t-214.5 -63q-147 0 -232 65l45 148q83 -58 185 -58q53 0 83.5 22.5t30.5 61.5
q0 33 -21.5 52.5t-54.5 19.5q-22 0 -59 -14l-100 47l41 145q-354 39 -406 334l256 90q47 -196 285 -196q85 0 131.5 28t46.5 82q0 21 -6.5 36.5t-22.5 27.5t-31 19.5t-45 14.5t-50 11t-60 11t-63 11q-65 13 -115.5 27.5t-107 41t-93.5 61t-61.5 88t-24.5 120.5
q0 163 131 254.5t350 91.5q210 0 346 -84.5t166 -228.5l-243 -80q-30 82 -103.5 122t-177.5 40q-162 0 -162 -96q0 -19 7 -34.5t24.5 -27t34 -19t49 -15.5t54.5 -12t66.5 -12t69.5 -13z" />
    <glyph glyph-name="Scaron" unicode="&#x160;" 
d="M494 1573l-215 313h272l31 -61q34 -70 43 -113h71q11 51 43 113l31 61h272l-215 -313h-333zM68 440l286 56q9 -128 99 -197.5t235 -69.5q116 0 182 45.5t66 126.5q0 83 -68 124t-243 69q-267 41 -389.5 144.5t-122.5 291.5q0 208 151 324t404 116q252 0 415.5 -118
t178.5 -310l-299 -65q-17 116 -94 174.5t-205 58.5q-112 0 -171 -41t-59 -112q0 -28 8 -49.5t21 -38t40.5 -30.5t53.5 -24t74 -20.5t88.5 -18t109.5 -18.5q220 -37 325.5 -142.5t105.5 -291.5q0 -144 -75.5 -249.5t-207.5 -158.5t-305 -53q-276 0 -434 129t-170 348z" />
    <glyph glyph-name="scaron" unicode="&#x161;" horiz-adv-x="1140" 
d="M385 1264l-215 313h272l31 -61q34 -70 43 -113h72q11 51 43 113l31 61h272l-215 -313h-334zM51 303l256 90q47 -196 285 -196q85 0 131.5 28t46.5 82q0 21 -6.5 36.5t-22.5 27.5t-31 19.5t-45 14.5t-50 11t-60 11t-63 11q-65 13 -115.5 27.5t-107 41t-93.5 61t-61.5 88
t-24.5 120.5q0 163 131 254.5t350 91.5q210 0 346 -84.5t166 -228.5l-243 -80q-30 82 -103.5 122t-177.5 40q-162 0 -162 -96q0 -19 7 -34.5t24.5 -27t34 -19t49 -15.5t54.5 -12t66.5 -12t69.5 -13q70 -13 121.5 -27.5t103 -40t84 -59t52.5 -84.5t20 -117
q0 -180 -132.5 -275.5t-379.5 -95.5q-461 0 -520 340z" />
    <glyph glyph-name="uni0162" unicode="&#x162;" horiz-adv-x="1282" 
d="M803 0h-84q0 -58 -60 -100l19 -25q32 14 63 14q83 0 134 -49.5t51 -128.5q0 -105 -84.5 -168t-214.5 -63q-147 0 -232 65l45 148q83 -58 185 -58q53 0 83.5 22.5t30.5 61.5q0 33 -21 52.5t-54 19.5q-23 0 -60 -14l-100 47l49 176h-72v1149h-452v285h1226v-285h-452v-1149
z" />
    <glyph glyph-name="uni0163" unicode="&#x163;" horiz-adv-x="915" 
d="M692 -111q83 0 134 -49.5t51 -128.5q0 -105 -84.5 -168t-214.5 -63q-147 0 -232 65l45 148q83 -58 184 -58q53 0 84 22.5t31 61.5q0 33 -21.5 52.5t-54.5 19.5q-22 0 -59 -14l-100 47l45 162q-142 22 -203 114t-61 248v481h-211v256h211v269l311 57v-326h311v-256h-311
v-415q0 -82 26 -115t107 -33q77 0 141 31l-41 -291q-50 -16 -112 -22q-7 -47 -58 -84l19 -25q31 14 63 14z" />
    <glyph glyph-name="Tcaron" unicode="&#x164;" horiz-adv-x="1282" 
d="M1022 1884l-215 -313h-334l-215 313h272l31 -61q34 -70 43 -113h72q11 51 43 113l31 61h272zM29 1434h1226v-285h-452v-1149h-322v1149h-452v285z" />
    <glyph glyph-name="tcaron" unicode="&#x165;" horiz-adv-x="837" 
d="M1053 1409l-140 -233l-131 67l86 143q-49 13 -77.5 52t-28.5 92q0 71 48.5 113.5t119.5 42.5q74 0 119 -43t45 -113q0 -60 -41 -121zM590 -29q-192 0 -273 96.5t-81 274.5v487h-211v256h211v269l311 57v-326h311v-256h-311v-423q0 -82 26 -115t107 -33q69 0 141 31
l-41 -291q-94 -27 -190 -27z" />
    <glyph glyph-name="Tbar" unicode="&#x166;" horiz-adv-x="1337" 
d="M1282 1434v-285h-455v-318h289v-256h-289v-575h-319v575h-287v256h287v318h-453v285h1227z" />
    <glyph glyph-name="tbar" unicode="&#x167;" horiz-adv-x="915" 
d="M858 1085v-256h-311v-147h311l-37 -217h-274v-59q0 -82 26 -115t107 -33q69 0 141 31l-41 -291q-94 -27 -190 -27q-192 0 -273 96.5t-81 274.5v123h-211v217h211v147h-211v256h211v269l311 57v-326h311z" />
    <glyph glyph-name="Umacron" unicode="&#x16a;" horiz-adv-x="1454" 
d="M369 1589v217h716v-217h-716zM127 551v883h322v-859q0 -166 68 -246.5t210 -80.5q279 0 279 327v859h319v-883q0 -283 -155.5 -435.5t-442.5 -152.5q-286 0 -443 152.5t-157 435.5z" />
    <glyph glyph-name="umacron" unicode="&#x16b;" horiz-adv-x="1318" 
d="M297 1282v217h717v-217h-717zM1208 1085v-1085h-293v8q10 62 48 162l-97 33q-46 -115 -147.5 -177.5t-231.5 -62.5q-177 0 -282 116t-105 333v673h312v-618q0 -110 57.5 -168.5t163.5 -58.5q85 0 155 39t109 112v694h311z" />
    <glyph glyph-name="Uring" unicode="&#x16e;" horiz-adv-x="1454" 
d="M406 1808q0 126 90 199.5t231 73.5q147 0 234.5 -75t85.5 -198q1 -127 -88 -199.5t-232 -72.5q-147 0 -234 74t-87 198zM606 1808q0 -54 33 -83t88 -29q57 0 89 30.5t32 81.5q0 53 -33 83t-88 30q-56 0 -88.5 -30.5t-32.5 -82.5zM127 551v883h322v-859q0 -166 68 -246.5
t210 -80.5q279 0 279 327v859h319v-883q0 -283 -155.5 -435.5t-442.5 -152.5q-286 0 -443 152.5t-157 435.5z" />
    <glyph glyph-name="uring" unicode="&#x16f;" horiz-adv-x="1318" 
d="M334 1501q0 126 90 199.5t231 73.5q147 0 234.5 -75t85.5 -198q1 -127 -88 -199.5t-232 -72.5q-147 0 -234 74t-87 198zM535 1501q0 -54 32.5 -83t87.5 -29q57 0 89 30.5t32 81.5q0 53 -33 83t-88 30q-56 0 -88 -30.5t-32 -82.5zM1208 1085v-1085h-293v8q10 62 48 162
l-97 33q-46 -115 -147.5 -177.5t-231.5 -62.5q-177 0 -282 116t-105 333v673h312v-618q0 -110 57.5 -168.5t163.5 -58.5q85 0 155 39t109 112v694h311z" />
    <glyph glyph-name="Uhungarumlaut" unicode="&#x170;" horiz-adv-x="1454" 
d="M504 1884h321l-176 -313h-227zM985 1884h322l-258 -313h-244zM127 551v883h322v-859q0 -166 68 -246.5t210 -80.5q279 0 279 327v859h319v-883q0 -283 -155.5 -435.5t-442.5 -152.5q-286 0 -443 152.5t-157 435.5z" />
    <glyph glyph-name="uhungarumlaut" unicode="&#x171;" horiz-adv-x="1318" 
d="M432 1577h322l-176 -313h-228zM913 1577h322l-258 -313h-244zM1208 1085v-1085h-293v8q10 62 48 162l-97 33q-46 -115 -147.5 -177.5t-231.5 -62.5q-177 0 -282 116t-105 333v673h312v-618q0 -110 57.5 -168.5t163.5 -58.5q85 0 155 39t109 112v694h311z" />
    <glyph glyph-name="Uogonek" unicode="&#x172;" horiz-adv-x="1454" 
d="M1006 575v859h319v-883q0 -260 -132 -410.5t-376 -173.5q-47 -41 -47 -98q0 -47 33.5 -74.5t91.5 -27.5q84 0 149 51l60 -168q-40 -31 -107 -50.5t-137 -19.5q-130 0 -207.5 68t-77.5 174q0 82 54 145q-240 26 -371 177t-131 407v883h322v-859q0 -166 68 -246.5
t210 -80.5q279 0 279 327z" />
    <glyph glyph-name="uogonek" unicode="&#x173;" horiz-adv-x="1318" 
d="M1253 -203l60 -168q-40 -31 -107 -50t-137 -19q-130 0 -207.5 67.5t-77.5 173.5q0 65 34.5 120t96.5 91q9 56 48 158l-97 33q-46 -115 -147.5 -177.5t-231.5 -62.5q-177 0 -282 116t-105 333v673h312v-618q0 -110 57.5 -168.5t163.5 -58.5q85 0 155 39t109 112v694h311
v-1085h-43q-88 -9 -137 -51t-49 -101q0 -47 33.5 -74.5t91.5 -27.5q84 0 149 51z" />
    <glyph glyph-name="Wcircumflex" unicode="&#x174;" horiz-adv-x="1994" 
d="M887 1571h-273l215 313h334l215 -313h-272l-31 63q-33 64 -43 111h-71q-10 -47 -43 -111zM344 0l-326 1434h332l111 -562q21 -110 25 -262t-1 -227h121q16 236 86 473l176 578h258l181 -590q63 -206 86 -461h118q-5 79 -2 228t23 251l115 572h329l-323 -1434h-359
l-174 575q-82 283 -82 504h-84q0 -211 -84 -506l-172 -573h-354z" />
    <glyph glyph-name="wcircumflex" unicode="&#x175;" horiz-adv-x="1726" 
d="M752 1264h-273l215 313h334l215 -313h-272l-31 63q-33 64 -43 111h-72q-10 -47 -43 -111zM276 0l-274 1085h313l62 -290q39 -195 39 -482h100q10 113 36 217t93 310l80 245h274l82 -245q69 -213 95 -314t34 -213h101q3 317 39 482l59 290h315l-272 -1085h-352l-72 217
q-61 194 -82.5 318.5t-27.5 289.5h-109q-6 -162 -29 -293t-82 -315l-69 -217h-353z" />
    <glyph glyph-name="Ycircumflex" unicode="&#x176;" horiz-adv-x="1415" 
d="M598 1571h-272l215 313h333l216 -313h-273l-31 63q-33 64 -43 111h-71q-10 -47 -43 -111zM547 545l-545 889h373l114 -217q2 -4 21 -41.5t25 -50.5t24 -50.5t26 -57.5t21.5 -55.5t20.5 -60.5t13.5 -55.5t8.5 -57.5h123q6 68 33 150t51.5 135t71.5 146l112 215h373
l-543 -889v-545h-323v545z" />
    <glyph glyph-name="ycircumflex" unicode="&#x177;" horiz-adv-x="1259" 
d="M518 1264h-272l215 313h334l215 -313h-273l-30 63q-33 64 -43 111h-72q-10 -47 -43 -111zM246 -498q-109 0 -178 35v277q60 -25 139 -25q160 0 215 150l39 96l-463 1050h348l154 -407q65 -180 78 -342h108q13 167 78 344l149 405h347l-543 -1237q-20 -48 -41 -87
t-62 -90.5t-88 -85.5t-120.5 -58.5t-159.5 -24.5z" />
    <glyph glyph-name="Ydieresis" unicode="&#x178;" horiz-adv-x="1415" 
d="M453 1540q-91 0 -145 46.5t-54 137.5q0 90 54 136.5t145 46.5t143.5 -46.5t52.5 -136.5q0 -91 -52.5 -137.5t-143.5 -46.5zM963 1540q-91 0 -144 46.5t-53 137.5q0 90 53 136.5t144 46.5t144.5 -46.5t53.5 -136.5q0 -91 -53.5 -137.5t-144.5 -46.5zM547 545l-545 889h373
l114 -217q2 -4 21 -41.5t25 -50.5t24 -50.5t26 -57.5t21.5 -55.5t20.5 -60.5t13.5 -55.5t8.5 -57.5h123q6 68 33 150t51.5 135t71.5 146l112 215h373l-543 -889v-545h-323v545z" />
    <glyph glyph-name="Zacute" unicode="&#x179;" 
d="M637 1884h340l-197 -313h-227zM1253 0h-1173v254l772 954l-78 82q-66 -72 -138.5 -106.5t-189.5 -34.5h-346v285h1127v-254l-776 -955l77 -82q41 46 77.5 73t105 48t159.5 21h383v-285z" />
    <glyph glyph-name="zacute" unicode="&#x17a;" horiz-adv-x="1083" 
d="M516 1577h340l-197 -313h-227zM1030 0h-967v252l611 610l-74 82q-66 -65 -121 -90t-151 -25h-250v256h936v-251l-611 -611l72 -82q63 65 121 90t154 25h280v-256z" />
    <glyph glyph-name="Zdotaccent" unicode="&#x17b;" 
d="M666 1540q-91 0 -144 46.5t-53 137.5q0 90 53 136.5t144 46.5t144.5 -46.5t53.5 -136.5q0 -91 -53.5 -137.5t-144.5 -46.5zM1253 0h-1173v254l772 954l-78 82q-66 -72 -138.5 -106.5t-189.5 -34.5h-346v285h1127v-254l-776 -955l77 -82q41 46 77.5 73t105 48t159.5 21
h383v-285z" />
    <glyph glyph-name="zdotaccent" unicode="&#x17c;" horiz-adv-x="1083" 
d="M547 1233q-91 0 -144 46.5t-53 137.5q0 90 53 136t144 46t144.5 -46t53.5 -136q0 -91 -53.5 -137.5t-144.5 -46.5zM1030 0h-967v252l611 610l-74 82q-66 -65 -121 -90t-151 -25h-250v256h936v-251l-611 -611l72 -82q63 65 121 90t154 25h280v-256z" />
    <glyph glyph-name="Zcaron" unicode="&#x17d;" 
d="M500 1571l-215 313h272l31 -61q34 -70 43 -113h71q11 51 43 113l31 61h273l-215 -313h-334zM1253 0h-1173v254l772 954l-78 82q-66 -72 -138.5 -106.5t-189.5 -34.5h-346v285h1127v-254l-776 -955l77 -82q41 46 77.5 73t105 48t159.5 21h383v-285z" />
    <glyph glyph-name="zcaron" unicode="&#x17e;" horiz-adv-x="1083" 
d="M379 1264l-215 313h272l31 -61q34 -70 43 -113h72q11 51 43 113l30 61h273l-215 -313h-334zM1030 0h-967v252l611 610l-74 82q-66 -65 -121 -90t-151 -25h-250v256h936v-251l-611 -611l72 -82q63 65 121 90t154 25h280v-256z" />
    <glyph glyph-name="uni0218" unicode="&#x218;" 
d="M68 440l286 56q9 -128 99 -197.5t235 -69.5q116 0 182 45.5t66 126.5q0 83 -68 124t-243 69q-267 41 -389.5 144.5t-122.5 291.5q0 208 151 324t404 116q252 0 415.5 -118t178.5 -310l-299 -65q-17 116 -94 174.5t-205 58.5q-112 0 -171 -41t-59 -112q0 -28 8 -49.5
t21 -38t40.5 -30.5t53.5 -24t74 -20.5t88.5 -18t109.5 -18.5q220 -37 325.5 -142.5t105.5 -291.5q0 -144 -75.5 -249.5t-207.5 -158.5t-305 -53q-276 0 -434 129t-170 348zM500 -143h340l-199 -316h-225z" />
    <glyph glyph-name="uni0219" unicode="&#x219;" horiz-adv-x="1140" 
d="M51 303l256 90q47 -196 285 -196q85 0 131.5 28t46.5 82q0 21 -6.5 36.5t-22.5 27.5t-31 19.5t-45 14.5t-50 11t-60 11t-63 11q-65 13 -115.5 27.5t-107 41t-93.5 61t-61.5 88t-24.5 120.5q0 163 131 254.5t350 91.5q210 0 346 -84.5t166 -228.5l-243 -80
q-30 82 -103.5 122t-177.5 40q-162 0 -162 -96q0 -19 7 -34.5t24.5 -27t34 -19t49 -15.5t54.5 -12t66.5 -12t69.5 -13q70 -13 121.5 -27.5t103 -40t84 -59t52.5 -84.5t20 -117q0 -180 -132.5 -275.5t-379.5 -95.5q-461 0 -520 340zM381 -143h340l-199 -316h-225z" />
    <glyph glyph-name="uni021A" unicode="&#x21a;" horiz-adv-x="1282" 
d="M29 1149v285h1226v-285h-452v-1149h-322v1149h-452zM610 -459h-225l84 316h340z" />
    <glyph glyph-name="uni021B" unicode="&#x21b;" horiz-adv-x="915" 
d="M590 -20q-192 0 -273 95t-81 273v481h-211v256h211v269l311 57v-326h311v-256h-311v-415q0 -82 26 -115t107 -33q77 0 141 31l-41 -291q-80 -26 -190 -26zM420 -143h340l-199 -316h-225z" />
    <glyph glyph-name="uni0237" unicode="&#x237;" horiz-adv-x="540" 
d="M426 1085v-1126q0 -224 -113 -340.5t-338 -116.5q-67 0 -108 13l-43 256q56 -9 80 -9q116 0 160.5 52t44.5 172v1099h317z" />
    <glyph glyph-name="circumflex" unicode="&#x2c6;" horiz-adv-x="931" 
d="M356 1264h-272l215 313h334l215 -313h-273l-30 63q-33 64 -43 111h-72q-10 -47 -43 -111z" />
    <glyph glyph-name="caron" unicode="&#x2c7;" horiz-adv-x="931" 
d="M299 1264l-215 313h272l31 -61q34 -70 43 -113h72q11 51 43 113l30 61h273l-215 -313h-334z" />
    <glyph glyph-name="breve" unicode="&#x2d8;" horiz-adv-x="899" 
d="M72 1577h250q0 -71 34.5 -106t94.5 -35q64 0 95.5 37t31.5 104h249q2 -148 -102 -240t-274 -92t-274.5 92t-104.5 240z" />
    <glyph glyph-name="dotaccent" unicode="&#x2d9;" horiz-adv-x="514" 
d="M256 1233q-91 0 -144 46.5t-53 137.5q0 90 53 136t144 46t145 -46.5t54 -135.5q0 -91 -54 -137.5t-145 -46.5z" />
    <glyph glyph-name="ring" unicode="&#x2da;" horiz-adv-x="749" 
d="M53 1501q0 126 90.5 199.5t231.5 73.5q147 0 234 -74.5t85 -198.5q1 -128 -87.5 -200t-231.5 -72q-147 0 -234.5 74.5t-87.5 197.5zM254 1501q0 -54 33 -83t88 -29q57 0 89 30.5t32 81.5q0 53 -33 83t-88 30q-56 0 -88.5 -30.5t-32.5 -82.5z" />
    <glyph glyph-name="ogonek" unicode="&#x2db;" horiz-adv-x="749" 
d="M385 55l111 -20v-35q-88 -9 -137.5 -51t-49.5 -101q0 -47 33.5 -74.5t91.5 -27.5q85 0 150 51l59 -168q-40 -31 -107 -50t-137 -19q-130 0 -207 67.5t-77 173.5q0 99 74.5 169t195.5 85z" />
    <glyph glyph-name="tilde" unicode="&#x2dc;" horiz-adv-x="804" 
d="M233 1231h-170q-20 180 30.5 274t152.5 94q41 0 82 -17.5t66.5 -36t64.5 -52.5q43 -43 73 -43q27 0 35 34t2 113h170q20 -180 -30 -273t-152 -93q-97 0 -213 104q-43 43 -74 43q-27 0 -35 -34t-2 -113z" />
    <glyph glyph-name="hungarumlaut" unicode="&#x2dd;" horiz-adv-x="1130" 
d="M205 1577h321l-176 -313h-227zM686 1577h322l-258 -313h-244z" />
    <glyph glyph-name="gravecomb" unicode="&#x300;" horiz-adv-x="0" 
d="M-297 1264l-199 313h340l84 -313h-225z" />
    <glyph glyph-name="acutecomb" unicode="&#x301;" horiz-adv-x="0" 
d="M-410 1577h340l-196 -313h-228z" />
    <glyph glyph-name="uni0302" unicode="&#x302;" horiz-adv-x="0" 
d="M-575 1264h-273l215 313h334l215 -313h-272l-31 63q-33 64 -43 111h-72q-10 -47 -43 -111z" />
    <glyph glyph-name="tildecomb" unicode="&#x303;" horiz-adv-x="0" 
d="M-571 1231h-170q-20 181 30 274.5t152 93.5q41 0 82 -17.5t66.5 -36t64.5 -52.5q43 -43 74 -43q27 0 34.5 34t1.5 113h170q20 -180 -30 -273t-152 -93q-97 0 -213 104q-43 43 -74 43q-27 0 -34.5 -34t-1.5 -113z" />
    <glyph glyph-name="uni0304" unicode="&#x304;" horiz-adv-x="0" 
d="M-864 1282v217h717v-217h-717z" />
    <glyph glyph-name="uni0306" unicode="&#x306;" horiz-adv-x="0" 
d="M-827 1577h249q0 -71 34.5 -106t94.5 -35q64 0 95.5 37t31.5 104h250q2 -148 -102.5 -240t-274.5 -92t-274 92t-104 240z" />
    <glyph glyph-name="uni0307" unicode="&#x307;" horiz-adv-x="0" 
d="M-258 1233q-91 0 -144 46.5t-53 137.5q0 90 53 136t144 46t145 -46.5t54 -135.5q0 -91 -54 -137.5t-145 -46.5z" />
    <glyph glyph-name="uni0308" unicode="&#x308;" horiz-adv-x="0" 
d="M-776 1233q-91 0 -145 46.5t-54 137.5q0 89 54 135.5t145 46.5t143.5 -46t52.5 -136q0 -91 -52.5 -137.5t-143.5 -46.5zM-266 1233q-91 0 -144 46.5t-53 137.5q0 90 53 136t144 46t144.5 -46t53.5 -136q0 -91 -53.5 -137.5t-144.5 -46.5z" />
    <glyph glyph-name="uni030A" unicode="&#x30a;" horiz-adv-x="0" 
d="M-696 1501q0 126 90 199.5t231 73.5q147 0 234.5 -75t85.5 -198q1 -127 -88 -199.5t-232 -72.5q-147 0 -234 74t-87 198zM-496 1501q0 -54 33 -83t88 -29q57 0 89 30.5t32 81.5q0 53 -33 83t-88 30q-56 0 -88.5 -30.5t-32.5 -82.5z" />
    <glyph glyph-name="uni030B" unicode="&#x30b;" horiz-adv-x="0" 
d="M-926 1577h322l-176 -313h-228zM-444 1577h321l-258 -313h-244z" />
    <glyph glyph-name="uni030C" unicode="&#x30c;" horiz-adv-x="0" 
d="M-633 1264l-215 313h273l30 -61q34 -70 43 -113h72q11 51 43 113l31 61h272l-215 -313h-334z" />
    <glyph glyph-name="uni0312" unicode="&#x312;" horiz-adv-x="0" 
d="M-416 1542l158 264l149 -75l-96 -162q55 -15 88 -59.5t33 -104.5q0 -80 -55.5 -127t-136.5 -47q-85 0 -136 48t-51 126q0 63 47 137z" />
    <glyph glyph-name="uni0326" unicode="&#x326;" horiz-adv-x="0" 
d="M-498 -143h340l-198 -316h-226z" />
    <glyph glyph-name="uni0327" unicode="&#x327;" horiz-adv-x="0" 
d="M-362 -100l18 -25q32 14 63 14q83 0 134 -49.5t51 -128.5q0 -105 -84.5 -168t-214.5 -63q-147 0 -232 65l45 148q83 -58 185 -58q53 0 83.5 22.5t30.5 61.5q0 33 -21 52.5t-54 19.5q-23 0 -60 -14l-100 47l53 190l162 2v-16q0 -58 -59 -100z" />
    <glyph glyph-name="uni0328" unicode="&#x328;" horiz-adv-x="0" 
d="M-365 55l111 -20v-35q-88 -9 -137 -51t-49 -101q0 -47 33.5 -74.5t91.5 -27.5q84 0 149 51l60 -168q-40 -31 -107 -50t-137 -19q-130 0 -207.5 67.5t-77.5 173.5q0 99 74.5 169t195.5 85z" />
    <glyph glyph-name="Wgrave" unicode="&#x1e80;" horiz-adv-x="1994" 
d="M885 1571l-199 313h340l84 -313h-225zM344 0l-326 1434h332l111 -562q21 -110 25 -262t-1 -227h121q16 236 86 473l176 578h258l181 -590q63 -206 86 -461h118q-5 79 -2 228t23 251l115 572h329l-323 -1434h-359l-174 575q-82 283 -82 504h-84q0 -211 -84 -506l-172 -573
h-354z" />
    <glyph glyph-name="wgrave" unicode="&#x1e81;" horiz-adv-x="1726" 
d="M750 1264l-199 313h340l84 -313h-225zM276 0l-274 1085h313l62 -290q39 -195 39 -482h100q10 113 36 217t93 310l80 245h274l82 -245q69 -213 95 -314t34 -213h101q3 317 39 482l59 290h315l-272 -1085h-352l-72 217q-61 194 -82.5 318.5t-27.5 289.5h-109
q-6 -162 -29 -293t-82 -315l-69 -217h-353z" />
    <glyph glyph-name="Wacute" unicode="&#x1e82;" horiz-adv-x="1994" 
d="M967 1884h340l-197 -313h-227zM344 0l-326 1434h332l111 -562q21 -110 25 -262t-1 -227h121q16 236 86 473l176 578h258l181 -590q63 -206 86 -461h118q-5 79 -2 228t23 251l115 572h329l-323 -1434h-359l-174 575q-82 283 -82 504h-84q0 -211 -84 -506l-172 -573h-354z
" />
    <glyph glyph-name="wacute" unicode="&#x1e83;" horiz-adv-x="1726" 
d="M831 1577h340l-196 -313h-227zM276 0l-274 1085h313l62 -290q39 -195 39 -482h100q10 113 36 217t93 310l80 245h274l82 -245q69 -213 95 -314t34 -213h101q3 317 39 482l59 290h315l-272 -1085h-352l-72 217q-61 194 -82.5 318.5t-27.5 289.5h-109q-6 -162 -29 -293
t-82 -315l-69 -217h-353z" />
    <glyph glyph-name="Wdieresis" unicode="&#x1e84;" horiz-adv-x="1994" 
d="M741 1540q-91 0 -144.5 46.5t-53.5 137.5q0 90 53.5 136.5t144.5 46.5t144 -46.5t53 -136.5q0 -91 -53 -137.5t-144 -46.5zM1251 1540q-91 0 -143.5 46.5t-52.5 137.5q0 90 52.5 136.5t143.5 46.5t145 -46.5t54 -136.5q0 -91 -54 -137.5t-145 -46.5zM344 0l-326 1434h332
l111 -562q21 -110 25 -262t-1 -227h121q16 236 86 473l176 578h258l181 -590q63 -206 86 -461h118q-5 79 -2 228t23 251l115 572h329l-323 -1434h-359l-174 575q-82 283 -82 504h-84q0 -211 -84 -506l-172 -573h-354z" />
    <glyph glyph-name="wdieresis" unicode="&#x1e85;" horiz-adv-x="1726" 
d="M606 1233q-91 0 -144.5 46.5t-53.5 137.5q0 90 53.5 136t144.5 46t144 -46t53 -136q0 -91 -53 -137.5t-144 -46.5zM1116 1233q-91 0 -143.5 46.5t-52.5 137.5q0 90 52.5 136t143.5 46t145 -46.5t54 -135.5q0 -91 -54 -137.5t-145 -46.5zM276 0l-274 1085h313l62 -290
q39 -195 39 -482h100q10 113 36 217t93 310l80 245h274l82 -245q69 -213 95 -314t34 -213h101q3 317 39 482l59 290h315l-272 -1085h-352l-72 217q-61 194 -82.5 318.5t-27.5 289.5h-109q-6 -162 -29 -293t-82 -315l-69 -217h-353z" />
    <glyph glyph-name="uni1E9E" unicode="&#x1e9e;" horiz-adv-x="1472" 
d="M862 -37q-159 0 -229 39v274q55 -34 170 -34q134 0 204 56t70 153q0 95 -63.5 148.5t-171.5 53.5q-81 0 -113 -14v182l281 295v35h-551v-1151h-326v1434h1180v-369l-215 -225v-62q140 -22 223.5 -127.5t83.5 -255.5q0 -197 -150 -314.5t-393 -117.5z" />
    <glyph glyph-name="Ygrave" unicode="&#x1ef2;" horiz-adv-x="1415" 
d="M596 1571l-199 313h340l84 -313h-225zM547 545l-545 889h373l114 -217q2 -4 21 -41.5t25 -50.5t24 -50.5t26 -57.5t21.5 -55.5t20.5 -60.5t13.5 -55.5t8.5 -57.5h123q6 68 33 150t51.5 135t71.5 146l112 215h373l-543 -889v-545h-323v545z" />
    <glyph glyph-name="ygrave" unicode="&#x1ef3;" horiz-adv-x="1259" 
d="M516 1264l-199 313h340l84 -313h-225zM246 -498q-109 0 -178 35v277q60 -25 139 -25q160 0 215 150l39 96l-463 1050h348l154 -407q65 -180 78 -342h108q13 167 78 344l149 405h347l-543 -1237q-20 -48 -41 -87t-62 -90.5t-88 -85.5t-120.5 -58.5t-159.5 -24.5z" />
    <glyph glyph-name="endash" unicode="&#x2013;" horiz-adv-x="1153" 
d="M76 526v269h1001v-269h-1001z" />
    <glyph glyph-name="emdash" unicode="&#x2014;" horiz-adv-x="1763" 
d="M88 526v269h1585v-269h-1585z" />
    <glyph glyph-name="quoteleft" unicode="&#x2018;" horiz-adv-x="581" 
d="M158 1143l198 330l144 -72l-133 -225q64 -12 100.5 -57.5t36.5 -119.5q0 -91 -53 -137.5t-144 -46.5t-144.5 46.5t-53.5 137.5q0 64 49 144z" />
    <glyph glyph-name="quoteright" unicode="&#x2019;" horiz-adv-x="579" 
d="M422 1145l-199 -330l-143 72l133 225q-65 12 -101 57.5t-36 120.5q0 90 52.5 136.5t143.5 46.5t145 -46.5t54 -136.5q0 -65 -49 -145z" />
    <glyph glyph-name="quotesinglbase" unicode="&#x201a;" horiz-adv-x="606" 
d="M422 18l-199 -329l-143 71l133 226q-64 12 -100.5 57t-36.5 119q0 91 52.5 137.5t143.5 46.5t145 -46.5t54 -137.5q0 -64 -49 -144z" />
    <glyph glyph-name="quotedblleft" unicode="&#x201c;" horiz-adv-x="1085" 
d="M125 1143l201 330l143 -72l-135 -225q65 -12 102 -58t37 -119q0 -91 -54 -137.5t-145 -46.5t-143.5 46.5t-52.5 137.5q0 67 47 144zM637 1143l201 330l143 -72l-135 -225q65 -12 102 -58t37 -119q0 -91 -54 -137.5t-145 -46.5t-143.5 46.5t-52.5 137.5q0 67 47 144z" />
    <glyph glyph-name="quotedblright" unicode="&#x201d;" horiz-adv-x="1091" 
d="M422 1145l-199 -330l-143 72l133 225q-65 12 -101 57.5t-36 120.5q0 90 52.5 136.5t143.5 46.5t145 -46.5t54 -136.5q0 -65 -49 -145zM934 1145l-199 -330l-143 72l133 225q-65 12 -101 57.5t-36 120.5q0 90 52.5 136.5t143.5 46.5t145 -46.5t54 -136.5q0 -65 -49 -145z
" />
    <glyph glyph-name="quotedblbase" unicode="&#x201e;" horiz-adv-x="1089" 
d="M424 18l-199 -329l-143 71l133 226q-65 12 -102 57.5t-37 118.5q0 91 53.5 137.5t144.5 46.5t145 -46.5t54 -137.5q0 -64 -49 -144zM930 18l-199 -329l-143 71l133 226q-64 12 -100.5 57t-36.5 119q0 91 52.5 137.5t143.5 46.5t145 -46.5t54 -137.5q0 -64 -49 -144z" />
    <glyph glyph-name="dagger" unicode="&#x2020;" horiz-adv-x="878" 
d="M557 1176h236v-222h-236v-669h-235v669h-236v222h236v258h235v-258z" />
    <glyph glyph-name="daggerdbl" unicode="&#x2021;" horiz-adv-x="878" 
d="M793 1176v-222h-236v-192h236v-223h-236v-254h-235v254h-236v223h236v192h-236v222h236v258h235v-258h236z" />
    <glyph glyph-name="bullet" unicode="&#x2022;" horiz-adv-x="880" 
d="M137 530q0 137 85 220.5t218 83.5q137 0 219 -83t82 -221q0 -139 -82 -221t-219 -82q-135 0 -219 82.5t-84 220.5z" />
    <glyph glyph-name="ellipsis" unicode="&#x2026;" horiz-adv-x="1683" 
d="M313 -20q-91 0 -143.5 46t-52.5 136q0 91 52.5 137.5t143.5 46.5q92 0 145.5 -46.5t53.5 -137.5q0 -90 -53.5 -136t-145.5 -46zM842 -20q-91 0 -145 46.5t-54 135.5q0 91 54 137.5t145 46.5t143.5 -46.5t52.5 -137.5q0 -90 -52.5 -136t-143.5 -46zM1368 -20
q-91 0 -144 46t-53 136q0 91 53 137.5t144 46.5t145 -46.5t54 -137.5q0 -89 -54 -135.5t-145 -46.5z" />
    <glyph glyph-name="perthousand" unicode="&#x2030;" horiz-adv-x="2717" 
d="M1247 -16q-190 0 -307 111t-117 290q0 60 23 154l-70 12q-42 -212 -141 -338l-166 -213h-264v23l241 313q71 89 169 176t188 145l-49 60q-41 -41 -101 -63.5t-118 -22.5q-194 0 -301 114.5t-107 309.5q0 203 114.5 315.5t307.5 112.5q190 0 307 -112t117 -292
q0 -57 -23 -151l70 -13q41 206 141 338l166 211h264v-22l-241 -312q-71 -91 -169 -178t-188 -143l49 -61q42 42 102.5 65t119.5 23q192 0 298.5 -115.5t106.5 -310.5q0 -202 -114 -314t-308 -112zM549 829q164 0 164 224q0 227 -164 227t-164 -227q0 -224 164 -224z
M2175 -16q-85 0 -159 24.5t-134.5 74.5t-95.5 134.5t-35 194.5q0 109 35 192.5t95.5 133t134.5 74t159 24.5t159.5 -25t135 -74.5t95 -133t34.5 -191.5q0 -111 -35 -195.5t-96 -134t-135 -74t-158 -24.5zM1247 184q164 0 164 228q0 120 -42.5 171.5t-121.5 51.5
q-80 0 -122 -52.5t-42 -170.5q0 -228 164 -228zM2175 184q164 0 164 228q0 120 -42 171.5t-122 51.5t-122 -52.5t-42 -170.5q0 -228 164 -228z" />
    <glyph glyph-name="guilsinglleft" unicode="&#x2039;" horiz-adv-x="686" 
d="M362 580l261 -482h-301l-263 482l263 481h301z" />
    <glyph glyph-name="guilsinglright" unicode="&#x203a;" horiz-adv-x="688" 
d="M371 98h-303l260 482l-260 481h303l262 -481z" />
    <glyph glyph-name="fraction" unicode="&#x2044;" horiz-adv-x="313" 
d="M-489 0l1077 1434h215l-1077 -1434h-215z" />
    <glyph glyph-name="uni2070" unicode="&#x2070;" horiz-adv-x="966" 
d="M481 598q-190 0 -295.5 132t-105.5 353q0 230 109 359t292 129q191 0 298.5 -132.5t107.5 -355.5q0 -229 -110 -357t-296 -128zM481 793q187 0 187 290q0 293 -187 293q-184 0 -184 -293q0 -290 184 -290z" />
    <glyph glyph-name="uni2074" unicode="&#x2074;" horiz-adv-x="983" 
d="M766 614h-219v179h-500v174l471 579h248v-575h152v-178h-152v-179zM561 1370l-319 -407l41 -43q27 24 77.5 37.5t106.5 13.5h80v129q0 73 18.5 122.5t59.5 90.5z" />
    <glyph glyph-name="uni2075" unicode="&#x2075;" horiz-adv-x="952" 
d="M72 887l196 47q10 -83 66.5 -123.5t144.5 -40.5t134 43t46 117q0 75 -45.5 116t-130.5 41q-59 0 -111.5 -21.5t-86.5 -59.5l-172 49l61 491h617v-178h-435l-6 -47q-9 -66 -80 -137l62 -47q34 54 95.5 82t131.5 28q147 0 233.5 -87t86.5 -232q0 -160 -109 -250t-289 -90
q-173 0 -285 83t-124 216z" />
    <glyph glyph-name="uni2076" unicode="&#x2076;" horiz-adv-x="983" 
d="M506 588q-207 0 -316.5 130.5t-109.5 360.5t121.5 361t322.5 131q142 0 244 -68.5t125 -177.5l-219 -45q-18 52 -60.5 80.5t-97.5 28.5q-97 0 -156.5 -73t-60.5 -222l53 -11q27 66 94.5 102t153.5 36q139 0 222 -79.5t83 -219.5q0 -151 -107 -242.5t-292 -91.5zM512 770
q79 0 126.5 43t47.5 115q0 68 -44.5 106.5t-123.5 38.5q-65 0 -119.5 -26.5t-87.5 -71.5q3 -96 56.5 -150.5t144.5 -54.5z" />
    <glyph glyph-name="uni2077" unicode="&#x2077;" horiz-adv-x="796" 
d="M211 1366h-164v180h715v-164l-367 -768h-250v11l269 540q39 78 78.5 131t101.5 109l-51 70q-56 -55 -132.5 -82t-199.5 -27z" />
    <glyph glyph-name="uni2078" unicode="&#x2078;" horiz-adv-x="995" 
d="M76 864q0 82 53.5 137t144.5 70v59q-163 36 -163 185q0 116 106 186t281 70q176 0 281.5 -70.5t105.5 -185.5q0 -151 -166 -185v-59q92 -15 146.5 -70t54.5 -137q0 -133 -112.5 -204.5t-309.5 -71.5t-309.5 71.5t-112.5 204.5zM330 1282q0 -52 44 -84.5t124 -32.5
t124 32.5t44 84.5q0 56 -44 85.5t-124 29.5t-124 -29.5t-44 -85.5zM295 903q0 -63 51 -99t152 -36t151.5 35.5t50.5 99.5q0 62 -51.5 98.5t-150.5 36.5t-151 -36.5t-52 -98.5z" />
    <glyph glyph-name="uni2079" unicode="&#x2079;" horiz-adv-x="985" 
d="M479 1571q208 0 316 -131t108 -361q0 -229 -120.5 -360t-321.5 -131q-143 0 -245 69t-124 177l219 47q19 -52 61.5 -81.5t96.5 -29.5q99 0 157.5 74t59.5 221l-53 12q-26 -64 -93.5 -101.5t-156.5 -37.5q-139 0 -221 79t-82 222q0 150 107 241t292 91zM473 1389
q-79 0 -127.5 -42.5t-48.5 -113.5q0 -68 44.5 -107t125.5 -39q64 0 119 26.5t86 72.5q-3 97 -56 150t-143 53z" />
    <glyph glyph-name="uni2080" unicode="&#x2080;" horiz-adv-x="966" 
d="M481 -133q-190 0 -295.5 132t-105.5 353q0 230 109 359t292 129q191 0 298.5 -132.5t107.5 -355.5q0 -229 -110 -357t-296 -128zM481 61q187 0 187 291q0 293 -187 293q-184 0 -184 -293q0 -291 184 -291z" />
    <glyph glyph-name="uni2081" unicode="&#x2081;" horiz-adv-x="833" 
d="M559 -113h-219v410q0 83 20 144.5t70 111.5l-49 51q-117 -117 -270 -131v186q98 17 180.5 61t122.5 99h145v-932z" />
    <glyph glyph-name="uni2082" unicode="&#x2082;" horiz-adv-x="880" 
d="M805 -113h-731v168l379 271q71 52 98 97.5t27 94.5q0 68 -37.5 106t-98.5 38q-74 0 -115.5 -46t-41.5 -135l-207 21q0 157 95.5 249.5t272.5 92.5q155 0 252 -86.5t97 -225.5q0 -106 -51.5 -185t-190.5 -173q-81 -57 -205 -121l31 -67q67 27 99 39t107 28.5t144 16.5h76
v-183z" />
    <glyph glyph-name="uni2083" unicode="&#x2083;" horiz-adv-x="927" 
d="M465 -133q-186 0 -285 80t-110 229l194 47q19 -174 205 -174q79 0 122.5 32.5t43.5 94.5q0 115 -160 115h-108v155h94q151 0 151 111q0 55 -37 84t-106 29q-82 0 -129 -43.5t-55 -118.5l-197 43q10 137 119.5 217t267.5 80q169 0 261.5 -69t92.5 -181q0 -78 -47 -127.5
t-129 -64.5v-64q91 -6 146 -61t55 -138q0 -127 -103.5 -201.5t-285.5 -74.5z" />
    <glyph glyph-name="uni2084" unicode="&#x2084;" horiz-adv-x="983" 
d="M766 -113h-219v179h-500v174l471 579h248v-575h152v-178h-152v-179zM561 643l-319 -407l41 -43q27 24 77.5 37.5t106.5 13.5h80v129q0 73 18.5 122.5t59.5 90.5z" />
    <glyph glyph-name="uni2085" unicode="&#x2085;" horiz-adv-x="952" 
d="M72 164l196 49q10 -83 66.5 -123.5t144.5 -40.5t134 43t46 117q0 75 -45.5 115.5t-130.5 40.5q-59 0 -112 -21.5t-86 -60.5l-172 51l61 491h617v-180h-435l-6 -43q-17 -80 -80 -139l62 -49q34 55 95 82.5t132 27.5q147 0 233.5 -87t86.5 -230q0 -160 -109 -250t-289 -90
q-173 0 -285 82.5t-124 214.5z" />
    <glyph glyph-name="uni2086" unicode="&#x2086;" horiz-adv-x="983" 
d="M506 -133q-207 0 -316.5 130.5t-109.5 360.5t121.5 360t322.5 130q142 0 244 -67.5t125 -176.5l-219 -45q-19 50 -61 78.5t-97 28.5q-97 0 -156.5 -72t-60.5 -223l53 -9q27 66 94.5 102t153.5 36q139 0 222 -79.5t83 -221.5q0 -150 -107 -241t-292 -91zM512 49
q79 0 126.5 42.5t47.5 113.5q0 69 -44 107t-124 38q-65 0 -119.5 -26.5t-87.5 -71.5q3 -96 56.5 -149.5t144.5 -53.5z" />
    <glyph glyph-name="uni2087" unicode="&#x2087;" horiz-adv-x="796" 
d="M211 639h-164v180h715v-164l-367 -768h-250v11l269 540q39 78 78.5 131t101.5 109l-51 70q-56 -55 -132.5 -82t-199.5 -27z" />
    <glyph glyph-name="uni2088" unicode="&#x2088;" horiz-adv-x="995" 
d="M76 143q0 82 53.5 137t144.5 70v58q-163 42 -163 184q0 116 106 186t281 70q176 0 281.5 -70t105.5 -186q0 -146 -166 -184v-58q92 -15 146.5 -70t54.5 -137q0 -133 -112.5 -204.5t-309.5 -71.5t-309.5 71.5t-112.5 204.5zM330 559q0 -52 44 -83.5t124 -31.5t124 31.5
t44 83.5q0 56 -44 85.5t-124 29.5t-124 -29.5t-44 -85.5zM295 182q0 -65 50.5 -100t152.5 -35q202 0 202 135q0 62 -51.5 97.5t-150.5 35.5t-151 -35.5t-52 -97.5z" />
    <glyph glyph-name="uni2089" unicode="&#x2089;" horiz-adv-x="985" 
d="M479 848q208 0 316 -130.5t108 -361.5q0 -229 -120.5 -359t-321.5 -130q-144 0 -245.5 68t-123.5 176l219 49q18 -53 60.5 -82t97.5 -29q99 0 157.5 74t59.5 221l-53 10q-26 -63 -93.5 -101t-156.5 -38q-139 0 -221 79.5t-82 223.5q0 150 107 240t292 90zM473 668
q-79 0 -127.5 -43t-48.5 -115q0 -68 44.5 -106.5t125.5 -38.5q64 0 119 26.5t86 71.5q-3 99 -56 152t-143 53z" />
    <glyph glyph-name="uni20A9" unicode="&#x20a9;" horiz-adv-x="2088" 
d="M1890 825h181v-202h-228l-141 -623h-342l-191 600l-6 23h-239q-6 -11 -9 -25l-190 -598h-340l-141 623h-226v202h179l-138 609h338l111 -553q8 -34 10 -56h211l12 39l172 570h258l183 -582l8 -27h209q5 34 8 45l115 564h336zM975 825h137q-27 142 -27 248h-84
q-3 -130 -26 -248zM549 389h84q18 107 45 234h-131q10 -124 2 -234zM1454 389h88q-9 124 0 234h-131q24 -116 43 -234z" />
    <glyph glyph-name="uni20AA" unicode="&#x20aa;" horiz-adv-x="1660" 
d="M424 0h-291v1434h649q169 0 254.5 -84.5t85.5 -233.5v-754h-235v662q0 92 -40 126t-122 34h-301v-1184zM1235 1434h291v-1434h-647q-169 0 -254.5 84t-85.5 233v754h233v-661q0 -93 40.5 -126.5t123.5 -33.5h299v1184z" />
    <glyph glyph-name="Euro" unicode="&#x20ac;" horiz-adv-x="1687" 
d="M934 -37q-255 -4 -451 132t-270 362h-156v180h119q-2 27 -2 80v41h-117v180h144q67 242 267 389t466 143q259 0 446 -135.5t238 -363.5l-303 -82q-38 143 -137 220t-244 77q-113 0 -193 -38.5t-151 -117.5q-30 -30 -74 -86l29 -47q89 45 264 45h201v-184h-508
q-2 -12 -2 -41q0 -26 4 -80h506v-184h-201q-158 0 -246 45l-31 -56q44 -49 93 -88q127 -106 309 -106q150 0 252 83t135 238l307 -75q-47 -247 -236 -389t-458 -142z" />
    <glyph glyph-name="uni20B9" unicode="&#x20b9;" horiz-adv-x="1142" 
d="M266 496h-133v243h348q200 0 242 127h-590v197h594q-42 127 -229 127h-365v244h1045v-199h-37q-41 0 -101.5 28t-99.5 62l-51 -61q62 -35 106.5 -87.5t51.5 -113.5h131v-197h-158q-40 -113 -144 -174.5t-255 -70.5v-78q41 -6 66 -12t57.5 -21.5t57 -40.5t53.5 -68
t58 -104l70 -147q24 -49 45 -77t51 -44v-29h-368q-30 24 -56 78l-102 221q-53 117 -110.5 157t-176.5 40z" />
    <glyph glyph-name="uni20BD" unicode="&#x20bd;" horiz-adv-x="1427" 
d="M158 1434h678q252 0 392 -126t140 -341q0 -220 -143.5 -342.5t-388.5 -122.5h-353v-111h285v-221h-285v-170h-325v170h-127v221h127v111h-127v243h127v689zM483 745h326q104 0 167.5 54t63.5 153q0 102 -58.5 152.5t-168.5 50.5h-330v-410z" />
    <glyph glyph-name="uni20BF" unicode="&#x20bf;" horiz-adv-x="1402" 
d="M1317 381q0 -161 -103.5 -260t-308.5 -117v-246h-196v242h-164v-242h-195v242h-217v1434h217v239h195v-239h164v239h196v-241q172 -9 266.5 -98t94.5 -236q0 -122 -69.5 -201.5t-197.5 -99.5v-80q148 -14 233 -102.5t85 -233.5zM942 1014q0 143 -174 143h-313v-291h311
q176 0 176 148zM455 276h340q200 0 200 170t-198 170h-342v-340z" />
    <glyph glyph-name="uni2116" unicode="&#x2116;" horiz-adv-x="2639" 
d="M2064 565q-209 0 -344 125.5t-135 325.5q0 201 135 327.5t344 126.5q207 0 342.5 -126.5t135.5 -327.5q0 -199 -135.5 -325t-342.5 -126zM133 0v1434h354l603 -942h4v942h321v-1434h-354l-602 926h-4v-926h-322zM2064 809q92 0 152.5 59t60.5 150q0 93 -60 151t-153 58
q-94 0 -154.5 -58t-60.5 -151q0 -91 60.5 -150t154.5 -59zM2064 -20q-92 0 -146 46.5t-54 137.5t54 137.5t146 46.5q91 0 145 -46.5t54 -137.5t-54 -137.5t-145 -46.5z" />
    <glyph glyph-name="uni2117" unicode="&#x2117;" horiz-adv-x="1828" 
d="M913 -31q-166 0 -313.5 57.5t-256 159t-171.5 250t-63 322.5q0 142 42 265.5t117.5 216t176 159t221 100t249.5 33.5q107 0 208.5 -24t190.5 -68.5t164 -112.5t128.5 -152.5t83.5 -191t30 -225.5q0 -174 -63 -322.5t-172 -250t-257 -159t-315 -57.5zM913 143
q276 0 447.5 169t171.5 444q0 272 -172 438t-445 166q-180 0 -320 -74t-219 -211t-79 -317q0 -276 170.5 -445.5t445.5 -169.5zM844 358h-236v789h396q147 0 224 -69t77 -189q0 -118 -80 -189t-221 -71h-160v-271zM844 973v-189h119q104 0 104 95q0 94 -104 94h-119z" />
    <glyph glyph-name="trademark" unicode="&#x2122;" horiz-adv-x="1687" 
d="M276 815v440h-200v179h606v-179h-205v-440h-201zM956 815h-190v619h278l72 -189q24 -68 34 -113.5t9 -105.5h53q4 72 13.5 114t31.5 105l74 189h281v-619h-195v119q0 73 11.5 125t44.5 151q7 19 10 29l-70 25l-164 -449h-123l-165 449l-68 -25q41 -125 52 -175.5
t11 -129.5v-119z" />
    <glyph glyph-name="oneeighth" unicode="&#x215b;" horiz-adv-x="1712" 
d="M414 645h-199v322q0 145 82 227l-45 45q-100 -100 -229 -111v168q81 14 153 51.5t107 86.5h131v-789zM82 0l1077 1434h215l-1077 -1434h-215zM938 211q0 69 46 114.5t122 59.5v53q-137 28 -137 154q0 97 90 157t241 60q149 0 239.5 -60t90.5 -157q0 -125 -137 -154v-53
q75 -14 120.5 -59.5t45.5 -114.5q0 -113 -96.5 -173.5t-262.5 -60.5q-169 0 -265.5 60.5t-96.5 173.5zM1167 561q0 -41 35.5 -66.5t97.5 -25.5q60 0 96 25.5t36 66.5q0 45 -35 67.5t-97 22.5q-133 0 -133 -90zM1137 248q0 -52 40 -81.5t123 -29.5q80 0 120 29.5t40 81.5
q0 49 -41 77.5t-119 28.5q-80 0 -121.5 -28.5t-41.5 -77.5z" />
    <glyph glyph-name="threeeighths" unicode="&#x215c;" horiz-adv-x="1894" 
d="M369 621q-160 0 -243.5 69.5t-92.5 192.5l172 45q20 -142 168 -142q63 0 97 26t34 75q0 92 -131 92h-88v139h75q123 0 123 86q0 43 -28 66.5t-82 23.5q-67 0 -104.5 -36t-45.5 -97l-178 39q10 120 104.5 187t229.5 67q143 0 222 -58.5t79 -152.5q0 -66 -40.5 -108
t-111.5 -56v-55q81 -6 127.5 -52t46.5 -116q0 -107 -89 -171t-244 -64zM264 0l1077 1434h215l-1077 -1434h-215zM1120 211q0 69 46 114.5t122 59.5v53q-137 28 -137 154q0 97 90.5 157t241.5 60q149 0 239 -60t90 -157q0 -125 -137 -154v-53q75 -14 120.5 -59.5t45.5 -114.5
q0 -113 -96 -173.5t-262 -60.5q-169 0 -266 60.5t-97 173.5zM1350 561q0 -41 35.5 -66.5t97.5 -25.5q60 0 95.5 25.5t35.5 66.5q0 45 -34.5 67.5t-96.5 22.5q-133 0 -133 -90zM1319 248q0 -52 40.5 -81.5t123.5 -29.5q80 0 119.5 29.5t39.5 81.5q0 49 -41 77.5t-118 28.5
q-80 0 -122 -28.5t-42 -77.5z" />
    <glyph glyph-name="fiveeighths" unicode="&#x215d;" horiz-adv-x="1910" 
d="M35 877l176 45q10 -68 55 -102t117 -34q71 0 108 34t37 93q0 60 -36 92.5t-105 32.5q-107 0 -160 -65l-157 45l53 416h524v-160h-358l-2 -8q-13 -75 -74 -133l55 -43q60 92 187 92q125 0 197.5 -74t72.5 -197q0 -135 -93 -211.5t-245 -76.5q-149 0 -245 70t-107 184z
M281 0l1077 1434h215l-1077 -1434h-215zM1135 211q0 69 46 114.5t122 59.5v53q-138 28 -138 154q0 97 90.5 157t241.5 60q149 0 239.5 -60t90.5 -157q0 -125 -137 -154v-53q75 -14 120 -59.5t45 -114.5q0 -113 -96 -173.5t-262 -60.5q-169 0 -265.5 60.5t-96.5 173.5z
M1364 561q0 -41 35.5 -66.5t97.5 -25.5q60 0 95.5 25.5t35.5 66.5q0 45 -34.5 67.5t-96.5 22.5q-133 0 -133 -90zM1333 248q0 -52 40.5 -81.5t123.5 -29.5q80 0 120 29.5t40 81.5q0 49 -41 77.5t-119 28.5q-80 0 -122 -28.5t-42 -77.5z" />
    <glyph glyph-name="seveneighths" unicode="&#x215e;" horiz-adv-x="1718" 
d="M162 1272h-121v162h602v-150l-297 -639h-229v8l217 441q33 65 66.5 112.5t93.5 100.5l-45 61q-99 -96 -287 -96zM88 0l1077 1434h215l-1077 -1434h-215zM944 211q0 69 46 114.5t122 59.5v53q-137 28 -137 154q0 97 90.5 157t241.5 60q149 0 239 -60t90 -157
q0 -125 -137 -154v-53q75 -14 120.5 -59.5t45.5 -114.5q0 -113 -96 -173.5t-262 -60.5q-169 0 -266 60.5t-97 173.5zM1174 561q0 -41 35.5 -66.5t97.5 -25.5q60 0 95.5 25.5t35.5 66.5q0 45 -34.5 67.5t-96.5 22.5q-133 0 -133 -90zM1143 248q0 -52 40.5 -81.5t123.5 -29.5
q80 0 119.5 29.5t39.5 81.5q0 49 -41 77.5t-118 28.5q-80 0 -122 -28.5t-42 -77.5z" />
    <glyph glyph-name="arrowleft" unicode="&#x2190;" horiz-adv-x="1734" 
d="M1579 811v-256l-752 6q-59 1 -115 13.5t-81.5 22t-89.5 36.5l-33 -94q13 -7 50 -26t48 -25t36.5 -20.5t37.5 -22.5t27.5 -20t27.5 -24l191 -186l-168 -168l-641 639l641 641l168 -168l-189 -184q-33 -34 -80.5 -61t-150.5 -76l35 -97q6 2 32 13.5t36 15.5t34.5 13
t41.5 13t41 9.5t48.5 7.5t50.5 2z" />
    <glyph glyph-name="arrowup" unicode="&#x2191;" horiz-adv-x="1474" 
d="M264 655l-166 166l641 641l639 -641l-168 -166l-186 187q-12 12 -23.5 27.5t-20.5 28t-22.5 37t-21 38.5t-25 48t-26.5 52l-92 -35q75 -174 75 -286v-752h-258l-2 752q0 110 76 286l-96 37q-52 -106 -78.5 -152.5t-60.5 -80.5z" />
    <glyph glyph-name="arrowright" unicode="&#x2192;" horiz-adv-x="1734" 
d="M811 1159l166 168l641 -641l-641 -639l-166 168l188 186q10 10 21.5 19.5t27 19.5t27 17.5t34 19.5t34.5 18t42 21.5t44 22.5l-35 94q-63 -26 -89.5 -36.5t-82.5 -22.5t-115 -13l-751 -6v256l753 4q26 0 50 -2t49 -7.5t41.5 -9.5t42 -13.5t34.5 -13t36.5 -15t31.5 -13.5
l37 97q-104 49 -152 76t-82 61z" />
    <glyph glyph-name="arrowdown" unicode="&#x2193;" horiz-adv-x="1513" 
d="M758 -29l-641 641l166 166l186 -186q33 -34 61.5 -84t75.5 -150l96 37q-1 3 -11.5 27.5l-13.5 31.5t-11.5 30t-12 35t-9.5 35t-8.5 40.5t-4.5 41t-2 46.5l4 752h256l-6 -752q-1 -59 -13 -115t-22.5 -82.5t-36.5 -89.5l94 -35q7 14 26 51.5t25 49t20 38t22 38t20 27.5
t24 28l187 186l168 -166z" />
    <glyph glyph-name="arrowboth" unicode="&#x2194;" horiz-adv-x="2121" 
d="M729 76l-612 610l612 614l168 -167l-195 -193q-31 -31 -78.5 -59t-142.5 -74l27 -66q2 1 24 10.5t27.5 11.5t26 10.5t30.5 11.5l30 9t34.5 8.5t34 6t39 5t39.5 1.5h538q26 0 50 -2t49 -7.5t41.5 -9.5t42 -13.5t34.5 -13t36.5 -15t31.5 -13.5l24 66q-167 81 -221 133
l-192 193l166 167l612 -614l-612 -610l-166 168l192 192q14 14 29.5 26t41.5 27t38.5 22t54.5 28.5t57 29.5l-24 64q-63 -27 -88.5 -37t-82 -22.5t-114.5 -12.5h-538q-59 0 -116 12.5t-80.5 22t-88.5 37.5l-25 -64q17 -9 49 -25t45.5 -23.5t36.5 -20t35 -21t27 -20t26 -23.5
l195 -192z" />
    <glyph glyph-name="arrowupdn" unicode="&#x2195;" horiz-adv-x="1458" 
d="M117 1018l612 614l612 -614l-167 -166l-193 195q-32 32 -60.5 81t-70.5 140l-68 -27q2 -4 14 -31t15.5 -36t13 -35t13.5 -42t10 -41t8 -49.5t2 -50.5v-397q0 -26 -2 -50.5t-8 -49.5t-10 -41t-13.5 -42t-13 -35t-15.5 -36t-14 -31l68 -26q79 170 131 221l193 195l167 -168
l-612 -613l-612 613l168 168l192 -195q22 -21 43 -53t35.5 -58.5t43.5 -85.5q4 -7 6.5 -12t4.5 -10l64 24q-47 110 -59 162q-13 58 -13 123v397q0 59 12.5 116t22 80.5t37.5 88.5l-64 25q-70 -139 -97 -177q-17 -24 -36 -42l-192 -195z" />
    <glyph glyph-name="uni2196" unicode="&#x2196;" horiz-adv-x="1396" 
d="M158 1247h907v-235l-262 2q-47 0 -99.5 14t-162.5 51l-43 -94q4 -1 28 -10.5t31 -12.5t30 -13t33.5 -16t31 -17.5t34.5 -22t32 -25t34 -30.5l530 -537l-180 -180l-529 536q-41 42 -71.5 89t-43 75t-36.5 88l-90 -41q6 -18 20.5 -64.5t18.5 -61.5t11.5 -44.5t10 -49.5
t2.5 -40v-264h-235z" />
    <glyph glyph-name="uni2197" unicode="&#x2197;" horiz-adv-x="1396" 
d="M332 1012v235h905v-903h-238v264q0 25 6 56t12 52t23 73t25 79l-90 41q-23 -58 -36.5 -87.5t-44 -76t-71.5 -88.5l-528 -536l-180 180l530 537q16 16 34 30.5t32 25t34.5 22t31 17.5t33.5 16t30 13t31 12.5t28 10.5l-43 94q-110 -37 -162.5 -51t-99.5 -14z" />
    <glyph glyph-name="uni2198" unicode="&#x2198;" horiz-adv-x="1396" 
d="M1237 121h-905v235h262q47 0 99.5 -14t162.5 -51l43 92q-3 1 -28 10.5t-31.5 12.5t-29.5 13t-33.5 16t-31.5 17.5t-34.5 22.5t-31.5 26t-34 31l-530 535l180 180l528 -534q41 -43 71.5 -90t44 -76.5t36.5 -87.5l90 43q-8 24 -25 77.5t-23 73.5t-12 51.5t-6 57.5v264h238
v-905z" />
    <glyph glyph-name="uni2199" unicode="&#x2199;" horiz-adv-x="1396" 
d="M1065 356v-235h-907l2 905h235v-264q0 -18 -2.5 -37.5t-5.5 -34.5t-10 -41.5t-11.5 -41t-16 -51t-17.5 -54.5l90 -43q24 60 36.5 88t43 75.5t71.5 90.5l529 534l180 -180l-530 -535q-16 -16 -34 -31t-31.5 -26t-34.5 -22.5t-31.5 -17.5t-33.5 -16t-29.5 -13t-31.5 -12.5
t-28 -10.5l43 -92q110 37 162.5 51t99.5 14h262z" />
    <glyph glyph-name="partialdiff" unicode="&#x2202;" horiz-adv-x="1411" 
d="M53 453q0 209 140 344t358 135q130 0 227.5 -49t151.5 -135l90 45q-59 204 -275.5 319t-535.5 109l127 272q297 -6 523.5 -114t350 -298.5t123.5 -435.5q0 -310 -189.5 -496t-502.5 -186q-265 0 -426.5 135t-161.5 355zM371 469q0 -113 76 -178.5t206 -65.5
q148 0 246.5 85.5t110.5 234.5q-59 81 -150.5 126.5t-200.5 45.5q-135 0 -211.5 -68.5t-76.5 -179.5z" />
    <glyph glyph-name="emptyset" unicode="&#x2205;" horiz-adv-x="1413" 
d="M82 545q0 161 80.5 293t224 208t320.5 76q173 0 315 -72.5t225.5 -207t83.5 -303.5q0 -120 -47.5 -227t-129.5 -184t-198 -122t-249 -45q-176 0 -319.5 76t-224.5 209.5t-81 298.5zM393 573q0 -100 37 -167l219 215q137 134 254 137v92q-68 29 -149 29q-152 0 -256.5 -86
t-104.5 -220zM510 326l-2 -95q69 -28 154 -28q149 0 253.5 86.5t104.5 220.5q0 105 -39 170l-231 -231q-120 -120 -240 -123z" />
    <glyph glyph-name="product" unicode="&#x220f;" horiz-adv-x="1396" 
d="M35 1434h1327v-267h-201v-1425h-307v1425h-309v-1425h-309v1425h-201v267z" />
    <glyph glyph-name="summation" unicode="&#x2211;" horiz-adv-x="1062" 
d="M1014 -260h-938v301l346 545l-346 544v304h938v-267h-252q-137 0 -213 35t-135 103l-84 -72l428 -647l-428 -647l84 -72q59 69 134.5 104t211.5 35h254v-266z" />
    <glyph glyph-name="minus" unicode="&#x2212;" horiz-adv-x="1196" 
d="M154 803h888v-225h-888v225z" />
    <glyph glyph-name="radical" unicode="&#x221a;" horiz-adv-x="1130" 
d="M559 -258h-393l-189 881h244l27 -152q45 -228 63 -461h84q17 232 101 537l254 887h446v-267h-225z" />
    <glyph glyph-name="infinity" unicode="&#x221e;" horiz-adv-x="1824" 
d="M80 723q0 175 112 282t285 107q140 0 248 -77t154 -208h67q48 132 155.5 208.5t248.5 76.5q173 0 285 -107t112 -282t-112 -282t-285 -107q-142 0 -249 76.5t-155 207.5h-67q-46 -131 -154 -207.5t-250 -76.5q-171 0 -283 107.5t-112 281.5zM367 723q0 -68 41.5 -111
t109.5 -43q64 0 112.5 40.5t76.5 113.5q-28 74 -76.5 114t-112.5 40q-68 0 -109.5 -43t-41.5 -111zM1120 723q27 -73 75 -113.5t112 -40.5q68 0 109.5 43t41.5 111t-41.5 111t-109.5 43q-63 0 -112 -40.5t-75 -113.5z" />
    <glyph glyph-name="integral" unicode="&#x222b;" horiz-adv-x="1183" 
d="M57 -268l-28 256q53 -11 112 -11q60 0 101 13t66.5 41.5t39.5 65t23 91.5l135 879q17 106 58.5 181.5t106 119t144 63t180.5 19.5q69 0 131 -12l27 -256q-48 10 -111 10q-117 0 -165 -49.5t-64 -159.5l-135 -879q-17 -107 -60 -182.5t-108.5 -119.5t-144.5 -63.5
t-179 -19.5q-69 0 -129 13z" />
    <glyph glyph-name="approxequal" unicode="&#x2248;" horiz-adv-x="1128" 
d="M311 231h-188q-17 146 11.5 250.5t98.5 145.5l-18 37h-92q-25 259 35.5 373t195.5 114q69 0 126 -35t159 -127q31 -30 47.5 -44.5t37.5 -28t36 -13.5q40 0 53.5 57t3.5 191h191q17 -141 -11.5 -246t-97.5 -149l16 -37h91q50 -488 -230 -488q-43 0 -83.5 14t-79.5 42.5
t-62 49t-59 56.5q-6 5 -21 18.5t-20.5 18.5t-17.5 14.5t-18.5 14t-15.5 9.5t-16 7t-14 2q-40 0 -54 -56.5t-4 -189.5zM309 700q31 9 45 9q40 3 79 -9t76 -38.5t61.5 -48t58.5 -54.5l10 -10q44 -44 71.5 -65t51.5 -21q37 0 50.5 50.5t6.5 168.5q-20 -10 -43 -10
q-47 -3 -104 24t-90 53.5t-64 55.5q-89 87 -114 102q-20 13 -35 13q-38 0 -52 -51t-8 -169z" />
    <glyph glyph-name="notequal" unicode="&#x2260;" horiz-adv-x="1249" 
d="M377 352h-223v226h313l27 81q13 38 38 73.5t45 55.5t52 48l-45 59q-126 -92 -289 -92h-141v225h489l109 281h231l-111 -281h224v-225h-312l-28 -70q-5 -14 -12 -28t-12.5 -24.5t-15 -23.5t-14 -20t-16.5 -19t-15.5 -16t-17 -16t-15.5 -14t-17 -14l-15 -13l43 -60
q126 93 289 93h158v-226h-488l-110 -280h-230z" />
    <glyph glyph-name="lessequal" unicode="&#x2264;" horiz-adv-x="1310" 
d="M1118 588v-250l-938 262v338l938 262v-250l-360 -90q-194 -40 -320 -53v-76q66 -7 174.5 -26t153.5 -31zM1118 0h-938v217h938v-217z" />
    <glyph glyph-name="greaterequal" unicode="&#x2265;" horiz-adv-x="1308" 
d="M1135 600l-938 -262v250l352 86q48 12 156 31t174 26v76q-126 13 -320 53l-362 90v250l938 -262v-338zM1135 0h-938v217h938v-217z" />
    <glyph glyph-name="uni2573" unicode="&#x2573;" horiz-adv-x="2002" 
d="M254 -84l-84 84l745 748l-745 747l84 84l747 -748l748 748l84 -84l-748 -747l748 -748l-84 -84l-748 748z" />
    <glyph glyph-name="lozenge" unicode="&#x25ca;" horiz-adv-x="1202" 
d="M362 0l-331 733l331 731h478l331 -731l-331 -733h-478zM485 1014l-137 -281l137 -280q59 -121 78 -236h76q17 108 80 236l135 280l-135 279q-62 127 -80 235h-76q-19 -115 -78 -233z" />
    <glyph glyph-name="uni2605" unicode="&#x2605;" horiz-adv-x="1775" 
d="M887 311l-504 -340l174 580l-485 373l610 16l205 578l203 -578l612 -16l-485 -373l174 -580z" />
    <glyph glyph-name="uni261C" unicode="&#x261c;" horiz-adv-x="1916" 
d="M1135 100h-258q-71 0 -114.5 34.5t-43.5 92.5q0 37 24 68q-47 8 -74.5 40.5t-27.5 82.5q0 48 31 76q-47 35 -47 96q0 34 16 63h-326q-72 0 -114.5 37.5t-42.5 106.5q0 61 39.5 95t117.5 34h484q-41 12 -41 71q0 44 30 86q89 -3 194.5 8t123.5 11q53 0 100 -21.5
t115 -66.5q63 -40 100 -61t106 -42.5t140 -21.5h78l2 -690q-109 0 -264 -45q-158 -40 -243 -49q-52 -5 -105 -5zM887 188h270q110 0 289 48q148 36 215 36v527h-41q-55 0 -116 20.5t-95 39.5t-98 59q-47 30 -77 47t-71 31.5t-76 13.5q-25 0 -106.5 -4t-120.5 -5
q-2 -6 -2 -26q0 -29 25 -51h260v-86h-811q-60 0 -60 -47q0 -50 60 -50h600v-100h-148q-24 0 -37.5 -12t-13.5 -33q0 -49 51 -49h179v-88h-158q-53 0 -53 -45q0 -47 53 -47h188v-88h-106q-53 0 -53 -46q0 -45 53 -45z" />
    <glyph glyph-name="uni261E" unicode="&#x261e;" horiz-adv-x="1916" 
d="M1040 100h-258q-138 0 -329 49q-13 3 -19 5q-155 45 -264 45l2 690h78q71 0 140 21.5t106 42.5t100 61q45 30 72 45t66.5 29t76.5 14q18 0 123 -11t194 -8q31 -43 31 -86q0 -59 -41 -71h484q78 0 117.5 -34t39.5 -95q0 -69 -42.5 -106.5t-114.5 -37.5h-326q16 -29 16 -63
q0 -61 -47 -96q31 -28 31 -76q0 -50 -27.5 -82.5t-74.5 -40.5q24 -31 24 -68q0 -58 -43.5 -92.5t-114.5 -34.5zM760 188h270q53 0 53 45q0 46 -53 46h-106v88h188q53 0 53 47q0 45 -53 45h-158v88h179q51 0 51 49q0 21 -13.5 33t-37.5 12h-148v100h600q60 0 60 50
q0 47 -60 47h-811v86h260q25 22 25 51q0 20 -2 26q-39 1 -121 5t-107 4q-50 1 -100.5 -22t-122.5 -70q-64 -40 -98 -59t-95 -39.5t-116 -20.5h-41v-527q67 0 215 -36q179 -48 289 -48z" />
    <glyph glyph-name="uni271A" unicode="&#x271a;" horiz-adv-x="1634" 
d="M604 1434h426v-516h504v-402h-504v-516h-426v516h-504v402h504v516z" />
    <glyph glyph-name="uni2731" unicode="&#x2731;" horiz-adv-x="1591" 
d="M262 209l-172 299l365 209l-365 209l172 299l363 -211v420h344v-420l362 211l172 -299l-364 -209l364 -209l-172 -299l-362 211v-420h-344v420z" />
    <glyph glyph-name="uni2733" unicode="&#x2733;" horiz-adv-x="1617" 
d="M571 621l-481 -41v274l481 -39l-364 313l190 193l314 -367l-39 480h272l-37 -480l312 365l192 -191l-367 -313l484 39v-274l-484 38l367 -313l-190 -192l-314 368l37 -481h-272l39 481l-314 -366l-192 190z" />
    <glyph glyph-name="uni2738" unicode="&#x2738;" horiz-adv-x="1716" 
d="M1642 1069l-352 -330l352 -319l-483 22l19 -481l-328 358l-322 -352l23 473l-479 -14l356 328l-350 321l471 -24l-14 481l327 -350l322 350l-25 -481z" />
    <glyph glyph-name="uni2739" unicode="&#x2739;" horiz-adv-x="1701" 
d="M971 293l-121 -324l-123 324l-268 -219l57 342l-338 -58l219 269l-325 121l325 122l-219 269l340 -60l-57 340l268 -219l121 326l123 -326l268 219l-59 -342l342 60l-219 -269l323 -123l-323 -120l219 -269l-344 58l59 -340z" />
    <glyph glyph-name="uni274C" unicode="&#x274c;" horiz-adv-x="2107" 
d="M121 1456l289 289l645 -645l645 645l289 -289l-646 -645l646 -645l-289 -289l-645 645l-645 -645l-289 289l645 645z" />
    <glyph glyph-name="uni2762" unicode="&#x2762;" horiz-adv-x="1251" 
d="M160 1200q0 152 116 239t338 87t338.5 -87t116.5 -239q0 -71 -22 -124t-57 -85.5t-78 -59t-87 -53.5t-81 -60t-62.5 -86.5t-30.5 -125.5q131 -23 208 -108.5t77 -212.5q0 -140 -88 -226t-234 -86t-233.5 86t-87.5 226q0 127 77 212.5t208 108.5q-5 72 -30.5 125.5
t-62.5 86.5t-81 60t-87 53.5t-78 59t-57 85.5t-22 124z" />
    <glyph glyph-name="uni29D8" unicode="&#x29d8;" horiz-adv-x="872" 
d="M381 -35l-307 205l307 203l-307 205l307 204l-307 205l307 203l-291 190l141 131l488 -321l-307 -203l307 -205l-307 -204l307 -205l-307 -203l307 -205l-488 -321l-141 131z" />
    <glyph glyph-name="uni29D9" unicode="&#x29d9;" horiz-adv-x="872" 
d="M492 373l307 -203l-307 -205l288 -190l-141 -131l-485 321l307 205l-307 203l307 205l-307 204l307 205l-307 203l485 321l141 -131l-288 -190l307 -203l-307 -205l307 -204z" />
    <glyph glyph-name="uni29DA" unicode="&#x29da;" horiz-adv-x="1460" 
d="M381 -35l-307 205l307 203l-307 205l307 204l-307 205l307 203l-291 190l141 131l488 -321l-307 -203l307 -205l-307 -204l307 -205l-307 -203l307 -205l-488 -321l-141 131zM985 -35l-307 205l307 203l-307 205l307 204l-307 205l307 203l-289 190l142 131l487 -321
l-307 -203l307 -205l-307 -204l307 -205l-307 -203l307 -205l-487 -321l-142 131z" />
    <glyph glyph-name="uni29DB" unicode="&#x29db;" horiz-adv-x="1460" 
d="M473 373l307 -203l-307 -205l289 -190l-139 -131l-488 321l307 205l-307 203l307 205l-307 204l307 205l-307 203l486 321l143 -131l-291 -190l307 -203l-307 -205l307 -204zM1079 373l307 -203l-307 -205l289 -190l-141 -131l-486 321l308 205l-308 203l308 205
l-308 204l308 205l-308 203l486 321l141 -131l-289 -190l307 -203l-307 -205l307 -204z" />
    <glyph glyph-name="uni3008" unicode="&#x3008;" horiz-adv-x="729" 
d="M459 -403l-365 1007l365 1006l250 -94l-330 -912l330 -913z" />
    <glyph glyph-name="uni3009" unicode="&#x3009;" horiz-adv-x="737" 
d="M279 1610l364 -1006l-364 -1007l-250 94l329 913l-329 912z" />
    <glyph glyph-name="uni300A" unicode="&#x300a;" horiz-adv-x="1177" 
d="M459 -403l-365 1007l365 1006l250 -94l-330 -912l330 -913zM899 -403l-364 1007l364 1006l250 -94l-332 -912l332 -913z" />
    <glyph glyph-name="uni300B" unicode="&#x300b;" horiz-adv-x="1177" 
d="M279 1610l364 -1006l-364 -1007l-250 94l329 913l-329 912zM719 1610l362 -1006l-362 -1007l-252 94l332 913l-332 912z" />
    <glyph glyph-name="uni300C" unicode="&#x300c;" horiz-adv-x="757" 
d="M414 1266v-625h-250v868h547v-243h-297z" />
    <glyph glyph-name="uni300D" unicode="&#x300d;" horiz-adv-x="757" 
d="M344 -113v625h252v-870h-549v245h297z" />
    <glyph glyph-name="uni3010" unicode="&#x3010;" horiz-adv-x="866" 
d="M817 -358h-653v1867h653q-111 -176 -169.5 -426.5t-58.5 -506.5t58.5 -507t169.5 -427z" />
    <glyph glyph-name="uni3011" unicode="&#x3011;" horiz-adv-x="866" 
d="M702 1509v-1867h-655q149 236 203 585t0 698t-203 584h655z" />
    <glyph glyph-name="u1F642" unicode="&#x1f642;" horiz-adv-x="1808" 
d="M903 -31q-167 0 -315 57.5t-257 159t-172 250t-63 322.5q0 177 65.5 325t177 245.5t258 151.5t308.5 54q161 0 306.5 -53.5t257 -151t177.5 -246t66 -325.5q0 -174 -63 -322.5t-172 -250t-257.5 -159t-316.5 -57.5zM659 811q87 0 132 55t45 150q0 100 -46.5 150.5
t-127.5 50.5q-88 0 -133.5 -53.5t-45.5 -147.5q0 -101 47 -153t129 -52zM1147 811q88 0 133 55t45 150q0 100 -47 150.5t-129 50.5q-87 0 -131.5 -53.5t-44.5 -147.5q0 -101 46.5 -153t127.5 -52zM1438 649l-172 27q-35 -234 -361 -234t-360 234l-172 -27
q29 -192 172.5 -298.5t359.5 -106.5q224 0 365 109.5t168 295.5z" />
    <glyph glyph-name="Adieresis.ss01" horiz-adv-x="1480" 
d="M340 1802h311v-264h-311v264zM827 1802h312v-264h-312v264zM1466 0h-331l-82 227h-625l-82 -227h-332l541 1434h369zM606 727l-80 -223h428l-80 223q-34 96 -49.5 173.5t-27.5 205.5h-113q-12 -127 -28.5 -205.5t-49.5 -173.5z" />
    <glyph glyph-name="Edieresis.ss01" horiz-adv-x="1236" 
d="M248 1802h311v-264h-311v264zM735 1802h312v-264h-312v264zM455 596v-311h712v-285h-1034v1434h1032v-285h-710v-289h649v-264h-649z" />
    <glyph glyph-name="Edotaccent.ss01" horiz-adv-x="1236" 
d="M492 1802h311v-264h-311v264zM455 596v-311h712v-285h-1034v1434h1032v-285h-710v-289h649v-264h-649z" />
    <glyph glyph-name="Gdotaccent.ss01" horiz-adv-x="1605" 
d="M676 1538v264h311v-264h-311zM80 698q0 176 58.5 323t159.5 246t238.5 153t294.5 53q249 -3 430 -134.5t228 -345.5l-301 -84q-40 132 -133.5 204t-233.5 73q-191 0 -303 -132.5t-112 -342.5q0 -212 117 -343.5t317 -131.5q150 1 249.5 73t124.5 191v22h-391v236h658
v-758h-269v14q2 15 6.5 31.5t12.5 38.5t13.5 36.5t17.5 43t16 39.5l-98 49q-128 -287 -445 -287q-155 0 -280.5 59t-206.5 160t-124.5 233t-43.5 281z" />
    <glyph glyph-name="Idieresis.ss01" horiz-adv-x="632" 
d="M-84 1538v264h311v-264h-311zM403 1538v264h312v-264h-312zM156 0v1434h319v-1434h-319z" />
    <glyph glyph-name="Idotaccent.ss01" horiz-adv-x="632" 
d="M160 1538v264h311v-264h-311zM156 0v1434h319v-1434h-319z" />
    <glyph glyph-name="Odieresis.ss01" horiz-adv-x="1648" 
d="M426 1556v265h311v-265h-311zM913 1556v265h312v-265h-312zM80 717q0 161 56.5 301t155 239t237 156t296.5 57t296.5 -57t237.5 -156t155.5 -239t56.5 -301t-56.5 -301.5t-155.5 -239.5t-237.5 -156t-296.5 -57q-211 0 -381.5 97t-267 269.5t-96.5 387.5zM406 717
q0 -209 116.5 -339t302.5 -130q194 0 307 131.5t113 337.5q0 208 -114 338.5t-306 130.5t-305.5 -129t-113.5 -340z" />
    <glyph glyph-name="R.ss01" horiz-adv-x="1409" 
d="M915 584l455 -584h-395l-389 532h-127v-532h-326v1434h696q231 0 356.5 -117t125.5 -313q0 -175 -107 -287.5t-289 -132.5zM459 1155v-381h299q108 0 167.5 50.5t59.5 142.5q0 188 -227 188h-299z" />
    <glyph glyph-name="Udieresis.ss01" horiz-adv-x="1454" 
d="M328 1538v264h311v-264h-311zM815 1538v264h311v-264h-311zM127 551v883h322v-859q0 -166 68 -246.5t210 -80.5q279 0 279 327v859h319v-883q0 -283 -155.5 -435.5t-442.5 -152.5q-286 0 -443 152.5t-157 435.5z" />
    <glyph glyph-name="Wdieresis.ss01" horiz-adv-x="1994" 
d="M598 1538v264h311v-264h-311zM1085 1538v264h312v-264h-312zM344 0l-326 1434h332l111 -562q21 -110 25 -262t-1 -227h121q16 236 86 473l176 578h258l181 -590q63 -206 86 -461h118q-5 79 -2 228t23 251l115 572h329l-323 -1434h-359l-174 575q-82 283 -82 504h-84
q0 -211 -84 -506l-172 -573h-354z" />
    <glyph glyph-name="Ydieresis.ss01" horiz-adv-x="1415" 
d="M309 1538v264h312v-264h-312zM797 1538v264h311v-264h-311zM547 545l-545 889h373l114 -217q2 -4 21 -41.5t25 -50.5t24 -50.5t26 -57.5t21.5 -55.5t20.5 -60.5t13.5 -55.5t8.5 -57.5h123q6 68 33 150t51.5 135t71.5 146l112 215h373l-543 -889v-545h-323v545z" />
    <glyph glyph-name="Zdotaccent.ss01" 
d="M510 1538v264h311v-264h-311zM1253 0h-1173v254l772 954l-78 82q-66 -72 -138.5 -106.5t-189.5 -34.5h-346v285h1127v-254l-776 -955l77 -82q41 46 77.5 73t105 48t159.5 21h383v-285z" />
    <glyph glyph-name="M.ss05" horiz-adv-x="1992" 
d="M440 0h-307v1118q0 161 81.5 248.5t229.5 87.5q122 0 203 -57.5t133 -198.5l191 -524q5 -14 9.5 -19.5t14.5 -5.5q18 0 27 25l190 524q51 142 132.5 199t203.5 57q148 0 229 -87.5t81 -248.5v-1118h-306v1096q0 43 -39 43q-30 0 -40 -27l-232 -610q-69 -185 -246 -185
q-173 0 -243 185l-232 610q-12 27 -41 27q-39 0 -39 -43v-1096z" />
    <glyph glyph-name="i.loclTRK" horiz-adv-x="571" 
d="M274 1233q-91 0 -143.5 46.5t-52.5 137.5q0 90 52.5 136t143.5 46t145 -46.5t54 -135.5q0 -91 -54 -137.5t-145 -46.5zM115 0v1085h317v-1085h-317z" />
    <glyph glyph-name="a.ss01" horiz-adv-x="1173" 
d="M1073 274l39 -274h-307l-25 182h-67q-18 -98 -110.5 -158.5t-217.5 -60.5q-142 0 -232 81.5t-90 215.5q0 139 89 227.5t280 130.5l330 72v12q0 187 -195 187q-98 0 -155.5 -51t-63.5 -148l-285 51q21 179 164.5 280t364.5 101q226 0 353.5 -106.5t127.5 -313.5v-428z
M508 197q83 0 157 47.5t97 117.5v146l-221 -45q-174 -38 -174 -146q0 -60 38 -90t103 -30z" />
    <glyph glyph-name="aacute.ss01" horiz-adv-x="1173" 
d="M565 1577h340l-196 -313h-228zM1073 274l39 -274h-307l-25 182h-67q-18 -98 -110.5 -158.5t-217.5 -60.5q-142 0 -232 81.5t-90 215.5q0 139 89 227.5t280 130.5l330 72v12q0 187 -195 187q-98 0 -155.5 -51t-63.5 -148l-285 51q21 179 164.5 280t364.5 101
q226 0 353.5 -106.5t127.5 -313.5v-428zM508 197q83 0 157 47.5t97 117.5v146l-221 -45q-174 -38 -174 -146q0 -60 38 -90t103 -30z" />
    <glyph glyph-name="abreve.ss01" horiz-adv-x="1173" 
d="M596 1245q-170 0 -274.5 92t-104.5 240h250q0 -71 34.5 -106t94.5 -35q64 0 95.5 37t31.5 104h250q2 -148 -102.5 -240t-274.5 -92zM1073 274l39 -274h-307l-25 182h-67q-18 -98 -110.5 -158.5t-217.5 -60.5q-142 0 -232 81.5t-90 215.5q0 139 89 227.5t280 130.5l330 72
v12q0 187 -195 187q-98 0 -155.5 -51t-63.5 -148l-285 51q21 179 164.5 280t364.5 101q226 0 353.5 -106.5t127.5 -313.5v-428zM508 197q83 0 157 47.5t97 117.5v146l-221 -45q-174 -38 -174 -146q0 -60 38 -90t103 -30z" />
    <glyph glyph-name="acircumflex.ss01" horiz-adv-x="1173" 
d="M516 1327l-31 -63h-272l215 313h334l215 -313h-272l-31 63q-33 64 -43 111h-72q-10 -47 -43 -111zM1073 274l39 -274h-307l-25 182h-67q-18 -98 -110.5 -158.5t-217.5 -60.5q-142 0 -232 81.5t-90 215.5q0 139 89 227.5t280 130.5l330 72v12q0 187 -195 187
q-98 0 -155.5 -51t-63.5 -148l-285 51q21 179 164.5 280t364.5 101q226 0 353.5 -106.5t127.5 -313.5v-428zM508 197q83 0 157 47.5t97 117.5v146l-221 -45q-174 -38 -174 -146q0 -60 38 -90t103 -30z" />
    <glyph glyph-name="adieresis.ss01" horiz-adv-x="1173" 
d="M195 1495h311v-264h-311v264zM682 1495h311v-264h-311v264zM1073 274l39 -274h-307l-25 182h-67q-18 -98 -110.5 -158.5t-217.5 -60.5q-142 0 -232 81.5t-90 215.5q0 139 89 227.5t280 130.5l330 72v12q0 187 -195 187q-98 0 -155.5 -51t-63.5 -148l-285 51
q21 179 164.5 280t364.5 101q226 0 353.5 -106.5t127.5 -313.5v-428zM508 197q83 0 157 47.5t97 117.5v146l-221 -45q-174 -38 -174 -146q0 -60 38 -90t103 -30z" />
    <glyph glyph-name="agrave.ss01" horiz-adv-x="1173" 
d="M623 1577l84 -313h-226l-198 313h340zM1073 274l39 -274h-307l-25 182h-67q-18 -98 -110.5 -158.5t-217.5 -60.5q-142 0 -232 81.5t-90 215.5q0 139 89 227.5t280 130.5l330 72v12q0 187 -195 187q-98 0 -155.5 -51t-63.5 -148l-285 51q21 179 164.5 280t364.5 101
q226 0 353.5 -106.5t127.5 -313.5v-428zM508 197q83 0 157 47.5t97 117.5v146l-221 -45q-174 -38 -174 -146q0 -60 38 -90t103 -30z" />
    <glyph glyph-name="amacron.ss01" horiz-adv-x="1173" 
d="M236 1499h716v-217h-716v217zM1073 274l39 -274h-307l-25 182h-67q-18 -98 -110.5 -158.5t-217.5 -60.5q-142 0 -232 81.5t-90 215.5q0 139 89 227.5t280 130.5l330 72v12q0 187 -195 187q-98 0 -155.5 -51t-63.5 -148l-285 51q21 179 164.5 280t364.5 101
q226 0 353.5 -106.5t127.5 -313.5v-428zM508 197q83 0 157 47.5t97 117.5v146l-221 -45q-174 -38 -174 -146q0 -60 38 -90t103 -30z" />
    <glyph glyph-name="aogonek.ss01" horiz-adv-x="1173" 
d="M1157 -203l60 -168q-40 -31 -107 -50t-137 -19q-130 0 -207.5 67.5t-77.5 173.5q0 127 117 201l-25 180h-67q-18 -98 -110.5 -158.5t-217.5 -60.5q-142 0 -232 81.5t-90 215.5q0 139 89 227.5t280 130.5l330 72v12q0 187 -195 187q-98 0 -155.5 -51t-63.5 -148l-285 51
q21 179 164.5 280t364.5 101q226 0 353.5 -106.5t127.5 -313.5v-428l39 -274h-43q-88 -9 -137 -51t-49 -101q0 -47 33.5 -74.5t91.5 -27.5q84 0 149 51zM508 197q83 0 157 47.5t97 117.5v146l-221 -45q-174 -38 -174 -146q0 -60 38 -90t103 -30z" />
    <glyph glyph-name="aring.ss01" horiz-adv-x="1173" 
d="M594 1229q-147 0 -234.5 74.5t-87.5 197.5q0 126 90.5 199.5t231.5 73.5q147 0 234 -74.5t85 -198.5q1 -128 -87.5 -200t-231.5 -72zM594 1614q-56 0 -88.5 -30.5t-32.5 -82.5q0 -54 33 -83t88 -29q57 0 89 30.5t32 81.5q0 53 -33 83t-88 30zM1073 274l39 -274h-307
l-25 182h-67q-18 -98 -110.5 -158.5t-217.5 -60.5q-142 0 -232 81.5t-90 215.5q0 139 89 227.5t280 130.5l330 72v12q0 187 -195 187q-98 0 -155.5 -51t-63.5 -148l-285 51q21 179 164.5 280t364.5 101q226 0 353.5 -106.5t127.5 -313.5v-428zM508 197q83 0 157 47.5
t97 117.5v146l-221 -45q-174 -38 -174 -146q0 -60 38 -90t103 -30z" />
    <glyph glyph-name="atilde.ss01" horiz-adv-x="1173" 
d="M428 1231h-170q-20 181 30 274.5t152 93.5q41 0 82 -17.5t66.5 -36t64.5 -52.5q43 -43 74 -43q27 0 35 34t2 113h170q20 -180 -30 -273t-152 -93q-97 0 -213 104q-43 43 -74 43q-27 0 -35 -34t-2 -113zM1073 274l39 -274h-307l-25 182h-67q-18 -98 -110.5 -158.5
t-217.5 -60.5q-142 0 -232 81.5t-90 215.5q0 139 89 227.5t280 130.5l330 72v12q0 187 -195 187q-98 0 -155.5 -51t-63.5 -148l-285 51q21 179 164.5 280t364.5 101q226 0 353.5 -106.5t127.5 -313.5v-428zM508 197q83 0 157 47.5t97 117.5v146l-221 -45q-174 -38 -174 -146
q0 -60 38 -90t103 -30z" />
    <glyph glyph-name="cdotaccent.ss01" horiz-adv-x="1222" 
d="M496 1231v264h311v-264h-311zM61 535q0 267 161.5 427t428.5 160q209 0 346.5 -99t182.5 -271l-291 -88q-23 99 -90.5 149.5t-165.5 50.5q-123 0 -190.5 -87t-67.5 -234q0 -153 71.5 -237.5t190.5 -84.5q100 0 166 54t88 147l291 -88q-43 -167 -194.5 -269t-358.5 -102
q-258 0 -413 156t-155 416z" />
    <glyph glyph-name="edieresis.ss01" horiz-adv-x="1251" 
d="M250 1231v264h311v-264h-311zM737 1231v264h312v-264h-312zM61 541q0 260 159 420.5t421 160.5q255 0 408 -154.5t153 -424.5v-99h-829q9 -106 84.5 -168.5t197.5 -62.5q104 0 187.5 45t128.5 123l176 -199q-69 -103 -206.5 -161t-293.5 -58q-260 0 -423 156.5
t-163 421.5zM375 655h524q-9 105 -78 166.5t-184 61.5q-109 0 -181 -60.5t-81 -167.5z" />
    <glyph glyph-name="edotaccent.ss01" horiz-adv-x="1251" 
d="M494 1231v264h311v-264h-311zM61 541q0 260 159 420.5t421 160.5q255 0 408 -154.5t153 -424.5v-99h-829q9 -106 84.5 -168.5t197.5 -62.5q104 0 187.5 45t128.5 123l176 -199q-69 -103 -206.5 -161t-293.5 -58q-260 0 -423 156.5t-163 421.5zM375 655h524
q-9 105 -78 166.5t-184 61.5q-109 0 -181 -60.5t-81 -167.5z" />
    <glyph glyph-name="f.ss01" horiz-adv-x="888" 
d="M240 829h-209v256h209v193q0 99 68 158t181 59h336l39 -246h-313v-164h303v-256h-303v-829h-311v829z" />
    <glyph glyph-name="g.ss01" 
d="M61 580q0 237 142 389.5t362 152.5q255 0 357 -231l94 49q-41 95 -53 137v8h258v-1058q0 -250 -149.5 -387.5t-422.5 -137.5q-225 0 -353 102.5t-146 278.5l284 51q1 -96 66 -147t174 -51q111 0 171.5 57.5t63.5 155.5q1 39 16.5 83.5t31 73t47.5 82.5l-95 64
q-52 -102 -144.5 -156.5t-211.5 -54.5q-136 0 -247.5 66.5t-178 190.5t-66.5 282zM377 582q0 -130 76.5 -206.5t197.5 -76.5q95 0 164 46.5t94 123.5v223q-24 79 -95.5 124.5t-164.5 45.5q-123 0 -197.5 -78t-74.5 -202z" />
    <glyph glyph-name="gbreve.ss01" 
d="M270 1577h250q0 -71 34.5 -106t94.5 -35q64 0 95.5 37t31.5 104h250q2 -148 -102.5 -240t-274.5 -92t-274.5 92t-104.5 240zM61 580q0 237 142 389.5t362 152.5q255 0 357 -231l94 49q-41 95 -53 137v8h258v-1058q0 -250 -149.5 -387.5t-422.5 -137.5q-225 0 -353 102.5
t-146 278.5l284 51q1 -96 66 -147t174 -51q111 0 171.5 57.5t63.5 155.5q1 39 16.5 83.5t31 73t47.5 82.5l-95 64q-52 -102 -144.5 -156.5t-211.5 -54.5q-136 0 -247.5 66.5t-178 190.5t-66.5 282zM377 582q0 -130 76.5 -206.5t197.5 -76.5q95 0 164 46.5t94 123.5v223
q-24 79 -95.5 124.5t-164.5 45.5q-123 0 -197.5 -78t-74.5 -202z" />
    <glyph glyph-name="uni0123.ss01" 
d="M510 1542l158 264l149 -75l-96 -162q55 -15 88 -59.5t33 -104.5q0 -80 -55.5 -127t-137.5 -47q-84 0 -135 48t-51 126q0 63 47 137zM61 580q0 237 142 389.5t362 152.5q255 0 357 -231l94 49q-41 95 -53 137v8h258v-1058q0 -250 -149.5 -387.5t-422.5 -137.5
q-225 0 -353 102.5t-146 278.5l284 51q1 -96 66 -147t174 -51q111 0 171.5 57.5t63.5 155.5q1 39 16.5 83.5t31 73t47.5 82.5l-95 64q-52 -102 -144.5 -156.5t-211.5 -54.5q-136 0 -247.5 66.5t-178 190.5t-66.5 282zM377 582q0 -130 76.5 -206.5t197.5 -76.5q95 0 164 46.5
t94 123.5v223q-24 79 -95.5 124.5t-164.5 45.5q-123 0 -197.5 -78t-74.5 -202z" />
    <glyph glyph-name="gdotaccent.ss01" 
d="M494 1231v264h311v-264h-311zM61 580q0 237 142 389.5t362 152.5q255 0 357 -231l94 49q-41 95 -53 137v8h258v-1058q0 -250 -149.5 -387.5t-422.5 -137.5q-225 0 -353 102.5t-146 278.5l284 51q1 -96 66 -147t174 -51q111 0 171.5 57.5t63.5 155.5q1 39 16.5 83.5t31 73
t47.5 82.5l-95 64q-52 -102 -144.5 -156.5t-211.5 -54.5q-136 0 -247.5 66.5t-178 190.5t-66.5 282zM377 582q0 -130 76.5 -206.5t197.5 -76.5q95 0 164 46.5t94 123.5v223q-24 79 -95.5 124.5t-164.5 45.5q-123 0 -197.5 -78t-74.5 -202z" />
    <glyph glyph-name="i.ss01" horiz-adv-x="542" 
d="M117 1227v268h311v-268h-311zM115 0v1085h311v-1085h-311z" />
    <glyph glyph-name="idieresis.ss01" horiz-adv-x="571" 
d="M-125 1231v264h311v-264h-311zM362 1231v264h312v-264h-312zM115 0v1085h317v-1085h-317z" />
    <glyph glyph-name="i.loclTRK.ss01" horiz-adv-x="571" 
d="M119 1231v264h311v-264h-311zM115 0v1085h317v-1085h-317z" />
    <glyph glyph-name="j.ss01" horiz-adv-x="550" 
d="M127 1227v268h311v-268h-311zM436 1085v-1329q0 -99 -68.5 -158t-181.5 -59h-336v246h275v1300h311z" />
    <glyph glyph-name="odieresis.ss01" horiz-adv-x="1286" 
d="M246 1231v264h311v-264h-311zM733 1231v264h311v-264h-311zM61 543q0 260 161 419.5t421 159.5t421 -159.5t161 -419.5q0 -259 -161 -419.5t-421 -160.5t-421 160.5t-161 419.5zM911 543q0 149 -70.5 235t-197.5 86q-128 0 -198 -86t-70 -235q0 -148 70.5 -234t197.5 -86
q126 0 197 86t71 234z" />
    <glyph glyph-name="t.ss01" horiz-adv-x="919" 
d="M786 -2l-301 2q-121 0 -183 61t-62 168v600h-215v256h215v269l309 57v-326h315v-256h-315v-567h278z" />
    <glyph glyph-name="udieresis.ss01" horiz-adv-x="1318" 
d="M256 1231v264h311v-264h-311zM743 1231v264h312v-264h-312zM1208 1085v-1085h-293v8q10 62 48 162l-97 33q-46 -115 -147.5 -177.5t-231.5 -62.5q-177 0 -282 116t-105 333v673h312v-618q0 -110 57.5 -168.5t163.5 -58.5q85 0 155 39t109 112v694h311z" />
    <glyph glyph-name="wdieresis.ss01" horiz-adv-x="1726" 
d="M463 1231v264h311v-264h-311zM950 1231v264h312v-264h-312zM276 0l-274 1085h313l62 -290q39 -195 39 -482h100q10 113 36 217t93 310l80 245h274l82 -245q69 -213 95 -314t34 -213h101q3 317 39 482l59 290h315l-272 -1085h-352l-72 217q-61 194 -82.5 318.5
t-27.5 289.5h-109q-6 -162 -29 -293t-82 -315l-69 -217h-353z" />
    <glyph glyph-name="y.ss01" horiz-adv-x="1243" 
d="M446 74l-448 1011h348l141 -374q68 -184 76 -355h115q14 190 76 357l141 372h346l-688 -1546h-340z" />
    <glyph glyph-name="yacute.ss01" horiz-adv-x="1243" 
d="M590 1577h340l-197 -313h-227zM446 74l-448 1011h348l141 -374q68 -184 76 -355h115q14 190 76 357l141 372h346l-688 -1546h-340z" />
    <glyph glyph-name="ycircumflex.ss01" horiz-adv-x="1243" 
d="M510 1264h-272l215 313h333l215 -313h-272l-31 63q-33 64 -43 111h-71q-10 -47 -43 -111zM446 74l-448 1011h348l141 -374q68 -184 76 -355h115q14 190 76 357l141 372h346l-688 -1546h-340z" />
    <glyph glyph-name="ydieresis.ss01" horiz-adv-x="1243" 
d="M221 1231v264h311v-264h-311zM709 1231v264h311v-264h-311zM446 74l-448 1011h348l141 -374q68 -184 76 -355h115q14 190 76 357l141 372h346l-688 -1546h-340z" />
    <glyph glyph-name="ygrave.ss01" horiz-adv-x="1243" 
d="M508 1264l-199 313h340l84 -313h-225zM446 74l-448 1011h348l141 -374q68 -184 76 -355h115q14 190 76 357l141 372h346l-688 -1546h-340z" />
    <glyph glyph-name="zdotaccent.ss01" horiz-adv-x="1083" 
d="M391 1231v264h311v-264h-311zM1030 0h-967v252l611 610l-74 82q-66 -65 -121 -90t-151 -25h-250v256h936v-251l-611 -611l72 -82q63 65 121 90t154 25h280v-256z" />
    <glyph glyph-name="m_m.dlig" horiz-adv-x="3336" 
d="M422 0h-311v1085h295v-10q-16 -68 -48 -157l60 -31q107 235 344 235q125 0 205 -59.5t108 -165.5h49q49 109 138.5 167t203.5 58q124 0 204 -59.5t112 -165.5h47q46 108 136.5 166.5t203.5 58.5q124 0 204.5 -59.5t110.5 -165.5h49q46 110 136.5 167.5t207.5 57.5
q171 0 265 -115t94 -329v-678h-311v629q0 219 -172 219q-74 0 -133 -37.5t-89 -99.5v-711h-311v629q0 219 -170 219q-74 0 -133.5 -37.5t-87.5 -99.5v-711h-311v629q0 219 -172 219q-74 0 -133 -37.5t-89 -99.5v-711h-311v629q0 219 -172 219q-73 0 -132 -38t-87 -101v-709z
" />
    <glyph glyph-name="o_o.dlig" horiz-adv-x="2215" 
d="M61 547q0 174 77.5 306t210 200.5t298.5 68.5q142 0 255 -58t177 -155h58q64 98 179 155.5t253 57.5q124 0 231.5 -40.5t185.5 -113.5t123 -182t45 -241q0 -174 -77 -306t-209.5 -201t-298.5 -69q-144 0 -258 57.5t-174 153.5h-58q-64 -97 -179 -154t-253 -57
q-166 0 -298.5 69.5t-210 202t-77.5 306.5zM377 545q0 -136 87 -217.5t222 -81.5q111 0 188 53t107 145h254q28 -93 105.5 -145.5t189.5 -52.5q135 0 222 81.5t87 217.5t-87 217.5t-222 81.5q-111 0 -188 -53t-107 -144h-254q-28 93 -105.5 145t-189.5 52q-135 0 -222 -81.5
t-87 -217.5z" />
    <glyph glyph-name="fi.ss01" horiz-adv-x="1429" 
d="M240 829h-209v256h209v193q0 99 68 158t181 59h336l39 -246h-313v-164h303v-256h-303v-829h-311v829zM1006 1227v268h311v-268h-311zM1004 0v1085h311v-1085h-311z" />
    <glyph glyph-name="f_f.liga.ss01" horiz-adv-x="1650" 
d="M240 829h-209v256h209v193q0 99 68 158t181 59h336l39 -246h-313v-164h453v193q0 99 68 158t181 59h336l37 -246h-311v-164h303v-256h-303v-829h-311v829h-453v-829h-311v829z" />
    <glyph glyph-name="f_f_i.liga.ss01" horiz-adv-x="2193" 
d="M240 829h-209v256h209v193q0 99 68 158t181 59h336l39 -246h-313v-164h453v193q0 99 68 158t181 59h336l37 -246h-311v-164h303v-256h-303v-829h-311v829h-453v-829h-311v829zM1767 1227v268h312v-268h-312zM1765 0v1085h312v-1085h-312z" />
    <glyph glyph-name="f_t.liga.ss01" horiz-adv-x="1665" 
d="M240 829h-209v256h209v193q0 99 68 158t181 59h302l38 -246h-278v-164h436v269l311 57v-326h312v-256h-312v-567h275l-41 -264l-297 2q-123 0 -185.5 61t-62.5 168v600h-436v-829h-311v829z" />
    <glyph glyph-name="t_f.liga.ss01" horiz-adv-x="1640" 
d="M240 829h-215v256h215v269l309 57v-326h444v193q0 99 68.5 158t181.5 59h336l37 -246h-311v-164h303v-256h-303v-829h-312v829h-444v-567h274l-39 -264l-299 2q-122 1 -183.5 61.5t-61.5 167.5v600z" />
    <glyph glyph-name="t_i.liga.ss01" horiz-adv-x="1462" 
d="M1036 1227v268h312v-268h-312zM786 -2l-301 2q-121 0 -183 61t-62 168v600h-215v256h215v269l309 57v-326h315v-256h-315v-567h278zM1034 0v1085h312v-1085h-312z" />
    <glyph glyph-name="t_t.liga.ss01" horiz-adv-x="1679" 
d="M240 829h-215v256h215v269l309 57v-326h448v269l312 57v-326h313v-256h-313v-567h278l-41 -264l-301 2q-122 0 -185 61t-63 168v600h-448v-567h278l-41 -264l-301 2q-122 1 -183.5 61.5t-61.5 167.5v600z" />
    <glyph glyph-name="t_t_i.liga.ss01" horiz-adv-x="2222" 
d="M1796 1227v268h311v-268h-311zM240 829h-215v256h215v269l309 57v-326h448v269l312 57v-326h313v-256h-313v-567h278l-41 -264l-301 2q-122 0 -185 61t-63 168v600h-448v-567h278l-41 -264l-301 2q-122 1 -183.5 61.5t-61.5 167.5v600zM1794 0v1085h311v-1085h-311z" />
    <glyph glyph-name="zero.tf" horiz-adv-x="1454" 
d="M725 -25q-185 0 -319 94t-201.5 261.5t-67.5 390.5q0 355 160.5 553.5t427.5 198.5q280 0 436 -203.5t156 -548.5q0 -352 -161 -549t-431 -197zM725 256q148 0 213.5 119.5t65.5 345.5q0 238 -73 353.5t-206 115.5q-274 0 -274 -469q0 -236 72 -350.5t202 -114.5z" />
    <glyph glyph-name="one.tf" horiz-adv-x="1460" 
d="M924 1434v-1170h376v-264h-1128v264h434v426q0 73 8 126t29.5 96.5t39 69t54.5 69.5l-73 71q-78 -82 -215.5 -137.5t-282.5 -62.5v268q181 24 325.5 90t221.5 154h211z" />
    <glyph glyph-name="two.tf" horiz-adv-x="1458" 
d="M1305 0h-1145v244l600 418q121 86 167 157.5t46 157.5q0 110 -65 171.5t-173 61.5q-128 0 -201 -74.5t-73 -213.5l-301 28q2 241 155 382t426 141q246 0 397.5 -131t151.5 -345q0 -167 -82.5 -286.5t-300.5 -264.5q-57 -40 -161.5 -101t-190.5 -103l47 -101
q81 34 142 55.5t168 43.5t210 22h183v-262z" />
    <glyph glyph-name="three.tf" horiz-adv-x="1454" 
d="M731 -39q-283 0 -434 123.5t-166 349.5l279 70q34 -279 327 -279q131 0 202 52.5t71 154.5q0 97 -67.5 143t-186.5 46h-172v227h147q128 0 186 49t58 131q0 90 -62 138t-172 48q-133 0 -210 -70t-89 -190l-282 66q15 207 178.5 330t409.5 123q258 0 399 -107.5
t141 -280.5q0 -120 -71 -196t-195 -103v-94q134 -8 218.5 -91.5t84.5 -213.5q0 -195 -158.5 -310.5t-435.5 -115.5z" />
    <glyph glyph-name="four.tf" horiz-adv-x="1449" 
d="M1133 0h-312v283h-721v249l680 904h353v-895h219v-258h-219v-283zM836 1169l-459 -641l57 -63q38 35 110 55.5t154 20.5h123v225q0 79 19.5 147.5t39.5 103t52 77.5z" />
    <glyph glyph-name="five.tf" horiz-adv-x="1452" 
d="M123 416l283 67q18 -128 104 -193t221 -65q140 0 213.5 69t73.5 189q0 124 -73 191t-204 67q-94 0 -175.5 -36.5t-131.5 -100.5l-252 74l97 758h921v-260h-663l-7 -64q-1 -60 -34 -126t-86 -120l88 -67q55 84 147 129t201 45q223 0 354 -134.5t131 -355.5
q0 -247 -163 -383.5t-433 -136.5q-258 0 -425 124.5t-187 328.5z" />
    <glyph glyph-name="six.tf" horiz-adv-x="1452" 
d="M745 -37q-302 0 -461 199t-159 551q0 356 176.5 558t472.5 202q205 0 354.5 -103.5t180.5 -269.5l-314 -70q-24 85 -87.5 131.5t-147.5 46.5q-144 0 -233 -120t-93 -361l80 -14q38 103 138 164t229 61q204 0 325 -124t121 -343q0 -231 -156.5 -369.5t-425.5 -138.5z
M754 225q119 0 189.5 68.5t70.5 185.5q0 114 -65 177t-187 63q-95 0 -176 -45.5t-129 -124.5q4 -154 83 -239t214 -85z" />
    <glyph glyph-name="seven.tf" horiz-adv-x="1458" 
d="M461 1174h-316v262h1170v-240l-627 -1196h-369v14l478 867q64 114 122 190.5t146 157.5l-74 98q-90 -81 -216.5 -117t-313.5 -36z" />
    <glyph glyph-name="eight.tf" horiz-adv-x="1452" 
d="M123 385q0 130 79 214t208 110v86q-236 59 -236 284q0 177 150.5 284t402.5 107q251 0 401 -107t150 -284q0 -226 -234 -284v-86q131 -25 209 -111.5t78 -212.5q0 -203 -162 -312.5t-442 -109.5q-282 0 -443 109t-161 313zM485 1034q0 -85 63.5 -135.5t178.5 -50.5
t178.5 50.5t63.5 135.5q0 90 -63.5 138.5t-178.5 48.5t-178.5 -48.5t-63.5 -138.5zM436 440q0 -105 73 -162t218 -57t218 57t73 162q0 101 -74.5 159t-216.5 58t-216.5 -58t-74.5 -159z" />
    <glyph glyph-name="nine.tf" horiz-adv-x="1452" 
d="M711 1473q300 0 457 -200t157 -552q0 -356 -175 -557t-468 -201q-209 0 -354 102.5t-178 268.5l313 69q24 -83 87.5 -130.5t143.5 -47.5q145 0 232 122t90 360l-76 14q-38 -102 -137.5 -162.5t-229.5 -60.5q-202 0 -322 123t-120 342q0 231 155.5 370.5t424.5 139.5z
M702 1210q-117 0 -188.5 -70.5t-71.5 -185.5q0 -113 65.5 -176t184.5 -63q99 0 178.5 46.5t126.5 125.5q-6 155 -84.5 239t-210.5 84z" />
    <glyph glyph-name="zero.dnom" horiz-adv-x="835" 
d="M418 -12q-162 0 -252 111t-90 298q0 194 93 303t249 109q163 0 252.5 -112t89.5 -300q0 -193 -92.5 -301t-249.5 -108zM418 162q80 0 112.5 61t32.5 174q0 238 -145 238q-146 0 -146 -238q0 -235 146 -235z" />
    <glyph glyph-name="one.dnom" horiz-adv-x="571" 
d="M414 0h-199v322q0 145 82 227l-45 45q-100 -100 -229 -111v168q81 14 153 51t107 86h131v-788z" />
    <glyph glyph-name="two.dnom" horiz-adv-x="718" 
d="M670 0h-625v150l324 227q61 43 83.5 80.5t22.5 83.5q0 48 -31.5 77t-83.5 29q-57 0 -89.5 -37.5t-32.5 -109.5l-189 18q0 132 87.5 211.5t230.5 79.5q133 0 215 -72.5t82 -191.5q0 -95 -49 -163.5t-150 -131.5q-71 -49 -172 -100l31 -62q182 76 294 76h52v-164z" />
    <glyph glyph-name="three.dnom" horiz-adv-x="753" 
d="M369 -25q-160 0 -243.5 70t-92.5 193l172 45q20 -142 168 -142q63 0 97 26t34 75q0 92 -131 92h-88v139h75q123 0 123 86q0 43 -28 66.5t-82 23.5q-67 0 -104.5 -36t-45.5 -97l-178 39q10 120 104.5 187t229.5 67q143 0 222 -58.5t79 -152.5q0 -66 -40.5 -108t-111.5 -56
v-55q81 -6 127.5 -52t46.5 -116q0 -107 -89 -171.5t-244 -64.5z" />
    <glyph glyph-name="four.dnom" horiz-adv-x="827" 
d="M664 0h-199v145h-412v158l389 485h222v-481h129v-162h-129v-145zM481 631l-256 -332l35 -39q24 22 68.5 34.5t91.5 12.5h45v88q0 120 72 183z" />
    <glyph glyph-name="five.dnom" horiz-adv-x="770" 
d="M35 231l176 45q21 -135 172 -135q71 0 108 34t37 93q0 60 -36 92.5t-105 32.5q-107 0 -160 -65l-157 45l53 415h524v-159h-358l-2 -8q-13 -76 -74 -134l55 -43q30 46 79.5 69.5t107.5 23.5q125 0 197.5 -74t72.5 -197q0 -136 -93 -212.5t-245 -76.5q-149 0 -245 70
t-107 184z" />
    <glyph glyph-name="six.dnom" horiz-adv-x="804" 
d="M422 -23q-177 0 -270 111.5t-93 308.5q0 192 103 302t274 110q120 0 207.5 -58t106.5 -151l-199 -41q-13 41 -47.5 64.5t-77.5 23.5q-72 0 -120.5 -57.5t-49.5 -177.5l47 -11q20 51 74.5 81t130.5 30q116 0 186 -66.5t70 -185.5q0 -129 -92 -206t-250 -77zM428 141
q62 0 99.5 33.5t37.5 91.5q0 55 -35 85t-100 30q-106 0 -164 -74q0 -79 44 -122.5t118 -43.5z" />
    <glyph glyph-name="seven.dnom" horiz-adv-x="681" 
d="M162 627h-121v161h602v-149l-297 -639h-229v8l217 441q33 65 66.5 112.5t93.5 100.5l-45 61q-99 -96 -287 -96z" />
    <glyph glyph-name="eight.dnom" horiz-adv-x="827" 
d="M53 211q0 69 46 114.5t122 59.5v53q-137 28 -137 154q0 97 90.5 157t241.5 60q149 0 239 -60t90 -157q0 -125 -137 -154v-53q75 -14 120.5 -59.5t45.5 -114.5q0 -113 -96 -173.5t-262 -60.5q-169 0 -266 60.5t-97 173.5zM283 561q0 -41 35.5 -66.5t97.5 -25.5
q60 0 95.5 25.5t35.5 66.5q0 45 -34.5 67.5t-96.5 22.5q-133 0 -133 -90zM252 248q0 -52 40.5 -81.5t123.5 -29.5q80 0 119.5 29.5t39.5 81.5q0 49 -41 77.5t-118 28.5q-80 0 -122 -28.5t-42 -77.5z" />
    <glyph glyph-name="nine.dnom" horiz-adv-x="806" 
d="M389 809q178 0 271.5 -111t93.5 -307q0 -192 -104 -303t-275 -111q-123 0 -210 58.5t-104 150.5l199 43q14 -42 48.5 -65t74.5 -23q74 0 122 57.5t52 178.5l-49 8q-22 -51 -76.5 -81t-126.5 -30q-117 0 -186.5 67t-69.5 187q0 127 91 204t249 77zM385 647
q-62 0 -100.5 -34t-38.5 -91q0 -55 35 -84.5t100 -29.5q106 0 164 71q-1 79 -43.5 123.5t-116.5 44.5z" />
    <glyph glyph-name="zero.numr" horiz-adv-x="835" 
d="M418 633q-162 0 -252 111t-90 298q0 194 93 303t249 109q163 0 252.5 -112t89.5 -300q0 -193 -92.5 -301t-249.5 -108zM418 807q80 0 112.5 61t32.5 174q0 238 -145 238q-146 0 -146 -238q0 -235 146 -235z" />
    <glyph glyph-name="one.numr" horiz-adv-x="571" 
d="M414 645h-199v322q0 145 82 227l-45 45q-100 -100 -229 -111v168q81 14 153 51.5t107 86.5h131v-789z" />
    <glyph glyph-name="two.numr" horiz-adv-x="718" 
d="M670 645h-625v150l324 227q61 43 83.5 80.5t22.5 83.5q0 48 -31.5 77t-83.5 29q-57 0 -89.5 -37.5t-32.5 -109.5l-189 18q0 132 87.5 211.5t230.5 79.5q133 0 215 -72.5t82 -191.5q0 -95 -49 -163.5t-150 -131.5q-71 -49 -172 -100l31 -62q182 76 294 76h52v-164z" />
    <glyph glyph-name="three.numr" horiz-adv-x="753" 
d="M369 621q-160 0 -243.5 69.5t-92.5 192.5l172 45q20 -142 168 -142q63 0 97 26t34 75q0 92 -131 92h-88v139h75q123 0 123 86q0 43 -28 66.5t-82 23.5q-67 0 -104.5 -36t-45.5 -97l-178 39q10 120 104.5 187t229.5 67q143 0 222 -58.5t79 -152.5q0 -66 -40.5 -108
t-111.5 -56v-55q81 -6 127.5 -52t46.5 -116q0 -107 -89 -171t-244 -64z" />
    <glyph glyph-name="four.numr" horiz-adv-x="827" 
d="M664 645h-199v146h-412v157l389 486h222v-482h129v-161h-129v-146zM481 1276l-256 -332l35 -39q24 22 68.5 34.5t91.5 12.5h45v88q0 120 72 183z" />
    <glyph glyph-name="five.numr" horiz-adv-x="770" 
d="M35 877l176 45q10 -68 55 -102t117 -34q71 0 108 34t37 93q0 60 -36 92.5t-105 32.5q-107 0 -160 -65l-157 45l53 416h524v-160h-358l-2 -8q-13 -75 -74 -133l55 -43q60 92 187 92q125 0 197.5 -74t72.5 -197q0 -135 -93 -211.5t-245 -76.5q-149 0 -245 70t-107 184z" />
    <glyph glyph-name="six.numr" horiz-adv-x="804" 
d="M422 623q-177 0 -270 111t-93 308q0 192 103 302t274 110q120 0 207.5 -58t106.5 -151l-199 -41q-13 41 -47.5 64.5t-77.5 23.5q-72 0 -120.5 -57.5t-49.5 -177.5l47 -10q20 51 74.5 80.5t130.5 29.5q116 0 186 -66.5t70 -185.5q0 -129 -91.5 -205.5t-250.5 -76.5z
M428 786q62 0 99.5 33.5t37.5 91.5q0 55 -35 85t-100 30q-106 0 -164 -74q0 -78 44 -122t118 -44z" />
    <glyph glyph-name="seven.numr" horiz-adv-x="681" 
d="M162 1272h-121v162h602v-150l-297 -639h-229v8l217 441q33 65 66.5 112.5t93.5 100.5l-45 61q-99 -96 -287 -96z" />
    <glyph glyph-name="eight.numr" horiz-adv-x="827" 
d="M53 856q0 69 46 114.5t122 59.5v53q-137 28 -137 154q0 97 90.5 157t241.5 60q149 0 239 -60t90 -157q0 -125 -137 -154v-53q75 -14 120.5 -59.5t45.5 -114.5q0 -113 -96 -173t-262 -60q-169 0 -266 60t-97 173zM283 1206q0 -41 35.5 -66.5t97.5 -25.5q60 0 95.5 25.5
t35.5 66.5q0 45 -34.5 67.5t-96.5 22.5q-133 0 -133 -90zM252 893q0 -52 40.5 -81.5t123.5 -29.5q80 0 119.5 29.5t39.5 81.5q0 49 -41 77.5t-118 28.5q-80 0 -122 -28.5t-42 -77.5z" />
    <glyph glyph-name="nine.numr" horiz-adv-x="806" 
d="M389 1454q178 0 271.5 -111t93.5 -307q0 -192 -104 -302.5t-275 -110.5q-123 0 -210 58t-104 150l199 43q14 -42 48.5 -65t74.5 -23q74 0 122 57.5t52 178.5l-49 8q-22 -51 -76.5 -80.5t-126.5 -29.5q-117 0 -186.5 67t-69.5 187q0 127 91 203.5t249 76.5zM385 1292
q-62 0 -100.5 -34t-38.5 -91q0 -55 35 -84.5t100 -29.5q106 0 164 71q-1 79 -43.5 123.5t-116.5 44.5z" />
    <glyph glyph-name="colon.case" horiz-adv-x="647" 
d="M324 831q-91 0 -145 47t-54 138q0 89 54 135.5t145 46.5t144.5 -46t53.5 -136q0 -91 -53.5 -138t-144.5 -47zM324 205q-91 0 -145 46.5t-54 135.5q0 91 54 137.5t145 46.5t144.5 -46.5t53.5 -137.5q0 -90 -53.5 -136t-144.5 -46z" />
    <glyph glyph-name="period.ss01" horiz-adv-x="593" 
d="M139 0v307h318v-307h-318z" />
    <glyph glyph-name="comma.ss01" horiz-adv-x="524" 
d="M211 -332l-141 72l153 260h-131v307h320v-307z" />
    <glyph glyph-name="colon.ss01" horiz-adv-x="618" 
d="M152 754v307h317v-307h-317zM152 0v307h317v-307h-317z" />
    <glyph glyph-name="semicolon.ss01" horiz-adv-x="626" 
d="M158 754v307h319v-307h-319zM276 -330l-141 70l156 260h-133v307h319v-307z" />
    <glyph glyph-name="exclam.ss01" horiz-adv-x="604" 
d="M365 514h-125l-97 612v308h320v-308zM143 0v307h318v-307h-318z" />
    <glyph glyph-name="question.ss01" horiz-adv-x="1282" 
d="M795 473h-267v262q351 19 351 258q0 102 -63 158.5t-167 56.5t-176 -55t-84 -156l-287 62q23 189 175 300t382 111q240 0 386.5 -121.5t146.5 -324.5q0 -168 -102.5 -284t-294.5 -152v-115zM502 0v307h317v-307h-317z" />
    <glyph glyph-name="asterisk.ss02" horiz-adv-x="921" 
d="M416 1104l-4 8q-118 25 -306 94l23 66q176 -46 293 -105l8 7q-18 128 -6 305h74q12 -177 -4 -305l6 -7q117 59 293 105l22 -66q-180 -67 -303 -94v-10q97 -99 209 -264l-57 -39q-43 49 -67.5 78.5t-61 80.5t-68.5 105h-12q-19 -33 -38.5 -62t-44 -61t-35.5 -46t-43 -52
t-36 -43l-55 39q111 162 213 266z" />
    <glyph glyph-name="slash.ss02" horiz-adv-x="899" 
d="M70 0l667 1434h94l-667 -1434h-94z" />
    <glyph glyph-name="backslash.ss02" horiz-adv-x="899" 
d="M70 1434h94l667 -1434h-94z" />
    <glyph glyph-name="parenleft.case" horiz-adv-x="825" 
d="M170 686q0 265 106 521t310 485l182 -133q-167 -212 -245.5 -421t-78.5 -452q0 -244 79.5 -454t244.5 -418l-182 -133q-205 229 -310.5 484t-105.5 521z" />
    <glyph glyph-name="parenright.case" horiz-adv-x="825" 
d="M655 686q0 -266 -105.5 -520.5t-309.5 -484.5l-185 133q165 208 244.5 418t79.5 454t-78.5 453t-245.5 420l185 133q203 -229 309 -485t106 -521z" />
    <glyph glyph-name="braceleft.case" horiz-adv-x="858" 
d="M252 20v394q0 69 -24.5 95t-88.5 26h-55v344h55q65 0 89 26t24 96v351q0 171 75.5 242t258.5 71h211v-252h-179q-66 0 -91 -30.5t-25 -106.5v-322q0 -84 -50.5 -141.5t-129.5 -58.5v-97q79 0 129.5 -57t50.5 -141v-361q0 -77 24.5 -107t91.5 -30h179v-256h-211
q-183 0 -258.5 71.5t-75.5 243.5z" />
    <glyph glyph-name="braceright.case" horiz-adv-x="860" 
d="M608 414v-394q0 -172 -75.5 -243.5t-258.5 -71.5h-211v256h179q66 0 91 30t25 107v361q0 84 51 141t130 57v97q-79 1 -130 58.5t-51 141.5v322q0 76 -25.5 106.5t-90.5 30.5h-179v252h211q183 0 258.5 -71t75.5 -242v-351q0 -71 23.5 -96.5t89.5 -25.5h55v-344h-55
q-66 0 -89.5 -26t-23.5 -95z" />
    <glyph glyph-name="bracketleft.case" horiz-adv-x="794" 
d="M737 -295h-549v1960h549v-244h-297v-1470h297v-246z" />
    <glyph glyph-name="bracketright.case" horiz-adv-x="794" 
d="M606 1665v-1960h-549v246h297v1470h-297v244h549z" />
    <glyph glyph-name="parenleft.ss02" horiz-adv-x="636" 
d="M127 602q0 562 403 997l62 -49q-189 -210 -280 -443.5t-91 -504.5q0 -269 91 -502.5t280 -443.5l-62 -51q-403 435 -403 997z" />
    <glyph glyph-name="parenright.ss02" horiz-adv-x="636" 
d="M510 602q0 -561 -404 -997l-61 51q189 210 280 443.5t91 502.5q0 271 -91 504.5t-280 443.5l61 49q404 -436 404 -997z" />
    <glyph glyph-name="braceleft.ss02" horiz-adv-x="718" 
d="M184 -18v507q0 75 -23.5 103.5t-84.5 28.5h-37v131h37q62 0 85 28t23 103v467q0 129 51 188t162 59h252v-86h-243q-69 0 -101.5 -42t-32.5 -134v-473q0 -148 -133 -157v-37q133 -9 133 -158v-516q0 -90 32.5 -132t101.5 -42h243v-86h-252q-111 0 -162 59t-51 189z" />
    <glyph glyph-name="braceright.ss02" horiz-adv-x="718" 
d="M535 489v-507q0 -130 -51 -189t-162 -59h-252v86h243q69 0 101 41.5t32 132.5v516q0 149 134 158v37q-134 9 -134 157v473q0 92 -32 134t-101 42h-243v86h252q111 0 162 -59t51 -188v-467q0 -75 23 -103t85 -28h37v-131h-37q-61 0 -84.5 -28.5t-23.5 -103.5z" />
    <glyph glyph-name="bracketleft.ss02" horiz-adv-x="679" 
d="M633 -266h-465v1863h465v-86h-377v-1691h377v-86z" />
    <glyph glyph-name="bracketright.ss02" horiz-adv-x="679" 
d="M512 1597v-1863h-465v86h377v1691h-377v86h465z" />
    <glyph glyph-name="hyphen.case" horiz-adv-x="923" 
d="M180 567v269h563v-269h-563z" />
    <glyph glyph-name="endash.case" horiz-adv-x="1220" 
d="M111 567v269h999v-269h-999z" />
    <glyph glyph-name="emdash.case" horiz-adv-x="1763" 
d="M88 567v269h1585v-269h-1585z" />
    <glyph glyph-name="hyphen.ss02" horiz-adv-x="839" 
d="M178 565v88h484v-88h-484z" />
    <glyph glyph-name="endash.ss02" horiz-adv-x="1232" 
d="M168 565v88h897v-88h-897z" />
    <glyph glyph-name="emdash.ss02" horiz-adv-x="1816" 
d="M168 565v88h1481v-88h-1481z" />
    <glyph glyph-name="hyphen.case.ss02" horiz-adv-x="839" 
d="M178 668v88h484v-88h-484z" />
    <glyph glyph-name="endash.case.ss02" horiz-adv-x="1232" 
d="M168 668v88h897v-88h-897z" />
    <glyph glyph-name="emdash.case.ss02" horiz-adv-x="1816" 
d="M168 668v88h1481v-88h-1481z" />
    <glyph glyph-name="guillemotleft.case" horiz-adv-x="1280" 
d="M385 737l289 -528h-332l-291 528l291 531h332zM920 737l288 -528h-334l-288 528l288 531h334z" />
    <glyph glyph-name="guillemotright.case" horiz-adv-x="1280" 
d="M403 209h-333l290 528l-290 531h333l291 -531zM938 209h-332l287 528l-287 531h332l291 -531z" />
    <glyph glyph-name="guilsinglleft.case" horiz-adv-x="743" 
d="M393 737l287 -528h-334l-287 528l287 531h334z" />
    <glyph glyph-name="guilsinglright.case" horiz-adv-x="745" 
d="M399 209h-331l286 528l-286 531h331l289 -531z" />
    <glyph glyph-name="quotesinglbase.ss01" horiz-adv-x="524" 
d="M211 -332l-141 72l153 260h-131v307h320v-307z" />
    <glyph glyph-name="quotedblbase.ss01" horiz-adv-x="972" 
d="M211 -332l-141 72l153 260h-131v307h320v-307zM659 -332l-141 72l154 260h-131v307h319v-307z" />
    <glyph glyph-name="quotedblleft.ss01" horiz-adv-x="962" 
d="M276 1473l144 -72l-154 -260h131v-307h-319v307zM727 1473l141 -72l-153 -260h131v-307h-320v307z" />
    <glyph glyph-name="quotedblright.ss01" horiz-adv-x="966" 
d="M209 834l-141 69l153 260h-131v307h320v-307zM659 834l-143 69l154 260h-131v307h319v-307z" />
    <glyph glyph-name="quoteleft.ss01" horiz-adv-x="520" 
d="M309 1473l142 -72l-154 -260h131v-307h-319v307z" />
    <glyph glyph-name="quoteright.ss01" horiz-adv-x="518" 
d="M209 834l-141 69l153 260h-131v307h320v-307z" />
    <glyph glyph-name="hyphen_hyphen.dlig" horiz-adv-x="1480" 
d="M1303 518h-1123v266h1123v-266z" />
    <glyph glyph-name="hyphen_hyphen_greater.dlig" horiz-adv-x="1734" 
d="M823 1159l166 168l641 -641l-641 -639l-166 168l189 186q10 10 21 19.5t27.5 20t26.5 17t34 19.5t33.5 18t42.5 21.5t44 22.5l-35 94q-64 -27 -89.5 -36.5t-81.5 -22t-115 -13.5l-752 -6v256l754 4q26 0 50.5 -2t48.5 -7.5t41 -9.5t41.5 -13t34.5 -13t36 -15.5t32 -13.5
l37 97q-103 49 -151 76t-82 61z" />
    <glyph glyph-name="emdash_emdash.dlig" horiz-adv-x="2650" 
d="M1094 621h-916v110h916l-217 256l22 19l258 -199q16 70 92 70q41 0 64.5 -26.5t17.5 -66.5q6 40 34 66.5t67 26.5q53 0 71 -46l324 269l20 -23l-309 -346h934v-110h-934l217 -252l-22 -19l-258 199q-16 -70 -93 -70q-41 0 -64.5 26t-17.5 66q-6 -40 -33.5 -66t-66.5 -26
q-55 0 -72 45l-323 -268l-21 23z" />
    <glyph glyph-name="parenleft_arrowup_parenright.dlig" horiz-adv-x="2168" 
d="M1085 -223q-198 0 -378.5 77t-310.5 207t-207.5 309t-77.5 375q0 195 77.5 373t207.5 308t310.5 207t378.5 77t378 -77.5t310.5 -207.5t207.5 -308t77 -372q0 -196 -77 -375t-207.5 -309t-310.5 -207t-378 -77zM1085 6q150 0 286 58.5t234.5 157t157 235.5t58.5 288
q0 150 -58.5 286t-157 234.5t-234.5 157t-286 58.5t-287 -58.5t-236 -157t-157.5 -234.5t-58.5 -286q0 -151 58.5 -288t157.5 -235.5t236 -157t287 -58.5zM725 657l-164 164l526 529l523 -529l-164 -164l-86 88q-6 6 -12 13t-11 13.5t-11.5 17t-10.5 17t-11.5 20.5t-11.5 21
t-13 25t-13 26.5t-15 31.5t-16 33l-96 -33q9 -22 27.5 -61t28 -62t18 -61.5t8.5 -81.5v-482h-260v482q0 21 2 42t4 36.5t9 37.5t9 31t12 32.5t12 28t14 31t13 27.5l-98 33q-40 -82 -53 -107.5t-33 -57.5t-41 -53z" />
    <glyph glyph-name="uni0028_uni2197_uni0029.dlig" horiz-adv-x="2168" 
d="M1085 -223q-198 0 -378.5 77t-310.5 207t-207.5 309t-77.5 375q0 195 77.5 373t207.5 308t310.5 207t378.5 77t378 -77.5t310.5 -207.5t207.5 -308t77 -372q0 -196 -77 -375t-207.5 -309t-310.5 -207t-378 -77zM1085 6q150 0 286 58.5t234.5 157t157 235.5t58.5 288
q0 150 -58.5 286t-157 234.5t-234.5 157t-286 58.5t-287 -58.5t-236 -157t-157.5 -234.5t-58.5 -286q0 -151 58.5 -288t157.5 -235.5t236 -157t287 -58.5zM805 979v231h743l-2 -743h-231v125q0 17 2.5 33.5t9 41.5t12 42.5t18.5 58.5t21 66l-88 43q-7 -17 -22 -55.5t-22 -53
t-21 -41t-30.5 -47.5t-39.5 -45l-356 -361l-181 181l355 362q29 29 65 52.5t58 33.5t64.5 26.5t53.5 20.5l-43 90q-104 -36 -154 -48.5t-89 -12.5h-123z" />
    <glyph glyph-name="parenleft_arrowright_parenright.dlig" horiz-adv-x="2168" 
d="M1085 -223q-198 0 -378.5 77t-310.5 207t-207.5 309t-77.5 375q0 195 77.5 373t207.5 308t310.5 207t378.5 77t378 -77.5t310.5 -207.5t207.5 -308t77 -372q0 -196 -77 -375t-207.5 -309t-310.5 -207t-378 -77zM1085 6q150 0 286 58.5t234.5 157t157 235.5t58.5 288
q0 150 -58.5 286t-157 234.5t-234.5 157t-286 58.5t-287 -58.5t-236 -157t-157.5 -234.5t-58.5 -286q0 -151 58.5 -288t157.5 -235.5t236 -157t287 -58.5zM991 1104l162 166l528 -529l-528 -522l-162 166l86 86q16 16 39.5 31.5t41.5 25t64 32.5l72 36l-34 94
q-14 -6 -49.5 -22t-50 -21.5t-43.5 -14.5t-57.5 -12t-64.5 -4l-503 -6v256l503 4q42 0 84.5 -9t63.5 -16t66 -27t51 -23l36 98q-113 51 -154 75t-65 48z" />
    <glyph glyph-name="uni0028_uni2198_uni0029.dlig" horiz-adv-x="2168" 
d="M1085 -223q-198 0 -378.5 77t-310.5 207t-207.5 309t-77.5 375q0 195 77.5 373t207.5 308t310.5 207t378.5 77t378 -77.5t310.5 -207.5t207.5 -308t77 -372q0 -196 -77 -375t-207.5 -309t-310.5 -207t-378 -77zM1085 6q150 0 286 58.5t234.5 157t157 235.5t58.5 288
q0 150 -58.5 286t-157 234.5t-234.5 157t-286 58.5t-287 -58.5t-236 -157t-157.5 -234.5t-58.5 -286q0 -151 58.5 -288t157.5 -235.5t236 -157t287 -58.5zM1319 1065l231 6v-747l-741 2l2 231h123q18 0 36 -2.5t42.5 -10t42.5 -13.5t56.5 -19.5t64.5 -22.5l43 97
q-14 5 -45 16.5t-43 16t-36 15.5t-39 21t-36 26t-41 36l-361 354l179 178l362 -352q24 -23 42.5 -47t33 -52t22 -45t19.5 -50.5t16 -43.5l97 46q-42 106 -56 153.5t-14 85.5v121z" />
    <glyph glyph-name="parenleft_arrowdown_parenright.dlig" horiz-adv-x="2168" 
d="M1085 -223q-198 0 -378.5 77t-310.5 207t-207.5 309t-77.5 375q0 195 77.5 373t207.5 308t310.5 207t378.5 77t378 -77.5t310.5 -207.5t207.5 -308t77 -372q0 -196 -77 -375t-207.5 -309t-310.5 -207t-378 -77zM1085 6q150 0 286 58.5t234.5 157t157 235.5t58.5 288
q0 150 -58.5 286t-157 234.5t-234.5 157t-286 58.5t-287 -58.5t-236 -157t-157.5 -234.5t-58.5 -286q0 -151 58.5 -288t157.5 -235.5t236 -157t287 -58.5zM1087 139l-526 529l164 161l88 -88q28 -28 52.5 -71t72.5 -144l98 35q-4 9 -18.5 39.5t-21 48t-16.5 47.5t-14.5 61
t-4.5 66v484h260v-484q0 -41 -9 -80.5t-16 -58t-29.5 -65.5t-27.5 -58l96 -35l29 58t27.5 54.5t20.5 37.5t24.5 38.5t23.5 26.5l86 88l164 -161z" />
    <glyph glyph-name="uni0028_uni2199_uni0029.dlig" horiz-adv-x="2168" 
d="M1085 -223q-198 0 -378.5 77t-310.5 207t-207.5 309t-77.5 375q0 195 77.5 373t207.5 308t310.5 207t378.5 77t378 -77.5t310.5 -207.5t207.5 -308t77 -372q0 -196 -77 -375t-207.5 -309t-310.5 -207t-378 -77zM1085 6q150 0 286 58.5t234.5 157t157 235.5t58.5 288
q0 150 -58.5 286t-157 234.5t-234.5 157t-286 58.5t-287 -58.5t-236 -157t-157.5 -234.5t-58.5 -286q0 -151 58.5 -288t157.5 -235.5t236 -157t287 -58.5zM649 303v746l236 -2l-2 -123q0 -36 -13 -82.5t-57 -161.5l98 -43q3 8 18.5 52.5t25 64.5t33 57t54.5 68l361 352
l180 -180l-362 -357q-24 -23 -46.5 -40.5t-51.5 -32.5t-42 -21t-51.5 -21t-46.5 -18l45 -90q21 7 62.5 21t58 19.5t42.5 13t43 10t34 2.5h125l2 -232z" />
    <glyph glyph-name="parenleft_arrowleft_parenright.dlig" horiz-adv-x="2168" 
d="M1085 -229q-198 0 -378.5 77t-310.5 207t-207.5 309t-77.5 375q0 195 77.5 373.5t207.5 308t310.5 206.5t378.5 77t378 -77t310.5 -207t207.5 -308t77 -373t-77 -374t-207.5 -309t-310.5 -207.5t-378 -77.5zM1085 2q150 0 286 58t234.5 156.5t157 235t58.5 287.5
q0 150 -58.5 286.5t-157 235.5t-235 157.5t-285.5 58.5q-150 0 -287 -58.5t-236 -157.5t-157.5 -235.5t-58.5 -286.5q0 -151 58.5 -287.5t157.5 -235t236 -156.5t287 -58zM489 737l527 527l162 -164l-86 -88q-19 -20 -53 -41t-58.5 -33t-106.5 -51l35 -99q6 3 35.5 17
t40.5 18.5t39 15t47 14.5t47 7.5t56 3.5l505 -4v-254l-505 4q-28 0 -55.5 4t-45.5 8t-45 13.5t-38 14t-41.5 18.5t-39.5 18l-37 -96q18 -9 51 -25t46.5 -23t36 -18.5t34.5 -19.5t25.5 -18t24.5 -21l88 -86l-162 -164z" />
    <glyph glyph-name="uni0028_uni2196_uni0029.dlig" horiz-adv-x="2168" 
d="M1085 -229q-198 0 -378.5 77t-310.5 207t-207.5 309t-77.5 375q0 195 77.5 373.5t207.5 308t310.5 206.5t378.5 77t378 -77t310.5 -207t207.5 -308t77 -373t-77 -374t-207.5 -309t-310.5 -207.5t-378 -77.5zM1085 2q150 0 286 58t234.5 156.5t157 235t58.5 287.5
q0 150 -58.5 286.5t-157 235.5t-235 157.5t-285.5 58.5q-150 0 -287 -58.5t-236 -157.5t-157.5 -235.5t-58.5 -286.5q0 -151 58.5 -287.5t157.5 -235t236 -156.5t287 -58zM643 1206h743v-233h-122q-65 0 -242 63l-45 -92q15 -6 50.5 -18.5t51.5 -20t43.5 -21t50 -31.5
t46.5 -42l352 -360l-178 -181l-357 361q-24 25 -41.5 48t-31.5 50t-21 42.5t-20.5 50.5t-18.5 48l-90 -43q10 -33 26 -80.5t22.5 -68.5t12 -46.5t5.5 -45.5v-123h-232z" />
    <glyph glyph-name="registered.calt" horiz-adv-x="1832" 
d="M913 -31q-166 0 -313.5 57.5t-256 159t-171.5 250t-63 322.5q0 142 42 265.5t117.5 216t176 159t221 100t249.5 33.5q107 0 208.5 -24t190.5 -68.5t164 -112.5t128.5 -152.5t83.5 -191t30 -225.5q0 -174 -63 -322.5t-172 -250t-257 -159t-315 -57.5zM913 143
q276 0 447.5 169t171.5 444q0 272 -172 438t-445 166q-180 0 -320 -74t-219 -211t-79 -317q0 -276 170.5 -445.5t445.5 -169.5zM809 358h-236v789h449q135 0 206.5 -60t71.5 -165q0 -96 -63 -157t-174 -67v-43q57 -6 89 -32t58 -76l45 -82q31 -64 64 -76v-31h-240
q-28 17 -65 101l-35 80q-22 49 -45 69.5t-66 20.5h-59v-271zM809 973v-189h129q62 0 87.5 24.5t25.5 70.5q0 50 -27.5 72t-85.5 22h-129z" />
    <glyph glyph-name="at.case" horiz-adv-x="2115" 
d="M1092 -295q-216 0 -402 66t-321 184.5t-212 293t-77 382.5q0 206 75.5 384.5t209 305t324.5 198.5t413 72q271 0 483 -102.5t331.5 -293t119.5 -439.5q0 -263 -129.5 -418.5t-331.5 -155.5q-122 0 -196.5 57t-92.5 154h-67q-39 -85 -127 -133.5t-197 -48.5
q-169 0 -270 114.5t-101 307.5q0 219 123 358t311 139q109 0 188.5 -47.5t113.5 -132.5h67l29 158h252l-88 -535q-6 -46 -6 -84.5t22 -64t66 -25.5q94 0 147 99t53 254q0 150 -53 270t-146.5 196.5t-218.5 117t-272 40.5q-229 0 -406.5 -93t-275.5 -260.5t-98 -383.5
q0 -158 55.5 -290.5t156.5 -226t249 -146t327 -52.5q287 0 516 156l103 -189q-117 -88 -287 -137t-360 -49zM1030 459q56 0 101.5 24.5t72.5 67.5l25 203q-15 59 -64 95t-116 36q-92 0 -146.5 -64t-54.5 -164q0 -95 48.5 -146.5t133.5 -51.5z" />
    <glyph glyph-name="ampersand.ss02" horiz-adv-x="1320" 
d="M113 340q0 153 99 271.5t263 164.5q-92 64 -145.5 114.5t-84 112t-30.5 134.5q0 141 99 234t264 93q166 0 262.5 -93t93.5 -228q-1 -63 -25.5 -119t-61 -95t-82.5 -70t-88 -48.5t-79 -24.5l-4 -30q120 -81 280 -226l130 -116q89 115 141 325l88 -39q-57 -214 -197 -317
v-37q86 -65 156.5 -162t97.5 -184h-116q-50 144 -146 274h-39q-49 -135 -180.5 -217t-296.5 -82q-184 0 -291.5 102.5t-107.5 262.5zM307 1143q0 -96 57.5 -163.5t200.5 -164.5q114 69 154 102q125 102 125 232q0 105 -73.5 169t-195.5 64q-124 0 -196 -65t-72 -174z
M207 348q0 -133 85.5 -209t231.5 -76q148 0 261.5 78.5t170.5 204.5l-419 373q-162 -44 -246 -143t-84 -228z" />
    <glyph glyph-name="bar_bar.dlig" horiz-adv-x="1183" 
d="M1051 1434v-562h-918v562h918zM133 0v561h918v-561h-918z" />
    <glyph glyph-name="less_hyphen_hyphen.dlig" horiz-adv-x="1726" 
d="M1579 811v-256l-752 6q-59 1 -115 13.5t-81.5 22t-89.5 36.5l-33 -94q13 -7 50 -26t48 -25t36.5 -20.5t37.5 -22.5t27.5 -20t27.5 -24l191 -186l-168 -168l-641 639l641 641l168 -168l-189 -184q-33 -34 -80.5 -61t-150.5 -76l35 -97q6 2 32 13.5t36 15.5t34.5 13
t41.5 13t41 9.5t48.5 7.5t50.5 2z" />
    <glyph glyph-name="uni0308.ss01" horiz-adv-x="0" 
d="M-922 1231v264h312v-264h-312zM-434 1231v264h311v-264h-311z" />
    <glyph glyph-name="uni0307.ss01" horiz-adv-x="0" 
d="M-428 1231v264h311v-264h-311z" />
    <glyph glyph-name="dotaccent.ss01" horiz-adv-x="544" 
d="M117 1231v264h311v-264h-311z" />
    <glyph glyph-name="dieresis.ss01" horiz-adv-x="1044" 
d="M123 1231v264h311v-264h-311zM610 1231v264h312v-264h-312z" />
    </font>
</defs>
</svg>
