<?xml version="1.0" standalone="no"?>
<!DOCTYPE svg PUBLIC "-//W3C//DTD SVG 1.1//EN" "http://www.w3.org/Graphics/SVG/1.1/DTD/svg11.dtd" >
<svg xmlns="http://www.w3.org/2000/svg" xmlns:xlink="http://www.w3.org/1999/xlink" version="1.1">
<metadata>
Created by FontForge 20170731 at Wed Dec 14 08:56:27 2022
 By Aleksey,,,
Copyright (c) 2020 by Doni Sukma. All rights reserved.
</metadata>
<defs>
<font id="Bauziet-Norm-MediumItalic" horiz-adv-x="0" >
  <font-face 
    font-family="Medium"
    font-weight="500"
    font-style="italic"
    font-stretch="normal"
    units-per-em="2048"
    panose-1="0 0 6 0 0 0 0 0 0 0"
    ascent="1495"
    descent="-553"
    x-height="1085"
    cap-height="1434"
    bbox="-795 -532 3231.25 2056"
    underline-thickness="102"
    underline-position="-307"
    slope="-8"
    unicode-range="U+0020-1F642"
  />
<missing-glyph horiz-adv-x="2144" 
d="M1845 0h-1720l31 172q75 0 121 27t65 106l156 897q5 40 -3.5 65.5t-31.5 36.5t-47 14.5t-60 2.5l33 172l531 2l-29 -172h-9.5h-14t-16.5 -1t-19.5 -3t-20.5 -6t-20.5 -10t-19 -15.5t-17.5 -21t-13.5 -28t-9.5 -36.5l-149 -811q-17 -95 -37 -148t-62 -89l29 -37
q40 33 96.5 49t94.5 18t112 2h674q32 0 47.5 0.5t40.5 3.5t38 10.5t28.5 20.5t24.5 34t15 50l33 201h201zM1624 1278q0 59 35.5 94t93.5 35q57 0 91 -34.5t34 -94.5q0 -55 -34.5 -90t-90.5 -35q-57 0 -93 35.5t-36 89.5zM1655 1282q0 -49 26 -77.5t72 -28.5q43 0 68.5 29
t25.5 73q0 47 -25 74.5t-69 27.5q-48 0 -73 -26t-25 -72zM1735 1217h-27v124h55q18 0 32.5 -10t14.5 -31q0 -13 -7.5 -23.5t-18.5 -12.5l26 -47h-30l-21 43h-24v-43zM1735 1319v-41h24q9 0 17 5.5t8 12.5q0 23 -21 23h-28zM1096 336h-394l31 168h228l6 37q-91 46 -138 128
t-47 183q0 183 131.5 303.5t343.5 120.5q192 0 310.5 -100.5t118.5 -264.5q0 -132 -77.5 -233.5t-203.5 -136.5l-8 -37h209l-23 -168h-397l41 246q120 19 195 99.5t75 190.5q0 106 -67 169t-179 63q-126 0 -205 -78t-79 -199q0 -91 47 -157t123 -88z" />
    <glyph glyph-name="fi" unicode="fi" horiz-adv-x="1359" 
d="M1051 1401q0 71 49.5 117.5t122.5 46.5q66 0 107.5 -39.5t41.5 -102.5q0 -73 -49.5 -119.5t-122.5 -46.5q-66 0 -107.5 40.5t-41.5 103.5zM319 887h-227l29 198h227l17 111q42 320 403 320q76 0 127 -15l4 -196q-43 12 -106 12q-96 0 -141.5 -32.5t-55.5 -123.5l-10 -76
h698l-151 -1085h-236l125 887h-465l-125 -887h-237z" />
    <glyph glyph-name="f_f.liga" unicode="ff" horiz-adv-x="1529" 
d="M319 887h-227l29 198h227l17 111q42 320 403 320q76 0 127 -15l4 -196q-43 12 -106 12q-96 0 -141.5 -32.5t-55.5 -123.5l-10 -76h444l14 111q42 320 404 320q76 0 127 -15l4 -196q-44 12 -104 12q-96 0 -142 -32.5t-57 -123.5l-10 -76h307l-29 -198h-307l-125 -887h-235
l124 887h-444l-125 -887h-237z" />
    <glyph glyph-name="f_f_i.liga" unicode="ffi" horiz-adv-x="2039" 
d="M1731 1401q0 71 50 117.5t122 46.5q67 0 109 -39.5t42 -102.5q0 -72 -50 -119t-122 -47q-66 0 -108.5 40.5t-42.5 103.5zM319 887h-227l29 198h227l17 111q42 320 403 320q76 0 127 -15l4 -196q-43 12 -106 12q-96 0 -141.5 -32.5t-55.5 -123.5l-10 -76h444l14 111
q42 320 404 320q76 0 127 -15l4 -196q-44 12 -104 12q-96 0 -142 -32.5t-57 -123.5l-10 -76h700l-151 -1085h-236l123 887h-465l-125 -887h-235l124 887h-444l-125 -887h-237z" />
    <glyph glyph-name="f_t.liga" unicode="ft" horiz-adv-x="1562" 
d="M319 887h-227l29 198h227l17 111q42 320 403 320q76 0 127 -15l4 -196q-43 12 -106 12q-96 0 -141.5 -32.5t-55.5 -123.5l-10 -76h446l39 275l242 45l-43 -320h309l-29 -198h-309l-78 -547q-13 -85 20.5 -116t106.5 -31q79 0 127 30l-59 -219q-73 -31 -170 -31
q-158 0 -222.5 84t-43.5 230l82 600h-447l-125 -887h-237z" />
    <glyph glyph-name="t_f.liga" unicode="tf" horiz-adv-x="1533" 
d="M291 887h-209l29 198h208l37 275l244 45l-45 -320h479l15 111q44 320 405 320q76 0 127 -15l4 -196q-47 12 -106 12q-96 0 -141 -32.5t-58 -123.5l-8 -76h305l-29 -198h-305l-125 -887h-237l125 887h-480l-77 -547q-11 -85 21.5 -116t104.5 -31q82 0 130 30l-62 -219
q-70 -31 -168 -31q-158 0 -223.5 84t-44.5 230z" />
    <glyph glyph-name="t_i.liga" unicode="ti" horiz-adv-x="1343" 
d="M1034 1401q0 71 49.5 117.5t122.5 46.5q66 0 108 -39.5t42 -102.5q0 -73 -49.5 -119.5t-122.5 -46.5q-66 0 -108 40.5t-42 103.5zM291 887h-209l29 198h208l37 275l242 45l-45 -320h715l-152 -1085h-235l125 887h-482l-78 -547q-11 -85 22 -116t105 -31q81 0 129 30
l-61 -219q-70 -31 -168 -31q-157 0 -222 84t-44 230z" />
    <glyph glyph-name="t_t.liga" unicode="tt" horiz-adv-x="1515" 
d="M291 887h-209l29 198h208l37 275l244 45l-45 -320h430l37 275l244 45l-45 -320h311l-29 -198h-311l-78 -547q-11 -85 22 -116t105 -31q81 0 129 30l-61 -219q-70 -31 -168 -31q-158 0 -224 84t-45 230l84 600h-430l-77 -547q-11 -85 21.5 -116t104.5 -31q82 0 130 30
l-62 -219q-70 -31 -168 -31q-158 0 -223.5 84t-44.5 230z" />
    <glyph glyph-name="t_t_i.liga" unicode="tti" horiz-adv-x="1998" 
d="M1690 1401q0 71 50 117.5t122 46.5q67 0 109 -39.5t42 -102.5q0 -72 -50 -119t-122 -47q-66 0 -108.5 40.5t-42.5 103.5zM291 887h-209l29 198h208l37 275l244 45l-45 -320h430l37 275l244 45l-45 -320h704l-151 -1085h-236l123 887h-469l-78 -547q-11 -85 22 -116
t105 -31q81 0 129 30l-61 -219q-70 -31 -168 -31q-158 0 -224 84t-45 230l84 600h-430l-77 -547q-11 -85 21.5 -116t104.5 -31q82 0 130 30l-62 -219q-70 -31 -168 -31q-158 0 -223.5 84t-44.5 230z" />
    <glyph glyph-name=".notdef" horiz-adv-x="2144" 
d="M1845 0h-1720l31 172q75 0 121 27t65 106l156 897q5 40 -3.5 65.5t-31.5 36.5t-47 14.5t-60 2.5l33 172l531 2l-29 -172h-9.5h-14t-16.5 -1t-19.5 -3t-20.5 -6t-20.5 -10t-19 -15.5t-17.5 -21t-13.5 -28t-9.5 -36.5l-149 -811q-17 -95 -37 -148t-62 -89l29 -37
q40 33 96.5 49t94.5 18t112 2h674q32 0 47.5 0.5t40.5 3.5t38 10.5t28.5 20.5t24.5 34t15 50l33 201h201zM1624 1278q0 59 35.5 94t93.5 35q57 0 91 -34.5t34 -94.5q0 -55 -34.5 -90t-90.5 -35q-57 0 -93 35.5t-36 89.5zM1655 1282q0 -49 26 -77.5t72 -28.5q43 0 68.5 29
t25.5 73q0 47 -25 74.5t-69 27.5q-48 0 -73 -26t-25 -72zM1735 1217h-27v124h55q18 0 32.5 -10t14.5 -31q0 -13 -7.5 -23.5t-18.5 -12.5l26 -47h-30l-21 43h-24v-43zM1735 1319v-41h24q9 0 17 5.5t8 12.5q0 23 -21 23h-28zM1096 336h-394l31 168h228l6 37q-91 46 -138 128
t-47 183q0 183 131.5 303.5t343.5 120.5q192 0 310.5 -100.5t118.5 -264.5q0 -132 -77.5 -233.5t-203.5 -136.5l-8 -37h209l-23 -168h-397l41 246q120 19 195 99.5t75 190.5q0 106 -67 169t-179 63q-126 0 -205 -78t-79 -199q0 -91 47 -157t123 -88z" />
    <glyph glyph-name=".null" 
 />
    <glyph glyph-name="nonmarkingreturn" horiz-adv-x="682" 
 />
    <glyph glyph-name="space" unicode=" " horiz-adv-x="540" 
 />
    <glyph glyph-name="exclam" unicode="!" horiz-adv-x="681" 
d="M383 487h-104l14 605l49 342h246l-49 -342zM281 -27q-71 0 -114.5 41.5t-43.5 106.5q0 73 50 116.5t122 43.5q71 0 115.5 -42.5t44.5 -109.5q0 -71 -50 -113.5t-124 -42.5z" />
    <glyph glyph-name="quotedbl" unicode="&#x22;" horiz-adv-x="831" 
d="M145 870l80 564h207l-80 -564h-207zM573 870l80 564h207l-80 -564h-207z" />
    <glyph glyph-name="numbersign" unicode="#" horiz-adv-x="1466" 
d="M401 0h-200l57 195q35 125 121 204l-37 47q-77 -77 -225 -77h-51v178h288l103 360h-246v180h293l98 347h203l-53 -172q-36 -127 -121 -205l37 -47q77 77 235 77h111l96 347h205l-49 -166q-23 -81 -51.5 -125.5t-73.5 -85.5l37 -47q77 77 225 77h51v-180h-289l-102 -360
h244v-178h-291l-105 -369h-200l55 188q36 134 123 211l-39 47q-32 -33 -90 -55t-133 -22h-121zM657 907l-104 -360h309l105 360h-310z" />
    <glyph glyph-name="dollar" unicode="$" horiz-adv-x="1454" 
d="M76 461l246 41q5 -119 85 -207t201 -107l64 443q-56 14 -96 25.5t-92 31t-88.5 39.5t-74.5 51t-61 66t-38 83.5t-15 104.5q0 196 161 313t423 119q-3 105 14 211h186q-19 -139 -45 -217q199 -33 327 -146.5t148 -283.5l-245 -51q-14 113 -82.5 180t-175.5 90l-58 -411
l41 -11q40 -9 67 -15.5t67 -18.5t68 -24t62.5 -31t58.5 -40t49 -50t39.5 -62t24 -76t9.5 -92q0 -205 -165.5 -328.5t-445.5 -124.5q3 -96 -14 -209h-186q17 121 45 221q-227 37 -357 160.5t-147 325.5zM461 1077q0 -85 57.5 -131.5t186.5 -75.5l28 195q21 157 101 213
l-23 68q-174 -24 -262 -94t-88 -175zM680 158l12 -68q177 6 286 82t109 201q0 56 -17.5 95t-55.5 64t-79.5 39.5t-107.5 28.5l-32 -221q-11 -87 -37 -139t-78 -82z" />
    <glyph glyph-name="percent" unicode="%" horiz-adv-x="1687" 
d="M1100 -18q-169 0 -273 100t-104 264q0 80 43 178l-57 13q-102 -219 -207 -334l-187 -203h-206l4 20l342 375q152 164 340 279l-33 51q-74 -74 -207 -74q-152 0 -244 105.5t-92 279.5q0 197 115.5 318t304.5 121q169 0 272 -100.5t103 -264.5q0 -82 -41 -180l55 -10
q105 220 209 331l186 203h207l-4 -20l-342 -375q-69 -75 -161 -149t-181 -128l35 -53q74 74 205 74q153 0 245.5 -105.5t92.5 -277.5q0 -198 -115.5 -318t-304.5 -120zM600 807q102 0 161.5 77t59.5 201q0 112 -48 170t-134 58q-101 0 -160 -77t-59 -202q0 -112 47.5 -169.5
t132.5 -57.5zM1100 141q101 0 160 78t59 203q0 111 -48 168t-134 57q-101 0 -160 -76.5t-59 -201.5q0 -111 48 -169.5t134 -58.5z" />
    <glyph glyph-name="ampersand" unicode="&#x26;" horiz-adv-x="1452" 
d="M84 342q0 164 111 285t294 161q-84 74 -124.5 147t-40.5 163q0 169 126 269.5t310 100.5q175 0 281 -90t106 -233q0 -142 -106 -238.5t-287 -115.5l-15 -62q154 -89 232 -162l73 -69q103 119 170 284l209 -77q-44 -95 -114.5 -167t-153.5 -102l-18 -47
q81 -88 128.5 -190.5t53.5 -198.5h-258q-21 132 -66 223h-51q-62 -123 -183.5 -190.5t-268.5 -67.5q-186 0 -297 104.5t-111 272.5zM553 1108q0 -58 35 -112.5t112 -116.5q107 41 167.5 98.5t60.5 142.5q0 75 -50 121.5t-128 46.5q-86 0 -141.5 -50.5t-55.5 -129.5zM338 385
q0 -96 61 -153.5t166 -57.5q102 0 186 51t123 133l-276 297q-122 -24 -191 -97.5t-69 -172.5z" />
    <glyph glyph-name="quotesingle" unicode="'" horiz-adv-x="403" 
d="M145 870l80 564h207l-80 -564h-207z" />
    <glyph glyph-name="parenleft" unicode="(" horiz-adv-x="798" 
d="M168 428q0 313 143.5 618t413.5 568l135 -115q-73 -74 -136 -153t-128 -186t-111 -218.5t-75 -251.5t-29 -284q0 -371 227 -699l-149 -102q-291 377 -291 823z" />
    <glyph glyph-name="parenright" unicode=")" horiz-adv-x="806" 
d="M659 778q0 -314 -143 -618t-414 -568l-137 115q72 73 134 150t127.5 184.5t112 220t76 254t29.5 287.5q0 370 -227 696l150 103q292 -378 292 -824z" />
    <glyph glyph-name="asterisk" unicode="*" horiz-adv-x="1032" 
d="M500 1059l-2 16q-66 8 -123.5 22t-87 24.5t-78.5 29.5l78 156q50 -17 76 -27t74.5 -37t99.5 -65l16 8q-2 22 -3.5 43.5t-2.5 37.5t-1 36v31t1.5 30.5l2 26t3 27t3 23.5t4 25t3.5 23h174q-6 -53 -10 -81t-20 -90.5t-41 -129.5l10 -10q144 91 285 129l36 -156
q-64 -22 -92 -31t-88 -23t-127 -22l-6 -18q105 -94 190 -223l-153 -105q-2 3 -13.5 20t-14.5 22t-13.5 21t-15.5 25t-14 25.5t-15.5 30.5t-14.5 32.5t-15.5 39t-14.5 42.5h-19q-88 -138 -204 -258l-123 105q52 55 72.5 75.5t71 63.5t112.5 86z" />
    <glyph glyph-name="plus" unicode="+" horiz-adv-x="1327" 
d="M793 780h450l-24 -180h-451l-63 -457h-189l64 457h-453l25 180h452l64 455h188z" />
    <glyph glyph-name="comma" unicode="," horiz-adv-x="561" 
d="M285 -51l-189 -234l-104 80l147 187q-47 14 -74.5 51t-27.5 88q0 72 51.5 116t122.5 44q69 0 113.5 -43t44.5 -109q0 -48 -18.5 -85.5t-65.5 -94.5z" />
    <glyph glyph-name="hyphen" unicode="-" horiz-adv-x="768" 
d="M117 559l28 209h539l-29 -209h-538z" />
    <glyph glyph-name="period" unicode="." horiz-adv-x="641" 
d="M254 -27q-73 0 -116.5 41.5t-43.5 106.5q0 73 50.5 116.5t123.5 43.5q70 0 114 -43t44 -109q0 -71 -49.5 -113.5t-122.5 -42.5z" />
    <glyph glyph-name="slash" unicode="/" horiz-adv-x="972" 
d="M-51 0l868 1434h256l-868 -1434h-256z" />
    <glyph glyph-name="zero" unicode="0" horiz-adv-x="1425" 
d="M696 -37q-261 0 -416 181.5t-155 500.5q0 243 82 430.5t231.5 290t343.5 102.5q261 0 416.5 -181.5t155.5 -500.5q0 -243 -82.5 -430.5t-232 -290t-343.5 -102.5zM700 182q187 0 298.5 164t111.5 438q0 218 -89 341.5t-243 123.5q-187 0 -299 -164t-112 -438
q0 -220 88.5 -342.5t244.5 -122.5z" />
    <glyph glyph-name="one" unicode="1" horiz-adv-x="1013" 
d="M649 0h-239l100 735q19 147 51 234.5t111 169.5l-60 65q-163 -183 -428 -215l33 211q294 57 457 234h176z" />
    <glyph glyph-name="two" unicode="2" horiz-adv-x="1269" 
d="M1094 0h-1069l28 193l606 405q185 124 256.5 222t71.5 206q0 111 -71.5 174.5t-192.5 63.5q-146 0 -241 -85t-105 -243l-227 22q25 235 184.5 372.5t402.5 137.5q219 0 355.5 -115.5t136.5 -312.5q0 -177 -108.5 -316.5t-338.5 -277.5q-216 -146 -442 -260l37 -88
q225 107 461 107h286z" />
    <glyph glyph-name="three" unicode="3" horiz-adv-x="1347" 
d="M653 -35q-267 0 -420 131t-153 367l221 37q-1 -158 94.5 -245t263.5 -87q156 0 246 74t90 198q0 99 -67 152t-189 53h-190l24 178h179q140 0 219.5 60t79.5 168q0 101 -74.5 159t-206.5 58q-150 0 -244 -73.5t-120 -193.5l-211 62q42 189 201 296t392 107q234 0 369 -105
t135 -276q0 -124 -73.5 -209t-208.5 -114l-11 -76q109 -24 170.5 -100t61.5 -193q0 -197 -161 -312.5t-417 -115.5z" />
    <glyph glyph-name="four" unicode="4" horiz-adv-x="1454" 
d="M1061 0h-240l41 311h-831l28 191l928 932h275l-127 -922h231l-29 -201h-235zM1006 1229l-711 -725l47 -60q87 68 281 68h270l51 358q24 192 117 291z" />
    <glyph glyph-name="five" unicode="5" horiz-adv-x="1374" 
d="M66 408l225 49q23 -130 126 -208.5t255 -78.5q160 0 257 86.5t97 235.5q0 129 -83 207.5t-224 78.5q-103 0 -205 -43.5t-174 -118.5l-184 62l209 756h915l-31 -205h-714l-43 -152q-11 -45 -37.5 -96t-47.5 -81t-55 -73l56 -53q66 86 176 134t227 48q207 0 333 -127
t126 -333q0 -240 -164.5 -385.5t-439.5 -145.5q-247 0 -409.5 122.5t-190.5 320.5z" />
    <glyph glyph-name="six" unicode="6" horiz-adv-x="1441" 
d="M731 -35q-289 0 -449.5 180t-160.5 484q0 244 98 436t269.5 297.5t385.5 105.5q211 0 353.5 -97.5t181.5 -262.5l-248 -59q-25 99 -106.5 156t-204.5 57q-205 0 -337 -154.5t-144 -411.5l61 -10q65 114 194 183t273 69q195 0 314.5 -120t119.5 -326q0 -157 -76.5 -277.5
t-212.5 -185t-311 -64.5zM745 170q154 0 248 86.5t94 230.5q0 130 -80 202.5t-216 72.5q-123 0 -239 -63.5t-185 -168.5q10 -166 113.5 -263t264.5 -97z" />
    <glyph glyph-name="seven" unicode="7" horiz-adv-x="1228" 
d="M588 1227h-422l31 207h1101l-26 -187l-811 -1247h-277l2 14l582 871q86 135 153 212.5t160 147.5l-53 86q-71 -46 -186 -75t-254 -29z" />
    <glyph glyph-name="eight" unicode="8" horiz-adv-x="1447" 
d="M72 354q0 150 103 250.5t274 122.5l8 68q-111 30 -172.5 99.5t-61.5 174.5q0 125 81 216t217 136t310 45q258 0 401.5 -98t143.5 -264q0 -135 -86.5 -220t-232.5 -104l-8 -67q131 -23 206.5 -107t75.5 -211q0 -140 -84 -238t-228.5 -145t-338.5 -47q-290 0 -449 105.5
t-159 283.5zM457 1042q0 -100 85.5 -155.5t241.5 -55.5q169 0 257.5 62.5t88.5 167.5q0 104 -85.5 157.5t-237.5 53.5q-165 0 -257.5 -62t-92.5 -168zM319 408q0 -119 99.5 -179.5t275.5 -60.5q192 0 296 69t104 193q0 120 -97.5 182t-271.5 62q-188 0 -297 -69t-109 -197z
" />
    <glyph glyph-name="nine" unicode="9" horiz-adv-x="1437" 
d="M756 1468q289 0 449.5 -181t160.5 -492q0 -187 -56.5 -343.5t-156 -262.5t-237.5 -165t-300 -59q-207 0 -352 99t-184 262l246 57q26 -97 110 -154t201 -57q212 0 342 148.5t139 416.5l-61 8q-64 -118 -191 -183.5t-272 -65.5q-197 0 -316.5 119t-119.5 327
q0 239 165.5 382.5t432.5 143.5zM741 1264q-154 0 -248 -87t-94 -233q0 -129 80 -201.5t217 -72.5q130 0 244.5 60t179.5 173q-9 161 -114 261t-265 100z" />
    <glyph glyph-name="colon" unicode=":" horiz-adv-x="686" 
d="M385 750q-71 0 -114.5 41t-43.5 106q0 73 50 116.5t122 43.5q71 0 115.5 -42.5t44.5 -109.5q0 -71 -50.5 -113t-123.5 -42zM276 -27q-71 0 -114 41.5t-43 106.5q0 73 50 116.5t122 43.5q71 0 115.5 -42.5t44.5 -109.5q0 -71 -50 -113.5t-125 -42.5z" />
    <glyph glyph-name="semicolon" unicode=";" horiz-adv-x="684" 
d="M387 750q-73 0 -115.5 41t-42.5 106q0 73 50 116.5t122 43.5q71 0 115.5 -42.5t44.5 -109.5q0 -71 -50.5 -113t-123.5 -42zM367 -51l-189 -232l-104 80l149 185q-47 14 -74.5 51.5t-27.5 89.5q0 71 50.5 114.5t121.5 43.5q70 0 115 -43t45 -109q0 -48 -19 -84.5
t-67 -95.5z" />
    <glyph glyph-name="less" unicode="&#x3c;" horiz-adv-x="1241" 
d="M1020 434l-31 -221l-823 336l39 274l915 334l-30 -221l-381 -129q-199 -67 -316 -86l-8 -72q106 -18 289 -84z" />
    <glyph glyph-name="equal" unicode="=" horiz-adv-x="1177" 
d="M209 1018h895l-25 -182h-897zM141 543h895l-24 -181h-895z" />
    <glyph glyph-name="greater" unicode="&#x3e;" horiz-adv-x="1239" 
d="M1065 549l-918 -336l31 221l383 131q11 4 48 15.5t53.5 16.5l49.5 15t55 15.5t51.5 11.5t55.5 10l11 72q-116 20 -289 86l-346 129l31 221l823 -334z" />
    <glyph glyph-name="question" unicode="?" horiz-adv-x="1269" 
d="M741 446h-209l35 261q201 5 309.5 83.5t108.5 225.5q0 116 -68.5 182t-189.5 66q-123 0 -210 -66.5t-118 -177.5l-213 53q50 182 207.5 288.5t364.5 106.5q215 0 344 -118.5t129 -307.5q0 -192 -125.5 -313.5t-345.5 -144.5zM594 -27q-67 0 -108.5 41t-41.5 105
q0 73 50 117.5t118 44.5q67 0 108.5 -42t41.5 -106q0 -74 -48.5 -117t-119.5 -43z" />
    <glyph glyph-name="at" unicode="@" horiz-adv-x="2123" 
d="M989 -334q-192 0 -357 62t-284 173.5t-186.5 276t-67.5 361.5q0 219 80.5 404.5t222.5 313.5t339.5 199.5t426.5 71.5q194 0 360.5 -56.5t284.5 -157t185 -245.5t67 -315q0 -138 -40 -256t-107.5 -196.5t-156 -122.5t-185.5 -44q-105 0 -171 50.5t-85 140.5h-60
q-52 -80 -153.5 -130.5t-218.5 -50.5q-162 0 -258.5 105t-96.5 280q0 122 40.5 226t109 174.5t161 110.5t195.5 40q123 0 209 -51t117 -139h59l54 164h200l-162 -531q-33 -103 -11.5 -160t95.5 -57q117 0 198 122t81 308q0 274 -195.5 447.5t-517.5 173.5
q-257 0 -455 -103.5t-305.5 -288.5t-107.5 -423q0 -218 96 -379.5t259 -243.5t370 -82q155 0 303.5 43.5t265.5 122.5l68 -154q-115 -83 -298 -133.5t-368 -50.5zM1004 340q75 0 138.5 30.5t106.5 86.5l68 258q-15 82 -74 127t-151 45q-135 0 -221.5 -92t-86.5 -230
q0 -106 59.5 -165.5t160.5 -59.5z" />
    <glyph glyph-name="A" unicode="A" horiz-adv-x="1458" 
d="M1348 0h-248l-60 256h-690l-131 -256h-262l758 1434h278zM631 807l-172 -338h530l-65 281q-53 233 -60 438h-78q-49 -175 -155 -381z" />
    <glyph glyph-name="B" unicode="B" horiz-adv-x="1398" 
d="M1026 793l-10 -80q121 -15 185.5 -89.5t64.5 -187.5q0 -204 -140.5 -320t-380.5 -116h-663l201 1434h688q165 0 256.5 -79.5t91.5 -217.5q0 -135 -76 -226t-217 -118zM872 1221h-380l-52 -377h377q124 0 187 58.5t63 164.5q0 154 -195 154zM354 213h383q147 0 220 67.5
t73 190.5q0 178 -217 178h-399z" />
    <glyph glyph-name="C" unicode="C" horiz-adv-x="1617" 
d="M131 682q0 179 59.5 328t162.5 249t243 155.5t299 55.5q256 0 431.5 -134t219.5 -361l-239 -62q-25 152 -140.5 244t-285.5 92q-225 0 -361.5 -155.5t-136.5 -401.5q0 -230 123 -368t328 -138q179 0 303.5 97t158.5 258l230 -58q-46 -233 -239 -375.5t-462 -142.5
q-149 0 -276 49t-220 139t-145.5 226.5t-52.5 302.5z" />
    <glyph glyph-name="D" unicode="D" horiz-adv-x="1452" 
d="M283 1434h491q287 0 445.5 -173.5t158.5 -474.5q0 -179 -56 -326.5t-156 -248t-241 -156t-309 -55.5h-534zM360 219h269q233 0 368.5 152t135.5 407q0 209 -99 322.5t-270 113.5h-268z" />
    <glyph glyph-name="E" unicode="E" horiz-adv-x="1198" 
d="M1243 1434l-31 -220h-718l-52 -380h660l-31 -203h-657l-58 -412h721l-33 -219h-962l201 1434h960z" />
    <glyph glyph-name="F" unicode="F" horiz-adv-x="1165" 
d="M82 0l201 1434h968l-32 -220h-723l-62 -446h690l-32 -209h-689l-77 -559h-244z" />
    <glyph glyph-name="G" unicode="G" horiz-adv-x="1613" 
d="M131 668q0 169 55.5 316.5t154 254.5t241.5 168t311 61q257 0 433 -130.5t214 -350.5l-237 -61q-23 146 -137 233.5t-283 87.5q-228 0 -366 -157t-138 -408q0 -235 122 -369.5t318 -134.5q162 0 277.5 87t152.5 229l8 49h-430l27 184h635l-100 -727h-201l2 20
q2 12 9 31.5t15.5 38t25 56.5t28.5 67l-76 35q-59 -130 -173.5 -205.5t-268.5 -75.5q-126 0 -238.5 49t-197 137.5t-134 222t-49.5 292.5z" />
    <glyph glyph-name="H" unicode="H" horiz-adv-x="1458" 
d="M82 0l201 1434h243l-80 -586h654l82 586h243l-200 -1434h-246l86 621h-653l-86 -621h-244z" />
    <glyph glyph-name="I" unicode="I" horiz-adv-x="602" 
d="M104 0l201 1434h242l-201 -1434h-242z" />
    <glyph glyph-name="J" unicode="J" horiz-adv-x="1204" 
d="M59 481l7 51l241 39l-10 -67q-21 -158 40.5 -239t186.5 -81q59 0 105.5 20t76 51t51.5 77t33 89.5t19 96.5l129 916h244l-135 -955q-36 -255 -167 -384.5t-366 -129.5q-238 0 -359.5 139.5t-95.5 376.5z" />
    <glyph glyph-name="K" unicode="K" horiz-adv-x="1357" 
d="M82 0l201 1434h243l-45 -330q-14 -115 -42.5 -193.5t-90.5 -154.5l53 -56l717 734h322l-629 -629l424 -805h-281l-321 647h-4l-248 -239l-55 -408h-244z" />
    <glyph glyph-name="L" unicode="L" horiz-adv-x="1132" 
d="M82 0l201 1434h243l-166 -1213h687l-33 -221h-932z" />
    <glyph glyph-name="M" unicode="M" horiz-adv-x="1843" 
d="M317 0h-235l201 1434h391l157 -736q27 -213 17 -370h74q34 157 90 290l393 816h403l-200 -1434h-234l80 567q46 315 166 613l-102 28l-566 -1208h-219l-223 1208l-107 -28q34 -328 0 -566z" />
    <glyph glyph-name="N" unicode="N" horiz-adv-x="1490" 
d="M82 0l201 1434h264l514 -1078h6l147 1078h244l-201 -1434h-264l-516 1069h-6l-145 -1069h-244z" />
    <glyph glyph-name="O" unicode="O" horiz-adv-x="1656" 
d="M129 662q0 232 97.5 416t273.5 287t399 103q303 0 490.5 -190.5t187.5 -507.5q0 -232 -97 -416t-272.5 -287.5t-398.5 -103.5q-303 0 -491.5 191t-188.5 508zM377 678q0 -227 120.5 -360.5t321.5 -133.5q225 0 367.5 156t142.5 414q0 228 -120 361.5t-322 133.5
q-226 0 -368 -156t-142 -415z" />
    <glyph glyph-name="P" unicode="P" horiz-adv-x="1376" 
d="M283 1434h655q193 0 304.5 -110t111.5 -310q0 -240 -153.5 -375t-420.5 -135h-385l-69 -504h-244zM426 719h377q151 0 228 74.5t77 201.5q0 111 -60.5 167.5t-160.5 56.5h-391z" />
    <glyph glyph-name="Q" unicode="Q" horiz-adv-x="1662" 
d="M131 668q0 231 96 414t271.5 285.5t400.5 102.5q202 0 356.5 -87t239 -244.5t84.5 -362.5q0 -279 -143 -469t-387 -246l-7 -75q126 -3 242 -55.5t180 -139.5l-192 -117q-105 126 -216.5 200t-193.5 95q-25 -2 -63 -2q-144 0 -267.5 50t-212 140t-138.5 221.5t-50 289.5z
M379 678q0 -226 120 -360t322 -134q229 0 369.5 157.5t140.5 410.5q0 225 -119.5 361t-324.5 136q-229 0 -368.5 -157t-139.5 -414z" />
    <glyph glyph-name="R" unicode="R" horiz-adv-x="1366" 
d="M1354 1059q0 -187 -126 -296.5t-343 -123.5l-8 -76q94 -26 142 -78.5t79 -158.5l49 -170q31 -104 78 -131l-4 -25h-271q-29 49 -39 96l-61 223q-60 216 -258 216h-193l-73 -535h-244l201 1434h665q195 0 300.5 -97.5t105.5 -277.5zM430 750h393q130 0 203.5 70.5
t73.5 189.5q0 107 -57.5 158t-155.5 51h-391z" />
    <glyph glyph-name="S" unicode="S" horiz-adv-x="1339" 
d="M74 432l241 39q10 -145 107.5 -222t255.5 -77q148 0 224.5 55.5t76.5 159.5q0 50 -19 87t-59 63t-88 43t-119 34q-63 14 -111.5 28t-101.5 34t-91.5 42t-75 54t-59.5 69t-36.5 86t-13.5 107q0 202 147 318t385 116q237 0 391.5 -118.5t180.5 -315.5l-240 -49
q-18 133 -113.5 205t-232.5 72q-126 0 -196 -54t-70 -145q0 -29 7.5 -52.5t19 -42t37 -35t50.5 -29t70 -26t85.5 -24.5t107.5 -27q65 -17 113 -33.5t104.5 -49.5t92.5 -74t60.5 -107t24.5 -149q0 -210 -149.5 -329.5t-411.5 -119.5t-421 128.5t-173 338.5z" />
    <glyph glyph-name="T" unicode="T" horiz-adv-x="1265" 
d="M170 1434h1182l-35 -220h-469l-168 -1214h-244l168 1214h-467z" />
    <glyph glyph-name="U" unicode="U" horiz-adv-x="1447" 
d="M154 563l120 871h242l-121 -869q-27 -192 49.5 -286.5t239.5 -94.5t253.5 77.5t117.5 268.5l125 904h243l-131 -938q-73 -531 -614 -531q-104 0 -191 22.5t-157.5 68.5t-114.5 117t-62 168t1 222z" />
    <glyph glyph-name="V" unicode="V" horiz-adv-x="1464" 
d="M156 1434h245l160 -682q77 -335 80 -506h88q55 192 199 485l358 703h277l-756 -1434h-297z" />
    <glyph glyph-name="W" unicode="W" horiz-adv-x="1964" 
d="M285 0l-121 1434h242l43 -574q16 -273 -23 -571h92q43 178 166 456l311 689h205l109 -560q70 -409 65 -585h92q46 313 119 536l205 609h262l-520 -1434h-277l-118 659q-43 279 -35 508h-68q-56 -280 -172 -526l-301 -641h-276z" />
    <glyph glyph-name="X" unicode="X" horiz-adv-x="1437" 
d="M272 0h-305l602 729l-387 705h295l162 -314q75 -158 80 -272h90q34 109 147 274l242 312h307l-579 -709l393 -725h-293l-164 311q-32 66 -58.5 153.5t-31.5 141.5h-88q-41 -119 -143 -262z" />
    <glyph glyph-name="Y" unicode="Y" horiz-adv-x="1400" 
d="M582 555l-426 879h272l137 -304q104 -264 111 -382h94q15 56 73.5 159.5t147.5 229.5l219 297h289l-674 -879l-75 -555h-244z" />
    <glyph glyph-name="Z" unicode="Z" horiz-adv-x="1306" 
d="M1141 0h-1131l29 203l975 1057l-51 63q-122 -109 -338 -109h-426l30 220h1096l-33 -203l-977 -1057l52 -63q121 108 338 108h471z" />
    <glyph glyph-name="bracketleft" unicode="[" horiz-adv-x="729" 
d="M518 -328h-493l262 1866h493l-26 -190h-297l-207 -1483h295z" />
    <glyph glyph-name="backslash" unicode="\" horiz-adv-x="831" 
d="M92 1434h232l467 -1434h-232z" />
    <glyph glyph-name="bracketright" unicode="]" horiz-adv-x="722" 
d="M713 1538l-262 -1866h-494l29 193h295l208 1483h-294l24 190h494z" />
    <glyph glyph-name="asciicircum" unicode="^" horiz-adv-x="927" 
d="M369 946h-215l295 549h301l139 -549h-215l-41 184q-22 97 -35 191h-49q-59 -134 -88 -191z" />
    <glyph glyph-name="underscore" unicode="_" horiz-adv-x="1040" 
d="M2 -207l29 207h821l-29 -207h-821z" />
    <glyph glyph-name="grave" unicode="`" horiz-adv-x="448" 
d="M330 1272l-142 291h271l49 -291h-178z" />
    <glyph glyph-name="a" unicode="a" horiz-adv-x="1200" 
d="M1036 156q38 0 60 14l-25 -170q-56 -29 -137 -29q-82 0 -123.5 48t-32.5 131l2 18h-69q-37 -93 -134.5 -148t-224.5 -55q-139 0 -225 80t-86 211q0 150 101.5 240t287.5 122l381 68l2 8q16 121 -46 182.5t-173 61.5q-121 0 -187.5 -57.5t-74.5 -157.5l-223 41
q27 174 161 265t338 91q225 0 348 -121t93 -335l-60 -402q-10 -46 -1 -76t48 -30zM764 330l29 205l-297 -48q-220 -40 -220 -194q0 -70 48 -111t133 -41q100 0 184 53t123 136z" />
    <glyph glyph-name="b" unicode="b" horiz-adv-x="1306" 
d="M688 -35q-282 0 -395 266l-66 -38q34 -120 37 -181v-12h-211l207 1495h236l-25 -176q-8 -54 -20.5 -99.5t-34.5 -94t-32.5 -69t-41.5 -75.5l59 -47q63 88 161 137t208 49q204 0 331.5 -145.5t127.5 -392.5q0 -139 -43 -256.5t-116.5 -195.5t-172 -121.5t-209.5 -43.5z
M643 172q157 0 251.5 108t94.5 287q0 160 -81 253t-218 93q-96 0 -178.5 -47.5t-122.5 -130.5l-43 -334q24 -110 104.5 -169.5t192.5 -59.5z" />
    <glyph glyph-name="c" unicode="c" horiz-adv-x="1247" 
d="M80 512q0 174 73 312t207.5 217t307.5 79q214 0 359 -119.5t167 -308.5l-233 -51q-12 123 -92 195.5t-203 72.5q-156 0 -253.5 -109.5t-97.5 -281.5q0 -163 86 -253.5t228 -90.5q227 0 307 221l213 -84q-52 -160 -195.5 -253t-337.5 -93q-239 0 -387.5 151.5
t-148.5 395.5z" />
    <glyph glyph-name="d" unicode="d" horiz-adv-x="1310" 
d="M530 -35q-205 0 -328.5 144t-123.5 380q0 145 42 265t114.5 199.5t171 123t212.5 43.5q135 0 233.5 -64.5t154.5 -189.5l65 37q-30 93 -33.5 193.5t11.5 193.5l28 205h236l-209 -1495h-195l2 6q5 25 54 146l-60 36q-49 -102 -151 -162.5t-224 -60.5zM629 172
q96 0 173.5 46.5t115.5 121.5l45 344q-33 112 -113.5 170.5t-187.5 58.5q-154 0 -249.5 -109t-95.5 -282q0 -160 83.5 -255t228.5 -95z" />
    <glyph glyph-name="e" unicode="e" horiz-adv-x="1265" 
d="M80 522q0 266 164 432t420 166q239 0 386.5 -146t147.5 -384q0 -45 -12 -127h-862q8 -141 94 -221t231 -80q111 0 194 46t132 126l131 -156q-72 -102 -200 -157.5t-273 -55.5q-252 0 -402.5 151.5t-150.5 405.5zM334 631h629q-6 134 -89 215.5t-217 81.5
q-136 0 -224.5 -80.5t-98.5 -216.5z" />
    <glyph glyph-name="f" unicode="f" horiz-adv-x="847" 
d="M319 887h-227l29 198h227l17 111q42 320 403 320q76 0 127 -15l4 -196q-43 12 -106 12q-96 0 -140.5 -32.5t-56.5 -123.5l-10 -76h307l-29 -198h-307l-125 -887h-237z" />
    <glyph glyph-name="g" unicode="g" horiz-adv-x="1101" 
d="M391 -532q-228 0 -340 65.5t-112 177.5q0 97 65.5 153t169.5 66l10 45q-36 20 -55.5 56t-19.5 80q0 75 50 125.5t136 60.5l6 47q-96 36 -150.5 121.5t-54.5 193.5q0 191 137 308.5t361 117.5h528l11 -174h-64q-87 0 -192 47l-37 -65q69 -34 106 -99.5t37 -152.5
q0 -169 -122 -272t-329 -103h-88q-127 0 -127 -82q0 -64 107 -73l231 -15q306 -20 306 -270q0 -178 -146.5 -268t-423.5 -90zM528 438q116 0 185 71t69 189q0 99 -58 157t-161 58q-116 0 -185 -70t-69 -188q0 -101 58 -159t161 -58zM424 -375q158 0 225.5 40t67.5 114
q0 59 -38 82t-112 28l-288 23q-64 -7 -102 -46t-38 -95q0 -146 285 -146z" />
    <glyph glyph-name="h" unicode="h" horiz-adv-x="1290" 
d="M285 0h-234l211 1495h234l-43 -301q-22 -159 -105 -289l60 -45q82 126 192 193t236 67q193 0 287.5 -132t62.5 -361l-88 -627h-236l82 578q46 331 -211 331q-106 0 -200 -60t-152 -165z" />
    <glyph glyph-name="i" unicode="i" horiz-adv-x="542" 
d="M383 1257q-66 0 -108 40.5t-42 103.5q0 71 50 117.5t123 46.5q66 0 107.5 -39.5t41.5 -102.5q0 -73 -49.5 -119.5t-122.5 -46.5zM80 0l151 1085h236l-152 -1085h-235z" />
    <glyph glyph-name="j" unicode="j" horiz-adv-x="530" 
d="M373 1257q-66 0 -109 40.5t-43 103.5q0 71 49.5 117.5t122.5 46.5q67 0 109.5 -39.5t42.5 -102.5q0 -72 -50 -119t-122 -47zM455 1085l-162 -1175q-29 -209 -137.5 -307.5t-298.5 -98.5q-61 0 -93 13l-4 198q31 -8 78 -8q96 0 151.5 58.5t69.5 164.5l160 1155h236z" />
    <glyph glyph-name="k" unicode="k" horiz-adv-x="1208" 
d="M285 0h-234l211 1495h234l-74 -520q-15 -118 -44 -205.5t-89 -163.5l59 -55q97 115 215 219l359 315h327l-536 -444l395 -641h-287l-289 502h-4l-196 -162z" />
    <glyph glyph-name="l" unicode="l" horiz-adv-x="501" 
d="M57 0l211 1495h236l-211 -1495h-236z" />
    <glyph glyph-name="m" unicode="m" horiz-adv-x="1898" 
d="M285 0h-236l152 1085h207l-2 -18q-4 -62 -56 -172l70 -27q63 129 154 190.5t194 61.5q115 0 191 -65.5t88 -188.5h65q53 121 152.5 187.5t220.5 66.5q173 0 258.5 -121t56.5 -329l-94 -670h-238l88 621q20 142 -23.5 216t-150.5 74q-93 0 -169 -57.5t-119 -151.5
l-99 -702h-235l86 621q20 144 -24 217t-148 73q-93 0 -170 -58t-121 -153z" />
    <glyph glyph-name="n" unicode="n" horiz-adv-x="1288" 
d="M381 684l-96 -684h-236l152 1085h200v-12q-14 -104 -53 -184l70 -37q71 132 178.5 200t228.5 68q196 0 294 -134t67 -359l-88 -627h-236l80 578q23 163 -32 248t-187 85q-99 0 -192.5 -62.5t-149.5 -164.5z" />
    <glyph glyph-name="o" unicode="o" horiz-adv-x="1300" 
d="M80 508q0 273 169 442.5t437 169.5q239 0 387 -148.5t148 -391.5q0 -275 -168.5 -445t-442.5 -170q-237 0 -383.5 149t-146.5 394zM981 567q0 154 -85.5 247t-227.5 93q-156 0 -253.5 -109t-97.5 -280q0 -155 86 -247.5t228 -92.5q157 0 253.5 109.5t96.5 279.5z" />
    <glyph glyph-name="p" unicode="p" horiz-adv-x="1302" 
d="M217 -461h-235l217 1546h194l-2 -6q-14 -56 -53 -145l59 -37q52 102 156 162.5t225 60.5q197 0 322 -145t125 -389q0 -180 -70.5 -322.5t-192.5 -220.5t-272 -78q-138 0 -238 66t-155 188l-66 -37q33 -86 37 -175.5t-10 -156.5zM641 172q153 0 247.5 108.5t94.5 282.5
q0 160 -82 255t-227 95q-96 0 -173.5 -46.5t-115.5 -121.5l-45 -344q33 -112 113.5 -170.5t187.5 -58.5z" />
    <glyph glyph-name="q" unicode="q" horiz-adv-x="1318" 
d="M1042 -461h-235l31 228q9 68 33.5 136.5t40 98t55.5 102.5l-60 48q-63 -88 -160.5 -137.5t-207.5 -49.5q-204 0 -331.5 146t-127.5 393q0 140 42.5 257t116 195t172 121t210.5 43q140 0 240 -68.5t153 -197.5l67 39q-35 124 -37 180v12h211zM618 172q97 0 180 48t122 130
l43 334q-24 111 -105 170t-192 59q-157 0 -253 -108.5t-96 -286.5q0 -161 81 -253.5t220 -92.5z" />
    <glyph glyph-name="r" unicode="r" horiz-adv-x="765" 
d="M381 688l-96 -688h-236l152 1085h198v-14q-6 -85 -57 -182l76 -27q57 127 130 184.5t169 57.5q63 0 90 -17l-14 -213q-55 19 -131 19q-87 0 -164 -54t-117 -151z" />
    <glyph glyph-name="s" unicode="s" horiz-adv-x="1097" 
d="M27 301l190 72q21 -109 107 -167.5t215 -58.5q102 0 155.5 38.5t53.5 109.5q0 31 -11 54t-28.5 39t-53 30t-71 24t-95.5 23q-60 12 -106 25.5t-99 39t-87.5 58.5t-58 84.5t-23.5 115.5q0 155 121 243.5t313 88.5q193 0 326.5 -86.5t162.5 -232.5l-188 -70
q-21 97 -107.5 154t-203.5 57q-89 0 -140 -35.5t-51 -97.5q0 -30 12.5 -52.5t31.5 -38t60.5 -31t79.5 -25.5t107 -27q80 -19 134.5 -40t108 -57t80.5 -92t27 -133q0 -168 -126.5 -258t-330.5 -90q-202 0 -339 91t-166 245z" />
    <glyph glyph-name="t" unicode="t" horiz-adv-x="849" 
d="M475 -25q-158 0 -223.5 84t-44.5 228l84 600h-209l29 198h208l37 275l244 45l-45 -320h311l-28 -198h-312l-77 -553q-11 -83 21 -112t105 -29q83 0 130 30l-62 -221q-69 -27 -168 -27z" />
    <glyph glyph-name="u" unicode="u" horiz-adv-x="1290" 
d="M907 401l97 684h237l-154 -1085h-208l2 12q17 116 61 199l-70 25q-73 -133 -183 -202t-247 -69q-193 0 -282.5 131.5t-57.5 362.5l91 626h235l-82 -577q-23 -164 30 -248t181 -84q110 0 201.5 60.5t148.5 164.5z" />
    <glyph glyph-name="v" unicode="v" horiz-adv-x="1226" 
d="M420 0l-326 1085h256l111 -385q28 -106 43.5 -233t15.5 -229h88q57 206 164 413l240 434h270l-629 -1085h-233z" />
    <glyph glyph-name="w" unicode="w" horiz-adv-x="1669" 
d="M668 381l-170 -381h-277l-125 1085h234l37 -380q11 -145 8 -242.5t-21 -214.5h95q51 201 169 461l179 376h217l78 -378q50 -253 41 -459h92q39 241 116 457l142 380h241l-424 -1085h-270l-74 383q-46 311 -34 494h-84q-14 -74 -42 -161t-51 -145.5t-77 -189.5z" />
    <glyph glyph-name="x" unicode="x" horiz-adv-x="1206" 
d="M-43 0l477 551l-313 534h287l65 -110q31 -60 48.5 -99t34.5 -98.5t22 -118.5h84q62 156 178 302l104 124h293l-463 -534l324 -551h-289l-61 109q-95 180 -113 348h-84q-68 -171 -184 -314l-119 -143h-291z" />
    <glyph glyph-name="y" unicode="y" horiz-adv-x="1222" 
d="M102 -496q-92 0 -149 31l31 213q59 -24 125 -24q156 0 243 165l60 115l-318 1081h254l109 -413q67 -279 67 -430h84q38 112 72.5 195t95.5 202l230 446h272l-711 -1257q-92 -160 -202 -242t-263 -82z" />
    <glyph glyph-name="z" unicode="z" horiz-adv-x="1075" 
d="M598 199h365l-31 -199h-934l29 201l761 712l-45 62q-65 -47 -125.5 -67.5t-148.5 -20.5h-334l29 198h905l-27 -200l-763 -713l45 -61q59 45 119.5 66.5t154.5 21.5z" />
    <glyph glyph-name="braceleft" unicode="{" horiz-adv-x="892" 
d="M199 -35l57 400q9 73 -10.5 100t-83.5 27h-49l39 272h49q63 0 90.5 26.5t36.5 98.5l51 358q22 155 98 223t238 68h196l-28 -197h-172q-65 0 -98.5 -33t-45.5 -116l-47 -342q-11 -79 -63.5 -131t-126.5 -53l-13 -78q74 -2 113 -53.5t27 -133.5l-54 -381
q-11 -82 11.5 -115.5t89.5 -33.5h174l-29 -199h-198q-40 0 -71.5 3.5t-61.5 12t-51 23.5t-39 37t-25 53t-10 71.5t6 92.5z" />
    <glyph glyph-name="bar" unicode="|" horiz-adv-x="747" 
d="M164 -205l229 1639h213l-229 -1639h-213z" />
    <glyph glyph-name="braceright" unicode="}" horiz-adv-x="890" 
d="M586 365l-56 -400q-22 -158 -98 -225.5t-235 -67.5h-199l27 199h174q67 0 99 33.5t44 115.5l53 381q12 82 65 134t126 53l10 78q-72 1 -111 52.5t-28 131.5l49 342q11 79 -10.5 114t-89.5 35h-175l29 197h199q153 0 214.5 -65t37.5 -226l-49 -358q-11 -71 8.5 -98
t83.5 -27h49l-39 -272h-47q-64 0 -92 -27.5t-39 -99.5z" />
    <glyph glyph-name="asciitilde" unicode="~" horiz-adv-x="1148" 
d="M283 483h-154q10 220 84.5 325t198.5 105q42 0 79 -13t70.5 -39t54 -46.5t50.5 -54.5q43 -50 72 -74t61 -24q98 0 112 247h154q-9 -223 -84 -326.5t-199 -103.5q-34 0 -67 11t-53.5 21.5t-51.5 39.5t-40.5 39.5t-41.5 46.5q-41 47 -70.5 70.5t-60.5 23.5
q-100 0 -114 -248z" />
    <glyph glyph-name="exclamdown" unicode="&#xa1;" horiz-adv-x="587" 
d="M362 1120q71 0 114.5 -41t43.5 -106q0 -73 -50 -116.5t-122 -43.5q-71 0 -115.5 42.5t-44.5 109.5q0 71 50.5 113t123.5 42zM260 606h105l-15 -604l-49 -342h-246l49 342z" />
    <glyph glyph-name="cent" unicode="&#xa2;" horiz-adv-x="1316" 
d="M106 698q0 174 80 310t216.5 210.5t306.5 81.5l30 220h158l-33 -234q173 -33 289.5 -143.5t134.5 -270.5l-235 -51q-9 91 -69 159.5t-150 88.5l-70 -491q-10 -81 -32.5 -134t-72.5 -90l41 -63q135 40 214.5 105.5t113.5 176.5l219 -81q-66 -164 -208 -251.5t-334 -95.5
l-35 -247h-160l37 260q-205 38 -323 183.5t-118 356.5zM346 696q0 -130 62 -221t165 -121l72 504q22 158 109 221l-45 62q-174 -59 -268.5 -170.5t-94.5 -274.5z" />
    <glyph glyph-name="sterling" unicode="&#xa3;" horiz-adv-x="1392" 
d="M346 219l23 -69q88 36 182 51.5t231 15.5h465l-30 -217h-1207l29 199h137q205 126 205 309q0 32 -16 86h-271l27 199h45q41 0 85.5 -20t80.5 -56l49 47q-88 105 -88 260q0 195 152 319.5t393 124.5q220 0 362.5 -106.5t159.5 -282.5l-236 -67q-9 109 -89 173t-206 64
q-144 0 -227.5 -76t-83.5 -200q0 -109 57 -180h553l-26 -199h-504q10 -42 10 -82q-1 -101 -71.5 -175.5t-190.5 -117.5z" />
    <glyph glyph-name="currency" unicode="&#xa4;" horiz-adv-x="1347" 
d="M1237 1337l119 -139l-103 -90l-135 -94q53 -83 53 -197q0 -196 -129 -334l111 -96l78 -90l-158 -139l-80 90l-84 131q-122 -66 -266 -66t-250 66l-121 -131l-102 -90l-121 139l103 90l137 96q-60 94 -51 226q9 179 124 303l-110 96l-76 90l160 139l76 -90l84 -131
q126 66 268 66q149 0 250 -66l121 131zM442 707q0 -95 62.5 -154t163.5 -59q124 0 210.5 85.5t86.5 208.5q0 94 -62.5 153.5t-163.5 59.5q-124 0 -210.5 -85.5t-86.5 -208.5z" />
    <glyph glyph-name="yen" unicode="&#xa5;" horiz-adv-x="1531" 
d="M551 735l-395 699h278l164 -295q59 -111 97.5 -231.5t39.5 -202.5h101q24 90 94.5 213t154.5 225l244 291h301l-590 -699h238l-23 -166h-358l-20 -143h358l-23 -166h-358l-37 -260h-248l35 260h-377l23 166h377l20 143h-377l25 166h256z" />
    <glyph glyph-name="brokenbar" unicode="&#xa6;" horiz-adv-x="747" 
d="M301 784l92 650h213l-90 -650h-215zM164 -205l90 649h213l-90 -649h-213z" />
    <glyph glyph-name="section" unicode="&#xa7;" horiz-adv-x="1286" 
d="M39 178l223 60q0 -248 346 -248q144 0 218.5 44t74.5 126q0 29 -13.5 50t-39 34.5t-49.5 21.5t-58 15l-301 63q-49 11 -85 21.5t-76 29t-65 41t-41.5 57.5t-16.5 78q0 100 63 171.5t170 99.5l8 55q-80 27 -124 79t-44 126q0 157 148 254.5t389 97.5q237 0 374 -95.5
t134 -240.5l-203 -57q-9 104 -98 159.5t-234 55.5q-127 0 -199.5 -41t-72.5 -113q0 -54 57 -80t191 -51l233 -43q142 -26 208.5 -78.5t66.5 -138.5q0 -104 -63 -173t-177 -101l-8 -58q80 -22 125 -75.5t45 -133.5q0 -173 -155.5 -278t-411.5 -105q-259 0 -400.5 98.5
t-138.5 272.5zM399 643q0 -51 36.5 -78.5t105.5 -40.5l260 -49q72 6 120 53t48 115q0 25 -10 45t-24 32t-39.5 21.5t-45 14t-51.5 10.5l-221 43q-78 -6 -128.5 -52t-50.5 -114z" />
    <glyph glyph-name="dieresis" unicode="&#xa8;" horiz-adv-x="976" 
d="M342 1257q-72 0 -116 42t-44 108q0 71 50.5 114.5t123.5 43.5q70 0 114 -42t44 -108q0 -71 -49.5 -114.5t-122.5 -43.5zM856 1257q-72 0 -116 42t-44 108q0 71 50.5 114.5t123.5 43.5q70 0 114 -42t44 -108q0 -71 -49.5 -114.5t-122.5 -43.5z" />
    <glyph glyph-name="copyright" unicode="&#xa9;" horiz-adv-x="1783" 
d="M891 -31q-169 0 -313.5 55.5t-247.5 154.5t-161 240.5t-58 307.5q0 174 64.5 324.5t176 255t265.5 164t329 59.5q168 0 313.5 -55t249.5 -152.5t163 -239t59 -307.5q0 -175 -65.5 -326t-178 -256t-267 -165t-329.5 -60zM895 113q196 0 350 82t241 232.5t87 344.5
q0 184 -83 324.5t-226.5 215t-323.5 74.5q-196 0 -349.5 -82.5t-238 -231.5t-84.5 -339q0 -272 175 -446t452 -174zM496 731q0 192 125 314t319 122q152 0 259.5 -74.5t133.5 -197.5l-190 -64q-14 71 -69 114.5t-136 43.5q-106 0 -172 -72t-66 -182q0 -104 56.5 -164.5
t152.5 -60.5q82 0 141 44.5t78 117.5l187 -62q-36 -129 -149 -203.5t-263 -74.5q-184 0 -295.5 109t-111.5 290z" />
    <glyph glyph-name="ordfeminine" unicode="&#xaa;" horiz-adv-x="849" 
d="M809 799q21 0 41 10l-21 -131q-41 -23 -102 -23q-59 0 -91 35.5t-22 91.5l2 15h-55q-23 -66 -90.5 -106t-157.5 -40q-97 0 -156 57.5t-59 149.5q0 103 71 167.5t200 86.5l266 47v6q10 77 -30 117.5t-113 40.5q-77 0 -122.5 -38t-50.5 -105l-174 32q20 122 116.5 187
t240.5 65q164 0 250.5 -87t64.5 -236l-39 -277q-5 -33 1 -49t30 -16zM600 911l18 133l-196 -32q-139 -23 -139 -125q0 -45 30.5 -72t85.5 -27q63 0 119 34.5t82 88.5z" />
    <glyph glyph-name="guillemotleft" unicode="&#xab;" horiz-adv-x="1132" 
d="M326 580l196 -482h-227l-205 496l324 467h243zM764 565l197 -467h-228l-203 482l338 481h242z" />
    <glyph glyph-name="logicalnot" unicode="&#xac;" horiz-adv-x="1167" 
d="M889 600h-780l26 180h969l-90 -635h-189z" />
    <glyph glyph-name="registered" unicode="&#xae;" horiz-adv-x="1185" 
d="M641 494q-226 0 -372 140t-146 361q0 234 156.5 384.5t398.5 150.5q226 0 373 -138.5t147 -361.5q0 -234 -159.5 -385t-397.5 -151zM643 600q192 0 314 118.5t122 307.5q0 179 -112.5 289t-292.5 110q-193 0 -313.5 -118.5t-120.5 -307.5q0 -178 112 -288.5t291 -110.5z
M537 762h-129l73 514h264q81 0 124.5 -37t43.5 -100q0 -62 -44 -103t-121 -45l-5 -39q37 -4 55.5 -22t28.5 -51l15 -48q11 -38 35 -51l4 -18h-140q-8 10 -22 51l-25 72q-13 40 -26.5 54.5t-44.5 14.5h-60zM594 1171l-19 -133h107q42 0 66 20.5t24 53.5q0 59 -74 59h-104z
" />
    <glyph glyph-name="macron" unicode="&#xaf;" horiz-adv-x="874" 
d="M201 1307l24 174h690l-24 -174h-690z" />
    <glyph glyph-name="degree" unicode="&#xb0;" horiz-adv-x="1001" 
d="M567 768q-158 0 -257 94.5t-99 243.5q0 161 111.5 262.5t277.5 101.5q158 0 257 -94t99 -243q0 -162 -111.5 -263.5t-277.5 -101.5zM573 930q90 0 147.5 54.5t57.5 143.5q0 83 -50 132t-134 49q-91 0 -149 -55t-58 -144q0 -83 51 -131.5t135 -48.5z" />
    <glyph glyph-name="plusminus" unicode="&#xb1;" horiz-adv-x="1218" 
d="M813 1139l-41 -291h397l-24 -180h-400l-40 -293h-189l41 293h-399l24 180h402l41 291h188zM1051 0h-988l25 174h987z" />
    <glyph glyph-name="uni00B2" unicode="&#xb2;" horiz-adv-x="897" 
d="M811 614h-707l21 138l393 260q118 78 161.5 137.5t43.5 126.5t-44.5 106t-117.5 39q-88 0 -146.5 -51t-62.5 -151l-164 16q13 154 118 244t265 90q144 0 236 -77t92 -208q0 -115 -70 -204t-223 -179q-108 -73 -272 -153l26 -64q169 78 326 78h145z" />
    <glyph glyph-name="uni00B3" unicode="&#xb3;" horiz-adv-x="948" 
d="M522 590q-175 0 -277 86t-102 244l160 26q0 -98 59.5 -153.5t163.5 -55.5q93 0 148 45.5t55 120.5q0 123 -162 123h-116l18 129h121q80 0 127 36.5t47 100.5q0 63 -45.5 98t-124.5 35q-92 0 -150.5 -46.5t-74.5 -121.5l-152 48q29 125 133.5 194.5t255.5 69.5
q154 0 243 -70t89 -182q0 -79 -47.5 -134t-138.5 -73l-7 -53q72 -14 113 -64t41 -125q0 -127 -105 -202.5t-272 -75.5z" />
    <glyph glyph-name="acute" unicode="&#xb4;" horiz-adv-x="464" 
d="M289 1563h268l-223 -291h-176z" />
    <glyph glyph-name="paragraph" unicode="&#xb6;" horiz-adv-x="1763" 
d="M248 1124q0 141 98.5 225.5t265.5 84.5h1121l-29 -207h-217l-209 -1485h-238l209 1485h-303l-209 -1485h-235l155 1110h-118q-132 0 -211.5 72.5t-79.5 199.5z" />
    <glyph glyph-name="periodcentered" unicode="&#xb7;" horiz-adv-x="677" 
d="M330 360q-81 0 -128.5 46.5t-47.5 121.5q0 79 56.5 128t135.5 49t127.5 -47t48.5 -121q0 -82 -55.5 -129.5t-136.5 -47.5z" />
    <glyph glyph-name="cedilla" unicode="&#xb8;" horiz-adv-x="737" 
d="M242 -106l16 -23q24 8 72 8q81 0 129.5 -48t48.5 -124q0 -102 -83 -162.5t-218 -60.5q-152 0 -240 65l58 119q75 -57 182 -57q71 0 110 27.5t39 74.5q0 37 -23.5 60.5t-64.5 23.5q-40 0 -75 -14l-74 39l84 192l129 4l-2 -18q0 -44 -88 -106z" />
    <glyph glyph-name="uni00B9" unicode="&#xb9;" horiz-adv-x="819" 
d="M539 614h-172l57 433q15 101 37 162.5t82 121.5l-45 47q-109 -121 -279 -137l25 152q208 43 301 153h127z" />
    <glyph glyph-name="ordmasculine" unicode="&#xba;" horiz-adv-x="909" 
d="M123 1034q0 190 120.5 310t309.5 120q168 0 272.5 -105.5t104.5 -275.5q0 -192 -119 -312t-311 -120q-168 0 -272.5 106t-104.5 277zM741 1075q0 100 -54.5 160.5t-147.5 60.5q-101 0 -165.5 -71t-64.5 -183q0 -101 56.5 -162t148.5 -61q102 0 164.5 72t62.5 184z" />
    <glyph glyph-name="guillemotright" unicode="&#xbb;" horiz-adv-x="1134" 
d="M276 98h-241l346 496l-197 467h228l204 -481zM731 98h-244l334 482l-198 481h227l205 -496z" />
    <glyph glyph-name="onequarter" unicode="&#xbc;" horiz-adv-x="1507" 
d="M-12 0l1278 1434h194l-1278 -1434h-194zM395 645h-159l45 334q9 63 16.5 97t30 78.5t61.5 82.5l-41 43q-91 -101 -237 -117l20 137q178 35 260 134h115zM1268 0h-158l20 160h-440l21 127l487 501h180l-67 -495h127l-21 -133h-127zM1210 655l-352 -368l29 -39
q51 45 164 45h100l20 156q12 103 74 165z" />
    <glyph glyph-name="onehalf" unicode="&#xbd;" horiz-adv-x="1568" 
d="M-12 0l1278 1434h194l-1278 -1434h-194zM395 645h-159l45 334q9 63 16.5 97t30 78.5t61.5 82.5l-41 43q-91 -101 -237 -117l20 137q178 35 260 134h115zM1440 0h-602l18 125l334 215q93 62 130.5 112t37.5 103q0 55 -37 88t-96 33q-68 0 -115.5 -42.5t-50.5 -125.5
l-150 14q10 132 100 209.5t226 77.5q124 0 203.5 -66.5t79.5 -179.5q0 -107 -63 -179t-191 -142q-167 -95 -217 -121l24 -55q152 69 268 69h121z" />
    <glyph glyph-name="threequarters" unicode="&#xbe;" horiz-adv-x="1710" 
d="M410 627q-151 0 -238 71.5t-86 206.5l145 25q0 -81 48.5 -125.5t134.5 -44.5q74 0 116.5 36t42.5 95q0 100 -131 100h-98l16 117h109q61 0 96 29t35 80q0 49 -35.5 77.5t-97.5 28.5q-76 0 -122.5 -38t-59.5 -99l-138 43q24 107 113 166t219 59q132 0 208.5 -59t76.5 -156
q0 -67 -41 -113t-119 -61l-6 -47q62 -12 97.5 -54t35.5 -106q0 -106 -88.5 -168.5t-232.5 -62.5zM190 0l1278 1434h195l-1278 -1434h-195zM1468 0h-157l20 160h-440l20 127l488 501h180l-68 -495h127l-20 -133h-127zM1411 655l-352 -368l28 -39q51 45 164 45h101l20 156
q12 103 74 165z" />
    <glyph glyph-name="questiondown" unicode="&#xbf;" horiz-adv-x="1288" 
d="M711 1120q68 0 107.5 -40t39.5 -103q0 -74 -49 -119t-119 -45q-66 0 -106.5 41.5t-40.5 106.5q0 72 48.5 115.5t119.5 43.5zM563 647h209l-37 -260q-199 -5 -308.5 -83.5t-109.5 -225.5q0 -117 69 -182.5t189 -65.5q125 0 210.5 66t117.5 178l213 -54
q-50 -183 -207.5 -289t-363.5 -106q-215 0 -344 118.5t-129 307.5q0 192 126 314t347 145z" />
    <glyph glyph-name="Agrave" unicode="&#xc0;" horiz-adv-x="1458" 
d="M918 1870l49 -291h-179l-141 291h271zM1348 0h-248l-60 256h-690l-131 -256h-262l758 1434h278zM631 807l-172 -338h530l-65 281q-53 233 -60 438h-78q-49 -175 -155 -381z" />
    <glyph glyph-name="Aacute" unicode="&#xc1;" horiz-adv-x="1458" 
d="M920 1870h268l-223 -291h-177zM1348 0h-248l-60 256h-690l-131 -256h-262l758 1434h278zM631 807l-172 -338h530l-65 281q-53 233 -60 438h-78q-49 -175 -155 -381z" />
    <glyph glyph-name="Acircumflex" unicode="&#xc2;" horiz-adv-x="1458" 
d="M805 1645l-49 -66h-224l250 291h269l168 -291h-215l-31 66q-29 72 -35 108h-66q-10 -20 -67 -108zM1348 0h-248l-60 256h-690l-131 -256h-262l758 1434h278zM631 807l-172 -338h530l-65 281q-53 233 -60 438h-78q-49 -175 -155 -381z" />
    <glyph glyph-name="Atilde" unicode="&#xc3;" horiz-adv-x="1458" 
d="M760 1716q-59 0 -68 -153h-137q6 165 62.5 245t150.5 80q31 0 57 -8t51.5 -28t37 -31t38.5 -39q46 -49 82 -49q30 0 46 37t22 114h137q-4 -161 -61 -242t-150 -81q-94 0 -188 104q-18 20 -25 27t-23 15.5t-32 8.5zM1348 0h-248l-60 256h-690l-131 -256h-262l758 1434h278
zM631 807l-172 -338h530l-65 281q-53 233 -60 438h-78q-49 -175 -155 -381z" />
    <glyph glyph-name="Adieresis" unicode="&#xc4;" horiz-adv-x="1458" 
d="M618 1565q-72 0 -115.5 41.5t-43.5 107.5q0 71 50.5 114.5t123.5 43.5q70 0 114 -42t44 -108q0 -71 -50 -114t-123 -43zM1133 1565q-73 0 -116.5 42t-43.5 107q0 71 50.5 114.5t123.5 43.5q70 0 114 -42t44 -108q0 -71 -49.5 -114t-122.5 -43zM1348 0h-248l-60 256h-690
l-131 -256h-262l758 1434h278zM631 807l-172 -338h530l-65 281q-53 233 -60 438h-78q-49 -175 -155 -381z" />
    <glyph glyph-name="Aring" unicode="&#xc5;" horiz-adv-x="1458" 
d="M887 1550q-120 0 -195.5 66t-75.5 172q0 115 90 191.5t224 76.5q119 0 193.5 -65.5t74.5 -171.5q0 -115 -88.5 -192t-222.5 -77zM918 1925q-61 0 -100.5 -36.5t-39.5 -94.5q0 -51 32.5 -82t86.5 -31q62 0 100.5 35.5t38.5 95.5q0 52 -31.5 82.5t-86.5 30.5zM1348 0h-248
l-60 256h-690l-131 -256h-262l758 1434h278zM631 807l-172 -338h530l-65 281q-53 233 -60 438h-78q-49 -175 -155 -381z" />
    <glyph glyph-name="AE" unicode="&#xc6;" horiz-adv-x="2029" 
d="M219 0h-262l844 1434h1276l-31 -220h-768l-53 -380h702l-29 -203h-702l-57 -412h770l-31 -219h-1020l37 256h-528zM731 899l-248 -430h441l102 719h-162q-28 -83 -52.5 -136.5t-80.5 -152.5z" />
    <glyph glyph-name="Ccedilla" unicode="&#xc7;" horiz-adv-x="1617" 
d="M834 186q179 0 303.5 97t158.5 258l230 -58q-43 -219 -218 -360t-423 -156q-19 -32 -78 -73l16 -23q24 8 72 8q81 0 129.5 -48t48.5 -124q0 -102 -83 -162.5t-218 -60.5q-152 0 -240 65l58 119q75 -57 182 -57q71 0 110.5 27.5t39.5 74.5q0 37 -23.5 60.5t-64.5 23.5
t-76 -14l-74 39l64 147q-134 12 -247.5 66t-195.5 143.5t-128 219t-46 284.5q0 179 59.5 328t162.5 249t243 155.5t299 55.5q256 0 431.5 -134t219.5 -361l-239 -62q-25 152 -140.5 244t-285.5 92q-225 0 -361.5 -155.5t-136.5 -401.5q0 -230 123 -368t328 -138z" />
    <glyph glyph-name="Egrave" unicode="&#xc8;" horiz-adv-x="1198" 
d="M815 1870l49 -291h-178l-141 291h270zM1243 1434l-31 -220h-718l-52 -380h660l-31 -203h-657l-58 -412h721l-33 -219h-962l201 1434h960z" />
    <glyph glyph-name="Eacute" unicode="&#xc9;" horiz-adv-x="1198" 
d="M817 1870h268l-223 -291h-176zM1243 1434l-31 -220h-718l-52 -380h660l-31 -203h-657l-58 -412h721l-33 -219h-962l201 1434h960z" />
    <glyph glyph-name="Ecircumflex" unicode="&#xca;" horiz-adv-x="1198" 
d="M702 1645l-49 -66h-223l250 291h268l168 -291h-215l-31 66q-27 68 -34 108h-66q-6 -13 -68 -108zM1243 1434l-31 -220h-718l-52 -380h660l-31 -203h-657l-58 -412h721l-33 -219h-962l201 1434h960z" />
    <glyph glyph-name="Edieresis" unicode="&#xcb;" horiz-adv-x="1198" 
d="M518 1565q-73 0 -116.5 42t-43.5 107q0 71 50.5 114.5t123.5 43.5q70 0 114 -42t44 -108q0 -71 -49.5 -114t-122.5 -43zM1032 1565q-73 0 -116.5 42t-43.5 107q0 71 51 114.5t124 43.5q70 0 113.5 -42t43.5 -108q0 -71 -49.5 -114t-122.5 -43zM1243 1434l-31 -220h-718
l-52 -380h660l-31 -203h-657l-58 -412h721l-33 -219h-962l201 1434h960z" />
    <glyph glyph-name="Igrave" unicode="&#xcc;" horiz-adv-x="602" 
d="M358 1579l-141 291h270l50 -291h-179zM104 0l201 1434h242l-201 -1434h-242z" />
    <glyph glyph-name="Iacute" unicode="&#xcd;" horiz-adv-x="602" 
d="M489 1870h269l-223 -291h-177zM104 0l201 1434h242l-201 -1434h-242z" />
    <glyph glyph-name="Icircumflex" unicode="&#xce;" horiz-adv-x="602" 
d="M326 1579h-224l250 291h269l167 -291h-215l-30 66q-29 72 -35 108h-66q-10 -20 -67 -108zM104 0l201 1434h242l-201 -1434h-242z" />
    <glyph glyph-name="Idieresis" unicode="&#xcf;" horiz-adv-x="602" 
d="M188 1565q-72 0 -115.5 41.5t-43.5 107.5q0 71 50.5 114.5t123.5 43.5q70 0 113.5 -42t43.5 -108q0 -71 -49.5 -114t-122.5 -43zM702 1565q-72 0 -115.5 41.5t-43.5 107.5q0 71 50.5 114.5t123.5 43.5q70 0 113.5 -42t43.5 -108q0 -71 -49.5 -114t-122.5 -43zM104 0
l201 1434h242l-201 -1434h-242z" />
    <glyph glyph-name="Eth" unicode="&#xd0;" horiz-adv-x="1611" 
d="M205 631h-133l26 174h131l88 629h543q318 0 496 -176.5t178 -485.5q0 -180 -61 -326t-171.5 -243.5t-264 -150t-337.5 -52.5h-583zM453 631l-58 -412h316q267 0 419 148.5t152 398.5q0 216 -115 332t-317 116h-313l-58 -409h248l-27 -174h-247z" />
    <glyph glyph-name="Ntilde" unicode="&#xd1;" horiz-adv-x="1490" 
d="M715 1563h-137q6 165 62.5 245t150.5 80q31 0 57 -8t51.5 -28t37 -31t38.5 -39q46 -49 82 -49q30 0 45.5 36.5t21.5 114.5h138q-4 -161 -61 -242t-150 -81q-95 0 -189 104q-18 20 -25 27t-23 15.5t-32 8.5q-31 0 -46.5 -37.5t-20.5 -115.5zM82 0l201 1434h264l514 -1078
h6l147 1078h244l-201 -1434h-264l-516 1069h-6l-145 -1069h-244z" />
    <glyph glyph-name="Ograve" unicode="&#xd2;" horiz-adv-x="1656" 
d="M844 1591l-142 291h271l49 -291h-178zM129 662q0 232 97.5 416t273.5 287t399 103q303 0 490.5 -190.5t187.5 -507.5q0 -232 -97 -416t-272.5 -287.5t-398.5 -103.5q-303 0 -491.5 191t-188.5 508zM377 678q0 -227 120.5 -360.5t321.5 -133.5q225 0 367.5 156t142.5 414
q0 228 -120 361.5t-322 133.5q-226 0 -368 -156t-142 -415z" />
    <glyph glyph-name="Oacute" unicode="&#xd3;" horiz-adv-x="1656" 
d="M975 1882h268l-223 -291h-176zM129 662q0 232 97.5 416t273.5 287t399 103q303 0 490.5 -190.5t187.5 -507.5q0 -232 -97 -416t-272.5 -287.5t-398.5 -103.5q-303 0 -491.5 191t-188.5 508zM377 678q0 -227 120.5 -360.5t321.5 -133.5q225 0 367.5 156t142.5 414
q0 228 -120 361.5t-322 133.5q-226 0 -368 -156t-142 -415z" />
    <glyph glyph-name="Ocircumflex" unicode="&#xd4;" horiz-adv-x="1656" 
d="M811 1591h-223l250 291h268l168 -291h-215l-31 66q-29 72 -35 108h-65q-6 -13 -68 -108zM129 662q0 232 97.5 416t273.5 287t399 103q303 0 490.5 -190.5t187.5 -507.5q0 -232 -97 -416t-272.5 -287.5t-398.5 -103.5q-303 0 -491.5 191t-188.5 508zM377 678
q0 -227 120.5 -360.5t321.5 -133.5q225 0 367.5 156t142.5 414q0 228 -120 361.5t-322 133.5q-226 0 -368 -156t-142 -415z" />
    <glyph glyph-name="Otilde" unicode="&#xd5;" horiz-adv-x="1656" 
d="M748 1575h-138q6 165 62.5 245.5t150.5 80.5q31 0 57 -8t52 -28.5t37.5 -31.5t38.5 -39q46 -49 82 -49q30 0 45.5 36.5t21.5 114.5h137q-4 -161 -61 -242t-150 -81q-94 0 -188 104q-1 2 -7 8t-7.5 8t-7 7t-7.5 7t-7 6t-8 5.5l-8 4t-9 3.5t-9 2t-10 1q-58 0 -67 -154z
M129 662q0 232 97.5 416t273.5 287t399 103q303 0 490.5 -190.5t187.5 -507.5q0 -232 -97 -416t-272.5 -287.5t-398.5 -103.5q-303 0 -491.5 191t-188.5 508zM377 678q0 -227 120.5 -360.5t321.5 -133.5q225 0 367.5 156t142.5 414q0 228 -120 361.5t-322 133.5
q-226 0 -368 -156t-142 -415z" />
    <glyph glyph-name="Odieresis" unicode="&#xd6;" horiz-adv-x="1656" 
d="M674 1577q-73 0 -116.5 42t-43.5 107q0 71 50.5 114.5t123.5 43.5q70 0 114 -41.5t44 -107.5q0 -71 -49.5 -114.5t-122.5 -43.5zM1188 1577q-73 0 -116.5 42t-43.5 107q0 71 50.5 114.5t123.5 43.5q70 0 114 -41.5t44 -107.5q0 -71 -49.5 -114.5t-122.5 -43.5zM129 662
q0 232 97.5 416t273.5 287t399 103q303 0 490.5 -190.5t187.5 -507.5q0 -232 -97 -416t-272.5 -287.5t-398.5 -103.5q-303 0 -491.5 191t-188.5 508zM377 678q0 -227 120.5 -360.5t321.5 -133.5q225 0 367.5 156t142.5 414q0 228 -120 361.5t-322 133.5q-226 0 -368 -156
t-142 -415z" />
    <glyph glyph-name="multiply" unicode="&#xd7;" horiz-adv-x="1284" 
d="M287 229l-121 142l366 323l-276 314l145 127l275 -312l366 326l119 -141l-364 -324l272 -313l-145 -127l-273 311z" />
    <glyph glyph-name="Oslash" unicode="&#xd8;" horiz-adv-x="1667" 
d="M102 659q0 228 99 412t282 290.5t418 106.5q301 0 494 -172l143 125l104 -127l-139 -123q109 -170 109 -401q0 -227 -98 -410t-281.5 -290t-419.5 -107q-297 0 -491 172l-144 -125l-108 127l143 125q-111 163 -111 397zM336 674q0 -136 55 -240l639 545q123 101 236 104
l12 76q-61 49 -155.5 77t-196.5 28q-264 0 -427 -163t-163 -427zM451 348l-11 -74q117 -104 338 -104q267 0 434.5 164.5t167.5 425.5q0 134 -57 239l-633 -538q-123 -107 -239 -113z" />
    <glyph glyph-name="Ugrave" unicode="&#xd9;" horiz-adv-x="1447" 
d="M778 1579l-141 291h270l49 -291h-178zM154 563l120 871h242l-121 -869q-27 -192 49.5 -286.5t239.5 -94.5t253.5 77.5t117.5 268.5l125 904h243l-131 -938q-73 -531 -614 -531q-104 0 -191 22.5t-157.5 68.5t-114.5 117t-62 168t1 222z" />
    <glyph glyph-name="Uacute" unicode="&#xda;" horiz-adv-x="1447" 
d="M911 1870h269l-224 -291h-176zM154 563l120 871h242l-121 -869q-27 -192 49.5 -286.5t239.5 -94.5t253.5 77.5t117.5 268.5l125 904h243l-131 -938q-73 -531 -614 -531q-104 0 -191 22.5t-157.5 68.5t-114.5 117t-62 168t1 222z" />
    <glyph glyph-name="Ucircumflex" unicode="&#xdb;" horiz-adv-x="1447" 
d="M745 1579h-223l250 291h268l168 -291h-215l-30 66q-29 72 -35 108h-66q-10 -20 -67 -108zM154 563l120 871h242l-121 -869q-27 -192 49.5 -286.5t239.5 -94.5t253.5 77.5t117.5 268.5l125 904h243l-131 -938q-73 -531 -614 -531q-104 0 -191 22.5t-157.5 68.5t-114.5 117
t-62 168t1 222z" />
    <glyph glyph-name="Udieresis" unicode="&#xdc;" horiz-adv-x="1447" 
d="M610 1565q-72 0 -115.5 41.5t-43.5 107.5q0 71 50.5 114.5t123.5 43.5q70 0 113.5 -42t43.5 -108q0 -71 -49.5 -114t-122.5 -43zM1124 1565q-72 0 -115.5 41.5t-43.5 107.5q0 71 50.5 114.5t123.5 43.5q70 0 113.5 -42t43.5 -108q0 -71 -49.5 -114t-122.5 -43zM154 563
l120 871h242l-121 -869q-27 -192 49.5 -286.5t239.5 -94.5t253.5 77.5t117.5 268.5l125 904h243l-131 -938q-73 -531 -614 -531q-104 0 -191 22.5t-157.5 68.5t-114.5 117t-62 168t1 222z" />
    <glyph glyph-name="Yacute" unicode="&#xdd;" horiz-adv-x="1400" 
d="M883 1870h268l-223 -291h-176zM582 555l-426 879h272l137 -304q104 -264 111 -382h94q15 56 73.5 159.5t147.5 229.5l219 297h289l-674 -879l-75 -555h-244z" />
    <glyph glyph-name="Thorn" unicode="&#xde;" horiz-adv-x="1484" 
d="M332 0h-250l201 1434h249l-34 -252h481q211 0 333 -101.5t122 -283.5q0 -243 -162.5 -394t-423.5 -151h-481zM469 967l-72 -500h467q150 0 235 79.5t85 221.5q0 99 -64.5 149t-185.5 50h-465z" />
    <glyph glyph-name="germandbls" unicode="&#xdf;" horiz-adv-x="1357" 
d="M291 0h-240l144 1030q19 133 73 232t132 156t168 84.5t192 27.5q212 0 340 -105t133 -272q3 -125 -61.5 -219.5t-174.5 -130.5l-6 -53q121 -31 188.5 -124t67.5 -227q0 -195 -149.5 -314.5t-395.5 -119.5q-156 0 -243 41l26 201q72 -41 199 -41q155 0 240.5 72t85.5 190
q0 111 -73 175.5t-194 64.5q-81 0 -112 -9l26 185q14 -2 64 -2q126 0 205.5 68t79.5 182q0 104 -68 163.5t-182 59.5q-137 0 -220 -85t-104 -231z" />
    <glyph glyph-name="agrave" unicode="&#xe0;" horiz-adv-x="1200" 
d="M690 1563l49 -291h-178l-141 291h270zM1036 156q38 0 60 14l-25 -170q-56 -29 -137 -29q-82 0 -123.5 48t-32.5 131l2 18h-69q-37 -93 -134.5 -148t-224.5 -55q-139 0 -225 80t-86 211q0 150 101.5 240t287.5 122l381 68l2 8q16 121 -46 182.5t-173 61.5
q-121 0 -187.5 -57.5t-74.5 -157.5l-223 41q27 174 161 265t338 91q225 0 348 -121t93 -335l-60 -402q-10 -46 -1 -76t48 -30zM764 330l29 205l-297 -48q-220 -40 -220 -194q0 -70 48 -111t133 -41q100 0 184 53t123 136z" />
    <glyph glyph-name="aacute" unicode="&#xe1;" horiz-adv-x="1200" 
d="M694 1563h269l-224 -291h-176zM1036 156q38 0 60 14l-25 -170q-56 -29 -137 -29q-82 0 -123.5 48t-32.5 131l2 18h-69q-37 -93 -134.5 -148t-224.5 -55q-139 0 -225 80t-86 211q0 150 101.5 240t287.5 122l381 68l2 8q16 121 -46 182.5t-173 61.5q-121 0 -187.5 -57.5
t-74.5 -157.5l-223 41q27 174 161 265t338 91q225 0 348 -121t93 -335l-60 -402q-10 -46 -1 -76t48 -30zM764 330l29 205l-297 -48q-220 -40 -220 -194q0 -70 48 -111t133 -41q100 0 184 53t123 136z" />
    <glyph glyph-name="acircumflex" unicode="&#xe2;" horiz-adv-x="1200" 
d="M578 1337l-50 -65h-223l250 291h268l168 -291h-215l-31 65q-27 67 -34 109h-66q-13 -25 -67 -109zM1036 156q38 0 60 14l-25 -170q-56 -29 -137 -29q-82 0 -123.5 48t-32.5 131l2 18h-69q-37 -93 -134.5 -148t-224.5 -55q-139 0 -225 80t-86 211q0 150 101.5 240
t287.5 122l381 68l2 8q16 121 -46 182.5t-173 61.5q-121 0 -187.5 -57.5t-74.5 -157.5l-223 41q27 174 161 265t338 91q225 0 348 -121t93 -335l-60 -402q-10 -46 -1 -76t48 -30zM764 330l29 205l-297 -48q-220 -40 -220 -194q0 -70 48 -111t133 -41q100 0 184 53t123 136z
" />
    <glyph glyph-name="atilde" unicode="&#xe3;" horiz-adv-x="1200" 
d="M535 1409q-59 0 -68 -154h-137q6 165 62.5 245.5t150.5 80.5q31 0 57 -8t51.5 -28t37 -31t38.5 -39q47 -50 82 -50q56 0 68 152h137q-4 -162 -61 -243t-150 -81q-94 0 -189 105q-1 1 -8 8.5t-8 9t-7.5 7.5t-8.5 7.5t-7.5 6t-9 5.5t-9 3.5t-10.5 3t-11 0.5zM1036 156
q38 0 60 14l-25 -170q-56 -29 -137 -29q-82 0 -123.5 48t-32.5 131l2 18h-69q-37 -93 -134.5 -148t-224.5 -55q-139 0 -225 80t-86 211q0 150 101.5 240t287.5 122l381 68l2 8q16 121 -46 182.5t-173 61.5q-121 0 -187.5 -57.5t-74.5 -157.5l-223 41q27 174 161 265t338 91
q225 0 348 -121t93 -335l-60 -402q-10 -46 -1 -76t48 -30zM764 330l29 205l-297 -48q-220 -40 -220 -194q0 -70 48 -111t133 -41q100 0 184 53t123 136z" />
    <glyph glyph-name="adieresis" unicode="&#xe4;" horiz-adv-x="1200" 
d="M393 1257q-72 0 -116 42t-44 108q0 71 51 114.5t124 43.5q70 0 113.5 -42t43.5 -108q0 -71 -49.5 -114.5t-122.5 -43.5zM907 1257q-72 0 -115.5 42t-43.5 108q0 71 50.5 114.5t123.5 43.5q70 0 113.5 -42t43.5 -108q0 -71 -49.5 -114.5t-122.5 -43.5zM1036 156
q38 0 60 14l-25 -170q-56 -29 -137 -29q-82 0 -123.5 48t-32.5 131l2 18h-69q-37 -93 -134.5 -148t-224.5 -55q-139 0 -225 80t-86 211q0 150 101.5 240t287.5 122l381 68l2 8q16 121 -46 182.5t-173 61.5q-121 0 -187.5 -57.5t-74.5 -157.5l-223 41q27 174 161 265t338 91
q225 0 348 -121t93 -335l-60 -402q-10 -46 -1 -76t48 -30zM764 330l29 205l-297 -48q-220 -40 -220 -194q0 -70 48 -111t133 -41q100 0 184 53t123 136z" />
    <glyph glyph-name="aring" unicode="&#xe5;" horiz-adv-x="1200" 
d="M662 1243q-120 0 -195.5 66t-75.5 172q0 115 90 191.5t224 76.5q119 0 193.5 -66t74.5 -172q0 -115 -88.5 -191.5t-222.5 -76.5zM692 1618q-60 0 -99.5 -36.5t-39.5 -94.5q0 -51 32.5 -82t86.5 -31q62 0 100.5 35.5t38.5 95.5q0 51 -32 82t-87 31zM1036 156q38 0 60 14
l-25 -170q-56 -29 -137 -29q-82 0 -123.5 48t-32.5 131l2 18h-69q-37 -93 -134.5 -148t-224.5 -55q-139 0 -225 80t-86 211q0 150 101.5 240t287.5 122l381 68l2 8q16 121 -46 182.5t-173 61.5q-121 0 -187.5 -57.5t-74.5 -157.5l-223 41q27 174 161 265t338 91
q225 0 348 -121t93 -335l-60 -402q-10 -46 -1 -76t48 -30zM764 330l29 205l-297 -48q-220 -40 -220 -194q0 -70 48 -111t133 -41q100 0 184 53t123 136z" />
    <glyph glyph-name="ae" unicode="&#xe6;" horiz-adv-x="2129" 
d="M41 260q0 143 100.5 231t284.5 121l471 82l2 15q16 114 -60.5 171.5t-203.5 57.5q-134 0 -214 -62.5t-83 -164.5l-229 41q23 176 165 272t365 96q140 0 249.5 -45.5t166.5 -132.5q79 85 192.5 131.5t249.5 46.5q251 0 407 -148t156 -390q0 -65 -10 -119h-926
q9 -138 105.5 -218.5t253.5 -80.5q114 0 206 46.5t148 125.5l135 -158q-77 -100 -212.5 -156.5t-289.5 -56.5q-171 0 -304.5 71.5t-202.5 199.5h-64q-65 -128 -204.5 -199.5t-297.5 -71.5q-162 0 -259 80.5t-97 214.5zM1133 631h690q-5 131 -96 213t-238 82
q-149 0 -247 -81.5t-109 -213.5zM281 289q0 -66 50.5 -104t139.5 -38q119 0 223.5 54.5t157.5 142.5l27 195l-383 -70q-119 -21 -167 -65.5t-48 -114.5z" />
    <glyph glyph-name="ccedilla" unicode="&#xe7;" horiz-adv-x="1247" 
d="M629 174q227 0 307 221l213 -84q-47 -147 -174 -238.5t-301 -105.5q-19 -32 -78 -73l16 -23q24 8 72 8q81 0 129.5 -48t48.5 -124q0 -102 -83 -162.5t-218 -60.5q-151 0 -239 65l57 119q75 -57 182 -57q71 0 110.5 27.5t39.5 74.5q0 37 -23.5 60.5t-64.5 23.5t-76 -14
l-74 39l66 147q-208 26 -333.5 173t-125.5 370q0 174 73 312t207.5 217t307.5 79q214 0 359 -119.5t167 -308.5l-233 -51q-12 123 -92 195.5t-203 72.5q-156 0 -253.5 -109.5t-97.5 -281.5q0 -163 86 -253.5t228 -90.5z" />
    <glyph glyph-name="egrave" unicode="&#xe8;" horiz-adv-x="1265" 
d="M606 1272l-141 291h270l49 -291h-178zM80 522q0 266 164 432t420 166q239 0 386.5 -146t147.5 -384q0 -45 -12 -127h-862q8 -141 94 -221t231 -80q111 0 194 46t132 126l131 -156q-72 -102 -200 -157.5t-273 -55.5q-252 0 -402.5 151.5t-150.5 405.5zM334 631h629
q-6 134 -89 215.5t-217 81.5q-136 0 -224.5 -80.5t-98.5 -216.5z" />
    <glyph glyph-name="eacute" unicode="&#xe9;" horiz-adv-x="1265" 
d="M737 1563h269l-224 -291h-176zM80 522q0 266 164 432t420 166q239 0 386.5 -146t147.5 -384q0 -45 -12 -127h-862q8 -141 94 -221t231 -80q111 0 194 46t132 126l131 -156q-72 -102 -200 -157.5t-273 -55.5q-252 0 -402.5 151.5t-150.5 405.5zM334 631h629
q-6 134 -89 215.5t-217 81.5q-136 0 -224.5 -80.5t-98.5 -216.5z" />
    <glyph glyph-name="ecircumflex" unicode="&#xea;" horiz-adv-x="1265" 
d="M573 1272h-223l250 291h268l168 -291h-215l-30 65q-29 72 -35 109h-66q-13 -25 -67 -109zM80 522q0 266 164 432t420 166q239 0 386.5 -146t147.5 -384q0 -45 -12 -127h-862q8 -141 94 -221t231 -80q111 0 194 46t132 126l131 -156q-72 -102 -200 -157.5t-273 -55.5
q-252 0 -402.5 151.5t-150.5 405.5zM334 631h629q-6 134 -89 215.5t-217 81.5q-136 0 -224.5 -80.5t-98.5 -216.5z" />
    <glyph glyph-name="edieresis" unicode="&#xeb;" horiz-adv-x="1265" 
d="M438 1257q-72 0 -115.5 42t-43.5 108q0 71 50.5 114.5t123.5 43.5q70 0 113.5 -42t43.5 -108q0 -71 -49.5 -114.5t-122.5 -43.5zM952 1257q-72 0 -115.5 42t-43.5 108q0 71 50.5 114.5t123.5 43.5q70 0 113.5 -42t43.5 -108q0 -71 -49.5 -114.5t-122.5 -43.5zM80 522
q0 266 164 432t420 166q239 0 386.5 -146t147.5 -384q0 -45 -12 -127h-862q8 -141 94 -221t231 -80q111 0 194 46t132 126l131 -156q-72 -102 -200 -157.5t-273 -55.5q-252 0 -402.5 151.5t-150.5 405.5zM334 631h629q-6 134 -89 215.5t-217 81.5q-136 0 -224.5 -80.5
t-98.5 -216.5z" />
    <glyph glyph-name="igrave" unicode="&#xec;" horiz-adv-x="524" 
d="M266 1272l-141 291h270l49 -291h-178zM57 0l152 1085h242l-152 -1085h-242z" />
    <glyph glyph-name="iacute" unicode="&#xed;" horiz-adv-x="524" 
d="M399 1563h269l-224 -291h-176zM57 0l152 1085h242l-152 -1085h-242z" />
    <glyph glyph-name="icircumflex" unicode="&#xee;" horiz-adv-x="524" 
d="M233 1272h-223l250 291h268l168 -291h-215l-30 65q-29 72 -35 109h-66q-13 -25 -67 -109zM57 0l152 1085h242l-152 -1085h-242z" />
    <glyph glyph-name="idieresis" unicode="&#xef;" horiz-adv-x="524" 
d="M98 1257q-72 0 -115.5 42t-43.5 108q0 71 50.5 114.5t123.5 43.5q70 0 113.5 -42t43.5 -108q0 -71 -49.5 -114.5t-122.5 -43.5zM612 1257q-72 0 -115.5 42t-43.5 108q0 71 50.5 114.5t123.5 43.5q70 0 113.5 -42t43.5 -108q0 -71 -49.5 -114.5t-122.5 -43.5zM57 0
l152 1085h242l-152 -1085h-242z" />
    <glyph glyph-name="eth" unicode="&#xf0;" horiz-adv-x="1294" 
d="M68 434q0 220 134.5 359t348.5 139q134 0 240.5 -64t158.5 -180l78 39q-3 123 -60 242t-147 196l-170 -159l-98 116l129 125q-108 74 -330 101l121 182q107 -12 213.5 -47.5t171.5 -81.5l199 184l100 -119l-168 -153q116 -113 178 -274t62 -343q0 -213 -85 -380
t-236 -259t-343 -92q-227 0 -362 127t-135 342zM307 453q0 -131 78.5 -209t210.5 -78q138 0 241.5 84t135.5 221q-36 139 -131.5 217t-223.5 78q-140 0 -225.5 -87t-85.5 -226z" />
    <glyph glyph-name="ntilde" unicode="&#xf1;" horiz-adv-x="1288" 
d="M565 1255h-137q6 165 62.5 245.5t150.5 80.5q31 0 57 -8t51.5 -28t37 -31t38.5 -39q47 -50 82 -50q56 0 68 152h137q-4 -162 -61 -243t-150 -81t-188 105q-18 20 -25 27t-23 15.5t-32 8.5q-59 0 -68 -154zM381 684l-96 -684h-236l152 1085h200v-12q-14 -104 -53 -184
l70 -37q71 132 178.5 200t228.5 68q196 0 294 -134t67 -359l-88 -627h-236l80 578q23 163 -32 248t-187 85q-99 0 -192.5 -62.5t-149.5 -164.5z" />
    <glyph glyph-name="ograve" unicode="&#xf2;" horiz-adv-x="1300" 
d="M606 1272l-141 291h270l49 -291h-178zM80 508q0 273 169 442.5t437 169.5q239 0 387 -148.5t148 -391.5q0 -275 -168.5 -445t-442.5 -170q-237 0 -383.5 149t-146.5 394zM981 567q0 154 -85.5 247t-227.5 93q-156 0 -253.5 -109t-97.5 -280q0 -155 86 -247.5t228 -92.5
q157 0 253.5 109.5t96.5 279.5z" />
    <glyph glyph-name="oacute" unicode="&#xf3;" horiz-adv-x="1300" 
d="M737 1563h269l-224 -291h-176zM80 508q0 273 169 442.5t437 169.5q239 0 387 -148.5t148 -391.5q0 -275 -168.5 -445t-442.5 -170q-237 0 -383.5 149t-146.5 394zM981 567q0 154 -85.5 247t-227.5 93q-156 0 -253.5 -109t-97.5 -280q0 -155 86 -247.5t228 -92.5
q157 0 253.5 109.5t96.5 279.5z" />
    <glyph glyph-name="ocircumflex" unicode="&#xf4;" horiz-adv-x="1300" 
d="M573 1272h-223l250 291h268l168 -291h-215l-30 65q-29 72 -35 109h-66q-13 -25 -67 -109zM80 508q0 273 169 442.5t437 169.5q239 0 387 -148.5t148 -391.5q0 -275 -168.5 -445t-442.5 -170q-237 0 -383.5 149t-146.5 394zM981 567q0 154 -85.5 247t-227.5 93
q-156 0 -253.5 -109t-97.5 -280q0 -155 86 -247.5t228 -92.5q157 0 253.5 109.5t96.5 279.5z" />
    <glyph glyph-name="otilde" unicode="&#xf5;" horiz-adv-x="1300" 
d="M512 1255h-137q6 165 62.5 245.5t150.5 80.5q31 0 57 -8t51.5 -28t37 -31t38.5 -39q47 -50 82 -50q56 0 68 152h137q-4 -162 -61 -243t-150 -81q-94 0 -189 105q-1 1 -8 8.5t-8 9t-7.5 7.5t-8.5 7.5t-7.5 6t-9 5.5t-9 3.5t-10.5 3t-11 0.5q-59 0 -68 -154zM80 508
q0 273 169 442.5t437 169.5q239 0 387 -148.5t148 -391.5q0 -275 -168.5 -445t-442.5 -170q-237 0 -383.5 149t-146.5 394zM981 567q0 154 -85.5 247t-227.5 93q-156 0 -253.5 -109t-97.5 -280q0 -155 86 -247.5t228 -92.5q157 0 253.5 109.5t96.5 279.5z" />
    <glyph glyph-name="odieresis" unicode="&#xf6;" horiz-adv-x="1300" 
d="M438 1257q-72 0 -115.5 42t-43.5 108q0 71 50.5 114.5t123.5 43.5q70 0 113.5 -42t43.5 -108q0 -71 -49.5 -114.5t-122.5 -43.5zM952 1257q-72 0 -115.5 42t-43.5 108q0 71 50.5 114.5t123.5 43.5q70 0 113.5 -42t43.5 -108q0 -71 -49.5 -114.5t-122.5 -43.5zM80 508
q0 273 169 442.5t437 169.5q239 0 387 -148.5t148 -391.5q0 -275 -168.5 -445t-442.5 -170q-237 0 -383.5 149t-146.5 394zM981 567q0 154 -85.5 247t-227.5 93q-156 0 -253.5 -109t-97.5 -280q0 -155 86 -247.5t228 -92.5q157 0 253.5 109.5t96.5 279.5z" />
    <glyph glyph-name="divide" unicode="&#xf7;" horiz-adv-x="1177" 
d="M647 944q-73 0 -116.5 41.5t-43.5 106.5q0 72 50 115.5t122 43.5q71 0 115.5 -42t44.5 -107q0 -73 -49.5 -115.5t-122.5 -42.5zM176 780h895l-24 -180h-897zM532 129q-73 0 -116 41t-43 106q0 73 50.5 116.5t123.5 43.5q70 0 114 -42t44 -107q0 -73 -50 -115.5
t-123 -42.5z" />
    <glyph glyph-name="oslash" unicode="&#xf8;" horiz-adv-x="1382" 
d="M84 543q-2 162 77 294.5t218.5 207.5t310.5 75q206 0 359 -106l110 112l113 -116l-103 -101q132 -154 129 -366q2 -162 -77 -295t-219 -208t-312 -75q-204 -3 -358 107l-111 -111l-110 115l100 100q-130 152 -127 367zM313 545q0 -117 54 -199l350 348q127 127 241 121
v74q-80 53 -229 53q-174 0 -295.5 -103t-120.5 -294zM422 270v-73q87 -54 231 -54q82 0 155.5 25t132.5 72.5t93.5 126t34.5 176.5q0 112 -55 198l-348 -348q-126 -126 -244 -123z" />
    <glyph glyph-name="ugrave" unicode="&#xf9;" horiz-adv-x="1290" 
d="M655 1272l-141 291h270l50 -291h-179zM907 401l97 684h237l-154 -1085h-208l2 12q17 116 61 199l-70 25q-73 -133 -183 -202t-247 -69q-193 0 -282.5 131.5t-57.5 362.5l91 626h235l-82 -577q-23 -164 30 -248t181 -84q110 0 201.5 60.5t148.5 164.5z" />
    <glyph glyph-name="uacute" unicode="&#xfa;" horiz-adv-x="1290" 
d="M788 1563h269l-223 -291h-177zM1004 1085h237l-154 -1085h-208l2 12q17 116 61 199l-70 25q-73 -133 -183 -202t-247 -69q-193 0 -282.5 131.5t-57.5 362.5l91 626h235l-82 -577q-23 -164 30 -248t181 -84q110 0 201.5 60.5t148.5 164.5z" />
    <glyph glyph-name="ucircumflex" unicode="&#xfb;" horiz-adv-x="1290" 
d="M623 1272h-224l250 291h269l167 -291h-215l-30 65q-29 72 -35 109h-66q-13 -25 -67 -109zM907 401l97 684h237l-154 -1085h-208l2 12q17 116 61 199l-70 25q-73 -133 -183 -202t-247 -69q-193 0 -282.5 131.5t-57.5 362.5l91 626h235l-82 -577q-23 -164 30 -248t181 -84
q110 0 201.5 60.5t148.5 164.5z" />
    <glyph glyph-name="udieresis" unicode="&#xfc;" horiz-adv-x="1290" 
d="M487 1257q-72 0 -115.5 42t-43.5 108q0 71 50.5 114.5t123.5 43.5q70 0 113.5 -42t43.5 -108q0 -71 -49.5 -114.5t-122.5 -43.5zM1001 1257q-72 0 -115.5 42t-43.5 108q0 71 50.5 114.5t123.5 43.5q70 0 114 -42t44 -108q0 -71 -50 -114.5t-123 -43.5zM907 401l97 684
h237l-154 -1085h-208l2 12q17 116 61 199l-70 25q-73 -133 -183 -202t-247 -69q-193 0 -282.5 131.5t-57.5 362.5l91 626h235l-82 -577q-23 -164 30 -248t181 -84q110 0 201.5 60.5t148.5 164.5z" />
    <glyph glyph-name="yacute" unicode="&#xfd;" horiz-adv-x="1222" 
d="M754 1563h268l-223 -291h-176zM102 -496q-92 0 -149 31l31 213q59 -24 125 -24q156 0 243 165l60 115l-318 1081h254l109 -413q67 -279 67 -430h84q38 112 72.5 195t95.5 202l230 446h272l-711 -1257q-92 -160 -202 -242t-263 -82z" />
    <glyph glyph-name="thorn" unicode="&#xfe;" horiz-adv-x="1349" 
d="M221 -461h-239l274 1956h197l-41 -295q-26 -168 -97 -266l66 -43q64 112 172.5 170.5t237.5 58.5q210 0 345.5 -147t135.5 -393q0 -178 -72.5 -319t-199.5 -218.5t-285 -77.5q-146 0 -252 66t-164 188l-66 -37q32 -87 37 -175t-8 -157zM666 172q162 0 262 107.5
t100 279.5q0 162 -89.5 258t-244.5 96q-102 0 -185 -46.5t-122 -121.5l-45 -344q36 -112 122 -170.5t202 -58.5z" />
    <glyph glyph-name="ydieresis" unicode="&#xff;" horiz-adv-x="1222" 
d="M453 1257q-72 0 -116 42t-44 108q0 71 50.5 114.5t123.5 43.5q70 0 114 -42t44 -108q0 -71 -49.5 -114.5t-122.5 -43.5zM967 1257q-72 0 -116 42t-44 108q0 71 50.5 114.5t123.5 43.5q70 0 114 -42t44 -108q0 -71 -49.5 -114.5t-122.5 -43.5zM102 -496q-92 0 -149 31
l31 213q59 -24 125 -24q156 0 243 165l60 115l-318 1081h254l109 -413q67 -279 67 -430h84q38 112 72.5 195t95.5 202l230 446h272l-711 -1257q-92 -160 -202 -242t-263 -82z" />
    <glyph glyph-name="Amacron" unicode="&#x100;" horiz-adv-x="1458" 
d="M561 1788h690l-24 -174h-690zM1348 0h-248l-60 256h-690l-131 -256h-262l758 1434h278zM631 807l-172 -338h530l-65 281q-53 233 -60 438h-78q-49 -175 -155 -381z" />
    <glyph glyph-name="amacron" unicode="&#x101;" horiz-adv-x="1200" 
d="M336 1481h690l-25 -174h-690zM1036 156q38 0 60 14l-25 -170q-56 -29 -137 -29q-82 0 -123.5 48t-32.5 131l2 18h-69q-37 -93 -134.5 -148t-224.5 -55q-139 0 -225 80t-86 211q0 150 101.5 240t287.5 122l381 68l2 8q16 121 -46 182.5t-173 61.5q-121 0 -187.5 -57.5
t-74.5 -157.5l-223 41q27 174 161 265t338 91q225 0 348 -121t93 -335l-60 -402q-10 -46 -1 -76t48 -30zM764 330l29 205l-297 -48q-220 -40 -220 -194q0 -70 48 -111t133 -41q100 0 184 53t123 136z" />
    <glyph glyph-name="Abreve" unicode="&#x102;" horiz-adv-x="1458" 
d="M874 1563q-152 0 -239 83.5t-82 223.5h197q-4 -74 31.5 -114t99.5 -40q72 0 113 41t44 113h193q0 -138 -98 -222.5t-259 -84.5zM1348 0h-248l-60 256h-690l-131 -256h-262l758 1434h278zM631 807l-172 -338h530l-65 281q-53 233 -60 438h-78q-49 -175 -155 -381z" />
    <glyph glyph-name="abreve" unicode="&#x103;" horiz-adv-x="1200" 
d="M649 1255q-152 0 -239 84t-82 224h196q-4 -74 31.5 -114t99.5 -40q72 0 113.5 41t44.5 113h193q0 -138 -98 -223t-259 -85zM1036 156q38 0 60 14l-25 -170q-56 -29 -137 -29q-82 0 -123.5 48t-32.5 131l2 18h-69q-37 -93 -134.5 -148t-224.5 -55q-139 0 -225 80t-86 211
q0 150 101.5 240t287.5 122l381 68l2 8q16 121 -46 182.5t-173 61.5q-121 0 -187.5 -57.5t-74.5 -157.5l-223 41q27 174 161 265t338 91q225 0 348 -121t93 -335l-60 -402q-10 -46 -1 -76t48 -30zM764 330l29 205l-297 -48q-220 -40 -220 -194q0 -70 48 -111t133 -41
q100 0 184 53t123 136z" />
    <glyph glyph-name="Aogonek" unicode="&#x104;" horiz-adv-x="1458" 
d="M1397 -229l33 -136q-38 -30 -107.5 -50.5t-142.5 -20.5q-112 0 -176 55t-64 148q0 71 42.5 133t117.5 102l-60 254h-690l-131 -256h-262l758 1434h278l355 -1434h-25q-102 -22 -162.5 -71.5t-60.5 -114.5q0 -50 33 -75.5t90 -25.5q98 0 174 58zM631 807l-172 -338h530
l-65 281q-53 233 -60 438h-78q-49 -175 -155 -381z" />
    <glyph glyph-name="aogonek" unicode="&#x105;" horiz-adv-x="1200" 
d="M1130 -229l33 -136q-38 -30 -107.5 -50.5t-142.5 -20.5q-112 0 -175.5 55t-63.5 148q0 71 41.5 132t115.5 101q-65 49 -53 150l2 18h-69q-37 -93 -134.5 -148t-224.5 -55q-139 0 -225 80t-86 211q0 150 101.5 240t287.5 122l381 68l2 8q16 121 -46 182.5t-173 61.5
q-121 0 -187.5 -57.5t-74.5 -157.5l-223 41q27 174 161 265t338 91q225 0 348 -121t93 -335l-60 -402q-10 -46 -1 -76t48 -30q38 0 60 14l-25 -170q-39 -20 -100 -27q-137 -60 -137 -159q0 -50 32.5 -75.5t89.5 -25.5q98 0 174 58zM764 330l29 205l-297 -48
q-220 -40 -220 -194q0 -70 48 -111t133 -41q100 0 184 53t123 136z" />
    <glyph glyph-name="Cacute" unicode="&#x106;" horiz-adv-x="1617" 
d="M969 1870h268l-223 -291h-176zM131 682q0 179 59.5 328t162.5 249t243 155.5t299 55.5q256 0 431.5 -134t219.5 -361l-239 -62q-25 152 -140.5 244t-285.5 92q-225 0 -361.5 -155.5t-136.5 -401.5q0 -230 123 -368t328 -138q179 0 303.5 97t158.5 258l230 -58
q-46 -233 -239 -375.5t-462 -142.5q-149 0 -276 49t-220 139t-145.5 226.5t-52.5 302.5z" />
    <glyph glyph-name="cacute" unicode="&#x107;" horiz-adv-x="1247" 
d="M758 1563h268l-223 -291h-176zM80 512q0 174 73 312t207.5 217t307.5 79q214 0 359 -119.5t167 -308.5l-233 -51q-12 123 -92 195.5t-203 72.5q-156 0 -253.5 -109.5t-97.5 -281.5q0 -163 86 -253.5t228 -90.5q227 0 307 221l213 -84q-52 -160 -195.5 -253t-337.5 -93
q-239 0 -387.5 151.5t-148.5 395.5z" />
    <glyph glyph-name="Cdotaccent" unicode="&#x10a;" horiz-adv-x="1617" 
d="M928 1565q-73 0 -116.5 42t-43.5 107q0 71 50.5 114.5t123.5 43.5q70 0 114 -42t44 -108q0 -71 -49.5 -114t-122.5 -43zM131 682q0 179 59.5 328t162.5 249t243 155.5t299 55.5q256 0 431.5 -134t219.5 -361l-239 -62q-25 152 -140.5 244t-285.5 92q-225 0 -361.5 -155.5
t-136.5 -401.5q0 -230 123 -368t328 -138q179 0 303.5 97t158.5 258l230 -58q-46 -233 -239 -375.5t-462 -142.5q-149 0 -276 49t-220 139t-145.5 226.5t-52.5 302.5z" />
    <glyph glyph-name="cdotaccent" unicode="&#x10b;" horiz-adv-x="1247" 
d="M717 1257q-72 0 -116 42t-44 108q0 71 50.5 114.5t123.5 43.5q70 0 114 -42t44 -108q0 -71 -49.5 -114.5t-122.5 -43.5zM80 512q0 174 73 312t207.5 217t307.5 79q214 0 359 -119.5t167 -308.5l-233 -51q-12 123 -92 195.5t-203 72.5q-156 0 -253.5 -109.5t-97.5 -281.5
q0 -163 86 -253.5t228 -90.5q227 0 307 221l213 -84q-52 -160 -195.5 -253t-337.5 -93q-239 0 -387.5 151.5t-148.5 395.5z" />
    <glyph glyph-name="Ccaron" unicode="&#x10c;" horiz-adv-x="1617" 
d="M795 1579l-168 291h215l30 -66q28 -70 37 -110h66q19 38 65 110l50 66h223l-250 -291h-268zM131 682q0 179 59.5 328t162.5 249t243 155.5t299 55.5q256 0 431.5 -134t219.5 -361l-239 -62q-25 152 -140.5 244t-285.5 92q-225 0 -361.5 -155.5t-136.5 -401.5
q0 -230 123 -368t328 -138q179 0 303.5 97t158.5 258l230 -58q-46 -233 -239 -375.5t-462 -142.5q-149 0 -276 49t-220 139t-145.5 226.5t-52.5 302.5z" />
    <glyph glyph-name="ccaron" unicode="&#x10d;" horiz-adv-x="1247" 
d="M584 1272l-168 291h215l31 -66q25 -63 36 -111h66q21 42 65 111l50 66h223l-250 -291h-268zM80 512q0 174 73 312t207.5 217t307.5 79q214 0 359 -119.5t167 -308.5l-233 -51q-12 123 -92 195.5t-203 72.5q-156 0 -253.5 -109.5t-97.5 -281.5q0 -163 86 -253.5t228 -90.5
q227 0 307 221l213 -84q-52 -160 -195.5 -253t-337.5 -93q-239 0 -387.5 151.5t-148.5 395.5z" />
    <glyph glyph-name="Dcaron" unicode="&#x10e;" horiz-adv-x="1452" 
d="M1186 1870l-250 -291h-268l-168 291h215l30 -66q28 -70 37 -110h66q19 38 65 110l50 66h223zM283 1434h491q287 0 445.5 -173.5t158.5 -474.5q0 -179 -56 -326.5t-156 -248t-241 -156t-309 -55.5h-534zM360 219h269q233 0 368.5 152t135.5 407q0 209 -99 322.5
t-270 113.5h-268z" />
    <glyph glyph-name="dcaron" unicode="&#x10f;" horiz-adv-x="1501" 
d="M1810 1255l-172 -211l-86 70l131 162q-41 12 -64.5 45t-23.5 76q0 59 42.5 96t101.5 37q60 0 98.5 -36t38.5 -93q0 -38 -15 -69t-51 -77zM598 -35q-228 0 -372 150t-144 401q0 137 46.5 252t127.5 191.5t189 118.5t231 42q159 0 273.5 -66.5t174.5 -187.5l56 27
q-13 61 -19.5 95.5t-12 85t-3.5 102t10 114.5l29 205h241l-211 -1495h-210v6q1 6 3.5 12.5t5 12t7.5 14.5t8 15t10 18t10.5 18.5t12.5 21.5t14 23l-51 35q-66 -102 -180 -156.5t-246 -54.5zM682 172q109 0 202.5 46t139.5 122l45 344q-35 106 -132 167.5t-226 61.5
q-171 0 -278 -107t-107 -278q0 -162 98 -259t258 -97z" />
    <glyph glyph-name="Dcroat" unicode="&#x110;" horiz-adv-x="1611" 
d="M205 631h-133l26 174h131l88 629h543q318 0 496 -176.5t178 -485.5q0 -180 -61 -326t-171.5 -243.5t-264 -150t-337.5 -52.5h-583zM453 631l-58 -412h316q267 0 419 148.5t152 398.5q0 216 -115 332t-317 116h-313l-58 -409h248l-27 -174h-247z" />
    <glyph glyph-name="dcroat" unicode="&#x111;" horiz-adv-x="1415" 
d="M1407 1368h141l-24 -162h-140l-170 -1206h-210v6q1 6 3.5 12.5t5 12t7.5 14.5t8 15t10 18t10.5 18.5t12.5 21.5t14 23l-51 35q-66 -102 -180 -156.5t-246 -54.5q-229 0 -372.5 150t-143.5 401q0 137 46.5 252t127.5 191.5t189 118.5t231 42q159 0 273.5 -66.5
t174.5 -187.5l56 27q-22 96 -30 162.5t-3 150.5h-248l25 162h241l19 127h241zM1024 340l45 344q-35 106 -132 167.5t-226 61.5q-170 0 -277.5 -106.5t-107.5 -278.5q0 -162 98 -259t262 -97q107 0 200.5 46t137.5 122z" />
    <glyph glyph-name="Emacron" unicode="&#x112;" horiz-adv-x="1198" 
d="M461 1788h690l-25 -174h-690zM1243 1434l-31 -220h-718l-52 -380h660l-31 -203h-657l-58 -412h721l-33 -219h-962l201 1434h960z" />
    <glyph glyph-name="emacron" unicode="&#x113;" horiz-adv-x="1265" 
d="M354 1307l25 174h690l-25 -174h-690zM80 522q0 266 164 432t420 166q239 0 386.5 -146t147.5 -384q0 -45 -12 -127h-862q8 -141 94 -221t231 -80q111 0 194 46t132 126l131 -156q-72 -102 -200 -157.5t-273 -55.5q-252 0 -402.5 151.5t-150.5 405.5zM334 631h629
q-6 134 -89 215.5t-217 81.5q-136 0 -224.5 -80.5t-98.5 -216.5z" />
    <glyph glyph-name="Edotaccent" unicode="&#x116;" horiz-adv-x="1198" 
d="M776 1565q-73 0 -116.5 42t-43.5 107q0 71 51 114.5t124 43.5q70 0 113.5 -42t43.5 -108q0 -71 -49.5 -114t-122.5 -43zM1243 1434l-31 -220h-718l-52 -380h660l-31 -203h-657l-58 -412h721l-33 -219h-962l201 1434h960z" />
    <glyph glyph-name="edotaccent" unicode="&#x117;" horiz-adv-x="1265" 
d="M696 1257q-72 0 -115.5 42t-43.5 108q0 71 50.5 114.5t123.5 43.5q70 0 113.5 -42t43.5 -108q0 -71 -49.5 -114.5t-122.5 -43.5zM80 522q0 266 164 432t420 166q239 0 386.5 -146t147.5 -384q0 -45 -12 -127h-862q8 -141 94 -221t231 -80q111 0 194 46t132 126l131 -156
q-72 -102 -200 -157.5t-273 -55.5q-252 0 -402.5 151.5t-150.5 405.5zM334 631h629q-6 134 -89 215.5t-217 81.5q-136 0 -224.5 -80.5t-98.5 -216.5z" />
    <glyph glyph-name="Eogonek" unicode="&#x118;" horiz-adv-x="1198" 
d="M1243 1434l-31 -220h-718l-52 -380h660l-31 -203h-657l-58 -412h721l-33 -219h-122q-102 -22 -163 -71.5t-61 -114.5q0 -50 33 -75.5t90 -25.5q98 0 174 58l33 -136q-38 -30 -107.5 -50.5t-142.5 -20.5q-112 0 -175.5 55t-63.5 148q0 71 41 132t114 101h-612l201 1434
h960z" />
    <glyph glyph-name="eogonek" unicode="&#x119;" horiz-adv-x="1265" 
d="M1198 590q0 -45 -12 -127h-862q8 -141 94 -221t231 -80q111 0 194 46t132 126l131 -156q-102 -146 -315 -194q-75 -27 -118.5 -71.5t-43.5 -98.5q0 -50 33 -75.5t90 -25.5q98 0 174 58l32 -136q-38 -30 -107 -50.5t-142 -20.5q-112 0 -176 55t-64 148q0 117 106 200
q-228 19 -361.5 168.5t-133.5 386.5q0 266 164 432t420 166q239 0 386.5 -146t147.5 -384zM334 631h629q-6 134 -89 215.5t-217 81.5q-136 0 -224.5 -80.5t-98.5 -216.5z" />
    <glyph glyph-name="Ecaron" unicode="&#x11a;" horiz-adv-x="1198" 
d="M1161 1870l-250 -291h-268l-168 291h215l31 -66q28 -70 37 -110h65q16 32 66 110l49 66h223zM1243 1434l-31 -220h-718l-52 -380h660l-31 -203h-657l-58 -412h721l-33 -219h-962l201 1434h960z" />
    <glyph glyph-name="ecaron" unicode="&#x11b;" horiz-adv-x="1265" 
d="M563 1272l-168 291h215l31 -66q27 -68 37 -111h65q18 36 66 111l49 66h223l-250 -291h-268zM80 522q0 266 164 432t420 166q239 0 386.5 -146t147.5 -384q0 -45 -12 -127h-862q8 -141 94 -221t231 -80q111 0 194 46t132 126l131 -156q-72 -102 -200 -157.5t-273 -55.5
q-252 0 -402.5 151.5t-150.5 405.5zM334 631h629q-6 134 -89 215.5t-217 81.5q-136 0 -224.5 -80.5t-98.5 -216.5z" />
    <glyph glyph-name="Gbreve" unicode="&#x11e;" horiz-adv-x="1613" 
d="M606 1870h197q-4 -74 31.5 -114t99.5 -40q72 0 113.5 41t44.5 113h192q0 -138 -97.5 -222.5t-258.5 -84.5q-152 0 -239.5 83.5t-82.5 223.5zM131 668q0 169 55.5 316.5t154 254.5t241.5 168t311 61q257 0 433 -130.5t214 -350.5l-237 -61q-23 146 -137 233.5t-283 87.5
q-228 0 -366 -157t-138 -408q0 -235 122 -369.5t318 -134.5q162 0 277.5 87t152.5 229l8 49h-430l27 184h635l-100 -727h-201l2 20q2 12 9 31.5t15.5 38t25 56.5t28.5 67l-76 35q-59 -130 -173.5 -205.5t-268.5 -75.5q-126 0 -238.5 49t-197 137.5t-134 222t-49.5 292.5z
" />
    <glyph glyph-name="gbreve" unicode="&#x11f;" horiz-adv-x="1101" 
d="M305 1563h197q-4 -74 31.5 -114t99.5 -40q72 0 113.5 41t44.5 113h192q0 -138 -97.5 -223t-258.5 -85q-152 0 -239.5 84t-82.5 224zM391 -532q-228 0 -340 65.5t-112 177.5q0 97 65.5 153t169.5 66l10 45q-36 20 -55.5 56t-19.5 80q0 75 50 125.5t136 60.5l6 47
q-96 36 -150.5 121.5t-54.5 193.5q0 191 137 308.5t361 117.5h528l11 -174h-64q-87 0 -192 47l-37 -65q69 -34 106 -99.5t37 -152.5q0 -169 -122 -272t-329 -103h-88q-127 0 -127 -82q0 -64 107 -73l231 -15q306 -20 306 -270q0 -178 -146.5 -268t-423.5 -90zM528 438
q116 0 185 71t69 189q0 99 -58 157t-161 58q-116 0 -185 -70t-69 -188q0 -101 58 -159t161 -58zM424 -375q158 0 225.5 40t67.5 114q0 59 -38 82t-112 28l-288 23q-64 -7 -102 -46t-38 -95q0 -146 285 -146z" />
    <glyph glyph-name="Gdotaccent" unicode="&#x120;" horiz-adv-x="1613" 
d="M932 1565q-73 0 -116.5 42t-43.5 107q0 71 50.5 114.5t123.5 43.5q70 0 114 -42t44 -108q0 -71 -49.5 -114t-122.5 -43zM131 668q0 169 55.5 316.5t154 254.5t241.5 168t311 61q257 0 433 -130.5t214 -350.5l-237 -61q-23 146 -137 233.5t-283 87.5q-228 0 -366 -157
t-138 -408q0 -235 122 -369.5t318 -134.5q162 0 277.5 87t152.5 229l8 49h-430l27 184h635l-100 -727h-201l2 20q2 12 9 31.5t15.5 38t25 56.5t28.5 67l-76 35q-59 -130 -173.5 -205.5t-268.5 -75.5q-126 0 -238.5 49t-197 137.5t-134 222t-49.5 292.5z" />
    <glyph glyph-name="gdotaccent" unicode="&#x121;" horiz-adv-x="1101" 
d="M631 1257q-72 0 -116 42t-44 108q0 71 50.5 114.5t123.5 43.5q70 0 114 -42t44 -108q0 -71 -49.5 -114.5t-122.5 -43.5zM391 -532q-228 0 -340 65.5t-112 177.5q0 97 65.5 153t169.5 66l10 45q-36 20 -55.5 56t-19.5 80q0 75 50 125.5t136 60.5l6 47q-96 36 -150.5 121.5
t-54.5 193.5q0 191 137 308.5t361 117.5h528l11 -174h-64q-87 0 -192 47l-37 -65q69 -34 106 -99.5t37 -152.5q0 -169 -122 -272t-329 -103h-88q-127 0 -127 -82q0 -64 107 -73l231 -15q306 -20 306 -270q0 -178 -146.5 -268t-423.5 -90zM528 438q116 0 185 71t69 189
q0 99 -58 157t-161 58q-116 0 -185 -70t-69 -188q0 -101 58 -159t161 -58zM424 -375q158 0 225.5 40t67.5 114q0 59 -38 82t-112 28l-288 23q-64 -7 -102 -46t-38 -95q0 -146 285 -146z" />
    <glyph glyph-name="uni0122" unicode="&#x122;" horiz-adv-x="1613" 
d="M131 668q0 169 55.5 316.5t154 254.5t241.5 168t311 61q257 0 433 -130.5t214 -350.5l-237 -61q-23 146 -137 233.5t-283 87.5q-228 0 -366 -157t-138 -408q0 -235 122 -369.5t318 -134.5q162 0 277.5 87t152.5 229l8 49h-430l27 184h635l-100 -727h-201l2 20
q2 12 9 31.5t15.5 38t25 56.5t28.5 67l-76 35q-59 -130 -173.5 -205.5t-268.5 -75.5q-126 0 -238.5 49t-197 137.5t-134 222t-49.5 292.5zM637 -160h268l-221 -293h-176z" />
    <glyph glyph-name="uni0123" unicode="&#x123;" horiz-adv-x="1101" 
d="M549 1513l174 230l113 -66l-111 -143q40 -10 62 -41.5t22 -75.5q0 -71 -53 -119.5t-129 -48.5q-63 0 -99 33.5t-36 89.5q0 72 57 141zM391 -532q-228 0 -340 65.5t-112 177.5q0 97 65.5 153t169.5 66l10 45q-36 20 -55.5 56t-19.5 80q0 75 50 125.5t136 60.5l6 47
q-96 36 -150.5 121.5t-54.5 193.5q0 191 137 308.5t361 117.5h528l11 -174h-64q-87 0 -192 47l-37 -65q69 -34 106 -99.5t37 -152.5q0 -169 -122 -272t-329 -103h-88q-127 0 -127 -82q0 -64 107 -73l231 -15q306 -20 306 -270q0 -178 -146.5 -268t-423.5 -90zM528 438
q116 0 185 71t69 189q0 99 -58 157t-161 58q-116 0 -185 -70t-69 -188q0 -101 58 -159t161 -58zM424 -375q158 0 225.5 40t67.5 114q0 59 -38 82t-112 28l-288 23q-64 -7 -102 -46t-38 -95q0 -146 285 -146z" />
    <glyph glyph-name="Hbar" unicode="&#x126;" horiz-adv-x="1583" 
d="M1530 1434l-25 -179h135l-24 -186h-135l-152 -1069h-248l86 621h-753l-86 -621h-250l151 1069h-135l25 186h135l25 179h249l-24 -179h753l25 179h248zM477 1069l-31 -221h754l31 221h-754z" />
    <glyph glyph-name="hbar" unicode="&#x127;" horiz-adv-x="1366" 
d="M866 1120q217 0 323.5 -131.5t72.5 -361.5l-88 -627h-240l80 578q46 331 -248 331q-126 0 -232 -59.5t-169 -165.5l-97 -684h-241l170 1206h-131l24 162h129l19 127h241l-18 -127h254l-25 -162h-254l-4 -35q-24 -160 -94 -284l51 -27q83 126 206 193t271 67z" />
    <glyph glyph-name="Imacron" unicode="&#x12a;" horiz-adv-x="602" 
d="M106 1614l25 174h690l-24 -174h-691zM104 0l201 1434h242l-201 -1434h-242z" />
    <glyph glyph-name="imacron" unicode="&#x12b;" horiz-adv-x="524" 
d="M16 1307l25 174h690l-24 -174h-691zM57 0l152 1085h242l-152 -1085h-242z" />
    <glyph glyph-name="Iogonek" unicode="&#x12e;" horiz-adv-x="602" 
d="M244 -287q98 0 174 58l33 -136q-38 -30 -107.5 -50.5t-142.5 -20.5q-112 0 -176 55t-64 148q0 71 41.5 132t114.5 101h-13l201 1434h242l-201 -1434h-2q-102 -22 -162.5 -71.5t-60.5 -114.5q0 -50 33 -75.5t90 -25.5z" />
    <glyph glyph-name="iogonek" unicode="&#x12f;" horiz-adv-x="524" 
d="M373 1565q70 0 113.5 -42t43.5 -108q0 -71 -49.5 -114.5t-122.5 -43.5q-72 0 -115.5 42t-43.5 108q0 71 50.5 114.5t123.5 43.5zM299 0h-2q-102 -22 -162.5 -71.5t-60.5 -114.5q0 -50 33 -75.5t90 -25.5q98 0 174 58l32 -136q-38 -30 -107 -50.5t-142 -20.5
q-112 0 -176 55t-64 148q0 71 41.5 132t114.5 101h-13l152 1085h242z" />
    <glyph glyph-name="Idotaccent" unicode="&#x130;" horiz-adv-x="602" 
d="M449 1565q-73 0 -116.5 42t-43.5 107q0 71 50.5 114.5t123.5 43.5q70 0 114 -42t44 -108q0 -71 -49.5 -114t-122.5 -43zM104 0l201 1434h242l-201 -1434h-242z" />
    <glyph glyph-name="dotlessi" unicode="&#x131;" horiz-adv-x="524" 
d="M57 0l152 1085h242l-152 -1085h-242z" />
    <glyph glyph-name="uni0136" unicode="&#x136;" horiz-adv-x="1357" 
d="M82 0l201 1434h243l-45 -330q-14 -115 -42.5 -193.5t-90.5 -154.5l53 -56l717 734h322l-629 -629l424 -805h-281l-321 647h-4l-248 -239l-55 -408h-244zM481 -160h269l-222 -293h-176z" />
    <glyph glyph-name="uni0137" unicode="&#x137;" horiz-adv-x="1208" 
d="M285 0h-234l211 1495h234l-74 -520q-15 -118 -44 -205.5t-89 -163.5l59 -55q97 115 215 219l359 315h327l-536 -444l395 -641h-287l-289 502h-4l-196 -162zM381 -160h268l-221 -293h-176z" />
    <glyph glyph-name="Lacute" unicode="&#x139;" horiz-adv-x="1132" 
d="M469 1870h268l-223 -291h-176zM82 0l201 1434h243l-166 -1213h687l-33 -221h-932z" />
    <glyph glyph-name="lacute" unicode="&#x13a;" horiz-adv-x="501" 
d="M457 1972h268l-223 -291h-176zM57 0l211 1495h236l-211 -1495h-236z" />
    <glyph glyph-name="uni013B" unicode="&#x13b;" horiz-adv-x="1132" 
d="M82 0l201 1434h243l-166 -1213h687l-33 -221h-932zM391 -160h268l-221 -293h-176z" />
    <glyph glyph-name="uni013C" unicode="&#x13c;" horiz-adv-x="501" 
d="M57 0l211 1495h236l-211 -1495h-236zM16 -160h269l-222 -293h-176z" />
    <glyph glyph-name="Lcaron" unicode="&#x13d;" horiz-adv-x="1220" 
d="M1016 1229l-178 -230l-101 58l121 155q-37 9 -56.5 37.5t-19.5 67.5q0 64 47.5 108.5t116.5 44.5q58 0 91.5 -30.5t33.5 -81.5q0 -58 -55 -129zM82 0l201 1434h249l-170 -1213h773l-31 -221h-1022z" />
    <glyph glyph-name="lcaron" unicode="&#x13e;" horiz-adv-x="567" 
d="M887 1245l-164 -201l-88 68l129 162q-39 12 -62.5 45t-23.5 76q0 61 43 98t104 37q59 0 97.5 -37t38.5 -92q0 -41 -16.5 -73t-57.5 -83zM57 0l211 1495h242l-211 -1495h-242z" />
    <glyph glyph-name="Lslash" unicode="&#x141;" horiz-adv-x="1247" 
d="M195 604l-150 -55l27 180l149 55l92 650h248l-76 -551l226 84l-25 -181l-227 -84l-68 -481h772l-30 -221h-1022z" />
    <glyph glyph-name="lslash" unicode="&#x142;" horiz-adv-x="516" 
d="M8 535l25 182l153 65l101 713h239l-82 -598l152 66l-25 -183l-153 -67l-101 -713h-241l84 600z" />
    <glyph glyph-name="Nacute" unicode="&#x143;" horiz-adv-x="1490" 
d="M942 1870h268l-223 -291h-176zM82 0l201 1434h264l514 -1078h6l147 1078h244l-201 -1434h-264l-516 1069h-6l-145 -1069h-244z" />
    <glyph glyph-name="nacute" unicode="&#x144;" horiz-adv-x="1288" 
d="M793 1563h268l-223 -291h-176zM285 0h-236l152 1085h200v-12q-14 -104 -53 -184l70 -37q71 132 178.5 200t228.5 68q196 0 294 -134t67 -359l-88 -627h-236l80 578q23 163 -32 248t-187 85q-99 0 -192.5 -62.5t-149.5 -164.5z" />
    <glyph glyph-name="uni0145" unicode="&#x145;" horiz-adv-x="1490" 
d="M82 0l201 1434h264l514 -1078h6l147 1078h244l-201 -1434h-264l-516 1069h-6l-145 -1069h-244zM502 -160h268l-221 -293h-176z" />
    <glyph glyph-name="uni0146" unicode="&#x146;" horiz-adv-x="1288" 
d="M381 684l-96 -684h-236l152 1085h200v-12q-14 -104 -53 -184l70 -37q71 132 178.5 200t228.5 68q196 0 294 -134t67 -359l-88 -627h-236l80 578q23 163 -32 248t-187 85q-99 0 -192.5 -62.5t-149.5 -164.5zM414 -160h268l-221 -293h-176z" />
    <glyph glyph-name="Ncaron" unicode="&#x147;" horiz-adv-x="1490" 
d="M766 1579l-168 291h215l31 -66q28 -70 37 -110h65q16 32 66 110l49 66h223l-250 -291h-268zM82 0l201 1434h264l514 -1078h6l147 1078h244l-201 -1434h-264l-516 1069h-6l-145 -1069h-244z" />
    <glyph glyph-name="ncaron" unicode="&#x148;" horiz-adv-x="1288" 
d="M616 1272l-167 291h215l30 -66q27 -68 37 -111h66q21 42 65 111l49 66h224l-250 -291h-269zM381 684l-96 -684h-236l152 1085h200v-12q-14 -104 -53 -184l70 -37q71 132 178.5 200t228.5 68q196 0 294 -134t67 -359l-88 -627h-236l80 578q23 163 -32 248t-187 85
q-99 0 -192.5 -62.5t-149.5 -164.5z" />
    <glyph glyph-name="Eng" unicode="&#x14a;" horiz-adv-x="1656" 
d="M358 0h-249l200 1434h273l612 -1061h4l150 1061h247l-213 -1524q-28 -200 -145.5 -303t-314.5 -103q-70 0 -103 13l-8 198q33 -8 88 -8q112 0 170 48.5t72 150.5l14 94h-31l-616 1051h-4z" />
    <glyph glyph-name="eng" unicode="&#x14b;" horiz-adv-x="1454" 
d="M322 0h-242l151 1085h228v-12q-9 -54 -22.5 -91.5t-43.5 -94.5l49 -27q99 135 217.5 197.5t262.5 62.5q215 0 320 -138t69 -394l-94 -678q-29 -201 -147 -303.5t-316 -102.5q-66 0 -103 13l-8 198q33 -8 88 -8q117 0 173.5 53t74.5 170l86 623q26 183 -35 269.5
t-209 86.5q-126 0 -233 -59.5t-170 -165.5z" />
    <glyph glyph-name="Omacron" unicode="&#x14c;" horiz-adv-x="1656" 
d="M592 1626l24 174h691l-25 -174h-690zM129 662q0 232 97.5 416t273.5 287t399 103q303 0 490.5 -190.5t187.5 -507.5q0 -232 -97 -416t-272.5 -287.5t-398.5 -103.5q-303 0 -491.5 191t-188.5 508zM377 678q0 -227 120.5 -360.5t321.5 -133.5q225 0 367.5 156t142.5 414
q0 228 -120 361.5t-322 133.5q-226 0 -368 -156t-142 -415z" />
    <glyph glyph-name="omacron" unicode="&#x14d;" horiz-adv-x="1300" 
d="M354 1307l25 174h690l-25 -174h-690zM80 508q0 273 169 442.5t437 169.5q239 0 387 -148.5t148 -391.5q0 -275 -168.5 -445t-442.5 -170q-237 0 -383.5 149t-146.5 394zM981 567q0 154 -85.5 247t-227.5 93q-156 0 -253.5 -109t-97.5 -280q0 -155 86 -247.5t228 -92.5
q157 0 253.5 109.5t96.5 279.5z" />
    <glyph glyph-name="Ohungarumlaut" unicode="&#x150;" horiz-adv-x="1656" 
d="M791 1882h256l-201 -291h-176zM1223 1882h256l-271 -291h-188zM129 662q0 232 97.5 416t273.5 287t399 103q303 0 490.5 -190.5t187.5 -507.5q0 -232 -97 -416t-272.5 -287.5t-398.5 -103.5q-303 0 -491.5 191t-188.5 508zM377 678q0 -227 120.5 -360.5t321.5 -133.5
q225 0 367.5 156t142.5 414q0 228 -120 361.5t-322 133.5q-226 0 -368 -156t-142 -415z" />
    <glyph glyph-name="ohungarumlaut" unicode="&#x151;" horiz-adv-x="1300" 
d="M553 1563h256l-201 -291h-176zM985 1563h256l-270 -291h-189zM80 508q0 273 169 442.5t437 169.5q239 0 387 -148.5t148 -391.5q0 -275 -168.5 -445t-442.5 -170q-237 0 -383.5 149t-146.5 394zM981 567q0 154 -85.5 247t-227.5 93q-156 0 -253.5 -109t-97.5 -280
q0 -155 86 -247.5t228 -92.5q157 0 253.5 109.5t96.5 279.5z" />
    <glyph glyph-name="OE" unicode="&#x152;" horiz-adv-x="2238" 
d="M127 655q0 237 102.5 414t288.5 271t432 94h1338l-31 -220h-809l-55 -380h745l-29 -203h-745l-57 -412h811l-31 -219h-1311q-292 0 -470.5 180t-178.5 475zM379 686q0 -212 121 -339.5t319 -127.5h240l139 995h-264q-261 0 -408 -144t-147 -384z" />
    <glyph glyph-name="oe" unicode="&#x153;" horiz-adv-x="2275" 
d="M2208 590q0 -60 -13 -127h-860q7 -141 94 -221t230 -80q113 0 195.5 46t132.5 126l131 -156q-72 -102 -200.5 -157.5t-275.5 -55.5q-176 0 -304.5 77.5t-192.5 217.5q-76 -140 -215 -217.5t-320 -77.5q-239 0 -385.5 149t-146.5 394q0 272 169.5 442t436.5 170
q168 0 294 -75t189 -209q72 134 205.5 209t302.5 75q238 0 385.5 -146.5t147.5 -383.5zM1346 631h628q-6 134 -89 215.5t-216 81.5q-137 0 -225 -80.5t-98 -216.5zM631 178q157 0 253.5 109.5t96.5 279.5q0 154 -85.5 247t-229.5 93q-155 0 -253 -109t-98 -280
q0 -155 86.5 -247.5t229.5 -92.5z" />
    <glyph glyph-name="Racute" unicode="&#x154;" horiz-adv-x="1366" 
d="M877 1870h268l-223 -291h-177zM1354 1059q0 -187 -126 -296.5t-343 -123.5l-8 -76q94 -26 142 -78.5t79 -158.5l49 -170q31 -104 78 -131l-4 -25h-271q-29 49 -39 96l-61 223q-60 216 -258 216h-193l-73 -535h-244l201 1434h665q195 0 300.5 -97.5t105.5 -277.5zM430 750
h393q130 0 203.5 70.5t73.5 189.5q0 107 -57.5 158t-155.5 51h-391z" />
    <glyph glyph-name="racute" unicode="&#x155;" horiz-adv-x="765" 
d="M543 1563h268l-223 -291h-176zM381 688l-96 -688h-236l152 1085h198v-14q-6 -85 -57 -182l76 -27q57 127 130 184.5t169 57.5q63 0 90 -17l-14 -213q-55 19 -131 19q-87 0 -164 -54t-117 -151z" />
    <glyph glyph-name="uni0156" unicode="&#x156;" horiz-adv-x="1366" 
d="M1354 1059q0 -187 -126 -296.5t-343 -123.5l-8 -76q94 -26 142 -78.5t79 -158.5l49 -170q31 -104 78 -131l-4 -25h-271q-29 49 -39 96l-61 223q-60 216 -258 216h-193l-73 -535h-244l201 1434h665q195 0 300.5 -97.5t105.5 -277.5zM430 750h393q130 0 203.5 70.5
t73.5 189.5q0 107 -57.5 158t-155.5 51h-391zM498 -453h-176l129 293h268z" />
    <glyph glyph-name="uni0157" unicode="&#x157;" horiz-adv-x="765" 
d="M381 688l-96 -688h-236l152 1085h198v-14q-6 -85 -57 -182l76 -27q57 127 130 184.5t169 57.5q63 0 90 -17l-14 -213q-55 19 -131 19q-87 0 -164 -54t-117 -151zM10 -160h269l-222 -293h-176z" />
    <glyph glyph-name="Rcaron" unicode="&#x158;" horiz-adv-x="1366" 
d="M1219 1870l-250 -291h-269l-168 291h216l30 -66q28 -70 37 -110h66q19 38 65 110l49 66h224zM1354 1059q0 -187 -126 -296.5t-343 -123.5l-8 -76q94 -26 142 -78.5t79 -158.5l49 -170q31 -104 78 -131l-4 -25h-271q-29 49 -39 96l-61 223q-60 216 -258 216h-193l-73 -535
h-244l201 1434h665q195 0 300.5 -97.5t105.5 -277.5zM430 750h393q130 0 203.5 70.5t73.5 189.5q0 107 -57.5 158t-155.5 51h-391z" />
    <glyph glyph-name="rcaron" unicode="&#x159;" horiz-adv-x="765" 
d="M367 1272l-168 291h215l30 -66q27 -68 37 -111h66q21 42 65 111l50 66h223l-250 -291h-268zM381 688l-96 -688h-236l152 1085h198v-14q-6 -85 -57 -182l76 -27q57 127 130 184.5t169 57.5q63 0 90 -17l-14 -213q-55 19 -131 19q-87 0 -164 -54t-117 -151z" />
    <glyph glyph-name="Sacute" unicode="&#x15a;" horiz-adv-x="1339" 
d="M821 1874h269l-224 -291h-176zM74 432l241 39q10 -145 107.5 -222t255.5 -77q148 0 224.5 55.5t76.5 159.5q0 50 -19 87t-59 63t-88 43t-119 34q-63 14 -111.5 28t-101.5 34t-91.5 42t-75 54t-59.5 69t-36.5 86t-13.5 107q0 202 147 318t385 116q237 0 391.5 -118.5
t180.5 -315.5l-240 -49q-18 133 -113.5 205t-232.5 72q-126 0 -196 -54t-70 -145q0 -29 7.5 -52.5t19 -42t37 -35t50.5 -29t70 -26t85.5 -24.5t107.5 -27q65 -17 113 -33.5t104.5 -49.5t92.5 -74t60.5 -107t24.5 -149q0 -210 -149.5 -329.5t-411.5 -119.5t-421 128.5
t-173 338.5z" />
    <glyph glyph-name="sacute" unicode="&#x15b;" horiz-adv-x="1097" 
d="M651 1563h269l-224 -291h-176zM27 301l190 72q21 -109 107 -167.5t215 -58.5q102 0 155.5 38.5t53.5 109.5q0 31 -11 54t-28.5 39t-53 30t-71 24t-95.5 23q-60 12 -106 25.5t-99 39t-87.5 58.5t-58 84.5t-23.5 115.5q0 155 121 243.5t313 88.5q193 0 326.5 -86.5
t162.5 -232.5l-188 -70q-21 97 -107.5 154t-203.5 57q-89 0 -140 -35.5t-51 -97.5q0 -30 12.5 -52.5t31.5 -38t60.5 -31t79.5 -25.5t107 -27q80 -19 134.5 -40t108 -57t80.5 -92t27 -133q0 -168 -126.5 -258t-330.5 -90q-202 0 -339 91t-166 245z" />
    <glyph glyph-name="Scedilla" unicode="&#x15e;" horiz-adv-x="1339" 
d="M834 827q65 -17 113 -33.5t104.5 -49.5t92.5 -74t60.5 -107t24.5 -149q0 -199 -135.5 -317t-372.5 -130q-17 -31 -78 -73l16 -23q24 8 72 8q81 0 129.5 -48t48.5 -124q0 -102 -83 -162.5t-218 -60.5q-151 0 -239 65l57 119q75 -57 182 -57q71 0 110.5 27.5t39.5 74.5
q0 37 -23.5 60.5t-64.5 23.5t-76 -14l-74 39l64 147q-226 20 -362 145t-148 318l241 39q10 -145 107.5 -222t255.5 -77q148 0 224.5 55.5t76.5 159.5q0 50 -19 87t-59 63t-88 43t-119 34q-63 14 -111.5 28t-101.5 34t-91.5 42t-75 54t-59.5 69t-36.5 86t-13.5 107
q0 202 147 318t385 116q237 0 391.5 -118.5t180.5 -315.5l-240 -49q-18 133 -113.5 205t-232.5 72q-126 0 -196 -54t-70 -145q0 -29 7.5 -52.5t19 -42t37 -35t50.5 -29t70 -26t85.5 -24.5t107.5 -27z" />
    <glyph glyph-name="scedilla" unicode="&#x15f;" horiz-adv-x="1097" 
d="M639 635q80 -19 134.5 -40t108 -57t80.5 -92t27 -133q0 -168 -126.5 -258t-330.5 -90h-26q-17 -29 -78 -71l16 -23q24 8 72 8q81 0 129.5 -48t48.5 -124q0 -102 -83 -162.5t-218 -60.5q-151 0 -239 65l57 119q75 -57 182 -57q71 0 110.5 27.5t39.5 74.5q0 37 -23.5 60.5
t-64.5 23.5t-76 -14l-74 39l70 160q-141 31 -233 114.5t-115 204.5l190 72q21 -109 107 -167.5t215 -58.5q102 0 155.5 38.5t53.5 109.5q0 31 -11 54t-28.5 39t-53 30t-71 24t-95.5 23q-60 12 -106 25.5t-99 39t-87.5 58.5t-58 84.5t-23.5 115.5q0 155 121 243.5t313 88.5
q193 0 326.5 -86.5t162.5 -232.5l-188 -70q-21 97 -107.5 154t-203.5 57q-89 0 -140 -35.5t-51 -97.5q0 -30 12.5 -52.5t31.5 -38t60.5 -31t79.5 -25.5t107 -27z" />
    <glyph glyph-name="Scaron" unicode="&#x160;" horiz-adv-x="1339" 
d="M645 1583l-168 291h215l31 -66q28 -70 37 -110h65q16 32 66 110l49 66h223l-250 -291h-268zM74 432l241 39q10 -145 107.5 -222t255.5 -77q148 0 224.5 55.5t76.5 159.5q0 50 -19 87t-59 63t-88 43t-119 34q-63 14 -111.5 28t-101.5 34t-91.5 42t-75 54t-59.5 69
t-36.5 86t-13.5 107q0 202 147 318t385 116q237 0 391.5 -118.5t180.5 -315.5l-240 -49q-18 133 -113.5 205t-232.5 72q-126 0 -196 -54t-70 -145q0 -29 7.5 -52.5t19 -42t37 -35t50.5 -29t70 -26t85.5 -24.5t107.5 -27q65 -17 113 -33.5t104.5 -49.5t92.5 -74t60.5 -107
t24.5 -149q0 -210 -149.5 -329.5t-411.5 -119.5t-421 128.5t-173 338.5z" />
    <glyph glyph-name="scaron" unicode="&#x161;" horiz-adv-x="1097" 
d="M475 1272l-168 291h215l31 -66q27 -68 37 -111h65q18 36 66 111l49 66h223l-250 -291h-268zM27 301l190 72q21 -109 107 -167.5t215 -58.5q102 0 155.5 38.5t53.5 109.5q0 31 -11 54t-28.5 39t-53 30t-71 24t-95.5 23q-60 12 -106 25.5t-99 39t-87.5 58.5t-58 84.5
t-23.5 115.5q0 155 121 243.5t313 88.5q193 0 326.5 -86.5t162.5 -232.5l-188 -70q-21 97 -107.5 154t-203.5 57q-89 0 -140 -35.5t-51 -97.5q0 -30 12.5 -52.5t31.5 -38t60.5 -31t79.5 -25.5t107 -27q80 -19 134.5 -40t108 -57t80.5 -92t27 -133q0 -168 -126.5 -258
t-330.5 -90q-202 0 -339 91t-166 245z" />
    <glyph glyph-name="uni0162" unicode="&#x162;" horiz-adv-x="1265" 
d="M680 0h-59q0 -43 -89 -106l17 -23q24 8 72 8q81 0 129.5 -48t48.5 -124q0 -102 -83 -162.5t-218 -60.5q-152 0 -240 65l57 119q75 -57 183 -57q71 0 110 27.5t39 74.5q0 37 -23.5 60.5t-64.5 23.5t-76 -14l-73 39l77 178h-51l168 1214h-467l33 220h1182l-35 -220h-469z
" />
    <glyph glyph-name="uni0163" unicode="&#x163;" horiz-adv-x="849" 
d="M838 887h-312l-77 -553q-11 -83 21 -112t105 -29q83 0 130 30l-62 -221q-42 -16 -104 -22q-13 -37 -84 -86l16 -23q24 8 72 8q81 0 129.5 -48t48.5 -124q0 -102 -83 -162.5t-218 -60.5q-152 0 -240 65l58 119q75 -57 182 -57q71 0 110 27.5t39 74.5q0 37 -23.5 60.5
t-64.5 23.5q-40 0 -75 -14l-74 39l69 160q-118 20 -165 99.5t-29 205.5l84 600h-209l29 198h208l37 275l244 45l-45 -320h311z" />
    <glyph glyph-name="Tcaron" unicode="&#x164;" horiz-adv-x="1265" 
d="M1169 1870l-249 -291h-269l-168 291h215l31 -66q28 -70 37 -110h65q16 32 66 110l49 66h223zM170 1434h1182l-35 -220h-469l-168 -1214h-244l168 1214h-467z" />
    <glyph glyph-name="tcaron" unicode="&#x165;" horiz-adv-x="903" 
d="M1016 1358l-150 -184l-86 67l109 135q-41 12 -64.5 45t-23.5 78q0 60 42 96.5t101 36.5q60 0 98.5 -36t38.5 -93q0 -38 -15 -70t-50 -75zM475 -27q-158 0 -223.5 84t-44.5 230l84 600h-209l29 198h208l37 275l244 45l-45 -320h311l-28 -198h-312l-77 -547
q-11 -85 21.5 -116t104.5 -31q82 0 130 30l-62 -219q-70 -31 -168 -31z" />
    <glyph glyph-name="Tbar" unicode="&#x166;" horiz-adv-x="1409" 
d="M1436 1434l-31 -220h-502l-55 -389h364l-28 -196h-363l-88 -629h-248l88 629h-346l29 196h346l55 389h-499l30 220h1248z" />
    <glyph glyph-name="tbar" unicode="&#x167;" horiz-adv-x="849" 
d="M866 1085l-28 -198h-312l-30 -215h313l-53 -172h-285l-22 -160q-11 -85 21.5 -116t104.5 -31q82 0 130 30l-62 -219q-70 -31 -168 -31q-158 0 -223.5 84t-44.5 230l31 213h-209l22 172h209l31 215h-209l29 198h208l37 275l244 45l-45 -320h311z" />
    <glyph glyph-name="Umacron" unicode="&#x16a;" horiz-adv-x="1447" 
d="M528 1614l25 174h690l-24 -174h-691zM154 563l120 871h242l-121 -869q-27 -192 49.5 -286.5t239.5 -94.5t253.5 77.5t117.5 268.5l125 904h243l-131 -938q-73 -531 -614 -531q-104 0 -191 22.5t-157.5 68.5t-114.5 117t-62 168t1 222z" />
    <glyph glyph-name="umacron" unicode="&#x16b;" horiz-adv-x="1290" 
d="M406 1307l24 174h690l-24 -174h-690zM907 401l97 684h237l-154 -1085h-208l2 12q17 116 61 199l-70 25q-73 -133 -183 -202t-247 -69q-193 0 -282.5 131.5t-57.5 362.5l91 626h235l-82 -577q-23 -164 30 -248t181 -84q110 0 201.5 60.5t148.5 164.5z" />
    <glyph glyph-name="Uring" unicode="&#x16e;" horiz-adv-x="1447" 
d="M608 1788q0 115 90 191.5t224 76.5q119 0 193.5 -65.5t74.5 -171.5q0 -115 -88.5 -192t-222.5 -77q-120 0 -195.5 66t-75.5 172zM770 1794q0 -51 32.5 -82t86.5 -31q62 0 100.5 35.5t38.5 95.5q0 51 -32 82t-87 31q-60 0 -99.5 -36.5t-39.5 -94.5zM154 563l120 871h242
l-121 -869q-27 -192 49.5 -286.5t239.5 -94.5t253.5 77.5t117.5 268.5l125 904h243l-131 -938q-73 -531 -614 -531q-104 0 -191 22.5t-157.5 68.5t-114.5 117t-62 168t1 222z" />
    <glyph glyph-name="uring" unicode="&#x16f;" horiz-adv-x="1290" 
d="M485 1481q0 115 90 191.5t224 76.5q119 0 193.5 -66t74.5 -172q0 -115 -88.5 -191.5t-222.5 -76.5q-120 0 -195.5 66t-75.5 172zM647 1487q0 -51 32.5 -82t86.5 -31q62 0 100.5 35.5t38.5 95.5q0 51 -32 82t-87 31q-60 0 -99.5 -36.5t-39.5 -94.5zM907 401l97 684h237
l-154 -1085h-208l2 12q17 116 61 199l-70 25q-73 -133 -183 -202t-247 -69q-193 0 -282.5 131.5t-57.5 362.5l91 626h235l-82 -577q-23 -164 30 -248t181 -84q110 0 201.5 60.5t148.5 164.5z" />
    <glyph glyph-name="Uhungarumlaut" unicode="&#x170;" horiz-adv-x="1447" 
d="M725 1870h256l-201 -291h-176zM1157 1870h256l-270 -291h-189zM154 563l120 871h242l-121 -869q-27 -192 49.5 -286.5t239.5 -94.5t253.5 77.5t117.5 268.5l125 904h243l-131 -938q-73 -531 -614 -531q-104 0 -191 22.5t-157.5 68.5t-114.5 117t-62 168t1 222z" />
    <glyph glyph-name="uhungarumlaut" unicode="&#x171;" horiz-adv-x="1290" 
d="M602 1563h256l-201 -291h-176zM1034 1563h256l-270 -291h-189zM907 401l97 684h237l-154 -1085h-208l2 12q17 116 61 199l-70 25q-73 -133 -183 -202t-247 -69q-193 0 -282.5 131.5t-57.5 362.5l91 626h235l-82 -577q-23 -164 30 -248t181 -84q110 0 201.5 60.5
t148.5 164.5z" />
    <glyph glyph-name="Uogonek" unicode="&#x172;" horiz-adv-x="1447" 
d="M1055 530l125 904h243l-131 -938q-70 -516 -585 -531q-84 -55 -84 -131q0 -50 32.5 -75t89.5 -25q100 0 175 57l32 -135q-38 -30 -107.5 -51t-142.5 -21q-112 0 -175.5 55t-63.5 148q0 109 90 186q-104 16 -184.5 59.5t-136 114.5t-76.5 177t-2 239l120 871h242
l-121 -869q-27 -192 49.5 -286.5t239.5 -94.5t253.5 77.5t117.5 268.5z" />
    <glyph glyph-name="uogonek" unicode="&#x173;" horiz-adv-x="1290" 
d="M956 -287q98 0 174 58l33 -136q-38 -30 -107.5 -50.5t-142.5 -20.5q-112 0 -175.5 55t-63.5 148q0 84 56.5 152.5t152.5 105.5q17 107 59 186l-70 25q-73 -133 -183 -202t-247 -69q-193 0 -282.5 131.5t-57.5 362.5l91 626h235l-82 -577q-23 -164 30 -248t181 -84
q110 0 201.5 60.5t148.5 164.5l97 684h237l-154 -1085h-30q-102 -22 -162.5 -71.5t-60.5 -114.5q0 -50 32.5 -75.5t89.5 -25.5z" />
    <glyph glyph-name="Wcircumflex" unicode="&#x174;" horiz-adv-x="1964" 
d="M995 1579h-223l250 291h268l168 -291h-215l-31 66q-27 68 -34 108h-66q-6 -13 -68 -108zM285 0l-121 1434h242l43 -574q16 -273 -23 -571h92q43 178 166 456l311 689h205l109 -560q70 -409 65 -585h92q46 313 119 536l205 609h262l-520 -1434h-277l-118 659
q-43 279 -35 508h-68q-56 -280 -172 -526l-301 -641h-276z" />
    <glyph glyph-name="wcircumflex" unicode="&#x175;" horiz-adv-x="1669" 
d="M813 1272h-223l250 291h268l168 -291h-215l-31 65q-29 72 -35 109h-65q-10 -20 -21.5 -38.5t-27 -41t-19.5 -29.5zM668 381l-170 -381h-277l-125 1085h234l37 -380q11 -145 8 -242.5t-21 -214.5h95q51 201 169 461l179 376h217l78 -378q50 -253 41 -459h92
q39 241 116 457l142 380h241l-424 -1085h-270l-74 383q-46 311 -34 494h-84q-14 -74 -42 -161t-51 -145.5t-77 -189.5z" />
    <glyph glyph-name="Ycircumflex" unicode="&#x176;" horiz-adv-x="1400" 
d="M717 1579h-223l249 291h269l168 -291h-215l-31 66q-29 72 -35 108h-65q-6 -13 -68 -108zM582 555l-426 879h272l137 -304q104 -264 111 -382h94q15 56 73.5 159.5t147.5 229.5l219 297h289l-674 -879l-75 -555h-244z" />
    <glyph glyph-name="ycircumflex" unicode="&#x177;" horiz-adv-x="1222" 
d="M590 1272h-223l249 291h269l168 -291h-215l-31 65q-29 72 -35 109h-65q-10 -20 -21.5 -38.5t-27 -41t-19.5 -29.5zM102 -496q-92 0 -149 31l31 213q59 -24 125 -24q156 0 243 165l60 115l-318 1081h254l109 -413q67 -279 67 -430h84q38 112 72.5 195t95.5 202l230 446
h272l-711 -1257q-92 -160 -202 -242t-263 -82z" />
    <glyph glyph-name="Ydieresis" unicode="&#x178;" horiz-adv-x="1400" 
d="M582 1565q-73 0 -116.5 42t-43.5 107q0 71 50.5 114.5t123.5 43.5q70 0 114 -42t44 -108q0 -71 -49.5 -114t-122.5 -43zM1096 1565q-73 0 -116.5 42t-43.5 107q0 71 50.5 114.5t123.5 43.5q70 0 114 -42t44 -108q0 -71 -49.5 -114t-122.5 -43zM582 555l-426 879h272
l137 -304q104 -264 111 -382h94q15 56 73.5 159.5t147.5 229.5l219 297h289l-674 -879l-75 -555h-244z" />
    <glyph glyph-name="Zacute" unicode="&#x179;" horiz-adv-x="1306" 
d="M846 1870h268l-223 -291h-176zM1141 0h-1131l29 203l975 1057l-51 63q-122 -109 -338 -109h-426l30 220h1096l-33 -203l-977 -1057l52 -63q121 108 338 108h471z" />
    <glyph glyph-name="zacute" unicode="&#x17a;" horiz-adv-x="1075" 
d="M684 1563h268l-223 -291h-176zM963 199l-31 -199h-934l29 201l761 712l-45 62q-65 -47 -125.5 -67.5t-148.5 -20.5h-334l29 198h905l-27 -200l-763 -713l45 -61q59 45 119.5 66.5t154.5 21.5h365z" />
    <glyph glyph-name="Zdotaccent" unicode="&#x17b;" horiz-adv-x="1306" 
d="M805 1565q-73 0 -116.5 42t-43.5 107q0 71 50.5 114.5t123.5 43.5q70 0 114 -42t44 -108q0 -71 -49.5 -114t-122.5 -43zM1141 0h-1131l29 203l975 1057l-51 63q-122 -109 -338 -109h-426l30 220h1096l-33 -203l-977 -1057l52 -63q121 108 338 108h471z" />
    <glyph glyph-name="zdotaccent" unicode="&#x17c;" horiz-adv-x="1075" 
d="M643 1257q-72 0 -116 42t-44 108q0 71 50.5 114.5t123.5 43.5q70 0 114 -42t44 -108q0 -71 -49.5 -114.5t-122.5 -43.5zM598 199h365l-31 -199h-934l29 201l761 712l-45 62q-65 -47 -125.5 -67.5t-148.5 -20.5h-334l29 198h905l-27 -200l-763 -713l45 -61
q59 45 119.5 66.5t154.5 21.5z" />
    <glyph glyph-name="Zcaron" unicode="&#x17d;" horiz-adv-x="1306" 
d="M670 1579l-168 291h215l31 -66q26 -64 36 -110h66q19 38 65 110l50 66h223l-250 -291h-268zM1141 0h-1131l29 203l975 1057l-51 63q-122 -109 -338 -109h-426l30 220h1096l-33 -203l-977 -1057l52 -63q121 108 338 108h471z" />
    <glyph glyph-name="zcaron" unicode="&#x17e;" horiz-adv-x="1075" 
d="M510 1272l-168 291h215l31 -66q27 -68 37 -111h65q18 36 66 111l49 66h223l-250 -291h-268zM598 199h365l-31 -199h-934l29 201l761 712l-45 62q-65 -47 -125.5 -67.5t-148.5 -20.5h-334l29 198h905l-27 -200l-763 -713l45 -61q59 45 119.5 66.5t154.5 21.5z" />
    <glyph glyph-name="uni0218" unicode="&#x218;" horiz-adv-x="1339" 
d="M74 432l241 39q10 -145 107.5 -222t255.5 -77q148 0 224.5 55.5t76.5 159.5q0 50 -19 87t-59 63t-88 43t-119 34q-63 14 -111.5 28t-101.5 34t-91.5 42t-75 54t-59.5 69t-36.5 86t-13.5 107q0 202 147 318t385 116q237 0 391.5 -118.5t180.5 -315.5l-240 -49
q-18 133 -113.5 205t-232.5 72q-126 0 -196 -54t-70 -145q0 -29 7.5 -52.5t19 -42t37 -35t50.5 -29t70 -26t85.5 -24.5t107.5 -27q65 -17 113 -33.5t104.5 -49.5t92.5 -74t60.5 -107t24.5 -149q0 -210 -149.5 -329.5t-411.5 -119.5t-421 128.5t-173 338.5zM510 -160h268
l-221 -293h-176z" />
    <glyph glyph-name="uni0219" unicode="&#x219;" horiz-adv-x="1097" 
d="M27 301l190 72q21 -109 107 -167.5t215 -58.5q102 0 155.5 38.5t53.5 109.5q0 31 -11 54t-28.5 39t-53 30t-71 24t-95.5 23q-60 12 -106 25.5t-99 39t-87.5 58.5t-58 84.5t-23.5 115.5q0 155 121 243.5t313 88.5q193 0 326.5 -86.5t162.5 -232.5l-188 -70
q-21 97 -107.5 154t-203.5 57q-89 0 -140 -35.5t-51 -97.5q0 -30 12.5 -52.5t31.5 -38t60.5 -31t79.5 -25.5t107 -27q80 -19 134.5 -40t108 -57t80.5 -92t27 -133q0 -168 -126.5 -258t-330.5 -90q-202 0 -339 91t-166 245zM295 -160h268l-221 -293h-176z" />
    <glyph glyph-name="uni021A" unicode="&#x21a;" horiz-adv-x="1265" 
d="M170 1434h1182l-35 -220h-469l-168 -1214h-244l168 1214h-467zM446 -453h-176l129 293h269z" />
    <glyph glyph-name="uni021B" unicode="&#x21b;" horiz-adv-x="849" 
d="M475 -25q-158 0 -223.5 84t-44.5 228l84 600h-209l29 198h208l37 275l244 45l-45 -320h311l-28 -198h-312l-77 -553q-11 -83 21 -112t105 -29q83 0 130 30l-62 -221q-69 -27 -168 -27zM322 -160h268l-221 -293h-176z" />
    <glyph glyph-name="uni0237" unicode="&#x237;" horiz-adv-x="499" 
d="M444 1085l-165 -1175q-28 -200 -146 -303t-315 -103q-64 0 -105 13l-6 198q33 -8 88 -8q118 0 174.5 53t71.5 170l162 1155h241z" />
    <glyph glyph-name="circumflex" unicode="&#x2c6;" horiz-adv-x="776" 
d="M373 1272h-223l249 291h269l168 -291h-215l-31 65q-29 72 -35 109h-66q-13 -25 -67 -109z" />
    <glyph glyph-name="caron" unicode="&#x2c7;" horiz-adv-x="886" 
d="M414 1272l-168 291h215l31 -66q25 -63 36 -111h66q21 42 65 111l50 66h223l-250 -291h-268z" />
    <glyph glyph-name="breve" unicode="&#x2d8;" horiz-adv-x="876" 
d="M244 1563h196q-4 -74 31.5 -114t99.5 -40q72 0 113.5 41t44.5 113h193q0 -138 -98 -223t-259 -85q-152 0 -239 84t-82 224z" />
    <glyph glyph-name="dotaccent" unicode="&#x2d9;" horiz-adv-x="514" 
d="M375 1257q-72 0 -116 42t-44 108q0 71 50.5 114.5t123.5 43.5q70 0 114 -42t44 -108q0 -71 -49.5 -114.5t-122.5 -43.5z" />
    <glyph glyph-name="ring" unicode="&#x2da;" horiz-adv-x="778" 
d="M236 1481q0 115 89.5 191.5t223.5 76.5q119 0 193.5 -66t74.5 -172q0 -115 -88.5 -191.5t-222.5 -76.5q-120 0 -195 66t-75 172zM397 1487q0 -51 32.5 -82t86.5 -31q62 0 100.5 35.5t38.5 95.5q0 52 -31.5 82.5t-86.5 30.5q-61 0 -100.5 -36.5t-39.5 -94.5z" />
    <glyph glyph-name="ogonek" unicode="&#x2db;" horiz-adv-x="737" 
d="M279 51l83 -20v-31q-102 -22 -162.5 -71.5t-60.5 -114.5q0 -50 33 -75.5t90 -25.5q98 0 174 58l33 -136q-38 -30 -107.5 -50.5t-142.5 -20.5q-112 0 -175.5 55t-63.5 148q0 102 83 180t216 104z" />
    <glyph glyph-name="tilde" unicode="&#x2dc;" horiz-adv-x="843" 
d="M342 1255h-137q6 165 62.5 245.5t150.5 80.5q31 0 57 -8t51.5 -28t37 -31t38.5 -39q47 -50 82 -50q56 0 68 152h137q-4 -162 -61 -243t-150 -81q-94 0 -189 105q-1 1 -8 8.5t-8 9t-7.5 7.5t-8.5 7.5t-7.5 6t-9 5.5t-9 3.5t-10.5 3t-11 0.5q-59 0 -68 -154z" />
    <glyph glyph-name="hungarumlaut" unicode="&#x2dd;" horiz-adv-x="925" 
d="M303 1563h256l-201 -291h-176zM735 1563h256l-270 -291h-189z" />
    <glyph glyph-name="gravecomb" unicode="&#x300;" 
d="M-119 1272l-141 291h270l49 -291h-178z" />
    <glyph glyph-name="acutecomb" unicode="&#x301;" 
d="M-176 1563h268l-223 -291h-176z" />
    <glyph glyph-name="uni0302" unicode="&#x302;" 
d="M-403 1272h-224l250 291h268l168 -291h-215l-30 65q-29 72 -35 109h-66q-13 -25 -67 -109z" />
    <glyph glyph-name="tildecomb" unicode="&#x303;" 
d="M-502 1255h-137q6 165 62.5 245.5t150.5 80.5q31 0 57 -8t51.5 -28t37 -31t38.5 -39q47 -50 82 -50q56 0 68 152h137q-4 -162 -61 -243t-150 -81t-188 105q-18 20 -25 27t-23 15.5t-32 8.5q-59 0 -68 -154z" />
    <glyph glyph-name="uni0304" unicode="&#x304;" 
d="M-674 1307l25 174h690l-25 -174h-690z" />
    <glyph glyph-name="uni0306" unicode="&#x306;" 
d="M-633 1563h197q-4 -74 31.5 -114t99.5 -40q72 0 113.5 41t44.5 113h192q0 -138 -97.5 -223t-258.5 -85q-152 0 -239.5 84t-82.5 224z" />
    <glyph glyph-name="uni0307" unicode="&#x307;" 
d="M-139 1257q-72 0 -116 42t-44 108q0 71 50.5 114.5t123.5 43.5q70 0 114 -42t44 -108q0 -71 -49.5 -114.5t-122.5 -43.5z" />
    <glyph glyph-name="uni0308" unicode="&#x308;" 
d="M-635 1257q-72 0 -116 42t-44 108q0 71 50.5 114.5t123.5 43.5q70 0 114 -42t44 -108q0 -71 -49.5 -114.5t-122.5 -43.5zM-121 1257q-72 0 -116 42t-44 108q0 71 51 114.5t124 43.5q70 0 113.5 -42t43.5 -108q0 -71 -49.5 -114.5t-122.5 -43.5z" />
    <glyph glyph-name="uni030A" unicode="&#x30a;" 
d="M-543 1481q0 115 90 191.5t224 76.5q119 0 193.5 -66t74.5 -172q0 -115 -88.5 -191.5t-222.5 -76.5q-120 0 -195.5 66t-75.5 172zM-381 1487q0 -51 32.5 -82t86.5 -31q62 0 100.5 35.5t38.5 95.5q0 51 -32 82t-87 31q-60 0 -99.5 -36.5t-39.5 -94.5z" />
    <glyph glyph-name="uni030B" unicode="&#x30b;" 
d="M-623 1563h256l-200 -291h-176zM-190 1563h256l-271 -291h-188z" />
    <glyph glyph-name="uni030C" unicode="&#x30c;" 
d="M-473 1272l-168 291h215l31 -66q27 -68 37 -111h65q18 36 66 111l49 66h223l-250 -291h-268z" />
    <glyph glyph-name="uni0312" unicode="&#x312;" 
d="M-264 1513l174 230l113 -66l-111 -143q40 -10 62 -41.5t22 -75.5q0 -71 -53 -119.5t-129 -48.5q-63 0 -99.5 33.5t-36.5 89.5q0 71 58 141z" />
    <glyph glyph-name="uni0326" unicode="&#x326;" 
d="M-637 -160h268l-221 -293h-176z" />
    <glyph glyph-name="uni0327" unicode="&#x327;" 
d="M-496 -106l17 -23q24 8 71 8q81 0 130 -48t49 -124q0 -102 -83 -162.5t-218 -60.5q-152 0 -240 65l57 119q75 -57 183 -57q71 0 110 27.5t39 74.5q0 37 -23.5 60.5t-64.5 23.5t-76 -14l-73 39l83 192l129 4l-2 -18q0 -44 -88 -106z" />
    <glyph glyph-name="uni0328" unicode="&#x328;" 
d="M-459 51l84 -20v-31q-102 -22 -162.5 -71.5t-60.5 -114.5q0 -50 33 -75.5t90 -25.5q98 0 174 58l33 -136q-38 -30 -107.5 -50.5t-142.5 -20.5q-112 0 -176 55t-64 148q0 102 83 180t216 104z" />
    <glyph glyph-name="Wgrave" unicode="&#x1e80;" horiz-adv-x="1964" 
d="M1028 1579l-141 291h270l49 -291h-178zM285 0l-121 1434h242l43 -574q16 -273 -23 -571h92q43 178 166 456l311 689h205l109 -560q70 -409 65 -585h92q46 313 119 536l205 609h262l-520 -1434h-277l-118 659q-43 279 -35 508h-68q-56 -280 -172 -526l-301 -641h-276z" />
    <glyph glyph-name="wgrave" unicode="&#x1e81;" horiz-adv-x="1669" 
d="M846 1272l-141 291h270l49 -291h-178zM668 381l-170 -381h-277l-125 1085h234l37 -380q11 -145 8 -242.5t-21 -214.5h95q51 201 169 461l179 376h217l78 -378q50 -253 41 -459h92q39 241 116 457l142 380h241l-424 -1085h-270l-74 383q-46 311 -34 494h-84
q-14 -74 -42 -161t-51 -145.5t-77 -189.5z" />
    <glyph glyph-name="Wacute" unicode="&#x1e82;" horiz-adv-x="1964" 
d="M1161 1870h269l-224 -291h-176zM285 0l-121 1434h242l43 -574q16 -273 -23 -571h92q43 178 166 456l311 689h205l109 -560q70 -409 65 -585h92q46 313 119 536l205 609h262l-520 -1434h-277l-118 659q-43 279 -35 508h-68q-56 -280 -172 -526l-301 -641h-276z" />
    <glyph glyph-name="wacute" unicode="&#x1e83;" horiz-adv-x="1669" 
d="M979 1563h268l-223 -291h-176zM498 0h-277l-125 1085h234l37 -380q11 -145 8 -242.5t-21 -214.5h95q51 201 169 461l179 376h217l78 -378q50 -253 41 -459h92q39 241 116 457l142 380h241l-424 -1085h-270l-74 383q-46 311 -34 494h-84q-14 -74 -42 -161t-51 -145.5
t-77 -189.5z" />
    <glyph glyph-name="Wdieresis" unicode="&#x1e84;" horiz-adv-x="1964" 
d="M860 1565q-73 0 -116.5 42t-43.5 107q0 71 50.5 114.5t123.5 43.5q70 0 114 -42t44 -108q0 -71 -49.5 -114t-122.5 -43zM1374 1565q-73 0 -116.5 42t-43.5 107q0 71 51 114.5t124 43.5q70 0 113.5 -42t43.5 -108q0 -71 -49.5 -114t-122.5 -43zM285 0l-121 1434h242
l43 -574q16 -273 -23 -571h92q43 178 166 456l311 689h205l109 -560q70 -409 65 -585h92q46 313 119 536l205 609h262l-520 -1434h-277l-118 659q-43 279 -35 508h-68q-56 -280 -172 -526l-301 -641h-276z" />
    <glyph glyph-name="wdieresis" unicode="&#x1e85;" horiz-adv-x="1669" 
d="M678 1257q-72 0 -116 42t-44 108q0 71 50.5 114.5t123.5 43.5q70 0 114 -42t44 -108q0 -71 -49.5 -114.5t-122.5 -43.5zM1192 1257q-72 0 -116 42t-44 108q0 71 50.5 114.5t123.5 43.5q70 0 114 -42t44 -108q0 -71 -49.5 -114.5t-122.5 -43.5zM668 381l-170 -381h-277
l-125 1085h234l37 -380q11 -145 8 -242.5t-21 -214.5h95q51 201 169 461l179 376h217l78 -378q50 -253 41 -459h92q39 241 116 457l142 380h241l-424 -1085h-270l-74 383q-46 311 -34 494h-84q-14 -74 -42 -161t-51 -145.5t-77 -189.5z" />
    <glyph glyph-name="uni1E9E" unicode="&#x1e9e;" horiz-adv-x="1495" 
d="M811 -35q-80 0 -151 12.5t-107 34.5l29 213q86 -47 211 -47q154 0 251 76t97 201q0 108 -70 168.5t-188 60.5q-69 0 -113 -12l23 164l372 344l6 37h-667l-172 -1217h-250l201 1434h1159l-41 -289l-324 -299l-6 -51q147 -23 231 -122.5t84 -246.5q0 -210 -160 -335.5
t-415 -125.5z" />
    <glyph glyph-name="Ygrave" unicode="&#x1ef2;" horiz-adv-x="1400" 
d="M750 1579l-142 291h271l49 -291h-178zM582 555l-426 879h272l137 -304q104 -264 111 -382h94q15 56 73.5 159.5t147.5 229.5l219 297h289l-674 -879l-75 -555h-244z" />
    <glyph glyph-name="ygrave" unicode="&#x1ef3;" horiz-adv-x="1222" 
d="M623 1272l-142 291h271l49 -291h-178zM102 -496q-92 0 -149 31l31 213q59 -24 125 -24q156 0 243 165l60 115l-318 1081h254l109 -413q67 -279 67 -430h84q38 112 72.5 195t95.5 202l230 446h272l-711 -1257q-92 -160 -202 -242t-263 -82z" />
    <glyph glyph-name="endash" unicode="&#x2013;" horiz-adv-x="1136" 
d="M88 559l29 209h966l-28 -209h-967z" />
    <glyph glyph-name="emdash" unicode="&#x2014;" horiz-adv-x="1734" 
d="M94 559l29 209h1550l-28 -209h-1551z" />
    <glyph glyph-name="quoteleft" unicode="&#x2018;" horiz-adv-x="550" 
d="M279 1241l188 234l104 -80l-147 -187q47 -14 74.5 -51t27.5 -88q0 -72 -51 -116t-123 -44q-69 0 -113 43t-44 109q0 47 18.5 84t65.5 96z" />
    <glyph glyph-name="quoteright" unicode="&#x2019;" horiz-adv-x="548" 
d="M455 1135l-189 -234l-102 80l147 186q-47 13 -74.5 51t-27.5 89q0 72 50.5 115.5t121.5 43.5q70 0 115 -42.5t45 -108.5q0 -48 -19 -84.5t-67 -95.5z" />
    <glyph glyph-name="quotesinglbase" unicode="&#x201a;" horiz-adv-x="565" 
d="M285 -51l-189 -234l-104 80l147 187q-47 14 -74.5 51t-27.5 88q0 72 51.5 116t122.5 44q69 0 113.5 -43t44.5 -109q0 -48 -18.5 -85.5t-65.5 -94.5z" />
    <glyph glyph-name="quotedblleft" unicode="&#x201c;" horiz-adv-x="1003" 
d="M281 1241l188 234l102 -80l-147 -187q47 -14 74.5 -51t27.5 -88q0 -72 -50.5 -116t-121.5 -44q-70 0 -114.5 43t-44.5 109q0 48 19 84.5t67 95.5zM733 1241l189 234l104 -80l-149 -187q47 -14 74.5 -51t27.5 -88q0 -72 -50.5 -116t-121.5 -44q-69 0 -114.5 43t-45.5 109
q0 48 19 84.5t67 95.5z" />
    <glyph glyph-name="quotedblright" unicode="&#x201d;" horiz-adv-x="1005" 
d="M455 1135l-189 -234l-102 80l147 186q-47 13 -74.5 51t-27.5 89q0 72 50.5 115.5t121.5 43.5q70 0 115 -42.5t45 -108.5q0 -48 -19 -84.5t-67 -95.5zM909 1135l-188 -234l-105 80l148 186q-47 13 -74.5 51t-27.5 89q0 72 51.5 115.5t122.5 43.5q69 0 113 -42.5t44 -108.5
q0 -48 -18.5 -85.5t-65.5 -94.5z" />
    <glyph glyph-name="quotedblbase" unicode="&#x201e;" horiz-adv-x="1015" 
d="M285 -51l-189 -234l-104 80l147 187q-47 14 -74.5 51t-27.5 88q0 72 51.5 116t122.5 44q69 0 113.5 -43t44.5 -109q0 -48 -18.5 -85.5t-65.5 -94.5zM737 -51l-188 -234l-103 80l148 187q-47 14 -74.5 51t-27.5 88q0 72 50.5 116t121.5 44q70 0 114.5 -43t44.5 -109
q0 -48 -19 -84.5t-67 -95.5z" />
    <glyph glyph-name="dagger" unicode="&#x2020;" horiz-adv-x="892" 
d="M631 1169h248l-27 -176h-246l-100 -708h-189l101 708h-246l25 176h245l37 265h189z" />
    <glyph glyph-name="daggerdbl" unicode="&#x2021;" horiz-adv-x="892" 
d="M879 1169l-27 -176h-246l-39 -270h248l-24 -176h-248l-37 -262h-187l37 262h-247l24 176h248l39 270h-248l25 176h247l37 265h187l-37 -265h248z" />
    <glyph glyph-name="bullet" unicode="&#x2022;" horiz-adv-x="933" 
d="M453 242q-137 0 -218 78t-81 204q0 135 94 217t231 82q134 0 216.5 -78.5t82.5 -205.5q0 -136 -94.5 -216.5t-230.5 -80.5z" />
    <glyph glyph-name="ellipsis" unicode="&#x2026;" horiz-adv-x="1581" 
d="M231 -27q-71 0 -114 41.5t-43 106.5q0 73 50 116.5t122 43.5q71 0 115.5 -42.5t44.5 -109.5q0 -71 -51 -113.5t-124 -42.5zM723 -27q-71 0 -114.5 41.5t-43.5 106.5q0 73 50 116.5t122 43.5q71 0 115.5 -42.5t44.5 -109.5q0 -71 -50.5 -113.5t-123.5 -42.5zM1214 -27
q-71 0 -114 41.5t-43 106.5q0 73 50 116.5t122 43.5q71 0 115.5 -42.5t44.5 -109.5q0 -71 -51 -113.5t-124 -42.5z" />
    <glyph glyph-name="perthousand" unicode="&#x2030;" horiz-adv-x="2553" 
d="M1100 -18q-169 0 -272 100t-103 264q0 37 8.5 76t13.5 52.5t19 49.5l-55 13q-103 -218 -209 -334l-187 -203h-204l2 20l342 375q71 77 162.5 151t179.5 128l-35 51q-74 -74 -205 -74q-152 0 -245 106t-93 279q0 197 116.5 318t305.5 121q168 0 271.5 -100.5t103.5 -264.5
q0 -38 -8.5 -76t-14.5 -54t-20 -50l55 -10q106 218 209 331l186 203h207l-4 -20l-342 -375q-69 -75 -160.5 -149.5t-179.5 -127.5l33 -53q77 74 207 74q152 0 245 -105.5t93 -277.5q0 -198 -116.5 -318t-305.5 -120zM602 807q102 0 161.5 77t59.5 201q0 112 -48.5 170
t-133.5 58q-103 0 -162 -77t-59 -202q0 -112 48.5 -169.5t133.5 -57.5zM1978 -18q-169 0 -271.5 106t-102.5 279q0 201 117.5 320.5t312.5 119.5q168 0 271 -106.5t103 -278.5q0 -202 -118 -321t-312 -119zM1100 141q101 0 160 78t59 203q0 111 -48 168t-134 57
q-101 0 -160 -76.5t-59 -201.5q0 -111 48 -169.5t134 -58.5zM1987 141q102 0 160.5 79t58.5 202q0 109 -48.5 167t-134.5 58q-101 0 -160 -77.5t-59 -200.5q0 -109 48.5 -168.5t134.5 -59.5z" />
    <glyph glyph-name="guilsinglleft" unicode="&#x2039;" horiz-adv-x="651" 
d="M315 580l193 -482h-229l-199 494l321 469h242z" />
    <glyph glyph-name="guilsinglright" unicode="&#x203a;" horiz-adv-x="657" 
d="M264 98h-241l327 482l-192 481h229l199 -494z" />
    <glyph glyph-name="fraction" unicode="&#x2044;" horiz-adv-x="317" 
d="M-553 0l1278 1434h195l-1278 -1434h-195z" />
    <glyph glyph-name="uni2070" unicode="&#x2070;" horiz-adv-x="999" 
d="M547 590q-169 0 -271 118t-102 326q0 238 119 387.5t311 149.5q171 0 273 -119.5t102 -327.5q0 -238 -119.5 -386t-312.5 -148zM551 748q114 0 183 102.5t69 271.5q0 133 -54.5 211t-146.5 78q-114 0 -183 -103t-69 -272q0 -135 54 -211.5t147 -76.5z" />
    <glyph glyph-name="uni2074" unicode="&#x2074;" horiz-adv-x="1003" 
d="M778 614h-174l27 195h-529l21 139l588 598h198l-82 -592h150l-21 -145h-153zM725 1401l-438 -453l35 -43q55 49 186 49h145l29 205q17 126 80 195z" />
    <glyph glyph-name="uni2075" unicode="&#x2075;" horiz-adv-x="966" 
d="M133 883l162 35q15 -80 81 -130.5t159 -50.5q96 0 155.5 53.5t59.5 143.5q0 79 -52.5 127.5t-140.5 48.5q-63 0 -124 -26t-105 -72l-135 43l133 491h604l-25 -147h-454l-21 -76q-3 -11 -7 -23t-8 -21t-11.5 -21.5t-11.5 -19.5t-14 -20.5t-13.5 -18.5t-15 -20t-13.5 -18
l37 -37q43 54 112.5 83.5t141.5 29.5q135 0 217 -83t82 -218q0 -156 -108.5 -251t-287.5 -95q-162 0 -270 81t-127 212z" />
    <glyph glyph-name="uni2076" unicode="&#x2076;" horiz-adv-x="1011" 
d="M573 590q-189 0 -295 118t-106 316q0 242 140 393.5t352 151.5q138 0 232.5 -64.5t119.5 -173.5l-180 -39q-15 59 -65 94t-124 35q-124 0 -205 -94.5t-88 -251.5l43 -8q40 72 120.5 114t170.5 42q125 0 202 -78t77 -211q0 -155 -109.5 -249.5t-284.5 -94.5zM586 737
q91 0 148 54t57 141q0 79 -49.5 123.5t-133.5 44.5q-74 0 -145 -37t-113 -100q6 -103 70.5 -164.5t165.5 -61.5z" />
    <glyph glyph-name="uni2077" unicode="&#x2077;" horiz-adv-x="839" 
d="M446 1399h-258l23 147h715l-21 -133l-508 -799h-202l2 11l348 528q65 100 110 153t115 105l-37 64q-49 -32 -125 -54t-162 -22z" />
    <glyph glyph-name="uni2078" unicode="&#x2078;" horiz-adv-x="1015" 
d="M139 846q0 95 66 160.5t176 78.5l6 48q-73 19 -111 64t-38 112q0 121 112.5 190.5t286.5 69.5q169 0 263.5 -65t94.5 -173q0 -89 -55 -143.5t-147 -65.5l-7 -49q83 -15 132 -68.5t49 -134.5q0 -135 -116.5 -207.5t-309.5 -72.5q-191 0 -296.5 69.5t-105.5 186.5z
M408 1288q0 -61 53 -96t147 -35q101 0 155 38.5t54 102.5q0 63 -52.5 96t-146.5 33q-99 0 -154.5 -37.5t-55.5 -101.5zM319 885q0 -72 62 -110t170 -38q116 0 180 43t64 119q0 72 -61 111t-167 39q-115 0 -181.5 -43.5t-66.5 -120.5z" />
    <glyph glyph-name="uni2079" unicode="&#x2079;" horiz-adv-x="1009" 
d="M588 1569q190 0 295.5 -118.5t105.5 -320.5q0 -244 -137.5 -392t-351.5 -148q-135 0 -231 65t-122 174l179 39q17 -59 67 -94t121 -35q128 0 208 91.5t87 254.5l-45 7q-39 -72 -119 -113t-170 -41q-125 0 -202.5 77.5t-77.5 209.5q0 156 109 250t284 94zM578 1421
q-93 0 -150 -52.5t-57 -139.5q0 -79 50 -123.5t134 -44.5q75 0 145.5 35.5t110.5 99.5q-5 99 -69 162t-164 63z" />
    <glyph glyph-name="uni2080" unicode="&#x2080;" horiz-adv-x="999" 
d="M446 -133q-170 0 -272 118t-102 326q0 238 120 387.5t312 149.5q170 0 272.5 -119.5t102.5 -327.5q0 -238 -120 -386t-313 -148zM451 25q113 0 181 103t68 271q0 134 -53 211.5t-145 77.5q-114 0 -183 -103t-69 -272q0 -135 53.5 -211.5t147.5 -76.5z" />
    <glyph glyph-name="uni2081" unicode="&#x2081;" horiz-adv-x="819" 
d="M438 -113h-174l60 432q13 101 35 163t83 122l-45 47q-112 -122 -280 -137l24 152q208 42 301 153h127z" />
    <glyph glyph-name="uni2082" unicode="&#x2082;" horiz-adv-x="897" 
d="M709 -113h-707l21 138l393 260q118 78 161.5 137.5t43.5 126.5t-44.5 106t-117.5 39q-88 0 -146.5 -51t-62.5 -151l-164 16q13 154 118 244t265 90q144 0 236 -77t92 -208q0 -115 -70 -204t-223 -179q-111 -75 -273 -154l27 -63q169 78 326 78h145z" />
    <glyph glyph-name="uni2083" unicode="&#x2083;" horiz-adv-x="948" 
d="M420 -133q-175 0 -277 86t-102 244l160 24q0 -97 59.5 -152t163.5 -55q93 0 148 45t55 119q0 61 -42 93t-120 32h-117l19 129h120q80 0 127.5 36.5t47.5 100.5q0 61 -46 96t-124 35q-93 0 -151.5 -45.5t-74.5 -119.5l-151 45q29 126 133 195t256 69q154 0 243 -69
t89 -181q0 -80 -48 -134t-139 -73l-6 -53q72 -15 113 -65.5t41 -125.5q0 -126 -105 -201t-272 -75z" />
    <glyph glyph-name="uni2084" unicode="&#x2084;" horiz-adv-x="1003" 
d="M676 -113h-174l26 195h-528l20 139l588 598h199l-82 -592h149l-20 -145h-154zM623 674l-439 -453l35 -43q55 49 187 49h145l29 205q17 127 79 195z" />
    <glyph glyph-name="uni2085" unicode="&#x2085;" horiz-adv-x="966" 
d="M31 158l162 37q15 -82 80 -131.5t159 -49.5q96 0 155.5 53.5t59.5 143.5q0 79 -52 127.5t-140 48.5q-62 0 -124 -26.5t-106 -71.5l-135 43l133 491h604l-24 -147h-455l-20 -78q-2 -10 -5 -19.5t-8.5 -20.5l-9 -18t-11.5 -19t-10.5 -16.5t-13 -18t-12 -16t-13 -17
t-12.5 -15.5l37 -39q43 54 113 84.5t141 30.5q135 0 217 -83t82 -218q0 -157 -107.5 -251.5t-287.5 -94.5q-161 0 -269.5 80.5t-127.5 210.5z" />
    <glyph glyph-name="uni2086" unicode="&#x2086;" horiz-adv-x="1011" 
d="M473 -133q-189 0 -295 118t-106 316q0 241 139 393t350 152q137 0 232.5 -64.5t121.5 -173.5l-180 -39q-18 60 -66.5 93.5t-123.5 33.5q-123 0 -204.5 -93.5t-88.5 -250.5l45 -8q40 72 120.5 114t170.5 42q125 0 201.5 -78t76.5 -211q0 -156 -109 -250t-284 -94zM483 14
q92 0 149.5 53.5t57.5 141.5q0 78 -49.5 122t-132.5 44q-74 0 -144.5 -37t-113.5 -98q6 -103 69.5 -164.5t163.5 -61.5z" />
    <glyph glyph-name="uni2087" unicode="&#x2087;" horiz-adv-x="839" 
d="M344 672h-258l23 147h714l-20 -133l-508 -799h-203l2 11l348 528q65 99 110.5 152.5t115.5 105.5l-37 64q-49 -32 -125 -54t-162 -22z" />
    <glyph glyph-name="uni2088" unicode="&#x2088;" horiz-adv-x="1015" 
d="M37 121q0 96 66.5 161.5t175.5 77.5l6 50q-72 19 -110 64t-38 110q0 122 112.5 192t285.5 70q170 0 265 -65.5t95 -174.5q0 -87 -56 -141.5t-149 -65.5l-6 -49q84 -15 132 -68.5t48 -134.5q0 -135 -116 -207.5t-310 -72.5q-189 0 -295 69t-106 185zM307 565
q0 -63 52.5 -97t146.5 -34q101 0 156 38.5t55 102.5q0 63 -53 95t-146 32q-99 0 -155 -37t-56 -100zM217 162q0 -73 62 -110.5t172 -37.5q115 0 179 43t64 117q0 73 -61 111.5t-168 38.5q-114 0 -181 -42.5t-67 -119.5z" />
    <glyph glyph-name="uni2089" unicode="&#x2089;" horiz-adv-x="1009" 
d="M485 846q190 0 296 -118t106 -320q0 -245 -138 -393t-352 -148q-135 0 -230.5 64.5t-121.5 172.5l178 41q17 -59 67.5 -94t121.5 -35q128 0 208 91.5t87 254.5l-45 7q-39 -73 -118.5 -114.5t-170.5 -41.5q-125 0 -203 78t-78 211q0 156 109 250t284 94zM475 698
q-93 0 -150 -52.5t-57 -139.5q0 -79 50.5 -123.5t134.5 -44.5q75 0 145.5 35.5t110.5 99.5q-5 99 -69.5 162t-164.5 63z" />
    <glyph glyph-name="uni20A9" unicode="&#x20a9;" horiz-adv-x="2058" 
d="M1823 1434h268l-223 -631h190l-24 -162h-224l-225 -641h-262l-137 641h-303l-289 -641h-262l-64 641h-215l25 162h174l-62 631h248l56 -631h256l280 631h201l131 -631h254zM1137 1161h-68q-28 -157 -115 -358h197q-30 188 -14 358zM485 295h70q53 169 125 346h-174
q7 -170 -21 -346zM1430 295h69q19 177 66 346h-172q32 -197 37 -346z" />
    <glyph glyph-name="uni20AA" unicode="&#x20aa;" horiz-adv-x="1626" 
d="M309 0h-227l201 1434h616q153 0 219 -77.5t47 -213.5l-110 -791h-189l103 727q11 88 -24 123t-114 35h-350zM1366 1434h225l-200 -1434h-615q-154 0 -220 78t-46 213l111 790h186l-100 -727q-11 -88 23.5 -122.5t113.5 -34.5h348z" />
    <glyph glyph-name="Euro" unicode="&#x20ac;" horiz-adv-x="1716" 
d="M915 -35q-267 -1 -454 140t-228 374h-186l21 150h137q2 24 2 86q0 17 8 65h-125l19 148h139q76 252 283.5 396t484.5 144q265 -1 443 -140t210 -365l-235 -62q-20 160 -140.5 253t-300.5 93q-123 1 -227.5 -47t-177.5 -137q-44 -50 -96 -137l20 -39q88 43 295 43h240
l-21 -152l-557 2q-4 -15 -8 -63q-1 -12 -4 -88h549l-21 -152h-221q-159 0 -248 43l-24 -43q44 -83 81 -123q46 -77 143.5 -124t213.5 -46q178 0 303.5 97t177.5 268l234 -57q-62 -246 -255.5 -386.5t-474.5 -140.5z" />
    <glyph glyph-name="uni20B9" unicode="&#x20b9;" horiz-adv-x="1175" 
d="M317 535h-157l24 192h375q264 0 322 178h-670l22 158h658q-9 89 -73.5 133.5t-174.5 44.5h-385l27 193h1065l-23 -160h-82q-45 0 -99.5 22t-94.5 52l-50 -54q71 -40 104.5 -96.5t39.5 -134.5h151l-20 -158h-160q-40 -122 -157.5 -194t-305.5 -84l-8 -64q87 -25 139 -78.5
t88 -158.5l60 -170q34 -100 86 -131l-2 -25h-277q-33 41 -49 96l-72 223q-69 216 -301 216z" />
    <glyph glyph-name="uni20BD" unicode="&#x20bd;" horiz-adv-x="1415" 
d="M303 1434h608q234 0 358 -117.5t124 -317.5q0 -223 -149.5 -348t-401.5 -125h-418l-21 -143h314l-23 -176h-315l-29 -207h-248l29 207h-156l27 176h154l20 143h-156l27 193h156zM453 719h374q156 0 235 72t79 196q0 112 -65.5 172t-188.5 60h-365z" />
    <glyph glyph-name="uni20BF" unicode="&#x20bf;" horiz-adv-x="1431" 
d="M1049 795l-9 -70q120 -15 188 -95t68 -200q0 -192 -129 -306t-368 -124l-37 -246h-156l35 246h-186l-37 -246h-156l35 246h-215l201 1434h215l34 241h158l-37 -241h189l35 241h157l-37 -243q168 -9 257 -87.5t89 -214.5q0 -131 -78.5 -220t-215.5 -115zM879 1221h-379
l-54 -377h373q129 0 197.5 58.5t68.5 162.5q0 77 -53.5 116.5t-152.5 39.5zM358 213h381q154 0 235 67t81 187q0 182 -236 182h-399z" />
    <glyph glyph-name="uni2116" unicode="&#x2116;" horiz-adv-x="2572" 
d="M2038 592q-198 0 -322.5 118t-124.5 304q0 134 65.5 239t176.5 161t246 56q198 0 321 -117.5t123 -303.5q0 -202 -139.5 -329.5t-345.5 -127.5zM82 0l201 1434h264l514 -1078h6l147 1078h244l-201 -1434h-264l-516 1069h-6l-145 -1069h-244zM2046 782q118 0 194 72.5
t76 189.5q0 107 -67.5 172.5t-177.5 65.5q-119 0 -195 -73t-76 -189q0 -109 67 -173.5t179 -64.5zM1962 -27q-74 0 -118 42.5t-44 109.5q0 73 51.5 117.5t124.5 44.5t117.5 -43t44.5 -111q0 -73 -50.5 -116.5t-125.5 -43.5z" />
    <glyph glyph-name="uni2117" unicode="&#x2117;" horiz-adv-x="1851" 
d="M924 -31q-225 0 -403 95t-278 268.5t-100 394.5q0 174 64.5 324.5t176.5 255t266.5 164t330.5 59.5q168 0 312.5 -55t248.5 -152.5t163.5 -239t59.5 -307.5q0 -175 -65.5 -326t-178 -256t-267.5 -165t-330 -60zM930 113q196 0 349.5 82t240 232.5t86.5 344.5
q0 278 -175.5 446t-455.5 168q-299 0 -486.5 -181.5t-187.5 -471.5q0 -279 174 -449.5t455 -170.5zM791 356h-191l113 791h370q136 0 207.5 -61.5t71.5 -176.5q0 -122 -86 -194t-229 -72h-216zM881 1006l-31 -232h168q72 0 110.5 35t38.5 92q0 105 -118 105h-168z" />
    <glyph glyph-name="trademark" unicode="&#x2122;" horiz-adv-x="1658" 
d="M334 817l67 473h-211l21 144h584l-19 -144h-213l-67 -473h-162zM961 817h-156l86 617h233l72 -258q12 -58 15 -89t-1 -96h45q11 58 25 94.5t43 90.5l141 258h236l-86 -617h-158l29 199q9 66 25.5 113.5t62.5 144.5l-57 20l-256 -477h-103l-121 477l-63 -20
q18 -97 20.5 -143.5t-6.5 -114.5z" />
    <glyph glyph-name="oneeighth" unicode="&#x215b;" horiz-adv-x="1681" 
d="M-12 0l1278 1434h194l-1278 -1434h-194zM395 645h-159l45 334q9 63 16.5 97t30 78.5t61.5 82.5l-41 43q-91 -101 -237 -117l20 137q178 35 260 134h115zM870 197q0 80 55.5 134.5t147.5 63.5l4 45q-58 14 -90.5 52t-32.5 94q0 104 96 162.5t244 58.5q145 0 226.5 -55
t81.5 -148q0 -73 -47 -119t-123 -55l-7 -43q69 -12 110.5 -57.5t41.5 -114.5q0 -113 -100 -174t-265 -61q-161 0 -251.5 59t-90.5 158zM1112 567q0 -49 42 -76.5t116 -27.5q81 0 124.5 31.5t43.5 83.5q0 49 -42.5 74.5t-115.5 25.5q-79 0 -123.5 -29t-44.5 -82zM1036 231
q0 -58 50.5 -89t136.5 -31q93 0 144.5 35t51.5 96q0 59 -48.5 91t-135.5 32q-93 0 -146 -35.5t-53 -98.5z" />
    <glyph glyph-name="threeeighths" unicode="&#x215c;" horiz-adv-x="1882" 
d="M410 627q-151 0 -238 71.5t-86 206.5l145 25q0 -81 48.5 -125.5t134.5 -44.5q74 0 116.5 36t42.5 95q0 100 -131 100h-98l16 117h109q61 0 96 29t35 80q0 49 -35.5 77.5t-97.5 28.5q-76 0 -122.5 -38t-59.5 -99l-138 43q24 107 113 166t219 59q132 0 208.5 -59t76.5 -156
q0 -67 -41 -113t-119 -61l-6 -47q62 -12 97.5 -54t35.5 -106q0 -106 -88.5 -168.5t-232.5 -62.5zM190 0l1278 1434h195l-1278 -1434h-195zM1071 197q0 80 55.5 134.5t147.5 63.5l4 45q-58 14 -90.5 52t-32.5 94q0 104 96 162.5t244 58.5q145 0 226 -55t81 -148
q0 -73 -47 -119t-123 -55l-6 -43q69 -12 110.5 -57.5t41.5 -114.5q0 -113 -100 -174t-265 -61q-161 0 -251.5 59t-90.5 158zM1313 567q0 -49 41.5 -76.5t115.5 -27.5q81 0 124.5 31.5t43.5 83.5q0 50 -42 75t-115 25q-79 0 -123.5 -29t-44.5 -82zM1237 231q0 -58 50 -89
t136 -31q93 0 145 35t52 96q0 59 -48.5 91t-135.5 32q-93 0 -146 -35.5t-53 -98.5z" />
    <glyph glyph-name="fiveeighths" unicode="&#x215d;" horiz-adv-x="1906" 
d="M88 872l150 35q14 -66 66 -106.5t130 -40.5t124 42t46 113q0 65 -42.5 104.5t-112.5 39.5q-107 0 -187 -80l-121 39l113 416h512l-21 -134h-378l-17 -51q-1 -12 -4 -23t-9.5 -23.5t-10.5 -20t-14.5 -20.5t-13.5 -16.5t-16 -17.5l-12 -14l35 -35q35 44 91.5 69.5
t115.5 25.5q115 0 184.5 -70.5t69.5 -185.5q0 -132 -91.5 -212.5t-244.5 -80.5q-140 0 -233.5 68t-108.5 179zM213 0l1278 1434h195l-1278 -1434h-195zM1094 197q0 80 55 134.5t147 63.5l4 45q-58 14 -90 52t-32 94q0 104 96 162.5t244 58.5q145 0 226 -55t81 -148
q0 -73 -47 -119t-123 -55l-6 -43q69 -12 110 -57.5t41 -114.5q0 -113 -100 -174t-264 -61q-161 0 -251.5 59t-90.5 158zM1335 567q0 -49 42 -76.5t116 -27.5q81 0 124.5 31.5t43.5 83.5q0 49 -42.5 74.5t-115.5 25.5q-79 0 -123.5 -29t-44.5 -82zM1260 231q0 -58 50 -89
t136 -31q93 0 144.5 35t51.5 96q0 59 -48.5 91t-135.5 32q-92 0 -145 -35.5t-53 -98.5z" />
    <glyph glyph-name="seveneighths" unicode="&#x215e;" horiz-adv-x="1720" 
d="M27 0l1278 1434h194l-1278 -1434h-194zM352 1298h-207l21 136h604l-18 -123l-420 -666h-185l3 8l274 422q54 85 98 137.5t109 98.5l-35 57q-104 -70 -244 -70zM909 197q0 80 55.5 134.5t147.5 63.5l4 45q-58 14 -90.5 52t-32.5 94q0 104 96 162.5t244 58.5q145 0 226 -55
t81 -148q0 -73 -47 -119t-123 -55l-6 -43q69 -12 110.5 -57.5t41.5 -114.5q0 -113 -100 -174t-265 -61q-161 0 -251.5 59t-90.5 158zM1151 567q0 -49 42 -76.5t116 -27.5q81 0 124.5 31.5t43.5 83.5q0 49 -42.5 74.5t-115.5 25.5q-79 0 -123.5 -29t-44.5 -82zM1075 231
q0 -58 50.5 -89t136.5 -31q93 0 144.5 35t51.5 96q0 59 -48.5 91t-135.5 32q-93 0 -146 -35.5t-53 -98.5z" />
    <glyph glyph-name="arrowleft" unicode="&#x2190;" horiz-adv-x="1740" 
d="M1626 788l-27 -198l-876 -2q-50 0 -100.5 10.5t-76.5 20t-67 26.5l-37 -74q44 -23 62.5 -33.5t47 -29t48.5 -38t41 -44.5l176 -205l-145 -129l-520 606l677 594l121 -139l-221 -190q-45 -39 -91 -69t-73.5 -45t-89.5 -46l17 -70q50 18 79 27t79.5 17.5t103.5 8.5z" />
    <glyph glyph-name="arrowup" unicode="&#x2191;" horiz-adv-x="1447" 
d="M289 727l-119 137l680 596l516 -602l-143 -129l-193 223q-9 11 -17 21.5t-15.5 25.5t-12.5 24t-13.5 30t-12 29t-14 35t-13.5 36l-74 -27q38 -136 21 -254l-123 -872h-201l123 872q13 110 92 254l-68 29q-88 -139 -155 -203z" />
    <glyph glyph-name="arrowright" unicode="&#x2192;" horiz-adv-x="1720" 
d="M946 1163l148 127l518 -604l-678 -594l-121 137l223 195q44 39 89.5 69t73 45t89.5 46l-14 69q-49 -18 -79 -27t-80.5 -17.5t-102.5 -8.5l-875 -4l29 199l874 4q51 0 103 -11t73.5 -19t69.5 -28l37 72q-78 43 -119.5 72t-81.5 76z" />
    <glyph glyph-name="arrowdown" unicode="&#x2193;" horiz-adv-x="1431" 
d="M643 0l-518 602l145 127l191 -223q11 -12 21 -27t16.5 -26t16.5 -33t14 -32l16 -40t16 -41l74 27q-37 131 -23 254l123 872h201l-121 -872q-17 -117 -92 -254l68 -29q50 79 83 122.5t72 78.5l258 227l117 -137z" />
    <glyph glyph-name="arrowboth" unicode="&#x2194;" horiz-adv-x="2048" 
d="M659 92l-520 606l678 594l119 -139l-219 -190q-46 -39 -91 -69t-74.5 -45.5t-90.5 -45.5l18 -70q47 17 77.5 26.5t81 18t103.5 8.5l637 2q50 1 101 -9.5t75 -19.5t68 -28l37 74q-57 31 -80 44.5t-57 40.5t-62 60l-176 205l146 129l520 -606l-678 -594l-119 139l219 191
q45 39 93 70t70.5 43t92.5 48l-18 68q-47 -17 -77.5 -26.5t-80.5 -18t-102 -8.5l-639 -2q-50 -1 -101 9.5t-75 19.5t-68 28l-37 -74q57 -31 80 -44.5t57 -40.5t62 -60l176 -205z" />
    <glyph glyph-name="arrowupdn" unicode="&#x2195;" horiz-adv-x="1464" 
d="M188 987l678 596l518 -602l-145 -127l-190 223q-28 31 -46.5 69.5t-45.5 110.5q-1 4 -2 6.5t-2.5 6t-2.5 6.5l-76 -27q37 -132 23 -252l-72 -510q-13 -107 -92 -251l68 -29q90 141 157 201l256 227l119 -137l-680 -596l-516 602l146 127l190 -223q20 -23 38.5 -57.5
t27.5 -58t32 -83.5l74 27q-36 139 -20 251l69 510q17 115 92 252l-67 29q-91 -143 -156 -201l-258 -227z" />
    <glyph glyph-name="uni2196" unicode="&#x2196;" horiz-adv-x="1380" 
d="M258 1245h848l-25 -186l-272 2q-79 0 -132 11t-138 40l-41 -72q43 -20 65 -31.5t63 -41t72 -64.5l529 -620l-162 -142l-526 621q-32 36 -55 78t-32.5 66.5t-25.5 72.5l-72 -31l3 -18q14 -80 16.5 -119.5t-6.5 -132.5l-39 -279h-187z" />
    <glyph glyph-name="uni2197" unicode="&#x2197;" horiz-adv-x="1382" 
d="M444 1059l27 186h850l-121 -846h-188l37 256q12 97 34 162.5t56 130.5l-64 31q-75 -135 -170 -219l-702 -619l-123 142l704 620q18 16 36.5 30t39 27t34 21t37 18.5t31.5 14.5t32.5 14.5t27.5 11.5l-21 72q-128 -51 -288 -51z" />
    <glyph glyph-name="uni2198" unicode="&#x2198;" horiz-adv-x="1382" 
d="M1163 141h-846l25 187h272q79 0 131.5 -11.5t139.5 -40.5l41 70q-44 21 -65.5 32t-63 41t-72.5 66l-528 619l161 141l527 -618q46 -54 68.5 -103.5t41.5 -115.5l74 32q-8 49 -11 69t-7 57t-2.5 70.5t6.5 74.5l39 276h188z" />
    <glyph glyph-name="uni2199" unicode="&#x2199;" horiz-adv-x="1390" 
d="M981 328l-29 -187h-850l121 846h191l-37 -256q-24 -171 -92 -293l63 -30q36 64 73.5 114.5t98.5 104.5l701 618l122 -141l-702 -621q-85 -76 -240 -137l21 -72q131 52 291 52z" />
    <glyph glyph-name="partialdiff" unicode="&#x2202;" horiz-adv-x="1396" 
d="M76 440q0 217 145 354.5t375 137.5q152 0 272 -64t176 -180l78 39q-7 126 -68 235t-160.5 187.5t-229.5 129.5t-277 69l113 182q177 -17 330 -87t263 -179.5t173 -259t63 -318.5q0 -210 -89 -374t-250.5 -255.5t-368.5 -91.5q-249 0 -397 129t-148 346zM319 457
q0 -132 90 -211.5t240 -79.5q154 0 268.5 84t149.5 221q-42 140 -149.5 217.5t-251.5 77.5q-158 0 -252.5 -86t-94.5 -223z" />
    <glyph glyph-name="emptyset" unicode="&#x2205;" horiz-adv-x="1435" 
d="M111 543q-2 162 77 294.5t219 207.5t312 75q168 0 307.5 -74.5t220 -207t78.5 -295.5q2 -162 -77 -295t-218.5 -208t-310.5 -75q-125 -1 -238 42.5t-195 119.5t-129.5 184.5t-45.5 231.5zM340 545q0 -116 55 -199l348 348q127 127 244 121v74q-80 53 -231 53
q-82 0 -155.5 -24.5t-133 -72t-94 -125t-33.5 -175.5zM451 270v-73q84 -54 229 -54q82 0 155.5 25t132.5 72.5t93.5 126t34.5 176.5q0 110 -56 198l-348 -348q-123 -126 -241 -123z" />
    <glyph glyph-name="product" unicode="&#x220f;" horiz-adv-x="1390" 
d="M178 1434h1286l-28 -207h-217l-209 -1485h-236l207 1485h-379l-207 -1485h-237l209 1485h-217z" />
    <glyph glyph-name="summation" unicode="&#x2211;" horiz-adv-x="1083" 
d="M907 -264h-938l31 229l477 619l-303 618l33 232h940l-29 -207h-360q-120 0 -187 27t-112 81l-74 -59l352 -692l-544 -695l57 -57q60 55 131.5 83t187.5 28h367z" />
    <glyph glyph-name="minus" unicode="&#x2212;" horiz-adv-x="1175" 
d="M174 780h895l-25 -180h-894z" />
    <glyph glyph-name="radical" unicode="&#x221a;" horiz-adv-x="1167" 
d="M408 -258h-322l-57 893h192l10 -252q9 -280 2 -434h74q45 202 166 483l426 1002h416l-29 -207h-246z" />
    <glyph glyph-name="infinity" unicode="&#x221e;" horiz-adv-x="1888" 
d="M123 659q0 191 131.5 322t323.5 131q146 0 242 -83t126 -222h70q69 139 189.5 222t267.5 83q154 0 249 -89t95 -237q0 -190 -131 -321t-322 -131q-148 0 -244.5 82.5t-128.5 222.5h-69q-68 -139 -188 -222t-267 -83q-154 0 -249 88.5t-95 236.5zM342 686q0 -76 48.5 -122
t131.5 -46q87 0 158.5 54.5t116.5 150.5q-17 98 -74.5 151.5t-142.5 53.5q-101 0 -169.5 -69.5t-68.5 -172.5zM1141 723q19 -99 75.5 -152t143.5 -53q100 0 167.5 69t67.5 173q0 76 -48 122t-130 46q-86 0 -158 -53.5t-118 -151.5z" />
    <glyph glyph-name="integral" unicode="&#x222b;" horiz-adv-x="1144" 
d="M-59 -268l4 202q43 -12 108 -12q117 0 178.5 57.5t96.5 174.5l276 927q55 187 177.5 275t316.5 88q62 0 121 -12l-7 -201q-46 12 -108 12q-64 0 -110 -15.5t-77 -47.5t-50.5 -70.5t-37.5 -95.5l-274 -928q-111 -367 -498 -367q-69 0 -116 13z" />
    <glyph glyph-name="approxequal" unicode="&#x2248;" horiz-adv-x="1095" 
d="M223 264h-151q5 128 44 225.5t105 139.5l-8 30h-84q11 248 86 363t199 115q67 0 120 -38t134 -126q34 -40 48.5 -55.5t39 -32.5t45.5 -17q102 0 119 269h151q-3 -124 -42 -222.5t-105 -140.5l8 -33h82q-11 -248 -86.5 -362.5t-198.5 -114.5q-33 0 -65 11t-53 23t-51 40
t-42 41.5t-43 48.5q-34 38 -48 53t-40 33t-47 18q-97 0 -117 -268zM283 690q12 10 33.5 17.5t37.5 7.5q39 1 74 -11t66.5 -37.5t53 -47.5t51.5 -57q2 -3 3.5 -4.5t3.5 -4t4 -4.5q30 -35 48 -53.5t42 -34t45 -15.5q92 0 117 265q-11 -11 -34.5 -18t-39.5 -7q-115 -4 -237 145
q-55 64 -88.5 93.5t-63.5 29.5q-50 0 -76 -61t-40 -203z" />
    <glyph glyph-name="notequal" unicode="&#x2260;" horiz-adv-x="1212" 
d="M367 375h-250l24 180h322l69 135q28 54 62.5 90.5t81.5 71.5l-29 51q-116 -78 -268 -78h-199l25 181h497l162 305h185l-160 -305h248l-25 -181h-319l-70 -127q-22 -41 -52 -76.5t-48.5 -51.5t-53.5 -44l29 -49q116 78 264 78h211l-24 -180h-496l-162 -305h-184z" />
    <glyph glyph-name="lessequal" unicode="&#x2264;" horiz-adv-x="1286" 
d="M1067 526l-27 -200l-878 272l39 279l954 272l-29 -201l-399 -106q-158 -42 -338 -70l-8 -70q153 -26 324 -71zM993 0h-915l22 174h918z" />
    <glyph glyph-name="greaterequal" unicode="&#x2265;" horiz-adv-x="1288" 
d="M1092 598l-953 -272l27 200l393 105q132 39 344 71l8 70q-184 32 -317 70l-369 106l29 201l876 -272zM1008 0h-916l25 174h915z" />
    <glyph glyph-name="uni2573" unicode="&#x2573;" horiz-adv-x="1951" 
d="M141 -86l-71 84l856 750l-645 749l84 76l641 -748l862 756l69 -84l-854 -749l646 -750l-84 -76l-641 748z" />
    <glyph glyph-name="lozenge" unicode="&#x25ca;" horiz-adv-x="1167" 
d="M319 0l-235 727l440 727h373l238 -727l-441 -727h-375zM522 1032l-192 -305l108 -303q38 -113 58 -252h69q66 151 129 252l195 303l-109 303q-39 109 -57 252h-72q-52 -131 -129 -250z" />
    <glyph glyph-name="uni2605" unicode="&#x2605;" horiz-adv-x="1796" 
d="M950 311l-504 -340l175 580l-486 373l610 16l205 578l203 -578l612 -16l-485 -373l174 -580z" />
    <glyph glyph-name="uni261C" unicode="&#x261c;" horiz-adv-x="1908" 
d="M1075 109h-252q-68 0 -108.5 32t-40.5 86q0 36 22 68q-46 9 -73 41.5t-27 81.5q0 47 29 76q-45 36 -45 96q0 36 16 65h-330q-72 0 -112.5 37t-40.5 107q0 59 39 92t114 33h475q-34 15 -34 73q0 42 28 78q81 -2 186 8.5t121 10.5q51 0 99.5 -22t118.5 -66
q65 -41 102 -61.5t106.5 -42t139.5 -21.5h69l2 -674q-96 0 -260 -45q-69 -18 -104 -26t-104 -17.5t-136 -9.5zM827 186h271q121 0 293 50q149 36 213 38v527h-33q-58 0 -122 21t-99 40.5t-101 59.5q-50 31 -77.5 46.5t-68.5 30t-75 13.5q-27 0 -117.5 -3.5t-111.5 -4.5
q-2 -6 -2 -29q0 -32 24 -53h260v-76h-798q-72 0 -72 -55q0 -58 72 -58h587v-86h-145q-25 0 -39 -14t-14 -37q0 -53 53 -53h176v-80h-156q-55 0 -55 -49q0 -52 55 -52h187v-79h-105q-55 0 -55 -47q0 -50 55 -50z" />
    <glyph glyph-name="uni261E" unicode="&#x261e;" horiz-adv-x="1906" 
d="M1083 109h-249q-68 0 -137.5 9.5t-105.5 17.5t-104 26q-59 16 -86 23t-77 14.5t-97 7.5l2 674h72q52 0 101 10t95 31.5t75.5 38t74.5 45.5q51 31 76 45.5t65.5 28.5t77.5 14q16 0 120 -10.5t185 -8.5q31 -40 31 -78q0 -57 -37 -73h475q76 0 116 -33t40 -92
q0 -69 -42 -106.5t-114 -37.5h-329q18 -32 18 -65q0 -58 -47 -96q31 -28 31 -76q0 -49 -27.5 -81.5t-73.5 -41.5q23 -33 23 -68q0 -54 -42 -86t-110 -32zM811 186h270q54 0 54 50q0 23 -15 35t-39 12h-106v79h188q54 0 54 52q0 49 -54 49h-157v80h178q51 0 51 53
q0 23 -14 37t-37 14h-148v86h588q72 0 72 58q0 55 -72 55h-799v76h260q27 24 27 53q0 17 -4 29q-22 1 -111 4.5t-116 3.5q-35 1 -76.5 -13.5t-70 -30t-77.5 -46.5q-53 -32 -75.5 -44.5t-69.5 -35.5t-89 -32t-87 -9h-33v-527q69 -2 213 -38q176 -50 295 -50z" />
    <glyph glyph-name="uni271A" unicode="&#x271a;" horiz-adv-x="1677" 
d="M750 1434h426l-72 -516h504l-58 -402h-503l-72 -516h-426l72 516h-504l57 402h504z" />
    <glyph glyph-name="uni2731" unicode="&#x2731;" horiz-adv-x="1587" 
d="M211 209l-129 299l393 209l-336 209l215 299l332 -211l59 420h345l-60 -420l393 211l129 -299l-393 -209l336 -209l-215 -299l-332 211l-59 -420h-344l59 420z" />
    <glyph glyph-name="uni2733" unicode="&#x2733;" horiz-adv-x="1617" 
d="M633 639l-533 -29l29 213l526 -26l-342 352l168 151l299 -393l47 527h211l-98 -527l406 391l131 -149l-443 -352l533 26l-29 -213l-526 29l340 -354l-168 -150l-299 393l-47 -528h-211l100 528l-408 -393l-131 150z" />
    <glyph glyph-name="uni2738" unicode="&#x2738;" horiz-adv-x="1822" 
d="M1722 1069l-352 -330l352 -319l-483 22l18 -481l-327 358l-322 -352l23 473l-479 -14l356 328l-350 321l471 -24l-15 481l328 -350l322 350l-25 -481z" />
    <glyph glyph-name="uni2739" unicode="&#x2739;" horiz-adv-x="1722" 
d="M1010 293l-121 -324l-123 324l-268 -219l57 342l-338 -58l219 269l-325 121l325 122l-219 269l340 -60l-57 340l268 -219l121 326l123 -326l268 219l-59 -342l342 60l-220 -269l324 -123l-324 -120l220 -269l-344 58l59 -340z" />
    <glyph glyph-name="uni274C" unicode="&#x274c;" horiz-adv-x="2318" 
d="M264 1456l289 289l645 -645l645 645l289 -289l-645 -645l645 -645l-289 -289l-645 645l-645 -645l-289 289l645 645z" />
    <glyph glyph-name="uni2762" unicode="&#x2762;" horiz-adv-x="1243" 
d="M252 1200q0 152 116.5 239t338.5 87t338 -87t116 -239q0 -71 -22 -124t-57.5 -85.5t-79 -59t-88 -53.5t-82 -60t-63 -86.5t-30.5 -125.5q133 -23 211 -108.5t78 -212.5q0 -140 -87.5 -226t-233.5 -86t-234 86t-88 226q0 127 78 212.5t211 108.5q-5 72 -30.5 125.5
t-63 86.5t-82 60t-88 53.5t-79 59t-57.5 85.5t-22 124z" />
    <glyph glyph-name="uni29D8" unicode="&#x29d8;" horiz-adv-x="841" 
d="M326 -29l-291 213l348 213l-289 211l350 213l-290 213l350 211l-264 193l120 100l412 -303l-350 -213l291 -211l-348 -213l288 -213l-348 -211l289 -215l-483 -291l-105 111z" />
    <glyph glyph-name="uni29D9" unicode="&#x29d9;" horiz-adv-x="839" 
d="M532 1235l289 -215l-348 -211l289 -213l-348 -213l291 -211l-351 -213l264 -192l-120 -99l-414 303l350 211l-291 213l351 213l-289 211l348 213l-289 213l481 293l105 -113z" />
    <glyph glyph-name="uni29DA" unicode="&#x29da;" horiz-adv-x="1306" 
d="M326 -29l-291 213l348 213l-289 211l350 213l-290 213l350 211l-264 193l120 100l412 -303l-350 -213l291 -211l-348 -213l288 -213l-348 -211l289 -215l-483 -291l-105 111zM842 -41l-289 213l348 213l-289 211l351 215l-291 211l350 213l-264 190l121 101l411 -303
l-350 -211l291 -213l-350 -213l290 -213l-348 -211l289 -213l-483 -293l-105 113z" />
    <glyph glyph-name="uni29DB" unicode="&#x29db;" horiz-adv-x="1306" 
d="M477 1235l291 -215l-348 -211l289 -213l-351 -213l291 -211l-350 -213l264 -192l-121 -99l-411 303l350 211l-291 213l348 213l-288 211l348 213l-289 213l483 293l105 -113zM995 1223l289 -213l-346 -213l289 -211l-350 -215l290 -211l-350 -213l264 -191l-120 -100
l-412 303l350 211l-293 213l350 213l-288 213l348 211l-289 213l483 293l105 -113z" />
    <glyph glyph-name="uni3008" unicode="&#x3008;" horiz-adv-x="698" 
d="M358 -393l-223 1011l500 992l190 -76l-469 -930l207 -934z" />
    <glyph glyph-name="uni3009" unicode="&#x3009;" horiz-adv-x="724" 
d="M387 1610l221 -1012l-499 -991l-189 76l469 929l-207 934z" />
    <glyph glyph-name="uni300A" unicode="&#x300a;" horiz-adv-x="1118" 
d="M358 -393l-223 1011l500 1012l190 -76l-469 -950l207 -934zM750 -401l-222 1007l500 1004l189 -76l-469 -942l206 -930z" />
    <glyph glyph-name="uni300B" unicode="&#x300b;" horiz-adv-x="1116" 
d="M387 1630l223 -1007l-499 -1004l-191 76l469 942l-207 930zM780 1622l221 -1012l-499 -1011l-189 75l469 951l-207 934z" />
    <glyph glyph-name="uni300C" unicode="&#x300c;" horiz-adv-x="718" 
d="M483 1348l-90 -641h-196l116 831h492l-25 -190h-297z" />
    <glyph glyph-name="uni300D" unicode="&#x300d;" horiz-adv-x="718" 
d="M252 -135l90 641h197l-115 -834h-494l27 193h295z" />
    <glyph glyph-name="uni3010" unicode="&#x3010;" horiz-adv-x="851" 
d="M676 -328h-625l262 1866h625q-138 -194 -229.5 -439t-126 -493t-11.5 -493.5t105 -440.5z" />
    <glyph glyph-name="uni3011" unicode="&#x3011;" horiz-adv-x="851" 
d="M817 1538l-262 -1866h-627q184 260 283 597t94.5 673.5t-115.5 595.5h627z" />
    <glyph glyph-name="u1F642" unicode="&#x1f642;" horiz-adv-x="1849" 
d="M954 -31q-167 0 -315 57.5t-257 159t-172 250t-63 322.5q0 177 65.5 325t177 245.5t258 151.5t308.5 54q161 0 306.5 -53.5t257 -151t177.5 -246t66 -325.5q0 -174 -63 -322.5t-172 -250t-257.5 -159t-316.5 -57.5zM711 811q87 0 131.5 55t44.5 150q0 100 -46.5 150.5
t-127.5 50.5q-88 0 -133 -53.5t-45 -147.5q0 -101 47 -153t129 -52zM1198 811q88 0 133 55t45 150q0 100 -47 150.5t-129 50.5q-87 0 -131.5 -53.5t-44.5 -147.5q0 -101 46.5 -153t127.5 -52zM1489 649l-172 27q-35 -234 -361 -234t-360 234l-172 -27q29 -192 172.5 -298.5
t359.5 -106.5q224 0 365 109.5t168 295.5z" />
    <glyph glyph-name="Adieresis.ss01" horiz-adv-x="1458" 
d="M545 1802h237l-34 -246h-236zM1034 1802h236l-33 -246h-236zM1348 0h-248l-60 256h-690l-131 -256h-262l758 1434h278zM631 807l-172 -338h530l-65 281q-53 233 -60 438h-78q-49 -175 -155 -381z" />
    <glyph glyph-name="Edieresis.ss01" horiz-adv-x="1198" 
d="M444 1802h238l-35 -246h-235zM934 1802h235l-32 -246h-236zM1243 1434l-31 -220h-718l-52 -380h660l-31 -203h-657l-58 -412h721l-33 -219h-962l201 1434h960z" />
    <glyph glyph-name="Edotaccent.ss01" horiz-adv-x="1198" 
d="M688 1802h238l-33 -246h-238zM1243 1434l-31 -220h-718l-52 -380h660l-31 -203h-657l-58 -412h721l-33 -219h-962l201 1434h960z" />
    <glyph glyph-name="Gdotaccent.ss01" horiz-adv-x="1613" 
d="M809 1556l33 246h237l-32 -246h-238zM131 668q0 169 55.5 316.5t154 254.5t241.5 168t311 61q257 0 433 -130.5t214 -350.5l-237 -61q-23 146 -137 233.5t-283 87.5q-228 0 -366 -157t-138 -408q0 -235 122 -369.5t318 -134.5q162 0 277.5 87t152.5 229l8 49h-430l27 184
h635l-100 -727h-201l2 20q2 12 9 31.5t15.5 38t25 56.5t28.5 67l-76 35q-59 -130 -173.5 -205.5t-268.5 -75.5q-126 0 -238.5 49t-197 137.5t-134 222t-49.5 292.5z" />
    <glyph glyph-name="Idieresis.ss01" horiz-adv-x="602" 
d="M82 1556l33 246h237l-35 -246h-235zM571 1556l33 246h236l-33 -246h-236zM104 0l201 1434h242l-201 -1434h-242z" />
    <glyph glyph-name="Idotaccent.ss01" horiz-adv-x="602" 
d="M326 1556l32 246h238l-33 -246h-237zM104 0l201 1434h242l-201 -1434h-242z" />
    <glyph glyph-name="Odieresis.ss01" horiz-adv-x="1656" 
d="M567 1569l33 246h238l-35 -246h-236zM1057 1569l33 246h235l-33 -246h-235zM129 662q0 232 97.5 416t273.5 287t399 103q303 0 490.5 -190.5t187.5 -507.5q0 -232 -97 -416t-272.5 -287.5t-398.5 -103.5q-303 0 -491.5 191t-188.5 508zM377 678q0 -227 120.5 -360.5
t321.5 -133.5q225 0 367.5 156t142.5 414q0 228 -120 361.5t-322 133.5q-226 0 -368 -156t-142 -415z" />
    <glyph glyph-name="R.ss01" horiz-adv-x="1384" 
d="M842 561h-25l422 -561h-287l-399 561h-150l-77 -561h-244l201 1434h641q201 0 315.5 -108t114.5 -286q0 -213 -133 -346t-379 -133zM496 1219l-66 -469h393q129 0 203 70.5t74 189.5q0 99 -58 154t-155 55h-391z" />
    <glyph glyph-name="Udieresis.ss01" horiz-adv-x="1447" 
d="M504 1556l33 246h237l-35 -246h-235zM993 1556l33 246h236l-33 -246h-236zM154 563l120 871h242l-121 -869q-27 -192 49.5 -286.5t239.5 -94.5t253.5 77.5t117.5 268.5l125 904h243l-131 -938q-73 -531 -614 -531q-104 0 -191 22.5t-157.5 68.5t-114.5 117t-62 168t1 222
z" />
    <glyph glyph-name="Wdieresis.ss01" horiz-adv-x="1964" 
d="M754 1556l32 246h238l-35 -246h-235zM1243 1556l33 246h235l-32 -246h-236zM285 0l-121 1434h242l43 -574q16 -273 -23 -571h92q43 178 166 456l311 689h205l109 -560q70 -409 65 -585h92q46 313 119 536l205 609h262l-520 -1434h-277l-118 659q-43 279 -35 508h-68
q-56 -280 -172 -526l-301 -641h-276z" />
    <glyph glyph-name="Ydieresis.ss01" horiz-adv-x="1400" 
d="M475 1556l33 246h237l-34 -246h-236zM965 1556l32 246h236l-33 -246h-235zM582 555l-426 879h272l137 -304q104 -264 111 -382h94q15 56 73.5 159.5t147.5 229.5l219 297h289l-674 -879l-75 -555h-244z" />
    <glyph glyph-name="Zdotaccent.ss01" horiz-adv-x="1306" 
d="M682 1556l33 246h237l-32 -246h-238zM1141 0h-1131l29 203l975 1057l-51 63q-122 -109 -338 -109h-426l30 220h1096l-33 -203l-977 -1057l52 -63q121 108 338 108h471z" />
    <glyph glyph-name="M.ss05" horiz-adv-x="1972" 
d="M322 0h-240l162 1149q21 145 102 218t205 73q105 0 171.5 -56.5t96.5 -181.5l133 -563q5 -23 12.5 -32t24.5 -9t28 9t21 32l289 573q61 123 137.5 175.5t180.5 52.5q57 0 105.5 -18.5t86 -55.5t53.5 -100.5t4 -145.5l-157 -1120h-238l160 1139q4 34 -10 51.5t-43 17.5
q-51 0 -74 -47l-336 -665q-80 -156 -229 -156q-85 0 -135 46t-74 142l-144 633q-8 47 -59 47q-28 0 -48 -18t-24 -51z" />
    <glyph glyph-name="i.loclTRK" horiz-adv-x="524" 
d="M358 1257q-72 0 -115.5 42t-43.5 108q0 71 50.5 114.5t123.5 43.5q70 0 113.5 -42t43.5 -108q0 -71 -49.5 -114.5t-122.5 -43.5zM57 0l152 1085h242l-152 -1085h-242z" />
    <glyph glyph-name="a.ss01" horiz-adv-x="1161" 
d="M608 1120q225 0 348 -121t93 -335l-56 -385l6 -279h-221l-6 168h-61q-37 -93 -134.5 -148t-224.5 -55q-139 0 -225 80t-86 211q0 150 101.5 240t287.5 122l381 68l2 8q16 121 -46 182.5t-173 61.5q-121 0 -187.5 -57.5t-74.5 -157.5l-223 41q27 174 161 265t338 91z
M457 141q100 0 184 53t123 136l29 205l-297 -48q-220 -40 -220 -194q0 -70 48 -111t133 -41z" />
    <glyph glyph-name="aacute.ss01" horiz-adv-x="1161" 
d="M672 1563h268l-223 -291h-176zM608 1120q225 0 348 -121t93 -335l-56 -385l6 -279h-221l-6 168h-61q-37 -93 -134.5 -148t-224.5 -55q-139 0 -225 80t-86 211q0 150 101.5 240t287.5 122l381 68l2 8q16 121 -46 182.5t-173 61.5q-121 0 -187.5 -57.5t-74.5 -157.5
l-223 41q27 174 161 265t338 91zM457 141q100 0 184 53t123 136l29 205l-297 -48q-220 -40 -220 -194q0 -70 48 -111t133 -41z" />
    <glyph glyph-name="abreve.ss01" horiz-adv-x="1161" 
d="M627 1255q-152 0 -239.5 84t-82.5 224h197q-4 -74 31.5 -114t99.5 -40q72 0 113.5 41t44.5 113h192q0 -138 -97.5 -223t-258.5 -85zM608 1120q225 0 348 -121t93 -335l-56 -385l6 -279h-221l-6 168h-61q-37 -93 -134.5 -148t-224.5 -55q-139 0 -225 80t-86 211
q0 150 101.5 240t287.5 122l381 68l2 8q16 121 -46 182.5t-173 61.5q-121 0 -187.5 -57.5t-74.5 -157.5l-223 41q27 174 161 265t338 91zM457 141q100 0 184 53t123 136l29 205l-297 -48q-220 -40 -220 -194q0 -70 48 -111t133 -41z" />
    <glyph glyph-name="acircumflex.ss01" horiz-adv-x="1161" 
d="M555 1337l-49 -65h-223l249 291h269l168 -291h-215l-31 65q-29 72 -35 109h-65q-10 -20 -21.5 -38.5t-27 -41t-19.5 -29.5zM608 1120q225 0 348 -121t93 -335l-56 -385l6 -279h-221l-6 168h-61q-37 -93 -134.5 -148t-224.5 -55q-139 0 -225 80t-86 211q0 150 101.5 240
t287.5 122l381 68l2 8q16 121 -46 182.5t-173 61.5q-121 0 -187.5 -57.5t-74.5 -157.5l-223 41q27 174 161 265t338 91zM457 141q100 0 184 53t123 136l29 205l-297 -48q-220 -40 -220 -194q0 -70 48 -111t133 -41z" />
    <glyph glyph-name="adieresis.ss01" horiz-adv-x="1161" 
d="M297 1495h238l-35 -246h-236zM786 1495h236l-33 -246h-235zM608 1120q225 0 348 -121t93 -335l-56 -385l6 -279h-221l-6 168h-61q-37 -93 -134.5 -148t-224.5 -55q-139 0 -225 80t-86 211q0 150 101.5 240t287.5 122l381 68l2 8q16 121 -46 182.5t-173 61.5
q-121 0 -187.5 -57.5t-74.5 -157.5l-223 41q27 174 161 265t338 91zM457 141q100 0 184 53t123 136l29 205l-297 -48q-220 -40 -220 -194q0 -70 48 -111t133 -41z" />
    <glyph glyph-name="agrave.ss01" horiz-adv-x="1161" 
d="M668 1563l49 -291h-178l-142 291h271zM608 1120q225 0 348 -121t93 -335l-56 -385l6 -279h-221l-6 168h-61q-37 -93 -134.5 -148t-224.5 -55q-139 0 -225 80t-86 211q0 150 101.5 240t287.5 122l381 68l2 8q16 121 -46 182.5t-173 61.5q-121 0 -187.5 -57.5t-74.5 -157.5
l-223 41q27 174 161 265t338 91zM457 141q100 0 184 53t123 136l29 205l-297 -48q-220 -40 -220 -194q0 -70 48 -111t133 -41z" />
    <glyph glyph-name="amacron.ss01" horiz-adv-x="1161" 
d="M313 1481h691l-25 -174h-690zM608 1120q225 0 348 -121t93 -335l-56 -385l6 -279h-221l-6 168h-61q-37 -93 -134.5 -148t-224.5 -55q-139 0 -225 80t-86 211q0 150 101.5 240t287.5 122l381 68l2 8q16 121 -46 182.5t-173 61.5q-121 0 -187.5 -57.5t-74.5 -157.5l-223 41
q27 174 161 265t338 91zM457 141q100 0 184 53t123 136l29 205l-297 -48q-220 -40 -220 -194q0 -70 48 -111t133 -41z" />
    <glyph glyph-name="aogonek.ss01" horiz-adv-x="1161" 
d="M1049 -229l32 -136q-38 -30 -107.5 -50.5t-142.5 -20.5q-112 0 -175.5 55t-63.5 148q0 78 49.5 143.5t136.5 103.5l-6 154h-61q-37 -93 -134.5 -148t-224.5 -55q-139 0 -225 80t-86 211q0 150 101.5 240t287.5 122l381 68l2 8q16 121 -46 182.5t-173 61.5
q-121 0 -187.5 -57.5t-74.5 -157.5l-223 41q27 174 161 265t338 91q225 0 348 -121t93 -335l-56 -385l6 -279h-24q-102 -22 -162.5 -71.5t-60.5 -114.5q0 -50 32.5 -75.5t89.5 -25.5q99 0 175 58zM457 141q100 0 184 53t123 136l29 205l-297 -48q-220 -40 -220 -194
q0 -70 48 -111t133 -41z" />
    <glyph glyph-name="aring.ss01" horiz-adv-x="1161" 
d="M639 1243q-120 0 -195 66t-75 172q0 115 89.5 191.5t223.5 76.5q119 0 193.5 -66t74.5 -172q0 -115 -88.5 -191.5t-222.5 -76.5zM670 1618q-61 0 -100.5 -36.5t-39.5 -94.5q0 -51 32.5 -82t86.5 -31q62 0 100.5 35.5t38.5 95.5q0 52 -31.5 82.5t-86.5 30.5zM608 1120
q225 0 348 -121t93 -335l-56 -385l6 -279h-221l-6 168h-61q-37 -93 -134.5 -148t-224.5 -55q-139 0 -225 80t-86 211q0 150 101.5 240t287.5 122l381 68l2 8q16 121 -46 182.5t-173 61.5q-121 0 -187.5 -57.5t-74.5 -157.5l-223 41q27 174 161 265t338 91zM457 141
q100 0 184 53t123 136l29 205l-297 -48q-220 -40 -220 -194q0 -70 48 -111t133 -41z" />
    <glyph glyph-name="atilde.ss01" horiz-adv-x="1161" 
d="M512 1409q-59 0 -68 -154h-137q6 165 62.5 245.5t150.5 80.5q31 0 57 -8.5t51.5 -28t38 -31t38.5 -38.5q47 -50 81 -50q56 0 68 152h137q-4 -162 -61 -243t-150 -81t-188 105q-18 20 -25 27t-23 15.5t-32 8.5zM608 1120q225 0 348 -121t93 -335l-56 -385l6 -279h-221
l-6 168h-61q-37 -93 -134.5 -148t-224.5 -55q-139 0 -225 80t-86 211q0 150 101.5 240t287.5 122l381 68l2 8q16 121 -46 182.5t-173 61.5q-121 0 -187.5 -57.5t-74.5 -157.5l-223 41q27 174 161 265t338 91zM457 141q100 0 184 53t123 136l29 205l-297 -48
q-220 -40 -220 -194q0 -70 48 -111t133 -41z" />
    <glyph glyph-name="cdotaccent.ss01" horiz-adv-x="1247" 
d="M596 1249l33 246h237l-32 -246h-238zM80 512q0 174 73 312t207.5 217t307.5 79q214 0 359 -119.5t167 -308.5l-233 -51q-12 123 -92 195.5t-203 72.5q-156 0 -253.5 -109.5t-97.5 -281.5q0 -163 86 -253.5t228 -90.5q227 0 307 221l213 -84q-52 -160 -195.5 -253
t-337.5 -93q-239 0 -387.5 151.5t-148.5 395.5z" />
    <glyph glyph-name="edieresis.ss01" horiz-adv-x="1265" 
d="M332 1249l33 246h237l-35 -246h-235zM821 1249l33 246h236l-33 -246h-236zM80 522q0 266 164 432t420 166q239 0 386.5 -146t147.5 -384q0 -45 -12 -127h-862q8 -141 94 -221t231 -80q111 0 194 46t132 126l131 -156q-72 -102 -200 -157.5t-273 -55.5
q-252 0 -402.5 151.5t-150.5 405.5zM334 631h629q-6 134 -89 215.5t-217 81.5q-136 0 -224.5 -80.5t-98.5 -216.5z" />
    <glyph glyph-name="edotaccent.ss01" horiz-adv-x="1265" 
d="M575 1249l33 246h238l-33 -246h-238zM80 522q0 266 164 432t420 166q239 0 386.5 -146t147.5 -384q0 -45 -12 -127h-862q8 -141 94 -221t231 -80q111 0 194 46t132 126l131 -156q-72 -102 -200 -157.5t-273 -55.5q-252 0 -402.5 151.5t-150.5 405.5zM334 631h629
q-6 134 -89 215.5t-217 81.5q-136 0 -224.5 -80.5t-98.5 -216.5z" />
    <glyph glyph-name="f.ss01" horiz-adv-x="843" 
d="M184 0l125 887h-217l29 198h217l31 228q12 84 75.5 133t157.5 49h291l18 -190h-307l-31 -220h308l-29 -198h-307l-125 -887h-236z" />
    <glyph glyph-name="g.ss01" horiz-adv-x="1318" 
d="M84 530q0 130 42.5 241t115.5 187t172.5 119t210.5 43q140 0 240 -68.5t153 -197.5l67 39q-29 106 -36 180v12h211l-162 -1144q-31 -215 -173.5 -325t-363.5 -110q-200 0 -326 98t-141 259l217 41q6 -101 78.5 -158t188.5 -57q129 0 202.5 60.5t87.5 164.5
q27 137 103 240l-60 49q-63 -89 -160 -138t-210 -49q-199 0 -328 140.5t-129 373.5zM322 543q0 -144 82 -233t219 -89q96 0 179 48.5t122 129.5l43 285q-24 111 -105 170t-192 59q-155 0 -251.5 -104.5t-96.5 -265.5z" />
    <glyph glyph-name="gbreve.ss01" horiz-adv-x="1318" 
d="M395 1563h197q-4 -74 31.5 -114t99.5 -40q72 0 113.5 41t44.5 113h192q0 -138 -97.5 -223t-258.5 -85q-152 0 -239.5 84t-82.5 224zM84 530q0 130 42.5 241t115.5 187t172.5 119t210.5 43q140 0 240 -68.5t153 -197.5l67 39q-29 106 -36 180v12h211l-162 -1144
q-31 -215 -173.5 -325t-363.5 -110q-200 0 -326 98t-141 259l217 41q6 -101 78.5 -158t188.5 -57q129 0 202.5 60.5t87.5 164.5q27 137 103 240l-60 49q-63 -89 -160 -138t-210 -49q-199 0 -328 140.5t-129 373.5zM322 543q0 -144 82 -233t219 -89q96 0 179 48.5t122 129.5
l43 285q-24 111 -105 170t-192 59q-155 0 -251.5 -104.5t-96.5 -265.5z" />
    <glyph glyph-name="uni0123.ss01" horiz-adv-x="1318" 
d="M639 1513l174 230l113 -66l-111 -143q40 -10 62 -41.5t22 -75.5q0 -71 -53 -119.5t-129 -48.5q-63 0 -99 33.5t-36 89.5q0 72 57 141zM84 530q0 130 42.5 241t115.5 187t172.5 119t210.5 43q140 0 240 -68.5t153 -197.5l67 39q-29 106 -36 180v12h211l-162 -1144
q-31 -215 -173.5 -325t-363.5 -110q-200 0 -326 98t-141 259l217 41q6 -101 78.5 -158t188.5 -57q129 0 202.5 60.5t87.5 164.5q27 137 103 240l-60 49q-63 -89 -160 -138t-210 -49q-199 0 -328 140.5t-129 373.5zM322 543q0 -144 82 -233t219 -89q96 0 179 48.5t122 129.5
l43 285q-24 111 -105 170t-192 59q-155 0 -251.5 -104.5t-96.5 -265.5z" />
    <glyph glyph-name="gdotaccent.ss01" horiz-adv-x="1318" 
d="M598 1249l33 246h237l-32 -246h-238zM84 530q0 130 42.5 241t115.5 187t172.5 119t210.5 43q140 0 240 -68.5t153 -197.5l67 39q-29 106 -36 180v12h211l-162 -1144q-31 -215 -173.5 -325t-363.5 -110q-200 0 -326 98t-141 259l217 41q6 -101 78.5 -158t188.5 -57
q129 0 202.5 60.5t87.5 164.5q27 137 103 240l-60 49q-63 -89 -160 -138t-210 -49q-199 0 -328 140.5t-129 373.5zM322 543q0 -144 82 -233t219 -89q96 0 179 48.5t122 129.5l43 285q-24 111 -105 170t-192 59q-155 0 -251.5 -104.5t-96.5 -265.5z" />
    <glyph glyph-name="i.ss01" horiz-adv-x="503" 
d="M233 1241l35 254h236l-35 -254h-236zM57 0l152 1085h237l-151 -1085h-238z" />
    <glyph glyph-name="idieresis.ss01" horiz-adv-x="524" 
d="M-8 1249l33 246h237l-35 -246h-235zM481 1249l33 246h236l-33 -246h-236zM57 0l152 1085h242l-152 -1085h-242z" />
    <glyph glyph-name="i.loclTRK.ss01" horiz-adv-x="524" 
d="M236 1249l32 246h238l-33 -246h-237zM57 0l152 1085h242l-152 -1085h-242z" />
    <glyph glyph-name="j.ss01" horiz-adv-x="512" 
d="M242 1241l34 254h238l-35 -254h-237zM457 1085l-193 -1366q-12 -84 -76 -133t-159 -49h-289l-19 191h308l190 1357h238z" />
    <glyph glyph-name="odieresis.ss01" horiz-adv-x="1300" 
d="M332 1249l33 246h237l-35 -246h-235zM821 1249l33 246h236l-33 -246h-236zM80 508q0 273 169 442.5t437 169.5q239 0 387 -148.5t148 -391.5q0 -275 -168.5 -445t-442.5 -170q-237 0 -383.5 149t-146.5 394zM981 567q0 154 -85.5 247t-227.5 93q-156 0 -253.5 -109
t-97.5 -280q0 -155 86 -247.5t228 -92.5q157 0 253.5 109.5t96.5 279.5z" />
    <glyph glyph-name="t.ss01" horiz-adv-x="858" 
d="M651 -2l-268 2q-103 1 -148.5 52t-31.5 143l96 692h-217l29 198h217l39 275l241 45l-43 -320h309l-28 -198h-309l-97 -682h271z" />
    <glyph glyph-name="udieresis.ss01" horiz-adv-x="1290" 
d="M381 1249l33 246h237l-35 -246h-235zM870 1249l33 246h236l-33 -246h-236zM907 401l97 684h237l-154 -1085h-208l2 12q17 116 61 199l-70 25q-73 -133 -183 -202t-247 -69q-193 0 -282.5 131.5t-57.5 362.5l91 626h235l-82 -577q-23 -164 30 -248t181 -84
q110 0 201.5 60.5t148.5 164.5z" />
    <glyph glyph-name="wdieresis.ss01" horiz-adv-x="1669" 
d="M571 1249l33 246h238l-35 -246h-236zM1061 1249l33 246h235l-33 -246h-235zM668 381l-170 -381h-277l-125 1085h234l37 -380q11 -145 8 -242.5t-21 -214.5h95q51 201 169 461l179 376h217l78 -378q50 -253 41 -459h92q39 241 116 457l142 380h241l-424 -1085h-270
l-74 383q-46 311 -34 494h-84q-14 -74 -42 -161t-51 -145.5t-77 -189.5z" />
    <glyph glyph-name="y.ss01" horiz-adv-x="1177" 
d="M963 1085h272l-901 -1546h-258l317 551l-299 995h252l115 -430q52 -202 41 -340h92q39 158 133 340z" />
    <glyph glyph-name="yacute.ss01" horiz-adv-x="1177" 
d="M723 1563h268l-223 -291h-176zM76 -461l317 551l-299 995h252l115 -430q52 -202 41 -340h92q39 158 133 340l236 430h272l-901 -1546h-258z" />
    <glyph glyph-name="ycircumflex.ss01" horiz-adv-x="1177" 
d="M559 1272h-223l250 291h268l168 -291h-215l-31 65q-29 72 -35 109h-65q-10 -20 -21.5 -38.5t-27 -41t-19.5 -29.5zM334 -461h-258l317 551l-299 995h252l115 -430q52 -202 41 -340h92q39 158 133 340l236 430h272z" />
    <glyph glyph-name="ydieresis.ss01" horiz-adv-x="1177" 
d="M315 1249l33 246h238l-35 -246h-236zM805 1249l33 246h235l-33 -246h-235zM1235 1085l-901 -1546h-258l317 551l-299 995h252l115 -430q52 -202 41 -340h92q39 158 133 340l236 430h272z" />
    <glyph glyph-name="ygrave.ss01" horiz-adv-x="1177" 
d="M592 1272l-141 291h270l49 -291h-178zM963 1085h272l-901 -1546h-258l317 551l-299 995h252l115 -430q52 -202 41 -340h92q39 158 133 340z" />
    <glyph glyph-name="zdotaccent.ss01" horiz-adv-x="1075" 
d="M522 1249l33 246h238l-33 -246h-238zM598 199h365l-31 -199h-934l29 201l761 712l-45 62q-65 -47 -125.5 -67.5t-148.5 -20.5h-334l29 198h905l-27 -200l-763 -713l45 -61q59 45 119.5 66.5t154.5 21.5z" />
    <glyph glyph-name="m_m.dlig" horiz-adv-x="3321" 
d="M285 0h-236l152 1085h229l-2 -18q-25 -83 -68 -172l48 -27q64 129 158 190.5t202 61.5q115 0 191 -65.5t88 -188.5h53q62 122 163 188t218 66q114 0 189.5 -65t88.5 -189h51q62 122 163 188t218 66q114 0 190 -65t89 -189h51q62 122 163.5 188t221.5 66q173 0 260 -121
t58 -329l-95 -670h-237l86 621q22 142 -21.5 216t-150.5 74q-93 0 -170.5 -58t-118.5 -151l-98 -702h-236l86 621q20 144 -24.5 217t-149.5 73q-93 0 -171 -58t-120 -151l-98 -702h-236l86 621q20 144 -23.5 217t-148.5 73q-93 0 -171 -58t-119 -151l-99 -702h-235l86 621
q20 144 -24 217t-148 73q-93 0 -170 -58t-121 -153z" />
    <glyph glyph-name="o_o.dlig" horiz-adv-x="2322" 
d="M78 498q0 178 81 320.5t223 222t318 79.5q166 0 282.5 -68.5t176.5 -183.5h49q76 115 202.5 183.5t289.5 68.5q240 0 392.5 -144.5t152.5 -385.5q0 -133 -47.5 -249t-130 -198t-199 -129t-250.5 -47q-165 0 -281.5 68.5t-173.5 187.5h-49q-68 -115 -193 -184.5
t-292 -69.5q-115 0 -215.5 36t-175 102t-117.5 167t-43 224zM319 502q0 -145 91 -233.5t243 -88.5q262 0 391 254h209q34 -122 121 -188t221 -66q177 0 292.5 115.5t115.5 292.5q0 147 -93.5 233t-244.5 86q-260 0 -387 -250h-213q-33 120 -119 185t-221 65
q-177 0 -291.5 -115t-114.5 -290z" />
    <glyph glyph-name="fi.ss01" horiz-adv-x="1347" 
d="M184 0l125 887h-217l29 198h217l31 228q12 84 75.5 133t157.5 49h291l18 -190h-307l-31 -220h308l-29 -198h-307l-125 -887h-236zM1077 1241l35 254h236l-35 -254h-236zM901 0l152 1085h237l-151 -1085h-238z" />
    <glyph glyph-name="f_f.liga.ss01" horiz-adv-x="1552" 
d="M184 0l125 887h-217l29 198h217l31 228q12 84 75.5 133t157.5 49h291l18 -190h-307l-31 -220h471l33 228q10 84 74.5 133t159.5 49h288l19 -190h-307l-29 -220h305l-28 -198h-306l-125 -887h-237l125 887h-471l-125 -887h-236z" />
    <glyph glyph-name="f_f_i.liga.ss01" horiz-adv-x="2054" 
d="M184 0l125 887h-217l29 198h217l31 228q12 84 75.5 133t157.5 49h291l18 -190h-307l-31 -220h471l33 228q10 84 74.5 133t159.5 49h288l19 -190h-307l-29 -220h305l-28 -198h-306l-125 -887h-237l125 887h-471l-125 -887h-236zM1786 1241l35 254h235l-35 -254h-235z
M1610 0l151 1085h238l-152 -1085h-237z" />
    <glyph glyph-name="f_t.liga.ss01" horiz-adv-x="1556" 
d="M309 887h-217l29 198h217l31 228q12 84 75.5 133t157.5 49h266l19 -190h-283l-31 -220h453l39 275l242 45l-43 -320h309l-29 -198h-309l-96 -682h270l-59 -207l-269 2q-103 1 -147.5 52t-32.5 143l96 692h-452l-125 -887h-236z" />
    <glyph glyph-name="t_f.liga.ss01" horiz-adv-x="1548" 
d="M299 887h-217l29 198h217l39 275l241 45l-43 -320h475l33 228q12 84 75.5 133t158.5 49h288l19 -190h-305l-31 -220h307l-29 -198h-307l-125 -887h-237l125 887h-475l-97 -682h271l-60 -207l-268 2q-103 1 -148.5 52t-31.5 143z" />
    <glyph glyph-name="t_i.liga.ss01" horiz-adv-x="1361" 
d="M1092 1241l34 254h236l-35 -254h-235zM651 -2l-268 2q-103 1 -148.5 52t-31.5 143l96 692h-217l29 198h217l39 275l241 45l-43 -320h309l-28 -198h-309l-97 -682h271zM915 0l152 1085h238l-152 -1085h-238z" />
    <glyph glyph-name="t_t.liga.ss01" horiz-adv-x="1564" 
d="M299 887h-217l29 198h217l39 275l241 45l-43 -320h469l39 275l242 45l-43 -320h309l-29 -198h-309l-96 -682h270l-59 -207l-268 2q-103 1 -148 52t-33 143l97 692h-469l-97 -682h271l-60 -207l-268 2q-103 1 -148.5 52t-31.5 143z" />
    <glyph glyph-name="t_t_i.liga.ss01" horiz-adv-x="2068" 
d="M1798 1241l35 254h235l-34 -254h-236zM299 887h-217l29 198h217l39 275l241 45l-43 -320h469l39 275l242 45l-43 -320h309l-29 -198h-309l-96 -682h270l-59 -207l-268 2q-103 1 -148 52t-33 143l97 692h-469l-97 -682h271l-60 -207l-268 2q-103 1 -148.5 52t-31.5 143z
M1622 0l152 1085h237l-151 -1085h-238z" />
    <glyph glyph-name="zero.tf" horiz-adv-x="1443" 
d="M700 -37q-249 0 -398.5 180t-149.5 496q0 245 80.5 434.5t226 293t334.5 103.5q250 0 399 -179.5t149 -495.5q0 -244 -80.5 -433.5t-226.5 -294t-334 -104.5zM707 182q178 0 284.5 166.5t106.5 442.5q0 216 -83 338t-229 122q-177 0 -285 -166t-108 -442
q0 -219 83.5 -340t230.5 -121z" />
    <glyph glyph-name="one.tf" horiz-adv-x="1449" 
d="M995 1434l-174 -1229h434l-28 -205h-1145l29 205h469l79 573q37 240 152 365l-51 53q-92 -82 -239.5 -139.5t-293.5 -67.5l29 211q165 20 320 84.5t253 149.5h166z" />
    <glyph glyph-name="two.tf" horiz-adv-x="1445" 
d="M1221 0h-1135l27 193l729 458q134 86 200 173.5t66 187.5q0 121 -81 187.5t-210 66.5q-164 0 -265 -83t-114 -245l-229 23q26 240 194.5 374.5t425.5 134.5q147 0 265 -51t189 -152.5t71 -238.5q0 -166 -99 -292.5t-297 -241.5q-288 -181 -532 -308l39 -88q111 59 221 83
t242 24h321z" />
    <glyph glyph-name="three.tf" horiz-adv-x="1443" 
d="M705 -35q-272 0 -430.5 130.5t-161.5 367.5l223 37q0 -158 100.5 -245t274.5 -87q162 0 256 74t94 198q0 99 -69.5 152t-196.5 53h-199l25 180h182q147 0 230 59.5t83 166.5q0 103 -78.5 161t-216.5 58q-156 0 -254 -73t-125 -193l-211 61q42 189 205.5 296t403.5 107
q241 0 380.5 -105t139.5 -278q0 -122 -75.5 -207t-215.5 -114l-8 -78q113 -23 175 -100.5t62 -192.5q0 -197 -165.5 -312.5t-427.5 -115.5z" />
    <glyph glyph-name="four.tf" horiz-adv-x="1439" 
d="M1051 0h-234l43 311h-807l31 191l874 934h293l-127 -924h228l-33 -201h-227zM993 1221l-671 -717l43 -60q91 68 276 68h250l49 360q24 192 117 291z" />
    <glyph glyph-name="five.tf" horiz-adv-x="1443" 
d="M100 408l226 49q23 -130 127 -208.5t258 -78.5q161 0 259.5 86.5t98.5 235.5q0 129 -84 208.5t-227 79.5q-104 0 -207 -45t-174 -119l-187 62l209 758h924l-33 -205h-721l-41 -152q-12 -47 -38.5 -97.5t-47.5 -79t-57 -73.5l57 -53q66 85 178 133.5t230 48.5
q208 0 335.5 -128t127.5 -334q0 -238 -166.5 -384.5t-441.5 -146.5q-248 0 -412.5 122.5t-192.5 320.5z" />
    <glyph glyph-name="six.tf" horiz-adv-x="1441" 
d="M731 -35q-187 0 -322 82.5t-203.5 230.5t-68.5 347q0 245 96.5 439t264 300t374.5 106q205 0 345.5 -97.5t175.5 -262.5l-246 -59q-23 99 -102 156t-195 57q-196 0 -324.5 -155t-140.5 -413l61 -10q63 115 187 184.5t264 69.5q187 0 302.5 -120t115.5 -324
q0 -241 -162.5 -386t-421.5 -145zM745 170q147 0 238.5 88.5t91.5 233.5q0 127 -78 199.5t-209 72.5q-116 0 -228 -64t-179 -170q10 -166 109 -263t255 -97z" />
    <glyph glyph-name="seven.tf" horiz-adv-x="1445" 
d="M694 1229h-475l29 207h1202l-27 -187l-882 -1249h-283l2 14l647 879q80 107 115 151.5t89.5 101t115.5 101.5l-56 86q-76 -46 -200 -75t-277 -29z" />
    <glyph glyph-name="eight.tf" horiz-adv-x="1443" 
d="M94 352q0 150 98 252.5t263 124.5l8 68q-103 29 -161 97.5t-58 172.5q0 126 78.5 218.5t209.5 137.5t297 45q248 0 385.5 -98t137.5 -262q0 -135 -83 -221t-222 -105l-9 -67q126 -25 195.5 -109t69.5 -209q0 -141 -81.5 -239.5t-220.5 -145.5t-323 -47
q-277 0 -430.5 104.5t-153.5 282.5zM475 1042q0 -100 80.5 -154t226.5 -54q160 0 243 62.5t83 168.5q0 102 -80.5 155.5t-222.5 53.5q-154 0 -242 -62.5t-88 -169.5zM340 408q0 -119 93 -179.5t259 -60.5q180 0 278.5 70t98.5 196q0 119 -91 179.5t-255 60.5
q-177 0 -280 -69t-103 -197z" />
    <glyph glyph-name="nine.tf" horiz-adv-x="1443" 
d="M764 1470q278 0 432 -179.5t154 -489.5q0 -189 -55 -346.5t-151.5 -264.5t-230.5 -166t-290 -59q-201 0 -341.5 99t-177.5 262l244 57q26 -97 105.5 -154t189.5 -57q202 0 326.5 148t134.5 419l-60 9q-63 -119 -185 -185.5t-261 -66.5q-186 0 -301 119t-115 325
q0 240 162 385t420 145zM748 1266q-147 0 -236.5 -88t-89.5 -234q0 -129 76.5 -201.5t206.5 -72.5q120 0 229.5 61t171.5 174q-7 161 -106.5 261t-251.5 100z" />
    <glyph glyph-name="zero.dnom" horiz-adv-x="862" 
d="M383 -20q-144 0 -232 99.5t-88 276.5q0 200 103.5 326.5t267.5 126.5q143 0 230.5 -101t87.5 -278q0 -200 -102.5 -325t-266.5 -125zM387 125q91 0 147 84.5t56 220.5q0 108 -43.5 171t-116.5 63q-91 0 -147 -84.5t-56 -221.5q0 -111 43 -172t117 -61z" />
    <glyph glyph-name="one.dnom" horiz-adv-x="540" 
d="M305 0h-160l45 334q9 62 16.5 96.5t30.5 79t62 82.5l-41 43q-91 -101 -238 -117l21 137q179 35 260 133h115z" />
    <glyph glyph-name="two.dnom" horiz-adv-x="708" 
d="M580 0h-603l19 125l334 215q93 62 130.5 112t37.5 103q0 55 -37 88t-96 33q-68 0 -115.5 -42.5t-50.5 -125.5l-150 14q10 132 100 209.5t226 77.5q124 0 203 -66.5t79 -179.5q0 -107 -63 -179t-191 -142q-167 -95 -217 -121l25 -55q152 69 268 69h121z" />
    <glyph glyph-name="three.dnom" horiz-adv-x="743" 
d="M319 -20q-151 0 -237.5 72.5t-85.5 207.5l145 25q0 -82 48.5 -127t134.5 -45q74 0 116.5 36t42.5 95q0 102 -131 102h-98l16 115h109q61 0 96 29.5t35 80.5q0 49 -35.5 77t-97.5 28q-76 0 -122.5 -37.5t-59.5 -97.5l-138 41q24 109 113 168t219 59q131 0 208 -60t77 -155
q0 -68 -41 -114.5t-119 -59.5l-6 -47q62 -12 97.5 -54.5t35.5 -105.5q0 -106 -89 -169.5t-233 -63.5z" />
    <glyph glyph-name="four.dnom" horiz-adv-x="813" 
d="M573 0h-157l20 160h-440l20 127l488 501h180l-68 -495h127l-20 -133h-127zM516 655l-352 -368l29 -39q51 45 163 45h101l20 156q12 103 74 165z" />
    <glyph glyph-name="five.dnom" horiz-adv-x="765" 
d="M-2 227l149 35q14 -66 66.5 -106.5t130.5 -40.5t124 42t46 113q0 65 -43 104.5t-113 39.5q-106 0 -186 -80l-121 39l113 415h512l-21 -133h-379l-16 -51q-1 -12 -4 -23t-9.5 -23.5t-10.5 -20t-14.5 -20.5t-13.5 -16.5t-16 -17.5l-12 -14l35 -35q35 44 91.5 69t115.5 25
q115 0 184.5 -70.5t69.5 -185.5q0 -132 -91.5 -212t-244.5 -80q-140 0 -233.5 68t-108.5 179z" />
    <glyph glyph-name="six.dnom" horiz-adv-x="806" 
d="M383 -20q-162 0 -252 100t-90 268q0 204 118.5 332.5t297.5 128.5q117 0 198 -56t103 -149l-166 -35q-12 50 -52 77.5t-100 27.5q-99 0 -163 -77.5t-70 -201.5l41 -6q31 57 95.5 91t139.5 34q106 0 171 -65.5t65 -178.5q0 -131 -93.5 -210.5t-242.5 -79.5zM393 115
q73 0 118.5 41.5t45.5 111.5q0 64 -40 99.5t-107 35.5q-59 0 -115 -29t-90 -75q3 -85 55 -134.5t133 -49.5z" />
    <glyph glyph-name="seven.dnom" horiz-adv-x="681" 
d="M262 653h-207l21 135h604l-18 -122l-420 -666h-187l2 8l275 422q41 62 64 93.5t61 71.5t84 71l-37 57q-40 -28 -105 -49t-137 -21z" />
    <glyph glyph-name="eight.dnom" horiz-adv-x="821" 
d="M10 197q0 80 55.5 134.5t147.5 63.5l4 45q-58 14 -90.5 52t-32.5 94q0 104 96 162.5t244 58.5q145 0 226 -55t81 -148q0 -73 -47 -119t-123 -55l-6 -43q69 -12 110.5 -57.5t41.5 -114.5q0 -113 -100 -174t-265 -61q-161 0 -251.5 59t-90.5 158zM252 567q0 -49 42 -76.5
t116 -27.5q81 0 124.5 31.5t43.5 83.5q0 49 -42.5 74.5t-115.5 25.5q-79 0 -123.5 -29t-44.5 -82zM176 231q0 -58 50 -89t136 -31q93 0 145 35t52 96q0 59 -48.5 91t-135.5 32q-93 0 -146 -35.5t-53 -98.5z" />
    <glyph glyph-name="nine.dnom" horiz-adv-x="815" 
d="M389 809q163 0 253.5 -101t90.5 -272q0 -207 -117.5 -331.5t-298.5 -124.5q-117 0 -198 55t-103 147l164 37q13 -49 53 -76.5t99 -27.5q100 0 164.5 74t68.5 204l-39 6q-31 -60 -95.5 -92.5t-139.5 -32.5q-106 0 -171 65t-65 177q0 132 93 212.5t241 80.5zM381 676
q-73 0 -118.5 -43.5t-45.5 -114.5q0 -62 40 -96.5t108 -34.5q59 0 114.5 26.5t89.5 75.5q-3 84 -55.5 135.5t-132.5 51.5z" />
    <glyph glyph-name="zero.numr" horiz-adv-x="862" 
d="M475 625q-144 0 -231.5 100t-87.5 276q0 201 102.5 327t265.5 126q144 0 232 -100t88 -277q0 -201 -103 -326.5t-266 -125.5zM477 770q92 0 147.5 84t55.5 221q0 108 -43 171t-115 63q-92 0 -148.5 -83.5t-56.5 -221.5q0 -110 43 -172t117 -62z" />
    <glyph glyph-name="one.numr" horiz-adv-x="540" 
d="M395 645h-159l45 334q9 63 16.5 97t30 78.5t61.5 82.5l-41 43q-91 -101 -237 -117l20 137q178 35 260 134h115z" />
    <glyph glyph-name="two.numr" horiz-adv-x="708" 
d="M672 645h-604l18 125l334 217q93 61 130.5 110.5t37.5 102.5q0 55 -36.5 88t-96.5 33q-68 0 -115.5 -42.5t-48.5 -125.5l-152 16q12 132 101.5 208.5t224.5 76.5q124 0 204.5 -66.5t80.5 -179.5q0 -107 -63.5 -179.5t-192.5 -141.5q-174 -99 -218 -121l25 -55
q152 69 270 69h119z" />
    <glyph glyph-name="three.numr" horiz-adv-x="743" 
d="M410 627q-151 0 -238 71.5t-86 206.5l145 25q0 -81 48.5 -125.5t134.5 -44.5q74 0 116.5 36t42.5 95q0 100 -131 100h-98l16 117h109q61 0 96 29t35 80q0 49 -35.5 77.5t-97.5 28.5q-76 0 -122.5 -38t-59.5 -99l-138 43q24 107 113 166t219 59q132 0 208.5 -59t76.5 -156
q0 -67 -41 -113t-119 -61l-6 -47q62 -12 97.5 -54t35.5 -106q0 -106 -88.5 -168.5t-232.5 -62.5z" />
    <glyph glyph-name="four.numr" horiz-adv-x="813" 
d="M666 645h-160l20 160h-438l21 127l485 502h182l-67 -496h127l-21 -133h-127zM608 1300l-354 -368l31 -39q51 45 161 45h103l20 156q12 102 72 166z" />
    <glyph glyph-name="five.numr" horiz-adv-x="765" 
d="M88 872l150 35q14 -66 66 -106.5t130 -40.5t124 42t46 113q0 65 -42.5 104.5t-112.5 39.5q-107 0 -187 -80l-121 39l113 416h512l-21 -134h-378l-17 -51q-1 -12 -4 -23t-9.5 -23.5t-10.5 -20t-14.5 -20.5t-13.5 -16.5t-16 -17.5l-12 -14l35 -35q35 44 91.5 69.5
t115.5 25.5q115 0 184.5 -70.5t69.5 -185.5q0 -132 -91.5 -212.5t-244.5 -80.5q-140 0 -233.5 68t-108.5 179z" />
    <glyph glyph-name="six.numr" horiz-adv-x="806" 
d="M473 627q-162 0 -252 99t-90 267q0 206 118 333.5t298 127.5q118 0 198.5 -55t102.5 -148l-166 -37q-12 50 -52 78.5t-100 28.5q-99 0 -163 -78.5t-70 -202.5l41 -6q31 57 95.5 91t139.5 34q106 0 171 -64.5t65 -176.5q0 -131 -93.5 -211t-242.5 -80zM483 760
q72 0 118 42t46 111q0 64 -40 100t-107 36q-60 0 -115.5 -28.5t-89.5 -76.5q3 -84 55.5 -134t132.5 -50z" />
    <glyph glyph-name="seven.numr" horiz-adv-x="681" 
d="M352 1298h-207l21 136h604l-18 -123l-420 -666h-185l3 8l274 422q54 85 98 137.5t109 98.5l-35 57q-104 -70 -244 -70z" />
    <glyph glyph-name="eight.numr" horiz-adv-x="821" 
d="M102 844q0 79 55.5 133t147.5 65l4 45q-58 14 -90.5 52t-32.5 94q0 103 96.5 162t243.5 59q145 0 226.5 -55t81.5 -148q0 -73 -47 -119t-123 -55l-7 -45q69 -12 110.5 -56.5t41.5 -113.5q0 -113 -100 -174t-265 -61q-161 0 -251.5 59t-90.5 158zM344 1214q0 -50 42 -77
t116 -27q81 0 124.5 31.5t43.5 83.5q0 49 -42.5 74.5t-115.5 25.5q-79 0 -123.5 -29t-44.5 -82zM268 879q0 -58 50.5 -89.5t136.5 -31.5q93 0 144.5 35t51.5 96q0 59 -48.5 91t-135.5 32q-93 0 -146 -35t-53 -98z" />
    <glyph glyph-name="nine.numr" horiz-adv-x="815" 
d="M479 1454q163 0 253.5 -101t90.5 -272q0 -206 -117.5 -330t-297.5 -124q-117 0 -198.5 55t-103.5 145l164 37q13 -49 53 -75.5t99 -26.5q100 0 164.5 73.5t68.5 202.5l-39 6q-31 -58 -96 -91t-139 -33q-106 0 -171 64.5t-65 178.5q0 131 93 211t241 80zM471 1321
q-73 0 -118.5 -43.5t-45.5 -112.5q0 -62 40 -97.5t108 -35.5q59 0 114.5 27t89.5 78q-3 83 -55.5 133.5t-132.5 50.5z" />
    <glyph glyph-name="colon.case" horiz-adv-x="638" 
d="M381 889q-72 0 -115 41.5t-43 107.5q0 71 50 114.5t122 43.5q71 0 115.5 -42t44.5 -107q0 -73 -49.5 -115.5t-124.5 -42.5zM287 207q-73 0 -116.5 41t-43.5 106q0 73 50.5 116.5t123.5 43.5q70 0 114 -43t44 -109q0 -71 -49.5 -113t-122.5 -42z" />
    <glyph glyph-name="period.ss01" horiz-adv-x="567" 
d="M76 0l37 250h258l-37 -250h-258z" />
    <glyph glyph-name="comma.ss01" horiz-adv-x="507" 
d="M74 -293l-107 62l176 231h-108l37 250h262l-37 -250z" />
    <glyph glyph-name="colon.ss01" horiz-adv-x="608" 
d="M205 762l35 250h258l-35 -250h-258zM98 0l35 250h258l-35 -250h-258z" />
    <glyph glyph-name="semicolon.ss01" horiz-adv-x="624" 
d="M225 762l35 250h258l-37 -250h-256zM154 -291l-105 58l176 233h-106l35 250h258l-35 -250z" />
    <glyph glyph-name="exclam.ss01" horiz-adv-x="610" 
d="M352 487h-102l12 605l47 342h246l-47 -342zM106 0l35 250h258l-34 -250h-259z" />
    <glyph glyph-name="question.ss01" horiz-adv-x="1269" 
d="M741 446h-209l35 261q201 5 309.5 83.5t108.5 225.5q0 116 -68.5 182t-189.5 66q-123 0 -210 -66.5t-118 -177.5l-213 53q50 182 207.5 288.5t364.5 106.5q215 0 344 -118.5t129 -307.5q0 -192 -125.5 -313.5t-345.5 -144.5zM451 0l34 250h258l-34 -250h-258z" />
    <glyph glyph-name="asterisk.ss02" horiz-adv-x="954" 
d="M512 1104l-2 8q-23 5 -45.5 10.5t-40 10.5t-40 12t-35 11.5t-35.5 13t-31.5 11.5t-34 13t-31.5 12l31 66q62 -17 91.5 -26t82.5 -30t104 -49l11 7q0 129 36 305h74q-14 -181 -47 -305l4 -7q136 64 307 105l15 -66q-195 -68 -316 -94l-2 -10q38 -46 73 -98.5t49.5 -77.5
t49.5 -88l-63 -39q-4 6 -34.5 49t-43 62.5t-37 63t-45.5 89.5h-12q-21 -28 -43 -56t-38 -46.5t-41.5 -46t-36 -38.5t-39.5 -40.5t-36 -36.5l-49 39q9 11 37 44t38 44.5t34.5 39t41.5 44.5t43.5 42.5t55.5 51.5z" />
    <glyph glyph-name="slash.ss02" horiz-adv-x="903" 
d="M-8 0l868 1434h101l-869 -1434h-100z" />
    <glyph glyph-name="backslash.ss02" horiz-adv-x="892" 
d="M193 1434h90l467 -1434h-91z" />
    <glyph glyph-name="parenleft.case" horiz-adv-x="798" 
d="M180 508q0 317 143 621t414 567l135 -113q-73 -75 -136 -154t-128.5 -186.5t-111 -219.5t-74.5 -252t-29 -284q0 -367 228 -698l-150 -102q-291 377 -291 821z" />
    <glyph glyph-name="parenright.case" horiz-adv-x="811" 
d="M674 862q0 -313 -142.5 -618t-416.5 -568l-135 113q72 73 134 150t127.5 184.5t112 220t76 254t29.5 287.5q0 368 -228 698l150 100q293 -380 293 -821z" />
    <glyph glyph-name="braceleft.case" horiz-adv-x="784" 
d="M152 -8l63 452q10 72 -9.5 98.5t-84.5 26.5h-47l37 273h49q63 0 90.5 27.5t38.5 99.5l57 409q22 157 99 224t237 67h197l-29 -196h-172q-66 0 -99.5 -33.5t-43.5 -116.5l-54 -393q-11 -78 -64 -131t-126 -56l-12 -75q72 -2 110.5 -54t26.5 -133l-60 -434
q-11 -80 10 -114.5t91 -34.5h174l-29 -199h-199q-48 0 -84.5 5.5t-69 18t-52.5 34.5t-35 54.5t-15.5 77t5.5 103.5z" />
    <glyph glyph-name="braceright.case" horiz-adv-x="784" 
d="M543 444l-64 -452q-22 -157 -98.5 -225t-235.5 -68h-198l26 199h174q66 0 99 34t45 115l61 434q11 80 64 133t127 54l10 75q-72 3 -111 55t-28 132l55 393q11 79 -10 114.5t-90 35.5h-172l26 196h199q153 0 214.5 -65t37.5 -226l-58 -409q-9 -71 10 -99t85 -28h47
l-37 -273h-49q-64 0 -92 -27t-37 -98z" />
    <glyph glyph-name="bracketleft.case" horiz-adv-x="731" 
d="M557 -301h-494l277 1970h494l-27 -190h-295l-223 -1588h295z" />
    <glyph glyph-name="bracketright.case" horiz-adv-x="729" 
d="M707 1669l-279 -1970h-491l26 192h297l223 1588h-297l27 190h494z" />
    <glyph glyph-name="parenleft.ss02" horiz-adv-x="632" 
d="M117 401q0 333 143 641.5t412 561.5l57 -54q-240 -232 -379 -523t-139 -632q0 -405 252 -739l-64 -49q-282 358 -282 794z" />
    <glyph glyph-name="parenright.ss02" horiz-adv-x="632" 
d="M530 801q0 -329 -142 -637.5t-413 -562.5l-57 55q114 110 205 233t163 266.5t111 311t39 344.5q0 405 -252 739l64 47q282 -357 282 -796z" />
    <glyph glyph-name="braceleft.ss02" horiz-adv-x="724" 
d="M106 -18l72 507q10 75 -9 103.5t-81 28.5h-37l19 131h36q62 0 89.5 28t37.5 103l66 467q19 129 78.5 188t169.5 59h252l-13 -86h-243q-68 0 -107 -42.5t-51 -133.5l-66 -473q-21 -148 -155 -157l-6 -37q131 -9 110 -158l-71 -516q-12 -91 13.5 -132.5t94.5 -41.5h244
l-12 -86h-252q-103 0 -151 54.5t-28 193.5z" />
    <glyph glyph-name="braceright.ss02" horiz-adv-x="675" 
d="M479 449l-65 -467q-19 -129 -78.5 -188.5t-169.5 -59.5h-211l12 86h203q68 0 107 42.5t51 133.5l65 473q10 74 50.5 113.5t105.5 44.5l6 37q-132 9 -111 157l72 516q12 91 -13.5 132.5t-94.5 41.5h-203l12 86h211q103 0 150.5 -54t27.5 -193l-71 -508q-10 -75 9 -103
t81 -28h37l-19 -131h-37q-62 0 -89.5 -28t-37.5 -103z" />
    <glyph glyph-name="bracketleft.ss02" horiz-adv-x="679" 
d="M518 -266h-465l262 1863h465l-12 -86h-377l-237 -1691h376z" />
    <glyph glyph-name="bracketright.ss02" horiz-adv-x="679" 
d="M659 1597l-262 -1863h-465l13 86h377l237 1691h-377l13 86h464z" />
    <glyph glyph-name="hyphen.case" horiz-adv-x="884" 
d="M184 600l29 209h537l-29 -209h-537z" />
    <glyph glyph-name="endash.case" horiz-adv-x="1181" 
d="M119 600l28 209h965l-29 -209h-964z" />
    <glyph glyph-name="emdash.case" horiz-adv-x="1736" 
d="M102 600l29 209h1550l-28 -209h-1551z" />
    <glyph glyph-name="hyphen.ss02" horiz-adv-x="829" 
d="M178 565l12 88h484l-12 -88h-484z" />
    <glyph glyph-name="endash.ss02" horiz-adv-x="1222" 
d="M168 565l12 88h897l-12 -88h-897z" />
    <glyph glyph-name="emdash.ss02" horiz-adv-x="1808" 
d="M168 565l12 88h1481l-12 -88h-1481z" />
    <glyph glyph-name="hyphen.case.ss02" horiz-adv-x="829" 
d="M193 668l12 88h483l-12 -88h-483z" />
    <glyph glyph-name="endash.case.ss02" horiz-adv-x="1222" 
d="M182 668l13 88h897l-13 -88h-897z" />
    <glyph glyph-name="emdash.case.ss02" horiz-adv-x="1808" 
d="M182 668l13 88h1480l-12 -88h-1481z" />
    <glyph glyph-name="guillemotleft.case" horiz-adv-x="1261" 
d="M375 735l225 -551h-252l-235 568l372 536h271zM874 719l226 -535h-254l-234 551l389 553h271z" />
    <glyph glyph-name="guillemotright.case" horiz-adv-x="1263" 
d="M317 184h-272l397 568l-223 536h254l232 -553zM834 184h-273l381 551l-225 553h252l237 -569z" />
    <glyph glyph-name="guilsinglleft.case" horiz-adv-x="718" 
d="M365 735l221 -551h-256l-228 566l369 538h270z" />
    <glyph glyph-name="guilsinglright.case" horiz-adv-x="720" 
d="M305 184h-270l377 551l-222 553h254l230 -565z" />
    <glyph glyph-name="quotesinglbase.ss01" horiz-adv-x="507" 
d="M74 -293l-107 62l176 231h-108l37 250h262l-37 -250z" />
    <glyph glyph-name="quotedblbase.ss01" horiz-adv-x="903" 
d="M74 -293l-107 62l176 231h-108l37 250h262l-37 -250zM469 -293l-107 62l177 231h-107l35 250h262l-35 -250z" />
    <glyph glyph-name="quotedblleft.ss01" horiz-adv-x="890" 
d="M434 1468l107 -59l-176 -231h106l-35 -250h-262l35 250zM829 1468l107 -59l-176 -231h108l-37 -250h-262l37 250z" />
    <glyph glyph-name="quotedblright.ss01" horiz-adv-x="890" 
d="M248 918l-107 61l176 231h-108l37 250h262l-37 -250zM643 918l-106 61l176 231h-107l35 250h262l-35 -250z" />
    <glyph glyph-name="quoteleft.ss01" horiz-adv-x="495" 
d="M434 1468l107 -59l-176 -231h106l-35 -250h-262l35 250z" />
    <glyph glyph-name="quoteright.ss01" horiz-adv-x="493" 
d="M248 918l-107 61l176 231h-108l37 250h262l-37 -250z" />
    <glyph glyph-name="hyphen_hyphen.dlig" horiz-adv-x="1417" 
d="M1243 535h-1069l29 206h1069z" />
    <glyph glyph-name="hyphen_hyphen_greater.dlig" horiz-adv-x="1720" 
d="M954 1163l146 127l520 -604l-680 -594l-119 137l221 195q45 39 89.5 69t74 45.5t90.5 45.5l-16 69q-49 -18 -79 -27t-80.5 -17.5t-102.5 -8.5l-873 -4l27 199l877 4q50 0 100.5 -10.5t75 -20t67.5 -27.5l37 72q-76 42 -117 71.5t-82 76.5z" />
    <glyph glyph-name="emdash_emdash.dlig" horiz-adv-x="2574" 
d="M1104 627h-905v98h905l-189 225l19 17l227 -176q14 61 82 61q36 0 56 -22.5t14 -57.5q6 36 30 58t58 22q48 0 65 -39l283 236l18 -21l-270 -303h918v-98h-918l191 -221l-21 -17l-227 176q-14 -61 -80 -61q-37 0 -57.5 22.5t-14.5 57.5q-6 -36 -30 -58t-58 -22
q-48 0 -65 39l-283 -236l-18 21z" />
    <glyph glyph-name="parenleft_arrowup_parenright.dlig" horiz-adv-x="2193" 
d="M1124 -219q-194 0 -371.5 76t-306 204t-204.5 305t-76 371q0 192 76 367.5t204.5 303.5t306 204t371.5 76t372 -76t307 -204t205.5 -303.5t76.5 -367.5q0 -194 -76.5 -371t-205.5 -305t-307 -204t-372 -76zM1124 -35q209 0 385.5 103t279.5 281t103 388q0 155 -61 297
t-163.5 244.5t-245 163.5t-298.5 61t-298.5 -61t-245 -163.5t-163.5 -244.5t-61 -297q0 -210 103 -388t279.5 -281t385.5 -103zM735 680l-133 131l524 526l523 -526l-133 -131l-152 154q-22 22 -44 54.5t-35 56.5t-44 83l-72 -27q3 -8 14 -35.5t15 -38.5t12.5 -35.5
t11.5 -42t6 -42.5t3 -51v-586h-203l-2 586q0 112 57 245l-73 27q-40 -80 -65 -120.5t-58 -73.5z" />
    <glyph glyph-name="uni0028_uni2197_uni0029.dlig" horiz-adv-x="2193" 
d="M1124 -219q-194 0 -371.5 76t-306 204t-204.5 305t-76 371q0 192 76 367.5t204.5 303.5t306 204t371.5 76t372 -76t307 -204t205.5 -303.5t76.5 -367.5q0 -194 -76.5 -371t-205.5 -305t-307 -204t-372 -76zM1124 -35q209 0 385.5 103t279.5 281t103 388q0 155 -61 297
t-163.5 244.5t-245 163.5t-298.5 61t-298.5 -61t-245 -163.5t-163.5 -244.5t-61 -297q0 -210 103 -388t279.5 -281t385.5 -103zM840 1006v186h739v-741h-188v219q0 29 7.5 66.5t15 64t28.5 92.5l-68 33q-22 -51 -35 -78t-38.5 -64.5t-59.5 -72.5l-430 -435l-141 144l428 434
q21 21 42 38t48 32.5t39.5 22.5t47 22.5t38.5 17.5l-31 68q-155 -49 -227 -49h-215z" />
    <glyph glyph-name="parenleft_arrowright_parenright.dlig" horiz-adv-x="2193" 
d="M1124 -219q-194 0 -371.5 76t-306 204t-204.5 305t-76 371q0 192 76 367.5t204.5 303.5t306 204t371.5 76t372 -76t307 -204t205.5 -303.5t76.5 -367.5q0 -194 -76.5 -371t-205.5 -305t-307 -204t-372 -76zM1124 -35q209 0 385.5 103t279.5 281t103 388q0 155 -61 297
t-163.5 244.5t-245 163.5t-298.5 61t-298.5 -61t-245 -163.5t-163.5 -244.5t-61 -297q0 -210 103 -388t279.5 -281t385.5 -103zM1065 1126l131 134l524 -527l-524 -520l-131 133l154 152q11 12 25 23t25 19t30.5 20t31 18t39 20.5t41.5 22.5l-27 71q-48 -19 -75.5 -29
t-72.5 -18.5t-95 -9.5l-611 -4v200l611 5q25 0 51.5 -3t44 -6.5t44 -11.5t35.5 -11t37 -14t31 -12l29 74q-87 40 -126 65.5t-68 55.5z" />
    <glyph glyph-name="uni0028_uni2198_uni0029.dlig" horiz-adv-x="2193" 
d="M1124 -219q-194 0 -371.5 76t-306 204t-204.5 305t-76 371q0 192 76 367.5t204.5 303.5t306 204t371.5 76t372 -76t307 -204t205.5 -303.5t76.5 -367.5q0 -194 -76.5 -371t-205.5 -305t-307 -204t-372 -76zM1124 -35q209 0 385.5 103t279.5 281t103 388q0 155 -61 297
t-163.5 244.5t-245 163.5t-298.5 61t-298.5 -61t-245 -163.5t-163.5 -244.5t-61 -297q0 -210 103 -388t279.5 -281t385.5 -103zM1389 1055l188 4l-2 -744h-739l2 189h217q31 -1 70 -9.5t61.5 -15t91.5 -28.5l33 71q-71 27 -117 53.5t-98 77.5l-434 428l141 142l436 -426
q16 -16 29.5 -32t25.5 -34t19.5 -30t18 -32.5t14 -28t13.5 -30.5t11 -26l74 32q-53 143 -53 224z" />
    <glyph glyph-name="parenleft_arrowdown_parenright.dlig" horiz-adv-x="2193" 
d="M1124 -219q-194 0 -371.5 76t-306 204t-204.5 305t-76 371q0 192 76 367.5t204.5 303.5t306 204t371.5 76t372 -76t307 -204t205.5 -303.5t76.5 -367.5q0 -194 -76.5 -371t-205.5 -305t-307 -204t-372 -76zM1124 -35q209 0 385.5 103t279.5 281t103 388q0 155 -61 297
t-163.5 244.5t-245 163.5t-298.5 61t-298.5 -61t-245 -163.5t-163.5 -244.5t-61 -297q0 -210 103 -388t279.5 -281t385.5 -103zM1126 143l-524 525l133 131l154 -156q21 -21 42 -52t34 -55.5t45 -84.5l73 26q-1 3 -7.5 19.5t-9 22.5t-8.5 22.5t-8.5 26t-7 26t-7 29.5
t-5 29.5t-3.5 33.5t-1 35l2 588h203v-588q0 -47 -11 -95.5t-19.5 -71.5t-31.5 -77l72 -26q5 9 18.5 35t18 34t15.5 28t17 28.5t16 22.5t19 24t19 20l152 156l133 -131z" />
    <glyph glyph-name="uni0028_uni2199_uni0029.dlig" horiz-adv-x="2193" 
d="M1124 -219q-194 0 -371.5 76t-306 204t-204.5 305t-76 371q0 192 76 367.5t204.5 303.5t306 204t371.5 76t372 -76t307 -204t205.5 -303.5t76.5 -367.5q0 -194 -76.5 -371t-205.5 -305t-307 -204t-372 -76zM1124 -35q209 0 385.5 103t279.5 281t103 388q0 155 -61 297
t-163.5 244.5t-245 163.5t-298.5 61t-298.5 -61t-245 -163.5t-163.5 -244.5t-61 -297q0 -210 103 -388t279.5 -281t385.5 -103zM694 297v741l189 -2l-2 -215q0 -42 -11 -87.5t-43 -139.5l74 -31q4 9 15.5 36.5t19.5 43.5t22.5 41t32.5 48.5t41 45.5l434 428l142 -143
l-434 -430q-37 -35 -76.5 -61t-65.5 -39t-71 -31l34 -70q161 51 222 51l217 2l2 -188h-742z" />
    <glyph glyph-name="parenleft_arrowleft_parenright.dlig" horiz-adv-x="2193" 
d="M1122 -223q-194 0 -371 76t-305.5 204t-205 305t-76.5 371q0 192 76.5 368t205 303.5t305.5 203t371 75.5q195 0 373 -76t307 -203.5t205 -303t76 -367.5q0 -193 -76 -370t-205 -305t-307 -204.5t-373 -76.5zM1122 -37q157 0 299.5 60.5t245.5 163.5t164 245.5t61 300.5
q0 208 -103 384.5t-280.5 280t-386.5 103.5q-156 0 -298.5 -61t-245 -164t-163.5 -245.5t-61 -297.5q0 -210 103 -387.5t279.5 -280t385.5 -102.5zM528 731l525 524l129 -131l-152 -153q-21 -22 -51 -42.5t-55.5 -34.5t-87.5 -46l28 -74q46 19 70 28t75 19.5t99 9.5l610 -4
v-198l-610 2q-116 2 -244 57l-28 -72q11 -6 35.5 -19t34 -18t28.5 -15.5t28.5 -17t23 -15.5t24 -18t20.5 -19l152 -152l-129 -133z" />
    <glyph glyph-name="uni0028_uni2196_uni0029.dlig" horiz-adv-x="2193" 
d="M1122 -223q-194 0 -371 76t-305.5 204t-205 305t-76.5 371q0 192 76.5 368t205 303.5t305.5 203t371 75.5q195 0 373 -76t307 -203.5t205 -303t76 -367.5q0 -193 -76 -370t-205 -305t-307 -204.5t-373 -76.5zM1122 -37q157 0 299.5 60.5t245.5 163.5t164 245.5t61 300.5
q0 208 -103 384.5t-280.5 280t-386.5 103.5q-156 0 -298.5 -61t-245 -164t-163.5 -245.5t-61 -297.5q0 -210 103 -387.5t279.5 -280t385.5 -102.5zM690 1190h742v-189h-218q-45 0 -91 11.5t-134 40.5l-31 -70q7 -3 34.5 -15.5t37.5 -17t33.5 -17t38 -23t34.5 -26.5t38 -34
l425 -434l-139 -142l-430 435q-36 36 -63 76t-39 65.5t-31 71.5l-68 -33q20 -67 27.5 -93.5t15 -63.5t7.5 -66v-217h-187z" />
    <glyph glyph-name="registered.calt" horiz-adv-x="1853" 
d="M924 -31q-225 0 -403 95t-278 268.5t-100 394.5q0 174 64.5 324.5t176.5 255t266.5 164t330.5 59.5q168 0 312.5 -55t248.5 -152.5t163.5 -239t59.5 -307.5q0 -175 -65.5 -326t-178 -256t-267.5 -165t-330 -60zM932 113q193 0 346.5 82t240.5 232.5t87 342.5
q0 279 -175 447.5t-458 168.5q-295 0 -483.5 -181t-188.5 -472q0 -277 173.5 -448.5t457.5 -171.5zM768 356h-190l110 791h383q146 0 218.5 -56.5t72.5 -158.5q0 -101 -74 -162.5t-201 -67.5l-6 -36q53 -10 83.5 -39t52.5 -88l32 -90q17 -50 58 -66l-4 -27h-197
q-24 19 -41 78l-35 109q-18 56 -45.5 79t-81.5 23h-96zM858 1006l-33 -232h181q77 0 116 33.5t39 91.5q0 53 -33 80t-90 27h-180z" />
    <glyph glyph-name="at.case" horiz-adv-x="2158" 
d="M1016 -272q-258 0 -460.5 105.5t-318.5 305t-116 461.5q0 219 80.5 404.5t222.5 313.5t339.5 199.5t426.5 71.5q194 0 360.5 -56.5t284.5 -157t185 -245.5t67 -315q0 -138 -40.5 -255.5t-108 -196t-156 -122.5t-185.5 -44q-105 0 -171 50t-85 140h-59
q-52 -80 -153.5 -130t-219.5 -50q-162 0 -257 104.5t-95 280.5q0 122 40.5 226t109 174.5t160.5 110.5t194 40q124 0 209 -51.5t116 -139.5h60l53 164h201l-162 -530q-33 -103 -11.5 -160t97.5 -57q117 0 198 122t81 308q0 180 -87.5 320.5t-250.5 220t-377 79.5
q-256 0 -454.5 -103.5t-306.5 -289t-108 -422.5q0 -164 55.5 -297.5t152.5 -222t229.5 -136.5t287.5 -48t304 43.5t266 122.5l67 -154q-114 -83 -297 -133.5t-368 -50.5zM1032 401q73 0 137 30.5t107 86.5l67 258q-15 82 -74 127t-151 45q-135 0 -221 -91.5t-86 -229.5
q0 -106 59.5 -166t161.5 -60z" />
    <glyph glyph-name="ampersand.ss02" horiz-adv-x="1335" 
d="M90 332q0 166 118 288t310 156q-111 91 -162 166.5t-51 177.5q0 156 108.5 250t266.5 94q157 0 254.5 -90t97.5 -225q0 -139 -107 -238.5t-282 -124.5l-8 -30q115 -88 248 -226l112 -116q110 121 187 325l84 -39q-93 -219 -242 -317l-6 -37q79 -65 137.5 -162t73.5 -184
h-117q-33 148 -106 274h-39q-65 -144 -196 -224.5t-288 -80.5q-179 0 -286 102t-107 261zM399 1126q0 -46 13 -84.5t43.5 -77t65 -70t93.5 -79.5q324 104 324 328q0 107 -73.5 173t-192.5 66q-122 0 -197.5 -71.5t-75.5 -184.5zM186 342q0 -130 82.5 -207.5t229.5 -77.5
q149 0 267.5 80t172.5 209l-367 373q-182 -30 -283.5 -132t-101.5 -245z" />
    <glyph glyph-name="bar_bar.dlig" horiz-adv-x="1234" 
d="M1200 1434l-78 -562h-917l78 562h917zM82 0l78 561h917l-78 -561h-917z" />
    <glyph glyph-name="less_hyphen_hyphen.dlig" horiz-adv-x="1732" 
d="M1626 788l-27 -198l-876 -2q-50 0 -100.5 10.5t-76.5 20t-67 26.5l-37 -74q44 -23 62.5 -33.5t47 -29t48.5 -38t41 -44.5l176 -205l-145 -129l-520 606l677 594l121 -139l-221 -190q-45 -39 -91 -69t-73.5 -45t-89.5 -46l17 -70q50 18 79 27t79.5 17.5t103.5 8.5z" />
    <glyph glyph-name="uni0308.ss01" 
d="M-717 1249l33 246h238l-35 -246h-236zM-227 1249l32 246h236l-33 -246h-235z" />
    <glyph glyph-name="uni0307.ss01" 
d="M-211 1249l33 246h237l-32 -246h-238z" />
    <glyph glyph-name="dotaccent.ss01" horiz-adv-x="385" 
d="M174 1249l33 246h237l-32 -246h-238z" />
    <glyph glyph-name="dieresis.ss01" horiz-adv-x="909" 
d="M193 1249l32 246h238l-35 -246h-235zM682 1249l33 246h235l-32 -246h-236z" />
    </font>
</defs>
</svg>
