<?xml version="1.0" standalone="no"?>
<!DOCTYPE svg PUBLIC "-//W3C//DTD SVG 1.1//EN" "http://www.w3.org/Graphics/SVG/1.1/DTD/svg11.dtd" >
<svg xmlns="http://www.w3.org/2000/svg" xmlns:xlink="http://www.w3.org/1999/xlink" version="1.1">
<metadata>
Created by FontForge 20170731 at Wed Dec 14 08:56:25 2022
 By Aleksey,,,
Copyright (c) 2020 by Doni Sukma. All rights reserved.
</metadata>
<defs>
<font id="Bauziet-Norm-ExtraBold" horiz-adv-x="0" >
  <font-face 
    font-family="ExtraBold"
    font-weight="800"
    font-stretch="normal"
    units-per-em="2048"
    panose-1="0 0 9 0 0 0 0 0 0 0"
    ascent="1495"
    descent="-553"
    x-height="1085"
    cap-height="1434"
    bbox="-1055 -539 3252 2093"
    underline-thickness="102"
    underline-position="-307"
    unicode-range="U+0020-1F642"
  />
<missing-glyph horiz-adv-x="2242" 
d="M1946 0h-1721l31 172q75 0 121 27t65 106l156 897q5 40 -3.5 65.5t-31 36.5t-46.5 14.5t-60 2.5l32 172l531 2l-29 -172h-9.5h-14t-16.5 -1t-19.5 -3t-20.5 -6t-20.5 -10t-19 -15.5t-17.5 -21t-13.5 -28t-9.5 -36.5l-149 -811q-18 -96 -37 -148.5t-61 -88.5l28 -37
q40 33 96.5 49t94.5 18t112 2h674q32 0 47.5 0.5t40.5 3.5t38.5 10.5t29 20.5t24.5 34t15 50l33 201h200zM1724 1278q0 59 35.5 94t93.5 35q57 0 91 -34.5t34 -94.5q0 -55 -34.5 -90t-90.5 -35q-57 0 -93 35.5t-36 89.5zM1755 1282q0 -49 26 -77.5t72 -28.5q43 0 69 29
t26 73q0 47 -25.5 74.5t-69.5 27.5q-48 0 -73 -26t-25 -72zM1835 1217h-27v124h56q18 0 32.5 -10t14.5 -31q0 -13 -8 -23.5t-19 -12.5l27 -47h-31l-20 43h-25v-43zM1835 1319v-41h25q9 0 16.5 5.5t7.5 12.5q0 23 -20 23h-29zM1196 336h-393l31 168h227l6 37
q-91 46 -137.5 127.5t-46.5 183.5q0 183 131.5 303.5t343.5 120.5q192 0 310 -100.5t118 -264.5q0 -132 -77.5 -233.5t-203.5 -136.5l-8 -37h209l-23 -168h-397l41 246q120 19 195 99.5t75 190.5q0 106 -66.5 169t-178.5 63q-127 0 -206 -78t-79 -199q0 -91 47 -157t123 -88
z" />
    <glyph glyph-name="fi" unicode="fi" horiz-adv-x="1490" 
d="M983 1419q0 89 56.5 144t150.5 55t151.5 -55t57.5 -144t-57.5 -143.5t-151.5 -54.5t-150.5 54.5t-56.5 143.5zM231 801h-206v284h206v78q0 183 111.5 268t310.5 85q94 0 160 -15l41 -280q-58 14 -119 14q-84 0 -119.5 -22.5t-35.5 -88.5v-39h784v-1085h-348v801h-436
v-801h-349v801z" />
    <glyph glyph-name="f_f.liga" unicode="ff" horiz-adv-x="1652" 
d="M231 801h-206v284h206v78q0 183 111.5 268t310.5 85q94 0 160 -15l41 -280q-58 14 -119 14q-84 0 -119.5 -22.5t-35.5 -88.5v-39h407v78q0 183 111.5 268t310.5 85q94 0 160 -15l41 -280q-58 14 -119 14q-84 0 -120 -22.5t-36 -88.5v-39h301v-284h-301v-801h-348v801
h-407v-801h-349v801z" />
    <glyph glyph-name="f_f_i.liga" unicode="ffi" horiz-adv-x="2246" 
d="M1739 1419q0 89 56.5 144t150.5 55t151 -55t57 -144t-57 -143.5t-151 -54.5t-150.5 54.5t-56.5 143.5zM231 801h-206v284h206v78q0 183 111.5 268t310.5 85q94 0 160 -15l41 -280q-58 14 -119 14q-84 0 -119.5 -22.5t-35.5 -88.5v-39h407v78q0 183 111.5 268t310.5 85
q94 0 160 -15l41 -280q-58 14 -119 14q-84 0 -120 -22.5t-36 -88.5v-39h785v-1085h-348v801h-437v-801h-348v801h-407v-801h-349v801z" />
    <glyph glyph-name="f_t.liga" unicode="ft" horiz-adv-x="1716" 
d="M231 801h-206v284h206v78q0 183 111.5 268t310.5 85q94 0 160 -15l41 -280q-58 14 -119 14q-84 0 -119.5 -22.5t-35.5 -88.5v-39h426v267l348 61v-328h311v-284h-311v-363q0 -81 25 -114t106 -33q69 0 145 31l-45 -324q-102 -27 -203 -27q-204 0 -290 102t-86 292v436
h-426v-801h-349v801z" />
    <glyph glyph-name="t_f.liga" unicode="tf" horiz-adv-x="1687" 
d="M233 801h-213v284h213v267l349 61v-328h440v78q0 183 111.5 268t310.5 85q94 0 160 -15l41 -280q-58 14 -119 14q-84 0 -120 -22.5t-36 -88.5v-39h301v-284h-301v-801h-348v801h-440v-363q0 -81 25 -114t106 -33q69 0 145 31l-45 -324q-102 -27 -203 -27
q-204 0 -290.5 102t-86.5 292v436z" />
    <glyph glyph-name="t_i.liga" unicode="ti" horiz-adv-x="1513" 
d="M1006 1419q0 90 56.5 144.5t149.5 54.5q94 0 151.5 -55t57.5 -144t-57.5 -143.5t-151.5 -54.5t-150 54.5t-56 143.5zM233 801h-213v284h213v267l345 61v-328h808v-1085h-348v801h-460v-363q0 -81 25 -114t106 -33q69 0 145 31l-45 -324q-102 -27 -203 -27
q-104 0 -177.5 28t-115.5 81.5t-61 123t-19 161.5v436z" />
    <glyph glyph-name="t_t.liga" unicode="tt" horiz-adv-x="1736" 
d="M233 801h-213v284h213v267l349 61v-328h444v267l348 61v-328h312v-284h-312v-363q0 -81 25 -114t106 -33q70 0 146 31l-45 -324q-102 -27 -203 -27q-204 0 -290.5 102t-86.5 292v436h-444v-363q0 -81 25 -114t106 -33q69 0 145 31l-45 -324q-102 -27 -203 -27
q-204 0 -290.5 102t-86.5 292v436z" />
    <glyph glyph-name="t_t_i.liga" unicode="tti" horiz-adv-x="2289" 
d="M1782 1419q0 89 56.5 144t150.5 55t151.5 -55t57.5 -144t-57.5 -143.5t-151.5 -54.5t-150.5 54.5t-56.5 143.5zM233 801h-213v284h213v267l349 61v-328h444v267l348 61v-328h789v-1085h-348v801h-441v-363q0 -81 25 -114t106 -33q70 0 146 31l-45 -324q-102 -27 -203 -27
q-204 0 -290.5 102t-86.5 292v436h-444v-363q0 -81 25 -114t106 -33q69 0 145 31l-45 -324q-102 -27 -203 -27q-204 0 -290.5 102t-86.5 292v436z" />
    <glyph glyph-name=".notdef" horiz-adv-x="2242" 
d="M1946 0h-1721l31 172q75 0 121 27t65 106l156 897q5 40 -3.5 65.5t-31 36.5t-46.5 14.5t-60 2.5l32 172l531 2l-29 -172h-9.5h-14t-16.5 -1t-19.5 -3t-20.5 -6t-20.5 -10t-19 -15.5t-17.5 -21t-13.5 -28t-9.5 -36.5l-149 -811q-18 -96 -37 -148.5t-61 -88.5l28 -37
q40 33 96.5 49t94.5 18t112 2h674q32 0 47.5 0.5t40.5 3.5t38.5 10.5t29 20.5t24.5 34t15 50l33 201h200zM1724 1278q0 59 35.5 94t93.5 35q57 0 91 -34.5t34 -94.5q0 -55 -34.5 -90t-90.5 -35q-57 0 -93 35.5t-36 89.5zM1755 1282q0 -49 26 -77.5t72 -28.5q43 0 69 29
t26 73q0 47 -25.5 74.5t-69.5 27.5q-48 0 -73 -26t-25 -72zM1835 1217h-27v124h56q18 0 32.5 -10t14.5 -31q0 -13 -8 -23.5t-19 -12.5l27 -47h-31l-20 43h-25v-43zM1835 1319v-41h25q9 0 16.5 5.5t7.5 12.5q0 23 -20 23h-29zM1196 336h-393l31 168h227l6 37
q-91 46 -137.5 127.5t-46.5 183.5q0 183 131.5 303.5t343.5 120.5q192 0 310 -100.5t118 -264.5q0 -132 -77.5 -233.5t-203.5 -136.5l-8 -37h209l-23 -168h-397l41 246q120 19 195 99.5t75 190.5q0 106 -66.5 169t-178.5 63q-127 0 -206 -78t-79 -199q0 -91 47 -157t123 -88
z" />
    <glyph glyph-name=".null" 
 />
    <glyph glyph-name="nonmarkingreturn" horiz-adv-x="682" 
 />
    <glyph glyph-name="space" unicode=" " horiz-adv-x="522" 
 />
    <glyph glyph-name="exclam" unicode="!" horiz-adv-x="692" 
d="M414 526h-135l-111 619v289h356v-289zM346 -23q-99 0 -157 50.5t-58 148.5t58 148.5t157 50.5t157 -50.5t58 -148.5t-58 -148.5t-157 -50.5z" />
    <glyph glyph-name="quotedbl" unicode="&#x22;" horiz-adv-x="948" 
d="M90 817v617h293v-617h-293zM565 817v617h293v-617h-293z" />
    <glyph glyph-name="numbersign" unicode="#" horiz-adv-x="1554" 
d="M469 0h-283l35 135q41 157 152 240l-49 61q-39 -43 -104.5 -72.5t-141.5 -29.5h-17v250h273l76 288h-211v250h272l80 312h285l-31 -113q-42 -156 -150 -240l50 -61q40 43 108 72.5t156 29.5h30l78 312h287l-29 -111q-26 -97 -61 -148t-92 -94l49 -61q39 43 104.5 72.5
t141.5 29.5h16v-250h-272l-76 -288h211v-250h-273l-86 -334h-284l35 133q41 159 151 242l-49 61q-39 -43 -104.5 -72.5t-141.5 -29.5h-49zM692 872l-74 -288h242l76 288h-244z" />
    <glyph glyph-name="dollar" unicode="$" horiz-adv-x="1460" 
d="M57 461l349 61q18 -207 227 -252v314q-88 19 -152.5 38t-127 45.5t-104.5 59.5t-74.5 77t-48 101t-15.5 129q0 188 142.5 301t379.5 131q-21 96 -21 205h256q0 -117 -20 -209q224 -28 372 -144t179 -284l-346 -76q-38 155 -205 201v-276l59 -15q180 -43 257 -77
q189 -84 227 -255q10 -47 10 -100q0 -211 -147.5 -331.5t-405.5 -139.5q20 -92 20 -205h-256q0 111 21 207q-265 24 -413 155.5t-163 338.5zM475 1104q0 -130 158 -172v55q0 75 24.5 129t59.5 78l-49 94q-88 -12 -140.5 -60.5t-52.5 -123.5zM743 238l29 -95q123 10 193.5 66
t70.5 139q0 86 -48.5 131.5t-139.5 61.5v-64q0 -98 -23 -152t-82 -87z" />
    <glyph glyph-name="percent" unicode="%" horiz-adv-x="1857" 
d="M1303 -16q-195 0 -316 113t-121 296q0 62 19 146l-76 12q-30 -206 -129 -334l-170 -217h-293v25l219 280q74 94 181 189t202 155l-53 64q-44 -44 -107 -68t-124 -24q-198 0 -308 117t-110 315q0 206 118 320t318 114q195 0 315.5 -113.5t120.5 -296.5q0 -65 -18 -145
l76 -12q30 205 129 333l170 217h292v-24l-219 -281q-74 -94 -181 -189t-202 -155l54 -63q44 44 107 68t124 24q198 0 308 -117t110 -315q0 -206 -118 -320t-318 -114zM553 842q72 0 109.5 47.5t37.5 161.5q0 103 -33.5 158t-113.5 55t-113.5 -55t-33.5 -158
q0 -114 37.5 -161.5t109.5 -47.5zM1303 207q80 0 113.5 55t33.5 158q0 114 -37.5 161.5t-109.5 47.5t-110 -47.5t-38 -161.5q0 -102 34 -157.5t114 -55.5z" />
    <glyph glyph-name="ampersand" unicode="&#x26;" horiz-adv-x="1540" 
d="M102 356q0 64 17 122t44 102.5t68 86t81 71.5t91 61q-149 159 -149 313q0 159 128.5 258.5t334.5 99.5q201 0 321.5 -96t120.5 -250q0 -142 -102.5 -231t-263.5 -100l-9 -82q107 -30 236 -115l51 -35q78 111 121 254l317 -106q-31 -91 -101 -155t-155 -77l-20 -55
q196 -208 221 -422h-364q-14 70 -60 184h-61q-43 -107 -159 -166t-263 -59q-200 0 -322.5 108t-122.5 289zM584 1108q0 -96 121 -180q62 41 95.5 81t33.5 89q0 56 -34.5 87.5t-92.5 31.5q-52 0 -87.5 -31t-35.5 -78zM463 412q0 -64 42 -108t124 -44q126 0 215 109l-244 237
q-72 -55 -104.5 -95t-32.5 -99z" />
    <glyph glyph-name="quotesingle" unicode="'" horiz-adv-x="473" 
d="M90 817v617h293v-617h-293z" />
    <glyph glyph-name="parenleft" unicode="(" horiz-adv-x="837" 
d="M170 604q0 262 107 519t311 489l203 -150q-163 -210 -239.5 -414t-76.5 -444t77.5 -445t238.5 -413l-203 -149q-205 232 -311.5 488.5t-106.5 518.5z" />
    <glyph glyph-name="parenright" unicode=")" horiz-adv-x="837" 
d="M668 604q0 -262 -106.5 -518.5t-311.5 -488.5l-203 149q161 208 238 412.5t77 445.5q0 240 -76 444.5t-239 413.5l203 150q204 -232 311 -489t107 -519z" />
    <glyph glyph-name="asterisk" unicode="*" horiz-adv-x="1044" 
d="M399 1026l-8 21q-72 6 -131.5 17.5t-86 19.5t-75.5 26l84 223q43 -17 67 -28t74 -42.5t107 -78.5l19 12q-33 106 -42.5 169t-9.5 130h250q0 -44 -2 -74.5t-13.5 -89t-33.5 -131.5l16 -14q58 47 106.5 78t75 42.5t66.5 26.5l84 -223q-51 -18 -75.5 -26t-84 -19.5
t-131.5 -17.5l-8 -23q61 -38 108.5 -75.5t70 -60t53.5 -57.5l-199 -153q-31 38 -47.5 60t-44.5 74t-53 118h-25q-25 -66 -52.5 -118t-45 -75.5t-47.5 -60.5l-199 155q35 39 55 59.5t68 59t110 76.5z" />
    <glyph glyph-name="plus" unicode="+" horiz-adv-x="1353" 
d="M809 815h414v-250h-414v-422h-262v422h-416v250h416v420h262v-420z" />
    <glyph glyph-name="comma" unicode="," horiz-adv-x="595" 
d="M442 23l-209 -351l-155 76l137 236q-71 14 -111.5 62.5t-40.5 129.5q0 98 58.5 148.5t157.5 50.5t157 -50.5t58 -148.5q0 -67 -52 -153z" />
    <glyph glyph-name="hyphen" unicode="-" horiz-adv-x="798" 
d="M111 510v297h577v-297h-577z" />
    <glyph glyph-name="period" unicode="." horiz-adv-x="692" 
d="M346 -23q-99 0 -157 50.5t-58 148.5t58 148.5t157 50.5t157 -50.5t58 -148.5t-58 -148.5t-157 -50.5z" />
    <glyph glyph-name="slash" unicode="/" horiz-adv-x="1024" 
d="M2 0l668 1434h352l-668 -1434h-352z" />
    <glyph glyph-name="zero" unicode="0" horiz-adv-x="1388" 
d="M692 -25q-293 0 -456.5 203t-163.5 543q0 354 168.5 551.5t451.5 197.5q296 0 460.5 -202.5t164.5 -546.5q0 -353 -169.5 -549.5t-455.5 -196.5zM692 289q147 0 210 112t63 320q0 436 -273 436q-74 0 -127 -31t-83.5 -90.5t-44 -136.5t-13.5 -178q0 -432 268 -432z" />
    <glyph glyph-name="one" unicode="1" horiz-adv-x="1079" 
d="M811 0h-354v596q0 133 33 231t114 179l-82 79q-180 -180 -416 -198v299q148 25 278 93t194 155h233v-1434z" />
    <glyph glyph-name="two" unicode="2" horiz-adv-x="1263" 
d="M1196 0h-1133v268l586 414q110 78 146 145t36 140q0 101 -53.5 157t-142.5 56q-108 0 -170 -68t-62 -201l-333 33q0 242 149 384t424 142q242 0 390.5 -131.5t148.5 -347.5q0 -113 -32 -197.5t-113.5 -170t-229.5 -183.5q-135 -92 -303 -174l53 -108q75 31 112.5 45
t118 39.5t160 37t164.5 11.5h84v-291z" />
    <glyph glyph-name="three" unicode="3" horiz-adv-x="1341" 
d="M672 -41q-288 0 -440.5 123t-170.5 352l310 78q19 -139 98 -199.5t209 -60.5q119 0 181.5 47t62.5 139q0 170 -240 170h-164v250h141q226 0 226 162q0 80 -53.5 123t-151.5 43q-125 0 -195 -66.5t-82 -181.5l-315 74q11 143 94.5 248t214 157.5t291.5 52.5
q263 0 406 -106.5t143 -278.5q0 -120 -73.5 -195.5t-200.5 -101.5v-100q140 -8 225.5 -91t85.5 -212q0 -195 -160 -310.5t-442 -115.5z" />
    <glyph glyph-name="four" unicode="4" horiz-adv-x="1439" 
d="M1149 0h-352v268h-758v281l713 885h397v-879h233v-287h-233v-268zM821 1153l-473 -612l64 -68q43 39 121.5 60.5t164.5 21.5h99v170q0 118 29 195t94 139z" />
    <glyph glyph-name="five" unicode="5" horiz-adv-x="1380" 
d="M63 420l316 78q18 -123 101 -184.5t214 -61.5q133 0 201 63t68 172q0 111 -67 171.5t-194 60.5q-90 0 -167 -32t-127 -89l-281 80l96 756h953v-287h-658l-2 -21q-7 -61 -43.5 -127.5t-89.5 -113.5l98 -78q53 80 142.5 124t199.5 44q226 0 359 -134.5t133 -355.5
q0 -166 -78 -285t-215.5 -179t-321.5 -60q-269 0 -443 126.5t-194 332.5z" />
    <glyph glyph-name="six" unicode="6" horiz-adv-x="1417" 
d="M729 -39q-321 0 -489 200.5t-168 557.5q0 235 86 405.5t240 258t358 87.5q222 0 379.5 -104t189.5 -272l-354 -76q-26 77 -87.5 119.5t-142.5 42.5q-139 0 -227 -106.5t-92 -328.5l86 -16q38 94 139 149.5t236 55.5q213 0 339 -122t126 -341q0 -232 -165.5 -371
t-453.5 -139zM739 252q117 0 186.5 62t69.5 167q0 102 -64.5 157.5t-185.5 55.5q-94 0 -174.5 -36.5t-128.5 -100.5q3 -146 81.5 -225.5t215.5 -79.5z" />
    <glyph glyph-name="seven" unicode="7" horiz-adv-x="1159" 
d="M266 1145h-229v289h1098v-267l-549 -1167h-408v14l400 811q61 123 125.5 208.5t162.5 172.5l-82 111q-89 -85 -208 -128.5t-310 -43.5z" />
    <glyph glyph-name="eight" unicode="8" horiz-adv-x="1439" 
d="M66 385q0 124 83 207t222 108v95q-250 59 -250 280q0 179 163.5 287t436.5 108q271 0 434.5 -108t163.5 -287q0 -221 -250 -280v-95q139 -25 222 -108t83 -207q0 -207 -174.5 -315.5t-478.5 -108.5q-306 0 -480.5 108.5t-174.5 315.5zM473 1022q0 -76 65.5 -123
t182.5 -47q116 0 181 47t65 123q0 85 -64 127.5t-182 42.5q-119 0 -183.5 -42.5t-64.5 -127.5zM420 449q0 -95 74.5 -148t226.5 -53q151 0 225 53t74 148q0 92 -76.5 145t-222.5 53q-147 0 -224 -53t-77 -145z" />
    <glyph glyph-name="nine" unicode="9" horiz-adv-x="1419" 
d="M688 1470q322 0 490 -200.5t168 -556.5q0 -176 -49.5 -318t-139.5 -237t-216 -146t-279 -51q-224 0 -380.5 105t-189.5 272l354 76q26 -77 88 -119.5t142 -42.5q67 0 122.5 24.5t99.5 74.5t69.5 135.5t27.5 199.5l-86 16q-38 -94 -138 -149t-236 -55q-213 0 -339 122
t-126 341q0 232 165 370.5t453 138.5zM680 1180q-117 0 -187.5 -62.5t-70.5 -167.5q0 -102 64.5 -157.5t185.5 -55.5q96 0 175.5 36.5t127.5 100.5q-3 145 -81 225.5t-214 80.5z" />
    <glyph glyph-name="colon" unicode=":" horiz-adv-x="716" 
d="M358 721q-99 0 -157 50.5t-58 148.5t58 148t157 50t157 -50t58 -148t-58 -148.5t-157 -50.5zM358 -23q-99 0 -157 50.5t-58 148.5t58 148.5t157 50.5t157 -50.5t58 -148.5t-58 -148.5t-157 -50.5z" />
    <glyph glyph-name="semicolon" unicode=";" horiz-adv-x="704" 
d="M346 721q-99 0 -157 50.5t-58 148.5t58 148t157 50t157 -50t58 -148t-58 -148.5t-157 -50.5zM510 23l-209 -351l-156 76l138 236q-71 14 -111.5 62.5t-40.5 129.5q0 98 58 148.5t157 50.5t157 -50.5t58 -148.5q0 -69 -51 -153z" />
    <glyph glyph-name="less" unicode="&#x3c;" horiz-adv-x="1247" 
d="M1047 475v-311l-867 348v365l867 348v-312l-316 -108q-191 -66 -268 -72v-78q80 -7 268 -71z" />
    <glyph glyph-name="equal" unicode="=" horiz-adv-x="1206" 
d="M160 1061h887v-250h-887v250zM160 569h887v-250h-887v250z" />
    <glyph glyph-name="greater" unicode="&#x3e;" horiz-adv-x="1247" 
d="M1067 512l-866 -348v311l315 109q188 64 268 71v78q-77 6 -268 72l-315 108v312l866 -348v-365z" />
    <glyph glyph-name="question" unicode="?" horiz-adv-x="1294" 
d="M819 485h-297v265q169 9 253.5 64t84.5 171q0 94 -57.5 144.5t-151.5 50.5q-95 0 -159.5 -50t-71.5 -143l-322 68q20 192 175 303.5t393 111.5q248 0 397 -122t149 -326q0 -166 -101 -280t-292 -152v-105zM659 -23q-94 0 -150 50.5t-56 148.5t56 148.5t150 50.5
t150.5 -50.5t56.5 -148.5t-56.5 -148.5t-150.5 -50.5z" />
    <glyph glyph-name="at" unicode="@" horiz-adv-x="2093" 
d="M1090 -367q-217 0 -406 66.5t-327 186t-217 296t-79 387.5q0 207 76 386t211 305.5t327 199t417 72.5q274 0 487 -103t333 -295t120 -442q0 -268 -132 -423.5t-339 -155.5q-130 0 -208 60.5t-96 162.5h-71q-38 -86 -122 -134t-192 -48q-165 0 -261.5 111t-96.5 304
q0 219 119.5 356.5t302.5 137.5q104 0 180.5 -46t108.5 -128h73l29 153h277l-88 -528q-5 -33 -6 -56.5t4 -49.5t24.5 -40t52.5 -14q86 0 134.5 94t48.5 240q0 118 -33.5 217.5t-94.5 170.5t-145 120.5t-184.5 73.5t-214.5 24q-225 0 -399 -90.5t-268.5 -253.5t-94.5 -372
q0 -207 94 -366t272 -248t416 -89q134 0 256 34t246 118l113 -209q-120 -88 -289.5 -136.5t-357.5 -48.5zM1024 426q95 0 143 74l21 186q-12 47 -53 76t-97 29q-77 0 -121.5 -54.5t-44.5 -140.5q0 -83 40.5 -126.5t111.5 -43.5z" />
    <glyph glyph-name="A" unicode="A" horiz-adv-x="1492" 
d="M1487 0h-371l-74 213h-591l-74 -213h-373l537 1434h409zM614 686l-57 -164h379l-57 164q-31 92 -45.5 168t-24.5 211h-125q-10 -135 -24.5 -211t-45.5 -168z" />
    <glyph glyph-name="B" unicode="B" horiz-adv-x="1386" 
d="M1006 799v-86q145 -12 227 -100.5t82 -235.5q0 -179 -135 -278t-363 -99h-696v1434h753q188 0 292 -90t104 -242q0 -127 -67 -206t-197 -97zM764 1126h-291v-247h293q81 0 114 30t33 95q0 61 -34 91.5t-115 30.5zM473 307h326q89 0 125.5 35.5t36.5 110.5t-38.5 111
t-125.5 36h-324v-293z" />
    <glyph glyph-name="C" unicode="C" horiz-adv-x="1546" 
d="M70 717q0 153 52.5 290t147 241.5t239 165t316.5 59.5q253 -2 436 -137.5t230 -360.5l-336 -92q-35 131 -122 200.5t-214 69.5q-172 0 -279.5 -120.5t-107.5 -315.5t107.5 -315.5t279.5 -120.5q133 0 222.5 77t121.5 222l340 -84q-44 -247 -229.5 -390t-448.5 -145
q-172 -1 -316.5 59.5t-239 165t-147 241.5t-52.5 290z" />
    <glyph glyph-name="D" unicode="D" horiz-adv-x="1460" 
d="M121 1434h614q299 0 477.5 -188.5t178.5 -528.5q0 -346 -175.5 -531.5t-486.5 -185.5h-608v1434zM479 317h226q74 0 131 19t102.5 63t69.5 124t24 194q0 399 -327 399h-226v-799z" />
    <glyph glyph-name="E" unicode="E" horiz-adv-x="1236" 
d="M479 580v-263h692v-317h-1050v1434h1048v-318h-690v-244h627v-292h-627z" />
    <glyph glyph-name="F" unicode="F" horiz-adv-x="1181" 
d="M121 0v1434h1020v-318h-662v-321h639v-303h-639v-492h-358z" />
    <glyph glyph-name="G" unicode="G" horiz-adv-x="1593" 
d="M70 696q0 177 58.5 325t160 247.5t240.5 153t298 51.5q251 -3 432 -134.5t228 -343.5l-338 -94q-38 121 -122 186.5t-212 65.5q-178 0 -279.5 -122t-101.5 -320q0 -202 108 -323.5t296 -121.5q139 0 231 66t113 170v10h-367v260h664v-772h-299v10q8 41 69 178l-108 54
q-121 -277 -426 -277q-153 0 -277 58t-203.5 158.5t-122 232.5t-42.5 282z" />
    <glyph glyph-name="H" unicode="H" horiz-adv-x="1466" 
d="M121 0v1434h358v-537h506v537h361v-1434h-361v563h-506v-563h-358z" />
    <glyph glyph-name="I" unicode="I" horiz-adv-x="645" 
d="M143 0v1434h359v-1434h-359z" />
    <glyph glyph-name="J" unicode="J" horiz-adv-x="1267" 
d="M45 489v43l346 58v-51q0 -258 201 -258q36 0 65.5 7.5t49 21t35 31.5t23.5 38.5t14 43t7 44.5t2 43t0 38v17v869h361v-910q0 -258 -144.5 -410.5t-408.5 -152.5q-246 0 -398.5 139.5t-152.5 388.5z" />
    <glyph glyph-name="K" unicode="K" horiz-adv-x="1419" 
d="M121 0v1434h358v-191q0 -140 -22.5 -213.5t-98.5 -163.5l82 -78l553 646h428l-528 -611l537 -823h-429l-358 569h-4l-160 -204v-365h-358z" />
    <glyph glyph-name="L" unicode="L" horiz-adv-x="1153" 
d="M121 0v1434h358v-1115h647v-319h-1005z" />
    <glyph glyph-name="M" unicode="M" horiz-adv-x="1853" 
d="M463 0h-342v1434h569l139 -564q8 -31 14 -61.5t10 -52t7.5 -53t5 -44.5t3.5 -47t2 -40t1.5 -44.5t1.5 -40.5h105q0 10 1.5 47t2 50t2.5 46t4.5 54t7 53t11.5 64.5t16 68.5l139 564h570v-1434h-342v317q0 162 25 307t106 437l-154 43l-301 -1104h-281l-301 1104l-153 -43
q81 -292 106 -437t25 -307v-317z" />
    <glyph glyph-name="N" unicode="N" horiz-adv-x="1550" 
d="M121 0v1434h393l553 -881h4v881h359v-1434h-394l-553 862h-4v-862h-358z" />
    <glyph glyph-name="O" unicode="O" horiz-adv-x="1638" 
d="M70 717q0 215 97 388t269 270.5t385 97.5q159 0 298 -57t238.5 -157t156.5 -240.5t57 -301.5t-57 -301.5t-156.5 -240.5t-238.5 -157t-298 -57q-213 0 -385 97.5t-269 270.5t-97 388zM432 717q0 -195 108 -315.5t281 -120.5q181 0 284 122t103 314q0 194 -103.5 315
t-283.5 121q-181 0 -285 -119.5t-104 -316.5z" />
    <glyph glyph-name="P" unicode="P" horiz-adv-x="1368" 
d="M121 1434h704q219 0 356.5 -133t137.5 -361q0 -229 -137 -360t-357 -131h-346v-449h-358v1434zM479 760h314q71 0 118 48.5t47 135.5q0 91 -42.5 134.5t-118.5 43.5h-318v-362z" />
    <glyph glyph-name="Q" unicode="Q" horiz-adv-x="1636" 
d="M70 713q0 220 91.5 391.5t262.5 269t395 99.5q220 2 391.5 -88.5t266 -255.5t94.5 -379q0 -181 -69 -324t-184.5 -224.5t-260.5 -99.5v-110q392 0 553 -131l-264 -248q-147 64 -263 157t-188 193q-1 0 -9 -0.5t-19 -1t-17 -0.5q-350 0 -565 207t-215 545zM432 719
q0 -197 107 -317.5t284 -120.5q176 0 279.5 119.5t103.5 316.5q0 195 -103 315.5t-284 120.5q-182 0 -284.5 -120.5t-102.5 -313.5z" />
    <glyph glyph-name="R" unicode="R" horiz-adv-x="1366" 
d="M1200 287l57 -140q15 -34 24 -51t24 -35.5t34 -29.5v-31h-401q-32 27 -43 70l-88 219q-44 112 -86.5 149t-136.5 37h-105v-475h-358v1434h760q205 0 319.5 -104.5t114.5 -285.5q0 -196 -110.5 -295.5t-325.5 -113.5v-103q47 -6 76.5 -11t62 -16t54 -27t45 -42t43 -62
t40.5 -87zM479 786h316q74 0 117.5 44.5t43.5 125.5q0 166 -161 166h-316v-336z" />
    <glyph glyph-name="S" unicode="S" horiz-adv-x="1331" 
d="M57 440l320 62q9 -116 94 -180t221 -64q100 0 158.5 40t58.5 112q0 69 -62 105.5t-231 62.5q-279 42 -397.5 148.5t-118.5 293.5q0 213 154 331.5t412 118.5q256 0 422.5 -117t183.5 -309l-332 -75q-40 213 -278 213q-99 0 -151 -35t-52 -96q0 -22 4.5 -39t18 -31.5
t27 -25t42 -21t52 -17.5t68 -15.5t79.5 -14t96 -15.5q225 -37 324.5 -146t99.5 -292q0 -148 -77 -256t-211 -162.5t-310 -54.5q-279 0 -440 129.5t-175 349.5z" />
    <glyph glyph-name="T" unicode="T" horiz-adv-x="1292" 
d="M23 1434h1249v-318h-447v-1116h-358v1116h-444v318z" />
    <glyph glyph-name="U" unicode="U" horiz-adv-x="1456" 
d="M117 553v881h358v-854q0 -152 63.5 -225.5t190.5 -73.5q252 0 252 299v854h358v-881q0 -283 -160 -437.5t-450 -154.5t-451 154.5t-161 437.5z" />
    <glyph glyph-name="V" unicode="V" horiz-adv-x="1515" 
d="M2 1434h385l229 -686q65 -195 80 -379h123q15 179 80 379l227 686h387l-542 -1434h-424z" />
    <glyph glyph-name="W" unicode="W" horiz-adv-x="2011" 
d="M338 0l-330 1434h371l98 -506q21 -111 23 -268t-4 -230h133q16 255 82 481l153 523h281l160 -535q62 -208 79 -469h134q-6 78 -6 230t20 255l100 519h371l-328 -1434h-397l-145 500q-41 143 -62.5 285.5t-19.5 248.5h-93q3 -218 -86 -536l-143 -498h-391z" />
    <glyph glyph-name="X" unicode="X" horiz-adv-x="1511" 
d="M446 0h-440l486 727l-472 707h443l94 -179q116 -217 137 -352h123q21 136 137 352l95 179h438l-467 -707l483 -727h-438l-125 219q-100 179 -123 332h-123q-23 -154 -123 -332z" />
    <glyph glyph-name="Y" unicode="Y" horiz-adv-x="1427" 
d="M535 539l-543 895h416l86 -179q3 -7 27.5 -57.5t34 -72t30 -71t30.5 -83t20 -78.5t13 -84h135q4 58 16.5 113.5t39.5 122.5t42 99.5t54 112.5l84 177h416l-541 -895v-539h-360v539z" />
    <glyph glyph-name="Z" unicode="Z" horiz-adv-x="1343" 
d="M1272 0h-1196v281l743 903l-86 90q-72 -82 -144.5 -120t-191.5 -38h-299v318h1143v-281l-747 -903l86 -90q33 38 59.5 61.5t68 48t97.5 36t129 11.5h338v-317z" />
    <glyph glyph-name="bracketleft" unicode="[" horiz-adv-x="794" 
d="M713 -373h-576v1868h576v-270h-297v-1325h297v-273z" />
    <glyph glyph-name="backslash" unicode="\" horiz-adv-x="1034" 
d="M6 1434h352l668 -1434h-352z" />
    <glyph glyph-name="bracketright" unicode="]" horiz-adv-x="794" 
d="M657 1495v-1868h-575v273h297v1325h-297v270h575z" />
    <glyph glyph-name="asciicircum" unicode="^" horiz-adv-x="966" 
d="M362 946h-301l205 549h434l205 -549h-301l-59 184q-15 46 -35 138h-53q-11 -65 -35 -138z" />
    <glyph glyph-name="underscore" unicode="_" horiz-adv-x="1095" 
d="M111 -297v297h874v-297h-874z" />
    <glyph glyph-name="grave" unicode="`" horiz-adv-x="579" 
d="M266 1260l-205 325h375l82 -325h-252z" />
    <glyph glyph-name="a" unicode="a" horiz-adv-x="1247" 
d="M1141 223q29 0 59 19v-232q-76 -43 -182 -43q-101 0 -165.5 52.5t-68.5 160.5h-92q-13 -97 -103 -158t-214 -61q-141 0 -231.5 81.5t-90.5 213.5q0 139 89.5 229t283.5 133l319 72v10q0 82 -41 123t-131 41q-186 0 -198 -184l-320 57q23 183 170 285t375 102
q230 0 362 -107.5t132 -318.5v-372q0 -25 1 -38t5 -31t14 -26t27 -8zM516 221q71 0 139 43t90 103v125l-198 -43q-84 -19 -119 -50.5t-35 -74.5q0 -53 34 -78t89 -25z" />
    <glyph glyph-name="b" unicode="b" horiz-adv-x="1339" 
d="M772 -37q-233 0 -338 225l-104 -55q43 -77 59 -127v-6h-287v1495h349v-170q0 -113 -23.5 -188.5t-81.5 -147.5l105 -71q49 98 142.5 151t215.5 53q210 0 343.5 -160.5t133.5 -420.5q0 -262 -142 -420t-372 -158zM686 252q115 0 180.5 77t65.5 214q0 142 -68.5 216.5
t-179.5 74.5q-85 0 -148 -41t-85 -107v-287q22 -66 86 -106.5t149 -40.5z" />
    <glyph glyph-name="c" unicode="c" horiz-adv-x="1216" 
d="M53 535q0 267 164 428t434 161q210 0 349 -98.5t186 -269.5l-326 -101q-21 90 -81.5 135.5t-147.5 45.5q-107 0 -167.5 -79.5t-60.5 -213.5q0 -139 64 -216t170 -77q88 0 145 48t78 132l326 -100q-44 -166 -198 -267.5t-363 -101.5q-260 0 -416 156.5t-156 417.5z" />
    <glyph glyph-name="d" unicode="d" horiz-adv-x="1339" 
d="M532 -37q-141 0 -250.5 74.5t-169 206.5t-59.5 299q0 258 136.5 418.5t351.5 160.5q119 0 208 -52.5t140 -151.5l104 71q-58 71 -81 146.5t-23 189.5v170h348v-1495h-287v6q15 46 60 127l-105 55q-52 -111 -151.5 -168t-221.5 -57zM653 252q85 0 149.5 40.5t86.5 106.5
v287q-22 66 -85.5 107t-148.5 41q-111 0 -179 -74.5t-68 -216.5q0 -137 65 -214t180 -77z" />
    <glyph glyph-name="e" unicode="e" horiz-adv-x="1249" 
d="M53 541q0 261 162 422t428 161q257 0 412 -154t155 -429v-105h-809q10 -92 79 -144t177 -52q96 0 175 41t124 110l193 -225q-72 -96 -210 -150.5t-292 -54.5q-172 0 -306 69.5t-211 202t-77 308.5zM403 670h467q-9 86 -70.5 136t-162.5 50q-96 0 -160 -49t-74 -137z" />
    <glyph glyph-name="f" unicode="f" horiz-adv-x="897" 
d="M231 801h-206v284h206v78q0 183 111.5 268t310.5 85q94 0 160 -15l41 -280q-58 14 -119 14q-84 0 -119.5 -22.5t-35.5 -88.5v-39h301v-284h-301v-801h-349v801z" />
    <glyph glyph-name="g" unicode="g" horiz-adv-x="1069" 
d="M477 -539q-477 0 -477 244q0 77 52.5 123.5t140.5 52.5v66q-50 24 -75.5 66t-25.5 93q0 79 49 133.5t131 69.5v66q-116 33 -180.5 118.5t-64.5 198.5q0 184 127.5 288.5t343.5 104.5h532l43 -245h-37q-32 0 -81 15.5t-95 47.5l-57 -92q80 -30 120 -88.5t40 -136.5
q0 -142 -115 -224.5t-307 -82.5h-84q-76 0 -76 -56q0 -29 24 -41.5t72 -15.5l240 -12q338 -19 338 -320q0 -186 -152.5 -279.5t-425.5 -93.5zM494 520q79 0 118 43.5t39 120.5q0 79 -42 119.5t-115 40.5q-79 0 -117.5 -42.5t-38.5 -117.5q0 -81 41.5 -122.5t114.5 -41.5z
M485 -319q122 0 172 24t50 70q0 67 -91 71l-311 19q-9 -4 -15.5 -29.5t-6.5 -52.5q0 -59 51 -80.5t151 -21.5z" />
    <glyph glyph-name="h" unicode="h" horiz-adv-x="1333" 
d="M451 0h-349v1495h349v-248q0 -76 -13.5 -132.5t-43.5 -118t-32 -66.5l105 -43q56 115 153.5 176t219.5 61q184 0 292.5 -122.5t108.5 -360.5v-641h-348v561q0 254 -193 254q-74 0 -139.5 -34.5t-109.5 -92.5v-688z" />
    <glyph glyph-name="i" unicode="i" horiz-adv-x="600" 
d="M299 1221q-94 0 -150.5 54.5t-56.5 143.5t56.5 144t150.5 55t151.5 -55t57.5 -144t-57.5 -143.5t-151.5 -54.5zM125 0v1085h348v-1085h-348z" />
    <glyph glyph-name="j" unicode="j" horiz-adv-x="585" 
d="M287 1221q-94 0 -150.5 54.5t-56.5 143.5t56.5 144t150.5 55t150.5 -55t56.5 -144t-56.5 -143.5t-150.5 -54.5zM461 1085v-1101q0 -236 -112 -360t-339 -124q-65 0 -102 13l-45 284q30 -6 67 -6q106 0 143.5 52.5t37.5 168.5v1073h350z" />
    <glyph glyph-name="k" unicode="k" horiz-adv-x="1302" 
d="M102 0v1495h349v-438q0 -58 -2 -88t-11.5 -78.5t-33.5 -95t-64 -101.5l92 -65q62 95 166 207l233 249h476l-463 -440l467 -645h-422l-295 436h-4l-139 -131v-305h-349z" />
    <glyph glyph-name="l" unicode="l" horiz-adv-x="559" 
d="M106 0v1495h349v-1495h-349z" />
    <glyph glyph-name="m" unicode="m" horiz-adv-x="1943" 
d="M451 0h-349v1085h310v-6q-14 -58 -47 -145l102 -39q104 229 321 229q124 0 203 -59t109 -162h71q44 109 129.5 165t192.5 56q172 0 265 -115.5t93 -330.5v-678h-348v623q0 194 -153 194q-63 0 -116 -29t-83 -77v-711h-348v623q0 194 -154 194q-63 0 -115.5 -29t-82.5 -77
v-711z" />
    <glyph glyph-name="n" unicode="n" horiz-adv-x="1333" 
d="M102 0v1085h310v-6q-13 -52 -50 -149l105 -43q56 115 153.5 176t219.5 61q184 0 292.5 -122.5t108.5 -360.5v-641h-348v561q0 254 -193 254q-74 0 -139.5 -34.5t-109.5 -92.5v-688h-349z" />
    <glyph glyph-name="o" unicode="o" horiz-adv-x="1282" 
d="M53 543q0 261 162.5 421t425.5 160t425.5 -160t162.5 -421t-162.5 -421.5t-425.5 -160.5t-425.5 160.5t-162.5 421.5zM879 543q0 135 -61.5 214t-176.5 79t-176.5 -79t-61.5 -214t61.5 -214t176.5 -79t176.5 79t61.5 214z" />
    <glyph glyph-name="p" unicode="p" horiz-adv-x="1339" 
d="M451 -461h-349v1546h287v-6q-16 -50 -59 -127l104 -55q52 111 151.5 168t221.5 57q141 0 250.5 -74.5t169 -206t59.5 -298.5q0 -258 -136 -419t-351 -161q-119 0 -208 53t-140 152l-105 -72q58 -72 81.5 -147.5t23.5 -188.5v-221zM684 252q111 0 179.5 74.5t68.5 216.5
q0 137 -65.5 214t-180.5 77q-84 0 -148.5 -41t-86.5 -107v-287q22 -66 85 -106.5t148 -40.5z" />
    <glyph glyph-name="q" unicode="q" horiz-adv-x="1339" 
d="M1237 -461h-348v221q0 114 23 189.5t81 146.5l-104 72q-49 -97 -140 -151t-198 -54q-224 0 -361 160.5t-137 421.5q0 262 142 419.5t372 157.5q233 0 338 -225l105 55q-45 81 -60 127v6h287v-1546zM655 252q85 0 148.5 40.5t85.5 106.5v287q-22 66 -87 107t-149 41
q-115 0 -180 -77t-65 -214q0 -142 68 -216.5t179 -74.5z" />
    <glyph glyph-name="r" unicode="r" horiz-adv-x="804" 
d="M451 0h-349v1085h306v-8q-8 -35 -54 -147l111 -35q72 213 215 213q67 0 96 -16l25 -310q-51 21 -148 21q-60 0 -119 -33.5t-83 -99.5v-670z" />
    <glyph glyph-name="s" unicode="s" horiz-adv-x="1150" 
d="M43 291l287 102q25 -84 93.5 -128t174.5 -44q74 0 113 22.5t39 65.5q0 18 -6.5 32t-21.5 24t-30 17t-42.5 13t-49 10t-58 10t-61.5 11q-65 12 -116.5 27.5t-107 43t-92.5 63t-61 89.5t-24 121q0 167 136.5 260.5t363.5 93.5q213 0 351.5 -83t172.5 -226l-273 -90
q-62 141 -268 141q-139 0 -139 -75q0 -17 7 -30.5t23.5 -23.5t34 -17t48 -13.5t55 -11t65 -11t68.5 -12.5q89 -17 151 -38.5t116.5 -58.5t82 -95.5t27.5 -139.5q0 -183 -136.5 -281t-392.5 -98q-461 0 -530 330z" />
    <glyph glyph-name="t" unicode="t" horiz-adv-x="944" 
d="M610 -20q-204 0 -290.5 101.5t-86.5 291.5v428h-213v284h213v267l349 61v-328h311v-284h-311v-355q0 -81 25 -114t106 -33q69 0 145 31l-45 -324q-98 -26 -203 -26z" />
    <glyph glyph-name="u" unicode="u" horiz-adv-x="1333" 
d="M1231 1085v-1085h-330v6q11 47 51 150l-106 34q-46 -110 -146 -169.5t-223 -59.5q-175 0 -280 115.5t-105 331.5v677h348v-614q0 -95 53 -148t150 -53q74 0 137.5 31t102.5 88v696h348z" />
    <glyph glyph-name="v" unicode="v" horiz-adv-x="1271" 
d="M467 0l-479 1085h393l125 -346q60 -174 63 -397h129q10 248 66 397l125 346h391l-479 -1085h-334z" />
    <glyph glyph-name="w" unicode="w" horiz-adv-x="1753" 
d="M266 0l-274 1085h352l47 -245q34 -184 31 -494h110q10 120 36.5 225.5t99.5 333.5l57 180h303l57 -180q74 -227 101 -332.5t35 -226.5h110q0 339 31 494l47 245h352l-272 -1085h-393l-41 133q-68 218 -90.5 350t-28.5 316h-119q-6 -183 -29.5 -321t-87.5 -345l-41 -133
h-393z" />
    <glyph glyph-name="x" unicode="x" horiz-adv-x="1286" 
d="M2 0l385 551l-375 534h428l60 -102q37 -63 57.5 -123t28.5 -158h121q17 178 79 283l60 100h430l-377 -534l385 -551h-428l-59 102q-77 139 -90 318h-121q-20 -196 -92 -318l-60 -102h-432z" />
    <glyph glyph-name="y" unicode="y" horiz-adv-x="1280" 
d="M244 -500q-112 0 -191 39v307q63 -24 146 -24q162 0 215 141l35 88l-461 1034h391l131 -360q62 -181 70 -342h120q8 169 72 342l129 360h387l-547 -1226q-15 -34 -28 -60.5t-37.5 -65.5t-51 -69t-66 -62t-84 -53.5t-104 -35t-126.5 -13.5z" />
    <glyph glyph-name="z" unicode="z" horiz-adv-x="1089" 
d="M1042 0h-985v276l584 562l-82 90q-71 -73 -125 -100t-153 -27h-209v284h952v-276l-584 -561l80 -90q71 72 128.5 99.5t154.5 27.5h239v-285z" />
    <glyph glyph-name="braceleft" unicode="{" horiz-adv-x="968" 
d="M283 -47v319q0 69 -23.5 95t-89.5 26h-57v379h57q66 0 89.5 26t23.5 95v276q0 179 79.5 252.5t274.5 73.5h219v-281h-182q-65 0 -89 -28.5t-24 -102.5v-241q0 -86 -53.5 -146.5t-134.5 -60.5v-107q81 0 134.5 -60t53.5 -146v-281q0 -74 24 -102.5t89 -28.5h182v-283h-219
q-195 0 -274.5 73.5t-79.5 252.5z" />
    <glyph glyph-name="bar" unicode="|" horiz-adv-x="755" 
d="M225 -205v1639h303v-1639h-303z" />
    <glyph glyph-name="braceright" unicode="}" horiz-adv-x="968" 
d="M686 272v-319q0 -179 -79.5 -252.5t-274.5 -73.5h-219v283h182q65 0 89 28.5t24 102.5v281q0 86 53.5 146t134.5 60v107q-81 0 -134.5 60.5t-53.5 146.5v241q0 74 -24 102.5t-89 28.5h-182v281h219q195 0 274.5 -73.5t79.5 -252.5v-276q0 -69 23.5 -95t89.5 -26h57v-379
h-57q-66 0 -89.5 -26t-23.5 -95z" />
    <glyph glyph-name="asciitilde" unicode="~" horiz-adv-x="1116" 
d="M324 440h-209q-27 264 35 378t202 114q44 0 85.5 -14t81 -42t63 -48.5t59.5 -55.5q32 -29 45 -40.5t32 -23.5t32 -12q35 0 45 53t0 183h209q27 -263 -35.5 -377.5t-202.5 -114.5q-44 0 -85.5 14t-81 42t-63 48.5t-59.5 55.5q-66 61 -87 71q-12 5 -21 5q-35 0 -45 -53
t0 -183z" />
    <glyph glyph-name="exclamdown" unicode="&#xa1;" horiz-adv-x="692" 
d="M346 1124q99 0 157 -50t58 -148t-58 -148.5t-157 -50.5t-157 50.5t-58 148.5t58 148t157 50zM168 -43l111 618h135l110 -618v-289h-356v289z" />
    <glyph glyph-name="cent" unicode="&#xa2;" horiz-adv-x="1288" 
d="M53 717q0 219 141.5 377t362.5 194v219h215v-217q178 -23 309 -126.5t172 -254.5l-329 -100q-35 123 -152 164v-244q0 -107 -22.5 -167t-73.5 -101l69 -88q68 31 117.5 100t61.5 152l329 -101q-41 -151 -172 -254.5t-309 -126.5v-239h-215v241q-220 36 -362 194.5
t-142 377.5zM408 737q0 -107 42 -179.5t107 -108.5v258q0 204 102 276l-75 84q-85 -47 -130.5 -132.5t-45.5 -197.5z" />
    <glyph glyph-name="sterling" unicode="&#xa3;" horiz-adv-x="1370" 
d="M442 305l45 -90q94 50 211.5 75t307.5 25h292v-315h-1218v285h141q119 105 119 225q0 17 -4 41h-256v285h6q36 0 87 -28.5t99 -74.5l58 58q-121 109 -121 268q0 182 148.5 296.5t392.5 114.5q235 0 387.5 -109.5t165.5 -289.5l-322 -102q-3 87 -63.5 135.5t-157.5 48.5
q-103 0 -160 -47.5t-57 -128.5q0 -90 67 -141h504v-285h-446v-14q0 -67 -61 -128.5t-165 -103.5z" />
    <glyph glyph-name="currency" unicode="&#xa4;" horiz-adv-x="1359" 
d="M1085 508l132 -98l86 -88l-197 -197l-88 86l-113 149q-98 -43 -225 -43t-225 43l-113 -149l-88 -86l-197 197l86 88l131 98q-67 106 -67 240q0 133 67 239l-131 98l-86 89l197 196l88 -86l113 -149q98 43 225 43t225 -43l113 149l88 86l197 -196l-86 -89l-132 -98
q68 -108 68 -239q0 -132 -68 -240zM502 748q0 -76 49.5 -125.5t128.5 -49.5t128.5 49.5t49.5 125.5t-49.5 125t-128.5 49t-128.5 -48.5t-49.5 -125.5z" />
    <glyph glyph-name="yen" unicode="&#xa5;" horiz-adv-x="1558" 
d="M434 788l-442 646h422l116 -181q68 -103 118 -241t65 -264h139q17 132 67 273t115 241l111 172h422l-443 -646h166v-229h-327v-96h327v-230h-327v-233h-365v233h-360v230h360v96h-360v229h196z" />
    <glyph glyph-name="brokenbar" unicode="&#xa6;" horiz-adv-x="755" 
d="M225 758v676h303v-676h-303zM225 -205v676h303v-676h-303z" />
    <glyph glyph-name="section" unicode="&#xa7;" horiz-adv-x="1325" 
d="M57 186l314 93q25 -87 108 -131t236 -44q63 0 103.5 6t59 18.5t25 25.5t6.5 32q0 26 -21.5 44.5t-46 26.5t-63.5 17l-336 76q-45 10 -70 16.5t-64.5 19t-62 24.5t-50.5 31.5t-42.5 42t-25 54.5t-10.5 70q0 85 56 144.5t151 76.5v68q-99 29 -153 94.5t-54 151.5
q0 155 146 241t390 86q253 0 418.5 -88.5t194.5 -236.5l-279 -90q-32 83 -121.5 122.5t-216.5 39.5q-184 0 -184 -74q0 -34 37.5 -53.5t152.5 -40.5l318 -60q160 -29 226.5 -89.5t66.5 -154.5q0 -177 -207 -225v-74q98 -21 152.5 -88t54.5 -161q0 -166 -153.5 -259.5
t-410.5 -93.5q-279 0 -443 91t-202 251zM465 694q0 -72 98 -90l268 -53q35 5 56.5 27.5t21.5 56.5q0 43 -24.5 63.5t-89.5 32.5l-248 49q-37 -3 -59.5 -27t-22.5 -59z" />
    <glyph glyph-name="dieresis" unicode="&#xa8;" horiz-adv-x="1050" 
d="M268 1221q-99 0 -157 50t-58 148t58 148.5t157 50.5t157 -50.5t58 -148.5t-58 -148t-157 -50zM782 1221q-99 0 -157 50t-58 148t58 148.5t157 50.5t157 -50.5t58 -148.5t-58 -148t-157 -50z" />
    <glyph glyph-name="copyright" unicode="&#xa9;" horiz-adv-x="1648" 
d="M16 758q0 177 65.5 325t177 245.5t257 151.5t307.5 54t308 -53.5t257.5 -151t177.5 -245.5t66 -326q0 -174 -63 -322.5t-172 -250t-258 -159t-318 -57.5q-166 0 -313.5 57.5t-256.5 159t-172 250t-63 322.5zM221 760q0 -270 166 -436t436 -166q271 0 437.5 164.5
t166.5 433.5q0 265 -166 427.5t-436 162.5q-272 0 -438 -161t-166 -425zM391 752q0 125 58.5 221t155.5 145t214 49q152 0 266.5 -75.5t143.5 -194.5l-264 -90q-15 54 -53 84.5t-93 30.5q-65 0 -106 -46.5t-41 -121.5q0 -77 42 -124.5t109 -47.5q100 0 138 108l264 -86
q-32 -119 -144.5 -192.5t-261.5 -73.5q-180 0 -304 113.5t-124 300.5z" />
    <glyph glyph-name="ordfeminine" unicode="&#xaa;" horiz-adv-x="878" 
d="M805 844q21 0 41 12v-170q-57 -33 -133 -33q-70 0 -117.5 37.5t-50.5 112.5h-70q-7 -67 -68.5 -110.5t-148.5 -43.5q-98 0 -161.5 57t-63.5 150q0 101 64 162t198 92l219 51v6q0 48 -24 77.5t-87 29.5q-122 0 -131 -125l-237 43q17 130 121.5 202t265.5 72q162 0 256 -76
t94 -225v-254q0 -21 1 -32.5t9 -23t23 -11.5zM365 842q46 0 90.5 28.5t58.5 65.5v80l-129 -29q-100 -22 -100 -80q0 -33 22.5 -49t57.5 -16z" />
    <glyph glyph-name="guillemotleft" unicode="&#xab;" horiz-adv-x="1200" 
d="M375 580l260 -482h-338l-262 482l262 481h338zM883 580l260 -482h-338l-262 482l262 481h338z" />
    <glyph glyph-name="logicalnot" unicode="&#xac;" horiz-adv-x="1173" 
d="M809 565h-707v250h969v-672h-262v422z" />
    <glyph glyph-name="registered" unicode="&#xae;" horiz-adv-x="1153" 
d="M575 494q-149 0 -271.5 65.5t-194.5 186.5t-72 274q0 116 44 213.5t118 162.5t172.5 101.5t206.5 36.5t205 -35.5t171.5 -100t118 -163t43.5 -215.5q0 -231 -156 -378.5t-385 -147.5zM575 633q172 0 281 107t109 280q0 167 -108 270t-279 103q-172 0 -280 -103t-108 -270
q0 -172 107.5 -279.5t277.5 -107.5zM526 778h-157v492h258q91 0 137.5 -38t46.5 -104q0 -58 -35.5 -92.5t-105.5 -40.5v-39q88 0 112 -77l11 -31q6 -18 17 -32t21 -17v-21h-167q-22 15 -35 51l-23 62q-14 40 -25 51.5t-30 11.5h-25v-176zM526 1139v-84h66q55 0 55 41
q0 43 -55 43h-66z" />
    <glyph glyph-name="macron" unicode="&#xaf;" horiz-adv-x="1026" 
d="M147 1270v239h732v-239h-732z" />
    <glyph glyph-name="degree" unicode="&#xb0;" horiz-adv-x="991" 
d="M496 702q-178 0 -293 106.5t-115 276.5q0 171 115 278t293 107t292.5 -107t114.5 -278t-114.5 -277t-292.5 -106zM496 928q70 0 115.5 45t45.5 114q0 70 -45 115t-116 45t-116.5 -45t-45.5 -115q0 -69 46 -114t116 -45z" />
    <glyph glyph-name="plusminus" unicode="&#xb1;" horiz-adv-x="1251" 
d="M758 1174v-256h362v-250h-362v-258h-262v258h-365v250h365v256h262zM1120 0h-989v238h989v-238z" />
    <glyph glyph-name="uni00B2" unicode="&#xb2;" horiz-adv-x="874" 
d="M807 614h-744v183l383 268q113 79 113 176q0 62 -33 96.5t-88 34.5q-66 0 -103.5 -41.5t-37.5 -126.5l-227 23q0 158 97 251t277 93q157 0 255 -86.5t98 -227.5q0 -108 -51 -187t-193 -171q-70 -47 -188 -104l34 -74q51 22 76.5 31.5t79.5 27t108 25.5t111 8h33v-199z
" />
    <glyph glyph-name="uni00B3" unicode="&#xb3;" horiz-adv-x="921" 
d="M461 588q-189 0 -289 80t-111 229l211 53q21 -164 193 -164q149 0 149 115q0 105 -151 105h-103v170h89q141 0 141 100q0 48 -32 74t-93 26q-77 0 -120.5 -41.5t-51.5 -113.5l-215 49q10 140 121 220.5t272 80.5q172 0 265 -69.5t93 -180.5q0 -80 -48 -129t-132 -64v-67
q92 -4 148.5 -59t56.5 -138q0 -127 -105 -201.5t-288 -74.5z" />
    <glyph glyph-name="acute" unicode="&#xb4;" horiz-adv-x="581" 
d="M145 1585h375l-205 -325h-252z" />
    <glyph glyph-name="paragraph" unicode="&#xb6;" horiz-adv-x="1900" 
d="M227 1112q0 152 97.5 237t261.5 85h1194v-297h-193v-1395h-344v1395h-233v-1395h-344v1049h-80q-169 0 -264 87t-95 234z" />
    <glyph glyph-name="periodcentered" unicode="&#xb7;" horiz-adv-x="641" 
d="M131 530q0 85 53.5 137t137.5 52q85 0 136.5 -51.5t51.5 -137.5q0 -87 -51.5 -137.5t-136.5 -50.5q-86 0 -138.5 50.5t-52.5 137.5z" />
    <glyph glyph-name="cedilla" unicode="&#xb8;" horiz-adv-x="718" 
d="M367 -98l20 -25q24 12 59 12q82 0 132.5 -49t50.5 -127q0 -107 -86.5 -171t-218.5 -64q-147 0 -234 67l49 160q83 -57 183 -57q47 0 74.5 20t27.5 56q0 28 -18.5 44.5t-47.5 16.5q-21 0 -53 -12l-108 51l51 190h178v-14q0 -58 -59 -98z" />
    <glyph glyph-name="uni00B9" unicode="&#xb9;" horiz-adv-x="843" 
d="M575 614h-241v367q0 88 22 153.5t78 118.5l-55 56q-120 -115 -273 -129v204q101 17 186 62t124 100h159v-932z" />
    <glyph glyph-name="ordmasculine" unicode="&#xba;" horiz-adv-x="897" 
d="M35 1057q0 183 114 296t300 113t299.5 -113t113.5 -296t-114 -295.5t-299 -112.5t-299.5 112.5t-114.5 295.5zM602 1057q0 90 -39 142t-114 52t-114.5 -52.5t-39.5 -141.5t39.5 -141t114.5 -52t114 52t39 141z" />
    <glyph glyph-name="guillemotright" unicode="&#xbb;" horiz-adv-x="1200" 
d="M395 98h-338l260 482l-260 481h338l262 -481zM903 98h-338l260 482l-260 481h338l262 -481z" />
    <glyph glyph-name="onequarter" unicode="&#xbc;" horiz-adv-x="1574" 
d="M430 645h-217v285q0 154 90 241l-49 50q-105 -102 -231 -109v182q84 14 157.5 52t108.5 88h141v-789zM92 0l1077 1434h232l-1077 -1434h-232zM1413 0h-217v139h-401v172l374 477h244v-475h127v-174h-127v-139zM1212 618l-233 -313l39 -41q23 23 69.5 36t92.5 13h16v60
q0 121 76 188z" />
    <glyph glyph-name="onehalf" unicode="&#xbd;" horiz-adv-x="1630" 
d="M430 645h-217v285q0 154 90 241l-49 50q-105 -102 -231 -109v182q84 14 157.5 52t108.5 88h141v-789zM92 0l1077 1434h232l-1077 -1434h-232zM1583 0h-635v162l326 225q57 39 77.5 74t20.5 78q0 41 -28 67.5t-74 26.5q-51 0 -81 -34.5t-30 -102.5l-205 20
q0 132 88.5 212.5t233.5 80.5q135 0 218 -73t83 -193q0 -95 -50 -165t-149 -130q-63 -39 -159 -86l32 -66q196 82 316 82h16v-178z" />
    <glyph glyph-name="threequarters" unicode="&#xbe;" horiz-adv-x="1746" 
d="M371 621q-163 0 -247 69t-93 193l188 49q20 -131 156 -131q117 0 117 88q0 84 -123 84h-84v151h71q115 0 115 78q0 37 -24.5 57.5t-71.5 20.5q-122 0 -139 -127l-193 45q10 121 105.5 188.5t232.5 67.5q146 0 225.5 -58.5t79.5 -152.5q0 -66 -42 -108t-114 -54v-59
q83 -4 131 -50.5t48 -115.5q0 -108 -90.5 -171.5t-247.5 -63.5zM264 0l1077 1434h232l-1077 -1434h-232zM1585 0h-217v139h-401v172l374 477h244v-475h127v-174h-127v-139zM1384 618l-233 -313l39 -41q23 23 69.5 36t92.5 13h16v60q0 121 76 188z" />
    <glyph glyph-name="questiondown" unicode="&#xbf;" horiz-adv-x="1292" 
d="M637 1124q95 0 151 -50t56 -148t-56.5 -148.5t-150.5 -50.5t-150.5 50.5t-56.5 148.5t56 148t151 50zM477 616h297v-264q-169 -9 -253.5 -63.5t-84.5 -171.5q0 -94 57.5 -144.5t151.5 -50.5t159.5 50t72.5 143l321 -68q-20 -192 -175.5 -304t-393.5 -112
q-248 0 -396.5 122.5t-148.5 326.5q0 165 100.5 280t292.5 152v104z" />
    <glyph glyph-name="Agrave" unicode="&#xc0;" horiz-adv-x="1492" 
d="M788 1892l82 -325h-252l-204 325h374zM1487 0h-371l-74 213h-591l-74 -213h-373l537 1434h409zM614 686l-57 -164h379l-57 164q-31 92 -45.5 168t-24.5 211h-125q-10 -135 -24.5 -211t-45.5 -168z" />
    <glyph glyph-name="Aacute" unicode="&#xc1;" horiz-adv-x="1492" 
d="M700 1892h375l-205 -325h-252zM1487 0h-371l-74 213h-591l-74 -213h-373l537 1434h409zM614 686l-57 -164h379l-57 164q-31 92 -45.5 168t-24.5 211h-125q-10 -135 -24.5 -211t-45.5 -168z" />
    <glyph glyph-name="Acircumflex" unicode="&#xc2;" horiz-adv-x="1492" 
d="M670 1628l-29 -61h-299l219 325h367l219 -325h-299l-29 61q-29 63 -37 113h-75q-8 -50 -37 -113zM1487 0h-371l-74 213h-591l-74 -213h-373l537 1434h409zM614 686l-57 -164h379l-57 164q-31 92 -45.5 168t-24.5 211h-125q-10 -135 -24.5 -211t-45.5 -168z" />
    <glyph glyph-name="Atilde" unicode="&#xc3;" horiz-adv-x="1492" 
d="M586 1526h-187q-21 192 30.5 290.5t158.5 98.5q61 0 110.5 -27.5t108.5 -79.5q42 -39 67 -39q24 0 31.5 34.5t-0.5 111.5h187q21 -192 -30.5 -290.5t-158.5 -98.5q-60 0 -112 28.5t-107 77.5q-42 39 -68 39q-24 0 -31 -34.5t1 -110.5zM1487 0h-371l-74 213h-591l-74 -213
h-373l537 1434h409zM614 686l-57 -164h379l-57 164q-31 92 -45.5 168t-24.5 211h-125q-10 -135 -24.5 -211t-45.5 -168z" />
    <glyph glyph-name="Adieresis" unicode="&#xc4;" horiz-adv-x="1492" 
d="M487 1528q-99 0 -157 50t-58 148t58 148.5t157 50.5t157 -50.5t58 -148.5t-58 -148t-157 -50zM1001 1528q-99 0 -157 50t-58 148t58 148.5t157 50.5t157.5 -50.5t58.5 -148.5t-58.5 -148t-157.5 -50zM1487 0h-371l-74 213h-591l-74 -213h-373l537 1434h409zM614 686
l-57 -164h379l-57 164q-31 92 -45.5 168t-24.5 211h-125q-10 -135 -24.5 -211t-45.5 -168z" />
    <glyph glyph-name="Aring" unicode="&#xc5;" horiz-adv-x="1492" 
d="M745 1528q-157 0 -247 76.5t-90 205.5q0 132 93 207.5t244 75.5q155 0 245.5 -77t90.5 -206q0 -132 -92.5 -207t-243.5 -75zM745 1919q-56 0 -87 -29.5t-31 -79.5q0 -52 31.5 -80t86.5 -28t86 29t31 79q0 52 -32 80.5t-85 28.5zM1487 0h-371l-74 213h-591l-74 -213h-373
l537 1434h409zM614 686l-57 -164h379l-57 164q-31 92 -45.5 168t-24.5 211h-125q-10 -135 -24.5 -211t-45.5 -168z" />
    <glyph glyph-name="AE" unicode="&#xc6;" horiz-adv-x="2048" 
d="M383 0h-379l641 1434h1335v-318h-700v-244h631v-292h-631v-263h702v-317h-1067v213h-444zM666 686l-68 -164h317v543h-143q-14 -111 -33 -180t-73 -199z" />
    <glyph glyph-name="Ccedilla" unicode="&#xc7;" horiz-adv-x="1546" 
d="M905 -35q-13 -38 -53 -63l20 -25q24 12 60 12q81 0 131.5 -49t50.5 -127q0 -107 -86.5 -171t-218.5 -64q-147 0 -234 67l50 160q83 -57 182 -57q47 0 74.5 20t27.5 56q0 29 -18 45t-47 16q-21 0 -53 -12l-109 51l39 143q-199 22 -349 130.5t-226 269.5t-76 350
q0 153 52.5 290t147 241.5t239 165t316.5 59.5q253 -2 436 -137.5t230 -360.5l-336 -92q-35 131 -122 200.5t-214 69.5q-172 0 -279.5 -120.5t-107.5 -315.5t107.5 -315.5t279.5 -120.5q133 0 222.5 77t121.5 222l340 -84q-41 -227 -202.5 -368t-395.5 -163z" />
    <glyph glyph-name="Egrave" unicode="&#xc8;" horiz-adv-x="1236" 
d="M688 1892l82 -325h-252l-205 325h375zM479 580v-263h692v-317h-1050v1434h1048v-318h-690v-244h627v-292h-627z" />
    <glyph glyph-name="Eacute" unicode="&#xc9;" horiz-adv-x="1236" 
d="M600 1892h375l-205 -325h-252zM479 580v-263h692v-317h-1050v1434h1048v-318h-690v-244h627v-292h-627z" />
    <glyph glyph-name="Ecircumflex" unicode="&#xca;" horiz-adv-x="1236" 
d="M569 1628l-28 -61h-299l219 325h366l220 -325h-299l-29 61q-29 63 -37 113h-76q-8 -50 -37 -113zM479 580v-263h692v-317h-1050v1434h1048v-318h-690v-244h627v-292h-627z" />
    <glyph glyph-name="Edieresis" unicode="&#xcb;" horiz-adv-x="1236" 
d="M387 1528q-99 0 -157 50t-58 148t58 148.5t157 50.5t157 -50.5t58 -148.5t-58 -148t-157 -50zM901 1528q-99 0 -157 50t-58 148t58 148.5t157 50.5t157 -50.5t58 -148.5t-58 -148t-157 -50zM479 580v-263h692v-317h-1050v1434h1048v-318h-690v-244h627v-292h-627z" />
    <glyph glyph-name="Igrave" unicode="&#xcc;" horiz-adv-x="645" 
d="M197 1567l-205 325h375l82 -325h-252zM143 0v1434h359v-1434h-359z" />
    <glyph glyph-name="Iacute" unicode="&#xcd;" horiz-adv-x="645" 
d="M279 1892h374l-204 -325h-252zM143 0v1434h359v-1434h-359z" />
    <glyph glyph-name="Icircumflex" unicode="&#xce;" horiz-adv-x="645" 
d="M219 1567h-299l219 325h367l219 -325h-299l-29 61q-29 63 -37 113h-75q-8 -50 -37 -113zM143 0v1434h359v-1434h-359z" />
    <glyph glyph-name="Idieresis" unicode="&#xcf;" horiz-adv-x="645" 
d="M66 1528q-99 0 -157.5 50t-58.5 148t58.5 148.5t157.5 50.5t157 -50.5t58 -148.5t-58 -148t-157 -50zM580 1528q-99 0 -157 50t-58 148t58 148.5t157 50.5t157 -50.5t58 -148.5t-58 -148t-157 -50zM143 0v1434h359v-1434h-359z" />
    <glyph glyph-name="Eth" unicode="&#xd0;" horiz-adv-x="1558" 
d="M137 594h-102v248h102v592h627q219 0 381.5 -82t253 -244.5t90.5 -390.5q0 -346 -192.5 -531.5t-536.5 -185.5h-623v594zM502 594v-277h233q197 0 293 96.5t96 303.5q0 399 -389 399h-233v-274h231v-248h-231z" />
    <glyph glyph-name="Ntilde" unicode="&#xd1;" horiz-adv-x="1550" 
d="M614 1526h-186q-21 192 30.5 290.5t157.5 98.5q61 0 111 -28t109 -79q42 -39 67 -39q24 0 31.5 34.5t-0.5 111.5h186q21 -192 -30.5 -290.5t-157.5 -98.5q-60 0 -112 28.5t-107 77.5q-42 39 -68 39q-25 0 -32 -34.5t1 -110.5zM121 0v1434h393l553 -881h4v881h359v-1434
h-394l-553 862h-4v-862h-358z" />
    <glyph glyph-name="Ograve" unicode="&#xd2;" horiz-adv-x="1638" 
d="M694 1587l-205 326h375l82 -326h-252zM70 717q0 215 97 388t269 270.5t385 97.5q159 0 298 -57t238.5 -157t156.5 -240.5t57 -301.5t-57 -301.5t-156.5 -240.5t-238.5 -157t-298 -57q-213 0 -385 97.5t-269 270.5t-97 388zM432 717q0 -195 108 -315.5t281 -120.5
q181 0 284 122t103 314q0 194 -103.5 315t-283.5 121q-181 0 -285 -119.5t-104 -316.5z" />
    <glyph glyph-name="Oacute" unicode="&#xd3;" horiz-adv-x="1638" 
d="M776 1913h375l-205 -326h-252zM70 717q0 215 97 388t269 270.5t385 97.5q159 0 298 -57t238.5 -157t156.5 -240.5t57 -301.5t-57 -301.5t-156.5 -240.5t-238.5 -157t-298 -57q-213 0 -385 97.5t-269 270.5t-97 388zM432 717q0 -195 108 -315.5t281 -120.5q181 0 284 122
t103 314q0 194 -103.5 315t-283.5 121q-181 0 -285 -119.5t-104 -316.5z" />
    <glyph glyph-name="Ocircumflex" unicode="&#xd4;" horiz-adv-x="1638" 
d="M717 1587h-299l219 326h367l219 -326h-299l-29 62q-29 64 -37 112h-76q-8 -48 -37 -112zM70 717q0 215 97 388t269 270.5t385 97.5q159 0 298 -57t238.5 -157t156.5 -240.5t57 -301.5t-57 -301.5t-156.5 -240.5t-238.5 -157t-298 -57q-213 0 -385 97.5t-269 270.5
t-97 388zM432 717q0 -195 108 -315.5t281 -120.5q181 0 284 122t103 314q0 194 -103.5 315t-283.5 121q-181 0 -285 -119.5t-104 -316.5z" />
    <glyph glyph-name="Otilde" unicode="&#xd5;" horiz-adv-x="1638" 
d="M662 1546h-187q-21 192 30.5 290.5t158.5 98.5q61 0 110.5 -27.5t108.5 -78.5q42 -39 67 -39t32 34t-1 111h186q21 -192 -30.5 -290.5t-157.5 -98.5q-60 0 -112 28.5t-107 78.5q-42 39 -68 39q-24 0 -31 -35t1 -111zM70 717q0 215 97 388t269 270.5t385 97.5
q159 0 298 -57t238.5 -157t156.5 -240.5t57 -301.5t-57 -301.5t-156.5 -240.5t-238.5 -157t-298 -57q-213 0 -385 97.5t-269 270.5t-97 388zM432 717q0 -195 108 -315.5t281 -120.5q181 0 284 122t103 314q0 194 -103.5 315t-283.5 121q-181 0 -285 -119.5t-104 -316.5z" />
    <glyph glyph-name="Odieresis" unicode="&#xd6;" horiz-adv-x="1638" 
d="M563 1548q-99 0 -157 50.5t-58 148.5t58 148.5t157 50.5t157 -50.5t58 -148.5t-58 -148.5t-157 -50.5zM1077 1548q-99 0 -157 50.5t-58 148.5t58 148.5t157 50.5t157 -50.5t58 -148.5t-58 -148.5t-157 -50.5zM70 717q0 215 97 388t269 270.5t385 97.5q159 0 298 -57
t238.5 -157t156.5 -240.5t57 -301.5t-57 -301.5t-156.5 -240.5t-238.5 -157t-298 -57q-213 0 -385 97.5t-269 270.5t-97 388zM432 717q0 -195 108 -315.5t281 -120.5q181 0 284 122t103 314q0 194 -103.5 315t-283.5 121q-181 0 -285 -119.5t-104 -316.5z" />
    <glyph glyph-name="multiply" unicode="&#xd7;" horiz-adv-x="1277" 
d="M348 211l-186 184l295 295l-295 293l186 184l293 -293l293 293l186 -184l-293 -293l293 -295l-186 -184l-293 293z" />
    <glyph glyph-name="Oslash" unicode="&#xd8;" horiz-adv-x="1638" 
d="M53 717q-2 161 56 302.5t159.5 241.5t245 157t305.5 55q256 3 455 -134l110 111l168 -168l-108 -108q144 -196 141 -457q2 -161 -56 -302.5t-159.5 -241.5t-245 -157t-305.5 -55q-256 -3 -454 133l-109 -108l-168 168l107 106q-145 197 -142 457zM401 717q0 -115 39 -197
l338 348q84 84 168.5 126t155.5 40v111q-75 35 -203 35q-231 0 -364.5 -124.5t-133.5 -338.5zM537 399v-110q79 -37 202 -37q231 0 364.5 127t133.5 338q0 111 -37 198l-366 -376q-71 -71 -150.5 -108t-146.5 -32z" />
    <glyph glyph-name="Ugrave" unicode="&#xd9;" horiz-adv-x="1456" 
d="M602 1567l-205 325h375l82 -325h-252zM117 553v881h358v-854q0 -152 63.5 -225.5t190.5 -73.5q252 0 252 299v854h358v-881q0 -283 -160 -437.5t-450 -154.5t-451 154.5t-161 437.5z" />
    <glyph glyph-name="Uacute" unicode="&#xda;" horiz-adv-x="1456" 
d="M684 1892h375l-205 -325h-252zM117 553v881h358v-854q0 -152 63.5 -225.5t190.5 -73.5q252 0 252 299v854h358v-881q0 -283 -160 -437.5t-450 -154.5t-451 154.5t-161 437.5z" />
    <glyph glyph-name="Ucircumflex" unicode="&#xdb;" horiz-adv-x="1456" 
d="M625 1567h-299l219 325h366l219 -325h-299l-28 61q-29 63 -37 113h-76q-8 -50 -37 -113zM117 553v881h358v-854q0 -152 63.5 -225.5t190.5 -73.5q252 0 252 299v854h358v-881q0 -283 -160 -437.5t-450 -154.5t-451 154.5t-161 437.5z" />
    <glyph glyph-name="Udieresis" unicode="&#xdc;" horiz-adv-x="1456" 
d="M471 1528q-99 0 -157 50t-58 148t58 148.5t157 50.5t157 -50.5t58 -148.5t-58 -148t-157 -50zM985 1528q-99 0 -157 50t-58 148t58 148.5t157 50.5t157 -50.5t58 -148.5t-58 -148t-157 -50zM117 553v881h358v-854q0 -152 63.5 -225.5t190.5 -73.5q252 0 252 299v854h358
v-881q0 -283 -160 -437.5t-450 -154.5t-451 154.5t-161 437.5z" />
    <glyph glyph-name="Yacute" unicode="&#xdd;" horiz-adv-x="1427" 
d="M670 1892h374l-204 -325h-252zM535 539l-543 895h416l86 -179q3 -7 27.5 -57.5t34 -72t30 -71t30.5 -83t20 -78.5t13 -84h135q4 58 16.5 113.5t39.5 122.5t42 99.5t54 112.5l84 177h416l-541 -895v-539h-360v539z" />
    <glyph glyph-name="Thorn" unicode="&#xde;" horiz-adv-x="1480" 
d="M485 0h-364v1434h364v-224h406q242 0 391.5 -132.5t149.5 -360.5t-149.5 -361t-391.5 -133h-406v-223zM485 899v-364h379q203 0 203 182t-203 182h-379z" />
    <glyph glyph-name="germandbls" unicode="&#xdf;" horiz-adv-x="1376" 
d="M457 0h-355v946q0 145 45 258t125.5 184.5t187 108.5t234.5 37q241 0 385 -119.5t144 -308.5q0 -209 -183 -289v-65q125 -26 201 -124t76 -231q0 -201 -148 -318.5t-403 -117.5q-150 0 -219 37v285q50 -31 153 -31q134 0 198.5 54.5t64.5 144.5q0 89 -60 137.5t-166 48.5
q-75 0 -108 -10v245q16 -2 28 -2q105 0 164.5 47.5t59.5 131.5q0 80 -52.5 127t-142.5 47q-100 0 -164.5 -61.5t-64.5 -192.5v-969z" />
    <glyph glyph-name="agrave" unicode="&#xe0;" horiz-adv-x="1247" 
d="M647 1585l82 -325h-252l-205 325h375zM1141 223q29 0 59 19v-232q-76 -43 -182 -43q-101 0 -165.5 52.5t-68.5 160.5h-92q-13 -97 -103 -158t-214 -61q-141 0 -231.5 81.5t-90.5 213.5q0 139 89.5 229t283.5 133l319 72v10q0 82 -41 123t-131 41q-186 0 -198 -184
l-320 57q23 183 170 285t375 102q230 0 362 -107.5t132 -318.5v-372q0 -25 1 -38t5 -31t14 -26t27 -8zM516 221q71 0 139 43t90 103v125l-198 -43q-84 -19 -119 -50.5t-35 -74.5q0 -53 34 -78t89 -25z" />
    <glyph glyph-name="aacute" unicode="&#xe1;" horiz-adv-x="1247" 
d="M559 1585h375l-205 -325h-252zM1141 223q29 0 59 19v-232q-76 -43 -182 -43q-101 0 -165.5 52.5t-68.5 160.5h-92q-13 -97 -103 -158t-214 -61q-141 0 -231.5 81.5t-90.5 213.5q0 139 89.5 229t283.5 133l319 72v10q0 82 -41 123t-131 41q-186 0 -198 -184l-320 57
q23 183 170 285t375 102q230 0 362 -107.5t132 -318.5v-372q0 -25 1 -38t5 -31t14 -26t27 -8zM516 221q71 0 139 43t90 103v125l-198 -43q-84 -19 -119 -50.5t-35 -74.5q0 -53 34 -78t89 -25z" />
    <glyph glyph-name="acircumflex" unicode="&#xe2;" horiz-adv-x="1247" 
d="M528 1321l-28 -61h-299l219 325h366l220 -325h-299l-29 61q-29 63 -37 113h-76q-8 -50 -37 -113zM1141 223q29 0 59 19v-232q-76 -43 -182 -43q-101 0 -165.5 52.5t-68.5 160.5h-92q-13 -97 -103 -158t-214 -61q-141 0 -231.5 81.5t-90.5 213.5q0 139 89.5 229t283.5 133
l319 72v10q0 82 -41 123t-131 41q-186 0 -198 -184l-320 57q23 183 170 285t375 102q230 0 362 -107.5t132 -318.5v-372q0 -25 1 -38t5 -31t14 -26t27 -8zM516 221q71 0 139 43t90 103v125l-198 -43q-84 -19 -119 -50.5t-35 -74.5q0 -53 34 -78t89 -25z" />
    <glyph glyph-name="atilde" unicode="&#xe3;" horiz-adv-x="1247" 
d="M444 1219h-186q-21 192 30.5 290.5t157.5 98.5q61 0 111 -28t109 -79q42 -39 67 -39q24 0 31.5 35t-0.5 111h186q21 -192 -30.5 -290.5t-157.5 -98.5q-60 0 -112 28.5t-107 77.5q-42 39 -68 39q-25 0 -32 -34t1 -111zM1141 223q29 0 59 19v-232q-76 -43 -182 -43
q-101 0 -165.5 52.5t-68.5 160.5h-92q-13 -97 -103 -158t-214 -61q-141 0 -231.5 81.5t-90.5 213.5q0 139 89.5 229t283.5 133l319 72v10q0 82 -41 123t-131 41q-186 0 -198 -184l-320 57q23 183 170 285t375 102q230 0 362 -107.5t132 -318.5v-372q0 -25 1 -38t5 -31
t14 -26t27 -8zM516 221q71 0 139 43t90 103v125l-198 -43q-84 -19 -119 -50.5t-35 -74.5q0 -53 34 -78t89 -25z" />
    <glyph glyph-name="adieresis" unicode="&#xe4;" horiz-adv-x="1247" 
d="M346 1221q-99 0 -157 50t-58 148t58 148.5t157 50.5t157 -50.5t58 -148.5t-58 -148t-157 -50zM860 1221q-99 0 -157 50t-58 148t58 148.5t157 50.5t157 -50.5t58 -148.5t-58 -148t-157 -50zM1141 223q29 0 59 19v-232q-76 -43 -182 -43q-101 0 -165.5 52.5t-68.5 160.5
h-92q-13 -97 -103 -158t-214 -61q-141 0 -231.5 81.5t-90.5 213.5q0 139 89.5 229t283.5 133l319 72v10q0 82 -41 123t-131 41q-186 0 -198 -184l-320 57q23 183 170 285t375 102q230 0 362 -107.5t132 -318.5v-372q0 -25 1 -38t5 -31t14 -26t27 -8zM516 221q71 0 139 43
t90 103v125l-198 -43q-84 -19 -119 -50.5t-35 -74.5q0 -53 34 -78t89 -25z" />
    <glyph glyph-name="aring" unicode="&#xe5;" horiz-adv-x="1247" 
d="M604 1221q-157 0 -247.5 76.5t-90.5 205.5q0 132 93.5 207.5t244.5 75.5q155 0 245.5 -77t90.5 -206q0 -132 -92.5 -207t-243.5 -75zM604 1612q-56 0 -87.5 -29.5t-31.5 -79.5q0 -52 32 -80t87 -28t86 29t31 79q0 52 -32 80.5t-85 28.5zM1141 223q29 0 59 19v-232
q-76 -43 -182 -43q-101 0 -165.5 52.5t-68.5 160.5h-92q-13 -97 -103 -158t-214 -61q-141 0 -231.5 81.5t-90.5 213.5q0 139 89.5 229t283.5 133l319 72v10q0 82 -41 123t-131 41q-186 0 -198 -184l-320 57q23 183 170 285t375 102q230 0 362 -107.5t132 -318.5v-372
q0 -25 1 -38t5 -31t14 -26t27 -8zM516 221q71 0 139 43t90 103v125l-198 -43q-84 -19 -119 -50.5t-35 -74.5q0 -53 34 -78t89 -25z" />
    <glyph glyph-name="ae" unicode="&#xe6;" horiz-adv-x="2086" 
d="M55 276q0 137 92.5 224.5t260.5 120.5l417 84v14q0 23 -8 45t-28 46t-64.5 39t-108.5 15q-227 0 -239 -184l-324 57q23 187 175.5 287t400.5 100q278 0 420 -127q173 127 407 127q270 0 431 -154t161 -429v-105h-874q6 -88 79.5 -142t194.5 -54q180 0 340 151l197 -225
q-221 -205 -527 -205q-174 0 -309.5 60t-218.5 169h-84q-32 -103 -146.5 -166t-269.5 -63q-171 0 -273 84t-102 231zM1176 670h528q-10 88 -79.5 137t-182.5 49q-109 0 -182.5 -51t-83.5 -135zM397 313q0 -46 36 -69t99 -23q89 0 173.5 39.5t119.5 106.5v122l-315 -71
q-63 -14 -88 -40t-25 -65z" />
    <glyph glyph-name="ccedilla" unicode="&#xe7;" horiz-adv-x="1216" 
d="M637 250q88 0 145 48t78 132l326 -100q-40 -150 -170 -248t-311 -117q-13 -38 -54 -63l21 -25q24 12 59 12q81 0 131.5 -49t50.5 -127q0 -107 -86.5 -171t-218.5 -64q-146 0 -233 67l49 160q83 -57 182 -57q47 0 75 20t28 56q0 28 -18.5 44.5t-47.5 16.5q-21 0 -53 -12
l-109 51l39 145q-216 31 -341.5 182.5t-125.5 383.5q0 267 164 428t434 161q210 0 349 -98.5t186 -269.5l-326 -101q-21 90 -81.5 135.5t-147.5 45.5q-107 0 -167.5 -79.5t-60.5 -213.5q0 -139 64 -216t170 -77z" />
    <glyph glyph-name="egrave" unicode="&#xe8;" horiz-adv-x="1249" 
d="M526 1260l-204 325h374l82 -325h-252zM53 541q0 261 162 422t428 161q257 0 412 -154t155 -429v-105h-809q10 -92 79 -144t177 -52q96 0 175 41t124 110l193 -225q-72 -96 -210 -150.5t-292 -54.5q-172 0 -306 69.5t-211 202t-77 308.5zM403 670h467q-9 86 -70.5 136
t-162.5 50q-96 0 -160 -49t-74 -137z" />
    <glyph glyph-name="eacute" unicode="&#xe9;" horiz-adv-x="1249" 
d="M608 1585h375l-205 -325h-252zM53 541q0 261 162 422t428 161q257 0 412 -154t155 -429v-105h-809q10 -92 79 -144t177 -52q96 0 175 41t124 110l193 -225q-72 -96 -210 -150.5t-292 -54.5q-172 0 -306 69.5t-211 202t-77 308.5zM403 670h467q-9 86 -70.5 136t-162.5 50
q-96 0 -160 -49t-74 -137z" />
    <glyph glyph-name="ecircumflex" unicode="&#xea;" horiz-adv-x="1249" 
d="M549 1260h-299l219 325h367l219 -325h-299l-29 61q-29 63 -37 113h-76q-9 -53 -36 -113zM53 541q0 261 162 422t428 161q257 0 412 -154t155 -429v-105h-809q10 -92 79 -144t177 -52q96 0 175 41t124 110l193 -225q-72 -96 -210 -150.5t-292 -54.5q-172 0 -306 69.5
t-211 202t-77 308.5zM403 670h467q-9 86 -70.5 136t-162.5 50q-96 0 -160 -49t-74 -137z" />
    <glyph glyph-name="edieresis" unicode="&#xeb;" horiz-adv-x="1249" 
d="M395 1221q-99 0 -157 50t-58 148t58 148.5t157 50.5t157 -50.5t58 -148.5t-58 -148t-157 -50zM909 1221q-99 0 -157 50t-58 148t58 148.5t157 50.5t157 -50.5t58 -148.5t-58 -148t-157 -50zM53 541q0 261 162 422t428 161q257 0 412 -154t155 -429v-105h-809
q10 -92 79 -144t177 -52q96 0 175 41t124 110l193 -225q-72 -96 -210 -150.5t-292 -54.5q-172 0 -306 69.5t-211 202t-77 308.5zM403 670h467q-9 86 -70.5 136t-162.5 50q-96 0 -160 -49t-74 -137z" />
    <glyph glyph-name="igrave" unicode="&#xec;" horiz-adv-x="593" 
d="M158 1260l-205 325h375l82 -325h-252zM106 0v1085h355v-1085h-355z" />
    <glyph glyph-name="iacute" unicode="&#xed;" horiz-adv-x="593" 
d="M240 1585h374l-204 -325h-252zM106 0v1085h355v-1085h-355z" />
    <glyph glyph-name="icircumflex" unicode="&#xee;" horiz-adv-x="593" 
d="M180 1260h-299l219 325h367l219 -325h-299l-29 61q-27 60 -36 113h-76q-8 -50 -37 -113zM106 0v1085h355v-1085h-355z" />
    <glyph glyph-name="idieresis" unicode="&#xef;" horiz-adv-x="593" 
d="M27 1221q-99 0 -157 50t-58 148t58 148.5t157 50.5t157 -50.5t58 -148.5t-58 -148t-157 -50zM541 1221q-99 0 -157 50t-58 148t58 148.5t157 50.5t157 -50.5t58 -148.5t-58 -148t-157 -50zM106 0v1085h355v-1085h-355z" />
    <glyph glyph-name="eth" unicode="&#xf0;" horiz-adv-x="1271" 
d="M53 442q0 209 130 346.5t321 137.5q197 0 311 -158l94 68q-69 142 -211 251l-106 -116l-172 145l69 76q-133 59 -290 80l127 262q109 -12 212.5 -42t163.5 -67l158 174l166 -151l-127 -139q149 -125 234.5 -294.5t85.5 -375.5q0 -155 -48 -283t-132.5 -214t-201.5 -133.5
t-253 -47.5q-234 0 -382.5 131.5t-148.5 349.5zM403 471q0 -103 55.5 -161t149.5 -58q103 0 182 69.5t103 190.5q-52 87 -124 134.5t-151 47.5q-95 0 -155 -62.5t-60 -160.5z" />
    <glyph glyph-name="ntilde" unicode="&#xf1;" horiz-adv-x="1333" 
d="M514 1219h-186q-21 192 30.5 290.5t157.5 98.5q61 0 110.5 -27.5t108.5 -79.5q42 -39 68 -39q24 0 31.5 35t-0.5 111h186q21 -192 -30.5 -290.5t-158.5 -98.5q-60 0 -112 28.5t-107 77.5q-42 39 -67 39t-32 -34t1 -111zM102 0v1085h310v-6q-13 -52 -50 -149l105 -43
q56 115 153.5 176t219.5 61q184 0 292.5 -122.5t108.5 -360.5v-641h-348v561q0 254 -193 254q-74 0 -139.5 -34.5t-109.5 -92.5v-688h-349z" />
    <glyph glyph-name="ograve" unicode="&#xf2;" horiz-adv-x="1282" 
d="M520 1260l-205 325h375l82 -325h-252zM53 543q0 261 162.5 421t425.5 160t425.5 -160t162.5 -421t-162.5 -421.5t-425.5 -160.5t-425.5 160.5t-162.5 421.5zM879 543q0 135 -61.5 214t-176.5 79t-176.5 -79t-61.5 -214t61.5 -214t176.5 -79t176.5 79t61.5 214z" />
    <glyph glyph-name="oacute" unicode="&#xf3;" horiz-adv-x="1282" 
d="M602 1585h375l-205 -325h-252zM53 543q0 261 162.5 421t425.5 160t425.5 -160t162.5 -421t-162.5 -421.5t-425.5 -160.5t-425.5 160.5t-162.5 421.5zM879 543q0 135 -61.5 214t-176.5 79t-176.5 -79t-61.5 -214t61.5 -214t176.5 -79t176.5 79t61.5 214z" />
    <glyph glyph-name="ocircumflex" unicode="&#xf4;" horiz-adv-x="1282" 
d="M543 1260h-299l219 325h366l220 -325h-299l-29 61q-29 63 -37 113h-76q-8 -50 -37 -113zM53 543q0 261 162.5 421t425.5 160t425.5 -160t162.5 -421t-162.5 -421.5t-425.5 -160.5t-425.5 160.5t-162.5 421.5zM879 543q0 135 -61.5 214t-176.5 79t-176.5 -79t-61.5 -214
t61.5 -214t176.5 -79t176.5 79t61.5 214z" />
    <glyph glyph-name="otilde" unicode="&#xf5;" horiz-adv-x="1282" 
d="M487 1219h-186q-21 192 30.5 290.5t157.5 98.5q61 0 111 -28t109 -79q42 -39 67 -39q24 0 31.5 35t-0.5 111h186q21 -192 -30.5 -290.5t-157.5 -98.5q-60 0 -112 28.5t-107 77.5q-42 39 -68 39q-25 0 -32 -34t1 -111zM53 543q0 261 162.5 421t425.5 160t425.5 -160
t162.5 -421t-162.5 -421.5t-425.5 -160.5t-425.5 160.5t-162.5 421.5zM879 543q0 135 -61.5 214t-176.5 79t-176.5 -79t-61.5 -214t61.5 -214t176.5 -79t176.5 79t61.5 214z" />
    <glyph glyph-name="odieresis" unicode="&#xf6;" horiz-adv-x="1282" 
d="M389 1221q-99 0 -157 50t-58 148t58 148.5t157 50.5t157 -50.5t58 -148.5t-58 -148t-157 -50zM903 1221q-99 0 -157 50t-58 148t58 148.5t157 50.5t157 -50.5t58 -148.5t-58 -148t-157 -50zM53 543q0 261 162.5 421t425.5 160t425.5 -160t162.5 -421t-162.5 -421.5
t-425.5 -160.5t-425.5 160.5t-162.5 421.5zM879 543q0 135 -61.5 214t-176.5 79t-176.5 -79t-61.5 -214t61.5 -214t176.5 -79t176.5 79t61.5 214z" />
    <glyph glyph-name="divide" unicode="&#xf7;" horiz-adv-x="1206" 
d="M604 918q-99 0 -157 50t-58 148t58 148.5t157 50.5t157 -50.5t58 -148.5t-58 -148t-157 -50zM160 815h887v-250h-887v250zM604 66q-99 0 -157 50t-58 148t58 148.5t157 50.5q100 0 157.5 -50.5t57.5 -148.5t-58 -148t-157 -50z" />
    <glyph glyph-name="oslash" unicode="&#xf8;" horiz-adv-x="1368" 
d="M53 543q-3 162 80 295.5t228.5 209.5t322.5 76q187 0 340 -86l133 133l152 -157l-117 -117q126 -151 123 -354q3 -162 -80 -296t-228.5 -210t-322.5 -76q-189 0 -342 86l-131 -131l-152 158l115 114q-124 156 -121 355zM387 545q0 -57 16 -107l156 156q167 167 326 158
v100q-55 22 -135 22q-52 0 -100.5 -9.5t-97.5 -33t-85 -59.5t-58.5 -94.5t-21.5 -132.5zM483 334v-101q58 -22 135 -22q52 0 100.5 9.5t97 33.5t84.5 60.5t58.5 95.5t22.5 133q0 53 -16 106l-144 -143q-95 -95 -176 -135t-162 -37z" />
    <glyph glyph-name="ugrave" unicode="&#xf9;" horiz-adv-x="1333" 
d="M535 1260l-205 325h375l81 -325h-251zM1231 1085v-1085h-330v6q11 47 51 150l-106 34q-46 -110 -146 -169.5t-223 -59.5q-175 0 -280 115.5t-105 331.5v677h348v-614q0 -95 53 -148t150 -53q74 0 137.5 31t102.5 88v696h348z" />
    <glyph glyph-name="uacute" unicode="&#xfa;" horiz-adv-x="1333" 
d="M616 1585h375l-205 -325h-251zM1231 1085v-1085h-330v6q11 47 51 150l-106 34q-46 -110 -146 -169.5t-223 -59.5q-175 0 -280 115.5t-105 331.5v677h348v-614q0 -95 53 -148t150 -53q74 0 137.5 31t102.5 88v696h348z" />
    <glyph glyph-name="ucircumflex" unicode="&#xfb;" horiz-adv-x="1333" 
d="M557 1260h-299l219 325h367l219 -325h-299l-29 61q-29 63 -37 113h-75q-8 -50 -37 -113zM1231 1085v-1085h-330v6q11 47 51 150l-106 34q-46 -110 -146 -169.5t-223 -59.5q-175 0 -280 115.5t-105 331.5v677h348v-614q0 -95 53 -148t150 -53q74 0 137.5 31t102.5 88v696
h348z" />
    <glyph glyph-name="udieresis" unicode="&#xfc;" horiz-adv-x="1333" 
d="M403 1221q-99 0 -157 50t-58 148t58 148.5t157 50.5t157 -50.5t58 -148.5t-58 -148t-157 -50zM918 1221q-99 0 -157.5 50t-58.5 148t58.5 148.5t157.5 50.5t157 -50.5t58 -148.5t-58 -148t-157 -50zM1231 1085v-1085h-330v6q11 47 51 150l-106 34q-46 -110 -146 -169.5
t-223 -59.5q-175 0 -280 115.5t-105 331.5v677h348v-614q0 -95 53 -148t150 -53q74 0 137.5 31t102.5 88v696h348z" />
    <glyph glyph-name="yacute" unicode="&#xfd;" horiz-adv-x="1280" 
d="M594 1585h375l-205 -325h-252zM244 -500q-112 0 -191 39v307q63 -24 146 -24q162 0 215 141l35 88l-461 1034h391l131 -360q62 -181 70 -342h120q8 169 72 342l129 360h387l-547 -1226q-15 -34 -28 -60.5t-37.5 -65.5t-51 -69t-66 -62t-84 -53.5t-104 -35t-126.5 -13.5z
" />
    <glyph glyph-name="thorn" unicode="&#xfe;" horiz-adv-x="1339" 
d="M451 -461h-349v1956h349v-184q0 -169 -84 -334l63 -35q52 88 147.5 136t210.5 48q224 0 361 -160t137 -421t-137 -421.5t-361 -160.5q-115 0 -210.5 48t-147.5 136l-63 -34q84 -165 84 -334v-240zM684 252q111 0 179.5 74.5t68.5 218.5t-68.5 218.5t-179.5 74.5
q-85 0 -148 -41t-85 -107v-291q22 -66 85 -106.5t148 -40.5z" />
    <glyph glyph-name="ydieresis" unicode="&#xff;" horiz-adv-x="1280" 
d="M381 1221q-99 0 -157 50t-58 148t58 148.5t157 50.5t157 -50.5t58 -148.5t-58 -148t-157 -50zM895 1221q-99 0 -157 50t-58 148t58 148.5t157 50.5t157 -50.5t58 -148.5t-58 -148t-157 -50zM244 -500q-112 0 -191 39v307q63 -24 146 -24q162 0 215 141l35 88l-461 1034
h391l131 -360q62 -181 70 -342h120q8 169 72 342l129 360h387l-547 -1226q-15 -34 -28 -60.5t-37.5 -65.5t-51 -69t-66 -62t-84 -53.5t-104 -35t-126.5 -13.5z" />
    <glyph glyph-name="Amacron" unicode="&#x100;" horiz-adv-x="1492" 
d="M379 1817h731v-240h-731v240zM1487 0h-371l-74 213h-591l-74 -213h-373l537 1434h409zM614 686l-57 -164h379l-57 164q-31 92 -45.5 168t-24.5 211h-125q-10 -135 -24.5 -211t-45.5 -168z" />
    <glyph glyph-name="amacron" unicode="&#x101;" horiz-adv-x="1247" 
d="M238 1509h731v-239h-731v239zM1141 223q29 0 59 19v-232q-76 -43 -182 -43q-101 0 -165.5 52.5t-68.5 160.5h-92q-13 -97 -103 -158t-214 -61q-141 0 -231.5 81.5t-90.5 213.5q0 139 89.5 229t283.5 133l319 72v10q0 82 -41 123t-131 41q-186 0 -198 -184l-320 57
q23 183 170 285t375 102q230 0 362 -107.5t132 -318.5v-372q0 -25 1 -38t5 -31t14 -26t27 -8zM516 221q71 0 139 43t90 103v125l-198 -43q-84 -19 -119 -50.5t-35 -74.5q0 -53 34 -78t89 -25z" />
    <glyph glyph-name="Abreve" unicode="&#x102;" horiz-adv-x="1492" 
d="M745 1548q-180 0 -289.5 95t-109.5 249h277q0 -68 33 -102.5t89 -34.5q121 0 121 137h277q0 -154 -110 -249t-288 -95zM1487 0h-371l-74 213h-591l-74 -213h-373l537 1434h409zM614 686l-57 -164h379l-57 164q-31 92 -45.5 168t-24.5 211h-125q-10 -135 -24.5 -211
t-45.5 -168z" />
    <glyph glyph-name="abreve" unicode="&#x103;" horiz-adv-x="1247" 
d="M604 1241q-180 0 -289.5 95t-109.5 249h276q0 -68 33.5 -102.5t89.5 -34.5q121 0 121 137h276q0 -154 -109.5 -249t-287.5 -95zM1141 223q29 0 59 19v-232q-76 -43 -182 -43q-101 0 -165.5 52.5t-68.5 160.5h-92q-13 -97 -103 -158t-214 -61q-141 0 -231.5 81.5
t-90.5 213.5q0 139 89.5 229t283.5 133l319 72v10q0 82 -41 123t-131 41q-186 0 -198 -184l-320 57q23 183 170 285t375 102q230 0 362 -107.5t132 -318.5v-372q0 -25 1 -38t5 -31t14 -26t27 -8zM516 221q71 0 139 43t90 103v125l-198 -43q-84 -19 -119 -50.5t-35 -74.5
q0 -53 34 -78t89 -25z" />
    <glyph glyph-name="Aogonek" unicode="&#x104;" horiz-adv-x="1492" 
d="M1522 -184l65 -185q-41 -31 -109 -49t-139 -18q-132 0 -211 68t-79 175q0 122 108 193h-41l-74 213h-591l-74 -213h-373l537 1434h409l537 -1434h-37q-89 -6 -137.5 -43.5t-48.5 -93.5q0 -44 30.5 -69t85.5 -25q79 0 142 47zM614 686l-57 -164h379l-57 164
q-31 92 -45.5 168t-24.5 211h-125q-10 -135 -24.5 -211t-45.5 -168z" />
    <glyph glyph-name="aogonek" unicode="&#x105;" horiz-adv-x="1247" 
d="M1243 -184l66 -185q-41 -31 -109 -49t-139 -18q-132 0 -211.5 68t-79.5 175q0 121 109 193q-89 54 -95 180h-92q-13 -97 -103 -158t-214 -61q-141 0 -231.5 81.5t-90.5 213.5q0 139 89.5 229t283.5 133l319 72v10q0 82 -41 123t-131 41q-186 0 -198 -184l-320 57
q23 183 170 285t375 102q230 0 362 -107.5t132 -318.5v-372q0 -25 1 -38t5 -31t14 -26t27 -8q29 0 59 19v-232q-61 -34 -147 -41q-68 -41 -68 -106q0 -44 31 -69t86 -25q78 0 141 47zM516 221q71 0 139 43t90 103v125l-198 -43q-84 -19 -119 -50.5t-35 -74.5q0 -53 34 -78
t89 -25z" />
    <glyph glyph-name="Cacute" unicode="&#x106;" horiz-adv-x="1546" 
d="M780 1892h375l-205 -325h-252zM70 717q0 153 52.5 290t147 241.5t239 165t316.5 59.5q253 -2 436 -137.5t230 -360.5l-336 -92q-35 131 -122 200.5t-214 69.5q-172 0 -279.5 -120.5t-107.5 -315.5t107.5 -315.5t279.5 -120.5q133 0 222.5 77t121.5 222l340 -84
q-44 -247 -229.5 -390t-448.5 -145q-172 -1 -316.5 59.5t-239 165t-147 241.5t-52.5 290z" />
    <glyph glyph-name="cacute" unicode="&#x107;" horiz-adv-x="1216" 
d="M606 1585h375l-205 -325h-252zM53 535q0 267 164 428t434 161q210 0 349 -98.5t186 -269.5l-326 -101q-21 90 -81.5 135.5t-147.5 45.5q-107 0 -167.5 -79.5t-60.5 -213.5q0 -139 64 -216t170 -77q88 0 145 48t78 132l326 -100q-44 -166 -198 -267.5t-363 -101.5
q-260 0 -416 156.5t-156 417.5z" />
    <glyph glyph-name="Cdotaccent" unicode="&#x10a;" horiz-adv-x="1546" 
d="M825 1528q-99 0 -157 50t-58 148t58 148.5t157 50.5t157 -50.5t58 -148.5t-58 -148t-157 -50zM70 717q0 153 52.5 290t147 241.5t239 165t316.5 59.5q253 -2 436 -137.5t230 -360.5l-336 -92q-35 131 -122 200.5t-214 69.5q-172 0 -279.5 -120.5t-107.5 -315.5
t107.5 -315.5t279.5 -120.5q133 0 222.5 77t121.5 222l340 -84q-44 -247 -229.5 -390t-448.5 -145q-172 -1 -316.5 59.5t-239 165t-147 241.5t-52.5 290z" />
    <glyph glyph-name="cdotaccent" unicode="&#x10b;" horiz-adv-x="1216" 
d="M651 1221q-99 0 -157 50t-58 148t58 148.5t157 50.5t157 -50.5t58 -148.5t-58 -148t-157 -50zM53 535q0 267 164 428t434 161q210 0 349 -98.5t186 -269.5l-326 -101q-21 90 -81.5 135.5t-147.5 45.5q-107 0 -167.5 -79.5t-60.5 -213.5q0 -139 64 -216t170 -77
q88 0 145 48t78 132l326 -100q-44 -166 -198 -267.5t-363 -101.5q-260 0 -416 156.5t-156 417.5z" />
    <glyph glyph-name="Ccaron" unicode="&#x10c;" horiz-adv-x="1546" 
d="M641 1567l-219 325h299l29 -61q27 -60 36 -113h76q8 50 37 113l29 61h299l-219 -325h-367zM70 717q0 153 52.5 290t147 241.5t239 165t316.5 59.5q253 -2 436 -137.5t230 -360.5l-336 -92q-35 131 -122 200.5t-214 69.5q-172 0 -279.5 -120.5t-107.5 -315.5t107.5 -315.5
t279.5 -120.5q133 0 222.5 77t121.5 222l340 -84q-44 -247 -229.5 -390t-448.5 -145q-172 -1 -316.5 59.5t-239 165t-147 241.5t-52.5 290z" />
    <glyph glyph-name="ccaron" unicode="&#x10d;" horiz-adv-x="1216" 
d="M467 1260l-219 325h299l28 -61q29 -63 37 -113h76q8 50 37 113l29 61h299l-219 -325h-367zM53 535q0 267 164 428t434 161q210 0 349 -98.5t186 -269.5l-326 -101q-21 90 -81.5 135.5t-147.5 45.5q-107 0 -167.5 -79.5t-60.5 -213.5q0 -139 64 -216t170 -77q88 0 145 48
t78 132l326 -100q-44 -166 -198 -267.5t-363 -101.5q-260 0 -416 156.5t-156 417.5z" />
    <glyph glyph-name="Dcaron" unicode="&#x10e;" horiz-adv-x="1460" 
d="M1096 1892l-219 -325h-367l-219 325h299l28 -61q29 -63 37 -113h76q8 50 37 113l29 61h299zM121 1434h614q299 0 477.5 -188.5t178.5 -528.5q0 -346 -175.5 -531.5t-486.5 -185.5h-608v1434zM479 317h226q74 0 131 19t102.5 63t69.5 124t24 194q0 399 -327 399h-226v-799
z" />
    <glyph glyph-name="dcaron" unicode="&#x10f;" horiz-adv-x="1478" 
d="M1731 1241l-146 -246l-143 70l88 149q-53 15 -83 56t-30 98q0 77 51.5 121.5t128.5 44.5q79 0 128 -46t49 -120q0 -61 -43 -127zM575 -39q-232 0 -377 152.5t-145 418.5t146 429t387 163q133 0 240 -55t165 -172l68 35q-45 81 -66.5 168t-21.5 215v180h354v-1495h-313v6
q19 76 45 148l-68 34q-55 -112 -164.5 -169.5t-249.5 -57.5zM692 262q97 0 173.5 45t105.5 123v225q-28 76 -102.5 122t-174.5 46q-129 0 -207.5 -75.5t-78.5 -204.5q0 -132 80 -206.5t204 -74.5z" />
    <glyph glyph-name="Dcroat" unicode="&#x110;" horiz-adv-x="1558" 
d="M137 594h-102v248h102v592h627q219 0 381.5 -82t253 -244.5t90.5 -390.5q0 -346 -192.5 -531.5t-536.5 -185.5h-623v594zM502 594v-277h233q197 0 293 96.5t96 303.5q0 399 -389 399h-233v-274h231v-248h-231z" />
    <glyph glyph-name="dcroat" unicode="&#x111;" horiz-adv-x="1419" 
d="M1325 1399h80v-228h-80v-1171h-313v6q19 76 45 148l-68 34q-55 -112 -164.5 -169.5t-249.5 -57.5q-232 0 -377 152.5t-145 418.5t146 429t387 163q133 0 240 -55t165 -172l68 35q-62 111 -80 239h-260v228h252v96h354v-96zM971 430v225q-28 76 -102.5 122t-174.5 46
q-129 0 -207.5 -75.5t-78.5 -204.5q0 -132 80 -206.5t204 -74.5q97 0 173.5 45t105.5 123z" />
    <glyph glyph-name="Emacron" unicode="&#x112;" horiz-adv-x="1236" 
d="M279 1817h731v-240h-731v240zM479 580v-263h692v-317h-1050v1434h1048v-318h-690v-244h627v-292h-627z" />
    <glyph glyph-name="emacron" unicode="&#x113;" horiz-adv-x="1249" 
d="M287 1270v239h731v-239h-731zM53 541q0 261 162 422t428 161q257 0 412 -154t155 -429v-105h-809q10 -92 79 -144t177 -52q96 0 175 41t124 110l193 -225q-72 -96 -210 -150.5t-292 -54.5q-172 0 -306 69.5t-211 202t-77 308.5zM403 670h467q-9 86 -70.5 136t-162.5 50
q-96 0 -160 -49t-74 -137z" />
    <glyph glyph-name="Edotaccent" unicode="&#x116;" horiz-adv-x="1236" 
d="M645 1528q-99 0 -157 50t-58 148t58 148.5t157 50.5t157 -50.5t58 -148.5t-58 -148t-157 -50zM479 580v-263h692v-317h-1050v1434h1048v-318h-690v-244h627v-292h-627z" />
    <glyph glyph-name="edotaccent" unicode="&#x117;" horiz-adv-x="1249" 
d="M653 1221q-99 0 -157 50t-58 148t58 148.5t157 50.5t157 -50.5t58 -148.5t-58 -148t-157 -50zM53 541q0 261 162 422t428 161q257 0 412 -154t155 -429v-105h-809q10 -92 79 -144t177 -52q96 0 175 41t124 110l193 -225q-72 -96 -210 -150.5t-292 -54.5q-172 0 -306 69.5
t-211 202t-77 308.5zM403 670h467q-9 86 -70.5 136t-162.5 50q-96 0 -160 -49t-74 -137z" />
    <glyph glyph-name="Eogonek" unicode="&#x118;" horiz-adv-x="1236" 
d="M1165 -184l66 -185q-41 -31 -109 -49t-139 -18q-132 0 -211.5 68t-79.5 175q0 121 109 193h-680v1434h1048v-318h-690v-244h627v-292h-627v-263h692v-317h-77q-90 -6 -138.5 -43.5t-48.5 -93.5q0 -44 31 -69t86 -25q78 0 141 47z" />
    <glyph glyph-name="eogonek" unicode="&#x119;" horiz-adv-x="1249" 
d="M1210 541v-105h-809q10 -92 79 -144t177 -52q96 0 175 41t124 110l193 -225q-57 -75 -156.5 -125.5t-218.5 -69.5q-72 -38 -72 -108q0 -44 31 -69t86 -25q79 0 142 47l65 -185q-41 -31 -109 -49t-139 -18q-132 0 -211.5 68t-79.5 175q0 92 68 160q-225 27 -363.5 180.5
t-138.5 393.5q0 261 162 422t428 161q257 0 412 -154t155 -429zM403 670h467q-9 86 -70.5 136t-162.5 50q-96 0 -160 -49t-74 -137z" />
    <glyph glyph-name="Ecaron" unicode="&#x11a;" horiz-adv-x="1236" 
d="M1047 1892l-220 -325h-366l-219 325h299l28 -61q29 -63 37 -113h76q8 50 37 113l29 61h299zM479 580v-263h692v-317h-1050v1434h1048v-318h-690v-244h627v-292h-627z" />
    <glyph glyph-name="ecaron" unicode="&#x11b;" horiz-adv-x="1249" 
d="M469 1260l-219 325h299l29 -61q27 -60 36 -113h76q8 50 37 113l29 61h299l-219 -325h-367zM53 541q0 261 162 422t428 161q257 0 412 -154t155 -429v-105h-809q10 -92 79 -144t177 -52q96 0 175 41t124 110l193 -225q-72 -96 -210 -150.5t-292 -54.5q-172 0 -306 69.5
t-211 202t-77 308.5zM403 670h467q-9 86 -70.5 136t-162.5 50q-96 0 -160 -49t-74 -137z" />
    <glyph glyph-name="Gbreve" unicode="&#x11e;" horiz-adv-x="1593" 
d="M428 1892h277q0 -68 33 -102.5t89 -34.5q121 0 121 137h277q0 -154 -110 -249t-288 -95q-180 0 -289.5 95t-109.5 249zM70 696q0 177 58.5 325t160 247.5t240.5 153t298 51.5q251 -3 432 -134.5t228 -343.5l-338 -94q-38 121 -122 186.5t-212 65.5q-178 0 -279.5 -122
t-101.5 -320q0 -202 108 -323.5t296 -121.5q139 0 231 66t113 170v10h-367v260h664v-772h-299v10q8 41 69 178l-108 54q-121 -277 -426 -277q-153 0 -277 58t-203.5 158.5t-122 232.5t-42.5 282z" />
    <glyph glyph-name="gbreve" unicode="&#x11f;" horiz-adv-x="1069" 
d="M94 1585h277q0 -68 33.5 -102.5t89.5 -34.5q120 0 120 137h277q0 -154 -109.5 -249t-287.5 -95q-180 0 -290 95t-110 249zM477 -539q-477 0 -477 244q0 77 52.5 123.5t140.5 52.5v66q-50 24 -75.5 66t-25.5 93q0 79 49 133.5t131 69.5v66q-116 33 -180.5 118.5
t-64.5 198.5q0 184 127.5 288.5t343.5 104.5h532l43 -245h-37q-32 0 -81 15.5t-95 47.5l-57 -92q80 -30 120 -88.5t40 -136.5q0 -142 -115 -224.5t-307 -82.5h-84q-76 0 -76 -56q0 -29 24 -41.5t72 -15.5l240 -12q338 -19 338 -320q0 -186 -152.5 -279.5t-425.5 -93.5z
M494 520q79 0 118 43.5t39 120.5q0 79 -42 119.5t-115 40.5q-79 0 -117.5 -42.5t-38.5 -117.5q0 -81 41.5 -122.5t114.5 -41.5zM485 -319q122 0 172 24t50 70q0 67 -91 71l-311 19q-9 -4 -15.5 -29.5t-6.5 -52.5q0 -59 51 -80.5t151 -21.5z" />
    <glyph glyph-name="Gdotaccent" unicode="&#x120;" horiz-adv-x="1593" 
d="M827 1528q-99 0 -157 50t-58 148t58 148.5t157 50.5t157 -50.5t58 -148.5t-58 -148t-157 -50zM70 696q0 177 58.5 325t160 247.5t240.5 153t298 51.5q251 -3 432 -134.5t228 -343.5l-338 -94q-38 121 -122 186.5t-212 65.5q-178 0 -279.5 -122t-101.5 -320
q0 -202 108 -323.5t296 -121.5q139 0 231 66t113 170v10h-367v260h664v-772h-299v10q8 41 69 178l-108 54q-121 -277 -426 -277q-153 0 -277 58t-203.5 158.5t-122 232.5t-42.5 282z" />
    <glyph glyph-name="gdotaccent" unicode="&#x121;" horiz-adv-x="1069" 
d="M494 1221q-99 0 -157 50t-58 148t58 148.5t157 50.5t157 -50.5t58 -148.5t-58 -148t-157 -50zM477 -539q-477 0 -477 244q0 77 52.5 123.5t140.5 52.5v66q-50 24 -75.5 66t-25.5 93q0 79 49 133.5t131 69.5v66q-116 33 -180.5 118.5t-64.5 198.5q0 184 127.5 288.5
t343.5 104.5h532l43 -245h-37q-32 0 -81 15.5t-95 47.5l-57 -92q80 -30 120 -88.5t40 -136.5q0 -142 -115 -224.5t-307 -82.5h-84q-76 0 -76 -56q0 -29 24 -41.5t72 -15.5l240 -12q338 -19 338 -320q0 -186 -152.5 -279.5t-425.5 -93.5zM494 520q79 0 118 43.5t39 120.5
q0 79 -42 119.5t-115 40.5q-79 0 -117.5 -42.5t-38.5 -117.5q0 -81 41.5 -122.5t114.5 -41.5zM485 -319q122 0 172 24t50 70q0 67 -91 71l-311 19q-9 -4 -15.5 -29.5t-6.5 -52.5q0 -59 51 -80.5t151 -21.5z" />
    <glyph glyph-name="uni0122" unicode="&#x122;" horiz-adv-x="1593" 
d="M70 696q0 177 58.5 325t160 247.5t240.5 153t298 51.5q251 -3 432 -134.5t228 -343.5l-338 -94q-38 121 -122 186.5t-212 65.5q-178 0 -279.5 -122t-101.5 -320q0 -202 108 -323.5t296 -121.5q139 0 231 66t113 170v10h-367v260h664v-772h-299v10q8 41 69 178l-108 54
q-121 -277 -426 -277q-153 0 -277 58t-203.5 158.5t-122 232.5t-42.5 282zM530 -135h375l-205 -326h-251z" />
    <glyph glyph-name="uni0123" unicode="&#x123;" horiz-adv-x="1069" 
d="M340 1556l168 281l164 -80l-101 -170q60 -19 94.5 -65.5t34.5 -110.5q0 -89 -58.5 -139.5t-147.5 -50.5q-92 0 -147.5 52t-55.5 138q0 67 49 145zM477 -539q-477 0 -477 244q0 77 52.5 123.5t140.5 52.5v66q-50 24 -75.5 66t-25.5 93q0 79 49 133.5t131 69.5v66
q-116 33 -180.5 118.5t-64.5 198.5q0 184 127.5 288.5t343.5 104.5h532l43 -245h-37q-32 0 -81 15.5t-95 47.5l-57 -92q80 -30 120 -88.5t40 -136.5q0 -142 -115 -224.5t-307 -82.5h-84q-76 0 -76 -56q0 -29 24 -41.5t72 -15.5l240 -12q338 -19 338 -320
q0 -186 -152.5 -279.5t-425.5 -93.5zM494 520q79 0 118 43.5t39 120.5q0 79 -42 119.5t-115 40.5q-79 0 -117.5 -42.5t-38.5 -117.5q0 -81 41.5 -122.5t114.5 -41.5zM485 -319q122 0 172 24t50 70q0 67 -91 71l-311 19q-9 -4 -15.5 -29.5t-6.5 -52.5q0 -59 51 -80.5
t151 -21.5z" />
    <glyph glyph-name="Hbar" unicode="&#x126;" horiz-adv-x="1624" 
d="M1460 1434v-138h123v-264h-123v-1032h-364v563h-607v-563h-364v1032h-125v264h125v138h364v-138h607v138h364zM489 1032v-135h607v135h-607z" />
    <glyph glyph-name="hbar" unicode="&#x127;" horiz-adv-x="1382" 
d="M815 1124q224 0 349.5 -131t125.5 -352v-641h-354v561q0 254 -236 254q-89 0 -167.5 -34.5t-126.5 -92.5v-688h-355v1171h-119v228h119v96h355v-96h212v-228h-217q-11 -113 -67 -241l67 -35q59 109 169.5 169t244.5 60z" />
    <glyph glyph-name="Imacron" unicode="&#x12a;" horiz-adv-x="645" 
d="M-43 1577v240h731v-240h-731zM143 0v1434h359v-1434h-359z" />
    <glyph glyph-name="imacron" unicode="&#x12b;" horiz-adv-x="593" 
d="M-82 1270v239h731v-239h-731zM106 0v1085h355v-1085h-355z" />
    <glyph glyph-name="Iogonek" unicode="&#x12e;" horiz-adv-x="645" 
d="M571 -184l66 -185q-41 -31 -109 -49t-139 -18q-132 0 -211.5 68t-79.5 175q0 121 109 193h-64v1434h359v-1434h-2q-90 -6 -138.5 -43.5t-48.5 -93.5q0 -44 31 -69t86 -25q78 0 141 47z" />
    <glyph glyph-name="iogonek" unicode="&#x12f;" horiz-adv-x="593" 
d="M285 1221q-99 0 -157 50t-58 148t58 148.5t157 50.5t157 -50.5t58 -148.5t-58 -148t-157 -50zM528 -184l66 -185q-41 -31 -109 -49t-139 -18q-132 0 -211.5 68t-79.5 175q0 121 109 193h-58v1085h355v-1085h-4q-90 -6 -138.5 -43.5t-48.5 -93.5q0 -44 31 -69t86 -25
q78 0 141 47z" />
    <glyph glyph-name="Idotaccent" unicode="&#x130;" horiz-adv-x="645" 
d="M324 1528q-99 0 -157 50t-58 148t58 148.5t157 50.5t157 -50.5t58 -148.5t-58 -148t-157 -50zM143 0v1434h359v-1434h-359z" />
    <glyph glyph-name="dotlessi" unicode="&#x131;" horiz-adv-x="593" 
d="M106 0v1085h355v-1085h-355z" />
    <glyph glyph-name="uni0136" unicode="&#x136;" horiz-adv-x="1419" 
d="M121 0v1434h358v-191q0 -140 -22.5 -213.5t-98.5 -163.5l82 -78l553 646h428l-528 -611l537 -823h-429l-358 569h-4l-160 -204v-365h-358zM522 -135h375l-205 -326h-252z" />
    <glyph glyph-name="uni0137" unicode="&#x137;" horiz-adv-x="1302" 
d="M102 0v1495h349v-438q0 -58 -2 -88t-11.5 -78.5t-33.5 -95t-64 -101.5l92 -65q62 95 166 207l233 249h476l-463 -440l467 -645h-422l-295 436h-4l-139 -131v-305h-349zM481 -135h375l-205 -326h-252z" />
    <glyph glyph-name="Lacute" unicode="&#x139;" horiz-adv-x="1153" 
d="M256 1892h375l-205 -325h-252zM121 0v1434h358v-1115h647v-319h-1005z" />
    <glyph glyph-name="lacute" unicode="&#x13a;" horiz-adv-x="559" 
d="M238 1995h374l-204 -326h-252zM106 0v1495h349v-1495h-349z" />
    <glyph glyph-name="uni013B" unicode="&#x13b;" horiz-adv-x="1153" 
d="M121 0v1434h358v-1115h647v-319h-1005zM436 -135h375l-205 -326h-252z" />
    <glyph glyph-name="uni013C" unicode="&#x13c;" horiz-adv-x="559" 
d="M106 0v1495h349v-1495h-349zM92 -135h375l-205 -326h-252z" />
    <glyph glyph-name="Lcaron" unicode="&#x13d;" horiz-adv-x="1243" 
d="M979 1182l-145 -246l-144 70l88 149q-52 15 -82 56t-30 98q0 77 51.5 121.5t128.5 44.5q79 0 127.5 -46t48.5 -120q0 -61 -43 -127zM121 0v1434h364v-1115h732v-319h-1096z" />
    <glyph glyph-name="lcaron" unicode="&#x13e;" horiz-adv-x="589" 
d="M866 1241l-145 -246l-143 70l88 149q-53 15 -83 56t-30 98q0 77 51.5 121.5t128.5 44.5q79 0 127.5 -46t48.5 -120q0 -61 -43 -127zM106 0v1495h355v-1495h-355z" />
    <glyph glyph-name="Lslash" unicode="&#x141;" horiz-adv-x="1153" 
d="M121 535l-127 -50v254l127 49v646h358v-502l168 65v-254l-168 -65v-359h647v-319h-1005v535z" />
    <glyph glyph-name="lslash" unicode="&#x142;" horiz-adv-x="608" 
d="M0 475v254l139 64v702h348v-537l142 66v-256l-142 -66v-702h-348v539z" />
    <glyph glyph-name="Nacute" unicode="&#x143;" horiz-adv-x="1550" 
d="M729 1892h375l-205 -325h-252zM121 0v1434h393l553 -881h4v881h359v-1434h-394l-553 862h-4v-862h-358z" />
    <glyph glyph-name="nacute" unicode="&#x144;" horiz-adv-x="1333" 
d="M629 1585h375l-205 -325h-252zM102 0v1085h310v-6q-13 -52 -50 -149l105 -43q56 115 153.5 176t219.5 61q184 0 292.5 -122.5t108.5 -360.5v-641h-348v561q0 254 -193 254q-74 0 -139.5 -34.5t-109.5 -92.5v-688h-349z" />
    <glyph glyph-name="uni0145" unicode="&#x145;" horiz-adv-x="1550" 
d="M121 0v1434h393l553 -881h4v881h359v-1434h-394l-553 862h-4v-862h-358zM586 -135h375l-205 -326h-252z" />
    <glyph glyph-name="uni0146" unicode="&#x146;" horiz-adv-x="1333" 
d="M102 0v1085h310v-6q-13 -52 -50 -149l105 -43q56 115 153.5 176t219.5 61q184 0 292.5 -122.5t108.5 -360.5v-641h-348v561q0 254 -193 254q-74 0 -139.5 -34.5t-109.5 -92.5v-688h-349zM485 -135h375l-205 -326h-252z" />
    <glyph glyph-name="Ncaron" unicode="&#x147;" horiz-adv-x="1550" 
d="M590 1567l-219 325h299l28 -61q29 -63 37 -113h76q8 50 37 113l29 61h299l-220 -325h-366zM121 0v1434h393l553 -881h4v881h359v-1434h-394l-553 862h-4v-862h-358z" />
    <glyph glyph-name="ncaron" unicode="&#x148;" horiz-adv-x="1333" 
d="M489 1260l-219 325h299l29 -61q29 -63 37 -113h76q8 50 37 113l28 61h299l-219 -325h-367zM102 0v1085h310v-6q-13 -52 -50 -149l105 -43q56 115 153.5 176t219.5 61q184 0 292.5 -122.5t108.5 -360.5v-641h-348v561q0 254 -193 254q-74 0 -139.5 -34.5t-109.5 -92.5
v-688h-349z" />
    <glyph glyph-name="Eng" unicode="&#x14a;" horiz-adv-x="1708" 
d="M528 0h-364v1434h381l631 -871h4v871h364v-1450q0 -236 -119 -360t-360 -124q-70 0 -111 13l-47 284q35 -6 78 -6q106 0 155.5 41t49.5 135v33h-27l-631 852h-4v-852z" />
    <glyph glyph-name="eng" unicode="&#x14b;" horiz-adv-x="1507" 
d="M492 0h-355v1085h336v-6q-19 -73 -53 -149l67 -35q59 109 169.5 169t244.5 60q224 0 349.5 -131t125.5 -352v-657q0 -236 -119 -360t-360 -124q-70 0 -111 13l-47 284q35 -6 78 -6q116 0 160.5 49.5t44.5 171.5v549q0 254 -236 254q-89 0 -167.5 -34.5t-126.5 -92.5v-688
z" />
    <glyph glyph-name="Omacron" unicode="&#x14c;" horiz-adv-x="1638" 
d="M455 1597v240h731v-240h-731zM70 717q0 215 97 388t269 270.5t385 97.5q159 0 298 -57t238.5 -157t156.5 -240.5t57 -301.5t-57 -301.5t-156.5 -240.5t-238.5 -157t-298 -57q-213 0 -385 97.5t-269 270.5t-97 388zM432 717q0 -195 108 -315.5t281 -120.5q181 0 284 122
t103 314q0 194 -103.5 315t-283.5 121q-181 0 -285 -119.5t-104 -316.5z" />
    <glyph glyph-name="omacron" unicode="&#x14d;" horiz-adv-x="1282" 
d="M281 1270v239h731v-239h-731zM53 543q0 261 162.5 421t425.5 160t425.5 -160t162.5 -421t-162.5 -421.5t-425.5 -160.5t-425.5 160.5t-162.5 421.5zM879 543q0 135 -61.5 214t-176.5 79t-176.5 -79t-61.5 -214t61.5 -214t176.5 -79t176.5 79t61.5 214z" />
    <glyph glyph-name="Ohungarumlaut" unicode="&#x150;" horiz-adv-x="1638" 
d="M578 1913h354l-184 -326h-252zM1083 1913h355l-273 -326h-272zM70 717q0 215 97 388t269 270.5t385 97.5q159 0 298 -57t238.5 -157t156.5 -240.5t57 -301.5t-57 -301.5t-156.5 -240.5t-238.5 -157t-298 -57q-213 0 -385 97.5t-269 270.5t-97 388zM432 717
q0 -195 108 -315.5t281 -120.5q181 0 284 122t103 314q0 194 -103.5 315t-283.5 121q-181 0 -285 -119.5t-104 -316.5z" />
    <glyph glyph-name="ohungarumlaut" unicode="&#x151;" horiz-adv-x="1282" 
d="M403 1585h355l-185 -325h-251zM909 1585h355l-273 -325h-272zM53 543q0 261 162.5 421t425.5 160t425.5 -160t162.5 -421t-162.5 -421.5t-425.5 -160.5t-425.5 160.5t-162.5 421.5zM879 543q0 135 -61.5 214t-176.5 79t-176.5 -79t-61.5 -214t61.5 -214t176.5 -79
t176.5 79t61.5 214z" />
    <glyph glyph-name="OE" unicode="&#x152;" horiz-adv-x="2029" 
d="M70 717q0 228 90.5 390.5t253 244.5t381.5 82h1167v-318h-643v-244h573v-292h-573v-263h645v-317h-1165q-344 0 -536.5 185.5t-192.5 531.5zM434 717q0 -207 96 -303.5t293 -96.5h131v799h-131q-389 0 -389 -399z" />
    <glyph glyph-name="oe" unicode="&#x153;" horiz-adv-x="2066" 
d="M2028 436h-807v-8q12 -88 80.5 -138t173.5 -50q96 0 175 41t124 110l192 -225q-72 -96 -210 -150.5t-292 -54.5q-253 0 -413 145q-161 -145 -410 -145q-263 0 -425.5 160.5t-162.5 421.5t162.5 421t425.5 160q249 0 410 -145q158 145 409 145q257 0 412.5 -154
t155.5 -429v-105zM1454 856q-96 0 -159.5 -49t-73.5 -137h467q-9 86 -70.5 136t-163.5 50zM641 250q98 0 158 59t75 162q-4 46 -4 70q0 25 4 71q-15 105 -75 164.5t-158 59.5q-115 0 -176.5 -79t-61.5 -214t61.5 -214t176.5 -79z" />
    <glyph glyph-name="Racute" unicode="&#x154;" horiz-adv-x="1366" 
d="M641 1892h375l-205 -325h-252zM1200 287l57 -140q15 -34 24 -51t24 -35.5t34 -29.5v-31h-401q-32 27 -43 70l-88 219q-44 112 -86.5 149t-136.5 37h-105v-475h-358v1434h760q205 0 319.5 -104.5t114.5 -285.5q0 -196 -110.5 -295.5t-325.5 -113.5v-103q47 -6 76.5 -11
t62 -16t54 -27t45 -42t43 -62t40.5 -87zM479 786h316q74 0 117.5 44.5t43.5 125.5q0 166 -161 166h-316v-336z" />
    <glyph glyph-name="racute" unicode="&#x155;" horiz-adv-x="804" 
d="M377 1585h375l-205 -325h-252zM451 0h-349v1085h306v-8q-8 -35 -54 -147l111 -35q72 213 215 213q67 0 96 -16l25 -310q-51 21 -148 21q-60 0 -119 -33.5t-83 -99.5v-670z" />
    <glyph glyph-name="uni0156" unicode="&#x156;" horiz-adv-x="1366" 
d="M1200 287l57 -140q15 -34 24 -51t24 -35.5t34 -29.5v-31h-401q-32 27 -43 70l-88 219q-44 112 -86.5 149t-136.5 37h-105v-475h-358v1434h760q205 0 319.5 -104.5t114.5 -285.5q0 -196 -110.5 -295.5t-325.5 -113.5v-103q47 -6 76.5 -11t62 -16t54 -27t45 -42t43 -62
t40.5 -87zM479 786h316q74 0 117.5 44.5t43.5 125.5q0 166 -161 166h-316v-336zM668 -461h-252l82 326h374z" />
    <glyph glyph-name="uni0157" unicode="&#x157;" horiz-adv-x="804" 
d="M451 0h-349v1085h306v-8q-8 -35 -54 -147l111 -35q72 213 215 213q67 0 96 -16l25 -310q-51 21 -148 21q-60 0 -119 -33.5t-83 -99.5v-670zM90 -135h375l-205 -326h-252z" />
    <glyph glyph-name="Rcaron" unicode="&#x158;" horiz-adv-x="1366" 
d="M1087 1892l-219 -325h-366l-219 325h299l28 -61q29 -63 37 -113h76q8 50 37 113l28 61h299zM1200 287l57 -140q15 -34 24 -51t24 -35.5t34 -29.5v-31h-401q-32 27 -43 70l-88 219q-44 112 -86.5 149t-136.5 37h-105v-475h-358v1434h760q205 0 319.5 -104.5t114.5 -285.5
q0 -196 -110.5 -295.5t-325.5 -113.5v-103q47 -6 76.5 -11t62 -16t54 -27t45 -42t43 -62t40.5 -87zM479 786h316q74 0 117.5 44.5t43.5 125.5q0 166 -161 166h-316v-336z" />
    <glyph glyph-name="rcaron" unicode="&#x159;" horiz-adv-x="804" 
d="M238 1260l-220 325h299l29 -61q29 -63 37 -113h76q8 50 37 113l28 61h299l-219 -325h-366zM451 0h-349v1085h306v-8q-8 -35 -54 -147l111 -35q72 213 215 213q67 0 96 -16l25 -310q-51 21 -148 21q-60 0 -119 -33.5t-83 -99.5v-670z" />
    <glyph glyph-name="Sacute" unicode="&#x15a;" horiz-adv-x="1331" 
d="M618 1892h375l-205 -325h-251zM57 440l320 62q9 -116 94 -180t221 -64q100 0 158.5 40t58.5 112q0 69 -62 105.5t-231 62.5q-279 42 -397.5 148.5t-118.5 293.5q0 213 154 331.5t412 118.5q256 0 422.5 -117t183.5 -309l-332 -75q-40 213 -278 213q-99 0 -151 -35
t-52 -96q0 -22 4.5 -39t18 -31.5t27 -25t42 -21t52 -17.5t68 -15.5t79.5 -14t96 -15.5q225 -37 324.5 -146t99.5 -292q0 -148 -77 -256t-211 -162.5t-310 -54.5q-279 0 -440 129.5t-175 349.5z" />
    <glyph glyph-name="sacute" unicode="&#x15b;" horiz-adv-x="1150" 
d="M510 1585h375l-205 -325h-252zM43 291l287 102q25 -84 93.5 -128t174.5 -44q74 0 113 22.5t39 65.5q0 18 -6.5 32t-21.5 24t-30 17t-42.5 13t-49 10t-58 10t-61.5 11q-65 12 -116.5 27.5t-107 43t-92.5 63t-61 89.5t-24 121q0 167 136.5 260.5t363.5 93.5
q213 0 351.5 -83t172.5 -226l-273 -90q-62 141 -268 141q-139 0 -139 -75q0 -17 7 -30.5t23.5 -23.5t34 -17t48 -13.5t55 -11t65 -11t68.5 -12.5q89 -17 151 -38.5t116.5 -58.5t82 -95.5t27.5 -139.5q0 -183 -136.5 -281t-392.5 -98q-461 0 -530 330z" />
    <glyph glyph-name="Scedilla" unicode="&#x15e;" horiz-adv-x="1331" 
d="M846 872q225 -37 324.5 -146t99.5 -292q0 -206 -141 -329t-377 -142q-19 -37 -54 -61l21 -25q24 12 59 12q82 0 132.5 -49t50.5 -127q0 -107 -87 -171t-219 -64q-146 0 -233 67l49 160q83 -57 182 -57q47 0 75 20t28 56q0 28 -18.5 44.5t-47.5 16.5q-21 0 -53 -12
l-109 51l39 143q-233 24 -365.5 149.5t-144.5 323.5l320 62q9 -116 94 -180t221 -64q100 0 158.5 40t58.5 112q0 69 -62 105.5t-231 62.5q-279 42 -397.5 148.5t-118.5 293.5q0 213 154 331.5t412 118.5q256 0 422.5 -117t183.5 -309l-332 -75q-40 213 -278 213
q-99 0 -151 -35t-52 -96q0 -22 4.5 -39t18 -31.5t27 -25t42 -21t52 -17.5t68 -15.5t79.5 -14t96 -15.5z" />
    <glyph glyph-name="scedilla" unicode="&#x15f;" horiz-adv-x="1150" 
d="M725 672q89 -17 151 -38.5t116.5 -58.5t82 -95.5t27.5 -139.5q0 -172 -120.5 -269.5t-348.5 -107.5q-12 -35 -51 -61l20 -25q24 12 60 12q81 0 131.5 -49t50.5 -127q0 -107 -86.5 -171t-218.5 -64q-147 0 -234 67l49 160q83 -57 183 -57q47 0 74.5 20t27.5 56
q0 28 -18.5 44.5t-47.5 16.5q-21 0 -53 -12l-108 51l39 143q-349 41 -408 324l287 102q25 -84 93.5 -128t174.5 -44q74 0 113 22.5t39 65.5q0 18 -6.5 32t-21.5 24t-30 17t-42.5 13t-49 10t-58 10t-61.5 11q-65 12 -116.5 27.5t-107 43t-92.5 63t-61 89.5t-24 121
q0 167 136.5 260.5t363.5 93.5q213 0 351.5 -83t172.5 -226l-273 -90q-62 141 -268 141q-139 0 -139 -75q0 -17 7 -30.5t23.5 -23.5t34 -17t48 -13.5t55 -11t65 -11t68.5 -12.5z" />
    <glyph glyph-name="Scaron" unicode="&#x160;" horiz-adv-x="1331" 
d="M479 1567l-219 325h299l29 -61q29 -63 37 -113h75q8 50 37 113l29 61h299l-219 -325h-367zM57 440l320 62q9 -116 94 -180t221 -64q100 0 158.5 40t58.5 112q0 69 -62 105.5t-231 62.5q-279 42 -397.5 148.5t-118.5 293.5q0 213 154 331.5t412 118.5q256 0 422.5 -117
t183.5 -309l-332 -75q-40 213 -278 213q-99 0 -151 -35t-52 -96q0 -22 4.5 -39t18 -31.5t27 -25t42 -21t52 -17.5t68 -15.5t79.5 -14t96 -15.5q225 -37 324.5 -146t99.5 -292q0 -148 -77 -256t-211 -162.5t-310 -54.5q-279 0 -440 129.5t-175 349.5z" />
    <glyph glyph-name="scaron" unicode="&#x161;" horiz-adv-x="1150" 
d="M371 1260l-219 325h299l28 -61q29 -63 37 -113h76q8 50 37 113l28 61h299l-219 -325h-366zM43 291l287 102q25 -84 93.5 -128t174.5 -44q74 0 113 22.5t39 65.5q0 18 -6.5 32t-21.5 24t-30 17t-42.5 13t-49 10t-58 10t-61.5 11q-65 12 -116.5 27.5t-107 43t-92.5 63
t-61 89.5t-24 121q0 167 136.5 260.5t363.5 93.5q213 0 351.5 -83t172.5 -226l-273 -90q-62 141 -268 141q-139 0 -139 -75q0 -17 7 -30.5t23.5 -23.5t34 -17t48 -13.5t55 -11t65 -11t68.5 -12.5q89 -17 151 -38.5t116.5 -58.5t82 -95.5t27.5 -139.5q0 -183 -136.5 -281
t-392.5 -98q-461 0 -530 330z" />
    <glyph glyph-name="uni0162" unicode="&#x162;" horiz-adv-x="1292" 
d="M825 0h-96q0 -58 -59 -98l20 -25q24 12 60 12q81 0 131.5 -49t50.5 -127q0 -107 -86.5 -171t-218.5 -64q-147 0 -234 67l49 160q83 -57 183 -57q47 0 74.5 20t27.5 56q0 29 -18 45t-47 16q-22 0 -54 -12l-108 51l47 176h-80v1116h-444v318h1249v-318h-447v-1116z" />
    <glyph glyph-name="uni0163" unicode="&#x163;" horiz-adv-x="944" 
d="M717 -111q81 0 131.5 -49t50.5 -127q0 -107 -86.5 -171t-218.5 -64q-147 0 -234 67l50 160q83 -57 182 -57q47 0 74.5 20t27.5 56q0 29 -18 45t-47 16q-22 0 -54 -12l-108 51l43 164q-148 24 -212.5 122.5t-64.5 262.5v428h-213v284h213v267l349 61v-328h311v-284h-311
v-355q0 -81 25 -114t106 -33q69 0 145 31l-45 -324q-56 -14 -119 -22q-7 -48 -57 -82l20 -25q24 12 60 12z" />
    <glyph glyph-name="Tcaron" unicode="&#x164;" horiz-adv-x="1292" 
d="M1047 1892l-220 -325h-366l-219 325h299l28 -61q29 -63 37 -113h76q8 50 37 113l29 61h299zM23 1434h1249v-318h-447v-1116h-358v1116h-444v318z" />
    <glyph glyph-name="tcaron" unicode="&#x165;" horiz-adv-x="854" 
d="M1106 1419l-145 -245l-144 69l88 150q-53 15 -82.5 55.5t-29.5 97.5q0 77 51.5 121.5t128.5 44.5q79 0 127.5 -46t48.5 -120q0 -61 -43 -127zM610 -29q-204 0 -290.5 102t-86.5 292v436h-213v284h213v267l349 61v-328h311v-284h-311v-363q0 -81 25 -114t106 -33
q69 0 145 31l-45 -324q-102 -27 -203 -27z" />
    <glyph glyph-name="Tbar" unicode="&#x166;" horiz-adv-x="1363" 
d="M1307 1434v-318h-447v-282h281v-285h-281v-549h-358v549h-279v285h279v282h-445v318h1250z" />
    <glyph glyph-name="tbar" unicode="&#x167;" horiz-adv-x="944" 
d="M893 1085v-284h-311v-115h311l-41 -240h-270v-8q0 -81 25 -114t106 -33q69 0 145 31l-45 -324q-102 -27 -203 -27q-204 0 -290.5 102t-86.5 292v81h-213v240h213v115h-213v284h213v267l349 61v-328h311z" />
    <glyph glyph-name="Umacron" unicode="&#x16a;" horiz-adv-x="1456" 
d="M362 1577v240h732v-240h-732zM117 553v881h358v-854q0 -152 63.5 -225.5t190.5 -73.5q252 0 252 299v854h358v-881q0 -283 -160 -437.5t-450 -154.5t-451 154.5t-161 437.5z" />
    <glyph glyph-name="umacron" unicode="&#x16b;" horiz-adv-x="1333" 
d="M295 1270v239h731v-239h-731zM1231 1085v-1085h-330v6q11 47 51 150l-106 34q-46 -110 -146 -169.5t-223 -59.5q-175 0 -280 115.5t-105 331.5v677h348v-614q0 -95 53 -148t150 -53q74 0 137.5 31t102.5 88v696h348z" />
    <glyph glyph-name="Uring" unicode="&#x16e;" horiz-adv-x="1456" 
d="M391 1810q0 132 93.5 207.5t244.5 75.5q155 0 245.5 -77t90.5 -206q0 -132 -92.5 -207t-243.5 -75q-157 0 -247.5 76.5t-90.5 205.5zM610 1810q0 -52 32 -80t87 -28t86 29t31 79q0 52 -32 80.5t-85 28.5q-56 0 -87.5 -29.5t-31.5 -79.5zM117 553v881h358v-854
q0 -152 63.5 -225.5t190.5 -73.5q252 0 252 299v854h358v-881q0 -283 -160 -437.5t-450 -154.5t-451 154.5t-161 437.5z" />
    <glyph glyph-name="uring" unicode="&#x16f;" horiz-adv-x="1333" 
d="M324 1503q0 132 93.5 207.5t244.5 75.5q155 0 245 -77t90 -206q0 -132 -92 -207t-243 -75q-157 0 -247.5 76.5t-90.5 205.5zM543 1503q0 -52 32 -80t87 -28t85.5 29t30.5 79q0 52 -31.5 80.5t-84.5 28.5q-56 0 -87.5 -29.5t-31.5 -79.5zM1231 1085v-1085h-330v6
q11 47 51 150l-106 34q-46 -110 -146 -169.5t-223 -59.5q-175 0 -280 115.5t-105 331.5v677h348v-614q0 -95 53 -148t150 -53q74 0 137.5 31t102.5 88v696h348z" />
    <glyph glyph-name="Uhungarumlaut" unicode="&#x170;" horiz-adv-x="1456" 
d="M485 1892h355l-185 -325h-252zM991 1892h355l-273 -325h-272zM117 553v881h358v-854q0 -152 63.5 -225.5t190.5 -73.5q252 0 252 299v854h358v-881q0 -283 -160 -437.5t-450 -154.5t-451 154.5t-161 437.5z" />
    <glyph glyph-name="uhungarumlaut" unicode="&#x171;" horiz-adv-x="1333" 
d="M418 1585h354l-184 -325h-252zM924 1585h354l-272 -325h-273zM1231 1085v-1085h-330v6q11 47 51 150l-106 34q-46 -110 -146 -169.5t-223 -59.5q-175 0 -280 115.5t-105 331.5v677h348v-614q0 -95 53 -148t150 -53q74 0 137.5 31t102.5 88v696h348z" />
    <glyph glyph-name="Uogonek" unicode="&#x172;" horiz-adv-x="1456" 
d="M981 580v854h358v-881q0 -260 -134.5 -411.5t-383.5 -176.5q-35 -35 -35 -82q0 -44 31 -69t86 -25q78 0 141 47l66 -184q-41 -31 -109 -49.5t-139 -18.5q-132 0 -211.5 68.5t-79.5 175.5q0 76 50 139q-241 28 -372.5 179.5t-131.5 406.5v881h358v-854q0 -152 63.5 -225.5
t190.5 -73.5q252 0 252 299z" />
    <glyph glyph-name="uogonek" unicode="&#x173;" horiz-adv-x="1333" 
d="M1251 -184l66 -185q-41 -31 -109 -49t-139 -18q-132 0 -211.5 68t-79.5 175q0 63 32.5 116t90.5 87q12 50 51 146l-106 34q-46 -110 -146 -169.5t-223 -59.5q-175 0 -280 115.5t-105 331.5v677h348v-614q0 -95 53 -148t150 -53q74 0 137.5 31t102.5 88v696h348v-1085h-51
q-90 -6 -138.5 -43.5t-48.5 -93.5q0 -44 31 -69t86 -25q78 0 141 47z" />
    <glyph glyph-name="Wcircumflex" unicode="&#x174;" horiz-adv-x="2011" 
d="M901 1567h-299l219 325h367l219 -325h-299l-29 61q-29 63 -37 113h-75q-8 -50 -37 -113zM338 0l-330 1434h371l98 -506q21 -111 23 -268t-4 -230h133q16 255 82 481l153 523h281l160 -535q62 -208 79 -469h134q-6 78 -6 230t20 255l100 519h371l-328 -1434h-397l-145 500
q-41 143 -62.5 285.5t-19.5 248.5h-93q3 -218 -86 -536l-143 -498h-391z" />
    <glyph glyph-name="wcircumflex" unicode="&#x175;" horiz-adv-x="1753" 
d="M772 1260h-299l219 325h367l219 -325h-299l-29 61q-29 63 -37 113h-75q-8 -50 -37 -113zM266 0l-274 1085h352l47 -245q34 -184 31 -494h110q10 120 36.5 225.5t99.5 333.5l57 180h303l57 -180q74 -227 101 -332.5t35 -226.5h110q0 339 31 494l47 245h352l-272 -1085
h-393l-41 133q-68 218 -90.5 350t-28.5 316h-119q-6 -183 -29.5 -321t-87.5 -345l-41 -133h-393z" />
    <glyph glyph-name="Ycircumflex" unicode="&#x176;" horiz-adv-x="1427" 
d="M610 1567h-299l219 325h367l219 -325h-299l-29 61q-27 60 -36 113h-76q-8 -50 -37 -113zM535 539l-543 895h416l86 -179q3 -7 27.5 -57.5t34 -72t30 -71t30.5 -83t20 -78.5t13 -84h135q4 58 16.5 113.5t39.5 122.5t42 99.5t54 112.5l84 177h416l-541 -895v-539h-360v539z
" />
    <glyph glyph-name="ycircumflex" unicode="&#x177;" horiz-adv-x="1280" 
d="M535 1260h-299l219 325h366l219 -325h-299l-28 61q-29 63 -37 113h-76q-8 -50 -37 -113zM244 -500q-112 0 -191 39v307q63 -24 146 -24q162 0 215 141l35 88l-461 1034h391l131 -360q62 -181 70 -342h120q8 169 72 342l129 360h387l-547 -1226q-15 -34 -28 -60.5
t-37.5 -65.5t-51 -69t-66 -62t-84 -53.5t-104 -35t-126.5 -13.5z" />
    <glyph glyph-name="Ydieresis" unicode="&#x178;" horiz-adv-x="1427" 
d="M457 1528q-99 0 -157 50t-58 148t58 148.5t157 50.5t157 -50.5t58 -148.5t-58 -148t-157 -50zM971 1528q-99 0 -157 50t-58 148t58 148.5t157 50.5t157 -50.5t58 -148.5t-58 -148t-157 -50zM535 539l-543 895h416l86 -179q3 -7 27.5 -57.5t34 -72t30 -71t30.5 -83
t20 -78.5t13 -84h135q4 58 16.5 113.5t39.5 122.5t42 99.5t54 112.5l84 177h416l-541 -895v-539h-360v539z" />
    <glyph glyph-name="Zacute" unicode="&#x179;" horiz-adv-x="1343" 
d="M629 1892h375l-205 -325h-252zM1272 0h-1196v281l743 903l-86 90q-72 -82 -144.5 -120t-191.5 -38h-299v318h1143v-281l-747 -903l86 -90q33 38 59.5 61.5t68 48t97.5 36t129 11.5h338v-317z" />
    <glyph glyph-name="zacute" unicode="&#x17a;" horiz-adv-x="1089" 
d="M506 1585h375l-205 -325h-252zM1042 0h-985v276l584 562l-82 90q-71 -73 -125 -100t-153 -27h-209v284h952v-276l-584 -561l80 -90q71 72 128.5 99.5t154.5 27.5h239v-285z" />
    <glyph glyph-name="Zdotaccent" unicode="&#x17b;" horiz-adv-x="1343" 
d="M674 1528q-99 0 -157 50t-58 148t58 148.5t157 50.5t157 -50.5t58 -148.5t-58 -148t-157 -50zM1272 0h-1196v281l743 903l-86 90q-72 -82 -144.5 -120t-191.5 -38h-299v318h1143v-281l-747 -903l86 -90q33 38 59.5 61.5t68 48t97.5 36t129 11.5h338v-317z" />
    <glyph glyph-name="zdotaccent" unicode="&#x17c;" horiz-adv-x="1089" 
d="M551 1221q-99 0 -157 50t-58 148t58 148.5t157 50.5t157 -50.5t58 -148.5t-58 -148t-157 -50zM1042 0h-985v276l584 562l-82 90q-71 -73 -125 -100t-153 -27h-209v284h952v-276l-584 -561l80 -90q71 72 128.5 99.5t154.5 27.5h239v-285z" />
    <glyph glyph-name="Zcaron" unicode="&#x17d;" horiz-adv-x="1343" 
d="M489 1567l-219 325h299l29 -61q29 -63 37 -113h76q8 50 37 113l28 61h299l-219 -325h-367zM1272 0h-1196v281l743 903l-86 90q-72 -82 -144.5 -120t-191.5 -38h-299v318h1143v-281l-747 -903l86 -90q33 38 59.5 61.5t68 48t97.5 36t129 11.5h338v-317z" />
    <glyph glyph-name="zcaron" unicode="&#x17e;" horiz-adv-x="1089" 
d="M367 1260l-220 325h299l29 -61q29 -63 37 -113h76q8 50 37 113l28 61h299l-219 -325h-366zM1042 0h-985v276l584 562l-82 90q-71 -73 -125 -100t-153 -27h-209v284h952v-276l-584 -561l80 -90q71 72 128.5 99.5t154.5 27.5h239v-285z" />
    <glyph glyph-name="uni0218" unicode="&#x218;" horiz-adv-x="1331" 
d="M57 440l320 62q9 -116 94 -180t221 -64q100 0 158.5 40t58.5 112q0 69 -62 105.5t-231 62.5q-279 42 -397.5 148.5t-118.5 293.5q0 213 154 331.5t412 118.5q256 0 422.5 -117t183.5 -309l-332 -75q-40 213 -278 213q-99 0 -151 -35t-52 -96q0 -22 4.5 -39t18 -31.5
t27 -25t42 -21t52 -17.5t68 -15.5t79.5 -14t96 -15.5q225 -37 324.5 -146t99.5 -292q0 -148 -77 -256t-211 -162.5t-310 -54.5q-279 0 -440 129.5t-175 349.5zM483 -135h375l-205 -326h-252z" />
    <glyph glyph-name="uni0219" unicode="&#x219;" horiz-adv-x="1150" 
d="M43 291l287 102q25 -84 93.5 -128t174.5 -44q74 0 113 22.5t39 65.5q0 18 -6.5 32t-21.5 24t-30 17t-42.5 13t-49 10t-58 10t-61.5 11q-65 12 -116.5 27.5t-107 43t-92.5 63t-61 89.5t-24 121q0 167 136.5 260.5t363.5 93.5q213 0 351.5 -83t172.5 -226l-273 -90
q-62 141 -268 141q-139 0 -139 -75q0 -17 7 -30.5t23.5 -23.5t34 -17t48 -13.5t55 -11t65 -11t68.5 -12.5q89 -17 151 -38.5t116.5 -58.5t82 -95.5t27.5 -139.5q0 -183 -136.5 -281t-392.5 -98q-461 0 -530 330zM367 -135h374l-204 -326h-252z" />
    <glyph glyph-name="uni021A" unicode="&#x21a;" horiz-adv-x="1292" 
d="M23 1116v318h1249v-318h-447v-1116h-358v1116h-444zM625 -461h-252l82 326h374z" />
    <glyph glyph-name="uni021B" unicode="&#x21b;" horiz-adv-x="944" 
d="M610 -20q-204 0 -290.5 101.5t-86.5 291.5v428h-213v284h213v267l349 61v-328h311v-284h-311v-355q0 -81 25 -114t106 -33q69 0 145 31l-45 -324q-98 -26 -203 -26zM422 -135h375l-205 -326h-252z" />
    <glyph glyph-name="uni0237" unicode="&#x237;" horiz-adv-x="552" 
d="M449 1085v-1101q0 -235 -119.5 -359.5t-360.5 -124.5q-69 0 -110 13l-47 284q35 -6 77 -6q116 0 160.5 49.5t44.5 171.5v1073h355z" />
    <glyph glyph-name="circumflex" unicode="&#x2c6;" horiz-adv-x="956" 
d="M375 1260h-299l219 325h367l219 -325h-299l-29 61q-29 63 -37 113h-76q-8 -50 -37 -113z" />
    <glyph glyph-name="caron" unicode="&#x2c7;" horiz-adv-x="956" 
d="M295 1260l-219 325h299l28 -61q29 -63 37 -113h76q8 50 37 113l29 61h299l-219 -325h-367z" />
    <glyph glyph-name="breve" unicode="&#x2d8;" horiz-adv-x="919" 
d="M61 1585h277q0 -68 33.5 -102.5t89.5 -34.5q121 0 121 137h276q0 -154 -109.5 -249t-287.5 -95q-180 0 -290 95t-110 249z" />
    <glyph glyph-name="dotaccent" unicode="&#x2d9;" horiz-adv-x="516" 
d="M258 1221q-99 0 -157 50t-58 148t58 148.5t157 50.5t157 -50.5t58 -148.5t-58 -148t-157 -50z" />
    <glyph glyph-name="ring" unicode="&#x2da;" horiz-adv-x="763" 
d="M45 1503q0 132 93.5 207.5t244.5 75.5q155 0 245.5 -77t90.5 -206q0 -132 -92.5 -207t-243.5 -75q-157 0 -247.5 76.5t-90.5 205.5zM264 1503q0 -52 32 -80t87 -28t86 29t31 79q0 52 -32 80.5t-85 28.5q-56 0 -87.5 -29.5t-31.5 -79.5z" />
    <glyph glyph-name="ogonek" unicode="&#x2db;" horiz-adv-x="745" 
d="M389 57l121 -18v-39q-89 -6 -137.5 -43.5t-48.5 -93.5q0 -44 30.5 -69t85.5 -25q79 0 142 47l65 -185q-41 -31 -109 -49t-139 -18q-132 0 -211 68t-79 175q0 100 77 169t203 81z" />
    <glyph glyph-name="tilde" unicode="&#x2dc;" horiz-adv-x="808" 
d="M244 1219h-187q-21 192 30.5 290.5t158.5 98.5q61 0 110.5 -27.5t108.5 -79.5q42 -39 67 -39q24 0 31.5 35t-0.5 111h187q21 -192 -30.5 -290.5t-158.5 -98.5q-60 0 -112 28.5t-107 77.5q-42 39 -68 39q-24 0 -31 -34t1 -111z" />
    <glyph glyph-name="hungarumlaut" unicode="&#x2dd;" horiz-adv-x="1169" 
d="M197 1585h354l-184 -325h-252zM702 1585h355l-273 -325h-272z" />
    <glyph glyph-name="gravecomb" unicode="&#x300;" 
d="M-313 1260l-205 325h375l82 -325h-252z" />
    <glyph glyph-name="acutecomb" unicode="&#x301;" 
d="M-436 1585h375l-205 -325h-252z" />
    <glyph glyph-name="uni0302" unicode="&#x302;" 
d="M-582 1260h-299l219 325h367l219 -325h-299l-28 61q-29 63 -37 113h-76q-8 -50 -37 -113z" />
    <glyph glyph-name="tildecomb" unicode="&#x303;" 
d="M-565 1219h-187q-21 192 30.5 290.5t158.5 98.5q61 0 110.5 -27.5t108.5 -79.5q42 -39 68 -39q24 0 31 35t-1 111h187q21 -192 -30.5 -290.5t-158.5 -98.5q-60 0 -112 28.5t-107 77.5q-42 39 -68 39q-24 0 -31 -34t1 -111z" />
    <glyph glyph-name="uni0304" unicode="&#x304;" 
d="M-879 1270v239h732v-239h-732z" />
    <glyph glyph-name="uni0306" unicode="&#x306;" 
d="M-858 1585h276q0 -68 33.5 -102.5t89.5 -34.5q121 0 121 137h277q0 -154 -110 -249t-288 -95q-180 0 -289.5 95t-109.5 249z" />
    <glyph glyph-name="uni0307" unicode="&#x307;" 
d="M-258 1221q-99 0 -157 50t-58 148t58 148.5t157 50.5t157 -50.5t58 -148.5t-58 -148t-157 -50z" />
    <glyph glyph-name="uni0308" unicode="&#x308;" 
d="M-782 1221q-99 0 -157 50t-58 148t58 148.5t157 50.5t157 -50.5t58 -148.5t-58 -148t-157 -50zM-268 1221q-99 0 -157 50t-58 148t58 148.5t157 50.5t157 -50.5t58 -148.5t-58 -148t-157 -50z" />
    <glyph glyph-name="uni030A" unicode="&#x30a;" 
d="M-719 1503q0 132 93.5 207.5t244.5 75.5q155 0 245.5 -77t90.5 -206q0 -132 -92.5 -207t-243.5 -75q-157 0 -247.5 76.5t-90.5 205.5zM-500 1503q0 -52 32 -80t87 -28t86 29t31 79q0 52 -32 80.5t-85 28.5q-56 0 -87.5 -29.5t-31.5 -79.5z" />
    <glyph glyph-name="uni030B" unicode="&#x30b;" 
d="M-973 1585h355l-185 -325h-252zM-467 1585h354l-272 -325h-272z" />
    <glyph glyph-name="uni030C" unicode="&#x30c;" 
d="M-662 1260l-219 325h299l29 -61q29 -63 37 -113h76q8 50 37 113l28 61h299l-219 -325h-367z" />
    <glyph glyph-name="uni0312" unicode="&#x312;" 
d="M-424 1556l168 281l164 -80l-101 -170q60 -19 95 -65.5t35 -110.5q0 -89 -59 -139.5t-148 -50.5q-92 0 -147.5 52t-55.5 138q0 67 49 145z" />
    <glyph glyph-name="uni0326" unicode="&#x326;" 
d="M-477 -135h375l-205 -326h-252z" />
    <glyph glyph-name="uni0327" unicode="&#x327;" 
d="M-352 -98l20 -25q24 12 60 12q81 0 131.5 -49t50.5 -127q0 -107 -86.5 -171t-218.5 -64q-147 0 -234 67l49 160q83 -57 183 -57q47 0 74.5 20t27.5 56q0 29 -18 45t-47 16q-22 0 -54 -12l-108 51l51 190h178v-14q0 -58 -59 -98z" />
    <glyph glyph-name="uni0328" unicode="&#x328;" 
d="M-356 57l120 -18v-39q-89 -6 -137.5 -43.5t-48.5 -93.5q0 -44 31 -69t86 -25q78 0 141 47l66 -185q-41 -31 -109 -49t-139 -18q-132 0 -211.5 68t-79.5 175q0 100 77.5 169t203.5 81z" />
    <glyph glyph-name="Wgrave" unicode="&#x1e80;" horiz-adv-x="2011" 
d="M879 1567l-205 325h375l81 -325h-251zM338 0l-330 1434h371l98 -506q21 -111 23 -268t-4 -230h133q16 255 82 481l153 523h281l160 -535q62 -208 79 -469h134q-6 78 -6 230t20 255l100 519h371l-328 -1434h-397l-145 500q-41 143 -62.5 285.5t-19.5 248.5h-93
q3 -218 -86 -536l-143 -498h-391z" />
    <glyph glyph-name="wgrave" unicode="&#x1e81;" horiz-adv-x="1753" 
d="M750 1260l-205 325h375l81 -325h-251zM266 0l-274 1085h352l47 -245q34 -184 31 -494h110q10 120 36.5 225.5t99.5 333.5l57 180h303l57 -180q74 -227 101 -332.5t35 -226.5h110q0 339 31 494l47 245h352l-272 -1085h-393l-41 133q-68 218 -90.5 350t-28.5 316h-119
q-6 -183 -29.5 -321t-87.5 -345l-41 -133h-393z" />
    <glyph glyph-name="Wacute" unicode="&#x1e82;" horiz-adv-x="2011" 
d="M961 1892h374l-205 -325h-251zM338 0l-330 1434h371l98 -506q21 -111 23 -268t-4 -230h133q16 255 82 481l153 523h281l160 -535q62 -208 79 -469h134q-6 78 -6 230t20 255l100 519h371l-328 -1434h-397l-145 500q-41 143 -62.5 285.5t-19.5 248.5h-93q3 -218 -86 -536
l-143 -498h-391z" />
    <glyph glyph-name="wacute" unicode="&#x1e83;" horiz-adv-x="1753" 
d="M831 1585h375l-205 -325h-251zM266 0l-274 1085h352l47 -245q34 -184 31 -494h110q10 120 36.5 225.5t99.5 333.5l57 180h303l57 -180q74 -227 101 -332.5t35 -226.5h110q0 339 31 494l47 245h352l-272 -1085h-393l-41 133q-68 218 -90.5 350t-28.5 316h-119
q-6 -183 -29.5 -321t-87.5 -345l-41 -133h-393z" />
    <glyph glyph-name="Wdieresis" unicode="&#x1e84;" horiz-adv-x="2011" 
d="M748 1528q-99 0 -157.5 50t-58.5 148t58.5 148.5t157.5 50.5t157 -50.5t58 -148.5t-58 -148t-157 -50zM1262 1528q-99 0 -157 50t-58 148t58 148.5t157 50.5t157 -50.5t58 -148.5t-58 -148t-157 -50zM338 0l-330 1434h371l98 -506q21 -111 23 -268t-4 -230h133
q16 255 82 481l153 523h281l160 -535q62 -208 79 -469h134q-6 78 -6 230t20 255l100 519h371l-328 -1434h-397l-145 500q-41 143 -62.5 285.5t-19.5 248.5h-93q3 -218 -86 -536l-143 -498h-391z" />
    <glyph glyph-name="wdieresis" unicode="&#x1e85;" horiz-adv-x="1753" 
d="M618 1221q-99 0 -157 50t-58 148t58 148.5t157 50.5t157.5 -50.5t58.5 -148.5t-58.5 -148t-157.5 -50zM1133 1221q-99 0 -157 50t-58 148t58 148.5t157 50.5t157 -50.5t58 -148.5t-58 -148t-157 -50zM266 0l-274 1085h352l47 -245q34 -184 31 -494h110q10 120 36.5 225.5
t99.5 333.5l57 180h303l57 -180q74 -227 101 -332.5t35 -226.5h110q0 339 31 494l47 245h352l-272 -1085h-393l-41 133q-68 218 -90.5 350t-28.5 316h-119q-6 -183 -29.5 -321t-87.5 -345l-41 -133h-393z" />
    <glyph glyph-name="uni1E9E" unicode="&#x1e9e;" horiz-adv-x="1476" 
d="M870 -39q-154 0 -223 37v305q50 -31 154 -31q125 0 188.5 49.5t63.5 137.5q0 85 -58.5 132.5t-156.5 47.5q-79 0 -109 -12v190l258 268v33h-502v-1118h-364v1434h1202v-410l-182 -186v-66q124 -26 200 -130t76 -247q0 -195 -150.5 -314.5t-396.5 -119.5z" />
    <glyph glyph-name="Ygrave" unicode="&#x1ef2;" horiz-adv-x="1427" 
d="M588 1567l-205 325h375l82 -325h-252zM535 539l-543 895h416l86 -179q3 -7 27.5 -57.5t34 -72t30 -71t30.5 -83t20 -78.5t13 -84h135q4 58 16.5 113.5t39.5 122.5t42 99.5t54 112.5l84 177h416l-541 -895v-539h-360v539z" />
    <glyph glyph-name="ygrave" unicode="&#x1ef3;" horiz-adv-x="1280" 
d="M512 1260l-205 325h375l82 -325h-252zM244 -500q-112 0 -191 39v307q63 -24 146 -24q162 0 215 141l35 88l-461 1034h391l131 -360q62 -181 70 -342h120q8 169 72 342l129 360h387l-547 -1226q-15 -34 -28 -60.5t-37.5 -65.5t-51 -69t-66 -62t-84 -53.5t-104 -35
t-126.5 -13.5z" />
    <glyph glyph-name="endash" unicode="&#x2013;" horiz-adv-x="1161" 
d="M72 510v297h1018v-297h-1018z" />
    <glyph glyph-name="emdash" unicode="&#x2014;" horiz-adv-x="1775" 
d="M86 510v297h1602v-297h-1602z" />
    <glyph glyph-name="quoteleft" unicode="&#x2018;" horiz-adv-x="598" 
d="M156 1120l209 350l155 -75l-137 -236q71 -14 111.5 -62.5t40.5 -129.5q0 -98 -58.5 -148.5t-157.5 -50.5t-157 50.5t-58 148.5q0 67 52 153z" />
    <glyph glyph-name="quoteright" unicode="&#x2019;" horiz-adv-x="598" 
d="M440 1118l-209 -350l-155 76l137 235q-71 14 -111.5 63t-40.5 130q0 98 58 148t157 50t157.5 -50t58.5 -148q0 -68 -52 -154z" />
    <glyph glyph-name="quotesinglbase" unicode="&#x201a;" horiz-adv-x="626" 
d="M440 23l-209 -351l-155 76l137 236q-71 14 -111.5 62.5t-40.5 129.5q0 98 58 148.5t157 50.5t157.5 -50.5t58.5 -148.5q0 -67 -52 -153z" />
    <glyph glyph-name="quotedblleft" unicode="&#x201c;" horiz-adv-x="1126" 
d="M119 1120l209 350l155 -75l-137 -236q71 -14 111.5 -62.5t40.5 -129.5q0 -98 -58 -148.5t-157 -50.5t-157 50.5t-58 148.5q0 69 51 153zM651 1120l209 350l156 -75l-137 -236q71 -14 111 -62.5t40 -129.5q0 -98 -58 -148.5t-157 -50.5t-157 50.5t-58 148.5q0 69 51 153z
" />
    <glyph glyph-name="quotedblright" unicode="&#x201d;" horiz-adv-x="1128" 
d="M440 1118l-209 -350l-155 76l137 235q-71 14 -111.5 63t-40.5 130q0 98 58 148t157 50t157.5 -50t58.5 -148q0 -68 -52 -154zM973 1118l-209 -350l-156 76l137 235q-71 14 -111 63t-40 130q0 98 58 148t157 50t157 -50t58 -148q0 -70 -51 -154z" />
    <glyph glyph-name="quotedblbase" unicode="&#x201e;" horiz-adv-x="1128" 
d="M442 23l-209 -351l-155 76l137 236q-71 14 -111.5 62.5t-40.5 129.5q0 98 58.5 148.5t157.5 50.5t157 -50.5t58 -148.5q0 -67 -52 -153zM975 23l-209 -351l-156 76l138 236q-71 14 -111.5 62.5t-40.5 129.5q0 98 58 148.5t157 50.5t157 -50.5t58 -148.5q0 -69 -51 -153z
" />
    <glyph glyph-name="dagger" unicode="&#x2020;" horiz-adv-x="872" 
d="M567 1180h230v-246h-230v-649h-262v649h-229v246h229v254h262v-254z" />
    <glyph glyph-name="daggerdbl" unicode="&#x2021;" horiz-adv-x="872" 
d="M797 1180v-246h-230v-154h230v-245h-230v-250h-262v250h-229v245h229v154h-229v246h229v254h262v-254h230z" />
    <glyph glyph-name="bullet" unicode="&#x2022;" horiz-adv-x="878" 
d="M131 530q0 140 86.5 225t222.5 85q138 0 223 -85t85 -225q0 -142 -84.5 -225.5t-223.5 -83.5q-138 0 -223.5 84t-85.5 225z" />
    <glyph glyph-name="ellipsis" unicode="&#x2026;" horiz-adv-x="1740" 
d="M324 -23q-99 0 -157 50.5t-58 148.5t58 148.5t157 50.5t157 -50.5t58 -148.5t-58 -148.5t-157 -50.5zM870 -23q-99 0 -157 50.5t-58 148.5t58 148.5t157 50.5t157 -50.5t58 -148.5t-58 -148.5t-157 -50.5zM1417 -23q-99 0 -157 50.5t-58 148.5t58 148.5t157 50.5
t157 -50.5t58 -148.5t-58 -148.5t-157 -50.5z" />
    <glyph glyph-name="perthousand" unicode="&#x2030;" horiz-adv-x="2805" 
d="M1303 -16q-195 0 -316 113t-121 296q0 62 19 146l-76 12q-30 -206 -129 -334l-170 -217h-293v25l219 280q74 94 181 189t202 155l-53 64q-44 -44 -107 -68t-124 -24q-198 0 -308 117t-110 315q0 206 118 320t318 114q195 0 315.5 -113.5t120.5 -296.5q0 -65 -18 -145
l76 -12q30 205 129 333l170 217h292v-24l-219 -281q-74 -94 -181 -189t-202 -155l54 -63q44 44 107 68t124 24q198 0 308 -117t110 -315q0 -206 -118 -320t-318 -114zM553 842q72 0 109.5 47.5t37.5 161.5q0 103 -33.5 158t-113.5 55t-113.5 -55t-33.5 -158
q0 -114 37.5 -161.5t109.5 -47.5zM2253 -16q-86 0 -161.5 24.5t-139 74t-100.5 136.5t-37 201q0 112 37 197.5t100 135t139 73.5t162 24t162 -24t138.5 -73.5t99 -135t36.5 -197.5q0 -92 -24.5 -166.5t-66 -124t-98 -83t-118 -48t-129.5 -14.5zM1303 207q80 0 113.5 55
t33.5 158q0 114 -37.5 161.5t-109.5 47.5t-110 -47.5t-38 -161.5q0 -102 34 -157.5t114 -55.5zM2253 207q80 0 113.5 55t33.5 158q0 114 -37.5 161.5t-109.5 47.5t-110 -47.5t-38 -161.5q0 -102 34 -157.5t114 -55.5z" />
    <glyph glyph-name="guilsinglleft" unicode="&#x2039;" horiz-adv-x="704" 
d="M391 580l260 -482h-338l-262 482l262 481h338z" />
    <glyph glyph-name="guilsinglright" unicode="&#x203a;" horiz-adv-x="706" 
d="M395 98h-338l260 482l-260 481h338l262 -481z" />
    <glyph glyph-name="fraction" unicode="&#x2044;" horiz-adv-x="317" 
d="M-496 0l1078 1434h231l-1077 -1434h-232z" />
    <glyph glyph-name="uni2070" unicode="&#x2070;" horiz-adv-x="956" 
d="M477 598q-192 0 -298.5 132t-106.5 353q0 230 110.5 359t294.5 129q192 0 300 -132.5t108 -355.5q0 -228 -111 -356.5t-297 -128.5zM477 811q91 0 129.5 71t38.5 201q0 275 -168 275q-91 0 -128.5 -72.5t-37.5 -202.5q0 -272 166 -272z" />
    <glyph glyph-name="uni2074" unicode="&#x2074;" horiz-adv-x="972" 
d="M764 614h-240v170h-485v193l455 569h270v-567h151v-195h-151v-170zM541 1356l-293 -387l43 -45q28 26 80 40.5t108 14.5h45v94q0 76 19.5 126.5t64.5 92.5z" />
    <glyph glyph-name="uni2075" unicode="&#x2075;" horiz-adv-x="948" 
d="M63 889l216 53q11 -80 64 -118t134 -38q82 0 124 39.5t42 106.5q0 68 -41.5 105.5t-120.5 37.5q-55 0 -104.5 -19.5t-79.5 -54.5l-191 54l62 491h623v-194h-422l-4 -25q-9 -66 -84 -131l67 -53q34 53 92 79.5t125 26.5q146 0 232 -87t86 -232q0 -161 -110 -251.5
t-292 -90.5q-178 0 -292 83.5t-126 217.5z" />
    <glyph glyph-name="uni2076" unicode="&#x2076;" horiz-adv-x="974" 
d="M502 588q-210 0 -320 131t-110 364q0 228 122.5 358t323.5 130q146 0 248.5 -68.5t124.5 -179.5l-242 -49q-17 46 -55 72t-86 26q-83 0 -138.5 -64.5t-58.5 -203.5l58 -10q25 61 90 94t147 33q136 0 217.5 -78.5t81.5 -220.5q0 -151 -107.5 -242.5t-295.5 -91.5zM508 786
q72 0 115 38.5t43 103.5q0 63 -40 97t-114 34q-121 0 -188 -80q0 -91 49 -142t135 -51z" />
    <glyph glyph-name="uni2077" unicode="&#x2077;" horiz-adv-x="774" 
d="M172 1350h-135v196h713v-180l-349 -752h-276v11l248 510q41 85 83.5 141.5t110.5 116.5l-55 75q-58 -58 -136.5 -88t-203.5 -30z" />
    <glyph glyph-name="uni2078" unicode="&#x2078;" horiz-adv-x="987" 
d="M66 864q0 80 53.5 134t142.5 69v63q-74 19 -117 61.5t-43 121.5q0 117 107.5 187.5t284.5 70.5q178 0 284.5 -71t106.5 -187q0 -144 -160 -183v-63q90 -15 143.5 -69t53.5 -134q0 -134 -114.5 -205t-313.5 -71t-313.5 71t-114.5 205zM342 1276q0 -47 41 -77t111 -30
t110.5 30t40.5 77q0 104 -151 104q-152 0 -152 -104zM307 909q0 -125 187 -125q186 0 186 125q0 56 -47.5 89.5t-138.5 33.5t-139 -33.5t-48 -89.5z" />
    <glyph glyph-name="uni2079" unicode="&#x2079;" horiz-adv-x="976" 
d="M475 1571q211 0 319.5 -131.5t108.5 -364.5q0 -227 -121.5 -357t-322.5 -130q-147 0 -250 69t-123 179l242 51q17 -48 55 -74.5t86 -26.5q85 0 139.5 67t57.5 202l-60 12q-23 -60 -87 -94.5t-150 -34.5q-136 0 -217.5 79t-81.5 222q0 150 108 241t297 91zM469 1372
q-72 0 -116 -38t-44 -103q0 -62 40 -96.5t116 -34.5q57 0 107 21.5t79 58.5q0 92 -48.5 142t-133.5 50z" />
    <glyph glyph-name="uni2080" unicode="&#x2080;" horiz-adv-x="956" 
d="M477 -133q-192 0 -298.5 132t-106.5 353q0 230 110.5 359t294.5 129q192 0 300 -132.5t108 -355.5q0 -228 -111 -356.5t-297 -128.5zM477 80q91 0 129.5 71t38.5 201q0 275 -168 275q-91 0 -128.5 -72.5t-37.5 -202.5q0 -272 166 -272z" />
    <glyph glyph-name="uni2081" unicode="&#x2081;" horiz-adv-x="843" 
d="M575 -113h-241v367q0 88 22 153.5t78 118.5l-55 56q-120 -115 -273 -129v204q101 17 186 62t124 100h159v-932z" />
    <glyph glyph-name="uni2082" unicode="&#x2082;" horiz-adv-x="874" 
d="M807 -113h-744v183l383 268q113 79 113 176q0 62 -33 96.5t-88 34.5q-66 0 -103.5 -41.5t-37.5 -126.5l-227 23q0 158 97 251t277 93q157 0 255 -86.5t98 -227.5q0 -108 -51 -187t-193 -171q-70 -47 -188 -104l34 -74q51 22 76.5 31.5t79.5 27t108 25.5t111 8h33v-199z
" />
    <glyph glyph-name="uni2083" unicode="&#x2083;" horiz-adv-x="921" 
d="M461 -133q-189 0 -289 80t-111 229l211 53q21 -163 193 -163q149 0 149 114q0 105 -151 105h-103v170h89q141 0 141 100q0 48 -32 74t-93 26q-77 0 -120.5 -41.5t-51.5 -113.5l-215 49q10 140 121 220.5t272 80.5q172 0 265 -69.5t93 -180.5q0 -79 -48 -127.5t-132 -64.5
v-68q92 -4 148.5 -59t56.5 -138q0 -127 -105 -201.5t-288 -74.5z" />
    <glyph glyph-name="uni2084" unicode="&#x2084;" horiz-adv-x="972" 
d="M764 -113h-240v170h-485v193l455 569h270v-567h151v-195h-151v-170zM541 629l-293 -387l43 -45q28 26 80 40.5t108 14.5h45v94q0 76 19.5 126.5t64.5 92.5z" />
    <glyph glyph-name="uni2085" unicode="&#x2085;" horiz-adv-x="948" 
d="M63 168l216 53q11 -80 64 -117.5t134 -37.5q82 0 124 39t42 106q0 68 -41.5 105.5t-120.5 37.5q-55 0 -104.5 -19t-79.5 -54l-191 53l62 491h623v-194h-422l-4 -21q-17 -78 -84 -135l67 -53q34 53 92 79.5t125 26.5q146 0 232 -87t86 -232q0 -161 -110 -251.5t-292 -90.5
q-178 0 -292 83.5t-126 217.5z" />
    <glyph glyph-name="uni2086" unicode="&#x2086;" horiz-adv-x="974" 
d="M502 -133q-210 0 -320 131t-110 364q0 228 122.5 358t323.5 130q146 0 248.5 -68.5t124.5 -179.5l-242 -49q-17 46 -55 72t-86 26q-83 0 -138.5 -64.5t-58.5 -203.5l58 -10q25 61 90 94t147 33q136 0 217.5 -78.5t81.5 -220.5q0 -151 -107.5 -242.5t-295.5 -91.5zM508 66
q72 0 115 38.5t43 102.5q0 63 -40 97t-114 34q-121 0 -188 -80q0 -91 49 -141.5t135 -50.5z" />
    <glyph glyph-name="uni2087" unicode="&#x2087;" horiz-adv-x="774" 
d="M172 623h-135v196h713v-180l-349 -752h-276v11l248 510q41 85 83.5 141.5t110.5 116.5l-55 75q-58 -58 -136.5 -88t-203.5 -30z" />
    <glyph glyph-name="uni2088" unicode="&#x2088;" horiz-adv-x="987" 
d="M66 143q0 80 53.5 134t142.5 69v64q-75 19 -117.5 61t-42.5 121q0 117 107.5 187.5t284.5 70.5q178 0 284.5 -71t106.5 -187q0 -143 -160 -182v-64q90 -15 143.5 -69t53.5 -134q0 -134 -114.5 -205t-313.5 -71t-313.5 71t-114.5 205zM342 555q0 -47 40.5 -76.5
t111.5 -29.5q70 0 110.5 29.5t40.5 76.5q0 104 -151 104q-152 0 -152 -104zM307 188q0 -125 187 -125q186 0 186 125q0 56 -47.5 89.5t-138.5 33.5t-139 -33.5t-48 -89.5z" />
    <glyph glyph-name="uni2089" unicode="&#x2089;" horiz-adv-x="976" 
d="M475 850q211 0 319.5 -131.5t108.5 -364.5q0 -227 -121.5 -357t-322.5 -130q-147 0 -250 69t-123 179l242 51q17 -48 54.5 -74t86.5 -26q85 0 139.5 66.5t57.5 201.5l-60 12q-23 -60 -87 -94.5t-150 -34.5q-136 0 -217.5 79t-81.5 222q0 150 108 241t297 91zM469 651
q-72 0 -116 -38t-44 -103q0 -62 40 -96.5t116 -34.5q57 0 107 21.5t79 58.5q0 92 -48.5 142t-133.5 50z" />
    <glyph glyph-name="uni20A9" unicode="&#x20a9;" horiz-adv-x="2105" 
d="M1919 838h178v-226h-231l-142 -612h-381l-161 530l-25 82h-215l-24 -84l-162 -528h-377l-141 612h-230v226h178l-137 596h377l98 -498l19 -98h192q4 18 23 82l149 514h287l158 -527l18 -69h191q2 14 16 86l102 510h377zM991 838h119q-12 99 -12 190h-92q0 -85 -15 -190z
M561 436h92l31 176h-117q3 -85 -6 -176zM1450 436h94q-9 94 -6 176h-117q24 -134 29 -176z" />
    <glyph glyph-name="uni20AA" unicode="&#x20aa;" horiz-adv-x="1677" 
d="M444 0h-323v1434h665q177 0 267 -88t90 -242v-737h-258v630q0 94 -40 127t-124 33h-277v-1157zM1233 1434h323v-1434h-665q-177 0 -266.5 88t-89.5 242v737h258v-631q0 -94 39.5 -127t123.5 -33h277v1158z" />
    <glyph glyph-name="Euro" unicode="&#x20ac;" horiz-adv-x="1691" 
d="M936 -39q-255 -3 -450.5 130t-272.5 355h-156v195h115q-2 25 -2 76v31h-113v194h142q68 240 269 387t468 144q260 0 448.5 -136.5t237.5 -361.5l-338 -92q-35 130 -125 200t-223 70q-104 0 -172 -30t-137 -97q-33 -29 -72 -74l31 -51q86 47 250 47h182v-200h-483v-31
q0 -26 4 -76h479v-201h-182q-142 0 -228 47l-33 -61q45 -45 93 -76q111 -69 268 -69q138 0 231 77t125 222l342 -84q-30 -164 -127.5 -286t-244.5 -185.5t-326 -63.5z" />
    <glyph glyph-name="uni20B9" unicode="&#x20b9;" horiz-adv-x="1126" 
d="M231 475h-110v270h323q176 0 222 101h-545v217h549q-43 100 -205 100h-344v271h1032v-217h-20q-40 0 -101 30.5t-98 65.5l-57 -66q56 -33 99.5 -81.5t51.5 -102.5h125v-217h-158q-45 -105 -148 -163t-251 -69v-82q45 -6 68.5 -11t59.5 -20t60.5 -39.5t55 -68t59.5 -106.5
l66 -140q22 -46 42.5 -73t51.5 -43v-31h-410q-30 23 -51 70l-100 219q-50 111 -102.5 148.5t-164.5 37.5z" />
    <glyph glyph-name="uni20BD" unicode="&#x20bd;" horiz-adv-x="1429" 
d="M152 1434h688q256 0 398 -128t142 -345q0 -223 -146.5 -347.5t-393.5 -124.5h-324v-94h260v-243h-260v-152h-364v152h-117v243h117v94h-117v271h117v674zM516 760h293q91 0 149 48t58 136q0 178 -203 178h-297v-362z" />
    <glyph glyph-name="uni20BF" unicode="&#x20bf;" horiz-adv-x="1396" 
d="M1325 377q0 -156 -102 -254t-303 -119v-244h-215v240h-154v-240h-215v240h-215v1434h215v237h215v-237h154v237h215v-239q168 -9 261 -97.5t93 -232.5q0 -125 -70 -204.5t-198 -98.5v-86q147 -12 233 -101t86 -235zM766 1126h-287v-247h287q145 0 145 125q0 122 -145 122
zM479 307h320q166 0 166 146q0 147 -166 147h-320v-293z" />
    <glyph glyph-name="uni2116" unicode="&#x2116;" horiz-adv-x="2652" 
d="M2073 551q-214 0 -351 127.5t-137 331.5t137 332t351 128t350.5 -128t136.5 -332t-136.5 -331.5t-350.5 -127.5zM121 0v1434h393l553 -881h4v881h359v-1434h-394l-553 862h-4v-862h-358zM2073 821q85 0 139.5 54t54.5 137q0 84 -54.5 137t-139.5 53t-140 -53t-55 -137
q0 -83 55 -137t140 -54zM2073 -23q-99 0 -157 50.5t-58 148.5t58 148.5t157 50.5t157 -50.5t58 -148.5t-58 -148.5t-157 -50.5z" />
    <glyph glyph-name="uni2117" unicode="&#x2117;" horiz-adv-x="1832" 
d="M915 -31q-224 0 -407 97.5t-291 279t-108 412.5q0 177 65.5 325t177 245.5t258 151.5t308.5 54q128 0 248 -33.5t221 -100t176.5 -158.5t118 -216.5t42.5 -267.5q0 -174 -63 -322.5t-172 -250t-257.5 -159t-316.5 -57.5zM915 158q272 0 438.5 165t166.5 433
q0 265 -166 427.5t-436 162.5q-272 0 -438.5 -161t-166.5 -425q0 -270 166 -436t436 -166zM864 358h-260v789h400q149 0 227 -70t78 -192q0 -120 -81 -192t-224 -72h-140v-263zM864 956v-165h92q93 0 93 81q0 84 -93 84h-92z" />
    <glyph glyph-name="trademark" unicode="&#x2122;" horiz-adv-x="1701" 
d="M268 813v426h-196v195h618v-195h-201v-426h-221zM975 813h-209v621h301l55 -154q25 -71 35.5 -121t9.5 -115h58q4 79 13.5 124t33.5 112l55 154h303v-621h-213v80q0 21 0.5 38t3 36t3.5 30t6.5 32.5t7.5 30t10.5 35.5t11.5 35t15 43.5t16 47.5l-76 26l-151 -434h-131
l-156 434l-72 -26q46 -136 58 -189.5t12 -138.5v-80z" />
    <glyph glyph-name="oneeighth" unicode="&#x215b;" horiz-adv-x="1738" 
d="M430 645h-217v285q0 154 90 241l-49 50q-105 -102 -231 -109v182q84 14 157.5 52t108.5 88h141v-789zM92 0l1077 1434h232l-1077 -1434h-232zM956 211q0 67 45 111.5t119 58.5v57q-133 32 -133 152q0 98 92 158.5t244 60.5q151 0 242.5 -60.5t91.5 -158.5
q0 -120 -133 -152v-57q74 -14 119 -58.5t45 -111.5q0 -114 -98 -174t-267 -60q-170 0 -268.5 60t-98.5 174zM1204 557q0 -37 32 -60.5t87 -23.5q53 0 85 23.5t32 60.5q0 82 -117 82q-119 0 -119 -82zM1174 252q0 -100 149 -100q75 0 111 26.5t36 73.5q0 44 -38 71t-109 27
q-73 0 -111 -27t-38 -71z" />
    <glyph glyph-name="threeeighths" unicode="&#x215c;" horiz-adv-x="1910" 
d="M371 621q-163 0 -247 69t-93 193l188 49q20 -131 156 -131q117 0 117 88q0 84 -123 84h-84v151h71q115 0 115 78q0 37 -24.5 57.5t-71.5 20.5q-122 0 -139 -127l-193 45q10 121 105.5 188.5t232.5 67.5q146 0 225.5 -58.5t79.5 -152.5q0 -66 -42 -108t-114 -54v-59
q83 -4 131 -50.5t48 -115.5q0 -108 -90.5 -171.5t-247.5 -63.5zM264 0l1077 1434h232l-1077 -1434h-232zM1128 211q0 67 45 111.5t119 58.5v57q-133 32 -133 152q0 98 92 158.5t244 60.5q151 0 242.5 -60.5t91.5 -158.5q0 -120 -133 -152v-57q74 -14 119 -58.5t45 -111.5
q0 -114 -98 -174t-267 -60q-170 0 -268.5 60t-98.5 174zM1376 557q0 -37 32 -60.5t87 -23.5q53 0 85 23.5t32 60.5q0 82 -117 82q-119 0 -119 -82zM1346 252q0 -100 149 -100q75 0 111 26.5t36 73.5q0 44 -38 71t-109 27q-73 0 -111 -27t-38 -71z" />
    <glyph glyph-name="fiveeighths" unicode="&#x215d;" horiz-adv-x="1925" 
d="M31 879l192 49q20 -127 162 -127q65 0 98 30.5t33 83.5q0 54 -32 83.5t-97 29.5q-96 0 -147 -57l-172 47l53 416h530v-174h-350l2 14q-13 -75 -78 -131l60 -47q59 88 178 88q123 0 195.5 -74t72.5 -197q0 -137 -93.5 -213.5t-248.5 -76.5q-151 0 -249.5 70.5
t-108.5 185.5zM279 0l1077 1434h231l-1077 -1434h-231zM1143 211q0 67 45 111.5t119 58.5v57q-133 32 -133 152q0 99 91.5 159t243.5 60q151 0 242.5 -60.5t91.5 -158.5q0 -120 -133 -152v-57q74 -14 119 -58.5t45 -111.5q0 -114 -98 -174t-267 -60q-170 0 -268 60t-98 174z
M1391 557q0 -37 31.5 -60.5t86.5 -23.5q53 0 85 23.5t32 60.5q0 82 -117 82q-118 0 -118 -82zM1360 252q0 -100 149 -100q75 0 111.5 27t36.5 73q0 44 -38.5 71t-109.5 27q-73 0 -111 -27t-38 -71z" />
    <glyph glyph-name="seveneighths" unicode="&#x215e;" horiz-adv-x="1732" 
d="M139 1257h-98v177h602v-162l-283 -627h-251v8l198 414q33 69 70.5 120t103.5 109l-49 68q-52 -52 -120 -79.5t-173 -27.5zM86 0l1077 1434h232l-1078 -1434h-231zM950 211q0 67 45 111.5t119 58.5v57q-133 32 -133 152q0 98 92 158.5t244 60.5q151 0 242.5 -60.5
t91.5 -158.5q0 -120 -133 -152v-57q74 -14 118.5 -58.5t44.5 -111.5q0 -114 -97.5 -174t-266.5 -60q-170 0 -268.5 60t-98.5 174zM1198 557q0 -37 32 -60.5t87 -23.5q53 0 85 23.5t32 60.5q0 82 -117 82q-119 0 -119 -82zM1167 252q0 -47 37 -73.5t113 -26.5q75 0 111 26.5
t36 73.5q0 44 -38 71t-109 27q-73 0 -111.5 -27t-38.5 -71z" />
    <glyph glyph-name="arrowleft" unicode="&#x2190;" horiz-adv-x="1734" 
d="M1577 821v-284l-692 6q-25 0 -49 2.5t-41 4.5t-40.5 8.5t-34.5 9.5t-36 12.5t-32 12.5t-35.5 15.5t-34.5 14.5l-37 -105q24 -13 65.5 -33.5t60 -30.5t44 -25t42.5 -27.5t31 -26.5l170 -168l-184 -184l-661 659l661 661l184 -184l-167 -166q-22 -23 -60.5 -47t-69.5 -39.5
t-118 -56.5l39 -109q8 4 39.5 18t45.5 20t44.5 17t53 15.5t54.5 9t64 4.5z" />
    <glyph glyph-name="arrowup" unicode="&#x2191;" horiz-adv-x="1501" 
d="M274 618l-184 185l662 661l659 -661l-184 -185l-168 168q-14 14 -26.5 30.5t-28 44t-24.5 44t-31.5 61.5t-33.5 66l-104 -39q84 -190 84 -301v-692h-287v692q-2 106 84 301l-108 41q-53 -112 -82 -163.5t-62 -84.5z" />
    <glyph glyph-name="arrowright" unicode="&#x2192;" horiz-adv-x="1734" 
d="M776 1159l185 184l661 -661l-661 -659l-185 184l170 168q18 18 45.5 36t46 28.5t74 38.5t78.5 40l-37 105q-6 -2 -34.5 -14.5t-35.5 -15.5t-32 -12.5t-36 -12.5t-34.5 -9.5t-40.5 -8.5t-41 -4.5t-49 -2.5l-692 -6v284l694 4q32 0 64 -4.5t54.5 -9t53 -15.5t44.5 -17
t45.5 -20t39.5 -18l39 109q-87 41 -118 56.5t-69.5 39.5t-60.5 47z" />
    <glyph glyph-name="arrowdown" unicode="&#x2193;" horiz-adv-x="1546" 
d="M774 -31l-661 662l184 184l166 -168q33 -33 61 -83.5t82 -164.5l109 41q-3 6 -15.5 33t-17 38.5t-15 37t-15 43.5t-10.5 44t-8.5 51.5t-2.5 53.5l4 693h285l-7 -693q-1 -59 -12 -111.5t-23 -85.5t-35 -84q-6 -13 -9 -20l104 -39q12 24 33.5 66.5t31 61t24.5 44.5t27.5 43
t26.5 31l168 168l185 -184z" />
    <glyph glyph-name="arrowboth" unicode="&#x2194;" horiz-adv-x="2170" 
d="M754 47l-641 639l641 641l184 -184l-188 -187q-31 -31 -81 -59t-155 -78l29 -74q6 3 33 15.5t38.5 17t37 15t43.5 15t44 10.5t51.5 8.5t53.5 2.5h483q28 0 53.5 -2.5t51.5 -8.5t44 -10.5t43.5 -15t37 -15t38.5 -17t33 -15.5l29 74q-105 50 -155 78t-81 59l-188 187
l184 184l641 -641l-641 -639l-184 184l188 189q11 11 26.5 23t27.5 20t38 22t38.5 20t50.5 25t53 27l-27 70q-5 -2 -37.5 -16.5t-40.5 -17.5t-36 -14t-43 -14t-40.5 -9t-50.5 -7.5t-53 -1.5h-483q-28 0 -53 1.5t-50.5 7.5t-40.5 9t-43 14t-36 14t-40.5 17.5t-37.5 16.5
l-27 -70q15 -8 53 -27t50.5 -25t38.5 -20t38 -22t27.5 -20t26.5 -23l188 -189z" />
    <glyph glyph-name="arrowupdn" unicode="&#x2195;" horiz-adv-x="1505" 
d="M113 1018l639 641l641 -641l-185 -184l-186 188q-32 32 -60 81.5t-77 153.5l-74 -28q3 -6 15.5 -33t17 -38.5t15 -37t15 -43.5t10.5 -44t8.5 -51.5t2.5 -53.5v-320q0 -28 -2.5 -53.5t-8.5 -51.5t-10.5 -44t-15 -43.5t-15 -37t-17 -38.5t-15.5 -33l74 -28q49 104 77 153.5
t60 81.5l186 188l185 -184l-641 -641l-639 641l184 184l188 -188q8 -8 15 -16t15 -19t13.5 -19.5t14 -24t13.5 -24t15.5 -29t15.5 -30t17.5 -35t18.5 -36.5l69 26q-2 5 -16.5 37.5t-17.5 40.5t-14 36t-14 43t-9 40.5t-7.5 50.5t-1.5 53v320q0 28 1.5 53t7.5 50.5t9 40.5
t14 43t14 36t17.5 40.5t16.5 37.5l-69 26q-6 -11 -18.5 -36.5t-17.5 -35t-15.5 -30t-15.5 -29t-13.5 -24t-14 -24t-13.5 -19.5t-15 -19t-15 -16l-188 -188z" />
    <glyph glyph-name="uni2196" unicode="&#x2196;" horiz-adv-x="1404" 
d="M158 1249h936v-260h-236q-33 0 -75.5 10t-77.5 21.5t-123 42.5l-50 -105q8 -3 40.5 -15t46 -18t43.5 -19.5t49.5 -26t45 -32t48.5 -42.5l487 -494l-200 -200l-486 493q-17 18 -32.5 36.5t-26 33t-22 34.5t-18 31t-16.5 33.5t-14 32t-14 35t-14 34.5l-101 -47
q9 -30 27.5 -85t25 -77.5t13 -54.5t6.5 -57v-238h-260z" />
    <glyph glyph-name="uni2197" unicode="&#x2197;" horiz-adv-x="1404" 
d="M311 989v260h936l-2 -934h-260v238q0 25 6.5 57t13 54.5t25 77.5t27.5 85l-101 47q-4 -9 -14 -34.5t-14 -35t-14 -32t-16.5 -33.5t-18 -31t-22 -34.5t-26 -33t-32.5 -36.5l-486 -493l-200 200l487 494q23 23 48.5 42.5t44.5 31.5t49.5 26.5t43.5 19.5t46 17.5t40 15.5
l-49 105q-88 -31 -123 -42.5t-77.5 -21.5t-75.5 -10h-236z" />
    <glyph glyph-name="uni2198" unicode="&#x2198;" horiz-adv-x="1404" 
d="M1245 111h-934v260h236q33 0 75.5 -10t77.5 -21.5t123 -42.5l49 104q-3 1 -39.5 15t-47 18.5t-42.5 19.5t-50 27t-44 31.5t-49 42.5l-487 494l200 200l486 -493q20 -20 36 -39.5t30 -41.5t22.5 -35.5t20.5 -39.5t16 -35t16.5 -41t15.5 -39l101 47q-9 29 -27.5 85.5
t-25 78.5t-13 54t-6.5 57v237h260v-933z" />
    <glyph glyph-name="uni2199" unicode="&#x2199;" horiz-adv-x="1404" 
d="M1094 371v-260h-936l2 933h260v-237q0 -25 -6.5 -57t-13 -54t-25 -78.5t-27.5 -85.5l101 -47q3 7 15.5 39t16.5 41t16 35t20.5 39.5t22.5 35.5t30 41.5t36 39.5l486 493l200 -200l-487 -494q-23 -23 -49 -42.5t-44.5 -31.5t-49.5 -27t-43 -20t-47 -18t-40 -15l50 -104
q88 31 123 42.5t77.5 21.5t75.5 10h236z" />
    <glyph glyph-name="partialdiff" unicode="&#x2202;" horiz-adv-x="1411" 
d="M43 453q0 207 140 342t356 135q120 0 210.5 -43t141.5 -119l98 53q-63 180 -276.5 281.5t-517.5 95.5l139 303q224 -5 411.5 -69t318.5 -175t204 -267t73 -341q0 -312 -192 -500t-510 -188q-268 0 -432 135.5t-164 356.5zM397 471q0 -101 69.5 -160t186.5 -59
q137 0 229 81t99 224q-57 64 -139 100.5t-178 36.5q-126 0 -196.5 -62t-70.5 -161z" />
    <glyph glyph-name="emptyset" unicode="&#x2205;" horiz-adv-x="1404" 
d="M70 547q0 160 81 292t226.5 208.5t324.5 76.5q174 0 318.5 -73t229.5 -207.5t85 -304.5q0 -160 -81.5 -292.5t-227 -209t-324.5 -76.5t-323.5 76t-226.5 210t-82 300zM418 580q0 -88 26 -144l166 162q140 137 262 137v103q-55 16 -114 16q-141 0 -240.5 -77t-99.5 -197z
M532 348v-102q58 -17 117 -17q140 0 239 77.5t99 199.5q0 89 -26 145l-181 -180q-123 -123 -248 -123z" />
    <glyph glyph-name="product" unicode="&#x220f;" horiz-adv-x="1400" 
d="M27 1434h1347v-297h-192v-1395h-344v1395h-275v-1395h-344v1395h-192v297z" />
    <glyph glyph-name="summation" unicode="&#x2211;" horiz-adv-x="1052" 
d="M1008 -258h-938v338l325 508l-325 508v338h938v-297h-197q-99 0 -172.5 22t-113.5 52t-81 79l-92 -78l418 -624l-418 -625l92 -78q41 49 81 79.5t113.5 52.5t172.5 22h197v-297z" />
    <glyph glyph-name="minus" unicode="&#x2212;" horiz-adv-x="1206" 
d="M160 815h887v-250h-887v250z" />
    <glyph glyph-name="radical" unicode="&#x221a;" horiz-adv-x="1112" 
d="M582 -258h-430l-191 874h268l19 -100q46 -243 63 -475h90q9 149 32 274.5t69 288.5l237 830h461v-297h-215z" />
    <glyph glyph-name="infinity" unicode="&#x221e;" horiz-adv-x="1792" 
d="M68 723q0 175 112 282t285 107q138 0 244.5 -73.5t152.5 -200.5h68q46 127 152.5 200.5t244.5 73.5q173 0 285 -107t112 -282t-112 -282t-285 -107q-138 0 -244.5 73.5t-152.5 200.5h-68q-46 -127 -152.5 -200.5t-244.5 -73.5q-173 0 -285 107t-112 282zM389 723
q0 -56 34.5 -91.5t90.5 -35.5q107 0 158 127q-51 127 -158 127q-56 0 -90.5 -35.5t-34.5 -91.5zM1120 723q51 -127 158 -127q56 0 90.5 35.5t34.5 91.5t-34.5 91.5t-90.5 35.5q-107 0 -158 -127z" />
    <glyph glyph-name="integral" unicode="&#x222b;" horiz-adv-x="1200" 
d="M57 -268l-30 282q58 -8 112 -8q116 0 161.5 46.5t61.5 152.5l132 854q17 110 61 188t112.5 122t150.5 63.5t188 19.5q74 0 135 -12l30 -283q-58 8 -112 8q-116 0 -161.5 -46.5t-61.5 -151.5l-131 -854q-14 -89 -46 -156.5t-77 -112.5t-106.5 -73t-130.5 -40t-152 -12
q-69 0 -136 13z" />
    <glyph glyph-name="approxequal" unicode="&#x2248;" horiz-adv-x="1116" 
d="M324 215h-209q-17 156 12.5 263.5t103.5 148.5l-20 39h-96q-27 263 35 377t202 114q70 0 128.5 -33.5t160.5 -126.5q30 -27 44.5 -39.5t33 -24t31.5 -11.5q35 0 45 52t0 183h209q19 -150 -11 -257.5t-104 -151.5l20 -41h95q27 -263 -35.5 -377.5t-202.5 -114.5
q-44 0 -85.5 14t-81 42t-63 48.5t-59.5 55.5q-66 61 -87 71q-12 5 -21 5q-35 0 -45 -52.5t0 -183.5zM322 705q5 0 15 1t15 1q43 3 83.5 -9.5t84 -45t61 -48t60.5 -57.5q32 -29 45 -40.5t32 -23.5t32 -12q33 0 43.5 44.5t3.5 152.5q-5 0 -15.5 -1t-15.5 -1q-35 -3 -76 10.5
t-77 37.5t-60 42.5t-43 36.5q-68 65 -95 86.5t-46 21.5q-33 0 -43.5 -44t-3.5 -152z" />
    <glyph glyph-name="notequal" unicode="&#x2260;" horiz-adv-x="1267" 
d="M371 340h-211v250h309l16 55q13 38 40 75t47 56.5t55 50.5l-47 64q-134 -100 -306 -100h-114v249h485l105 269h254l-105 -269h209v-249h-307l-17 -41q-8 -21 -17.5 -39.5t-22.5 -35.5t-22 -29t-25 -28t-23.5 -22.5t-26 -22.5t-22.5 -20l47 -64q135 101 305 101h131v-250
h-483l-105 -268h-254z" />
    <glyph glyph-name="lessequal" unicode="&#x2264;" horiz-adv-x="1323" 
d="M1128 618v-274l-948 256v369l948 256v-275l-350 -80q-198 -39 -315 -47v-78q56 -4 165 -21.5t160 -27.5zM1128 0h-948v238h948v-238z" />
    <glyph glyph-name="greaterequal" unicode="&#x2265;" horiz-adv-x="1320" 
d="M1149 600l-948 -256v274l340 78q51 10 160 27.5t165 21.5v78q-117 8 -315 47l-350 80v275l948 -256v-369zM1149 0h-948v238h948v-238z" />
    <glyph glyph-name="uni2573" unicode="&#x2573;" horiz-adv-x="2027" 
d="M268 -86l-88 88l746 746l-746 745l88 88l746 -745l745 745l88 -88l-745 -745l745 -746l-88 -88l-745 745z" />
    <glyph glyph-name="lozenge" unicode="&#x25ca;" horiz-adv-x="1220" 
d="M346 0l-328 735l328 735h528l328 -735l-328 -735h-528zM500 1004l-129 -269l129 -268q61 -126 71 -227h78q9 99 72 227l129 268l-129 269q-63 128 -72 227h-78q-10 -101 -71 -227z" />
    <glyph glyph-name="uni2605" unicode="&#x2605;" horiz-adv-x="1765" 
d="M883 311l-504 -340l174 580l-485 373l610 16l205 578l202 -578l613 -16l-486 -373l174 -580z" />
    <glyph glyph-name="uni261C" unicode="&#x261c;" horiz-adv-x="1927" 
d="M1147 96h-260q-74 0 -118 35.5t-44 95.5q0 36 25 68q-47 8 -75 40.5t-28 82.5q0 48 31 76q-47 35 -47 96q0 34 16 63h-325q-72 0 -115 36.5t-43 105.5q0 63 40 97t118 34h487q-43 13 -43 71q0 47 31 90q94 -5 200 7t123 12q53 0 100 -21.5t115 -66.5q62 -40 98 -61
t105 -42.5t141 -21.5h82l2 -698q-111 0 -266 -45q-74 -19 -106.5 -26.5t-104 -17.5t-139.5 -10zM899 188h270q52 0 108.5 8.5t87 16t91.5 23.5q148 36 217 36v525h-47q-54 0 -112.5 20t-93 39.5t-95.5 58.5q-55 35 -80 49.5t-68 30.5t-77 15q-214 -9 -226 -9q-2 -8 -2 -26
q0 -25 23 -51h262v-90h-819q-51 0 -51 -43q0 -46 51 -46h608v-108h-149q-49 0 -49 -41q0 -47 49 -47h180v-92h-160q-51 0 -51 -43q0 -45 51 -45h191v-93h-109q-51 0 -51 -45q0 -43 51 -43z" />
    <glyph glyph-name="uni261E" unicode="&#x261e;" horiz-adv-x="1927" 
d="M1040 96h-260q-68 0 -139.5 10t-104 17.5t-106.5 26.5q-155 45 -266 45l2 698h82q72 0 141 21.5t105 42.5t98 61q45 30 72 45t66.5 29t76.5 14q17 0 123 -12t200 -7q31 -43 31 -90q0 -58 -43 -71h488q78 0 117.5 -34t39.5 -97q0 -69 -42.5 -105.5t-114.5 -36.5h-326
q16 -29 16 -63q0 -61 -47 -96q31 -28 31 -76q0 -50 -27.5 -82.5t-74.5 -40.5q24 -31 24 -68q0 -60 -44 -95.5t-118 -35.5zM758 188h270q51 0 51 43q0 45 -51 45h-108v93h190q51 0 51 45q0 43 -51 43h-160v92h180q50 0 50 47q0 20 -14 30.5t-36 10.5h-149v108h608q51 0 51 46
q0 43 -51 43h-819v90h262q23 26 23 51q0 18 -2 26q-12 0 -226 9q-34 1 -77 -15t-68 -30.5t-80 -49.5q-61 -39 -95.5 -58.5t-93 -39.5t-112.5 -20h-47v-525q69 0 217 -36q61 -16 91.5 -23.5t87 -16t108.5 -8.5z" />
    <glyph glyph-name="uni271A" unicode="&#x271a;" horiz-adv-x="1613" 
d="M594 1434h426v-516h504v-402h-504v-516h-426v516h-504v402h504v516z" />
    <glyph glyph-name="uni2731" unicode="&#x2731;" horiz-adv-x="1593" 
d="M262 209l-172 299l365 209l-365 209l172 299l363 -211v420h344v-420l362 211l172 -299l-364 -209l364 -209l-172 -299l-362 211v-420h-344v420z" />
    <glyph glyph-name="uni2733" unicode="&#x2733;" horiz-adv-x="1617" 
d="M549 610l-459 -45v303l459 -43l-352 293l211 213l292 -352l-43 455h301l-40 -455l290 350l213 -211l-352 -293l459 43v-303l-459 43l352 -293l-211 -213l-292 355l40 -457h-301l43 457l-292 -353l-213 211z" />
    <glyph glyph-name="uni2738" unicode="&#x2738;" horiz-adv-x="1705" 
d="M1638 1069l-352 -330l352 -319l-483 22l19 -481l-328 358l-322 -352l23 473l-479 -14l356 328l-350 321l471 -24l-15 481l328 -350l322 350l-25 -481z" />
    <glyph glyph-name="uni2739" unicode="&#x2739;" horiz-adv-x="1691" 
d="M967 293l-121 -324l-123 324l-268 -219l57 342l-338 -58l219 269l-325 121l325 122l-219 269l340 -60l-57 340l268 -219l121 326l123 -326l268 219l-59 -342l342 60l-220 -269l324 -123l-324 -120l220 -269l-344 58l59 -340z" />
    <glyph glyph-name="uni274C" unicode="&#x274c;" horiz-adv-x="2093" 
d="M113 1456l288 289l646 -645l645 645l288 -289l-645 -645l645 -645l-288 -289l-645 645l-646 -645l-288 289l645 645z" />
    <glyph glyph-name="uni2762" unicode="&#x2762;" horiz-adv-x="1259" 
d="M162 1200q0 152 116 239t338 87t338.5 -87t116.5 -239q0 -71 -21.5 -124t-57 -85.5t-78 -59t-86 -53.5t-80.5 -60t-62.5 -86.5t-30.5 -125.5q130 -23 206.5 -109t76.5 -212q0 -140 -88 -226t-234 -86t-233.5 86t-87.5 226q0 126 76.5 212t206.5 109q-5 72 -30.5 125.5
t-62.5 86.5t-80.5 60t-86 53.5t-78 59t-57 85.5t-21.5 124z" />
    <glyph glyph-name="uni29D8" unicode="&#x29d8;" horiz-adv-x="888" 
d="M369 -39l-301 201l301 198l-301 201l301 203l-301 199l301 200l-289 189l156 145l505 -334l-301 -200l301 -199l-301 -203l301 -201l-301 -198l301 -201l-505 -334l-156 146z" />
    <glyph glyph-name="uni29D9" unicode="&#x29d9;" horiz-adv-x="888" 
d="M520 360l301 -198l-301 -201l289 -188l-156 -146l-506 334l302 201l-302 198l302 201l-302 203l302 199l-302 200l506 334l156 -145l-289 -189l301 -200l-301 -199l301 -203z" />
    <glyph glyph-name="uni29DA" unicode="&#x29da;" horiz-adv-x="1523" 
d="M369 -39l-301 201l301 198l-301 201l301 203l-301 199l301 200l-289 189l156 145l505 -334l-301 -200l301 -199l-301 -203l301 -201l-301 -198l301 -201l-505 -334l-156 146zM1004 -39l-302 201l302 198l-302 201l302 203l-302 199l302 200l-289 189l155 145l506 -334
l-301 -200l301 -199l-301 -203l301 -201l-301 -198l301 -201l-506 -334l-155 146z" />
    <glyph glyph-name="uni29DB" unicode="&#x29db;" horiz-adv-x="1523" 
d="M520 360l301 -198l-301 -201l289 -188l-156 -146l-506 334l302 201l-302 198l302 201l-302 203l302 199l-302 200l506 334l156 -145l-289 -189l301 -200l-301 -199l301 -203zM1155 360l301 -198l-301 -201l289 -188l-156 -146l-506 334l301 201l-301 198l301 201
l-301 203l301 199l-301 200l506 334l156 -145l-289 -189l301 -200l-301 -199l301 -203z" />
    <glyph glyph-name="uni3008" unicode="&#x3008;" horiz-adv-x="745" 
d="M444 -403l-364 1007l364 1008l279 -105l-328 -903l328 -903z" />
    <glyph glyph-name="uni3009" unicode="&#x3009;" horiz-adv-x="745" 
d="M301 1612l365 -1008l-365 -1007l-278 104l327 903l-327 903z" />
    <glyph glyph-name="uni300A" unicode="&#x300a;" horiz-adv-x="1210" 
d="M444 -403l-364 1007l364 1008l279 -105l-328 -903l328 -903zM909 -403l-364 1007l364 1008l279 -105l-328 -903l328 -903z" />
    <glyph glyph-name="uni300B" unicode="&#x300b;" horiz-adv-x="1210" 
d="M301 1612l365 -1008l-365 -1007l-278 104l327 903l-327 903zM766 1612l364 -1008l-364 -1007l-279 104l328 903l-328 903z" />
    <glyph glyph-name="uni300C" unicode="&#x300c;" horiz-adv-x="778" 
d="M436 1225v-617h-278v887h575v-270h-297z" />
    <glyph glyph-name="uni300D" unicode="&#x300d;" horiz-adv-x="778" 
d="M342 -102v616h279v-887h-576v271h297z" />
    <glyph glyph-name="uni3010" unicode="&#x3010;" horiz-adv-x="872" 
d="M827 -373h-669v1868h669q-112 -167 -171.5 -420.5t-59.5 -513.5t59.5 -513.5t171.5 -420.5z" />
    <glyph glyph-name="uni3011" unicode="&#x3011;" horiz-adv-x="872" 
d="M715 1495v-1868h-670q112 167 171.5 420.5t59.5 513.5t-59.5 513.5t-171.5 420.5h670z" />
    <glyph glyph-name="u1F642" unicode="&#x1f642;" horiz-adv-x="1804" 
d="M901 -31q-167 0 -315 57.5t-257 159t-172 250t-63 322.5q0 177 65.5 325t177 245.5t258 151.5t308.5 54q161 0 306.5 -53.5t257 -151t177.5 -246t66 -325.5q0 -174 -63 -322.5t-172 -250t-257.5 -159t-316.5 -57.5zM657 811q87 0 132 55t45 150q0 100 -47 150.5
t-128 50.5q-88 0 -133 -53.5t-45 -147.5q0 -101 47 -153t129 -52zM1145 811q88 0 133 55t45 150q0 100 -47 150.5t-129 50.5q-87 0 -131.5 -53.5t-44.5 -147.5q0 -101 46.5 -153t127.5 -52zM1436 649l-172 27q-35 -234 -361 -234t-360 234l-172 -27q29 -192 172.5 -298.5
t359.5 -106.5q224 0 365 109.5t168 295.5z" />
    <glyph glyph-name="Adieresis.ss01" horiz-adv-x="1492" 
d="M328 1802h348v-274h-348v274zM815 1802h348v-274h-348v274zM1487 0h-371l-74 213h-591l-74 -213h-373l537 1434h409zM614 686l-57 -164h379l-57 164q-31 92 -45.5 168t-24.5 211h-125q-10 -135 -24.5 -211t-45.5 -168z" />
    <glyph glyph-name="Edieresis.ss01" horiz-adv-x="1236" 
d="M227 1802h348v-274h-348v274zM715 1802h348v-274h-348v274zM479 580v-263h692v-317h-1050v1434h1048v-318h-690v-244h627v-292h-627z" />
    <glyph glyph-name="Edotaccent.ss01" horiz-adv-x="1236" 
d="M471 1802h348v-274h-348v274zM479 580v-263h692v-317h-1050v1434h1048v-318h-690v-244h627v-292h-627z" />
    <glyph glyph-name="Gdotaccent.ss01" horiz-adv-x="1593" 
d="M653 1528v274h348v-274h-348zM70 696q0 177 58.5 325t160 247.5t240.5 153t298 51.5q251 -3 432 -134.5t228 -343.5l-338 -94q-38 121 -122 186.5t-212 65.5q-178 0 -279.5 -122t-101.5 -320q0 -202 108 -323.5t296 -121.5q139 0 231 66t113 170v10h-367v260h664v-772
h-299v10q8 41 69 178l-108 54q-121 -277 -426 -277q-153 0 -277 58t-203.5 158.5t-122 232.5t-42.5 282z" />
    <glyph glyph-name="Idieresis.ss01" horiz-adv-x="645" 
d="M-94 1528v274h348v-274h-348zM393 1528v274h348v-274h-348zM143 0v1434h359v-1434h-359z" />
    <glyph glyph-name="Idotaccent.ss01" horiz-adv-x="645" 
d="M150 1528v274h348v-274h-348zM143 0v1434h359v-1434h-359z" />
    <glyph glyph-name="Odieresis.ss01" horiz-adv-x="1638" 
d="M403 1548v275h349v-275h-349zM891 1548v275h348v-275h-348zM70 717q0 215 97 388t269 270.5t385 97.5q159 0 298 -57t238.5 -157t156.5 -240.5t57 -301.5t-57 -301.5t-156.5 -240.5t-238.5 -157t-298 -57q-213 0 -385 97.5t-269 270.5t-97 388zM432 717
q0 -195 108 -315.5t281 -120.5q181 0 284 122t103 314q0 194 -103.5 315t-283.5 121q-181 0 -285 -119.5t-104 -316.5z" />
    <glyph glyph-name="R.ss01" horiz-adv-x="1423" 
d="M954 582l443 -582h-443l-364 520h-105v-520h-364v1434h719q232 0 357.5 -119t125.5 -316q0 -168 -99.5 -279.5t-269.5 -137.5zM485 1122v-336h273q94 0 147 44.5t53 125.5q0 166 -200 166h-273z" />
    <glyph glyph-name="Udieresis.ss01" horiz-adv-x="1456" 
d="M311 1528v274h348v-274h-348zM799 1528v274h348v-274h-348zM117 553v881h358v-854q0 -152 63.5 -225.5t190.5 -73.5q252 0 252 299v854h358v-881q0 -283 -160 -437.5t-450 -154.5t-451 154.5t-161 437.5z" />
    <glyph glyph-name="Wdieresis.ss01" horiz-adv-x="2011" 
d="M588 1528v274h348v-274h-348zM1075 1528v274h348v-274h-348zM338 0l-330 1434h371l98 -506q21 -111 23 -268t-4 -230h133q16 255 82 481l153 523h281l160 -535q62 -208 79 -469h134q-6 78 -6 230t20 255l100 519h371l-328 -1434h-397l-145 500q-41 143 -62.5 285.5
t-19.5 248.5h-93q3 -218 -86 -536l-143 -498h-391z" />
    <glyph glyph-name="Ydieresis.ss01" horiz-adv-x="1427" 
d="M297 1528v274h348v-274h-348zM784 1528v274h349v-274h-349zM535 539l-543 895h416l86 -179q3 -7 27.5 -57.5t34 -72t30 -71t30.5 -83t20 -78.5t13 -84h135q4 58 16.5 113.5t39.5 122.5t42 99.5t54 112.5l84 177h416l-541 -895v-539h-360v539z" />
    <glyph glyph-name="Zdotaccent.ss01" horiz-adv-x="1343" 
d="M500 1528v274h348v-274h-348zM1272 0h-1196v281l743 903l-86 90q-72 -82 -144.5 -120t-191.5 -38h-299v318h1143v-281l-747 -903l86 -90q33 38 59.5 61.5t68 48t97.5 36t129 11.5h338v-317z" />
    <glyph glyph-name="M.ss05" horiz-adv-x="2011" 
d="M463 0h-342v1100q0 170 85.5 262t242.5 92q130 0 216 -60t142 -212l184 -504q4 -12 15 -12q10 0 14 12l184 504q56 152 142.5 212t216.5 60q157 0 242 -92t85 -262v-1100h-342v1073q0 29 -26 29q-22 0 -29 -17l-231 -604q-71 -188 -256 -188q-184 0 -256 188l-232 604
q-7 17 -29 17q-26 0 -26 -29v-1073z" />
    <glyph glyph-name="i.loclTRK" horiz-adv-x="593" 
d="M285 1221q-99 0 -157 50t-58 148t58 148.5t157 50.5t157 -50.5t58 -148.5t-58 -148t-157 -50zM106 0v1085h355v-1085h-355z" />
    <glyph glyph-name="a.ss01" horiz-adv-x="1185" 
d="M1094 279l43 -279h-344l-27 180h-74q-13 -97 -103 -158t-214 -61q-141 0 -231.5 81.5t-90.5 213.5q0 139 89.5 229t283.5 133l319 72v10q0 82 -41 123t-131 41q-186 0 -198 -184l-320 57q23 183 170 285t375 102q230 0 362 -107.5t132 -318.5v-419zM516 221q71 0 139 43
t90 103v125l-198 -43q-84 -19 -119 -50.5t-35 -74.5q0 -53 34 -78t89 -25z" />
    <glyph glyph-name="aacute.ss01" horiz-adv-x="1185" 
d="M559 1585h375l-205 -325h-252zM1094 279l43 -279h-344l-27 180h-74q-13 -97 -103 -158t-214 -61q-141 0 -231.5 81.5t-90.5 213.5q0 139 89.5 229t283.5 133l319 72v10q0 82 -41 123t-131 41q-186 0 -198 -184l-320 57q23 183 170 285t375 102q230 0 362 -107.5
t132 -318.5v-419zM516 221q71 0 139 43t90 103v125l-198 -43q-84 -19 -119 -50.5t-35 -74.5q0 -53 34 -78t89 -25z" />
    <glyph glyph-name="abreve.ss01" horiz-adv-x="1185" 
d="M604 1241q-180 0 -289.5 95t-109.5 249h276q0 -68 33.5 -102.5t89.5 -34.5q121 0 121 137h276q0 -154 -109.5 -249t-287.5 -95zM1094 279l43 -279h-344l-27 180h-74q-13 -97 -103 -158t-214 -61q-141 0 -231.5 81.5t-90.5 213.5q0 139 89.5 229t283.5 133l319 72v10
q0 82 -41 123t-131 41q-186 0 -198 -184l-320 57q23 183 170 285t375 102q230 0 362 -107.5t132 -318.5v-419zM516 221q71 0 139 43t90 103v125l-198 -43q-84 -19 -119 -50.5t-35 -74.5q0 -53 34 -78t89 -25z" />
    <glyph glyph-name="acircumflex.ss01" horiz-adv-x="1185" 
d="M528 1321l-28 -61h-299l219 325h366l220 -325h-299l-29 61q-29 63 -37 113h-76q-8 -50 -37 -113zM1094 279l43 -279h-344l-27 180h-74q-13 -97 -103 -158t-214 -61q-141 0 -231.5 81.5t-90.5 213.5q0 139 89.5 229t283.5 133l319 72v10q0 82 -41 123t-131 41
q-186 0 -198 -184l-320 57q23 183 170 285t375 102q230 0 362 -107.5t132 -318.5v-419zM516 221q71 0 139 43t90 103v125l-198 -43q-84 -19 -119 -50.5t-35 -74.5q0 -53 34 -78t89 -25z" />
    <glyph glyph-name="adieresis.ss01" horiz-adv-x="1185" 
d="M186 1495h349v-274h-349v274zM674 1495h348v-274h-348v274zM1094 279l43 -279h-344l-27 180h-74q-13 -97 -103 -158t-214 -61q-141 0 -231.5 81.5t-90.5 213.5q0 139 89.5 229t283.5 133l319 72v10q0 82 -41 123t-131 41q-186 0 -198 -184l-320 57q23 183 170 285
t375 102q230 0 362 -107.5t132 -318.5v-419zM516 221q71 0 139 43t90 103v125l-198 -43q-84 -19 -119 -50.5t-35 -74.5q0 -53 34 -78t89 -25z" />
    <glyph glyph-name="agrave.ss01" horiz-adv-x="1185" 
d="M647 1585l82 -325h-252l-205 325h375zM1094 279l43 -279h-344l-27 180h-74q-13 -97 -103 -158t-214 -61q-141 0 -231.5 81.5t-90.5 213.5q0 139 89.5 229t283.5 133l319 72v10q0 82 -41 123t-131 41q-186 0 -198 -184l-320 57q23 183 170 285t375 102q230 0 362 -107.5
t132 -318.5v-419zM516 221q71 0 139 43t90 103v125l-198 -43q-84 -19 -119 -50.5t-35 -74.5q0 -53 34 -78t89 -25z" />
    <glyph glyph-name="amacron.ss01" horiz-adv-x="1185" 
d="M238 1509h731v-239h-731v239zM1094 279l43 -279h-344l-27 180h-74q-13 -97 -103 -158t-214 -61q-141 0 -231.5 81.5t-90.5 213.5q0 139 89.5 229t283.5 133l319 72v10q0 82 -41 123t-131 41q-186 0 -198 -184l-320 57q23 183 170 285t375 102q230 0 362 -107.5
t132 -318.5v-419zM516 221q71 0 139 43t90 103v125l-198 -43q-84 -19 -119 -50.5t-35 -74.5q0 -53 34 -78t89 -25z" />
    <glyph glyph-name="aogonek.ss01" horiz-adv-x="1185" 
d="M1159 -184l66 -185q-41 -31 -109 -49t-139 -18q-132 0 -211.5 68t-79.5 175q0 121 109 193h-2l-27 180h-74q-13 -97 -103 -158t-214 -61q-141 0 -231.5 81.5t-90.5 213.5q0 139 89.5 229t283.5 133l319 72v10q0 82 -41 123t-131 41q-186 0 -198 -184l-320 57
q23 183 170 285t375 102q230 0 362 -107.5t132 -318.5v-419l43 -279h-50q-89 -6 -137.5 -43.5t-48.5 -93.5q0 -44 31 -69t86 -25q78 0 141 47zM516 221q71 0 139 43t90 103v125l-198 -43q-84 -19 -119 -50.5t-35 -74.5q0 -53 34 -78t89 -25z" />
    <glyph glyph-name="aring.ss01" horiz-adv-x="1185" 
d="M604 1221q-157 0 -247.5 76.5t-90.5 205.5q0 132 93.5 207.5t244.5 75.5q155 0 245.5 -77t90.5 -206q0 -132 -92.5 -207t-243.5 -75zM604 1612q-56 0 -87.5 -29.5t-31.5 -79.5q0 -52 32 -80t87 -28t86 29t31 79q0 52 -32 80.5t-85 28.5zM1094 279l43 -279h-344l-27 180
h-74q-13 -97 -103 -158t-214 -61q-141 0 -231.5 81.5t-90.5 213.5q0 139 89.5 229t283.5 133l319 72v10q0 82 -41 123t-131 41q-186 0 -198 -184l-320 57q23 183 170 285t375 102q230 0 362 -107.5t132 -318.5v-419zM516 221q71 0 139 43t90 103v125l-198 -43
q-84 -19 -119 -50.5t-35 -74.5q0 -53 34 -78t89 -25z" />
    <glyph glyph-name="atilde.ss01" horiz-adv-x="1185" 
d="M444 1219h-186q-21 192 30.5 290.5t157.5 98.5q61 0 111 -28t109 -79q42 -39 67 -39q24 0 31.5 35t-0.5 111h186q21 -192 -30.5 -290.5t-157.5 -98.5q-60 0 -112 28.5t-107 77.5q-42 39 -68 39q-25 0 -32 -34t1 -111zM1094 279l43 -279h-344l-27 180h-74
q-13 -97 -103 -158t-214 -61q-141 0 -231.5 81.5t-90.5 213.5q0 139 89.5 229t283.5 133l319 72v10q0 82 -41 123t-131 41q-186 0 -198 -184l-320 57q23 183 170 285t375 102q230 0 362 -107.5t132 -318.5v-419zM516 221q71 0 139 43t90 103v125l-198 -43
q-84 -19 -119 -50.5t-35 -74.5q0 -53 34 -78t89 -25z" />
    <glyph glyph-name="cdotaccent.ss01" horiz-adv-x="1216" 
d="M477 1221v274h348v-274h-348zM53 535q0 267 164 428t434 161q210 0 349 -98.5t186 -269.5l-326 -101q-21 90 -81.5 135.5t-147.5 45.5q-107 0 -167.5 -79.5t-60.5 -213.5q0 -139 64 -216t170 -77q88 0 145 48t78 132l326 -100q-44 -166 -198 -267.5t-363 -101.5
q-260 0 -416 156.5t-156 417.5z" />
    <glyph glyph-name="edieresis.ss01" horiz-adv-x="1249" 
d="M236 1221v274h348v-274h-348zM723 1221v274h348v-274h-348zM53 541q0 261 162 422t428 161q257 0 412 -154t155 -429v-105h-809q10 -92 79 -144t177 -52q96 0 175 41t124 110l193 -225q-72 -96 -210 -150.5t-292 -54.5q-172 0 -306 69.5t-211 202t-77 308.5zM403 670h467
q-9 86 -70.5 136t-162.5 50q-96 0 -160 -49t-74 -137z" />
    <glyph glyph-name="edotaccent.ss01" horiz-adv-x="1249" 
d="M479 1221v274h348v-274h-348zM53 541q0 261 162 422t428 161q257 0 412 -154t155 -429v-105h-809q10 -92 79 -144t177 -52q96 0 175 41t124 110l193 -225q-72 -96 -210 -150.5t-292 -54.5q-172 0 -306 69.5t-211 202t-77 308.5zM403 670h467q-9 86 -70.5 136t-162.5 50
q-96 0 -160 -49t-74 -137z" />
    <glyph glyph-name="f.ss01" horiz-adv-x="911" 
d="M231 801h-206v284h206v177q0 105 74.5 169t196.5 64h352l41 -274h-315v-136h301v-284h-301v-801h-349v801z" />
    <glyph glyph-name="g.ss01" horiz-adv-x="1339" 
d="M53 582q0 236 142 388t362 152q123 0 208.5 -55t139.5 -170l105 55q-45 81 -60 127v6h287v-1040q0 -261 -153.5 -403t-436.5 -142q-230 0 -360.5 104t-149.5 283l320 58q0 -91 59 -138t160 -47q102 0 156 52.5t57 142.5q0 12 2 24.5t4.5 22.5t7.5 23.5t8.5 21.5
t11.5 22.5t11.5 21t14 22.5t14 21t15.5 22.5t15 21.5l-104 72q-52 -100 -141.5 -152.5t-204.5 -52.5q-206 0 -348 151t-142 386zM408 584q0 -115 69.5 -182.5t177.5 -67.5q85 0 148.5 40.5t85.5 106.5v205q-22 66 -87 107t-149 41q-112 0 -178.5 -70.5t-66.5 -179.5z" />
    <glyph glyph-name="gbreve.ss01" horiz-adv-x="1339" 
d="M254 1585h276q0 -68 33.5 -102.5t89.5 -34.5q121 0 121 137h277q0 -154 -110 -249t-288 -95q-180 0 -289.5 95t-109.5 249zM53 582q0 236 142 388t362 152q123 0 208.5 -55t139.5 -170l105 55q-45 81 -60 127v6h287v-1040q0 -261 -153.5 -403t-436.5 -142
q-230 0 -360.5 104t-149.5 283l320 58q0 -91 59 -138t160 -47q102 0 156 52.5t57 142.5q0 12 2 24.5t4.5 22.5t7.5 23.5t8.5 21.5t11.5 22.5t11.5 21t14 22.5t14 21t15.5 22.5t15 21.5l-104 72q-52 -100 -141.5 -152.5t-204.5 -52.5q-206 0 -348 151t-142 386zM408 584
q0 -115 69.5 -182.5t177.5 -67.5q85 0 148.5 40.5t85.5 106.5v205q-22 66 -87 107t-149 41q-112 0 -178.5 -70.5t-66.5 -179.5z" />
    <glyph glyph-name="uni0123.ss01" horiz-adv-x="1339" 
d="M500 1556l168 281l163 -80l-100 -170q60 -19 94.5 -65.5t34.5 -110.5q0 -89 -59 -139.5t-148 -50.5q-92 0 -147 52t-55 138q0 67 49 145zM53 582q0 236 142 388t362 152q123 0 208.5 -55t139.5 -170l105 55q-45 81 -60 127v6h287v-1040q0 -261 -153.5 -403t-436.5 -142
q-230 0 -360.5 104t-149.5 283l320 58q0 -91 59 -138t160 -47q102 0 156 52.5t57 142.5q0 12 2 24.5t4.5 22.5t7.5 23.5t8.5 21.5t11.5 22.5t11.5 21t14 22.5t14 21t15.5 22.5t15 21.5l-104 72q-52 -100 -141.5 -152.5t-204.5 -52.5q-206 0 -348 151t-142 386zM408 584
q0 -115 69.5 -182.5t177.5 -67.5q85 0 148.5 40.5t85.5 106.5v205q-22 66 -87 107t-149 41q-112 0 -178.5 -70.5t-66.5 -179.5z" />
    <glyph glyph-name="gdotaccent.ss01" horiz-adv-x="1339" 
d="M479 1221v274h348v-274h-348zM53 582q0 236 142 388t362 152q123 0 208.5 -55t139.5 -170l105 55q-45 81 -60 127v6h287v-1040q0 -261 -153.5 -403t-436.5 -142q-230 0 -360.5 104t-149.5 283l320 58q0 -91 59 -138t160 -47q102 0 156 52.5t57 142.5q0 12 2 24.5
t4.5 22.5t7.5 23.5t8.5 21.5t11.5 22.5t11.5 21t14 22.5t14 21t15.5 22.5t15 21.5l-104 72q-52 -100 -141.5 -152.5t-204.5 -52.5q-206 0 -348 151t-142 386zM408 584q0 -115 69.5 -182.5t177.5 -67.5q85 0 148.5 40.5t85.5 106.5v205q-22 66 -87 107t-149 41
q-112 0 -178.5 -70.5t-66.5 -179.5z" />
    <glyph glyph-name="i.ss01" horiz-adv-x="561" 
d="M109 1221v274h348v-274h-348zM106 0v1085h349v-1085h-349z" />
    <glyph glyph-name="idieresis.ss01" horiz-adv-x="593" 
d="M-133 1221v274h348v-274h-348zM354 1221v274h348v-274h-348zM106 0v1085h355v-1085h-355z" />
    <glyph glyph-name="i.loclTRK.ss01" horiz-adv-x="593" 
d="M111 1221v274h348v-274h-348zM106 0v1085h355v-1085h-355z" />
    <glyph glyph-name="j.ss01" horiz-adv-x="567" 
d="M115 1221v274h348v-274h-348zM461 1085v-1312q0 -106 -74.5 -170t-196.5 -64h-352v275h275v1271h348z" />
    <glyph glyph-name="odieresis.ss01" horiz-adv-x="1282" 
d="M229 1221v274h349v-274h-349zM717 1221v274h348v-274h-348zM53 543q0 261 162.5 421t425.5 160t425.5 -160t162.5 -421t-162.5 -421.5t-425.5 -160.5t-425.5 160.5t-162.5 421.5zM879 543q0 135 -61.5 214t-176.5 79t-176.5 -79t-61.5 -214t61.5 -214t176.5 -79t176.5 79
t61.5 214z" />
    <glyph glyph-name="t.ss01" horiz-adv-x="944" 
d="M813 -2l-313 2q-132 0 -199.5 66t-67.5 182v553h-213v284h213v267l349 61v-328h311v-284h-311v-510h276z" />
    <glyph glyph-name="udieresis.ss01" horiz-adv-x="1333" 
d="M244 1221v274h348v-274h-348zM731 1221v274h348v-274h-348zM1231 1085v-1085h-330v6q11 47 51 150l-106 34q-46 -110 -146 -169.5t-223 -59.5q-175 0 -280 115.5t-105 331.5v677h348v-614q0 -95 53 -148t150 -53q74 0 137.5 31t102.5 88v696h348z" />
    <glyph glyph-name="wdieresis.ss01" horiz-adv-x="1753" 
d="M459 1221v274h348v-274h-348zM946 1221v274h348v-274h-348zM266 0l-274 1085h352l47 -245q34 -184 31 -494h110q10 120 36.5 225.5t99.5 333.5l57 180h303l57 -180q74 -227 101 -332.5t35 -226.5h110q0 339 31 494l47 245h352l-272 -1085h-393l-41 133q-68 218 -90.5 350
t-28.5 316h-119q-6 -183 -29.5 -321t-87.5 -345l-41 -133h-393z" />
    <glyph glyph-name="y.ss01" horiz-adv-x="1271" 
d="M438 72l-450 1013h391l123 -340q61 -168 69 -362h127q8 191 70 362l123 340h389l-692 -1546h-381z" />
    <glyph glyph-name="yacute.ss01" horiz-adv-x="1271" 
d="M590 1585h375l-205 -325h-252zM438 72l-450 1013h391l123 -340q61 -168 69 -362h127q8 191 70 362l123 340h389l-692 -1546h-381z" />
    <glyph glyph-name="ycircumflex.ss01" horiz-adv-x="1271" 
d="M530 1260h-299l220 325h366l219 -325h-299l-28 61q-29 63 -37 113h-76q-8 -50 -37 -113zM438 72l-450 1013h391l123 -340q61 -168 69 -362h127q8 191 70 362l123 340h389l-692 -1546h-381z" />
    <glyph glyph-name="ydieresis.ss01" horiz-adv-x="1271" 
d="M217 1221v274h348v-274h-348zM705 1221v274h348v-274h-348zM438 72l-450 1013h391l123 -340q61 -168 69 -362h127q8 191 70 362l123 340h389l-692 -1546h-381z" />
    <glyph glyph-name="ygrave.ss01" horiz-adv-x="1271" 
d="M508 1260l-205 325h375l82 -325h-252zM438 72l-450 1013h391l123 -340q61 -168 69 -362h127q8 191 70 362l123 340h389l-692 -1546h-381z" />
    <glyph glyph-name="zdotaccent.ss01" horiz-adv-x="1089" 
d="M377 1221v274h348v-274h-348zM1042 0h-985v276l584 562l-82 90q-71 -73 -125 -100t-153 -27h-209v284h952v-276l-584 -561l80 -90q71 72 128.5 99.5t154.5 27.5h239v-285z" />
    <glyph glyph-name="m_m.dlig" horiz-adv-x="3344" 
d="M451 0h-349v1085h330v-6q-14 -59 -49 -149l63 -35q111 229 342 229q124 0 203 -59t109 -162h51q48 107 137.5 163t200.5 58q124 0 202.5 -59t108.5 -162h51q48 107 137.5 163t200.5 58q124 0 203 -59t109 -162h51q48 109 138.5 165t203.5 56q172 0 265 -115.5t93 -330.5
v-678h-348v623q0 194 -154 194q-63 0 -115.5 -28.5t-82.5 -75.5v-713h-348v623q0 194 -154 194q-63 0 -116 -28.5t-83 -75.5v-713h-348v623q0 194 -153 194q-63 0 -116 -28.5t-83 -75.5v-713h-348v623q0 194 -154 194q-63 0 -115.5 -29t-82.5 -77v-711z" />
    <glyph glyph-name="o_o.dlig" horiz-adv-x="2170" 
d="M53 547q0 174 77.5 306t210 200.5t298.5 68.5q133 0 244 -52t172 -140h61q62 90 174 141t242 51q255 0 420.5 -157.5t165.5 -419.5q0 -174 -77 -306.5t-210 -202t-301 -69.5q-134 0 -245 52.5t-169 140.5h-61q-61 -89 -174 -141t-242 -52q-166 0 -298.5 70t-210 203
t-77.5 307zM408 545q0 -123 78 -196t200 -73q98 0 168 48t92 125h279q20 -78 91 -125.5t169 -47.5q122 0 200 73t78 196q0 122 -78 195t-200 73q-98 0 -168 -47.5t-92 -124.5h-279q-20 78 -91 125t-169 47q-122 0 -200 -73t-78 -195z" />
    <glyph glyph-name="fi.ss01" horiz-adv-x="1472" 
d="M231 801h-206v284h206v177q0 105 74.5 169t196.5 64h352l41 -274h-315v-136h301v-284h-301v-801h-349v801zM1020 1221v274h348v-274h-348zM1018 0v1085h348v-1085h-348z" />
    <glyph glyph-name="f_f.liga.ss01" horiz-adv-x="1699" 
d="M231 801h-206v284h206v177q0 105 74.5 169t196.5 64h352l41 -274h-315v-136h440v177q0 106 74 169.5t196 63.5h352l41 -274h-315v-136h301v-284h-301v-801h-348v801h-440v-801h-349v801z" />
    <glyph glyph-name="f_f_i.liga.ss01" horiz-adv-x="2260" 
d="M231 801h-206v284h206v177q0 105 74.5 169t196.5 64h352l41 -274h-315v-136h440v177q0 106 74 169.5t196 63.5h352l41 -274h-315v-136h301v-284h-301v-801h-348v801h-440v-801h-349v801zM1808 1221v274h349v-274h-349zM1806 0v1085h348v-1085h-348z" />
    <glyph glyph-name="f_t.liga.ss01" horiz-adv-x="1712" 
d="M231 801h-206v284h206v177q0 105 74.5 169t196.5 64h311l41 -274h-274v-136h421v267l349 61v-328h311v-284h-311v-510h276l-45 -293l-313 2q-132 0 -199.5 66t-67.5 182v553h-421v-801h-349v801z" />
    <glyph glyph-name="t_f.liga.ss01" horiz-adv-x="1689" 
d="M233 801h-213v284h213v267l349 61v-328h428v177q0 106 74 169.5t196 63.5h352l41 -274h-315v-136h301v-284h-301v-801h-348v801h-428v-510h276l-45 -293l-313 2q-132 1 -199.5 67t-67.5 181v553z" />
    <glyph glyph-name="t_i.liga.ss01" horiz-adv-x="1505" 
d="M1053 1221v274h348v-274h-348zM813 -2l-313 2q-132 0 -199.5 66t-67.5 182v553h-213v284h213v267l349 61v-328h311v-284h-311v-510h276zM1051 0v1085h348v-1085h-348z" />
    <glyph glyph-name="t_t.liga.ss01" horiz-adv-x="1722" 
d="M233 801h-213v284h213v267l349 61v-328h430v267l348 61v-328h311v-284h-311v-510h276l-45 -293l-313 2q-132 0 -199 66t-67 182v553h-430v-510h276l-45 -293l-313 2q-132 1 -199.5 67t-67.5 181v553z" />
    <glyph glyph-name="t_t_i.liga.ss01" horiz-adv-x="2283" 
d="M1831 1221v274h348v-274h-348zM233 801h-213v284h213v267l349 61v-328h430v267l348 61v-328h311v-284h-311v-510h276l-45 -293l-313 2q-132 0 -199 66t-67 182v553h-430v-510h276l-45 -293l-313 2q-132 1 -199.5 67t-67.5 181v553zM1829 0v1085h348v-1085h-348z" />
    <glyph glyph-name="zero.tf" horiz-adv-x="1458" 
d="M727 -25q-185 0 -319 94t-201.5 261.5t-67.5 390.5q0 355 160.5 553.5t427.5 198.5q280 0 436 -203.5t156 -548.5q0 -351 -161 -548.5t-431 -197.5zM727 289q133 0 187.5 111.5t54.5 320.5q0 226 -64 332t-178 106q-68 0 -115.5 -31.5t-74.5 -91.5t-38.5 -136.5
t-11.5 -178.5q0 -223 64 -327.5t176 -104.5z" />
    <glyph glyph-name="one.tf" horiz-adv-x="1464" 
d="M942 1434v-1141h361v-293h-1127v293h412v330q0 77 9 133.5t32.5 102.5t44 73t61.5 74l-82 79q-76 -82 -211 -136t-278 -62v299q183 24 329 91.5t216 156.5h233z" />
    <glyph glyph-name="two.tf" horiz-adv-x="1462" 
d="M1309 0h-1153v268l598 414q107 74 147.5 141t40.5 146q0 101 -56 157t-149 56q-112 0 -176.5 -68.5t-64.5 -200.5l-334 33q0 242 152.5 384.5t430.5 142.5q246 0 397.5 -132.5t151.5 -347.5q0 -170 -82 -290t-301 -263q-124 -83 -313 -174l53 -108q73 30 112.5 45
t119.5 40t161 36.5t166 11.5h99v-291z" />
    <glyph glyph-name="three.tf" horiz-adv-x="1458" 
d="M733 -41q-283 0 -433.5 123t-168.5 352l309 78q33 -260 299 -260q115 0 176.5 47.5t61.5 138.5q0 170 -236 170h-159v252h137q221 0 221 162q0 79 -52.5 122.5t-146.5 43.5q-121 0 -189.5 -66.5t-80.5 -181.5l-313 74q15 211 180 335t412 124q259 0 399.5 -107
t140.5 -279q0 -121 -72 -195.5t-198 -100.5v-103q134 -6 220.5 -89t86.5 -214q0 -195 -158.5 -310.5t-435.5 -115.5z" />
    <glyph glyph-name="four.tf" horiz-adv-x="1452" 
d="M1137 0h-349v268h-686v281l641 887h394v-881h215v-287h-215v-268zM805 1143l-402 -602l62 -68q39 38 113 60t155 22h55v166q0 62 10.5 115.5t31.5 96.5t37 68t42 60z" />
    <glyph glyph-name="five.tf" horiz-adv-x="1456" 
d="M121 420l313 78q18 -123 96.5 -184.5t202.5 -61.5q125 0 189.5 63t64.5 172q0 112 -63 173t-183 61q-86 0 -160 -33t-118 -90l-279 80l92 758h924v-287h-635v-21q0 -58 -35.5 -124t-91.5 -117l97 -78q53 82 138.5 125t188.5 43q218 0 346.5 -135t128.5 -357
q0 -249 -163.5 -386.5t-434.5 -137.5q-261 0 -429.5 126t-188.5 333z" />
    <glyph glyph-name="six.tf" horiz-adv-x="1456" 
d="M745 -39q-304 0 -462 200.5t-158 557.5q0 176 47 318.5t132 238t204 146.5t262 51q208 0 359 -104.5t180 -272.5l-351 -76q-24 77 -78.5 119.5t-123.5 42.5q-119 0 -199 -107.5t-86 -329.5l86 -16q35 97 127.5 152t214.5 55q198 0 315 -122.5t117 -342.5
q0 -232 -156.5 -371t-429.5 -139zM756 252q103 0 165 62t62 167q0 102 -56.5 158.5t-164.5 56.5q-82 0 -154 -36.5t-116 -102.5q0 -145 69.5 -225t194.5 -80z" />
    <glyph glyph-name="seven.tf" horiz-adv-x="1462" 
d="M416 1147h-262v289h1157v-267l-590 -1169h-412v14l434 813q68 126 132.5 210.5t162.5 170.5l-82 111q-96 -90 -224.5 -131t-315.5 -41z" />
    <glyph glyph-name="eight.tf" horiz-adv-x="1456" 
d="M123 385q0 127 75.5 209t198.5 108v95q-223 60 -223 280q0 179 152.5 287.5t402.5 108.5t401.5 -108.5t151.5 -287.5q0 -65 -18 -115t-50.5 -81.5t-69.5 -51t-85 -32.5v-95q128 -27 202 -110.5t74 -206.5q0 -206 -162.5 -315t-443.5 -109q-282 0 -444 109t-162 315z
M522 1024q0 -76 55 -123t152 -47q96 0 151.5 47.5t55.5 122.5q0 84 -55 127t-152 43q-98 0 -152.5 -43t-54.5 -127zM473 449q0 -96 62.5 -148.5t193.5 -52.5t193.5 52.5t62.5 148.5q0 92 -65.5 145t-190.5 53q-126 0 -191 -53t-65 -145z" />
    <glyph glyph-name="nine.tf" horiz-adv-x="1456" 
d="M713 1473q303 0 459.5 -200.5t156.5 -557.5q0 -353 -175.5 -553.5t-465.5 -200.5q-212 0 -358.5 105t-177.5 272l352 76q23 -76 77.5 -119t120.5 -43q121 0 199 108.5t82 327.5l-84 17q-34 -95 -125.5 -151t-214.5 -56q-197 0 -313.5 122.5t-116.5 342.5q0 232 155.5 371
t428.5 139zM705 1182q-103 0 -165.5 -63t-62.5 -167q0 -102 56.5 -158.5t162.5 -56.5q85 0 155.5 38t113.5 102q0 145 -69 225t-191 80z" />
    <glyph glyph-name="zero.dnom" horiz-adv-x="829" 
d="M414 -12q-162 0 -253 111t-91 298q0 194 94 303t250 109q164 0 255 -112t91 -300q0 -193 -93.5 -301t-252.5 -108zM414 178q74 0 102.5 57t28.5 162q0 221 -131 221q-72 0 -100.5 -58t-28.5 -163q0 -219 129 -219z" />
    <glyph glyph-name="one.dnom" horiz-adv-x="587" 
d="M430 0h-217v285q0 154 90 241l-49 49q-103 -101 -231 -108v182q84 14 158 51.5t108 87.5h141v-788z" />
    <glyph glyph-name="two.dnom" horiz-adv-x="724" 
d="M678 0h-635v162l326 225q57 39 77.5 74t20.5 78q0 41 -28 67.5t-74 26.5q-51 0 -81 -34.5t-30 -102.5l-205 20q0 132 88.5 212.5t233.5 80.5q135 0 218 -73t83 -193q0 -95 -50 -165t-149 -130q-59 -36 -160 -86l33 -66q196 82 316 82h16v-178z" />
    <glyph glyph-name="three.dnom" horiz-adv-x="759" 
d="M371 -25q-163 0 -247 69.5t-93 193.5l188 49q20 -131 156 -131q117 0 117 88q0 84 -123 84h-84v151h71q115 0 115 78q0 37 -24.5 57.5t-71.5 20.5q-122 0 -139 -127l-193 45q10 121 105.5 188.5t232.5 67.5q146 0 225.5 -58.5t79.5 -152.5q0 -66 -42 -108t-114 -54v-59
q83 -4 131 -50.5t48 -115.5q0 -108 -90.5 -172t-247.5 -64z" />
    <glyph glyph-name="four.dnom" horiz-adv-x="833" 
d="M672 0h-217v139h-402v172l375 477h244v-475h127v-174h-127v-139zM471 618l-233 -313l38 -41q23 23 69.5 36t92.5 13h17v60q0 64 17.5 108.5t57.5 79.5z" />
    <glyph glyph-name="five.dnom" horiz-adv-x="774" 
d="M31 233l192 50q20 -127 162 -127q65 0 98 30.5t33 83.5q0 54 -32 83.5t-97 29.5q-96 0 -147 -57l-172 47l53 415h530v-174h-350l2 15q-13 -75 -78 -131l60 -47q59 88 178 88q123 0 195.5 -74t72.5 -197q0 -137 -93.5 -214t-248.5 -77q-151 0 -249.5 70.5t-108.5 185.5z
" />
    <glyph glyph-name="six.dnom" horiz-adv-x="808" 
d="M424 -23q-180 0 -273.5 111.5t-93.5 310.5q0 192 104.5 301t274.5 109q124 0 212.5 -58t105.5 -153l-217 -45q-13 38 -43.5 59t-67.5 21q-62 0 -106.5 -50.5t-47.5 -160.5l52 -12q19 47 70.5 74.5t123.5 27.5q115 0 183.5 -65.5t68.5 -186.5q0 -129 -92.5 -206
t-253.5 -77zM430 156q56 0 89.5 29t33.5 81q0 103 -121 103q-94 0 -149 -58q-1 -73 38 -114t109 -41z" />
    <glyph glyph-name="seven.dnom" horiz-adv-x="684" 
d="M139 612h-98v176h602v-161l-283 -627h-251v8l198 414q33 69 70.5 120t103.5 109l-49 68q-52 -52 -120 -79.5t-173 -27.5z" />
    <glyph glyph-name="eight.dnom" horiz-adv-x="833" 
d="M51 211q0 67 45 111.5t119 58.5v57q-133 32 -133 152q0 98 92 158.5t244 60.5q151 0 242.5 -60.5t91.5 -158.5q0 -119 -134 -152v-57q74 -14 119 -58.5t45 -111.5q0 -114 -97.5 -174t-266.5 -60q-170 0 -268.5 60t-98.5 174zM299 557q0 -37 32 -60.5t87 -23.5
q53 0 85 23.5t32 60.5q0 82 -117 82q-119 0 -119 -82zM268 252q0 -47 37 -73.5t113 -26.5q75 0 111 26.5t36 73.5q0 44 -38 71t-109 27q-73 0 -111.5 -27t-38.5 -71z" />
    <glyph glyph-name="nine.dnom" horiz-adv-x="811" 
d="M391 809q180 0 273.5 -111.5t93.5 -308.5q0 -192 -104.5 -302t-274.5 -110q-126 0 -214.5 59t-105.5 152l220 45q13 -39 43 -58t65 -19q64 0 108 49.5t48 161.5l-54 10q-19 -47 -70.5 -75t-121.5 -28q-116 0 -184 66.5t-68 187.5q0 128 92 204.5t254 76.5zM385 633
q-56 0 -90.5 -30t-34.5 -81q0 -102 123 -102q95 0 147 55q2 74 -36.5 116t-108.5 42z" />
    <glyph glyph-name="zero.numr" horiz-adv-x="829" 
d="M414 633q-162 0 -253 111t-91 298q0 194 94 303t250 109q164 0 255 -112t91 -300q0 -193 -93.5 -301t-252.5 -108zM414 823q74 0 102.5 57t28.5 162q0 222 -131 222q-72 0 -100.5 -58.5t-28.5 -163.5q0 -219 129 -219z" />
    <glyph glyph-name="one.numr" horiz-adv-x="587" 
d="M430 645h-217v285q0 154 90 241l-49 50q-105 -102 -231 -109v182q84 14 157.5 52t108.5 88h141v-789z" />
    <glyph glyph-name="two.numr" horiz-adv-x="724" 
d="M678 645h-635v162l326 225q57 39 77.5 74t20.5 78q0 41 -28 67.5t-74 26.5q-51 0 -81 -34.5t-30 -102.5l-205 20q0 132 88.5 212.5t233.5 80.5q135 0 218 -73t83 -193q0 -95 -50 -165t-149 -130q-59 -36 -160 -86l33 -66q196 82 316 82h16v-178z" />
    <glyph glyph-name="three.numr" horiz-adv-x="759" 
d="M371 621q-163 0 -247 69t-93 193l188 49q20 -131 156 -131q117 0 117 88q0 84 -123 84h-84v151h71q115 0 115 78q0 37 -24.5 57.5t-71.5 20.5q-122 0 -139 -127l-193 45q10 121 105.5 188.5t232.5 67.5q146 0 225.5 -58.5t79.5 -152.5q0 -66 -42 -108t-114 -54v-59
q83 -4 131 -50.5t48 -115.5q0 -108 -90.5 -171.5t-247.5 -63.5z" />
    <glyph glyph-name="four.numr" horiz-adv-x="833" 
d="M672 645h-217v139h-402v172l375 478h244v-476h127v-174h-127v-139zM471 1264l-233 -314l38 -41q23 23 69.5 36t92.5 13h17v60q0 64 17.5 108.5t57.5 79.5z" />
    <glyph glyph-name="five.numr" horiz-adv-x="774" 
d="M31 879l192 49q20 -127 162 -127q65 0 98 30.5t33 83.5q0 54 -32 83.5t-97 29.5q-96 0 -147 -57l-172 47l53 416h530v-174h-350l2 14q-13 -75 -78 -131l60 -47q59 88 178 88q123 0 195.5 -74t72.5 -197q0 -137 -93.5 -213.5t-248.5 -76.5q-151 0 -249.5 70.5
t-108.5 185.5z" />
    <glyph glyph-name="six.numr" horiz-adv-x="808" 
d="M424 623q-180 0 -273.5 111t-93.5 310q0 192 104.5 301t274.5 109q124 0 212.5 -58t105.5 -153l-217 -45q-13 38 -43.5 59t-67.5 21q-62 0 -106.5 -50.5t-47.5 -160.5l52 -12q19 47 70.5 74.5t123.5 27.5q115 0 183.5 -65.5t68.5 -186.5q0 -129 -92.5 -205.5
t-253.5 -76.5zM430 801q56 0 89.5 29t33.5 81q0 103 -121 103q-94 0 -149 -58q-1 -73 38 -114t109 -41z" />
    <glyph glyph-name="seven.numr" horiz-adv-x="684" 
d="M139 1257h-98v177h602v-162l-283 -627h-251v8l198 414q33 69 70.5 120t103.5 109l-49 68q-52 -52 -120 -79.5t-173 -27.5z" />
    <glyph glyph-name="eight.numr" horiz-adv-x="833" 
d="M51 856q0 67 45 111.5t119 58.5v57q-133 32 -133 152q0 98 92 158.5t244 60.5q151 0 242.5 -60.5t91.5 -158.5q0 -119 -134 -152v-57q74 -14 119 -58.5t45 -111.5q0 -114 -97.5 -173.5t-266.5 -59.5q-170 0 -268.5 59.5t-98.5 173.5zM299 1202q0 -37 32 -60.5t87 -23.5
q53 0 85 23.5t32 60.5q0 82 -117 82q-119 0 -119 -82zM268 897q0 -47 37 -73.5t113 -26.5q75 0 111 26.5t36 73.5q0 44 -38 71t-109 27q-73 0 -111.5 -27t-38.5 -71z" />
    <glyph glyph-name="nine.numr" horiz-adv-x="811" 
d="M391 1454q180 0 273.5 -111.5t93.5 -308.5q0 -192 -104.5 -301.5t-274.5 -109.5q-126 0 -214.5 59t-105.5 152l220 45q13 -39 43 -58.5t65 -19.5q64 0 108 49.5t48 161.5l-54 10q-19 -47 -70.5 -74.5t-121.5 -27.5q-116 0 -184 66.5t-68 187.5q0 128 92 204t254 76z
M385 1278q-56 0 -90.5 -30t-34.5 -81q0 -102 123 -102q95 0 147 55q2 74 -36.5 116t-108.5 42z" />
    <glyph glyph-name="colon.case" horiz-adv-x="655" 
d="M328 803q-99 0 -157 50t-58 148t58 148.5t157 50.5t157 -50.5t58 -148.5t-58 -148t-157 -50zM328 203q-99 0 -157 50t-58 148t58 148.5t157 50.5t157 -50.5t58 -148.5t-58 -148t-157 -50z" />
    <glyph glyph-name="period.ss01" horiz-adv-x="610" 
d="M131 0v336h348v-336h-348z" />
    <glyph glyph-name="comma.ss01" horiz-adv-x="530" 
d="M219 -350l-156 76l160 274h-143v336h348v-336z" />
    <glyph glyph-name="colon.ss01" horiz-adv-x="634" 
d="M143 750v335h349v-335h-349zM143 0v336h349v-336h-349z" />
    <glyph glyph-name="semicolon.ss01" horiz-adv-x="638" 
d="M147 750v335h349v-335h-349zM287 -350l-156 76l160 274h-144v336h349v-336z" />
    <glyph glyph-name="exclam.ss01" horiz-adv-x="618" 
d="M377 526h-135l-111 619v289h356v-289zM135 0v336h348v-336h-348z" />
    <glyph glyph-name="question.ss01" horiz-adv-x="1294" 
d="M819 485h-297v265q169 9 253.5 64t84.5 171q0 94 -57.5 144.5t-151.5 50.5q-95 0 -159.5 -50t-71.5 -143l-322 68q20 192 175 303.5t393 111.5q248 0 397 -122t149 -326q0 -166 -101 -280t-292 -152v-105zM496 0v336h348v-336h-348z" />
    <glyph glyph-name="asterisk.ss02" horiz-adv-x="905" 
d="M408 1104l-5 8q-116 25 -305 94l23 66q176 -46 293 -105l8 7q-18 128 -6 305h73q12 -177 -4 -305l7 -7q118 60 292 105l23 -66q-180 -67 -303 -94v-10q97 -99 209 -264l-58 -39q-125 144 -196 264h-13q-16 -28 -34.5 -55.5t-31.5 -46t-35 -46.5t-30 -38t-34 -41t-31 -37
l-55 39q111 162 213 266z" />
    <glyph glyph-name="slash.ss02" horiz-adv-x="901" 
d="M70 0l667 1434h94l-667 -1434h-94z" />
    <glyph glyph-name="backslash.ss02" horiz-adv-x="901" 
d="M70 1434h94l667 -1434h-94z" />
    <glyph glyph-name="parenleft.case" horiz-adv-x="837" 
d="M170 686q0 263 106.5 519t311.5 489l203 -148q-164 -212 -240 -416t-76 -444t77.5 -445t238.5 -415l-203 -148q-205 233 -311.5 489t-106.5 519z" />
    <glyph glyph-name="parenright.case" horiz-adv-x="837" 
d="M668 686q0 -263 -106.5 -519t-311.5 -489l-203 148q161 209 238 414t77 446q0 240 -76 444t-239 416l203 148q205 -233 311.5 -489t106.5 -519z" />
    <glyph glyph-name="braceleft.case" horiz-adv-x="894" 
d="M262 35v362q0 70 -23.5 95.5t-88.5 25.5h-58v379h58q65 0 88.5 25.5t23.5 95.5v319q0 179 79.5 252.5t274.5 73.5h220v-281h-183q-65 0 -88.5 -28t-23.5 -103v-284q0 -86 -54 -146.5t-135 -60.5v-107q81 0 135 -60.5t54 -146.5v-323q0 -75 23.5 -103t88.5 -28h183v-283
h-220q-195 0 -274.5 73.5t-79.5 252.5z" />
    <glyph glyph-name="braceright.case" horiz-adv-x="897" 
d="M635 397v-362q0 -179 -79.5 -252.5t-274.5 -73.5h-220v283h183q65 0 88.5 28t23.5 103v323q0 86 54 146.5t135 60.5v107q-81 0 -135 60.5t-54 146.5v284q0 75 -23.5 103t-88.5 28h-183v281h220q195 0 274.5 -73.5t79.5 -252.5v-319q0 -69 23.5 -95t89.5 -26h57v-379h-57
q-66 0 -89.5 -26t-23.5 -95z" />
    <glyph glyph-name="bracketleft.case" horiz-adv-x="827" 
d="M768 -291h-575v1954h575v-270h-297v-1411h297v-273z" />
    <glyph glyph-name="bracketright.case" horiz-adv-x="827" 
d="M635 1663v-1954h-576v273h297v1411h-297v270h576z" />
    <glyph glyph-name="parenleft.ss02" horiz-adv-x="638" 
d="M129 602q0 562 403 997l62 -49q-189 -210 -280 -443.5t-91 -504.5q0 -269 91 -502.5t280 -443.5l-62 -51q-403 435 -403 997z" />
    <glyph glyph-name="parenright.ss02" horiz-adv-x="638" 
d="M510 602q0 -561 -404 -997l-61 51q189 210 280 443.5t91 502.5q0 271 -91 504.5t-280 443.5l61 49q404 -436 404 -997z" />
    <glyph glyph-name="braceleft.ss02" horiz-adv-x="718" 
d="M184 -18v507q0 75 -23.5 103.5t-84.5 28.5h-37v131h37q62 0 85 28t23 103v467q0 129 51 188t162 59h252v-86h-243q-69 0 -101.5 -42t-32.5 -134v-473q0 -148 -133 -157v-37q133 -9 133 -158v-516q0 -90 32.5 -132t101.5 -42h243v-86h-252q-111 0 -162 59t-51 189z" />
    <glyph glyph-name="braceright.ss02" horiz-adv-x="718" 
d="M535 489v-507q0 -130 -51 -189t-162 -59h-252v86h243q69 0 101 41.5t32 132.5v516q0 149 134 158v37q-134 9 -134 157v473q0 92 -32 134t-101 42h-243v86h252q111 0 162 -59t51 -188v-467q0 -75 23 -103t85 -28h37v-131h-37q-61 0 -84.5 -28.5t-23.5 -103.5z" />
    <glyph glyph-name="bracketleft.ss02" horiz-adv-x="679" 
d="M633 -266h-465v1863h465v-86h-377v-1691h377v-86z" />
    <glyph glyph-name="bracketright.ss02" horiz-adv-x="679" 
d="M512 1597v-1863h-465v86h377v1691h-377v86h465z" />
    <glyph glyph-name="hyphen.case" horiz-adv-x="942" 
d="M182 551v297h578v-297h-578z" />
    <glyph glyph-name="endash.case" horiz-adv-x="1239" 
d="M111 551v297h1017v-297h-1017z" />
    <glyph glyph-name="emdash.case" horiz-adv-x="1775" 
d="M86 551v297h1602v-297h-1602z" />
    <glyph glyph-name="hyphen.ss02" horiz-adv-x="843" 
d="M180 565v88h484v-88h-484z" />
    <glyph glyph-name="endash.ss02" horiz-adv-x="1236" 
d="M170 565v88h897v-88h-897z" />
    <glyph glyph-name="emdash.ss02" horiz-adv-x="1820" 
d="M170 565v88h1481v-88h-1481z" />
    <glyph glyph-name="hyphen.case.ss02" horiz-adv-x="843" 
d="M180 668v88h484v-88h-484z" />
    <glyph glyph-name="endash.case.ss02" horiz-adv-x="1236" 
d="M170 668v88h897v-88h-897z" />
    <glyph glyph-name="emdash.case.ss02" horiz-adv-x="1820" 
d="M170 668v88h1481v-88h-1481z" />
    <glyph glyph-name="guillemotleft.case" horiz-adv-x="1310" 
d="M408 737l286 -528h-370l-289 528l289 531h370zM967 737l286 -528h-372l-287 528l287 531h372z" />
    <glyph glyph-name="guillemotright.case" horiz-adv-x="1310" 
d="M428 209h-371l287 528l-287 531h371l289 -531zM987 209h-371l285 528l-285 531h371l289 -531z" />
    <glyph glyph-name="guilsinglleft.case" horiz-adv-x="763" 
d="M424 737l287 -528h-373l-287 528l287 531h373z" />
    <glyph glyph-name="guilsinglright.case" horiz-adv-x="765" 
d="M428 209h-371l287 528l-287 531h371l289 -531z" />
    <glyph glyph-name="quotesinglbase.ss01" horiz-adv-x="530" 
d="M219 -350l-156 76l160 274h-143v336h348v-336z" />
    <glyph glyph-name="quotedblbase.ss01" horiz-adv-x="1001" 
d="M219 -350l-156 76l160 274h-143v336h348v-336zM690 -350l-155 76l159 274h-143v336h348v-336z" />
    <glyph glyph-name="quotedblleft.ss01" horiz-adv-x="999" 
d="M276 1470l156 -75l-160 -275h144v-336h-348v336zM748 1470l155 -75l-160 -275h144v-336h-348v336z" />
    <glyph glyph-name="quotedblright.ss01" horiz-adv-x="1001" 
d="M217 784l-156 76l160 275h-143v335h348v-335zM688 784l-156 76l160 275h-143v335h348v-335z" />
    <glyph glyph-name="quoteleft.ss01" horiz-adv-x="532" 
d="M313 1470l156 -75l-160 -275h144v-336h-349v336z" />
    <glyph glyph-name="quoteright.ss01" horiz-adv-x="532" 
d="M217 784l-156 76l160 275h-143v335h348v-335z" />
    <glyph glyph-name="hyphen_hyphen.dlig" horiz-adv-x="1513" 
d="M1331 510h-1149v297h1149v-297z" />
    <glyph glyph-name="hyphen_hyphen_greater.dlig" horiz-adv-x="1734" 
d="M791 1159l184 184l661 -661l-661 -659l-184 184l170 168q14 14 31 26.5t42.5 27.5t44 25t60 30.5t65.5 33.5l-37 105q-6 -2 -34.5 -14.5t-35.5 -15.5t-32 -12.5t-36 -12.5t-34.5 -9.5t-40.5 -8.5t-41 -4.5t-49 -2.5l-692 -6v284l694 4q32 0 64 -4.5t54.5 -9t53 -15.5
t44.5 -17t45.5 -20t39.5 -18l39 109q-87 41 -118 56.5t-69.5 39.5t-60.5 47z" />
    <glyph glyph-name="emdash_emdash.dlig" horiz-adv-x="2693" 
d="M1100 616h-920v119h920l-230 271l25 20l272 -211q20 74 99 74q44 0 68.5 -27.5t17.5 -70.5q8 43 36.5 70.5t69.5 27.5q57 0 78 -47l342 282l23 -22l-328 -367h940v-119h-940l229 -266l-24 -20l-273 211q-20 -74 -98 -74q-44 0 -68.5 27.5t-17.5 70.5q-8 -43 -37 -70.5
t-70 -27.5q-56 0 -77 47l-342 -283l-23 23z" />
    <glyph glyph-name="parenleft_arrowup_parenright.dlig" horiz-adv-x="2166" 
d="M1083 -225q-199 0 -381 77.5t-313 208t-209 311t-78 378.5q0 196 78 375.5t209 309.5t313 207.5t381 77.5t381 -77.5t313 -208t209 -310t78 -374.5q0 -158 -49.5 -306.5t-140.5 -268.5t-211.5 -210.5t-270 -140t-309.5 -49.5zM1083 27q195 0 361 96.5t263 263t97 363.5
q0 146 -57.5 279.5t-154 230t-230 153.5t-279.5 57q-196 0 -362.5 -96.5t-263.5 -262.5t-97 -361q0 -197 97 -363.5t263.5 -263t362.5 -96.5zM739 647l-180 178l528 531l523 -531l-180 -178l-54 53q-11 11 -21 24.5t-23.5 38t-21 40t-28.5 59.5t-33 68l-106 -37
q8 -19 38 -77.5t41 -99t11 -98.5v-430h-287v430q0 34 4.5 64.5t15 61.5t18 49.5t24 52.5t22.5 47l-110 37q-9 -19 -25 -53.5t-22 -47t-17.5 -35t-16.5 -31.5t-14 -23t-16 -22.5t-16 -17.5z" />
    <glyph glyph-name="uni0028_uni2197_uni0029.dlig" horiz-adv-x="2166" 
d="M1083 -225q-199 0 -381 77.5t-313 208t-209 311t-78 378.5q0 196 78 375.5t209 309.5t313 207.5t381 77.5t381 -77.5t313 -208t209 -310t78 -374.5q0 -158 -49.5 -306.5t-140.5 -268.5t-211.5 -210.5t-270 -140t-309.5 -49.5zM1083 27q195 0 361 96.5t263 263t97 363.5
q0 146 -57.5 279.5t-154 230t-230 153.5t-279.5 57q-196 0 -362.5 -96.5t-263.5 -262.5t-97 -361q0 -197 97 -363.5t263.5 -263t362.5 -96.5zM807 965v256h743l-2 -746h-254v78q0 20 6 45.5t13.5 48t24 70t28.5 86.5l-100 49q-9 -22 -23 -61t-21 -55t-20.5 -42.5
t-30.5 -48.5t-41 -47l-319 -324l-199 199l318 326q30 31 68.5 55t61.5 33.5t69 25.5t55 19l-49 102q-116 -41 -166.5 -55t-85.5 -14h-76z" />
    <glyph glyph-name="parenleft_arrowright_parenright.dlig" horiz-adv-x="2166" 
d="M1083 -225q-199 0 -381 77.5t-313 208t-209 311t-78 378.5q0 196 78 375.5t209 309.5t313 207.5t381 77.5t381 -77.5t313 -208t209 -310t78 -374.5q0 -158 -49.5 -306.5t-140.5 -268.5t-211.5 -210.5t-270 -140t-309.5 -49.5zM1083 27q195 0 361 96.5t263 263t97 363.5
q0 146 -57.5 279.5t-154 230t-230 153.5t-279.5 57q-196 0 -362.5 -96.5t-263.5 -262.5t-97 -361q0 -197 97 -363.5t263.5 -263t362.5 -96.5zM973 1094l178 180l528 -529l-528 -522l-178 180l53 54q15 15 39 30.5t42.5 25t68.5 33t79 38.5l-41 106q-19 -9 -52 -25.5
t-50 -23.5t-45 -16.5t-58 -13.5t-67 -5l-453 -6v283l453 4q44 1 87 -8.5t66 -19t64.5 -30t54.5 -26.5l41 110q-86 39 -135 64t-64.5 36t-29.5 25z" />
    <glyph glyph-name="uni0028_uni2198_uni0029.dlig" horiz-adv-x="2166" 
d="M1083 -225q-199 0 -381 77.5t-313 208t-209 311t-78 378.5q0 196 78 375.5t209 309.5t313 207.5t381 77.5t381 -77.5t313 -208t209 -310t78 -374.5q0 -158 -49.5 -306.5t-140.5 -268.5t-211.5 -210.5t-270 -140t-309.5 -49.5zM1083 27q195 0 361 96.5t263 263t97 363.5
q0 146 -57.5 279.5t-154 230t-230 153.5t-279.5 57q-196 0 -362.5 -96.5t-263.5 -262.5t-97 -361q0 -197 97 -363.5t263.5 -263t362.5 -96.5zM1303 1071l253 6v-749l-743 2l2 254h78q20 0 46.5 -6t47.5 -13t71 -25t85 -30l49 106q-19 7 -57.5 20.5t-54.5 20t-43 20t-49 31
t-48 42.5l-326 315l199 199l326 -316q31 -29 54 -65.5t33 -60t25 -67.5t21 -59l108 52q-47 115 -62 163.5t-15 83.5v76z" />
    <glyph glyph-name="parenleft_arrowdown_parenright.dlig" horiz-adv-x="2166" 
d="M1083 -225q-199 0 -381 77.5t-313 208t-209 311t-78 378.5q0 196 78 375.5t209 309.5t313 207.5t381 77.5t381 -77.5t313 -208t209 -310t78 -374.5q0 -158 -49.5 -306.5t-140.5 -268.5t-211.5 -210.5t-270 -140t-309.5 -49.5zM1083 27q195 0 361 96.5t263 263t97 363.5
q0 146 -57.5 279.5t-154 230t-230 153.5t-279.5 57q-196 0 -362.5 -96.5t-263.5 -262.5t-97 -361q0 -197 97 -363.5t263.5 -263t362.5 -96.5zM1087 137l-528 531l180 178l56 -55q25 -25 45 -62.5t65 -133.5q10 -21 15 -32l110 39q-5 11 -25 52t-29.5 64.5t-19.5 67.5t-10 88
v431h287v-431q0 -43 -9 -82.5t-18.5 -61.5t-31.5 -65t-31 -63l106 -39q15 30 38.5 78.5t33.5 68t25 43t30 38.5l54 55l180 -178z" />
    <glyph glyph-name="uni0028_uni2199_uni0029.dlig" horiz-adv-x="2166" 
d="M1083 -225q-199 0 -381 77.5t-313 208t-209 311t-78 378.5q0 196 78 375.5t209 309.5t313 207.5t381 77.5t381 -77.5t313 -208t209 -310t78 -374.5q0 -158 -49.5 -306.5t-140.5 -268.5t-211.5 -210.5t-270 -140t-309.5 -49.5zM1083 27q195 0 361 96.5t263 263t97 363.5
q0 146 -57.5 279.5t-154 230t-230 153.5t-279.5 57q-196 0 -362.5 -96.5t-263.5 -262.5t-97 -361q0 -197 97 -363.5t263.5 -263t362.5 -96.5zM645 307v746l258 -2v-76q0 -34 -14.5 -81.5t-63.5 -170.5l109 -49q6 16 19.5 56.5t23 65.5t33.5 62.5t57 69.5l324 315l198 -199
l-325 -319q-30 -29 -65.5 -51.5t-55 -31.5t-68 -27t-61.5 -23l49 -103q33 11 82.5 29t71 25t49 13.5t47.5 6.5h78l2 -254z" />
    <glyph glyph-name="parenleft_arrowleft_parenright.dlig" horiz-adv-x="2166" 
d="M1083 -231q-199 0 -381 77.5t-313 208t-209 310.5t-78 378q0 196 78 375.5t209 310t313 208t381 77.5t381 -78t313 -208.5t209 -310t78 -374.5q0 -197 -78 -377.5t-209 -311t-313 -208t-381 -77.5zM1083 20q195 0 361 96.5t263 263t97 363.5q0 146 -57.5 279.5t-154 230
t-230 154t-279.5 57.5q-147 0 -281 -57.5t-230.5 -154t-154 -230t-57.5 -279.5q0 -197 97 -363.5t263.5 -263t362.5 -96.5zM487 739l529 529l176 -181l-51 -55q-23 -24 -63 -45.5t-134 -64.5l-33 -15l39 -110q12 5 44.5 21.5t51.5 24.5t50 19t62.5 15.5t66.5 3.5l452 -4
v-283l-452 6q-36 1 -66.5 5t-59.5 14t-47 17.5t-51.5 23.5t-50.5 24l-41 -106q24 -12 65 -31t58 -28t41.5 -22t39 -23.5t26.5 -22.5l53 -54l-176 -180z" />
    <glyph glyph-name="uni0028_uni2196_uni0029.dlig" horiz-adv-x="2166" 
d="M1083 -231q-199 0 -381 77.5t-313 208t-209 310.5t-78 378q0 196 78 375.5t209 310t313 208t381 77.5t381 -78t313 -208.5t209 -310t78 -374.5q0 -197 -78 -377.5t-209 -311t-313 -208t-381 -77.5zM1083 20q195 0 361 96.5t263 263t97 363.5q0 146 -57.5 279.5t-154 230
t-230 154t-279.5 57.5q-147 0 -281 -57.5t-230.5 -154t-154 -230t-57.5 -279.5q0 -197 97 -363.5t263.5 -263t362.5 -96.5zM637 1214h745v-256h-77q-36 0 -84.5 14.5t-165.5 55.5l-51 -102q19 -7 66.5 -23t68.5 -25t56 -31.5t65 -53.5l315 -326l-197 -199l-319 324
q-31 32 -54 67t-32 55.5t-25.5 67.5t-23.5 64l-101 -49q12 -38 28.5 -87t24 -71.5t13.5 -48t6 -43.5v-78h-254z" />
    <glyph glyph-name="registered.calt" horiz-adv-x="1837" 
d="M915 -31q-224 0 -407 97.5t-291 279t-108 412.5q0 177 65.5 325t177 245.5t258 151.5t308.5 54q128 0 248 -33.5t221 -100t176.5 -158.5t118 -216.5t42.5 -267.5q0 -174 -63 -322.5t-172 -250t-257.5 -159t-316.5 -57.5zM915 158q272 0 438.5 165t166.5 433
q0 265 -166 427.5t-436 162.5q-272 0 -438.5 -161t-166.5 -425q0 -270 166 -436t436 -166zM827 358h-260v789h459q136 0 208.5 -60.5t72.5 -164.5q0 -96 -63.5 -157.5t-176.5 -68.5v-45q59 -6 91 -31t59 -73l45 -82q28 -59 63 -74v-33h-262q-33 23 -68 107l-30 72
q-21 46 -40.5 65t-56.5 19h-41v-263zM827 956v-165h105q58 0 79 20.5t21 60.5q0 45 -24 64.5t-76 19.5h-105z" />
    <glyph glyph-name="at.case" horiz-adv-x="2107" 
d="M1098 -305q-217 0 -406 66.5t-326.5 186t-216.5 296t-79 387.5q0 277 130 496t365 342.5t535 123.5q274 0 487 -103t333 -294.5t120 -441.5q0 -268 -132 -424t-339 -156q-129 0 -207 60.5t-96 162.5h-72q-38 -86 -122 -134t-191 -48q-165 0 -262 111.5t-97 304.5
q0 219 119.5 356t302.5 137q104 0 180.5 -46t108.5 -128h74l28 154h277l-88 -529q-5 -33 -6 -56t4 -49.5t24.5 -40t52.5 -13.5q86 0 134.5 94t48.5 240q0 118 -33.5 217.5t-94.5 170.5t-145 120.5t-184.5 73.5t-214.5 24q-225 0 -399 -91t-268.5 -254t-94.5 -372
q0 -155 54.5 -285t154.5 -222t247 -143.5t326 -51.5q134 0 256 33.5t246 117.5l113 -209q-120 -88 -289 -136t-358 -48zM1032 487q96 0 144 74l20 187q-12 47 -52.5 75.5t-96.5 28.5q-77 0 -121.5 -54.5t-44.5 -140.5q0 -83 40 -126.5t111 -43.5z" />
    <glyph glyph-name="ampersand.ss02" horiz-adv-x="1320" 
d="M113 340q0 153 99 271.5t263 164.5q-92 64 -145.5 114.5t-84 112t-30.5 134.5q0 141 99 234t264 93q166 0 262.5 -93t93.5 -228q-1 -63 -25.5 -119t-61 -95t-82.5 -70t-88 -48.5t-79 -24.5l-4 -30q120 -81 280 -226l130 -116q89 115 141 325l88 -39q-57 -214 -197 -317
v-37q86 -65 156.5 -162t97.5 -184h-116q-50 144 -146 274h-39q-49 -135 -180.5 -217t-296.5 -82q-184 0 -291.5 102.5t-107.5 262.5zM307 1143q0 -96 57.5 -163.5t200.5 -164.5q114 69 154 102q125 102 125 232q0 105 -73.5 169t-195.5 64q-124 0 -196 -65t-72 -174z
M207 348q0 -133 85.5 -209t231.5 -76q148 0 261.5 78.5t170.5 204.5l-419 373q-162 -44 -246 -143t-84 -228z" />
    <glyph glyph-name="bar_bar.dlig" horiz-adv-x="1159" 
d="M1038 1434v-562h-917v562h917zM121 0v561h917v-561h-917z" />
    <glyph glyph-name="less_hyphen_hyphen.dlig" horiz-adv-x="1724" 
d="M1577 821v-284l-692 6q-25 0 -49 2.5t-41 4.5t-40.5 8.5t-34.5 9.5t-36 12.5t-32 12.5t-35.5 15.5t-34.5 14.5l-37 -105q24 -13 65.5 -33.5t60 -30.5t44 -25t42.5 -27.5t31 -26.5l170 -168l-184 -184l-661 659l661 661l184 -184l-167 -166q-22 -23 -60.5 -47t-69.5 -39.5
t-118 -56.5l39 -109q8 4 39.5 18t45.5 20t44.5 17t53 15.5t54.5 9t64 4.5z" />
    <glyph glyph-name="uni0308.ss01" 
d="M-944 1221v274h348v-274h-348zM-457 1221v274h348v-274h-348z" />
    <glyph glyph-name="uni0307.ss01" 
d="M-457 1221v274h348v-274h-348z" />
    <glyph glyph-name="dotaccent.ss01" horiz-adv-x="565" 
d="M109 1221v274h348v-274h-348z" />
    <glyph glyph-name="dieresis.ss01" horiz-adv-x="1052" 
d="M109 1221v274h348v-274h-348zM596 1221v274h348v-274h-348z" />
    </font>
</defs>
</svg>
