<svg xmlns="http://www.w3.org/2000/svg" id="arrow-pointing-right-in-a-circle" width="39.957" height="39.957" viewBox="0 0 39.957 39.957">
    <defs>
        <style>
            .cls-1{fill:#fff}
        </style>
    </defs>
    <path id="Shape" d="M19.979 39.957A19.631 19.631 0 0 1 9.95 37.278a19.985 19.985 0 0 1-7.271-7.271A19.637 19.637 0 0 1 0 19.979 19.631 19.631 0 0 1 2.679 9.95 19.993 19.993 0 0 1 9.95 2.679 19.631 19.631 0 0 1 19.979 0a19.635 19.635 0 0 1 10.029 2.679 19.985 19.985 0 0 1 7.271 7.271 19.638 19.638 0 0 1 2.678 10.029 19.629 19.629 0 0 1-2.679 10.028 19.975 19.975 0 0 1-7.27 7.271 19.631 19.631 0 0 1-10.029 2.679zM8.325 16.648a1.689 1.689 0 0 0-1.665 1.665v3.33a1.689 1.689 0 0 0 1.665 1.666h13.059l-4.917 4.916a1.633 1.633 0 0 0 0 2.341l2.367 2.367a1.7 1.7 0 0 0 2.342 0l9.417-9.417 2.367-2.367a1.7 1.7 0 0 0 0-2.341l-2.367-2.368-9.417-9.416a1.7 1.7 0 0 0-2.342 0l-2.367 2.367a1.7 1.7 0 0 0 0 2.342l4.917 4.916z" class="cls-1"/>
</svg>
