<svg xmlns="http://www.w3.org/2000/svg" width="31.49" height="22.142" viewBox="0 0 31.49 22.142">
    <defs>
        <style>
            .cls-1{fill:#fff}
        </style>
    </defs>
    <g id="right-arrow" transform="rotate(180 15.745 -.337)">
        <path id="Path" d="M-21.2.333a1.112 1.112 0 0 1 1.587 0 1.12 1.12 0 0 1 0 1.571l-8.047 8.047h26.549A1.106 1.106 0 0 1 0 11.063a1.118 1.118 0 0 1-1.111 1.127h-26.554l8.047 8.032a1.139 1.139 0 0 1 0 1.587 1.112 1.112 0 0 1-1.587 0l-9.952-9.952a1.093 1.093 0 0 1 0-1.571z" class="cls-1" transform="rotate(180 0 -.337)"/>
    </g>
</svg>
