<svg xmlns="http://www.w3.org/2000/svg" width="32.417" height="29.882" viewBox="0 0 32.417 29.882">
    <defs>
        <style>
            .cls-1{fill:rgba(0, 0, 0, 0.85)}
        </style>
    </defs>
    <g id="filter" transform="translate(-.001 -.089)">
        <path id="Shape" d="M12.914 29.882a.982.982 0 0 1-.983-.983V15.807L.224 1.607A.982.982 0 0 1 .983 0h30.453a.982.982 0 0 1 .758 1.607l-11.707 14.2-.014 9.833a.988.988 0 0 1-.545.879l-6.578 3.26a.984.984 0 0 1-.436.103zM3.066 1.965l10.606 12.863a.983.983 0 0 1 .224.625v11.862l4.613-2.286.013-9.577a.982.982 0 0 1 .224-.624L29.353 1.965z" class="cls-1" transform="translate(0 .089)"/>
    </g>
</svg>
