<svg xmlns="http://www.w3.org/2000/svg" width="20.339" height="25" viewBox="0 0 20.339 25">
    <defs>
        <style>
            .cls-1{fill:#fff}
        </style>
    </defs>
    <path id="garbage" d="M25.415 2.542h-5.951a3.368 3.368 0 0 0-.768-2A1.792 1.792 0 0 0 17.364 0h-4.237a1.792 1.792 0 0 0-1.332.546 3.368 3.368 0 0 0-.768 2h-5.1a.424.424 0 1 0 0 .847h.865L7.6 22.89A2.056 2.056 0 0 0 9.68 25h11.98a2.053 2.053 0 0 0 2.079-2.1l.811-19.51h.865a.424.424 0 1 0 0-.847zM11.856 21.186a.424.424 0 1 1-.847 0V7.2a.424.424 0 1 1 .847 0zm4.237 0a.424.424 0 1 1-.847 0V7.2a.424.424 0 1 1 .847 0zm4.237 0a.424.424 0 1 1-.847 0V7.2a.424.424 0 1 1 .847 0zM12.4 1.136a.961.961 0 0 1 .724-.289h4.237a.961.961 0 0 1 .724.289 2.494 2.494 0 0 1 .525 1.406h-6.732a2.5 2.5 0 0 1 .522-1.406z" class="cls-1" transform="translate(-5.5)"/>
</svg>
