<svg xmlns="http://www.w3.org/2000/svg" width="38.752" height="35.859" viewBox="0 0 38.752 35.859">
    <defs>
        <style>
            .cls-1{fill:#fff}
        </style>
    </defs>
    <g id="shopping-cart" transform="translate(0 -19.114)">
        <g id="Group_146" data-name="Group 146" transform="translate(13.291 49.278)">
            <g id="Group_145" data-name="Group 145">
                <path id="Path_51" d="M172.5 402.828a2.847 2.847 0 1 0 2.847 2.847 2.851 2.851 0 0 0-2.847-2.847zm0 4.1a1.258 1.258 0 1 1 1.258-1.258 1.259 1.259 0 0 1-1.258 1.263z" class="cls-1" data-name="Path 51" transform="translate(-169.656 -402.828)"/>
            </g>
        </g>
        <g id="Group_148" data-name="Group 148" transform="translate(25.666 49.278)">
            <g id="Group_147" data-name="Group 147">
                <path id="Path_52" d="M330.448 402.828a2.847 2.847 0 1 0 2.847 2.847 2.851 2.851 0 0 0-2.847-2.847zm0 4.1a1.258 1.258 0 1 1 1.258-1.258 1.259 1.259 0 0 1-1.258 1.263z" class="cls-1" data-name="Path 52" transform="translate(-327.601 -402.828)"/>
            </g>
        </g>
        <g id="Group_150" data-name="Group 150" transform="translate(16.048 30.315)">
            <g id="Group_149" data-name="Group 149">
                <path id="Path_53" d="M203.183 165.755h-11.392a.795.795 0 1 0 0 1.59h11.392a.795.795 0 1 0 0-1.59z" class="cls-1" data-name="Path 53" transform="translate(-190.996 -165.755)"/>
            </g>
        </g>
        <g id="Group_152" data-name="Group 152" transform="translate(16.621 35.302)">
            <g id="Group_151" data-name="Group 151">
                <path id="Path_54" d="M211.749 231.035H201.6a.795.795 0 0 0 0 1.59h10.152a.795.795 0 0 0 0-1.59z" class="cls-1" data-name="Path 54" transform="translate(-200.802 -231.035)"/>
            </g>
        </g>
        <g id="Group_154" data-name="Group 154" transform="translate(0 19.114)">
            <g id="Group_153" data-name="Group 153">
                <path id="Path_55" d="M38.324 26.316a1.862 1.862 0 0 0-1.475-.736H7.211l-.6-3.051A1.982 1.982 0 0 0 5.506 21.1L1.33 19.2a.934.934 0 0 0-1.252.518 1.019 1.019 0 0 0 .494 1.312l4.176 1.9L9.352 46.4a1.935 1.935 0 0 0 1.864 1.595h22.795a1 1 0 0 0 0-2H11.216l-.56-2.854h23.531a1.935 1.935 0 0 0 1.864-1.595l2.661-13.564a2.065 2.065 0 0 0-.388-1.666zm-4.137 14.826H10.264L7.6 27.579h29.248z" class="cls-1" data-name="Path 55" transform="translate(0 -19.114)"/>
            </g>
        </g>
    </g>
</svg>
