<svg width="83" height="82" viewBox="0 0 83 82" fill="none" xmlns="http://www.w3.org/2000/svg">
<path d="M0.333282 40C0.333282 21.1438 0.333282 11.7157 6.19115 5.85786C12.049 0 21.4771 0 40.3333 0H42.3333C61.1895 0 70.6176 0 76.4754 5.85786C82.3333 11.7157 82.3333 21.1438 82.3333 40V42C82.3333 60.8562 82.3333 70.2843 76.4754 76.1421C70.6176 82 61.1895 82 42.3333 82H40.3333C21.4771 82 12.049 82 6.19115 76.1421C0.333282 70.2843 0.333282 60.8562 0.333282 42V40Z" fill="#D33D53" fill-opacity="0.08"/>
<path opacity="0.2" d="M37.1333 52.5501L29.7833 45.2001L26.5513 54.1087C26.4619 54.3424 26.4421 54.5971 26.4943 54.8418C26.5465 55.0866 26.6685 55.311 26.8454 55.4879C27.0224 55.6649 27.2468 55.7868 27.4916 55.839C27.7363 55.8912 27.9909 55.8715 28.2247 55.7821L37.1333 52.5501Z" fill="#D33D53"/>
<path opacity="0.2" d="M52.9457 44.8422L52.9459 44.8425C53.0941 44.9894 53.2028 45.1714 53.2618 45.3716C53.3208 45.5718 53.3283 45.7837 53.2835 45.9875C53.2387 46.1914 53.1431 46.3806 53.0056 46.5376C52.8681 46.6946 52.6932 46.8143 52.497 46.8856L45.8149 49.314L33.0192 36.5184L35.4476 29.8362C35.5189 29.64 35.6386 29.4651 35.7956 29.3276C35.9526 29.1901 36.1418 29.0945 36.3457 29.0497C36.5495 29.0049 36.7614 29.0124 36.9616 29.0714C37.1618 29.1304 37.3438 29.2391 37.4907 29.3873L37.491 29.3876L52.9457 44.8422Z" fill="#D33D53" stroke="#D33D53" stroke-width="0.148438"/>
<path d="M26.5513 54.1085L35.3778 29.8109C35.4534 29.6029 35.5803 29.4175 35.7467 29.2718C35.9131 29.126 36.1137 29.0247 36.3297 28.9772C36.5458 28.9298 36.7704 28.9377 36.9826 29.0002C37.1948 29.0628 37.3877 29.178 37.5434 29.3351L52.9981 44.7898C53.1552 44.9455 53.2704 45.1384 53.333 45.3506C53.3955 45.5628 53.4034 45.7874 53.356 46.0035C53.3085 46.2195 53.2072 46.4201 53.0614 46.5865C52.9157 46.7529 52.7303 46.8798 52.5223 46.9554L28.2247 55.7819C27.9909 55.8713 27.7363 55.8911 27.4916 55.8389C27.2468 55.7867 27.0224 55.6647 26.8454 55.4878C26.6685 55.3108 26.5465 55.0864 26.4943 54.8417C26.4421 54.5969 26.4619 54.3423 26.5513 54.1085V54.1085Z" stroke="#D33D53" stroke-width="2.375" stroke-linecap="round" stroke-linejoin="round"/>
<path d="M47.8958 31.8125C47.8958 31.8125 47.8958 27.875 51.8333 27.875C55.7708 27.875 55.7708 23.9375 55.7708 23.9375" stroke="#D33D53" stroke-width="2.375" stroke-linecap="round" stroke-linejoin="round"/>
<path d="M37.1333 52.5501L29.7833 45.2001" stroke="#D33D53" stroke-width="2.375" stroke-linecap="round" stroke-linejoin="round"/>
<path d="M43.9583 22.625V26.5625" stroke="#D33D53" stroke-width="2.375" stroke-linecap="round" stroke-linejoin="round"/>
<path d="M55.7708 38.375L58.3958 41" stroke="#D33D53" stroke-width="2.375" stroke-linecap="round" stroke-linejoin="round"/>
<path d="M55.7708 33.125L59.7083 31.8125" stroke="#D33D53" stroke-width="2.375" stroke-linecap="round" stroke-linejoin="round"/>
<path d="M32.9333 36.5375L45.7958 49.4" stroke="#D33D53" stroke-width="2.375" stroke-linecap="round" stroke-linejoin="round"/>
</svg>
