<svg width="83" height="82" viewBox="0 0 83 82" fill="none" xmlns="http://www.w3.org/2000/svg">
<path d="M0.666687 40C0.666687 21.1438 0.666687 11.7157 6.52455 5.85786C12.3824 0 21.8105 0 40.6667 0H42.6667C61.5229 0 70.951 0 76.8088 5.85786C82.6667 11.7157 82.6667 21.1438 82.6667 40V42C82.6667 60.8562 82.6667 70.2843 76.8088 76.1421C70.951 82 61.5229 82 42.6667 82H40.6667C21.8105 82 12.3824 82 6.52455 76.1421C0.666687 70.2843 0.666687 60.8562 0.666687 42V40Z" fill="#D33D53" fill-opacity="0.08"/>
<path opacity="0.2" d="M32.1018 55.8148C31.9797 55.9389 31.8341 56.0373 31.6736 56.1046C31.513 56.1718 31.3407 56.2064 31.1667 56.2064C30.9926 56.2064 30.8203 56.1718 30.6598 56.1046C30.4992 56.0373 30.3536 55.9389 30.2315 55.8148L26.8518 52.4352C26.7278 52.313 26.6293 52.1675 26.5621 52.0069C26.4949 51.8464 26.4603 51.6741 26.4603 51.5C26.4603 51.3259 26.4949 51.1536 26.5621 50.9931C26.6293 50.8325 26.7278 50.687 26.8518 50.5648L44.2917 33.125L49.5417 38.375L32.1018 55.8148Z" fill="#D33D53"/>
<path d="M56.1042 41V48.875" stroke="#D33D53" stroke-width="2.375" stroke-linecap="round" stroke-linejoin="round"/>
<path d="M52.1667 44.9375H60.0417" stroke="#D33D53" stroke-width="2.375" stroke-linecap="round" stroke-linejoin="round"/>
<path d="M34.4479 26.5625V33.125" stroke="#D33D53" stroke-width="2.375" stroke-linecap="round" stroke-linejoin="round"/>
<path d="M31.1667 29.8438H37.7292" stroke="#D33D53" stroke-width="2.375" stroke-linecap="round" stroke-linejoin="round"/>
<path d="M48.2292 50.1875V55.4375" stroke="#D33D53" stroke-width="2.375" stroke-linecap="round" stroke-linejoin="round"/>
<path d="M45.6042 52.8125H50.8542" stroke="#D33D53" stroke-width="2.375" stroke-linecap="round" stroke-linejoin="round"/>
<path d="M51.2523 26.174L26.8554 50.5708C26.3429 51.0834 26.3429 51.9144 26.8554 52.427L30.2487 55.8203C30.7613 56.3328 31.5923 56.3328 32.1049 55.8203L56.5017 31.4234C57.0143 30.9109 57.0143 30.0798 56.5017 29.5673L53.1084 26.174C52.5958 25.6614 51.7648 25.6614 51.2523 26.174Z" stroke="#D33D53" stroke-width="2.375" stroke-linecap="round" stroke-linejoin="round"/>
<path d="M44.2917 33.125L49.5417 38.375" stroke="#D33D53" stroke-width="2.375" stroke-linecap="round" stroke-linejoin="round"/>
</svg>
