<svg width="622" height="299" viewBox="0 0 622 299" fill="none" xmlns="http://www.w3.org/2000/svg">
<g opacity="0.03">
<path d="M297.168 58.2067C294.991 56.8223 292.766 55.4752 290.492 54.1657C268.975 41.7697 246.616 34.8342 223.415 33.3592C200.048 31.7888 175.969 35.6439 151.179 44.9246L165.752 19.7382L131.491 0L0 227.256L34.2615 246.994L50.6978 218.587C53.3761 245.234 61.0125 268.461 73.6067 288.269C86.0354 307.981 103.339 324.226 125.518 337.003C163.918 359.125 204.752 364.262 248.02 352.414C264.129 348.003 278.795 341.724 292.019 333.576C282.88 323.879 274.513 312.989 266.919 300.904C266.741 301.011 266.562 301.118 266.383 301.225C246.68 312.775 225.912 318.537 204.079 318.511C182.15 318.65 161.503 313.142 142.138 301.985C112.014 284.631 92.7587 259.555 84.371 226.756C75.8177 193.862 80.5716 161.807 98.6324 130.593C110.482 110.113 125.771 94.368 144.5 83.3572C163.064 72.2511 183.641 66.8192 206.232 67.0615C228.822 67.3038 249.635 72.9078 268.669 83.8734C268.916 84.0158 269.163 84.1589 269.408 84.3027C277.403 74.6111 286.656 65.9124 297.168 58.2067Z" fill="white"/>
<path d="M326.281 218.82C328.122 210.227 329.097 201.313 329.205 192.078C329.317 182.443 328.46 173.14 326.634 164.171C331.577 147.182 340.592 132.982 353.68 121.571C358.174 131.061 361.822 141.216 364.622 152.034C374.667 191.835 370.4 230.093 351.822 266.807C347.142 261.189 342.815 254.948 338.843 248.083C333.181 238.296 328.993 228.542 326.281 218.82Z" fill="white"/>
<path d="M490.51 0.0010706L622 227.257L587.738 246.995L573.165 221.809C568.825 247.872 560.132 270.607 547.085 290.014C534.205 309.326 517.006 325.18 495.489 337.576C457.255 359.603 416.586 364.645 373.483 352.701C330.45 340.498 297.467 314.577 274.532 274.939C252.076 236.127 246.523 195.064 257.874 151.749C269.226 108.435 294.101 75.7167 332.501 53.5946C354.68 40.8173 377.431 33.9865 400.753 33.1022C424.241 32.1227 448.218 37.1373 472.684 48.1463L456.248 19.7393L490.51 0.0010706ZM354.583 85.4656C335.217 96.622 320.113 111.71 309.27 130.729C298.331 149.583 292.947 170.411 293.12 193.213C293.459 215.92 299.171 236.852 310.256 256.011C321.245 275.004 336.639 290.358 356.438 302.074C376.237 313.789 397.149 319.799 419.173 320.104C441.267 320.147 461.748 314.734 480.617 303.864C499.651 292.898 514.921 277.715 526.427 258.314C537.932 238.914 543.506 218.416 543.149 196.821C542.958 175.131 536.937 154.046 525.088 133.566C507.027 102.352 481.584 82.2166 448.758 73.1608C416.098 64.0097 384.706 68.1113 354.583 85.4656Z" fill="white"/>
</g>
</svg>
