<svg width="357" height="206" viewBox="0 0 357 206" fill="none" xmlns="http://www.w3.org/2000/svg">
<g opacity="0.04">
<path d="M170.561 33.4C169.311 32.6055 168.034 31.8326 166.73 31.0811C154.38 23.9681 141.547 19.9884 128.23 19.142C114.818 18.2409 100.999 20.4531 86.7701 25.7785L95.1342 11.3261L75.4697 0L0 130.403L19.6646 141.729L29.0982 125.429C30.6355 140.719 35.0184 154.047 42.2469 165.413C49.3804 176.724 59.3121 186.046 72.0418 193.378C94.0813 206.072 117.518 209.02 142.352 202.221C151.598 199.69 160.016 196.087 167.606 191.411C162.36 185.847 157.558 179.598 153.199 172.664C153.097 172.725 152.995 172.786 152.892 172.848C141.583 179.475 129.663 182.782 117.132 182.767C104.546 182.847 92.6956 179.686 81.5809 173.284C64.2912 163.326 53.2393 148.937 48.4251 130.116C43.516 111.241 46.2445 92.8476 56.6106 74.9361C63.4116 63.1847 72.187 54.1499 82.9367 47.8317C93.5915 41.4588 105.402 38.3419 118.368 38.481C131.334 38.62 143.279 41.8357 154.204 48.1279C154.346 48.2096 154.487 48.2917 154.628 48.3742C159.217 42.813 164.528 37.8216 170.561 33.4Z" fill="#D33D53"/>
<path d="M187.27 125.562C188.327 120.632 188.887 115.517 188.949 110.217C189.013 104.689 188.522 99.3506 187.473 94.2037C190.31 84.4553 195.485 76.3072 202.996 69.7592C205.576 75.2051 207.67 81.032 209.277 87.2398C215.042 110.078 212.593 132.031 201.93 153.098C199.244 149.875 196.761 146.293 194.481 142.354C191.231 136.738 188.827 131.141 187.27 125.562Z" fill="#D33D53"/>
<path d="M281.53 0.000614327L357 130.404L337.335 141.73L328.971 127.278C326.48 142.233 321.49 155.279 314.002 166.415C306.609 177.496 296.738 186.594 284.388 193.707C262.444 206.346 239.102 209.239 214.363 202.386C189.664 195.383 170.732 180.509 157.569 157.765C144.68 135.494 141.493 111.931 148.008 87.0763C154.524 62.2217 168.801 43.4474 190.84 30.7535C203.57 23.4216 216.628 19.502 230.014 18.9946C243.495 18.4325 257.257 21.31 271.299 27.6271L261.866 11.3267L281.53 0.000614327ZM203.515 49.0416C192.4 55.4433 183.731 64.1008 177.507 75.0143C171.228 85.833 168.139 97.7845 168.238 110.869C168.432 123.898 171.71 135.91 178.073 146.903C184.38 157.802 193.216 166.612 204.579 173.335C215.943 180.057 227.946 183.506 240.586 183.681C253.267 183.706 265.023 180.599 275.853 174.362C286.777 168.07 295.541 159.357 302.145 148.225C308.749 137.093 311.948 125.331 311.743 112.939C311.633 100.493 308.178 88.3941 301.377 76.6426C291.011 58.7311 276.407 47.1772 257.567 41.9808C238.822 36.7298 220.804 39.0834 203.515 49.0416Z" fill="#D33D53"/>
</g>
</svg>
