<svg width="155" height="25" viewBox="0 0 155 25" fill="none" xmlns="http://www.w3.org/2000/svg">
<path d="M0 19.7796L2.79291 0.48531H3.11363L11.1048 16.3169L19.0159 0.48531H19.3366L22.1562 19.7796H20.2186L18.2942 5.98111L11.3454 19.7796H10.8509L3.80852 5.87618L1.89758 19.7796H0Z" fill="black"/>
<path d="M37.9783 15.0446L39.5551 15.8578C39.0384 16.8547 38.4415 17.6591 37.7645 18.2712C37.0874 18.8834 36.3257 19.3512 35.4794 19.6747C34.633 19.9895 33.6753 20.1469 32.6063 20.1469C30.2365 20.1469 28.3835 19.3861 27.0472 17.8646C25.7108 16.3344 25.0427 14.6074 25.0427 12.6836C25.0427 10.8736 25.6084 9.26023 26.7398 7.84365C28.1741 6.04232 30.094 5.14166 32.4994 5.14166C34.976 5.14166 36.9538 6.06418 38.4326 7.90923C39.4839 9.21214 40.0184 10.8386 40.0362 12.7886H26.967C27.0026 14.45 27.5416 15.8141 28.5839 16.8809C29.6263 17.939 30.9136 18.468 32.4459 18.468C33.1853 18.468 33.9025 18.3412 34.5974 18.0876C35.3012 17.834 35.8981 17.4974 36.3881 17.0777C36.878 16.6579 37.4081 15.9802 37.9783 15.0446ZM37.9783 11.2015C37.7288 10.2221 37.3636 9.43949 36.8825 8.85362C36.4103 8.26775 35.7822 7.79556 34.9983 7.43704C34.2143 7.07852 33.3902 6.89927 32.5261 6.89927C31.1007 6.89927 29.8757 7.3496 28.8512 8.25026C28.1029 8.90609 27.5371 9.88982 27.1541 11.2015H37.9783Z" fill="black"/>
<path d="M42.8291 5.50892H44.7401V7.59444C45.3102 6.77247 45.9116 6.16037 46.5441 5.75813C47.1766 5.34715 47.8359 5.14166 48.5219 5.14166C49.0386 5.14166 49.5909 5.30343 50.1789 5.62697L49.2034 7.17471C48.8114 7.00857 48.4818 6.9255 48.2145 6.9255C47.5909 6.9255 46.9895 7.17908 46.4105 7.68625C45.8314 8.18468 45.3904 8.96292 45.0875 10.021C44.8559 10.8342 44.7401 12.4781 44.7401 14.9528V19.7796H42.8291V5.50892Z" fill="black"/>
<path d="M66.2548 5.50892V19.7796H64.4107V17.3269C63.6267 18.2625 62.7448 18.9664 61.7648 19.4386C60.7937 19.9108 59.7291 20.1469 58.571 20.1469C56.5131 20.1469 54.7536 19.4168 53.2925 17.9565C51.8404 16.4874 51.1143 14.7036 51.1143 12.6049C51.1143 10.55 51.8493 8.79241 53.3193 7.33211C54.7892 5.87181 56.5576 5.14166 58.6245 5.14166C59.8182 5.14166 60.8962 5.39087 61.8583 5.8893C62.8294 6.38772 63.6802 7.13536 64.4107 8.13221V5.50892H66.2548ZM58.7714 6.91238C57.7291 6.91238 56.767 7.16597 55.885 7.67314C55.003 8.17156 54.2992 8.87548 53.7736 9.78489C53.2569 10.6943 52.9985 11.6562 52.9985 12.6705C52.9985 13.6761 53.2613 14.638 53.787 15.5561C54.3126 16.4743 55.0164 17.1913 55.8984 17.7072C56.7892 18.2144 57.7425 18.468 58.7581 18.468C59.7826 18.468 60.7537 18.2144 61.6713 17.7072C62.5889 17.2001 63.2927 16.5136 63.7827 15.648C64.2815 14.7823 64.531 13.8073 64.531 12.723C64.531 11.0703 63.9742 9.6887 62.8606 8.57817C61.7559 7.46765 60.3928 6.91238 58.7714 6.91238Z" fill="black"/>
<path d="M69.2883 0.48531H71.4264L77.9343 15.3987L84.5625 0.48531H86.7006L78.1481 19.7796H77.7205L69.2883 0.48531Z" fill="black"/>
<path d="M88.1304 5.50892H90.1082L95.106 16.5005L99.9569 5.50892H101.948L93.2753 25H91.2975L94.1038 18.7041L88.1304 5.50892Z" fill="black"/>
<path d="M142.318 0H144.189V8.06663C144.946 7.08727 145.779 6.35712 146.688 5.87618C147.597 5.3865 148.581 5.14166 149.641 5.14166C150.728 5.14166 151.69 5.41273 152.528 5.95488C153.374 6.49703 153.998 7.22718 154.399 8.14533C154.8 9.05474 155 10.4844 155 12.4344V19.7796H153.129V12.9722C153.129 11.3283 153.062 10.2309 152.929 9.67996C152.697 8.73557 152.274 8.02728 151.659 7.55509C151.053 7.07415 150.256 6.83368 149.267 6.83368C148.136 6.83368 147.12 7.20094 146.22 7.93547C145.329 8.66999 144.742 9.5794 144.456 10.6637C144.278 11.3632 144.189 12.6574 144.189 14.5462V19.7796H142.318V0Z" fill="black"/>
<path d="M119.783 5.51598C119.667 5.4426 119.549 5.3712 119.428 5.3018C118.284 4.64479 117.095 4.27719 115.862 4.19901C114.62 4.11578 113.339 4.32011 112.021 4.812L112.796 3.47708L110.975 2.43092L103.984 14.4759L105.805 15.5221L106.679 14.0164C106.821 15.4288 107.227 16.6598 107.897 17.7097C108.558 18.7545 109.478 19.6155 110.657 20.2927C112.699 21.4652 114.87 21.7375 117.17 21.1095C118.026 20.8757 118.806 20.5429 119.509 20.111C119.023 19.5971 118.579 19.0199 118.175 18.3794C118.165 18.385 118.156 18.3907 118.146 18.3964C117.099 19.0086 115.995 19.314 114.834 19.3126C113.668 19.32 112.57 19.028 111.541 18.4367C109.939 17.5169 108.915 16.1878 108.469 14.4494C108.015 12.7059 108.267 11.007 109.228 9.35256C109.858 8.26711 110.67 7.43259 111.666 6.849C112.653 6.26035 113.747 5.97245 114.948 5.9853C116.149 5.99814 117.256 6.29516 118.268 6.87636C118.281 6.8839 118.294 6.89149 118.307 6.89911C118.732 6.38544 119.224 5.92439 119.783 5.51598Z" fill="#D33D53"/>
<path d="M121.331 14.0288C121.429 13.5733 121.481 13.1009 121.486 12.6114C121.492 12.1007 121.447 11.6076 121.35 11.1322C121.612 10.2318 122.092 9.47919 122.788 8.87438C123.027 9.3774 123.22 9.91561 123.369 10.489C123.903 12.5985 123.677 14.6262 122.689 16.5722C122.44 16.2744 122.21 15.9436 121.999 15.5797C121.698 15.061 121.475 14.544 121.331 14.0288Z" fill="#D33D53"/>
<path d="M130.062 2.43098L137.053 14.476L135.232 15.5221L134.457 14.1872C134.226 15.5686 133.764 16.7736 133.07 17.8022C132.385 18.8258 131.471 19.6661 130.327 20.3231C128.294 21.4905 126.132 21.7577 123.84 21.1247C121.553 20.4779 119.799 19.104 118.58 17.0032C117.386 14.9461 117.09 12.7697 117.694 10.4739C118.297 8.17816 119.62 6.44404 121.662 5.27153C122.841 4.59431 124.05 4.23226 125.29 4.1854C126.539 4.13348 127.814 4.39926 129.115 4.98276L128.241 3.47713L130.062 2.43098ZM122.836 6.96075C121.806 7.55205 121.003 8.35173 120.426 9.35978C119.845 10.3591 119.559 11.463 119.568 12.6716C119.586 13.8751 119.89 14.9845 120.479 15.9999C121.063 17.0066 121.882 17.8204 122.934 18.4414C123.987 19.0623 125.099 19.3808 126.27 19.397C127.444 19.3993 128.533 19.1124 129.536 18.5362C130.548 17.955 131.36 17.1503 131.972 16.122C132.584 15.0938 132.88 14.0074 132.861 12.8628C132.851 11.7132 132.531 10.5956 131.901 9.51018C130.94 7.85575 129.588 6.78854 127.843 6.30857C126.106 5.82354 124.437 6.04094 122.836 6.96075Z" fill="#D33D53"/>
</svg>
