<?xml version="1.0" encoding="UTF-8"?>
<svg width="30px" height="30px" viewBox="0 0 30 30" version="1.1" xmlns="http://www.w3.org/2000/svg" xmlns:xlink="http://www.w3.org/1999/xlink">
    <!-- Generator: Sketch 63.1 (92452) - https://sketch.com -->
    <title>avtar-placeholder</title>
    <desc>Created with Sketch.</desc>
    <defs>
        <circle id="path-1" cx="15" cy="15" r="15"></circle>
    </defs>
    <g id="Recruiter" stroke="none" stroke-width="1" fill="none" fill-rule="evenodd">
        <g id="avtar-placeholder" transform="translate(-3.000000, -3.000000)">
            <g id="Nav/profile-icon" transform="translate(3.000000, 3.000000)">
                <g id="Group-2">
                    <mask id="mask-2" fill="white">
                        <use xlink:href="#path-1"></use>
                    </mask>
                    <use id="Mask" fill="#E8ECEF" xlink:href="#path-1"></use>
                    <path d="M20.656875,17.7673674 C19.7855312,16.8960549 18.7484062,16.2510237 17.6168438,15.8605549 C18.8287812,15.0258362 19.625,13.6288674 19.625,12.0492424 C19.625,9.49902367 17.5502187,7.42424242 15,7.42424242 C12.4497812,7.42424242 10.375,9.49902367 10.375,12.0492424 C10.375,13.6288674 11.1712187,15.0258362 12.3831875,15.8605549 C11.251625,16.2510237 10.2145,16.8960549 9.34315625,17.7673674 C7.83215625,19.2783987 7,21.2873674 7,23.4242424 L8.25,23.4242424 C8.25,19.7022737 11.2780312,16.6742424 15,16.6742424 C18.7219688,16.6742424 21.75,19.7022737 21.75,23.4242424 L23,23.4242424 C23,21.2873674 22.1678437,19.2783987 20.656875,17.7673674 Z M15.1403509,15.2838915 C13.2830097,15.2838915 11.7719298,13.7728428 11.7719298,11.9154705 C11.7719298,10.0580982 13.2830097,8.54704944 15.1403509,8.54704944 C16.997692,8.54704944 18.5087719,10.0580982 18.5087719,11.9154705 C18.5087719,13.7728428 16.997692,15.2838915 15.1403509,15.2838915 Z" id="Shape" fill="#02295C" fill-rule="nonzero" mask="url(#mask-2)"></path>
                </g>
            </g>
        </g>
    </g>
</svg>