<?xml version="1.0" encoding="UTF-8"?>
<svg width="24px" height="24px" viewBox="0 0 24 24" version="1.1" xmlns="http://www.w3.org/2000/svg" xmlns:xlink="http://www.w3.org/1999/xlink">
    <!-- Generator: Sketch 63.1 (92452) - https://sketch.com -->
    <title>un selected</title>
    <desc>Created with Sketch.</desc>
    <g id="Page" stroke="none" stroke-width="1" fill="none" fill-rule="evenodd">
        <g id="4.1---Complete-your-profile-_-Upload-Resume-light" transform="translate(-323.000000, -467.000000)">
            <g id="Group-Copy-9" transform="translate(300.000000, 429.000000)">
                <g id="tick" transform="translate(23.000000, 38.000000)">
                    <g id="Group-4">
                        <circle id="Oval" fill="#FFFFFF" cx="12" cy="12" r="12"></circle>
                        <path d="M12,0 C5.38323959,0 0,5.38311438 0,12 C0,18.6168856 5.38323959,24.0001252 12,24.0001252 C18.6167604,24.0001252 24,18.6168856 24,12 C24,5.38311438 18.6168856,0 12,0 Z M18.8906118,9.97309904 L11.3516221,17.5120887 C11.0310645,17.8326464 10.6049482,18.0090783 10.1516597,18.0090783 C9.69837112,18.0090783 9.27225486,17.8326464 8.95169722,17.5120887 L5.10938821,13.6697797 C4.78883057,13.3492221 4.61227343,12.9231058 4.61227343,12.4698173 C4.61227343,12.0164035 4.78883057,11.5902873 5.10938821,11.2697296 C5.42982063,10.949172 5.85593689,10.7726149 6.30935064,10.7726149 C6.76263917,10.7726149 7.18888066,10.949172 7.50931308,11.2698549 L10.1515344,13.911951 L16.4904365,7.57304895 C16.8109941,7.25249131 17.2371104,7.07605939 17.6903989,7.07605939 C18.1436875,7.07605939 18.5698037,7.25249131 18.8903614,7.57304895 C19.5522628,8.23495038 19.5522628,9.31144804 18.8906118,9.97309904 Z" id="Shape" fill="#0ABF53" fill-rule="nonzero"></path>
                    </g>
                </g>
            </g>
        </g>
    </g>
</svg>