<?xml version="1.0" encoding="UTF-8"?>
<svg width="20px" height="20px" viewBox="0 0 20 20" version="1.1" xmlns="http://www.w3.org/2000/svg" xmlns:xlink="http://www.w3.org/1999/xlink">
    <!-- Generator: Sketch 63.1 (92452) - https://sketch.com -->
    <title>Combined Shape</title>
    <desc>Created with Sketch.</desc>
    <g id="Page-1" stroke="none" stroke-width="1" fill="none" fill-rule="evenodd">
        <g id="08-Account-Manager-Edit-Candidate-profile" transform="translate(-352.000000, -780.000000)" fill="#D75A4A" fill-rule="nonzero">
            <g id="Group-19" transform="translate(218.000000, 628.000000)">
                <g id="Group-20" transform="translate(16.000000, 152.000000)">
                    <g id="document" transform="translate(66.000000, 0.000000)">
                        <path d="M62,0 C67.5228475,0 72,4.4771525 72,10 C72,15.5228475 67.5228475,20 62,20 C56.4771525,20 52,15.5228475 52,10 C52,4.4771525 56.4771525,0 62,0 Z M59.2171993,5.34627282 C58.6941443,4.93957296 57.9378362,4.97654568 57.457191,5.45719096 C56.9364919,5.97789001 56.9364919,6.82210999 57.457191,7.34280904 L57.457191,7.34280904 L60.1133333,10 L57.457191,12.657191 L57.3462728,12.7828007 C56.939573,13.3058557 56.9765457,14.0621638 57.457191,14.542809 C57.97789,15.0635081 58.82211,15.0635081 59.342809,14.542809 L59.342809,14.542809 L62,11.8866667 L64.657191,14.542809 L64.7828007,14.6537272 C65.3058557,15.060427 66.0621638,15.0234543 66.542809,14.542809 C67.0635081,14.02211 67.0635081,13.17789 66.542809,12.657191 L66.542809,12.657191 L63.8866667,10 L66.542809,7.34280904 L66.6537272,7.21719926 C67.060427,6.69414432 67.0234543,5.93783624 66.542809,5.45719096 C66.02211,4.9364919 65.17789,4.9364919 64.657191,5.45719096 L64.657191,5.45719096 L62,8.11333333 L59.342809,5.45719096 Z" id="Combined-Shape"></path>
                    </g>
                </g>
            </g>
        </g>
    </g>
</svg>