<?xml version="1.0" encoding="UTF-8"?>
<svg width="20px" height="20px" viewBox="0 0 20 20" version="1.1" xmlns="http://www.w3.org/2000/svg" xmlns:xlink="http://www.w3.org/1999/xlink">
    <!-- Generator: Sketch 63.1 (92452) - https://sketch.com -->
    <title>Combined Shape</title>
    <desc>Created with Sketch.</desc>
    <g id="Page" stroke="none" stroke-width="1" fill="none" fill-rule="evenodd">
        <g id="12-Account-Manager-Candidate-Submission-to-Employer" transform="translate(-832.000000, -692.000000)" fill="#000000">
            <g id="Group-9" transform="translate(408.000000, 650.000000)">
                <path d="M434,42 C439.513906,42 444,46.4860938 444,52 C444,57.5139062 439.513906,62 434,62 C428.486094,62 424,57.5139062 424,52 C424,46.4860938 428.486094,42 434,42 Z M434,42.8333203 C428.945469,42.8333203 424.83332,46.9454688 424.83332,52 C424.83332,57.0545313 428.945469,61.1666797 434,61.1666797 C439.054531,61.1666797 443.16668,57.0545313 443.16668,52 C443.16668,46.9454688 439.054531,42.8333203 434,42.8333203 Z M437.45543,47.9553906 C437.618164,47.7926172 437.881836,47.7926172 438.044609,47.9553906 C438.207344,48.1181641 438.207344,48.3818359 438.04457,48.5446094 L438.04457,48.5446094 L434.58918,52 L438.044609,55.4553906 C438.207383,55.618125 438.207383,55.8817969 438.044609,56.0445703 C437.963203,56.1259375 437.856602,56.1666406 437.75,56.1666406 C437.643398,56.1666406 437.536758,56.1259375 437.455391,56.0445703 L437.455391,56.0445703 L434,52.5891797 L430.544648,56.0445703 C430.463242,56.1259375 430.356641,56.1666406 430.250039,56.1666406 C430.143438,56.1666406 430.036797,56.1259375 429.95543,56.0445703 C429.792656,55.8818359 429.792656,55.6181641 429.95543,55.4553906 L429.95543,55.4553906 L433.41082,52 L429.95543,48.5446094 C429.792656,48.381875 429.792656,48.1182031 429.95543,47.9554297 C430.118164,47.7926563 430.381836,47.7926563 430.544609,47.9554297 L430.544609,47.9554297 L434,51.4108203 Z" id="Combined-Shape"></path>
            </g>
        </g>
    </g>
</svg>