<?xml version="1.0" encoding="UTF-8"?>
<svg width="24px" height="28px" viewBox="0 0 24 28" version="1.1" xmlns="http://www.w3.org/2000/svg" xmlns:xlink="http://www.w3.org/1999/xlink">
    <!-- Generator: Sketch 63.1 (92452) - https://sketch.com -->
    <title>request(1)</title>
    <desc>Created with Sketch.</desc>
    <g id="Page-1" stroke="none" stroke-width="1" fill="none" fill-rule="evenodd">
        <g id="07-Account-Manager-Candidate-Profile-Notification-associated-jobs" transform="translate(-532.000000, -101.000000)" fill="#FACB05" fill-rule="nonzero">
            <g id="Group-22" transform="translate(532.000000, 101.000000)">
                <g id="Group-23">
                    <g id="request(1)">
                        <path d="M19.1404309,0 L4.77018634,0 C2.16847826,0 0.0596855404,2.1050078 0.0596855404,4.7105008 L0.0596855404,26.2657221 C0.0596855404,27.1802213 1.10840452,27.7150621 1.84850542,27.160132 L6.34035324,23.7912461 L19.1404309,23.7912461 C21.742139,23.7912461 23.8509317,21.6862383 23.8509317,19.0807453 L23.8509317,4.7105008 C23.8509317,2.10879272 21.7459239,0 19.1404309,0 L19.1404309,0 Z M21.6149068,19.0807453 C21.6149068,20.4485636 20.5088315,21.5552213 19.1404309,21.5552213 L5.96768243,21.5552213 C5.72573754,21.5552213 5.49048909,21.6338315 5.29687498,21.7788238 L2.29571039,24.0296972 L2.29571039,4.7105008 C2.29571039,3.34268243 3.40178571,2.23602484 4.77018634,2.23602484 L19.1404309,2.23602484 C20.5082492,2.23602484 21.6149068,3.34210017 21.6149068,4.7105008 L21.6149068,19.0807453 Z" id="Shape"></path>
                        <path d="M17.9429348,5.98748057 L5.96768243,5.98748057 C5.35015528,5.98748057 4.84967001,6.48825697 4.84967001,7.10549299 C4.84967001,7.72302022 5.35015528,8.22350542 5.96768243,8.22350542 L17.9429348,8.22350542 C18.5601708,8.22350542 19.0609472,7.72302022 19.0609472,7.10549299 C19.0609472,6.48825697 18.5604619,5.98748057 17.9429348,5.98748057 Z" id="Path"></path>
                        <path d="M17.9429348,10.7777562 L5.96768243,10.7777562 C5.35015528,10.7777562 4.84967001,11.2782414 4.84967001,11.8957686 C4.84967001,12.5130046 5.35015528,13.013781 5.96768243,13.013781 L17.9429348,13.013781 C18.5601708,13.013781 19.0609472,12.5130046 19.0609472,11.8957686 C19.0609472,11.2782414 18.5604619,10.7777562 17.9429348,10.7777562 Z" id="Path"></path>
                        <path d="M11.9551631,15.5677407 L5.96768243,15.5677407 C5.35015528,15.5677407 4.84967001,16.0682259 4.84967001,16.6857531 C4.84967001,17.3032803 5.35015528,17.8037656 5.96768243,17.8037656 L11.9551631,17.8037656 C12.5726902,17.8037656 13.0731755,17.3032803 13.0731755,16.6857531 C13.0731755,16.0682259 12.5726902,15.5677407 11.9551631,15.5677407 L11.9551631,15.5677407 Z" id="Path"></path>
                    </g>
                </g>
            </g>
        </g>
    </g>
</svg>