<?xml version="1.0" encoding="UTF-8"?>
<svg width="157px" height="77px" viewBox="0 0 157 77" version="1.1" xmlns="http://www.w3.org/2000/svg" xmlns:xlink="http://www.w3.org/1999/xlink">
    <!-- Generator: Sketch 63.1 (92452) - https://sketch.com -->
    <title>hiredna_logo-white</title>
    <desc>Created with Sketch.</desc>
    <g id="Page" stroke="none" stroke-width="1" fill="none" fill-rule="evenodd">
        <g id="0.1-Account-Manager-forgot-password" transform="translate(-156.000000, -40.000000)" fill="#FFFFFF" fill-rule="nonzero">
            <g id="hiredna_logo-white" transform="translate(156.000000, 40.000000)">
                <polygon id="Path" points="21.0350158 51.6282822 21.0350158 76.7233742 18.4155861 76.7233742 18.4155861 65.1431902 2.69900739 65.1431902 2.69900739 76.7233742 0.0431045407 76.7233742 0.0431045407 51.6282822 2.69900739 51.6282822 2.69900739 62.8142331 18.4155861 62.8142331 18.4155861 51.6282822"></polygon>
                <path d="M28.6413094,53.2052147 C28.2832101,52.8474233 28.1025026,52.4167485 28.1025026,51.9148466 C28.1025026,51.4377914 28.2815523,51.0187117 28.6413094,50.6609202 C28.9994087,50.3031288 29.4420591,50.1225767 29.9692608,50.1225767 C30.4948046,50.1225767 30.9374551,50.2965031 31.2972122,50.6426994 C31.6553115,50.9888957 31.836019,51.4013497 31.836019,51.8800613 C31.836019,52.4068098 31.6569694,52.8474233 31.2972122,53.2068712 C30.939113,53.5646626 30.4948046,53.7452147 29.9692608,53.7452147 C29.443717,53.7435583 29.0010665,53.5630061 28.6413094,53.2052147 Z M28.6777825,57.8664417 L31.225924,57.8664417 L31.225924,76.7233742 L28.6777825,76.7233742 L28.6777825,57.8664417 Z" id="Shape"></path>
                <path d="M43.4427455,58.6913497 C44.6264625,58.0453374 46.0920169,57.7239877 47.8377508,57.7239877 L47.8377508,60.1970552 L47.2276558,60.1606135 C45.2415312,60.1606135 43.6881098,60.770184 42.5624182,61.9893252 C41.4383844,63.2084663 40.8763675,64.9179141 40.8763675,67.1160123 L40.8763675,76.7233742 L38.3298838,76.7233742 L38.3298838,57.8664417 L40.770264,57.8664417 L40.770264,61.5586503 C41.3670961,60.2914724 42.2590285,59.3357055 43.4427455,58.6913497 Z" id="Path"></path>
                <path d="M68.6854277,68.0833742 L52.8975607,68.0833742 C53.0417951,70.0429448 53.7944667,71.6265031 55.1572334,72.8340491 C56.5216579,74.0415951 58.2425238,74.6445399 60.3248046,74.6445399 C61.4969166,74.6445399 62.5728722,74.4358282 63.5543295,74.0167485 C64.5357867,73.5993252 65.3846146,72.9831288 66.102471,72.169816 L67.5381837,73.8196319 C66.7009609,74.8234356 65.6548469,75.5887117 64.3981837,76.1138037 C63.1415206,76.6405521 61.7605174,76.9022699 60.2535164,76.9022699 C58.3154699,76.9022699 56.5995776,76.489816 55.1041816,75.664908 C53.6087856,74.84 52.4433052,73.6987117 51.6060824,72.2410429 C50.7688596,70.7833742 50.3494192,69.1335583 50.3494192,67.2932515 C50.3494192,65.4529448 50.750623,63.8031288 51.5513728,62.3454601 C52.3521225,60.8877914 53.4529461,59.7531288 54.8521859,58.939816 C56.2514256,58.1281595 57.8247413,57.7206748 59.5704752,57.7206748 C61.3162091,57.7206748 62.8828933,58.1281595 64.270528,58.939816 C65.6581626,59.7531288 66.7457233,60.8811656 67.5365259,62.3272393 C68.3256705,63.7733129 68.7202429,65.4280982 68.7202429,67.2932515 L68.6854277,68.0833742 Z M54.9964203,61.6480982 C53.7646251,62.8076074 53.0650053,64.3182822 52.8975607,66.1834356 L66.2815206,66.1834356 C66.114076,64.3199387 65.4144562,62.8076074 64.182661,61.6480982 C62.9508659,60.488589 61.4140232,59.9088344 59.5721331,59.9088344 C57.753453,59.9088344 56.2282154,60.488589 54.9964203,61.6480982 Z" id="Shape"></path>
                <path d="M73.3506653,51.6282822 L84.7617635,51.6282822 C87.4889546,51.6282822 89.8978353,52.1484049 91.9917212,53.1869939 C94.0839493,54.2272393 95.7103168,55.6915337 96.8708237,57.5782209 C98.0313305,59.4665644 98.6115839,61.6646626 98.6115839,64.1741718 C98.6115839,66.683681 98.0313305,68.8834356 96.8708237,70.7701227 C95.7103168,72.6584663 94.0839493,74.1227607 91.9917212,75.1613497 C89.8978353,76.2015951 87.4889546,76.7200613 84.7617635,76.7200613 L73.3506653,76.7200613 L73.3506653,51.6282822 L73.3506653,51.6282822 Z M84.4732946,71.9544785 C86.984963,71.9544785 88.9876663,71.2554601 90.4830623,69.8574233 C91.9768004,68.4593865 92.7261563,66.5660736 92.7261563,64.1758282 C92.7261563,61.7855828 91.9784583,59.8922699 90.4830623,58.4925767 C88.9876663,57.0945399 86.984963,56.3955215 84.4732946,56.3955215 L79.1631468,56.3955215 L79.1631468,71.9544785 L84.4732946,71.9544785 Z" id="Shape"></path>
                <polygon id="Path" points="126.024414 51.6282822 126.024414 76.7233742 121.253073 76.7233742 108.731204 61.4874233 108.731204 76.7233742 102.990011 76.7233742 102.990011 51.6282822 107.797825 51.6282822 120.284879 66.8642331 120.284879 51.6282822"></polygon>
                <path d="M148.521668,71.3465644 L136.860232,71.3465644 L134.635375,76.7250307 L128.678659,76.7250307 L139.874234,51.6299387 L145.615428,51.6299387 L156.845818,76.7250307 L150.744868,76.7250307 L148.521668,71.3465644 Z M146.691383,66.9354601 L142.707529,57.3280982 L138.725333,66.9354601 L146.691383,66.9354601 Z" id="Shape"></path>
                <path d="M115.127751,28.7187879 C117.818273,28.7187879 120,26.5391342 120,23.8511688 L120,9.62995671 C120,6.94199134 117.818273,4.76233766 115.127751,4.76233766 C112.437229,4.76233766 110.255502,6.94199134 110.255502,9.62995671 L110.255502,23.8511688 C110.255502,26.5407792 112.437229,28.7187879 115.127751,28.7187879 Z" id="Path"></path>
                <path d="M97.0778715,37.922684 C99.7683936,37.922684 101.95012,35.7430303 101.95012,33.0550649 L101.95012,20.8062338 C101.95012,18.1182684 99.7683936,15.9386147 97.0778715,15.9386147 C94.3873494,15.9386147 92.2056225,18.1182684 92.2056225,20.8062338 L92.2056225,33.0550649 C92.2056225,35.7430303 94.3873494,37.922684 97.0778715,37.922684 Z" id="Path"></path>
                <path d="M60.9781124,24.1176623 C63.6686345,24.1176623 65.8503614,21.9380087 65.8503614,19.2500433 L65.8503614,5.02883117 C65.8503614,2.3408658 63.6686345,0.161212121 60.9781124,0.161212121 C58.2875904,0.161212121 56.1058635,2.3408658 56.1058635,5.02883117 L56.1058635,19.2500433 C56.1058635,21.9396537 58.2875904,24.1176623 60.9781124,24.1176623 Z" id="Path"></path>
                <path d="M42.9282329,33.3215584 C45.618755,33.3215584 47.8004819,31.1419048 47.8004819,28.4539394 L47.8004819,16.2034632 C47.8004819,13.5154978 45.618755,11.3358442 42.9282329,11.3358442 C40.2377108,11.3358442 38.0559839,13.5154978 38.0559839,16.2034632 L38.0559839,28.4522944 C38.0559839,31.1419048 40.2377108,33.3215584 42.9282329,33.3215584 Z" id="Path"></path>
                <path d="M79.027992,27.9209524 C81.7185141,27.9209524 83.900241,25.7412987 83.900241,23.0533333 L83.900241,13.0779221 C83.900241,10.3899567 81.7185141,8.21030303 79.027992,8.21030303 C76.3374699,8.21030303 74.155743,10.3899567 74.155743,13.0779221 L74.155743,23.0533333 C74.155743,25.7429437 76.3374699,27.9209524 79.027992,27.9209524 Z" id="Path"></path>
            </g>
        </g>
    </g>
</svg>