<?xml version="1.0" encoding="UTF-8"?>
<svg width="94px" height="52px" viewBox="0 0 94 52" version="1.1" xmlns="http://www.w3.org/2000/svg" xmlns:xlink="http://www.w3.org/1999/xlink">
    <!-- Generator: Sketch 63.1 (92452) - https://sketch.com -->
    <title>hiredna_logo</title>
    <desc>Created with Sketch.</desc>
    <defs>
        <linearGradient x1="-116.636451%" y1="161.693813%" x2="15.8409232%" y2="72.9000206%" id="linearGradient-1">
            <stop stop-color="#0D184A" offset="0%"></stop>
            <stop stop-color="#121A5F" offset="24.68%"></stop>
            <stop stop-color="#211E95" offset="75.45%"></stop>
            <stop stop-color="#2820B2" offset="100%"></stop>
        </linearGradient>
        <linearGradient x1="-108.859765%" y1="147.706301%" x2="48.4553916%" y2="50.9460491%" id="linearGradient-2">
            <stop stop-color="#0D184A" offset="0%"></stop>
            <stop stop-color="#121A5F" offset="24.68%"></stop>
            <stop stop-color="#211E95" offset="75.45%"></stop>
            <stop stop-color="#2820B2" offset="100%"></stop>
        </linearGradient>
        <linearGradient x1="-33.1867537%" y1="105.760489%" x2="99.2906204%" y2="16.9667651%" id="linearGradient-3">
            <stop stop-color="#0D184A" offset="0%"></stop>
            <stop stop-color="#121A5F" offset="24.68%"></stop>
            <stop stop-color="#211E95" offset="75.45%"></stop>
            <stop stop-color="#2820B2" offset="100%"></stop>
        </linearGradient>
        <linearGradient x1="-9.75541422%" y1="86.7557052%" x2="147.536202%" y2="-9.9973064%" id="linearGradient-4">
            <stop stop-color="#0D184A" offset="0%"></stop>
            <stop stop-color="#121A5F" offset="24.68%"></stop>
            <stop stop-color="#211E95" offset="75.45%"></stop>
            <stop stop-color="#2820B2" offset="100%"></stop>
        </linearGradient>
        <linearGradient x1="-111.184673%" y1="138.89334%" x2="84.5126438%" y2="30.9727925%" id="linearGradient-5">
            <stop stop-color="#0D184A" offset="0%"></stop>
            <stop stop-color="#121A5F" offset="24.68%"></stop>
            <stop stop-color="#211E95" offset="75.45%"></stop>
            <stop stop-color="#2820B2" offset="100%"></stop>
        </linearGradient>
    </defs>
    <g id="Page-1" stroke="none" stroke-width="1" fill="none" fill-rule="evenodd">
        <g id="hiredna_logo" fill-rule="nonzero">
            <g id="Group" transform="translate(0.296875, 29.687500)" fill="#181B3E">
                <polygon id="Path" points="12.5558333 0.972760417 12.5558333 15.9649479 10.9922917 15.9649479 10.9922917 9.04677083 1.61104167 9.04677083 1.61104167 15.9649479 0.0257291667 15.9649479 0.0257291667 0.972760417 1.61104167 0.972760417 1.61104167 7.65541667 10.9922917 7.65541667 10.9922917 0.972760417"></polygon>
                <path d="M17.0960417,1.91484375 C16.8822917,1.70109375 16.7744271,1.44380208 16.7744271,1.14395833 C16.7744271,0.858958333 16.8813021,0.60859375 17.0960417,0.39484375 C17.3097917,0.18109375 17.5740104,0.0732291667 17.8886979,0.0732291667 C18.2023958,0.0732291667 18.4666146,0.177135417 18.6813542,0.383958333 C18.8951042,0.59078125 19.0029688,0.8371875 19.0029688,1.12317708 C19.0029688,1.43786458 18.8960937,1.70109375 18.6813542,1.91583333 C18.4676042,2.12958333 18.2023958,2.23744792 17.8886979,2.23744792 C17.575,2.23645833 17.3107812,2.12859375 17.0960417,1.91484375 Z M17.1178125,4.69953125 L18.6388021,4.69953125 L18.6388021,15.9649479 L17.1178125,15.9649479 L17.1178125,4.69953125 Z" id="Shape"></path>
                <path d="M25.9310417,5.19234375 C26.6376042,4.80640625 27.5123958,4.61442708 28.5544271,4.61442708 L28.5544271,6.091875 L28.1902604,6.07010417 C27.0047396,6.07010417 26.0775,6.43427083 25.4055729,7.16260417 C24.7346354,7.8909375 24.3991667,8.9121875 24.3991667,10.2253646 L24.3991667,15.9649479 L22.8791667,15.9649479 L22.8791667,4.69953125 L24.3358333,4.69953125 L24.3358333,6.9053125 C24.6920833,6.14828125 25.2244792,5.57729167 25.9310417,5.19234375 Z" id="Path"></path>
                <path d="M40.9984375,10.8032812 L31.5746354,10.8032812 C31.6607292,11.9739583 32.11,12.92 32.9234375,13.6414062 C33.7378646,14.3628125 34.7650521,14.7230208 36.0079687,14.7230208 C36.7076042,14.7230208 37.3498437,14.5983333 37.9356771,14.3479687 C38.5215104,14.0985937 39.0281771,13.7304687 39.4566667,13.2445833 L40.3136458,14.2302083 C39.8139062,14.8298958 39.1894792,15.2870833 38.439375,15.6007813 C37.6892708,15.9154687 36.8649479,16.0718229 35.9654167,16.0718229 C34.8085937,16.0718229 33.784375,15.8254167 32.8917708,15.3326042 C31.9991667,14.8397917 31.3034896,14.1579687 30.80375,13.2871354 C30.3040104,12.4163021 30.0536458,11.4306771 30.0536458,10.33125 C30.0536458,9.23182292 30.293125,8.24619792 30.7710937,7.37536458 C31.2490625,6.50453125 31.9061458,5.82666667 32.7413542,5.34078125 C33.5765625,4.85588542 34.5156771,4.61244792 35.5577083,4.61244792 C36.5997396,4.61244792 37.5348958,4.85588542 38.3631771,5.34078125 C39.1914583,5.82666667 39.840625,6.50057292 40.3126562,7.36447917 C40.7836979,8.22838542 41.0192187,9.21697917 41.0192187,10.33125 L40.9984375,10.8032812 Z M32.8274479,6.95875 C32.0921875,7.65145833 31.6745833,8.55395833 31.5746354,9.66822917 L39.5635417,9.66822917 C39.4635938,8.55494792 39.0459896,7.65145833 38.3107292,6.95875 C37.5754688,6.26604167 36.658125,5.9196875 35.5586979,5.9196875 C34.473125,5.9196875 33.5627083,6.26604167 32.8274479,6.95875 Z" id="Shape"></path>
                <path d="M43.783125,0.972760417 L50.5944271,0.972760417 C52.2222917,0.972760417 53.6601562,1.28348958 54.91,1.90395833 C56.1588542,2.52541667 57.1296354,3.40020833 57.8223437,4.52734375 C58.5150521,5.65546875 58.8614062,6.96864583 58.8614062,8.46786458 C58.8614062,9.96708333 58.5150521,11.28125 57.8223437,12.4083854 C57.1296354,13.5365104 56.1588542,14.4113021 54.91,15.0317708 C53.6601562,15.6532292 52.2222917,15.9629688 50.5944271,15.9629688 L43.783125,15.9629688 L43.783125,0.972760417 L43.783125,0.972760417 Z M50.4222396,13.1159375 C51.9214583,13.1159375 53.116875,12.6983333 54.0094792,11.863125 C54.9010937,11.0279167 55.3483854,9.89682292 55.3483854,8.46885417 C55.3483854,7.04088542 54.9020833,5.90979167 54.0094792,5.07359375 C53.116875,4.23838542 51.9214583,3.82078125 50.4222396,3.82078125 L47.2526042,3.82078125 L47.2526042,13.1159375 L50.4222396,13.1159375 Z" id="Shape"></path>
                <polygon id="Path" points="75.2241667 0.972760417 75.2241667 15.9649479 72.3761458 15.9649479 64.9018229 6.86276042 64.9018229 15.9649479 61.4748958 15.9649479 61.4748958 0.972760417 64.3446875 0.972760417 71.7982292 10.0749479 71.7982292 0.972760417"></polygon>
                <path d="M88.6528125,12.7527604 L81.6920833,12.7527604 L80.3640625,15.9659375 L76.8084896,15.9659375 L83.4911458,0.97375 L86.9180729,0.97375 L93.6215104,15.9659375 L89.9798438,15.9659375 L88.6528125,12.7527604 Z M87.5603125,10.1175 L85.1823438,4.37791667 L82.8053646,10.1175 L87.5603125,10.1175 Z" id="Shape"></path>
            </g>
            <g id="Group" transform="translate(0.000000, 47.598958)" fill="#666666">
                <polygon id="Path" points="0.0227604167 0.351302083 2.695625 0.351302083 2.695625 0.9084375 1.67536458 0.9084375 1.67536458 3.6278125 1.04302083 3.6278125 1.04302083 0.9084375 0.0227604167 0.9084375"></polygon>
                <path d="M6.03348958,1.3596875 C6.19875,1.53286458 6.281875,1.76739583 6.281875,2.06427083 L6.281875,3.6278125 L5.66833333,3.6278125 L5.66833333,2.24239583 C5.66833333,2.06723958 5.61885417,1.9296875 5.51890625,1.82776042 C5.41895833,1.72682292 5.28338542,1.67536458 5.11119792,1.67536458 C4.90833333,1.67833333 4.74802083,1.74760417 4.62927083,1.88119792 C4.51052083,2.01578125 4.45114583,2.18697917 4.45114583,2.39578125 L4.45114583,3.62682292 L3.84255208,3.62682292 L3.84255208,0.153385417 L4.45114583,0.153385417 L4.45114583,1.60015625 C4.62234375,1.27260417 4.92416667,1.10536458 5.35463542,1.09942708 C5.64161458,1.10041667 5.86822917,1.18651042 6.03348958,1.3596875 Z" id="Path"></path>
                <path d="M9.84635417,1.44677083 C10.0472396,1.674375 10.1481771,1.995 10.1481771,2.40666667 C10.1481771,2.4878125 10.1461979,2.54916667 10.1432292,2.58875 L8.29369792,2.58875 C8.33427083,2.766875 8.41739583,2.90640625 8.5440625,3.00734375 C8.67072917,3.10828125 8.82609375,3.15973958 9.01015625,3.15973958 C9.1378125,3.15973958 9.26052083,3.13598958 9.37729167,3.0875 C9.4940625,3.03901042 9.59697917,2.96973958 9.6840625,2.87869792 L10.0116146,3.22010417 C9.88692708,3.35765625 9.73453125,3.46354167 9.55541667,3.53875 C9.37630208,3.61395833 9.17739583,3.65057292 8.95869792,3.65057292 C8.70239583,3.65057292 8.47677083,3.59713542 8.28182292,3.49125 C8.086875,3.38536458 7.93645833,3.2359375 7.83057292,3.04395833 C7.7246875,2.85197917 7.67125,2.63130208 7.67125,2.38192708 C7.67125,2.13255208 7.7246875,1.91088542 7.83255208,1.71692708 C7.94041667,1.52296875 8.09083333,1.37255208 8.28479167,1.2646875 C8.47875,1.15682292 8.6984375,1.10338542 8.94484375,1.10338542 C9.34463542,1.104375 9.64546875,1.21817708 9.84635417,1.44677083 Z M9.59104167,2.18104167 C9.58510417,1.99697917 9.52375,1.85052083 9.40895833,1.74067708 C9.29317708,1.63182292 9.14078125,1.57640625 8.94979167,1.57640625 C8.77166667,1.57640625 8.62322917,1.62984375 8.5025,1.73770833 C8.38276042,1.84557292 8.30854167,1.99302083 8.27984375,2.18005208 L9.59104167,2.18005208 L9.59104167,2.18104167 Z" id="Shape"></path>
                <path d="M15.2583854,0.954947917 C15.0822396,0.898541667 14.926875,0.870833333 14.7922917,0.870833333 C14.6428646,0.870833333 14.5241146,0.898541667 14.4360417,0.954947917 C14.3489583,1.01135417 14.3054167,1.08953125 14.3054167,1.18947917 C14.3054167,1.28052083 14.3360937,1.35572917 14.3964583,1.41609375 C14.4568229,1.47744792 14.5340104,1.52692708 14.6260417,1.56552083 C14.7180729,1.60411458 14.84375,1.64765625 15.0030729,1.69416667 C15.2247396,1.75947917 15.4068229,1.82479167 15.5483333,1.89109375 C15.6898437,1.95640625 15.8115625,2.05338542 15.9115104,2.18104167 C16.0114583,2.30869792 16.0609375,2.47791667 16.0609375,2.68671875 C16.0609375,2.88661458 16.0075,3.06078125 15.8996354,3.20822917 C15.7917708,3.35666667 15.6433333,3.46947917 15.4553125,3.54765625 C15.2663021,3.62583333 15.0505729,3.66442708 14.8071354,3.66442708 C14.5508333,3.66442708 14.3014583,3.61692708 14.0580208,3.52192708 C13.8145833,3.42692708 13.6028125,3.29927083 13.4217187,3.13994792 L13.6839583,2.6065625 C13.8492187,2.75895833 14.0352604,2.8796875 14.2410937,2.96677083 C14.4469271,3.05385417 14.6389062,3.09739583 14.8170312,3.09739583 C14.9921875,3.09739583 15.12875,3.06375 15.2286979,2.99645833 C15.3286458,2.92916667 15.378125,2.838125 15.378125,2.72234375 C15.378125,2.62833333 15.3474479,2.55114583 15.2870833,2.49078125 C15.2267187,2.43041667 15.1485417,2.3809375 15.0555208,2.34333333 C14.9615104,2.30572917 14.8338542,2.26416667 14.6715625,2.21666667 C14.4498958,2.15135417 14.2688021,2.08703125 14.1282812,2.0246875 C13.9877604,1.96234375 13.8680208,1.86833333 13.7680729,1.74166667 C13.668125,1.615 13.6186458,1.44875 13.6186458,1.24291667 C13.6186458,1.05291667 13.6691146,0.886666667 13.7710417,0.744166667 C13.8719792,0.60265625 14.0164583,0.491822917 14.2015104,0.414635417 C14.3875521,0.336458333 14.6013021,0.297864583 14.8447396,0.297864583 C15.0565104,0.297864583 15.2672917,0.32953125 15.4741146,0.391875 C15.6819271,0.45421875 15.8669792,0.538333333 16.0292708,0.64421875 L15.7769271,1.19145833 C15.6067188,1.09052083 15.4345313,1.01135417 15.2583854,0.954947917 Z" id="Path"></path>
                <path d="M18.6358333,1.63776042 C18.4329688,1.63776042 18.2686979,1.70604167 18.1420313,1.84359375 C18.0153646,1.98114583 17.9520313,2.15927083 17.9520313,2.37697917 C17.9520313,2.60161458 18.0153646,2.78270833 18.1420313,2.92026042 C18.2686979,3.0578125 18.4329688,3.12609375 18.6358333,3.12609375 C18.9356771,3.12609375 19.1603125,3.028125 19.3097396,2.83119792 L19.68875,3.14489583 C19.5759375,3.3071875 19.4284896,3.431875 19.2444271,3.51895833 C19.0603646,3.60604167 18.8466146,3.64958333 18.6031771,3.64958333 C18.3567708,3.64958333 18.1370833,3.59614583 17.9451042,3.49026042 C17.753125,3.384375 17.6036979,3.23494792 17.4978125,3.04296875 C17.3919271,2.85098958 17.3384896,2.6303125 17.3384896,2.3809375 C17.3384896,2.12859375 17.3919271,1.90494792 17.4997917,1.71098958 C17.6076563,1.51703125 17.7570833,1.36760417 17.9490625,1.26171875 C18.1410417,1.15583333 18.3617187,1.10239583 18.6110938,1.10239583 C18.8386979,1.10239583 19.0425521,1.14197917 19.2216667,1.22213542 C19.4007812,1.30130208 19.5472396,1.41510417 19.6590625,1.5615625 L19.2889583,1.91286458 C19.1227083,1.73078125 18.9040104,1.63776042 18.6358333,1.63776042 Z" id="Path"></path>
                <path d="M21.7997833,0.149427083 C21.8768601,0.217708333 21.9153986,0.30578125 21.9153986,0.411666667 C21.9153986,0.514583333 21.8768601,0.600677083 21.7997833,0.668958333 C21.7227064,0.737239583 21.6246086,0.771875 21.5066577,0.771875 C21.3887067,0.771875 21.2917767,0.737239583 21.213532,0.668958333 C21.1364551,0.600677083 21.0979167,0.514583333 21.0979167,0.411666667 C21.0979167,0.30578125 21.1364551,0.217708333 21.213532,0.149427083 C21.2906088,0.0811458333 21.3887067,0.0465104167 21.5066577,0.0465104167 C21.6246086,0.0465104167 21.7227064,0.0811458333 21.7997833,0.149427083 Z M21.1528047,1.12317708 L21.871021,1.12317708 L21.871021,3.6278125 L21.1528047,3.6278125 L21.1528047,1.12317708 Z" id="Shape"></path>
                <path d="M25.38875,1.44677083 C25.5896354,1.674375 25.6905729,1.995 25.6905729,2.40666667 C25.6905729,2.4878125 25.6885937,2.54916667 25.685625,2.58875 L23.8360937,2.58875 C23.8766667,2.766875 23.9597917,2.90640625 24.0864583,3.00734375 C24.213125,3.10828125 24.3684896,3.15973958 24.5525521,3.15973958 C24.6802083,3.15973958 24.8029167,3.13598958 24.9196875,3.0875 C25.0364583,3.03901042 25.139375,2.96973958 25.2264583,2.87869792 L25.5540104,3.22010417 C25.4293229,3.35765625 25.2769271,3.46354167 25.0978125,3.53875 C24.9186979,3.61395833 24.7197917,3.65057292 24.5010937,3.65057292 C24.2447917,3.65057292 24.0191667,3.59713542 23.8242187,3.49125 C23.6292708,3.38536458 23.4788542,3.2359375 23.3729687,3.04395833 C23.2670833,2.85197917 23.2136458,2.63130208 23.2136458,2.38192708 C23.2136458,2.13255208 23.2670833,1.91088542 23.3749479,1.71692708 C23.4828125,1.52296875 23.6332292,1.37255208 23.8271875,1.2646875 C24.0211458,1.15682292 24.2408333,1.10338542 24.4872396,1.10338542 C24.8870313,1.104375 25.186875,1.21817708 25.38875,1.44677083 Z M25.1334375,2.18104167 C25.1275,1.99697917 25.0661458,1.85052083 24.9513542,1.74067708 C24.8355729,1.63182292 24.6831771,1.57640625 24.4921875,1.57640625 C24.3140625,1.57640625 24.165625,1.62984375 24.0448958,1.73770833 C23.9251563,1.84557292 23.8509375,1.99302083 23.8222396,2.18005208 L25.1334375,2.18005208 L25.1334375,2.18104167 Z" id="Shape"></path>
                <path d="M29.3371875,1.3596875 C29.5024479,1.53286458 29.5855729,1.76739583 29.5855729,2.06427083 L29.5855729,3.6278125 L28.9720313,3.6278125 L28.9720313,2.24239583 C28.9720313,2.06723958 28.9225521,1.9296875 28.8226042,1.82776042 C28.7226562,1.72682292 28.5870833,1.67536458 28.4148958,1.67536458 C28.2120313,1.67833333 28.0517188,1.74760417 27.9349479,1.88119792 C27.8181771,2.01578125 27.7597917,2.18697917 27.7597917,2.39578125 L27.7597917,3.62682292 L27.1511979,3.62682292 L27.1511979,1.1221875 L27.7597917,1.1221875 L27.7597917,1.59026042 C27.9309896,1.26864583 28.2308333,1.10536458 28.6583333,1.0984375 C28.9453125,1.10041667 29.1719271,1.18651042 29.3371875,1.3596875 Z" id="Path"></path>
                <path d="M32.2722917,1.63776042 C32.0694271,1.63776042 31.9051563,1.70604167 31.7784896,1.84359375 C31.6518229,1.98114583 31.5884896,2.15927083 31.5884896,2.37697917 C31.5884896,2.60161458 31.6518229,2.78270833 31.7784896,2.92026042 C31.9051563,3.0578125 32.0694271,3.12609375 32.2722917,3.12609375 C32.5721354,3.12609375 32.7967708,3.028125 32.9461979,2.83119792 L33.3252083,3.14489583 C33.2123958,3.3071875 33.0649479,3.431875 32.8808854,3.51895833 C32.6968229,3.60604167 32.4830729,3.64958333 32.2396354,3.64958333 C31.9932292,3.64958333 31.7735417,3.59614583 31.5815625,3.49026042 C31.3895833,3.384375 31.2401562,3.23494792 31.1342708,3.04296875 C31.0283854,2.85098958 30.9749479,2.6303125 30.9749479,2.3809375 C30.9749479,2.12859375 31.0283854,1.90494792 31.13625,1.71098958 C31.2441146,1.51703125 31.3935417,1.36760417 31.5855208,1.26171875 C31.7775,1.15583333 31.9981771,1.10239583 32.2475521,1.10239583 C32.4751562,1.10239583 32.6790104,1.14197917 32.858125,1.22213542 C33.0372396,1.30130208 33.1836979,1.41510417 33.2955208,1.5615625 L32.9254167,1.91286458 C32.7591667,1.73078125 32.5404688,1.63776042 32.2722917,1.63776042 Z" id="Path"></path>
                <path d="M36.6373438,1.44677083 C36.8382292,1.674375 36.9391667,1.995 36.9391667,2.40666667 C36.9391667,2.4878125 36.9371875,2.54916667 36.9342188,2.58875 L35.0846875,2.58875 C35.1252604,2.766875 35.2083854,2.90640625 35.3350521,3.00734375 C35.4617187,3.10828125 35.6170833,3.15973958 35.8011458,3.15973958 C35.9288021,3.15973958 36.0515104,3.13598958 36.1682812,3.0875 C36.2850521,3.03901042 36.3879688,2.96973958 36.4750521,2.87869792 L36.8026042,3.22010417 C36.6779167,3.35765625 36.5255208,3.46354167 36.3464063,3.53875 C36.1672917,3.61395833 35.9683854,3.65057292 35.7496875,3.65057292 C35.4933854,3.65057292 35.2677604,3.59713542 35.0728125,3.49125 C34.8778646,3.38536458 34.7274479,3.2359375 34.6215625,3.04395833 C34.5156771,2.85197917 34.4622396,2.63130208 34.4622396,2.38192708 C34.4622396,2.13255208 34.5156771,1.91088542 34.6235417,1.71692708 C34.7314063,1.52296875 34.8818229,1.37255208 35.0757813,1.2646875 C35.2697396,1.15682292 35.4894271,1.10338542 35.7358333,1.10338542 C36.135625,1.104375 36.4364583,1.21817708 36.6373438,1.44677083 Z M36.3820312,2.18104167 C36.3760938,1.99697917 36.3147396,1.85052083 36.1999479,1.74067708 C36.0841667,1.63182292 35.9317708,1.57640625 35.7407812,1.57640625 C35.5626563,1.57640625 35.4142188,1.62984375 35.2934896,1.73770833 C35.17375,1.84557292 35.0995312,1.99302083 35.0708333,2.18005208 L36.3820312,2.18005208 L36.3820312,2.18104167 Z" id="Shape"></path>
                <path d="M42.2641146,1.26369792 C42.4620313,1.36958333 42.6164063,1.51901042 42.7272396,1.71098958 C42.8380729,1.90296875 42.8934896,2.12364583 42.8934896,2.37302083 C42.8934896,2.62536458 42.8380729,2.84901042 42.7272396,3.04197917 C42.6164063,3.2359375 42.4620313,3.38536458 42.2641146,3.49125 C42.0661979,3.59713542 41.8376042,3.65057292 41.5783333,3.65057292 C41.3160938,3.65057292 41.0855208,3.59713542 40.885625,3.49125 C40.6857292,3.38536458 40.5303646,3.2359375 40.4195313,3.04197917 C40.3086979,2.84802083 40.2532813,2.62536458 40.2532813,2.37302083 C40.2532813,2.12364583 40.3086979,1.90296875 40.4195313,1.71098958 C40.5303646,1.51901042 40.6857292,1.36958333 40.885625,1.26369792 C41.0855208,1.1578125 41.3160938,1.104375 41.5783333,1.104375 C41.8376042,1.104375 42.0661979,1.1578125 42.2641146,1.26369792 Z M41.06375,1.8346875 C40.933125,1.97520833 40.8668229,2.15729167 40.8668229,2.38291667 C40.8668229,2.60755208 40.9321354,2.790625 41.06375,2.93015625 C41.1953646,3.0696875 41.3665625,3.1409375 41.5783333,3.1409375 C41.7841667,3.1409375 41.9523958,3.07067708 42.0840104,2.93015625 C42.2146354,2.78963542 42.2809375,2.60755208 42.2809375,2.38291667 C42.2809375,2.15828125 42.215625,1.97520833 42.0840104,1.8346875 C41.9533854,1.69416667 41.7841667,1.62390625 41.5783333,1.62390625 C41.3665625,1.62390625 41.194375,1.69416667 41.06375,1.8346875 Z" id="Shape"></path>
                <path d="M45.1438021,0.7303125 C45.0834375,0.78375 45.0527604,0.862916667 45.0527604,0.968802083 L45.0527604,1.22609375 L45.6801563,1.22609375 L45.6801563,1.67041667 L45.0527604,1.67041667 L45.0527604,3.62682292 L44.4441667,3.62682292 L44.4441667,1.67041667 L44.1166146,1.67041667 L44.1166146,1.22609375 L44.4441667,1.22609375 L44.4441667,0.987604167 C44.4441667,0.803541667 44.4847396,0.646197917 44.5658854,0.517552083 C44.6470313,0.387916667 44.7558854,0.2909375 44.8914583,0.224635417 C45.0270313,0.158333333 45.1744792,0.126666667 45.3338021,0.126666667 C45.4901563,0.126666667 45.6425521,0.162291667 45.7929688,0.23453125 L45.6851042,0.726354167 C45.5604167,0.676875 45.4575,0.651145833 45.3763542,0.651145833 C45.2813542,0.65015625 45.2041667,0.676875 45.1438021,0.7303125 Z" id="Path"></path>
                <path d="M50.6251042,0.954947917 C50.4489583,0.898541667 50.2935938,0.870833333 50.1590104,0.870833333 C50.0095833,0.870833333 49.8908333,0.898541667 49.8027604,0.954947917 C49.7156771,1.01135417 49.6721354,1.08953125 49.6721354,1.18947917 C49.6721354,1.28052083 49.7028125,1.35572917 49.7631771,1.41609375 C49.8235417,1.47744792 49.9007292,1.52692708 49.9927604,1.56552083 C50.0847917,1.60411458 50.2104688,1.64765625 50.3697917,1.69416667 C50.5914583,1.75947917 50.7735417,1.82479167 50.9150521,1.89109375 C51.0565625,1.95640625 51.1782813,2.05338542 51.2782292,2.18104167 C51.3781771,2.30869792 51.4276563,2.47791667 51.4276563,2.68671875 C51.4276563,2.88661458 51.3742188,3.06078125 51.2663542,3.20822917 C51.1584896,3.35666667 51.0100521,3.46947917 50.8220312,3.54765625 C50.6330208,3.62583333 50.4172917,3.66442708 50.1738542,3.66442708 C49.9175521,3.66442708 49.6681771,3.61692708 49.4247396,3.52192708 C49.1813021,3.42692708 48.9695312,3.29927083 48.7884375,3.13994792 L49.0506771,2.6065625 C49.2159375,2.75895833 49.4019792,2.8796875 49.6078125,2.96677083 C49.8136458,3.05385417 50.005625,3.09739583 50.18375,3.09739583 C50.3589063,3.09739583 50.4954688,3.06375 50.5954167,2.99645833 C50.6953646,2.92916667 50.7448438,2.838125 50.7448438,2.72234375 C50.7448438,2.62833333 50.7141667,2.55114583 50.6538021,2.49078125 C50.5934375,2.42942708 50.5152604,2.3809375 50.4222396,2.34333333 C50.3282292,2.30572917 50.2005729,2.26416667 50.0382812,2.21666667 C49.8166146,2.15135417 49.6355208,2.08703125 49.495,2.0246875 C49.3544792,1.96234375 49.2347396,1.86833333 49.1347917,1.74166667 C49.0348438,1.615 48.9853646,1.44875 48.9853646,1.24291667 C48.9853646,1.05291667 49.0358333,0.886666667 49.1377604,0.744166667 C49.2386979,0.60265625 49.3831771,0.491822917 49.5682292,0.414635417 C49.7542708,0.336458333 49.9680208,0.297864583 50.2114583,0.297864583 C50.4232292,0.297864583 50.6340104,0.32953125 50.8408333,0.391875 C51.0486458,0.45421875 51.2336979,0.538333333 51.3959896,0.64421875 L51.1436458,1.19145833 C50.9734375,1.09052083 50.80125,1.01135417 50.6251042,0.954947917 Z" id="Path"></path>
                <path d="M54.4142187,3.6278125 L54.4142187,3.32302083 C54.3271354,3.431875 54.2143229,3.515 54.0767708,3.57140625 C53.9392187,3.6278125 53.781875,3.65552083 53.60375,3.65552083 C53.4285937,3.65552083 53.2752083,3.621875 53.1426042,3.55458333 C53.01,3.48729167 52.9080729,3.39427083 52.8358333,3.27651042 C52.7635937,3.15776042 52.7279687,3.02515625 52.7279687,2.87869792 C52.7279687,2.64416667 52.8110937,2.46109375 52.9763542,2.32848958 C53.1416146,2.19588542 53.3761458,2.12760417 53.6789583,2.12463542 L54.4092708,2.12463542 L54.4092708,2.05932292 C54.4092708,1.91286458 54.3607812,1.7990625 54.2638021,1.71791667 C54.1668229,1.63677083 54.0263021,1.59619792 53.8422396,1.59619792 C53.6047396,1.59619792 53.3573437,1.674375 53.0980729,1.83072917 L52.8783854,1.40916667 C53.0753125,1.3003125 53.2534375,1.22114583 53.4147396,1.17265625 C53.5750521,1.12416667 53.7630729,1.10041667 53.9788021,1.10041667 C54.3033854,1.10041667 54.5557292,1.17859375 54.7348438,1.33494792 C54.9139583,1.49130208 55.0059896,1.70901042 55.0089583,1.99005208 L55.0139063,3.62880208 L54.4142187,3.62880208 L54.4142187,3.6278125 Z M54.1994792,3.06375 C54.3241667,2.98161458 54.3944271,2.87869792 54.4102604,2.75697917 L54.4102604,2.53234375 L53.7779167,2.53234375 C53.615625,2.53234375 53.4958854,2.55609375 53.4196875,2.60458333 C53.3434896,2.65307292 53.3048958,2.73223958 53.3048958,2.84109375 C53.3048958,2.94697917 53.3444792,3.03109375 53.4246354,3.0934375 C53.5047917,3.15578125 53.6126563,3.18744792 53.7502083,3.18744792 C53.924375,3.18744792 54.0747917,3.146875 54.1994792,3.06375 Z" id="Shape"></path>
                <polygon id="Path" points="56.6566146 0.154375 57.2652083 0.154375 57.2652083 3.6278125 56.6566146 3.6278125"></polygon>
                <path d="M60.9286458,1.44677083 C61.1295313,1.674375 61.2304688,1.995 61.2304688,2.40666667 C61.2304688,2.4878125 61.2284896,2.54916667 61.2255208,2.58875 L59.3759896,2.58875 C59.4165625,2.766875 59.4996875,2.90640625 59.6263542,3.00734375 C59.7530208,3.10828125 59.9083854,3.15973958 60.0924479,3.15973958 C60.2201042,3.15973958 60.3428125,3.13598958 60.4595833,3.0875 C60.5763542,3.03901042 60.6792708,2.96973958 60.7663542,2.87869792 L61.0939062,3.22010417 C60.9692187,3.35765625 60.8168229,3.46354167 60.6377083,3.53875 C60.4585938,3.61395833 60.2596875,3.65057292 60.0409896,3.65057292 C59.7846875,3.65057292 59.5590625,3.59713542 59.3641146,3.49125 C59.1691667,3.38536458 59.01875,3.2359375 58.9128646,3.04395833 C58.8069792,2.85197917 58.7535417,2.63130208 58.7535417,2.38192708 C58.7535417,2.13255208 58.8069792,1.91088542 58.9148438,1.71692708 C59.0227083,1.52296875 59.173125,1.37255208 59.3670833,1.2646875 C59.5610417,1.15682292 59.7807292,1.10338542 60.0271354,1.10338542 C60.4269271,1.104375 60.7277604,1.21817708 60.9286458,1.44677083 Z M60.6733333,2.18104167 C60.6673958,1.99697917 60.6060417,1.85052083 60.49125,1.74067708 C60.3754687,1.63182292 60.2230729,1.57640625 60.0320833,1.57640625 C59.8539583,1.57640625 59.7055208,1.62984375 59.5847917,1.73770833 C59.4650521,1.84557292 59.3908333,1.99302083 59.3621354,2.18005208 L60.6733333,2.18005208 L60.6733333,2.18104167 Z" id="Shape"></path>
                <path d="M63.7984375,1.63380208 C63.6688021,1.59322917 63.5490625,1.57244792 63.4402083,1.57244792 C63.3372917,1.57244792 63.2551563,1.59026042 63.1947917,1.62588542 C63.1344271,1.66151042 63.10375,1.71692708 63.10375,1.79213542 C63.10375,1.8703125 63.1423438,1.93067708 63.2185417,1.97223958 C63.2947396,2.01479167 63.4154688,2.05932292 63.5817188,2.10583333 C63.756875,2.15927083 63.9003646,2.21072917 64.0121875,2.2621875 C64.1240104,2.31364583 64.2219792,2.38984375 64.3051042,2.49177083 C64.3882292,2.59369792 64.4288021,2.72630208 64.4288021,2.8915625 C64.4288021,3.135 64.3347917,3.32203125 64.1477604,3.45364583 C63.9607292,3.58427083 63.7252083,3.65057292 63.4411979,3.65057292 C63.2472396,3.65057292 63.0592188,3.61989583 62.8751563,3.55953125 C62.6910938,3.49817708 62.5347396,3.41208333 62.4070833,3.29927083 L62.6178646,2.87375 C62.7306771,2.97072917 62.8642708,3.0459375 63.020625,3.10036458 C63.1769792,3.15479167 63.3244271,3.1825 63.4649479,3.1825 C63.5777604,3.1825 63.6668229,3.16270833 63.7341146,3.12411458 C63.8014063,3.08552083 63.8350521,3.02614583 63.8350521,2.94895833 C63.8350521,2.861875 63.7964583,2.7965625 63.7182813,2.75203125 C63.6401042,2.70848958 63.5134375,2.66 63.3392708,2.6065625 C63.1710417,2.55708333 63.0334896,2.50760417 62.9276042,2.45911458 C62.8217188,2.410625 62.7296875,2.33739583 62.6515104,2.23942708 C62.5733333,2.14145833 62.5347396,2.0128125 62.5347396,1.85348958 C62.5347396,1.60708333 62.6247917,1.4190625 62.8039063,1.28942708 C62.9830208,1.15979167 63.2086458,1.09546875 63.4807812,1.09546875 C63.6460417,1.09546875 63.8093229,1.11921875 63.9696354,1.16572917 C64.1299479,1.21223958 64.2734375,1.27755208 64.398125,1.36265625 L64.1784375,1.80302083 C64.05375,1.73078125 63.9280729,1.674375 63.7984375,1.63380208 Z" id="Path"></path>
                <path d="M69.5330729,0.954947917 C69.3569271,0.898541667 69.2015625,0.870833333 69.0669792,0.870833333 C68.9175521,0.870833333 68.7988021,0.898541667 68.7107292,0.954947917 C68.6236458,1.01135417 68.5801042,1.08953125 68.5801042,1.18947917 C68.5801042,1.28052083 68.6107813,1.35572917 68.6711458,1.41609375 C68.7315104,1.47744792 68.8086979,1.52692708 68.9007292,1.56552083 C68.9927604,1.60411458 69.1184375,1.64765625 69.2777604,1.69416667 C69.4994271,1.75947917 69.6815104,1.82479167 69.8230208,1.89109375 C69.9645313,1.95640625 70.08625,2.05338542 70.1861979,2.18104167 C70.2861458,2.30869792 70.335625,2.47791667 70.335625,2.68671875 C70.335625,2.88661458 70.2821875,3.06078125 70.1743229,3.20822917 C70.0664583,3.35666667 69.9180208,3.46947917 69.73,3.54765625 C69.5409896,3.62583333 69.3252604,3.66442708 69.0818229,3.66442708 C68.8255208,3.66442708 68.5761458,3.61692708 68.3327083,3.52192708 C68.0892708,3.42692708 67.8775,3.29927083 67.6964063,3.13994792 L67.9586458,2.6065625 C68.1239063,2.75895833 68.3099479,2.8796875 68.5157813,2.96677083 C68.7216146,3.05385417 68.9135938,3.09739583 69.0917188,3.09739583 C69.266875,3.09739583 69.4034375,3.06375 69.5033854,2.99645833 C69.6033333,2.92916667 69.6528125,2.838125 69.6528125,2.72234375 C69.6528125,2.62833333 69.6221354,2.55114583 69.5617708,2.49078125 C69.5014063,2.43041667 69.4232292,2.3809375 69.3302083,2.34333333 C69.2361979,2.30572917 69.1085417,2.26416667 68.94625,2.21666667 C68.7245833,2.15135417 68.5434896,2.08703125 68.4029688,2.0246875 C68.2624479,1.96234375 68.1427083,1.86833333 68.0427604,1.74166667 C67.9428125,1.615 67.8933333,1.44875 67.8933333,1.24291667 C67.8933333,1.05291667 67.9438021,0.886666667 68.0457292,0.744166667 C68.1466667,0.60265625 68.2911458,0.491822917 68.4761979,0.414635417 C68.6622396,0.336458333 68.8759896,0.297864583 69.1194271,0.297864583 C69.3311979,0.297864583 69.5419792,0.32953125 69.7488021,0.391875 C69.9566146,0.45421875 70.1416667,0.538333333 70.3039583,0.64421875 L70.0516146,1.19145833 C69.8814063,1.09052083 69.7092188,1.01135417 69.5330729,0.954947917 Z" id="Path"></path>
                <path d="M74.1554167,1.12317708 L74.1554167,3.6278125 L73.541875,3.6278125 L73.541875,3.1646875 C73.3736458,3.48927083 73.0827083,3.6515625 72.6710417,3.6515625 C72.39,3.6515625 72.1683333,3.56546875 72.0060417,3.39427083 C71.84375,3.22307292 71.7626042,2.98854167 71.7626042,2.69166667 L71.7626042,1.12317708 L72.3761458,1.12317708 L72.3761458,2.51354167 C72.3761458,2.68869792 72.4236458,2.82526042 72.5186458,2.92520833 C72.6136458,3.02515625 72.7452604,3.07463542 72.9144792,3.07463542 C73.1084375,3.07166667 73.2608333,3.00239583 73.3736458,2.86880208 C73.4864583,2.73421875 73.541875,2.565 73.541875,2.35817708 L73.541875,1.1221875 L74.1554167,1.1221875 L74.1554167,1.12317708 Z" id="Path"></path>
                <path d="M76.9173438,1.63776042 C76.7144792,1.63776042 76.5502083,1.70604167 76.4235417,1.84359375 C76.296875,1.98114583 76.2335417,2.15927083 76.2335417,2.37697917 C76.2335417,2.60161458 76.296875,2.78270833 76.4235417,2.92026042 C76.5502083,3.0578125 76.7144792,3.12609375 76.9173438,3.12609375 C77.2171875,3.12609375 77.4418229,3.028125 77.59125,2.83119792 L77.9702604,3.14489583 C77.8574479,3.3071875 77.71,3.431875 77.5259375,3.51895833 C77.341875,3.60604167 77.128125,3.64958333 76.8846875,3.64958333 C76.6382813,3.64958333 76.4185937,3.59614583 76.2266146,3.49026042 C76.0346354,3.384375 75.8852083,3.23494792 75.7793229,3.04296875 C75.6734375,2.85098958 75.62,2.6303125 75.62,2.3809375 C75.62,2.12859375 75.6734375,1.90494792 75.7813021,1.71098958 C75.8891667,1.51703125 76.0385938,1.36760417 76.2305729,1.26171875 C76.4225521,1.15583333 76.6432292,1.10239583 76.8926042,1.10239583 C77.1202083,1.10239583 77.3240625,1.14197917 77.5031771,1.22213542 C77.6822917,1.30130208 77.82875,1.41510417 77.9405729,1.5615625 L77.5704688,1.91286458 C77.4042188,1.73078125 77.1855208,1.63776042 76.9173438,1.63776042 Z" id="Path"></path>
                <path d="M80.4046354,1.63776042 C80.2017708,1.63776042 80.0375,1.70604167 79.9108333,1.84359375 C79.7841667,1.98114583 79.7208333,2.15927083 79.7208333,2.37697917 C79.7208333,2.60161458 79.7841667,2.78270833 79.9108333,2.92026042 C80.0375,3.0578125 80.2017708,3.12609375 80.4046354,3.12609375 C80.7044792,3.12609375 80.9291146,3.028125 81.0785417,2.83119792 L81.4575521,3.14489583 C81.3447396,3.3071875 81.1972917,3.431875 81.0132292,3.51895833 C80.8291667,3.60604167 80.6154167,3.64958333 80.3719792,3.64958333 C80.1255729,3.64958333 79.9058854,3.59614583 79.7139062,3.49026042 C79.5219271,3.384375 79.3725,3.23494792 79.2666146,3.04296875 C79.1607292,2.85098958 79.1072917,2.6303125 79.1072917,2.3809375 C79.1072917,2.12859375 79.1607292,1.90494792 79.2685937,1.71098958 C79.3764583,1.51703125 79.5258854,1.36760417 79.7178646,1.26171875 C79.9098438,1.15583333 80.1305208,1.10239583 80.3798958,1.10239583 C80.6075,1.10239583 80.8113542,1.14197917 80.9904688,1.22213542 C81.1695833,1.30130208 81.3160417,1.41510417 81.4278646,1.5615625 L81.0577604,1.91286458 C80.8915104,1.73078125 80.6738021,1.63776042 80.4046354,1.63776042 Z" id="Path"></path>
                <path d="M84.7706771,1.44677083 C84.9715625,1.674375 85.0725,1.995 85.0725,2.40666667 C85.0725,2.4878125 85.0705208,2.54916667 85.0675521,2.58875 L83.2180208,2.58875 C83.2585938,2.766875 83.3417188,2.90640625 83.4683854,3.00734375 C83.5950521,3.10828125 83.7504167,3.15973958 83.9344792,3.15973958 C84.0621354,3.15973958 84.1848438,3.13598958 84.3016146,3.0875 C84.4183854,3.03901042 84.5213021,2.96973958 84.6083854,2.87869792 L84.9359375,3.22010417 C84.81125,3.35765625 84.6588542,3.46354167 84.4797396,3.53875 C84.300625,3.61395833 84.1017188,3.65057292 83.8830208,3.65057292 C83.6267188,3.65057292 83.4010938,3.59713542 83.2061458,3.49125 C83.0111979,3.38536458 82.8607813,3.2359375 82.7548958,3.04395833 C82.6490104,2.85197917 82.5955729,2.63130208 82.5955729,2.38192708 C82.5955729,2.13255208 82.6490104,1.91088542 82.756875,1.71692708 C82.8647396,1.52296875 83.0151563,1.37255208 83.2091146,1.2646875 C83.4030729,1.15682292 83.6227604,1.10338542 83.8691667,1.10338542 C84.2689583,1.104375 84.5688021,1.21817708 84.7706771,1.44677083 Z M84.5153646,2.18104167 C84.5094271,1.99697917 84.4480729,1.85052083 84.3332813,1.74067708 C84.2175,1.63182292 84.0651042,1.57640625 83.8741146,1.57640625 C83.6959896,1.57640625 83.5475521,1.62984375 83.4268229,1.73770833 C83.3070833,1.84557292 83.2328646,1.99302083 83.2041667,2.18005208 L84.5153646,2.18005208 L84.5153646,2.18104167 Z" id="Shape"></path>
                <path d="M87.6404688,1.63380208 C87.5108333,1.59322917 87.3910938,1.57244792 87.2822396,1.57244792 C87.1793229,1.57244792 87.0971875,1.59026042 87.0368229,1.62588542 C86.9764583,1.66151042 86.9457813,1.71692708 86.9457813,1.79213542 C86.9457813,1.8703125 86.984375,1.93067708 87.0605729,1.97223958 C87.1367708,2.01479167 87.2575,2.05932292 87.42375,2.10583333 C87.5989063,2.15927083 87.7423958,2.21072917 87.8542188,2.2621875 C87.9660417,2.31364583 88.0640104,2.38984375 88.1471354,2.49177083 C88.2302604,2.59369792 88.2708333,2.72630208 88.2708333,2.8915625 C88.2708333,3.135 88.1768229,3.32203125 87.9897917,3.45364583 C87.8027604,3.58427083 87.5672396,3.65057292 87.2832292,3.65057292 C87.0892708,3.65057292 86.90125,3.61989583 86.7171875,3.55953125 C86.533125,3.49817708 86.3767708,3.41208333 86.2491146,3.29927083 L86.4598958,2.87375 C86.5727083,2.97072917 86.7063021,3.0459375 86.8626563,3.10036458 C87.0190104,3.15479167 87.1664583,3.1825 87.3069792,3.1825 C87.4197917,3.1825 87.5088542,3.16270833 87.5761458,3.12411458 C87.6434375,3.08552083 87.6770833,3.02614583 87.6770833,2.94895833 C87.6770833,2.861875 87.6384896,2.7965625 87.5603125,2.75203125 C87.4821354,2.70848958 87.3554688,2.66 87.1813021,2.6065625 C87.0130729,2.55708333 86.8755208,2.50760417 86.7696354,2.45911458 C86.66375,2.410625 86.5717188,2.33739583 86.4935417,2.23942708 C86.4153646,2.14145833 86.3767708,2.0128125 86.3767708,1.85348958 C86.3767708,1.60708333 86.4668229,1.4190625 86.6459375,1.28942708 C86.8250521,1.15979167 87.0506771,1.09546875 87.3228125,1.09546875 C87.4880729,1.09546875 87.6513542,1.11921875 87.8116667,1.16572917 C87.9719792,1.21223958 88.1154688,1.27755208 88.2401563,1.36265625 L88.0204688,1.80302083 C87.8947917,1.73078125 87.7691146,1.674375 87.6404688,1.63380208 Z" id="Path"></path>
                <path d="M90.8328646,1.63380208 C90.7032292,1.59322917 90.5834896,1.57244792 90.4746354,1.57244792 C90.3717188,1.57244792 90.2895833,1.59026042 90.2292188,1.62588542 C90.1688542,1.66151042 90.1381771,1.71692708 90.1381771,1.79213542 C90.1381771,1.8703125 90.1767708,1.93067708 90.2529688,1.97223958 C90.3291667,2.01479167 90.4498958,2.05932292 90.6161458,2.10583333 C90.7913021,2.15927083 90.9347917,2.21072917 91.0466146,2.2621875 C91.1584375,2.31364583 91.2564062,2.38984375 91.3395313,2.49177083 C91.4226563,2.59369792 91.4632292,2.72630208 91.4632292,2.8915625 C91.4632292,3.135 91.3692188,3.32203125 91.1821875,3.45364583 C90.9951563,3.58427083 90.7596354,3.65057292 90.475625,3.65057292 C90.2816667,3.65057292 90.0936458,3.61989583 89.9095833,3.55953125 C89.7255208,3.49817708 89.5691667,3.41208333 89.4415104,3.29927083 L89.6522917,2.87375 C89.7651042,2.97072917 89.8986979,3.0459375 90.0550521,3.10036458 C90.2114063,3.15479167 90.3588542,3.1825 90.499375,3.1825 C90.6121875,3.1825 90.70125,3.16270833 90.7685417,3.12411458 C90.8358333,3.08552083 90.8694792,3.02614583 90.8694792,2.94895833 C90.8694792,2.861875 90.8308854,2.7965625 90.7527083,2.75203125 C90.6745313,2.70848958 90.5478646,2.66 90.3736979,2.6065625 C90.2054688,2.55708333 90.0679167,2.50760417 89.9620313,2.45911458 C89.8561458,2.410625 89.7641146,2.33739583 89.6859375,2.23942708 C89.6077604,2.14145833 89.5691667,2.0128125 89.5691667,1.85348958 C89.5691667,1.60708333 89.6592188,1.4190625 89.8383333,1.28942708 C90.0174479,1.15979167 90.2430729,1.09546875 90.5152083,1.09546875 C90.6804688,1.09546875 90.84375,1.11921875 91.0040625,1.16572917 C91.164375,1.21223958 91.3078646,1.27755208 91.4325521,1.36265625 L91.2128646,1.80302083 C91.0881771,1.73078125 90.9625,1.674375 90.8328646,1.63380208 Z" id="Path"></path>
            </g>
            <g id="Group" transform="translate(22.463542, 0.000000)">
                <path d="M46.3530729,17.2761458 C47.9700521,17.2761458 49.28125,15.9649479 49.28125,14.3479688 L49.28125,5.79302083 C49.28125,4.17604167 47.9700521,2.86484375 46.3530729,2.86484375 C44.7360938,2.86484375 43.4248958,4.17604167 43.4248958,5.79302083 L43.4248958,14.3479688 C43.4248958,15.9659375 44.7360937,17.2761458 46.3530729,17.2761458 Z" id="Path" fill="url(#linearGradient-1)"></path>
                <path d="M35.5052604,22.8128646 C37.1222396,22.8128646 38.4334375,21.5016667 38.4334375,19.8846875 L38.4334375,12.51625 C38.4334375,10.8992708 37.1222396,9.58807292 35.5052604,9.58807292 C33.8882813,9.58807292 32.5770833,10.8992708 32.5770833,12.51625 L32.5770833,19.8846875 C32.5770833,21.5016667 33.8882813,22.8128646 35.5052604,22.8128646 Z" id="Path" fill="url(#linearGradient-2)"></path>
                <path d="M13.8096354,14.5082813 C15.4266146,14.5082813 16.7378125,13.1970833 16.7378125,11.5801042 L16.7378125,3.02515625 C16.7378125,1.40817708 15.4266146,0.0969791667 13.8096354,0.0969791667 C12.1926562,0.0969791667 10.8814583,1.40817708 10.8814583,3.02515625 L10.8814583,11.5801042 C10.8814583,13.1980729 12.1926563,14.5082813 13.8096354,14.5082813 Z" id="Path" fill="url(#linearGradient-3)"></path>
                <path d="M2.96182292,20.045 C4.57880208,20.045 5.89,18.7338021 5.89,17.1168229 L5.89,9.74739583 C5.89,8.13041667 4.57880208,6.81921875 2.96182292,6.81921875 C1.34484375,6.81921875 0.0336458333,8.13041667 0.0336458333,9.74739583 L0.0336458333,17.1158333 C0.0336458333,18.7338021 1.34484375,20.045 2.96182292,20.045 Z" id="Path" fill="url(#linearGradient-4)"></path>
                <path d="M24.6574479,16.7961979 C26.2744271,16.7961979 27.585625,15.485 27.585625,13.8680208 L27.585625,7.8671875 C27.585625,6.25020833 26.2744271,4.93901042 24.6574479,4.93901042 C23.0404687,4.93901042 21.7292708,6.25020833 21.7292708,7.8671875 L21.7292708,13.8680208 C21.7292708,15.4859896 23.0404688,16.7961979 24.6574479,16.7961979 Z" id="Path" fill="url(#linearGradient-5)"></path>
            </g>
        </g>
    </g>
</svg>