<?xml version="1.0" encoding="UTF-8"?>
<svg width="195px" height="177px" viewBox="0 0 195 177" version="1.1" xmlns="http://www.w3.org/2000/svg" xmlns:xlink="http://www.w3.org/1999/xlink">
    <!-- Generator: Sketch 63.1 (92452) - https://sketch.com -->
    <title>icon-congratulation</title>
    <desc>Created with Sketch.</desc>
    <g id="icon-congratulation" stroke="none" stroke-width="1" fill="none" fill-rule="evenodd">
        <g fill="#02295C" id="Group-2">
            <g>
                <polyline id="Fill-1135" transform="translate(122.011000, 9.240500) rotate(-20.000000) translate(-122.011000, -9.240500) " points="128.523 14.19 123.358 12.187 119.857 16.481 120.166 10.95 115 8.947 120.356 7.531 120.665 2 123.667 6.656 129.022 5.24 125.521 9.534 128.523 14.19"></polyline>
                <polyline id="Fill-1137" transform="translate(19.000000, 117.729241) rotate(15.000000) translate(-19.000000, -117.729241) " points="29 119.485407 21.3614809 120.025921 19.5148943 127.458482 16.6395238 120.360476 9 120.901994 14.8622595 115.973075 11.9878937 108.875069 18.4851057 112.927915 24.3473652 108 22.5017833 115.431557 29 119.485407"></polyline>
                <polyline id="Fill-1137-Copy" transform="translate(20.000000, 26.675089) rotate(30.000000) translate(-20.000000, -26.675089) " points="32 28.7824886 22.8337771 29.4311046 20.6178731 38.3501783 17.1674285 29.8325715 8 30.4823931 15.0347114 24.5676898 11.5854724 16.0500829 19.3821269 20.9134978 26.4168383 15 24.20214 23.9178681 32 28.7824886"></polyline>
                <polyline id="Fill-1137-Copy-2" transform="translate(179.000000, 70.675089) rotate(23.000000) translate(-179.000000, -70.675089) " points="191 72.7824886 181.833777 73.4311046 179.617873 82.3501783 176.167429 73.8325715 167 74.4823931 174.034711 68.5676898 170.585472 60.0500829 178.382127 64.9134978 185.416838 59 183.20214 67.9178681 191 72.7824886"></polyline>
                <polyline id="Fill-1138" points="11.483 74.108 7.098 73.94 5.581 78.059 4.387 73.834 0 73.665 3.648 71.224 2.454 67 5.902 69.715 9.551 67.274 8.034 71.393 11.483 74.108"></polyline>
                <polyline id="Fill-1138-Copy" points="82.483 23.108 78.098 22.94 76.581 27.059 75.387 22.834 71 22.665 74.648 20.224 73.454 16 76.902 18.715 80.551 16.274 79.034 20.393 82.483 23.108"></polyline>
                <polyline id="Fill-1138-Copy-2" transform="translate(172.241500, 128.047962) rotate(-15.000000) translate(-172.241500, -128.047962) " points="177.483 129.488998 173.479869 129.335628 172.094977 133.095924 171.004957 129.238859 167 129.084577 170.330313 126.856152 169.240293 123 172.388023 125.478564 175.719249 123.250139 174.334357 127.010434 177.483 129.488998"></polyline>
            </g>
        </g>
    </g>
</svg>