<?xml version="1.0" encoding="UTF-8"?>
<svg width="17px" height="17px" viewBox="0 0 17 17" version="1.1" xmlns="http://www.w3.org/2000/svg" xmlns:xlink="http://www.w3.org/1999/xlink">
    <!-- Generator: Sketch 64 (93537) - https://sketch.com -->
    <title>icon/edit</title>
    <desc>Created with Sketch.</desc>
    <g id="Symbols" stroke="none" stroke-width="1" fill="none" fill-rule="evenodd">
        <g id="candidate-list-for-account-manager" transform="translate(-1048.000000, -6.000000)" fill="#3F536E">
            <g id="icon/edit" transform="translate(1048.000000, 6.000000)">
                <g id="pencil">
                    <path d="M16.5238553,2.75501277 L14.2089617,0.438165957 C13.625717,-0.145585106 12.6110702,-0.146706383 12.0255468,0.439287234 L1.65525745,10.9119021 C1.60928511,10.9582723 1.57611702,11.0152404 1.55803191,11.0778149 L0.014793617,16.4838511 C-0.0236553191,16.6184766 0.0140340426,16.7636638 0.113140426,16.8628426 C0.186602128,16.9363766 0.284948936,16.975983 0.38593617,16.975983 C0.421346809,16.975983 0.457155319,16.9710638 0.491806383,16.9612617 L5.89321277,15.4166851 C5.95575106,15.3986 6.01264681,15.3653957 6.05898085,15.3193872 L16.5238553,4.93915106 C16.8154957,4.64729362 16.975983,4.25962128 16.975983,3.8471 C16.975983,3.43457872 16.8154957,3.04687021 16.5238553,2.75501277 Z M10.344283,3.24580638 L11.7644702,4.66599362 L4.34972128,12.0807787 L3.81758511,11.0161447 C3.75200851,10.8853894 3.61864894,10.8028851 3.47244894,10.8028851 L2.85458936,10.8028851 L10.344283,3.24580638 Z M0.947695745,16.0283596 L1.45024468,14.2691489 L2.70687021,15.5257745 L0.947695745,16.0283596 Z M5.40151489,14.756 L3.55556809,15.2833255 L1.69269362,13.4204511 L2.22001915,11.5745043 L3.23390638,11.5745043 L3.89889574,12.9045191 C3.93618723,12.9791383 3.99684468,13.0397957 4.07146383,13.0770872 L5.40151489,13.7420766 L5.40151489,14.756 L5.40151489,14.756 Z M6.17317021,14.121466 L6.17317021,13.5036064 C6.17317021,13.3574064 6.09066596,13.2240468 5.95991064,13.1584702 L4.8952766,12.626334 L12.3100255,5.21158511 L13.7302128,6.63177234 L6.17317021,14.121466 Z M15.9794213,4.4026383 L14.2782277,6.08864043 L10.8873787,2.69779149 L12.5722596,0.997755319 C12.8639,0.706114894 13.371766,0.706114894 13.6634064,0.997755319 L15.9783,3.31264894 C16.1241021,3.45845106 16.2043638,3.65210638 16.2043638,3.85820426 C16.2043638,4.06430213 16.1241021,4.25795745 15.9794213,4.4026383 Z" id="Shape" fill-rule="nonzero"></path>
                </g>
            </g>
        </g>
    </g>
</svg>