<?xml version="1.0" encoding="UTF-8"?>
<svg width="36px" height="36px" viewBox="0 0 36 36" version="1.1" xmlns="http://www.w3.org/2000/svg" xmlns:xlink="http://www.w3.org/1999/xlink">
    <!-- Generator: Sketch 63.1 (92452) - https://sketch.com -->
    <title>icon-message</title>
    <desc>Created with Sketch.</desc>
    <g id="icon-message" stroke="none" stroke-width="1" fill="none" fill-rule="evenodd">
        <path d="M27.99729,8 C29.7642276,8 31.200542,9.44173442 31.1951372,11.2086721 L31.1951372,11.2086721 L31.1951372,24.7317073 C31.1951372,26.498645 29.7588076,27.9349593 27.9918699,27.9349593 L27.9918699,27.9349593 L8.20325203,27.9349593 C6.43631436,27.9349593 5,26.498645 5,24.7317073 L5,24.7317073 L5,11.203252 C5,9.43631436 6.43631436,8 8.20325203,8 L8.20325203,8 Z M27.9918699,9.46883469 L8.20325203,9.46883469 C7.24390244,9.46883469 6.46341463,10.2493225 6.46341463,11.2086721 L6.46341463,11.2086721 L6.46341463,24.7317073 C6.46341463,25.6910569 7.24390244,26.4715447 8.20325203,26.4715447 L8.20325203,26.4715447 L27.99729,26.4715447 C28.9566396,26.4715447 29.7371274,25.6910569 29.7371274,24.7317073 L29.7371274,24.7317073 L29.7317073,24.7317073 L29.7317073,11.2086721 C29.7317073,10.2493225 28.9512195,9.46883469 27.9918699,9.46883469 L27.9918699,9.46883469 Z M8.20867209,11.0189702 C8.4796748,10.7154472 8.9403794,10.6883469 9.24390244,10.9593496 L9.24390244,10.9593496 L16.2574526,17.2357724 C16.300813,17.2682927 16.3387534,17.300813 16.3766938,17.3387534 C16.3766938,17.3441734 16.3821138,17.3495935 16.3875339,17.3550136 L16.3875339,17.3550136 L18.1111111,18.8943089 L26.9457995,10.9647696 C27.2493225,10.6937669 27.7100271,10.7208672 27.9810298,11.0189702 C28.2520325,11.3224932 28.2249322,11.7831978 27.9268293,12.0542005 L27.9268293,12.0542005 L21.5203252,17.799458 L27.9539295,23.9078591 C28.2466125,24.1842818 28.2574526,24.6504065 27.9810298,24.9430894 C27.8346883,25.0948509 27.6449864,25.1707317 27.4498645,25.1707317 C27.2710027,25.1707317 27.0867209,25.1056911 26.9457995,24.9701897 L26.9457995,24.9701897 L20.4308943,18.7804878 L18.604336,20.4173442 C18.4688347,20.5420054 18.2899729,20.6070461 18.1165312,20.6070461 C17.9430894,20.6070461 17.7696477,20.5474255 17.6287263,20.4227642 L17.6287263,20.4227642 L15.8509485,18.8346883 L9.29810298,24.9647696 C9.15718157,25.0948509 8.97831978,25.1598916 8.79945799,25.1598916 C8.60433604,25.1598916 8.40921409,25.0785908 8.26287263,24.9268293 C7.98644986,24.6287263 8.00271003,24.1680217 8.29539295,23.8915989 L8.29539295,23.8915989 L14.7506775,17.8482385 L8.26829268,12.0542005 C7.96476965,11.7831978 7.93766938,11.3224932 8.20867209,11.0189702 Z" id="Combined-Shape" fill="#788CA2" fill-rule="nonzero"></path>
    </g>
</svg>