<?xml version="1.0" encoding="UTF-8"?>
<svg width="24px" height="24px" viewBox="0 0 24 24" version="1.1" xmlns="http://www.w3.org/2000/svg" xmlns:xlink="http://www.w3.org/1999/xlink">
    <!-- Generator: Sketch 63.1 (92452) - https://sketch.com -->
    <title>Check</title>
    <desc>Created with Sketch.</desc>
    <g id="Check" stroke="none" stroke-width="1" fill="none" fill-rule="evenodd">
        <g id="Icons/CheckCircle/Selected">
            <rect id="Container" x="0" y="0" width="24" height="24"></rect>
            <circle id="Oval" fill="#FFFFFF" fill-rule="evenodd" cx="12" cy="12" r="10"></circle>
            <path d="M12,2 C6.48603299,2 2,6.48592865 2,12 C2,17.5140714 6.48603299,22.0001043 12,22.0001043 C17.513967,22.0001043 22,17.5140714 22,12 C22,6.48592865 17.5140714,2 12,2 Z M17.7421765,10.3109159 L11.4596851,16.5934073 C11.1925537,16.8605386 10.8374568,17.0075652 10.4597164,17.0075652 C10.0819759,17.0075652 9.72687905,16.8605386 9.45974769,16.5934073 L6.25782351,13.3914831 C5.99069214,13.1243517 5.84356119,12.7692548 5.84356119,12.3915144 C5.84356119,12.0136696 5.99069214,11.6585727 6.25782351,11.3914414 C6.52485052,11.12431 6.87994741,10.9771791 7.2577922,10.9771791 C7.63553265,10.9771791 7.99073388,11.12431 8.2577609,11.3915457 L10.459612,13.5932925 L15.7420304,8.31087412 C16.0091618,8.04374276 16.3642587,7.89671616 16.7419991,7.89671616 C17.1197395,7.89671616 17.4748364,8.04374276 17.7419678,8.31087412 C18.2935523,8.86245865 18.2935523,9.75954003 17.7421765,10.3109159 Z" id="Shape" fill="#0ABF53" fill-rule="nonzero"></path>
        </g>
    </g>
</svg>