<?xml version="1.0" encoding="UTF-8"?>
<svg width="15px" height="17px" viewBox="0 0 15 17" version="1.1" xmlns="http://www.w3.org/2000/svg" xmlns:xlink="http://www.w3.org/1999/xlink">
    <!-- Generator: Sketch 64 (93537) - https://sketch.com -->
    <title>icon/delete</title>
    <desc>Created with Sketch.</desc>
    <g id="Symbols" stroke="none" stroke-width="1" fill="none" fill-rule="evenodd">
        <g id="candidate-list-for-account-manager" transform="translate(-999.000000, -6.000000)" fill="#3F536E">
            <g id="icon/delete" transform="translate(999.000000, 6.000000)">
                <g id="bin" transform="translate(0.882353, 0.000000)">
                    <path d="M8.55105516,-5.23105521e-05 C8.96376213,-0.0034213993 9.36067243,0.161116803 9.65283398,0.456601288 C9.94499553,0.752241281 10.1081766,1.15410018 10.1058761,1.57259953 L10.1058761,1.57259953 L10.1058761,2.07025761 L12.1160397,2.07025761 C12.8693717,2.07041312 13.5056858,2.63696575 13.6032264,3.39433912 C13.7006136,4.15186804 13.2288608,4.86507429 12.5008341,5.06102716 L12.5008341,5.06102716 L12.5008341,14.8700234 C12.5008341,15.4497951 12.2911833,15.9942641 11.9249461,16.3849257 C11.5605493,16.7766759 11.0532157,16.9990669 10.5221105,17 L10.5221105,17 L3.09369188,17 C2.56274002,16.9990669 2.05540642,16.7766759 1.69085628,16.3849257 C1.32461911,15.9942641 1.11496829,15.4497951 1.11496829,14.8700234 L1.11496829,14.8700234 L1.11496829,5.06102716 C0.386941544,4.86507429 -0.0848111944,4.15186804 0.0125759636,3.39433912 C0.110116556,2.63696575 0.746430626,2.07041312 1.4997627,2.07025761 L1.4997627,2.07025761 L3.50992627,2.07025761 L3.50992627,1.57259953 C3.50762578,1.15410018 3.67080683,0.752241281 3.96296838,0.456601288 C4.25512994,0.161116803 4.65204024,-0.0034213993 5.06474721,-5.23105521e-05 L5.06474721,-5.23105521e-05 Z M11.715602,5.09601874 L1.90020042,5.09601874 L1.90020042,14.8700234 C1.90020042,15.6189988 2.42241044,16.2037471 3.09369188,16.2037471 L3.09369188,16.2037471 L10.5221105,16.2037471 C11.1933919,16.2037471 11.715602,15.6189988 11.715602,14.8700234 L11.715602,14.8700234 L11.715602,5.09601874 Z M9.12433597,6.15914081 C9.34119498,6.15914081 9.51695204,6.33736463 9.51695204,6.55726727 L9.51695204,6.55726727 L9.51695204,14.0818574 C9.51695204,14.3016046 9.34119498,14.4799839 9.12433597,14.4799839 C8.90747693,14.4799839 8.73171991,14.3016046 8.73171991,14.0818574 L8.73171991,14.0818574 L8.73171991,6.55726727 C8.73171991,6.33736463 8.90747693,6.15914081 9.12433597,6.15914081 Z M4.49146643,6.15914081 C4.70832544,6.15914081 4.88408249,6.33736463 4.88408249,6.55726727 L4.88408249,6.55726727 L4.88408249,14.0818574 C4.88408249,14.3016046 4.70832544,14.4799839 4.49146643,14.4799839 C4.27460738,14.4799839 4.09885037,14.3016046 4.09885037,14.0818574 L4.09885037,14.0818574 L4.09885037,6.55726727 C4.09885037,6.33736463 4.27460738,6.15914081 4.49146643,6.15914081 Z M6.8079012,6.15914081 C7.02476021,6.15914081 7.20051727,6.33736463 7.20051727,6.55726727 L7.20051727,6.55726727 L7.20051727,14.0818574 C7.20051727,14.3016046 7.02476021,14.4799839 6.8079012,14.4799839 C6.59104215,14.4799839 6.41528514,14.3016046 6.41528514,14.0818574 L6.41528514,14.0818574 L6.41528514,6.55726727 C6.41528514,6.33736463 6.59104215,6.15914081 6.8079012,6.15914081 Z M12.1160397,2.86651054 L1.4997627,2.86651054 C1.10944709,2.86651054 0.793053784,3.18734449 0.793053784,3.58313817 C0.793053784,3.97893185 1.10944709,4.29976581 1.4997627,4.29976581 L1.4997627,4.29976581 L12.1160397,4.29976581 C12.5063552,4.29976581 12.8227486,3.97893185 12.8227486,3.58313817 C12.8227486,3.18734449 12.5063552,2.86651054 12.1160397,2.86651054 L12.1160397,2.86651054 Z M8.55105516,0.796252927 L5.06474721,0.796252927 C4.86015741,0.792676 4.66292921,0.873078913 4.51799868,1.01942148 C4.37291476,1.16576405 4.29255116,1.36529385 4.2951584,1.57259953 L4.2951584,1.57259953 L4.2951584,2.07025761 L9.320644,2.07025761 L9.320644,1.57259953 C9.32325121,1.36529385 9.24288761,1.16560854 9.09780369,1.01942148 C8.95287316,0.873078913 8.75564491,0.792676 8.55105516,0.796252927 L8.55105516,0.796252927 Z" id="Combined-Shape" fill-rule="nonzero"></path>
                </g>
            </g>
        </g>
    </g>
</svg>