<?xml version="1.0" encoding="UTF-8"?>
<svg width="36px" height="36px" viewBox="0 0 36 36" version="1.1" xmlns="http://www.w3.org/2000/svg" xmlns:xlink="http://www.w3.org/1999/xlink">
    <!-- Generator: Sketch 63.1 (92452) - https://sketch.com -->
    <title>icon-bell</title>
    <desc>Created with Sketch.</desc>
    <g id="icon-bell" stroke="none" stroke-width="1" fill="none" fill-rule="evenodd">
        <path d="M29.4541982,27.0858916 C29.3652326,27.0281379 28.6956563,26.5590739 28.0251932,25.1400591 C26.7939223,22.5342266 26.5354789,18.8634089 26.5354789,16.2428571 C26.5354789,16.2314483 26.5352425,16.2201576 26.5348287,16.2088079 C26.52141,12.7454187 24.4475381,9.75984236 21.4798139,8.42027586 L21.4798139,6.37158621 C21.4798139,4.51247291 19.9698238,3 18.1137844,3 L17.8348287,3 C15.9787893,3 14.4687991,4.51247291 14.4687991,6.37158621 L14.4687991,8.42015764 C11.491144,9.76403941 9.41313412,12.764867 9.41313412,16.2428571 C9.41313412,18.8634089 9.15469077,22.5341675 7.92341983,25.1400591 C7.25301589,26.5590148 6.58343954,27.0280788 6.49441491,27.0858916 C6.11951836,27.2593892 5.93467106,27.6601773 6.02091737,28.0663448 C6.10799126,28.476532 6.49140013,28.75933 6.91009964,28.75933 L13.4094297,28.75933 C13.4457253,31.2504236 15.4788681,33.2660099 17.9743361,33.2660099 C20.4698041,33.2660099 22.5029469,31.2504236 22.5392425,28.75933 L29.0385725,28.75933 C29.4572129,28.75933 29.8406809,28.476532 29.9277548,28.0663448 C30.0138829,27.6601773 29.8290947,27.25933 29.4541982,27.0858916 Z M16.2422573,6.37158621 C16.2422573,5.49192118 16.9567006,4.77629557 17.8348878,4.77629557 L18.1138435,4.77629557 C18.9920307,4.77629557 19.706474,5.49192118 19.706474,6.37158621 L19.706474,7.84451232 C19.1467893,7.72882759 18.5674198,7.66794089 17.9740996,7.66794089 C17.3809568,7.66794089 16.8017647,7.72876847 16.2423164,7.84433498 L16.2423164,6.37158621 L16.2422573,6.37158621 Z M17.9743361,31.4897143 C16.4567203,31.4897143 15.2188287,30.2709754 15.1828287,28.7593892 L20.7657844,28.7593892 C20.7298435,30.2709163 19.4919519,31.4897143 17.9743361,31.4897143 L17.9743361,31.4897143 Z M21.5447794,26.9829754 C21.5446021,26.9829754 8.93088781,26.9829754 8.93088781,26.9829754 C9.08428683,26.7439212 9.24040505,26.4732414 9.39557747,26.16733 C10.5839913,23.8239015 11.1865922,20.4848276 11.1865922,16.2428571 C11.1865922,12.494069 14.2314592,9.44423645 17.9740405,9.44423645 C21.7166218,9.44423645 24.7614888,12.494069 24.7614888,16.2458128 C24.7614888,16.2567488 24.7616661,16.2676256 24.7620799,16.2785025 C24.7654494,20.5034483 25.3679913,23.8305222 26.5530947,26.16733 C26.7082671,26.4733005 26.8644445,26.7439212 27.0177844,26.9829754 L21.5447794,26.9829754 Z" id="Shape" fill="#778CA2" fill-rule="nonzero"></path>
    </g>
</svg>