<?xml version="1.0" encoding="UTF-8"?>
<svg width="36px" height="36px" viewBox="0 0 36 36" version="1.1" xmlns="http://www.w3.org/2000/svg" xmlns:xlink="http://www.w3.org/1999/xlink">
    <!-- Generator: Sketch 63.1 (92452) - https://sketch.com -->
    <title>icon-briefcase</title>
    <desc>Created with Sketch.</desc>
    <g id="icon-briefcase" stroke="none" stroke-width="1" fill="none" fill-rule="evenodd">
        <path d="M28.6315789,12.2105263 L23.8947368,12.2105263 L23.8947368,9.57894737 C23.8947368,8.70842105 23.1863158,8 22.3157895,8 L13.8947368,8 C13.0242105,8 12.3157895,8.70842105 12.3157895,9.57894737 L12.3157895,12.2105263 L7.57894737,12.2105263 C6.70842105,12.2105263 6,12.9189474 6,13.7894737 L6,26.4210526 C6,27.2915789 6.70842105,28 7.57894737,28 L28.6315789,28 C29.5021053,28 30.2105263,27.2915789 30.2105263,26.4210526 L30.2105263,13.7894737 C30.2105263,12.9189474 29.5021053,12.2105263 28.6315789,12.2105263 Z M13.3684211,9.57894737 C13.3684211,9.28842105 13.6042105,9.05263158 13.8947368,9.05263158 L22.3157895,9.05263158 C22.6057895,9.05263158 22.8421053,9.28842105 22.8421053,9.57894737 L22.8421053,12.2105263 L13.3684211,12.2105263 L13.3684211,9.57894737 Z M29.1578947,26.4210526 C29.1578947,26.7115789 28.9215789,26.9473684 28.6315789,26.9473684 L7.57894737,26.9473684 C7.28894737,26.9473684 7.05263158,26.7115789 7.05263158,26.4210526 L7.05263158,19.9178947 C7.92157895,20.9936842 9.24947368,21.6842105 10.7368421,21.6842105 L15.4736842,21.6842105 L15.4736842,23.2631579 C15.4736842,23.5542105 15.7094737,23.7894737 16,23.7894737 L20.2105263,23.7894737 C20.5010526,23.7894737 20.7368421,23.5542105 20.7368421,23.2631579 L20.7368421,21.6842105 L25.4736842,21.6842105 C26.9610526,21.6842105 28.2889474,20.9936842 29.1578947,19.9178947 L29.1578947,26.4210526 Z M16.5263158,22.7368421 L16.5263158,19.5789474 L19.6842105,19.5789474 L19.6842105,22.7368421 L16.5263158,22.7368421 Z M29.1578947,16.9473684 C29.1578947,18.9784211 27.5052632,20.6315789 25.4736842,20.6315789 L20.7368421,20.6315789 L20.7368421,19.0526316 C20.7368421,18.7615789 20.5010526,18.5263158 20.2105263,18.5263158 L16,18.5263158 C15.7094737,18.5263158 15.4736842,18.7615789 15.4736842,19.0526316 L15.4736842,20.6315789 L10.7368421,20.6315789 C8.70526316,20.6315789 7.05263158,18.9784211 7.05263158,16.9473684 L7.05263158,13.7894737 C7.05263158,13.4989474 7.28894737,13.2631579 7.57894737,13.2631579 L28.6315789,13.2631579 C28.9215789,13.2631579 29.1578947,13.4989474 29.1578947,13.7894737 L29.1578947,16.9473684 Z" id="Shape" stroke="#788CA2" stroke-width="0.3" fill="#778CA2" fill-rule="nonzero"></path>
    </g>
</svg>