<?xml version="1.0" encoding="UTF-8"?>
<svg width="18px" height="18px" viewBox="0 0 18 18" version="1.1" xmlns="http://www.w3.org/2000/svg" xmlns:xlink="http://www.w3.org/1999/xlink">
    <!-- Generator: Sketch 63.1 (92452) - https://sketch.com -->
    <title>icon-logout</title>
    <desc>Created with Sketch.</desc>
    <g id="icon-logout" stroke="none" stroke-width="1" fill="none" fill-rule="evenodd">
        <g id="logout(2)" transform="translate(1.000000, 1.000000)" fill="#778CA2" fill-rule="nonzero">
            <path d="M7.9734375,14.6445312 L1.99334375,14.6445312 C1.6265625,14.6445312 1.32890625,14.3468437 1.32890625,13.9800937 L1.32890625,2.0199375 C1.32890625,1.65315625 1.62659375,1.3555 1.99334375,1.3555 L7.9734375,1.3555 C8.340875,1.3555 8.637875,1.0585 8.637875,0.6910625 C8.637875,0.323625 8.340875,0.0265625 7.9734375,0.0265625 L1.99334375,0.0265625 C0.89434375,0.0265625 0,0.9209375 0,2.0199375 L0,13.9800625 C0,15.0790625 0.89434375,15.9734062 1.99334375,15.9734062 L7.9734375,15.9734062 C8.340875,15.9734062 8.637875,15.6764062 8.637875,15.3089687 C8.637875,14.9415313 8.340875,14.6445312 7.9734375,14.6445312 Z" id="Path"></path>
            <path d="M15.802,7.52690625 L11.762125,3.5401875 C11.5016562,3.282375 11.0804062,3.28571875 10.8225937,3.54684375 C10.5647812,3.80796875 10.5674375,4.2285625 10.82925,4.486375 L13.7162812,7.33553125 L5.9800625,7.33553125 C5.612625,7.33553125 5.315625,7.63253125 5.315625,7.99996875 C5.315625,8.36740625 5.612625,8.6644375 5.9800625,8.6644375 L13.7162812,8.6644375 L10.82925,11.5135937 C10.5674687,11.7714062 10.5654688,12.192 10.8225937,12.453125 C10.9528125,12.5846875 11.12425,12.651125 11.2956875,12.651125 C11.4644687,12.651125 11.6332187,12.5873437 11.762125,12.45975 L15.802,8.47303125 C15.92825,8.348125 16,8.178 16,7.9999375 C16,7.8219375 15.9289062,7.6525 15.802,7.52690625 Z" id="Path"></path>
        </g>
    </g>
</svg>