<?xml version="1.0" encoding="UTF-8"?>
<svg width="18px" height="18px" viewBox="0 0 18 18" version="1.1" xmlns="http://www.w3.org/2000/svg" xmlns:xlink="http://www.w3.org/1999/xlink">
    <!-- Generator: Sketch 63.1 (92452) - https://sketch.com -->
    <title>icon-cross-black</title>
    <desc>Created with Sketch.</desc>
    <g id="Page" stroke="none" stroke-width="1" fill="none" fill-rule="evenodd">
        <g id="06-HireDNA-Notification" transform="translate(-1403.000000, -20.000000)" fill="#000000">
            <g transform="translate(869.000000, 0.000000)" id="Group-24">
                <g transform="translate(0.000000, 14.000000)">
                    <g id="Group-23">
                        <g id="Group-21" transform="translate(20.000000, 0.000000)">
                            <g id="icon-cross-black" transform="translate(514.000000, 6.000000)">
                                <path d="M17.7363072,0.263692763 C17.3847169,-0.0878975876 16.8151861,-0.0878975876 16.4636801,0.263692763 L8.99995781,7.72741506 L1.53631989,0.263777138 C1.18472954,-0.0878132126 0.615198738,-0.0878132126 0.263692763,0.263777138 C-0.0878975876,0.615367488 -0.0878975876,1.18489829 0.263692763,1.53640427 L7.72733068,9.00004219 L0.263692763,16.4636801 C-0.0878975876,16.8152705 -0.0878975876,17.3848013 0.263692763,17.7363072 C0.43944575,17.9120602 0.66978932,17.9999789 0.900048516,17.9999789 C1.13030771,17.9999789 1.36056691,17.9120602 1.53640427,17.7363072 L8.99995781,10.2726693 L16.4635957,17.7363072 C16.6393487,17.9120602 16.8696923,17.9999789 17.0999515,17.9999789 C17.3302107,17.9999789 17.5604699,17.9120602 17.7363072,17.7363072 C18.0878976,17.3847169 18.0878976,16.8151861 17.7363072,16.4636801 L10.2725849,9.00004219 L17.7362229,1.53640427 C18.0878132,1.18481392 18.0878132,0.615283113 17.7363072,0.263692763 Z" id="Path"></path>
                            </g>
                        </g>
                    </g>
                </g>
            </g>
        </g>
    </g>
</svg>