<?xml version="1.0" encoding="utf-8"?>
<svg width="10px" height="10px" viewBox="0 0 10 10" version="1.1" xmlns:xlink="http://www.w3.org/1999/xlink" xmlns="http://www.w3.org/2000/svg">
  <desc>Created with Lunacy</desc>
  <g id="un-selected">
    <g id="Group-4">
      <path d="M5 10C7.76142 10 10 7.76142 10 5C10 2.23858 7.76142 0 5 0C2.23858 0 0 2.23858 0 5C0 7.76142 2.23858 10 5 10Z" id="Oval" fill="#FFFFFF" stroke="none" />
      <path d="M0 5C0 2.24296 2.24302 0 5 0C7.75704 0 10 2.24296 10 5C10 7.75704 7.75698 10.0001 5 10.0001C2.24302 10.0001 0 7.75704 0 5ZM4.72984 7.2967L7.87109 4.15546C8.14678 3.87977 8.14678 3.43123 7.87098 3.15544C7.73742 3.02187 7.55987 2.94836 7.371 2.94836C7.18213 2.94836 7.00458 3.02187 6.87102 3.15544L4.22981 5.79665L3.12888 4.69577C2.99537 4.56215 2.81777 4.48859 2.6289 4.48859C2.43997 4.48859 2.26243 4.56215 2.12891 4.69572C1.99535 4.82929 1.92178 5.00683 1.92178 5.19576C1.92178 5.38463 1.99535 5.56218 2.12891 5.69574L3.72987 7.2967C3.86344 7.43027 4.04099 7.50378 4.22986 7.50378C4.41873 7.50378 4.59628 7.43027 4.72984 7.2967Z" id="Shape" fill="#0ABF53" fill-rule="evenodd" stroke="none" />
    </g>
  </g>
</svg>