<?xml version="1.0" encoding="UTF-8"?>
<svg width="18px" height="18px" viewBox="0 0 18 18" version="1.1" xmlns="http://www.w3.org/2000/svg" xmlns:xlink="http://www.w3.org/1999/xlink">
    <!-- Generator: Sketch 63.1 (92452) - https://sketch.com -->
    <title>icon-check-circle-green</title>
    <desc>Created with Sketch.</desc>
    <g id="Recruiter" stroke="none" stroke-width="1" fill="none" fill-rule="evenodd">
        <path d="M9,-5.32907052e-15 C13.9625866,-5.32907052e-15 17.9996769,4.03741338 18,9 C18,13.9625866 13.9625866,18 9,18 C4.03741338,18 -5.32907052e-15,13.9625866 -5.32907052e-15,9 C-5.32907052e-15,4.03741338 4.03741338,-5.32907052e-15 9,-5.32907052e-15 Z M9,1.45028904 C4.83720513,1.45028904 1.45061219,4.83688198 1.45061219,8.99967685 C1.45061219,13.1627949 4.83720513,16.5493878 9,16.5493878 C13.1627949,16.5493878 16.5493878,13.1627949 16.5493878,9 C16.5493878,4.83720513 13.1627949,1.45028904 9,1.45028904 Z M11.8689096,6.130121 C12.1523105,5.84704319 12.6111809,5.84704319 12.8945819,6.130121 C13.1776597,6.41352196 13.1776597,6.87239237 12.8945819,7.15579333 L12.8945819,7.15579333 L8.18081936,11.8695559 C8.03928046,12.0114179 7.8537934,12.0821874 7.66830634,12.0821874 C7.48281929,12.0821874 7.29700908,12.0110948 7.15547018,11.8695559 L7.15547018,11.8695559 L5.10541812,9.81950379 C4.82201716,9.53642598 4.82201716,9.07723242 5.10541812,8.79415461 C5.38849592,8.51075365 5.84768949,8.51075365 6.1307673,8.79415461 L6.1307673,8.79415461 L7.6679832,10.3313705 Z" id="icon-check-circle-green" fill="#0ABF53"></path>
    </g>
</svg>