<?xml version="1.0" encoding="UTF-8"?>
<svg width="195px" height="177px" viewBox="0 0 195 177" version="1.1" xmlns="http://www.w3.org/2000/svg" xmlns:xlink="http://www.w3.org/1999/xlink">
    <!-- Generator: Sketch 63.1 (92452) - https://sketch.com -->
    <title>icon-congratulation-2</title>
    <desc>Created with Sketch.</desc>
    <g id="icon-congratulation-2" stroke="none" stroke-width="1" fill="none" fill-rule="evenodd">
        <g id="icon-congratulation" transform="translate(56.000000, 67.000000)" fill-rule="nonzero">
            <path d="M68.5940341,1.51298742 L42.811,27.295 L29.405956,13.8915809 C28.0554069,12.5401309 25.8641243,12.5401309 24.5134475,13.8917087 C23.1621056,15.2421498 23.1621056,17.4334324 24.5136832,18.7841092 L40.3644981,34.634924 C41.0219114,35.2923373 41.8999451,35.6484894 42.8106982,35.6484894 C43.7219443,35.6484894 44.6000461,35.2925471 45.2568985,34.6356947 L73.4864347,6.4061587 C74.8378551,5.05473806 74.8378551,2.86440806 73.4864347,1.51298742 C72.1357848,0.162337526 69.944684,0.162337526 68.5940341,1.51298742 Z" id="Path" fill="#0ABF53"></path>
            <g id="applaud" transform="translate(0.000000, 54.000000)">
                <path d="M80,43.924375 L75.665625,39.59 L75.665625,27.1425 C75.665625,23.7692187 74.325625,20.5342187 71.9403125,18.1490625 L61.16375,7.37234375 C60.79125,7.74484375 60.3107813,8.20453125 59.8003125,8.73125 C57.8757813,10.7170312 57.9059375,13.883125 59.8614063,15.8384375 L63.0723438,19.0492187 C64.1696875,20.1465625 64.1696875,21.925625 63.0723438,23.0229687 C61.975,24.1203125 60.1959375,24.1201562 59.09875,23.0229687 L42.3539063,6.278125 C41.9071875,5.83140625 41.22,5.7315625 40.6646875,6.03234375 L39.6534375,6.57109375 C36.366875,8.35625 34.0326563,11.4973437 33.2715625,15.1592187 L32.9153125,16.873125 C32.0429688,21.07 33.3432813,25.4239062 36.374375,28.455 L50.8554688,42.9360937 C52.5220313,44.6026562 54.6189063,45.7734375 56.9121875,46.3176562 L64.4126563,48.4707812 L75.665625,48.4707812 L75.665625,48.44375 L80,48.44375 L80,43.924375 Z" id="Path" fill="#D47F6C"></path>
                <path d="M30.4232812,17.3596875 C31.520625,16.2623438 31.520625,14.4832813 30.4232812,13.3860938 L27.2123437,10.1751563 C25.2570312,8.21984375 25.226875,5.05375 27.15125,3.06796875 C27.6617187,2.54125 28.1421875,2.0815625 28.5146875,1.7090625 L39.2914062,12.4857813 C41.6765625,14.8709375 43.0165625,18.1060938 43.0165625,21.4792188 L43.0165625,42.8076563 L31.7635937,42.8076563 L24.263125,40.6545313 C21.9698437,40.1103125 19.8729687,38.9395313 18.2064062,37.2729688 L3.7253125,22.791875 C0.694375,19.7607813 -0.6059375,15.406875 0.26640625,11.21 L0.62265625,9.49609375 C1.38375,5.834375 3.71796875,2.693125 7.00453125,0.90796875 L8.01578125,0.36921875 C8.57125,0.06828125 9.2584375,0.16828125 9.705,0.615 L26.4496875,17.3596875 C27.5470312,18.456875 29.3260937,18.456875 30.4232812,17.3596875 L30.4232812,17.3596875 Z" id="Path" fill="#E09380"></path>
                <polygon id="Path" fill="#07485E" points="80 55.0495312 80 41.5851562 75.66375 37.2489062 64.4389063 48.475625 71.0128125 55.0495312"></polygon>
                <path d="M27.1514062,3.0678125 C25.226875,5.05359375 25.2570312,8.2196875 27.2125,10.175 L30.4234375,13.3859375 C31.5207812,14.4832812 31.5207812,16.2623437 30.4234375,17.3595312 C29.3260937,18.456875 27.5470312,18.456875 26.4498437,17.3595312 L9.705,0.61484375 C9.25828125,0.168125 8.57109375,0.06828125 8.01578125,0.3690625 L7.00453125,0.9078125 C5.6,1.67078125 4.37015625,2.681875 3.36203125,3.87484375 L42.2945312,42.8073437 L43.0167187,42.8073437 L43.0167187,21.4789062 C43.0167187,18.105625 41.6767187,14.870625 39.2915625,12.4854687 L28.5148437,1.70875 C28.1421875,2.0815625 27.661875,2.54109375 27.1514062,3.0678125 Z" id="Path" fill="#FAA68E"></path>
                <path d="M59.7996875,8.73046875 C57.8751562,10.71625 57.9053125,13.8823438 59.8607812,15.8378125 L63.0717187,19.04875 C64.1690625,20.1460938 64.1690625,21.9251563 63.0717187,23.0223438 C61.974375,24.1196875 60.1953125,24.1196875 59.098125,23.0223438 L42.3532812,6.2775 C41.9065625,5.83078125 41.219375,5.7309375 40.6640625,6.03171875 L39.6528125,6.57046875 C38.2482812,7.3334375 37.0184375,8.34453125 36.0103125,9.5375 L74.9428125,48.47 L75.665,48.47 L75.665,27.1415625 C75.665,23.7682813 74.325,20.5332813 71.9398437,18.148125 L61.163125,7.37140625 C60.7904687,7.7440625 60.3101562,8.20375 59.7996875,8.73046875 Z" id="Path" fill="#E09380"></path>
                <polygon id="Path" fill="#09607D" points="66.5090625 55.0495313 43.0154688 31.5559375 31.76375 42.8076563 44.005625 55.0495313"></polygon>
                <polygon id="Path" fill="#0B799D" points="54.5364062 55.0495313 66.5090625 55.0495313 43.0154687 31.5559375 37.0290625 37.5421875"></polygon>
                <polygon id="Path" fill="#09607D" points="69.693125 43.2204687 80 53.5273437 80 41.5851562 75.66375 37.2489062"></polygon>
            </g>
        </g>
    </g>
</svg>