<?xml version="1.0" encoding="UTF-8"?>
<svg width="20px" height="20px" viewBox="0 0 20 20" version="1.1" xmlns="http://www.w3.org/2000/svg" xmlns:xlink="http://www.w3.org/1999/xlink">
    <!-- Generator: Sketch 64 (93537) - https://sketch.com -->
    <title>icon-close</title>
    <desc>Created with Sketch.</desc>
    <defs>
        <rect id="path-1" x="0" y="0" width="20" height="20"></rect>
    </defs>
    <g id="Page-1" stroke="none" stroke-width="1" fill="none" fill-rule="evenodd">
        <g id="Artboard" transform="translate(-12.000000, -14.000000)">
            <g id="icon-close" transform="translate(12.000000, 14.000000)">
                <mask id="mask-2" fill="white">
                    <use xlink:href="#path-1"></use>
                </mask>
                <g id="artboard_1"></g>
                <g id="close" mask="url(#mask-2)" fill="#000000">
                    <path d="M10,0 C4.48609,0 0,4.48609 0,10 C0,15.5139 4.48609,20 10,20 C15.5139,20 20,15.5139 20,10 C20,4.48609 15.5139,0 10,0 Z M10,19.1667 C4.94547,19.1667 0.83332,15.0545 0.83332,10 C0.83332,4.94547 4.94547,0.83332 10,0.83332 C15.0545,0.83332 19.1667,4.94547 19.1667,10 C19.1667,15.0545 15.0545,19.1667 10,19.1667 Z M13.4554,5.95539 C13.6182,5.79262 13.8818,5.79262 14.0446,5.95539 C14.2073,6.11816 14.2073,6.38184 14.0446,6.54461 L10.5892,10 L14.0446,13.4554 C14.2074,13.6181 14.2074,13.8818 14.0446,14.0446 C13.9632,14.1259 13.8566,14.1666 13.75,14.1666 C13.6434,14.1666 13.5368,14.1259 13.4554,14.0446 L10,10.5892 L6.54465,14.0446 C6.46324,14.1259 6.35664,14.1666 6.25004,14.1666 C6.14344,14.1666 6.0368,14.1259 5.95543,14.0446 C5.79266,13.8818 5.79266,13.6182 5.95543,13.4554 L9.41082,10 L5.95543,6.54461 C5.79266,6.38188 5.79266,6.1182 5.95543,5.95543 C6.11816,5.79266 6.38184,5.79266 6.54461,5.95543 L10,9.41082 L13.4554,5.95539 Z" id="Combined-Shape"></path>
                </g>
            </g>
        </g>
    </g>
</svg>