<?xml version="1.0" encoding="UTF-8"?>
<svg width="14px" height="20px" viewBox="0 0 14 20" version="1.1" xmlns="http://www.w3.org/2000/svg" xmlns:xlink="http://www.w3.org/1999/xlink">
    <!-- Generator: Sketch 63.1 (92452) - https://sketch.com -->
    <title>icon-lock-blue</title>
    <desc>Created with Sketch.</desc>
    <defs>
        <path d="M6.866,0 C10.002,0 12.542,2.542 12.542,5.674 C12.542,6.13721429 12.4843682,6.58540491 12.3768832,7.01364547 L12.7,7.014 C13.172,7.014 13.556,7.398 13.556,7.872 L13.556,7.872 L13.556,19.094 C13.556,19.568 13.172,19.952 12.7,19.952 L12.7,19.952 L0.856,19.952 C0.382,19.952 1.77635684e-15,19.568 1.77635684e-15,19.094 L1.77635684e-15,19.094 L1.77635684e-15,7.872 C1.77635684e-15,7.398 0.382,7.014 0.856,7.014 L0.856,7.014 L1.35711677,7.01364547 C1.24963176,6.58540491 1.192,6.13721429 1.192,5.674 C1.192,2.542 3.732,0 6.866,0 Z M6.866,10.414 C6.012,10.414 5.322,11.106 5.322,11.96 C5.322,12.54 5.654,13.026 6.126,13.29 L6.126,13.29 L6.126,16.554 L7.606,16.554 L7.606,13.29 C8.08,13.026 8.412,12.54 8.412,11.96 C8.412,11.106 7.72,10.414 6.866,10.414 Z M6.866,1.34 C4.472,1.34 2.532,3.28 2.532,5.674 C2.532,6.14267479 2.60719592,6.5929255 2.74594853,7.01423478 L10.9876191,7.01423478 C11.1265899,6.5929255 11.202,6.14267479 11.202,5.674 C11.202,3.28 9.26,1.34 6.866,1.34 Z" id="path-1"></path>
    </defs>
    <g id="Symbols" stroke="none" stroke-width="1" fill="none" fill-rule="evenodd">
        <g id="Icons/Lock" transform="translate(-5.000000, -2.000000)">
            <rect id="Container" x="0" y="0" width="24" height="24"></rect>
            <g id="Rectangle" stroke-width="1" fill-rule="evenodd" transform="translate(5.000000, 2.000000)">
                <mask id="mask-2" fill="white">
                    <use xlink:href="#path-1"></use>
                </mask>
                <use id="Mask" fill="#02295C" xlink:href="#path-1"></use>
                <rect fill="#02295C" mask="url(#mask-2)" x="-5" y="-2" width="24" height="24"></rect>
            </g>
        </g>
    </g>
</svg>