<svg xmlns="http://www.w3.org/2000/svg" width="18" height="18" viewBox="0 0 18 18">
    <g fill="none">
        <path fill="#FBBB00" d="M3.99 10.878l-.627 2.339-2.29.048C.388 11.995 0 10.543 0 9c0-1.492.363-2.9 1.006-4.139l2.04.374.893 2.026c-.187.545-.29 1.13-.29 1.739.001.66.12 1.294.34 1.878z"/>
        <path fill="#518EF8" d="M17.843 7.319C17.946 7.863 18 8.425 18 9c0 .644-.068 1.273-.197 1.88-.438 2.062-1.583 3.864-3.169 5.139v-.001l-2.568-.131-.363-2.269c1.052-.617 1.874-1.583 2.307-2.739H9.198V7.32h8.645z"/>
        <path fill="#28B446" d="M14.634 16.018C13.092 17.259 11.133 18 9 18c-3.427 0-6.407-1.916-7.927-4.735l2.916-2.387C4.75 12.906 6.706 14.35 9 14.35c.986 0 1.91-.266 2.702-.732l2.932 2.4z"/>
        <path fill="#F14336" d="M14.745 2.072l-2.916 2.387c-.82-.513-1.79-.81-2.829-.81-2.346 0-4.34 1.511-5.061 3.612l-2.932-2.4C2.503 1.973 5.521 0 9 0c2.184 0 4.186.778 5.745 2.072z"/>
    </g>
</svg>
