<?xml version="1.0" encoding="UTF-8"?>
<svg width="18px" height="18px" viewBox="0 0 18 18" version="1.1" xmlns="http://www.w3.org/2000/svg" xmlns:xlink="http://www.w3.org/1999/xlink">
    <!-- Generator: Sketch 63.1 (92452) - https://sketch.com -->
    <title>icon-user</title>
    <desc>Created with Sketch.</desc>
    <g id="icon-user" stroke="none" stroke-width="1" fill="none" fill-rule="evenodd">
        <path d="M5.78820093,8.32092581 C5.96404788,8.32092581 6.13411215,8.39307829 6.46228095,8.60690712 C6.66743573,8.74056657 6.90400115,8.89301984 7.16540597,9.06006132 C7.3906688,9.20384055 7.69649533,9.3385514 8.07368576,9.4603826 C8.44233354,9.57958526 8.81636973,9.6400409 9.18541179,9.6400409 C9.55471671,9.6400409 9.92875291,9.57958526 10.2971379,9.4603826 C10.6747225,9.33841999 10.9804176,9.20370913 11.2060748,9.05992991 C11.4699766,8.89131132 11.7064106,8.73885805 11.9085426,8.60703853 C12.2369743,8.3932097 12.4070385,8.32105723 12.5828855,8.32105723 C13.0306513,8.32105723 13.4492407,8.39675816 13.8269568,8.54618868 C14.2059871,8.69640769 14.5337617,8.90235104 14.8014749,9.15849885 C15.0574912,9.40334403 15.2856454,9.70089076 15.4797605,10.0425964 C15.6670415,10.3718166 15.8183119,10.7153621 15.9297605,11.0632448 C16.0375292,11.3998248 16.1275555,11.7680783 16.1974737,12.1576226 C16.2667348,12.5442757 16.313785,12.9104264 16.3370473,13.2460864 C16.3600467,13.5741238 16.371875,13.9164866 16.371875,14.2635806 C16.371875,15.1630549 16.0860251,15.8912821 15.5222109,16.4277599 C14.9653621,16.957535 14.2288551,17.2261682 13.3331922,17.2261682 L13.3331922,17.2261682 L5.03868282,17.2261682 C4.14275701,17.2261682 3.40625,16.957535 2.84953271,16.4277599 C2.28584989,15.8908879 2,15.1629235 2,14.263712 C2,13.9178008 2.01156542,13.5754381 2.03443343,13.2464807 C2.05769569,12.9100321 2.10461449,12.54375 2.17400701,12.1576226 C2.24392523,11.7680783 2.33395151,11.3999562 2.44158879,11.0633762 C2.55303738,10.7152307 2.70443925,10.3718166 2.89145737,10.0425964 C3.08544101,9.70102221 3.31359522,9.4036069 3.56961157,9.15863027 C3.83758763,8.90221963 4.16549357,8.69627628 4.54426111,8.54632009 C4.92184579,8.39675816 5.34030374,8.32092581 5.78820093,8.32092581 Z M12.6601636,9.33145442 C12.6248102,9.35024824 12.5618575,9.38625877 12.4598715,9.4526285 C12.252351,9.58799648 12.0198598,9.73782128 11.7492552,9.91077685 C11.4507886,10.1010806 11.0668954,10.2725905 10.6076957,10.4209696 C10.1389019,10.5725029 9.6603826,10.6495181 9.18554321,10.6495181 C8.71070385,10.6495181 8.232316,10.5725029 7.76325935,10.4208382 C7.30445385,10.272722 6.92042933,10.1010806 6.6223569,9.91103972 C6.35792933,9.7421583 6.11873541,9.58786506 5.91121495,9.4526285 C5.80922897,9.38612732 5.74627628,9.35024824 5.7109229,9.33145442 C5.4208674,9.33920852 5.15367991,9.39072721 4.91593167,9.48482768 C4.65886391,9.58655083 4.44069802,9.72218167 4.267611,9.88790888 C4.08256427,10.0650701 3.91486564,10.2849445 3.76911506,10.5412237 C3.61639896,10.8101197 3.49325349,11.0892669 3.40296438,11.371174 C3.30886391,11.6651723 3.2297459,11.9899241 3.16758178,12.3359667 C3.10462908,12.6863464 3.06217872,13.0160923 3.04141355,13.3162675 C3.02012265,13.6222255 3.00947721,13.9409317 3.00947721,14.263712 C3.00947721,14.884302 3.18479849,15.3530958 3.54556075,15.6965099 C3.91328857,16.0464953 4.4016647,16.216691 5.03868282,16.216691 L5.03868282,16.216691 L13.3330607,16.216691 C13.9699474,16.216691 14.4583236,16.0464953 14.8261828,15.6963785 C15.1869451,15.3530958 15.3622664,14.8844334 15.3623978,14.263712 C15.3622664,13.9400117 15.3514895,13.6214369 15.3300672,13.3166618 L15.3300672,13.3166618 L15.3104273,13.0861358 C15.2867461,12.8504883 15.2510149,12.5991129 15.203899,12.3358353 C15.1418662,11.9900555 15.0626168,11.6654352 14.9683849,11.3710426 C14.8782272,11.0893983 14.7549504,10.8101197 14.6021028,10.5413551 C14.4563522,10.2848131 14.2886536,10.0649387 14.1036069,9.88790888 C13.9305198,9.72231308 13.712354,9.58655083 13.4554176,9.48482768 C13.217538,9.39072721 12.9503505,9.33920852 12.6601636,9.33145442 Z M9.07724881,-3.37507799e-13 C10.2170999,-3.37507799e-13 11.2041034,0.40886391 12.0107915,1.21528914 C12.8174795,2.02210863 13.2263435,3.00911215 13.2263435,4.14883178 C13.2263435,5.28894569 12.8173481,6.27581776 12.0109229,7.08237441 C11.2042348,7.88906251 10.2172313,8.29792639 9.07724881,8.29792639 C7.93752919,8.29792639 6.9505257,7.88893106 6.14370618,7.08250582 C5.33714953,6.27594917 4.92815421,5.28894569 4.92815421,4.14883178 C4.92815421,3.00898073 5.33714953,2.02197721 6.14370618,1.21542056 C6.95026283,0.40886391 7.93713494,-3.37507799e-13 9.07724881,-3.37507799e-13 Z M9.07724881,1.00947721 C8.20248246,1.00947721 7.4764895,1.31030956 6.85760805,1.92919101 C6.23859522,2.54820385 5.93763142,3.27432825 5.93763142,4.14883178 C5.93763142,5.02359813 6.23859522,5.74972254 6.85760805,6.36860396 C7.47675234,6.98748541 8.20274533,7.28844917 9.07724881,7.28844917 C9.95188375,7.28844917 10.6780082,6.98761682 11.297021,6.36860396 C11.9159024,5.74959112 12.2168662,5.02359813 12.2168662,4.14883178 C12.2168662,3.27432825 11.9159024,2.54820385 11.297021,1.92919101 C10.6780082,1.31030956 9.95188375,1.00947721 9.07724881,1.00947721 Z" id="Combined-Shape" fill="#778CA2" fill-rule="nonzero"></path>
    </g>
</svg>