<?xml version="1.0" encoding="UTF-8"?>
<svg width="18px" height="18px" viewBox="0 0 18 18" version="1.1" xmlns="http://www.w3.org/2000/svg" xmlns:xlink="http://www.w3.org/1999/xlink">
    <!-- Generator: Sketch 63.1 (92452) - https://sketch.com -->
    <title>icon-status</title>
    <desc>Created with Sketch.</desc>
    <g id="icon-status" stroke="none" stroke-width="1" fill="none" fill-rule="evenodd">
        <g id="Group" transform="translate(0.000000, 1.000000)" fill="#778CA2" fill-rule="nonzero">
            <path d="M15.4,3.7 L2.6,3.7 C1.44020203,3.7 0.5,4.64020203 0.5,5.8 L0.5,13.8 C0.5,14.959798 1.44020203,15.9 2.6,15.9 L15.4,15.9 C16.559798,15.9 17.5,14.959798 17.5,13.8 L17.5,5.8 C17.5,4.64020203 16.559798,3.7 15.4,3.7 Z M2.6,4.7 L15.4,4.7 C16.0075132,4.7 16.5,5.19248678 16.5,5.8 L16.5,13.8 C16.5,14.4075132 16.0075132,14.9 15.4,14.9 L2.6,14.9 C1.99248678,14.9 1.5,14.4075132 1.5,13.8 L1.5,5.8 C1.5,5.19248678 1.99248678,4.7 2.6,4.7 Z" id="Rectangle"></path>
            <path d="M10.6,0.5 C11.7151904,0.5 12.6273519,1.36926962 12.6958685,2.46719269 L12.7,2.6 L12.7,15.4 C12.7,15.6761424 12.4761424,15.9 12.2,15.9 C11.9489615,15.9 11.7411335,15.7149937 11.7054213,15.4738863 L11.7,15.4 L11.7,2.6 C11.7,2.02822285 11.2637487,1.55833764 10.7059373,1.50503549 L10.6,1.5 L7.4,1.5 C6.82822285,1.5 6.35833764,1.93625126 6.30503549,2.49406266 L6.3,2.6 L6.3,15.4 C6.3,15.6761424 6.07614237,15.9 5.8,15.9 C5.54896148,15.9 5.34113349,15.7149937 5.30542128,15.4738863 L5.3,15.4 L5.3,2.6 C5.3,1.48480964 6.16926962,0.572648079 7.26719269,0.504131495 L7.4,0.5 L10.6,0.5 Z" id="Path"></path>
        </g>
    </g>
</svg>