<?xml version="1.0" encoding="UTF-8"?>
<svg width="24px" height="24px" viewBox="0 0 24 24" version="1.1" xmlns="http://www.w3.org/2000/svg" xmlns:xlink="http://www.w3.org/1999/xlink">
    <!-- Generator: Sketch 63.1 (92452) - https://sketch.com -->
    <title>Component/icon/ic_Calendar</title>
    <desc>Created with Sketch.</desc>
    <g id="Page" stroke="none" stroke-width="1" fill="none" fill-rule="evenodd">
        <g id="4.3---Complete-your-profile-work-experience" transform="translate(-1022.000000, -1014.000000)" fill="#92929D">
            <g id="Group-8" transform="translate(868.000000, 996.000000)">
                <g id="Component/icon/ic_Calendar" transform="translate(152.000000, 16.000000)">
                    <path d="M9.91090622,6.76666667 C9.8523717,7.35622098 9.35495728,7.81666667 8.75,7.81666667 C8.14504272,7.81666667 7.6476283,7.35622098 7.58909378,6.76666667 L4.66666667,6.76666667 L4.66666667,8.63333333 L23.3333333,8.63333333 L23.3333333,6.76666667 L21.4609062,6.76666667 C21.4023717,7.35622098 20.9049573,7.81666667 20.3,7.81666667 C19.6950427,7.81666667 19.1976283,7.35622098 19.1390938,6.76666667 L9.91090622,6.76666667 L9.91090622,6.76666667 Z M9.91090622,6.76666667 L19.1390938,6.76666667 L9.91090622,6.76666667 L9.91090622,6.76666667 Z M7.58333333,4.43333333 L7.58333333,3.5 C7.58333333,2.85566779 8.10566779,2.33333333 8.75,2.33333333 C9.39433221,2.33333333 9.91666667,2.85566779 9.91666667,3.5 L9.91666667,4.43333333 L19.1333333,4.43333333 L19.1333333,3.5 C19.1333333,2.85566779 19.6556678,2.33333333 20.3,2.33333333 C20.9443322,2.33333333 21.4666667,2.85566779 21.4666667,3.5 L21.4666667,4.43333333 L23.45,4.43333333 C24.6742312,4.43333333 25.6666667,5.4257688 25.6666667,6.65 L25.6666667,22.1666667 C25.6666667,24.0996633 24.0996633,25.6666667 22.1666667,25.6666667 L5.83333333,25.6666667 C3.90033671,25.6666667 2.33333333,24.0996633 2.33333333,22.1666667 L2.33333333,6.65 C2.33333333,5.4257688 3.3257688,4.43333333 4.55,4.43333333 L7.58333333,4.43333333 Z M23.3333333,10.9666667 L4.66666667,10.9666667 L4.66666667,22.1666667 C4.66666667,22.8109989 5.18900113,23.3333333 5.83333333,23.3333333 L22.1666667,23.3333333 C22.8109989,23.3333333 23.3333333,22.8109989 23.3333333,22.1666667 L23.3333333,10.9666667 L23.3333333,10.9666667 Z M7.7,15.1666667 C7.05566779,15.1666667 6.53333333,14.6443322 6.53333333,14 C6.53333333,13.3556678 7.05566779,12.8333333 7.7,12.8333333 L11.9,12.8333333 C12.5443322,12.8333333 13.0666667,13.3556678 13.0666667,14 C13.0666667,14.6443322 12.5443322,15.1666667 11.9,15.1666667 L7.7,15.1666667 Z M7.7,19.3666667 C7.05566779,19.3666667 6.53333333,18.8443322 6.53333333,18.2 C6.53333333,17.5556678 7.05566779,17.0333333 7.7,17.0333333 L16.1,17.0333333 C16.7443322,17.0333333 17.2666667,17.5556678 17.2666667,18.2 C17.2666667,18.8443322 16.7443322,19.3666667 16.1,19.3666667 L7.7,19.3666667 Z" id="Shape"></path>
                </g>
            </g>
        </g>
    </g>
</svg>