<svg xmlns="http://www.w3.org/2000/svg" width="18" height="17" viewBox="0 0 18 17">
    <g fill="none" fill-rule="evenodd">
        <path fill="#0077B7" fill-rule="nonzero" d="M4.015 6.487v11.4H.219v-11.4h3.796zm9.295-.264c1.312 0 2.366.435 3.164 1.306.797.87 1.196 2.145 1.196 3.825v6.534h-3.785V11.79c0-.806-.155-1.437-.465-1.893-.311-.456-.796-.684-1.456-.684-.483 0-.887.132-1.214.397-.326.264-.569.592-.73.983-.085.23-.127.541-.127.932v6.362H6.11c.013-2.678.02-4.912.022-6.703v-1.84C6.13 8.1 6.126 7.33 6.12 7.04l-.012-.553h3.785v1.621c.146-.23.296-.433.45-.608.16-.184.377-.383.649-.598.272-.215.606-.382 1-.5.396-.12.835-.179 1.318-.179zM2.14 1c.636 0 1.146.186 1.53.558.383.372.579.842.586 1.41.008.56-.186 1.027-.58 1.403-.395.375-.915.563-1.56.563h-.022c-.63 0-1.135-.188-1.519-.563C.192 3.995 0 3.527 0 2.967 0 2.4.197 1.93.592 1.558.988 1.186 1.503 1 2.14 1z" transform="translate(0 -1)"/>
    </g>
</svg>
