<?xml version="1.0" encoding="UTF-8"?>
<svg width="22px" height="20px" viewBox="0 0 22 20" version="1.1" xmlns="http://www.w3.org/2000/svg" xmlns:xlink="http://www.w3.org/1999/xlink">
    <!-- Generator: Sketch 63.1 (92452) - https://sketch.com -->
    <title>icon-check-circle-green-2</title>
    <desc>Created with Sketch.</desc>
    <g id="Recruiter" stroke="none" stroke-width="1" fill="none" fill-rule="evenodd">
        <g id="09-Recruiter-Success-Page" transform="translate(-200.000000, -167.000000)" fill="#0ABF53" fill-rule="nonzero" stroke="#0ABF53" stroke-width="0.5">
            <g id="icon-check-circle-green-2" transform="translate(201.000000, 168.000000)">
                <path d="M9.14884869,-4.52970994e-13 C10.9029301,-4.52970994e-13 12.6094968,0.499817251 14.0841252,1.4463024 C14.3736294,1.63270591 14.4584552,2.01860988 14.2720517,2.3088755 C14.085039,2.59914107 13.6998965,2.68305312 13.4096308,2.49680189 C12.1370919,1.67915448 10.6633772,1.24756333 9.14884869,1.24756333 C4.79227583,1.24756333 1.24756335,4.79227585 1.24756335,9.14884867 C1.24756335,13.5052693 4.79227583,17.0499817 9.14884869,17.0499817 C13.5052692,17.0499817 17.0499817,13.5052693 17.0499817,9.14884867 C17.0499817,8.88843203 17.0374939,8.63060427 17.013432,8.37704068 C16.9802327,8.03347343 17.2313596,7.72904481 17.5740132,7.69584552 C17.9183419,7.6641691 18.2218567,7.91377316 18.2552083,8.25642665 C18.2833821,8.55004263 18.2975451,8.84777047 18.2975451,9.14884867 C18.2975451,14.1931652 14.1931652,18.2975451 9.14884869,18.2975451 C4.10453216,18.2975451 -3.60600438e-13,14.1931652 -3.60600438e-13,9.14884867 C-3.60600438e-13,4.10453214 4.10453216,-4.52970994e-13 9.14884869,-4.52970994e-13 Z M19.7788743,1.01471125 C20.022539,1.25837596 20.022539,1.65341741 19.7788743,1.89708212 L10.6300256,11.0459308 C10.5077364,11.1673063 10.348136,11.2280702 10.1883833,11.2280702 C10.0287829,11.2280702 9.86903021,11.1673063 9.74765474,11.0451693 L6.00496468,7.30247928 C5.76129996,7.05866228 5.76129996,6.66362088 6.00496468,6.41995616 C6.2486294,6.17629144 6.6436708,6.17629144 6.88733552,6.41995616 L10.189297,9.72191764 L18.8963511,1.01471125 C19.1401681,0.77104653 19.5352096,0.77104653 19.7788743,1.01471125 Z" id="Combined-Shape"></path>
            </g>
        </g>
    </g>
</svg>