<?xml version="1.0" encoding="UTF-8"?>
<svg width="23px" height="14px" viewBox="0 0 23 14" version="1.1" xmlns="http://www.w3.org/2000/svg" xmlns:xlink="http://www.w3.org/1999/xlink">
    <!-- Generator: Sketch 64 (93537) - https://sketch.com -->
    <title>eye-view</title>
    <desc>Created with Sketch.</desc>
    <g id="Symbols" stroke="none" stroke-width="1" fill="none" fill-rule="evenodd">
        <g id="candidate-list-for-account-manager" transform="translate(-1099.000000, -8.000000)" fill="#3F536E">
            <g id="eye-view" transform="translate(1099.000000, 8.000000)">
                <g id="eye(2)">
                    <path d="M22.9144688,6.39563818 C22.7333438,6.13494629 18.3805938,0.0294150391 11.4997754,0.0294150391 C5.59546875,0.0294150391 0.33421875,6.09988818 0.11284375,6.35866943 C-0.0375996094,6.53498193 -0.0375996094,6.79376318 0.11284375,6.97100879 C0.33421875,7.22979004 5.59546875,13.3002632 11.4997754,13.3002632 C17.404082,13.3002632 22.6652871,7.22979004 22.8866621,6.97100879 C23.0256504,6.80798193 23.0380937,6.57195068 22.9144688,6.39563818 Z M11.4997754,12.3523613 C6.76658203,12.3523613 2.26621875,7.88767383 1.12295703,6.66486133 C2.26433203,5.44111572 6.75988867,0.977361328 11.4997754,0.977361328 C17.0379688,0.977361328 20.9470254,5.43542822 21.9015254,6.63926758 C20.7994121,7.82320068 16.2732188,12.3523613 11.4997754,12.3523613 Z" id="Shape" fill-rule="nonzero"></path>
                    <path d="M11.4997754,2.87316504 C9.38570703,2.87316504 7.66645703,4.57372754 7.66645703,6.66481689 C7.66645703,8.75590625 9.38570703,10.4564687 11.4997754,10.4564687 C13.6138438,10.4564687 15.3330937,8.75590625 15.3330937,6.66481689 C15.3330937,4.57372754 13.6138437,2.87316504 11.4997754,2.87316504 Z M11.4997754,9.50861133 C9.91470703,9.50861133 8.62477539,8.23270068 8.62477539,6.66486133 C8.62477539,5.09702197 9.91470703,3.82111133 11.4997754,3.82111133 C13.0848437,3.82111133 14.3747754,5.09702197 14.3747754,6.66486133 C14.3747754,8.23270068 13.0848437,9.50861133 11.4997754,9.50861133 Z" id="Shape" fill-rule="nonzero"></path>
                </g>
            </g>
        </g>
    </g>
</svg>