<?xml version="1.0" encoding="UTF-8"?>
<svg width="18px" height="18px" viewBox="0 0 18 18" version="1.1" xmlns="http://www.w3.org/2000/svg" xmlns:xlink="http://www.w3.org/1999/xlink">
    <!-- Generator: Sketch 63.1 (92452) - https://sketch.com -->
    <title>icon-edit</title>
    <desc>Created with Sketch.</desc>
    <g id="icon-edit" stroke="none" stroke-width="1" fill="none" fill-rule="evenodd">
        <path d="M14.6803998,4.94741339 L13.0440469,3.30967979 C12.6317627,2.89703761 11.9145287,2.896245 11.5006337,3.3104724 L4.17007942,10.7133586 C4.13758247,10.7461368 4.1141366,10.7864064 4.1013526,10.8306391 L3.01046769,14.6520601 C2.98328889,14.7472242 3.00993076,14.8498542 3.07998712,14.9199617 C3.13191576,14.9719415 3.20143519,14.9999385 3.27282109,14.9999385 C3.29785217,14.9999385 3.32316451,14.9964612 3.34765867,14.9895323 L7.16580697,13.8977014 C7.21001406,13.8849174 7.25023255,13.8614459 7.28298518,13.8289234 L14.6803998,6.49133794 C14.8865547,6.28502963 15,6.01099165 15,5.71938845 C15,5.42778524 14.8865547,5.1537217 14.6803998,4.94741339 Z M10.3121813,5.29434578 L11.3160838,6.2982483 L6.07474309,11.5396146 L5.69858646,10.7870456 C5.65223165,10.6946172 5.55796238,10.6362966 5.45461646,10.6362966 L5.01786364,10.6362966 L10.3121813,5.29434578 Z M3.66991792,14.3300821 L4.02515991,13.0865306 L4.91344387,13.9748145 L3.66991792,14.3300821 Z M6.81823538,13.430676 L5.51337176,13.8034321 L4.19654231,12.4866027 L4.5692984,11.1817391 L5.28599541,11.1817391 L5.75606335,12.1219005 C5.78242398,12.1746473 5.82530154,12.2175249 5.87804835,12.2438855 L6.81823538,12.7139535 L6.81823538,13.430676 L6.81823538,13.430676 Z M7.3637034,12.9821364 L7.3637034,12.5453835 C7.3637034,12.4420376 7.30538276,12.3477684 7.21295438,12.3014135 L6.46038545,11.9252569 L11.7017261,6.68391623 L12.7056287,7.68781874 L7.3637034,12.9821364 Z M14.2955501,6.11208758 L13.0930096,7.30388944 L10.696085,4.90696479 L11.8870942,3.70524254 C12.0932491,3.49908764 12.4522496,3.49908764 12.6584045,3.70524254 L14.2947575,5.34159547 C14.3978221,5.44466013 14.4545575,5.58155128 14.4545575,5.72723783 C14.4545575,5.87292437 14.3978221,6.00981552 14.2955501,6.11208758 Z" id="Shape" fill="#C3C3C3" fill-rule="nonzero"></path>
    </g>
</svg>