<?xml version="1.0" encoding="UTF-8"?>
<svg width="20px" height="20px" viewBox="0 0 20 20" version="1.1" xmlns="http://www.w3.org/2000/svg" xmlns:xlink="http://www.w3.org/1999/xlink">
    <!-- Generator: Sketch 63.1 (92452) - https://sketch.com -->
    <title>icon-radio-checked</title>
    <desc>Created with Sketch.</desc>
    <g id="Recruiter" stroke="none" stroke-width="1" fill="none" fill-rule="evenodd">
        <g id="03-Recruiter-Describe-your-status-step-1" transform="translate(-572.000000, -547.000000)">
            <g id="Group" transform="translate(282.000000, 537.000000)">
                <g id="tick" transform="translate(290.000000, 10.000000)">
                    <g id="Group-4">
                        <circle id="Oval" fill="#FFFFFF" cx="10" cy="10" r="10"></circle>
                        <path d="M10,0 C4.48603299,0 0,4.48592865 0,10 C0,15.5140714 4.48603299,20.0001043 10,20.0001043 C15.513967,20.0001043 20,15.5140714 20,10 C20,4.48592865 15.5140714,0 10,0 Z M15.7421765,8.31091586 L9.45968508,14.5934073 C9.19255371,14.8605386 8.83745683,15.0075652 8.45971638,15.0075652 C8.08197594,15.0075652 7.72687905,14.8605386 7.45974769,14.5934073 L4.25782351,11.3914831 C3.99069214,11.1243517 3.84356119,10.7692548 3.84356119,10.3915144 C3.84356119,10.0136696 3.99069214,9.65857273 4.25782351,9.39144136 C4.52485052,9.12431 4.87994741,8.97717905 5.2577922,8.97717905 C5.63553265,8.97717905 5.99073388,9.12431 6.2577609,9.39154571 L8.45961203,11.5932925 L13.7420304,6.31087412 C14.0091618,6.04374276 14.3642587,5.89671616 14.7419991,5.89671616 C15.1197395,5.89671616 15.4748364,6.04374276 15.7419678,6.31087412 C16.2935523,6.86245865 16.2935523,7.75954003 15.7421765,8.31091586 Z" id="Shape" fill="#0ABF53" fill-rule="nonzero"></path>
                    </g>
                </g>
            </g>
        </g>
    </g>
</svg>