<?xml version="1.0" encoding="UTF-8"?>
<svg width="28px" height="28px" viewBox="0 0 28 28" version="1.1" xmlns="http://www.w3.org/2000/svg" xmlns:xlink="http://www.w3.org/1999/xlink">
    <!-- Generator: Sketch 63.1 (92452) - https://sketch.com -->
    <title>notification-thumb</title>
    <desc>Created with Sketch.</desc>
    <defs>
        <ellipse id="path-1" cx="13.622449" cy="14" rx="13.622449" ry="14"></ellipse>
    </defs>
    <g id="Page" stroke="none" stroke-width="1" fill="none" fill-rule="evenodd">
        <g id="06-HireDNA-Notification" transform="translate(-922.000000, -169.000000)">
            <g id="notification-thumb" transform="translate(922.000000, 169.000000)">
                <mask id="mask-2" fill="white">
                    <use xlink:href="#path-1"></use>
                </mask>
                <use id="Mask" fill="#5D6970" xlink:href="#path-1"></use>
                <g id="photo" transform="translate(7.500000, 8.000000)" fill="#FFFFFF" fill-rule="nonzero">
                    <path d="M10.5,0 L1.5,0 C0.672729527,0 0,0.672729527 0,1.5 L0,10.5 C0,11.327271 0.672729527,12 1.5,12 L10.5,12 C11.327271,12 12,11.327271 12,10.5 L12,1.5 C12,0.672729527 11.327271,0 10.5,0 Z M1.50000004,1.00000004 L10.5,1.00000004 C10.7757573,1.00000004 11,1.2242432 11,1.50000004 L11,5.04296895 L9.353516,3.39648451 C9.15820349,3.20129406 8.84179723,3.20129406 8.64648472,3.39648451 L5.1250002,6.91796902 L3.85351578,5.6464846 C3.65820327,5.45129415 3.34179701,5.45129415 3.1464845,5.6464846 L1.00000004,7.79296906 L1.00000004,1.50000004 C1.00000004,1.2242432 1.2242432,1.00000004 1.50000004,1.00000004 Z M10.5,11.0000004 L1.50000004,11.0000004 C1.2242432,11.0000004 1.00000004,10.7757573 1.00000004,10.5000004 L1.00000004,9.20703162 L3.50000004,6.70703152 L6.39648463,9.60327188 C6.49426295,9.70129432 6.62194851,9.75000039 6.75000027,9.75000039 C6.87805202,9.75000039 7.00573759,9.70129432 7.10351591,9.60351601 C7.29870635,9.4082035 7.29870635,9.09179724 7.10351591,8.89648473 L5.83203148,7.6250003 L9.00000004,4.45727555 L11,6.45727555 L11,10.5000004 C11,10.7757573 10.7757573,11.0000004 10.5,11.0000004 Z" id="Shape"></path>
                    <path d="M4.80000019,3.60000014 C4.80000019,4.26269548 4.26269548,4.80000019 3.60000014,4.80000019 C2.9373048,4.80000019 2.4000001,4.26269548 2.4000001,3.60000014 C2.4000001,2.9373048 2.9373048,2.4000001 3.60000014,2.4000001 C4.26269548,2.4000001 4.80000019,2.9373048 4.80000019,3.60000014 Z" id="Path"></path>
                </g>
            </g>
        </g>
    </g>
</svg>