<?xml version="1.0" encoding="UTF-8"?>
<svg width="28px" height="26px" viewBox="0 0 28 26" version="1.1" xmlns="http://www.w3.org/2000/svg" xmlns:xlink="http://www.w3.org/1999/xlink">
    <!-- Generator: Sketch 63.1 (92452) - https://sketch.com -->
    <title>Combined Shape</title>
    <desc>Created with Sketch.</desc>
    <g id="Page-1" stroke="none" stroke-width="1" fill="none" fill-rule="evenodd">
        <g id="07-Account-Manager-Candidate-Profile-Notification-hired" transform="translate(-423.000000, -99.000000)" fill="#0ABF53" fill-rule="nonzero" stroke="#0ABF53" stroke-width="0.5">
            <g id="Group-22" transform="translate(424.000000, 100.000000)">
                <path d="M12.0000999,1.77635684e-15 C14.3008431,1.77635684e-15 16.5392638,0.65558598 18.4734621,1.89704451 C18.8531906,2.14154093 18.9644525,2.64771241 18.719956,3.0284397 C18.4746606,3.40916694 17.9694879,3.51923029 17.5887606,3.27493361 C15.9196331,2.20246527 13.9866333,1.63636815 12.0000999,1.63636815 C6.28579513,1.63636815 1.63636818,6.28579516 1.63636818,12.0000999 C1.63636818,17.7142049 6.28579513,22.3636318 12.0000999,22.3636318 C17.7142048,22.3636318 22.3636318,17.7142049 22.3636318,12.0000999 C22.3636318,11.658524 22.3472522,11.3203439 22.3156913,10.9877568 C22.2721454,10.5371164 22.6015364,10.1378122 23.0509784,10.0942663 C23.5026176,10.0527179 23.9007233,10.3801114 23.944469,10.8295533 C23.9814231,11.2146751 24,11.6051902 24,12.0000999 C24,18.6164845 18.6164845,24 12.0000999,24 C5.38371522,24 -4.4408921e-14,18.6164845 -4.4408921e-14,12.0000999 C-4.4408921e-14,5.38371519 5.38371522,1.77635684e-15 12.0000999,1.77635684e-15 Z M25.9429874,1.33094739 C26.2625906,1.65055055 26.2625906,2.1687072 25.9429874,2.48831036 L13.9428876,14.4884102 C13.7824868,14.6476126 13.5731467,14.7273136 13.3636068,14.7273136 C13.1542668,14.7273136 12.944727,14.6476126 12.7855246,14.4874114 L7.87642012,9.57830692 C7.55681696,9.25850402 7.55681696,8.74034742 7.87642012,8.42074426 C8.19602328,8.1011411 8.71417988,8.1011411 9.03378304,8.42074426 L13.3648054,12.7517665 L24.7854247,1.33094739 C25.1052276,1.01134423 25.6233843,1.01134423 25.9429874,1.33094739 Z" id="Combined-Shape"></path>
            </g>
        </g>
    </g>
</svg>