<?xml version="1.0" encoding="UTF-8"?>
<svg width="85px" height="85px" viewBox="0 0 85 85" version="1.1" xmlns="http://www.w3.org/2000/svg" xmlns:xlink="http://www.w3.org/1999/xlink">
    <!-- Generator: Sketch 63.1 (92452) - https://sketch.com -->
    <title>Group 7</title>
    <desc>Created with Sketch.</desc>
    <g id="Employer-Module" stroke="none" stroke-width="1" fill="none" fill-rule="evenodd">
        <g id="9.3-Employer-Candidate-Information" transform="translate(-678.000000, -336.000000)" fill="#0077B7">
            <g id="Schedule-and-interview" transform="translate(401.000000, 225.000000)">
                <g id="Group-7" transform="translate(277.000000, 111.000000)">
                    <path d="M42.5,85 C19.06456,85 0,65.93544 0,42.5 C0,19.06456 19.06456,0 42.5,0 C65.93544,0 85,19.06456 85,42.5 C85,65.93544 65.93544,85 42.5,85 Z M42.5,5.3125 C21.9938279,5.3125 5.3125,21.9938279 5.3125,42.5 C5.3125,63.0061721 21.9938279,79.6875 42.5,79.6875 C63.0061721,79.6875 79.6875,63.0061721 79.6875,42.5 C79.6875,21.9938279 63.0061721,5.3125 42.5,5.3125 Z" id="Icon/Request-Deny"></path>
                    <path d="M36.6911125,33.08 C36.6008021,33.8885316 35.8333627,34.52 34.9,34.52 C33.9666373,34.52 33.1991979,33.8885316 33.1088875,33.08 L28.6,33.08 L28.6,35.64 L57.4,35.64 L57.4,33.08 L54.5111125,33.08 C54.4208021,33.8885316 53.6533627,34.52 52.72,34.52 C51.7866373,34.52 51.0191979,33.8885316 50.9288875,33.08 L36.6911125,33.08 L36.6911125,33.08 Z M36.6911125,33.08 L50.9288875,33.08 L36.6911125,33.08 L36.6911125,33.08 Z M33.1,29.88 L33.1,28.6 C33.1,27.7163444 33.9058875,27 34.9,27 C35.8941125,27 36.7,27.7163444 36.7,28.6 L36.7,29.88 L50.92,29.88 L50.92,28.6 C50.92,27.7163444 51.7258875,27 52.72,27 C53.7141125,27 54.52,27.7163444 54.52,28.6 L54.52,29.88 L57.58,29.88 C59.4688138,29.88 61,31.2410544 61,32.92 L61,54.2 C61,56.8509668 58.5823376,59 55.6,59 L30.4,59 C27.4176624,59 25,56.8509668 25,54.2 L25,32.92 C25,31.2410544 26.5311862,29.88 28.42,29.88 L33.1,29.88 Z M57.4,38.84 L28.6,38.84 L28.6,54.2 C28.6,55.0836556 29.4058875,55.8 30.4,55.8 L55.6,55.8 C56.5941125,55.8 57.4,55.0836556 57.4,54.2 L57.4,38.84 L57.4,38.84 Z M33.28,44.6 C32.2858875,44.6 31.48,43.8836556 31.48,43 C31.48,42.1163444 32.2858875,41.4 33.28,41.4 L39.76,41.4 C40.7541125,41.4 41.56,42.1163444 41.56,43 C41.56,43.8836556 40.7541125,44.6 39.76,44.6 L33.28,44.6 Z M33.28,50.36 C32.2858875,50.36 31.48,49.6436556 31.48,48.76 C31.48,47.8763444 32.2858875,47.16 33.28,47.16 L46.24,47.16 C47.2341125,47.16 48.04,47.8763444 48.04,48.76 C48.04,49.6436556 47.2341125,50.36 46.24,50.36 L33.28,50.36 Z" id="Shape"></path>
                </g>
            </g>
        </g>
    </g>
</svg>