<?xml version="1.0" encoding="UTF-8"?>
<svg width="24px" height="24px" viewBox="0 0 24 24" version="1.1" xmlns="http://www.w3.org/2000/svg" xmlns:xlink="http://www.w3.org/1999/xlink">
    <!-- Generator: Sketch 63.1 (92452) - https://sketch.com -->
    <title>tick mark without/white bg </title>
    <desc>Created with Sketch.</desc>
    <g id="tick-mark-without/white-bg-" stroke="none" stroke-width="1" fill="none" fill-rule="evenodd">
        <g id="Group-2" transform="translate(2.000000, 22.000000)">
            <g id="correct-icon"></g>
        </g>
        <path d="M12,2 C17.522955,2 22,6.47738866 22,12 C22,17.523296 17.523296,22 12,22 C6.47670404,22 2,17.523296 2,12 C2,6.47738866 6.47704503,2 12,2 Z M12,3.53846154 C7.32674031,3.53846154 3.53846154,7.32703107 3.53846154,12 C3.53846154,16.6736271 7.32637288,20.4615385 12,20.4615385 C16.6736271,20.4615385 20.4615385,16.6736271 20.4615385,12 C20.4615385,7.32703107 16.6732597,3.53846154 12,3.53846154 Z M16.6464924,9.40478966 C16.9195863,9.67788357 16.944413,10.1052309 16.7209726,10.4063709 L16.6464924,10.4926462 L11.5182873,15.6208514 C11.4090497,15.7300889 11.2751316,15.7996037 11.1344824,15.8293958 L11.0280139,15.8442918 L10.920704,15.8442918 C10.7778112,15.8343612 10.637162,15.7847077 10.516706,15.6953315 L10.4304307,15.6208514 L7.3535076,12.5439283 C7.0531043,12.243525 7.0531043,11.756475 7.3535076,11.4560717 C7.62660151,11.1829778 8.05394888,11.1581511 8.35508887,11.3815915 L8.44136419,11.4560717 L10.9742051,13.9884872 L15.5586358,9.40478966 C15.8590391,9.10438635 16.3460891,9.10438635 16.6464924,9.40478966 Z" id="Shape" fill="#0077B7"></path>
    </g>
</svg>