<?xml version="1.0" encoding="UTF-8"?>
<svg width="70px" height="85px" viewBox="0 0 70 85" version="1.1" xmlns="http://www.w3.org/2000/svg" xmlns:xlink="http://www.w3.org/1999/xlink">
    <!-- Generator: Sketch 63.1 (92452) - https://sketch.com -->
    <title>close</title>
    <desc>Created with Sketch.</desc>
    <g id="Page" stroke="none" stroke-width="1" fill="none" fill-rule="evenodd">
        <g id="05-Account-Manager-Delete-Recruiter" transform="translate(-686.000000, -343.000000)" fill="#3F536E">
            <g id="Group-8">
                <g id="Group-4" transform="translate(401.000000, 232.000000)">
                    <g id="Group-3">
                        <g id="icon/delete" transform="translate(285.000000, 111.000000)">
                            <g id="bin" transform="translate(-0.000000, 0.000000)">
                                <path d="M43.3553498,-0.00026155276 C45.4478466,-0.0171069965 47.4602514,0.805584016 48.9415618,2.28300644 C50.4228721,3.76120641 51.2502287,5.7705009 51.2385649,7.86299766 L51.2385649,7.86299766 L51.2385649,10.3512881 L61.4304467,10.3512881 C65.2499725,10.3520656 68.4761967,13.1848287 68.9707442,16.9716956 C69.4645144,20.7593402 67.0726452,24.3253715 63.3814221,25.3051358 L63.3814221,25.3051358 L63.3814221,74.3501171 C63.3814221,77.2489754 62.3184555,79.9713206 60.4615688,81.9246285 C58.6140131,83.8833797 56.041743,84.9953344 53.3489461,85 L53.3489461,85 L15.6855606,85 C12.9935415,84.9953344 10.4212711,83.8833797 8.57293796,81.9246285 C6.71605125,79.9713206 5.65308485,77.2489754 5.65308485,74.3501171 L5.65308485,74.3501171 L5.65308485,25.3051358 C1.96186151,24.3253715 -0.430007635,20.7593402 0.0637623419,16.9716956 C0.558310258,13.1848287 3.78453423,10.3520656 7.60405999,10.3512881 L7.60405999,10.3512881 L17.795942,10.3512881 L17.795942,7.86299766 C17.7842781,5.7705009 18.6116346,3.76120641 20.092945,2.28300644 C21.5742553,0.805584016 23.5866602,-0.0171069965 25.6791569,-0.00026155276 L25.6791569,-0.00026155276 Z M59.4001574,25.4800937 L9.63434948,25.4800937 L9.63434948,74.3501171 C9.63434948,78.0949941 12.2820459,81.0187354 15.6855606,81.0187354 L15.6855606,81.0187354 L53.3489461,81.0187354 C56.7524608,81.0187354 59.4001574,78.0949941 59.4001574,74.3501171 L59.4001574,74.3501171 L59.4001574,25.4800937 Z M46.2619841,30.795704 C47.3614974,30.795704 48.2526165,31.6868231 48.2526165,32.7863364 L48.2526165,32.7863364 L48.2526165,70.4092872 C48.2526165,71.5080229 47.3614974,72.3999195 46.2619841,72.3999195 C45.1624707,72.3999195 44.2713518,71.5080229 44.2713518,70.4092872 L44.2713518,70.4092872 L44.2713518,32.7863364 C44.2713518,31.6868231 45.1624707,30.795704 46.2619841,30.795704 Z M22.7725228,30.795704 C23.872036,30.795704 24.7631551,31.6868231 24.7631551,32.7863364 L24.7631551,32.7863364 L24.7631551,70.4092872 C24.7631551,71.5080229 23.872036,72.3999195 22.7725228,72.3999195 C21.6730094,72.3999195 20.7818905,71.5080229 20.7818905,70.4092872 L20.7818905,70.4092872 L20.7818905,32.7863364 C20.7818905,31.6868231 21.6730094,30.795704 22.7725228,30.795704 Z M34.5172535,30.795704 C35.6167667,30.795704 36.5078858,31.6868231 36.5078858,32.7863364 L36.5078858,32.7863364 L36.5078858,70.4092872 C36.5078858,71.5080229 35.6167667,72.3999195 34.5172535,72.3999195 C33.41774,72.3999195 32.5266211,71.5080229 32.5266211,70.4092872 L32.5266211,70.4092872 L32.5266211,32.7863364 C32.5266211,31.6868231 33.41774,30.795704 34.5172535,30.795704 Z M61.4304467,14.3325527 L7.60405999,14.3325527 C5.62509138,14.3325527 4.02092181,15.9367225 4.02092181,17.9156909 C4.02092181,19.8946593 5.62509138,21.498829 7.60405999,21.498829 L7.60405999,21.498829 L61.4304467,21.498829 C63.4094152,21.498829 65.0135849,19.8946593 65.0135849,17.9156909 C65.0135849,15.9367225 63.4094152,14.3325527 61.4304467,14.3325527 L61.4304467,14.3325527 Z M43.3553498,3.98126464 L25.6791569,3.98126464 C24.6418507,3.96338 23.6418691,4.36539457 22.9070459,5.09710741 C22.171445,5.82882026 21.7639874,6.82646924 21.7772066,7.86299766 L21.7772066,7.86299766 L21.7772066,10.3512881 L47.2573003,10.3512881 L47.2573003,7.86299766 C47.2705193,6.82646924 46.8630617,5.82804272 46.1274608,5.09710741 C45.3926376,4.36539457 44.3926558,3.96338 43.3553498,3.98126464 L43.3553498,3.98126464 Z" id="Combined-Shape" fill-rule="nonzero"></path>
                            </g>
                        </g>
                    </g>
                </g>
            </g>
        </g>
    </g>
</svg>