<?xml version="1.0" encoding="UTF-8"?>
<svg width="615px" height="376px" viewBox="0 0 615 376" version="1.1" xmlns="http://www.w3.org/2000/svg" xmlns:xlink="http://www.w3.org/1999/xlink">
    <!-- Generator: Sketch 63.1 (92452) - https://sketch.com -->
    <title>Group 2</title>
    <desc>Created with Sketch.</desc>
    <defs>
        <ellipse id="path-1" cx="18.2355475" cy="18.2745455" rx="18.1832398" ry="18.2658909"></ellipse>
        <path d="M14.3152941,4.41825455 L14.3152941,5.94945455 C14.9929412,5.77934545 16.3478733,5.74530909 16.3478733,6.97029091 C16.3478733,8.50149091 15.3317647,9.52232727 14.3152941,9.01189091 C14.1835294,10.6027636 13.3317647,13.7432 10.7984072,15.0523636 C10.8893032,16.2518545 11.1546063,17.9737091 11.7749502,19.2200364 C12.5879095,20.8533455 14.1462443,21.6019273 14.8235294,21.7720727 C13.8074208,22.9629091 10.9620271,25.3450909 7.71019005,25.3450909 C4.45835294,25.3450909 1.95174661,22.9629091 1.10494118,21.7720727 C1.61303167,21.6019273 2.93408145,20.9554182 4.15352036,19.7304364 C5.11341176,18.7661455 5.29672398,16.4734909 5.24865158,14.7944364 C3.13708597,13.3676364 2.49299548,10.5062182 2.12112217,9.01189091 C1.44365611,9.18203636 0.0887239819,9.114 0.0887239819,7.48069091 C0.0887239819,5.84738182 1.61303167,5.77934545 2.12112217,5.94945455 L2.12112217,4.41825455 C3.13730317,4.5884 5.77940271,4.52032727 8.21828054,2.88701818 C10.6571584,1.25370909 11.2668597,0.505127273 11.2668597,0.334981818 C11.2668597,1.18567273 11.640362,2.75181818 12.2830769,3.39741818 C13.2991855,4.41825455 13.9768326,4.24810909 14.3152941,4.41825455 Z" id="path-3"></path>
        <path d="M15.2052,12.6559733 L17.45532,1.49242245 L63.162,0.120832276 L65.985,21.6266849 C66.8382,28.1247393 67.1136,34.6859377 66.8082,41.2328234 L60.699,172.118399 L44.55084,172.118399 L41.26656,40.9941994 L17.45532,172.118399 L0.2127,172.118399 L13.6236,46.2062218 L13.50102,44.895654 C12.49344,34.1234152 13.06758,23.2612114 15.2052,12.6559733 Z" id="path-5"></path>
        <linearGradient x1="74.6760207%" y1="97.2077213%" x2="19.8506745%" y2="16.0901386%" id="linearGradient-7">
            <stop stop-color="#88B1D3" offset="0%"></stop>
            <stop stop-color="#665C98" offset="100%"></stop>
        </linearGradient>
        <path d="M3.5775,16.6032524 C4.69758,13.8164991 4.51092,4.75864886 4.27758,0.578518919 C9.411,1.50703577 19.4682,4.96792597 18.6282,11.3779396 C17.7882,17.7879533 20.145,19.3906071 21.4284,19.3906071 C22.8288,22.4094896 23.7384,28.7966512 16.1784,30.1900278 C8.6178,31.5834045 2.2941,24.964715 0.07734,21.4809727 C0.77736,21.0161129 2.45748,19.3906071 3.5775,16.6032524 Z" id="path-8"></path>
        <path d="M20.6246625,7.17297981 L31.8946811,3.14476539 C35.2443344,3.14476539 43.9539133,2.97494083 51.9932012,2.29684703 C60.0324892,1.61815102 74.6035108,2.29684703 86.3275975,0.600408099 L88.8399876,15.8665518 C83.815808,18.4109091 76.2786378,20.9552664 66.229678,22.6517054 C69.5793313,32.8291345 67.3462291,34.5249712 64.5545511,37.9172469 L62.042161,48.9431966 L68.1300372,63.232548 L18.4960681,63.232548 L23.6343653,47.5749647 L20.6204582,30.2685174 L10.1216347,37.0693285 L0.0720743034,24.3475421 L15.333808,10.3635135 C16.8677895,8.95794431 18.666644,7.87335555 20.6246625,7.17297981 Z" id="path-10"></path>
        <path d="M24.0031455,7.31708979 L24.0031455,9.85295586 C25.1275046,9.57117958 27.3756223,9.51481228 27.3756223,11.5434931 C27.3756223,14.0791785 25.6890836,15.7701975 24.0031455,14.924688 C23.7845201,17.5593775 22.3706625,22.760104 18.1675294,24.9280771 C18.3182848,26.9147835 18.7585387,29.7662703 19.788,31.8300603 C21.1369907,34.5352089 23.7220557,35.7745668 24.8464149,36.0564033 C23.1604768,38.0286566 18.4390093,41.9737654 13.0436471,41.9737654 C7.64828483,41.9737654 3.4889969,38.0286566 2.08414861,36.0564033 C2.92741796,35.7745668 5.1190774,34.7044312 7.14256347,32.6755698 C8.73540557,31.0784963 9.03931889,27.2815323 8.95943653,24.5011068 C5.45602477,22.1380162 4.38752322,17.3991884 3.77008669,14.924688 C2.64632817,15.2065245 0.398210526,15.0939103 0.398210526,12.3887617 C0.398210526,9.68391418 2.92741796,9.57117958 3.77008669,9.85295586 L3.77008669,7.31708979 C5.45662539,7.59886607 9.83994427,7.48619169 13.8869164,4.78128395 C17.9332879,2.07637621 18.9447307,0.836656943 18.9447307,0.554880664 C18.9447307,1.96370183 19.5645697,4.55732029 20.6312693,5.62655257 C22.3172074,7.31708979 23.4409659,7.03537374 24.0031455,7.31708979 Z" id="path-12"></path>
    </defs>
    <g id="Page" stroke="none" stroke-width="1" fill="none" fill-rule="evenodd">
        <g id="02---Authorization-Code-light" transform="translate(-755.000000, -319.000000)">
            <g id="Group-2" transform="translate(755.000000, 319.000000)">
                <g id="Online-Shop---Scenes-5"></g>
                <path d="M519,370 L145.519187,370 L120,370 L120,197.024892 C120,184.773338 129.947079,174.840909 142.216704,174.840909 C154.48693,174.840909 164.433409,164.90908 164.433409,152.656926 L164.433409,133.920455 C164.433409,111.320972 182.781404,93 205.414221,93 L390.503386,93 C410.069097,93 425.930023,108.837565 425.930023,128.374459 C425.930023,147.911353 441.791549,163.748918 461.356659,163.748918 L472.465011,163.748918 C498.165535,163.748918 519,184.552697 519,210.215368 L519,370 Z" id="Path" fill="#02295C" opacity="0.0329287932"></path>
                <g id="security" transform="translate(389.130865, 112.556625) rotate(6.000000) translate(-389.130865, -112.556625) translate(360.130865, 78.556625)">
                    <path d="M5.40527344,13.6507974 L7.01137769,34.7356588 C8.10642134,49.1115015 16.8001405,61.7814165 29.7668054,67.8987502 L34.9655476,67.4973504 C49.9925306,59.3313586 58.8350254,43.0215064 57.5291445,25.8786952 L56.2982547,9.72063722 L53.363686,9.9472871 C44.3841384,10.6406891 35.6225393,6.93822026 29.8240832,0 L24.625341,0.401464941 C23.2100333,7.47054155 17.3023228,12.7320474 10.1612659,13.2835057 L5.40527344,13.6507974 Z" id="Path" fill="#FFBD32" fill-rule="nonzero"></path>
                    <path d="M0,14.2113224 L1.24995841,30.5723592 C2.54505367,47.5241979 13.6272209,62.1356737 29.5601879,67.8987502 C44.5872718,59.7568903 53.4297497,43.4952363 52.1238713,26.4030848 L50.8929839,10.2927764 L47.9584207,10.5187565 C38.9789332,11.2101094 30.2171784,7.51858196 24.4187333,0.600873896 C19.6480964,8.3400367 11.4831668,13.3271747 2.44390196,14.023157 L0,14.2113224 Z" id="Path" fill="#54B7FF" fill-rule="nonzero"></path>
                    <path d="M5.40527344,18.7529159 L6.40402418,31.8453028 C7.44552385,45.498152 16.3653834,57.2625864 29.1835663,61.8900113 C41.2754476,55.3458068 48.3943905,42.2509121 47.3441604,28.4849932 L46.3610212,15.5948346 L43.9771451,15.7786431 C36.7636299,16.3349113 29.7239918,13.370324 25.0582092,7.81136065 C21.2169991,14.0324409 14.6558996,18.0396041 7.39417354,18.5995476 L5.40527344,18.7529159 Z" id="Path" stroke="#000000" stroke-width="2"></path>
                    <polygon id="Path" fill="#FFFFFF" points="39.6386719 26.5110855 25.2881359 45.0655422 16.2158203 37.1450266 19.3960946 33.3693353 24.6012959 37.91367 35.8002452 23.4340819"></polygon>
                </g>
                <g id="Group-27" transform="translate(459.000000, 78.000000)">
                    <ellipse id="Oval" fill="#54B7FF" fill-rule="nonzero" cx="3.02083333" cy="3" rx="3.02083333" ry="3"></ellipse>
                    <ellipse id="Oval" stroke="#54B7FF" cx="21.4479167" cy="13.5" rx="7.25" ry="7.2"></ellipse>
                </g>
                <g id="Group-26" transform="translate(151.000000, 45.000000)">
                    <ellipse id="Oval" fill="#54B7FF" fill-rule="nonzero" transform="translate(32.291838, 11.377800) rotate(10.788900) translate(-32.291838, -11.377800) " cx="32.2918378" cy="11.3778" rx="9.6981261" ry="9.61386647"></ellipse>
                    <ellipse id="Oval" stroke="#7268F5" transform="translate(19.652897, 23.178060) rotate(10.788900) translate(-19.652897, -23.178060) " cx="19.6528973" cy="23.1780603" rx="16.6744905" ry="16.5296186"></ellipse>
                </g>
                <g id="dessk-2" transform="translate(178.000000, 222.000000)">
                    <path d="M2.61209694,153.678766 C1.38893393,153.678766 0.434772781,152.616406 0.56166139,151.395836 L15.6456046,6.27574062 L21.6062117,6.91802891 L4.65961237,151.851219 C4.53776607,152.893125 3.65773304,153.678766 2.61209694,153.678766 Z" id="Path" fill="#627AC1"></path>
                    <path d="M69.6757015,153.678766 C70.8986607,153.678766 71.8530485,152.616406 71.7259566,151.395836 L56.6421339,6.27574062 L50.6814668,6.91802891 L67.6278444,151.851219 C67.7501403,152.893125 68.6301913,153.678766 69.6757015,153.678766 Z" id="Path" fill="#627AC1"></path>
                    <path d="M165.673202,153.678766 C164.450242,153.678766 163.495855,152.616406 163.622946,151.395836 L178.706709,6.27574062 L184.667436,6.91802891 L167.721059,151.851219 C167.598763,152.893125 166.718712,153.678766 165.673202,153.678766 Z" id="Path" fill="#627AC1"></path>
                    <path d="M232.736926,153.678766 C233.959885,153.678766 234.914273,152.616406 234.787181,151.395836 L219.703418,6.27574062 L213.742691,6.91802891 L230.689069,151.851219 C230.811365,152.893125 231.691416,153.678766 232.736926,153.678766 Z" id="Path" fill="#627AC1"></path>
                    <rect id="Rectangle" fill="#A3BAFF" fill-rule="nonzero" x="6.91871173" y="0" width="54.5535714" height="9.0234375"></rect>
                    <rect id="Rectangle" fill="#CCD9FF" fill-rule="nonzero" x="61.4722832" y="0" width="169.056122" height="9.0234375"></rect>
                </g>
                <g id="Laptop-2" transform="translate(260.000000, 147.000000)">
                    <path d="M0.308075724,2.28352254 C0.308075724,1.28277746 1.11883867,0.472067365 2.11769663,0.474002499 L11.2600296,0.491749556 L6.49180612,65.5216508 L0.308075724,65.5216508 L0.308075724,2.28352254 Z" id="Path" fill="#706AC7" fill-rule="nonzero"></path>
                    <path d="M6.49192653,3.4863673 C6.49192653,1.82074286 7.8396551,0.470493683 9.50213061,0.470493683 L90.0538673,0.470493683 C91.716102,0.470493683 93.0640714,1.82074889 93.0640714,3.4863673 L93.0640714,65.5216508 L6.49192653,65.5216508 L6.49192653,3.4863673 Z" id="Path" fill="#CFCCFF" fill-rule="nonzero"></path>
                    <rect id="Rectangle" fill="#282F48" fill-rule="nonzero" x="10.6145214" y="3.56816984" width="78.3273163" height="58.8559683" rx="5"></rect>
                    <path d="M79.8131531,3.56816984 C81.6487755,10.1964254 83.2851224,24.5553587 76.0582245,29.3822032 C72.3183469,31.8800095 66.5688571,31.4405968 60.902449,31.0075175 C52.5139735,30.3665238 44.308699,29.7394635 43.0784888,38.675254 C42.934902,39.7182032 42.8013092,40.731054 42.6718102,41.7130222 C40.9422071,54.827546 39.940351,62.4243492 25.5578969,62.4243492 L85.9310918,62.4243492 C87.5933265,62.4243492 88.9412959,61.0738413 88.9412959,59.4082952 L88.9412959,6.5840127 C88.9412959,4.91842444 87.5933265,3.56816984 85.9310918,3.56816984 L79.8131531,3.56816984 Z" id="Path" fill="#2F3B67"></path>
                    <rect id="Rectangle" fill="#5FFFD8" fill-rule="nonzero" x="20.9203163" y="14.9263397" width="22.6736398" height="6.1953873" rx="3.09769365"></rect>
                    <rect id="Rectangle" fill="#5FFFD8" fill-rule="nonzero" x="68.3292245" y="14.9263397" width="12.3674235" height="6.1953873" rx="3.09769365"></rect>
                    <rect id="Rectangle" fill="#5FFFD8" fill-rule="nonzero" x="20.9203163" y="31.4473524" width="59.7759704" height="2.06511905" rx="1.03255952"></rect>
                    <rect id="Rectangle" fill="#5FFFD8" fill-rule="nonzero" x="20.9203163" y="38.675254" width="59.7759704" height="2.06511905" rx="1.03255952"></rect>
                    <rect id="Rectangle" fill="#5FFFD8" fill-rule="nonzero" x="20.9203163" y="45.9032159" width="36.0716969" height="2.06511905" rx="1.03255952"></rect>
                    <path d="M0.308075724,65.5216508 L28.1348122,65.5216508 L28.1348122,75.8473968 L3.31828041,75.8473968 C1.65578684,75.8473968 0.308075724,74.4968889 0.308075724,72.8315238 L0.308075724,65.5216508 Z" id="Path" fill="#706AC7" fill-rule="nonzero"></path>
                    <path d="M28.1348122,65.5216508 L117.798918,65.5216508 L117.798918,72.8315238 C117.798918,74.4968889 116.450949,75.8473968 114.788714,75.8473968 L28.1348122,75.8473968 L28.1348122,65.5216508 Z" id="Path" fill="#2C2770" fill-rule="nonzero"></path>
                </g>
                <g id="Calendar-table" transform="translate(224.000000, 189.000000)">
                    <polygon id="Path" fill="#BE7430" fill-rule="nonzero" points="50.769507 2.4 6 2.4 12.2302524 33 57 33"></polygon>
                    <polygon id="Path" fill="#FF9330" fill-rule="nonzero" points="6.21071705 2.4 50.4 2.4 44.1893696 33 0 33"></polygon>
                    <path d="M8.8167132,7.19664028 C8.96489079,6.49889226 9.5801099,6 10.2923037,6 L44.090643,6 C45.0504331,6 45.766127,6.88545216 45.5663844,7.82548388 L40.983168,29.4032691 C40.8350206,30.1010473 40.2198015,30.6 39.5077284,30.6 L5.70920801,30.6 C4.74965932,30.6 4.03393531,29.7144572 4.23358734,28.7743952 L8.8167132,7.19664028 Z" id="Path" fill="#FFB36C" fill-rule="nonzero"></path>
                    <path d="M44.4,15 L41.1240303,30.165861 C41.0693852,30.4188098 40.8426084,30.6 40.579705,30.6 L0.154994564,30.6 C0.10093818,30.6 0.0489792538,30.5925252 0,30.5784724 L0,30.5569449 C5.80688478,30.7031529 18.5337737,29.3071509 22.0958101,24.9657614 C24.4573256,22.0875875 27.2850239,22.4439582 30.0361281,22.5181984 C32.4722036,22.5839172 34.6734877,22.6432974 35.9543066,20.6353449 C37.1440504,18.7704011 38.651039,18.6262264 40.0973108,18.4878819 C41.8423089,18.3209537 43.498357,18.1625468 44.4,15 Z" id="Path" fill="#F2A864" fill-rule="nonzero"></path>
                    <path d="M8.71490266,0.868334392 C8.90022191,1.22660971 9,1.65765962 9,2.10000229 L8.31435467,2.10000229 C8.31435467,1.47039668 7.95029625,0.960001965 7.50123505,0.960001965 C7.05214394,0.960001965 6.68808553,1.47039955 6.68808553,2.10000515 C6.68808553,2.72961076 7.05214394,3.24001121 7.50123505,3.24001121 C7.58504146,3.24001121 7.66588684,3.22222283 7.7419766,3.18922824 L7.94545092,4.10527277 C7.64375381,4.23661992 7.32013304,4.23125471 7.02073896,4.08992311 C6.72131498,3.94859151 6.46146126,3.67852363 6.27817585,3.31819404 C6.09489045,2.95789314 5.99753503,2.52576158 6.00004743,2.08343039 C6.00252992,1.64109921 6.10473067,1.21116538 6.29205386,0.854950065 C6.47937705,0.498734753 6.74228154,0.234429166 7.04323091,0.0997309111 C7.34418028,-0.0349673433 7.66783095,-0.0331793235 7.96800268,0.104839908 C8.26820431,0.242859426 8.52958341,0.510061939 8.71490266,0.868334392 Z" id="Path" fill="#C4C4C4"></path>
                    <path d="M43.5146886,0.868334392 C43.7001111,1.22660971 43.8,1.65765962 43.8,2.10000229 L43.1142357,2.10000229 C43.1142357,1.47039668 42.7502693,0.960001965 42.3010682,0.960001965 C41.8521663,0.960001965 41.4879008,1.47039955 41.4879008,2.10000515 C41.4879008,2.72961076 41.8521663,3.24001121 42.3010682,3.24001121 C42.3848074,3.24001121 42.465855,3.22222283 42.5418185,3.18917086 L42.7454842,4.10527277 C42.443724,4.23661992 42.1201317,4.23125471 41.8207641,4.08992311 C41.5213964,3.94859151 41.2615058,3.67852363 41.0781768,3.31819404 C40.8951468,2.95789314 40.7976505,2.52576158 40.800043,2.08343039 C40.8027346,1.64109921 40.904717,1.21116538 41.092233,0.854950065 C41.2794499,0.498734753 41.5423312,0.234429166 41.8431942,0.0997309111 C42.1440572,-0.0349673433 42.4679485,-0.0331793235 42.7679143,0.104839908 C43.0681792,0.242859426 43.3295651,0.510061939 43.5146886,0.868334392 Z" id="Path" fill="#C4C4C4"></path>
                    <path d="M32.1149624,0.868334392 C32.3001022,1.22660971 32.4,1.65765962 32.4,2.10000229 L31.714175,2.10000229 C31.714175,1.47039668 31.3501762,0.960001965 30.9012345,0.960001965 C30.4519937,0.960001965 30.0880548,1.47039955 30.0880548,2.10000515 C30.0880548,2.72961076 30.4519937,3.24001121 30.9012345,3.24001121 C30.9849811,3.24001121 31.0657368,3.22222283 31.1420061,3.18919955 L31.3453907,4.10527277 C31.0439029,4.23661992 30.720282,4.23125471 30.4208878,4.08992311 C30.1213441,3.94859151 29.8614603,3.67852363 29.6781749,3.31819404 C29.4948894,2.95789314 29.3975638,2.52576158 29.4000463,2.08343039 C29.4025288,1.64109921 29.5047296,1.21116538 29.6920529,0.854950065 C29.8793761,0.498734753 30.1422807,0.234429166 30.4433199,0.0997309111 C30.7442096,-0.0349673433 31.0678305,-0.0331793235 31.3681219,0.104839908 C31.6681143,0.242859426 31.9295234,0.510061939 32.1149624,0.868334392 Z" id="Path" fill="#C4C4C4"></path>
                    <path d="M20.7149027,0.868334392 C20.9002219,1.22660971 21,1.65765962 21,2.10000229 L20.3143248,2.10000229 C20.3143248,1.47039668 19.9502963,0.960001965 19.5012051,0.960001965 C19.052114,0.960001965 18.6880855,1.47039955 18.6880855,2.10000515 C18.6880855,2.72961076 19.052114,3.24001121 19.5012051,3.24001121 C19.5850116,3.24001121 19.6658868,3.22222283 19.7419766,3.18919955 L19.9454808,4.10527277 C19.6437538,4.23661992 19.320133,4.23125471 19.020739,4.08992311 C18.7213449,3.94859151 18.4614613,3.67852363 18.2781759,3.31819404 C18.0948904,2.95789314 17.997535,2.52576158 18.0000474,2.08343039 C18.0025299,1.64109921 18.1047307,1.21116538 18.2920539,0.854950065 C18.479377,0.498734753 18.7422815,0.234429166 19.0432309,0.0997309111 C19.3441803,-0.0349673433 19.667831,-0.0331793235 19.9680326,0.104839908 C20.2682043,0.242859426 20.5295834,0.510061939 20.7149027,0.868334392 Z" id="Path" fill="#C4C4C4"></path>
                    <path d="M11.6382164,10.6240028 C11.7599335,10.0279154 12.2821747,9.6 12.8879479,9.6 L14.9237958,9.6 C15.7314257,9.6 16.3358072,10.3443083 16.1735274,11.1390333 L15.9617836,12.175968 C15.8400375,12.7720555 15.3178253,13.2 14.7120521,13.2 L12.6762042,13.2 C11.8685743,13.2 11.2641928,12.4556625 11.4264726,11.6609375 L11.6382164,10.6240028 Z" id="Path" fill="#FFDAB8" fill-rule="nonzero"></path>
                    <path d="M20.6382178,10.6240028 C20.7599357,10.0279154 21.2821801,9.6 21.8879279,9.6 L23.9238171,9.6 C24.7314229,9.6 25.335808,10.3443083 25.1735272,11.1390333 L24.9617822,12.175968 C24.8400643,12.7720555 24.3178199,13.2 23.7120721,13.2 L21.6761829,13.2 C20.8685771,13.2 20.264192,12.4556625 20.4264728,11.6609375 L20.6382178,10.6240028 Z" id="Path" fill="#FFDAB8" fill-rule="nonzero"></path>
                    <path d="M29.0382138,10.6240028 C29.1599296,10.0279154 29.6821655,9.6 30.2879323,9.6 L32.323875,9.6 C33.1313516,9.6 33.7358717,10.3443083 33.5735066,11.1390333 L33.3618521,12.175968 C33.2400782,12.7720555 32.7179004,13.2 32.1119306,13.2 L30.0762778,13.2 C29.2685693,13.2 28.6641941,12.4556625 28.8264722,11.6609375 L29.0382138,10.6240028 Z" id="Path" fill="#FFDAB8" fill-rule="nonzero"></path>
                    <path d="M38.038155,10.6240028 C38.1599325,10.0279154 38.682126,9.6 39.2881139,9.6 L41.3238275,9.6 C42.1316181,9.6 42.7358664,10.3443083 42.5734964,11.1390333 L42.3618355,12.175968 C42.2400581,12.7720555 41.7178646,13.2 41.1121666,13.2 L39.0761631,13.2 C38.2686624,13.2 37.6641242,12.4556625 37.8264942,11.6609375 L38.038155,10.6240028 Z" id="Path" fill="#FFDAB8" fill-rule="nonzero"></path>
                    <path d="M9.83821783,17.224032 C9.95993569,16.6279154 10.4821801,16.2 11.0879279,16.2 L13.1238171,16.2 C13.9314229,16.2 14.535808,16.9443083 14.3735272,17.7390625 L14.1617822,18.7759972 C14.0400643,19.3720846 13.5178199,19.8 12.9120721,19.8 L10.8761829,19.8 C10.0685771,19.8 9.46419203,19.0556917 9.62647284,18.2609667 L9.83821783,17.224032 Z" id="Path" fill="#FFDAB8" fill-rule="nonzero"></path>
                    <path d="M18.8382164,17.224032 C18.9599625,16.6279154 19.4821747,16.2 20.0879479,16.2 L22.1237958,16.2 C22.9314257,16.2 23.5358072,16.9443083 23.3735274,17.7390625 L23.1617836,18.7759972 C23.0400665,19.3720846 22.5178253,19.8 21.9120521,19.8 L19.8762042,19.8 C19.0685743,19.8 18.4641928,19.0556917 18.6264726,18.2609667 L18.8382164,17.224032 Z" id="Path" fill="#FFDAB8" fill-rule="nonzero"></path>
                    <path d="M27.2382211,17.224032 C27.3599368,16.6279154 27.8821718,16.2 28.4879087,16.2 L30.5238771,16.2 C31.3313523,16.2 31.9358715,16.9443083 31.7735067,17.7390625 L31.5618525,18.7759972 C31.4400788,19.3720846 30.9179018,19.8 30.311933,19.8 L28.2761675,19.8 C27.4685763,19.8 26.8641731,19.0556917 27.02648,18.2609667 L27.2382211,17.224032 Z" id="Path" fill="#FFDAB8" fill-rule="nonzero"></path>
                    <path d="M36.238155,17.224032 C36.3599325,16.6279154 36.882126,16.2 37.4881139,16.2 L39.5238275,16.2 C40.3316181,16.2 40.9358664,16.9443083 40.7734964,17.7390625 L40.5618355,18.7759972 C40.4400581,19.3720846 39.9178646,19.8 39.3121666,19.8 L37.2761631,19.8 C36.4686624,19.8 35.8641242,19.0556917 36.0264942,18.2609667 L36.238155,17.224032 Z" id="Path" fill="#FFDAB8" fill-rule="nonzero"></path>
                    <path d="M8.03821636,23.8240028 C8.15996248,23.2279154 8.68217474,22.8 9.28794792,22.8 L11.3237958,22.8 C12.1314257,22.8 12.7358072,23.5443083 12.5735274,24.3390333 L12.3617836,25.375968 C12.2400665,25.9720846 11.7178253,26.4 11.1120521,26.4 L9.0762042,26.4 C8.26857428,26.4 7.66419281,25.6556917 7.82647264,24.8609375 L8.03821636,23.8240028 Z" id="Path" fill="#FFDAB8" fill-rule="nonzero"></path>
                    <path d="M17.0382178,23.8240028 C17.1599357,23.2279154 17.6821801,22.8 18.2879279,22.8 L20.3238171,22.8 C21.1314229,22.8 21.735808,23.5443083 21.5735272,24.3390333 L21.3617822,25.375968 C21.2400643,25.9720846 20.7178199,26.4 20.1120721,26.4 L18.0761829,26.4 C17.2685771,26.4 16.664192,25.6556917 16.8264728,24.8609375 L17.0382178,23.8240028 Z" id="Path" fill="#FFDAB8" fill-rule="nonzero"></path>
                    <path d="M25.4382182,23.8240028 C25.5599363,23.2279154 26.0821817,22.8 26.6879597,22.8 L28.7238237,22.8 C29.53146,22.8 30.1357013,23.5443083 29.9735651,24.3390333 L29.7618197,25.375968 C29.6401016,25.9720846 29.1178563,26.4 28.5120783,26.4 L26.4762143,26.4 C25.668578,26.4 25.0641917,25.6556917 25.2264728,24.8609375 L25.4382182,23.8240028 Z" id="Path" fill="#FFDAB8" fill-rule="nonzero"></path>
                    <path d="M34.438155,23.8240028 C34.5599325,23.2279154 35.082126,22.8 35.6881139,22.8 L37.7238275,22.8 C38.5316181,22.8 39.1358664,23.5443083 38.9734964,24.3390333 L38.7618355,25.375968 C38.6400581,25.9720846 38.1178646,26.4 37.5121666,26.4 L35.4761631,26.4 C34.6686624,26.4 34.0641242,25.6556917 34.2264942,24.8609375 L34.438155,23.8240028 Z" id="Path" fill="#FFDAB8" fill-rule="nonzero"></path>
                </g>
                <g id="Rating-Card" transform="translate(213.000000, 0.000000)">
                    <rect id="Rectangle" fill="#0B86DF" fill-rule="nonzero" x="0" y="10.9090909" width="157.324525" height="52.8123636" rx="14.9999991"></rect>
                    <rect id="Rectangle" fill="#54B7FF" fill-rule="nonzero" x="2.67533756" y="10.9090909" width="157.324525" height="52.8123636" rx="14.9999991"></rect>
                    <polygon id="Path" fill="#FFE071" fill-rule="nonzero" points="68.7703167 22.3085818 70.9328507 26.6870182 75.7690498 27.3893455 72.2696833 30.7972727 73.0957466 35.6098182 68.7703167 33.3377818 64.4445249 35.6098182 65.2705882 30.7972727 61.7712217 27.3893455 66.6074208 26.6870182"></polygon>
                    <polygon id="Path" fill="#FFE071" fill-rule="nonzero" points="86.55819 22.3085455 88.720724 26.6869818 93.5569231 27.3892727 90.0571946 30.7972 90.8836199 35.6097455 86.55819 33.3377091 82.2323982 35.6097455 83.0584615 30.7972 79.558733 27.3892727 84.3952941 26.6869818"></polygon>
                    <polygon id="Path" fill="#FFE071" fill-rule="nonzero" points="104.346063 22.3085455 106.508597 26.6869818 111.345158 27.3892727 107.84543 30.7972 108.671493 35.6097455 104.346063 33.3377091 100.020271 35.6097455 100.846697 30.7972 97.3469683 27.3892727 102.183167 26.6869818"></polygon>
                    <polygon id="Path" fill="#FFE071" fill-rule="nonzero" points="122.133937 22.3085455 124.296471 26.6869818 129.13267 27.3892727 125.633303 30.7972 126.459367 35.6097455 122.133937 33.3377091 117.808145 35.6097455 118.634208 30.7972 115.134842 27.3892727 119.971041 26.6869818"></polygon>
                    <polygon id="Path" fill="#FFE071" fill-rule="nonzero" points="139.922172 22.3085455 142.084706 26.6869818 146.920905 27.3892727 143.421176 30.7972 144.247602 35.6097455 139.922172 33.3377091 135.59638 35.6097455 136.422443 30.7972 132.922715 27.3892727 137.759276 26.6869818"></polygon>
                    <rect id="Rectangle" fill="#FFFFFF" fill-rule="nonzero" x="63.5500452" y="42.2789091" width="76.2903167" height="2.38250545" rx="1.19125273"></rect>
                    <rect id="Rectangle" fill="#FFFFFF" fill-rule="nonzero" x="63.5500452" y="50.2203636" width="54.5495023" height="2.38250545" rx="1.19125273"></rect>
                    <ellipse id="Oval" fill="#71DCFF" fill-rule="nonzero" cx="30.5432398" cy="37.9109091" rx="18.1832398" ry="18.2658909"></ellipse>
                    <g id="Clipped" transform="translate(12.307692, 19.636364)">
                        <mask id="mask-2" fill="white">
                            <use xlink:href="#path-1"></use>
                        </mask>
                        <g id="Oval"></g>
                        <path d="M13.0316742,16 C8.39819005,15.5636364 2.65458824,21.0301818 0.36199095,23.8181818 C0.482642534,25.9392727 0.941176471,30.4727273 1.80995475,31.6363636 C2.67873303,32.8 11.5837104,36.3636364 15.9276018,38 C25.278914,36.9698182 42.4615385,32.6909091 36.3800905,23.8181818 C28.7782805,12.7272364 18.8235294,16.5454545 13.0316742,16 Z" id="Path" fill="#FFFFFF" fill-rule="nonzero" mask="url(#mask-2)"></path>
                    </g>
                    <path d="M40.0235294,15.0272364 C39.6170136,11.7606545 36.4666063,11.2842545 34.9424434,11.4544 C34.0956018,10.9439636 32.401991,8.90232727 28.8452851,9.41272727 C25.2886154,9.92312727 21.2237466,11.9647636 22.24,16.5584364 C22.24,16.5584364 21.3874027,25.4039636 27.8900633,25.4039636 C27.8900633,27.4545455 32.9711131,37.8687273 32.9711131,31.6363636 C32.9711131,25.4039636 32.1009593,30.0985455 36.2291403,25.4039636 C38.7630769,24.4948727 40.5314027,19.1105091 40.0235294,15.0272364 Z" id="Path" fill="#2C2770" fill-rule="nonzero"></path>
                    <ellipse id="Oval" fill="#2C2770" fill-rule="nonzero" cx="35.8671493" cy="6" rx="5.97285068" ry="6"></ellipse>
                    <path d="M37.4827149,18.6000727 L37.4827149,20.1312727 C38.160362,19.9611636 39.5152941,19.9271273 39.5152941,21.1521091 C39.5152941,22.6833091 38.4991855,23.7041455 37.4827149,23.1937091 C37.3509502,24.7845818 36.4991855,27.9250182 33.9658281,29.2341818 C34.056724,30.4336727 34.3220271,32.1555273 34.942371,33.4018545 C35.7553303,35.0351636 37.3136652,35.7837455 37.9909502,35.9538909 C36.9748416,37.1447273 34.129448,39.5269091 30.8776109,39.5269091 C27.6257738,39.5269091 25.1191674,37.1447273 24.272362,35.9538909 C24.7804525,35.7837455 26.1015023,35.1372364 27.3209412,33.9122545 C28.2808326,32.9479636 28.4641448,30.6553091 28.4160724,28.9762545 C26.3045068,27.5494545 25.6604163,24.6880364 25.288543,23.1937091 C24.6110769,23.3638545 23.2561448,23.2958182 23.2561448,21.6625091 C23.2561448,20.0292 24.7804525,19.9611636 25.288543,20.1312727 L25.288543,18.6000727 C26.304724,18.7702182 28.9468235,18.7021455 31.3857014,17.0688364 C33.8245792,15.4355273 34.4342805,14.6869455 34.4342805,14.5168 C34.4342805,15.3674909 34.8077828,16.9336364 35.4504977,17.5792364 C36.4666063,18.6000727 37.1442534,18.4299273 37.4827149,18.6000727 Z" id="Path" fill="#FFAE64" fill-rule="nonzero"></path>
                    <path d="M33.2283801,25.5871636 L30.9166335,26.7482909 C31.0817738,27.0800364 31.6101719,27.5113091 32.4027511,27.2459273 C33.1953665,26.9805091 33.2834027,26.1401091 33.2283801,25.5871636 Z" id="Path" fill="#FFFFFF" fill-rule="nonzero"></path>
                    <rect id="Rectangle" fill="#2C2770" fill-rule="nonzero" x="26.1280362" y="18.6204727" width="2.64198009" height="1" rx="0.5"></rect>
                    <rect id="Rectangle" fill="#2C2770" fill-rule="nonzero" x="32.7329593" y="18.6204727" width="2.64198009" height="1" rx="0.5"></rect>
                    <ellipse id="Oval" fill="#000000" fill-rule="nonzero" cx="33.8886878" cy="20.7768364" rx="1" ry="1"></ellipse>
                    <polyline id="Path" stroke="#000000" stroke-width="0.599999964" points="30.0908597 19.2839636 30.0908597 25.2554182 31.5769774 25.2554182"></polyline>
                    <ellipse id="Oval" fill="#000000" fill-rule="nonzero" cx="27.6142986" cy="20.7768364" rx="1" ry="1"></ellipse>
                    <path d="M38.3471493,21.1085818 C38.5122172,21.4956 38.5455204,22.3028727 37.3563801,22.4355636" id="Path" stroke="#000000" stroke-width="0.599999964"></path>
                    <path d="M24.23019,21.1085818 C24.065086,21.4956 24.0320362,22.3028727 25.2209593,22.4355636" id="Path" stroke="#000000" stroke-width="0.599999964"></path>
                    <g id="Clipped" transform="translate(23.167421, 14.181818)">
                        <mask id="mask-4" fill="white">
                            <use xlink:href="#path-3"></use>
                        </mask>
                        <g id="Path"></g>
                        <path d="M4.77697738,14.5569818 C5.21730317,14.8334182 6.62635294,15.5522182 8.07945701,15.5522182 C9.45875113,15.5522182 10.7487783,15.1038545 11.1586968,14.9164364 L11.2167964,14.8887273 C11.2000362,14.8971273 11.1805973,14.9064 11.1586968,14.9164364 L4.6118371,18.0403273 L4.77697738,14.5569818 Z" id="Path" fill="#FF8282" fill-rule="nonzero" mask="url(#mask-4)"></path>
                    </g>
                </g>
                <g id="Group-22" transform="translate(105.000000, 49.000000)">
                    <g id="Man-low-3-Copy" transform="translate(0.000000, 135.909850)">
                        <path d="M79.425,184.187915 L72.3444,178.105047 C68.5776,174.86907 69.2982,164.986139 69.2982,164.986139 L59.17182,164.437087 L59.17182,175.409702 L57.52968,181.170837 L78.6042,185.285417 L79.425,184.187915 Z" id="Path" fill="#FFAE64" fill-rule="nonzero"></path>
                        <path d="M75.8904,190.771725 L82.6566,190.771725 C83.5368,190.771725 84.3504,190.303257 84.7944,189.54132 C85.464,188.390296 85.1106,186.911524 84.0042,186.173041 C82.6662,185.280606 80.7138,183.953982 78.3306,182.267737 C73.6776,178.975833 71.7618,176.78143 71.7618,176.78143 C71.7618,176.78143 69.0246,178.427382 64.9194,178.427382 C60.8142,178.427382 58.6245,175.409702 58.6245,175.409702 C56.86296,179.823766 56.79972,184.736366 58.44708,189.194329 L58.6245,189.674223 L66.5616,190.223275 L67.9302,189.125773 L71.55,190.162536 C72.9618,190.566658 74.4222,190.771725 75.8904,190.771725 Z" id="Path" fill="#2C2770" fill-rule="nonzero"></path>
                        <path d="M6.07548,184.187915 L13.15614,178.105047 C16.92282,174.86907 16.2021,164.986139 16.2021,164.986139 L26.32872,164.437087 L26.32872,175.409702 L27.97092,181.170837 L6.89658,185.285417 L6.07548,184.187915 Z" id="Path" fill="#FFAE64" fill-rule="nonzero"></path>
                        <path d="M9.61038,190.771725 L2.84421,190.771725 C1.96404,190.771725 1.150104,190.303257 0.706608,189.54132 C0.03669,188.390296 0.390042,186.911524 1.496706,186.173041 C2.834352,185.280606 4.786884,183.953982 7.17036,182.267737 C11.82312,178.975833 13.73898,176.78143 13.73898,176.78143 C13.73898,176.78143 16.47588,178.427382 20.58126,178.427382 C24.6867,178.427382 26.87622,175.409702 26.87622,175.409702 C28.63776,179.823766 28.701,184.736366 27.05364,189.194329 L26.87622,189.674223 L18.93912,190.223275 L17.57064,189.125773 L13.95072,190.162536 C12.53922,190.566658 11.0784,190.771725 9.61038,190.771725 Z" id="Path" fill="#2C2770" fill-rule="nonzero"></path>
                        <path d="M29.55246,12.6559733 L31.80258,1.49242245 L77.5092,0.120832276 L80.3322,21.6266849 C81.1854,28.1247393 81.4608,34.6859377 81.1554,41.2328234 L75.0462,172.118399 L58.89816,172.118399 L55.61382,40.9941994 L31.80258,172.118399 L14.55996,172.118399 L27.97092,46.2062218 L27.84828,44.895654 C26.8407,34.1234152 27.4149,23.2612114 29.55246,12.6559733 Z" id="Path" fill="#2C2770" fill-rule="nonzero"></path>
                        <g id="Clipped" transform="translate(13.800000, 0.000000)">
                            <mask id="mask-6" fill="white">
                                <use xlink:href="#path-5"></use>
                            </mask>
                            <g id="Path"></g>
                            <g id="Group" mask="url(#mask-6)" stroke="#FFFFFF">
                                <g transform="translate(2.400000, 0.000000)" id="Path">
                                    <path d="M18.33966,0.395163301 C16.87998,7.71029809 13.96062,28.7047617 13.96062,54.1614583 C13.96062,54.1614583 4.8375,143.772175 0.276,172.666849"></path>
                                    <path d="M39.6876,41.2684847 C41.32974,45.3832456 44.6688,59.0991353 44.8878,81.0443665 C45.1068,102.990199 44.979,150.904435 44.8878,172.118399"></path>
                                </g>
                            </g>
                        </g>
                    </g>
                    <g id="Man-top-3-Copy" transform="translate(8.400000, 0.000000)">
                        <path d="M103.146,64.6624186 L89.9082,71.4019836 L91.3632,86.0231171 L105.2442,79.8825177 C112.7874,76.5455099 118.0932,69.5617883 119.2962,61.3861493 L124.05,29.0863316 L127.8762,24.7185739 L130.8468,20.8587341 C131.8644,19.5364395 132.2406,17.8280648 131.8728,16.1991912 C131.6064,15.0174972 130.8096,14.025656 129.7152,13.5119648 L124.1898,10.9189733 L127.83,2.12007338 C128.1834,1.26552517 127.6932,0.296355637 126.7962,0.0775167241 C126.1428,-0.0820270067 125.463,0.21288534 125.1312,0.799703179 L119.5506,10.6793269 L117.9888,10.4179711 C117.2118,10.2878945 116.4402,10.679808 116.0856,11.3851561 L114.2742,14.9852036 C113.7726,15.9824571 113.6328,17.1235586 113.8782,18.2128219 L115.3038,24.5283602 L103.146,64.6624186 Z" id="Path" fill="#FF9330" fill-rule="nonzero"></path>
                        <path d="M127.9848,12.737399 L124.7022,19.0517345 C124.3764,19.6784232 123.6222,19.9451313 122.976,19.6621261 L122.976,19.6621261 C122.3622,19.3930126 122.0406,18.7103362 122.2236,18.0638623 L122.7678,16.1414596" id="Path" stroke="#000000"></path>
                        <path d="M130.98,14.2127425 L127.0194,20.1898292 C126.6462,20.752532 125.9022,20.9296959 125.3166,20.5952134 L125.3166,20.5952134 C124.7214,20.2550178 124.4982,19.5053487 124.8102,18.8936942 L124.9674,18.5860929" id="Path" stroke="#000000"></path>
                        <path d="M131.4876,18.7925436 L128.2674,23.320266 C127.8594,23.8945152 127.0836,24.0657255 126.4722,23.7165695 L126.4722,23.7165695 C125.8818,23.3791402 125.6268,22.6586376 125.874,22.0236499 L126.4698,20.4912363" id="Path" stroke="#000000"></path>
                        <path d="M120.6606,11.1655955 L126.2508,13.5467842 C126.7218,13.7473415 126.957,14.2794345 126.7884,14.7636585 L126.7884,14.7636585 C126.4242,15.810465 125.4012,16.4787686 124.2984,16.3894049 L119.1852,15.9750602 C120.1758,16.6167231 121.5264,20.1649324 121.6644,23.8419553" id="Path" stroke="#000000"></path>
                        <path d="M22.71288,77.339921 L35.10324,74.0810915 L67.17,74.0810915 C71.0346,74.0810915 74.8806,73.5464727 78.5994,72.4922693 L97.3524,67.1767508 L100.6368,84.0391942 L72.9948,100.844507 L70.5102,111.11412 L72.6846,126.574166 C73.5636,132.821208 68.6424,138.367653 62.3496,138.222121 L25.24872,137.364566 C22.53258,137.302024 20.40978,134.993962 20.56746,132.275765 L21.77892,111.390751 L17.39988,119.827385 L1.56006,116.404381 L7.209,93.1571815 C9.08646,85.4307667 15.03882,79.3581222 22.71288,77.339921 Z" id="Path" fill="#303570"></path>
                        <path d="M35.10324,74.0810915 L22.71288,77.339921 C15.03882,79.3581222 9.08646,85.4307667 7.209,93.1571815 L1.56006,116.404381 L17.39988,119.827385 L21.77892,111.390751 L2.112,232.635567 C1.8201,234.434869 3.18006,236.078416 4.99836,236.12412 L19.53234,236.487348 L37.8,168.68457 L37.8,78.1782322 L53.7,78.1782322 L57.3,168.68457 L67.467,237.684678 L82.3314,238.057286 C84.1602,238.10203 85.6038,236.510802 85.3848,234.690452 L70.5102,111.11412 L72.9948,100.844507 L100.6368,84.0391942 L97.3524,67.1767508 L78.5994,72.4922693 C74.8806,73.5464727 71.0346,74.0810915 67.17,74.0810915 L35.10324,74.0810915 Z" id="Path" fill="url(#linearGradient-7)"></path>
                        <line x1="59.4" y1="49.3124234" x2="51.60012" y2="48.1096814" id="Path" stroke="#000000"></line>
                        <path d="M35.1888,71.3328259 C36.31602,68.5111931 36.12816,59.3396837 35.89332,55.1066332 C41.0598,56.0477788 51.1812,59.5513663 50.3358,66.0419637 C49.4904,72.5319598 51.8622,74.1550601 53.154,74.1550601 C54.5628,77.211829 55.4784,83.6789729 47.8698,85.0897893 C40.2612,86.5006057 33.89718,79.7983258 31.66626,76.2712847 C32.37078,75.8010126 34.06158,74.1550601 35.1888,71.3328259 Z" id="Path" fill="#FF9330" fill-rule="nonzero"></path>
                        <g id="Clipped" transform="translate(31.800000, 54.724763)">
                            <mask id="mask-9" fill="white">
                                <use xlink:href="#path-8"></use>
                            </mask>
                            <g id="Path"></g>
                            <path d="M19.59,17.0314286 C8.1924,15.7895974 4.51674,6.16585704 4.10376,1.50944125 L19.59,10.2016579 C24.339,12.9956277 30.9882,18.2732597 19.59,17.0314286 Z" id="Path" fill="#D76767" fill-rule="nonzero" mask="url(#mask-9)"></path>
                        </g>
                        <path d="M36.20304,56.0700295 C35.9736,59.9368452 40.6776,66.9668724 49.2834,66.6156717 C54.3072,66.4106042 55.5762,60.6536794 56.856,54.312222 C57.7686,49.7911147 59.4942,44.9735315 58.9212,41.6569704 L51.3486,39.1967615 C52.3812,40.602767 52.0422,40.2918581 48.6,40.2918581 C45.1938,40.2918581 43.8624,38.3398078 42.6,37.2850031 C41.9118,41.5036207 36.6,37.0873324 36.6,39.1967615 C36.6,40.8836072 37.8,51.9325969 37.8,53.221335 C36.6,53.221335 37.22256,49.3124234 36.20304,48.6875989 C35.05566,47.9845962 32.76096,47.4926747 32.76096,51.1484091 C32.76096,54.8041435 35.05566,55.9527622 36.20304,56.0700295 Z" id="Path" fill="#FF9330" fill-rule="nonzero"></path>
                        <path d="M36.60006,53.221335 C36.60006,53.221335 37.20024,48.4103669 35.40018,48.4103669 C31.60542,48.4103669 33.00018,52.9206495 33.00018,52.9206495 C29.50014,46.3055683 30.60006,33.9774625 40.8,30.9706074 C56.1948,26.4324813 63.3,40.7669413 58.8,41.4946002 C49.5,42.9980277 42.6,38.4877451 41.4,39.3898016 C40.2,40.2918581 39,48.7110524 38.4,51.7179075 C37.92,54.1233915 37.10004,53.923135 36.60006,53.221335 Z" id="Path" fill="#2C2770" fill-rule="nonzero"></path>
                        <path d="M46.6944,57.8254315 L50.526,59.7456092 C50.2524,60.2940596 49.3764,61.0072856 48.063,60.5682847 C46.749,60.1292839 46.6032,58.7395155 46.6944,57.8254315 Z" id="Path" fill="#FFFFFF" fill-rule="nonzero"></path>
                        <rect id="Rectangle" fill="#2C2770" fill-rule="nonzero" transform="translate(56.273859, 47.126716) scale(-1, 1) translate(-56.273859, -47.126716) " x="54.084318" y="46.3037642" width="4.379082" height="1.64590436" rx="0.822952182"></rect>
                        <rect id="Rectangle" fill="#2C2770" fill-rule="nonzero" transform="translate(45.326259, 47.126716) scale(-1, 1) translate(-45.326259, -47.126716) " x="43.136718" y="46.3037642" width="4.379082" height="1.64590436" rx="0.822952182"></rect>
                        <ellipse id="Oval" fill="#000000" fill-rule="nonzero" transform="translate(45.599400, 50.471265) scale(-1, 1) translate(-45.599400, -50.471265) " cx="45.5994" cy="50.4712654" rx="1" ry="1"></ellipse>
                        <polyline id="Path" stroke="#000000" points="51.8946 47.4012663 51.8946 57.2763798 49.4316 57.2763798"></polyline>
                        <ellipse id="Oval" fill="#000000" fill-rule="nonzero" transform="translate(54.799800, 50.471265) scale(-1, 1) translate(-54.799800, -50.471265) " cx="54.7998" cy="50.4712654" rx="1" ry="1"></ellipse>
                        <path d="M50.4,50.2144799 C50.4,52.2074235 48.7884,53.822706 46.8,53.822706 C44.8122,53.822706 43.2,52.2074235 43.2,50.2144799 C43.2,49.715342 43.3008,49.3521139 43.4634,49.083301 C43.6248,48.8162923 43.86,48.619644 44.1696,48.4747136 C44.8074,48.1752308 45.7182,48.1096814 46.8,48.1096814 C47.8824,48.1096814 48.7932,48.1752308 49.4304,48.4747136 C49.74,48.619644 49.9758,48.8162923 50.1372,49.083301 C50.2992,49.3521139 50.4,49.715342 50.4,50.2144799 Z" id="Path" stroke="#000000"></path>
                        <path d="M52.4634,49.083301 C51.7915606,48.4562186 51.0161606,48.4562186 50.1372,49.083301" id="Path-2" stroke="#000000"></path>
                        <path d="M59.4,50.2144799 C59.4,52.2074235 57.7884,53.822706 55.8,53.822706 C53.8122,53.822706 52.2,52.2074235 52.2,50.2144799 C52.2,49.715342 52.3008,49.3521139 52.4634,49.083301 C52.6248,48.8162923 52.86,48.619644 53.1696,48.4747136 C53.8074,48.1752308 54.7182,48.1096814 55.8,48.1096814 C56.8824,48.1096814 57.7932,48.1752308 58.4304,48.4747136 C58.74,48.619644 58.9758,48.8162923 59.1372,49.083301 C59.2992,49.3521139 59.4,49.715342 59.4,50.2144799 Z" id="Path" stroke="#000000"></path>
                        <line x1="43.2" y1="49.3124234" x2="35.40012" y2="48.1096814" id="Path" stroke="#000000"></line>
                        <path d="M96.7374,106.719902 L66.1176,111.010083 C65.6832,111.070821 65.3166,111.36429 65.1612,111.775628 L56.8008,133.937353 C56.4792,134.788894 57.1824,135.675917 58.083,135.55444 L88.3554,131.478347 C88.7754,131.421818 89.1348,131.146991 89.3004,130.7561 L98.601,108.776591 C98.826,108.244378 98.6418,107.627371 98.1618,107.306239 L97.569,106.910537 C97.3242,106.746964 97.0284,106.679009 96.7374,106.719902 Z" id="Path" fill="#2C2770" fill-rule="nonzero"></path>
                        <path d="M97.383,107.994207 L68.3742,112.064286 C67.2882,112.216433 66.372,112.950707 65.9838,113.97845 L59.0676,132.311246 C58.2642,134.4407 60.0222,136.657955 62.2734,136.354864 L88.5156,132.821208 C89.5782,132.678082 90.4842,131.977485 90.8916,130.983419 L99.2976,110.466444 C99.8256,109.177705 98.7594,107.801167 97.383,107.994207 Z" id="Path" fill="#6B8CFF" fill-rule="nonzero"></path>
                        <ellipse id="Oval" fill="#2C2770" fill-rule="nonzero" transform="translate(79.309800, 122.354346) rotate(-37.006000) translate(-79.309800, -122.354346) " cx="79.3098" cy="122.354346" rx="3.00248284" ry="2.70393358"></ellipse>
                        <path d="M48.831,124.753215 L16.50006,119.672832 L1.80012,116.365292 L0.27462,124.204764 C-0.8073,129.764439 3.43104,134.935629 9.08244,134.951866 L46.4256,135.05891 L50.1156,137.184155 C50.2248,137.246698 50.3388,137.300821 50.4564,137.345924 L55.506,139.275723 C55.5654,139.297974 55.626,139.316015 55.6872,139.329245 L64.0638,141.118324 C64.5,141.211537 64.9494,141.039545 65.2122,140.678722 C65.6874,140.026836 65.349,139.099522 64.566,138.909489 L58.8174,137.5107 L67.7556,137.5107 C68.0976,137.5107 68.412,137.32247 68.574,137.021184 C68.8908,136.434245 68.5074,135.713803 67.8444,135.649456 L60.6762,134.959684 L71.2476,134.02395 C71.6556,133.987868 72.0108,133.729279 72.171,133.351618 C72.4716,132.643804 71.982,131.851197 71.2158,131.805493 L61.6674,131.237197 L70.5624,129.831793 C71.1696,129.735574 71.6412,129.248463 71.7186,128.636869 C71.8212,127.825018 71.2026,127.100967 70.386,127.077514 L58.8174,126.748564 L59.6892,126.200715 L61.4892,121.389747 L56.0796,122.296013 C55.812,122.341116 55.5486,122.408469 55.2924,122.498073 L48.831,124.753215 Z" id="Path" fill="#FF9330" fill-rule="nonzero"></path>
                    </g>
                </g>
                <g id="Vas-1" transform="translate(0.000000, 158.000000)">
                    <path d="M120.900269,46.6747582 C125.359244,41.4359907 136.618154,43.3600802 140.699923,45.3989192 C129.917641,64.9005165 120.405564,51.1285462 117.101705,71.1847857 C115.68809,79.7688352 105.147436,71.6052143 105.957885,86.6693736 C106.661077,99.7397912 97.6485256,100.872912 96.5970513,107.917786 C95.5455769,114.96206 92.6996667,120.943885 86.5752051,122.994522 C77.6253205,125.990225 70.748859,115.159698 77.5078205,110.066643 C84.2667821,104.974187 71.101359,97.4310275 81.4642564,91.4078791 C91.8277564,85.3847308 80.7194872,71.437522 93.7764487,67.8315385 C106.83341,64.224956 102.031577,56.5384797 106.250731,52.4931423 C110.469885,48.4478648 115.325949,53.2232626 120.900269,46.6747582 Z" id="Path" fill="#6B8CFF" fill-rule="nonzero"></path>
                    <path d="M74.3979872,5.94187747 C76.666641,-1.49762407 87.1982564,-0.646112473 91.7174872,2.64787951 C85.3905641,8.33748187 75.8802949,8.11942198 81.4431667,30.5364698 C83.8238974,40.1308654 70.6042436,36.1312242 78.1887179,51.5181313 C84.7693205,64.8693736 74.2853077,69.9845879 76.3521026,77.8098297 C78.4182949,85.6356703 79.8174487,93.0326978 74.3979872,97.8730165 C66.4778846,104.946637 57.1303077,95.9918681 61.8441667,87.6916978 C66.5580256,79.3921264 51.1991487,77.8894835 59.2259051,67.0296099 C67.2527821,56.1699758 49.9475026,48.7012599 61.8441667,39.1808885 C73.7411923,29.660517 61.1433846,24.9045236 63.6982564,18.8181912 C66.2525256,12.7318588 71.5617179,15.2412544 74.3979872,5.94187747 Z" id="Path" fill="#1BE3B3" fill-rule="nonzero"></path>
                    <path d="M17.1101692,47.1734632 C13.0323167,42.952528 3.53605705,45.1818176 0.16336959,47.1308214 C10.3835051,63.1493297 17.7665423,50.9355203 21.6403667,67.8201593 C23.2983821,75.0465 31.8538885,67.5482582 31.9572282,80.4030714 C32.0468897,91.5570055 39.7896577,92.0463077 41.0573923,97.9826154 C42.3250667,103.918324 45.0666731,108.856863 50.3959308,110.278055 C58.183891,112.355044 63.4747051,102.781011 57.4441833,98.8055055 C51.4136013,94.83 62.2394487,87.721044 53.0874641,83.1436429 C43.9352987,78.5662418 52.6698269,66.1192802 41.348491,63.7398462 C30.0272154,61.3598132 33.71545,54.5693527 29.9053167,51.3508582 C26.0951833,48.1323637 22.2075,52.4496022 17.1101692,47.1734632 Z" id="Path" fill="#54B7FF" fill-rule="nonzero"></path>
                    <path d="M69.6027821,132.186456 C68.5507051,108.593945 64.1839231,43.6361736 77.5572308,11.6971973 C78.7231923,8.91236703 81.1726154,2.94733604 87.4995385,2.94733604" id="Path" stroke="#4F4F4F"></path>
                    <path d="M57.2118949,138.472522 C56.6043897,115.932879 46.9296205,66.7265659 13.0908859,50.2183962" id="Path" stroke="#4F4F4F"></path>
                    <path d="M80.0705256,138.662374 C82.2072179,114.199659 95.9468846,61.3352582 133.812615,45.579428" id="Path" stroke="#4F4F4F"></path>
                    <path d="M49.8392218,127.818071 L85.9931282,127.818071 L95.3153974,197.31156 C96.7603462,208.082797 88.3298718,217.653236 77.3969487,217.653236 L58.4351,217.653236 C47.5023577,217.653236 39.0718231,208.082797 40.5167718,197.31156 L49.8392218,127.818071 Z" id="Path" fill="#A3BAFF" fill-rule="nonzero"></path>
                    <rect id="Rectangle" fill="#CCD9FF" fill-rule="nonzero" x="44.4161449" y="127.818071" width="46.3974359" height="6.58791209"></rect>
                </g>
                <g id="Group-24" transform="translate(518.000000, 248.000000) scale(-1, 1) translate(-518.000000, -248.000000) translate(421.000000, 119.000000)">
                    <g id="Chair-1-Copy" transform="translate(78.080495, 139.713820)">
                        <path d="M2.59955796,114.160644 C1.37902167,114.160644 0.422806483,113.107973 0.536123505,111.889693 L10.2695071,7.22657692 L16.2413437,7.8695616 L4.65925536,112.312447 C4.54256706,113.364517 3.65548254,114.160644 2.59955796,114.160644 Z" id="Path" fill="#627AC1"></path>
                        <path d="M20.0174966,114.160644 C18.7969783,114.160644 17.8407926,113.107973 17.9540693,111.889693 L27.6874638,7.22657692 L33.6593003,7.8695616 L22.0772,112.312447 C21.9604997,113.364517 21.0734452,114.160644 20.0174966,114.160644 Z" id="Path" fill="#627AC1"></path>
                        <path d="M72.2268607,114.160644 C73.4473189,114.160644 74.4035046,113.107973 74.2899876,111.889693 L64.5569536,7.22657692 L58.5849969,7.8695616 L70.1673375,112.312447 C70.2838576,113.364517 71.1709721,114.160644 72.2268607,114.160644 Z" id="Path" fill="#627AC1"></path>
                        <rect id="Rectangle" fill="#A3BAFF" fill-rule="nonzero" x="3.32804297" y="0" width="75.0773994" height="9.63543589" rx="4.81771795"></rect>
                    </g>
                    <g id="Group-23">
                        <g id="Woman-low-1-Copy" transform="translate(83.486068, 116.227445)">
                            <path d="M87.2279257,133.722988 L80.1400186,127.631586 C76.3693313,124.391069 77.0906749,114.494271 77.0906749,114.494271 L66.9534241,113.944449 L66.9534241,124.93246 L65.3095294,130.701677 L86.405678,134.82203 L87.2279257,133.722988 Z" id="Path" fill="#FFAE64" fill-rule="nonzero"></path>
                            <path d="M85.0921238,134.145743 L66.4056594,129.328025 C64.7515542,130.820313 64.1731579,133.173768 64.9461548,135.265862 L66.4056594,139.216993 L74.3506502,139.766815 L74.8990155,137.843944 L78.9471889,139.36574 C80.6181115,139.994453 82.3881362,140.316035 84.1731765,140.316035 L90.4892879,140.316035 C91.3535789,140.316035 92.1530031,139.855943 92.588452,139.106788 C93.2611455,137.951138 92.8785511,136.468485 91.7313684,135.784369 L83.6662539,130.976287 L85.8374923,132.559509 C86.279548,132.882296 86.33,133.52486 85.9432012,133.912686 C85.7203715,134.135505 85.3966378,134.224633 85.0921238,134.145743 Z" id="Path" fill="#2C2770" fill-rule="nonzero"></path>
                            <path d="M55.3951084,133.953636 L48.306961,127.862234 C44.5363337,124.621717 45.2577975,114.72492 45.2577975,114.72492 L35.1207269,114.175098 L35.1207269,125.163108 L33.4768923,130.932325 L54.5729808,135.052678 L55.3951084,133.953636 Z" id="Path" fill="#FFAE64" fill-rule="nonzero"></path>
                            <path d="M53.2591263,134.376391 L34.5728421,129.558673 C32.918857,131.050961 32.3404607,133.404417 33.1132774,135.496511 L34.5728421,139.448244 L42.5181331,139.997464 L43.066078,138.074592 L47.1146718,139.596389 C48.7855944,140.225101 50.5555591,140.546683 52.3401189,140.546683 L58.6564706,140.546683 C59.5207616,140.546683 60.3201858,140.086591 60.7556347,139.338038 C61.4283282,138.181786 61.0457337,136.699133 59.8985511,136.015017 L51.8332563,131.206935 L54.0044347,132.790158 C54.4468508,133.112945 54.4971226,133.755508 54.1103238,134.143334 C53.8876743,134.366154 53.5640006,134.455281 53.2591263,134.376391 Z" id="Path" fill="#2C2770" fill-rule="nonzero"></path>
                            <path d="M48.3392142,122.195996 L33.3346656,122.195996 L33.3346656,41.5528173 L13.9610929,31.5126329 C2.95516656,25.8088764 -2.31950124,12.9588182 1.49367988,1.13981184 L46.5482879,0.301107372 L84.0110093,24.2717232 C88.9919443,27.4588243 91.6454799,33.2786276 90.7907988,39.1407666 L78.6811146,122.195996 L65.1671827,122.195996 L64.2662539,42.7572468 L59.759808,40.3903019 C59.7934427,41.1343383 59.7586068,41.8875282 59.6516966,42.6410193 L48.3392142,122.195996 Z" id="Path" fill="#303570"></path>
                            <path d="M1.2015387,1.20442949 C3.00339628,17.1631202 9.00958824,26.4974487 38.7402384,37.6384215 L35.4368328,122.5507" id="Path" stroke="#FFFFFF"></path>
                            <polyline id="Path" stroke="#FFFFFF" points="59.1609907 33.1218109 69.9721362 39.7461731 67.869969 121.948486"></polyline>
                        </g>
                        <g id="Woman-top-6-Copy">
                            <g id="Group-25" transform="translate(0.108091, 62.668752)">
                                <path d="M61.1742866,20.7933941 L73.6797789,14.8326725 L83.622429,24.2410735 L71.9884352,30.5848036 C64.7377603,34.5383434 55.9708222,34.4835418 48.7699987,30.4390676 L23.0573708,15.9985603 L17.6603269,16.3424249 L13.1246309,16.3424249 C11.570769,16.3424249 10.0978104,15.6474691 9.10720921,14.4472551 C8.38856834,13.5764526 8.1115027,12.4214047 8.35655534,11.3181473 L9.59341044,5.75006978 L1.03754797,3.43154301 C0.206615335,3.2063147 -0.228004727,2.29094829 0.121567657,1.50204698 C0.376380351,0.927534113 0.980879546,0.592100501 1.60198586,0.681228283 L12.0592525,2.17893635 L12.713507,0.953429347 C13.085951,0.256064674 13.8675368,-0.116706252 14.6422755,0.0326430041 L18.121182,0.703510228 C19.2165312,0.914285388 20.2044897,1.50144476 20.9156228,2.36321406 L24.6812049,6.92559296 L61.1742866,20.7933941 Z" id="Path" fill="#FFAE64" fill-rule="nonzero"></path>
                                <path d="M8.7715832,9.59581313 L15.2932265,10.7635075 C15.9404538,10.8791327 16.5666594,10.4726378 16.7261238,9.83308574 L16.7261238,9.83308574 C16.8777801,9.22484884 16.5580104,8.5979433 15.9774519,8.36548841 L14.2510922,7.67294145" id="Path" stroke="#000000"></path>
                                <path d="M8.15240487,12.6538596 L14.8119504,13.1272004 C15.4388767,13.1717643 15.9931281,12.7219099 16.0802779,12.0980154 L16.0802779,12.0980154 C16.1688693,11.463281 15.7436309,10.8707017 15.1150829,10.7538721 L14.798977,10.694855" id="Path" stroke="#000000"></path>
                                <path d="M11.2374253,15.6390381 L16.4070748,15.8353601 C17.0627108,15.8600509 17.6307163,15.383699 17.7217101,14.7321027 L17.7217101,14.7321027 C17.8095807,14.1021861 17.4238631,13.5029824 16.8153758,13.3241246 L15.346982,12.8923366" id="Path" stroke="#000000"></path>
                                <path d="M11.7853101,3.27737604 L10.355416,8.77318779 C10.2349919,9.23629093 10.493138,9.713245 10.9457646,9.8644009 L10.9457646,9.8644009 C11.9242334,10.1914035 12.999582,9.81441708 13.5617015,8.94783006 L16.1688693,4.92563779 C16.0775751,6.0246797 17.9223169,9.04659328 20.5524885,11.2440749" id="Path" stroke="#000000"></path>
                            </g>
                            <path d="M159.281207,55.5531056 L146.017734,59.5403694 L144.935418,73.2058264 L157.808489,70.0881607 C165.83096,68.1454159 172.297226,62.208783 174.933944,54.3673448 L184.347449,26.3652626 L188.580613,22.9911136 L191.945282,19.941197 C193.09787,18.8962942 193.725517,17.390396 193.657647,15.8339118 C193.608396,14.7047592 193.041412,13.6618437 192.121864,13.00826 L187.479678,9.70962875 L192.275622,2.23650511 C192.741102,1.51077613 192.451604,0.539463967 191.664793,0.189577201 C191.091201,-0.0655209641 190.418508,0.0922592987 190.017294,0.575897959 L183.26213,8.71874461 L181.957585,8.24998065 C181.214619,7.9831393 180.385164,8.23179377 179.910675,8.86357726 L177.778477,11.7005507 C177.107585,12.5938158 176.767034,13.6933395 176.815684,14.8106887 L177.074551,20.7273884 L159.281207,55.5531056 Z" id="Path" fill="#FFAE64" fill-rule="nonzero"></path>
                            <path d="M190.661759,12.0096675 L186.605176,17.261221 C186.202762,17.7823776 185.466402,17.9019775 184.92044,17.5348071 L184.92044,17.5348071 C184.400904,17.1855828 184.218916,16.5054415 184.494,15.9423707 L185.311443,14.2679126" id="Path" stroke="#000000"></path>
                            <path d="M193.166941,13.861779 L188.543375,18.6910594 C188.108526,19.1457316 187.396192,19.1847551 186.913895,18.7803679 L186.913895,18.7803679 C186.423789,18.3690552 186.343307,17.6436875 186.730706,17.1340934 L186.925907,16.8777908" id="Path" stroke="#000000"></path>
                            <path d="M192.87504,18.1506319 L189.171622,21.7724116 C188.701938,22.2317208 187.961375,22.2600249 187.458656,21.8379326 L187.458656,21.8379326 C186.972155,21.4299321 186.857437,20.7261839 187.188978,20.1841907 L187.989604,18.8763609" id="Path" stroke="#000000"></path>
                            <path d="M184.200297,9.34956455 L188.93678,12.4645805 C189.335591,12.7269655 189.463523,13.2545056 189.228681,13.6710576 L189.228681,13.6710576 C188.721759,14.5716095 187.671876,15.0150804 186.674848,14.749865 L182.051282,13.5198414 C182.853709,14.2735132 183.506582,17.7553984 183.025486,21.154178" id="Path" stroke="#000000"></path>
                            <path d="M86.692774,63.1789509 L97.9627926,59.1507365 C101.312446,59.1507365 110.022025,58.980912 118.061313,58.3028182 C126.100601,57.6241221 140.671622,58.3028182 152.395709,56.6063792 L154.908099,71.872523 C149.88392,74.4168803 142.346749,76.9612375 132.297789,78.6576765 C135.647443,88.8351056 133.414341,90.5309424 130.622663,93.923218 L128.110272,104.949168 L134.198149,119.238519 L84.5641796,119.238519 L89.7024768,103.580936 L86.6885697,86.2744885 L76.1897461,93.0752996 L66.1401858,80.3535132 L81.4019195,66.3694846 C82.9359009,64.9639154 84.7347554,63.8793267 86.692774,63.1789509 Z" id="Path" fill="#6B8CFF" fill-rule="nonzero"></path>
                            <g id="Clipped" transform="translate(66.068111, 56.005971)">
                                <mask id="mask-11" fill="white">
                                    <use xlink:href="#path-10"></use>
                                </mask>
                                <g id="Path"></g>
                                <path d="M71.3061115,-7.0910786 C67.1960743,9.39093671 111.853913,19.8297271 108.840607,39.6082659 C105.8267,59.3868047 29.6615789,106.086149 2.53821672,91.8016155 C-24.5853257,77.5170818 -23.4894359,52.5191478 28.0176842,53.6181897 C79.5249845,54.7172316 91.5800124,31.9167792 79.2511022,19.8297271 C66.922192,7.74267495 30.757709,44.8276611 29.6615789,29.4440854 C28.5660495,14.061112 74.8677833,9.39093671 56.2371765,-1.87168342 C40.9700372,-11.1012266 34.8671455,17.6322455 18.1549164,21.2033789 C4.78453251,24.0602856 -2.57605573,19.0974339 -4.58512693,16.2585936 C-17.2793938,22.3933552 -36.585517,36.3665439 -12.2565356,43.1793993 C12.0724458,49.9922547 53.5890464,41.2565276 71.3061115,36.0371325" id="Path" stroke="#A3B7FF" stroke-width="7" mask="url(#mask-11)"></path>
                            </g>
                            <path d="M123.716743,24.2843697 C123.042248,18.8745543 117.815659,18.0855927 115.286452,18.367369 C113.881604,17.5221004 111.071307,14.1409055 105.170223,14.9861741 C99.2685387,15.8314427 92.5241858,19.2126376 94.2101238,26.8201154 C94.2101238,26.8201154 90.2760681,36.4002679 89.1523096,40.3447745 C85.7798328,48.7974606 90.6592632,54.9286089 97.5826006,55.55973 C106.856161,56.4046373 102.641015,55.55973 116.97239,57.2501468 C131.304365,58.9405636 132.147034,47.1070439 128.775158,39.499265 C125.402681,31.8917873 124.560012,31.0465789 123.716743,24.2843697 Z" id="Path" fill="#2C2770" fill-rule="nonzero"></path>
                            <path d="M119.501598,30.20125 L119.501598,32.7371161 C120.625957,32.4553398 122.874074,32.3989725 122.874074,34.4276533 C122.874074,36.9633387 121.187536,38.6543577 119.501598,37.8088482 C119.282972,40.4435377 117.869115,45.6442642 113.665981,47.8122373 C113.816737,49.7989438 114.256991,52.6504306 115.286452,54.7142205 C116.635443,57.4193691 119.220508,58.6587271 120.344867,58.9405636 C118.658929,60.9128168 113.937461,64.8579256 108.542099,64.8579256 C103.146737,64.8579256 98.9874489,60.9128168 97.5826006,58.9405636 C98.42587,58.6587271 100.617529,57.5885915 102.641015,55.55973 C104.233858,53.9626565 104.537771,50.1656925 104.457889,47.3852671 C100.954477,45.0221764 99.8859752,40.2833486 99.2685387,37.8088482 C98.1447802,38.0906847 95.8966625,37.9780706 95.8966625,35.2729219 C95.8966625,32.5680744 98.42587,32.4553398 99.2685387,32.7371161 L99.2685387,30.20125 C100.955077,30.4830263 105.338396,30.3703519 109.385368,27.6654442 C113.43174,24.9605365 114.443183,23.7208172 114.443183,23.4390409 C114.443183,24.8478621 115.063022,27.4414805 116.129721,28.5107128 C117.815659,30.20125 118.939418,29.919534 119.501598,30.20125 Z" id="Path" fill="#FFAE64" fill-rule="nonzero"></path>
                            <path d="M112.44252,41.7726257 L108.606365,43.6954973 C108.880848,44.2447172 109.757152,44.9589439 111.072508,44.5193271 C112.387263,44.0803126 112.533814,42.6879921 112.44252,41.7726257 Z" id="Path" fill="#FFFFFF" fill-rule="nonzero"></path>
                            <rect id="Rectangle" fill="#2C2770" fill-rule="nonzero" x="100.661375" y="30.2350343" width="4.38360118" height="1.64821358" rx="0.824106788"></rect>
                            <rect id="Rectangle" fill="#2C2770" fill-rule="nonzero" x="111.620272" y="30.2350343" width="4.38360118" height="1.64821358" rx="0.824106788"></rect>
                            <ellipse id="Oval" fill="#000000" fill-rule="nonzero" cx="113.53805" cy="33.8061075" rx="1" ry="1"></ellipse>
                            <polyline id="Path" stroke="#000000" points="107.236954 31.3338353 107.236954 41.2234058 109.702495 41.2234058"></polyline>
                            <ellipse id="Oval" fill="#000000" fill-rule="nonzero" cx="103.126916" cy="33.8061075" rx="1" ry="1"></ellipse>
                            <path d="M120.935276,34.3555682 C121.209158,34.9965656 121.264415,36.3334221 119.291381,36.5532305" id="Path" stroke="#000000"></path>
                            <path d="M97.5123282,34.3555682 C97.2384458,34.9965656 97.1837895,36.3334221 99.1562229,36.5532305" id="Path" stroke="#000000"></path>
                            <g id="Clipped" transform="translate(95.498452, 22.884160)">
                                <mask id="mask-13" fill="white">
                                    <use xlink:href="#path-12"></use>
                                </mask>
                                <g id="Path"></g>
                                <path d="M8.17682972,24.1078606 C8.90718266,24.5655438 11.2453932,25.7561224 13.6562786,25.7561224 C15.9446378,25.7561224 18.0852446,25.0135916 18.7651455,24.7028488 L18.8618452,24.6570804 C18.8336161,24.6709314 18.8017833,24.686589 18.7651455,24.7028488 L7.90234675,29.8764756 L8.17682972,24.1078606 Z" id="Path" fill="#FF8282" fill-rule="nonzero" mask="url(#mask-13)"></path>
                            </g>
                        </g>
                    </g>
                </g>
            </g>
        </g>
    </g>
</svg>