<?xml version="1.0" encoding="UTF-8"?>
<svg width="22px" height="23px" viewBox="0 0 22 23" version="1.1" xmlns="http://www.w3.org/2000/svg" xmlns:xlink="http://www.w3.org/1999/xlink">
    <!-- Generator: Sketch 55.2 (78181) - https://sketchapp.com -->
    <title>Group 5</title>
    <desc>Created with Sketch.</desc>
    <g id="Symbols" stroke="none" stroke-width="1" fill="none" fill-rule="evenodd">
        <g id="Table-Row---3" transform="translate(-1078.000000, -18.000000)">
            <g id="Group-5" transform="translate(1079.206586, 19.580677)">
                <g id="inbox" transform="translate(0.793414, 1.419323)"></g>
                <g id="Group-3">
                    <g id="Add-icon-Copy-4" stroke="#4B90F3" stroke-linecap="round" stroke-linejoin="round" stroke-width="1.5">
                        <g id="Group-6">
                            <circle id="Oval" cx="10" cy="10" r="10"></circle>
                        </g>
                    </g>
                    <g id="Group-2" transform="translate(5.402153, 4.739858)" fill="#4B90F3" fill-rule="nonzero">
                        <path d="M0.000467575529,1.68601661 C0.000467575529,1.54634242 0.113628498,1.43311412 0.25321957,1.43311412 L8.93632051,1.43311412 C9.07591158,1.43311412 9.1890725,1.54634242 9.1890725,1.68601661 L9.1890725,8.43081648 C9.1890725,8.84983905 8.84958973,9.18952396 8.43081652,9.18952396 L0.758723558,9.18952396 C0.339950343,9.18952396 0.000467575529,8.84983905 0.000467575529,8.43081648 L0.000467575529,1.68601661 Z M0.505971564,8.43081648 C0.505971564,8.57049067 0.619132486,8.68371897 0.758723558,8.68371897 L8.43081652,8.68371897 C8.57040759,8.68371897 8.68356851,8.57049067 8.68356851,8.43081648 L8.68356851,1.9389191 L0.505971564,1.9389191 L0.505971564,8.43081648 Z" id="Path-2"></path>
                        <path d="M1.61281748,3.77475828e-15 L7.6346419,3.77475828e-15 C7.87686217,3.77475828e-15 8.1045062,0.115790585 8.24724695,0.311600074 L9.14052219,1.53698081 C9.26235018,1.7041025 9.1430534,1.9389191 8.93632051,1.9389191 L0.25321957,1.9389191 C0.0429878562,1.9389191 -0.0753516761,1.69706313 0.0535828222,1.53091225 L1.01390723,0.293394387 C1.15754606,0.108294841 1.3786099,3.77475828e-15 1.61281748,3.77475828e-15 Z M7.83884358,0.609671674 C7.79126333,0.544401844 7.71538199,0.505804983 7.6346419,0.505804983 L1.61281748,0.505804983 C1.53474828,0.505804983 1.46106034,0.541903263 1.41318073,0.603603112 L0.769473115,1.43311412 L8.43911477,1.43311412 L7.83884358,0.609671674 Z" id="Path-2-Copy"></path>
                        <path d="M6.43804812,3.43652509 L6.43804812,6.42360801 C6.43804812,6.61404732 6.28375844,6.76842887 6.09343246,6.76842887 L3.10812709,6.76842887 C2.91780112,6.76842887 2.76351143,6.61404732 2.76351143,6.42360801 C2.76351143,6.33215584 2.79981905,6.2444493 2.86444702,6.17978285 L3.24726569,5.79673623 C3.38184648,5.66207531 3.38184648,5.44374682 3.24726569,5.3090859 L2.83878354,4.90036053 C2.70420276,4.76569961 2.70420276,4.54737111 2.83878354,4.41271019 L4.10079064,3.14995166 C4.23537142,3.01529074 4.45356999,3.01529074 4.58815078,3.14995166 L4.99663293,3.55867703 C5.13121371,3.69333795 5.34941228,3.69333795 5.48399307,3.55867703 L5.84975239,3.19269992 C5.98433318,3.058039 6.20253175,3.058039 6.33711253,3.19269992 C6.40174051,3.25736638 6.43804812,3.34507291 6.43804812,3.43652509 Z M5.783907,3.85876954 C5.48368833,4.15916698 4.99693767,4.15916698 4.69671899,3.85876954 L4.34447071,3.50631152 L3.19493134,4.65653536 L3.54717962,5.00899339 C3.8473983,5.30939083 3.8473983,5.79643131 3.54717962,6.09682875 L3.30012151,6.34403397 L6.01390577,6.34403397 L6.01390577,3.62863383 L5.783907,3.85876954 Z" id="Rectangle" transform="translate(4.587948, 4.908692) rotate(45.000000) translate(-4.587948, -4.908692) "></path>
                    </g>
                </g>
            </g>
        </g>
    </g>
</svg>