<svg xmlns="http://www.w3.org/2000/svg" width="22" height="22" viewBox="0 0 22 22">
    <g fill="none" fill-rule="evenodd" stroke="#2F3744">
        <circle cx="10" cy="10" r="10" stroke-linecap="round" stroke-linejoin="round" stroke-width="1.5" transform="translate(1 1)"/>
        <path fill="#2F3744" fill-rule="nonzero" stroke-width=".2" d="M13.078 16.889h-4.41a1.609 1.609 0 0 1-1.606-1.606v-4.927c0-.164.109-.273.272-.273.163 0 .272.11.272.273v4.927c0 .599.49 1.061 1.062 1.061h4.41c.599 0 1.061-.49 1.061-1.061v-4.927c0-.164.11-.273.273-.273.163 0 .272.11.272.273v4.927c0 .87-.735 1.606-1.606 1.606zm1.443-9.555c.626 0 1.143.463 1.143 1.089 0 .626-.49 1.116-1.116 1.116H7.225c-.626 0-1.116-.463-1.116-1.089 0-.626.49-1.116 1.116-1.116h2.069A1.607 1.607 0 0 1 10.873 6c.79 0 1.443.572 1.579 1.334h2.069zm-3.648-.79c-.49 0-.899.327-1.035.79h2.042a1.023 1.023 0 0 0-1.007-.79zm3.648 2.45c.326 0 .571-.245.598-.571a.575.575 0 0 0-.571-.572H7.225a.575.575 0 0 0-.572.572c0 .326.273.571.572.571h7.296zm-5.554 6.561c-.163 0-.272-.109-.272-.272v-4.546c0-.164.109-.273.272-.273.164 0 .272.11.272.273v4.546a.293.293 0 0 1-.272.272zm3.811 0c-.163 0-.272-.109-.272-.272v-4.546c0-.164.109-.273.272-.273.164 0 .273.11.273.273v4.546a.293.293 0 0 1-.273.272zm-1.905 0c-.164 0-.272-.109-.272-.272v-4.546c0-.164.108-.273.272-.273.163 0 .272.11.272.273v4.546a.293.293 0 0 1-.272.272z"/>
    </g>
</svg>
