<svg xmlns="http://www.w3.org/2000/svg" width="22" height="22" viewBox="0 0 22 22">
    <g fill="none" fill-rule="evenodd">
        <circle cx="10" cy="10" r="10" stroke="#2F3744" stroke-linecap="round" stroke-linejoin="round" stroke-width="1.5" transform="translate(1 1)"/>
        <path fill="#2F3744" fill-rule="nonzero" d="M15.339 6.647a2.202 2.202 0 0 0-3.117 0L6.507 12.36a.286.286 0 0 0-.08.163l-.424 3.137c-.013.089.019.178.08.24a.29.29 0 0 0 .203.085c.013 0 .025 0 .038-.002l1.89-.255a.288.288 0 1 0-.077-.57l-1.515.204.296-2.187 2.302 2.302a.282.282 0 0 0 .404 0l5.715-5.713a2.19 2.19 0 0 0 .647-1.56c0-.589-.23-1.142-.647-1.557zm-3.006.702l.96.96-5.216 5.214-.96-.96 5.216-5.214zm-2.909 7.52l-.938-.94L13.7 8.716l.938.938-5.215 5.215zm5.615-5.626l-2.296-2.296c.292-.24.656-.372 1.039-.372a1.626 1.626 0 0 1 1.63 1.63c0 .384-.133.746-.373 1.038z"/>
    </g>
</svg>
