<?xml version="1.0" encoding="UTF-8"?>
<svg width="23px" height="23px" viewBox="0 0 23 23" version="1.1" xmlns="http://www.w3.org/2000/svg" xmlns:xlink="http://www.w3.org/1999/xlink">
    <!-- Generator: Sketch 55.2 (78181) - https://sketchapp.com -->
    <title>Group 4</title>
    <desc>Created with Sketch.</desc>
    <g id="Symbols" stroke="none" stroke-width="1" fill="none" fill-rule="evenodd">
        <g id="Table-Row---3" transform="translate(-1106.000000, -18.000000)">
            <g id="Group-4" transform="translate(1107.500000, 19.580677)">
                <g id="Group-3-Copy" stroke="#4B90F3" stroke-linecap="round" stroke-linejoin="round" stroke-width="1.5">
                    <g id="Add-icon-Copy-4">
                        <g id="Group-6">
                            <circle id="Oval" cx="10" cy="10" r="10"></circle>
                        </g>
                    </g>
                </g>
                <path d="M15.1647327,9.79650305 C15.2533775,9.91767962 15.2533775,10.0823204 15.1647327,10.2035991 C15.0712653,10.3313352 12.8442523,13.3341847 9.99995402,13.3341847 C7.15565573,13.3341847 4.9285406,10.3313556 4.83517538,10.203497 C4.74665313,10.0821978 4.74665313,9.91767962 4.83517538,9.79638044 C4.9285406,9.66864439 7.15565573,6.66581526 9.99995402,6.66581526 C12.8442523,6.66581526 15.0712653,9.66864439 15.1647327,9.79650305 Z M9.99995402,12.6443569 C12.0995783,12.6443569 13.9103814,10.6523407 14.4468483,10.000235 C13.9094619,9.34833362 12.0949806,7.35564306 9.99995402,7.35564306 C7.90032973,7.35564306 6.08952664,9.34763885 5.55305975,9.999765 C6.09022141,10.651319 7.90482532,12.6443569 9.99995402,12.6443569 Z M9.99995402,7.93050638 C11.1410573,7.93050638 12.0694579,8.85890695 12.0694579,10.0000102 C12.0694579,11.1411135 11.1410573,12.0695141 9.99995402,12.0695141 C8.85885075,12.0695141 7.93045018,11.1411135 7.93045018,10.0000102 C7.93045018,8.85890695 8.85885075,7.93050638 9.99995402,7.93050638 Z M9.99995402,11.3796658 C10.7607304,11.3796658 11.3796096,10.7607662 11.3796096,10.0000102 C11.3796096,9.23925427 10.76071,8.62035461 9.99995402,8.62035461 C9.23919808,8.62035461 8.62029842,9.23925427 8.62029842,10.0000102 C8.62029842,10.7607662 9.23917764,11.3796658 9.99995402,11.3796658 Z" id="Combined-Shape" fill="#4B90F3" fill-rule="nonzero"></path>
            </g>
        </g>
    </g>
</svg>