<?xml version="1.0" encoding="UTF-8"?>
<svg width="20px" height="17px" viewBox="0 0 20 17" version="1.1" xmlns="http://www.w3.org/2000/svg" xmlns:xlink="http://www.w3.org/1999/xlink">
    <!-- Generator: Sketch 53.2 (72643) - https://sketchapp.com -->
    <title>Icons / Eye Slashed</title>
    <desc>Created with Sketch.</desc>
    <g id="Symbols" stroke="none" stroke-width="1" fill="none" fill-rule="evenodd">
        <g id="Input-Style-2" transform="translate(-260.000000, -40.000000)" fill="#AFAFAF">
            <g id="Icons-/-Eye-Slashed">
                <g transform="translate(260.000000, 40.000000)">
                    <g transform="translate(10.000000, 8.500000) scale(-1, 1) translate(-10.000000, -8.500000) ">
                        <path d="M9.4887931,5.37522414 L12.2474138,8.18901724 L12.2605501,8.04162808 C12.2605501,6.56325616 11.0826765,5.36182512 9.63329228,5.36182512 L9.4887931,5.37522414 Z" id="Path" fill-rule="nonzero"></path>
                        <path d="M9.63329228,3.57531773 C12.0503695,3.57531773 14.012069,5.57625123 14.012069,8.04166995 C14.012069,8.61782759 13.8982348,9.16718719 13.7011905,9.67186946 L16.2627668,12.2846773 C17.5851396,11.1591601 18.6272989,9.70314778 19.270977,8.04166995 C17.7515599,4.12023892 14.0164614,1.34216256 9.63333333,1.34216256 C8.40726601,1.34216256 7.23378489,1.56546552 6.14347291,1.96743596 L8.03509852,3.89241379 C8.52984401,3.69590887 9.06843186,3.57531773 9.63329228,3.57531773 Z" id="Path" fill-rule="nonzero"></path>
                        <path d="M0.875738916,1.14113547 L2.87245484,3.17778571 L3.27093596,3.58423645 C1.82594417,4.73655172 0.683087028,6.2685197 0,8.04162808 C1.51506568,11.9630591 5.2545156,14.7411355 9.63329228,14.7411355 C10.9907225,14.7411355 12.2868227,14.4731552 13.4734811,13.9863103 L13.8456897,14.3659631 L16.3985222,16.9742906 L17.5151067,15.8398547 L1.99232348,0.00221921182 L0.875738916,1.14113547 Z M5.71867816,6.0764532 L7.07171593,7.45655172 C7.03230706,7.64861823 7.00603448,7.84064286 7.00603448,8.04162808 C7.00603448,9.52 8.18390805,10.721431 9.63329228,10.721431 C9.83033662,10.721431 10.0186371,10.694633 10.2025452,10.654436 L11.5555829,12.0345345 C10.9731938,12.3293128 10.3251642,12.5079803 9.63329228,12.5079803 C7.21621511,12.5079803 5.2545156,10.5070468 5.2545156,8.04162808 C5.2545156,7.33596059 5.4296798,6.67492857 5.71867816,6.0764532 Z" id="Shape" fill-rule="nonzero"></path>
                    </g>
                </g>
            </g>
        </g>
    </g>
</svg>