<?xml version="1.0" encoding="UTF-8"?>
<svg width="60px" height="60px" viewBox="0 0 60 60" version="1.1" xmlns="http://www.w3.org/2000/svg" xmlns:xlink="http://www.w3.org/1999/xlink">
    <!-- Generator: Sketch 54.1 (76490) - https://sketchapp.com -->
    <title>Group 25</title>
    <desc>Created with Sketch.</desc>
    <g id="Admin-Manager" stroke="none" stroke-width="1" fill="none" fill-rule="evenodd">
        <g id="Admin-Manager---Dashboad" transform="translate(-403.000000, -230.000000)">
            <g id="Group-38" transform="translate(151.000000, 210.000000)">
                <g id="Group-39" transform="translate(234.000000, 0.000000)">
                    <g id="Group-25" transform="translate(18.000000, 20.000000)">
                        <rect id="Rectangle" fill="#FFEACE" x="0" y="0" width="60" height="60" rx="3"></rect>
                        <g id="Icons-/-Follow-up" transform="translate(13.000000, 13.000000)" fill="#FF9809">
                            <g>
                                <path d="M6.1684518,10.8544304 L13.3252191,10.8544304 C13.9182288,10.8544304 14.3987342,10.3586709 14.3987342,9.74683544 C14.3987342,9.135 13.9182288,8.63924051 13.3252191,8.63924051 L6.1684518,8.63924051 C5.57544206,8.63924051 5.09493671,9.135 5.09493671,9.74683544 C5.09493671,10.3586709 5.57544206,10.8544304 6.1684518,10.8544304 Z" id="Path" stroke="#FFEACE" stroke-width="0.5" fill-rule="nonzero"></path>
                                <path d="M6.19067452,16.1708861 L22.1637559,16.1708861 C22.7690414,16.1708861 23.2594937,15.6751266 23.2594937,15.0632911 C23.2594937,14.4516034 22.7690414,13.9556962 22.1637559,13.9556962 L6.19067452,13.9556962 C5.58538895,13.9556962 5.09493671,14.4516034 5.09493671,15.0632911 C5.09493671,15.6749789 5.58538895,16.1708861 6.19067452,16.1708861 Z" id="Path" stroke="#FFEACE" stroke-width="0.5" fill-rule="nonzero"></path>
                                <path d="M27.8188123,22.735678 L27.8188123,26.4906564 C27.8188123,26.9082825 27.4802594,27.2468354 27.0626333,27.2468354 C26.6450071,27.2468354 26.3064542,26.9082825 26.3064542,26.4906564 L26.3064542,22.761163 L24.9816203,24.0673832 C24.6910234,24.3511181 24.2178794,24.3533244 23.9243542,24.0728412 C23.6308394,23.7922139 23.6282577,23.3350311 23.918695,23.0514303 L25.9317851,21.0667575 C26.2428661,20.7629753 26.6567689,20.5977692 27.0972744,20.601322 C27.1312645,20.601736 27.165043,20.6030046 27.1985992,20.6052718 C27.6005289,20.6324282 27.9722985,20.8009049 28.2544016,21.0859742 L30.1407773,22.9913577 C30.4260916,23.2796849 30.4156356,23.7368557 30.1173784,24.012543 C29.8191316,24.2880863 29.3462567,24.2782919 29.0605055,23.9897904 L27.8188123,22.735678 Z" id="Combined-Shape" fill-rule="nonzero"></path>
                                <path d="M34.778481,23.5118923 C34.778481,19.4177234 31.7217655,16.0255914 27.7696323,15.4893234 L27.7696323,10.3440694 C27.7696323,9.25256344 27.1850992,7.8493654 26.4100051,7.08020391 L20.8535088,1.56736919 C20.0801669,0.800104701 18.6751262,0.221518987 17.5853509,0.221518987 L2.77693487,0.221518987 C1.36795157,0.221518987 0.221518987,1.36716248 0.221518987,2.77517598 L0.221518987,32.224824 C0.221518987,33.6328375 1.36795157,34.778481 2.77693487,34.778481 L25.2142165,34.778481 C26.6231998,34.778481 27.7696323,33.6328375 27.7696323,32.224824 L27.7696323,31.5344611 C31.7217655,30.9981931 34.778481,27.6060611 34.778481,23.5118923 Z M24.6654592,8.43378804 L20.2228321,8.43378804 C20.0249699,8.43378804 19.8577727,8.26670591 19.8577727,8.0689799 L19.8577727,3.66384862 L24.6654592,8.43378804 Z M25.2142165,32.5896322 L2.77693487,32.5896322 C2.57892665,32.5896322 2.41187546,32.42255 2.41187546,32.224824 L2.41187546,2.77517598 C2.41187546,2.57744997 2.57892665,2.41036784 2.77693487,2.41036784 L17.5853509,2.41036784 C17.6117812,2.41036784 17.6395257,2.41182707 17.6675623,2.41343223 L17.6675623,8.0689799 C17.6675623,9.47699341 18.8139948,10.6226369 20.2229782,10.6226369 L25.5794219,10.6226369 L25.5794219,15.4894694 C23.3510992,15.7918224 21.4083991,17.0013802 20.1369702,18.734073 C20.1013404,18.7305708 20.0652725,18.7285279 20.0287665,18.7285279 L6.05954911,18.7285279 C5.45457265,18.7285279 4.96437087,19.2183923 4.96437087,19.8229523 C4.96437087,20.4275124 5.45457265,20.9173768 6.05954911,20.9173768 L18.9995911,20.9173768 C18.722876,21.7325041 18.5705732,22.6045415 18.5705732,23.5118923 C18.5705732,24.6808835 18.8217341,25.7916513 19.269735,26.7963329 L14.7232851,26.7963329 C14.1183086,26.7963329 13.6281069,27.2861973 13.6281069,27.8907574 C13.6281069,28.4953174 14.1183086,28.9851818 14.7232851,28.9851818 L20.0284745,28.9851818 C20.2285271,28.9851818 20.4152915,28.9307524 20.5767937,28.8372156 C21.8359567,30.2752893 23.5939368,31.2649408 25.5792759,31.5343152 L25.5792759,32.2246781 C25.5792759,32.422696 25.4120787,32.5896322 25.2142165,32.5896322 Z M26.6744541,29.4214923 C23.4137434,29.4214923 20.7609297,26.7706504 20.7609297,23.5118923 C20.7609297,20.25328 23.4137434,17.6022922 26.6744541,17.6022922 C29.9353108,17.6022922 32.5881245,20.25328 32.5881245,23.5118923 C32.5881245,26.7706504 29.9353108,29.4214923 26.6744541,29.4214923 Z" id="Shape" stroke="#FFEACE" stroke-width="0.5" fill-rule="nonzero"></path>
                            </g>
                        </g>
                    </g>
                </g>
            </g>
        </g>
    </g>
</svg>