<?xml version="1.0" encoding="UTF-8"?>
<svg width="24px" height="20px" viewBox="0 0 24 20" version="1.1" xmlns="http://www.w3.org/2000/svg" xmlns:xlink="http://www.w3.org/1999/xlink">
    <!-- Generator: Sketch 53.2 (72643) - https://sketchapp.com -->
    <title>Icons / Eye</title>
    <desc>Created with Sketch.</desc>
    <g id="Icons-/-Eye" stroke="none" stroke-width="1" fill="none" fill-rule="evenodd">
        <g transform="translate(0.000000, 1.000000)" fill="#2F3744" fill-rule="nonzero" id="Shape">
            <path d="M12.1429914,0.579014778 C9.54277545,0.579014778 7.42485552,1.43521495 5.57030789,2.67331136 C3.53451935,4.03240425 1.8452996,5.89050858 0.874827586,8.5 C3.17866612,13.2763821 6.72742938,16.3288326 12.1429914,16.3288326 C17.5585535,16.3288326 21.9403425,13.4525616 24,8.5 C22.1454545,3.51333333 17.5975369,0.579014778 12.1429914,0.579014778 Z M12.5,13.7152709 C9.42,13.7152709 7.0867406,11.58 7.0867406,8.5 C7.0867406,5.42 9.35741379,3.20625616 12.4374138,3.20625616 C15.5174138,3.20625616 17.6945813,5.42 17.6945813,8.5 C17.6945813,11.58 15.58,13.7152709 12.5,13.7152709 Z M12.45,5.3 C10.665,5.3 9.3,6.665 9.3,8.45 C9.3,10.235 10.665,11.6 12.45,11.6 C14.235,11.6 15.6,10.235 15.6,8.45 C15.6,6.665 14.235,5.3 12.45,5.3 Z"></path>
        </g>
    </g>
</svg>