<?xml version="1.0" encoding="UTF-8"?>
<svg width="6px" height="6px" viewBox="0 0 6 6" version="1.1" xmlns="http://www.w3.org/2000/svg" xmlns:xlink="http://www.w3.org/1999/xlink">
    <!-- Generator: Sketch 54.1 (76490) - https://sketchapp.com -->
    <title>Icons / Close Dark</title>
    <desc>Created with Sketch.</desc>
    <g id="Admin-Manager" stroke="none" stroke-width="1" fill="none" fill-rule="evenodd">
        <g id="Admin-Manager---Edit-User" transform="translate(-819.000000, -713.000000)" fill="#2F3744">
            <g id="Group-14" transform="translate(756.000000, 706.000000)">
                <g id="Icons-/-Close-Dark" transform="translate(63.000000, 7.000000)">
                    <g id="Path">
                        <path d="M3.53063309,3.00006254 L5.89005858,0.640538681 C6.03664714,0.494069086 6.03664714,0.256415602 5.89005858,0.109946007 C5.74347001,-0.0366486689 5.50607659,-0.0366486689 5.35948802,0.109946007 L3.00006254,2.46946987 L0.640511976,0.109946007 C0.493923412,-0.0366486689 0.256529987,-0.0366486689 0.109941423,0.109946007 C-0.036647141,0.256415602 -0.036647141,0.494069086 0.109941423,0.640538681 L2.46949198,3.00006254 L0.109941423,5.3595864 C-0.036647141,5.50605599 -0.036647141,5.74370948 0.109941423,5.89017907 C0.183235705,5.96335133 0.27929374,6 0.375226699,6 C0.471159659,6 0.567217694,5.96335133 0.640511976,5.89005399 L3.00006254,3.53053013 L5.35948802,5.89005399 C5.43278231,5.96335133 5.52884034,6 5.6247733,6 C5.72070626,6 5.8167643,5.96335133 5.89005858,5.89005399 C6.03664714,5.7435844 6.03664714,5.50593091 5.89005858,5.35946132 L3.53063309,3.00006254 Z" fill-rule="nonzero"></path>
                    </g>
                </g>
            </g>
        </g>
    </g>
</svg>