<?xml version="1.0" encoding="UTF-8"?>
<svg width="60px" height="60px" viewBox="0 0 60 60" version="1.1" xmlns="http://www.w3.org/2000/svg" xmlns:xlink="http://www.w3.org/1999/xlink">
    <!-- Generator: Sketch 54.1 (76490) - https://sketchapp.com -->
    <title>Group 31</title>
    <desc>Created with Sketch.</desc>
    <g id="Admin-Manager" stroke="none" stroke-width="1" fill="none" fill-rule="evenodd">
        <g id="Admin-Manager---Dashboad" transform="translate(-169.000000, -230.000000)" fill="#4B90F3">
            <g id="Group-38" transform="translate(151.000000, 210.000000)">
                <g id="Group-37">
                    <g id="Group-31" transform="translate(18.000000, 20.000000)">
                        <rect id="Rectangle" opacity="0.200000003" x="0" y="0" width="60" height="60" rx="3"></rect>
                        <g id="Icons-/-Tasks-List-2-color" transform="translate(17.000000, 13.000000)">
                            <g id="Icons-/-Tasks-List-2">
                                <path d="M25.0175444,0 L0.742398793,0 C0.352329545,0 0.036147017,0.312128906 0.036147017,0.697197266 L0.036147017,34.3028027 C0.036147017,34.6878711 0.352329545,35 0.742398793,35 L19.20106,35 C19.3883736,35 19.5680007,34.9265137 19.7004705,34.7958105 L25.5170241,29.0537598 C25.6494247,28.9230566 25.7238654,28.7457324 25.7238654,28.560752 L25.7238654,0.697197266 C25.7238654,0.312128906 25.4076136,0 25.0175444,0 Z M19.9059961,32.6208887 L19.9029492,29.2536426 L23.3138565,29.2567188 L19.9059961,32.6208887 Z M24.3113619,27.8632129 L19.1966282,27.8586328 C19.1964205,27.8586328 19.1962127,27.8586328 19.196005,27.8586328 C19.0086914,27.8586328 18.8290643,27.9321191 18.6965945,28.0628223 C18.5639862,28.1937305 18.4895455,28.3713281 18.4897532,28.5565137 L18.4943235,33.6056055 L1.44865057,33.6056055 L1.44865057,1.39439453 L24.3113619,1.39439453 L24.3113619,27.8632129 Z" id="Shape" fill-rule="nonzero"></path>
                                <path d="M8.6030593,5.86496094 C8.32724787,5.59268555 7.88004972,5.59268555 7.60423828,5.8650293 L5.5257848,7.91683594 L5.00968572,7.40728516 C4.73387429,7.13500977 4.28667614,7.13500977 4.0108647,7.40728516 C3.73505327,7.67956055 3.73498402,8.12102539 4.0108647,8.39330078 L5.02630504,9.39579102 C5.15870561,9.52649414 5.33840199,9.59998047 5.52571555,9.59998047 C5.71302912,9.59998047 5.89265625,9.52649414 6.02512607,9.39579102 L8.60299006,6.85097656 C8.87880149,6.57876953 8.87880149,6.13723633 8.6030593,5.86496094 Z" id="Path" fill-rule="nonzero"></path>
                                <path d="M21.249668,7.25457031 L21.0020401,7.25457031 C20.6119709,7.25457031 20.2957884,7.56669922 20.2957884,7.95176758 C20.2957884,8.33683594 20.6119709,8.64896484 21.0020401,8.64896484 L21.249668,8.64896484 C21.6397372,8.64896484 21.9559197,8.33683594 21.9559197,7.95176758 C21.9559197,7.56669922 21.6397372,7.25457031 21.249668,7.25457031 Z" id="Path" fill-rule="nonzero"></path>
                                <path d="M18.7419513,7.25457031 L10.8340643,7.25457031 C10.443995,7.25457031 10.1278125,7.56669922 10.1278125,7.95176758 C10.1278125,8.33683594 10.443995,8.64896484 10.8340643,8.64896484 L18.7419513,8.64896484 C19.1320206,8.64896484 19.4482031,8.33683594 19.4482031,7.95176758 C19.4482031,7.56669922 19.1320206,7.25457031 18.7419513,7.25457031 Z" id="Path" fill-rule="nonzero"></path>
                                <path d="M8.6030593,12.6144922 C8.32724787,12.3422168 7.88004972,12.3422168 7.60423828,12.6145605 L5.5257848,14.6663672 L5.00968572,14.1568164 C4.73387429,13.884541 4.28667614,13.884541 4.0108647,14.1568164 C3.73505327,14.4290918 3.73498402,14.8705566 4.0108647,15.142832 L5.02630504,16.1453223 C5.15870561,16.2760254 5.33840199,16.3495117 5.52571555,16.3495117 C5.71302912,16.3495117 5.89265625,16.2760254 6.02512607,16.1453223 L8.60299006,13.6005078 C8.87880149,13.3283008 8.87880149,12.8868359 8.6030593,12.6144922 Z" id="Path" fill-rule="nonzero"></path>
                                <path d="M21.2497372,14.0040332 L10.8340643,14.0040332 C10.443995,14.0040332 10.1278125,14.3161621 10.1278125,14.7012305 C10.1278125,15.0862988 10.443995,15.3984277 10.8340643,15.3984277 L21.2497372,15.3984277 C21.6398065,15.3984277 21.955989,15.0862988 21.955989,14.7012305 C21.955989,14.3161621 21.6398065,14.0040332 21.2497372,14.0040332 Z" id="Path" fill-rule="nonzero"></path>
                                <path d="M8.6030593,19.3425586 C8.32724787,19.0702832 7.88004972,19.0702832 7.60423828,19.342627 L5.5257848,21.3944336 L5.00968572,20.8848828 C4.73387429,20.6125391 4.28667614,20.6126074 4.0108647,20.8848828 C3.73505327,21.1571582 3.73498402,21.598623 4.0108647,21.8708984 L5.02630504,22.8733887 C5.15870561,23.0040918 5.33840199,23.0775781 5.52571555,23.0775781 C5.71302912,23.0775781 5.89265625,23.0040918 6.02512607,22.8733887 L8.60299006,20.3285742 C8.87880149,20.0563672 8.87880149,19.6149023 8.6030593,19.3425586 Z" id="Path" fill-rule="nonzero"></path>
                                <path d="M21.249668,20.7320996 L10.8340643,20.7320996 C10.443995,20.7320996 10.1278125,21.0442285 10.1278125,21.4292969 C10.1278125,21.8143652 10.443995,22.1264941 10.8340643,22.1264941 L21.2497372,22.1264941 C21.6397372,22.1264941 21.9559197,21.8143652 21.9559197,21.4292969 C21.9559197,21.0442969 21.6397372,20.7320996 21.249668,20.7320996 Z" id="Path" fill-rule="nonzero"></path>
                            </g>
                        </g>
                    </g>
                </g>
            </g>
        </g>
    </g>
</svg>