<svg xmlns="http://www.w3.org/2000/svg" width="14" height="13" viewBox="0 0 14 13">
    <g fill="#2EC145" fill-rule="nonzero">
        <path d="M12.723 2.688c-.338-.366-.745-.55-1.223-.55H9.985l-.344-.995a1.344 1.344 0 0 0-.47-.62c-.228-.172-.461-.26-.7-.26H5.009c-.238 0-.472.088-.7.26-.227.174-.384.38-.47.62l-.344.996H1.981c-.478 0-.886.183-1.224.55A1.885 1.885 0 0 0 .25 4.013v6.562c0 .518.169.96.507 1.326.338.366.746.55 1.224.55H11.5c.477 0 .885-.184 1.223-.55.338-.366.507-.808.507-1.326V4.014c0-.518-.169-.96-.507-1.326zM8.88 9.613c-.593.642-1.306.963-2.14.963-.834 0-1.547-.32-2.14-.963-.592-.642-.889-1.415-.889-2.318s.297-1.676.89-2.318c.592-.642 1.305-.963 2.14-.963.833 0 1.546.321 2.139.963.593.642.889 1.415.889 2.318s-.296 1.676-.89 2.318z"/>
        <path d="M6.74 5.186c-.536 0-.995.206-1.376.619a2.12 2.12 0 0 0-.571 1.49c0 .581.19 1.078.571 1.49.381.413.84.62 1.376.62.536 0 .995-.207 1.376-.62.38-.412.571-.909.571-1.49a2.12 2.12 0 0 0-.571-1.49c-.38-.413-.84-.62-1.376-.62z"/>
    </g>
</svg>
