<?xml version="1.0" encoding="UTF-8"?>
<svg width="60px" height="60px" viewBox="0 0 60 60" version="1.1" xmlns="http://www.w3.org/2000/svg" xmlns:xlink="http://www.w3.org/1999/xlink">
    <!-- Generator: Sketch 54.1 (76490) - https://sketchapp.com -->
    <title>Group 25</title>
    <desc>Created with Sketch.</desc>
    <g id="Admin-Manager" stroke="none" stroke-width="1" fill="none" fill-rule="evenodd">
        <g id="Admin-Manager---Dashboad" transform="translate(-637.000000, -230.000000)">
            <g id="Group-38" transform="translate(151.000000, 210.000000)">
                <g id="Group-40" transform="translate(468.000000, 0.000000)">
                    <g id="Group-25" transform="translate(18.000000, 20.000000)">
                        <rect id="Rectangle" fill="#F98461" opacity="0.200000003" x="0" y="0" width="60" height="60" rx="3"></rect>
                        <g id="Icons-/-Lock-color" transform="translate(16.000000, 13.000000)">
                            <g id="Icons-/-Lock">
                                <path d="M4.99470269,35 L21.8331029,35 C24.5663776,35 26.7809096,32.8275862 26.7809096,30.0718154 L26.7809096,19.0488742 C26.7809096,16.8161156 25.3843813,14.9051724 23.1897766,14.2816329 L23.1897766,8.99137931 C23.1897766,4.06319473 19.2993825,0 14.4114984,0 L12.416448,0 C7.52849348,0 3.53832223,4.04310345 3.53832223,8.97128803 C3.53832223,9.63508114 4.07699218,10.1781846 4.73536656,10.1781846 C5.39374094,10.1781846 5.9324109,9.61498986 5.9324109,8.95119675 C5.9324109,5.35059838 8.84524225,2.4137931 12.4163776,2.4137931 L14.411428,2.4137931 C17.9826337,2.4137931 20.7956879,5.39078093 20.7956879,8.99137931 L20.7956879,14.0804361 L4.99470269,14.0804361 C2.26142799,14.0804361 0.0468959722,16.3131947 0.0468959722,19.0689655 L0.0468959722,30.0919777 C0.0469663866,32.8275862 2.26149841,35 4.99470269,35 Z M24.3868209,30.0114706 C24.3868209,31.4396552 23.2496288,32.5862069 21.8331029,32.5862069 L4.99470269,32.5862069 C3.57817676,32.5862069 2.44098464,31.4396552 2.44098464,30.0114706 L2.44098464,19.0689655 C2.44098464,17.6407809 3.57817676,16.4942292 4.99470269,16.4942292 L21.8331029,16.4942292 C23.2496288,16.4942292 24.3868209,17.6407809 24.3868209,19.0689655 L24.3868209,30.0114706 L24.3868209,30.0114706 Z" id="Shape" fill="#F98461" fill-rule="nonzero"></path>
                                <path d="M13.0148997,29.5689655 C13.6732741,29.5689655 14.2119441,29.0258621 14.2119441,28.362069 L14.2119441,24.5402535 C14.2119441,23.8764604 13.6732741,23.333357 13.0148997,23.333357 C12.3565254,23.333357 11.8178554,23.8764604 11.8178554,24.5402535 L11.8178554,28.362069 C11.8178554,29.0258621 12.3565254,29.5689655 13.0148997,29.5689655 Z" id="Path" fill="#FF9809" fill-rule="nonzero"></path>
                            </g>
                        </g>
                    </g>
                </g>
            </g>
        </g>
    </g>
</svg>