<?xml version="1.0" encoding="UTF-8"?>
<svg width="21px" height="16px" viewBox="0 0 21 16" version="1.1" xmlns="http://www.w3.org/2000/svg" xmlns:xlink="http://www.w3.org/1999/xlink">
    <!-- Generator: Sketch 56.2 (81672) - https://sketch.com -->
    <title>Combined Shape</title>
    <desc>Created with Sketch.</desc>
    <g id="Page-1" stroke="none" stroke-width="1" fill="none" fill-rule="evenodd">
        <g id="Point-Forward-2" transform="translate(-1541.000000, -511.000000)" fill="#FFFFFF">
            <g id="Group-3" transform="translate(1244.000000, 499.000000)">
                <g id="Group-12-Copy" transform="translate(287.000000, 0.000000)">
                    <g id="share-screen">
                        <path d="M25.7432331,23.2 L25.7432331,16.9599999 C25.7432331,16.0763444 25.0268887,15.36 24.1432332,15.36 L16.3978696,15.36 L16.3978696,13.5999999 C16.3978696,12.7163444 17.114214,12 17.9978696,12 L29.4000001,12 C30.2836556,12 31,12.7163444 31,13.5999999 L31,21.6000001 C31,22.4836556 30.2836556,23.2 29.4000001,23.2 L25.7432331,23.2 Z M11.5999999,16.8 L22.9384616,16.8 C23.8221172,16.8 24.5384615,17.5163444 24.5384615,18.3999999 L24.5384615,26.4000001 C24.5384615,27.2836556 23.8221172,28 22.9384616,28 L11.5999999,28 C10.7163444,28 10,27.2836556 10,26.4000001 L10,18.3999999 C10,17.5163444 10.7163444,16.8 11.5999999,16.8 Z" id="Combined-Shape"></path>
                    </g>
                </g>
            </g>
        </g>
    </g>
</svg>