<svg xmlns="http://www.w3.org/2000/svg" width="18" height="18" viewBox="0 0 18 18">
    <g fill="#2F3744">
        <path d="M5.4 4.8L0 10.2l5.4 5.4 5.4-5.4-5.4-5.4zm-3.048 5.4l3.044-3.043L8.443 10.2 5.4 13.243 2.352 10.2z"/>
        <path d="M15.863 4.982c-1.426-1.487-3.29-2.233-5.158-2.233V0l-3.44 3.597 3.44 3.592V4.444c1.45 0 2.905.58 4.012 1.737 2.216 2.317 2.216 6.07 0 8.388-1.107 1.156-2.561 1.736-4.012 1.736-.786 0-1.568-.173-2.297-.512L7.2 17.055c1.086.627 2.293.945 3.505.945 1.868 0 3.732-.746 5.158-2.233 2.85-2.978 2.85-7.807 0-10.785z"/>
    </g>
</svg>
