<?xml version="1.0" encoding="UTF-8"?>
<svg width="22px" height="22px" viewBox="0 0 22 22" version="1.1" xmlns="http://www.w3.org/2000/svg" xmlns:xlink="http://www.w3.org/1999/xlink">
    <!-- Generator: Sketch 55.2 (78181) - https://sketchapp.com -->
    <title>Add-icon Copy 5</title>
    <desc>Created with Sketch.</desc>
    <g id="Symbols" stroke="none" stroke-width="1" fill="none" fill-rule="evenodd">
        <g id="Table-Row---Function-Set-up-(admin-table)-ab-02" transform="translate(-698.000000, -18.000000)">
            <g id="Group" transform="translate(629.000000, 19.000000)">
                <g id="Delete/duplicate" transform="translate(70.000000, 0.000000)">
                    <g id="Group-6" stroke="#2F3744" stroke-linecap="round" stroke-linejoin="round">
                        <circle id="Oval" stroke-width="1.5" cx="10" cy="10" r="10"></circle>
                    </g>
                    <g id="duplicate" transform="translate(6.000000, 4.000000)" fill="#2F3744">
                        <path d="M8.8975697,2.47372627 L6.47031345,0.100164419 C6.40378203,0.0351047461 6.31416645,0 6.22270769,0 L2.70979539,0 C2.51660848,0 2.35975931,0.153379446 2.35975931,0.342292786 L2.35975931,2.3076439 L0.350036085,2.3076439 C0.156849174,2.3076439 0,2.4609375 0,2.64993667 L0,10.9077072 C0,11.0966206 0.156849174,11.25 0.350036085,11.25 L6.29011684,11.25 C6.48339152,11.25 6.64024069,11.0966206 6.64024069,10.9077072 L6.64024069,8.9423561 L8.64996394,8.9423561 C8.84315085,8.9423561 9,8.7890625 9,8.60006333 L9,2.71585463 C9,2.62882233 8.9657688,2.54041673 8.8975697,2.47372627 Z M8.29992783,8.25777053 L6.64024069,8.25777053 L6.64024069,5.02349854 C6.64024069,4.93483544 6.60495623,4.84703064 6.5377226,4.78128432 L4.11055414,2.4078083 C4.04463711,2.34326362 3.95519711,2.30755805 3.86294838,2.30755805 L3.05991926,2.30755805 L3.05991926,0.684585571 L5.8726716,0.684585571 L5.8726716,2.71585463 C5.8726716,2.904768 6.02952078,3.05814744 6.22270769,3.05814744 L8.29992783,3.05814744 L8.29992783,8.25777053 Z M5.94008076,10.5654144 L0.700072169,10.5654144 L0.700072169,2.99222947 L3.51282453,2.99222947 L3.51282453,5.02349854 C3.51282453,5.21241188 3.66967368,5.36579132 3.86294838,5.36579132 L5.94008076,5.36579132 L5.94008076,10.5654144 Z M4.21298447,3.47622871 L5.44513254,4.68111992 L4.21298447,4.68111992 L4.21298447,3.47622871 Z M7.80489184,2.37356187 L6.57274377,2.37356187 L6.57274377,1.16867065 C6.72678423,1.31921767 7.68201057,2.25339891 7.80489184,2.37356187 Z" id="Shape" fill-rule="nonzero"></path>
                    </g>
                </g>
            </g>
        </g>
    </g>
</svg>