<?xml version="1.0" encoding="UTF-8"?>
<svg width="22px" height="16px" viewBox="0 0 22 16" version="1.1" xmlns="http://www.w3.org/2000/svg" xmlns:xlink="http://www.w3.org/1999/xlink">
    <!-- Generator: Sketch 54.1 (76490) - https://sketchapp.com -->
    <title>Path</title>
    <desc>Created with Sketch.</desc>
    <g id="Admin-Manager" stroke="none" stroke-width="1" fill="none" fill-rule="evenodd">
        <g id="Ticket-management-3.1" transform="translate(-218.000000, -217.000000)" fill="#2F3744" fill-rule="nonzero">
            <g id="Group-5" transform="translate(218.000000, 208.000000)">
                <path d="M6.98308139,9.22634054 C7.28486877,8.92455315 7.75997999,8.92455315 8.06176738,9.22634054 C8.35335924,9.5179324 8.35335924,10.0032391 8.06176738,10.2941513 L2.59221089,15.7637078 L20.6409996,15.7637078 C21.0617347,15.7637078 21.407023,16.0981208 21.407023,16.5188559 C21.407023,16.9395911 21.0617347,17.2848793 20.6409996,17.2848793 L2.59221089,17.2848793 L8.06176738,22.7442403 C8.35335924,23.0460277 8.35335924,23.5320141 8.06176738,23.8229263 C7.75997999,24.1247137 7.28486877,24.1247137 6.98308139,23.8229263 L0.218693898,17.0585388 C-0.0728979661,16.7669469 -0.0728979661,16.2816402 0.218693898,15.990728 L6.98308139,9.22634054 Z" id="Path"></path>
            </g>
        </g>
    </g>
</svg>