<?xml version="1.0" encoding="UTF-8"?>
<svg width="60px" height="60px" viewBox="0 0 60 60" version="1.1" xmlns="http://www.w3.org/2000/svg" xmlns:xlink="http://www.w3.org/1999/xlink">
    <!-- Generator: Sketch 54.1 (76490) - https://sketchapp.com -->
    <title>Group 31</title>
    <desc>Created with Sketch.</desc>
    <g id="Admin-Manager" stroke="none" stroke-width="1" fill="none" fill-rule="evenodd">
        <g id="Admin-Manager---Dashboad" transform="translate(-1105.000000, -230.000000)" fill="#728096">
            <g id="Group-38" transform="translate(151.000000, 210.000000)">
                <g id="Group-24" transform="translate(936.000000, 0.000000)">
                    <g id="Group-31" transform="translate(18.000000, 20.000000)">
                        <rect id="Rectangle" opacity="0.200000003" x="0" y="0" width="60" height="60" rx="3"></rect>
                        <g id="Icons-/-Tasks-List-Color" transform="translate(16.000000, 13.000000)">
                            <g id="Icons-/-Tasks-List">
                                <path d="M23.5540174,4.53727375 L20.4465913,4.53727375 L20.4465913,3.13568438 C20.4465913,2.68221739 19.9559739,2.47611755 19.5062087,2.47611755 L17.0938957,2.47611755 C16.5214957,0.827161031 15.0904174,0.00268276973 13.4549217,0.00268276973 C11.8374261,-0.058626409 10.3662,0.941336554 9.81594783,2.47611755 L7.44448696,2.47611755 C6.99472174,2.47611755 6.54495652,2.68221739 6.54495652,3.13568438 L6.54495652,4.53727375 L3.43745217,4.53727375 C1.59597391,4.5570789 0.0894521739,6.02171337 0.00289565217,7.8763752 L0.00289565217,31.4976103 C0.00289565217,33.3114783 1.6383913,34.6306119 3.43745217,34.6306119 L23.5540174,34.6306119 C25.3530783,34.6306119 26.9885739,33.3114783 26.9885739,31.4976103 L26.9885739,7.87645411 C26.9020174,6.02171337 25.3954957,4.5570789 23.5540174,4.53727375 Z M8.18037391,4.12507407 L10.4292,4.12507407 C10.8217565,4.07678422 11.1370696,3.77568277 11.2060957,3.38305153 C11.4482348,2.31988567 12.3733565,1.55671659 13.4549217,1.52799517 C14.5264696,1.56074074 15.4376609,2.32627697 15.6628174,3.38305153 C15.7361478,3.78925443 16.0722783,4.09422222 16.4805652,4.12507407 L18.8111739,4.12507407 L18.8111739,7.42298712 L8.18037391,7.42298712 L8.18037391,4.12507407 Z M25.3530783,31.4976892 C25.3530783,32.4046232 24.4535478,32.9817343 23.5540174,32.9817343 L3.43745217,32.9817343 C2.53792174,32.9817343 1.6383913,32.4046232 1.6383913,31.4976892 L1.6383913,7.87645411 C1.72181739,6.93243478 2.49753913,6.20358937 3.43745217,6.18630918 L6.54487826,6.18630918 L6.54487826,8.28873269 C6.58807826,8.75064251 6.98486087,9.09616747 7.4444087,9.07202254 L19.5061304,9.07202254 C19.9741304,9.09782448 20.3833565,8.75703382 20.446513,8.28873269 L20.446513,6.18623027 L23.5539391,6.18623027 C24.4937739,6.20358937 25.2695739,6.93235588 25.353,7.8763752 L25.353,31.4976892 L25.3530783,31.4976892 Z" id="Shape" fill-rule="nonzero"></path>
                                <path d="M10.3474174,18.4297601 C10.040713,18.1038035 9.53154783,18.0854187 9.20253913,18.3885717 L6.58573043,20.9031948 L5.48178261,19.7488937 C5.17507826,19.4229372 4.66591304,19.4046312 4.33690435,19.7077053 C4.02018261,20.0422625 4.02018261,20.5686377 4.33690435,20.9031948 L6.01325217,22.6346071 C6.15834783,22.7984138 6.36793043,22.8889968 6.58565217,22.8819742 C6.80133913,22.8788969 7.00708696,22.789971 7.15805217,22.6346071 L10.3472609,19.5840612 C10.6634348,19.2916393 10.6845652,18.7961159 10.3944522,18.4774187 C10.3795826,18.4607697 10.3638522,18.4449098 10.3474174,18.4297601 Z" id="Path" fill-rule="nonzero"></path>
                                <path d="M22.082087,20.2023607 L12.6780261,20.2023607 C12.2263826,20.2023607 11.8602783,20.5714783 11.8602783,21.026839 C11.8602783,21.4821997 12.2263826,21.8513172 12.6780261,21.8513172 L22.082087,21.8513172 C22.5337304,21.8513172 22.8998348,21.4821997 22.8998348,21.026839 C22.8998348,20.5714783 22.5337304,20.2023607 22.082087,20.2023607 Z" id="Path" fill-rule="nonzero"></path>
                                <path d="M10.3474174,11.833934 C10.040713,11.5079775 9.53154783,11.4895926 9.20253913,11.7927456 L6.58573043,14.3073688 L5.48178261,13.1530676 C5.17507826,12.8271111 4.66591304,12.8087262 4.33690435,13.1118792 C4.02018261,13.4464364 4.02018261,13.9728116 4.33690435,14.3073688 L6.01325217,16.038781 C6.15834783,16.2025878 6.36793043,16.2931707 6.58565217,16.2861481 C6.80133913,16.2830709 7.00708696,16.1941449 7.15805217,16.038781 L10.3472609,12.9882351 C10.6634348,12.6958132 10.6845652,12.2002899 10.3944522,11.8815926 C10.3795826,11.8649436 10.3638522,11.8490837 10.3474174,11.833934 Z" id="Path" fill-rule="nonzero"></path>
                                <path d="M22.082087,13.6065346 L12.6780261,13.6065346 C12.2263826,13.6065346 11.8602783,13.9756522 11.8602783,14.4310129 C11.8602783,14.8863736 12.2263826,15.2554911 12.6780261,15.2554911 L22.082087,15.2554911 C22.5337304,15.2554911 22.8998348,14.8863736 22.8998348,14.4310129 C22.8998348,13.9756522 22.5337304,13.6065346 22.082087,13.6065346 Z" id="Path" fill-rule="nonzero"></path>
                                <path d="M10.3474174,25.0255072 C10.040713,24.6995507 9.53154783,24.6812448 9.20253913,24.9843188 L6.58573043,27.498942 L5.48178261,26.3446409 C5.17507826,26.0186844 4.66591304,26.0003784 4.33690435,26.3034525 C4.02018261,26.6380097 4.02018261,27.1643849 4.33690435,27.498942 L6.01325217,29.2303543 C6.15834783,29.394161 6.36793043,29.484744 6.58565217,29.4777214 C6.80133913,29.4746441 7.00708696,29.3857182 7.15805217,29.2303543 L10.3472609,26.1798084 C10.6634348,25.8873865 10.6845652,25.3918631 10.3944522,25.0731659 C10.3795826,25.0565958 10.3638522,25.0407359 10.3474174,25.0255072 Z" id="Path" fill-rule="nonzero"></path>
                                <path d="M22.082087,26.7981868 L12.6780261,26.7981868 C12.2263826,26.7981868 11.8602783,27.1673043 11.8602783,27.6226651 C11.8602783,28.0780258 12.2263826,28.4471433 12.6780261,28.4471433 L22.082087,28.4471433 C22.5337304,28.4471433 22.8998348,28.0780258 22.8998348,27.6226651 C22.8998348,27.1673043 22.5337304,26.7981868 22.082087,26.7981868 Z" id="Path" fill-rule="nonzero"></path>
                            </g>
                        </g>
                    </g>
                </g>
            </g>
        </g>
    </g>
</svg>