<?xml version="1.0" encoding="UTF-8"?>
<svg width="20px" height="21px" viewBox="0 0 20 21" version="1.1" xmlns="http://www.w3.org/2000/svg" xmlns:xlink="http://www.w3.org/1999/xlink">
    <!-- Generator: Sketch 56.2 (81672) - https://sketch.com -->
    <title>webcam-tool-black-circular-shape</title>
    <desc>Created with Sketch.</desc>
    <g id="Page-1" stroke="none" stroke-width="1" fill="none" fill-rule="evenodd">
        <g id="Point-Forward-2" transform="translate(-1385.000000, -509.000000)" fill="#FFFFFF" fill-rule="nonzero">
            <g id="Group-3" transform="translate(1244.000000, 499.000000)">
                <g id="Group-12" transform="translate(131.000000, 0.000000)">
                    <g id="web-camera">
                        <g id="webcam-tool-black-circular-shape" transform="translate(10.000000, 10.000000)">
                            <path d="M17.57,14.7823077 C15.8076923,16.7969231 13.2253846,18.0761538 10.3376923,18.0761538 C7.45,18.0761538 4.86692308,16.7969231 3.10461538,14.7823077 C1.62538462,15.8430769 0.722307692,17.2269231 0.722307692,18.7461538 C0.722307692,22.0746154 5.02692308,20.0853846 10.3376923,20.0853846 C15.6469231,20.0853846 19.9530769,22.0746154 19.9530769,18.7461538 C19.9530769,17.2269231 19.05,15.8430769 17.57,14.7823077 Z" id="Path"></path>
                            <path d="M10.3376923,16.9230769 C15.01,16.9230769 18.7992308,13.1338462 18.7992308,8.46153846 C18.7992308,3.78846154 15.01,0 10.3376923,0 C5.66461538,0 1.87615385,3.78846154 1.87615385,8.46153846 C1.87615385,13.1338462 5.66461538,16.9230769 10.3376923,16.9230769 Z M10.3376923,4.23076923 C12.6738462,4.23076923 14.5684615,6.12692308 14.5684615,8.46153846 C14.5684615,10.7961538 12.6738462,12.6923077 10.3376923,12.6923077 C8.00076923,12.6923077 6.10692308,10.7961538 6.10692308,8.46153846 C6.10692308,6.12692308 8.00076923,4.23076923 10.3376923,4.23076923 Z" id="Shape"></path>
                            <path d="M10.3376923,11.5384615 C12.0361538,11.5384615 13.4146154,10.1592308 13.4146154,8.46153846 C13.4146154,6.76384615 12.0361538,5.38461538 10.3376923,5.38461538 C8.63846154,5.38461538 7.26076923,6.76384615 7.26076923,8.46153846 C7.26076923,10.1592308 8.63846154,11.5384615 10.3376923,11.5384615 Z M11.1061538,6.91846154 C11.5338462,6.91846154 11.8807692,7.26538462 11.8807692,7.69307692 C11.8807692,8.12076923 11.5338462,8.46846154 11.1061538,8.46846154 C10.6776923,8.46846154 10.3307692,8.12076923 10.3307692,7.69307692 C10.3307692,7.26538462 10.6776923,6.91846154 11.1061538,6.91846154 Z" id="Shape"></path>
                        </g>
                    </g>
                </g>
            </g>
        </g>
    </g>
</svg>