<?xml version="1.0" encoding="UTF-8"?>
<svg width="260px" height="113px" viewBox="0 0 260 113" version="1.1" xmlns="http://www.w3.org/2000/svg" xmlns:xlink="http://www.w3.org/1999/xlink">
    <!-- Generator: Sketch 61.2 (89653) - https://sketch.com -->
    <title>path-1</title>
    <desc>Created with Sketch.</desc>
    <defs>
        <path d="M8,4 L252,4 C253.656854,4 255,5.34314575 255,7 L255,94.65761 C255,96.3144643 253.656854,97.65761 252,97.65761 L134.337301,97.65761 L125.183051,107 L116.565363,97.65761 L8,97.65761 C6.34314575,97.65761 5,96.3144643 5,94.65761 L5,7 C5,5.34314575 6.34314575,4 8,4 Z" id="path-1"></path>
        <filter x="-3.0%" y="-6.3%" width="106.0%" height="115.0%" filterUnits="objectBoundingBox" id="filter-2">
            <feMorphology radius="1" operator="dilate" in="SourceAlpha" result="shadowSpreadOuter1"></feMorphology>
            <feOffset dx="0" dy="1" in="shadowSpreadOuter1" result="shadowOffsetOuter1"></feOffset>
            <feGaussianBlur stdDeviation="2" in="shadowOffsetOuter1" result="shadowBlurOuter1"></feGaussianBlur>
            <feComposite in="shadowBlurOuter1" in2="SourceAlpha" operator="out" result="shadowBlurOuter1"></feComposite>
            <feColorMatrix values="0 0 0 0 0   0 0 0 0 0   0 0 0 0 0  0 0 0 0.19178868 0" type="matrix" in="shadowBlurOuter1"></feColorMatrix>
        </filter>
    </defs>
    <g id="Page-1" stroke="none" stroke-width="1" fill="none" fill-rule="evenodd">
        <g id="path-1" fill-rule="nonzero">
            <use fill="black" fill-opacity="1" filter="url(#filter-2)" xlink:href="#path-1"></use>
            <path stroke="#CECECE" stroke-width="1" d="M134.547393,98.15761 L125.172109,107.725577 L116.346343,98.15761 L8,98.15761 C6.06700336,98.15761 4.5,96.5906067 4.5,94.65761 L4.5,7 C4.5,5.06700338 6.06700338,3.5 8,3.5 L252,3.5 C253.932996,3.5 255.5,5.06700345 255.5,7 L255.5,94.65761 C255.5,96.5906066 253.932996,98.15761 252,98.15761 L134.547393,98.15761 Z" fill="#FFFFFF" fill-rule="evenodd"></path>
        </g>
    </g>
</svg>