<?xml version="1.0" encoding="UTF-8"?>
<svg width="9px" height="16px" viewBox="0 0 9 16" version="1.1" xmlns="http://www.w3.org/2000/svg" xmlns:xlink="http://www.w3.org/1999/xlink">
    <!-- Generator: Sketch 54.1 (76490) - https://sketchapp.com -->
    <title>left-arrow</title>
    <desc>Created with Sketch.</desc>
    <g id="Symbols" stroke="none" stroke-width="1" fill="none" fill-rule="evenodd">
        <g id="Client-Setup---left-select" transform="translate(-216.000000, -36.000000)" fill="#FFFFFF" fill-rule="nonzero">
            <g id="left-arrow" transform="translate(216.000000, 36.000000)">
                <path d="M6.98308139,0.226340538 C7.28486877,-0.075446846 7.75997999,-0.075446846 8.06176738,0.226340538 C8.35335924,0.517932402 8.35335924,1.00323914 8.06176738,1.2941513 L2.59221089,6.76370779 L1.90443958,7.52463341 L2.59221089,8.28487933 C2.65372275,8.34627652 2.69985664,8.39232442 2.73061256,8.42302302 C3.91531363,9.60551575 5.69236524,11.3792548 8.06176738,13.7442403 C8.35335924,14.0460277 8.35335924,14.5320141 8.06176738,14.8229263 C7.75997999,15.1247137 7.28486877,15.1247137 6.98308139,14.8229263 L0.218693898,8.05853879 C-0.0728979661,7.76694693 -0.0728979661,7.28164019 0.218693898,6.99072803 L6.98308139,0.226340538 Z" id="Path" transform="translate(4.140231, 7.524633) scale(-1, 1) translate(-4.140231, -7.524633) "></path>
            </g>
        </g>
    </g>
</svg>