<?xml version="1.0" encoding="utf-8"?>
<!-- Generator: Adobe Illustrator 24.1.0, SVG Export Plug-In . SVG Version: 6.00 Build 0)  -->
<svg version="1.1" id="Layer_1" xmlns="http://www.w3.org/2000/svg" xmlns:xlink="http://www.w3.org/1999/xlink" x="0px" y="0px"
	 viewBox="0 0 60 60" style="enable-background:new 0 0 60 60;" xml:space="preserve">
<style type="text/css">
	.st0{fill:#FFDDDD;}
	.st1{fill:#FF5555;}
</style>
<rect x="0" y="0.2" class="st0" width="60" height="60"/>
<path class="st1" d="M38.6,32.9c4.6,0,8.3,3.7,8.3,8.3c0,4.6-3.7,8.3-8.3,8.3s-8.3-3.7-8.3-8.3C30.4,36.6,34.1,32.9,38.6,32.9z
	 M38.6,34.4c-3.7,0-6.7,3-6.7,6.8c0,3.7,3,6.8,6.7,6.8c3.7,0,6.8-3,6.8-6.8S42.4,34.4,38.6,34.4z M38.2,36.9c0.4,0,0.7,0.3,0.7,0.7
	l0,0.1l0,3.3h3.4c0.4,0,0.7,0.3,0.7,0.6l0,0.1c0,0.4-0.3,0.7-0.6,0.7l-0.1,0h-4.1c-0.4,0-0.7-0.3-0.7-0.7l0-0.1l0-4
	C37.4,37.2,37.7,36.9,38.2,36.9z M36.3,10.9c1.8,0,3.2,1.4,3.4,3.1l0,0.2l0,15.1h-1.6V14.3c-0.1-0.9-0.8-1.6-1.6-1.7l-0.2,0H16.5
	c-0.9,0-1.6,0.7-1.8,1.5l0,0.2v23.6c0,0.9,0.8,1.4,1.6,1.5l0.1,0h11.6V41H16.5c-1.7,0-3.3-1.2-3.4-2.9l0-0.2V14.3
	c0.1-1.8,1.5-3.2,3.2-3.3l0.2,0H36.3z M23.3,27.9C23.3,27.9,23.4,27.9,23.3,27.9c0.3,0.3,0.3,0.8,0.1,1.1l-0.1,0.1l-3.1,3.1
	c-0.1,0.2-0.4,0.2-0.6,0.2c-0.2,0-0.4-0.1-0.5-0.2L19,32.1l-1.7-1.7c-0.3-0.3-0.3-0.9,0-1.2c0.3-0.3,0.7-0.3,1,0l0.1,0.1l1.1,1.2
	l2.6-2.5C22.5,27.6,23,27.6,23.3,27.9z M34.9,29.7c0.4,0,0.8,0.4,0.8,0.8c0,0.4-0.3,0.8-0.7,0.8l-0.1,0h-9.3c-0.4,0-0.8-0.4-0.8-0.8
	c0-0.4,0.3-0.8,0.7-0.8l0.1,0C25.6,29.7,34.9,29.7,34.9,29.7z M23.3,21.3L23.3,21.3c0.3,0.3,0.3,0.8,0.1,1.1l-0.1,0.1l-3.1,3
	c-0.2,0.2-0.4,0.2-0.6,0.2c-0.2,0-0.4-0.1-0.5-0.2L19,25.5l-1.7-1.7c-0.3-0.3-0.3-0.9,0-1.2c0.3-0.3,0.7-0.3,1,0l0.1,0.1l1.1,1.2
	l2.6-2.5C22.5,21,23,21,23.3,21.3z M34.9,23.1c0.4,0,0.8,0.4,0.8,0.8c0,0.4-0.3,0.8-0.7,0.8l-0.1,0h-9.3c-0.4,0-0.8-0.4-0.8-0.8
	c0-0.4,0.3-0.8,0.7-0.8l0.1,0C25.6,23.1,34.9,23.1,34.9,23.1z M23.3,15.1C23.3,15.2,23.3,15.2,23.3,15.1c0.3,0.3,0.3,0.8,0.1,1.1
	l-0.1,0.1l-3.1,3c-0.2,0.2-0.4,0.2-0.6,0.2c-0.2,0-0.4-0.1-0.5-0.2L19,19.3l-1.7-1.7c-0.3-0.3-0.3-0.9,0-1.2c0.3-0.3,0.7-0.3,1,0
	l0.1,0.1l1.1,1.2l2.6-2.5C22.5,14.8,23,14.8,23.3,15.1L23.3,15.1z M34.9,16.5c0.4,0,0.8,0.4,0.8,0.8c0,0.4-0.3,0.8-0.7,0.8l-0.1,0
	h-9.3c-0.4,0-0.8-0.4-0.8-0.8c0-0.4,0.3-0.8,0.7-0.8l0.1,0L34.9,16.5L34.9,16.5z"/>
</svg>
