<?xml version="1.0" encoding="UTF-8"?>
<svg width="110px" height="110px" viewBox="0 0 110 110" version="1.1" xmlns="http://www.w3.org/2000/svg" xmlns:xlink="http://www.w3.org/1999/xlink">
    <!-- Generator: Sketch 53.2 (72643) - https://sketchapp.com -->
    <title>Group 11</title>
    <desc>Created with Sketch.</desc>
    <defs>
        <circle id="path-1" cx="54.2666667" cy="54.2666667" r="54.2666667"></circle>
    </defs>
    <g id="Admin-Manager" stroke="none" stroke-width="1" fill="none" fill-rule="evenodd">
        <g id="Admin-Manager---Create-User" transform="translate(-666.000000, -210.000000)">
            <g id="Group-11" transform="translate(666.000000, 210.000000)">
                <g id="Group-19">
                    <g id="Group-13">
                        <g id="Group-5">
                            <g id="man-user" transform="translate(0.733333, 0.733333)">
                                <mask id="mask-2" fill="white">
                                    <use xlink:href="#path-1"></use>
                                </mask>
                                <use id="Mask" fill="#FFFFFF" xlink:href="#path-1"></use>
                                <g mask="url(#mask-2)" fill-rule="nonzero" id="Path">
                                    <g transform="translate(16.641778, 21.706667)">
                                        <path d="M37.6251559,46.3075556 C48.0143967,46.3075556 56.4373333,35.9413593 56.4373333,23.153913 C56.4373333,10.3661963 53.6719595,0 37.6251559,0 C21.5783522,0 18.8124444,10.3661963 18.8124444,23.153913 C18.8124444,35.9413593 27.2353811,46.3075556 37.6251559,46.3075556 Z" fill-opacity="0.3" fill="#AFAFAF"></path>
                                        <path d="M0.725401699,81.7617778 C0.722204085,80.3538424 0.719006472,81.3650937 0.725401699,81.7617778 L0.725401699,81.7617778 Z" fill="#000000"></path>
                                        <path d="M72.3528691,81.7617778 C72.3629949,81.5437081 72.3563332,80.2488332 72.3528691,81.7617778 L72.3528691,81.7617778 Z" fill="#000000"></path>
                                        <path d="M73.039418,80.1901173 C72.6917701,58.0546434 69.8269385,51.747235 47.9043436,47.7546667 C47.9043436,47.7546667 44.8184027,51.722772 37.6256881,51.722772 C30.4329735,51.722772 27.3464997,47.7546667 27.3464997,47.7546667 C5.6631292,51.7036855 2.62407408,57.9175434 2.22447883,79.4710142 C2.19171202,81.2310024 2.1765274,81.3234777 2.17066667,81.1191717 C2.17199865,81.5019766 2.17359703,82.210058 2.17359703,83.4447648 C2.17359703,83.4447648 7.39284386,94.0622222 37.6256881,94.0622222 C67.8579995,94.0622222 73.0777791,83.4447648 73.0777791,83.4447648 C73.0777791,82.6514663 73.0783119,82.0998403 73.0791111,81.7245625 C73.0732504,81.8509096 73.0615289,81.6060113 73.039418,80.1901173 Z" fill-opacity="0.3" fill="#AFAFAF"></path>
                                    </g>
                                </g>
                            </g>
                        </g>
                    </g>
                </g>
            </g>
        </g>
    </g>
</svg>