<?xml version="1.0" encoding="UTF-8" standalone="no"?>
<!DOCTYPE svg  PUBLIC '-//W3C//DTD SVG 1.1//EN'  'http://www.w3.org/Graphics/SVG/1.1/DTD/svg11.dtd'>
<svg version="1.1" xmlns="http://www.w3.org/2000/svg">
<defs>
<font id="BemboStd-Bold" horiz-adv-x="573">
<font-face underline-position="-150" bbox="-120 -233 994 871" font-family="Bembo Std" descent="-328" panose-1="2 4 8 7 6 3 6 2 4 4" font-weight="700" units-per-em="1000" unicode-range="U+0020-00FE" underline-thickness="50" ascent="672" x-height="408" cap-height="622"/>
<missing-glyph/>
<glyph unicode=" " horiz-adv-x="333" glyph-name="space"/>
<glyph unicode="!" horiz-adv-x="313" glyph-name="exclam" d="M156 124q34 0 57.5 -19t23.5 -48q0 -28 -23 -48t-58 -20t-57.5 20t-22.5 48q0 29 23.5 48t56.5 19zM173 224h-34l-56 372q-4 26 1 33.5t27 7.5h90q23 0 27.5 -7t1.5 -34z"/>
<glyph unicode='&quot;' horiz-adv-x="552" glyph-name="quotedbl" d="M382 312l-50 187q-10 38 -10 63q0 32 20.5 53.5t51.5 21.5t51.5 -21.5t20.5 -53.5q0 -25 -10 -63l-50 -187h-24zM146 312l-50 187q-10 38 -10 63q0 32 20.5 53.5t51.5 21.5t51.5 -21.5t20.5 -53.5q0 -25 -10 -63l-50 -187h-24z"/>
<glyph unicode="#" horiz-adv-x="668" glyph-name="numbersign" d="M42 470h157l42 194h70l-42 -194h195l41 194h70l-41 -194h92v-70h-105l-36 -171h141v-70h-155l-41 -193h-70l41 193h-196l-41 -193h-70l41 193h-93v70h107l36 171h-143v70zM255 400l-36 -171h196l36 171h-196z"/>
<glyph unicode="$" horiz-adv-x="479" glyph-name="dollar" d="M217 -93v83q-77 3 -132.5 43.5t-55.5 92.5q0 25 15.5 41t38.5 16q30 0 45 -22.5t18 -50.5t20 -54t51 -32v242q-86 42 -128.5 87.5t-42.5 110.5t43.5 109.5t127.5 55.5v43h31v-43q68 -2 120.5 -38t52.5 -79q0 -21 -15 -36t-37 -15q-27 0 -41.5 17.5t-19.5 40t-19.5 45 t-40.5 30.5v-200q104 -51 150 -98t46 -117q0 -76 -55 -129t-141 -60v-83h-31zM217 411v186q-34 -5 -56 -28t-22 -54q0 -59 78 -104zM248 249v-226q40 6 66.5 36.5t26.5 70.5q0 37 -22 65t-71 54z"/>
<glyph unicode="%" horiz-adv-x="896" glyph-name="percent" d="M706 -8q-56 0 -92 47.5t-36 120.5q0 76 35.5 123.5t92.5 47.5q58 0 93.5 -47t35.5 -124q0 -73 -36.5 -120.5t-92.5 -47.5zM665 236v-146q0 -72 41 -72q26 0 34 19t8 53v146q0 70 -42 70q-41 0 -41 -70zM189 298q-56 0 -92 47.5t-36 120.5q0 76 35.5 123.5t92.5 47.5 q58 0 93.5 -47t35.5 -124q0 -73 -36.5 -120.5t-92.5 -47.5zM148 542v-146q0 -72 41 -72q26 0 34 19t8 53v146q0 70 -42 70q-41 0 -41 -70zM190 -28l445 666h71l-445 -666h-71z"/>
<glyph unicode="&amp;" horiz-adv-x="750" glyph-name="ampersand" d="M695 77l19 -36q-60 -55 -142 -55q-45 0 -74 19.5t-63 71.5q-40 -42 -95 -66.5t-108 -24.5q-73 0 -124 47t-51 123q0 57 39 99t122 76q-74 68 -74 132q0 54 46 87.5t120 33.5q66 0 106 -28.5t40 -75.5q0 -73 -91 -116q38 -28 67 -58t71 -87q28 40 53 90t25 67t-46 17h-12 v38h198v-38h-16q-42 0 -60 -18q-11 -11 -49 -81.5t-69 -112.5q6 -10 17.5 -31t16.5 -29t14.5 -22.5t15 -20.5t14 -14t17 -10.5t17.5 -2.5q28 0 56 26zM180 195q0 -55 35.5 -96t82.5 -41q53 0 115 58q-44 84 -162 190q-71 -43 -71 -111zM253 492q0 -28 16.5 -49t59.5 -55 q43 40 43 88q0 32 -18 51t-47 19q-25 0 -39.5 -14.5t-14.5 -39.5z"/>
<glyph unicode="&apos;" horiz-adv-x="281" glyph-name="quotesingle" d="M129 312l-50 187q-10 38 -10 63q0 32 20.5 53.5t51.5 21.5t51.5 -21.5t20.5 -53.5q0 -25 -10 -63l-50 -187h-24z"/>
<glyph unicode="(" horiz-adv-x="354" glyph-name="parenleft" d="M189 220q0 -259 138 -417h-42q-218 184 -218 417t218 417h42q-138 -158 -138 -417z"/>
<glyph unicode=")" horiz-adv-x="354" glyph-name="parenright" d="M165 220q0 259 -138 417h42q218 -184 218 -417t-218 -417h-42q138 158 138 417z"/>
<glyph unicode="*" horiz-adv-x="521" glyph-name="asterisk" d="M258 317l-118 -105l-33 20l65 147l-136 79l12 38l159 -14l34 155h37l35 -155l160 14l12 -38l-138 -79l63 -147l-32 -20z"/>
<glyph unicode="+" horiz-adv-x="667" glyph-name="plus" d="M371 364h229v-76h-229v-229h-76v229h-229v76h229v229h76v-229z"/>
<glyph unicode="," horiz-adv-x="313" glyph-name="comma" d="M85 -146l-8 42q48 4 79 27t31 56q0 7 -2.5 10.5t-7.5 4t-10 0t-13.5 -1.5t-14.5 -1q-36 0 -55.5 18t-19.5 48t21.5 48.5t55.5 18.5q49 0 78.5 -31t29.5 -84q0 -68 -46.5 -112t-117.5 -43z"/>
<glyph unicode="-" horiz-adv-x="417" glyph-name="hyphen" d="M35 153v98h346v-98h-346z"/>
<glyph unicode="." horiz-adv-x="313" glyph-name="period" d="M156 124q34 0 57.5 -19t23.5 -48q0 -28 -23 -48t-58 -20t-57.5 20t-22.5 48q0 29 23.5 48t56.5 19z"/>
<glyph unicode="/" horiz-adv-x="531" glyph-name="slash" d="M404 641h81l-357 -659h-81z"/>
<glyph unicode="0" horiz-adv-x="500" glyph-name="zero" d="M42 311q0 155 60 240.5t148 85.5q85 0 146 -83.5t61 -242.5q0 -86 -19.5 -152t-51 -102t-66 -53.5t-70.5 -17.5q-87 0 -147.5 84.5t-60.5 240.5zM170 449v-260q0 -86 17.5 -126t61.5 -40q46 0 63 41.5t17 140.5v221q0 174 -78 174q-44 0 -62.5 -36t-18.5 -115z"/>
<glyph unicode="1" horiz-adv-x="500" glyph-name="one" d="M324 637v-558q0 -45 37 -45h64v-34h-318v34h60q35 0 35 41v437q-51 -34 -118 -53l-13 30q119 58 197 148h56z"/>
<glyph unicode="2" horiz-adv-x="500" glyph-name="two" d="M32 0v35q162 179 190 214q64 81 72 145q2 15 2 31q0 60 -27 94.5t-74 34.5q-41 0 -73 -31t-41 -80h-39q11 86 66.5 140t132.5 54q76 0 126 -50.5t50 -127.5q0 -50 -24 -94t-55 -74t-89.5 -84.5t-100.5 -102.5h189q37 0 51.5 18t20.5 59h33l-20 -181h-390z"/>
<glyph unicode="3" horiz-adv-x="500" glyph-name="three" d="M169 304l-17 29q54 43 78.5 78.5t24.5 72.5q0 33 -20.5 54.5t-51.5 21.5q-55 0 -95 -73l-29 13q23 65 70 101t108 36q57 0 96 -32t39 -78q0 -80 -105 -140l2 -2q65 3 108 -45t43 -122q0 -100 -70 -166.5t-177 -66.5q-61 0 -103 24.5t-42 59.5q0 22 15 37t38 15t40 -14 t25.5 -30.5t26.5 -30.5t42 -14q39 0 63 37.5t24 98.5q0 64 -28 103.5t-73 39.5q-14 0 -32 -7z"/>
<glyph unicode="4" horiz-adv-x="500" glyph-name="four" d="M250 -15v171h-217v45l286 436h53v-415h85v-66h-85v-171h-122zM250 222v238h-2l-155 -238h157z"/>
<glyph unicode="5" horiz-adv-x="500" glyph-name="five" d="M85 303l11 319h223q18 0 25 3.5t11 13.5h33l-17 -115h-237l-5 -120q44 12 81 12q96 0 157.5 -59t61.5 -151q0 -96 -69 -158.5t-175 -62.5q-61 0 -100.5 23t-39.5 58q0 22 14.5 36t37.5 14t39 -14t24 -30t23 -30t36 -14q40 0 66.5 37.5t26.5 94.5q0 67 -33 107.5t-87 40.5 q-41 0 -78 -20z"/>
<glyph unicode="6" horiz-adv-x="500" glyph-name="six" d="M384 638l19 -31q-89 -30 -146 -96.5t-72 -158.5q51 35 103 35q76 0 123 -52.5t47 -137.5q0 -93 -55.5 -152t-143.5 -59q-97 0 -156.5 72t-59.5 190q0 147 92.5 252.5t248.5 137.5zM330 185q0 31 -2 52t-8.5 47.5t-22.5 40.5t-41 14q-37 0 -79 -33q-6 -39 -6 -96 q0 -187 83 -187q27 0 43.5 14t23 42t8 49t1.5 57z"/>
<glyph unicode="7" horiz-adv-x="500" glyph-name="seven" d="M126 -15l225 525h-200q-45 0 -58.5 -10t-20.5 -51h-36l14 173h405v-40l-230 -597h-99z"/>
<glyph unicode="8" horiz-adv-x="500" glyph-name="eight" d="M439 487q0 -86 -118 -138q132 -69 132 -178q0 -77 -60.5 -131.5t-145.5 -54.5q-82 0 -141.5 48.5t-59.5 118.5q0 97 121 147q-57 40 -83.5 79.5t-26.5 89.5q0 72 55 120.5t136 48.5q79 0 135 -44t56 -106zM354 122q0 50 -31.5 79t-118.5 76q-29 -24 -41 -51.5t-12 -70.5 q0 -62 27 -97.5t74 -35.5q44 0 73 28.5t29 71.5zM341 486q0 54 -25.5 84t-71.5 30q-40 0 -64.5 -24t-24.5 -62q0 -41 31 -74t105 -70q50 41 50 116z"/>
<glyph unicode="9" horiz-adv-x="500" glyph-name="nine" d="M116 -15l-23 33q181 59 221 254q-56 -34 -103 -34q-75 0 -123 53t-48 136q0 90 57.5 150t143.5 60q98 0 157 -71t59 -196q0 -142 -93 -248t-248 -137zM168 445q0 -36 1.5 -56t7.5 -48.5t21.5 -42t40.5 -13.5q37 0 83 31q7 70 7 105q0 179 -86 179q-24 0 -40 -12.5 t-23 -37t-9.5 -48t-2.5 -57.5z"/>
<glyph unicode=":" horiz-adv-x="313" glyph-name="colon" d="M156 419q34 0 57.5 -19t23.5 -48q0 -28 -23 -48t-58 -20t-57.5 20t-22.5 48q0 29 23.5 48t56.5 19zM156 124q34 0 57.5 -19t23.5 -48q0 -28 -23 -48t-58 -20t-57.5 20t-22.5 48q0 29 23.5 48t56.5 19z"/>
<glyph unicode=";" horiz-adv-x="313" glyph-name="semicolon" d="M85 -146l-8 42q48 4 79 27t31 56q0 7 -2.5 10.5t-7.5 4t-10 0t-13.5 -1.5t-14.5 -1q-36 0 -55.5 18t-19.5 48t21.5 48.5t55.5 18.5q49 0 78.5 -31t29.5 -84q0 -68 -46.5 -112t-117.5 -43zM159 419q34 0 57.5 -19t23.5 -48q0 -28 -23 -48t-58 -20t-57.5 20t-22.5 48 q0 29 23.5 48t56.5 19z"/>
<glyph unicode="&lt;" horiz-adv-x="667" glyph-name="less" d="M66 291v70l534 224v-83l-430 -176l430 -176v-83z"/>
<glyph unicode="=" horiz-adv-x="667" glyph-name="equal" d="M66 480h534v-76h-534v76zM66 250h534v-76h-534v76z"/>
<glyph unicode="&gt;" horiz-adv-x="667" glyph-name="greater" d="M601 361v-70l-534 -224v83l430 176l-430 176v83z"/>
<glyph unicode="?" horiz-adv-x="365" glyph-name="question" d="M149 185h-35q-42 71 -42 114q0 33 21.5 53t52.5 28.5l62 17t52.5 26t21.5 46.5q0 28 -18.5 46t-46.5 18q-21 0 -55.5 -8.5t-56.5 -8.5q-28 0 -44.5 14t-16.5 39q0 31 27 49t71 18q83 0 135.5 -57t52.5 -146q0 -52 -20.5 -87.5t-49.5 -50.5t-58 -24t-49.5 -17t-20.5 -21 q0 -16 17 -49zM143 124q34 0 57.5 -19t23.5 -48q0 -28 -23 -48t-58 -20t-57.5 20t-22.5 48q0 29 23.5 48t56.5 19z"/>
<glyph unicode="@" horiz-adv-x="927" glyph-name="at" d="M576 452l119 5l-90 -307q-14 -51 -14 -75q0 -17 11.5 -28t28.5 -11q26 0 60.5 21t68.5 58t57.5 97t23.5 127q0 137 -87 222.5t-226 85.5q-106 0 -191 -41t-136 -107.5t-78 -144.5t-27 -158q0 -169 107 -277t275 -108q136 0 248.5 75t150.5 195h31q-58 -143 -169.5 -220 t-261.5 -77q-188 0 -310 121t-122 308q0 202 133.5 333.5t338.5 131.5q158 0 254.5 -91t96.5 -239q0 -147 -84.5 -247.5t-208.5 -100.5q-46 0 -72.5 23t-26.5 64q0 29 12 65l-2 2q-45 -78 -83 -116t-84 -38q-37 0 -59 30t-22 80q0 90 44 176t102 135t105 49q31 0 47.5 -18 t21.5 -58h2zM502 435q-40 0 -89.5 -112t-49.5 -187q0 -20 8 -33t21 -13q16 0 40.5 26t47.5 65t40 91t17 98q0 30 -10 47.5t-25 17.5z"/>
<glyph unicode="A" horiz-adv-x="740" glyph-name="A" d="M443 231h-219l-42 -117q-18 -38 -3 -56.5t82 -18.5h13v-39h-265v39h15q36 0 57.5 20t40.5 72l171 477l-11 29h148l200 -508q20 -50 40.5 -68.5t59.5 -21.5v-39h-325v39h35q44 0 55.5 19.5t-5.5 56.5zM420 286l-92 234l-84 -234h176z"/>
<glyph unicode="B" horiz-adv-x="698" glyph-name="B" d="M131 123v372q0 58 -15 73t-72 15h-25v39q13 1 56.5 4t69.5 4q140 7 162 7q204 0 275 -71q38 -38 38 -91q0 -90 -123 -117v-2q73 -16 115.5 -61.5t42.5 -106.5q0 -80 -69.5 -134t-188.5 -54h-387v39q71 0 96 19t25 65zM269 330v-195q0 -53 20.5 -71.5t70.5 -18.5 q77 0 108.5 40t31.5 99q0 26 -7 49.5t-23 47t-49 38t-79 14.5q-28 0 -73 -3zM269 595v-222q44 -2 77 -2q69 0 97 30t28 75q0 52 -33.5 87t-115.5 35q-28 0 -53 -3z"/>
<glyph unicode="C" horiz-adv-x="740" glyph-name="C" d="M662 179h40q-14 -90 -56 -182q-22 7 -59 7q-20 0 -75.5 -9t-96.5 -9q-154 0 -259 93.5t-105 229.5q0 138 111 233t272 95q46 0 89 -10.5t70 -20.5t33 -10q11 0 20 10h25l9 -175h-39q-24 74 -75.5 114.5t-123.5 40.5q-107 0 -174.5 -74t-67.5 -192q0 -121 73 -203t180 -82 q69 0 123.5 38t85.5 106z"/>
<glyph unicode="D" horiz-adv-x="823" glyph-name="D" d="M21 583v39q22 1 79 3.5t82 4.5q83 5 137 5q150 0 231.5 -22t136.5 -77q84 -84 84 -210q0 -131 -93 -224q-46 -46 -123 -74t-216 -28h-318v39q52 0 72.5 14.5t20.5 55.5v386q0 54 -18 71t-75 17zM252 583v-467q0 -50 14.5 -63t72.5 -13q65 0 115.5 17t81.5 44.5t51 64.5 t27.5 73t7.5 74q0 129 -74 203q-72 72 -218 72q-42 0 -78 -5z"/>
<glyph unicode="E" horiz-adv-x="646" glyph-name="E" d="M543 477q-8 52 -21.5 71t-47.5 19h-219v-225h162q41 0 58 16t17 56h40v-199h-40q0 42 -17 57t-73 15h-147v-180q0 -32 7.5 -42t29.5 -10h167q51 0 76 20.5t39 81.5h38l-12 -157h-602v39h41q43 0 60.5 17t17.5 55v399q0 41 -18 57t-69 16h-10v39h551l10 -145h-38z"/>
<glyph unicode="F" horiz-adv-x="594" glyph-name="F" d="M251 567v-225h139q52 0 69.5 15t17.5 58h40v-199h-40q0 37 -15 54t-54 17h-157v-161q0 -54 13 -70.5t54 -16.5h19v-39h-299v39h16q33 0 46 12.5t13 44.5v405q0 47 -14 65t-48 18h-13v38h505v-141h-36q-3 50 -16 68t-47 18h-193z"/>
<glyph unicode="G" horiz-adv-x="781" glyph-name="G" d="M758 299v-38q-40 -1 -55.5 -14.5t-15.5 -48.5v-149q-137 -63 -261 -63q-183 0 -279 91.5t-96 241.5q0 138 102.5 228t261.5 90q60 0 134.5 -17.5t82.5 -17.5q20 0 30 13h25v-183h-40q-20 77 -74.5 119.5t-132.5 42.5q-106 0 -173 -76t-67 -198q0 -123 69 -204.5 t173 -81.5q63 0 107 26v138q0 38 -23.5 50t-99.5 13v38h332z"/>
<glyph unicode="H" horiz-adv-x="833" glyph-name="H" d="M492 39h14q40 0 57.5 18t17.5 59v178h-330v-180q0 -40 17.5 -57.5t59.5 -17.5h15v-39h-321v39h17q74 0 74 73v398q0 38 -18 55.5t-57 17.5h-16v39h321v-39h-14q-41 0 -59.5 -16t-18.5 -57v-157h330v154q0 42 -18 59t-62 17h-9v39h320v-39h-18q-39 0 -57 -16.5t-18 -56.5 v-396q0 -40 17 -57.5t60 -17.5h16v-39h-320v39z"/>
<glyph unicode="I" horiz-adv-x="365" glyph-name="I" d="M23 583v39h318v-39h-17q-40 0 -58 -18t-18 -57v-396q0 -38 17 -55.5t61 -17.5h15v-39h-318v39h14q73 0 73 69v400q0 40 -16.5 57.5t-57.5 17.5h-13z"/>
<glyph unicode="J" horiz-adv-x="344" glyph-name="J" d="M7 583v39h317v-39h-15q-34 0 -53 -15.5t-19 -59.5v-437q0 -149 -87 -236q-62 -62 -162 -62q-108 0 -108 58q0 25 21 44t49 19t57.5 -30t42.5 -30q49 0 49 98v577q0 38 -16.5 56t-57.5 18h-18z"/>
<glyph unicode="K" horiz-adv-x="740" glyph-name="K" d="M253 290v-178q0 -41 19 -57t60 -16h14v-39h-326v39h18q40 0 58.5 16.5t18.5 58.5v393q0 41 -17.5 58.5t-60.5 17.5h-17v39h326v-39h-17q-46 0 -61 -18t-15 -62v-180q64 8 132 76q31 31 64 78.5t33 72.5q0 33 -60 33h-11v39h267v-39q-47 -3 -68 -9.5t-41 -26.5 q-13 -13 -67.5 -89t-97.5 -108q39 -20 106 -107l87 -111q39 -51 72.5 -72t79.5 -21v-39h-341v39q70 0 70 27q0 15 -50.5 74.5t-104.5 113.5q-23 23 -37 29.5t-33 6.5z"/>
<glyph unicode="L" horiz-adv-x="604" glyph-name="L" d="M622 174l-73 -174h-536v39h17q47 0 65 17t18 55v400q0 41 -20.5 56.5t-58.5 15.5h-19v39h339v-39h-29q-74 0 -74 -70v-412q0 -28 10 -37t40 -9h127q30 0 53 12.5t37 27.5t49 60q10 12 15 19h40z"/>
<glyph unicode="M" horiz-adv-x="927" glyph-name="M" d="M412 0l-228 494h-2l-22 -356q-2 -25 -1 -43.5t8.5 -30.5t25.5 -18.5t49 -6.5v-39h-222v39q55 1 68 20t17 86l22 362q2 42 -9 58t-58 18v39h211l195 -420l187 420h215v-39q-55 -3 -65.5 -13t-6.5 -63l24 -369q4 -64 16.5 -79.5t71.5 -19.5v-39h-315v39h17q21 0 31 1 t22.5 7t18 20t5.5 37q0 17 -2 47l-23 355h-2l-224 -506h-24z"/>
<glyph unicode="N" horiz-adv-x="813" glyph-name="N" d="M167 498v-378q0 -47 20 -64t79 -17v-39h-242v39h6q44 0 60 15t16 48v459q-32 22 -80 22v39h206l408 -426v302q0 54 -17.5 69.5t-77.5 15.5h-10v39h258v-39h-10q-46 0 -64 -11t-18 -40v-535h-55z"/>
<glyph unicode="O" horiz-adv-x="844" glyph-name="O" d="M52 301q0 148 108 244t275 96q157 0 257 -89t100 -229t-102 -238.5t-274 -98.5q-166 0 -265 91.5t-99 223.5zM201 349q0 -143 66 -231.5t172 -88.5q99 0 151.5 73.5t52.5 184.5q0 83 -25.5 152t-79.5 114t-127 45q-95 0 -152.5 -68t-57.5 -181z"/>
<glyph unicode="P" horiz-adv-x="646" glyph-name="P" d="M252 262v-148q0 -43 19 -59t68 -16h30v-39h-340v39h15q41 0 55.5 11.5t14.5 45.5v429q0 34 -14.5 46t-55.5 12h-22v39q13 1 68 5t94 6q110 5 159 5q137 0 206 -56t69 -140q0 -87 -68.5 -138.5t-183.5 -51.5q-54 0 -114 10zM252 587v-284q29 -7 72 -7q70 0 107.5 39.5 t37.5 112.5q0 69 -38.5 107.5t-107.5 38.5q-37 0 -71 -7z"/>
<glyph unicode="Q" horiz-adv-x="844" glyph-name="Q" d="M805 -182l-17 -39q-25 -6 -56 -6q-58 0 -113 19.5t-97.5 50t-80 61.5t-76.5 59.5t-71 39.5q-110 29 -176 110.5t-66 190.5q0 146 108.5 241.5t274.5 95.5q157 0 257 -89t100 -228q0 -123 -79 -211.5t-191 -112.5q35 -21 73 -56t63.5 -60.5t64 -45t82.5 -20.5zM201 349 q0 -143 65.5 -232t171.5 -89q103 0 154 76.5t51 185.5q0 52 -13.5 104t-40 99t-73 76t-106.5 29q-95 0 -152 -68t-57 -181z"/>
<glyph unicode="R" horiz-adv-x="771" glyph-name="R" d="M251 264v-152q0 -39 18.5 -56t60.5 -17h30v-39h-350v39h16q47 0 67 15.5t20 57.5v395q0 39 -16.5 57.5t-63.5 18.5h-21v39q109 7 129 8q98 7 164 7q111 0 175.5 -16t101.5 -53q48 -48 48 -114q0 -57 -39 -99.5t-109 -61.5q35 -29 87.5 -101t84.5 -104q31 -31 57.5 -42.5 t74.5 -16.5v-39q-22 -1 -62 -1q-91 0 -138.5 14.5t-83.5 50.5q-20 20 -78.5 100t-93.5 110h-79zM251 594v-288h39q95 0 143 33.5t48 110.5q0 75 -49.5 109.5t-128.5 34.5h-52z"/>
<glyph unicode="S" horiz-adv-x="563" glyph-name="S" d="M83 2l-25 182h39q50 -150 171 -150q50 0 83 28t33 70q0 41 -33 73t-80 55.5t-94.5 49.5t-80.5 67.5t-33 96.5q0 72 57 117.5t146 45.5q34 0 68.5 -6.5t56.5 -13t27 -6.5q11 0 22 11h21l19 -162h-40q-17 61 -61 97.5t-102 36.5q-42 0 -70 -20t-28 -49q0 -32 28.5 -58.5 t67.5 -44t92.5 -50t89.5 -68.5q57 -57 57 -132q0 -78 -62 -132t-151 -54q-48 0 -109 16t-62 16q-14 0 -21 -16h-26z"/>
<glyph unicode="T" horiz-adv-x="729" glyph-name="T" d="M433 570v-456q0 -41 18 -58t69 -17h24v-39h-360v39h34q41 0 59 17.5t18 57.5v456h-118q-58 0 -76 -19.5t-32 -98.5h-41l18 187h32q14 -12 19 -14q10 -3 29 -3h476q20 0 28 3t20 14h32l18 -187h-41q-14 79 -32 98.5t-76 19.5h-118z"/>
<glyph unicode="U" horiz-adv-x="771" glyph-name="U" d="M507 583v39h259v-39h-7q-55 0 -73.5 -21t-18.5 -62v-249q0 -64 -18 -113t-46 -77t-67 -45.5t-74.5 -23.5t-75.5 -6q-138 0 -216 59t-78 172v298q0 38 -14.5 53t-55.5 15h-17v39h313v-39h-17q-71 0 -71 -68v-298q0 -85 52 -124.5t129 -39.5q96 0 146 49.5t50 134.5v243 q0 55 -18.5 79t-63.5 24h-18z"/>
<glyph unicode="V" horiz-adv-x="750" glyph-name="V" d="M352 -14l-236 513q-25 54 -43 69t-61 15h-7v39h347v-39h-17q-61 0 -76.5 -21.5t7.5 -65.5l157 -334l153 364q11 26 -6.5 41.5t-59.5 15.5h-20v39h254v-39h-7q-43 0 -65.5 -22t-48.5 -84l-208 -491h-63z"/>
<glyph unicode="W" horiz-adv-x="1000" glyph-name="W" d="M352 -14l-244 513q-24 52 -40.5 68t-53.5 16h-8v39h265v-39q-30 -3 -35.5 -17.5t9.5 -43.5l185 -386l64 131l-118 248q-19 41 -32.5 54t-35.5 14v39h438v-39q-28 -6 -42 -19.5t-34 -53.5l-73 -148l105 -213l138 350q18 41 7 62t-55 22v39h202v-39q-36 -2 -57 -21.5 t-40 -68.5l-202 -507h-65l-107 220l-104 -220h-67zM567 424l57 113q14 23 7.5 34.5t-38.5 11.5h-54q-29 0 -35 -10.5t6 -33.5z"/>
<glyph unicode="X" horiz-adv-x="802" glyph-name="X" d="M370 251l-154 -158q-24 -24 -12 -39t57 -15h22v-39h-274v39q50 5 84 25.5t83 69.5l157 162l-150 188q-46 57 -76.5 78t-67.5 21h-24v39h379v-39h-36q-80 0 -31 -60l102 -127l101 106q76 81 -12 81h-26v39h270v-39q-45 0 -77 -18t-75 -63l-143 -152l179 -223 q40 -50 70 -68t77 -20v-39h-350v39h20q36 0 46 16.5t-17 51.5z"/>
<glyph unicode="Y" horiz-adv-x="750" glyph-name="Y" d="M459 250v-137q0 -39 18 -56.5t69 -17.5h15v-39h-341v39h25q43 0 59.5 18t16.5 54v139l-215 286q-23 30 -39 38.5t-52 8.5h-7v39h326v-39h-12q-41 0 -52 -15.5t7 -35.5l160 -211l116 182q51 80 -36 80h-12v39h236v-39q-43 -3 -63.5 -16t-47.5 -54z"/>
<glyph unicode="Z" horiz-adv-x="750" glyph-name="Z" d="M703 200l-12 -200h-633v55l444 512h-269q-45 0 -68 -25t-28 -88h-38l7 168h578v-57l-444 -510h306q53 0 75.5 28.5t43.5 116.5h38z"/>
<glyph unicode="[" horiz-adv-x="365" glyph-name="bracketleft" d="M228 545v-655q0 -25 20 -34.5t80 -9.5h27v-33h-240v809h240v-33h-27q-60 0 -80 -9.5t-20 -34.5z"/>
<glyph unicode="\" horiz-adv-x="531" glyph-name="backslash" d="M127 641l357 -659h-81l-357 659h81z"/>
<glyph unicode="]" horiz-adv-x="365" glyph-name="bracketright" d="M137 -110v655q0 25 -20 34.5t-80 9.5h-27v33h240v-809h-240v33h27q60 0 80 9.5t20 34.5z"/>
<glyph unicode="^" horiz-adv-x="583" glyph-name="asciicircum" d="M72 318l199 351h40l199 -351h-83l-136 241l-136 -241h-83z"/>
<glyph unicode="_" horiz-adv-x="500" glyph-name="underscore" d="M508 -125h-516v50h516v-50z"/>
<glyph unicode="`" horiz-adv-x="333" glyph-name="grave" d="M242 477h-58l-177 189h161z"/>
<glyph unicode="a" horiz-adv-x="479" glyph-name="a" d="M446 74l15 -24q-23 -25 -56 -42.5t-58 -17.5q-28 0 -46.5 16.5t-23.5 45.5q-35 -34 -60 -48.5t-63 -14.5q-53 0 -84.5 28.5t-31.5 76.5q0 49 31 80q22 22 93.5 45t112.5 56v37q0 29 -18 48t-45 19q-28 0 -43 -20t-9 -57l-112 -39q-14 61 21 96q25 25 75.5 42.5t89.5 17.5 q21 0 46.5 -6t53 -19t45.5 -38.5t18 -58.5v-189q0 -46 22 -46q10 0 27 12zM275 87v143q-16 -14 -49.5 -28.5t-50.5 -33t-17 -54.5q0 -31 13.5 -50t36.5 -19q24 0 67 42z"/>
<glyph unicode="b" d="M78 21v502q0 32 -6 42t-30 20l-26 11v24l152 49h32v-334q90 84 167 84q67 0 114 -56t47 -136q0 -102 -72 -170t-179 -68q-76 0 -199 32zM200 288v-120q0 -71 21.5 -103.5t68.5 -32.5q53 0 83 40t30 111q0 70 -32 113.5t-83 43.5q-49 0 -88 -52z" glyph-name="b"/>
<glyph unicode="c" horiz-adv-x="490" glyph-name="c" d="M429 112l29 -16q-70 -107 -204 -107q-91 0 -150.5 56t-59.5 142q0 98 74.5 165t184.5 67q65 0 108 -24t43 -61q0 -23 -14 -36.5t-37 -13.5t-43.5 14t-32.5 30.5t-30 30.5t-37 14q-38 0 -61 -42t-23 -109q0 -81 34.5 -131t90.5 -50q67 0 128 71z"/>
<glyph unicode="d" d="M366 -11v80q-90 -80 -161 -80t-116.5 53.5t-45.5 135.5q0 60 23 112.5t77.5 90.5t132.5 38q47 0 90 -13v128q0 27 -14.5 40t-52.5 21v24l155 50h34v-537q0 -44 8 -59t32 -15q13 0 30 5v-31l-166 -43h-26zM366 114v222q-48 43 -96 43q-50 0 -78 -39t-28 -109 q0 -75 31 -121t81 -46q21 0 46.5 14t43.5 36z" glyph-name="d"/>
<glyph unicode="e" horiz-adv-x="479" glyph-name="e" d="M416 135l23 -19q-42 -59 -99 -93t-115 -34q-82 0 -132.5 57t-50.5 148q0 99 60 162t154 63q78 0 126 -48q25 -25 34.5 -55t13.5 -50.5t18 -27.5v-29h-277q6 -62 42 -104t81 -42q53 0 122 72zM168 248h142q-1 58 -20 91t-51 33t-54 -36t-17 -88z"/>
<glyph unicode="f" horiz-adv-x="323" glyph-name="f" d="M205 356v-245q0 -45 18.5 -62t67.5 -17h21v-32h-303v32h18q31 0 43.5 15.5t12.5 54.5v254h-74v20l75 32q0 64 26.5 116.5t66.5 83.5t83.5 47.5t82.5 16.5q49 0 89.5 -20.5t40.5 -41.5q0 -6 -8 -16l-31 -40q-10 -13 -21 -13t-31.5 18.5t-46.5 37t-51 18.5q-33 0 -56 -24.5 t-23 -83.5v-99h99l-6 -52h-93z"/>
<glyph unicode="g" horiz-adv-x="552" glyph-name="g" d="M538 415v-103l-100 23q20 -27 20 -64q0 -47 -32.5 -80.5t-79 -47t-99.5 -11.5q-83 -28 -83 -47q0 -33 124 -33h88q66 0 109 -31t43 -85q0 -71 -80.5 -119t-201.5 -48q-88 0 -146.5 28.5t-58.5 71.5q0 28 19.5 42.5t45 26t33.5 26.5q-86 29 -86 94q0 30 29.5 46.5 t106.5 37.5v2q-52 2 -91.5 39t-39.5 83q0 65 59 109t145 44q82 0 135 -40zM355 -54h-80q-53 0 -89 8q-39 -28 -39 -56q0 -35 44 -60.5t104 -25.5q61 0 102 24t41 60q0 50 -83 50zM181 281q0 -110 83 -110q34 0 52 23t18 65q0 56 -21 86.5t-58 30.5q-35 0 -54.5 -25 t-19.5 -70z"/>
<glyph unicode="h" horiz-adv-x="563" glyph-name="h" d="M200 306v-205q0 -44 11.5 -56.5t40.5 -12.5h10v-32h-253v32h14q36 0 45.5 15t9.5 58v437q0 22 -6 30t-26 15l-29 10v23l159 49h24v-326q109 76 180 76q109 0 109 -177v-132q0 -46 8.5 -62t36.5 -16h10v-32h-236v32h8q31 0 41 15t10 58v151q0 41 -17.5 64.5t-47.5 23.5 q-44 0 -102 -38z"/>
<glyph unicode="i" horiz-adv-x="292" glyph-name="i" d="M265 32v-32h-250v32h11q31 0 43.5 15.5t12.5 54.5v192q0 19 -6.5 27t-27.5 16l-33 12v24l171 57h18v-335q0 -63 61 -63zM139 657q34 0 56.5 -19.5t22.5 -48.5t-23.5 -48.5t-55.5 -19.5q-34 0 -57 19.5t-23 48.5q0 27 24 47.5t56 20.5z"/>
<glyph unicode="j" horiz-adv-x="281" glyph-name="j" d="M205 430v-425q0 -96 -56 -165t-162 -69q-49 0 -76 15.5t-27 43.5q0 23 19.5 41.5t43.5 18.5q22 0 39 -17t30.5 -33.5t26.5 -16.5q18 0 29 24t11 66v379q0 23 -5 30t-28 15l-34 12v24l169 57h20zM141 657q34 0 56.5 -19.5t22.5 -48.5t-23.5 -48.5t-55.5 -19.5 q-34 0 -57 19.5t-23 48.5q0 27 24 47.5t56 20.5z"/>
<glyph unicode="k" horiz-adv-x="542" glyph-name="k" d="M310 268l145 -181q44 -55 77 -55h9v-32h-231v32q39 0 14 32l-124 161h-2v-126q0 -34 12.5 -50.5t46.5 -16.5v-32h-242v32q35 0 48 15t13 55v440q0 22 -6 30t-26 15l-29 10v23l159 49h24v-435l140 117q10 7 7 16t-24 9h-24v32h207v-32q-66 0 -131 -55z"/>
<glyph unicode="l" horiz-adv-x="271" glyph-name="l" d="M195 669v-567q0 -37 13.5 -53.5t46.5 -16.5v-32h-248v32h10q31 0 43.5 15.5t12.5 54.5v412q0 33 -4.5 43.5t-21.5 16.5l-43 16v29l173 50h18z"/>
<glyph unicode="m" horiz-adv-x="927" glyph-name="m" d="M528 280v-181q0 -67 56 -67v-32h-235v32q32 0 44.5 15.5t12.5 54.5v143q0 98 -61 98q-50 0 -141 -63v-184q0 -64 59 -64h8v-32h-252v32h6q32 0 44.5 15.5t12.5 54.5v195q0 16 -9 25t-34 18l-22 8v24l169 58h18v-115q80 57 129 80.5t87 23.5q43 0 70.5 -27.5t33.5 -76.5 q142 104 223 104q55 0 80 -41t25 -131v-156q0 -35 12.5 -47t43.5 -12v-32h-235v32q31 2 44 27t13 86v87q0 111 -62 111q-47 0 -140 -63z"/>
<glyph unicode="n" d="M495 247v-156q0 -35 13 -47t44 -12v-32h-236v32q31 2 44 27t13 86v87q0 111 -62 111q-42 0 -106 -44v-203q0 -64 59 -64h9v-32h-253v32h6q32 0 44.5 15.5t12.5 54.5v195q0 32 -47 45l-21 6v24l171 58h19v-89q119 78 185 78q55 0 80 -41t25 -131z" glyph-name="n"/>
<glyph unicode="o" d="M43 198q0 94 72 157.5t179 63.5q103 0 169.5 -58.5t66.5 -149.5q0 -95 -72 -158.5t-179 -63.5q-103 0 -169.5 58.5t-66.5 150.5zM175 257q0 -47 12 -96t43.5 -89t76.5 -40q43 0 67 32.5t24 91.5q0 96 -36.5 158t-93.5 62q-44 0 -68.5 -31.5t-24.5 -87.5z" glyph-name="o"/>
<glyph unicode="p" d="M201 2v-107q0 -50 19.5 -68.5t79.5 -22.5v-31h-287v31h12q29 0 41.5 15t12.5 51v420q0 38 -27 48l-37 13v25l160 54h26v-96q4 3 18.5 14.5t18.5 14.5t16.5 12.5t18 12.5t17 10t19 9.5l18 6t20.5 4.5t21 1q69 0 116 -54.5t47 -134.5q0 -58 -24 -111.5t-78 -91.5t-126 -38 q-44 0 -102 13zM201 293v-218q47 -49 103 -49q46 0 75 41t29 106q0 71 -29 121t-80 50q-41 0 -98 -51z" glyph-name="p"/>
<glyph unicode="q" d="M371 -125v199q-90 -85 -163 -85q-70 0 -117 54.5t-47 135.5q0 102 70 171t174 69q78 0 147 -40l43 40h24q-9 -65 -9 -122v-425q0 -35 12 -50t48 -18v-31h-283v31h39q37 0 49.5 15.5t12.5 55.5zM371 118v140q0 56 -22.5 87t-64.5 31q-53 0 -84 -41.5t-31 -112.5 q0 -67 31.5 -110.5t81.5 -43.5q24 0 43 10.5t46 39.5z" glyph-name="q"/>
<glyph unicode="r" horiz-adv-x="396" glyph-name="r" d="M300 32v-32h-278v32h7q31 0 43.5 15.5t12.5 54.5v163q0 33 -6.5 45.5t-29.5 21.5l-27 11v25l164 62h21v-112h2q31 60 47 80.5t40 20.5q12 0 20 -3l79 -29q-18 -65 -48 -106q-65 25 -81 25q-27 0 -59 -45v-162q0 -37 14.5 -52t52.5 -15h26z"/>
<glyph unicode="s" horiz-adv-x="375" glyph-name="s" d="M53 -9l-11 127h32q12 -41 41 -63.5t63 -22.5q21 0 36.5 13.5t15.5 32.5q0 22 -29.5 45.5t-64.5 42t-64.5 52t-29.5 74.5q0 57 43.5 92t113.5 35q53 0 112 -21l2 -107h-32q-28 85 -94 85q-20 0 -33 -11t-13 -27q0 -22 20.5 -40.5t49.5 -34t57.5 -33t49 -47t20.5 -67.5 q0 -56 -36 -91t-94 -35q-41 0 -74 7l-32 7q-8 0 -20 -13h-29z"/>
<glyph unicode="t" horiz-adv-x="344" glyph-name="t" d="M199 353v-242q0 -53 46 -53q35 0 76 50l14 -28q-22 -40 -63 -65.5t-82 -25.5q-53 0 -83 31t-30 93v240h-53v26q45 19 88.5 65.5t57.5 88.5h29v-125h131l-15 -55h-116z"/>
<glyph unicode="u" d="M363 -11v80q-126 -80 -179 -80q-52 0 -80.5 39.5t-28.5 97.5v167q0 29 -4 39.5t-17 16.5l-21 10v23l144 37h20v-255q0 -99 65 -99q37 0 101 41v181q0 29 -7 40t-29 18l-46 14v23l184 37h20v-306q0 -37 5.5 -48.5t23.5 -11.5q14 0 30 6v-31l-162 -39h-19z" glyph-name="u"/>
<glyph unicode="v" horiz-adv-x="521" glyph-name="v" d="M4 376v32h254v-32h-35q-17 0 -21 -14t8 -42l89 -199l78 176q18 39 5.5 56.5t-64.5 22.5v32h199v-32q-38 -4 -53.5 -15.5t-30.5 -44.5l-143 -323h-60l-149 321q-15 32 -30 45t-47 17z"/>
<glyph unicode="w" horiz-adv-x="781" glyph-name="w" d="M220 -7l-138 322q-27 61 -78 61v32h239v-32q-26 -1 -35 -16.5t1 -36.5l80 -191l80 182q-13 34 -27 48t-36 14v32h227v-32q-61 0 -37 -60l76 -184l70 171q13 34 0.5 52.5t-50.5 20.5v32h184v-32q-36 -4 -53 -21t-37 -64l-126 -298h-55l-112 261l-120 -261h-53z"/>
<glyph unicode="x" horiz-adv-x="531" glyph-name="x" d="M232 151l-53 -56q-29 -32 -24 -47.5t39 -15.5v-32h-177v32q39 0 85 46l103 106l-115 138q-24 30 -40.5 41t-40.5 13v32h245v-32q-24 0 -31 -8t5 -25l61 -75l55 59q20 21 10.5 35t-40.5 14v32h187v-32q-58 -7 -119 -71l-68 -71l128 -157q37 -45 75 -45h6v-32h-258v32h9 q25 0 30 12.5t-11 30.5z"/>
<glyph unicode="y" horiz-adv-x="521" glyph-name="y" d="M231 10l-135 275q-27 55 -45 73t-50 18v32h255v-32q-38 0 -47 -15t6 -45l83 -172l76 154q17 32 4 54.5t-56 23.5v32h186v-32q-34 -7 -49.5 -21.5t-36.5 -57.5l-224 -456q-37 -74 -91 -74q-27 0 -45 16t-18 41q0 27 15 42q14 14 35.5 18.5t38.5 5t38.5 18.5t39.5 58z"/>
<glyph unicode="z" horiz-adv-x="510" glyph-name="z" d="M30 0v32l264 321h-139q-29 0 -46 -16.5t-40 -68.5h-33l33 168h33q-3 -14 3.5 -21t29.5 -7h334v-28l-267 -325h129q50 0 69.5 13.5t57.5 70.5h31l-47 -139h-412z"/>
<glyph unicode="{" horiz-adv-x="396" glyph-name="braceleft" d="M63 233q45 4 70.5 36.5t25.5 72.5q0 27 -13 86q-13 48 -13 79q0 24 11 50.5t33.5 52.5t63.5 42.5t93 16.5v-23q-48 -7 -71.5 -35t-23.5 -59q0 -32 11 -83q12 -54 12 -86q0 -57 -43.5 -102t-115.5 -61v-2q72 -16 115.5 -61t43.5 -102q0 -30 -12 -86q-11 -50 -11 -83 q0 -31 23.5 -59t71.5 -35v-23q-52 0 -93 16.5t-63.5 42.5t-33.5 52.5t-11 50.5q0 32 13 80q13 59 13 85q0 40 -25.5 72.5t-70.5 36.5v28z"/>
<glyph unicode="|" horiz-adv-x="566" glyph-name="bar" d="M244 641h78v-776h-78v776z"/>
<glyph unicode="}" horiz-adv-x="396" glyph-name="braceright" d="M333 205q-45 -4 -70.5 -36.5t-25.5 -72.5q0 -32 13 -85t13 -80q0 -24 -11 -50.5t-33.5 -52.5t-63.5 -42.5t-93 -16.5v23q48 7 71.5 35t23.5 59q0 24 -11 83q-12 54 -12 86q0 57 43.5 102t115.5 61v2q-72 16 -115.5 61t-43.5 102q0 31 11.5 86t11.5 83q0 31 -23.5 59 t-71.5 35v23q52 0 93 -16.5t63.5 -42.5t33.5 -52.5t11 -50.5q0 -30 -13 -80q-13 -56 -13 -85q0 -40 25.5 -72.5t70.5 -36.5v-28z"/>
<glyph unicode="~" horiz-adv-x="521" glyph-name="asciitilde" d="M498 400h39q-5 -177 -154 -177q-51 0 -153 42q-9 4 -27.5 12t-28 12t-23.5 9t-25.5 7t-22.5 2q-38 0 -55.5 -20.5t-23.5 -63.5h-39q5 177 150 177q49 0 157 -38q11 -4 36 -13t36.5 -13t27.5 -8t26 -4q41 0 58.5 17t21.5 59z"/>
<glyph unicode=" " horiz-adv-x="333" glyph-name="uni00A0"/>
<glyph unicode="¡" horiz-adv-x="313" glyph-name="exclamdown" d="M157 280q-34 0 -57.5 19t-23.5 48q0 28 23 48t58 20t57.5 -20t22.5 -48q0 -29 -23.5 -48t-56.5 -19zM140 180h34l56 -372q4 -26 -1 -33.5t-27 -7.5h-90q-23 0 -28 7.5t-1 33.5z"/>
<glyph unicode="¢" horiz-adv-x="490" glyph-name="cent" d="M206 -6l-64 -162h-41l68 172q-59 23 -92 71t-33 112q0 102 83.5 172t207.5 58l47 118h41l-50 -126q38 -10 59.5 -29.5t21.5 -45.5q0 -22 -14 -36t-36 -14q-36 0 -68 35l-101 -253q28 -25 68 -25q66 0 126 71l29 -16q-43 -64 -108.5 -90t-143.5 -12zM206 99l102 250 q-25 24 -48 24q-37 0 -60.5 -42t-23.5 -108q0 -77 30 -124z"/>
<glyph unicode="£" horiz-adv-x="833" glyph-name="sterling" d="M537 97h-200q-47 -76 -101 -130l2 -2q52 17 92 17q49 0 96.5 -24t78 -52.5t65 -52.5t59.5 -24q29 0 46.5 17t17.5 39q0 23 -16 53.5t-16 51.5t13 34t35 13q29 0 46 -23.5t17 -62.5q0 -77 -63 -127.5t-132 -50.5q-46 0 -87 16t-70 38t-54.5 44.5t-52 38.5t-52.5 16 q-19 0 -69 -18q-60 -135 -122 -135q-15 0 -25 11t-10 28q0 58 113 121q42 80 76 164h-146l13 38h149l81 173q34 73 66 128t75 110.5t93.5 85.5t104.5 30q56 0 98.5 -24t42.5 -53q0 -21 -17.5 -42.5t-36.5 -21.5t-38 24.5t-39 49t-40 24.5q-36 0 -65.5 -55.5t-84 -188 t-116.5 -240.5h185z"/>
<glyph unicode="¤" horiz-adv-x="667" glyph-name="currency" d="M464 507l62 63l51 -52l-62 -63q42 -62 42 -130q0 -67 -42 -129l62 -62l-51 -52l-62 62q-63 -42 -129 -42q-67 0 -131 42l-63 -62l-52 52l63 62q-42 62 -42 130q0 67 42 130l-63 62l52 52l63 -63q64 42 129 42q67 0 131 -42zM183 326q0 -62 44.5 -106.5t106.5 -44.5 t106 44.5t44 106.5t-44 106t-106 44t-106.5 -44t-44.5 -106z"/>
<glyph unicode="¥" horiz-adv-x="500" glyph-name="yen" d="M189 470h212l21 33q14 21 17.5 37.5t-8.5 29.5t-45 13h-12v39h236v-39q-43 -3 -64 -16.5t-47 -53.5l-28 -43h111v-39h-136l-93 -142h229v-39h-254v-137q0 -39 18 -56.5t69 -17.5h15v-39h-333v39h25q43 0 59.5 18t16.5 54v139h-280v39h254l-106 142h-148v39h119l-49 66 q-22 29 -38 38t-53 9h-7v39h321v-39h-12q-42 0 -57.5 -15.5t2.5 -37.5zM375 431h-157l83 -114z"/>
<glyph unicode="¦" horiz-adv-x="566" glyph-name="brokenbar" d="M244 198h78v-333h-78v333zM244 641h78v-332h-78v332z"/>
<glyph unicode="§" horiz-adv-x="469" glyph-name="section" d="M183 570q0 -28 37.5 -90t83 -125.5t83 -147.5t37.5 -151q0 -94 -73.5 -163t-173.5 -69q-41 0 -77.5 23t-36.5 50q0 19 14 33.5t33 14.5q21 0 56.5 -35.5t64.5 -35.5q21 0 35 13.5t14 33.5q0 27 -24 70.5t-59 93t-69.5 102.5t-58.5 114.5t-24 115.5q0 105 71.5 175 t160.5 70q50 0 89.5 -21t39.5 -48q0 -19 -14.5 -35.5t-31.5 -16.5q-20 0 -61 37t-68 37q-19 0 -33.5 -13.5t-14.5 -31.5zM321 -80h2q47 52 47 118q0 50 -34 121t-75.5 131.5t-78.5 134.5t-42 127q-41 -38 -41 -105q0 -44 24.5 -101.5t58.5 -112.5t68 -109.5t55 -108.5 t16 -95z"/>
<glyph unicode="¨" horiz-adv-x="333" glyph-name="dieresis" d="M264 619q25 0 42.5 -17.5t17.5 -42.5t-17.5 -42.5t-42.5 -17.5t-42.5 17.5t-17.5 42.5t17.5 42.5t42.5 17.5zM70 619q25 0 42.5 -17.5t17.5 -42.5t-17.5 -42.5t-42.5 -17.5t-42.5 17.5t-17.5 42.5t17.5 42.5t42.5 17.5z"/>
<glyph unicode="©" horiz-adv-x="750" glyph-name="copyright" d="M539 540v-129h-19q-10 49 -42 77.5t-78 28.5q-60 0 -93.5 -47.5t-33.5 -132.5q0 -94 36 -137.5t89 -43.5q72 0 127 68v-35q-60 -62 -156 -62q-91 0 -148 55.5t-57 143.5q0 93 60.5 154t153.5 61q38 0 76.5 -13t42.5 -13q19 0 23 25h19zM375 677q143 0 244.5 -101.5 t101.5 -244.5t-101.5 -244.5t-244.5 -101.5t-244.5 101.5t-101.5 244.5t101.5 244.5t244.5 101.5zM375 634q-125 0 -214 -89t-89 -214t89 -214t214 -89t214 89t89 214t-89 214t-214 89z"/>
<glyph unicode="ª" horiz-adv-x="365" glyph-name="ordfeminine" d="M314 435l11 -15q-38 -36 -75 -36q-36 0 -46 37q-37 -37 -79 -37q-35 0 -55.5 17t-20.5 46q0 28 17 45q16 16 61.5 28.5t75.5 34.5v22q0 17 -10.5 27.5t-28.5 10.5q-20 0 -29.5 -13t-6.5 -31l-73 -23q-9 35 12 56q13 13 47.5 25t62.5 12q12 0 27.5 -3.5t34.5 -11 t31.5 -23.5t12.5 -38v-115q0 -19 9.5 -22.5t21.5 7.5zM203 445v83q-11 -10 -32 -18.5t-32.5 -18.5t-11.5 -32q0 -19 9 -30.5t23 -11.5q16 0 44 28z"/>
<glyph unicode="«" horiz-adv-x="427" glyph-name="guillemotleft" d="M335 220l63 -172h-33l-136 172l136 172h33zM143 220l81 -185h-33l-168 185l168 185h33z"/>
<glyph unicode="¬" horiz-adv-x="667" glyph-name="logicalnot" d="M66 480h534v-307h-77v230h-457v77z"/>
<glyph unicode="­" horiz-adv-x="417" glyph-name="uni00AD" d="M35 153v98h346v-98h-346z"/>
<glyph unicode="®" horiz-adv-x="750" glyph-name="registered" d="M190 532h195q78 0 116.5 -30t38.5 -77q0 -76 -87 -101l66 -122q23 -43 52 -49v-16h-118l-101 180h-22v-97q0 -41 10.5 -53.5t48.5 -13.5v-16h-207v16q30 -1 40.5 13t10.5 54v231q0 38 -8 50t-35 14v17zM330 511v-169q50 -9 77.5 16.5t27.5 69.5q0 40 -21.5 61.5 t-59.5 21.5h-24zM375 677q143 0 244.5 -101.5t101.5 -244.5t-101.5 -244.5t-244.5 -101.5t-244.5 101.5t-101.5 244.5t101.5 244.5t244.5 101.5zM375 634q-125 0 -214 -89t-89 -214t89 -214t214 -89t214 89t89 214t-89 214t-214 89z"/>
<glyph unicode="¯" horiz-adv-x="333" glyph-name="macron" d="M6 524v80h321v-80h-321z"/>
<glyph unicode="°" horiz-adv-x="396" glyph-name="degree" d="M198 638q70 0 119.5 -49.5t49.5 -119.5t-49.5 -119.5t-119.5 -49.5t-119.5 49.5t-49.5 119.5t49.5 119.5t119.5 49.5zM198 574q-44 0 -74.5 -31t-30.5 -74t30.5 -74t74.5 -31t74.5 31t30.5 74t-30.5 74t-74.5 31z"/>
<glyph unicode="±" horiz-adv-x="668" glyph-name="plusminus" d="M67 53h534v-76h-534v76zM372 448h229v-76h-229v-229h-76v229h-229v76h229v229h76v-229z"/>
<glyph unicode="²" horiz-adv-x="313" glyph-name="two.superior" d="M21 411v22q71 64 118 114q38 44 38 84q0 27 -12.5 45t-40.5 18q-22 0 -40 -15t-23 -41h-34q7 49 42 77t81 28q48 0 79 -27t31 -68q0 -49 -63 -100q-67 -54 -91 -77h93q24 0 32 6.5t14 32.5h30l-12 -99h-242z"/>
<glyph unicode="³" horiz-adv-x="313" glyph-name="three.superior" d="M105 564l-14 22q10 5 21.5 13.5t26 26.5t14.5 36q0 14 -9 24.5t-27 10.5q-30 0 -54 -39l-26 10q15 40 46.5 57.5t64.5 17.5q37 0 61.5 -18t24.5 -43q0 -37 -55 -69q45 -5 64 -31t19 -57q0 -57 -46.5 -89.5t-105.5 -32.5q-38 0 -64.5 14t-26.5 32q0 12 10 21t28 9 q11 0 19 -4t12 -8t12 -14q16 -20 36 -20q21 0 33 19.5t12 46.5q0 31 -15 50.5t-39 19.5q-12 0 -22 -5z"/>
<glyph unicode="´" horiz-adv-x="333" glyph-name="acute" d="M87 477l74 189h161l-177 -189h-58z"/>
<glyph unicode="µ" horiz-adv-x="552" glyph-name="mu" d="M62 408h122v-290q0 -32 16 -48.5t40 -16.5t50 15t44 44v296h122v-298q0 -50 33 -50q18 0 26 16t12 54h20q-1 -58 -24 -90q-37 -54 -102 -54q-36 0 -53 17.5t-31 59.5q-67 -77 -154 -77q-35 0 -74 28q0 -51 14.5 -99.5t14.5 -64.5q0 -30 -16 -47.5t-43 -17.5q-52 0 -52 58 q0 21 17.5 93.5t17.5 157.5v314z"/>
<glyph unicode="¶" horiz-adv-x="542" glyph-name="paragraph" d="M312 584v-817h-49v402q-133 0 -198 65t-65 163q0 100 59 159q38 38 86 52t144 14h252v-22h-21q-71 0 -71 -68v-765h-49v817h-88z"/>
<glyph unicode="·" horiz-adv-x="313" glyph-name="periodcentered" d="M156 379q34 0 57.5 -19t23.5 -48q0 -28 -23 -48t-58 -20t-57.5 20t-22.5 48q0 29 23.5 48t56.5 19z"/>
<glyph unicode="¸" horiz-adv-x="333" glyph-name="cedilla" d="M110 -83l63 88h34l-22 -38q61 -16 61 -79q0 -40 -28.5 -66.5t-72.5 -26.5q-49 0 -87 24l9 30q26 -11 56 -11q18 0 31 12t13 28q0 19 -13 27.5t-44 11.5z"/>
<glyph unicode="¹" horiz-adv-x="313" glyph-name="one.superior" d="M207 743v-283q0 -26 18 -26h40v-23h-199v23h35q21 0 21 27v207q-31 -16 -67 -24l-11 21q74 30 120 78h43z"/>
<glyph unicode="º" horiz-adv-x="375" glyph-name="ordmasculine" d="M29 509q0 56 47 94t117 38q67 0 110 -35t43 -90q0 -56 -46.5 -94t-116.5 -38q-67 0 -110.5 35t-43.5 90zM115 544q0 -58 24 -95t61 -37q60 0 60 72q0 57 -23.5 93t-60.5 36q-61 0 -61 -69z"/>
<glyph unicode="»" horiz-adv-x="427" glyph-name="guillemotright" d="M92 220l-63 172h33l136 -172l-136 -172h-33zM284 220l-81 185h33l168 -185l-168 -185h-33z"/>
<glyph unicode="¼" horiz-adv-x="823" glyph-name="onequarter" d="M552 -8v87h-127v27l170 225h41v-212h50v-40h-50v-87h-84zM552 119v102h-2l-75 -102h77zM114 -28l445 665h71l-446 -665h-70zM204 637v-287q0 -20 14 -20h44v-24h-199v24h43q13 0 13 18v215q-33 -17 -67 -24l-11 21q72 29 121 77h42z"/>
<glyph unicode="½" horiz-adv-x="823" glyph-name="onehalf" d="M114 -28l445 665h71l-446 -665h-70zM456 0v22q97 90 126.5 125.5t29.5 73.5q0 29 -14 46t-39 17q-23 0 -40.5 -16t-22.5 -42h-34q7 47 41 76t83 29q47 0 78 -26.5t31 -67.5q0 -25 -12 -45.5t-27 -33.5t-51.5 -43t-64.5 -55h94q24 0 32.5 7t13.5 32h30l-12 -99h-242z M204 637v-287q0 -20 14 -20h44v-24h-199v24h43q13 0 13 18v215q-33 -17 -67 -24l-11 21q72 29 121 77h42z"/>
<glyph unicode="¾" horiz-adv-x="823" glyph-name="threequarters" d="M133 -28l445 665h71l-446 -665h-70zM132 460l-13 20q61 38 61 78q0 16 -10 26t-26 10q-31 0 -53 -42l-27 11q14 35 43.5 54.5t68.5 19.5q36 0 60.5 -17.5t24.5 -42.5q0 -37 -55 -67v-2q39 -5 61 -28t22 -60q0 -53 -43 -87.5t-109 -34.5q-38 0 -64.5 13.5t-26.5 32.5 q0 11 10 20.5t28 9.5q23 0 41.5 -23t37.5 -23q20 0 32.5 18.5t12.5 47.5q0 31 -15 50.5t-39 19.5q-9 0 -22 -4zM571 -8v87h-127v27l170 225h41v-212h50v-40h-50v-87h-84zM571 119v102h-2l-75 -102h77z"/>
<glyph unicode="¿" horiz-adv-x="365" glyph-name="questiondown" d="M215 219h35q42 -71 42 -114q0 -33 -21.5 -53t-52.5 -28.5l-62 -17t-52.5 -26t-21.5 -46.5q0 -28 18.5 -46t46.5 -18q21 0 55.5 8.5t56.5 8.5q28 0 44.5 -14t16.5 -39q0 -31 -27 -49t-71 -18q-83 0 -135.5 57t-52.5 146q0 52 20.5 87.5t49.5 50.5t58 24t49.5 17t20.5 21 q0 16 -17 49zM221 280q-34 0 -57.5 19t-23.5 48q0 28 23 48t58 20t57.5 -20t22.5 -48q0 -29 -23.5 -48t-56.5 -19z"/>
<glyph unicode="À" horiz-adv-x="740" glyph-name="Agrave" d="M443 231h-219l-42 -117q-18 -38 -3 -56.5t82 -18.5h13v-39h-265v39h15q36 0 57.5 20t40.5 72l171 477l-11 29h148l200 -508q20 -50 40.5 -68.5t59.5 -21.5v-39h-325v39h35q44 0 55.5 19.5t-5.5 56.5zM420 286l-92 234l-84 -234h176zM446 682h-58l-177 189h161z"/>
<glyph unicode="Á" horiz-adv-x="740" glyph-name="Aacute" d="M443 231h-219l-42 -117q-18 -38 -3 -56.5t82 -18.5h13v-39h-265v39h15q36 0 57.5 20t40.5 72l171 477l-11 29h148l200 -508q20 -50 40.5 -68.5t59.5 -21.5v-39h-325v39h35q44 0 55.5 19.5t-5.5 56.5zM420 286l-92 234l-84 -234h176zM291 682l74 189h161l-177 -189h-58z "/>
<glyph unicode="Â" horiz-adv-x="740" glyph-name="Acircumflex" d="M443 231h-219l-42 -117q-18 -38 -3 -56.5t82 -18.5h13v-39h-265v39h15q36 0 57.5 20t40.5 72l171 477l-11 29h148l200 -508q20 -50 40.5 -68.5t59.5 -21.5v-39h-325v39h35q44 0 55.5 19.5t-5.5 56.5zM420 286l-92 234l-84 -234h176zM370 788l-75 -106h-80l80 189h148 l84 -189h-78z"/>
<glyph unicode="Ã" horiz-adv-x="740" glyph-name="Atilde" d="M443 231h-219l-42 -117q-18 -38 -3 -56.5t82 -18.5h13v-39h-265v39h15q36 0 57.5 20t40.5 72l171 477l-11 29h148l200 -508q20 -50 40.5 -68.5t59.5 -21.5v-39h-325v39h35q44 0 55.5 19.5t-5.5 56.5zM420 286l-92 234l-84 -234h176zM250 706h-63q0 65 30.5 106t79.5 41 q31 0 80.5 -25.5t65.5 -25.5q35 0 47 50h64q-3 -62 -34 -103.5t-75 -41.5q-31 0 -82 25t-66 25q-34 0 -47 -51z"/>
<glyph unicode="Ä" horiz-adv-x="740" glyph-name="Adieresis" d="M443 231h-219l-42 -117q-18 -38 -3 -56.5t82 -18.5h13v-39h-265v39h15q36 0 57.5 20t40.5 72l171 477l-11 29h148l200 -508q20 -50 40.5 -68.5t59.5 -21.5v-39h-325v39h35q44 0 55.5 19.5t-5.5 56.5zM420 286l-92 234l-84 -234h176zM468 824q25 0 42.5 -17.5t17.5 -42.5 t-17.5 -42.5t-42.5 -17.5t-42.5 17.5t-17.5 42.5t17.5 42.5t42.5 17.5zM274 824q25 0 42.5 -17.5t17.5 -42.5t-17.5 -42.5t-42.5 -17.5t-42.5 17.5t-17.5 42.5t17.5 42.5t42.5 17.5z"/>
<glyph unicode="Å" horiz-adv-x="740" glyph-name="Aring" d="M443 231h-219l-42 -117q-18 -38 -3 -56.5t82 -18.5h13v-39h-265v39h15q36 0 57.5 20t40.5 72l171 477l-11 29h148l200 -508q20 -50 40.5 -68.5t59.5 -21.5v-39h-325v39h35q44 0 55.5 19.5t-5.5 56.5zM420 286l-92 234l-84 -234h176zM371 868q41 0 69 -28t28 -69t-28 -69 t-69 -28t-69 28t-28 69t28 69t69 28zM371 833q-25 0 -43.5 -18.5t-18.5 -43.5t18.5 -43.5t43.5 -18.5t43.5 18.5t18.5 43.5t-18.5 43.5t-43.5 18.5z"/>
<glyph unicode="Æ" horiz-adv-x="896" glyph-name="AE" d="M545 284v-177q0 -32 7.5 -42t29.5 -10h127q51 0 76 20.5t39 81.5h38l-12 -157h-543v39h22q43 0 60.5 17t17.5 55v102h-193l-52 -101q-18 -32 -9.5 -52.5t43.5 -20.5h18v-39h-230v39h13q64 0 118 106l194 379q17 30 12.5 44.5t-36.5 14.5h-32v39h566l10 -145h-38 q-8 52 -21.5 71t-47.5 19h-177v-228h112q41 0 58 16t17 56h40v-199h-40q0 42 -17 57t-73 15h-97zM407 268v321h-4l-161 -321h165z"/>
<glyph unicode="Ç" horiz-adv-x="740" glyph-name="Ccedilla" d="M268 -181l9 30q26 -11 56 -11q18 0 31 12t13 28q0 19 -13 27.5t-44 11.5l51 71q-139 15 -229.5 105.5t-90.5 215.5q0 138 111 233t272 95q46 0 89 -10.5t70 -20.5t33 -10q11 0 20 10h25l9 -175h-39q-24 74 -75.5 114.5t-123.5 40.5q-107 0 -174.5 -74t-67.5 -192 q0 -121 73 -203t180 -82q69 0 123.5 38t85.5 106h40q-14 -90 -56 -182q-22 7 -59 7q-19 0 -76.5 -9t-104.5 -9l-11 -19q61 -16 61 -79q0 -40 -28.5 -66.5t-72.5 -26.5q-49 0 -87 24z"/>
<glyph unicode="È" horiz-adv-x="646" glyph-name="Egrave" d="M543 477q-8 52 -21.5 71t-47.5 19h-219v-225h162q41 0 58 16t17 56h40v-199h-40q0 42 -17 57t-73 15h-147v-180q0 -32 7.5 -42t29.5 -10h167q51 0 76 20.5t39 81.5h38l-12 -157h-602v39h41q43 0 60.5 17t17.5 55v399q0 41 -18 57t-69 16h-10v39h551l10 -145h-38zM399 682 h-58l-177 189h161z"/>
<glyph unicode="É" horiz-adv-x="646" glyph-name="Eacute" d="M543 477q-8 52 -21.5 71t-47.5 19h-219v-225h162q41 0 58 16t17 56h40v-199h-40q0 42 -17 57t-73 15h-147v-180q0 -32 7.5 -42t29.5 -10h167q51 0 76 20.5t39 81.5h38l-12 -157h-602v39h41q43 0 60.5 17t17.5 55v399q0 41 -18 57t-69 16h-10v39h551l10 -145h-38zM244 682 l74 189h161l-177 -189h-58z"/>
<glyph unicode="Ê" horiz-adv-x="646" glyph-name="Ecircumflex" d="M543 477q-8 52 -21.5 71t-47.5 19h-219v-225h162q41 0 58 16t17 56h40v-199h-40q0 42 -17 57t-73 15h-147v-180q0 -32 7.5 -42t29.5 -10h167q51 0 76 20.5t39 81.5h38l-12 -157h-602v39h41q43 0 60.5 17t17.5 55v399q0 41 -18 57t-69 16h-10v39h551l10 -145h-38zM323 788 l-75 -106h-80l80 189h148l84 -189h-78z"/>
<glyph unicode="Ë" horiz-adv-x="646" glyph-name="Edieresis" d="M543 477q-8 52 -21.5 71t-47.5 19h-219v-225h162q41 0 58 16t17 56h40v-199h-40q0 42 -17 57t-73 15h-147v-180q0 -32 7.5 -42t29.5 -10h167q51 0 76 20.5t39 81.5h38l-12 -157h-602v39h41q43 0 60.5 17t17.5 55v399q0 41 -18 57t-69 16h-10v39h551l10 -145h-38zM421 824 q25 0 42.5 -17.5t17.5 -42.5t-17.5 -42.5t-42.5 -17.5t-42.5 17.5t-17.5 42.5t17.5 42.5t42.5 17.5zM227 824q25 0 42.5 -17.5t17.5 -42.5t-17.5 -42.5t-42.5 -17.5t-42.5 17.5t-17.5 42.5t17.5 42.5t42.5 17.5z"/>
<glyph unicode="Ì" horiz-adv-x="365" glyph-name="Igrave" d="M23 583v39h318v-39h-17q-40 0 -58 -18t-18 -57v-396q0 -38 17 -55.5t61 -17.5h15v-39h-318v39h14q73 0 73 69v400q0 40 -16.5 57.5t-57.5 17.5h-13zM258 682h-58l-177 189h161z"/>
<glyph unicode="Í" horiz-adv-x="365" glyph-name="Iacute" d="M23 583v39h318v-39h-17q-40 0 -58 -18t-18 -57v-396q0 -38 17 -55.5t61 -17.5h15v-39h-318v39h14q73 0 73 69v400q0 40 -16.5 57.5t-57.5 17.5h-13zM103 682l74 189h161l-177 -189h-58z"/>
<glyph unicode="Î" horiz-adv-x="365" glyph-name="Icircumflex" d="M23 583v39h318v-39h-17q-40 0 -58 -18t-18 -57v-396q0 -38 17 -55.5t61 -17.5h15v-39h-318v39h14q73 0 73 69v400q0 40 -16.5 57.5t-57.5 17.5h-13zM182 788l-75 -106h-80l80 189h148l84 -189h-78z"/>
<glyph unicode="Ï" horiz-adv-x="365" glyph-name="Idieresis" d="M23 583v39h318v-39h-17q-40 0 -58 -18t-18 -57v-396q0 -38 17 -55.5t61 -17.5h15v-39h-318v39h14q73 0 73 69v400q0 40 -16.5 57.5t-57.5 17.5h-13zM280 824q25 0 42.5 -17.5t17.5 -42.5t-17.5 -42.5t-42.5 -17.5t-42.5 17.5t-17.5 42.5t17.5 42.5t42.5 17.5zM86 824 q25 0 42.5 -17.5t17.5 -42.5t-17.5 -42.5t-42.5 -17.5t-42.5 17.5t-17.5 42.5t17.5 42.5t42.5 17.5z"/>
<glyph unicode="Ð" horiz-adv-x="823" glyph-name="Eth" d="M21 583v39q22 1 79 3.5t82 4.5q83 5 137 5q150 0 231.5 -22t136.5 -77q84 -84 84 -210q0 -131 -93 -224q-46 -46 -123 -74t-216 -28h-318v39q52 0 72.5 14.5t20.5 55.5v170h-93v60h93v156q0 54 -18 71t-75 17zM252 583v-244h163v-60h-163v-163q0 -50 14.5 -63t72.5 -13 q65 0 115.5 17t81.5 44.5t51 64.5t27.5 73t7.5 74q0 129 -74 203q-72 72 -218 72q-42 0 -78 -5z"/>
<glyph unicode="Ñ" horiz-adv-x="813" glyph-name="Ntilde" d="M167 498v-378q0 -47 20 -64t79 -17v-39h-242v39h6q44 0 60 15t16 48v459q-32 22 -80 22v39h206l408 -426v302q0 54 -17.5 69.5t-77.5 15.5h-10v39h258v-39h-10q-46 0 -64 -11t-18 -40v-535h-55zM286 706h-63q0 65 30.5 106t79.5 41q31 0 80.5 -25.5t65.5 -25.5 q35 0 47 50h64q-3 -62 -34 -103.5t-75 -41.5q-31 0 -82 25t-66 25q-34 0 -47 -51z"/>
<glyph unicode="Ò" horiz-adv-x="844" glyph-name="Ograve" d="M52 301q0 148 108 244t275 96q157 0 257 -89t100 -229t-102 -238.5t-274 -98.5q-166 0 -265 91.5t-99 223.5zM201 349q0 -143 66 -231.5t172 -88.5q99 0 151.5 73.5t52.5 184.5q0 83 -25.5 152t-79.5 114t-127 45q-95 0 -152.5 -68t-57.5 -181zM498 682h-58l-177 189h161 z"/>
<glyph unicode="Ó" horiz-adv-x="844" glyph-name="Oacute" d="M52 301q0 148 108 244t275 96q157 0 257 -89t100 -229t-102 -238.5t-274 -98.5q-166 0 -265 91.5t-99 223.5zM201 349q0 -143 66 -231.5t172 -88.5q99 0 151.5 73.5t52.5 184.5q0 83 -25.5 152t-79.5 114t-127 45q-95 0 -152.5 -68t-57.5 -181zM343 682l74 189h161 l-177 -189h-58z"/>
<glyph unicode="Ô" horiz-adv-x="844" glyph-name="Ocircumflex" d="M52 301q0 148 108 244t275 96q157 0 257 -89t100 -229t-102 -238.5t-274 -98.5q-166 0 -265 91.5t-99 223.5zM201 349q0 -143 66 -231.5t172 -88.5q99 0 151.5 73.5t52.5 184.5q0 83 -25.5 152t-79.5 114t-127 45q-95 0 -152.5 -68t-57.5 -181zM422 788l-75 -106h-80 l80 189h148l84 -189h-78z"/>
<glyph unicode="Õ" horiz-adv-x="844" glyph-name="Otilde" d="M52 301q0 148 108 244t275 96q157 0 257 -89t100 -229t-102 -238.5t-274 -98.5q-166 0 -265 91.5t-99 223.5zM201 349q0 -143 66 -231.5t172 -88.5q99 0 151.5 73.5t52.5 184.5q0 83 -25.5 152t-79.5 114t-127 45q-95 0 -152.5 -68t-57.5 -181zM302 706h-63 q0 65 30.5 106t79.5 41q31 0 80.5 -25.5t65.5 -25.5q35 0 47 50h64q-3 -62 -34 -103.5t-75 -41.5q-31 0 -82 25t-66 25q-34 0 -47 -51z"/>
<glyph unicode="Ö" horiz-adv-x="844" glyph-name="Odieresis" d="M52 301q0 148 108 244t275 96q157 0 257 -89t100 -229t-102 -238.5t-274 -98.5q-166 0 -265 91.5t-99 223.5zM201 349q0 -143 66 -231.5t172 -88.5q99 0 151.5 73.5t52.5 184.5q0 83 -25.5 152t-79.5 114t-127 45q-95 0 -152.5 -68t-57.5 -181zM520 824q25 0 42.5 -17.5 t17.5 -42.5t-17.5 -42.5t-42.5 -17.5t-42.5 17.5t-17.5 42.5t17.5 42.5t42.5 17.5zM326 824q25 0 42.5 -17.5t17.5 -42.5t-17.5 -42.5t-42.5 -17.5t-42.5 17.5t-17.5 42.5t17.5 42.5t42.5 17.5z"/>
<glyph unicode="×" horiz-adv-x="667" glyph-name="multiply" d="M333 271l-193 -193l-54 54l193 193l-194 194l54 54l194 -194l194 194l54 -54l-194 -194l194 -194l-54 -54z"/>
<glyph unicode="Ø" horiz-adv-x="844" glyph-name="Oslash" d="M254 138l320 376q-61 84 -163 84q-95 0 -152.5 -68t-57.5 -181q0 -127 53 -211zM595 483l-320 -375q64 -79 164 -79q99 0 151.5 73.5t52.5 184.5q0 117 -48 196zM749 662l-79 -92q122 -90 122 -247q0 -140 -102 -238.5t-274 -98.5q-117 0 -204 49l-88 -102l-27 22l85 99 q-62 43 -96 108t-34 139q0 148 108 244t275 96q116 0 204 -51l81 95z"/>
<glyph unicode="Ù" horiz-adv-x="771" glyph-name="Ugrave" d="M507 583v39h259v-39h-7q-55 0 -73.5 -21t-18.5 -62v-249q0 -64 -18 -113t-46 -77t-67 -45.5t-74.5 -23.5t-75.5 -6q-138 0 -216 59t-78 172v298q0 38 -14.5 53t-55.5 15h-17v39h313v-39h-17q-71 0 -71 -68v-298q0 -85 52 -124.5t129 -39.5q96 0 146 49.5t50 134.5v243 q0 55 -18.5 79t-63.5 24h-18zM461 682h-58l-177 189h161z"/>
<glyph unicode="Ú" horiz-adv-x="771" glyph-name="Uacute" d="M507 583v39h259v-39h-7q-55 0 -73.5 -21t-18.5 -62v-249q0 -64 -18 -113t-46 -77t-67 -45.5t-74.5 -23.5t-75.5 -6q-138 0 -216 59t-78 172v298q0 38 -14.5 53t-55.5 15h-17v39h313v-39h-17q-71 0 -71 -68v-298q0 -85 52 -124.5t129 -39.5q96 0 146 49.5t50 134.5v243 q0 55 -18.5 79t-63.5 24h-18zM306 682l74 189h161l-177 -189h-58z"/>
<glyph unicode="Û" horiz-adv-x="771" glyph-name="Ucircumflex" d="M507 583v39h259v-39h-7q-55 0 -73.5 -21t-18.5 -62v-249q0 -64 -18 -113t-46 -77t-67 -45.5t-74.5 -23.5t-75.5 -6q-138 0 -216 59t-78 172v298q0 38 -14.5 53t-55.5 15h-17v39h313v-39h-17q-71 0 -71 -68v-298q0 -85 52 -124.5t129 -39.5q96 0 146 49.5t50 134.5v243 q0 55 -18.5 79t-63.5 24h-18zM385 788l-75 -106h-80l80 189h148l84 -189h-78z"/>
<glyph unicode="Ü" horiz-adv-x="771" glyph-name="Udieresis" d="M507 583v39h259v-39h-7q-55 0 -73.5 -21t-18.5 -62v-249q0 -64 -18 -113t-46 -77t-67 -45.5t-74.5 -23.5t-75.5 -6q-138 0 -216 59t-78 172v298q0 38 -14.5 53t-55.5 15h-17v39h313v-39h-17q-71 0 -71 -68v-298q0 -85 52 -124.5t129 -39.5q96 0 146 49.5t50 134.5v243 q0 55 -18.5 79t-63.5 24h-18zM483 824q25 0 42.5 -17.5t17.5 -42.5t-17.5 -42.5t-42.5 -17.5t-42.5 17.5t-17.5 42.5t17.5 42.5t42.5 17.5zM289 824q25 0 42.5 -17.5t17.5 -42.5t-17.5 -42.5t-42.5 -17.5t-42.5 17.5t-17.5 42.5t17.5 42.5t42.5 17.5z"/>
<glyph unicode="Ý" horiz-adv-x="750" glyph-name="Yacute" d="M459 250v-137q0 -39 18 -56.5t69 -17.5h15v-39h-341v39h25q43 0 59.5 18t16.5 54v139l-215 286q-23 30 -39 38.5t-52 8.5h-7v39h326v-39h-12q-41 0 -52 -15.5t7 -35.5l160 -211l116 182q51 80 -36 80h-12v39h236v-39q-43 -3 -63.5 -16t-47.5 -54zM296 682l74 189h161 l-177 -189h-58z"/>
<glyph unicode="Þ" horiz-adv-x="646" glyph-name="Thorn" d="M252 454v-284q29 -7 72 -7q70 0 107.5 39.5t37.5 112.5q0 69 -38.5 107.5t-107.5 38.5q-37 0 -71 -7zM252 502q8 0 37 1.5t54 1.5q140 0 207.5 -55.5t67.5 -140.5q0 -87 -68.5 -138.5t-183.5 -51.5q-54 0 -114 10v-15q0 -43 19 -59t68 -16h30v-39h-340v39h15 q41 0 55.5 11.5t14.5 45.5v430q0 34 -14.5 45.5t-55.5 11.5h-15v39h308v-39q-56 0 -70.5 -12.5t-14.5 -68.5z"/>
<glyph unicode="ß" horiz-adv-x="563" glyph-name="germandbls" d="M266 344v32q107 4 107 123q0 70 -28 103.5t-68 33.5q-47 0 -64.5 -41.5t-17.5 -116.5v-387q0 -30 11 -44.5t39 -14.5v-32h-231v32q34 0 46.5 11t12.5 45v306q0 86 10.5 136.5t45.5 85.5q56 56 162 56q90 0 145.5 -42t55.5 -110q0 -58 -42.5 -101.5t-115.5 -59.5v-2 q91 -10 142 -60t51 -119q0 -74 -62.5 -134t-170.5 -56v35q108 9 108 141q0 82 -35.5 129t-100.5 51z"/>
<glyph unicode="à" horiz-adv-x="479" glyph-name="agrave" d="M446 74l15 -24q-23 -25 -56 -42.5t-58 -17.5q-28 0 -46.5 16.5t-23.5 45.5q-35 -34 -60 -48.5t-63 -14.5q-53 0 -84.5 28.5t-31.5 76.5q0 49 31 80q22 22 93.5 45t112.5 56v37q0 29 -18 48t-45 19q-28 0 -43 -20t-9 -57l-112 -39q-14 61 21 96q25 25 75.5 42.5t89.5 17.5 q21 0 46.5 -6t53 -19t45.5 -38.5t18 -58.5v-189q0 -46 22 -46q10 0 27 12zM275 87v143q-16 -14 -49.5 -28.5t-50.5 -33t-17 -54.5q0 -31 13.5 -50t36.5 -19q24 0 67 42zM315 477h-58l-177 189h161z"/>
<glyph unicode="á" horiz-adv-x="479" glyph-name="aacute" d="M446 74l15 -24q-23 -25 -56 -42.5t-58 -17.5q-28 0 -46.5 16.5t-23.5 45.5q-35 -34 -60 -48.5t-63 -14.5q-53 0 -84.5 28.5t-31.5 76.5q0 49 31 80q22 22 93.5 45t112.5 56v37q0 29 -18 48t-45 19q-28 0 -43 -20t-9 -57l-112 -39q-14 61 21 96q25 25 75.5 42.5t89.5 17.5 q21 0 46.5 -6t53 -19t45.5 -38.5t18 -58.5v-189q0 -46 22 -46q10 0 27 12zM275 87v143q-16 -14 -49.5 -28.5t-50.5 -33t-17 -54.5q0 -31 13.5 -50t36.5 -19q24 0 67 42zM160 477l74 189h161l-177 -189h-58z"/>
<glyph unicode="â" horiz-adv-x="479" glyph-name="acircumflex" d="M446 74l15 -24q-23 -25 -56 -42.5t-58 -17.5q-28 0 -46.5 16.5t-23.5 45.5q-35 -34 -60 -48.5t-63 -14.5q-53 0 -84.5 28.5t-31.5 76.5q0 49 31 80q22 22 93.5 45t112.5 56v37q0 29 -18 48t-45 19q-28 0 -43 -20t-9 -57l-112 -39q-14 61 21 96q25 25 75.5 42.5t89.5 17.5 q21 0 46.5 -6t53 -19t45.5 -38.5t18 -58.5v-189q0 -46 22 -46q10 0 27 12zM275 87v143q-16 -14 -49.5 -28.5t-50.5 -33t-17 -54.5q0 -31 13.5 -50t36.5 -19q24 0 67 42zM239 583l-75 -106h-80l80 189h148l84 -189h-78z"/>
<glyph unicode="ã" horiz-adv-x="479" glyph-name="atilde" d="M446 74l15 -24q-23 -25 -56 -42.5t-58 -17.5q-28 0 -46.5 16.5t-23.5 45.5q-35 -34 -60 -48.5t-63 -14.5q-53 0 -84.5 28.5t-31.5 76.5q0 49 31 80q22 22 93.5 45t112.5 56v37q0 29 -18 48t-45 19q-28 0 -43 -20t-9 -57l-112 -39q-14 61 21 96q25 25 75.5 42.5t89.5 17.5 q21 0 46.5 -6t53 -19t45.5 -38.5t18 -58.5v-189q0 -46 22 -46q10 0 27 12zM275 87v143q-16 -14 -49.5 -28.5t-50.5 -33t-17 -54.5q0 -31 13.5 -50t36.5 -19q24 0 67 42zM119 501h-63q0 65 30.5 106t79.5 41q31 0 80.5 -25.5t65.5 -25.5q34 0 47 50h64q-3 -62 -34 -103.5 t-75 -41.5q-31 0 -82 25t-66 25q-34 0 -47 -51z"/>
<glyph unicode="ä" horiz-adv-x="479" glyph-name="adieresis" d="M446 74l15 -24q-23 -25 -56 -42.5t-58 -17.5q-28 0 -46.5 16.5t-23.5 45.5q-35 -34 -60 -48.5t-63 -14.5q-53 0 -84.5 28.5t-31.5 76.5q0 49 31 80q22 22 93.5 45t112.5 56v37q0 29 -18 48t-45 19q-28 0 -43 -20t-9 -57l-112 -39q-14 61 21 96q25 25 75.5 42.5t89.5 17.5 q21 0 46.5 -6t53 -19t45.5 -38.5t18 -58.5v-189q0 -46 22 -46q10 0 27 12zM275 87v143q-16 -14 -49.5 -28.5t-50.5 -33t-17 -54.5q0 -31 13.5 -50t36.5 -19q24 0 67 42zM337 619q25 0 42.5 -17.5t17.5 -42.5t-17.5 -42.5t-42.5 -17.5t-42.5 17.5t-17.5 42.5t17.5 42.5 t42.5 17.5zM143 619q25 0 42.5 -17.5t17.5 -42.5t-17.5 -42.5t-42.5 -17.5t-42.5 17.5t-17.5 42.5t17.5 42.5t42.5 17.5z"/>
<glyph unicode="å" horiz-adv-x="479" glyph-name="aring" d="M446 74l15 -24q-23 -25 -56 -42.5t-58 -17.5q-28 0 -46.5 16.5t-23.5 45.5q-35 -34 -60 -48.5t-63 -14.5q-53 0 -84.5 28.5t-31.5 76.5q0 49 31 80q22 22 93.5 45t112.5 56v37q0 29 -18 48t-45 19q-28 0 -43 -20t-9 -57l-112 -39q-14 61 21 96q25 25 75.5 42.5t89.5 17.5 q21 0 46.5 -6t53 -19t45.5 -38.5t18 -58.5v-189q0 -46 22 -46q10 0 27 12zM275 87v143q-16 -14 -49.5 -28.5t-50.5 -33t-17 -54.5q0 -31 13.5 -50t36.5 -19q24 0 67 42zM240 663q40 0 68.5 -28.5t28.5 -68.5t-28.5 -68.5t-68.5 -28.5t-68.5 28.5t-28.5 68.5t28.5 68.5 t68.5 28.5zM240 628q-26 0 -44 -18t-18 -44t18 -44t44 -18t44 18t18 44t-18 44t-44 18z"/>
<glyph unicode="æ" horiz-adv-x="698" glyph-name="ae" d="M634 134l20 -24q-40 -54 -98.5 -87.5t-113.5 -33.5q-42 0 -84 19t-70 51q-71 -68 -141 -68q-50 0 -80 28t-30 75q0 49 32 81q26 26 95.5 46t104.5 48q6 50 -10.5 80.5t-50.5 30.5q-27 0 -41.5 -22.5t-4.5 -55.5l-115 -40q-7 23 -1 52t23 46q25 25 74.5 42t89.5 17 q72 0 120 -39q45 39 119 39q82 0 132 -50q26 -26 36.5 -74.5t22.5 -60.5v-24h-273q8 -71 40.5 -108.5t84.5 -37.5q30 0 56.5 15.5t62.5 54.5zM269 84v140q-26 -18 -55.5 -31t-39.5 -23q-19 -19 -19 -57q0 -29 13.5 -48.5t33.5 -19.5q36 0 67 39zM390 249h140q0 55 -19 89 t-52 34t-51 -32t-18 -91z"/>
<glyph unicode="ç" horiz-adv-x="490" glyph-name="ccedilla" d="M429 112l29 -16q-70 -107 -200 -107l-13 -22q61 -16 61 -79q0 -40 -28.5 -66.5t-72.5 -26.5q-49 0 -87 24l9 30q26 -11 56 -11q18 0 31 12t13 28q0 19 -13 27.5t-44 11.5l54 75q-80 8 -130 62t-50 133q0 98 74.5 165t184.5 67q65 0 108 -24t43 -61q0 -23 -14 -36.5 t-37 -13.5t-43.5 14t-32.5 30.5t-30 30.5t-37 14q-38 0 -61 -42t-23 -109q0 -81 34.5 -131t90.5 -50q67 0 128 71z"/>
<glyph unicode="è" horiz-adv-x="479" glyph-name="egrave" d="M416 135l23 -19q-42 -59 -99 -93t-115 -34q-82 0 -132.5 57t-50.5 148q0 99 60 162t154 63q78 0 126 -48q25 -25 34.5 -55t13.5 -50.5t18 -27.5v-29h-277q6 -62 42 -104t81 -42q53 0 122 72zM168 248h142q-1 58 -20 91t-51 33t-54 -36t-17 -88zM315 477h-58l-177 189h161 z"/>
<glyph unicode="é" horiz-adv-x="479" glyph-name="eacute" d="M416 135l23 -19q-42 -59 -99 -93t-115 -34q-82 0 -132.5 57t-50.5 148q0 99 60 162t154 63q78 0 126 -48q25 -25 34.5 -55t13.5 -50.5t18 -27.5v-29h-277q6 -62 42 -104t81 -42q53 0 122 72zM168 248h142q-1 58 -20 91t-51 33t-54 -36t-17 -88zM160 477l74 189h161 l-177 -189h-58z"/>
<glyph unicode="ê" horiz-adv-x="479" glyph-name="ecircumflex" d="M416 135l23 -19q-42 -59 -99 -93t-115 -34q-82 0 -132.5 57t-50.5 148q0 99 60 162t154 63q78 0 126 -48q25 -25 34.5 -55t13.5 -50.5t18 -27.5v-29h-277q6 -62 42 -104t81 -42q53 0 122 72zM168 248h142q-1 58 -20 91t-51 33t-54 -36t-17 -88zM239 583l-75 -106h-80 l80 189h148l84 -189h-78z"/>
<glyph unicode="ë" horiz-adv-x="479" glyph-name="edieresis" d="M416 135l23 -19q-42 -59 -99 -93t-115 -34q-82 0 -132.5 57t-50.5 148q0 99 60 162t154 63q78 0 126 -48q25 -25 34.5 -55t13.5 -50.5t18 -27.5v-29h-277q6 -62 42 -104t81 -42q53 0 122 72zM168 248h142q-1 58 -20 91t-51 33t-54 -36t-17 -88zM337 619q25 0 42.5 -17.5 t17.5 -42.5t-17.5 -42.5t-42.5 -17.5t-42.5 17.5t-17.5 42.5t17.5 42.5t42.5 17.5zM143 619q25 0 42.5 -17.5t17.5 -42.5t-17.5 -42.5t-42.5 -17.5t-42.5 17.5t-17.5 42.5t17.5 42.5t42.5 17.5z"/>
<glyph unicode="ì" horiz-adv-x="292" glyph-name="igrave" d="M265 32v-32h-250v32h11q31 0 43.5 15.5t12.5 54.5v192q0 19 -6.5 27t-27.5 16l-33 12v24l171 57h18v-335q0 -63 61 -63zM222 477h-58l-177 189h161z"/>
<glyph unicode="í" horiz-adv-x="292" glyph-name="iacute" d="M265 32v-32h-250v32h11q31 0 43.5 15.5t12.5 54.5v192q0 19 -6.5 27t-27.5 16l-33 12v24l171 57h18v-335q0 -63 61 -63zM67 477l74 189h161l-177 -189h-58z"/>
<glyph unicode="î" horiz-adv-x="292" glyph-name="icircumflex" d="M265 32v-32h-250v32h11q31 0 43.5 15.5t12.5 54.5v192q0 19 -6.5 27t-27.5 16l-33 12v24l171 57h18v-335q0 -63 61 -63zM146 583l-75 -106h-80l80 189h148l84 -189h-78z"/>
<glyph unicode="ï" horiz-adv-x="292" glyph-name="idieresis" d="M265 32v-32h-250v32h11q31 0 43.5 15.5t12.5 54.5v192q0 19 -6.5 27t-27.5 16l-33 12v24l171 57h18v-335q0 -63 61 -63zM244 619q25 0 42.5 -17.5t17.5 -42.5t-17.5 -42.5t-42.5 -17.5t-42.5 17.5t-17.5 42.5t17.5 42.5t42.5 17.5zM50 619q25 0 42.5 -17.5t17.5 -42.5 t-17.5 -42.5t-42.5 -17.5t-42.5 17.5t-17.5 42.5t17.5 42.5t42.5 17.5z"/>
<glyph unicode="ð" horiz-adv-x="563" glyph-name="eth" d="M166 637l22 32q64 -20 137 -66l116 66l17 -32l-101 -57q168 -148 168 -343q0 -115 -67.5 -181.5t-182.5 -66.5q-62 0 -109.5 20t-74 52t-40 66.5t-13.5 68.5q0 89 70.5 156t163.5 67q48 0 80 -28l3 1q-6 16 -11.5 30t-12.5 27t-10.5 20t-12 20t-10 15.5t-12.5 17.5 l-10 14l-125 -73l-17 31l119 70q-33 39 -87 73zM391 156q0 86 -34.5 153t-94.5 67q-44 0 -68 -32t-24 -91q0 -35 7.5 -72.5t22 -72t40.5 -57t59 -22.5q35 0 63.5 28t28.5 99z"/>
<glyph unicode="ñ" d="M495 247v-156q0 -35 13 -47t44 -12v-32h-236v32q31 2 44 27t13 86v87q0 111 -62 111q-42 0 -106 -44v-203q0 -64 59 -64h9v-32h-253v32h6q32 0 44.5 15.5t12.5 54.5v195q0 32 -47 45l-21 6v24l171 58h19v-89q119 78 185 78q55 0 80 -41t25 -131zM166 501h-63 q0 65 30.5 106t79.5 41q31 0 80.5 -25.5t65.5 -25.5q35 0 47 50h64q-3 -62 -34 -103.5t-75 -41.5q-31 0 -82 25t-66 25q-34 0 -47 -51z" glyph-name="ntilde"/>
<glyph unicode="ò" d="M43 198q0 94 72 157.5t179 63.5q103 0 169.5 -58.5t66.5 -149.5q0 -95 -72 -158.5t-179 -63.5q-103 0 -169.5 58.5t-66.5 150.5zM175 257q0 -47 12 -96t43.5 -89t76.5 -40q43 0 67 32.5t24 91.5q0 96 -36.5 158t-93.5 62q-44 0 -68.5 -31.5t-24.5 -87.5zM362 477h-58 l-177 189h161z" glyph-name="ograve"/>
<glyph unicode="ó" d="M43 198q0 94 72 157.5t179 63.5q103 0 169.5 -58.5t66.5 -149.5q0 -95 -72 -158.5t-179 -63.5q-103 0 -169.5 58.5t-66.5 150.5zM175 257q0 -47 12 -96t43.5 -89t76.5 -40q43 0 67 32.5t24 91.5q0 96 -36.5 158t-93.5 62q-44 0 -68.5 -31.5t-24.5 -87.5zM207 477l74 189 h161l-177 -189h-58z" glyph-name="oacute"/>
<glyph unicode="ô" d="M43 198q0 94 72 157.5t179 63.5q103 0 169.5 -58.5t66.5 -149.5q0 -95 -72 -158.5t-179 -63.5q-103 0 -169.5 58.5t-66.5 150.5zM175 257q0 -47 12 -96t43.5 -89t76.5 -40q43 0 67 32.5t24 91.5q0 96 -36.5 158t-93.5 62q-44 0 -68.5 -31.5t-24.5 -87.5zM286 583 l-75 -106h-80l80 189h148l84 -189h-78z" glyph-name="ocircumflex"/>
<glyph unicode="õ" d="M43 198q0 94 72 157.5t179 63.5q103 0 169.5 -58.5t66.5 -149.5q0 -95 -72 -158.5t-179 -63.5q-103 0 -169.5 58.5t-66.5 150.5zM175 257q0 -47 12 -96t43.5 -89t76.5 -40q43 0 67 32.5t24 91.5q0 96 -36.5 158t-93.5 62q-44 0 -68.5 -31.5t-24.5 -87.5zM166 501h-63 q0 65 30.5 106t79.5 41q31 0 80.5 -25.5t65.5 -25.5q35 0 47 50h64q-3 -62 -34 -103.5t-75 -41.5q-31 0 -82 25t-66 25q-34 0 -47 -51z" glyph-name="otilde"/>
<glyph unicode="ö" d="M43 198q0 94 72 157.5t179 63.5q103 0 169.5 -58.5t66.5 -149.5q0 -95 -72 -158.5t-179 -63.5q-103 0 -169.5 58.5t-66.5 150.5zM175 257q0 -47 12 -96t43.5 -89t76.5 -40q43 0 67 32.5t24 91.5q0 96 -36.5 158t-93.5 62q-44 0 -68.5 -31.5t-24.5 -87.5zM384 619 q25 0 42.5 -17.5t17.5 -42.5t-17.5 -42.5t-42.5 -17.5t-42.5 17.5t-17.5 42.5t17.5 42.5t42.5 17.5zM190 619q25 0 42.5 -17.5t17.5 -42.5t-17.5 -42.5t-42.5 -17.5t-42.5 17.5t-17.5 42.5t17.5 42.5t42.5 17.5z" glyph-name="odieresis"/>
<glyph unicode="÷" horiz-adv-x="668" glyph-name="divide" d="M67 364h534v-76h-534v76zM334 575q20 0 34 -14t14 -34t-14 -34t-34 -14t-34 14t-14 34t14 34t34 14zM334 173q20 0 34 -14t14 -34t-14 -34t-34 -14t-34 14t-14 34t14 34t34 14z"/>
<glyph unicode="ø" d="M422 389l64 76l28 -25l-61 -71q77 -60 77 -158q0 -94 -71.5 -158t-177.5 -64q-65 0 -129 29l-55 -64l-28 23l52 61q-78 61 -78 160q0 94 71.5 157.5t178.5 63.5q72 0 129 -30zM199 129l161 189q-34 58 -92 58q-43 0 -68 -31.5t-25 -86.5q0 -70 24 -129zM377 281 l-162 -189q37 -60 92 -60q91 0 91 125q0 69 -21 124z" glyph-name="oslash"/>
<glyph unicode="ù" d="M363 -11v80q-126 -80 -179 -80q-52 0 -80.5 39.5t-28.5 97.5v167q0 29 -4 39.5t-17 16.5l-21 10v23l144 37h20v-255q0 -99 65 -99q37 0 101 41v181q0 29 -7 40t-29 18l-46 14v23l184 37h20v-306q0 -37 5.5 -48.5t23.5 -11.5q14 0 30 6v-31l-162 -39h-19zM362 477h-58 l-177 189h161z" glyph-name="ugrave"/>
<glyph unicode="ú" d="M363 -11v80q-126 -80 -179 -80q-52 0 -80.5 39.5t-28.5 97.5v167q0 29 -4 39.5t-17 16.5l-21 10v23l144 37h20v-255q0 -99 65 -99q37 0 101 41v181q0 29 -7 40t-29 18l-46 14v23l184 37h20v-306q0 -37 5.5 -48.5t23.5 -11.5q14 0 30 6v-31l-162 -39h-19zM207 477l74 189 h161l-177 -189h-58z" glyph-name="uacute"/>
<glyph unicode="û" d="M363 -11v80q-126 -80 -179 -80q-52 0 -80.5 39.5t-28.5 97.5v167q0 29 -4 39.5t-17 16.5l-21 10v23l144 37h20v-255q0 -99 65 -99q37 0 101 41v181q0 29 -7 40t-29 18l-46 14v23l184 37h20v-306q0 -37 5.5 -48.5t23.5 -11.5q14 0 30 6v-31l-162 -39h-19zM286 583 l-75 -106h-80l80 189h148l84 -189h-78z" glyph-name="ucircumflex"/>
<glyph unicode="ü" d="M363 -11v80q-126 -80 -179 -80q-52 0 -80.5 39.5t-28.5 97.5v167q0 29 -4 39.5t-17 16.5l-21 10v23l144 37h20v-255q0 -99 65 -99q37 0 101 41v181q0 29 -7 40t-29 18l-46 14v23l184 37h20v-306q0 -37 5.5 -48.5t23.5 -11.5q14 0 30 6v-31l-162 -39h-19zM384 619 q25 0 42.5 -17.5t17.5 -42.5t-17.5 -42.5t-42.5 -17.5t-42.5 17.5t-17.5 42.5t17.5 42.5t42.5 17.5zM190 619q25 0 42.5 -17.5t17.5 -42.5t-17.5 -42.5t-42.5 -17.5t-42.5 17.5t-17.5 42.5t17.5 42.5t42.5 17.5z" glyph-name="udieresis"/>
<glyph unicode="ý" horiz-adv-x="521" glyph-name="yacute" d="M231 10l-135 275q-27 55 -45 73t-50 18v32h255v-32q-38 0 -47 -15t6 -45l83 -172l76 154q17 32 4 54.5t-56 23.5v32h186v-32q-34 -7 -49.5 -21.5t-36.5 -57.5l-224 -456q-37 -74 -91 -74q-27 0 -45 16t-18 41q0 27 15 42q14 14 35.5 18.5t38.5 5t38.5 18.5t39.5 58z M181 477l74 189h161l-177 -189h-58z"/>
<glyph unicode="þ" d="M201 2v-107q0 -50 19.5 -68.5t79.5 -22.5v-31h-287v31h12q29 0 41.5 15t12.5 51v659q0 38 -27 48l-37 13v25l160 54h26v-335q4 3 18.5 14.5t18.5 14.5t16.5 12.5t18 12.5t17 10t19 9.5l18 6t20.5 4.5t21 1q69 0 116 -54.5t47 -134.5q0 -58 -24 -111.5t-78 -91.5t-126 -38 q-44 0 -102 13zM201 293v-218q47 -49 103 -49q46 0 75 41t29 106q0 71 -29 121t-80 50q-41 0 -98 -51z" glyph-name="thorn"/>
</font>
</defs>
</svg>
