<?xml version="1.0" encoding="UTF-8"?>
<svg width="16px" height="30px" viewBox="0 0 16 30" version="1.1" xmlns="http://www.w3.org/2000/svg" xmlns:xlink="http://www.w3.org/1999/xlink">
    <!-- Generator: Sketch 60.1 (88133) - https://sketch.com -->
    <title>Artboard Copy 2</title>
    <desc>Created with Sketch.</desc>
    <g id="Artboard-Copy-2" stroke="none" stroke-width="1" fill="none" fill-rule="evenodd">
        <g id="next-arrow" transform="translate(-1.000000, 0.000000)" fill="rgba(0, 0, 0, 0.85)" fill-rule="nonzero">
            <g id="down-arrow" transform="translate(8.872000, 15.000000) rotate(90.000000) translate(-8.872000, -15.000000) translate(-6.128000, 7.000000)">
                <path d="M29.368,15.565 C28.9585133,15.9736543 28.2954867,15.9736543 27.886,15.565 L14.85,2.5 L1.789,15.565 C1.37842735,15.9663401 0.721360875,15.9626044 0.315378243,15.5566218 C-0.0906043889,15.1506391 -0.0943401255,14.4935726 0.307,14.083 L14.083,0.307 C14.2782205,0.107912864 14.5461847,-0.00295641832 14.825,-5.76469552e-05 C15.1025265,0.00206923604 15.3683263,0.11219143 15.566,0.307 L29.343,14.083 C29.5481241,14.2732467 29.6667569,14.5389423 29.6716219,14.8186698 C29.6761944,15.0983972 29.5665907,15.367943 29.368,15.565 Z" id="Path_61"></path>
            </g>
        </g>
    </g>
</svg>