<?xml version="1.0" encoding="UTF-8"?>
<svg width="16px" height="30px" viewBox="0 0 16 30" version="1.1" xmlns="http://www.w3.org/2000/svg" xmlns:xlink="http://www.w3.org/1999/xlink">
    <!-- Generator: Sketch 60.1 (88133) - https://sketch.com -->
    <title>Artboard</title>
    <desc>Created with Sketch.</desc>
    <g id="Artboard" stroke="none" stroke-width="1" fill="none" fill-rule="evenodd">
        <g id="prev-arrow" transform="translate(-1.000000, -1.000000)" fill="#FFFFFF" fill-rule="nonzero">
            <g id="down-arrow" transform="translate(8.774000, 16.100000) rotate(90.000000) translate(-8.774000, -16.100000) translate(-6.726000, 7.600000)">
                <path d="M29.768,0.707 C29.3585133,0.298345679 28.6954867,0.298345679 28.286,0.707 L15.25,13.768 L2.189,0.707 C1.77842735,0.305659875 1.12136088,0.309395611 0.715378243,0.715378243 C0.309395611,1.12136088 0.305659875,1.77842735 0.707,2.189 L14.483,15.966 C14.6779791,16.1648355 14.9455306,16.2756834 15.224,16.2730476 C15.5015265,16.2709308 15.7673263,16.1608086 15.965,15.966 L29.743,2.189 C29.9481241,1.99875327 30.0667569,1.73305769 30.0716219,1.45333022 C30.0761944,1.17360275 29.9665907,0.904057029 29.768,0.707 L29.768,0.707 Z" id="Path_61"></path>
            </g>
        </g>
    </g>
</svg>