<svg xmlns="http://www.w3.org/2000/svg" xmlns:xlink="http://www.w3.org/1999/xlink" width="60" height="55" viewBox="0 0 60 55">
  <defs>
    <clipPath id="clip-accounting">
      <rect width="60" height="55"/>
    </clipPath>
  </defs>
  <g id="accounting" clip-path="url(#clip-accounting)">
    <g id="accounting-2" data-name="accounting" transform="translate(2.238)">
      <path id="Path_8649" data-name="Path 8649" d="M113.417,288a9.417,9.417,0,1,0,9.417,9.417A9.417,9.417,0,0,0,113.417,288Zm0,16.95a7.533,7.533,0,1,1,7.533-7.533A7.533,7.533,0,0,1,113.417,304.95Zm0,0" transform="translate(-92.237 -255.573)" fill="#313131"/>
      <path id="Path_8650" data-name="Path 8650" d="M155.767,322.825c1.15,0,1.883.557,1.883.942h1.883c0-1.338-1.185-2.422-2.825-2.731V320h-1.883v1.036c-1.64.307-2.825,1.391-2.825,2.731,0,1.585,1.654,2.825,3.767,2.825,1.15,0,1.883.557,1.883.942s-.733.942-1.883.942-1.883-.557-1.883-.942H152c0,1.338,1.185,2.422,2.825,2.731V331.3h1.883v-1.036c1.64-.307,2.825-1.391,2.825-2.731,0-1.585-1.654-2.825-3.767-2.825-1.15,0-1.883-.557-1.883-.942S154.617,322.825,155.767,322.825Zm0,0" transform="translate(-134.647 -283.807)" fill="#313131"/>
      <path id="Path_8651" data-name="Path 8651" d="M46.608,53.192H8.225V31.181H22.847a2.747,2.747,0,0,0,2.742-2.751V5.5H35.641V16.507H46.608v12.84h1.828V15.21L36.933,3.667H25.588V2.75A2.747,2.747,0,0,0,22.847,0H2.741A2.747,2.747,0,0,0,0,2.75V28.43a2.747,2.747,0,0,0,2.742,2.751H6.4V55.026H48.435V42.186H46.608ZM37.469,6.8l7.847,7.874H37.469ZM1.827,28.43V2.75a.916.916,0,0,1,.914-.917H22.847a.916.916,0,0,1,.914.917V28.43a.916.916,0,0,1-.914.917H2.741A.916.916,0,0,1,1.827,28.43Zm0,0" transform="translate(0 0.001)" fill="#313131"/>
      <path id="Path_8652" data-name="Path 8652" d="M256,200h1.883v1.883H256Zm0,0" transform="translate(-226.679 -177.093)" fill="#313131"/>
      <path id="Path_8653" data-name="Path 8653" d="M288,200h11.3v1.883H288Zm0,0" transform="translate(-255.205 -177.093)" fill="#313131"/>
      <path id="Path_8654" data-name="Path 8654" d="M256,168h1.883v1.883H256Zm0,0" transform="translate(-226.679 -148.758)" fill="#313131"/>
      <path id="Path_8655" data-name="Path 8655" d="M288,168h11.3v1.883H288Zm0,0" transform="translate(-255.205 -148.758)" fill="#313131"/>
      <path id="Path_8656" data-name="Path 8656" d="M256,232h1.883v1.883H256Zm0,0" transform="translate(-226.679 -205.428)" fill="#313131"/>
      <path id="Path_8657" data-name="Path 8657" d="M288,232h11.3v1.883H288Zm0,0" transform="translate(-255.205 -205.428)" fill="#313131"/>
      <path id="Path_8658" data-name="Path 8658" d="M256,264h1.883v1.883H256Zm0,0" transform="translate(-226.679 -233.763)" fill="#313131"/>
      <path id="Path_8659" data-name="Path 8659" d="M288,264h11.3v1.883H288Zm0,0" transform="translate(-255.205 -233.763)" fill="#313131"/>
      <path id="Path_8660" data-name="Path 8660" d="M44.717,24H24v6.592H44.717Zm-1.883,4.708H25.883V25.883h16.95Zm0,0" transform="translate(-21.175 -21.175)" fill="#313131"/>
      <path id="Path_8661" data-name="Path 8661" d="M35.767,88H33.883A1.883,1.883,0,0,0,32,89.883v1.883a1.883,1.883,0,0,0,1.883,1.883h1.883a1.883,1.883,0,0,0,1.883-1.883V89.883A1.883,1.883,0,0,0,35.767,88Zm-1.883,3.767V89.883h1.883v1.883Zm0,0" transform="translate(-28.233 -77.942)" fill="#313131"/>
      <path id="Path_8662" data-name="Path 8662" d="M91.767,88H89.883A1.883,1.883,0,0,0,88,89.883v1.883a1.883,1.883,0,0,0,1.883,1.883h1.883a1.883,1.883,0,0,0,1.883-1.883V89.883A1.883,1.883,0,0,0,91.767,88Zm-1.883,3.767V89.883h1.883v1.883Zm0,0" transform="translate(-77.942 -77.942)" fill="#313131"/>
      <path id="Path_8663" data-name="Path 8663" d="M147.767,88h-1.883A1.883,1.883,0,0,0,144,89.883v1.883a1.883,1.883,0,0,0,1.883,1.883h1.883a1.883,1.883,0,0,0,1.883-1.883V89.883A1.883,1.883,0,0,0,147.767,88Zm-1.883,3.767V89.883h1.883v1.883Zm0,0" transform="translate(-127.541 -77.942)" fill="#313131"/>
      <path id="Path_8664" data-name="Path 8664" d="M35.767,144H33.883A1.883,1.883,0,0,0,32,145.883v1.883a1.883,1.883,0,0,0,1.883,1.883h1.883a1.883,1.883,0,0,0,1.883-1.883v-1.883A1.883,1.883,0,0,0,35.767,144Zm-1.883,3.767v-1.883h1.883v1.883Zm0,0" transform="translate(-28.233 -127.541)" fill="#313131"/>
      <path id="Path_8665" data-name="Path 8665" d="M91.767,144H89.883A1.883,1.883,0,0,0,88,145.883v1.883a1.883,1.883,0,0,0,1.883,1.883h1.883a1.883,1.883,0,0,0,1.883-1.883v-1.883A1.883,1.883,0,0,0,91.767,144Zm-1.883,3.767v-1.883h1.883v1.883Zm0,0" transform="translate(-77.942 -127.541)" fill="#313131"/>
      <path id="Path_8666" data-name="Path 8666" d="M147.767,144h-1.883A1.883,1.883,0,0,0,144,145.883v1.883a1.883,1.883,0,0,0,1.883,1.883h1.883a1.883,1.883,0,0,0,1.883-1.883v-1.883A1.883,1.883,0,0,0,147.767,144Zm-1.883,3.767v-1.883h1.883v1.883Zm0,0" transform="translate(-127.541 -127.541)" fill="#313131"/>
      <path id="Path_8667" data-name="Path 8667" d="M35.767,200H33.883A1.883,1.883,0,0,0,32,201.883v1.883a1.883,1.883,0,0,0,1.883,1.883h1.883a1.883,1.883,0,0,0,1.883-1.883v-1.883A1.883,1.883,0,0,0,35.767,200Zm-1.883,3.767v-1.883h1.883v1.883Zm0,0" transform="translate(-28.233 -177.14)" fill="#313131"/>
      <path id="Path_8668" data-name="Path 8668" d="M91.767,200H89.883A1.883,1.883,0,0,0,88,201.883v1.883a1.883,1.883,0,0,0,1.883,1.883h1.883a1.883,1.883,0,0,0,1.883-1.883v-1.883A1.883,1.883,0,0,0,91.767,200Zm-1.883,3.767v-1.883h1.883v1.883Zm0,0" transform="translate(-77.942 -177.14)" fill="#313131"/>
      <path id="Path_8669" data-name="Path 8669" d="M147.767,200h-1.883A1.883,1.883,0,0,0,144,201.883v1.883a1.883,1.883,0,0,0,1.883,1.883h1.883a1.883,1.883,0,0,0,1.883-1.883v-1.883A1.883,1.883,0,0,0,147.767,200Zm-1.883,3.767v-1.883h1.883v1.883Zm0,0" transform="translate(-127.541 -177.14)" fill="#313131"/>
      <path id="Path_8670" data-name="Path 8670" d="M302.7,249.267a2.892,2.892,0,0,0-3.994,0L282.56,265.41a.953.953,0,0,0-.189.272l-2.273,4.936a.942.942,0,0,0,1.249,1.249l4.936-2.273a.943.943,0,0,0,.272-.189L302.7,253.262a2.825,2.825,0,0,0,0-4Zm-17.356,18.687-2.467,1.137,1.137-2.467,12.036-12.037,1.332,1.332Zm13.372-13.372-1.332-1.331.659-.659,1.332,1.332Zm2.656-2.655-.666.666-1.332-1.332.667-.666a.963.963,0,0,1,1.331,0A.942.942,0,0,1,301.37,251.926Zm0,0" transform="translate(-248.526 -220.693)" fill="#313131"/>
    </g>
  </g>
</svg>
