<svg xmlns="http://www.w3.org/2000/svg" xmlns:xlink="http://www.w3.org/1999/xlink" width="60" height="55" viewBox="0 0 60 55">
  <defs>
    <clipPath id="clip-calendar">
      <rect width="60" height="55"/>
    </clipPath>
  </defs>
  <g id="calendar" clip-path="url(#clip-calendar)">
    <g id="Calendar-2" data-name="Calendar" transform="translate(3)">
      <path id="Path_8637" data-name="Path 8637" d="M52.417,7.479H47.833V5.652a3.667,3.667,0,0,0-7.333,0V7.479H33.167V5.652a3.667,3.667,0,0,0-7.333,0V7.479H18.5V5.652a3.667,3.667,0,0,0-7.333,0V7.479H6.583A4.574,4.574,0,0,0,2,12.044V48.568a4.574,4.574,0,0,0,4.583,4.565H32.25a.913.913,0,1,0,0-1.826H6.583a2.753,2.753,0,0,1-2.75-2.739V20.262H55.167V35.785a.917.917,0,0,0,1.833,0V12.044a4.574,4.574,0,0,0-4.583-4.565ZM42.333,5.652a1.833,1.833,0,0,1,3.667,0v5.479a1.833,1.833,0,0,1-3.667,0Zm-14.667,0a1.833,1.833,0,0,1,3.667,0v5.479a1.833,1.833,0,0,1-3.667,0ZM13,5.652a1.833,1.833,0,0,1,3.667,0v5.479a1.833,1.833,0,0,1-3.667,0ZM55.167,18.436H3.833V12.044A2.753,2.753,0,0,1,6.583,9.3h4.583v1.826a3.667,3.667,0,0,0,7.333,0V9.3h7.333v1.826a3.667,3.667,0,0,0,7.333,0V9.3H40.5v1.826a3.667,3.667,0,0,0,7.333,0V9.3h4.583a2.753,2.753,0,0,1,2.75,2.739Z" transform="translate(-2 -2)" fill="#313131"/>
      <path id="Path_8638" data-name="Path 8638" d="M29.733,28.933A1.933,1.933,0,0,0,27.8,27H23.933A1.933,1.933,0,0,0,22,28.933v2.9a1.933,1.933,0,0,0,1.933,1.933H27.8a1.933,1.933,0,0,0,1.933-1.933Zm-5.8,2.9v-2.9H27.8v2.9Z" transform="translate(-3.821 -4.248)" fill="#313131"/>
      <path id="Path_8639" data-name="Path 8639" d="M17.733,28.933A1.933,1.933,0,0,0,15.8,27H11.933A1.933,1.933,0,0,0,10,28.933v2.9a1.933,1.933,0,0,0,1.933,1.933H15.8a1.933,1.933,0,0,0,1.933-1.933Zm-5.8,2.9v-2.9H15.8v2.9Z" transform="translate(-2.267 -4.248)" fill="#313131"/>
      <path id="Path_8640" data-name="Path 8640" d="M51.8,33.767a1.933,1.933,0,0,0,1.933-1.933v-2.9A1.933,1.933,0,0,0,51.8,27H47.933A1.933,1.933,0,0,0,46,28.933v2.9a1.933,1.933,0,0,0,1.933,1.933Zm-3.867-4.833H51.8v2.9H47.933Z" transform="translate(-6.467 -4.248)" fill="#313131"/>
      <path id="Path_8641" data-name="Path 8641" d="M29.733,37.933A1.933,1.933,0,0,0,27.8,36H23.933A1.933,1.933,0,0,0,22,37.933v2.9a1.933,1.933,0,0,0,1.933,1.933H27.8a1.933,1.933,0,0,0,1.933-1.933Zm-5.8,2.9v-2.9H27.8v2.9Z" transform="translate(-3.821 -5.058)" fill="#313131"/>
      <path id="Path_8642" data-name="Path 8642" d="M17.733,37.933A1.933,1.933,0,0,0,15.8,36H11.933A1.933,1.933,0,0,0,10,37.933v2.9a1.933,1.933,0,0,0,1.933,1.933H15.8a1.933,1.933,0,0,0,1.933-1.933Zm-5.8,2.9v-2.9H15.8v2.9Z" transform="translate(-2.267 -5.058)" fill="#313131"/>
      <path id="Path_8643" data-name="Path 8643" d="M27.8,45H23.933A1.933,1.933,0,0,0,22,46.933v2.9a1.933,1.933,0,0,0,1.933,1.933H27.8a1.933,1.933,0,0,0,1.933-1.933v-2.9A1.933,1.933,0,0,0,27.8,45Zm-3.867,4.833v-2.9H27.8v2.9Z" transform="translate(-3.821 -5.867)" fill="#313131"/>
      <path id="Path_8644" data-name="Path 8644" d="M35.933,33.767H39.8a1.933,1.933,0,0,0,1.933-1.933v-2.9A1.933,1.933,0,0,0,39.8,27H35.933A1.933,1.933,0,0,0,34,28.933v2.9A1.933,1.933,0,0,0,35.933,33.767Zm0-4.833H39.8v2.9H35.933Z" transform="translate(-4.913 -4.248)" fill="#313131"/>
      <path id="Path_8645" data-name="Path 8645" d="M34,40.833a1.933,1.933,0,0,0,1.933,1.933.967.967,0,0,0,0-1.933v-2.9H39.8A.967.967,0,1,0,39.8,36H35.933A1.933,1.933,0,0,0,34,37.933Z" transform="translate(-4.878 -5.058)" fill="#313131"/>
      <path id="Path_8646" data-name="Path 8646" d="M15.8,45H11.933A1.933,1.933,0,0,0,10,46.933v2.9a1.933,1.933,0,0,0,1.933,1.933H15.8a1.933,1.933,0,0,0,1.933-1.933v-2.9A1.933,1.933,0,0,0,15.8,45Zm-3.867,4.833v-2.9H15.8v2.9Z" transform="translate(-2.267 -5.867)" fill="#313131"/>
      <path id="Path_8647" data-name="Path 8647" d="M48.567,36A12.567,12.567,0,1,0,61.133,48.567,12.567,12.567,0,0,0,48.567,36Zm0,23.2A10.633,10.633,0,1,1,59.2,48.567,10.633,10.633,0,0,1,48.567,59.2Z" transform="translate(-6.133 -6.133)" fill="#313131"/>
      <path id="Path_8648" data-name="Path 8648" d="M54.344,44.8l-7.519,7.519L43.408,48.9a.967.967,0,1,0-1.367,1.367l4.1,4.1a.967.967,0,0,0,1.367,0l8.2-8.2A.967.967,0,1,0,54.344,44.8Z" transform="translate(-6.325 -6.417)" fill="#313131"/>
    </g>
  </g>
</svg>
