<svg xmlns="http://www.w3.org/2000/svg" xmlns:xlink="http://www.w3.org/1999/xlink" width="82" height="55" viewBox="0 0 82 55">
  <defs>
    <clipPath id="clip-delivery-truck">
      <rect width="82" height="55"/>
    </clipPath>
  </defs>
  <g id="delivery-truck" clip-path="url(#clip-delivery-truck)">
    <rect width="82" height="55" fill="#fff"/>
    <g id="delivery-truck-2" data-name="delivery-truck" transform="translate(0.001 5)">
      <path id="Path_11" data-name="Path 11" d="M11.07,72.96a1.32,1.32,0,0,1-1.32-1.32V58.254a1.318,1.318,0,0,1,.231-.745l9.112-13.322a1.319,1.319,0,0,1,1.089-.575H31.869v-7.98a1.32,1.32,0,0,1,1.32-1.32H78.937a1.32,1.32,0,0,1,1.32,1.32v7.226h9.992a1.32,1.32,0,0,1,0,2.639H80.257v2.058h4.21a1.32,1.32,0,0,1,0,2.639h-4.21V52.25h9.992a1.32,1.32,0,0,1,0,2.639H80.257v2.058h4.21a1.32,1.32,0,1,1,0,2.639h-4.21V71.64a1.32,1.32,0,0,1-1.32,1.32H73.708a7.416,7.416,0,0,1-1.645,3.488H90.248a1.32,1.32,0,1,1,0,2.639H11.07a1.32,1.32,0,0,1,0-2.639h5.383a7.415,7.415,0,0,1-1.645-3.488Zm9.808-26.707L12.389,58.66V70.32h2.418a7.439,7.439,0,0,1,14.645,0h2.417V46.252ZM59.064,72.96H29.452a7.415,7.415,0,0,1-1.642,3.488h32.9a7.416,7.416,0,0,1-1.645-3.488ZM77.617,59.59H68.631a1.32,1.32,0,1,1,0-2.639h8.986V54.89h-3.2a1.32,1.32,0,1,1,0-2.639h3.2V50.2H68.631a1.32,1.32,0,1,1,0-2.639h8.986V45.5h-3.2a1.32,1.32,0,0,1,0-2.639h3.2V36.952H34.509V70.32H59.064a7.439,7.439,0,0,1,14.645,0h3.908ZM71.193,71.639a4.807,4.807,0,1,0-4.807,4.807,4.807,4.807,0,0,0,4.807-4.807Zm-44.256,0a4.807,4.807,0,1,0-4.807,4.807,4.807,4.807,0,0,0,4.807-4.807Z" transform="translate(-9.75 -34.313)" fill="#313131" stroke="#fff" stroke-width="0.4"/>
      <path id="Path_12" data-name="Path 12" d="M104.826,63.061H92.2a1.32,1.32,0,0,1-1.078-2.082l6-8.483a1.32,1.32,0,0,1,1.078-.557h6.63a1.32,1.32,0,0,1,1.32,1.32v8.483A1.32,1.32,0,0,1,104.826,63.061Zm-1.32-8.483H98.879l-4.133,5.844h8.761Z" transform="translate(-85.503 -38.647)" fill="#313131" stroke="#fff" stroke-width="0.4"/>
    </g>
  </g>
</svg>
