<svg xmlns="http://www.w3.org/2000/svg" xmlns:xlink="http://www.w3.org/1999/xlink" width="60" height="55" viewBox="0 0 60 55">
  <defs>
    <clipPath id="clip-light-bulb">
      <rect width="60" height="55"/>
    </clipPath>
  </defs>
  <g id="light-bulb" clip-path="url(#clip-light-bulb)">
    <g id="Calendar" transform="translate(2.505 -1)">
      <g id="light-bulb-2" data-name="light-bulb" transform="translate(8.494 4)">
        <path id="Path_8671" data-name="Path 8671" d="M35.5,44.763a.735.735,0,0,0,.735-.735,16.255,16.255,0,0,1,4.153-11.045,14.259,14.259,0,1,0-21.1-.067A16.49,16.49,0,0,1,23.5,44.028a.735.735,0,0,0,.735.735h.421v1.789h-.549a.735.735,0,1,0,0,1.471h.549v1.311a.735.735,0,0,0,.215.52L27.215,52.2a.735.735,0,0,0,.52.215h4.27a.735.735,0,0,0,.52-.215l2.345-2.345a.735.735,0,0,0,.215-.52V48.023h.549a.735.735,0,0,0,0-1.471h-.549V44.763ZM20.383,31.929A12.785,12.785,0,0,1,38.4,13.84a12.783,12.783,0,0,1,.9,18.15,17.634,17.634,0,0,0-4.525,11.3H30.606V27.669a4.107,4.107,0,1,0-1.471,0V43.293h-4.18a17.9,17.9,0,0,0-4.572-11.364Zm9.487-5.661a2.636,2.636,0,1,1,2.636-2.636A2.639,2.639,0,0,1,29.87,26.268Zm3.745,22.761L31.7,50.943H28.04l-1.914-1.914V48.023h7.489Zm0-2.477H26.125V44.763h7.489Z" transform="translate(-10.43 -3.88)" fill="#303030" stroke="#313131" stroke-width="0.5"/>
        <path id="Path_8672" data-name="Path 8672" d="M35.048,5.115V2.735a.735.735,0,0,0-1.471,0v2.38a.735.735,0,1,0,1.471,0Z" transform="translate(-15.183 -2)" fill="#303030" stroke="#313131" stroke-width="0.5"/>
        <path id="Path_8673" data-name="Path 8673" d="M22.842,9.151a.735.735,0,0,0,.636-1.1l-1.19-2.061a.735.735,0,1,0-1.274.735L22.2,8.783A.735.735,0,0,0,22.842,9.151Z" transform="translate(-11.833 -2.958)" fill="#303030" stroke="#313131" stroke-width="0.5"/>
        <path id="Path_8674" data-name="Path 8674" d="M14.189,17.646a.735.735,0,1,0,.735-1.274l-2.061-1.19a.735.735,0,1,0-.735,1.274Z" transform="translate(-9.41 -5.462)" fill="#303030" stroke="#313131" stroke-width="0.5"/>
        <path id="Path_8675" data-name="Path 8675" d="M8.564,28.594a.735.735,0,0,0,.735.735h2.38a.735.735,0,0,0,0-1.471H9.3A.735.735,0,0,0,8.564,28.594Z" transform="translate(-8.564 -8.843)" fill="#303030" stroke="#313131" stroke-width="0.5"/>
        <path id="Path_8676" data-name="Path 8676" d="M12.919,41.562a.732.732,0,0,0,.367-.1l2.061-1.19A.735.735,0,1,0,14.612,39l-2.061,1.19a.735.735,0,0,0,.368,1.372Z" transform="translate(-9.522 -11.765)" fill="#303030" stroke="#313131" stroke-width="0.5"/>
        <path id="Path_8677" data-name="Path 8677" d="M53.8,39.542l2.061,1.19a.735.735,0,1,0,.735-1.274l-2.061-1.19a.735.735,0,1,0-.735,1.274Z" transform="translate(-20.439 -11.572)" fill="#303030" stroke="#313131" stroke-width="0.5"/>
        <path id="Path_8678" data-name="Path 8678" d="M60.05,27.749a.735.735,0,0,0-.735-.735h-2.38a.735.735,0,0,0,0,1.471h2.38A.735.735,0,0,0,60.05,27.749Z" transform="translate(-21.17 -8.619)" fill="#303030" stroke="#313131" stroke-width="0.5"/>
        <path id="Path_8679" data-name="Path 8679" d="M53.75,17.013a.732.732,0,0,0,.367-.1l2.061-1.19a.735.735,0,1,0-.735-1.274l-2.061,1.19a.735.735,0,0,0,.368,1.372Z" transform="translate(-20.327 -5.269)" fill="#303030" stroke="#313131" stroke-width="0.5"/>
        <path id="Path_8680" data-name="Path 8680" d="M45.468,8.728a.735.735,0,0,0,.638-.368L47.3,6.3a.735.735,0,0,0-1.274-.735l-1.19,2.061a.735.735,0,0,0,.636,1.1Z" transform="translate(-18.136 -2.846)" fill="#303030" stroke="#313131" stroke-width="0.5"/>
      </g>
    </g>
  </g>
</svg>
