<svg xmlns="http://www.w3.org/2000/svg" id="store" width="39.241" height="31.883" viewBox="0 0 39.241 31.883">
    <defs>
        <style>
            .cls-1{fill:#0079c1}
        </style>
    </defs>
    <g id="Group_8870">
        <g id="Group_8869">
            <path id="Path_8558" d="M39.02 57.1l-6.131-8.584A1.278 1.278 0 0 0 31.883 48H7.358a1.278 1.278 0 0 0-1.006.515L.221 57.1 0 57.764a4.914 4.914 0 0 0 4.905 4.954 4.862 4.862 0 0 0 3.679-1.668 4.891 4.891 0 0 0 7.358 0 4.891 4.891 0 0 0 7.358 0 4.891 4.891 0 0 0 7.358 0 4.862 4.862 0 0 0 3.679 1.668 4.914 4.914 0 0 0 4.905-4.954z" class="cls-1" transform="translate(0 -48.003)"/>
        </g>
    </g>
    <g id="Group_8872" transform="translate(2.453 16.177)">
        <g id="Group_8871">
            <path id="Path_8559" d="M63.886 260.066a7.338 7.338 0 0 1-3.679-.991 7.515 7.515 0 0 1-7.358 0 7.515 7.515 0 0 1-7.358 0 7.515 7.515 0 0 1-7.358 0 7.457 7.457 0 0 1-6.131.513v12.741a2.453 2.453 0 0 0 2.453 2.453h19.62v-12.264h7.358v12.263h2.453a2.453 2.453 0 0 0 2.453-2.453v-12.711a7.313 7.313 0 0 1-2.453.449zm-17.168 9.81h-9.81v-7.358h9.81z" class="cls-1" transform="translate(-32.003 -259.075)"/>
        </g>
    </g>
</svg>
