<svg xmlns="http://www.w3.org/2000/svg" width="47.359" height="31.927" viewBox="0 0 47.359 31.927">
    <defs>
        <style>
            .cls-2{fill-rule:evenodd;fill:#f07a23}
        </style>
    </defs>
    <g id="Page-1" transform="translate(-.348 -.622)">
        <g id="TeamStore_Jerzee" transform="translate(.348 .622)">
            <g id="Group">
                <path id="Fill-1" fill="#dc4f2b" fill-rule="evenodd" d="M212.1 8.058a5.066 5.066 0 0 0 3.9-1.799 6.25 6.25 0 0 0 .994-4.182 9.111 9.111 0 0 1-5.208 1.623 11.7 11.7 0 0 1-5.277-1.359c.456 1.83 1.9 5.974 5.6 5.72" transform="translate(-188.621 -1.897)"/>
                <path id="Fill-3" d="M473.375 102.771a17.176 17.176 0 0 0-1.922-1.625l-5.036 7.262 2.177.982 2.565-3.535h-.009z" class="cls-2" transform="translate(-426.015 -92.385)"/>
                <path id="Fill-5" d="M69.549 26.337H60.5v-3.3h2.927v-7.61H60.5v-1.335l3.593-2.572h3.127v11.516h2.329zM78.042 2.82l.016-.045C76.971 2.17 73.593.07 70.8 0a8.7 8.7 0 0 1-1.472 5.342A5.568 5.568 0 0 1 64.955 7.4C60.2 7.712 58.125 2.025 57.8.421a19.746 19.746 0 0 0-6.54 2.794v.015c-1.519.99-3.938 2.59-6.047 4.082l5.242 7.878 1.751-.727c-.007.184-.011.31-.011.362 0 .454.434 17.1.434 17.1h25.225l-.065-17.634 1.324.563.664.3 5.285-7.621c-2.587-1.839-5.72-3.872-7.02-4.714z" class="cls-2" transform="translate(-41.3)"/>
                <path id="Fill-7" d="M0 100.338l2.666 3.691.013-.006 2.1 2.935 2.421-1.006-4.97-7.469A19.393 19.393 0 0 0 0 100.338" class="cls-2" transform="translate(0 -89.952)"/>
            </g>
        </g>
    </g>
</svg>
